<?xml version="1.0" encoding="UTF-8"?>
<!DOCTYPE svg PUBLIC "-//W3C//DTD SVG 1.1//EN" "http://www.w3.org/Graphics/SVG/1.1/DTD/svg11.dtd">
<!-- Creator: CorelDRAW 2021.5 -->
<svg xmlns="http://www.w3.org/2000/svg" xml:space="preserve" width="16.6493mm" height="16.6494mm" version="1.1" style="shape-rendering:geometricPrecision; text-rendering:geometricPrecision; image-rendering:optimizeQuality; fill-rule:evenodd; clip-rule:evenodd"
viewBox="0 0 12976.28 12976.35"
 xmlns:xlink="http://www.w3.org/1999/xlink"
 xmlns:xodm="http://www.corel.com/coreldraw/odm/2003">
 <defs>
  <style type="text/css">
   <![CDATA[
    .fil2 {fill:none}
    .fil1 {fill:white}
    .fil0 {fill:white;fill-rule:nonzero}
   ]]>
  </style>
 </defs>
 <g id="Layer_x0020_1">
  <metadata id="CorelCorpID_0Corel-Layer"/>
  <polygon class="fil0" points="3108.05,2145.81 3017.87,2145.81 2456.94,1028.4 2642.75,1028.4 3062.53,1864.45 3476.07,1028.4 3668.11,1028.4 "/>
  <polygon id="_1" class="fil0" points="3885.64,2145.81 3885.64,1028.4 4933.37,1028.4 4933.37,1191.84 4059.84,1191.84 4059.84,1470.55 4633.23,1470.55 4633.23,1631.34 4059.84,1631.34 4059.84,1985.02 4981.62,1985.02 4981.62,2145.81 "/>
  <path id="_2" class="fil0" d="M6412.97 1872.48c-63.44,100.07 -146.91,176.45 -250.57,229.14 -103.11,52.69 -221.03,79.03 -352.83,79.03 -196.02,0 -357.74,-55.41 -485.01,-166.56 -126.81,-111.22 -190.25,-252.37 -190.25,-422.97 0,-171.08 63.44,-312.15 190.25,-424.3 127.27,-112.08 289,-167.88 485.01,-167.88 122.36,0 233.12,22.76 332.72,68.74 99.61,45.59 179.57,110.36 240.75,193.83l-138.89 96.49c-45.98,-63.44 -106.78,-112.54 -182.22,-146.91 -75.52,-34.37 -159.46,-51.36 -251.9,-51.36 -143.33,0 -261.72,40.61 -355.48,122.36 -93.76,81.29 -140.68,183.55 -140.68,306.38 0,122.83 46.92,225.09 141.15,306.38 94.23,81.68 212.54,122.36 355.01,122.36 99.14,0 187.13,-19.64 263.04,-58.53 75.91,-39.28 142.47,-100 200.07,-182.69l139.82 96.49z"/>
  <polygon id="_3" class="fil0" points="6972.1,2145.81 6972.1,1183.81 6500.49,1183.81 6500.49,1028.4 7617.9,1028.4 7617.9,1183.81 7146.29,1183.81 7146.29,2145.81 "/>
  <path id="_4" class="fil0" d="M8378.43 2017.21c149.17,0 271.15,-40.22 365.38,-121.04 94.23,-80.43 141.07,-183.16 141.07,-307.7 0,-123.77 -47.31,-226.02 -142,-307.31 -94.62,-80.82 -216.12,-121.43 -364.44,-121.43 -148.24,0 -269.28,40.22 -363.04,121.04 -93.76,80.35 -140.68,183.08 -140.68,307.7 0,124.55 46.92,227.27 140.68,307.7 93.76,80.82 214.8,121.04 363.04,121.04zm0 163.44c-198.67,0 -362.57,-56.27 -490.78,-168.82 -128.21,-112.08 -192.51,-253.22 -192.51,-423.36 0,-170.61 63.91,-311.76 191.65,-422.97 128.13,-111.22 292.04,-166.56 491.64,-166.56 201.47,0 366.23,55.34 494.44,166.17 127.74,110.75 191.57,251.82 191.57,423.36 0,171 -64.3,312.15 -192.51,424.22 -128.13,112.15 -292.5,167.96 -493.51,167.96z"/>
  <path id="_5" class="fil0" d="M9525.3 1494.63l593.97 0c60.32,0 106.31,-12.94 138.03,-39.28 31.72,-26.34 47.78,-63.83 47.78,-113.01 0,-48.63 -16.06,-86.12 -47.78,-111.61 -31.72,-25.88 -77.71,-38.89 -138.03,-38.89l-593.97 0 0 302.79zm0 163.52l0 487.66 -174.19 0 0 -1114.68 768.17 0c114.34,0 203.65,27.67 268.42,82.62 64.77,54.87 96.96,131.25 96.96,229.06 0,79.03 -25.49,147.85 -76.85,205.91 -50.89,58.06 -117.45,93.76 -199.6,106.7l311.29 490.39 -189.86 0 -317.06 -487.66 -487.27 0z"/>
  <polygon class="fil0" points="2861.14,11911.71 2861.14,10791.65 3038.06,10791.65 3038.06,11911.71 "/>
  <polygon id="_1_0" class="fil0" points="3423.85,11911.71 3423.85,10794.3 3568.98,10794.3 4026.32,11448.13 4484.52,10794.3 4629.72,10794.3 4629.72,11911.71 4455.53,11911.71 4455.53,11108.24 4026.32,11729.49 3598.05,11108.24 3598.05,11911.71 "/>
  <path id="_2_1" class="fil0" d="M5203.12 11480.32l436.77 0 -217.06 -428.35 -219.71 428.35zm-405.05 431.39l568.49 -1117.41 109.89 0 572.93 1117.41 -187.05 0 -145.2 -284.01 -589.92 0 -144.26 284.01 -184.87 0z"/>
  <path id="_3_2" class="fil0" d="M6974.36 11477.59l0 -160.79 460.85 0 0 337.24c-64.69,95.55 -148.71,168.35 -252.76,217.92 -103.58,49.57 -224.15,74.59 -361.32,74.59 -205.84,0 -374.18,-55.41 -505.04,-166.56 -130.86,-111.22 -196.56,-252.37 -196.56,-422.97 0,-171.08 65.7,-312.15 197.42,-424.3 131.72,-112.08 299.67,-167.88 504.19,-167.88 129.07,0 243.4,22.29 343.48,66.56 100,44.66 183.08,109.82 249.17,196.02l-134.37 96.49c-47.39,-61.65 -111.22,-110.28 -191.65,-145.59 -80.82,-35.31 -169.67,-52.69 -266.63,-52.69 -152.68,0 -277.77,40.61 -375.59,121.43 -97.81,81.29 -146.45,183.55 -146.45,307.31 0,123.69 48.63,225.94 146.06,307.23 97.35,80.82 222.36,121.51 375.98,121.51 96.02,0 184.95,-17.46 266.63,-52.3 81.29,-34.84 138.5,-79.03 170.61,-133.04l0 -120.18 -284.01 0z"/>
  <polygon id="_4_3" class="fil0" points="7754.53,11911.71 7754.53,10794.3 8802.26,10794.3 8802.26,10957.74 7928.72,10957.74 7928.72,11236.45 8502.12,11236.45 8502.12,11397.23 7928.72,11397.23 7928.72,11750.92 8850.5,11750.92 8850.5,11911.71 "/>
  <path id="_5_4" class="fil0" d="M9003.19 11768.77l84.88 -146.45c76.85,51.36 160.79,91.58 251.43,120.1 91.11,29.07 177.78,43.33 260.86,43.33 99.53,0 179.96,-20.11 241.14,-60.71 61.18,-40.68 91.58,-92.44 91.58,-155.88 0,-63.83 -28.14,-110.75 -84.02,-142 -55.8,-30.86 -143.8,-47.78 -264.37,-51.36 -203.65,-2.73 -343.4,-26.34 -419.39,-70.61 -75.91,-44.66 -113.87,-118.31 -113.87,-221.03 0,-96.02 41.54,-173.26 125.09,-231.79 83.47,-58.53 195.55,-87.53 336.23,-87.53 96.02,0 188.92,13.41 279.64,40.61 90.18,26.81 177.23,67.03 261.25,120.18l-87.99 144.65c-69.68,-46.84 -144.73,-83 -225.09,-108.96 -80.43,-25.41 -157.2,-38.42 -230.47,-38.42 -84.88,0 -153.15,14.81 -204.51,44.27 -51.36,29.93 -77.32,68.27 -77.32,116.13 0,49.57 25.95,84.8 77.71,105.84 51.83,20.97 142.08,31.25 270.21,31.25 178.17,0 312.22,29.93 402.87,90.18 90.64,60.32 136.16,149.64 136.16,268.42 0,105.37 -45.98,192.9 -137.95,263.04 -92.05,69.68 -211.29,104.52 -357.74,104.52 -108.49,0 -215.73,-15.67 -322.9,-46.45 -106.7,-30.79 -204.51,-74.59 -293.44,-131.33z"/>
  <path class="fil1" d="M1410.38 5817.75l330.3 671.37 -270.6 0 0 113.32 -119.4 0 0 -113.32 -270.68 0 330.38 -671.37zm4816.93 -329.37l-449.01 0 0 449.08 449.01 0 0 -449.08zm1895.47 1722.29l-708.39 -241.3 191.5 -191.26 -80.2 -80.12 84.41 -84.49 80.12 80.12 191.42 -191.42 241.14 708.46zm-1734.45 -1650.2l84.41 84.41 84.33 -84.41 -84.49 -84.41 -84.25 84.41zm162.42 162.5l84.41 84.49 84.33 -84.41 -84.33 -84.49 -84.41 84.41zm162.42 162.5l84.41 84.49 84.56 -84.56 -84.49 -84.33 -84.49 84.41zm162.5 162.5l84.49 84.41 84.41 -84.49 -84.41 -84.33 -84.49 84.41zm162.42 162.5l84.56 84.41 84.33 -84.49 -84.33 -84.41 -84.56 84.49zm162.66 162.5l84.41 84.41 84.33 -84.41 -84.41 -84.41 -84.33 84.41zm162.35 162.42l84.41 84.33 84.49 -84.33 -84.49 -84.33 -84.41 84.33zm-2876.49 -2953.73l708.39 241.14 -191.42 191.42 80.12 80.12 -84.41 84.41 -80.12 -80.2 -191.34 191.42 -241.22 -708.31zm1734.53 1650.04l-84.41 -84.41 -84.41 84.41 84.41 84.41 84.41 -84.41zm-162.5 -162.5l-84.41 -84.41 -84.41 84.41 84.41 84.49 84.41 -84.49zm-162.42 -162.42l-84.49 -84.41 -84.41 84.41 84.41 84.41 84.49 -84.41zm-162.5 -162.58l-84.49 -84.33 -84.41 84.33 84.41 84.49 84.49 -84.49zm-162.5 -162.42l-84.49 -84.41 -84.33 84.41 84.33 84.49 84.49 -84.49zm-162.5 -162.42l-84.41 -84.49 -84.49 84.49 84.49 84.33 84.41 -84.33zm-162.5 -162.5l-84.33 -84.49 -84.49 84.49 84.49 84.41 84.33 -84.41zm6149.45 4978.66l-330.3 -671.44 270.6 0 0 -113.25 119.4 0 0 113.25 270.68 0 -330.38 671.44zm-59.7 -2393.27l0 119.4 119.4 0 0 -119.4 -119.4 0zm0 229.84l0 119.4 119.4 0 0 -119.4 -119.4 0zm0 229.76l0 119.4 119.4 0 0 -119.4 -119.4 0zm0 229.76l0 119.4 119.4 0 0 -119.4 -119.4 0zm0 229.76l0 119.4 119.4 0 0 -119.4 -119.4 0zm0 229.84l0 119.4 119.4 0 0 -119.4 -119.4 0zm0 229.76l0 119.4 119.4 0 0 -119.4 -119.4 0zm-15.12 -1938.57l-449.08 0 0 449.01 449.08 0 0 -449.01zm-9387.66 2041.69l-449.08 0 0 449.08 449.08 0 0 -449.08zm9219.62 -1479.28c-6.47,787.65 -465.3,1933.51 -1920.41,1949.95 -945.55,10.6 -1613.49,-733.64 -2330.84,-1973.1 -152.76,-263.82 -349.63,-529.2 -581.27,-770.89l-196.87 0c240.91,239.82 459.45,523.52 651.02,842.05 733.17,1218.96 1398.77,2053.84 2480.33,2053.84 1374.3,0 2053.77,-1090.29 2042.62,-2101.86l-144.58 0zm-5487.91 -1340.08c-424.3,-274.58 -908.22,-447.91 -1420.28,-434.98 -1485.51,37.41 -2413.77,1679.97 -2469.26,3140.94l144.97 0c9.82,-1149.36 849.07,-3009.38 2324.45,-3009.38 509.41,0 989.75,168.04 1420.12,465.61l0 -162.19zm5224.87 1340.08c-7.01,784.14 -500.06,1686.75 -1699.69,1700.39 -806.75,9.2 -1387.86,-685.94 -2105.44,-1925.48 -182.14,-314.8 -437.16,-634.89 -743.93,-916.09l0 198.28c232.26,230.93 441.06,496.7 616.89,788.9 733.25,1219.12 1332.52,2005.68 2254.93,2002.25 1122.48,-4.29 1832.58,-839.4 1821.82,-1848.24l-144.58 0zm-4958.78 -1469.85c-479.32,-333.5 -1041.11,-557.42 -1630.01,-554.15 -1893.84,10.44 -2734.8,1924.08 -2788.73,3389.87l145.12 0c9.9,-1089.98 789.83,-3280.21 2643.76,-3258.31 468.88,5.53 940.25,158.37 1372.58,422.58l257.28 0zm-4460.91 2836.04l0 -119.4 -119.4 0 0 119.4 119.4 0zm0 -229.84l0 -119.4 -119.4 0 0 119.4 119.4 0zm0 -229.76l0 -119.4 -119.4 0 0 119.4 119.4 0zm0 -229.84l0 -119.32 -119.4 0 0 119.32 119.4 0zm0 -229.69l0 -119.4 -119.4 0 0 119.4 119.4 0zm0 -229.84l0 -119.4 -119.4 0 0 119.4 119.4 0zm0 -229.76l0 -119.4 -119.4 0 0 119.4 119.4 0z"/>
  <g id="_2107215134400">
   <rect class="fil2" x="0.04" y="12970.78" width="5.53" height="5.53"/>
   <rect class="fil2" x="0.04" y="0.04" width="5.53" height="5.53"/>
   <rect class="fil2" x="12970.78" y="12970.78" width="5.53" height="5.53"/>
   <rect class="fil2" x="12970.78" y="0.04" width="5.53" height="5.53"/>
  </g>
 </g>
</svg>
