<?xml version="1.0" encoding="UTF-8"?>
<!DOCTYPE svg PUBLIC "-//W3C//DTD SVG 1.1//EN" "http://www.w3.org/Graphics/SVG/1.1/DTD/svg11.dtd">
<!-- Creator: CorelDRAW 2021.5 -->
<svg xmlns="http://www.w3.org/2000/svg" xml:space="preserve" width="16.6493mm" height="16.6494mm" version="1.1" style="shape-rendering:geometricPrecision; text-rendering:geometricPrecision; image-rendering:optimizeQuality; fill-rule:evenodd; clip-rule:evenodd"
viewBox="0 0 202.71 202.71"
 xmlns:xlink="http://www.w3.org/1999/xlink"
 xmlns:xodm="http://www.corel.com/coreldraw/odm/2003">
 <defs>
  <style type="text/css">
   <![CDATA[
    .fil2 {fill:none}
    .fil1 {fill:white}
    .fil0 {fill:white;fill-rule:nonzero}
   ]]>
  </style>
 </defs>
 <g id="Layer_x0020_1">
  <metadata id="CorelCorpID_0Corel-Layer"/>
  <path class="fil0" d="M58.43 19.05l-7.91 0 0 4.1 7.95 0c0.87,0 1.53,-0.18 1.97,-0.52 0.44,-0.34 0.66,-0.86 0.66,-1.54 0,-0.68 -0.22,-1.19 -0.66,-1.53 -0.45,-0.34 -1.12,-0.51 -2.02,-0.51zm0.92 6.66l-8.83 0 0 5.73 8.83 0c0.96,0 1.69,-0.25 2.23,-0.76 0.52,-0.5 0.79,-1.21 0.79,-2.13 0,-0.9 -0.27,-1.6 -0.79,-2.1 -0.53,-0.5 -1.27,-0.75 -2.23,-0.75zm-11.55 8.25l0 -17.41 10.72 0c1.77,0 3.12,0.36 4.03,1.09 0.91,0.73 1.37,1.8 1.37,3.21 0,0.71 -0.14,1.34 -0.42,1.89 -0.29,0.55 -0.7,1 -1.25,1.34 0.97,0.54 1.7,1.21 2.19,2 0.5,0.78 0.74,1.67 0.74,2.64 0,1.63 -0.54,2.9 -1.63,3.84 -1.09,0.94 -2.59,1.4 -4.5,1.4l-11.25 0z"/>
  <path id="_1" class="fil0" d="M79.69 31.94c2.33,0 4.24,-0.63 5.71,-1.89 1.47,-1.26 2.2,-2.86 2.2,-4.81 0,-1.93 -0.74,-3.53 -2.22,-4.8 -1.48,-1.26 -3.38,-1.9 -5.69,-1.9 -2.32,0 -4.21,0.63 -5.67,1.89 -1.46,1.26 -2.2,2.86 -2.2,4.81 0,1.95 0.73,3.55 2.2,4.81 1.46,1.26 3.36,1.89 5.67,1.89zm0 2.55c-3.1,0 -5.66,-0.88 -7.67,-2.64 -2,-1.75 -3.01,-3.96 -3.01,-6.61 0,-2.67 1,-4.87 2.99,-6.61 2,-1.74 4.56,-2.6 7.68,-2.6 3.15,0 5.72,0.86 7.72,2.6 2,1.73 2.99,3.93 2.99,6.61 0,2.67 -1,4.88 -3.01,6.63 -2,1.75 -4.57,2.62 -7.71,2.62z"/>
  <path id="_2" class="fil0" d="M104.01 31.94c2.33,0 4.24,-0.63 5.71,-1.89 1.47,-1.26 2.2,-2.86 2.2,-4.81 0,-1.93 -0.74,-3.53 -2.22,-4.8 -1.48,-1.26 -3.38,-1.9 -5.69,-1.9 -2.32,0 -4.21,0.63 -5.67,1.89 -1.46,1.26 -2.2,2.86 -2.2,4.81 0,1.95 0.73,3.55 2.2,4.81 1.46,1.26 3.36,1.89 5.67,1.89zm0 2.55c-3.1,0 -5.66,-0.88 -7.67,-2.64 -2,-1.75 -3.01,-3.96 -3.01,-6.61 0,-2.67 1,-4.87 2.99,-6.61 2,-1.74 4.56,-2.6 7.68,-2.6 3.15,0 5.72,0.86 7.72,2.6 2,1.73 2.99,3.93 2.99,6.61 0,2.67 -1,4.88 -3.01,6.63 -2,1.75 -4.57,2.62 -7.71,2.62z"/>
  <polygon id="_3" class="fil0" points="119.21,33.95 119.21,16.54 121.93,16.54 121.93,24.28 131.18,16.54 134.78,16.54 127.45,22.73 135.87,33.95 132.8,33.95 125.53,24.32 121.93,27.37 121.93,33.95 "/>
  <path id="_4" class="fil0" d="M137.55 31.72l1.33 -2.29c1.2,0.8 2.51,1.43 3.93,1.88 1.42,0.45 2.78,0.68 4.08,0.68 1.55,0 2.81,-0.31 3.77,-0.95 0.96,-0.64 1.43,-1.44 1.43,-2.44 0,-1 -0.44,-1.73 -1.31,-2.22 -0.87,-0.48 -2.25,-0.75 -4.13,-0.8 -3.18,-0.04 -5.36,-0.41 -6.55,-1.1 -1.19,-0.7 -1.78,-1.85 -1.78,-3.45 0,-1.5 0.65,-2.71 1.95,-3.62 1.3,-0.91 3.05,-1.37 5.25,-1.37 1.5,0 2.95,0.21 4.37,0.63 1.41,0.42 2.77,1.05 4.08,1.88l-1.37 2.26c-1.09,-0.73 -2.26,-1.3 -3.52,-1.7 -1.26,-0.4 -2.46,-0.6 -3.6,-0.6 -1.33,0 -2.39,0.23 -3.19,0.69 -0.8,0.47 -1.21,1.07 -1.21,1.81 0,0.77 0.41,1.32 1.21,1.65 0.81,0.33 2.22,0.49 4.22,0.49 2.78,0 4.88,0.47 6.29,1.41 1.42,0.94 2.13,2.34 2.13,4.19 0,1.65 -0.72,3.01 -2.16,4.11 -1.44,1.09 -3.3,1.63 -5.59,1.63 -1.69,0 -3.37,-0.24 -5.04,-0.73 -1.67,-0.48 -3.19,-1.17 -4.58,-2.05z"/>
  <path class="fil1" d="M55.02 73.82l47.88 0c14.53,-6.52 29.71,-9.81 43.41,-6.01 1.97,0.55 2.17,1.11 2.17,3.29l0 2.71 5.22 0c2.27,0 4.12,1.85 4.12,4.12l0 59.34c0,0.88 -0.28,1.7 -0.76,2.38 -0.5,2.93 -3.06,5.17 -6.13,5.17l-44.97 0c-0.75,1.62 -2.39,2.74 -4.29,2.74 -1.9,0 -3.54,-1.12 -4.29,-2.74l-44.97 0c-2.83,0 -5.24,-1.92 -5.98,-4.53 -0.17,-0.29 -0.27,-0.63 -0.27,-1l0 -62.86c0,-1.09 0.89,-1.98 1.98,-1.98l4.68 0c0.64,-0.4 1.39,-0.64 2.2,-0.64zm45.55 3.83l-44.52 0c-0.68,0 -1.24,0.56 -1.24,1.24l0 57.45c0,0.68 0.56,1.24 1.24,1.24l44.5 0 0.02 -59.92zm4.23 59.92l47.88 0c0.68,0 1.24,-0.56 1.24,-1.24l0 -57.45c0,-0.68 -0.56,-1.24 -1.24,-1.24l-4.19 0 0.01 46.88c0,2.27 -0.77,2.6 -2.67,2.38 -13.72,-1.57 -27.48,2.18 -41.03,10.66zm-1.37 -60.65c13.32,-6.41 28.48,-10.14 42.12,-6.33 -0.37,18.07 0.54,35.3 0.05,53.37 -13.94,-1.68 -28.3,2.72 -42.19,10.82l0.02 -57.86z"/>
  <g id="_2106467999056">
   <rect class="fil2" x="0" y="202.63" width="0.09" height="0.09"/>
   <rect class="fil2" x="0" y="0" width="0.09" height="0.09"/>
   <rect class="fil2" x="202.63" y="202.63" width="0.09" height="0.09"/>
   <rect class="fil2" x="202.63" y="0" width="0.09" height="0.09"/>
  </g>
 </g>
</svg>
