<?xml version="1.0" encoding="UTF-8"?>
<!DOCTYPE svg PUBLIC "-//W3C//DTD SVG 1.1//EN" "http://www.w3.org/Graphics/SVG/1.1/DTD/svg11.dtd">
<!-- Creator: CorelDRAW 2021.5 -->
<svg xmlns="http://www.w3.org/2000/svg" xml:space="preserve" width="16.6493mm" height="16.6494mm" version="1.1" style="shape-rendering:geometricPrecision; text-rendering:geometricPrecision; image-rendering:optimizeQuality; fill-rule:evenodd; clip-rule:evenodd"
viewBox="0 0 410.68 410.68"
 xmlns:xlink="http://www.w3.org/1999/xlink"
 xmlns:xodm="http://www.corel.com/coreldraw/odm/2003">
 <defs>
  <style type="text/css">
   <![CDATA[
    .fil2 {fill:none}
    .fil1 {fill:white}
    .fil0 {fill:white;fill-rule:nonzero}
   ]]>
  </style>
 </defs>
 <g id="Layer_x0020_1">
  <metadata id="CorelCorpID_0Corel-Layer"/>
  <path class="fil0" d="M124.7 37.44l-16.03 0 0 8.31 16.11 0c1.77,0 3.09,-0.36 4,-1.06 0.89,-0.69 1.34,-1.74 1.34,-3.12 0,-1.37 -0.45,-2.4 -1.34,-3.1 -0.91,-0.69 -2.26,-1.03 -4.08,-1.03zm1.87 13.49l-17.9 0 0 11.62 17.9 0c1.94,0 3.43,-0.51 4.51,-1.54 1.06,-1.02 1.6,-2.46 1.6,-4.31 0,-1.82 -0.54,-3.24 -1.6,-4.25 -1.08,-1 -2.57,-1.51 -4.51,-1.51zm-23.41 16.71l0 -35.28 21.71 0c3.59,0 6.32,0.73 8.17,2.22 1.85,1.47 2.77,3.65 2.77,6.5 0,1.44 -0.28,2.71 -0.86,3.83 -0.58,1.12 -1.43,2.02 -2.53,2.71 1.96,1.1 3.45,2.44 4.44,4.04 1,1.58 1.5,3.38 1.5,5.36 0,3.29 -1.1,5.88 -3.3,7.77 -2.2,1.89 -5.24,2.84 -9.12,2.84l-22.78 0z"/>
  <path id="_1" class="fil0" d="M154.81 47.02l18.8 0c1.91,0 3.36,-0.41 4.37,-1.24 1,-0.83 1.51,-2.02 1.51,-3.58 0,-1.54 -0.51,-2.73 -1.51,-3.53 -1,-0.82 -2.46,-1.23 -4.37,-1.23l-18.8 0 0 9.58zm0 5.17l0 15.43 -5.51 0 0 -35.28 24.31 0c3.62,0 6.45,0.88 8.5,2.61 2.05,1.74 3.07,4.15 3.07,7.25 0,2.5 -0.81,4.68 -2.43,6.52 -1.61,1.84 -3.72,2.97 -6.32,3.38l9.85 15.52 -6.01 0 -10.03 -15.43 -15.42 0z"/>
  <path id="_2" class="fil0" d="M199.73 53.97l13.82 0 -6.87 -13.56 -6.95 13.56zm-12.82 13.65l17.99 -35.36 3.48 0 18.13 35.36 -5.92 0 -4.6 -8.99 -18.67 0 -4.57 8.99 -5.85 0z"/>
  <polygon id="_3" class="fil0" points="231.87,67.63 231.87,32.26 234.77,32.26 257.22,57.11 257.22,32.26 262.65,32.26 262.65,67.63 259.75,67.63 237.3,42.86 237.3,67.63 "/>
  <path id="_4" class="fil0" d="M290.51 32.26c5.78,0 10.43,1.66 13.98,4.95 3.53,3.31 5.3,7.59 5.3,12.86 0,5.33 -1.74,9.58 -5.2,12.78 -3.46,3.18 -8.16,4.78 -14.08,4.78l-15.66 0 0 -35.36 15.66 0zm0.09 5.09l-10.23 0 0 25.19 10.23 0c4.2,0 7.51,-1.13 9.91,-3.38 2.4,-2.25 3.6,-5.32 3.6,-9.17 0,-3.73 -1.24,-6.77 -3.73,-9.12 -2.49,-2.35 -5.74,-3.52 -9.78,-3.52z"/>
  <path class="fil0" d="M110.31 372.32l2.69 -4.63c2.43,1.63 5.09,2.9 7.96,3.8 2.88,0.92 5.63,1.37 8.26,1.37 3.15,0 5.7,-0.64 7.63,-1.92 1.94,-1.29 2.9,-2.93 2.9,-4.93 0,-2.02 -0.89,-3.51 -2.66,-4.49 -1.77,-0.98 -4.55,-1.51 -8.37,-1.63 -6.45,-0.09 -10.87,-0.83 -13.27,-2.23 -2.4,-1.41 -3.6,-3.74 -3.6,-7 0,-3.04 1.31,-5.48 3.96,-7.34 2.64,-1.85 6.19,-2.77 10.64,-2.77 3.04,0 5.98,0.42 8.85,1.29 2.85,0.85 5.61,2.12 8.27,3.8l-2.78 4.58c-2.21,-1.48 -4.58,-2.63 -7.12,-3.45 -2.55,-0.8 -4.98,-1.22 -7.29,-1.22 -2.69,0 -4.85,0.47 -6.47,1.4 -1.63,0.95 -2.45,2.16 -2.45,3.68 0,1.57 0.82,2.68 2.46,3.35 1.64,0.66 4.5,0.99 8.55,0.99 5.64,0 9.88,0.95 12.75,2.85 2.87,1.91 4.31,4.74 4.31,8.5 0,3.33 -1.46,6.1 -4.37,8.32 -2.91,2.21 -6.69,3.31 -11.32,3.31 -3.43,0 -6.83,-0.5 -10.22,-1.47 -3.38,-0.97 -6.47,-2.36 -9.29,-4.16z"/>
  <polygon id="_1_0" class="fil0" points="163.75,376.85 163.75,346.4 148.83,346.4 148.83,341.48 184.19,341.48 184.19,346.4 169.27,346.4 169.27,376.85 "/>
  <polygon id="_2_1" class="fil0" points="199.87,376.85 199.87,358.8 183.75,341.48 190.88,341.48 202.61,354.04 214.12,341.48 221.49,341.48 205.29,358.71 205.29,376.85 "/>
  <polygon id="_3_2" class="fil0" points="227.59,376.85 227.59,341.48 233.1,341.48 233.1,371.76 259.39,371.76 259.39,376.85 "/>
  <polygon id="_4_3" class="fil0" points="265.68,376.85 265.68,341.48 298.84,341.48 298.84,346.66 271.19,346.66 271.19,355.48 289.34,355.48 289.34,360.57 271.19,360.57 271.19,371.76 300.36,371.76 300.36,376.85 "/>
  <path class="fil1" d="M172.08 222.4l66.51 0c2.11,0 3.84,1.73 3.84,3.84 0,2.11 -1.72,3.84 -3.84,3.84l-66.51 0c-2.11,0 -3.84,-1.72 -3.84,-3.83 0,-2.11 1.72,-3.84 3.84,-3.84zm-55.47 -7.95c-1.17,-34.87 49.05,-38.63 58.26,2.62l0.19 0.9 13.07 0 -0.05 -0.49c-3.75,-33.52 -36.81,-76.53 -66.19,-42.5 -7.64,8.85 -10.7,27.6 -7.72,39.18 1.85,7.17 2.44,0.52 2.43,0.29zm59.27 43.22c-1.62,11.47 -5.33,21.16 -13.8,29.85 -3.19,3.27 -5.47,5.83 0.99,1.56 11.17,-7.38 18.58,-17.61 22.71,-31.41l-9.9 0zm118.19 -43.22c1.17,-34.87 -49.05,-38.63 -58.26,2.62l-0.19 0.9 -13.07 0 0.05 -0.49c3.75,-33.52 36.81,-76.53 66.19,-42.5 7.64,8.85 10.7,27.6 7.72,39.18 -1.85,7.17 -2.44,0.52 -2.43,0.29zm-59.27 43.22c1.62,11.47 5.33,21.16 13.8,29.85 3.19,3.27 5.47,5.83 -0.99,1.56 -11.17,-7.38 -18.58,-17.61 -22.71,-31.41l9.9 0zm-62.72 -23.6l66.51 0c2.11,0 3.84,1.73 3.84,3.84 0,2.11 -1.72,3.84 -3.84,3.84l-66.51 0c-2.11,0 -3.83,-1.73 -3.83,-3.84 0,-2.11 1.72,-3.84 3.83,-3.84zm0 11.66l66.51 0c2.11,0 3.84,1.73 3.84,3.83 0,2.11 -1.72,3.84 -3.84,3.84l-66.51 0c-2.11,0 -3.83,-1.73 -3.83,-3.84 0,-2.11 1.72,-3.84 3.83,-3.84zm50.76 -73.69c1.04,-19.73 -6.52,-49.26 -17.27,-60.38l-0.46 0c-10.76,11.12 -18.32,40.65 -17.28,60.38 0.92,17.41 3.46,31.22 5.36,45.93l24.29 0c1.9,-14.71 4.44,-28.51 5.36,-45.93zm-27.2 85.63c0.73,14 3.94,29.19 8.01,38.5l1.8 2.76 1.59 -2.76c4.07,-9.3 7.28,-24.51 8.01,-38.5l-19.4 0z"/>
  <g id="_2106849770384">
   <rect class="fil2" x="0" y="410.5" width="0.18" height="0.18"/>
   <rect class="fil2" x="0" y="0" width="0.18" height="0.18"/>
   <rect class="fil2" x="410.5" y="410.5" width="0.18" height="0.18"/>
   <rect class="fil2" x="410.5" y="0" width="0.18" height="0.18"/>
  </g>
 </g>
</svg>
