<?xml version="1.0" encoding="UTF-8"?>
<!DOCTYPE svg PUBLIC "-//W3C//DTD SVG 1.1//EN" "http://www.w3.org/Graphics/SVG/1.1/DTD/svg11.dtd">
<!-- Creator: CorelDRAW 2021.5 -->
<svg xmlns="http://www.w3.org/2000/svg" xml:space="preserve" width="16.6493mm" height="16.6494mm" version="1.1" style="shape-rendering:geometricPrecision; text-rendering:geometricPrecision; image-rendering:optimizeQuality; fill-rule:evenodd; clip-rule:evenodd"
viewBox="0 0 259.65 259.65"
 xmlns:xlink="http://www.w3.org/1999/xlink"
 xmlns:xodm="http://www.corel.com/coreldraw/odm/2003">
 <defs>
  <style type="text/css">
   <![CDATA[
    .fil2 {fill:none}
    .fil1 {fill:white}
    .fil0 {fill:white;fill-rule:nonzero}
   ]]>
  </style>
 </defs>
 <g id="Layer_x0020_1">
  <metadata id="CorelCorpID_0Corel-Layer"/>
  <polygon class="fil0" points="70.11,42.76 70.11,20.34 73.65,20.34 73.65,42.76 "/>
  <path id="_1" class="fil0" d="M105.02 37.29c-1.27,2 -2.94,3.53 -5.01,4.58 -2.06,1.05 -4.42,1.58 -7.06,1.58 -3.92,0 -7.16,-1.11 -9.7,-3.33 -2.54,-2.23 -3.81,-5.05 -3.81,-8.46 0,-3.42 1.27,-6.25 3.81,-8.49 2.55,-2.24 5.78,-3.36 9.7,-3.36 2.45,0 4.66,0.46 6.66,1.38 1.99,0.91 3.59,2.21 4.82,3.88l-2.78 1.93c-0.92,-1.27 -2.14,-2.25 -3.65,-2.94 -1.51,-0.69 -3.19,-1.03 -5.04,-1.03 -2.87,0 -5.24,0.81 -7.11,2.45 -1.88,1.63 -2.81,3.67 -2.81,6.13 0,2.46 0.94,4.5 2.82,6.13 1.89,1.63 4.25,2.45 7.1,2.45 1.98,0 3.74,-0.39 5.26,-1.17 1.52,-0.79 2.85,-2 4,-3.66l2.8 1.93z"/>
  <path id="_2" class="fil0" d="M122.64 40.18c2.98,0 5.43,-0.8 7.31,-2.42 1.89,-1.61 2.82,-3.66 2.82,-6.16 0,-2.48 -0.95,-4.52 -2.84,-6.15 -1.89,-1.62 -4.32,-2.43 -7.29,-2.43 -2.97,0 -5.39,0.8 -7.26,2.42 -1.88,1.61 -2.81,3.66 -2.81,6.16 0,2.49 0.94,4.55 2.81,6.16 1.88,1.62 4.3,2.42 7.26,2.42zm0 3.27c-3.98,0 -7.25,-1.13 -9.82,-3.38 -2.57,-2.24 -3.85,-5.07 -3.85,-8.47 0,-3.41 1.28,-6.24 3.83,-8.46 2.56,-2.23 5.84,-3.33 9.84,-3.33 4.03,0 7.33,1.11 9.89,3.32 2.56,2.22 3.83,5.04 3.83,8.47 0,3.42 -1.29,6.25 -3.85,8.49 -2.56,2.24 -5.85,3.36 -9.87,3.36z"/>
  <polygon id="_3" class="fil0" points="142.1,42.76 142.1,20.4 143.94,20.4 158.13,36.11 158.13,20.4 161.57,20.4 161.57,42.76 159.73,42.76 145.54,27.1 145.54,42.76 "/>
  <path id="_4" class="fil0" d="M167.29 39.9l1.7 -2.93c1.54,1.03 3.22,1.83 5.03,2.4 1.82,0.58 3.56,0.87 5.22,0.87 1.99,0 3.6,-0.4 4.83,-1.21 1.22,-0.81 1.83,-1.85 1.83,-3.12 0,-1.28 -0.56,-2.22 -1.68,-2.84 -1.12,-0.62 -2.88,-0.96 -5.29,-1.03 -4.07,-0.05 -6.87,-0.53 -8.39,-1.41 -1.52,-0.89 -2.28,-2.37 -2.28,-4.42 0,-1.92 0.83,-3.47 2.5,-4.64 1.67,-1.17 3.91,-1.75 6.73,-1.75 1.92,0 3.78,0.27 5.6,0.81 1.8,0.54 3.55,1.34 5.23,2.4l-1.76 2.89c-1.39,-0.94 -2.9,-1.66 -4.5,-2.18 -1.61,-0.51 -3.15,-0.77 -4.61,-0.77 -1.7,0 -3.06,0.3 -4.09,0.89 -1.03,0.6 -1.55,1.37 -1.55,2.32 0,0.99 0.52,1.7 1.55,2.12 1.04,0.42 2.84,0.63 5.41,0.63 3.57,0 6.25,0.6 8.06,1.8 1.81,1.21 2.72,2.99 2.72,5.37 0,2.11 -0.92,3.86 -2.76,5.26 -1.84,1.39 -4.23,2.09 -7.16,2.09 -2.17,0 -4.32,-0.31 -6.46,-0.93 -2.13,-0.62 -4.09,-1.49 -5.87,-2.63z"/>
  <path class="fil1" d="M85.73 73.74l87.69 0c11.62,0 21.13,9.51 21.13,21.12l0 88.12c0,11.62 -9.5,21.13 -21.13,21.13l-87.69 0c-11.62,0 -21.13,-9.51 -21.13,-21.13l0 -88.12c0,-11.62 9.5,-21.12 21.13,-21.12zm39.16 52.81l0 20.51 -27.04 0c4.88,-10.77 14.97,-18.67 27.04,-20.51zm48.96 -10.16c-2.6,-10.36 -11.76,-14.57 -14.76,-12.77 -5.24,3.15 4.54,7.74 -0.07,16.7 -0.82,1.59 -2.31,2.07 -5.98,6.85 -6.53,-4.31 -14.35,-6.82 -22.76,-6.82 -8.74,0 -16.84,2.71 -23.52,7.34 -3.61,-4.69 -5.09,-5.17 -5.9,-6.75 -4.61,-8.96 5.17,-13.55 -0.07,-16.7 -3,-1.8 -12.15,2.41 -14.76,12.77 -3.24,12.88 0.88,21.27 6.61,27.5 -2.35,5.11 -3.69,10.78 -3.76,16.76l34.37 0 0 13.61 14.01 0 0 -13.61 34.4 0c-0.07,-6.33 -1.57,-12.31 -4.18,-17.66 5.59,-6.2 9.54,-14.53 6.35,-27.21zm-7.86 -3.11c1.28,9.76 -5.75,14.59 -8.36,17.41 2.52,2.22 4.76,4.73 6.68,7.5 5.35,-6.27 6.59,-18.43 1.68,-24.9zm-72.09 0.62c-1.28,9.76 5.75,14.59 8.36,17.41 -2.47,2.28 -4.67,4.85 -6.53,7.67 -5.47,-6.22 -6.78,-18.55 -1.83,-25.08zm38.54 41.44c0.41,-0.54 0.66,-0.7 0.66,-1.96 0,-1.26 -1.45,-3.23 -3.23,-3.23 -1.78,0 -3.23,1.97 -3.23,3.23 0,1.26 0.25,1.41 0.66,1.96l-32.04 0c0.37,-2.03 0.91,-4 1.61,-5.9l30.46 0 0 -23.18c1.78,-0.15 3.57,-0.16 5.36,-0.04l0 23.23 31.04 0c0.7,1.9 1.24,3.87 1.61,5.9l-32.89 0zm-2.57 -1.13c0.46,0 0.83,-0.37 0.83,-0.83 0,-0.46 -0.37,-0.83 -0.83,-0.83 -0.46,0 -0.83,0.37 -0.83,0.83 0,0.46 0.37,0.83 0.83,0.83zm-0.76 3.94l2.33 0 0 10.82 -2.33 0 0 -10.82zm6.01 -31.69c12.33,1.67 22.66,9.66 27.62,20.6l-27.62 0 0 -20.6zm-48.39 -45.09l85.69 0c7.99,0 14.52,6.53 14.52,14.52l0 86.07c0,7.99 -6.54,14.53 -14.52,14.53l-85.69 0c-7.99,0 -14.52,-6.53 -14.52,-14.53l0 -86.07c0,-7.99 6.53,-14.52 14.52,-14.52z"/>
  <g id="_2106856849040">
   <rect class="fil2" x="0" y="259.54" width="0.11" height="0.11"/>
   <rect class="fil2" x="0" y="0" width="0.11" height="0.11"/>
   <rect class="fil2" x="259.54" y="259.54" width="0.11" height="0.11"/>
   <rect class="fil2" x="259.54" y="0" width="0.11" height="0.11"/>
  </g>
 </g>
</svg>
