<?xml version="1.0" encoding="UTF-8"?>
<!DOCTYPE svg PUBLIC "-//W3C//DTD SVG 1.1//EN" "http://www.w3.org/Graphics/SVG/1.1/DTD/svg11.dtd">
<!-- Creator: CorelDRAW 2021.5 -->
<svg xmlns="http://www.w3.org/2000/svg" xml:space="preserve" width="16.6493mm" height="16.6494mm" version="1.1" style="shape-rendering:geometricPrecision; text-rendering:geometricPrecision; image-rendering:optimizeQuality; fill-rule:evenodd; clip-rule:evenodd"
viewBox="0 0 391.06 391.07"
 xmlns:xlink="http://www.w3.org/1999/xlink"
 xmlns:xodm="http://www.corel.com/coreldraw/odm/2003">
 <defs>
  <style type="text/css">
   <![CDATA[
    .fil2 {fill:none}
    .fil1 {fill:white}
    .fil0 {fill:white;fill-rule:nonzero}
   ]]>
  </style>
 </defs>
 <g id="Layer_x0020_1">
  <metadata id="CorelCorpID_0Corel-Layer"/>
  <path class="fil0" d="M55.67 44.77l19.22 0c1.79,0 3.18,-0.39 4.13,-1.18 0.96,-0.79 1.44,-1.92 1.44,-3.41 0,-1.44 -0.46,-2.56 -1.39,-3.35 -0.92,-0.79 -2.23,-1.19 -3.94,-1.19l-19.46 0 0 9.13zm0 4.93l0 14.7 -5.25 0 0 -33.68 24.47 0c3.47,0 6.16,0.82 8.09,2.46 1.92,1.64 2.89,3.96 2.89,6.93 0,2.81 -0.96,5.11 -2.87,6.9 -1.92,1.79 -4.44,2.68 -7.55,2.68l-19.79 0z"/>
  <path id="_1" class="fil0" d="M94.65 51.39l13.16 0 -6.54 -12.91 -6.62 12.91zm-12.21 13l17.13 -33.68 3.31 0 17.27 33.68 -5.64 0 -4.38 -8.56 -17.78 0 -4.35 8.56 -5.57 0z"/>
  <polygon id="_2" class="fil0" points="130.29,64.4 130.29,35.4 116.08,35.4 116.08,30.72 149.75,30.72 149.75,35.4 135.54,35.4 135.54,64.4 "/>
  <polygon id="_3" class="fil0" points="160.11,64.4 160.11,35.4 145.89,35.4 145.89,30.72 179.57,30.72 179.57,35.4 165.36,35.4 165.36,64.4 "/>
  <polygon id="_4" class="fil0" points="184.8,64.4 184.8,30.72 216.38,30.72 216.38,35.65 190.05,35.65 190.05,44.05 207.33,44.05 207.33,48.89 190.05,48.89 190.05,59.55 217.83,59.55 217.83,64.4 "/>
  <path id="_5" class="fil0" d="M230.67 44.77l17.9 0c1.82,0 3.2,-0.39 4.16,-1.18 0.96,-0.79 1.44,-1.92 1.44,-3.41 0,-1.47 -0.48,-2.6 -1.44,-3.36 -0.96,-0.78 -2.34,-1.17 -4.16,-1.17l-17.9 0 0 9.13zm0 4.93l0 14.7 -5.25 0 0 -33.59 23.15 0c3.45,0 6.14,0.83 8.09,2.49 1.95,1.65 2.92,3.96 2.92,6.9 0,2.38 -0.77,4.46 -2.32,6.21 -1.53,1.75 -3.54,2.83 -6.02,3.22l9.38 14.78 -5.72 0 -9.56 -14.7 -14.68 0z"/>
  <polygon id="_6" class="fil0" points="269.19,64.4 269.19,30.72 271.95,30.72 293.34,54.38 293.34,30.72 298.51,30.72 298.51,64.4 295.75,64.4 274.36,40.82 274.36,64.4 "/>
  <path id="_7" class="fil0" d="M307.13 60.09l2.56 -4.41c2.32,1.55 4.85,2.76 7.58,3.62 2.75,0.88 5.36,1.31 7.86,1.31 3,0 5.42,-0.61 7.27,-1.83 1.84,-1.23 2.76,-2.79 2.76,-4.7 0,-1.92 -0.85,-3.34 -2.53,-4.28 -1.68,-0.93 -4.33,-1.44 -7.97,-1.55 -6.14,-0.08 -10.35,-0.79 -12.64,-2.13 -2.29,-1.35 -3.43,-3.57 -3.43,-6.66 0,-2.89 1.25,-5.22 3.77,-6.99 2.52,-1.76 5.89,-2.64 10.13,-2.64 2.89,0 5.69,0.4 8.43,1.22 2.72,0.81 5.34,2.02 7.87,3.62l-2.65 4.36c-2.1,-1.41 -4.36,-2.5 -6.78,-3.28 -2.42,-0.77 -4.74,-1.16 -6.95,-1.16 -2.56,0 -4.62,0.45 -6.16,1.33 -1.55,0.9 -2.33,2.06 -2.33,3.5 0,1.49 0.78,2.56 2.34,3.19 1.56,0.63 4.28,0.94 8.14,0.94 5.37,0 9.41,0.9 12.14,2.72 2.73,1.82 4.1,4.51 4.1,8.09 0,3.18 -1.39,5.81 -4.16,7.93 -2.77,2.1 -6.37,3.15 -10.78,3.15 -3.27,0 -6.5,-0.47 -9.73,-1.4 -3.22,-0.93 -6.16,-2.25 -8.84,-3.96z"/>
  <path class="fil1" d="M292.09 172.52c-11.26,-25.72 -32.31,-44.67 -51.18,-50.98 -7.16,-1.84 -12.95,2.55 -14.84,7.62 -2.24,6.01 1.56,12.58 7.41,14.51 17.35,2 42.41,9.01 58.34,29.11l0.27 -0.26zm-109.82 148.21c27.91,3.11 54.84,-5.65 69.74,-18.84 5.17,-5.28 4.27,-12.49 0.82,-16.66 -4.09,-4.95 -11.68,-4.94 -16.27,-0.84 -10.41,14.02 -29.01,32.22 -54.38,35.97l0.09 0.36zm-39.48 -12.74c-24.45,-13.79 -41.18,-36.65 -45.56,-56.05 -1.11,-7.3 3.85,-12.63 9.08,-14 6.21,-1.62 12.37,2.83 13.69,8.84 0.24,17.46 4.7,43.1 23.09,60.98l-0.29 0.24zm4.16 2.37c3.99,1.97 10.61,4.6 14.95,5.99 4.33,1.4 11.24,3.14 15.62,3.87 -1.46,-5.47 -6.62,-10.93 -12.71,-12.9 -6.09,-1.97 -13.47,-0.55 -17.86,3.03zm45.91 -89.93c-9.1,-2.94 -14.05,7.81 -16.14,16.85 -2.72,11.71 -12.32,49.47 -13.72,64.97 1.09,0.16 2.15,0.46 3.19,0.8 1.04,0.34 2.08,0.71 3.05,1.22 7.93,-13.39 22.22,-49.64 26.86,-60.73 3.58,-8.55 5.85,-20.16 -3.24,-23.1zm-41.49 19.23c0.29,-4.29 2.67,-13.67 9.94,-14.73 6.89,-1 10.94,3.92 12.2,7.64 -2.07,7.2 -14.74,60.26 -14.82,69.32 -2.03,0 -3.64,0.24 -5.53,0.69 -6.82,-15.74 -3,-47.2 -1.79,-62.92zm-4.43 0.78c-1.13,-5.68 -6.7,-10.58 -13.67,-8.92 -5.84,1.53 -8.92,7.29 -9.01,13.56 -0.44,18.93 5.9,44.66 22.62,60.01l2.14 -1.09c-7.18,-16.55 -3.34,-47.62 -2.07,-63.55zm68.35 19.85c2.27,-3.65 5.83,-12.65 0.55,-17.76 -5,-4.83 -11.17,-3.21 -14.36,-0.93 -2.52,7.05 -23.28,57.51 -28.51,64.9 1.65,1.18 2.82,2.32 4.08,3.79 14.74,-8.78 30.03,-36.54 38.24,-50zm3.13 3.23c4.24,-3.94 11.63,-4.67 16.32,0.75 3.85,4.66 2.97,11.13 -0.62,16.27 -10.71,15.62 -30.89,32.78 -53.44,35.46l-1.1 -2.14c15.5,-9.23 30.55,-36.67 38.84,-50.34zm-108.38 -111.29c-16.65,22.61 -22.53,50.32 -18.56,69.81 1.98,7.12 8.69,9.94 14.02,9.04 6.33,-1.06 10.11,-7.65 8.86,-13.67 -6.94,-16.03 -13.4,-41.23 -3.96,-65.08l-0.36 -0.1zm30.78 -27.81c24.17,-14.28 52.33,-17.34 71.32,-11.43 6.88,2.69 9.01,9.64 7.58,14.86 -1.7,6.19 -8.63,9.3 -14.5,7.44 -15.24,-8.52 -39.67,-17.48 -64.35,-10.5l-0.06 -0.37zm-4.13 2.41c-3.7,2.48 -9.29,6.9 -12.66,9.94 -3.37,3.05 -8.33,8.17 -11.16,11.6 5.47,1.47 12.78,-0.27 17.53,-4.56 4.74,-4.29 7.21,-11.38 6.3,-16.98zm54.93 84.72c7.1,-6.41 0.26,-16.07 -6.52,-22.4 -8.78,-8.21 -36.68,-35.41 -49.41,-44.37 -0.68,0.86 -1.47,1.63 -2.29,2.37 -0.81,0.74 -1.66,1.44 -2.59,2.03 7.63,13.56 31.88,44.06 39.17,53.62 5.62,7.38 14.54,15.15 21.63,8.74zm4.1 -45.55c3.57,2.4 10.51,9.14 7.79,15.97 -2.58,6.46 -8.87,7.52 -12.72,6.75 -5.2,-5.4 -44.82,-42.9 -52.62,-47.5 1.01,-1.76 1.61,-3.27 2.17,-5.13 17.05,1.97 42.38,21.01 55.38,29.92zm1.54 -4.23c5.48,1.86 12.51,-0.51 14.57,-7.38 1.59,-5.82 -1.86,-11.37 -7.23,-14.58 -16.18,-9.85 -41.62,-17.22 -63.28,-10.41l-0.12 2.4c17.93,2.06 42.91,20.91 56.08,29.98zm-51.36 49.27c2.02,3.79 8.04,11.38 15.11,9.35 6.68,-1.91 8.36,-8.07 7.99,-11.97 -4.85,-5.71 -38.17,-48.92 -41.95,-57.14 -1.85,0.84 -3.42,1.28 -5.32,1.64 0.23,17.16 16.62,44.28 24.18,58.12zm-4.36 1.1c1.29,5.65 -1.77,12.41 -8.81,13.75 -5.96,1 -11.13,-3 -13.78,-8.67 -8.17,-17.08 -12.94,-43.15 -3.99,-64.01l2.4 0.12c0.24,18.04 16.49,44.79 24.18,58.81zm159.28 0.95c0.28,28.08 -11.14,53.99 -25.76,67.48 -5.77,4.62 -12.86,2.98 -16.66,-0.86 -4.51,-4.57 -3.74,-12.12 0.81,-16.28 15,-8.94 34.98,-25.61 41.26,-50.48l0.35 0.13zm-0.03 -4.78c-0.29,-4.44 -1.33,-11.49 -2.28,-15.94 -0.95,-4.45 -2.91,-11.3 -4.46,-15.47 -4.01,4 -6.15,11.2 -4.81,17.46 1.35,6.26 6.25,11.94 11.55,13.95zm-100.84 5.21c2.01,9.35 13.79,8.26 22.66,5.55 11.5,-3.5 49,-14.06 63.12,-20.6 -0.4,-1.02 -0.68,-2.09 -0.91,-3.16 -0.23,-1.07 -0.42,-2.16 -0.47,-3.26 -15.57,-0.17 -54.1,5.58 -66.02,7.11 -9.2,1.18 -20.39,5.01 -18.39,14.36zm37.4 26.32c-3.86,1.9 -13.17,4.53 -17.72,-1.24 -4.31,-5.46 -2.07,-11.44 0.52,-14.38 7.27,-1.8 59.56,-17.37 67.44,-21.83 1.01,1.75 2.03,3.04 3.36,4.44 -10.22,13.78 -39.38,26.2 -53.6,33.01zm2.9 3.45c-4.35,3.82 -5.81,11.1 -0.89,16.3 4.24,4.29 10.77,4.08 16.25,1.03 16.62,-9.09 35.72,-27.44 40.66,-49.6l-2.02 -1.31c-10.75,14.49 -39.57,26.7 -54,33.57zm-16.98 -69.11c-4.3,-0.14 -13.87,1.28 -15.65,8.41 -1.68,6.75 2.8,11.27 6.37,12.9 7.37,-1.34 61.44,-8.59 70.46,-7.76 0.2,-2.02 0.6,-3.6 1.24,-5.43 -14.97,-8.37 -46.66,-7.74 -62.42,-8.12zm1.23 -4.33c-5.54,-1.7 -9.86,-7.73 -7.51,-14.51 2.11,-5.66 8.16,-8.14 14.4,-7.6 18.88,1.46 43.84,10.37 57.43,28.55l-1.3 2.02c-15.74,-8.81 -47.04,-8.12 -63.02,-8.47z"/>
  <g id="_2107074858864">
   <rect class="fil2" x="0" y="390.9" width="0.17" height="0.17"/>
   <rect class="fil2" x="0" y="0" width="0.17" height="0.17"/>
   <rect class="fil2" x="390.9" y="390.9" width="0.17" height="0.17"/>
   <rect class="fil2" x="390.9" y="0" width="0.17" height="0.17"/>
  </g>
 </g>
</svg>
