<?xml version="1.0" encoding="UTF-8"?>
<!DOCTYPE svg PUBLIC "-//W3C//DTD SVG 1.1//EN" "http://www.w3.org/Graphics/SVG/1.1/DTD/svg11.dtd">
<!-- Creator: CorelDRAW 2021.5 -->
<svg xmlns="http://www.w3.org/2000/svg" xml:space="preserve" width="16.6493mm" height="16.6494mm" version="1.1" style="shape-rendering:geometricPrecision; text-rendering:geometricPrecision; image-rendering:optimizeQuality; fill-rule:evenodd; clip-rule:evenodd"
viewBox="0 0 837.07 837.08"
 xmlns:xlink="http://www.w3.org/1999/xlink"
 xmlns:xodm="http://www.corel.com/coreldraw/odm/2003">
 <defs>
  <style type="text/css">
   <![CDATA[
    .str0 {stroke:white;stroke-width:4.26;stroke-miterlimit:22.9256}
    .fil2 {fill:none}
    .fil1 {fill:white;fill-rule:nonzero}
    .fil0 {fill:white;fill-rule:nonzero}
   ]]>
  </style>
 </defs>
 <g id="Layer_x0020_1">
  <metadata id="CorelCorpID_0Corel-Layer"/>
  <polygon class="fil0" points="240.32,138.65 240.32,66.56 251.55,66.56 251.55,128.28 305.15,128.28 305.15,138.65 "/>
  <path id="_1" class="fil0" d="M352.81 130.36c9.62,0 17.49,-2.59 23.56,-7.81 6.08,-5.18 9.11,-11.81 9.11,-19.85 0,-7.98 -3.05,-14.58 -9.16,-19.82 -6.11,-5.21 -13.95,-7.84 -23.51,-7.84 -9.57,0 -17.38,2.59 -23.43,7.81 -6.05,5.19 -9.07,11.82 -9.07,19.85 0,8.04 3.03,14.67 9.07,19.85 6.05,5.22 13.86,7.81 23.43,7.81zm0 10.54c-12.83,0 -23.4,-3.63 -31.67,-10.89 -8.27,-7.23 -12.42,-16.34 -12.42,-27.32 0,-11.01 4.12,-20.11 12.36,-27.29 8.27,-7.17 18.84,-10.75 31.72,-10.75 12.99,0 23.62,3.57 31.9,10.72 8.24,7.14 12.36,16.25 12.36,27.32 0,11.04 -4.15,20.14 -12.42,27.37 -8.27,7.23 -18.87,10.83 -31.84,10.83z"/>
  <path id="_2" class="fil0" d="M464.31 110.65l0 -10.37 29.74 0 0 21.75c-4.18,6.17 -9.6,10.86 -16.31,14.06 -6.69,3.2 -14.46,4.81 -23.31,4.81 -13.28,0 -24.15,-3.57 -32.59,-10.75 -8.44,-7.17 -12.68,-16.28 -12.68,-27.29 0,-11.04 4.24,-20.14 12.74,-27.37 8.5,-7.23 19.33,-10.83 32.53,-10.83 8.33,0 15.7,1.44 22.16,4.29 6.45,2.88 11.81,7.09 16.07,12.65l-8.67 6.22c-3.05,-3.98 -7.17,-7.12 -12.36,-9.39 -5.21,-2.28 -10.95,-3.4 -17.2,-3.4 -9.85,0 -17.92,2.62 -24.23,7.84 -6.31,5.24 -9.45,11.84 -9.45,19.82 0,7.98 3.14,14.58 9.42,19.82 6.28,5.21 14.35,7.84 24.26,7.84 6.19,0 11.93,-1.13 17.2,-3.37 5.24,-2.25 8.93,-5.1 11.01,-8.59l0 -7.75 -18.33 0z"/>
  <path id="_3" class="fil0" d="M552.51 130.36c9.62,0 17.49,-2.59 23.56,-7.81 6.08,-5.18 9.11,-11.81 9.11,-19.85 0,-7.98 -3.05,-14.58 -9.16,-19.82 -6.11,-5.21 -13.95,-7.84 -23.51,-7.84 -9.57,0 -17.38,2.59 -23.43,7.81 -6.05,5.19 -9.07,11.82 -9.07,19.85 0,8.04 3.03,14.67 9.07,19.85 6.05,5.22 13.86,7.81 23.43,7.81zm0 10.54c-12.83,0 -23.4,-3.63 -31.67,-10.89 -8.27,-7.23 -12.42,-16.34 -12.42,-27.32 0,-11.01 4.12,-20.11 12.36,-27.29 8.27,-7.17 18.84,-10.75 31.72,-10.75 12.99,0 23.62,3.57 31.9,10.72 8.24,7.14 12.36,16.25 12.36,27.32 0,11.04 -4.15,20.14 -12.42,27.37 -8.27,7.23 -18.87,10.83 -31.84,10.83z"/>
  <path class="fil1 str0" d="M376.23 595.59c-20.21,-8.45 -37.86,-14.84 -52.96,-18.93 -16.03,-4.51 -29.34,-6.74 -40,-6.74 -15.01,0 -27.38,2.82 -37.28,8.45 -9.46,5.97 -14.24,13.38 -14.24,22.26 0,9.47 4.62,16.63 13.74,21.66 9.55,5.29 22.26,7.93 38.29,7.93 15.44,0 30.97,-2.99 46.49,-9.04 15.27,-5.63 30.62,-14.24 45.97,-25.75l0 0.17zm218.59 10.06l-11.94 26.87c-33.18,1.79 -64.65,0.51 -94.49,-3.84 -29.77,-4.44 -60.9,-13.3 -93.22,-26.61 -18.76,12.28 -37.01,21.41 -54.67,27.3 -18.5,6.05 -36.92,9.03 -55.26,9.03 -20.81,0 -37.27,-3.66 -49.47,-11 -11.94,-7.51 -17.99,-17.74 -17.99,-30.79 0,-13.82 7.24,-25.59 21.74,-35.31 14.67,-9.64 32.84,-14.49 54.49,-14.49 12.28,0 27.13,2.13 44.43,6.48 15.7,4.01 35.14,10.5 58.25,19.53 6.31,-9.38 12.2,-19.61 17.49,-30.79 4.17,-9.63 8.09,-20.89 11.76,-33.69l18.51 -67.97c15.61,-57.91 34.63,-102.17 56.88,-132.62 22.18,-30.28 46.83,-45.46 74.03,-45.46 13.65,0 24.48,5.03 32.49,15.01 7.59,9.98 11.43,24.14 11.43,42.47 0,9.3 -1.45,20.21 -4.43,32.76 -2.74,11.51 -7.51,26.1 -14.5,43.92l-33.26 5.54c9.46,-21.15 16.63,-40.17 21.49,-56.97 5.04,-16.64 7.51,-30.79 7.51,-42.22 0,-11.34 -1.79,-19.79 -5.29,-25.24 -3.49,-5.03 -9.46,-7.5 -17.99,-7.5 -12.8,0 -25.76,10.65 -38.98,31.98 -13.3,20.99 -26.26,51.6 -38.97,91.94l-17.23 54.25c-0.34,1.37 -1.19,4.26 -2.73,8.78 -15.01,48.27 -34.71,89.21 -59.19,122.64 29.6,12.71 59.36,20.21 89.22,22.51 29.76,2.3 59.78,3.49 89.88,3.49zm-228.4 -269.58c7.26,-11.94 18.14,-15.4 32.16,-9.72 6.65,2.68 11.62,7.55 15.18,13.65 3.53,6.03 4.21,12.31 2.13,18.6 -0.32,0.97 -1.28,3.2 -2.64,6.4 -1.38,3.22 -4.41,5.79 -8.87,7.59 -10.99,4.44 -22.72,8.23 -34.97,11 -12.32,2.79 -22.34,8.1 -30.02,15.78 0.86,-10.66 -1.94,-21.34 -8.27,-31.99 -6.3,-10.6 -11.32,-21.46 -15.18,-32.23 -1.61,-4.51 -1.98,-8.38 -1.11,-11.43 0.85,-3.01 1.47,-5.49 2.05,-6.82 2.69,-6.28 7.63,-10.16 14.24,-11.86 6.71,-1.73 13.57,-1.73 20.05,1.1 13.58,5.96 18.59,16.29 15.26,29.94zm-23.11 117.86c-5.2,-16.8 0.77,-29.63 17.99,-37.69 7.92,-3.7 16.28,-4.38 24.82,-2.64 8.59,1.75 14.87,6.35 18.93,13.65 0.53,0.97 1.92,3.49 3.76,7.59 1.81,4.07 1.74,8.98 -0.26,14.59 -4.98,13.92 -11.34,27.63 -19.01,41.36 -7.68,13.74 -11.17,27.38 -10.49,40.85 -9.13,-9.64 -21.33,-16.04 -36.51,-19.11 -15.17,-3.06 -29.21,-7.38 -42.22,-12.62 -5.57,-2.25 -9.53,-4.97 -11.6,-8.44 -2.09,-3.5 -3.83,-6.07 -4.61,-7.77 -3.48,-7.6 -3.06,-15.35 0.86,-23.02 3.91,-7.67 9.72,-13.85 17.82,-17.48 17.14,-7.7 30.87,-3.76 40.51,10.74z"/>
  <g id="_2106468483936">
   <rect class="fil2" x="0" y="836.72" width="0.36" height="0.36"/>
   <rect class="fil2" x="0" y="0" width="0.36" height="0.36"/>
   <rect class="fil2" x="836.72" y="836.72" width="0.36" height="0.36"/>
   <rect class="fil2" x="836.72" y="0" width="0.36" height="0.36"/>
  </g>
  <g id="_2106468488400">
   <rect class="fil2" x="0" y="836.72" width="0.36" height="0.36"/>
   <rect class="fil2" x="0" y="0" width="0.36" height="0.36"/>
   <rect class="fil2" x="836.72" y="836.72" width="0.36" height="0.36"/>
   <rect class="fil2" x="836.72" y="0" width="0.36" height="0.36"/>
  </g>
 </g>
</svg>
