<?xml version="1.0" encoding="UTF-8"?>
<!DOCTYPE svg PUBLIC "-//W3C//DTD SVG 1.1//EN" "http://www.w3.org/Graphics/SVG/1.1/DTD/svg11.dtd">
<!-- Creator: CorelDRAW 2021.5 -->
<svg xmlns="http://www.w3.org/2000/svg" xml:space="preserve" width="16.6493mm" height="16.6494mm" version="1.1" style="shape-rendering:geometricPrecision; text-rendering:geometricPrecision; image-rendering:optimizeQuality; fill-rule:evenodd; clip-rule:evenodd"
viewBox="0 0 162.06 162.06"
 xmlns:xlink="http://www.w3.org/1999/xlink"
 xmlns:xodm="http://www.corel.com/coreldraw/odm/2003">
 <defs>
  <style type="text/css">
   <![CDATA[
    .fil3 {fill:none}
    .fil0 {fill:white}
    .fil1 {fill:black;fill-rule:nonzero}
    .fil2 {fill:white;fill-rule:nonzero}
   ]]>
  </style>
 </defs>
 <g id="Layer_x0020_1">
  <metadata id="CorelCorpID_0Corel-Layer"/>
  <path class="fil0" d="M30.64 74.84l100.78 0c4,0 7.26,3.27 7.26,7.26l0 10.58c0,4 -3.27,7.26 -7.26,7.26l-19.17 0 -3.81 -6.3 3.39 -2.05 -12.69 -6.91 0.24 14.45 3.39 -2.05 1.74 2.87 -73.87 0c-4,0 -7.26,-3.27 -7.26,-7.26l0 -10.58c0,-4 3.27,-7.26 7.26,-7.26zm79.03 25.11l2.2 3.63 -1.89 1.15 -2.89 -4.78 -2.43 -4.01 -1.06 -1.76 -2.25 1.37 -0.12 -7.43 6.53 3.55 -2.25 1.37 1.06 1.76 3.12 5.16zm10.1 -18.01c2.08,-2.19 5.55,-2.27 7.74,-0.18 1.9,1.81 2.21,4.67 0.89,6.82l5.25 5.04c0.45,0.43 0.46,1.14 0.03,1.59 -0.43,0.45 -1.14,0.46 -1.59,0.03l-5.24 -5.02c-2.09,1.45 -4.98,1.29 -6.9,-0.54 -2.19,-2.08 -2.27,-5.55 -0.18,-7.73zm1.64 1.57c1.22,-1.28 3.25,-1.33 4.53,-0.11 1.28,1.22 1.33,3.25 0.11,4.53 -1.22,1.28 -3.25,1.33 -4.53,0.11 -1.28,-1.22 -1.33,-3.25 -0.11,-4.53z"/>
  <path class="fil1" d="M36.87 93.53l-3.35 -11.07 1.96 0 1.77 6.39 0.63 2.38c0.02,-0.12 0.22,-0.88 0.57,-2.28l1.75 -6.49 1.92 0 1.67 6.43 0.54 2.11 0.64 -2.14 1.91 -6.4 1.82 0 -3.47 11.07 -1.94 0 -1.76 -6.62 -0.44 -1.9 -2.24 8.52 -1.99 0zm15.41 0l-3.35 -11.07 1.96 0 1.77 6.39 0.63 2.38c0.02,-0.12 0.22,-0.88 0.57,-2.28l1.75 -6.49 1.92 0 1.67 6.43 0.54 2.11 0.64 -2.14 1.91 -6.4 1.82 0 -3.47 11.07 -1.94 0 -1.76 -6.62 -0.44 -1.9 -2.24 8.52 -1.99 0zm15.41 0l-3.35 -11.07 1.96 0 1.77 6.39 0.63 2.38c0.02,-0.12 0.22,-0.88 0.57,-2.28l1.75 -6.49 1.92 0 1.67 6.43 0.54 2.11 0.64 -2.14 1.91 -6.4 1.82 0 -3.47 11.07 -1.94 0 -1.76 -6.62 -0.44 -1.9 -2.24 8.52 -1.99 0zm12.77 0l0 -2.13 2.13 0 0 2.13 -2.13 0zm11.88 4.48l0 -20.01 1.64 0 0 20.01 -1.64 0z"/>
  <polygon class="fil2" points="23.92,26.88 19.2,12.92 21.36,12.92 24.76,23.14 28.26,12.92 30.08,12.92 33.59,23.14 37,12.92 39.15,12.92 34.46,26.88 32.89,26.88 29.18,16.14 25.46,26.88 "/>
  <polygon id="_1" class="fil2" points="41.78,26.88 41.78,12.92 54.87,12.92 54.87,14.96 43.96,14.96 43.96,18.44 51.12,18.44 51.12,20.45 43.96,20.45 43.96,24.87 55.47,24.87 55.47,26.88 "/>
  <path id="_2" class="fil2" d="M67.12 14.96l-6.32 0 0 3.28 6.36 0c0.7,0 1.22,-0.14 1.58,-0.42 0.35,-0.27 0.53,-0.69 0.53,-1.23 0,-0.54 -0.18,-0.95 -0.53,-1.22 -0.36,-0.27 -0.89,-0.41 -1.61,-0.41zm0.74 5.32l-7.06 0 0 4.58 7.06 0c0.76,0 1.35,-0.2 1.78,-0.61 0.42,-0.4 0.63,-0.97 0.63,-1.7 0,-0.72 -0.21,-1.28 -0.63,-1.68 -0.42,-0.4 -1.02,-0.6 -1.78,-0.6zm-9.24 6.59l0 -13.92 8.57 0c1.42,0 2.49,0.29 3.22,0.88 0.73,0.58 1.09,1.44 1.09,2.57 0,0.57 -0.11,1.07 -0.34,1.51 -0.23,0.44 -0.56,0.8 -1,1.07 0.77,0.43 1.36,0.96 1.75,1.59 0.4,0.62 0.59,1.33 0.59,2.11 0,1.3 -0.44,2.32 -1.3,3.07 -0.87,0.75 -2.07,1.12 -3.6,1.12l-8.99 0z"/>
  <path id="_3" class="fil2" d="M75 25.09l1.06 -1.83c0.96,0.64 2.01,1.14 3.14,1.5 1.14,0.36 2.22,0.54 3.26,0.54 1.24,0 2.25,-0.25 3.01,-0.76 0.76,-0.51 1.14,-1.15 1.14,-1.95 0,-0.8 -0.35,-1.38 -1.05,-1.77 -0.7,-0.38 -1.8,-0.6 -3.3,-0.64 -2.54,-0.03 -4.29,-0.33 -5.24,-0.88 -0.95,-0.56 -1.42,-1.48 -1.42,-2.76 0,-1.2 0.52,-2.16 1.56,-2.89 1.04,-0.73 2.44,-1.09 4.2,-1.09 1.2,0 2.36,0.17 3.49,0.51 1.13,0.33 2.21,0.84 3.26,1.5l-1.1 1.81c-0.87,-0.59 -1.81,-1.04 -2.81,-1.36 -1,-0.32 -1.96,-0.48 -2.88,-0.48 -1.06,0 -1.91,0.18 -2.56,0.55 -0.64,0.37 -0.96,0.85 -0.96,1.45 0,0.62 0.32,1.06 0.97,1.32 0.65,0.26 1.77,0.39 3.37,0.39 2.23,0 3.9,0.37 5.03,1.13 1.13,0.75 1.7,1.87 1.7,3.35 0,1.32 -0.58,2.41 -1.72,3.29 -1.15,0.87 -2.64,1.31 -4.47,1.31 -1.35,0 -2.69,-0.2 -4.03,-0.58 -1.33,-0.38 -2.55,-0.93 -3.66,-1.64z"/>
  <polygon id="_4" class="fil2" points="92.8,26.88 92.8,12.89 95.01,12.89 95.01,26.88 "/>
  <polygon id="_5" class="fil2" points="103.14,26.88 103.14,14.86 97.25,14.86 97.25,12.92 111.21,12.92 111.21,14.86 105.32,14.86 105.32,26.88 "/>
  <polygon id="_6" class="fil2" points="113.38,26.88 113.38,12.92 126.46,12.92 126.46,14.96 115.55,14.96 115.55,18.44 122.71,18.44 122.71,20.45 115.55,20.45 115.55,24.87 127.06,24.87 127.06,26.88 "/>
  <path id="_7" class="fil2" d="M128.97 25.09l1.06 -1.83c0.96,0.64 2.01,1.14 3.14,1.5 1.14,0.36 2.22,0.54 3.26,0.54 1.24,0 2.25,-0.25 3.01,-0.76 0.76,-0.51 1.14,-1.15 1.14,-1.95 0,-0.8 -0.35,-1.38 -1.05,-1.77 -0.7,-0.38 -1.8,-0.6 -3.3,-0.64 -2.54,-0.03 -4.29,-0.33 -5.24,-0.88 -0.95,-0.56 -1.42,-1.48 -1.42,-2.76 0,-1.2 0.52,-2.16 1.56,-2.89 1.04,-0.73 2.44,-1.09 4.2,-1.09 1.2,0 2.36,0.17 3.49,0.51 1.13,0.33 2.21,0.84 3.26,1.5l-1.1 1.81c-0.87,-0.59 -1.81,-1.04 -2.81,-1.36 -1,-0.32 -1.96,-0.48 -2.88,-0.48 -1.06,0 -1.91,0.18 -2.56,0.55 -0.64,0.37 -0.96,0.85 -0.96,1.45 0,0.62 0.32,1.06 0.97,1.32 0.65,0.26 1.77,0.39 3.37,0.39 2.23,0 3.9,0.37 5.03,1.13 1.13,0.75 1.7,1.87 1.7,3.35 0,1.32 -0.58,2.41 -1.72,3.29 -1.15,0.87 -2.64,1.31 -4.47,1.31 -1.35,0 -2.69,-0.2 -4.03,-0.58 -1.33,-0.38 -2.55,-0.93 -3.66,-1.64z"/>
  <g id="_2106473836464">
   <rect class="fil3" x="0" y="161.99" width="0.07" height="0.07"/>
   <rect class="fil3" x="0" y="0" width="0.07" height="0.07"/>
   <rect class="fil3" x="161.99" y="161.99" width="0.07" height="0.07"/>
   <rect class="fil3" x="161.99" y="0" width="0.07" height="0.07"/>
  </g>
 </g>
</svg>
