<?xml version="1.0" encoding="UTF-8"?>
<!DOCTYPE svg PUBLIC "-//W3C//DTD SVG 1.1//EN" "http://www.w3.org/Graphics/SVG/1.1/DTD/svg11.dtd">
<!-- Creator: CorelDRAW 2021.5 -->
<svg xmlns="http://www.w3.org/2000/svg" xml:space="preserve" width="16.6493mm" height="16.6494mm" version="1.1" style="shape-rendering:geometricPrecision; text-rendering:geometricPrecision; image-rendering:optimizeQuality; fill-rule:evenodd; clip-rule:evenodd"
viewBox="0 0 194.77 194.77"
 xmlns:xlink="http://www.w3.org/1999/xlink"
 xmlns:xodm="http://www.corel.com/coreldraw/odm/2003">
 <defs>
  <style type="text/css">
   <![CDATA[
    .fil2 {fill:none}
    .fil1 {fill:white}
    .fil0 {fill:white;fill-rule:nonzero}
   ]]>
  </style>
 </defs>
 <g id="Layer_x0020_1">
  <metadata id="CorelCorpID_0Corel-Layer"/>
  <path class="fil0" d="M66.16 25.6l6.56 0 -3.26 -6.43 -3.3 6.43zm-6.08 6.48l8.53 -16.77 1.65 0 8.6 16.77 -2.81 0 -2.18 -4.26 -8.85 0 -2.17 4.26 -2.77 0z"/>
  <path id="_1" class="fil0" d="M84.02 22.3l8.92 0c0.91,0 1.6,-0.19 2.07,-0.59 0.48,-0.4 0.72,-0.96 0.72,-1.7 0,-0.73 -0.24,-1.29 -0.72,-1.68 -0.48,-0.39 -1.17,-0.58 -2.07,-0.58l-8.92 0 0 4.54zm0 2.45l0 7.32 -2.61 0 0 -16.73 11.53 0c1.72,0 3.06,0.42 4.03,1.24 0.97,0.82 1.46,1.97 1.46,3.44 0,1.19 -0.38,2.22 -1.15,3.09 -0.76,0.87 -1.76,1.41 -3,1.6l4.67 7.36 -2.85 0 -4.76 -7.32 -7.31 0z"/>
  <polygon id="_2" class="fil0" points="107.15,32.07 107.15,17.63 100.07,17.63 100.07,15.3 116.84,15.3 116.84,17.63 109.76,17.63 109.76,32.07 "/>
  <path id="_3" class="fil0" d="M118 29.93l1.27 -2.2c1.15,0.77 2.41,1.37 3.77,1.8 1.37,0.44 2.67,0.65 3.92,0.65 1.49,0 2.7,-0.3 3.62,-0.91 0.92,-0.61 1.37,-1.39 1.37,-2.34 0,-0.96 -0.42,-1.66 -1.26,-2.13 -0.84,-0.46 -2.16,-0.72 -3.97,-0.77 -3.06,-0.04 -5.15,-0.4 -6.29,-1.06 -1.14,-0.67 -1.71,-1.78 -1.71,-3.32 0,-1.44 0.62,-2.6 1.88,-3.48 1.25,-0.88 2.94,-1.31 5.05,-1.31 1.44,0 2.84,0.2 4.2,0.61 1.35,0.4 2.66,1.01 3.92,1.8l-1.32 2.17c-1.05,-0.7 -2.17,-1.25 -3.38,-1.64 -1.21,-0.38 -2.36,-0.58 -3.46,-0.58 -1.27,0 -2.3,0.22 -3.07,0.66 -0.77,0.45 -1.16,1.02 -1.16,1.74 0,0.74 0.39,1.27 1.17,1.59 0.78,0.31 2.13,0.47 4.06,0.47 2.67,0 4.69,0.45 6.05,1.35 1.36,0.91 2.04,2.25 2.04,4.03 0,1.58 -0.69,2.9 -2.07,3.95 -1.38,1.05 -3.17,1.57 -5.37,1.57 -1.63,0 -3.24,-0.24 -4.85,-0.7 -1.6,-0.46 -3.07,-1.12 -4.4,-1.97z"/>
  <path class="fil1" d="M94.7 63.92c-3.35,-1.36 -2.07,-6.95 0.04,-8.26 3.61,-2.23 11.35,0.29 7.72,7.36 -0.93,1.82 -1.99,0.91 -2.18,2.3 -0.31,2.32 -0.6,7.32 0.09,7.54 1.9,0.61 5.14,-1.52 7.53,-4.21 0.98,-1.11 2.44,-2.51 2.33,-4.05 -0.79,-10.84 8.39,-8.09 8.28,-4.16 -0.11,3.88 -1.41,3.53 -6.09,6.05 -2.88,1.55 -2.37,5.48 -11.43,9.53 -0.63,0.28 -0.23,1.99 -0.11,3.77 0.3,4.79 22.35,-9.74 22.12,-15.06 -0.11,-2.63 1.27,-9.05 5.84,-7.12 3,1.27 3.56,4.14 1.62,6.51 -1.53,1.86 -5.15,3.15 -6.75,4.93 -4.5,5.03 -10.7,9.33 -16.77,12.16 -2.54,1.18 -4.92,1.52 -4.69,4.03 0.17,1.93 -0.18,3.28 1.78,2.81 4.63,-1.11 6.7,-2.26 10.01,-4.02 7.88,-4.18 19.02,-13.1 20.05,-17.29 0.35,-1.41 -0.39,-3.27 0.19,-5.16 0.85,-2.74 3.88,-5.48 7.29,-1.56 1.33,1.53 0.94,4.33 -1.81,6.2 -4.49,3.06 -6.47,7.19 -10.66,10.67 -3.78,3.14 -8.03,6.65 -13.77,9.7 -6.53,3.46 -13.09,4.32 -13.15,6.46 -0.07,2.39 -0.29,3.07 1.02,3.21 3.54,0.38 7.63,0.22 10.17,0.09 1.61,-0.08 3.64,0.93 4.66,2.01 3.32,3.51 5.18,7.93 6.46,12.7 1.72,6.4 2.07,5.1 5.71,5.16 0.36,0.01 0.79,0.03 1.21,0.07 1.46,0.14 2,0.52 1.99,0.9 -0.02,0.55 -1.28,0.86 -3.05,0.9 -1.15,0.03 -3.19,0.23 -2.69,0.92 1.73,2.38 1.98,2.42 3.96,6.03 1.32,2.43 0.32,2.55 -1.45,0.54 -2.13,-2.42 -4.31,-5.97 -4.31,-4.83 0,2.55 0.23,7.73 -0.64,7.83 -1.79,0.21 -0.2,-13.97 -3.86,-6.53 -2.4,4.87 -4.49,3.74 -0.62,-2.52 2.21,-3.58 -4.53,-1.29 -4.84,-2.64 -0.27,-1.18 6.42,-0.61 6.15,-2.01 -1.37,-6.97 -6.16,-12.85 -8.83,-13.25 -3.77,-0.56 -9.69,-2.03 -11.47,-0.98 -0.74,0.44 -0.05,3.94 -0,7.13 0.09,5.87 0.73,14.07 0.73,19.9 0,2.73 12.48,2.78 17.66,6.02 2.72,1.7 6.28,7.98 9.9,19.09 1.9,5.84 6.08,6.03 6.82,9.15 0.14,0.59 0.24,3.63 -0.77,3.27 -1.51,-0.53 -0.42,-3.26 -6.63,-3.71 -1.88,-0.13 -0.71,-3.84 -1.79,-5.53 -4.8,-7.57 -6.11,-16.05 -11.23,-18 -7.43,-2.84 -15.86,-3.08 -23.48,-1.66 -3.23,0.6 -4.32,-0.26 -4.38,2.34 -0.14,5.81 1.27,15.26 2.29,21.02 0.38,2.15 5.89,2.02 6.44,6.31 0.15,1.2 -2.91,-0.26 -6.83,-1.13 -1.22,-0.27 -2.94,0.21 -3.63,-0.85 -0.69,-1.06 -0.1,-3.84 -0.42,-5.88 -1.39,-8.8 -4.55,-17.15 -2.02,-25.73 0.78,-2.63 11.26,-0.81 11.54,-3.92 0.82,-9.15 0.39,-9.79 0.14,-18.85 -0.04,-1.43 -1.02,-8.76 -2.72,-8.76 -0.7,0 -9.05,1.67 -9.15,2.82 -0.05,0.58 -1.28,13.62 -0.68,14.03 1.47,1 4.75,2.26 5.62,4.98 0.66,2.05 0.67,3.92 0.09,3.58 -0.48,-0.28 -0.61,-1.9 -1.74,-3.48 -0.72,-1 -2.43,-2.09 -1.21,0.39 1.29,2.63 0.94,7.31 -1.22,1.46 -0.02,-0.04 -1.82,-5.07 -1.76,-0.96 0.02,1.42 -0.94,9.17 -1.62,1.73 -0.06,-0.63 -0.57,-4.09 -0.88,-2.9 -0.57,2.22 -2.72,7.99 -2.62,4.64 0.17,-6.03 3.91,-8.56 -1.36,-7.58 -3.51,0.65 -4.51,-1.79 2.22,-2.25 2.65,-0.18 -0.25,-9.43 0.34,-15.25 0.26,-2.53 0.9,-2.67 3.9,-3.55 2.01,-0.58 11.43,-0.99 11.87,-3.2 0.59,-3.05 0.13,-3.15 -0.94,-3.32 -5.62,-0.92 -16.09,-5.33 -24.29,-10.47 -6.01,-3.77 -11.1,-8.32 -13.92,-11.43 -1.46,-1.61 -4.63,0.8 -6.42,-4.42 -1.38,-4.01 3.23,-8.96 7.81,-5.01 2.97,2.56 -0.47,5.64 1.5,8.39 2.06,2.88 13.53,11.14 16.38,12.8 8.73,5.06 19.84,8.75 20.67,6.7 0.37,-0.92 0.42,-3.48 -0.36,-4.01 -2.55,-1.72 -9.45,-2.45 -12.57,-3.84 -2.66,-1.19 -6.85,-3.28 -12.92,-10.23 -1.32,-1.51 -0.8,-0.76 -2.78,-1.64 -1.88,-0.83 -4.98,-2.31 -5.36,-4.5 -0.59,-3.32 1.77,-5.99 6.1,-4.47 3.98,1.4 2.94,6.84 3.09,7.73 0.44,2.52 10.96,12.1 24.11,14.19 0.89,0.14 1.23,-0.86 1.52,-3.22 0.37,-2.99 -0.25,-0.7 -6.17,-3.03 -7.53,-2.96 -10,-6.6 -11.32,-7.95 -0.82,-0.84 -1.01,-0.44 -2.05,-0.93 -3.38,-1.57 -4.53,-4.56 -3.54,-7.06 1.37,-3.46 11.38,-1.7 9.04,6.48 -0.34,1.19 2.51,3.89 5.87,5.73 3.27,1.79 6.8,2.34 7.57,1.76 0.84,-0.63 2.09,-6.78 0.37,-8.97 -0.25,-0.31 -1.51,-0.57 -1.84,-0.7z"/>
  <g id="_2106461024960">
   <rect class="fil2" x="0" y="194.69" width="0.08" height="0.08"/>
   <rect class="fil2" x="0" y="0" width="0.08" height="0.08"/>
   <rect class="fil2" x="194.69" y="194.69" width="0.08" height="0.08"/>
   <rect class="fil2" x="194.69" y="0" width="0.08" height="0.08"/>
  </g>
 </g>
</svg>
