<?xml version="1.0" encoding="UTF-8"?>
<!DOCTYPE svg PUBLIC "-//W3C//DTD SVG 1.1//EN" "http://www.w3.org/Graphics/SVG/1.1/DTD/svg11.dtd">
<!-- Creator: CorelDRAW 2021.5 -->
<svg xmlns="http://www.w3.org/2000/svg" xml:space="preserve" width="16.6493mm" height="16.6494mm" version="1.1" style="shape-rendering:geometricPrecision; text-rendering:geometricPrecision; image-rendering:optimizeQuality; fill-rule:evenodd; clip-rule:evenodd"
viewBox="0 0 272.13 272.13"
 xmlns:xlink="http://www.w3.org/1999/xlink"
 xmlns:xodm="http://www.corel.com/coreldraw/odm/2003">
 <defs>
  <style type="text/css">
   <![CDATA[
    .fil2 {fill:none}
    .fil1 {fill:white}
    .fil0 {fill:white;fill-rule:nonzero}
   ]]>
  </style>
 </defs>
 <g id="Layer_x0020_1">
  <metadata id="CorelCorpID_0Corel-Layer"/>
  <path class="fil0" d="M76.6 42.13l1.78 -3.07c1.61,1.08 3.37,1.92 5.27,2.52 1.91,0.61 3.73,0.91 5.47,0.91 2.09,0 3.77,-0.42 5.06,-1.27 1.28,-0.85 1.92,-1.94 1.92,-3.27 0,-1.34 -0.59,-2.32 -1.76,-2.98 -1.17,-0.65 -3.02,-1 -5.54,-1.08 -4.27,-0.06 -7.2,-0.55 -8.8,-1.48 -1.59,-0.94 -2.39,-2.48 -2.39,-4.64 0,-2.01 0.87,-3.63 2.62,-4.86 1.75,-1.23 4.1,-1.84 7.05,-1.84 2.01,0 3.96,0.28 5.86,0.85 1.89,0.56 3.72,1.41 5.48,2.52l-1.85 3.03c-1.46,-0.98 -3.04,-1.74 -4.72,-2.29 -1.69,-0.53 -3.3,-0.81 -4.83,-0.81 -1.78,0 -3.21,0.31 -4.29,0.93 -1.08,0.63 -1.62,1.43 -1.62,2.44 0,1.04 0.54,1.78 1.63,2.22 1.09,0.44 2.98,0.66 5.67,0.66 3.74,0 6.55,0.63 8.45,1.89 1.9,1.27 2.86,3.14 2.86,5.63 0,2.21 -0.96,4.05 -2.89,5.52 -1.93,1.46 -4.43,2.19 -7.5,2.19 -2.28,0 -4.52,-0.33 -6.77,-0.97 -2.24,-0.65 -4.29,-1.56 -6.15,-2.75z"/>
  <polygon id="_1" class="fil0" points="106.45,45.13 106.45,21.69 110.1,21.69 110.1,41.76 127.52,41.76 127.52,45.13 "/>
  <polygon id="_2" class="fil0" points="131.74,45.13 131.74,21.64 135.45,21.64 135.45,45.13 "/>
  <path id="_3" class="fil0" d="M153.98 21.69c3.83,0 6.91,1.1 9.26,3.28 2.34,2.19 3.51,5.03 3.51,8.52 0,3.53 -1.15,6.35 -3.45,8.47 -2.29,2.11 -5.41,3.17 -9.33,3.17l-10.38 0 0 -23.43 10.38 0zm0.06 3.37l-6.78 0 0 16.69 6.78 0c2.78,0 4.97,-0.75 6.57,-2.24 1.59,-1.49 2.39,-3.52 2.39,-6.08 0,-2.47 -0.82,-4.49 -2.47,-6.04 -1.65,-1.55 -3.8,-2.33 -6.48,-2.33z"/>
  <polygon id="_4" class="fil0" points="172.55,45.13 172.55,21.69 194.52,21.69 194.52,25.12 176.2,25.12 176.2,30.97 188.23,30.97 188.23,34.34 176.2,34.34 176.2,41.76 195.53,41.76 195.53,45.13 "/>
  <path class="fil0" d="M78.39 225.95c3.83,0 6.91,1.1 9.26,3.28 2.34,2.19 3.51,5.03 3.51,8.52 0,3.53 -1.15,6.35 -3.45,8.47 -2.29,2.11 -5.41,3.17 -9.33,3.17l-10.38 0 0 -23.43 10.38 0zm0.06 3.37l-6.78 0 0 16.69 6.78 0c2.78,0 4.97,-0.75 6.57,-2.24 1.59,-1.49 2.39,-3.52 2.39,-6.08 0,-2.47 -0.82,-4.49 -2.47,-6.04 -1.65,-1.55 -3.8,-2.33 -6.48,-2.33z"/>
  <polygon id="_1_0" class="fil0" points="96.96,249.38 96.96,225.95 118.93,225.95 118.93,229.38 100.61,229.38 100.61,235.22 112.64,235.22 112.64,238.59 100.61,238.59 100.61,246.01 119.94,246.01 119.94,249.38 "/>
  <path id="_2_1" class="fil0" d="M149.96 243.65c-1.33,2.1 -3.08,3.7 -5.25,4.81 -2.16,1.1 -4.64,1.66 -7.4,1.66 -4.11,0 -7.5,-1.16 -10.17,-3.49 -2.66,-2.33 -3.99,-5.29 -3.99,-8.87 0,-3.59 1.33,-6.55 3.99,-8.9 2.67,-2.35 6.06,-3.52 10.17,-3.52 2.57,0 4.89,0.48 6.98,1.44 2.09,0.96 3.77,2.31 5.05,4.06l-2.91 2.02c-0.96,-1.33 -2.24,-2.36 -3.82,-3.08 -1.58,-0.72 -3.34,-1.08 -5.28,-1.08 -3.01,0 -5.49,0.85 -7.45,2.57 -1.97,1.7 -2.95,3.85 -2.95,6.43 0,2.58 0.98,4.72 2.96,6.43 1.98,1.71 4.46,2.57 7.45,2.57 2.08,0 3.92,-0.41 5.52,-1.23 1.59,-0.82 2.99,-2.1 4.2,-3.83l2.93 2.02z"/>
  <polygon id="_3_2" class="fil0" points="156.18,249.38 156.18,226.01 159.83,226.01 159.83,236.4 172.25,226.01 177.08,226.01 167.25,234.32 178.54,249.38 174.43,249.38 164.66,236.46 159.83,240.55 159.83,249.38 "/>
  <path id="_4_3" class="fil0" d="M180.8 246.39l1.78 -3.07c1.61,1.08 3.37,1.92 5.27,2.52 1.91,0.61 3.73,0.91 5.47,0.91 2.09,0 3.77,-0.42 5.06,-1.27 1.28,-0.85 1.92,-1.94 1.92,-3.27 0,-1.34 -0.59,-2.32 -1.76,-2.98 -1.17,-0.65 -3.02,-1 -5.54,-1.08 -4.27,-0.06 -7.2,-0.55 -8.8,-1.48 -1.59,-0.94 -2.39,-2.48 -2.39,-4.64 0,-2.01 0.87,-3.63 2.62,-4.86 1.75,-1.23 4.1,-1.84 7.05,-1.84 2.01,0 3.96,0.28 5.86,0.85 1.89,0.56 3.72,1.41 5.48,2.52l-1.85 3.03c-1.46,-0.98 -3.04,-1.74 -4.72,-2.29 -1.69,-0.53 -3.3,-0.81 -4.83,-0.81 -1.78,0 -3.21,0.31 -4.29,0.93 -1.08,0.63 -1.62,1.43 -1.62,2.44 0,1.04 0.54,1.78 1.63,2.22 1.09,0.44 2.98,0.66 5.67,0.66 3.74,0 6.55,0.63 8.45,1.89 1.9,1.27 2.86,3.14 2.86,5.63 0,2.21 -0.96,4.05 -2.89,5.52 -1.93,1.46 -4.43,2.19 -7.5,2.19 -2.28,0 -4.52,-0.33 -6.77,-0.97 -2.24,-0.65 -4.29,-1.56 -6.15,-2.75z"/>
  <path class="fil1" d="M145.34 111.71l12.77 -35.1c14.75,5.37 24.57,19.39 24.57,35.1l-37.35 0zm-45.6 60.81l82.95 0 0 7.7 -82.95 0 0 -7.7zm-10.3 15.31l93.25 0 0 7.7 -93.25 0 0 -7.7zm46.36 -69.06l39.42 0c0,4.6 -0.8,9.16 -2.38,13.48 -7.45,20.46 -30.07,31.01 -50.53,23.56 -20.46,-7.45 -31.01,-30.07 -23.56,-50.53 7.45,-20.46 30.07,-31.01 50.53,-23.56l-13.48 37.05zm31.97 5.82c-0.33,1.8 -0.81,3.57 -1.44,5.29 -6.14,16.86 -24.78,25.56 -41.64,19.42 -16.86,-6.14 -25.56,-24.78 -19.42,-41.65 5.43,-14.93 20.68,-23.45 35.8,-20.95l-13.79 37.88 40.49 0z"/>
  <g id="_2106196818512">
   <rect class="fil2" x="0" y="272.01" width="0.12" height="0.12"/>
   <rect class="fil2" x="0" y="0" width="0.12" height="0.12"/>
   <rect class="fil2" x="272.01" y="272.01" width="0.12" height="0.12"/>
   <rect class="fil2" x="272.01" y="0" width="0.12" height="0.12"/>
  </g>
 </g>
</svg>
