<?xml version="1.0" encoding="UTF-8"?>
<!DOCTYPE svg PUBLIC "-//W3C//DTD SVG 1.1//EN" "http://www.w3.org/Graphics/SVG/1.1/DTD/svg11.dtd">
<!-- Creator: CorelDRAW 2021.5 -->
<svg xmlns="http://www.w3.org/2000/svg" xml:space="preserve" width="16.6495mm" height="16.6494mm" version="1.1" style="shape-rendering:geometricPrecision; text-rendering:geometricPrecision; image-rendering:optimizeQuality; fill-rule:evenodd; clip-rule:evenodd"
viewBox="0 0 134.9 134.9"
 xmlns:xlink="http://www.w3.org/1999/xlink"
 xmlns:xodm="http://www.corel.com/coreldraw/odm/2003">
 <defs>
  <style type="text/css">
   <![CDATA[
    .fil2 {fill:none}
    .fil1 {fill:white}
    .fil0 {fill:white;fill-rule:nonzero}
   ]]>
  </style>
 </defs>
 <g id="Layer_x0020_1">
  <metadata id="CorelCorpID_0Corel-Layer"/>
  <polygon class="fil0" points="46.54,21.98 46.54,11.98 41.64,11.98 41.64,10.37 53.26,10.37 53.26,11.98 48.35,11.98 48.35,21.98 "/>
  <path id="_1" class="fil0" d="M61.16 20.65c1.55,0 2.82,-0.42 3.8,-1.26 0.98,-0.84 1.47,-1.9 1.47,-3.2 0,-1.29 -0.49,-2.35 -1.48,-3.19 -0.98,-0.84 -2.25,-1.26 -3.79,-1.26 -1.54,0 -2.8,0.42 -3.77,1.26 -0.97,0.84 -1.46,1.9 -1.46,3.2 0,1.3 0.49,2.36 1.46,3.2 0.98,0.84 2.23,1.26 3.77,1.26zm0 1.7c-2.07,0 -3.77,-0.58 -5.1,-1.75 -1.33,-1.17 -2,-2.63 -2,-4.4 0,-1.77 0.66,-3.24 1.99,-4.4 1.33,-1.16 3.04,-1.73 5.11,-1.73 2.09,0 3.81,0.58 5.14,1.73 1.33,1.15 1.99,2.62 1.99,4.4 0,1.78 -0.67,3.24 -2,4.41 -1.33,1.17 -3.04,1.75 -5.13,1.75z"/>
  <polygon id="_2" class="fil0" points="73.59,21.98 73.59,16.05 68.3,10.37 70.64,10.37 74.49,14.49 78.27,10.37 80.7,10.37 75.38,16.03 75.38,21.98 "/>
  <path id="_3" class="fil0" d="M81.69 20.5l0.88 -1.52c0.8,0.53 1.67,0.95 2.61,1.25 0.95,0.3 1.85,0.45 2.71,0.45 1.04,0 1.87,-0.21 2.51,-0.63 0.64,-0.42 0.95,-0.96 0.95,-1.62 0,-0.66 -0.29,-1.15 -0.87,-1.48 -0.58,-0.32 -1.49,-0.5 -2.75,-0.53 -2.12,-0.03 -3.57,-0.27 -4.36,-0.73 -0.79,-0.46 -1.18,-1.23 -1.18,-2.3 0,-1 0.43,-1.8 1.3,-2.41 0.87,-0.61 2.03,-0.91 3.5,-0.91 1,0 1.96,0.14 2.91,0.42 0.94,0.28 1.84,0.7 2.72,1.25l-0.91 1.5c-0.72,-0.49 -1.5,-0.86 -2.34,-1.13 -0.84,-0.26 -1.63,-0.4 -2.4,-0.4 -0.88,0 -1.59,0.15 -2.13,0.46 -0.53,0.31 -0.8,0.71 -0.8,1.21 0,0.52 0.27,0.88 0.81,1.1 0.54,0.22 1.48,0.32 2.81,0.32 1.85,0 3.24,0.31 4.19,0.94 0.94,0.63 1.42,1.55 1.42,2.79 0,1.1 -0.48,2.01 -1.43,2.73 -0.96,0.72 -2.2,1.09 -3.72,1.09 -1.13,0 -2.24,-0.16 -3.36,-0.48 -1.11,-0.32 -2.13,-0.78 -3.05,-1.36z"/>
  <path class="fil1" d="M40.57 54.3c-4.31,2.57 -5.58,6.4 -5.03,9.1 0.67,3.28 3.98,5.25 7.4,5.47 -3.81,2.06 -18.37,14.35 -14.78,18.84 2.99,3.72 15.65,6.57 29.45,5.3 17.27,-1.59 37.88,-4.67 41.95,-12.34 1.57,0.89 4.7,2.91 3.73,8.02 -1.15,6.04 -13.38,10.46 -19.06,11.75 -5.4,1.23 -8.59,1.87 -12.89,2.41 -7.54,0.93 -7.98,1.83 0.09,1.02 4.05,-0.41 9.34,-1.14 13.18,-1.99 7.1,-1.57 20.53,-5.74 21.59,-13.67 0.73,-5.47 -1.72,-9.18 -5.94,-10.83 -0.28,-7.81 -5.04,-13.55 -11.63,-16.95 1.01,-1.59 4.27,-7.27 5.33,-8.12 1.11,1.61 3.36,2.57 5.38,2.25 1.74,-0.27 3.31,-1.51 3.79,-4.11 0.43,-2.29 -0.22,-4.14 -1.61,-4.99 -2.05,-1.26 -5.38,-0.69 -6.43,1.13 -0.49,0.92 -0.95,1.1 -1.41,0.67 -0.46,-0.43 -0.28,-0.85 -0.01,-1.22 1.06,-1.53 0.83,-3.51 0.13,-4.95 -1.07,-2.18 -3.78,-3.26 -6.65,-1.21 -5.2,3.72 -1.6,8.12 1.89,9.15 -0.49,1.37 -2.69,4.2 -3.36,5.09 -0.47,0.61 -0.82,1.21 -1.24,1.78 -0.48,0.66 -1,1.33 -1.51,2.28 -9.32,-2.66 -20.38,-1.46 -27.79,4.16 2.2,-8.27 -6.82,-12.63 -14.56,-8.02zm46.88 5.53c-1.05,-0.48 -2.15,-0.91 -3.27,-1.28 0.48,-0.76 1.76,-2.63 2.42,-3.48 0.67,-0.88 2.94,-3.96 3.53,-5.29 0.81,-1.8 -0.37,-1.95 -0.74,-2.02 -1.48,-0.28 -6.15,-3.39 -1.64,-6.72 1.64,-1.21 3.8,-1.54 4.9,0.62 0.41,0.8 0.77,2.34 -0.01,3.55 -0.25,0.38 -1.24,1.98 0.33,3.14 1.32,0.98 2.56,0.1 3.09,-0.82 0.7,-1.23 2.75,-1.7 4.08,-1.27 1.16,0.37 1.83,1.43 1.84,2.41 0.01,2.1 -0.49,4.16 -2.6,4.8 -1.31,0.4 -3.74,-0.82 -4.45,-2.09 -0.5,-0.9 -1.47,-0.51 -2.05,0.2 -1.08,0.86 -4.28,6.69 -5.41,8.25zm-48.3 19.3c0.8,0.92 2.73,1.08 3.62,0.23 0.86,-0.82 -0.07,-3.38 -1.45,-3.47 -1.57,-0.1 -3.17,2.08 -2.17,3.24zm-6.2 9.42c0.17,-1.79 -0.67,-5.21 -1.71,-6.18 2.91,-4.59 10.45,-10.75 14.48,-12.81 1.99,-1.09 1.43,-2.72 -0.53,-2.63 -9.87,0.46 -9.77,-7.71 -3.19,-11.17 6.76,-3.56 14.24,0.35 10.51,8.07 -1.13,2.33 0.71,2.93 1.99,1.67 13.22,-13.03 43.26,-6.14 43.81,11.8 0.34,8.17 -21.81,12.18 -40.98,13.82 -10.05,0.86 -19.59,-0.2 -24.38,-2.57z"/>
  <g id="_2106852569328">
   <rect class="fil2" x="134.84" y="134.84" width="0.06" height="0.06"/>
   <rect class="fil2" x="134.84" y="0" width="0.06" height="0.06"/>
   <rect class="fil2" x="0" y="134.84" width="0.06" height="0.06"/>
   <rect class="fil2" x="0" y="0" width="0.06" height="0.06"/>
  </g>
 </g>
</svg>
