<?xml version="1.0" encoding="UTF-8"?>
<!DOCTYPE svg PUBLIC "-//W3C//DTD SVG 1.1//EN" "http://www.w3.org/Graphics/SVG/1.1/DTD/svg11.dtd">
<!-- Creator: CorelDRAW 2021.5 -->
<svg xmlns="http://www.w3.org/2000/svg" xml:space="preserve" width="16.6493mm" height="16.6494mm" version="1.1" style="shape-rendering:geometricPrecision; text-rendering:geometricPrecision; image-rendering:optimizeQuality; fill-rule:evenodd; clip-rule:evenodd"
viewBox="0 0 760.65 760.65"
 xmlns:xlink="http://www.w3.org/1999/xlink"
 xmlns:xodm="http://www.corel.com/coreldraw/odm/2003">
 <defs>
  <style type="text/css">
   <![CDATA[
    .fil2 {fill:none}
    .fil1 {fill:white}
    .fil0 {fill:white;fill-rule:nonzero}
   ]]>
  </style>
 </defs>
 <g id="Layer_x0020_1">
  <metadata id="CorelCorpID_0Corel-Layer"/>
  <path class="fil0" d="M137.19 99.97l0 -9.43 27.01 0 0 19.77c-3.79,5.6 -8.72,9.87 -14.82,12.77 -6.07,2.91 -13.14,4.37 -21.18,4.37 -12.07,0 -21.93,-3.25 -29.6,-9.76 -7.67,-6.52 -11.52,-14.79 -11.52,-24.79 0,-10.03 3.85,-18.3 11.57,-24.87 7.72,-6.57 17.57,-9.84 29.55,-9.84 7.57,0 14.27,1.31 20.13,3.9 5.86,2.62 10.73,6.44 14.61,11.49l-7.88 5.66c-2.78,-3.61 -6.52,-6.46 -11.23,-8.53 -4.74,-2.07 -9.95,-3.09 -15.63,-3.09 -8.95,0 -16.28,2.38 -22.02,7.12 -5.73,4.77 -8.58,10.76 -8.58,18.01 0,7.25 2.85,13.24 8.56,18.01 5.71,4.74 13.03,7.12 22.04,7.12 5.63,0 10.84,-1.02 15.63,-3.07 4.77,-2.04 8.12,-4.63 10,-7.8l0 -7.04 -16.65 0z"/>
  <path id="_1" class="fil0" d="M193.29 87.25l34.82 0c3.54,0 6.23,-0.76 8.09,-2.3 1.86,-1.54 2.8,-3.74 2.8,-6.62 0,-2.85 -0.94,-5.05 -2.8,-6.54 -1.86,-1.52 -4.55,-2.28 -8.09,-2.28l-34.82 0 0 17.75zm0 9.59l0 28.59 -10.21 0 0 -65.34 45.03 0c6.7,0 11.94,1.62 15.73,4.84 3.8,3.22 5.68,7.69 5.68,13.43 0,4.63 -1.49,8.67 -4.5,12.07 -2.98,3.4 -6.88,5.5 -11.7,6.25l18.25 28.75 -11.13 0 -18.59 -28.59 -28.56 0z"/>
  <polygon id="_2" class="fil0" points="268.06,125.42 268.06,59.92 329.48,59.92 329.48,69.5 278.27,69.5 278.27,85.84 311.88,85.84 311.88,95.26 278.27,95.26 278.27,115.99 332.31,115.99 332.31,125.42 "/>
  <polygon id="_3" class="fil0" points="346.91,125.42 346.91,59.92 408.33,59.92 408.33,69.5 357.12,69.5 357.12,85.84 390.73,85.84 390.73,95.26 357.12,95.26 357.12,115.99 411.16,115.99 411.16,125.42 "/>
  <polygon id="_4" class="fil0" points="441.31,125.42 441.31,69.03 413.67,69.03 413.67,59.92 479.17,59.92 479.17,69.03 451.53,69.03 451.53,125.42 "/>
  <polygon id="_5" class="fil0" points="489.51,125.42 489.51,59.76 499.88,59.76 499.88,125.42 "/>
  <polygon id="_6" class="fil0" points="522.65,125.42 522.65,59.92 528.02,59.92 569.62,105.94 569.62,59.92 579.67,59.92 579.67,125.42 574.3,125.42 532.71,79.55 532.71,125.42 "/>
  <path id="_7" class="fil0" d="M646.56 99.97l0 -9.43 27.01 0 0 19.77c-3.79,5.6 -8.72,9.87 -14.82,12.77 -6.07,2.91 -13.14,4.37 -21.18,4.37 -12.07,0 -21.93,-3.25 -29.6,-9.76 -7.67,-6.52 -11.52,-14.79 -11.52,-24.79 0,-10.03 3.85,-18.3 11.57,-24.87 7.72,-6.57 17.57,-9.84 29.55,-9.84 7.57,0 14.27,1.31 20.13,3.9 5.86,2.62 10.73,6.44 14.61,11.49l-7.88 5.66c-2.78,-3.61 -6.52,-6.46 -11.23,-8.53 -4.74,-2.07 -9.95,-3.09 -15.63,-3.09 -8.95,0 -16.28,2.38 -22.02,7.12 -5.73,4.77 -8.58,10.76 -8.58,18.01 0,7.25 2.85,13.24 8.56,18.01 5.71,4.74 13.03,7.12 22.04,7.12 5.63,0 10.84,-1.02 15.63,-3.07 4.77,-2.04 8.12,-4.63 10,-7.8l0 -7.04 -16.65 0z"/>
  <path class="fil0" d="M259.59 682.21c-3.72,5.87 -8.61,10.34 -14.69,13.43 -6.04,3.09 -12.96,4.63 -20.68,4.63 -11.49,0 -20.97,-3.25 -28.43,-9.76 -7.43,-6.52 -11.15,-14.79 -11.15,-24.79 0,-10.03 3.72,-18.3 11.15,-24.87 7.46,-6.57 16.94,-9.84 28.43,-9.84 7.17,0 13.66,1.33 19.5,4.03 5.84,2.67 10.53,6.47 14.11,11.36l-8.14 5.66c-2.7,-3.72 -6.26,-6.6 -10.68,-8.61 -4.43,-2.01 -9.35,-3.01 -14.77,-3.01 -8.4,0 -15.34,2.38 -20.84,7.17 -5.5,4.77 -8.25,10.76 -8.25,17.96 0,7.2 2.75,13.19 8.27,17.96 5.52,4.79 12.46,7.17 20.81,7.17 5.81,0 10.97,-1.15 15.42,-3.43 4.45,-2.3 8.35,-5.86 11.73,-10.71l8.2 5.66z"/>
  <path id="_1_0" class="fil0" d="M290.9 672.95l25.6 0 -12.72 -25.11 -12.88 25.11zm-23.74 25.29l33.32 -65.5 6.44 0 33.58 65.5 -10.96 0 -8.51 -16.65 -34.58 0 -8.46 16.65 -10.84 0z"/>
  <path id="_2_1" class="fil0" d="M360.64 660.06l34.82 0c3.54,0 6.23,-0.76 8.09,-2.3 1.86,-1.54 2.8,-3.74 2.8,-6.62 0,-2.85 -0.94,-5.05 -2.8,-6.54 -1.86,-1.52 -4.55,-2.28 -8.09,-2.28l-34.82 0 0 17.75zm0 9.59l0 28.59 -10.21 0 0 -65.34 45.03 0c6.7,0 11.94,1.62 15.73,4.84 3.8,3.22 5.68,7.69 5.68,13.43 0,4.63 -1.49,8.67 -4.5,12.07 -2.98,3.4 -6.88,5.5 -11.7,6.25l18.25 28.75 -11.13 0 -18.59 -28.59 -28.56 0z"/>
  <path id="_3_2" class="fil0" d="M464.57 632.73c10.71,0 19.32,3.07 25.9,9.16 6.54,6.13 9.81,14.06 9.81,23.82 0,9.87 -3.22,17.75 -9.63,23.67 -6.41,5.89 -15.11,8.85 -26.08,8.85l-29.01 0 0 -65.5 29.01 0zm0.16 9.43l-18.96 0 0 46.65 18.96 0c7.78,0 13.9,-2.09 18.35,-6.25 4.45,-4.16 6.67,-9.85 6.67,-16.99 0,-6.91 -2.3,-12.54 -6.91,-16.89 -4.61,-4.34 -10.63,-6.52 -18.11,-6.52z"/>
  <path id="_4_3" class="fil0" d="M510.83 689.85l4.98 -8.58c4.5,3.01 9.43,5.37 14.74,7.04 5.34,1.7 10.42,2.54 15.29,2.54 5.83,0 10.55,-1.18 14.14,-3.56 3.59,-2.38 5.37,-5.42 5.37,-9.14 0,-3.74 -1.65,-6.49 -4.93,-8.32 -3.27,-1.81 -8.43,-2.8 -15.5,-3.01 -11.94,-0.16 -20.13,-1.54 -24.58,-4.14 -4.45,-2.62 -6.67,-6.94 -6.67,-12.96 0,-5.63 2.44,-10.16 7.33,-13.59 4.89,-3.43 11.46,-5.13 19.71,-5.13 5.63,0 11.07,0.79 16.39,2.38 5.29,1.57 10.39,3.93 15.31,7.04l-5.16 8.48c-4.08,-2.75 -8.48,-4.87 -13.19,-6.39 -4.71,-1.49 -9.21,-2.25 -13.51,-2.25 -4.98,0 -8.98,0.87 -11.99,2.59 -3.01,1.75 -4.53,4 -4.53,6.81 0,2.91 1.52,4.97 4.55,6.2 3.04,1.23 8.33,1.83 15.84,1.83 10.44,0 18.3,1.75 23.62,5.29 5.31,3.54 7.98,8.77 7.98,15.73 0,6.18 -2.7,11.31 -8.09,15.42 -5.4,4.08 -12.39,6.13 -20.97,6.13 -6.36,0 -12.65,-0.92 -18.93,-2.72 -6.25,-1.8 -11.99,-4.37 -17.2,-7.7z"/>
  <path class="fil1" d="M369.06 413.14c-42.72,-7.54 -75.73,-57.35 -75.73,-117.67 0,-65.54 38.95,-118.67 87,-118.67 48.05,0 87,53.13 87,118.67 0,58.7 -31.26,107.45 -72.31,116.97 1.06,2.39 2.17,4.67 3.52,6.5 5.45,7.38 22.31,14.08 16.35,22.15 -5.21,7.06 -17.98,1.76 -28.39,0.33 0.32,10.13 4.24,14.73 4.06,25.8 -0.19,11.31 -15.1,31.96 -15.22,43.27 -0.11,11.31 13.88,12.96 14.22,25.51 0.34,12.55 -9.6,14.01 -14.37,19.74 6.57,4.69 16.72,5.31 18.52,13.13 1.8,7.82 -6.72,17.39 -10.07,24.07 -3.15,-2 -6.17,-3.92 -9.32,-5.92 3.01,-5.04 5.79,-9.59 8.37,-15.12 -6.7,-3.97 -18.48,-6.47 -19.46,-15.51 -0.97,-9.04 14.2,-13.72 15.32,-19.24 1.12,-5.52 -14.43,-11.17 -14.41,-26.14 0.02,-14.96 16.99,-37.73 15.5,-46.99 -1.41,-8.72 -3.47,-13.65 -4.21,-22.2 -9.88,1.79 -21.11,5.78 -25.92,-0.73 -5.96,-8.08 10.9,-14.77 16.35,-22.15 1.22,-1.64 2.24,-3.66 3.21,-5.79zm-3.32 -201.83c6.51,3.41 6.6,10.83 -1.33,14.01 -6.69,2.68 -17.04,3.79 -25.25,19.97 -8.21,16.19 -4.27,21.96 -2.34,31.86 1.59,8.18 -4.05,12.72 -10.52,9.32 -6.88,-3.61 -14.94,-21.52 -1.31,-48.84 13.63,-27.32 33.93,-29.91 40.75,-26.33z"/>
  <g id="_2105887133856">
   <rect class="fil2" x="0" y="760.33" width="0.32" height="0.32"/>
   <rect class="fil2" x="0" y="0" width="0.32" height="0.32"/>
   <rect class="fil2" x="760.33" y="760.33" width="0.32" height="0.32"/>
   <rect class="fil2" x="760.33" y="0" width="0.32" height="0.32"/>
  </g>
 </g>
</svg>
