<?xml version="1.0" encoding="UTF-8"?>
<!DOCTYPE svg PUBLIC "-//W3C//DTD SVG 1.1//EN" "http://www.w3.org/Graphics/SVG/1.1/DTD/svg11.dtd">
<!-- Creator: CorelDRAW 2021.5 -->
<svg xmlns="http://www.w3.org/2000/svg" xml:space="preserve" width="16.6493mm" height="16.6494mm" version="1.1" style="shape-rendering:geometricPrecision; text-rendering:geometricPrecision; image-rendering:optimizeQuality; fill-rule:evenodd; clip-rule:evenodd"
viewBox="0 0 155.57 155.57"
 xmlns:xlink="http://www.w3.org/1999/xlink"
 xmlns:xodm="http://www.corel.com/coreldraw/odm/2003">
 <defs>
  <style type="text/css">
   <![CDATA[
    .fil4 {fill:none}
    .fil0 {fill:#9999FF}
    .fil3 {fill:white}
    .fil2 {fill:white;fill-rule:nonzero}
    .fil1 {fill:white;fill-rule:nonzero}
   ]]>
  </style>
 </defs>
 <g id="Layer_x0020_1">
  <metadata id="CorelCorpID_0Corel-Layer"/>
  <path class="fil0" d="M-0 150.67c0,2.71 2.19,4.9 4.9,4.9 0.83,0 1.6,-0.22 2.29,-0.57l145.77 -72.89c1.57,-0.78 2.61,-2.42 2.61,-4.33 0,-1.91 -1.12,-3.61 -2.75,-4.41l-145.72 -72.86c-0.66,-0.33 -1.41,-0.52 -2.2,-0.52 -2.71,0 -4.9,2.2 -4.9,4.9l0 145.77z"/>
  <path class="fil1" d="M16.43 90.04l5.24 0 -2.6 -5.14 -2.63 5.14zm-4.86 5.17l6.82 -13.4 1.32 0 6.87 13.4 -2.24 0 -1.74 -3.41 -7.07 0 -1.73 3.41 -2.22 0z"/>
  <path id="_1" class="fil1" d="M36.77 83.78l-6.07 0 0 3.15 6.1 0c0.67,0 1.17,-0.13 1.51,-0.4 0.34,-0.26 0.51,-0.66 0.51,-1.18 0,-0.52 -0.17,-0.91 -0.51,-1.17 -0.34,-0.26 -0.86,-0.39 -1.55,-0.39zm0.71 5.11l-6.78 0 0 4.4 6.78 0c0.73,0 1.3,-0.19 1.71,-0.58 0.4,-0.39 0.6,-0.93 0.6,-1.63 0,-0.69 -0.2,-1.23 -0.6,-1.61 -0.41,-0.38 -0.97,-0.57 -1.71,-0.57zm-8.87 6.33l0 -13.36 8.22 0c1.36,0 2.39,0.28 3.09,0.84 0.7,0.56 1.05,1.38 1.05,2.46 0,0.55 -0.11,1.03 -0.33,1.45 -0.22,0.42 -0.54,0.77 -0.96,1.03 0.74,0.42 1.31,0.93 1.68,1.53 0.38,0.6 0.57,1.28 0.57,2.03 0,1.25 -0.42,2.23 -1.25,2.94 -0.83,0.72 -1.99,1.08 -3.45,1.08l-8.63 0z"/>
  <path id="_2" class="fil1" d="M53.09 93.67c1.79,0 3.25,-0.48 4.38,-1.45 1.13,-0.96 1.69,-2.2 1.69,-3.69 0,-1.48 -0.57,-2.71 -1.7,-3.68 -1.13,-0.97 -2.59,-1.46 -4.37,-1.46 -1.78,0 -3.23,0.48 -4.35,1.45 -1.12,0.96 -1.69,2.19 -1.69,3.69 0,1.49 0.56,2.72 1.69,3.69 1.12,0.97 2.58,1.45 4.35,1.45zm0 1.96c-2.38,0 -4.35,-0.67 -5.88,-2.02 -1.54,-1.34 -2.31,-3.04 -2.31,-5.08 0,-2.05 0.77,-3.74 2.3,-5.07 1.54,-1.33 3.5,-2 5.89,-2 2.42,0 4.39,0.66 5.93,1.99 1.53,1.33 2.3,3.02 2.3,5.08 0,2.05 -0.77,3.74 -2.31,5.09 -1.54,1.34 -3.51,2.01 -5.92,2.01z"/>
  <path id="_3" class="fil1" d="M64.75 81.85l2.09 0 0 8.58c0,1.28 0.31,2.15 0.91,2.6 0.61,0.45 1.81,0.67 3.61,0.67 1.81,0 3.02,-0.23 3.63,-0.67 0.6,-0.45 0.91,-1.32 0.91,-2.6l0 -8.58 2.09 0 0 9.12c0,1.64 -0.52,2.83 -1.56,3.56 -1.04,0.73 -2.74,1.1 -5.09,1.1 -2.34,0 -4.03,-0.36 -5.05,-1.08 -1.02,-0.72 -1.54,-1.91 -1.54,-3.58l0 -9.12z"/>
  <polygon id="_4" class="fil1" points="85.77,95.22 85.77,83.68 80.11,83.68 80.11,81.82 93.51,81.82 93.51,83.68 87.86,83.68 87.86,95.22 "/>
  <path class="fil2" d="M12.18 107.44l2.09 0 0 8.58c0,1.28 0.31,2.15 0.91,2.6 0.61,0.45 1.81,0.67 3.61,0.67 1.81,0 3.02,-0.23 3.63,-0.67 0.6,-0.45 0.91,-1.32 0.91,-2.6l0 -8.58 2.09 0 0 9.12c0,1.64 -0.52,2.83 -1.56,3.56 -1.04,0.73 -2.74,1.1 -5.09,1.1 -2.34,0 -4.03,-0.36 -5.05,-1.08 -1.02,-0.72 -1.54,-1.91 -1.54,-3.58l0 -9.12z"/>
  <path id="_1_0" class="fil2" d="M28.86 119.09l1.02 -1.76c0.92,0.62 1.93,1.1 3.01,1.44 1.09,0.35 2.13,0.52 3.13,0.52 1.19,0 2.16,-0.24 2.89,-0.73 0.73,-0.49 1.1,-1.11 1.1,-1.87 0,-0.77 -0.34,-1.33 -1.01,-1.7 -0.67,-0.37 -1.72,-0.57 -3.17,-0.62 -2.44,-0.03 -4.12,-0.32 -5.03,-0.85 -0.91,-0.54 -1.37,-1.42 -1.37,-2.65 0,-1.15 0.5,-2.08 1.5,-2.78 1,-0.7 2.34,-1.05 4.03,-1.05 1.15,0 2.27,0.16 3.35,0.49 1.08,0.32 2.12,0.8 3.13,1.44l-1.05 1.73c-0.84,-0.56 -1.74,-1 -2.7,-1.31 -0.96,-0.3 -1.88,-0.46 -2.76,-0.46 -1.02,0 -1.84,0.18 -2.45,0.53 -0.62,0.36 -0.93,0.82 -0.93,1.39 0,0.59 0.31,1.02 0.93,1.27 0.62,0.25 1.7,0.37 3.24,0.37 2.14,0 3.74,0.36 4.83,1.08 1.09,0.72 1.63,1.79 1.63,3.22 0,1.26 -0.55,2.31 -1.65,3.15 -1.1,0.84 -2.53,1.25 -4.29,1.25 -1.3,0 -2.59,-0.19 -3.87,-0.56 -1.28,-0.37 -2.45,-0.89 -3.52,-1.57z"/>
  <path class="fil3" d="M21.82 48.64l0 0c4.06,0 7.37,3.15 7.37,6.98 0,7.11 0.07,1.09 0,8.16 0,0.06 0.02,0.12 0.07,0.16 0.04,0.04 0.1,0.07 0.16,0.07l2.24 0c0.13,0 0.23,-0.1 0.23,-0.23l0 -8.92c0,-4.86 -4.53,-8.84 -10.07,-8.84l0 0c-5.54,0 -10.07,3.98 -10.07,8.84l0 17.28c0,0.12 0.1,0.23 0.23,0.23l2.2 0c0.06,0 0.12,-0.02 0.16,-0.07 0.04,-0.04 0.07,-0.1 0.07,-0.16 -0.02,-7.07 0.04,-9.41 0.04,-16.52 0,-3.84 3.32,-6.98 7.37,-6.98z"/>
  <path class="fil3" d="M21.82 28.67c4.51,0 8.17,3.65 8.17,8.17 0,4.51 -3.66,8.17 -8.17,8.17 -4.51,0 -8.17,-3.65 -8.17,-8.17 0,-4.51 3.66,-8.17 8.17,-8.17zm0 2.37c3.2,0 5.8,2.6 5.8,5.8 0,3.2 -2.6,5.8 -5.8,5.8 -3.2,0 -5.8,-2.6 -5.8,-5.8 0,-3.2 2.6,-5.8 5.8,-5.8z"/>
  <g id="_2106473852064">
   <path class="fil3" d="M12.59 27.81l5.19 2.28c0.09,0.04 0.17,0.11 0.22,0.2 0.05,0.09 0.05,0.17 0.01,0.21l-3.12 2.92c-0.04,0.04 -0.12,0.04 -0.21,-0.02 -0.09,-0.05 -0.16,-0.13 -0.2,-0.22l-2.06 -5.2c-0.03,-0.07 -0.03,-0.13 0.01,-0.17 0.04,-0.03 0.1,-0.04 0.17,-0z"/>
   <path class="fil3" d="M30.7 27.81l-5.19 2.28c-0.09,0.04 -0.17,0.11 -0.22,0.2 -0.05,0.09 -0.05,0.17 -0.01,0.21l3.12 2.92c0.04,0.04 0.12,0.04 0.21,-0.02 0.09,-0.05 0.16,-0.13 0.2,-0.22l2.06 -5.2c0.03,-0.07 0.03,-0.13 -0.01,-0.17 -0.04,-0.03 -0.1,-0.04 -0.17,-0z"/>
  </g>
  <path class="fil3" d="M21.96 40.21l2.32 -3.12c0.04,-0.05 0.04,-0.12 0.01,-0.18 -0.03,-0.06 -0.09,-0.09 -0.15,-0.09l-4.63 0c-0.07,0 -0.12,0.03 -0.15,0.09 -0.03,0.06 -0.02,0.12 0.01,0.18l2.32 3.12c0.03,0.04 0.08,0.07 0.14,0.07 0.06,0 0.1,-0.02 0.14,-0.07z"/>
  <path class="fil3" d="M45.27 48.64l0 0c4.06,0 7.37,3.15 7.37,6.98 0,7.11 0.07,9.45 0,16.52 0,0.06 0.02,0.12 0.07,0.16 0.04,0.04 0.1,0.07 0.16,0.07l2.24 0c0.13,0 0.23,-0.1 0.23,-0.23l0 -17.28c0,-4.86 -4.53,-8.84 -10.07,-8.84l0 0c-5.54,0 -10.07,3.98 -10.07,8.84l0 8.92c0,0.12 0.1,0.23 0.23,0.23l2.2 0c0.06,0 0.12,-0.02 0.16,-0.07 0.04,-0.04 0.07,-0.1 0.07,-0.16 -0.02,-7.07 0.04,-1.04 0.04,-8.16 0,-3.84 3.32,-6.98 7.37,-6.98z"/>
  <path class="fil3" d="M45.27 28.67c4.51,0 8.17,3.65 8.17,8.17 0,4.51 -3.66,8.17 -8.17,8.17 -4.51,0 -8.17,-3.65 -8.17,-8.17 0,-4.51 3.66,-8.17 8.17,-8.17zm0 2.37c3.2,0 5.8,2.6 5.8,5.8 0,3.2 -2.6,5.8 -5.8,5.8 -3.2,0 -5.8,-2.6 -5.8,-5.8 0,-3.2 2.6,-5.8 5.8,-5.8z"/>
  <g id="_2106473851728">
   <path class="fil3" d="M36.22 27.81l5.19 2.28c0.09,0.04 0.17,0.11 0.22,0.2 0.05,0.09 0.05,0.17 0.01,0.21l-3.12 2.92c-0.04,0.04 -0.12,0.04 -0.21,-0.02 -0.09,-0.05 -0.16,-0.13 -0.2,-0.22l-2.06 -5.2c-0.03,-0.07 -0.02,-0.13 0.01,-0.17 0.04,-0.03 0.1,-0.04 0.17,-0z"/>
   <path class="fil3" d="M54.32 27.81l-5.19 2.28c-0.09,0.04 -0.17,0.11 -0.22,0.2 -0.05,0.09 -0.05,0.17 -0.01,0.21l3.12 2.92c0.04,0.04 0.12,0.04 0.21,-0.02 0.09,-0.05 0.16,-0.13 0.2,-0.22l2.06 -5.2c0.03,-0.07 0.03,-0.13 -0.01,-0.17 -0.04,-0.03 -0.1,-0.04 -0.17,-0z"/>
  </g>
  <path class="fil3" d="M45.4 40.21l2.31 -3.12c0.04,-0.05 0.04,-0.12 0.02,-0.18 -0.03,-0.06 -0.09,-0.09 -0.15,-0.09l-4.63 0c-0.07,0 -0.12,0.03 -0.15,0.09 -0.03,0.06 -0.02,0.12 0.01,0.18l2.32 3.12c0.03,0.04 0.08,0.07 0.14,0.07 0.06,0 0.1,-0.02 0.14,-0.07z"/>
  <path class="fil3" d="M35.2 57.69c1.55,0.66 2.65,2.2 2.65,3.98l0 2.75c0,2.38 -1.94,4.32 -4.32,4.32l0 0c-2.38,0 -4.32,-1.94 -4.32,-4.32l0 -2.75c0,-1.8 1.11,-3.35 2.69,-4l0 6.74c0,0.91 0.74,1.66 1.65,1.66l0 0c0.91,0 1.65,-0.75 1.65,-1.66l0 -6.72z"/>
  <g id="_2106473854224">
   <rect class="fil3" transform="matrix(0.376322 -0.178039 0.171202 0.361872 33.4636 41.816)" width="22.9" height="3.21" rx="4.75" ry="4.75"/>
   <rect class="fil3" transform="matrix(-0.376322 -0.178039 -0.171202 0.361872 57.073 41.816)" width="22.9" height="3.21" rx="4.75" ry="4.75"/>
   <rect class="fil3" transform="matrix(0.326682 -0.25806 0.248151 0.314138 35.0778 45.2653)" width="22.9" height="3.21" rx="4.75" ry="4.75"/>
   <rect class="fil3" transform="matrix(-0.326682 -0.25806 -0.248151 0.314138 55.4587 45.2653)" width="22.9" height="3.21" rx="4.75" ry="4.75"/>
  </g>
  <g id="_2106473855760">
   <rect class="fil4" x="0" y="155.51" width="0.07" height="0.07"/>
   <rect class="fil4" x="0" y="0" width="0.07" height="0.07"/>
   <rect class="fil4" x="155.51" y="155.51" width="0.07" height="0.07"/>
   <rect class="fil4" x="155.51" y="0" width="0.07" height="0.07"/>
  </g>
 </g>
</svg>
