<?xml version="1.0" encoding="UTF-8"?>
<!DOCTYPE svg PUBLIC "-//W3C//DTD SVG 1.1//EN" "http://www.w3.org/Graphics/SVG/1.1/DTD/svg11.dtd">
<!-- Creator: CorelDRAW 2018 (64-Bit) -->
<svg xmlns="http://www.w3.org/2000/svg" xml:space="preserve" width="7.3436mm" height="7.3436mm" version="1.1" style="shape-rendering:geometricPrecision; text-rendering:geometricPrecision; image-rendering:optimizeQuality; fill-rule:evenodd; clip-rule:evenodd"
viewBox="0 0 52.76 52.76"
 xmlns:xlink="http://www.w3.org/1999/xlink">
 <defs>
  <style type="text/css">
   <![CDATA[
    .str0 {stroke:#6666CC;stroke-width:1.44;stroke-miterlimit:22.9256}
    .fil0 {fill:none}
   ]]>
  </style>
 </defs>
 <g id="Layer_x0020_1">
  <metadata id="CorelCorpID_0Corel-Layer"/>
  <g id="_2224480218896">
   <circle class="fil0 str0" cx="26.38" cy="26.38" r="25.66"/>
   <path class="fil0 str0" d="M26.38 8.7c9.76,0 17.68,7.92 17.68,17.68 0,9.76 -7.92,17.68 -17.68,17.68 -9.76,0 -17.68,-7.92 -17.68,-17.68 0,-9.76 7.92,-17.68 17.68,-17.68zm-5.47 17.64c1.74,0.58 2.69,2.46 2.11,4.21 -0.58,1.74 -2.46,2.69 -4.21,2.11 -1.74,-0.58 -2.69,-2.46 -2.11,-4.21 0.58,-1.74 2.46,-2.69 4.21,-2.11zm3.16 -9.52c1.74,0.58 2.69,2.46 2.11,4.21 -0.58,1.74 -2.46,2.69 -4.21,2.11 -1.74,-0.58 -2.69,-2.46 -2.11,-4.21 0.58,-1.74 2.46,-2.69 4.21,-2.11zm6.72 12.8c1.74,0.58 2.69,2.46 2.11,4.21 -0.58,1.74 -2.46,2.69 -4.21,2.11 -1.74,-0.58 -2.69,-2.46 -2.11,-4.21 0.58,-1.74 2.46,-2.69 4.21,-2.11zm3.16 -9.52c1.74,0.58 2.69,2.46 2.11,4.21 -0.58,1.74 -2.46,2.69 -4.21,2.11 -1.74,-0.58 -2.69,-2.46 -2.11,-4.21 0.58,-1.74 2.46,-2.69 4.21,-2.11z"/>
  </g>
 </g>
</svg>
