<?xml version="1.0" encoding="UTF-8"?>
<!DOCTYPE svg PUBLIC "-//W3C//DTD SVG 1.1//EN" "http://www.w3.org/Graphics/SVG/1.1/DTD/svg11.dtd">
<!-- Creator: CorelDRAW 2018 (64-Bit) -->
<svg xmlns="http://www.w3.org/2000/svg" xml:space="preserve" width="8.0712mm" height="8.2484mm" version="1.1" style="shape-rendering:geometricPrecision; text-rendering:geometricPrecision; image-rendering:optimizeQuality; fill-rule:evenodd; clip-rule:evenodd"
viewBox="0 0 51.24 52.37"
 xmlns:xlink="http://www.w3.org/1999/xlink">
 <defs>
  <style type="text/css">
   <![CDATA[
    .str0 {stroke:#6666CC;stroke-width:1.27;stroke-miterlimit:22.9256}
    .fil0 {fill:none}
    .fil1 {fill:#6666CC}
   ]]>
  </style>
 </defs>
 <g id="Layer_x0020_1">
  <metadata id="CorelCorpID_0Corel-Layer"/>
  <g id="_2224474666832">
   <path class="fil0 str0" d="M19.41 4.27l25.21 25.21c0.9,0.9 0.9,2.37 0,3.27l-1.88 1.88 -27.41 -27.41 -4.99 4.99 27.41 27.41 -1.48 1.48c-0.9,0.9 -2.37,0.9 -3.27,0l-31.22 -31.22c-1.54,-1.54 -1.54,-4.06 0,-5.61l0 -0c4.85,-4.85 12.77,-4.85 17.62,0z"/>
   <path class="fil1 str0" d="M44.17 33.19l6.36 6.36 -3.07 11.59 -10.62 -10.62 -0.57 0.57 1.48 -1.48 -27.41 -27.41 4.99 -4.99 27.41 27.41 1.88 -1.88 -0.45 0.45zm-21.45 -18.3l5.4 5.4 -4.66 4.66 -5.4 -5.4 4.66 -4.66z"/>
  </g>
 </g>
</svg>
