<?xml version="1.0" encoding="UTF-8"?>
<!DOCTYPE svg PUBLIC "-//W3C//DTD SVG 1.1//EN" "http://www.w3.org/Graphics/SVG/1.1/DTD/svg11.dtd">
<!-- Creator: CorelDRAW 2018 (64-Bit) -->
<svg xmlns="http://www.w3.org/2000/svg" xml:space="preserve" width="8.6917mm" height="8.8861mm" version="1.1" style="shape-rendering:geometricPrecision; text-rendering:geometricPrecision; image-rendering:optimizeQuality; fill-rule:evenodd; clip-rule:evenodd"
viewBox="0 0 49.6 50.71"
 xmlns:xlink="http://www.w3.org/1999/xlink">
 <defs>
  <style type="text/css">
   <![CDATA[
    .str0 {stroke:#6666CC;stroke-width:1.14;stroke-miterlimit:22.9256}
    .fil1 {fill:none}
    .fil0 {fill:#6666CC}
   ]]>
  </style>
 </defs>
 <g id="Layer_x0020_1">
  <metadata id="CorelCorpID_0Corel-Layer"/>
  <path class="fil0 str0" d="M8.87 35.13c2.19,0.23 2.58,-0.22 3.99,-2.01 2.09,-2.65 4.96,-6.24 6.33,-7.94l19.31 -23.91c1.09,-1.35 2.37,-0.6 1.83,1.01l-8.96 26.35c-0.7,2.07 -1.52,3.99 -3.55,4.7l-11.13 3.86c-0.83,0.29 -2.15,1.17 -1.67,2.49 0.87,2.05 0.82,4.47 -0.34,6.57 -2,3.64 -6.58,4.96 -10.22,2.96 -3.64,-2 -4.96,-6.58 -2.96,-10.22 1.5,-2.73 4.45,-4.15 7.36,-3.85zm17.36 -9.51c-1.51,-0.83 -3.4,-0.28 -4.23,1.22 -0.83,1.51 -0.28,3.4 1.22,4.23 1.51,0.83 3.4,0.28 4.23,-1.22 0.83,-1.51 0.28,-3.4 -1.22,-4.23zm-15.56 12.32c2.58,1.42 3.52,4.67 2.1,7.25 -1.42,2.58 -4.67,3.52 -7.25,2.1 -2.58,-1.42 -3.52,-4.67 -2.1,-7.25 1.42,-2.58 4.67,-3.52 7.25,-2.1z"/>
  <path class="fil1 str0" d="M40.67 34.98c-2.18,0.25 -2.58,-0.2 -4.01,-1.98 -2.11,-2.63 -5.01,-6.2 -6.4,-7.89l-19.51 -23.75c-1.1,-1.34 -2.38,-0.58 -1.82,1.02l9.18 26.28c0.72,2.06 1.55,3.98 3.59,4.67l11.16 3.77c0.84,0.28 2.16,1.16 1.69,2.48 -0.85,2.06 -0.79,4.47 0.39,6.57 2.04,3.62 6.62,4.91 10.24,2.87 3.62,-2.03 4.91,-6.62 2.87,-10.24 -1.53,-2.71 -4.48,-4.12 -7.39,-3.79zm-1.78 2.82c-2.57,1.44 -3.48,4.7 -2.04,7.27 1.44,2.57 4.7,3.48 7.27,2.04 2.57,-1.44 3.48,-4.7 2.04,-7.27 -1.44,-2.57 -4.7,-3.48 -7.27,-2.04z"/>
 </g>
</svg>
