<?xml version="1.0" encoding="UTF-8"?>
<!DOCTYPE svg PUBLIC "-//W3C//DTD SVG 1.1//EN" "http://www.w3.org/Graphics/SVG/1.1/DTD/svg11.dtd">
<!-- Creator: CorelDRAW 2018 (64-Bit) -->
<svg xmlns="http://www.w3.org/2000/svg" xml:space="preserve" width="9.3512mm" height="9.1238mm" version="1.1" style="shape-rendering:geometricPrecision; text-rendering:geometricPrecision; image-rendering:optimizeQuality; fill-rule:evenodd; clip-rule:evenodd"
viewBox="0 0 107.48 104.87"
 xmlns:xlink="http://www.w3.org/1999/xlink">
 <defs>
  <style type="text/css">
   <![CDATA[
    .str0 {stroke:#6666CC;stroke-width:2.3;stroke-miterlimit:22.9256}
    .fil0 {fill:none}
    .fil1 {fill:#6666CC}
   ]]>
  </style>
 </defs>
 <g id="Layer_x0020_1">
  <metadata id="CorelCorpID_0Corel-Layer"/>
  <path class="fil0 str0" d="M65.39 64.48l36.61 -0.29c2.22,-0.02 4.06,1.78 4.08,4l0.25 24.52c0.02,2.22 -1.78,4.06 -4,4.08l-89.72 0.91"/>
  <g id="_2224472191936">
   <line class="fil0 str0" x1="80.62" y1="68.11" x2="80.88" y2= "93.83" />
   <g>
    <line class="fil0 str0" x1="93.17" y1="68.01" x2="93.43" y2= "93.73" />
    <line class="fil0 str0" x1="68.07" y1="68.22" x2="68.33" y2= "93.94" />
   </g>
  </g>
  <g id="_2224472192992">
   <line class="fil0 str0" x1="53.8" y1="35.3" x2="71.81" y2= "53.66" />
   <g>
    <line class="fil0 str0" x1="62.78" y1="26.52" x2="80.79" y2= "44.89" />
    <line class="fil0 str0" x1="44.83" y1="44.08" x2="62.84" y2= "62.44" />
   </g>
  </g>
  <rect class="fil0 str0" transform="matrix(0.601613 0.640471 -0.640471 0.601613 70.7612 14.6683)" width="37.1" height="111.3" rx="4.6" ry="4.6"/>
  <path class="fil1 str0" d="M11.34 1.15l24.52 0c2.22,0 4.04,1.82 4.04,4.04l0 89.72c0,2.22 -1.82,4.04 -4.04,4.04l-24.52 0c-2.22,0 -4.04,-1.82 -4.04,-4.04l0 -89.72c0,-2.22 1.82,-4.04 4.04,-4.04zm12.72 85.76c-1.67,0.24 -3.42,-0.31 -4.66,-1.63 -1.72,-1.83 -1.9,-4.55 -0.59,-6.56 0.8,-1.41 2.22,-2.44 3.95,-2.67 2.3,-0.31 4.45,0.9 5.46,2.85 0.46,0.79 0.73,1.71 0.73,2.69 0,2.8 -2.15,5.09 -4.89,5.33z"/>
 </g>
</svg>
