<?xml version="1.0" encoding="UTF-8"?>
<!DOCTYPE svg PUBLIC "-//W3C//DTD SVG 1.1//EN" "http://www.w3.org/Graphics/SVG/1.1/DTD/svg11.dtd">
<!-- Creator: CorelDRAW 2021.5 -->
<svg xmlns="http://www.w3.org/2000/svg" xml:space="preserve" width="54.8306mm" height="43.5964mm" version="1.1" style="shape-rendering:geometricPrecision; text-rendering:geometricPrecision; image-rendering:optimizeQuality; fill-rule:evenodd; clip-rule:evenodd"
viewBox="0 0 8147.41 6478.09"
 xmlns:xlink="http://www.w3.org/1999/xlink"
 xmlns:xodm="http://www.corel.com/coreldraw/odm/2003">
 <defs>
  <style type="text/css">
   <![CDATA[
    .str0 {stroke:#E23324;stroke-width:148.59;stroke-miterlimit:22.9256}
    .str2 {stroke:#AA9372;stroke-width:148.59;stroke-miterlimit:22.9256}
    .str1 {stroke:#6152BA;stroke-width:148.59;stroke-miterlimit:22.9256}
    .str3 {stroke:#AA9372;stroke-width:111.44;stroke-miterlimit:22.9256}
    .fil0 {fill:none}
    .fil1 {fill:#AA9372}
   ]]>
  </style>
 </defs>
 <g id="Layer_x0020_1">
  <metadata id="CorelCorpID_0Corel-Layer"/>
  <g id="_2272442837120">
   <path class="fil0 str0" d="M4448.71 5253.84c-934.53,2762.23 -4786.82,-144.89 -4339.17,-1468.03 447.65,-1323.14 5273.69,-1294.18 4339.17,1468.03z"/>
   <path class="fil0 str0" d="M801.89 5388.01c150.91,-119.48 311.55,-220.26 395.64,-468.78 111.92,-330.83 -176.29,-473.07 -64.37,-803.9 111.93,-330.83 427.31,-268.86 539.23,-599.69 85.86,-253.77 -63.73,-396.59 -87.57,-598.66"/>
   <path class="fil0 str0" d="M1237.97 5646.68c169.81,-152.96 373.04,-241.42 471.44,-532.26 111.92,-330.83 -176.29,-473.07 -64.37,-803.9 111.93,-330.81 427.31,-268.86 539.23,-599.67 103.29,-305.28 -134.16,-449.98 -83.49,-730.47"/>
   <path class="fil0 str0" d="M3022.92 6414.79c-57.25,-225.5 -137.58,-440.15 -35.96,-740.53 135.28,-399.85 516.45,-324.96 651.73,-724.8 135.28,-399.85 -213.07,-571.77 -77.79,-971.6 103.76,-306.72 352.24,-334.11 523.4,-510.68"/>
   <path class="fil0 str0" d="M2414.31 6343.22c-50.85,-271.51 -181.1,-505.6 -62.17,-857.11 135.28,-399.85 516.45,-324.96 651.71,-724.8 135.28,-399.85 -213.05,-571.77 -77.77,-971.6 124.82,-368.97 459.05,-333.69 616.21,-640.23"/>
  </g>
  <g id="_2272442844848">
   <path class="fil0 str1" d="M6144.44 6379.38c-2885.95,-417.65 -726.32,-4733.6 656.09,-4533.55 1382.41,200.06 2229.87,4951.2 -656.09,4533.55z"/>
   <circle class="fil0 str1" transform="matrix(0.830486 0.120186 -0.120186 0.830486 5367.1 4091.35)" r="341.78"/>
   <path class="fil0 str1" d="M4726.89 5040.05c1031.97,698.95 2086.01,803.23 3156.7,456.83"/>
   <path class="fil0 str1" d="M4735.88 4489.9c1077.21,729.59 2177.44,838.45 3295.05,476.86"/>
   <path class="fil0 str1" d="M5520.67 2634.77c744.25,504.07 1504.42,579.29 2276.58,329.47"/>
   <path class="fil0 str1" d="M5236 3112.8c879.06,595.37 1776.91,684.21 2688.94,389.13"/>
   <circle class="fil0 str1" transform="matrix(0.830486 0.120186 -0.120186 0.830486 6427.7 4422.16)" r="341.78"/>
   <circle class="fil0 str1" transform="matrix(0.830486 0.120186 -0.120186 0.830486 7538.23 4405.56)" r="341.78"/>
  </g>
  <path class="fil0 str2" d="M2621.99 1033.61c-57.33,-529.21 350.34,-959.31 767.45,-959.31 417.1,0 755.22,402.28 755.22,898.54 0,925.11 -500.67,1832.81 -1559.42,1832.81 -788.79,0 -1529.33,-535.39 -1584.9,-1246.42 -17.3,-221.51 73.73,-197.61 217.29,-109.68 220.29,134.89 509.88,205.49 822.43,190.44"/>
  <path class="fil0 str2" d="M2534.7 2064.51c-794.32,-252.19 -673.14,-1139.94 -416.99,-1508.88 115.46,-166.29 165.98,-96.94 216.6,47.88 100.36,287.07 243.42,441.13 586.84,620.02"/>
  <rect class="fil1" transform="matrix(1.35583 -0.771107 0.771107 1.35583 4055 767.801)" width="388.91" height="104.88" rx="89.16" ry="89.16"/>
  <rect class="fil1" transform="matrix(1.35583 0.771107 0.771107 -1.35583 4081.3 934.48)" width="388.91" height="104.88" rx="89.16" ry="89.16"/>
  <ellipse class="fil0 str3" cx="3427.08" cy="926.5" rx="227.56" ry="236.4"/>
 </g>
</svg>
