<?xml version="1.0" encoding="UTF-8"?>
<!DOCTYPE svg PUBLIC "-//W3C//DTD SVG 1.1//EN" "http://www.w3.org/Graphics/SVG/1.1/DTD/svg11.dtd">
<!-- Creator: CorelDRAW 2021.5 -->
<svg xmlns="http://www.w3.org/2000/svg" xml:space="preserve" width="24.9608mm" height="39.2386mm" version="1.1" style="shape-rendering:geometricPrecision; text-rendering:geometricPrecision; image-rendering:optimizeQuality; fill-rule:evenodd; clip-rule:evenodd"
viewBox="0 0 338.55 532.21"
 xmlns:xlink="http://www.w3.org/1999/xlink"
 xmlns:xodm="http://www.corel.com/coreldraw/odm/2003">
 <defs>
  <style type="text/css">
   <![CDATA[
    .str1 {stroke:#FECC00;stroke-width:13.56;stroke-miterlimit:22.9256}
    .str0 {stroke:#AA9372;stroke-width:13.56;stroke-miterlimit:22.9256}
    .fil0 {fill:none}
   ]]>
  </style>
 </defs>
 <g id="Layer_x0020_1">
  <metadata id="CorelCorpID_0Corel-Layer"/>
  <path class="fil0 str0" d="M9.86 307.53c10.63,10.63 16.86,31.88 31.88,31.88 15.03,0 16.86,-31.88 31.88,-31.88 15.03,0 16.86,31.88 31.88,31.88 15.03,0 16.86,-31.88 31.88,-31.88 15.03,0 16.86,31.88 31.88,31.88 15.03,0 16.85,-31.88 31.88,-31.88 15.03,0 16.85,31.88 31.88,31.88 15.03,0 16.85,-31.88 31.88,-31.88 15.03,0 16.85,31.88 31.88,31.88 15.03,0 21.26,-21.26 31.88,-31.88"/>
  <path class="fil0 str0" d="M190.82 213c79.19,3.71 151.44,31.42 139.72,84.23l-44.24 199.22c-3.43,15.47 -13.13,28.98 -28.98,28.98l-179.35 0c-15.86,0 -25.76,-13.37 -28.98,-28.98l-41.18 -199.22c-10.48,-50.68 61.26,-79.01 139.87,-83.9"/>
  <path class="fil0 str1" d="M163.92 124.66l10.74 0c8.87,0 16.1,7.23 16.1,16.11l0 111.94 -42.94 0 0 -111.94c0,-8.87 7.23,-16.11 16.1,-16.11z"/>
  <path class="fil0 str1" d="M187.94 57.46c1.89,4.34 2.97,9.41 2.97,14.81 0,16.17 -9.68,29.27 -21.62,29.27 -11.94,0 -21.62,-13.1 -21.62,-29.27 0,-5.4 1.08,-10.47 2.97,-14.81 6.87,-15.82 11.87,-30.17 16.41,-47.19 1.22,-4.61 3.26,-4.66 4.45,-0.18 4.55,17.1 9.56,31.49 16.45,47.37z"/>
 </g>
</svg>
