<?xml version="1.0" encoding="UTF-8"?>
<!DOCTYPE svg PUBLIC "-//W3C//DTD SVG 1.1//EN" "http://www.w3.org/Graphics/SVG/1.1/DTD/svg11.dtd">
<!-- Creator: CorelDRAW 2021.5 -->
<svg xmlns="http://www.w3.org/2000/svg" xml:space="preserve" width="23.39mm" height="31.8278mm" version="1.1" style="shape-rendering:geometricPrecision; text-rendering:geometricPrecision; image-rendering:optimizeQuality; fill-rule:evenodd; clip-rule:evenodd"
viewBox="0 0 541 736.16"
 xmlns:xlink="http://www.w3.org/1999/xlink"
 xmlns:xodm="http://www.corel.com/coreldraw/odm/2003">
 <defs>
  <style type="text/css">
   <![CDATA[
    .str0 {stroke:#66C3D0;stroke-width:23.13;stroke-miterlimit:22.9256}
    .fil0 {fill:none}
    .fil1 {fill:#66C3D0}
   ]]>
  </style>
 </defs>
 <g id="Layer_x0020_1">
  <metadata id="CorelCorpID_0Corel-Layer"/>
  <path class="fil0 str0" d="M33.84 303.01c29.33,19 56,40.76 103.63,40.76 63.4,0 71.09,-57.84 134.49,-57.84 63.4,0 71.09,57.84 134.49,57.84 48.63,0 64.49,-34.03 97.85,-49.89"/>
  <path class="fil0 str0" d="M270.5 724.6c-453.9,0 -217.43,-713.03 0,-713.03 217.43,0 453.9,713.03 0,713.03z"/>
  <path class="fil0 str0" d="M18.52 393.04c36.18,20.3 63.22,50.1 118.95,50.1 63.4,0 71.09,-57.84 134.49,-57.84 63.4,0 71.09,57.84 134.49,57.84 58.5,0 69.57,-49.25 120.75,-56.85"/>
  <circle class="fil1" cx="60.78" cy="363.23" r="22.85"/>
  <circle class="fil1" cx="162.15" cy="384.65" r="22.85"/>
  <circle class="fil1" cx="362.05" cy="374.66" r="22.85"/>
  <circle class="fil1" cx="264.96" cy="334.68" r="22.85"/>
  <circle class="fil1" cx="477.61" cy="363.23" r="22.85"/>
  <path class="fil0 str0" d="M113.26 129.04c114.3,55.44 222.14,50.57 325.08,0"/>
  <path class="fil0 str0" d="M22.32 537.48c174.56,84.67 339.27,77.23 496.48,0"/>
 </g>
</svg>
