<?xml version="1.0" encoding="UTF-8"?>
<!DOCTYPE svg PUBLIC "-//W3C//DTD SVG 1.1//EN" "http://www.w3.org/Graphics/SVG/1.1/DTD/svg11.dtd">
<!-- Creator: CorelDRAW 2021.5 -->
<svg xmlns="http://www.w3.org/2000/svg" xml:space="preserve" width="20.2408mm" height="38.7335mm" version="1.1" style="shape-rendering:geometricPrecision; text-rendering:geometricPrecision; image-rendering:optimizeQuality; fill-rule:evenodd; clip-rule:evenodd"
viewBox="0 0 295.04 564.61"
 xmlns:xlink="http://www.w3.org/1999/xlink"
 xmlns:xodm="http://www.corel.com/coreldraw/odm/2003">
 <defs>
  <style type="text/css">
   <![CDATA[
    .str0 {stroke:#E4B90D;stroke-width:14.58;stroke-miterlimit:22.9256}
    .fil0 {fill:none}
    .fil1 {fill:#E4B90D}
   ]]>
  </style>
 </defs>
 <g id="Layer_x0020_1">
  <metadata id="CorelCorpID_0Corel-Layer"/>
  <path class="fil0 str0" d="M228.22 86.14c2.16,18.02 3.33,37.21 3.33,57.11 0,104.59 -32.21,189.38 -71.94,189.39 -39.74,0 -71.95,-84.79 -71.95,-189.39 0,-19.91 1.17,-39.09 3.33,-57.11 0.4,-3.32 3.18,-5.78 6.52,-5.78l124.19 -0c3.34,0 6.12,2.47 6.52,5.78z"/>
  <rect class="fil1" x="94.54" y="551.38" width="130.14" height="13.23" rx="17.91" ry="8.95"/>
  <line class="fil0 str0" x1="159.61" y1="332.63" x2="159.61" y2= "559.01" />
  <path class="fil1" d="M242.33 56.59l-122.43 200.34c-1.97,3.22 -6.22,4.25 -9.44,2.28 -3.22,-1.97 -4.25,-6.22 -2.28,-9.44l128.52 -210.32c2.5,-4.09 8.73,-5.47 12.08,-1.61l44.58 51.34c2.48,2.85 2.17,7.21 -0.68,9.69 -2.85,2.48 -7.21,2.17 -9.69,-0.69l-36.43 -41.96c-0.57,-0.65 -1.34,-0.97 -2.21,-0.9 -0.86,0.07 -1.58,0.51 -2.03,1.25z"/>
  <path class="fil0 str0" d="M81.46 155.64c-40.97,0 -74.18,-33.21 -74.18,-74.17 0,-40.97 33.21,-74.18 74.18,-74.18 40.97,0 74.17,33.21 74.17,74.18"/>
 </g>
</svg>
