<?xml version="1.0" encoding="UTF-8"?>
<!DOCTYPE svg PUBLIC "-//W3C//DTD SVG 1.1//EN" "http://www.w3.org/Graphics/SVG/1.1/DTD/svg11.dtd">
<!-- Creator: CorelDRAW 2021.5 -->
<svg xmlns="http://www.w3.org/2000/svg" xml:space="preserve" width="32.2923mm" height="36.4998mm" version="1.1" style="shape-rendering:geometricPrecision; text-rendering:geometricPrecision; image-rendering:optimizeQuality; fill-rule:evenodd; clip-rule:evenodd"
viewBox="0 0 3314.49 3746.35"
 xmlns:xlink="http://www.w3.org/1999/xlink"
 xmlns:xodm="http://www.corel.com/coreldraw/odm/2003">
 <defs>
  <style type="text/css">
   <![CDATA[
    .str0 {stroke:#EA556F;stroke-width:102.64;stroke-miterlimit:22.9256}
    .fil0 {fill:none}
   ]]>
  </style>
 </defs>
 <g id="Layer_x0020_1">
  <metadata id="CorelCorpID_0Corel-Layer"/>
  <g id="_2272440078336">
   <path class="fil0 str0" d="M159.69 2622.82l2995.13 0c59.69,0 108.36,48.68 108.36,108.37l0 855.49c0,59.69 -48.67,108.36 -108.36,108.36l-2995.13 0c-59.69,0 -108.37,-48.67 -108.37,-108.36l0 -855.49c0,-59.69 48.68,-108.37 108.37,-108.37z"/>
   <path class="fil0 str0" d="M547.4 1706.08l2219.69 0c59.69,0 108.36,48.67 108.36,108.36l0 801.11 -2436.41 0 0 -801.11c0,-59.69 48.67,-108.36 108.36,-108.36z"/>
   <path class="fil0 str0" d="M1621.12 844.47l72.24 0c59.69,0 108.37,48.67 108.37,108.36l0 753.25 -288.97 0 0 -753.25c0,-59.69 48.68,-108.36 108.37,-108.36z"/>
   <path class="fil0 str0" d="M1786 392.33c12.7,29.22 19.98,63.31 19.98,99.67 0,108.79 -65.14,196.95 -145.49,196.95 -80.36,0 -145.5,-88.16 -145.5,-196.95 0,-36.37 7.29,-70.45 19.98,-99.67 46.24,-106.43 79.85,-203.03 110.39,-317.51 8.21,-31 21.91,-31.37 29.94,-1.21 30.6,115.04 64.31,211.92 110.7,318.72z"/>
   <line class="fil0 str0" x1="51.32" y1="3158.93" x2="3263.17" y2= "3158.93" />
   <path class="fil0 str0" d="M479.01 2236.77c281.34,0 315.48,-256.65 596.82,-256.65 281.34,0 315.48,256.65 596.82,256.65 281.34,0 315.48,-256.65 596.82,-256.65 281.34,0 315.48,256.65 596.82,256.65"/>
  </g>
 </g>
</svg>
