<?xml version="1.0" encoding="UTF-8"?>
<!DOCTYPE svg PUBLIC "-//W3C//DTD SVG 1.1//EN" "http://www.w3.org/Graphics/SVG/1.1/DTD/svg11.dtd">
<!-- Creator: CorelDRAW 2021.5 -->
<svg xmlns="http://www.w3.org/2000/svg" xml:space="preserve" width="18.4943mm" height="47.7008mm" version="1.1" style="shape-rendering:geometricPrecision; text-rendering:geometricPrecision; image-rendering:optimizeQuality; fill-rule:evenodd; clip-rule:evenodd"
viewBox="0 0 470.15 1212.62"
 xmlns:xlink="http://www.w3.org/1999/xlink"
 xmlns:xodm="http://www.corel.com/coreldraw/odm/2003">
 <defs>
  <style type="text/css">
   <![CDATA[
    .str0 {stroke:#008DD2;stroke-width:25.42;stroke-miterlimit:22.9256}
    .fil0 {fill:none}
   ]]>
  </style>
 </defs>
 <g id="Layer_x0020_1">
  <metadata id="CorelCorpID_0Corel-Layer"/>
  <g id="_2272247690256">
   <ellipse class="fil0 str0" cx="235.08" cy="305.13" rx="222.36" ry="292.42"/>
   <path class="fil0 str0" d="M220.12 598.02l29.92 0c3.75,0 5.65,3.28 6.82,6.82l13.56 41.37c1.17,3.55 -3.08,6.82 -6.82,6.82l-57.05 0c-3.74,0 -7.99,-3.25 -6.82,-6.82l13.56 -41.37c1.17,-3.57 3.06,-6.82 6.82,-6.82z"/>
   <path class="fil0 str0" d="M232.22 1207.6c19.92,-46.32 59.75,-73.44 59.75,-138.94 0,-65.5 -59.75,-73.44 -59.75,-138.94 0,-65.5 59.75,-73.44 59.75,-138.94 0,-65.5 -59.75,-73.44 -59.75,-138.94"/>
  </g>
 </g>
</svg>
