<?xml version="1.0" encoding="UTF-8"?>
<!DOCTYPE svg PUBLIC "-//W3C//DTD SVG 1.1//EN" "http://www.w3.org/Graphics/SVG/1.1/DTD/svg11.dtd">
<!-- Creator: CorelDRAW 2020 (64-Bit) -->
<svg xmlns="http://www.w3.org/2000/svg" xml:space="preserve" width="107px" height="108px" version="1.1" style="shape-rendering:geometricPrecision; text-rendering:geometricPrecision; image-rendering:optimizeQuality; fill-rule:evenodd; clip-rule:evenodd"
viewBox="0 0 27.29 27.47"
 xmlns:xlink="http://www.w3.org/1999/xlink"
 xmlns:xodm="http://www.corel.com/coreldraw/odm/2003">
 <defs>
  <style type="text/css">
   <![CDATA[
    .fil4 {fill:none}
    .fil1 {fill:black}
    .fil0 {fill:#E8ACAC}
    .fil2 {fill:#E8ACAC}
    .fil3 {fill:#E8ACAC;fill-rule:nonzero}
   ]]>
  </style>
 </defs>
 <g id="Layer_x0020_1">
  <metadata id="CorelCorpID_0Corel-Layer"/>
  <g id="_1985273890960">
   <g>
    <ellipse class="fil0" cx="13.64" cy="7.84" rx="5.74" ry="7.83"/>
    <path class="fil1" d="M12.68 2.29l0 0c0.43,0.22 0.44,0.71 -0.09,0.92 -0.44,0.18 -1.12,0.25 -1.66,1.32 -0.55,1.07 -0.29,1.45 -0.16,2.1 0.11,0.54 -0.27,0.84 -0.69,0.62l0 0c-0.46,-0.24 -0.99,-1.42 -0.09,-3.22 0.9,-1.81 2.24,-1.98 2.69,-1.74z"/>
    <path class="fil2" d="M13.77 14.53c-0.61,0 -0.72,0.98 -1.08,1.47 -0.36,0.48 -1.48,0.92 -1.08,1.46 0.39,0.53 1.44,0 2.16,0 0.72,0 1.76,0.53 2.16,0 0.39,-0.54 -0.72,-0.98 -1.08,-1.46 -0.36,-0.49 -0.48,-1.47 -1.08,-1.47z"/>
    <g>
     <path class="fil3" d="M14.26 18.56l-0.69 0.21 0 0 -0.04 -0.15 -0.04 -0.14 -0.03 -0.15 -0.03 -0.15 -0.03 -0.14 -0.02 -0.15 -0.02 -0.14 -0.02 -0.15 -0.01 -0.14 -0.01 -0.14 -0.01 -0.14 -0.01 -0.13 0 -0.14 0 -0.13 0 -0.13 0 -0.12 0 -0.13 0.01 -0.12 0 -0.12 0.01 -0.11 0 -0.11 0.01 -0.11 0.01 -0.1 0 -0.1 0.01 -0.1 0.01 -0.09 0 -0.08 0.01 -0.08 0 -0.07 0 -0.07 0.01 -0.06 0 -0.06 0.72 0 0 0.07 0 0.08 -0.01 0.07 0 0.08 -0.01 0.09 0 0.08 -0.01 0.09 0 0.1 -0.01 0.1 -0.01 0.1 0 0.1 -0.01 0.11 0 0.1 -0.01 0.12 0 0.11 -0.01 0.12 0 0.12 0 0.12 0.01 0.12 0 0.12 0 0.13 0.01 0.12 0.01 0.13 0.01 0.13 0.02 0.13 0.02 0.13 0.01 0.13 0.03 0.13 0.02 0.13 0.03 0.12 0.04 0.13 0.03 0.13 0 0zm-0.65 4.11l-0.48 0.55 0 0 -0.14 -0.14 -0.12 -0.15 -0.11 -0.15 -0.07 -0.16 -0.06 -0.17 -0.04 -0.17 -0.01 -0.16 0 -0.17 0.02 -0.16 0.03 -0.16 0.03 -0.16 0.05 -0.15 0.06 -0.15 0.06 -0.15 0.06 -0.15 0.07 -0.15 0.07 -0.14 0.07 -0.15 0.07 -0.14 0.07 -0.14 0.07 -0.13 0.06 -0.14 0.05 -0.13 0.05 -0.13 0.04 -0.12 0.04 -0.12 0.03 -0.12 0.01 -0.11 0.01 -0.1 0 -0.1 -0.01 -0.09 -0.02 -0.09 0.69 -0.21 0.04 0.17 0.02 0.17 0.01 0.17 -0.02 0.17 -0.02 0.16 -0.04 0.16 -0.04 0.16 -0.06 0.15 -0.06 0.15 -0.06 0.15 -0.07 0.15 -0.07 0.15 -0.07 0.14 -0.07 0.14 -0.07 0.14 -0.06 0.14 -0.07 0.14 -0.05 0.13 -0.06 0.13 -0.04 0.12 -0.04 0.12 -0.03 0.11 -0.02 0.11 -0.01 0.1 0 0.1 0.01 0.08 0.02 0.09 0.03 0.08 0.04 0.08 0.05 0.08 0.07 0.09 0.09 0.08 0 0zm0 2.52l-0.31 0.66 0 0 -0.18 -0.09 -0.15 -0.09 -0.14 -0.1 -0.11 -0.1 -0.1 -0.12 -0.07 -0.15 -0.03 -0.17 0.02 -0.16 0.06 -0.13 0.07 -0.11 0.07 -0.09 0.08 -0.08 0.09 -0.07 0.08 -0.06 0.08 -0.06 0.08 -0.07 0.08 -0.05 0.07 -0.06 0.06 -0.06 0.06 -0.05 0.04 -0.05 0.03 -0.05 0.02 -0.04 0.01 -0.03 0.01 -0.03 -0.01 -0.04 -0.01 -0.04 -0.02 -0.07 -0.05 -0.08 -0.07 -0.09 -0.11 -0.12 -0.13 -0.12 0.48 -0.55 0.17 0.16 0.14 0.16 0.12 0.16 0.1 0.16 0.06 0.17 0.04 0.16 0.01 0.17 -0.02 0.16 -0.05 0.15 -0.06 0.13 -0.08 0.11 -0.09 0.1 -0.09 0.1 -0.09 0.08 -0.09 0.07 -0.09 0.07 -0.08 0.06 -0.08 0.06 -0.07 0.06 -0.05 0.04 -0.04 0.04 -0.03 0.03 0 0.01 0 -0.02 0.01 -0.04 -0.01 -0.04 -0.01 -0.02 0.01 0.01 0.04 0.04 0.07 0.05 0.11 0.06 0.15 0.07 0 0zm0.25 2.28l-0.62 -0.38 0.09 -0.13 0.07 -0.12 0.07 -0.12 0.06 -0.1 0.06 -0.1 0.05 -0.08 0.04 -0.08 0.04 -0.07 0.03 -0.06 0.02 -0.06 0.02 -0.04 0.01 -0.04 0.01 -0.02 0 -0.02 0 0 0 0.01 0 0.01 0.01 0.02 0.01 0.01 0 0.01 0 0 -0.01 -0.01 -0.01 -0.01 -0.03 -0.01 -0.04 -0.02 -0.04 -0.03 -0.05 -0.02 -0.06 -0.03 -0.06 -0.03 -0.07 -0.03 -0.08 -0.03 -0.08 -0.04 0.31 -0.66 0.08 0.04 0.07 0.03 0.07 0.03 0.07 0.03 0.06 0.03 0.07 0.04 0.06 0.03 0.06 0.03 0.06 0.04 0.06 0.04 0.05 0.05 0.06 0.06 0.05 0.06 0.04 0.08 0.04 0.09 0.02 0.09 0 0.09 0 0.08 -0.02 0.08 -0.02 0.08 -0.02 0.08 -0.03 0.08 -0.04 0.08 -0.04 0.08 -0.04 0.09 -0.05 0.09 -0.06 0.1 -0.06 0.1 -0.06 0.11 -0.07 0.11 -0.08 0.13 -0.08 0.13z"/>
    </g>
   </g>
   <rect class="fil4" width="27.29" height="27.29"/>
  </g>
 </g>
</svg>
