<?xml version="1.0" encoding="UTF-8"?>
<!DOCTYPE svg PUBLIC "-//W3C//DTD SVG 1.1//EN" "http://www.w3.org/Graphics/SVG/1.1/DTD/svg11.dtd">
<!-- Creator: CorelDRAW 2021.5 -->
<svg xmlns="http://www.w3.org/2000/svg" xml:space="preserve" width="42.6875mm" height="42.0725mm" version="1.1" style="shape-rendering:geometricPrecision; text-rendering:geometricPrecision; image-rendering:optimizeQuality; fill-rule:evenodd; clip-rule:evenodd"
viewBox="0 0 995.96 981.61"
 xmlns:xlink="http://www.w3.org/1999/xlink"
 xmlns:xodm="http://www.corel.com/coreldraw/odm/2003">
 <defs>
  <style type="text/css">
   <![CDATA[
    .str0 {stroke:#C5A109;stroke-width:23.33;stroke-miterlimit:22.9256}
    .fil0 {fill:none}
   ]]>
  </style>
 </defs>
 <g id="Layer_x0020_1">
  <metadata id="CorelCorpID_0Corel-Layer"/>
  <path class="fil0 str0" d="M511.53 22.16l62.25 241.08c1.19,4.61 4.3,8.03 8.77,9.65 4.47,1.63 9.05,1 12.92,-1.76l202.65 -144.66c5.27,-3.76 12.17,-3.49 17.13,0.67 4.96,4.16 6.43,10.92 3.64,16.76l-107.28 224.69c-2.05,4.29 -1.87,8.91 0.51,13.03 2.38,4.12 6.29,6.59 11.03,6.96l248.22 19.44c6.45,0.5 11.57,5.15 12.69,11.53 1.12,6.37 -2.1,12.49 -7.99,15.17l-226.6 103.17c-4.33,1.97 -7.16,5.63 -7.99,10.31 -0.83,4.68 0.58,9.09 3.98,12.42l177.65 174.45c4.62,4.53 5.55,11.38 2.32,16.99 -3.23,5.6 -9.64,8.22 -15.87,6.49l-239.91 -66.63c-4.58,-1.27 -9.1,-0.29 -12.74,2.76 -3.64,3.06 -5.39,7.34 -4.93,12.07l23.95 247.83c0.62,6.44 -3.07,12.29 -9.15,14.5 -6.08,2.21 -12.66,0.1 -16.32,-5.23l-140.95 -205.25c-2.69,-3.92 -6.78,-6.07 -11.54,-6.07 -4.76,0 -8.85,2.15 -11.54,6.07l-140.95 205.25c-3.66,5.33 -10.24,7.44 -16.32,5.23 -6.08,-2.21 -9.77,-8.06 -9.15,-14.5l23.95 -247.83c0.46,-4.73 -1.29,-9.01 -4.93,-12.07 -3.64,-3.06 -8.16,-4.04 -12.74,-2.76l-239.91 66.63c-6.23,1.73 -12.64,-0.89 -15.87,-6.49 -3.23,-5.6 -2.3,-12.45 2.32,-16.99l177.65 -174.45c3.39,-3.33 4.8,-7.73 3.98,-12.42 -0.83,-4.68 -3.66,-8.34 -7.99,-10.31l-226.6 -103.17c-5.89,-2.68 -9.11,-8.8 -7.99,-15.17 1.12,-6.37 6.24,-11.02 12.69,-11.53l248.22 -19.44c4.74,-0.37 8.65,-2.84 11.03,-6.96 2.38,-4.12 2.56,-8.74 0.51,-13.03l-107.28 -224.69c-2.79,-5.84 -1.32,-12.6 3.64,-16.76 4.96,-4.16 11.87,-4.43 17.13,-0.67l202.65 144.66c3.87,2.76 8.45,3.39 12.92,1.76 4.47,-1.63 7.58,-5.05 8.77,-9.65l62.25 -241.08c1.62,-6.26 7.08,-10.5 13.55,-10.5 6.47,0 11.94,4.23 13.55,10.5z"/>
 </g>
</svg>
