<?xml version="1.0" encoding="UTF-8"?>
<!DOCTYPE svg PUBLIC "-//W3C//DTD SVG 1.1//EN" "http://www.w3.org/Graphics/SVG/1.1/DTD/svg11.dtd">
<!-- Creator: CorelDRAW 2021.5 -->
<svg xmlns="http://www.w3.org/2000/svg" xml:space="preserve" width="35.9481mm" height="40.6889mm" version="1.1" style="shape-rendering:geometricPrecision; text-rendering:geometricPrecision; image-rendering:optimizeQuality; fill-rule:evenodd; clip-rule:evenodd"
viewBox="0 0 22823.49 25833.43"
 xmlns:xlink="http://www.w3.org/1999/xlink"
 xmlns:xodm="http://www.corel.com/coreldraw/odm/2003">
 <defs>
  <style type="text/css">
   <![CDATA[
    .str0 {stroke:#66C3D0;stroke-width:634.9;stroke-miterlimit:22.9256}
    .fil0 {fill:none}
   ]]>
  </style>
 </defs>
 <g id="Layer_x0020_1">
  <metadata id="CorelCorpID_0Corel-Layer"/>
  <path class="fil0 str0" d="M11274.83 317.45l273.9 0c474.14,0 862.07,387.92 862.07,862.07l0 1458.3c0,110.03 54.6,204.5 149.9,259.61 95.36,55.11 204.57,55.11 299.86,0l1034.83 -597.38c376.5,-217.45 862.07,-87.24 1079.52,289.26 217.26,376.5 87.24,862.07 -289.26,1079.33l-2124.95 1226.95c-95.3,55.11 -149.9,149.58 -149.9,259.67l0 1177.49c0,110.16 54.6,204.69 149.9,259.8 95.36,54.92 204.57,54.92 299.86,0l418.08 -241.45c274.34,-158.41 628.17,-63.55 786.58,210.85 158.34,274.34 63.55,628.17 -210.72,786.58l-1293.8 747.02c-95.3,55.11 -149.9,149.58 -149.9,259.61l0 2311.93c0,110.03 54.6,204.57 149.9,259.67 95.36,54.92 204.57,54.92 299.86,0l2002.16 -1155.96c95.3,-55.11 149.9,-149.58 149.9,-259.67l0 -1494.05c0,-316.75 258.98,-575.73 575.73,-575.73l0.19 0c316.75,0 575.73,258.98 575.73,575.73l0 482.91c0,110.03 54.6,204.57 149.96,259.67 95.3,54.92 204.57,54.92 299.86,0l1019.78 -588.81c95.3,-55.11 149.9,-149.65 149.9,-259.67l0 -2453.77c0,-434.72 355.48,-790.2 790.26,-790.2 434.72,0 790.2,355.48 790.2,790.2l0 1195.01c0,110.22 54.6,204.76 149.9,259.87 95.36,54.92 204.57,54.92 299.93,0l1263.01 -729.31c410.59,-237.2 940.48,-95.17 1177.49,315.42l137.01 237.33c236.95,410.53 94.98,940.48 -315.61,1177.42l-1262.88 729.18c-95.3,54.92 -149.9,149.58 -149.9,259.61 0,110.09 54.6,204.57 149.9,259.67l1034.83 597.57c376.5,217.52 506.59,703.03 289.32,1079.52 -217.45,376.5 -703.03,506.59 -1079.52,289.26l-2124.89 -1226.95c-95.36,-55.11 -204.57,-54.92 -299.93,0l-1019.91 588.81c-95.3,55.11 -149.9,149.65 -149.9,259.67 0,110.09 54.6,204.57 149.9,259.67l418.21 241.45c274.4,158.34 369.07,512.17 210.66,786.58 -158.34,274.4 -512.17,369.19 -786.58,210.85l-1293.8 -747.02c-95.3,-55.11 -204.57,-55.11 -299.86,0l-2002.1 1155.9c-95.36,55.11 -149.96,149.65 -149.96,259.67 0,110.09 54.6,204.57 149.96,259.67l2002.22 1156.09c95.36,54.98 204.57,55.11 299.93,0l1293.61 -747.02c274.4,-158.34 628.23,-63.55 786.58,210.66l0 0.19c158.41,274.4 63.55,628.23 -210.66,786.58l-418.02 241.45c-95.36,55.11 -149.96,149.58 -149.96,259.67 0,110.03 54.6,204.57 149.96,259.67l1019.71 588.81c95.36,54.92 204.57,55.11 299.93,0l2124.89 -1226.95c376.5,-217.33 862.07,-87.24 1079.52,289.26 217.26,376.5 87.17,862.01 -289.32,1079.46l-1034.83 597.44c-95.3,55.11 -149.9,149.65 -149.9,259.67 0,110.03 54.6,204.57 149.9,259.67l1262.88 729.12c410.59,237.14 552.55,767.09 315.61,1177.61l-137.01 237.2c-237.01,410.72 -766.9,552.55 -1177.49,315.55l-1263.01 -729.31c-95.36,-55.11 -204.57,-54.92 -299.93,0 -95.3,55.11 -149.9,149.65 -149.9,259.87l0 1195.01c0,434.72 -355.48,790.2 -790.2,790.2 -434.78,0 -790.26,-355.48 -790.26,-790.2l0 -2453.77c0,-110.03 -54.6,-204.57 -149.9,-259.67l-1019.78 -588.81c-95.3,-54.92 -204.57,-54.92 -299.86,0 -95.36,55.11 -149.96,149.65 -149.96,259.67l0 482.91c0,316.75 -258.98,575.73 -575.73,575.73l-0.19 0c-316.75,0 -575.73,-258.98 -575.73,-575.73l0 -1494.05c0,-110.09 -54.6,-204.57 -149.9,-259.67l-2002.16 -1155.96c-95.3,-54.92 -204.5,-54.92 -299.86,0 -95.3,55.11 -149.9,149.65 -149.9,259.67l0 2311.93c0,110.03 54.6,204.5 149.9,259.61l1293.8 747.02c274.28,158.41 369.07,512.24 210.72,786.58l0 0.19c-158.41,274.21 -512.24,369.07 -786.58,210.66l-418.08 -241.45c-95.3,-54.92 -204.5,-54.92 -299.86,0 -95.3,55.11 -149.9,149.65 -149.9,259.8l0 1177.49c0,110.09 54.6,204.57 149.9,259.67l2124.95 1226.95c376.5,217.26 506.52,702.84 289.26,1079.52 -217.45,376.5 -703.03,506.52 -1079.52,289.07l-1034.83 -597.38c-95.3,-55.11 -204.5,-55.11 -299.86,0 -95.3,55.11 -149.9,149.58 -149.9,259.61l0 1458.3c0,474.14 -387.92,862.07 -862.07,862.07l-273.9 0c-474.14,0 -862.01,-387.92 -862.01,-862.07l0 -1458.3c0,-110.03 -54.66,-204.5 -149.96,-259.61 -95.3,-55.11 -204.57,-55.11 -299.86,0l-1034.83 597.38c-376.5,217.45 -862.2,87.43 -1079.46,-289.07 -217.52,-376.69 -87.24,-862.26 289.26,-1079.52l2124.89 -1226.95c95.3,-55.11 149.96,-149.58 149.96,-259.67l0 -1177.49c0,-110.16 -54.66,-204.69 -149.96,-259.8 -95.3,-54.92 -204.57,-54.92 -299.86,0l-418.02 241.45c-274.4,158.41 -628.23,63.55 -786.58,-210.66l0 -0.19c-158.41,-274.34 -63.74,-628.17 210.66,-786.58l1293.8 -747.02c95.3,-55.11 149.96,-149.58 149.96,-259.61l0 -2311.93c0,-110.03 -54.66,-204.57 -149.96,-259.67 -95.3,-54.92 -204.57,-55.11 -299.86,0l-2002.1 1155.96c-95.36,55.11 -149.96,149.58 -149.96,259.67l0 1494.05c0,316.75 -258.98,575.73 -575.73,575.73l-0.19 0c-316.75,0 -575.73,-258.98 -575.73,-575.73l0 -482.91c0,-110.03 -54.6,-204.57 -149.9,-259.67 -95.36,-55.11 -204.57,-55.11 -299.93,0l-1019.91 588.81c-95.3,55.11 -149.9,149.65 -149.9,259.67l0 2453.77c0,434.72 -355.48,790.2 -790.26,790.2 -434.72,0 -790.2,-355.48 -790.2,-790.2l0 -1195.01c0,-110.09 -54.6,-204.57 -149.96,-259.67 -95.3,-54.92 -204.5,-54.92 -299.86,0l-1262.82 729.12c-410.59,237.01 -940.54,95.04 -1177.68,-315.55l-136.82 -237.2c-237.2,-410.53 -95.17,-940.48 315.55,-1177.61l1262.88 -729.12c95.3,-55.11 149.96,-149.65 149.96,-259.67 0,-110.03 -54.66,-204.69 -149.96,-259.67l-1034.83 -597.44c-376.5,-217.45 -506.71,-702.96 -289.26,-1079.46 217.26,-376.5 703.03,-506.59 1079.52,-289.26l2124.89 1226.95c95.3,55.11 204.57,55.11 299.86,0l1019.78 -588.81c95.3,-54.98 149.9,-149.65 149.9,-259.67 0,-110.09 -54.6,-204.57 -149.9,-259.67l-418.08 -241.45c-274.34,-158.34 -434.72,-562.52 -210.79,-786.58l0.13 -0.19c223.93,-223.87 512.24,-369 786.45,-210.66l1293.8 747.02c95.3,55.11 204.57,55.11 299.86,0l2002.1 -1155.9c95.36,-54.98 149.96,-149.65 149.96,-259.67 0,-110.09 -54.6,-204.57 -149.96,-259.67l-2002.1 -1156.09c-95.3,-55.11 -204.57,-55.11 -299.86,0l-1293.8 747.02c-274.21,158.34 -562.52,13.21 -786.45,-210.72l-0.13 -0.13c-223.93,-224.06 -63.55,-628.23 210.79,-786.58l418.08 -241.45c95.3,-55.11 149.9,-149.58 149.9,-259.67 0,-110.03 -54.6,-204.57 -149.9,-259.67l-1019.78 -588.81c-95.3,-54.92 -204.57,-54.92 -299.86,0l-2124.89 1226.95c-376.69,217.33 -862.26,87.24 -1079.52,-289.26 -217.45,-376.5 -87.36,-862.01 289.26,-1079.52l1034.83 -597.38c95.3,-55.11 149.96,-149.65 149.96,-259.67 0,-110.22 -54.66,-204.69 -149.96,-259.67l-1263.01 -729.31c-410.59,-236.95 -552.62,-766.9 -315.42,-1177.42l136.82 -237.33c237.14,-410.59 767.09,-552.62 1177.68,-315.42l1262.82 729.12c95.36,54.92 204.57,54.92 299.86,0 95.36,-55.11 149.96,-149.58 149.96,-259.67l0 -1195.01c0,-434.72 355.48,-790.2 790.2,-790.2 434.78,0 790.26,355.48 790.26,790.2l0 2453.77c0,110.03 54.6,204.69 149.9,259.67l1019.91 588.81c95.36,55.11 204.57,55.11 299.93,0 95.3,-55.11 149.9,-149.65 149.9,-259.67l0 -482.91c0,-316.75 258.98,-575.73 575.73,-575.73l0.19 0c316.75,0 575.73,258.98 575.73,575.73l0 1494.05c0,110.09 54.6,204.57 149.96,259.67l2002.1 1155.96c95.3,54.92 204.57,54.92 299.86,0 95.3,-55.11 149.96,-149.65 149.96,-259.67l0 -2311.93c0,-110.03 -54.66,-204.5 -149.96,-259.61l-1293.8 -747.02c-274.4,-158.41 -369.07,-512.24 -210.66,-786.58 158.34,-274.4 512.17,-369.26 786.58,-210.85l418.02 241.45c95.3,54.92 204.57,54.92 299.86,0 95.3,-55.11 149.96,-149.65 149.96,-259.8l0 -1177.49c0,-110.09 -54.66,-204.57 -149.96,-259.67l-2124.89 -1226.95c-376.5,-217.26 -506.78,-702.84 -289.26,-1079.33 217.26,-376.5 702.96,-506.71 1079.46,-289.26l1034.83 597.38c95.3,55.11 204.57,55.11 299.86,0 95.3,-55.11 149.96,-149.58 149.96,-259.61l0 -1458.3c0,-474.14 387.86,-862.07 862.01,-862.07z"/>
 </g>
</svg>
