<?xml version="1.0" encoding="UTF-8"?>
<!DOCTYPE svg PUBLIC "-//W3C//DTD SVG 1.1//EN" "http://www.w3.org/Graphics/SVG/1.1/DTD/svg11.dtd">
<!-- Creator: CorelDRAW 2021.5 -->
<svg xmlns="http://www.w3.org/2000/svg" xml:space="preserve" width="25.3579mm" height="37.3514mm" version="1.1" style="shape-rendering:geometricPrecision; text-rendering:geometricPrecision; image-rendering:optimizeQuality; fill-rule:evenodd; clip-rule:evenodd"
viewBox="0 0 642.12 945.82"
 xmlns:xlink="http://www.w3.org/1999/xlink"
 xmlns:xodm="http://www.corel.com/coreldraw/odm/2003">
 <defs>
  <style type="text/css">
   <![CDATA[
    .str0 {stroke:#0B7F40;stroke-width:25.32;stroke-miterlimit:22.9256}
    .fil0 {fill:none}
   ]]>
  </style>
 </defs>
 <g id="Layer_x0020_1">
  <metadata id="CorelCorpID_0Corel-Layer"/>
  <path class="fil0 str0" d="M310.78 17.97l-96.43 135.89 -92.6 130.48c-2.8,3.94 -3.14,8.78 -0.92,13.08 2.22,4.29 6.36,6.82 11.2,6.82l61.06 0c4.83,0 8.98,2.53 11.2,6.82 2.22,4.29 1.88,9.14 -0.92,13.08l-21.04 29.64 -124.61 175.59c-2.8,3.94 -3.14,8.78 -0.92,13.08 2.22,4.29 6.36,6.82 11.2,6.82l86.93 0c4.83,0 8.98,2.53 11.2,6.82 2.22,4.29 1.88,9.14 -0.92,13.08l-150.18 211.61c-2.8,3.94 -3.14,8.78 -0.92,13.08 2.22,4.29 6.36,6.82 11.2,6.82l295.75 0 295.75 0c4.83,0 8.98,-2.52 11.2,-6.82 2.22,-4.3 1.88,-9.14 -0.92,-13.08l-150.17 -211.61c-2.8,-3.94 -3.14,-8.78 -0.92,-13.08 2.22,-4.3 6.36,-6.82 11.2,-6.82l86.93 0c4.83,0 8.98,-2.52 11.2,-6.82 2.22,-4.29 1.88,-9.14 -0.92,-13.08l-124.61 -175.59 -21.04 -29.64c-2.8,-3.94 -3.14,-8.78 -0.92,-13.08 2.22,-4.29 6.36,-6.82 11.2,-6.82l61.05 0c4.83,0 8.98,-2.52 11.2,-6.82 2.22,-4.29 1.88,-9.14 -0.92,-13.08l-92.6 -130.48 -96.43 -135.89c-2.44,-3.44 -6.07,-5.31 -10.28,-5.31 -4.21,0 -7.84,1.87 -10.28,5.31z"/>
  <path class="fil0 str0" d="M407.27 800.42l0 99.82c0,18.11 -14.81,32.92 -32.92,32.92l-106.59 0c-18.11,0 -32.92,-14.81 -32.92,-32.92l0 -99.82 172.43 0z"/>
 </g>
</svg>
