<?xml version="1.0" encoding="UTF-8"?>
<!DOCTYPE svg PUBLIC "-//W3C//DTD SVG 1.1//EN" "http://www.w3.org/Graphics/SVG/1.1/DTD/svg11.dtd">
<!-- Creator: CorelDRAW 2021.5 -->
<svg xmlns="http://www.w3.org/2000/svg" xml:space="preserve" width="35.2088mm" height="31.8541mm" version="1.1" style="shape-rendering:geometricPrecision; text-rendering:geometricPrecision; image-rendering:optimizeQuality; fill-rule:evenodd; clip-rule:evenodd"
viewBox="0 0 5770.47 5220.66"
 xmlns:xlink="http://www.w3.org/1999/xlink"
 xmlns:xodm="http://www.corel.com/coreldraw/odm/2003">
 <defs>
  <style type="text/css">
   <![CDATA[
    .str0 {stroke:#6152BA;stroke-width:163.89;stroke-miterlimit:22.9256}
    .str1 {stroke:#6152BA;stroke-width:196.67;stroke-miterlimit:22.9256}
    .fil0 {fill:none}
   ]]>
  </style>
 </defs>
 <g id="Layer_x0020_1">
  <metadata id="CorelCorpID_0Corel-Layer"/>
  <path class="fil0 str0" d="M2841.66 1005.2c-170.04,-941.7 -1341.55,-1181.5 -2049.19,-634.99 -2145.56,1657.02 1151.02,4615.57 2092.77,4767.45 941.73,-151.88 4238.32,-3110.41 2092.75,-4767.45 -704.97,-544.45 -1893.57,-304.19 -2071.98,628.92 -22.54,117.82 -40.1,140.51 -64.34,6.06z"/>
  <g id="_2272326349968">
   <path class="fil0 str0" d="M1601.64 1486.8c-406.16,232.79 -262.62,769.74 102.35,961.31 134.88,70.82 292.42,124.03 447.48,159.65 157.71,36.25 312.94,52.95 439.25,54.18 120.95,1.18 -112.77,-63.72 -56.89,-330.46 48.94,-233.5 220.09,-179.15 190.71,-250.81 -177.64,-433.3 -674.42,-850.92 -1122.9,-593.88z"/>
   <path class="fil0 str0" d="M4168.83 1486.8c406.16,232.79 262.62,769.74 -102.35,961.31 -134.88,70.82 -292.42,124.03 -447.48,159.65 -157.71,36.25 -312.94,52.95 -439.25,54.18 -120.95,1.18 112.77,-63.72 56.89,-330.46 -48.94,-233.5 -220.09,-179.15 -190.71,-250.81 177.64,-433.3 674.42,-850.92 1122.9,-593.88z"/>
   <circle class="fil0 str1" cx="2888.47" cy="2422.97" r="356.91"/>
   <path class="fil0 str0" d="M1810.76 3374.51l546.3 494.47c28.81,26.09 66.25,34.48 103.43,23.21 37.2,-11.26 63.67,-39.01 73.18,-76.7l253.25 -1004.7c7.49,-29.78 -165.15,-140.36 -182.36,-142.03l-295.15 -28.6c-46.89,-4.54 -80.08,27.11 -108.56,64.56l-416.68 547.34c-28.24,37.11 -8.11,91.06 26.6,122.46z"/>
   <path class="fil0 str0" d="M3959.72 3374.51l-546.3 494.47c-28.81,26.09 -66.25,34.48 -103.43,23.21 -37.2,-11.26 -63.67,-39.01 -73.18,-76.7l-253.25 -1004.7c-7.49,-29.78 165.15,-140.36 182.36,-142.03l295.15 -28.6c46.89,-4.54 80.08,27.11 108.56,64.56l416.68 547.34c28.24,37.11 8.11,91.06 -26.6,122.46z"/>
  </g>
  <g id="_2272326349920">
   <path class="fil0 str0" d="M2208.85 183.67l0 1291.53m-0.05 2266.41l0.05 1087.87"/>
   <path class="fil0 str0" d="M3561.67 183.67l0 1291.53m-0.05 2266.41l0.05 1087.87"/>
  </g>
 </g>
</svg>
