<?xml version="1.0" encoding="UTF-8"?>
<!DOCTYPE svg PUBLIC "-//W3C//DTD SVG 1.1//EN" "http://www.w3.org/Graphics/SVG/1.1/DTD/svg11.dtd">
<!-- Creator: CorelDRAW 2021.5 -->
<svg xmlns="http://www.w3.org/2000/svg" xml:space="preserve" width="40.1472mm" height="32.8168mm" version="1.1" style="shape-rendering:geometricPrecision; text-rendering:geometricPrecision; image-rendering:optimizeQuality; fill-rule:evenodd; clip-rule:evenodd"
viewBox="0 0 1397.22 1142.11"
 xmlns:xlink="http://www.w3.org/1999/xlink"
 xmlns:xodm="http://www.corel.com/coreldraw/odm/2003">
 <defs>
  <style type="text/css">
   <![CDATA[
    .str0 {stroke:#E31E24;stroke-width:34.8;stroke-miterlimit:22.9256}
    .fil0 {fill:none}
    .fil1 {fill:#E31E24}
   ]]>
  </style>
 </defs>
 <g id="Layer_x0020_1">
  <metadata id="CorelCorpID_0Corel-Layer"/>
  <g id="_2272440091008">
   <path class="fil0 str0" d="M523.88 17.4c273.8,0 495.75,247.88 495.75,553.65 0,305.77 -221.96,553.65 -495.75,553.65 -7.28,0 -14.5,-0.21 -21.71,-0.56l0 -1106.19c7.21,-0.34 14.43,-0.56 21.71,-0.56z"/>
   <line class="fil0 str0" x1="245.8" y1="596.38" x2="1379.7" y2= "581.91" />
   <path class="fil1" d="M1258.49 444.97c8.16,-7.14 20.65,-6.3 27.77,1.85l106.12 121.31c3.51,4.01 5.09,9.09 4.81,14.05 0.28,4.96 -1.3,10.03 -4.81,14.05l-106.12 121.31c-7.12,8.14 -19.61,8.99 -27.77,1.85 -8.14,-7.12 -8.97,-19.61 -1.84,-27.75l95.75 -109.46 -95.75 -109.46c-7.12,-8.14 -6.3,-20.63 1.84,-27.75z"/>
   <path class="fil0 str0" d="M60.42 594.86c-43.88,7.92 -55.06,62.52 -29.59,95.49 77.22,99.98 215.09,-53.64 222.17,-97.52 -7.08,-43.89 -144.95,-197.5 -222.17,-97.52 -25.37,32.85 -14.18,88.24 29.31,96.56 5.49,1.05 6.55,1.87 0.29,3z"/>
  </g>
 </g>
</svg>
