<?xml version="1.0" encoding="UTF-8"?>
<!DOCTYPE svg PUBLIC "-//W3C//DTD SVG 1.1//EN" "http://www.w3.org/Graphics/SVG/1.1/DTD/svg11.dtd">
<!-- Creator: CorelDRAW 2021.5 -->
<svg xmlns="http://www.w3.org/2000/svg" xml:space="preserve" width="18.5498mm" height="27.1134mm" version="1.1" style="shape-rendering:geometricPrecision; text-rendering:geometricPrecision; image-rendering:optimizeQuality; fill-rule:evenodd; clip-rule:evenodd"
viewBox="0 0 470.13 687.16"
 xmlns:xlink="http://www.w3.org/1999/xlink"
 xmlns:xodm="http://www.corel.com/coreldraw/odm/2003">
 <defs>
  <style type="text/css">
   <![CDATA[
    .str0 {stroke:#E4B90D;stroke-width:25.34;stroke-miterlimit:22.9256}
    .fil0 {fill:none}
   ]]>
  </style>
 </defs>
 <g id="Layer_x0020_1">
  <metadata id="CorelCorpID_0Corel-Layer"/>
  <path class="fil0 str0" d="M308.11 242c86.94,30.22 149.35,112.86 149.35,210.1 0,122.83 -99.57,222.39 -222.39,222.39 -122.83,0 -222.39,-99.57 -222.39,-222.39 0,-97.24 62.41,-179.88 149.35,-210.1 -88.14,-30.6 -150.23,-114.97 -149.34,-212.1 0.09,-9.52 7.87,-17.22 17.39,-17.22l23.24 0c4.82,0 8.97,1.73 12.36,5.15 3.39,3.43 5.08,7.59 5.03,12.41 -0.95,90.05 71.68,165.98 164.37,165.98 92.69,0 165.31,-75.94 164.37,-165.98 -0.05,-4.82 1.63,-8.99 5.03,-12.41 3.39,-3.42 7.53,-5.15 12.36,-5.15l23.24 0c9.52,0 17.3,7.71 17.39,17.22 0.9,97.13 -61.19,181.51 -149.34,212.1zm-73.04 45.73c90.79,0 164.38,73.59 164.38,164.38 0,90.79 -73.59,164.37 -164.38,164.37 -90.79,0 -164.38,-73.59 -164.38,-164.37 0,-90.79 73.59,-164.38 164.38,-164.38z"/>
 </g>
</svg>
