<?xml version="1.0" encoding="UTF-8"?>
<!DOCTYPE svg PUBLIC "-//W3C//DTD SVG 1.1//EN" "http://www.w3.org/Graphics/SVG/1.1/DTD/svg11.dtd">
<!-- Creator: CorelDRAW 2021.5 -->
<svg xmlns="http://www.w3.org/2000/svg" xml:space="preserve" width="21.0516mm" height="24.7551mm" version="1.1" style="shape-rendering:geometricPrecision; text-rendering:geometricPrecision; image-rendering:optimizeQuality; fill-rule:evenodd; clip-rule:evenodd"
viewBox="0 0 966.91 1137.01"
 xmlns:xlink="http://www.w3.org/1999/xlink"
 xmlns:xodm="http://www.corel.com/coreldraw/odm/2003">
 <defs>
  <style type="text/css">
   <![CDATA[
    .str0 {stroke:#E23324;stroke-width:45.93;stroke-miterlimit:22.9256}
    .fil0 {fill:none}
   ]]>
  </style>
 </defs>
 <g id="Layer_x0020_1">
  <metadata id="CorelCorpID_0Corel-Layer"/>
  <path class="fil0 str0" d="M483.46 815.77c60.04,0 117.84,8.71 171.95,24.82l0 -544.15c-54.11,16.1 -111.91,24.82 -171.95,24.82 -60.04,0 -117.83,-8.72 -171.95,-24.82l0 544.15c54.11,-16.1 111.91,-24.82 171.95,-24.82zm282.34 70.48c65.24,35.35 121.79,82.56 166.03,138.37 13.46,16.99 15.86,38.76 6.43,58.27 -9.43,19.51 -27.99,31.15 -49.66,31.15l-1.36 0c-19.14,0 -35.61,-8.1 -47.3,-23.25 -78.69,-101.97 -209,-168.63 -356.47,-168.63 -148.22,0 -279.12,67.35 -357.67,170.2 -10.78,14.12 -26.07,21.68 -43.84,21.68l-3.63 0c-21.67,0 -40.23,-11.64 -49.66,-31.15 -9.43,-19.51 -7.03,-41.29 6.43,-58.27 44.24,-55.81 100.79,-103.04 166.03,-138.38l0 -635.47c-65.24,-35.34 -121.8,-82.56 -166.03,-138.38 -13.46,-16.99 -15.86,-38.76 -6.43,-58.27 9.43,-19.51 27.99,-31.15 49.66,-31.15l3.63 0c17.77,0 33.05,7.56 43.84,21.68 78.56,102.85 209.45,170.2 357.67,170.2 147.47,0 277.78,-66.66 356.47,-168.63 11.69,-15.15 28.16,-23.25 47.3,-23.25l1.36 0c21.67,0 40.23,11.64 49.66,31.15 9.43,19.51 7.03,41.29 -6.43,58.27 -44.24,55.81 -100.79,103.03 -166.03,138.37l0 635.48z"/>
 </g>
</svg>
