<?xml version="1.0" encoding="UTF-8"?>
<!DOCTYPE svg PUBLIC "-//W3C//DTD SVG 1.1//EN" "http://www.w3.org/Graphics/SVG/1.1/DTD/svg11.dtd">
<!-- Creator: CorelDRAW 2021.5 -->
<svg xmlns="http://www.w3.org/2000/svg" xml:space="preserve" width="37.6625mm" height="33.1547mm" version="1.1" style="shape-rendering:geometricPrecision; text-rendering:geometricPrecision; image-rendering:optimizeQuality; fill-rule:evenodd; clip-rule:evenodd"
viewBox="0 0 864.38 760.93"
 xmlns:xlink="http://www.w3.org/1999/xlink"
 xmlns:xodm="http://www.corel.com/coreldraw/odm/2003">
 <defs>
  <style type="text/css">
   <![CDATA[
    .str0 {stroke:#66C3D0;stroke-width:17.21;stroke-miterlimit:22.9256}
    .fil0 {fill:none}
    .fil1 {fill:#66C3D0}
   ]]>
  </style>
 </defs>
 <g id="Layer_x0020_1">
  <metadata id="CorelCorpID_0Corel-Layer"/>
  <path class="fil0 str0" d="M11 226.32l39.63 -10.46 27.72 -7.32 7.32 -27.72 10.46 -39.63c0.39,-1.49 1.19,-2.39 2.11,-2.39 0.92,0 1.71,0.9 2.11,2.39l10.46 39.63 7.32 27.72 27.72 7.32 39.63 10.46c1.49,0.39 2.39,1.19 2.39,2.11 0,0.92 -0.9,1.72 -2.39,2.11l-39.63 10.47 -27.72 7.32 -7.32 27.72 -10.46 39.63c-0.39,1.49 -1.18,2.39 -2.11,2.39 -0.92,0 -1.71,-0.9 -2.11,-2.39l-10.46 -39.63 -7.32 -27.72 -27.72 -7.32 -39.63 -10.47c-1.49,-0.39 -2.39,-1.18 -2.39,-2.11 0,-0.92 0.9,-1.71 2.39,-2.11z"/>
  <ellipse class="fil1" cx="263.55" cy="518.38" rx="11.05" ry="11.34"/>
  <ellipse class="fil1" cx="259.45" cy="468.09" rx="11.05" ry="11.34"/>
  <ellipse class="fil1" cx="261.85" cy="402.52" rx="22.22" ry="22.81"/>
  <ellipse class="fil1" cx="219.39" cy="368.02" rx="11.05" ry="11.34"/>
  <path class="fil0 str0" d="M184.09 572.78l58.5 -15.45 38.88 -10.27 12.85 -64.9 15.45 -78c0.58,-2.94 1.75,-4.7 3.11,-4.7 1.36,0 2.53,1.76 3.11,4.7l15.45 78 12.85 64.9 38.88 10.27 58.5 15.45c2.2,0.58 3.53,1.75 3.53,3.11 0,1.36 -1.32,2.53 -3.53,3.11l-58.5 15.45 -38.88 10.27 -12.85 64.9 -15.45 78c-0.58,2.94 -1.75,4.7 -3.11,4.7 -1.37,0 -2.53,-1.76 -3.11,-4.7l-15.45 -78 -12.85 -64.9 -38.88 -10.27 -58.5 -15.45c-2.2,-0.58 -3.53,-1.75 -3.53,-3.11 0,-1.36 1.32,-2.53 3.53,-3.11z"/>
  <ellipse class="fil1" cx="191.84" cy="326.02" rx="11.05" ry="11.34"/>
  <ellipse class="fil1" cx="153.73" cy="284.7" rx="11.05" ry="11.34"/>
  <ellipse class="fil1" cx="256.49" cy="205.87" rx="11.05" ry="11.34"/>
  <ellipse class="fil1" cx="311.43" cy="199.22" rx="11.05" ry="11.34"/>
  <ellipse class="fil1" cx="363.72" cy="192.91" rx="11.05" ry="11.34"/>
  <ellipse class="fil1" cx="425.42" cy="186.99" rx="11.05" ry="11.34"/>
  <ellipse class="fil1" cx="490.69" cy="181.82" rx="11.05" ry="11.34"/>
  <path class="fil0 str0" d="M492.47 137.3l50.92 -13.44 35.62 -9.41 9.41 -35.62 13.44 -50.92c0.51,-1.92 1.52,-3.07 2.71,-3.07 1.19,0 2.2,1.15 2.71,3.07l13.44 50.92 9.41 35.62 35.62 9.41 50.92 13.44c1.92,0.5 3.07,1.52 3.07,2.71 0,1.19 -1.15,2.21 -3.07,2.71l-50.92 13.44 -35.62 9.41 -9.41 35.62 -13.44 50.92c-0.51,1.92 -1.52,3.07 -2.71,3.07 -1.19,0 -2.2,-1.15 -2.71,-3.07l-13.44 -50.92 -9.41 -35.62 -35.62 -9.41 -50.92 -13.44c-1.92,-0.5 -3.07,-1.52 -3.07,-2.71 0,-1.19 1.15,-2.2 3.07,-2.71z"/>
  <ellipse class="fil1" cx="480.61" cy="87.33" rx="11.05" ry="11.34"/>
  <ellipse class="fil1" cx="427.53" cy="56.99" rx="11.05" ry="11.34"/>
  <ellipse class="fil1" cx="371.36" cy="21.59" rx="21.04" ry="21.59"/>
  <ellipse class="fil1" cx="321.37" cy="55.25" rx="11.05" ry="11.34"/>
  <ellipse class="fil1" cx="280.82" cy="99.04" rx="11.05" ry="11.34"/>
  <ellipse class="fil1" cx="231.08" cy="143.1" rx="11.05" ry="11.34"/>
  <path class="fil0 str0" d="M680.43 469.55l39.29 -10.37 27.48 -7.26 7.25 -27.48 10.37 -39.29c0.39,-1.48 1.18,-2.37 2.09,-2.37 0.92,0 1.7,0.89 2.09,2.37l10.37 39.29 7.25 27.48 27.49 7.26 39.28 10.37c1.48,0.39 2.37,1.18 2.37,2.09 0,0.92 -0.89,1.7 -2.37,2.09l-39.28 10.37 -27.48 7.26 -7.26 27.48 -10.37 39.28c-0.39,1.48 -1.18,2.37 -2.09,2.37 -0.92,0 -1.7,-0.89 -2.09,-2.37l-10.37 -39.28 -7.25 -27.48 -27.48 -7.26 -39.29 -10.37c-1.48,-0.39 -2.37,-1.18 -2.37,-2.09 0,-0.92 0.89,-1.7 2.37,-2.09z"/>
  <ellipse class="fil1" cx="645.96" cy="269.85" rx="11.05" ry="11.34"/>
  <ellipse class="fil1" cx="646.45" cy="330.21" rx="11.05" ry="11.34"/>
  <ellipse class="fil1" cx="655.41" cy="403.03" rx="22.22" ry="22.81"/>
  <ellipse class="fil1" cx="707.02" cy="424.82" rx="11.05" ry="11.34"/>
  <ellipse class="fil1" cx="184.29" cy="191.32" rx="11.05" ry="11.34"/>
 </g>
</svg>
