<?xml version="1.0" encoding="UTF-8"?>
<!DOCTYPE svg PUBLIC "-//W3C//DTD SVG 1.1//EN" "http://www.w3.org/Graphics/SVG/1.1/DTD/svg11.dtd">
<!-- Creator: CorelDRAW 2021.5 -->
<svg xmlns="http://www.w3.org/2000/svg" xml:space="preserve" width="23.6175mm" height="24.4889mm" version="1.1" style="shape-rendering:geometricPrecision; text-rendering:geometricPrecision; image-rendering:optimizeQuality; fill-rule:evenodd; clip-rule:evenodd"
viewBox="0 0 3863.75 4006.31"
 xmlns:xlink="http://www.w3.org/1999/xlink"
 xmlns:xodm="http://www.corel.com/coreldraw/odm/2003">
 <defs>
  <style type="text/css">
   <![CDATA[
    .str0 {stroke:#008DD2;stroke-width:163.6;stroke-miterlimit:22.9256}
    .fil0 {fill:none}
   ]]>
  </style>
 </defs>
 <g id="Layer_x0020_1">
  <metadata id="CorelCorpID_0Corel-Layer"/>
  <path class="fil0 str0" d="M2961.87 1832.02c452.92,0 820.08,367.16 820.08,820.08 0,809.82 -1105.44,1272.41 -1793.22,1272.41 -910.56,0 -1676.61,-562.2 -1900.59,-1325.43 -13.51,-46.04 -5.28,-91.43 23.46,-129.85 28.74,-38.41 70.02,-59.07 118,-59.07l124.71 0c65.88,0 121.75,41.37 140.97,104.37 181.46,594.53 781.32,1030.99 1493.44,1030.99 193.45,0 372.1,-40.67 538.74,-104.8 17.95,-6.9 29.63,-22.38 31.36,-41.52 1.73,-19.14 -6.99,-36.47 -23.39,-46.48 -236.05,-143.98 -393.66,-403.89 -393.66,-700.62 0,-452.92 367.16,-820.08 820.09,-820.08zm244.25 1222.25l33.68 -22.58c116.73,-85.61 192.52,-223.75 192.52,-379.59 0,-259.84 -210.63,-470.47 -470.46,-470.47 -259.84,0 -470.47,210.63 -470.47,470.47 0,259.82 210.63,470.47 470.47,470.47 89.44,0 173.07,-24.98 244.25,-68.3z"/>
  <path class="fil0 str0" d="M901.88 2174.28c-452.92,0 -820.08,-367.16 -820.08,-820.08 0,-809.82 1105.44,-1272.41 1793.22,-1272.41 910.56,0 1676.61,562.2 1900.59,1325.43 13.51,46.04 5.28,91.43 -23.46,129.85 -28.74,38.41 -70.02,59.07 -118,59.07l-124.71 0c-65.88,0 -121.75,-41.37 -140.97,-104.37 -181.46,-594.53 -781.32,-1030.99 -1493.44,-1030.99 -193.45,0 -372.1,40.67 -538.74,104.8 -17.95,6.9 -29.63,22.38 -31.36,41.52 -1.73,19.14 6.99,36.47 23.39,46.48 236.05,143.98 393.66,403.89 393.66,700.62 0,452.92 -367.16,820.08 -820.09,820.08zm-244.25 -1222.25l-33.68 22.58c-116.73,85.61 -192.52,223.75 -192.52,379.59 0,259.84 210.63,470.47 470.46,470.47 259.84,0 470.47,-210.63 470.47,-470.47 0,-259.82 -210.63,-470.47 -470.47,-470.47 -89.44,0 -173.07,24.98 -244.25,68.3z"/>
 </g>
</svg>
