<?xml version="1.0" encoding="UTF-8"?>
<!DOCTYPE svg PUBLIC "-//W3C//DTD SVG 1.1//EN" "http://www.w3.org/Graphics/SVG/1.1/DTD/svg11.dtd">
<!-- Creator: CorelDRAW 2021.5 -->
<svg xmlns="http://www.w3.org/2000/svg" xml:space="preserve" width="19.0142mm" height="25.0188mm" version="1.1" style="shape-rendering:geometricPrecision; text-rendering:geometricPrecision; image-rendering:optimizeQuality; fill-rule:evenodd; clip-rule:evenodd"
viewBox="0 0 332.12 437.01"
 xmlns:xlink="http://www.w3.org/1999/xlink"
 xmlns:xodm="http://www.corel.com/coreldraw/odm/2003">
 <defs>
  <style type="text/css">
   <![CDATA[
    .str0 {stroke:#6152BA;stroke-width:17.47;stroke-miterlimit:22.9256}
    .fil0 {fill:none}
   ]]>
  </style>
 </defs>
 <g id="Layer_x0020_1">
  <metadata id="CorelCorpID_0Corel-Layer"/>
  <path class="fil0 str0" d="M12.93 214.8l69.56 -18.37 46.23 -12.21 15.28 -77.16 18.36 -92.74c0.69,-3.49 2.08,-5.59 3.7,-5.59 1.62,0 3.01,2.1 3.7,5.59l18.37 92.74 15.28 77.16 46.23 12.21 69.56 18.37c2.62,0.69 4.19,2.08 4.19,3.7 0,1.62 -1.57,3.01 -4.19,3.7l-69.56 18.36 -46.23 12.21 -15.28 77.16 -18.37 92.74c-0.69,3.49 -2.08,5.59 -3.7,5.59 -1.62,0 -3.01,-2.1 -3.7,-5.59l-18.36 -92.74 -15.28 -77.16 -46.23 -12.21 -69.56 -18.36c-2.62,-0.69 -4.19,-2.08 -4.19,-3.7 0,-1.62 1.57,-3.01 4.19,-3.7z"/>
 </g>
</svg>
