<?xml version="1.0" encoding="UTF-8"?>
<!DOCTYPE svg PUBLIC "-//W3C//DTD SVG 1.1//EN" "http://www.w3.org/Graphics/SVG/1.1/DTD/svg11.dtd">
<!-- Creator: CorelDRAW 2020 (64-Bit) -->
<svg xmlns="http://www.w3.org/2000/svg" xml:space="preserve" width="113px" height="113px" version="1.1" style="shape-rendering:geometricPrecision; text-rendering:geometricPrecision; image-rendering:optimizeQuality; fill-rule:evenodd; clip-rule:evenodd"
viewBox="0 0 10.24 10.24"
 xmlns:xlink="http://www.w3.org/1999/xlink"
 xmlns:xodm="http://www.corel.com/coreldraw/odm/2003">
 <defs>
  <style type="text/css">
   <![CDATA[
    .fil1 {fill:none}
    .fil0 {fill:#8FDBC3}
   ]]>
  </style>
 </defs>
 <g id="Layer_x0020_1">
  <metadata id="CorelCorpID_0Corel-Layer"/>
  <g id="_1985271274208">
   <path class="fil0" d="M5.02 0.83c-0.31,-0.12 -0.19,-0.64 0,-0.76 0.33,-0.2 1.04,0.03 0.71,0.68 -0.09,0.17 -0.19,0.08 -0.2,0.21 -0.03,0.21 -0.06,0.67 0.01,0.69 0.17,0.06 0.47,-0.14 0.69,-0.38 0.09,-0.11 0.22,-0.23 0.21,-0.38 -0.07,-0.99 0.77,-0.74 0.76,-0.38 -0.01,0.36 -0.13,0.33 -0.56,0.56 -0.26,0.14 -0.22,0.5 -1.05,0.87 -0.06,0.03 -0.02,0.18 -0.01,0.35 0.03,0.44 2.05,-0.9 2.03,-1.38 -0.01,-0.25 0.12,-0.83 0.54,-0.66 0.27,0.12 0.33,0.38 0.15,0.6 -0.14,0.17 -0.48,0.29 -0.62,0.45 -0.42,0.46 -0.98,0.86 -1.54,1.12 -0.23,0.11 -0.45,0.14 -0.43,0.37 0.01,0.18 -0.02,0.3 0.16,0.26 0.43,-0.11 0.62,-0.21 0.92,-0.37 0.72,-0.39 1.74,-1.21 1.84,-1.59 0.03,-0.13 -0.04,-0.3 0.02,-0.47 0.07,-0.25 0.35,-0.51 0.67,-0.15 0.12,0.14 0.08,0.4 -0.17,0.57 -0.41,0.28 -0.59,0.66 -0.98,0.98 -0.34,0.29 -0.73,0.61 -1.26,0.89 -0.6,0.32 -1.2,0.4 -1.21,0.59 0,0.22 -0.03,0.29 0.1,0.3 0.32,0.03 0.7,0.02 0.93,0.01 0.15,-0.01 0.33,0.08 0.43,0.18 0.3,0.32 0.47,0.73 0.59,1.17 0.16,0.59 0.19,0.47 0.52,0.47 0.04,0 0.08,0 0.11,0.01 0.14,0.01 0.19,0.05 0.19,0.08 -0.01,0.05 -0.12,0.08 -0.28,0.08 -0.11,0.01 -0.3,0.02 -0.25,0.09 0.16,0.22 0.18,0.22 0.36,0.55 0.13,0.22 0.03,0.24 -0.13,0.05 -0.2,-0.22 -0.4,-0.55 -0.4,-0.44 0,0.23 0.03,0.71 -0.05,0.72 -0.17,0.02 -0.02,-1.29 -0.36,-0.6 -0.22,0.44 -0.41,0.34 -0.05,-0.23 0.2,-0.33 -0.42,-0.12 -0.45,-0.25 -0.02,-0.1 0.59,-0.05 0.57,-0.18 -0.13,-0.64 -0.57,-1.18 -0.81,-1.22 -0.35,-0.05 -0.89,-0.18 -1.06,-0.09 -0.07,0.04 0,0.36 0,0.66 0.01,0.54 0.07,1.29 0.07,1.82 0,0.26 1.14,0.26 1.62,0.56 0.25,0.15 0.58,0.73 0.91,1.75 0.17,0.54 0.56,0.55 0.62,0.84 0.02,0.05 0.03,0.33 -0.07,0.3 -0.13,-0.05 -0.04,-0.3 -0.61,-0.34 -0.17,-0.01 -0.06,-0.35 -0.16,-0.51 -0.44,-0.69 -0.56,-1.47 -1.03,-1.65 -0.68,-0.26 -1.46,-0.28 -2.15,-0.15 -0.3,0.05 -0.4,-0.03 -0.41,0.21 -0.01,0.54 0.12,1.4 0.21,1.93 0.04,0.2 0.54,0.19 0.59,0.58 0.02,0.11 -0.26,-0.02 -0.62,-0.1 -0.11,-0.03 -0.27,0.02 -0.34,-0.08 -0.06,-0.1 -0.01,-0.35 -0.03,-0.54 -0.13,-0.81 -0.42,-1.58 -0.19,-2.36 0.07,-0.25 1.03,-0.08 1.06,-0.36 0.07,-0.84 0.04,-0.9 0.01,-1.73 0,-0.13 -0.09,-0.81 -0.25,-0.81 -0.06,0 -0.83,0.16 -0.84,0.26 0,0.05 -0.12,1.25 -0.06,1.29 0.14,0.09 0.44,0.21 0.52,0.46 0.06,0.18 0.06,0.36 0,0.32 -0.04,-0.02 -0.05,-0.17 -0.16,-0.32 -0.06,-0.09 -0.22,-0.19 -0.11,0.04 0.12,0.24 0.09,0.67 -0.11,0.13 0,0 -0.16,-0.46 -0.16,-0.08 0,0.13 -0.09,0.84 -0.15,0.15 0,-0.05 -0.05,-0.37 -0.08,-0.26 -0.05,0.2 -0.25,0.73 -0.24,0.43 0.02,-0.56 0.36,-0.79 -0.12,-0.7 -0.33,0.06 -0.42,-0.16 0.2,-0.21 0.24,-0.01 -0.02,-0.86 0.03,-1.4 0.02,-0.23 0.08,-0.24 0.36,-0.32 0.18,-0.06 1.05,-0.09 1.09,-0.3 0.05,-0.28 0.01,-0.29 -0.09,-0.3 -0.51,-0.09 -1.48,-0.49 -2.23,-0.96 -0.55,-0.35 -1.02,-0.77 -1.28,-1.05 -0.13,-0.15 -0.42,0.07 -0.58,-0.41 -0.13,-0.36 0.29,-0.82 0.71,-0.46 0.27,0.24 -0.04,0.52 0.14,0.77 0.19,0.27 1.24,1.03 1.5,1.18 0.8,0.46 1.82,0.8 1.9,0.61 0.03,-0.08 0.04,-0.32 -0.03,-0.36 -0.24,-0.16 -0.87,-0.23 -1.16,-0.36 -0.24,-0.11 -0.63,-0.3 -1.18,-0.94 -0.13,-0.13 -0.08,-0.07 -0.26,-0.15 -0.17,-0.07 -0.46,-0.21 -0.49,-0.41 -0.06,-0.3 0.16,-0.55 0.56,-0.41 0.36,0.13 0.27,0.63 0.28,0.71 0.04,0.23 1.01,1.11 2.22,1.3 0.08,0.02 0.11,-0.08 0.13,-0.29 0.04,-0.28 -0.02,-0.07 -0.56,-0.28 -0.69,-0.27 -0.92,-0.61 -1.04,-0.73 -0.08,-0.08 -0.09,-0.04 -0.19,-0.09 -0.31,-0.14 -0.41,-0.41 -0.32,-0.64 0.12,-0.32 1.04,-0.16 0.83,0.59 -0.03,0.11 0.23,0.36 0.53,0.53 0.31,0.16 0.63,0.21 0.7,0.16 0.08,-0.06 0.19,-0.62 0.03,-0.83 -0.02,-0.02 -0.13,-0.05 -0.16,-0.06z"/>
   <rect class="fil1" width="10.24" height="10.24"/>
  </g>
 </g>
</svg>
