<?xml version="1.0" encoding="UTF-8"?>
<!DOCTYPE svg PUBLIC "-//W3C//DTD SVG 1.1//EN" "http://www.w3.org/Graphics/SVG/1.1/DTD/svg11.dtd">
<!-- Creator: CorelDRAW 2020 (64-Bit) -->
<svg xmlns="http://www.w3.org/2000/svg" xml:space="preserve" width="43.6572mm" height="44.7644mm" version="1.1" style="shape-rendering:geometricPrecision; text-rendering:geometricPrecision; image-rendering:optimizeQuality; fill-rule:evenodd; clip-rule:evenodd"
viewBox="0 0 3263.61 3346.38"
 xmlns:xlink="http://www.w3.org/1999/xlink"
 xmlns:xodm="http://www.corel.com/coreldraw/odm/2003">
 <defs>
  <style type="text/css">
   <![CDATA[
    .str3 {stroke:#2B5A84;stroke-width:37.38;stroke-miterlimit:22.9256}
    .str1 {stroke:#2B5A84;stroke-width:37.38;stroke-miterlimit:22.9256}
    .str4 {stroke:#418EBA;stroke-width:37.38;stroke-miterlimit:22.9256}
    .str2 {stroke:#9EA3A7;stroke-width:37.38;stroke-miterlimit:22.9256}
    .str0 {stroke:#9EA3A7;stroke-width:37.38;stroke-miterlimit:22.9256}
    .fil0 {fill:none}
    .fil2 {fill:#2B5A84;fill-rule:nonzero}
    .fil1 {fill:#418EBA;fill-rule:nonzero}
   ]]>
  </style>
 </defs>
 <g id="Layer_x0020_1">
  <metadata id="CorelCorpID_0Corel-Layer"/>
  <rect class="fil0 str0" x="1195.71" y="1439.38" width="386.54" height="558.34"/>
  <line class="fil0 str1" x1="1240.2" y1="1551.35" x2="1537.78" y2= "1551.35" />
  <line class="fil0 str1" x1="1240.2" y1="1498.94" x2="1356.4" y2= "1498.94" />
  <line class="fil0 str1" x1="1742.55" y1="1567.89" x2="2180.65" y2= "1567.89" />
  <line class="fil0 str1" x1="1742.55" y1="1515.5" x2="1858.75" y2= "1515.5" />
  <rect class="fil0 str0" x="715.23" y="1439.38" width="386.54" height="558.34"/>
  <line class="fil0 str1" x1="759.72" y1="1551.35" x2="1057.3" y2= "1551.35" />
  <line class="fil0 str1" x1="759.72" y1="1498.94" x2="875.92" y2= "1498.94" />
  <path class="fil1" d="M813.1 1908.59c-9.01,0 -16.69,-1.85 -23.06,-5.5 -6.38,-3.66 -11.23,-8.96 -14.61,-15.9 -3.42,-6.93 -5.08,-15.34 -5.08,-25.19l0 -49.13c0,-10.4 1.61,-19.26 4.94,-26.67 3.29,-7.45 8.05,-13.03 14.29,-16.87 6.2,-3.83 13.73,-5.77 22.46,-5.77 8.83,0 16.41,1.8 22.74,5.36 6.33,3.55 11.14,8.73 14.42,15.58 3.33,6.79 4.95,15.06 4.95,24.72l0 37.07 -65.82 0 0 -21.26 41.18 0 0 -15.3c0,-7.3 -1.53,-12.94 -4.53,-16.92 -3.05,-3.97 -7.35,-5.97 -12.94,-5.97 -5.4,0 -9.61,2.13 -12.57,6.38 -3.01,4.25 -4.48,10.3 -4.48,18.11l0 51.35c0,6.85 1.57,12.21 4.71,16.04 3.19,3.83 7.63,5.73 13.4,5.73 5.36,0 9.48,-1.38 12.44,-4.25 2.91,-2.82 4.38,-6.88 4.38,-12.1l0 -0.97 24.64 0 0 0.97c0,12.9 -3.61,22.88 -10.81,29.9 -7.27,7.07 -17.43,10.59 -30.65,10.59zm68.54 -142.59l25.75 0 0 140.56 -25.75 0 0 -140.56zm60.13 43.08c0,-7.26 -1.44,-12.63 -4.25,-16.18 -2.86,-3.6 -7.17,-5.36 -12.94,-5.36 -5.78,0 -10.08,1.85 -12.95,5.55 -2.82,3.69 -4.25,9.28 -4.25,16.78l-2.86 -20.15c3.18,-8.78 7.53,-15.3 13.07,-19.65 5.55,-4.34 11.93,-6.51 19.18,-6.51 9.89,0 17.52,3.27 22.79,9.75 5.32,6.52 7.95,15.9 7.95,28.19l0 105.06 -25.74 0 0 -97.47z"/>
  <g id="_2286996782352">
   <polygon class="fil0 str2" points="623.92,108.63 1027.1,364.73 657.18,947.08 614.32,919.86 631.92,924.84 819.96,261.06 571.77,190.75 "/>
   <line class="fil0 str3" x1="787.31" y1="376.32" x2="906.52" y2= "452.05" />
   <path class="fil0 str2" d="M360.42 130.87l183.66 52.03 -198.4 0 14.74 -52.03zm200.51 56.81l259.04 73.38 -188.05 663.78 -183.66 -52.03 112.67 0 0 -685.13z"/>
   <line class="fil0 str4" x1="560.93" y1="331.47" x2="729.37" y2= "379.19" />
   <rect class="fil0 str2" x="83.3" y="182.9" width="477.63" height="689.91"/>
   <line class="fil0 str4" x1="138.27" y1="321.25" x2="505.97" y2= "321.25" />
   <line class="fil0 str3" x1="138.27" y1="256.51" x2="281.85" y2= "256.51" />
  </g>
  <g id="_2286996784320">
   <path class="fil0 str2" d="M18.69 3234.42l0 -432.77c0,-12.33 10.09,-22.43 22.43,-22.43l645.06 0c12.33,0 22.43,10.09 22.43,22.43l0 432.77c0,12.33 -10.09,22.43 -22.43,22.43l-645.06 0c-12.33,0 -22.43,-10.09 -22.43,-22.43z"/>
   <line class="fil0 str2" x1="179.79" y1="3327.7" x2="547.49" y2= "3327.7" />
   <path class="fil0 str4" d="M225.53 2989.21c12.27,0 24,2.32 34.78,6.53 -0.27,-3.13 -0.41,-6.3 -0.41,-9.5 0,-60.9 49.37,-110.26 110.26,-110.26 60.9,0 110.26,49.37 110.26,110.26 0,3 -0.12,5.97 -0.36,8.92 10.35,-3.84 21.55,-5.94 33.24,-5.94 52.84,0 95.68,42.83 95.68,95.68 0,50.86 -46.83,95.68 -94.92,95.68 -48.09,0 -192.36,0 -288.54,0 -52.84,0 -95.68,-42.83 -95.68,-95.68 0,-52.84 42.83,-95.68 95.68,-95.68z"/>
  </g>
  <g id="_2286996784080">
   <polygon class="fil0 str2" points="3175.69,2303.22 3244.93,2303.22 3244.93,2993.13 2767.3,2993.13 2767.3,2923.92 3175.69,2923.92 "/>
   <polygon class="fil0 str2" points="3084.71,2234.01 3175.69,2234.01 3175.69,2923.92 2698.07,2923.92 2698.07,2856.68 3084.71,2856.68 "/>
   <rect class="fil0 str4" x="2607.08" y="2166.76" width="477.63" height="689.91"/>
   <path class="fil2" d="M2966.34 2429.04c0,18.2 -2.54,34.39 -7.72,48.47 -5.19,14.08 -12.39,26.14 -21.59,36.09 -9.31,9.94 -20.43,17.67 -33.45,23.28 -13.01,5.61 -27.41,8.89 -43.28,9.95l-2.23 74.51c0,3.17 -1.79,5.4 -5.4,6.98 -3.6,1.58 -9.42,2.32 -17.46,2.32 -4.34,0 -8.04,-0.1 -11.12,-0.42 -3.18,-0.32 -5.61,-0.84 -7.51,-1.59 -1.8,-0.74 -3.18,-1.69 -4.02,-2.96 -0.84,-1.27 -1.17,-2.65 -1.17,-4.34l-1.91 -85.83c-0.21,-4.76 0.1,-8.68 1.06,-11.64 0.95,-3.07 2.32,-5.5 4.23,-7.51 1.8,-1.91 4.23,-3.28 7.09,-4.02 2.86,-0.74 6.24,-1.06 9.94,-1.06l6.78 0c13.43,0 24.86,-2.12 34.39,-6.35 9.52,-4.24 17.25,-9.95 23.07,-17.04 5.93,-6.98 10.26,-15.34 12.91,-24.86 2.65,-9.53 4.02,-19.47 4.02,-29.85 0,-11.85 -1.69,-22.64 -4.97,-32.59 -3.28,-9.85 -8.26,-18.31 -14.82,-25.51 -6.67,-7.09 -15.03,-12.7 -24.98,-16.62 -10.05,-3.92 -21.91,-5.93 -35.56,-5.93 -11.96,0 -22.44,1.27 -31.43,3.92 -8.99,2.65 -16.83,5.5 -23.39,8.57 -6.56,3.18 -12.07,6.03 -16.3,8.47 -4.23,2.53 -7.41,3.81 -9.42,3.81 -1.48,0 -2.75,-0.31 -3.92,-0.95 -1.05,-0.64 -2.12,-1.8 -2.96,-3.6 -0.74,-1.69 -1.38,-4.13 -1.8,-7.09 -0.42,-2.96 -0.64,-6.77 -0.64,-11.33 0,-4.97 0.32,-8.68 0.96,-11.33 0.64,-2.53 1.91,-4.87 4.02,-6.77 2.01,-2.01 6.03,-4.55 11.85,-7.83 5.93,-3.18 13.02,-6.14 21.38,-8.78 8.36,-2.76 17.57,-4.98 27.62,-6.88 9.95,-1.79 20.32,-2.75 31.11,-2.75 22.02,0 41.06,3.18 56.94,9.52 15.87,6.25 29,14.82 39.26,25.61 10.38,10.79 17.99,23.39 22.96,37.89 4.98,14.5 7.41,29.84 7.41,46.03zm-97.15 274.95c0,6.77 -0.43,12.39 -1.38,16.83 -0.96,4.45 -2.65,8.04 -5.19,10.79 -2.43,2.86 -5.82,4.76 -10.05,5.93 -4.34,1.17 -9.52,1.7 -15.77,1.7 -6.67,0 -12.07,-0.53 -16.19,-1.7 -4.13,-1.17 -7.51,-3.06 -10.16,-5.93 -2.54,-2.75 -4.34,-6.35 -5.29,-10.79 -0.96,-4.44 -1.38,-10.05 -1.38,-16.83 0,-6.77 0.42,-12.48 1.38,-17.14 0.95,-4.66 2.75,-8.25 5.29,-10.79 2.65,-2.65 6.03,-4.45 10.16,-5.61 4.13,-1.17 9.52,-1.7 16.19,-1.7 6.24,0 11.43,0.53 15.77,1.7 4.24,1.16 7.63,2.96 10.05,5.61 2.54,2.54 4.23,6.14 5.19,10.79 0.95,4.66 1.38,10.37 1.38,17.14z"/>
  </g>
  <g id="_2286996786096">
   <path class="fil0 str2" d="M2020.64 683.06l0 -358.02c0,-32.89 26.91,-59.8 59.8,-59.8l5.76 0 0 395.29c0,10.08 8.24,18.32 18.32,18.32l109.73 0c10.08,0 18.32,-8.24 18.32,-18.32l0 -395.29 418.17 0c32.89,0 59.8,26.91 59.8,59.8l0 358.02c0,32.89 -26.91,59.8 -59.8,59.8l-570.3 0c-32.89,0 -59.8,-26.91 -59.8,-59.8z"/>
   <g>
    <circle class="fil0 str2" cx="2467.95" cy="400.12" r="27.02"/>
    <circle class="fil0 str2" cx="2467.95" cy="595.62" r="27.02"/>
    <circle class="fil0 str2" cx="2357.49" cy="400.12" r="27.02"/>
    <circle class="fil0 str4" cx="2357.49" cy="595.62" r="27.02"/>
    <g>
     <circle class="fil0 str2" cx="2467.95" cy="497.87" r="27.02"/>
     <circle class="fil0 str2" cx="2357.49" cy="497.87" r="27.02"/>
     <circle class="fil0 str2" cx="2578.42" cy="497.87" r="27.02"/>
    </g>
    <g>
     <circle class="fil0 str2" cx="2578.42" cy="400.12" r="27.02"/>
     <circle class="fil0 str4" cx="2578.42" cy="595.62" r="27.02"/>
    </g>
   </g>
   <path class="fil2" d="M3079.08 167.17c0,25.56 -3.57,48.3 -10.85,68.06 -7.28,19.77 -17.38,36.7 -30.31,50.68 -13.07,13.96 -28.68,24.81 -46.95,32.69 -18.28,7.87 -38.49,12.48 -60.78,13.96l-3.12 104.61c0,4.46 -2.53,7.58 -7.57,9.81 -5.05,2.24 -13.23,3.27 -24.52,3.27 -6.09,0 -11.3,-0.15 -15.6,-0.6 -4.46,-0.44 -7.88,-1.19 -10.56,-2.23 -2.53,-1.04 -4.46,-2.38 -5.64,-4.16 -1.19,-1.78 -1.64,-3.72 -1.64,-6.09l-2.68 -120.51c-0.29,-6.69 0.15,-12.19 1.49,-16.35 1.34,-4.31 3.27,-7.73 5.94,-10.55 2.53,-2.68 5.94,-4.61 9.96,-5.65 4.01,-1.04 8.77,-1.49 13.97,-1.49l9.51 0c18.87,0 34.92,-2.97 48.29,-8.91 13.37,-5.94 24.22,-13.97 32.39,-23.93 8.33,-9.8 14.42,-21.54 18.14,-34.92 3.72,-13.37 5.64,-27.34 5.64,-41.9 0,-16.65 -2.38,-31.8 -6.98,-45.77 -4.61,-13.81 -11.59,-25.71 -20.8,-35.81 -9.37,-9.96 -21.1,-17.84 -35.07,-23.33 -14.12,-5.5 -30.76,-8.32 -49.93,-8.32 -16.8,0 -31.5,1.78 -44.14,5.49 -12.63,3.72 -23.63,7.73 -32.84,12.04 -9.22,4.46 -16.94,8.47 -22.88,11.89 -5.94,3.57 -10.41,5.35 -13.22,5.35 -2.09,0 -3.86,-0.44 -5.5,-1.34 -1.49,-0.89 -2.97,-2.53 -4.16,-5.05 -1.05,-2.38 -1.94,-5.79 -2.53,-9.95 -0.6,-4.16 -0.9,-9.52 -0.9,-15.9 0,-6.99 0.45,-12.19 1.34,-15.9 0.9,-3.57 2.68,-6.84 5.65,-9.51 2.82,-2.83 8.47,-6.39 16.64,-11 8.32,-4.46 18.28,-8.62 30.01,-12.33 11.74,-3.86 24.67,-6.99 38.78,-9.66 13.97,-2.53 28.53,-3.86 43.69,-3.86 30.91,0 57.66,4.46 79.95,13.37 22.28,8.77 40.71,20.8 55.12,35.96 14.56,15.16 25.27,32.84 32.25,53.2 6.98,20.36 10.4,41.9 10.4,64.63zm-136.41 386.06c0,9.51 -0.59,17.39 -1.93,23.63 -1.34,6.23 -3.72,11.29 -7.28,15.15 -3.42,4.01 -8.17,6.69 -14.11,8.32 -6.09,1.64 -13.37,2.38 -22.14,2.38 -9.36,0 -16.94,-0.74 -22.73,-2.38 -5.8,-1.63 -10.56,-4.31 -14.27,-8.32 -3.57,-3.86 -6.09,-8.92 -7.43,-15.15 -1.34,-6.24 -1.93,-14.12 -1.93,-23.63 0,-9.51 0.59,-17.54 1.93,-24.07 1.34,-6.54 3.86,-11.59 7.43,-15.16 3.72,-3.72 8.47,-6.24 14.27,-7.87 5.79,-1.64 13.37,-2.38 22.73,-2.38 8.77,0 16.05,0.74 22.14,2.38 5.94,1.63 10.7,4.16 14.11,7.87 3.57,3.57 5.94,8.62 7.28,15.16 1.34,6.53 1.93,14.56 1.93,24.07z"/>
   <path class="fil0 str2" d="M2085.96 268.39l0 -77.39c0,-16.45 13.46,-29.9 29.9,-29.9l86.81 0c16.45,0 29.9,13.49 29.9,29.9l0 77.39"/>
  </g>
  <g id="_2286996792192">
   <polyline class="fil0 str2" points="1595.07,2932.46 1343.88,2932.46 1343.88,2521.52 1937.47,2521.52 1937.47,2741.06 "/>
   <line class="fil0 str3" x1="1414.43" y1="2658.15" x2="1880.19" y2= "2658.15" />
   <line class="fil0 str3" x1="1414.43" y1="2602.43" x2="1537.96" y2= "2602.43" />
   <polygon class="fil0 str4" points="1595.07,3063.26 1595.07,2769.75 1830.03,2936.42 2060.46,2769.75 2060.46,3063.26 "/>
   <polyline class="fil0 str4" points="2060.46,2772.49 2060.46,2741.06 1595.07,2741.06 1595.07,2772.49 "/>
  </g>
  <polygon class="fil0 str0" points="1682.43,1825.93 1682.43,1439.38 2240.77,1439.38 2240.77,1825.93 "/>
 </g>
</svg>
