<?xml version="1.0" encoding="UTF-8"?>
<!DOCTYPE svg PUBLIC "-//W3C//DTD SVG 1.1//EN" "http://www.w3.org/Graphics/SVG/1.1/DTD/svg11.dtd">
<!-- Creator: CorelDRAW 2020 (64-Bit) -->
<svg xmlns="http://www.w3.org/2000/svg" xml:space="preserve" width="800px" height="800px" version="1.1" style="shape-rendering:geometricPrecision; text-rendering:geometricPrecision; image-rendering:optimizeQuality; fill-rule:evenodd; clip-rule:evenodd"
viewBox="0 0 804.54 804.54"
 xmlns:xlink="http://www.w3.org/1999/xlink"
 xmlns:xodm="http://www.corel.com/coreldraw/odm/2003">
 <defs>
  <style type="text/css">
   <![CDATA[
    .str2 {stroke:#FF6633;stroke-width:3.14;stroke-miterlimit:22.9256}
    .str6 {stroke:#FF6633;stroke-width:0.48;stroke-miterlimit:22.9256}
    .str4 {stroke:#FF6633;stroke-width:0.48;stroke-miterlimit:22.9256}
    .str8 {stroke:#FF6633;stroke-width:0.48;stroke-miterlimit:22.9256}
    .str1 {stroke:#FF6633;stroke-width:0.48;stroke-miterlimit:22.9256}
    .str10 {stroke:#FF6633;stroke-width:0.48;stroke-miterlimit:22.9256}
    .str5 {stroke:#FF6633;stroke-width:3.02;stroke-miterlimit:22.9256}
    .str3 {stroke:#FF6633;stroke-width:3.02;stroke-miterlimit:22.9256}
    .str7 {stroke:#FF6633;stroke-width:3.02;stroke-miterlimit:22.9256}
    .str0 {stroke:#FF6633;stroke-width:3.02;stroke-miterlimit:22.9256}
    .str9 {stroke:#FF6633;stroke-width:3.02;stroke-miterlimit:22.9256}
    .fil5 {fill:none}
    .fil1 {fill:black}
    .fil6 {fill:#9BFC09}
    .fil4 {fill:#9DFF0A}
    .fil2 {fill:#FF6633}
    .fil0 {fill:white}
    .fil3 {fill:white}
   ]]>
  </style>
 </defs>
 <g id="Layer_x0020_1">
  <metadata id="CorelCorpID_0Corel-Layer"/>
  <rect class="fil0" width="804.54" height="804.54"/>
  <g id="_2153569058720">
   <path class="fil1" d="M678.53 672.98l-4.89 0c-3.15,0 -5.72,2.57 -5.72,5.72l0 65.01c0,3.35 2.74,6.09 6.09,6.09 6.15,0 12.31,0 18.46,0 3.78,0 7,-2.3 8.22,-5.88 1.23,-3.57 0.1,-7.36 -2.89,-9.68 -1.86,-1.45 -4.19,-2.33 -6.71,-2.38 -3.79,-0.06 -6.84,-3.16 -6.84,-6.95l0 -46.21c0,-3.15 -2.57,-5.72 -5.72,-5.72z"/>
   <g>
    <path class="fil2" d="M559.94 742.79c2.37,-1.45 8.12,-0.99 10.48,-2.45 -17.7,-5.01 -38.5,-5.74 -56.8,-17.52 -18.29,-11.77 -25.92,-37.82 -44.51,-45.33 -12.04,-4.86 -25.36,-1.06 -35.49,5.19 -21.34,13.16 -11.21,9.08 1.59,14.5 4.15,1.75 8.93,4.6 14.85,9.82 14.34,12.66 30.94,51.14 54.07,59.65 23.13,8.52 37.44,-16.15 55.81,-23.86z"/>
    <path class="fil3" d="M460.69 693.85c0.99,0.53 16.42,9.77 18.77,1.47 2,-7.05 -11.86,-13.07 -19.34,-14.1 -14.87,-2.05 -31.61,7.48 -34.13,9.76 -0.87,0.79 17.22,-6.49 34.7,2.87z"/>
   </g>
   <path class="fil2" d="M648.1 642.85l-92.96 72.45c-10.93,8.51 -12.89,24.37 -4.38,35.29l10.56 13.55c3.48,4.47 9.97,5.27 14.44,1.79l104.68 -81.58c4.47,-3.48 5.27,-9.97 1.79,-14.44l-19.69 -25.26c-3.48,-4.47 -9.97,-5.28 -14.44,-1.8z"/>
   <path class="fil1" d="M653.79 691.74l-4.89 0c-3.15,0 -5.72,2.57 -5.72,5.72l0 65.02c0,3.35 2.73,6.08 6.09,6.08 6.15,0 12.3,0 18.45,0 3.78,0 7,-2.29 8.23,-5.87 1.22,-3.58 0.09,-7.37 -2.89,-9.69 -1.87,-1.45 -4.2,-2.33 -6.72,-2.37 -3.79,-0.07 -6.84,-3.17 -6.84,-6.96l0 -46.21c0,-3.15 -2.57,-5.72 -5.71,-5.72z"/>
   <path class="fil1" d="M562.14 758.16l0 4.89c0,3.15 2.57,5.72 5.72,5.72l65.01 0c3.35,0 6.09,-2.74 6.09,-6.09 0,-6.15 0,-12.31 0,-18.46 0,-3.78 -2.3,-7 -5.87,-8.22 -3.58,-1.23 -7.37,-0.1 -9.69,2.89 -1.45,1.86 -2.33,4.19 -2.37,6.71 -0.07,3.79 -3.17,6.84 -6.96,6.84l-46.21 0c-3.15,0 -5.72,2.57 -5.72,5.72z"/>
   <g>
    <path class="fil3 str0" d="M672.58 717.94l22.85 -30.76 30.7 -41.33c1.94,-2.62 2.45,-5.74 1.42,-8.85 -1.02,-3.1 -3.29,-5.3 -6.42,-6.25l-29.12 -8.79 -29.12 -8.8c-3.13,-0.94 -6.24,-0.36 -8.81,1.66 -2.57,2.01 -3.88,4.89 -3.71,8.15l2.69 51.42 2.01 38.27c0.22,4.17 2.9,7.59 6.89,8.79 4,1.21 8.13,-0.15 10.62,-3.51z"/>
    <path class="fil2 str1" d="M665.65 711.92c7.61,-21.78 21.41,-36.5 43.74,-43.63l16.78 -22.58c1.95,-2.63 2.45,-5.75 1.43,-8.85 -1.03,-3.1 -3.3,-5.31 -6.42,-6.25l-29.13 -8.8 -29.12 -8.79c-3.12,-0.95 -6.23,-0.36 -8.81,1.65 -2.56,2.02 -3.87,4.9 -3.7,8.16l1.48 28.4c14.66,18.3 17.83,37.85 12.11,60.2 0.51,0.15 1.08,0.32 1.64,0.49z"/>
    <ellipse class="fil1" transform="matrix(0.424415 0.128171 -0.17226 0.570409 663.295 716.979)" rx="18.54" ry="10.37"/>
    <path class="fil2" d="M659.8 639.95c-16.54,-6.32 -29.54,-0.49 -18.11,-59.79 0.89,-4.64 5.9,-4.21 10.64,0.34 12.21,11.75 33.43,29.84 24.3,46.55 -6.39,11.69 -16.02,13.21 -16.83,12.9z"/>
    <path class="fil2" d="M709.91 655.08c17.27,3.89 24.87,15.94 48.17,-39.77 1.82,-4.36 -2.58,-6.77 -9.04,-5.6 -16.68,3.02 -44.37,6.34 -46.01,25.31 -1.15,13.27 6.03,19.87 6.88,20.06z"/>
    <ellipse class="fil4" transform="matrix(0.460493 0.139067 -0.139067 0.460493 663.02 667.971)" rx="15.09" ry="15.01"/>
    <circle class="fil1" transform="matrix(0.460493 0.139067 -0.139067 0.460493 664.586 667.101)" r="6.21"/>
    <ellipse class="fil4" transform="matrix(0.460493 0.139067 -0.139067 0.460493 689.649 676.013)" rx="15.09" ry="15.01"/>
    <circle class="fil1" transform="matrix(0.460493 0.139067 -0.139067 0.460493 691.215 675.143)" r="6.21"/>
    <ellipse class="fil1" transform="matrix(0.40583 0.538936 -0.538936 0.40583 672.672 654.907)" rx="5.97" ry="2.67"/>
    <ellipse class="fil1" transform="matrix(-0.643788 0.201712 0.201712 0.643788 687.457 663.393)" rx="5.97" ry="2.67"/>
    <ellipse class="fil1" transform="matrix(0.56985 0.172092 -0.172092 0.56985 645.944 581.239)" rx="7.86" ry="7.78"/>
    <ellipse class="fil1" transform="matrix(0.56985 0.172092 -0.172092 0.56985 753.906 613.843)" rx="7.86" ry="7.78"/>
    <path class="fil5 str2" d="M655.11 711.86c-0.32,-6.54 -1.15,-13.53 7.46,-14.61"/>
    <polygon class="fil6" points="664.21,666.94 662.89,667.7 661.57,668.46 661.53,667.02 661.49,665.57 662.85,666.26 "/>
    <polygon class="fil6" points="690.83,674.83 689.51,675.59 688.19,676.34 688.15,674.9 688.11,673.46 689.47,674.15 "/>
   </g>
  </g>
  <g id="_2153569062656">
   <g>
    <path class="fil2" d="M628.6 197.27c2.37,-1.46 8.12,-0.99 10.48,-2.45 -17.7,-5.01 -38.5,-5.74 -56.8,-17.52 -18.29,-11.78 -25.92,-37.83 -44.51,-45.33 -12.04,-4.86 -25.36,-1.06 -35.49,5.19 -21.34,13.16 -11.21,9.07 1.59,14.49 4.15,1.76 8.93,4.61 14.85,9.83 14.34,12.65 30.94,51.13 54.07,59.65 23.13,8.52 37.44,-16.16 55.81,-23.86z"/>
    <path class="fil3" d="M529.35 148.32c0.99,0.54 16.42,9.77 18.77,1.48 2,-7.06 -11.86,-13.07 -19.34,-14.11 -14.87,-2.04 -31.61,7.48 -34.13,9.77 -0.87,0.78 17.22,-6.49 34.7,2.86z"/>
   </g>
   <rect class="fil2" x="621.89" y="71.26" width="65.27" height="142.92"/>
   <path class="fil1" d="M630.38 148.05l-4.89 0c-3.15,0 -5.72,2.57 -5.72,5.72l0 65.02c0,3.35 2.73,6.08 6.09,6.08 6.15,0 12.3,0 18.45,0 3.78,0 7,-2.29 8.23,-5.87 1.22,-3.58 0.09,-7.37 -2.89,-9.69 -1.87,-1.45 -4.2,-2.33 -6.72,-2.37 -3.79,-0.07 -6.84,-3.17 -6.84,-6.96l0 -46.21c0,-3.15 -2.56,-5.72 -5.71,-5.72z"/>
   <path class="fil1" d="M678.18 148.05l4.89 0c3.15,0 5.72,2.57 5.72,5.72l0 65.02c0,3.35 -2.74,6.08 -6.09,6.08 -6.15,0 -12.3,0 -18.46,0 -3.78,0 -7,-2.29 -8.22,-5.87 -1.23,-3.58 -0.1,-7.37 2.89,-9.69 1.86,-1.45 4.19,-2.33 6.71,-2.37 3.79,-0.07 6.84,-3.17 6.84,-6.96l0 -46.21c0,-3.15 2.57,-5.72 5.72,-5.72z"/>
   <g>
    <path class="fil3 str3" d="M663.75 147.14l12.83 -36.11 17.25 -48.51c1.09,-3.07 0.66,-6.21 -1.23,-8.87 -1.89,-2.67 -4.7,-4.12 -7.97,-4.1l-30.42 0.12 -30.42 0.12c-3.27,0.01 -6.07,1.48 -7.94,4.16 -1.86,2.68 -2.27,5.82 -1.15,8.89l17.63 48.37 13.13 36c1.43,3.93 4.99,6.41 9.17,6.39 4.17,-0.01 7.72,-2.53 9.12,-6.46z"/>
    <path class="fil2 str4" d="M655.36 143.41c0.9,-23.05 9.78,-41.17 29.04,-54.53l9.43 -26.51c1.09,-3.08 0.66,-6.21 -1.23,-8.87 -1.89,-2.67 -4.7,-4.12 -7.97,-4.1l-30.42 0.12 -30.42 0.12c-3.27,0.01 -6.07,1.48 -7.94,4.16 -1.86,2.68 -2.27,5.82 -1.15,8.89l9.74 26.72c19.37,13.2 28.13,30.97 29.21,54.01 0.53,0 1.13,-0.01 1.71,-0.01z"/>
    <ellipse class="fil1" transform="matrix(0.443343 -0.00177174 0.0023812 0.595847 654.59 148.936)" rx="18.54" ry="10.37"/>
    <path class="fil2" d="M628.68 76.31c-17.66,-1.2 -28.39,8.18 -34.82,-51.86 -0.51,-4.7 4.4,-5.76 10.26,-2.79 15.13,7.65 40.71,18.73 36.88,37.38 -2.69,13.05 -11.45,17.33 -12.32,17.27z"/>
    <path class="fil2" d="M681.03 76.1c17.65,-1.34 28.45,7.95 34.41,-52.14 0.46,-4.7 -4.45,-5.72 -10.29,-2.71 -15.06,7.78 -40.56,19.07 -36.58,37.68 2.79,13.03 11.59,17.24 12.46,17.17z"/>
    <ellipse class="fil4" transform="matrix(0.48103 -0.00192235 0.00192235 0.48103 639.971 102.158)" rx="15.09" ry="15.01"/>
    <circle class="fil1" transform="matrix(0.48103 -0.00192235 0.00192235 0.48103 641.213 100.868)" r="6.21"/>
    <ellipse class="fil4" transform="matrix(0.48103 -0.00192235 0.00192235 0.48103 667.788 102.047)" rx="15.09" ry="15.01"/>
    <circle class="fil1" transform="matrix(0.48103 -0.00192235 0.00192235 0.48103 669.03 100.756)" r="6.21"/>
    <ellipse class="fil1" transform="matrix(0.545896 0.396419 -0.396419 0.545896 645.373 86.8403)" rx="5.97" ry="2.67"/>
    <ellipse class="fil1" transform="matrix(-0.556462 0.381445 0.381445 0.556462 663.491 84.6394)" rx="5.97" ry="2.67"/>
    <ellipse class="fil1" transform="matrix(0.595264 -0.00237886 0.00237886 0.595264 598.238 24.233)" rx="7.86" ry="7.78"/>
    <ellipse class="fil1" transform="matrix(0.595264 -0.00237886 0.00237886 0.595264 711.015 23.7823)" rx="7.86" ry="7.78"/>
    <path class="fil5 str2" d="M645.26 146.44c-2.22,-6.16 -5.06,-12.6 2.86,-16.16"/>
    <polygon class="fil6" points="640.81,100.83 639.77,101.94 638.73,103.05 638.27,101.68 637.81,100.31 639.31,100.57 "/>
    <polygon class="fil6" points="668.57,100.57 667.53,101.68 666.49,102.79 666.03,101.42 665.57,100.06 667.07,100.31 "/>
   </g>
  </g>
  <g id="_2153569065152">
   <g>
    <path class="fil2" d="M262.43 658.18c2.05,1.88 3.18,7.53 5.23,9.4 -0.04,-18.4 -5.05,-38.6 1.25,-59.42 6.29,-20.83 29.24,-35.33 31.35,-55.26 1.37,-12.91 -5.95,-24.67 -14.74,-32.69 -18.52,-16.91 -11.8,-8.29 -13.5,5.51 -0.55,4.47 -1.97,9.84 -5.37,16.97 -8.22,17.27 -40.66,43.8 -42.5,68.38 -1.83,24.58 25.82,31.56 38.28,47.11z"/>
    <path class="fil3" d="M282.22 549.3c-0.24,1.1 -4.88,18.47 3.74,18.45 7.33,-0.01 9.31,-14.99 8.25,-22.47 -2.12,-14.86 -15.87,-28.34 -18.76,-30.14 -1,-0.62 10.97,14.78 6.77,34.16z"/>
   </g>
   <path class="fil1" d="M224.74 682.62l16.33 0 0 70.73c0,3.36 -2.74,6.09 -6.09,6.09 -6.15,0 -12.3,0 -18.46,0 -3.78,0 -7,-2.29 -8.22,-5.87 -1.23,-3.58 -0.1,-7.37 2.89,-9.69 1.86,-1.45 4.19,-2.33 6.71,-2.37 3.79,-0.07 6.84,-3.17 6.84,-6.96l0 -51.93z"/>
   <path class="fil1" d="M126.83 682.62l16.33 0 0 70.73c0,3.36 -2.74,6.09 -6.09,6.09 -6.15,0 -12.31,0 -18.46,0 -3.78,0 -7,-2.29 -8.22,-5.87 -1.23,-3.58 -0.1,-7.37 2.88,-9.69 1.87,-1.45 4.2,-2.33 6.72,-2.37 3.79,-0.07 6.84,-3.17 6.84,-6.96l0 -51.93z"/>
   <path class="fil2" d="M123.1 646.3l128.15 0c13.85,0 25.14,11.3 25.14,25.15l0 27.46 -153.29 0 0 -52.61z"/>
   <path class="fil1" d="M167.99 691.95l4.89 0c3.15,0 5.72,2.56 5.72,5.72l0 65.01c0,3.35 -2.74,6.09 -6.09,6.09 -6.15,0 -12.3,0 -18.46,0 -3.78,0 -7,-2.3 -8.22,-5.88 -1.23,-3.58 -0.1,-7.36 2.89,-9.69 1.86,-1.45 4.19,-2.33 6.71,-2.37 3.79,-0.07 6.84,-3.17 6.84,-6.96l0 -46.2c0,-3.16 2.57,-5.72 5.72,-5.72z"/>
   <path class="fil1" d="M265.65 691.95l4.89 0c3.15,0 5.72,2.56 5.72,5.72l0 65.01c0,3.35 -2.74,6.09 -6.09,6.09 -6.15,0 -12.3,0 -18.46,0 -3.78,0 -7,-2.3 -8.22,-5.88 -1.23,-3.58 -0.1,-7.36 2.89,-9.69 1.86,-1.45 4.19,-2.33 6.71,-2.37 3.79,-0.07 6.84,-3.17 6.84,-6.96l0 -46.2c0,-3.16 2.57,-5.72 5.72,-5.72z"/>
   <g>
    <path class="fil3 str5" d="M122.21 704.73l19.44 -33.03 26.11 -44.37c1.66,-2.81 1.83,-5.97 0.48,-8.95 -1.35,-2.97 -3.84,-4.92 -7.05,-5.53l-29.9 -5.64 -29.89 -5.63c-3.21,-0.61 -6.24,0.3 -8.58,2.58 -2.34,2.28 -3.34,5.28 -2.82,8.51l8.16 50.83 6.08 37.84c0.66,4.12 3.69,7.23 7.79,8.01 4.1,0.77 8.06,-1.02 10.18,-4.62z"/>
    <path class="fil2 str6" d="M114.68 699.48c5.24,-22.47 17.39,-38.58 38.84,-48.05l14.27 -24.25c1.66,-2.81 1.82,-5.97 0.48,-8.94 -1.36,-2.98 -3.84,-4.93 -7.05,-5.54l-29.9 -5.63 -29.9 -5.64c-3.2,-0.61 -6.23,0.31 -8.58,2.58 -2.34,2.28 -3.33,5.28 -2.81,8.51l4.51 28.08c16.52,16.63 21.76,35.73 18.46,58.56 0.52,0.1 1.11,0.21 1.68,0.32z"/>
    <ellipse class="fil1" transform="matrix(0.435667 0.0821585 -0.11042 0.585531 112.878 704.758)" rx="18.54" ry="10.37"/>
    <path class="fil2" d="M101.18 628.54c-17.11,-4.52 -29.42,2.66 -24.38,-57.52 0.39,-4.7 5.41,-4.81 10.61,-0.79 13.4,10.38 36.43,26.1 29.13,43.69 -5.1,12.3 -14.52,14.84 -15.36,14.62z"/>
    <path class="fil2" d="M152.62 638.24c17.59,2.02 26.44,13.2 43.66,-44.68 1.34,-4.53 -3.29,-6.46 -9.6,-4.61 -16.26,4.79 -43.43,11.04 -43.04,30.08 0.28,13.32 8.12,19.11 8.98,19.21z"/>
    <ellipse class="fil1" transform="matrix(0.631776 -0.236664 0.236664 0.631776 114.573 642.954)" rx="5.97" ry="2.67"/>
    <ellipse class="fil1" transform="matrix(-0.498572 -0.454507 -0.454507 0.498572 132.194 646.35)" rx="5.97" ry="2.67"/>
    <ellipse class="fil1" transform="matrix(0.584958 0.110312 -0.110312 0.584958 81.1438 571.644)" rx="7.86" ry="7.78"/>
    <ellipse class="fil1" transform="matrix(0.584958 0.110312 -0.110312 0.584958 191.968 592.544)" rx="7.86" ry="7.78"/>
    <path class="fil5 str2" d="M104.19 700.55c-1.01,-6.47 -2.59,-13.34 5.86,-15.33"/>
    <g>
     <ellipse class="fil4" transform="matrix(0.472702 0.0891426 -0.0891426 0.472702 108.386 656.254)" rx="15.09" ry="15.01"/>
     <circle class="fil1" transform="matrix(0.472702 0.0891426 -0.0891426 0.472702 109.849 655.221)" r="6.21"/>
     <polygon class="fil6" points="109.46,655.11 108.23,656 107,656.89 106.8,655.46 106.61,654.03 108.04,654.57 "/>
    </g>
    <g>
     <ellipse class="fil4" transform="matrix(0.472702 0.0891426 -0.0891426 0.472702 135.083 661.399)" rx="15.09" ry="15.01"/>
     <circle class="fil1" transform="matrix(0.472702 0.0891426 -0.0891426 0.472702 136.546 660.366)" r="6.21"/>
     <polygon class="fil6" points="136.16,660.25 134.92,661.14 133.69,662.04 133.5,660.61 133.31,659.18 134.73,659.71 "/>
    </g>
   </g>
  </g>
  <g id="_2189959025824">
   <path class="fil1" d="M218.05 188.3l0 4.88c0,3.16 2.57,5.72 5.72,5.72l65.01 0c3.36,0 6.09,-2.73 6.09,-6.08 0,-6.16 0,-12.31 0,-18.46 0,-3.78 -2.3,-7 -5.87,-8.23 -3.58,-1.22 -7.37,-0.09 -9.69,2.89 -1.45,1.87 -2.33,4.2 -2.37,6.72 -0.07,3.79 -3.17,6.84 -6.96,6.84l-46.21 0c-3.15,0 -5.72,2.57 -5.72,5.72z"/>
   <path class="fil2" d="M238.38 171.38l-117.86 0c-13.85,0 -25.15,11.3 -25.15,25.15l0 17.17c0,5.67 4.63,10.29 10.29,10.29l132.72 0c5.66,0 10.28,-4.62 10.28,-10.29l0 -32.03c0,-5.67 -4.62,-10.29 -10.28,-10.29z"/>
   <path class="fil1" d="M236.81 213.04l0 4.89c0,3.15 2.57,5.72 5.72,5.72l65.02 0c3.35,0 6.09,-2.73 6.09,-6.09 0,-6.15 0,-12.3 0,-18.45 0,-3.79 -2.3,-7 -5.88,-8.23 -3.58,-1.23 -7.37,-0.1 -9.69,2.89 -1.45,1.86 -2.33,4.19 -2.37,6.72 -0.07,3.79 -3.17,6.83 -6.96,6.83l-46.21 0c-3.15,0 -5.72,2.57 -5.72,5.72z"/>
   <path class="fil1" d="M95.67 214.27l0 4.88c0,3.16 2.57,5.72 5.72,5.72l65.01 0c3.35,0 6.09,-2.73 6.09,-6.08 0,-6.16 0,-12.31 0,-18.46 0,-3.78 -2.3,-7 -5.88,-8.23 -3.57,-1.22 -7.36,-0.09 -9.68,2.89 -1.45,1.87 -2.33,4.2 -2.38,6.72 -0.06,3.79 -3.16,6.84 -6.95,6.84l-46.21 0c-3.15,0 -5.72,2.57 -5.72,5.72z"/>
   <path class="fil1" d="M236.81 213.04l0 4.89c0,3.15 2.57,5.72 5.72,5.72l65.02 0c3.35,0 6.09,-2.73 6.09,-6.09 0,-6.15 0,-12.3 0,-18.45 0,-3.79 -2.3,-7 -5.88,-8.23 -3.58,-1.23 -7.37,-0.1 -9.69,2.89 -1.45,1.86 -2.33,4.19 -2.37,6.72 -0.07,3.79 -3.17,6.83 -6.96,6.83l-46.21 0c-3.15,0 -5.72,2.57 -5.72,5.72z"/>
   <path class="fil3 str7" d="M261.83 207.69l-4.46 -38.07 -5.98 -51.13c-0.38,-3.25 -2.16,-5.87 -5.03,-7.42 -2.87,-1.55 -6.04,-1.61 -8.96,-0.15l-27.23 13.56 -27.23 13.56c-2.93,1.46 -4.79,4.02 -5.28,7.25 -0.49,3.22 0.53,6.22 2.89,8.48l37.21 35.58 27.69 26.49c3.02,2.88 7.32,3.54 11.06,1.68 3.73,-1.87 5.8,-5.69 5.32,-9.83z"/>
   <path class="fil2 str8" d="M252.66 208.05c-9.4,-21.07 -9.44,-41.25 1.93,-61.75l-3.27 -27.95c-0.38,-3.24 -2.16,-5.86 -5.03,-7.42 -2.87,-1.55 -6.03,-1.6 -8.96,-0.15l-27.23 13.56 -27.23 13.57c-2.92,1.45 -4.79,4.01 -5.28,7.24 -0.49,3.23 0.54,6.22 2.89,8.48l20.56 19.66c23.21,3.27 38.92,15.33 50.08,35.52 0.48,-0.24 1.02,-0.5 1.54,-0.76z"/>
   <ellipse class="fil1" transform="matrix(0.39685 -0.197651 0.265641 0.533362 254.407 213.345)" rx="18.54" ry="10.37"/>
   <path class="fil2" d="M199.05 159.67c-16.37,6.72 -21.84,19.89 -54.17,-31.12 -2.53,-3.99 1.41,-7.11 7.98,-7.04 16.95,0.18 44.8,-1.2 49.6,17.22 3.36,12.89 -2.6,20.61 -3.41,20.94z"/>
   <path class="fil2" d="M245.91 136.33c15.23,-9.01 29.04,-5.45 7.8,-61.98 -1.66,-4.43 -6.52,-3.17 -10.42,2.12 -10.07,13.64 -27.95,35.03 -16.14,49.97 8.26,10.45 18.01,10.33 18.76,9.89z"/>
   <ellipse class="fil1" transform="matrix(0.664924 0.114133 -0.114133 0.664924 218.68 161.727)" rx="5.97" ry="2.67"/>
   <ellipse class="fil1" transform="matrix(-0.330402 0.588205 0.588205 0.330402 235.261 157.769)" rx="5.97" ry="2.67"/>
   <ellipse class="fil1" transform="matrix(0.53284 -0.26538 0.26538 0.53284 148.718 126.42)" rx="7.86" ry="7.78"/>
   <ellipse class="fil1" transform="matrix(0.53284 -0.26538 0.26538 0.53284 249.668 76.1415)" rx="7.86" ry="7.78"/>
   <path class="fil5 str2" d="M244.94 215.23c-4.72,-4.54 -10.12,-9.06 -4.59,-15.75"/>
   <g>
    <ellipse class="fil4" transform="matrix(0.460493 0.139067 -0.139067 0.460493 221.84 178.471)" rx="15.09" ry="15.01"/>
    <circle class="fil1" transform="matrix(0.460493 0.139067 -0.139067 0.460493 223.405 177.6)" r="6.21"/>
    <polygon class="fil6" points="223.03,177.44 221.71,178.2 220.39,178.96 220.35,177.51 220.32,176.07 221.67,176.76 "/>
   </g>
   <g>
    <ellipse class="fil4" transform="matrix(0.460493 0.139067 -0.139067 0.460493 246.316 168.136)" rx="15.09" ry="15.01"/>
    <circle class="fil1" transform="matrix(0.460493 0.139067 -0.139067 0.460493 247.881 167.266)" r="6.21"/>
    <polygon class="fil6" points="247.51,167.11 246.19,167.87 244.87,168.62 244.83,167.18 244.79,165.74 246.15,166.42 "/>
   </g>
   <g>
    <path class="fil2" d="M117.65 182.83c2.04,1.87 3.18,7.52 5.23,9.4 -0.04,-18.4 -5.06,-38.6 1.24,-59.43 6.3,-20.82 29.25,-35.32 31.36,-55.25 1.36,-12.91 -5.95,-24.67 -14.74,-32.7 -18.52,-16.9 -11.81,-8.29 -13.5,5.51 -0.55,4.48 -1.98,9.85 -5.37,16.98 -8.23,17.27 -40.67,43.79 -42.5,68.37 -1.84,24.58 25.82,31.56 38.28,47.12z"/>
    <path class="fil3" d="M137.44 73.94c-0.24,1.11 -4.88,18.48 3.73,18.46 7.34,-0.01 9.32,-15 8.25,-22.48 -2.11,-14.85 -15.87,-28.33 -18.76,-30.13 -0.99,-0.62 10.97,14.78 6.78,34.15z"/>
   </g>
  </g>
  <g id="_2189959008736">
   <path class="fil2" d="M391.84 379.71l-13.17 -15.63 -10.49 -12.45c-4.17,3.51 -8.33,7.02 -12.49,10.52 2.08,2.48 4.17,4.95 6.25,7.42 2.19,2.6 1.86,6.51 -0.74,8.71 -1.94,1.63 -3.87,3.26 -5.81,4.89 -2.6,2.2 -6.51,1.86 -8.7,-0.74 -2.09,-2.47 -4.17,-4.94 -6.26,-7.42l-12.48 10.52 10.49 12.46 13.17 15.62 66.25 78.61 14.52 17.23 9.14 10.84 12.48 -10.52 -5.15 -6.12c-2.19,-2.6 -1.86,-6.51 0.74,-8.7l5.81 -4.9c2.6,-2.19 6.51,-1.86 8.71,0.74l5.15 6.12 12.49 -10.52 -9.14 -10.84 -14.53 -17.24 -66.24 -78.6z"/>
   <path class="fil1" d="M442.56 505.01l-3.74 3.15c-2.41,2.03 -2.72,5.65 -0.69,8.06l41.9 49.71c2.16,2.56 6.01,2.89 8.58,0.73 4.7,-3.96 9.41,-7.93 14.11,-11.89 2.89,-2.44 3.87,-6.27 2.5,-9.79 -1.36,-3.53 -4.67,-5.7 -8.45,-5.55 -2.36,0.09 -4.71,0.92 -6.67,2.52 -2.93,2.39 -7.26,1.98 -9.7,-0.92l-29.78 -35.33c-2.03,-2.41 -5.65,-2.72 -8.06,-0.69z"/>
   <path class="fil1" d="M337.3 387.96l3.73 -3.15c2.41,-2.03 2.72,-5.65 0.69,-8.06l-41.9 -49.71c-2.16,-2.56 -6.01,-2.89 -8.58,-0.73 -4.7,3.96 -9.4,7.93 -14.11,11.89 -2.89,2.44 -3.87,6.27 -2.5,9.8 1.37,3.52 4.67,5.69 8.45,5.54 2.36,-0.09 4.71,-0.92 6.67,-2.51 2.94,-2.4 7.27,-1.99 9.71,0.91l29.78 35.33c2.03,2.41 5.65,2.72 8.06,0.69z"/>
   <path class="fil1" d="M365.11 364.52l3.74 -3.15c2.41,-2.03 2.72,-5.65 0.69,-8.06l-41.9 -49.71c-2.16,-2.57 -6.02,-2.9 -8.58,-0.74 -4.7,3.97 -9.41,7.93 -14.11,11.9 -2.9,2.44 -3.88,6.27 -2.51,9.79 1.37,3.53 4.68,5.7 8.46,5.55 2.36,-0.09 4.7,-0.92 6.66,-2.52 2.94,-2.39 7.27,-1.98 9.71,0.92l29.78 35.33c2.03,2.41 5.65,2.72 8.06,0.69z"/>
   <path class="fil1" d="M337.4 387.87l3.74 -3.15c2.41,-2.03 2.72,-5.65 0.69,-8.06l-41.9 -49.71c-2.16,-2.56 -6.02,-2.89 -8.58,-0.73 -4.7,3.96 -9.41,7.93 -14.11,11.89 -2.9,2.44 -3.87,6.27 -2.51,9.8 1.37,3.52 4.68,5.69 8.46,5.54 2.36,-0.09 4.7,-0.92 6.66,-2.51 2.94,-2.39 7.27,-1.99 9.71,0.91l29.78 35.34c2.03,2.4 5.65,2.71 8.06,0.68z"/>
   <path class="fil1" d="M470.23 481.55l-3.74 3.16c-2.41,2.03 -2.72,5.65 -0.69,8.06l41.9 49.71c2.16,2.56 6.01,2.89 8.58,0.73 4.7,-3.97 9.41,-7.93 14.11,-11.89 2.89,-2.44 3.87,-6.27 2.5,-9.8 -1.36,-3.53 -4.67,-5.69 -8.45,-5.54 -2.36,0.09 -4.71,0.92 -6.66,2.51 -2.94,2.39 -7.27,1.98 -9.71,-0.91l-29.78 -35.34c-2.03,-2.41 -5.65,-2.72 -8.06,-0.69z"/>
   <g>
    <path class="fil3 str9" d="M492.77 514.82l-10.47 -36.87 -14.06 -49.52c-0.89,-3.15 -3.06,-5.45 -6.14,-6.53 -3.09,-1.07 -6.22,-0.62 -8.87,1.28l-24.72 17.73 -24.72 17.74c-2.66,1.9 -4.09,4.72 -4.06,7.99 0.03,3.26 1.52,6.06 4.21,7.91l42.41 29.2 31.56 21.73c3.44,2.36 7.78,2.32 11.18,-0.11 3.39,-2.43 4.82,-6.54 3.68,-10.55z"/>
    <path class="fil2 str10" d="M483.78 516.64c-12.64,-19.3 -15.9,-39.22 -7.94,-61.27l-7.69 -27.07c-0.89,-3.14 -3.06,-5.44 -6.14,-6.52 -3.08,-1.08 -6.22,-0.62 -8.87,1.28l-24.72 17.73 -24.72 17.73c-2.65,1.91 -4.09,4.73 -4.06,7.99 0.04,3.27 1.52,6.06 4.21,7.92l23.43 16.12c23.44,-0.47 40.87,8.94 55.1,27.09 0.44,-0.31 0.92,-0.66 1.4,-1z"/>
    <ellipse class="fil1" transform="matrix(0.360256 -0.258402 0.347289 0.48418 486.35 521.588)" rx="18.54" ry="10.37"/>
    <path class="fil2" d="M423.14 477.42c-15.09,9.26 -18.39,23.12 -58.44,-22.08 -3.13,-3.53 0.26,-7.24 6.76,-8.22 16.76,-2.53 44.03,-8.33 51.71,9.09 5.38,12.19 0.71,20.76 -0.03,21.21z"/>
    <path class="fil2" d="M465.68 446.91c13.6,-11.32 27.8,-10.01 -2.18,-62.43 -2.34,-4.1 -6.94,-2.09 -9.95,3.76 -7.77,15.06 -22.01,39.04 -7.97,51.9 9.82,9 19.43,7.33 20.1,6.77z"/>
    <ellipse class="fil1" transform="matrix(-0.673023 0.0467964 0.0467964 0.673023 456.602 467.881)" rx="5.97" ry="2.67"/>
    <ellipse class="fil1" transform="matrix(0.483706 -0.346949 0.346949 0.483706 368.152 452.627)" rx="7.86" ry="7.78"/>
    <ellipse class="fil1" transform="matrix(0.483706 -0.346949 0.346949 0.483706 459.793 386.895)" rx="7.86" ry="7.78"/>
    <path class="fil5 str2" d="M477.3 524.96c-5.38,-3.73 -11.43,-7.33 -7.03,-14.82"/>
    <g>
     <ellipse class="fil4" transform="matrix(0.39088 -0.280368 0.280368 0.39088 448.163 491.345)" rx="15.09" ry="15.01"/>
     <circle class="fil1" transform="matrix(0.39088 -0.280368 0.280368 0.39088 448.426 489.574)" r="6.21"/>
     <polygon class="fil6" points="448.07,489.78 447.87,491.28 447.67,492.79 446.5,491.94 445.33,491.09 446.7,490.43 "/>
    </g>
    <g>
     <ellipse class="fil4" transform="matrix(0.39088 -0.280368 0.280368 0.39088 470.319 475.587)" rx="15.09" ry="15.01"/>
     <circle class="fil1" transform="matrix(0.39088 -0.280368 0.280368 0.39088 470.582 473.816)" r="6.21"/>
     <polygon class="fil6" points="470.23,474.02 470.03,475.53 469.82,477.03 468.66,476.18 467.49,475.34 468.86,474.68 "/>
    </g>
    <ellipse class="fil1" transform="matrix(-0.673023 0.0467964 0.0467964 0.673023 443.477 477.216)" rx="5.97" ry="2.67"/>
   </g>
   <g>
    <path class="fil2" d="M381.06 388.83c-0.39,2.75 -4.41,6.89 -4.79,9.64 15.14,-10.45 28.95,-26.03 49.68,-32.63 20.73,-6.6 45.68,4.1 63.3,-5.45 11.42,-6.18 16.97,-18.87 18.6,-30.66 3.45,-24.84 0.15,-14.43 -12.19,-8.01 -3.99,2.08 -9.23,3.95 -17.03,5.19 -18.89,3 -59.13,-8.72 -80.42,3.69 -21.3,12.41 -11.39,39.16 -17.15,58.23z"/>
    <path class="fil3" d="M482.01 343.48c-1.05,0.43 -18,6.44 -13.1,13.54 4.16,6.03 17.63,-0.82 23.19,-5.93 11.05,-10.16 14.37,-29.13 14.22,-32.54 -0.06,-1.17 -5.97,17.42 -24.31,24.93z"/>
   </g>
  </g>
 </g>
</svg>
