<?xml version="1.0" encoding="UTF-8"?>
<!DOCTYPE svg PUBLIC "-//W3C//DTD SVG 1.1//EN" "http://www.w3.org/Graphics/SVG/1.1/DTD/svg11.dtd">
<!-- Creator: CorelDRAW 2020 (64-Bit) -->
<svg xmlns="http://www.w3.org/2000/svg" xml:space="preserve" width="826px" height="821px" version="1.1" style="shape-rendering:geometricPrecision; text-rendering:geometricPrecision; image-rendering:optimizeQuality; fill-rule:evenodd; clip-rule:evenodd"
viewBox="0 0 461.05 457.95"
 xmlns:xlink="http://www.w3.org/1999/xlink"
 xmlns:xodm="http://www.corel.com/coreldraw/odm/2003">
 <defs>
  <style type="text/css">
   <![CDATA[
    .fil1 {fill:#4D4D4D}
    .fil4 {fill:#7BA3B5}
    .fil7 {fill:#7BA3B5}
    .fil5 {fill:#99CCCC}
    .fil6 {fill:#99CCCC}
    .fil10 {fill:#ABB4DB}
    .fil11 {fill:#CCCCFF}
    .fil12 {fill:#CCFFCC}
    .fil2 {fill:#D6BA94}
    .fil14 {fill:#E38B8B}
    .fil17 {fill:#E38B8B}
    .fil15 {fill:#FAA8A8}
    .fil16 {fill:#FAA8A8}
    .fil3 {fill:#FCD99C}
    .fil8 {fill:#FFFFCC}
    .fil0 {fill:url(#id24)}
    .fil9 {fill:url(#id25)}
    .fil13 {fill:url(#id26)}
   ]]>
  </style>
    <mask id="id0">
  <linearGradient id="id1" gradientUnits="userSpaceOnUse" x1="52.49" y1="230.83" x2="91.97" y2="256.12">
   <stop offset="0" style="stop-opacity:1; stop-color:white"/>
   <stop offset="1" style="stop-opacity:0; stop-color:white"/>
  </linearGradient>
     <rect style="fill:url(#id1)" x="7.7" y="200.8" width="99.3" height="74.35"/>
    </mask>
    <mask id="id2">
  <linearGradient id="id3" gradientUnits="userSpaceOnUse" x1="218.44" y1="230.24" x2="294.51" y2="271.48">
   <stop offset="0" style="stop-opacity:1; stop-color:white"/>
   <stop offset="1" style="stop-opacity:0; stop-color:white"/>
  </linearGradient>
     <rect style="fill:url(#id3)" x="189.37" y="213.8" width="93.68" height="62.14"/>
    </mask>
    <mask id="id4">
  <linearGradient id="id5" gradientUnits="userSpaceOnUse" x1="241.34" y1="66.68" x2="272.91" y2="84.77">
   <stop offset="0" style="stop-opacity:1; stop-color:white"/>
   <stop offset="1" style="stop-opacity:0; stop-color:white"/>
  </linearGradient>
     <rect style="fill:url(#id5)" x="208.35" y="39.7" width="75.13" height="62.79"/>
    </mask>
    <mask id="id6">
  <linearGradient id="id7" gradientUnits="userSpaceOnUse" x1="54.71" y1="61.59" x2="93" y2="85.38">
   <stop offset="0" style="stop-opacity:1; stop-color:white"/>
   <stop offset="1" style="stop-opacity:0; stop-color:white"/>
  </linearGradient>
     <rect style="fill:url(#id7)" x="12.31" y="31.54" width="94.72" height="73.07"/>
    </mask>
    <mask id="id8">
  <linearGradient id="id9" gradientUnits="userSpaceOnUse" x1="54.71" y1="61.54" x2="93" y2="85.33">
   <stop offset="0" style="stop-opacity:1; stop-color:white"/>
   <stop offset="1" style="stop-opacity:0; stop-color:white"/>
  </linearGradient>
     <rect style="fill:url(#id9)" x="12.31" y="31.5" width="94.72" height="73.07"/>
    </mask>
    <mask id="id10">
  <linearGradient id="id11" gradientUnits="userSpaceOnUse" x1="229.26" y1="405.69" x2="269.92" y2="429.26">
   <stop offset="0" style="stop-opacity:1; stop-color:white"/>
   <stop offset="1" style="stop-opacity:0; stop-color:white"/>
  </linearGradient>
     <rect style="fill:url(#id11)" x="186.6" y="371.52" width="96.93" height="80.05"/>
    </mask>
    <mask id="id12">
  <linearGradient id="id13" gradientUnits="userSpaceOnUse" x1="406.72" y1="226.36" x2="449.15" y2="248.15">
   <stop offset="0" style="stop-opacity:1; stop-color:white"/>
   <stop offset="1" style="stop-opacity:0; stop-color:white"/>
  </linearGradient>
     <rect style="fill:url(#id13)" x="365.76" y="186.15" width="95.69" height="89"/>
    </mask>
    <mask id="id14">
  <linearGradient id="id15" gradientUnits="userSpaceOnUse" x1="54.71" y1="413.19" x2="93" y2="436.98">
   <stop offset="0" style="stop-opacity:1; stop-color:white"/>
   <stop offset="1" style="stop-opacity:0; stop-color:white"/>
  </linearGradient>
     <rect style="fill:url(#id15)" x="12.31" y="383.14" width="94.72" height="73.07"/>
    </mask>
    <mask id="id16">
  <linearGradient id="id17" gradientUnits="userSpaceOnUse" x1="55.49" y1="415.94" x2="91.16" y2="441.19">
   <stop offset="0" style="stop-opacity:1; stop-color:white"/>
   <stop offset="1" style="stop-opacity:0; stop-color:white"/>
  </linearGradient>
     <rect style="fill:url(#id17)" x="11.22" y="391.35" width="95.58" height="64.86"/>
    </mask>
    <mask id="id18">
  <linearGradient id="id19" gradientUnits="userSpaceOnUse" x1="409.39" y1="61.59" x2="447.69" y2="85.38">
   <stop offset="0" style="stop-opacity:1; stop-color:white"/>
   <stop offset="1" style="stop-opacity:0; stop-color:white"/>
  </linearGradient>
     <rect style="fill:url(#id19)" x="366.99" y="31.54" width="94.72" height="73.07"/>
    </mask>
    <mask id="id20">
  <linearGradient id="id21" gradientUnits="userSpaceOnUse" x1="410.17" y1="64.34" x2="445.85" y2="89.6">
   <stop offset="0" style="stop-opacity:1; stop-color:white"/>
   <stop offset="1" style="stop-opacity:0; stop-color:white"/>
  </linearGradient>
     <rect style="fill:url(#id21)" x="365.9" y="39.75" width="95.58" height="64.86"/>
    </mask>
    <mask id="id22">
  <linearGradient id="id23" gradientUnits="userSpaceOnUse" x1="390.88" y1="417.15" x2="467.26" y2="442.12">
   <stop offset="0" style="stop-opacity:1; stop-color:white"/>
   <stop offset="1" style="stop-opacity:0; stop-color:white"/>
  </linearGradient>
     <rect style="fill:url(#id23)" x="372.63" y="360.1" width="88.67" height="96.96"/>
    </mask>
  <linearGradient id="id24" gradientUnits="objectBoundingBox" x1="6.69873%" y1="25%" x2="93.3013%" y2="75%">
   <stop offset="0" style="stop-opacity:1; stop-color:#999999"/>
   <stop offset="1" style="stop-opacity:1; stop-color:#3D3C3C"/>
  </linearGradient>
  <linearGradient id="id25" gradientUnits="objectBoundingBox" x1="6.69873%" y1="25%" x2="93.3013%" y2="75%">
   <stop offset="0" style="stop-opacity:1; stop-color:#999999"/>
   <stop offset="1" style="stop-opacity:1; stop-color:#4D4D4D"/>
  </linearGradient>
  <linearGradient id="id26" gradientUnits="userSpaceOnUse" xlink:href="#id25" x1="401.42" y1="13.05" x2="416.18" y2="25.95">
  </linearGradient>
 </defs>
 <g id="Layer_x0020_1">
  <metadata id="CorelCorpID_0Corel-Layer"/>
  <g id="_2168974760480">
   <circle class="fil0" cx="53.19" cy="223.66" r="53.18"/>
   <path class="fil1" style="mask:url(#id0)" d="M28.74 201.46l43.2 18.35 8.37 -13.06 25.96 16.02c1.17,19.48 -12.44,44.37 -37.55,51.72l-60.36 -37.04 22.15 -11.36 -11.29 -10.95 9.52 -13.68z"/>
   <g>
    <path class="fil2" d="M42.22 237.63c-0.65,-8.69 -5.51,-15.86 -12.02,-18.27 -1.22,1.26 -2.93,2.04 -4.82,2.04l0 16.23 16.84 0z"/>
    <path class="fil3" d="M8.54 237.63c0.64,-8.69 5.51,-15.86 12.01,-18.27 1.22,1.26 2.93,2.04 4.83,2.04l0 0 0 16.23 -16.84 0z"/>
    <path class="fil3" d="M25.38 209.29l0 8.46c-4.67,0 -8.46,-3.79 -8.46,-8.46 0,-4.67 3.79,-8.45 8.46,-8.45l0 8.45z"/>
    <path class="fil2" d="M25.38 209.29l0 8.46c4.67,0 8.45,-3.79 8.45,-8.46 0,-4.67 -3.78,-8.45 -8.45,-8.45l0 8.45z"/>
   </g>
   <g>
    <g>
     <path class="fil4" d="M95.3 247.93c-0.73,-9.95 -6.3,-18.15 -13.75,-20.91 -1.4,1.44 -3.36,2.34 -5.53,2.34l0 18.57 19.28 0z"/>
     <path class="fil5" d="M56.75 247.93c0.73,-9.95 6.3,-18.15 13.75,-20.91 1.4,1.44 3.36,2.34 5.52,2.34l0 0 0 18.57 -19.27 0z"/>
    </g>
    <g>
     <path class="fil6" d="M76.02 215.49l0 9.68c-5.34,0 -9.68,-4.33 -9.68,-9.68 0,-5.34 4.34,-9.67 9.68,-9.67l0 9.67z"/>
     <path class="fil7" d="M76.02 215.49l0 9.68c5.35,0 9.68,-4.33 9.68,-9.68 0,-5.34 -4.33,-9.67 -9.68,-9.67l0 9.67z"/>
    </g>
   </g>
   <path class="fil8" d="M51.67 184.29l21.62 0c1.85,0 3.37,1.51 3.37,3.36l0 10.34c0,1.85 -1.52,3.37 -3.37,3.37l-0.99 0 -1.22 2.8 -1.15 2.63c-0.15,0.35 -0.41,0.55 -0.72,0.55 -0.3,0 -0.57,-0.2 -0.72,-0.55l-1.14 -2.63 -1.22 -2.8 -14.46 0c-1.85,0 -3.37,-1.52 -3.37,-3.37l0 -10.34c0,-1.85 1.52,-3.36 3.37,-3.36z"/>
  </g>
  <g id="_2168963822048">
   <circle class="fil9" cx="229.66" cy="223.66" r="53.18"/>
   <path class="fil1" style="mask:url(#id2)" d="M211.96 215.58l22.48 21.97 -7.99 -13.95 9.89 -9.03 22.03 22.59 -6.31 -12.47 8.75 -10.23 21.58 16.7c-4.57,22.05 -17.13,37.55 -39.99,44.12l-52.37 -28.75 19.94 -10.11 -8.91 -9.88 10.9 -10.96z"/>
   <g>
    <g>
     <path class="fil4" d="M221.3 246.53c-0.6,-8.07 -5.12,-14.73 -11.17,-16.97 -1.13,1.16 -2.72,1.89 -4.48,1.89l0 15.08 15.65 0z"/>
     <path class="fil5" d="M190 246.53c0.59,-8.07 5.12,-14.73 11.16,-16.97 1.14,1.16 2.73,1.89 4.49,1.89l0 0 0 15.08 -15.65 0z"/>
    </g>
    <g>
     <path class="fil6" d="M205.65 220.2l0 7.86c-4.34,0 -7.86,-3.52 -7.86,-7.86 0,-4.34 3.52,-7.86 7.86,-7.86l0 7.86z"/>
     <path class="fil7" d="M205.65 220.2l0 7.86c4.34,0 7.86,-3.52 7.86,-7.86 0,-4.34 -3.52,-7.86 -7.86,-7.86l0 7.86z"/>
    </g>
   </g>
   <g>
    <path class="fil2" d="M246.52 246.53c-0.6,-8.07 -5.12,-14.73 -11.17,-16.97 -1.13,1.16 -2.72,1.89 -4.48,1.89l0 15.08 15.65 0z"/>
    <path class="fil3" d="M215.22 246.53c0.59,-8.07 5.11,-14.73 11.16,-16.97 1.14,1.16 2.73,1.89 4.49,1.89l0 0 0 15.08 -15.65 0z"/>
    <path class="fil3" d="M230.87 220.2l0 7.86c-4.34,0 -7.86,-3.52 -7.86,-7.86 0,-4.34 3.52,-7.86 7.86,-7.86l0 7.86z"/>
    <path class="fil2" d="M230.87 220.2l0 7.86c4.34,0 7.86,-3.52 7.86,-7.86 0,-4.34 -3.52,-7.86 -7.86,-7.86l0 7.86z"/>
   </g>
   <g>
    <path class="fil10" d="M271.12 246.53c-0.59,-8.07 -5.12,-14.73 -11.16,-16.97 -1.14,1.16 -2.73,1.89 -4.49,1.89l0 15.08 15.65 0z"/>
    <path class="fil11" d="M239.82 246.53c0.6,-8.07 5.12,-14.73 11.17,-16.97 1.13,1.16 2.72,1.89 4.48,1.89l0 0 0 15.08 -15.65 0z"/>
    <path class="fil11" d="M255.47 220.2l0 7.86c-4.34,0 -7.86,-3.52 -7.86,-7.86 0,-4.34 3.52,-7.86 7.86,-7.86l0 7.86z"/>
    <path class="fil10" d="M255.47 220.2l0 7.86c4.34,0 7.86,-3.52 7.86,-7.86 0,-4.34 -3.52,-7.86 -7.86,-7.86l0 7.86z"/>
   </g>
   <g>
    <circle class="fil8" cx="230.8" cy="201.76" r="2.43"/>
    <rect class="fil8" x="228.43" y="181.77" width="4.75" height="15.31" rx="3.21" ry="2.27"/>
   </g>
  </g>
  <g id="_2168974757792">
   <circle class="fil0" cx="229.66" cy="53.18" r="53.18"/>
   <path class="fil1" style="mask:url(#id4)" d="M234.11 40.36l48.67 12.07c0.82,20.68 -13.08,41.36 -31.71,49.4l-42.06 -17.1 25.89 -14.65 -11.94 -12.3 11.15 -17.42z"/>
   <g>
    <path class="fil8" d="M229.38 10.3c3.59,0 6.5,2.91 6.5,6.5 0,2.72 -1.68,5.05 -4.05,6.02 -0.68,0.28 -1.11,0.9 -1.11,1.64l0 0.55c0,0.49 -0.39,0.88 -0.88,0.88l-1.5 0c-0.49,0 -0.89,-0.39 -0.89,-0.88l0 -0.87c0,-4.85 5.16,-3.11 5.16,-7.34 0,-1.79 -1.45,-3.23 -3.23,-3.23 -1.19,0 -2.23,0.64 -2.79,1.6 -0.92,1.57 -3.96,0.48 -2.94,-1.43 1.09,-2.05 3.25,-3.44 5.73,-3.44z"/>
    <circle class="fil8" cx="229.36" cy="30.83" r="2.43"/>
   </g>
   <g>
    <path class="fil2" d="M250.42 84.76c-0.79,-10.72 -6.79,-19.55 -14.81,-22.53 -1.51,1.55 -3.62,2.52 -5.95,2.52l0 20.01 20.76 0z"/>
    <path class="fil3" d="M208.89 84.76c0.8,-10.72 6.79,-19.55 14.82,-22.53 1.51,1.55 3.61,2.52 5.95,2.52l0 0 0 20.01 -20.77 0z"/>
    <path class="fil3" d="M229.66 49.81l0 10.43c-5.76,0 -10.43,-4.67 -10.43,-10.43 0,-5.75 4.67,-10.42 10.43,-10.42l0 10.42z"/>
    <path class="fil2" d="M229.66 49.81l0 10.43c5.76,0 10.43,-4.67 10.43,-10.43 0,-5.75 -4.67,-10.42 -10.43,-10.42l0 10.42z"/>
   </g>
  </g>
  <g id="_2168963814704">
   <circle class="fil0" cx="53.18" cy="53.18" r="53.18"/>
   <path class="fil1" style="mask:url(#id6)" d="M33 32.2l46.03 14.87 4.65 -13.91 21.57 9.19c6.06,30.15 -13.39,54.88 -36.37,61.6l-55.91 -35.59 21.28 -15.59 -9.2 -5.76 7.95 -14.81z"/>
   <g>
    <g>
     <g>
      <path class="fil4" d="M46.65 68.37c-0.64,-8.69 -5.51,-15.86 -12.01,-18.27 -1.22,1.26 -2.93,2.04 -4.83,2.04l0 16.23 16.84 0z"/>
      <path class="fil5" d="M12.97 68.37c0.65,-8.69 5.51,-15.86 12.02,-18.27 1.22,1.26 2.93,2.04 4.82,2.04l0 0 0 16.23 -16.84 0z"/>
     </g>
     <g>
      <path class="fil6" d="M29.81 40.03l0 8.46c-4.67,0 -8.45,-3.79 -8.45,-8.46 0,-4.67 3.78,-8.45 8.45,-8.45l0 8.45z"/>
      <path class="fil7" d="M29.81 40.03l0 8.46c4.67,0 8.46,-3.79 8.46,-8.46 0,-4.67 -3.79,-8.45 -8.46,-8.45l0 8.45z"/>
     </g>
    </g>
    <g>
     <path class="fil10" d="M95.64 68.37c-0.64,-8.69 -5.5,-15.86 -12.01,-18.27 -1.22,1.26 -2.93,2.04 -4.83,2.04l0 16.23 16.84 0z"/>
     <path class="fil11" d="M61.97 68.37c0.64,-8.69 5.5,-15.86 12.01,-18.27 1.22,1.26 2.93,2.04 4.82,2.04l0 0 0 16.23 -16.83 0z"/>
     <path class="fil11" d="M78.8 40.03l0 8.46c-4.67,0 -8.45,-3.79 -8.45,-8.46 0,-4.67 3.78,-8.45 8.45,-8.45l0 8.45z"/>
     <path class="fil10" d="M78.8 40.03l0 8.46c4.67,0 8.46,-3.79 8.46,-8.46 0,-4.67 -3.79,-8.45 -8.46,-8.45l0 8.45z"/>
    </g>
   </g>
   <g>
    <path class="fil2" d="M75.07 85.73c-0.79,-10.71 -6.79,-19.55 -14.81,-22.52 -1.51,1.55 -3.62,2.51 -5.95,2.51l0 20.01 20.76 0z"/>
    <path class="fil3" d="M33.54 85.73c0.79,-10.71 6.79,-19.55 14.82,-22.52 1.51,1.55 3.61,2.51 5.95,2.51l0 0 0 20.01 -20.77 0z"/>
    <path class="fil3" d="M54.31 50.79l0 10.43c-5.76,0 -10.43,-4.67 -10.43,-10.43 0,-5.76 4.67,-10.43 10.43,-10.43l0 10.43z"/>
    <path class="fil2" d="M54.31 50.79l0 10.43c5.76,0 10.43,-4.67 10.43,-10.43 0,-5.76 -4.67,-10.43 -10.43,-10.43l0 10.43z"/>
   </g>
   <path class="fil12" d="M49.89 24.74l4.07 4.08c0.16,0.16 0.42,0.16 0.58,0l6.41 -6.41c0.7,-0.71 1.86,-0.71 2.57,0l0.23 0.23c0.71,0.71 0.71,1.86 0,2.57l-6.7 6.7 -2.51 2.51c-0.16,0.16 -0.42,0.16 -0.58,0l-2.51 -2.51 -4.36 -4.36c-0.71,-0.71 -0.71,-1.87 0,-2.57l0.23 -0.24c0.71,-0.7 1.86,-0.7 2.57,0z"/>
   <circle class="fil0" cx="53.18" cy="53.18" r="53.18"/>
   <path class="fil1" style="mask:url(#id8)" d="M33 32.16l21.47 14.33 3.85 -5.32 23.33 15.71 -7.22 -11.46 9.25 -12.26 21.57 9.19c6.06,30.15 -13.39,54.83 -36.37,61.56l-35.28 -18.31 5.22 -0.83 -25.85 -16.45 21.28 -15.55 -9.2 -5.76 7.95 -14.85z"/>
   <g>
    <g>
     <g>
      <path class="fil4" d="M46.65 68.37c-0.64,-8.69 -5.51,-15.86 -12.01,-18.27 -1.22,1.26 -2.93,2.04 -4.83,2.04l0 16.23 16.84 0z"/>
      <path class="fil5" d="M12.97 68.37c0.65,-8.69 5.51,-15.86 12.02,-18.27 1.22,1.26 2.93,2.04 4.82,2.04l0 0 0 16.23 -16.84 0z"/>
     </g>
     <g>
      <path class="fil6" d="M29.81 40.03l0 8.46c-4.67,0 -8.45,-3.79 -8.45,-8.46 0,-4.67 3.78,-8.45 8.45,-8.45l0 8.45z"/>
      <path class="fil7" d="M29.81 40.03l0 8.46c4.67,0 8.46,-3.79 8.46,-8.46 0,-4.67 -3.79,-8.45 -8.46,-8.45l0 8.45z"/>
     </g>
    </g>
    <g>
     <path class="fil10" d="M95.64 68.37c-0.64,-8.69 -5.5,-15.86 -12.01,-18.27 -1.22,1.26 -2.93,2.04 -4.83,2.04l0 16.23 16.84 0z"/>
     <path class="fil11" d="M61.97 68.37c0.64,-8.69 5.5,-15.86 12.01,-18.27 1.22,1.26 2.93,2.04 4.82,2.04l0 0 0 16.23 -16.83 0z"/>
     <path class="fil11" d="M78.8 40.03l0 8.46c-4.67,0 -8.45,-3.79 -8.45,-8.46 0,-4.67 3.78,-8.45 8.45,-8.45l0 8.45z"/>
     <path class="fil10" d="M78.8 40.03l0 8.46c4.67,0 8.46,-3.79 8.46,-8.46 0,-4.67 -3.79,-8.45 -8.46,-8.45l0 8.45z"/>
    </g>
   </g>
   <g>
    <path class="fil2" d="M75.07 85.73c-0.79,-10.71 -6.79,-19.55 -14.81,-22.52 -1.51,1.55 -3.62,2.51 -5.95,2.51l0 20.01 20.76 0z"/>
    <path class="fil3" d="M33.54 85.73c0.79,-10.71 6.79,-19.55 14.82,-22.52 1.51,1.55 3.61,2.51 5.95,2.51l0 0 0 20.01 -20.77 0z"/>
    <path class="fil3" d="M54.31 50.79l0 10.43c-5.76,0 -10.43,-4.67 -10.43,-10.43 0,-5.76 4.67,-10.43 10.43,-10.43l0 10.43z"/>
    <path class="fil2" d="M54.31 50.79l0 10.43c5.76,0 10.43,-4.67 10.43,-10.43 0,-5.76 -4.67,-10.43 -10.43,-10.43l0 10.43z"/>
   </g>
   <path class="fil12" d="M49.89 24.74l4.07 4.08c0.16,0.16 0.42,0.16 0.58,0l6.41 -6.41c0.7,-0.71 1.86,-0.71 2.57,0l0.23 0.23c0.71,0.71 0.71,1.86 0,2.57l-6.7 6.7 -2.51 2.51c-0.16,0.16 -0.42,0.16 -0.58,0l-2.51 -2.51 -4.36 -4.36c-0.71,-0.71 -0.71,-1.87 0,-2.57l0.23 -0.24c0.71,-0.7 1.86,-0.7 2.57,0z"/>
  </g>
  <g id="_2169401577840">
   <circle class="fil0" cx="229.62" cy="404.77" r="53.18"/>
   <path class="fil1" style="mask:url(#id10)" d="M201.81 372.18l80.98 30.42c1.21,20.24 -10.87,39.44 -27.02,48.31l-26.22 -14.06 5.41 -5.42 -47.7 -33.47 18.56 -4.34 -9.62 -10.72 5.61 -10.72z"/>
   <path class="fil2" d="M211.36 398.09c-0.47,-6.25 -3.97,-11.4 -8.65,-13.14 -0.88,0.91 -2.11,1.47 -3.47,1.47l0 11.67 12.12 0z"/>
   <path class="fil3" d="M187.12 398.09c0.46,-6.25 3.96,-11.4 8.65,-13.14 0.88,0.91 2.11,1.47 3.47,1.47l0 0 0 11.67 -12.12 0z"/>
   <path class="fil3" d="M199.24 377.7l0 6.09c-3.36,0 -6.09,-2.72 -6.09,-6.09 0,-3.36 2.73,-6.08 6.09,-6.08l0 6.08z"/>
   <path class="fil2" d="M199.24 377.7l0 6.09c3.36,0 6.08,-2.72 6.08,-6.09 0,-3.36 -2.72,-6.08 -6.08,-6.08l0 6.08z"/>
   <path class="fil4" d="M262.67 436.88c-0.63,-8.54 -5.41,-15.58 -11.8,-17.94 -1.2,1.23 -2.88,2 -4.74,2l0 15.94 16.54 0z"/>
   <path class="fil5" d="M229.58 436.88c0.63,-8.53 5.41,-15.57 11.8,-17.94 1.2,1.23 2.88,2 4.74,2l0.01 0 0 15.94 -16.55 0z"/>
   <path class="fil6" d="M246.13 409.04l0 8.31c-4.59,0 -8.31,-3.72 -8.31,-8.31 0,-4.59 3.72,-8.31 8.31,-8.31l0 8.31z"/>
   <path class="fil7" d="M246.13 409.04l0 8.31c4.58,0 8.3,-3.72 8.3,-8.31 0,-4.59 -3.72,-8.31 -8.3,-8.31l0 8.31z"/>
   <rect class="fil8" transform="matrix(-0.349538 -0.0529338 -0.0529338 0.349538 261.516 402.957)" width="13.08" height="33.13" rx="15.16" ry="15.16"/>
   <rect class="fil8" transform="matrix(-0.163108 -0.024701 -0.024701 0.163108 262.59 406.52)" width="13.08" height="33.13" rx="15.16" ry="15.16"/>
   <rect class="fil8" transform="matrix(0.349538 -0.0529338 0.0529338 0.349538 230.639 403.11)" width="13.08" height="33.13" rx="15.16" ry="15.16"/>
   <rect class="fil8" transform="matrix(0.163108 -0.024701 0.024701 0.163108 229.565 406.674)" width="13.08" height="33.13" rx="15.16" ry="15.16"/>
   <path class="fil8" d="M246.08 393.48c6.85,0 12.45,4.92 12.75,11.09l-2.02 0c-0.3,-5.16 -4.99,-9.25 -10.73,-9.25 -5.74,0 -10.43,4.09 -10.74,9.25l-2.02 0c0.31,-6.17 5.9,-11.09 12.76,-11.09z"/>
   <rect class="fil8" x="240.63" y="411.62" width="5.49" height="3.79" rx="1.72" ry="2.33"/>
   <path class="fil8" d="M234.58 410.19c1.99,1.79 4.59,2.75 7.28,2.48l0.32 2c-3.94,0.43 -7.7,-1.36 -10.19,-4.48l2.59 0z"/>
   <path class="fil12" d="M225.79 399.17c1.28,2.02 1.41,4.68 0.12,6.88 -1.3,2.21 -3.68,3.39 -6.08,3.26 -0.2,-0.01 -0.37,-0.12 -0.47,-0.31 -0.1,-0.18 -0.1,-0.38 0.01,-0.56l0.37 -0.64c0.11,-0.18 0.29,-0.28 0.5,-0.28 1.64,-0.01 3.23,-0.86 4.12,-2.37 0.89,-1.52 0.86,-3.33 0.06,-4.77 -0.1,-0.18 -0.09,-0.39 0.01,-0.57l0.37 -0.62c0.11,-0.18 0.28,-0.29 0.49,-0.29 0.21,0 0.39,0.09 0.5,0.27z"/>
   <path class="fil12" d="M221.29 397.84c0.86,1.66 0.88,3.7 -0.14,5.42 -1.01,1.73 -2.8,2.71 -4.66,2.76 -0.25,0.01 -0.47,-0.11 -0.59,-0.32 -0.13,-0.22 -0.13,-0.47 -0.01,-0.68l0.18 -0.29c0.11,-0.2 0.3,-0.32 0.53,-0.33 1.24,-0.08 2.43,-0.76 3.11,-1.91 0.67,-1.16 0.69,-2.52 0.15,-3.65 -0.1,-0.2 -0.09,-0.43 0.03,-0.62l0.24 -0.41c0.12,-0.21 0.34,-0.33 0.59,-0.32 0.25,0 0.46,0.13 0.57,0.35z"/>
   <path class="fil12" d="M216.32 396.55c0.74,1.15 0.83,2.67 0.09,3.93 -0.74,1.26 -2.11,1.92 -3.47,1.83 -0.21,-0.02 -0.39,-0.13 -0.49,-0.32 -0.1,-0.19 -0.09,-0.39 0.02,-0.58l0.18 -0.32c0.12,-0.19 0.3,-0.3 0.52,-0.29 0.77,0 1.51,-0.39 1.93,-1.09 0.41,-0.71 0.39,-1.55 0.01,-2.21 -0.11,-0.2 -0.11,-0.41 0.01,-0.6l0.19 -0.32c0.1,-0.19 0.28,-0.29 0.49,-0.3 0.22,0 0.4,0.1 0.52,0.27z"/>
  </g>
  <g id="_2169404286560">
   <circle class="fil0" cx="407.87" cy="223.66" r="53.18"/>
   <path class="fil1" style="mask:url(#id12)" d="M442.8 208.38l-9.75 -10.19 8.3 -10.54 16.14 16.79c11.82,33.95 -10.2,63.23 -33.92,70.05l-28.49 -12.07 16.41 -8.54 -45.07 -38.49 15.83 -10.26 -6.96 -7.19 7.07 -11.13 60.44 21.57z"/>
   <g>
    <g>
     <path class="fil2" d="M393.1 215.4c-0.51,-6.89 -4.37,-12.57 -9.52,-14.48 -0.97,1 -2.33,1.61 -3.83,1.61l0 12.87 13.35 0z"/>
     <path class="fil3" d="M366.41 215.4c0.5,-6.89 4.36,-12.57 9.52,-14.48 0.97,1 2.32,1.61 3.82,1.61l0 0 0 12.87 -13.34 0z"/>
     <path class="fil3" d="M379.75 192.94l0 6.7c-3.7,0 -6.7,-3 -6.7,-6.7 0,-3.7 3,-6.7 6.7,-6.7l0 6.7z"/>
     <path class="fil2" d="M379.75 192.94l0 6.7c3.7,0 6.71,-3 6.71,-6.7 0,-3.7 -3.01,-6.7 -6.71,-6.7l0 6.7z"/>
    </g>
    <g>
     <path class="fil2" d="M450.57 215.4c-0.51,-6.89 -4.37,-12.57 -9.53,-14.48 -0.97,1 -2.32,1.61 -3.82,1.61l0 12.87 13.35 0z"/>
     <path class="fil3" d="M423.87 215.4c0.51,-6.89 4.37,-12.57 9.52,-14.48 0.97,1 2.33,1.61 3.83,1.61l0 0 0 12.87 -13.35 0z"/>
     <path class="fil3" d="M437.22 192.94l0 6.7c-3.7,0 -6.7,-3 -6.7,-6.7 0,-3.7 3,-6.7 6.7,-6.7l0 6.7z"/>
     <path class="fil2" d="M437.22 192.94l0 6.7c3.7,0 6.7,-3 6.7,-6.7 0,-3.7 -3,-6.7 -6.7,-6.7l0 6.7z"/>
    </g>
   </g>
   <g>
    <path class="fil2" d="M421.83 262.37c-0.51,-6.88 -4.36,-12.56 -9.52,-14.47 -0.97,0.99 -2.32,1.61 -3.82,1.61l0 12.86 13.34 0z"/>
    <path class="fil3" d="M395.14 262.37c0.51,-6.88 4.36,-12.56 9.52,-14.47 0.97,0.99 2.33,1.61 3.83,1.61l0 0 0 12.86 -13.35 0z"/>
    <path class="fil3" d="M408.49 239.91l0 6.71c-3.71,0 -6.71,-3 -6.71,-6.71 0,-3.7 3,-6.7 6.71,-6.7l0 6.7z"/>
    <path class="fil2" d="M408.49 239.91l0 6.71c3.7,0 6.7,-3 6.7,-6.71 0,-3.7 -3,-6.7 -6.7,-6.7l0 6.7z"/>
   </g>
   <path class="fil12" d="M382.17 224.68c-2.31,5.98 -1.45,12.01 4.66,14.78l-0.59 -1.19c-0.27,-0.53 -0.05,-1.18 0.48,-1.45l0.1 -0.04c0.53,-0.27 1.18,-0.05 1.44,0.48l2.27 4.54c0.13,0.26 0.02,0.58 -0.24,0.7l-4.54 2.27c-0.53,0.27 -1.18,0.05 -1.44,-0.48l-0.05 -0.09c-0.27,-0.54 -0.05,-1.19 0.48,-1.45l1.19 -0.59c-7.42,-3.19 -11.37,-11.43 -8.98,-19.28 0.2,-0.67 0.62,-1.17 1.24,-1.49 0.63,-0.32 1.28,-0.37 1.94,-0.15l0.49 0.16c0.68,0.23 1.17,0.67 1.48,1.31 0.3,0.64 0.32,1.31 0.07,1.97z"/>
   <path class="fil12" d="M434.27 224.68c2.3,5.98 1.45,12.01 -4.66,14.78l0.59 -1.19c0.26,-0.53 0.05,-1.18 -0.49,-1.45l-0.09 -0.04c-0.53,-0.27 -1.18,-0.05 -1.45,0.48l-2.26 4.54c-0.13,0.26 -0.03,0.58 0.23,0.7l4.54 2.27c0.53,0.27 1.19,0.05 1.45,-0.48l0.05 -0.09c0.26,-0.54 0.04,-1.19 -0.49,-1.45l-1.18 -0.59c7.42,-3.19 11.37,-11.43 8.98,-19.28 -0.2,-0.67 -0.62,-1.17 -1.25,-1.49 -0.62,-0.32 -1.27,-0.37 -1.94,-0.15l-0.49 0.16c-0.67,0.23 -1.17,0.67 -1.47,1.31 -0.3,0.64 -0.33,1.31 -0.07,1.97z"/>
   <path class="fil12" d="M413.85 201.92l0.08 -0.08c0.44,-0.43 1.15,-0.43 1.59,0l3.74 3.74c0.21,0.21 0.21,0.56 0,0.77l-3.74 3.74c-0.44,0.44 -1.15,0.44 -1.59,0l-0.08 -0.08c-0.43,-0.43 -0.43,-1.15 0,-1.59l0.93 -0.92 -11.88 0 0.93 0.92c0.44,0.44 0.44,1.16 0,1.59l-0.08 0.08c-0.43,0.44 -1.15,0.44 -1.59,0l-3.73 -3.74c-0.21,-0.21 -0.21,-0.56 0,-0.77l3.73 -3.74c0.44,-0.43 1.16,-0.43 1.59,0l0.08 0.08c0.44,0.44 0.44,1.15 0,1.59l-0.93 0.93 11.88 0 -0.93 -0.93c-0.43,-0.44 -0.43,-1.15 0,-1.59z"/>
  </g>
  <g id="_2168970192160">
   <circle class="fil0" cx="53.18" cy="404.77" r="53.18"/>
   <path class="fil1" style="mask:url(#id14)" d="M33 383.8l46.03 14.87 4.65 -13.91 21.57 9.19c6.06,30.15 -13.39,54.87 -36.37,61.6l-55.91 -35.59 21.28 -15.59 -9.2 -5.76 7.95 -14.81z"/>
   <path class="fil4" d="M46.65 428.53c-0.64,-8.69 -5.51,-15.85 -12.01,-18.26 -1.22,1.25 -2.93,2.04 -4.83,2.04l0 16.22 16.84 0z"/>
   <path class="fil5" d="M12.97 428.53c0.65,-8.69 5.51,-15.85 12.02,-18.26 1.22,1.25 2.93,2.04 4.82,2.04l0 0 0 16.22 -16.84 0z"/>
   <path class="fil6" d="M29.81 400.2l0 8.45c-4.67,0 -8.45,-3.78 -8.45,-8.45 0,-4.67 3.78,-8.46 8.45,-8.46l0 8.46z"/>
   <path class="fil7" d="M29.81 400.2l0 8.45c4.67,0 8.46,-3.78 8.46,-8.45 0,-4.67 -3.79,-8.46 -8.46,-8.46l0 8.46z"/>
   <path class="fil10" d="M95.64 428.53c-0.64,-8.69 -5.5,-15.85 -12.01,-18.26 -1.22,1.25 -2.93,2.04 -4.83,2.04l0 16.22 16.84 0z"/>
   <path class="fil11" d="M61.97 428.53c0.64,-8.69 5.5,-15.85 12.01,-18.26 1.22,1.25 2.93,2.04 4.82,2.04l0 0 0 16.22 -16.83 0z"/>
   <path class="fil11" d="M78.8 400.2l0 8.45c-4.67,0 -8.45,-3.78 -8.45,-8.45 0,-4.67 3.78,-8.46 8.45,-8.46l0 8.46z"/>
   <path class="fil10" d="M78.8 400.2l0 8.45c4.67,0 8.46,-3.78 8.46,-8.45 0,-4.67 -3.79,-8.46 -8.46,-8.46l0 8.46z"/>
   <path class="fil2" d="M75.07 437.33c-0.79,-10.72 -6.79,-19.55 -14.81,-22.52 -1.51,1.55 -3.62,2.51 -5.95,2.51l0 20.01 20.76 0z"/>
   <path class="fil3" d="M33.54 437.33c0.79,-10.71 6.79,-19.55 14.82,-22.52 1.51,1.55 3.61,2.51 5.95,2.51l0 0 0 20.01 -20.77 0z"/>
   <path class="fil3" d="M54.31 402.39l0 10.43c-5.76,0 -10.43,-4.67 -10.43,-10.43 0,-5.76 4.67,-10.43 10.43,-10.43l0 10.43z"/>
   <path class="fil2" d="M54.31 402.39l0 10.43c5.76,0 10.43,-4.67 10.43,-10.43 0,-5.76 -4.67,-10.43 -10.43,-10.43l0 10.43z"/>
   <circle class="fil0" cx="53.18" cy="404.77" r="53.18"/>
   <path class="fil1" style="mask:url(#id16)" d="M30.75 392.01l48.28 6.66 2.18 -6.21 24.77 6.58c1.91,27.53 -14.12,49.78 -37.1,56.51l-57 -27.09 20.05 -12.43 -8.21 -9.07 7.03 -14.95z"/>
   <path class="fil4" d="M45.52 428.53c-0.64,-8.69 -5.51,-15.85 -12.01,-18.26 -1.23,1.25 -2.94,2.04 -4.83,2.04l0 16.22 16.84 0z"/>
   <path class="fil5" d="M11.84 428.53c0.64,-8.69 5.51,-15.85 12.01,-18.26 1.23,1.25 2.94,2.04 4.83,2.04l0 0 0 16.22 -16.84 0z"/>
   <path class="fil6" d="M28.68 400.2l0 8.45c-4.67,0 -8.46,-3.78 -8.46,-8.45 0,-4.67 3.79,-8.46 8.46,-8.46l0 8.46z"/>
   <path class="fil7" d="M28.68 400.2l0 8.45c4.67,0 8.46,-3.78 8.46,-8.45 0,-4.67 -3.79,-8.46 -8.46,-8.46l0 8.46z"/>
   <path class="fil10" d="M94.51 428.53c-0.64,-8.69 -5.51,-15.85 -12.01,-18.26 -1.23,1.25 -2.94,2.04 -4.83,2.04l0 16.22 16.84 0z"/>
   <path class="fil11" d="M60.83 428.53c0.64,-8.69 5.51,-15.85 12.02,-18.26 1.22,1.25 2.93,2.04 4.82,2.04l0 0 0 16.22 -16.84 0z"/>
   <path class="fil11" d="M77.67 400.2l0 8.45c-4.67,0 -8.45,-3.78 -8.45,-8.45 0,-4.67 3.78,-8.46 8.45,-8.46l0 8.46z"/>
   <path class="fil10" d="M77.67 400.2l0 8.45c4.67,0 8.46,-3.78 8.46,-8.45 0,-4.67 -3.79,-8.46 -8.46,-8.46l0 8.46z"/>
   <g>
    <rect class="fil8" x="44.53" y="364.54" width="17.29" height="23.25" rx="1.32" ry="1.32"/>
    <rect class="fil7" x="48.18" y="377.9" width="9.99" height="1.53" rx="1.32" ry="1.32"/>
    <rect class="fil7" x="48.18" y="381.64" width="9.99" height="1.53" rx="1.32" ry="1.32"/>
    <rect class="fil7" x="48.18" y="367.45" width="2.83" height="3.27" rx="0.66" ry="0.66"/>
    <rect class="fil7" x="48.18" y="373.8" width="9.99" height="1.53" rx="1.32" ry="1.32"/>
   </g>
   <path class="fil12" d="M30.34 385.82c0.62,-4.97 3.44,-8.82 8.68,-8.47l-0.85 0.6c-0.38,0.27 -0.47,0.8 -0.2,1.18l0.05 0.06c0.27,0.38 0.8,0.47 1.17,0.21l3.25 -2.3c0.18,-0.13 0.22,-0.39 0.09,-0.57l-2.29 -3.24c-0.27,-0.38 -0.8,-0.47 -1.18,-0.2l-0.06 0.04c-0.38,0.27 -0.47,0.8 -0.2,1.18l0.59 0.84c-6.29,-0.54 -12.07,3.68 -13.32,9.98 -0.11,0.54 0,1.04 0.31,1.49 0.31,0.45 0.74,0.73 1.28,0.82l0.4 0.07c0.55,0.1 1.05,-0.03 1.5,-0.36 0.44,-0.33 0.71,-0.78 0.78,-1.33z"/>
   <path class="fil12" d="M75.66 385.82c-0.62,-4.97 -3.44,-8.82 -8.68,-8.47l0.85 0.6c0.38,0.27 0.47,0.8 0.2,1.18l-0.05 0.06c-0.27,0.38 -0.8,0.47 -1.18,0.21l-3.24 -2.3c-0.18,-0.13 -0.23,-0.39 -0.1,-0.57l2.3 -3.24c0.27,-0.38 0.79,-0.47 1.17,-0.2l0.07 0.04c0.38,0.27 0.47,0.8 0.2,1.18l-0.6 0.84c6.3,-0.54 12.07,3.68 13.33,9.98 0.11,0.54 0,1.04 -0.31,1.49 -0.31,0.45 -0.74,0.73 -1.28,0.82l-0.4 0.07c-0.55,0.1 -1.06,-0.03 -1.5,-0.36 -0.45,-0.33 -0.71,-0.78 -0.78,-1.33z"/>
  </g>
  <g id="_2169404287472">
   <circle class="fil0" cx="407.86" cy="53.18" r="53.18"/>
   <path class="fil1" style="mask:url(#id18)" d="M387.68 32.2l46.04 14.87 4.64 -13.91 21.58 9.19c6.05,30.15 -13.4,54.88 -36.38,61.6l-55.91 -35.59 21.28 -15.59 -9.19 -5.76 7.94 -14.81z"/>
   <g>
    <g>
     <g>
      <path class="fil4" d="M401.33 76.93c-0.64,-8.69 -5.5,-15.85 -12.01,-18.26 -1.22,1.26 -2.93,2.04 -4.83,2.04l0 16.22 16.84 0z"/>
      <path class="fil5" d="M367.66 76.93c0.64,-8.69 5.5,-15.85 12.01,-18.26 1.22,1.26 2.93,2.04 4.82,2.04l0 0 0 16.22 -16.83 0z"/>
     </g>
     <g>
      <path class="fil6" d="M384.49 48.6l0 8.45c-4.67,0 -8.45,-3.78 -8.45,-8.45 0,-4.67 3.78,-8.46 8.45,-8.46l0 8.46z"/>
      <path class="fil7" d="M384.49 48.6l0 8.45c4.67,0 8.46,-3.78 8.46,-8.45 0,-4.67 -3.79,-8.46 -8.46,-8.46l0 8.46z"/>
     </g>
    </g>
    <g>
     <path class="fil10" d="M450.32 76.93c-0.64,-8.69 -5.5,-15.85 -12.01,-18.26 -1.22,1.26 -2.93,2.04 -4.82,2.04l0 16.22 16.83 0z"/>
     <path class="fil11" d="M416.65 76.93c0.64,-8.69 5.5,-15.85 12.01,-18.26 1.22,1.26 2.93,2.04 4.83,2.04l0 0 0 16.22 -16.84 0z"/>
     <path class="fil11" d="M433.49 48.6l0 8.45c-4.67,0 -8.46,-3.78 -8.46,-8.45 0,-4.67 3.79,-8.46 8.46,-8.46l0 8.46z"/>
     <path class="fil10" d="M433.49 48.6l0 8.45c4.67,0 8.45,-3.78 8.45,-8.45 0,-4.67 -3.78,-8.46 -8.45,-8.46l0 8.46z"/>
    </g>
   </g>
   <g>
    <path class="fil2" d="M429.76 85.73c-0.8,-10.71 -6.8,-19.55 -14.82,-22.52 -1.51,1.55 -3.62,2.51 -5.95,2.51l0 20.01 20.77 0z"/>
    <path class="fil3" d="M388.23 85.73c0.79,-10.71 6.79,-19.55 14.81,-22.52 1.51,1.55 3.62,2.51 5.95,2.51l0 0 0 20.01 -20.76 0z"/>
    <path class="fil3" d="M408.99 50.79l0 10.43c-5.76,0 -10.43,-4.67 -10.43,-10.43 0,-5.76 4.67,-10.43 10.43,-10.43l0 10.43z"/>
    <path class="fil2" d="M408.99 50.79l0 10.43c5.76,0 10.43,-4.67 10.43,-10.43 0,-5.76 -4.67,-10.43 -10.43,-10.43l0 10.43z"/>
   </g>
   <circle class="fil0" cx="407.86" cy="53.18" r="53.18"/>
   <path class="fil1" style="mask:url(#id20)" d="M385.43 40.41l48.29 6.66 2.17 -6.21 24.77 6.58c1.91,27.53 -14.12,49.79 -37.1,56.51l-57 -27.09 20.05 -12.43 -8.21 -9.07 7.03 -14.95z"/>
   <g>
    <g>
     <g>
      <path class="fil4" d="M400.2 76.93c-0.64,-8.69 -5.51,-15.85 -12.01,-18.26 -1.23,1.26 -2.93,2.04 -4.83,2.04l0 16.22 16.84 0z"/>
      <path class="fil5" d="M366.52 76.93c0.64,-8.69 5.51,-15.85 12.02,-18.26 1.22,1.26 2.93,2.04 4.82,2.04l0 0 0 16.22 -16.84 0z"/>
     </g>
     <g>
      <path class="fil6" d="M383.36 48.6l0 8.45c-4.67,0 -8.45,-3.78 -8.45,-8.45 0,-4.67 3.78,-8.46 8.45,-8.46l0 8.46z"/>
      <path class="fil7" d="M383.36 48.6l0 8.45c4.67,0 8.46,-3.78 8.46,-8.45 0,-4.67 -3.79,-8.46 -8.46,-8.46l0 8.46z"/>
     </g>
    </g>
    <g>
     <path class="fil10" d="M449.19 76.93c-0.64,-8.69 -5.51,-15.85 -12.01,-18.26 -1.22,1.26 -2.93,2.04 -4.83,2.04l0 16.22 16.84 0z"/>
     <path class="fil11" d="M415.51 76.93c0.65,-8.69 5.51,-15.85 12.02,-18.26 1.22,1.26 2.93,2.04 4.82,2.04l0 0 0 16.22 -16.84 0z"/>
     <path class="fil11" d="M432.35 48.6l0 8.45c-4.67,0 -8.45,-3.78 -8.45,-8.45 0,-4.67 3.78,-8.46 8.45,-8.46l0 8.46z"/>
     <path class="fil10" d="M432.35 48.6l0 8.45c4.67,0 8.46,-3.78 8.46,-8.45 0,-4.67 -3.79,-8.46 -8.46,-8.46l0 8.46z"/>
    </g>
   </g>
   <rect class="fil13" x="397.52" y="12.05" width="22.54" height="14.89"/>
   <path class="fil8" d="M411.59 29.55c0.01,0.04 0.01,0.08 0.01,0.11l0 2.51c0,0.46 -0.38,0.83 -0.83,0.83l-3.92 0c-0.46,0 -0.83,-0.37 -0.83,-0.83l0 -2.51c0,-0.03 0,-0.07 0,-0.11l-9 0c-0.79,0 -1.44,-0.65 -1.44,-1.44l0 -16.24c0,-0.79 0.65,-1.44 1.44,-1.44l23.57 0c0.8,0 1.45,0.65 1.45,1.44l0 16.24c0,0.79 -0.65,1.44 -1.45,1.44l-9 0zm-12.78 -16.9l19.99 0c0.35,0 0.63,0.29 0.63,0.64l0 12.3c0,0.35 -0.28,0.63 -0.63,0.63l-19.99 0c-0.35,0 -0.63,-0.28 -0.63,-0.63l0 -12.3c0,-0.35 0.28,-0.64 0.63,-0.64z"/>
   <rect class="fil8" x="399.12" y="34.9" width="19.37" height="2.76" rx="0.42" ry="1.09"/>
   <path class="fil12" d="M385 33.78c-0.88,-4.94 0.67,-9.45 5.78,-10.67l-0.63 0.82c-0.28,0.37 -0.21,0.9 0.16,1.19l0.06 0.05c0.37,0.28 0.9,0.21 1.18,-0.16l2.42 -3.15c0.14,-0.18 0.1,-0.44 -0.08,-0.58l-3.15 -2.41c-0.37,-0.29 -0.9,-0.22 -1.18,0.15l-0.05 0.07c-0.29,0.37 -0.22,0.9 0.15,1.18l0.83 0.63c-6.18,1.35 -10.44,7.1 -9.77,13.48 0.06,0.55 0.31,1 0.74,1.34 0.43,0.34 0.93,0.47 1.47,0.4l0.4 -0.05c0.55,-0.08 1,-0.34 1.33,-0.79 0.32,-0.45 0.44,-0.96 0.34,-1.5z"/>
   <path class="fil12" d="M432.59 33.78c0.89,-4.94 -0.67,-9.45 -5.77,-10.67l0.63 0.82c0.28,0.37 0.21,0.9 -0.16,1.19l-0.06 0.05c-0.37,0.28 -0.9,0.21 -1.19,-0.16l-2.41 -3.15c-0.14,-0.18 -0.11,-0.44 0.07,-0.58l3.16 -2.41c0.37,-0.29 0.9,-0.22 1.18,0.15l0.05 0.07c0.28,0.37 0.21,0.9 -0.16,1.18l-0.82 0.63c6.17,1.35 10.44,7.1 9.76,13.48 -0.05,0.55 -0.3,1 -0.73,1.34 -0.43,0.34 -0.93,0.47 -1.47,0.4l-0.4 -0.05c-0.55,-0.08 -1,-0.34 -1.33,-0.79 -0.33,-0.45 -0.44,-0.96 -0.35,-1.5z"/>
  </g>
  <g id="_2168970188656">
   <circle class="fil9" cx="407.87" cy="404.77" r="53.18"/>
   <path class="fil1" style="mask:url(#id22)" d="M411.13 429.61l-4.97 -8.28 6.3 -11.38 20.77 21.08 -6.28 -9.7 8.1 -9.25 -38.26 -27.22 15.17 -6.04 -7.15 -8 4.3 -10.06 40.31 10.86c18.44,21.69 17.57,71.19 -28.81,84.78l-47.32 -18.91 17.11 -8.82 -7.52 -8.24 7.02 -11.34 21.23 20.52z"/>
   <g>
    <path class="fil4" d="M400 437.5c-0.51,-6.9 -4.37,-12.58 -9.53,-14.49 -0.97,0.99 -2.33,1.61 -3.83,1.61l0 12.88 13.36 0z"/>
    <path class="fil5" d="M373.28 437.5c0.51,-6.9 4.37,-12.58 9.53,-14.49 0.97,0.99 2.33,1.61 3.83,1.61l0 0 0 12.88 -13.36 0z"/>
    <path class="fil6" d="M386.64 415.02l0 6.71c-3.71,0 -6.71,-3.01 -6.71,-6.71 0,-3.71 3,-6.71 6.71,-6.71l0 6.71z"/>
    <path class="fil7" d="M386.64 415.02l0 6.71c3.7,0 6.7,-3.01 6.7,-6.71 0,-3.71 -3,-6.71 -6.7,-6.71l0 6.71z"/>
    <path class="fil2" d="M421.52 437.5c-0.51,-6.9 -4.37,-12.58 -9.53,-14.49 -0.97,0.99 -2.33,1.61 -3.83,1.61l0 12.88 13.36 0z"/>
    <path class="fil3" d="M394.8 437.5c0.51,-6.9 4.37,-12.58 9.53,-14.49 0.97,0.99 2.33,1.61 3.83,1.61l0 0 0 12.88 -13.36 0z"/>
    <path class="fil3" d="M408.16 415.02l0 6.71c-3.7,0 -6.71,-3.01 -6.71,-6.71 0,-3.71 3.01,-6.71 6.71,-6.71l0 6.71z"/>
    <path class="fil2" d="M408.16 415.02l0 6.71c3.7,0 6.71,-3.01 6.71,-6.71 0,-3.71 -3.01,-6.71 -6.71,-6.71l0 6.71z"/>
    <path class="fil10" d="M442.52 437.5c-0.51,-6.9 -4.37,-12.58 -9.53,-14.49 -0.97,0.99 -2.33,1.61 -3.83,1.61l0 12.88 13.36 0z"/>
    <path class="fil11" d="M415.8 437.5c0.51,-6.9 4.37,-12.58 9.53,-14.49 0.97,0.99 2.33,1.61 3.83,1.61l0 0 0 12.88 -13.36 0z"/>
    <path class="fil11" d="M429.16 415.02l0 6.71c-3.71,0 -6.71,-3.01 -6.71,-6.71 0,-3.71 3,-6.71 6.71,-6.71l0 6.71z"/>
    <path class="fil10" d="M429.16 415.02l0 6.71c3.7,0 6.71,-3.01 6.71,-6.71 0,-3.71 -3.01,-6.71 -6.71,-6.71l0 6.71z"/>
   </g>
   <g>
    <path class="fil14" d="M418.95 384.88c-0.42,-5.72 -3.62,-10.44 -7.91,-12.02 -0.8,0.82 -1.93,1.34 -3.17,1.34l0 10.68 11.08 0z"/>
    <path class="fil15" d="M396.79 384.88c0.42,-5.72 3.62,-10.44 7.9,-12.02 0.81,0.82 1.93,1.34 3.18,1.34l0 0 0 10.68 -11.08 0z"/>
    <path class="fil16" d="M407.87 366.23l0 5.56c-3.07,0 -5.57,-2.49 -5.57,-5.56 0,-3.07 2.5,-5.56 5.57,-5.56l0 5.56z"/>
    <path class="fil17" d="M407.87 366.23l0 5.56c3.07,0 5.56,-2.49 5.56,-5.56 0,-3.07 -2.49,-5.56 -5.56,-5.56l0 5.56z"/>
   </g>
   <path class="fil12" d="M410.96 400.45l0.06 0.06c0.33,0.35 0.32,0.91 -0.03,1.24l-2.98 2.87c-0.17,0.16 -0.44,0.16 -0.6,-0.01l-2.87 -2.99c-0.34,-0.34 -0.33,-0.9 0.02,-1.24l0.06 -0.06c0.35,-0.33 0.91,-0.32 1.25,0.03l0.71 0.74 0.19 -9.3 -0.75 0.71c-0.35,0.34 -0.9,0.33 -1.24,-0.02l-0.06 -0.06c-0.33,-0.35 -0.32,-0.91 0.03,-1.25l2.98 -2.86c0.17,-0.17 0.44,-0.16 0.6,0.01l2.87 2.98c0.34,0.35 0.32,0.91 -0.03,1.25l-0.06 0.05c-0.35,0.34 -0.9,0.33 -1.24,-0.02l-0.71 -0.74 -0.19 9.3 0.74 -0.72c0.35,-0.33 0.91,-0.32 1.25,0.03z"/>
   <g>
    <path class="fil12" d="M392.16 400.76l0.02 0.08c0.12,0.47 -0.17,0.95 -0.64,1.07l-4.01 1c-0.23,0.06 -0.46,-0.08 -0.52,-0.3l-1.01 -4.02c-0.12,-0.47 0.17,-0.95 0.64,-1.07l0.08 -0.02c0.47,-0.12 0.95,0.17 1.07,0.64l0.25 1 4.78 -7.98 -1 0.25c-0.47,0.12 -0.95,-0.17 -1.07,-0.64l-0.02 -0.08c-0.12,-0.47 0.17,-0.95 0.64,-1.07l4.02 -1c0.22,-0.06 0.45,0.08 0.51,0.31l1.01 4.01c0.12,0.47 -0.17,0.95 -0.64,1.07l-0.08 0.02c-0.47,0.11 -0.95,-0.17 -1.07,-0.64l-0.25 -1 -4.78 7.98 1 -0.25c0.47,-0.12 0.95,0.17 1.07,0.64z"/>
    <path class="fil12" d="M423.58 400.76l-0.02 0.08c-0.12,0.47 0.17,0.95 0.64,1.07l4.01 1c0.23,0.06 0.46,-0.08 0.52,-0.3l1.01 -4.02c0.11,-0.47 -0.17,-0.95 -0.64,-1.07l-0.08 -0.02c-0.48,-0.12 -0.96,0.17 -1.07,0.64l-0.25 1 -4.78 -7.98 1 0.25c0.47,0.12 0.95,-0.17 1.06,-0.64l0.02 -0.08c0.12,-0.47 -0.17,-0.95 -0.64,-1.07l-4.01 -1c-0.23,-0.06 -0.46,0.08 -0.52,0.31l-1 4.01c-0.12,0.47 0.17,0.95 0.64,1.07l0.08 0.02c0.47,0.11 0.95,-0.17 1.07,-0.64l0.25 -1 4.77 7.98 -0.99 -0.25c-0.47,-0.12 -0.95,0.17 -1.07,0.64z"/>
   </g>
  </g>
 </g>
</svg>
