<?xml version="1.0" encoding="UTF-8"?>
<!DOCTYPE svg PUBLIC "-//W3C//DTD SVG 1.1//EN" "http://www.w3.org/Graphics/SVG/1.1/DTD/svg11.dtd">
<!-- Creator: CorelDRAW 2020 (64-Bit) -->
<svg xmlns="http://www.w3.org/2000/svg" xml:space="preserve" width="86.3184mm" height="80.4783mm" version="1.1" style="shape-rendering:geometricPrecision; text-rendering:geometricPrecision; image-rendering:optimizeQuality; fill-rule:evenodd; clip-rule:evenodd"
viewBox="0 0 6815.61 6354.48"
 xmlns:xlink="http://www.w3.org/1999/xlink"
 xmlns:xodm="http://www.corel.com/coreldraw/odm/2003">
 <defs>
  <style type="text/css">
   <![CDATA[
    .fil0 {fill:#D9DADA}
    .fil2 {fill:#D9DADA;fill-rule:nonzero}
    .fil3 {fill:#E31E24;fill-rule:nonzero}
    .fil1 {fill:#009846;fill-rule:nonzero}
   ]]>
  </style>
 </defs>
 <g id="Layer_x0020_1">
  <metadata id="CorelCorpID_0Corel-Layer"/>
  <g id="_1808306809056">
   <g>
    <path class="fil0" d="M808.28 5720.78l408.7 -408.7 0 817.4 -408.7 -408.7zm329.74 -218.09l-218.09 218.09 218.09 218.09 0 -436.19z"/>
   </g>
   <g>
    <path class="fil0" d="M1464.21 5087.08l1267.4 0 0 1267.4 -1267.4 0 0 -1267.4zm1188.44 78.96l-1109.48 0 0 1109.48 1109.48 0 0 -1109.48z"/>
   </g>
   <g>
    <path class="fil0" d="M2097.91 5518.87c111.51,0 201.91,90.4 201.91,201.91 0,111.51 -90.4,201.91 -201.91,201.91 -111.51,0 -201.91,-90.4 -201.91,-201.91 0,-111.51 90.4,-201.91 201.91,-201.91zm86.95 114.96c-22.24,-22.24 -52.99,-36.01 -86.95,-36.01 -34.17,0 -64.9,13.64 -86.95,35.7l0 0c-0.1,0.1 -0.21,0.21 -0.31,0.31 -22.05,22.05 -35.7,52.78 -35.7,86.95 0,33.96 13.76,64.71 36.01,86.95l-0.16 0.16c0.06,0.05 0.1,0.09 0.16,0.15 22.05,22.05 52.78,35.7 86.95,35.7 33.96,0 64.71,-13.76 86.95,-36.01 22.24,-22.24 36.01,-52.99 36.01,-86.95 0,-32.55 -12.39,-62.01 -32.64,-83.78 -1.14,-1.02 -2.27,-2.07 -3.36,-3.17z"/>
   </g>
   <g>
    <polygon class="fil0" points="2022.95,5208.98 2172.86,5208.98 2172.86,5463.15 2022.95,5463.15 "/>
   </g>
  </g>
  <g>
   <path class="fil1" d="M510.78 1261.71c83.7,0 155.72,30.38 215.92,90.98 60.33,60.62 90.43,134.55 90.43,221.69 0,86.45 -29.68,159.57 -89.19,219.36 -59.38,59.79 -131.54,89.75 -216.34,89.75 -88.92,0 -162.73,-30.79 -221.42,-92.22 -58.82,-61.44 -88.24,-134.42 -88.24,-218.95 0,-56.49 13.75,-108.58 41.1,-156.13 27.35,-47.41 65.01,-85.07 112.84,-112.84 47.97,-27.76 99.65,-41.64 154.89,-41.64zm-1.65 110.5c-54.56,0 -100.47,19.11 -137.58,57.17 -37.24,38.07 -55.8,86.45 -55.8,145.28 0,65.43 23.36,117.24 70.23,155.31 36.42,29.82 78.07,44.67 125.21,44.67 53.19,0 98.55,-19.38 135.93,-58 37.52,-38.62 56.22,-86.18 56.22,-142.8 0,-56.35 -18.83,-104.04 -56.63,-143.08 -37.66,-39.03 -83.56,-58.55 -137.58,-58.55z"/>
   <polygon id="1" class="fil1" points="925.03,1276.55 1031.95,1276.55 1287.05,1666.2 1287.05,1276.55 1399.2,1276.55 1399.2,1868.65 1291.44,1868.65 1037.17,1480.24 1037.17,1868.65 925.03,1868.65 "/>
   <g>
    <path class="fil0" d="M1601.16 3076.83l-425.52 0 425.52 -425.52 0 425.52zm-234.91 -78.96l155.95 0 0 -155.95 -155.95 155.95z"/>
   </g>
   <g>
    <path class="fil0" d="M78.96 2997.87l155.95 0 -155.95 -155.95 0 155.95zm-78.96 78.96l425.52 0 -425.52 -425.52 0 425.52z"/>
   </g>
   <g>
    <path class="fil2" d="M624.28 2535.05l-404.1 371.41 -53.42 -58.13 404.1 -371.41 53.42 0 0 58.13zm0 -58.13l31.62 29.06 -31.62 29.06 0 -58.13zm-156.49 -143.82l156.49 143.82 -53.42 58.13 -156.49 -143.82 0 -58.14 53.42 0.01zm-53.42 58.13l-31.63 -29.07 31.63 -29.06 0 58.14zm412.92 -330.36l-359.5 330.36 -53.42 -58.15 359.5 -330.36 53.42 0 0 58.15zm-53.42 -58.15l26.71 -24.55 26.71 24.55 -53.42 0zm359.5 388.51l-359.5 -330.36 53.42 -58.15 359.5 330.36 0 58.14 -53.42 0.01zm53.42 -58.15l31.63 29.06 -31.63 29.07 0 -58.14zm-209.91 143.83l156.49 -143.82 53.42 58.13 -156.49 143.82 -53.42 0 0 -58.13zm0 58.13l-31.62 -29.06 31.62 -29.06 0 58.13zm404.1 371.41l-404.1 -371.41 53.42 -58.13 404.1 371.41 -53.42 58.13z"/>
   </g>
  </g>
  <g>
   <path class="fil3" d="M5634.38 3348.06c83.7,0 155.72,30.38 215.92,90.98 60.33,60.62 90.43,134.55 90.43,221.69 0,86.45 -29.68,159.57 -89.19,219.36 -59.38,59.79 -131.54,89.75 -216.34,89.75 -88.92,0 -162.73,-30.79 -221.42,-92.22 -58.82,-61.44 -88.24,-134.42 -88.24,-218.95 0,-56.49 13.75,-108.58 41.1,-156.13 27.35,-47.41 65.01,-85.07 112.84,-112.84 47.97,-27.76 99.65,-41.64 154.89,-41.64zm-1.65 110.5c-54.56,0 -100.47,19.11 -137.58,57.17 -37.24,38.07 -55.8,86.45 -55.8,145.28 0,65.43 23.36,117.24 70.23,155.31 36.42,29.82 78.07,44.67 125.21,44.67 53.19,0 98.55,-19.38 135.93,-58 37.52,-38.62 56.22,-86.18 56.22,-142.8 0,-56.35 -18.83,-104.04 -56.63,-143.08 -37.66,-39.03 -83.56,-58.55 -137.58,-58.55z"/>
   <polygon id="1" class="fil3" points="6041.21,3362.91 6334.79,3362.91 6334.79,3471.76 6153.37,3471.76 6153.37,3579.79 6334.79,3579.79 6334.79,3688.65 6153.37,3688.65 6153.37,3955.01 6041.21,3955.01 "/>
   <polygon id="2" class="fil3" points="6445.29,3362.91 6738.86,3362.91 6738.86,3471.76 6557.44,3471.76 6557.44,3579.79 6738.86,3579.79 6738.86,3688.65 6557.44,3688.65 6557.44,3955.01 6445.29,3955.01 "/>
   <g>
    <path class="fil0" d="M6815.61 5163.18l-425.52 0 425.52 -425.52 0 425.52zm-234.91 -78.96l155.95 0 0 -155.95 -155.95 155.95z"/>
   </g>
   <g>
    <path class="fil0" d="M5293.41 5084.22l155.95 0 -155.95 -155.95 0 155.95zm-78.96 78.96l425.52 0 -425.52 -425.52 0 425.52z"/>
   </g>
   <g>
    <path class="fil2" d="M5838.73 4621.4l-404.1 371.41 -53.42 -58.13 404.1 -371.41 53.42 0 0 58.13zm0 -58.13l31.62 29.06 -31.62 29.06 0 -58.13zm-156.49 -143.82l156.49 143.82 -53.42 58.13 -156.49 -143.82 0 -58.14 53.42 0.01zm-53.42 58.13l-31.63 -29.07 31.63 -29.06 0 58.14zm412.92 -330.36l-359.5 330.36 -53.42 -58.15 359.5 -330.36 53.42 0 0 58.15zm-53.42 -58.15l26.71 -24.55 26.71 24.55 -53.42 0zm359.5 388.51l-359.5 -330.36 53.42 -58.15 359.5 330.36 0 58.14 -53.42 0.01zm53.42 -58.15l31.63 29.06 -31.63 29.07 0 -58.14zm-209.91 143.83l156.49 -143.82 53.42 58.13 -156.49 143.82 -53.42 0 0 -58.13zm0 58.13l-31.62 -29.06 31.62 -29.06 0 58.13zm404.1 371.41l-404.1 -371.41 53.42 -58.13 404.1 371.41 -53.42 58.13z"/>
   </g>
  </g>
  <g>
   <path class="fil2" d="M3503.3 12.58l96.19 0 193.09 501.69 -99.34 0 -39.13 -103.41 -205.66 0 -40.06 103.41 -99.33 0 194.25 -501.69zm48.21 133.34l-68.02 172.71 135.68 0 -67.66 -172.71z"/>
   <path id="1" class="fil2" d="M3835.3 12.58l95.73 0 0 324.56c0,27.95 2.44,47.75 7.34,59.27 4.89,11.65 12.93,20.85 24.22,27.83 11.3,6.87 24.93,10.37 40.77,10.37 16.88,0 31.32,-3.85 43.55,-11.65 12.22,-7.69 20.61,-17.47 25.27,-29.47 4.66,-11.88 6.99,-34.7 6.99,-68.35l0 -312.57 95.73 0 0 299.06c0,50.54 -2.8,85.48 -8.5,105.04 -5.71,19.57 -16.53,38.44 -32.61,56.6 -15.95,18.17 -34.47,31.68 -55.43,40.41 -20.85,8.73 -45.19,13.16 -72.9,13.16 -36.34,0 -68.01,-8.39 -94.91,-25.04 -27.02,-16.77 -46.24,-37.62 -57.88,-62.77 -11.54,-25.15 -17.36,-67.54 -17.36,-127.4l0 -299.06z"/>
   <polygon id="2" class="fil2" points="4265.14,12.58 4542.54,12.58 4542.54,106.91 4451,106.91 4451,514.27 4353.88,514.27 4353.88,106.91 4265.14,106.91 "/>
   <path id="3" class="fil2" d="M4844.04 0c70.92,0 131.95,25.74 182.96,77.1 51.12,51.35 76.62,114.01 76.62,187.84 0,73.25 -25.15,135.2 -75.58,185.86 -50.3,50.66 -111.44,76.05 -183.3,76.05 -75.35,0 -137.89,-26.09 -187.61,-78.15 -49.84,-52.05 -74.76,-113.89 -74.76,-185.51 0,-47.86 11.65,-92 34.82,-132.3 23.17,-40.18 55.08,-72.09 95.6,-95.61 40.65,-23.52 84.43,-35.29 131.25,-35.29zm-1.4 93.63c-46.23,0 -85.13,16.19 -116.57,48.45 -31.56,32.25 -47.28,73.25 -47.28,123.09 0,55.44 19.8,99.34 59.5,131.59 30.87,25.27 66.15,37.85 106.1,37.85 45.06,0 83.49,-16.42 115.17,-49.14 31.8,-32.73 47.63,-73.02 47.63,-121 0,-47.75 -15.95,-88.16 -47.98,-121.23 -31.91,-33.07 -70.8,-49.61 -116.57,-49.61z"/>
   <g>
    <path class="fil0" d="M5002.25 1767.65l-425.52 0 425.52 -425.52 0 425.52zm-234.91 -78.96l155.95 0 0 -155.95 -155.95 155.95z"/>
   </g>
   <g>
    <path class="fil0" d="M3480.05 1688.69l155.95 0 -155.95 -155.95 0 155.95zm-78.96 78.96l425.52 0 -425.52 -425.52 0 425.52z"/>
   </g>
   <g>
    <path class="fil2" d="M4025.37 1225.87l-404.1 371.41 -53.42 -58.13 404.1 -371.41 53.42 0 0 58.13zm0 -58.13l31.62 29.06 -31.62 29.06 0 -58.13zm-156.49 -143.82l156.49 143.82 -53.42 58.13 -156.49 -143.82 0 -58.14 53.42 0.01zm-53.42 58.13l-31.63 -29.07 31.63 -29.06 0 58.14zm412.92 -330.36l-359.5 330.36 -53.42 -58.15 359.5 -330.36 53.42 0 0 58.15zm-53.42 -58.15l26.71 -24.55 26.71 24.55 -53.42 0zm359.5 388.51l-359.5 -330.36 53.42 -58.15 359.5 330.36 0 58.14 -53.42 0.01zm53.42 -58.15l31.63 29.06 -31.63 29.07 0 -58.14zm-209.91 143.83l156.49 -143.82 53.42 58.13 -156.49 143.82 -53.42 0 0 -58.13zm0 58.13l-31.62 -29.06 31.62 -29.06 0 58.13zm404.1 371.41l-404.1 -371.41 53.42 -58.13 404.1 371.41 -53.42 58.13z"/>
   </g>
  </g>
  <g>
   <g>
    <path class="fil0" d="M2521.78 2878.2l1922.9 0 0 1267.4 -1922.9 0 0 -1267.4zm1843.94 78.96l-1764.99 0 0 1109.48 1764.99 0 0 -1109.48z"/>
   </g>
   <g>
    <path class="fil0" d="M3810.98 3164.62c191.8,0 347.28,155.48 347.28,347.28 0,191.8 -155.48,347.28 -347.28,347.28 -191.8,0 -347.28,-155.48 -347.28,-347.28 0,-191.8 155.48,-347.28 347.28,-347.28zm189.74 157.54c-48.54,-48.54 -115.64,-78.58 -189.74,-78.58 -74.1,0 -141.19,30.04 -189.74,78.58 -48.54,48.54 -78.58,115.64 -78.58,189.74 0,74.1 30.04,141.19 78.58,189.74 48.54,48.54 115.64,78.58 189.74,78.58 74.1,0 141.19,-30.04 189.74,-78.58 48.54,-48.54 78.58,-115.64 78.58,-189.74 0,-74.1 -30.04,-141.19 -78.58,-189.74z"/>
   </g>
   <g>
    <polygon class="fil0" points="2715.83,2791.18 3021.42,2791.18 3021.42,2921.67 2715.83,2921.67 "/>
   </g>
  </g>
 </g>
</svg>
