<?xml version="1.0" encoding="UTF-8"?>
<!DOCTYPE svg PUBLIC "-//W3C//DTD SVG 1.1//EN" "http://www.w3.org/Graphics/SVG/1.1/DTD/svg11.dtd">
<!-- Creator: CorelDRAW 2020 (64-Bit) -->
<svg xmlns="http://www.w3.org/2000/svg" xml:space="preserve" width="224.2mm" height="182.955mm" version="1.1" style="shape-rendering:geometricPrecision; text-rendering:geometricPrecision; image-rendering:optimizeQuality; fill-rule:evenodd; clip-rule:evenodd"
viewBox="0 0 39999.18 32640.72"
 xmlns:xlink="http://www.w3.org/1999/xlink"
 xmlns:xodm="http://www.corel.com/coreldraw/odm/2003">
 <defs>
  <style type="text/css">
   <![CDATA[
    .str0 {stroke:#A2D9F7;stroke-width:267.61;stroke-miterlimit:22.9256}
    .fil0 {fill:none}
    .fil1 {fill:#A2D9F7}
   ]]>
  </style>
 </defs>
 <g id="Layer_x0020_1">
  <metadata id="CorelCorpID_0Corel-Layer"/>
  <g id="_1808339060848">
   <rect class="fil0 str0" x="4554.76" y="4186.06" width="2934.02" height="1536.15"/>
   <polygon class="fil0 str0" points="6582.88,2389.82 7362.4,3855.48 6541.56,3855.48 6541.56,2402.04 "/>
   <polygon class="fil0 str0" points="12806.88,1161.67 12947.33,1277.28 7808.47,5561.81 7814.06,5259.1 8625.38,3798.39 "/>
   <polygon class="fil0 str0" points="16586.91,3650.13 16530.98,3700.14 12102.46,243.9 12166.13,146.38 13753.63,411.66 "/>
   <polygon class="fil0 str0" points="4603.85,8978.97 6577.33,6728.53 7363.23,6728.53 9336.72,8978.97 9336.72,8278.95 7363.23,6028.51 6577.33,6028.51 4603.85,8278.95 "/>
   <polyline class="fil0 str0" points="5325.99,1787.13 6545.23,2316.95 12092.89,236.41 "/>
   <circle class="fil0 str0" cx="4948.54" cy="1612.15" r="393.77"/>
  </g>
  <g id="_1808339071072">
   <polygon class="fil0 str0" points="34955.2,16756.38 32975.67,16756.38 32579.24,17228.42 17503.68,17228.42 18177.24,18298.37 18748.53,18298.37 35925.92,18298.37 36497.2,18298.37 37467.92,16756.38 "/>
   <polygon class="fil0 str0" points="18433.81,15324.51 20951.35,15324.51 20951.35,15556.62 20302.28,15556.62 20302.28,15792.64 20951.35,15792.64 20951.35,17224.47 18433.81,17224.47 "/>
   <polygon class="fil0 str0" points="19216.58,15324.51 20333.74,15324.51 20333.74,14439.46 19704.35,14439.46 "/>
  </g>
  <g id="_1808339070496">
   <path class="fil0 str0" d="M14838.37 23032.38c-2659.53,-18.54 -5313.86,-18.54 -7973.39,0l0 2354.47 7973.39 0 0 -2354.47z"/>
   <g>
    <path class="fil0 str0" d="M13129.41 25696.64c-194.64,0 -352.39,157.78 -352.39,352.43 0,194.63 157.75,352.41 352.39,352.41 194.64,0 352.41,-157.78 352.41,-352.41 0,-194.64 -157.77,-352.43 -352.41,-352.43z"/>
    <path class="fil0 str0" d="M14109.14 25696.64c-194.64,0 -352.41,157.78 -352.41,352.43 0,194.63 157.77,352.41 352.41,352.41 194.64,0 352.41,-157.78 352.41,-352.41 0,-194.64 -157.77,-352.43 -352.41,-352.43z"/>
    <path class="fil0 str0" d="M8573.91 25696.64c-194.64,0 -352.39,157.78 -352.39,352.43 0,194.63 157.75,352.41 352.39,352.41 194.64,0 352.41,-157.78 352.41,-352.41 0,-194.64 -157.77,-352.43 -352.41,-352.43z"/>
    <path class="fil0 str0" d="M7594.18 25696.64c-194.63,0 -352.39,157.78 -352.39,352.43 0,194.63 157.77,352.41 352.39,352.41 194.66,0 352.41,-157.78 352.41,-352.41 0,-194.64 -157.75,-352.43 -352.41,-352.43z"/>
   </g>
  </g>
  <g id="_1808339071792">
   <g>
    <path class="fil0 str0" d="M4064.93 19610.29c194.64,0 352.43,157.75 352.43,352.41 0,194.63 -157.78,352.39 -352.43,352.39 -194.63,0 -352.41,-157.77 -352.41,-352.39 0,-194.66 157.78,-352.41 352.41,-352.41z"/>
    <path class="fil0 str0" d="M3085.22 19610.29c194.63,0 352.41,157.75 352.41,352.41 0,194.63 -157.78,352.39 -352.41,352.39 -194.64,0 -352.43,-157.77 -352.43,-352.39 0,-194.66 157.78,-352.41 352.43,-352.41z"/>
    <path class="fil0 str0" d="M8620.43 19610.29c194.64,0 352.43,157.75 352.43,352.41 0,194.63 -157.78,352.39 -352.43,352.39 -194.63,0 -352.41,-157.77 -352.41,-352.39 0,-194.66 157.78,-352.41 352.41,-352.41z"/>
    <path class="fil0 str0" d="M9600.15 19610.29c194.64,0 352.41,157.75 352.41,352.41 0,194.63 -157.77,352.39 -352.41,352.39 -194.63,0 -352.41,-157.77 -352.41,-352.39 0,-194.66 157.78,-352.41 352.41,-352.41z"/>
   </g>
   <path class="fil0 str0" d="M9692.3 16928.17l-6699.23 0c-784.75,0 -784.82,2354.46 0,2354.46l6699.23 0c784.82,0 784.75,-2354.46 0,-2354.46z"/>
   <path class="fil0 str0" d="M6971.4 16925.01c-419.42,4.19 -838.02,4.19 -1257.44,0l0 -533.78 5.49 0 1246.47 0 5.48 0 0 533.78z"/>
  </g>
  <g id="_1808339071312">
   <path class="fil0 str0" d="M8107.2 12324.11c-2659.53,-6.05 -5313.86,-6.05 -7973.39,0l0 767.17 7973.39 0 0 -767.17z"/>
   <g>
    <path class="fil0 str0" d="M6398.24 13401.09c-194.64,0 -352.39,157.78 -352.39,352.41 0,194.63 157.75,352.41 352.39,352.41 194.64,0 352.41,-157.78 352.41,-352.41 0,-194.63 -157.77,-352.41 -352.41,-352.41z"/>
    <path class="fil0 str0" d="M7377.99 13401.09c-194.66,0 -352.43,157.78 -352.43,352.41 0,194.63 157.77,352.41 352.43,352.41 194.63,0 352.39,-157.78 352.39,-352.41 0,-194.63 -157.77,-352.41 -352.39,-352.41z"/>
    <path class="fil0 str0" d="M1842.76 13401.09c-194.66,0 -352.41,157.78 -352.41,352.41 0,194.63 157.75,352.41 352.41,352.41 194.63,0 352.39,-157.78 352.39,-352.41 0,-194.63 -157.77,-352.41 -352.39,-352.41z"/>
    <path class="fil0 str0" d="M863.01 13401.09c-194.63,0 -352.39,157.78 -352.39,352.41 0,194.63 157.77,352.41 352.39,352.41 194.66,0 352.41,-157.78 352.41,-352.41 0,-194.63 -157.75,-352.41 -352.41,-352.41z"/>
   </g>
  </g>
  <g id="_1808339074768">
   <path class="fil0 str0" d="M31169.8 24871.82l7587.67 -52.92c635.9,-4.44 1050.31,776.9 883.42,2565.3l-8471.1 0 0 -2512.38z"/>
   <path class="fil0 str0" d="M30690.51 24871.82l-7587.67 -52.92c-635.9,-4.44 -1050.31,776.9 -883.41,2565.3l8471.08 0 0 -2512.38z"/>
   <rect class="fil0 str0" x="38359.89" y="25285.02" width="732.52" height="619.84"/>
   <circle class="fil0 str0" cx="32821.14" cy="28090.84" r="376.05"/>
   <circle class="fil0 str0" cx="29039.17" cy="28090.84" r="376.05"/>
   <g>
    <circle class="fil0 str0" cx="31775.7" cy="28090.84" r="376.05"/>
    <circle class="fil0 str0" cx="33866.58" cy="28090.84" r="376.05"/>
   </g>
   <g>
    <circle class="fil0 str0" cx="30084.61" cy="28090.84" r="376.05"/>
    <circle class="fil0 str0" cx="27993.73" cy="28090.84" r="376.05"/>
   </g>
   <circle class="fil0 str0" cx="37682.18" cy="28090.84" r="376.05"/>
   <g>
    <circle class="fil0 str0" cx="36636.74" cy="28090.84" r="376.05"/>
    <circle class="fil0 str0" cx="38727.62" cy="28090.84" r="376.05"/>
   </g>
   <polygon class="fil0 str0" points="39335.16,27714.8 39649.21,27714.8 39822.77,28334.62 39674.01,28334.62 "/>
   <rect class="fil0 str0" transform="matrix(-0.742803 0.459046 -0.742803 -0.459046 36323.9 24031.3)" width="1211.57" height="1211.57"/>
   <rect class="fil0 str0" transform="matrix(-0.742803 0.459046 -0.742803 -0.459046 27336.4 24031.3)" width="1211.57" height="1211.57"/>
   <rect class="fil0 str0" x="22767.91" y="25189.81" width="732.52" height="619.84"/>
   <circle class="fil0 str0" cx="24178.13" cy="27995.63" r="376.05"/>
   <g>
    <circle class="fil0 str0" cx="25223.57" cy="27995.63" r="376.05"/>
    <circle class="fil0 str0" cx="23132.69" cy="27995.63" r="376.05"/>
   </g>
  </g>
  <g id="_1808339077984">
   <polygon class="fil0 str0" points="16643.02,8989.8 18622.55,8989.8 19018.98,9461.83 34094.54,9461.83 33420.97,10531.79 32849.69,10531.79 15672.3,10531.79 15101.02,10531.79 14130.3,8989.8 "/>
   <polygon class="fil0 str0" points="33164.4,7557.93 30646.87,7557.93 30646.87,7790.04 31295.93,7790.04 31295.93,8026.06 30646.87,8026.06 30646.87,9457.89 33164.4,9457.89 "/>
   <polygon class="fil0 str0" points="32381.64,7557.93 31264.48,7557.93 31264.48,6672.88 31893.87,6672.88 "/>
   <g>
    <path class="fil1" d="M27069.87 8784.53l-1480.18 528.48 3089.91 0 -1609.73 -528.48zm-4.23 -282.51l-2302.72 822.14 -2310.67 -981.83 -3497.8 1238.3 11396.6 0 -3285.41 -1078.6zm-3011.66 810.99l-1610.33 -684.25 -1932.81 684.25 3543.14 0z"/>
   </g>
  </g>
  <g>
   <line class="fil0 str0" x1="10607.97" y1="31492.29" x2="18581.36" y2= "31492.29" />
   <g id="_1808339077552">
    <path class="fil0 str0" d="M16872.4 31802.1c-194.64,0 -352.41,157.77 -352.41,352.41 0,194.63 157.77,352.41 352.41,352.41 194.64,0 352.41,-157.78 352.41,-352.41 0,-194.64 -157.77,-352.41 -352.41,-352.41z"/>
    <path class="fil0 str0" d="M17852.11 31802.1c-194.63,0 -352.39,157.77 -352.39,352.41 0,194.63 157.77,352.41 352.39,352.41 194.66,0 352.43,-157.78 352.43,-352.41 0,-194.64 -157.77,-352.41 -352.43,-352.41z"/>
    <path class="fil0 str0" d="M12316.9 31802.1c-194.64,0 -352.41,157.77 -352.41,352.41 0,194.63 157.77,352.41 352.41,352.41 194.64,0 352.41,-157.78 352.41,-352.41 0,-194.64 -157.77,-352.41 -352.41,-352.41z"/>
    <path class="fil0 str0" d="M11337.17 31802.1c-194.64,0 -352.39,157.77 -352.39,352.41 0,194.63 157.75,352.41 352.39,352.41 194.64,0 352.41,-157.78 352.41,-352.41 0,-194.64 -157.77,-352.41 -352.41,-352.41z"/>
   </g>
   <polygon class="fil0 str0" points="15412.22,29140.33 13777.07,29140.33 11496.6,29140.33 13053.05,31919.7 14231.76,31919.7 14594.64,31065.29 14957.53,31919.7 16136.23,31919.7 17692.69,29140.33 "/>
  </g>
 </g>
</svg>
