<?xml version="1.0" encoding="UTF-8"?>
<!DOCTYPE svg PUBLIC "-//W3C//DTD SVG 1.1//EN" "http://www.w3.org/Graphics/SVG/1.1/DTD/svg11.dtd">
<!-- Creator: CorelDRAW 2020 (64-Bit) -->
<svg xmlns="http://www.w3.org/2000/svg" xml:space="preserve" width="99px" height="99px" version="1.1" style="shape-rendering:geometricPrecision; text-rendering:geometricPrecision; image-rendering:optimizeQuality; fill-rule:evenodd; clip-rule:evenodd"
viewBox="0 0 11.52 11.52"
 xmlns:xlink="http://www.w3.org/1999/xlink"
 xmlns:xodm="http://www.corel.com/coreldraw/odm/2003">
 <defs>
  <style type="text/css">
   <![CDATA[
    .fil1 {fill:none}
    .fil0 {fill:#90729E;fill-rule:nonzero}
   ]]>
  </style>
 </defs>
 <g id="Layer_x0020_1">
  <metadata id="CorelCorpID_0Corel-Layer"/>
  <g id="_1985273856880">
   <g>
    <g>
     <path class="fil0" d="M9.63 0.65l-7.74 0 0 -0.65 7.74 0 0 0 0 0.65zm1.89 1.24l-0.65 0 0 0 0 -0.07 -0.01 -0.06 0 -0.06 -0.02 -0.06 -0.01 -0.06 -0.02 -0.06 -0.02 -0.06 -0.02 -0.05 -0.02 -0.06 -0.03 -0.05 -0.03 -0.05 -0.03 -0.05 -0.04 -0.05 -0.03 -0.05 -0.04 -0.04 -0.04 -0.05 -0.05 -0.04 -0.04 -0.04 -0.05 -0.03 -0.05 -0.04 -0.05 -0.03 -0.05 -0.03 -0.05 -0.03 -0.06 -0.02 -0.06 -0.03 -0.05 -0.02 -0.06 -0.01 -0.06 -0.02 -0.06 -0.01 -0.06 0 -0.07 -0.01 -0.06 0 0 -0.65 0.1 0 0.09 0.01 0.1 0.01 0.09 0.02 0.09 0.02 0.09 0.03 0.09 0.03 0.08 0.03 0.09 0.04 0.08 0.04 0.08 0.04 0.08 0.05 0.07 0.06 0.07 0.05 0.07 0.06 0.06 0.06 0.07 0.07 0.06 0.07 0.05 0.07 0.06 0.07 0.04 0.08 0.05 0.08 0.04 0.08 0.04 0.08 0.03 0.09 0.03 0.09 0.03 0.09 0.02 0.09 0.02 0.09 0.01 0.1 0.01 0.09 0 0.1 0 0zm-0.65 7.74l0 -7.74 0.65 0 0 7.74 0 0 -0.65 0zm-1.24 1.89l0 -0.65 0 0 0.06 0 0.07 -0.01 0.06 0 0.06 -0.02 0.06 -0.01 0.06 -0.02 0.05 -0.02 0.06 -0.02 0.06 -0.02 0.05 -0.03 0.05 -0.03 0.05 -0.03 0.05 -0.04 0.05 -0.03 0.04 -0.04 0.05 -0.04 0.04 -0.05 0.04 -0.04 0.03 -0.05 0.04 -0.05 0.03 -0.05 0.03 -0.05 0.03 -0.05 0.02 -0.06 0.02 -0.06 0.02 -0.05 0.02 -0.06 0.01 -0.06 0.02 -0.06 0 -0.06 0.01 -0.07 0 -0.06 0.65 0 0 0.1 -0.01 0.09 -0.01 0.1 -0.02 0.09 -0.02 0.09 -0.03 0.09 -0.03 0.09 -0.03 0.08 -0.04 0.09 -0.04 0.08 -0.05 0.08 -0.04 0.08 -0.06 0.07 -0.05 0.07 -0.06 0.07 -0.07 0.06 -0.06 0.07 -0.07 0.06 -0.07 0.05 -0.07 0.06 -0.08 0.04 -0.08 0.05 -0.08 0.04 -0.09 0.04 -0.08 0.03 -0.09 0.03 -0.09 0.03 -0.09 0.02 -0.09 0.02 -0.1 0.01 -0.09 0.01 -0.1 0 0 0zm-7.74 -0.65l7.74 0 0 0.65 -7.74 0 0 0 0 -0.65zm-1.89 -1.24l0.65 0 0 0 0 0.06 0.01 0.07 0 0.06 0.01 0.06 0.02 0.06 0.01 0.06 0.02 0.05 0.03 0.06 0.02 0.06 0.03 0.05 0.03 0.05 0.03 0.05 0.04 0.05 0.03 0.05 0.04 0.04 0.04 0.05 0.05 0.04 0.04 0.04 0.05 0.03 0.05 0.04 0.05 0.03 0.05 0.03 0.05 0.03 0.06 0.02 0.05 0.02 0.06 0.02 0.06 0.02 0.06 0.01 0.06 0.02 0.06 0 0.06 0.01 0.07 0 0 0.65 -0.1 0 -0.09 -0.01 -0.1 -0.01 -0.09 -0.02 -0.09 -0.02 -0.09 -0.03 -0.09 -0.03 -0.09 -0.03 -0.08 -0.04 -0.08 -0.04 -0.08 -0.05 -0.08 -0.04 -0.07 -0.06 -0.07 -0.05 -0.07 -0.06 -0.07 -0.07 -0.06 -0.06 -0.06 -0.07 -0.05 -0.07 -0.06 -0.07 -0.05 -0.08 -0.04 -0.08 -0.04 -0.08 -0.04 -0.09 -0.03 -0.08 -0.03 -0.09 -0.03 -0.09 -0.02 -0.09 -0.02 -0.09 -0.01 -0.1 -0.01 -0.09 0 -0.1 0 0zm0.65 -7.74l0 7.74 -0.65 0 0 -7.74 0 0 0.65 0zm1.24 -1.89l0 0.65 0 0 -0.07 0 -0.06 0.01 -0.06 0 -0.06 0.01 -0.06 0.02 -0.06 0.01 -0.06 0.02 -0.05 0.03 -0.06 0.02 -0.05 0.03 -0.05 0.03 -0.05 0.03 -0.05 0.04 -0.05 0.03 -0.04 0.04 -0.05 0.04 -0.04 0.05 -0.04 0.04 -0.03 0.05 -0.04 0.05 -0.03 0.05 -0.03 0.05 -0.03 0.05 -0.02 0.06 -0.03 0.05 -0.02 0.06 -0.01 0.06 -0.02 0.06 -0.01 0.06 0 0.06 -0.01 0.06 0 0.07 -0.65 0 0 -0.1 0.01 -0.09 0.01 -0.1 0.02 -0.09 0.02 -0.09 0.03 -0.09 0.03 -0.09 0.03 -0.09 0.04 -0.08 0.04 -0.08 0.04 -0.08 0.05 -0.08 0.06 -0.07 0.05 -0.07 0.06 -0.07 0.06 -0.07 0.07 -0.06 0.07 -0.06 0.07 -0.05 0.07 -0.06 0.08 -0.05 0.08 -0.04 0.08 -0.04 0.08 -0.04 0.09 -0.03 0.09 -0.03 0.09 -0.03 0.09 -0.02 0.09 -0.02 0.1 -0.01 0.09 -0.01 0.1 0 0 0z"/>
    </g>
    <g>
     <path class="fil0" d="M2.7 2.75l0.25 0.46 0 0 -0.08 0.05 -0.08 0.05 -0.06 0.06 -0.07 0.06 -0.05 0.07 -0.06 0.07 -0.04 0.08 -0.05 0.08 -0.03 0.09 -0.04 0.09 -0.02 0.09 -0.03 0.1 -0.01 0.09 -0.02 0.1 0 0.1 0 0.11 0 0.1 0.01 0.1 0.01 0.11 0.02 0.1 0.02 0.1 0.02 0.1 0.03 0.09 0.04 0.09 0.04 0.09 0.04 0.09 0.05 0.08 0.05 0.08 0.05 0.07 0.06 0.06 0.05 0.06 0.06 0.06 -0.33 0.4 -0.09 -0.08 -0.08 -0.08 -0.08 -0.1 -0.07 -0.09 -0.07 -0.11 -0.06 -0.1 -0.06 -0.11 -0.05 -0.12 -0.04 -0.12 -0.04 -0.12 -0.03 -0.12 -0.03 -0.12 -0.02 -0.13 -0.02 -0.13 -0.01 -0.12 0 -0.13 0 -0.13 0.01 -0.13 0.02 -0.12 0.02 -0.13 0.03 -0.12 0.04 -0.13 0.04 -0.12 0.05 -0.11 0.06 -0.12 0.07 -0.11 0.07 -0.1 0.09 -0.1 0.09 -0.09 0.1 -0.09 0.11 -0.08 0.12 -0.07 0 0zm0.52 0.47l-0.47 -0.23 0 0 0.01 -0.02 0.01 -0.02 0.01 -0.01 0 -0.01 0.01 -0.02 0.01 -0.01 0 -0.01 0 -0.01 0.01 0 0 0 -0.01 0 0 0.01 0 0.02 0 0.03 0.01 0.04 0.02 0.05 0.04 0.05 0.05 0.05 0.05 0.02 0.05 0.01 0.02 0 0.02 0 0.01 -0.01 0 0 0 0 -0.01 0.01 -0.01 0 -0.02 0.01 -0.01 0.01 -0.03 0.01 -0.02 0.01 -0.02 0.01 -0.25 -0.46 0.03 -0.02 0.03 -0.01 0.02 -0.01 0.03 -0.02 0.03 -0.01 0.02 -0.01 0.03 -0.01 0.03 -0.01 0.02 -0.01 0.04 0 0.04 -0.01 0.04 0 0.06 0.01 0.06 0.03 0.06 0.05 0.05 0.06 0.03 0.07 0 0.05 0 0.05 0 0.03 -0.01 0.03 0 0.02 -0.01 0.03 -0.01 0.02 -0.01 0.02 0 0.01 -0.01 0.02 -0.01 0.02 -0.01 0.02 -0.01 0.02 -0.01 0.01 -0.01 0.02 0 0zm-0.02 0.94l-0.45 0.27 0 0 -0.03 -0.05 -0.02 -0.05 -0.03 -0.05 -0.02 -0.05 -0.02 -0.05 -0.01 -0.06 -0.02 -0.05 -0.01 -0.05 -0.01 -0.05 -0.01 -0.05 0 -0.05 -0.01 -0.05 0 -0.05 0 -0.05 0.01 -0.05 0 -0.05 0 -0.04 0.01 -0.05 0.01 -0.04 0.01 -0.05 0.01 -0.04 0.01 -0.04 0.01 -0.04 0.01 -0.04 0.01 -0.04 0.01 -0.04 0.02 -0.04 0.01 -0.04 0.02 -0.03 0.01 -0.04 0.02 -0.03 0.01 -0.03 0.47 0.23 -0.01 0.03 -0.01 0.02 -0.01 0.03 -0.01 0.02 -0.01 0.03 -0.01 0.02 -0.01 0.03 -0.01 0.03 -0.01 0.03 -0.01 0.03 0 0.03 -0.01 0.03 -0.01 0.03 0 0.03 -0.01 0.03 0 0.03 0 0.03 0 0.03 0 0.03 0 0.03 0 0.03 0 0.03 0.01 0.03 0 0.04 0.01 0.03 0.01 0.03 0.01 0.03 0.01 0.03 0.01 0.03 0.02 0.03 0.01 0.03 0.02 0.03 0 0zm0.54 1.18l-0.31 -0.42 0 0 -0.05 0.05 -0.03 0.07 -0.01 0.05 0 0.03 0.01 0.02 0 0 -0.01 -0.01 -0.01 -0.01 -0.01 -0.02 -0.01 -0.02 -0.02 -0.03 -0.02 -0.02 -0.02 -0.03 -0.03 -0.03 -0.03 -0.03 -0.02 -0.03 -0.03 -0.04 -0.03 -0.03 -0.03 -0.03 -0.03 -0.03 -0.03 -0.03 -0.03 -0.04 -0.03 -0.03 -0.02 -0.03 -0.03 -0.03 -0.03 -0.03 -0.02 -0.02 -0.02 -0.03 -0.03 -0.03 -0.02 -0.02 -0.02 -0.03 -0.02 -0.03 0.45 -0.27 0 0 0.01 0.01 0.01 0.01 0.02 0.02 0.01 0.02 0.03 0.02 0.02 0.03 0.02 0.03 0.03 0.03 0.03 0.03 0.03 0.03 0.03 0.03 0.03 0.04 0.03 0.03 0.03 0.03 0.03 0.04 0.03 0.03 0.03 0.04 0.03 0.03 0.03 0.04 0.03 0.04 0.02 0.03 0.03 0.04 0.02 0.03 0.02 0.04 0.02 0.04 0.02 0.04 0.02 0.06 0 0.06 -0.01 0.09 -0.04 0.09 -0.07 0.08 0 0zm-1.21 0.94l0.33 -0.4 -0.2 -0.06 -0.08 0.03 -0.02 0.01 0.01 -0.01 0.01 -0.01 0.02 -0.01 0.02 -0.03 0.03 -0.02 0.03 -0.03 0.03 -0.04 0.03 -0.03 0.04 -0.04 0.03 -0.04 0.04 -0.04 0.04 -0.04 0.04 -0.05 0.04 -0.04 0.04 -0.04 0.03 -0.05 0.04 -0.04 0.04 -0.04 0.03 -0.04 0.04 -0.04 0.03 -0.04 0.03 -0.03 0.03 -0.03 0.02 -0.03 0.03 -0.03 0.02 -0.02 0.01 -0.02 0.02 -0.02 0.01 -0.01 0.04 -0.03 0.31 0.42 0.03 -0.03 0 0.01 -0.01 0.01 -0.02 0.02 -0.02 0.02 -0.02 0.02 -0.03 0.03 -0.02 0.03 -0.03 0.04 -0.04 0.04 -0.03 0.04 -0.04 0.04 -0.04 0.04 -0.03 0.04 -0.04 0.05 -0.04 0.04 -0.04 0.04 -0.04 0.05 -0.04 0.04 -0.04 0.04 -0.04 0.05 -0.03 0.04 -0.04 0.03 -0.03 0.04 -0.04 0.03 -0.03 0.04 -0.03 0.02 -0.03 0.03 -0.02 0.02 -0.03 0.03 -0.04 0.03 -0.1 0.03 -0.21 -0.06zm0.21 0.06l-0.12 0.02 -0.09 -0.08 0.21 0.06z"/>
    </g>
    <g>
     <path class="fil0" d="M8.82 2.75l0 0 0.12 0.07 0.11 0.08 0.1 0.09 0.09 0.09 0.09 0.1 0.07 0.1 0.07 0.11 0.06 0.12 0.05 0.11 0.04 0.12 0.04 0.13 0.03 0.12 0.02 0.13 0.02 0.12 0.01 0.13 0 0.13 -0.01 0.13 0 0.12 -0.02 0.13 -0.02 0.13 -0.03 0.12 -0.03 0.12 -0.04 0.12 -0.04 0.12 -0.05 0.12 -0.06 0.11 -0.06 0.1 -0.07 0.11 -0.07 0.09 -0.08 0.1 -0.08 0.08 -0.09 0.08 -0.34 -0.4 0.06 -0.06 0.06 -0.06 0.06 -0.06 0.05 -0.07 0.05 -0.08 0.05 -0.08 0.04 -0.09 0.04 -0.09 0.03 -0.09 0.03 -0.09 0.03 -0.1 0.02 -0.1 0.02 -0.1 0.01 -0.11 0.01 -0.1 0 -0.1 0 -0.11 -0.01 -0.1 -0.01 -0.1 -0.02 -0.09 -0.02 -0.1 -0.03 -0.09 -0.03 -0.09 -0.04 -0.09 -0.04 -0.08 -0.05 -0.08 -0.05 -0.07 -0.05 -0.07 -0.07 -0.06 -0.06 -0.06 -0.08 -0.05 -0.08 -0.05 0 0 0.25 -0.46zm-0.53 0.47l0.01 0 -0.01 -0.02 -0.01 -0.01 -0.01 -0.02 -0.01 -0.02 -0.01 -0.02 -0.01 -0.02 0 -0.01 -0.01 -0.02 -0.01 -0.02 -0.01 -0.03 -0.01 -0.02 0 -0.03 -0.01 -0.03 0 -0.05 0.01 -0.05 0.03 -0.07 0.04 -0.06 0.07 -0.05 0.06 -0.03 0.06 -0.01 0.04 0 0.04 0.01 0.03 0 0.03 0.01 0.03 0.01 0.03 0.01 0.02 0.01 0.03 0.01 0.02 0.02 0.03 0.01 0.03 0.01 0.03 0.02 -0.25 0.46 -0.02 -0.01 -0.03 -0.01 -0.02 -0.01 -0.01 -0.01 -0.02 -0.01 -0.01 0 -0.01 -0.01 0 0 0 0 0.01 0.01 0.02 0 0.02 0 0.04 -0.01 0.06 -0.02 0.05 -0.05 0.04 -0.05 0.02 -0.05 0.01 -0.04 0 -0.03 0 -0.02 -0.01 -0.01 0 0 0 0 0.01 0 0 0.01 0 0.01 0.01 0.01 0 0.02 0.01 0.01 0.01 0.01 0.01 0.02 0.01 0.02 0 0 -0.48 0.23zm0.03 0.94l0 0 0.02 -0.03 0.01 -0.03 0.02 -0.03 0.01 -0.03 0.01 -0.03 0.01 -0.03 0.01 -0.03 0 -0.03 0.01 -0.03 0 -0.04 0.01 -0.03 0 -0.03 0 -0.03 0 -0.03 0 -0.03 0 -0.03 -0.01 -0.03 0 -0.03 -0.01 -0.03 0 -0.03 -0.01 -0.03 0 -0.03 -0.01 -0.03 -0.01 -0.03 -0.01 -0.03 -0.01 -0.03 -0.01 -0.02 -0.01 -0.03 -0.01 -0.02 -0.01 -0.03 -0.01 -0.02 -0.02 -0.03 0.48 -0.23 0.01 0.03 0.02 0.03 0.01 0.04 0.02 0.03 0.01 0.04 0.01 0.04 0.02 0.04 0.01 0.04 0.01 0.04 0.01 0.04 0.01 0.04 0.01 0.04 0.01 0.05 0.01 0.04 0.01 0.05 0 0.04 0 0.05 0.01 0.05 0 0.05 -0.01 0.05 0 0.05 0 0.05 -0.01 0.05 -0.01 0.05 -0.01 0.05 -0.02 0.06 -0.01 0.05 -0.02 0.05 -0.02 0.05 -0.03 0.05 -0.03 0.05 -0.03 0.05 0 0 -0.44 -0.27zm-0.54 1.18l0 0 -0.07 -0.08 -0.05 -0.09 -0.01 -0.09 0.01 -0.06 0.02 -0.06 0.02 -0.04 0.02 -0.04 0.02 -0.04 0.02 -0.03 0.03 -0.04 0.02 -0.03 0.03 -0.04 0.03 -0.04 0.03 -0.03 0.03 -0.04 0.03 -0.03 0.03 -0.04 0.03 -0.03 0.03 -0.03 0.03 -0.04 0.03 -0.03 0.03 -0.03 0.03 -0.03 0.02 -0.03 0.03 -0.03 0.02 -0.03 0.02 -0.02 0.02 -0.02 0.02 -0.02 0.01 -0.01 0.01 -0.01 0 0 0.44 0.27 -0.02 0.03 -0.02 0.03 -0.02 0.02 -0.02 0.03 -0.02 0.03 -0.03 0.02 -0.02 0.03 -0.03 0.03 -0.03 0.03 -0.02 0.03 -0.03 0.04 -0.03 0.03 -0.03 0.03 -0.03 0.03 -0.03 0.03 -0.03 0.04 -0.03 0.03 -0.02 0.03 -0.03 0.03 -0.02 0.03 -0.02 0.02 -0.02 0.03 -0.01 0.02 -0.01 0.02 -0.01 0.01 -0.01 0.01 0 0 0.01 -0.02 0 -0.03 -0.01 -0.05 -0.03 -0.07 -0.05 -0.05 0 0 -0.31 0.42zm1.21 0.94l-0.21 0.06 -0.1 -0.03 -0.04 -0.03 -0.03 -0.03 -0.03 -0.02 -0.02 -0.03 -0.03 -0.02 -0.03 -0.04 -0.04 -0.03 -0.03 -0.04 -0.04 -0.03 -0.03 -0.04 -0.04 -0.05 -0.04 -0.04 -0.04 -0.04 -0.04 -0.05 -0.04 -0.04 -0.04 -0.04 -0.04 -0.05 -0.04 -0.04 -0.03 -0.04 -0.04 -0.04 -0.03 -0.04 -0.04 -0.04 -0.03 -0.04 -0.02 -0.03 -0.03 -0.03 -0.02 -0.02 -0.02 -0.02 -0.02 -0.02 -0.01 -0.01 0 -0.01 0.03 0.03 0.31 -0.42 0.04 0.03 0.01 0.01 0.01 0.02 0.02 0.02 0.02 0.02 0.02 0.03 0.03 0.03 0.03 0.03 0.03 0.03 0.03 0.04 0.03 0.04 0.04 0.04 0.04 0.04 0.03 0.04 0.04 0.05 0.04 0.04 0.04 0.04 0.04 0.05 0.04 0.04 0.04 0.04 0.03 0.04 0.04 0.04 0.03 0.03 0.03 0.04 0.03 0.03 0.03 0.02 0.02 0.03 0.02 0.01 0.01 0.01 0 0.01 -0.01 -0.01 -0.08 -0.03 -0.21 0.06 0.34 0.4zm0 0l-0.09 0.08 -0.12 -0.02 0.21 -0.06z"/>
    </g>
    <g>
     <path class="fil0" d="M5.43 6.68l-2.86 0 0 -0.21 2.86 0 0.1 0.11 -0.1 0.1zm0.1 -0.1l0 0.1 -0.1 0 0.1 -0.1zm0 -2.28l0 2.28 -0.21 0 0 -2.28 0.11 -0.11 0.1 0.11zm-0.21 0l0 -0.11 0.11 0 -0.11 0.11zm0.8 0.1l-0.69 0 0 -0.21 0.69 0 0.1 0.11 -0.1 0.1zm0 -0.21l0.1 0 0 0.11 -0.1 -0.11zm-0.11 2.39l0 -2.28 0.21 0 0 2.28 -0.1 0.1 -0.11 -0.1zm0.11 0.1l-0.11 0 0 -0.1 0.11 0.1zm2.91 0l-2.91 0 0 -0.21 2.91 0 0.11 0.11 -0.11 0.1zm0 -0.21l0.11 0 0 0.11 -0.11 -0.11zm-0.1 0.88l0 -0.77 0.21 0 0 0.77 -0.11 0.11 -0.1 -0.11zm0.21 0l0 0.11 -0.11 0 0.11 -0.11zm-6.57 -0.1l6.46 0 0 0.21 -6.46 0 -0.11 -0.11 0.11 -0.1zm0 0.21l-0.11 0 0 -0.11 0.11 0.11zm0.1 -0.88l0 0.77 -0.21 0 0 -0.77 0.11 -0.11 0.1 0.11zm-0.21 0l0 -0.11 0.11 0 -0.11 0.11z"/>
    </g>
    <g>
     <path class="fil0" d="M6.05 7.03l-0.21 0 0 0 0 0 0 -0.01 0 0 -0.01 0 0 -0.01 0 0 0 -0.01 0 0 0 0 0 0 0 -0.01 -0.01 0 0 0 0 -0.01 0 0 -0.01 0 0 0 0 -0.01 0 0 -0.01 0 0 0 0 0 -0.01 -0.01 0 0 0 0 0 0 -0.01 0 0 0 -0.01 0 0 0 0 0 -0.01 0 0 -0.21 0.02 0 0.01 0 0.02 0 0.01 0 0.01 0.01 0.02 0 0.01 0 0.01 0.01 0.02 0.01 0.01 0 0.01 0.01 0.01 0 0.01 0.01 0.01 0.01 0.01 0.01 0.01 0.01 0.01 0.01 0.01 0.01 0.01 0.01 0.01 0.01 0.01 0.01 0 0.01 0.01 0.02 0 0.01 0.01 0.01 0 0.02 0.01 0.01 0 0.01 0 0.02 0 0.01 0.01 0.02 0 0.01 0 0zm-0.29 0.28l0 -0.21 0 0 0.01 0 0 0 0 0 0.01 0 0 0 0.01 0 0 0 0 0 0 0 0.01 -0.01 0 0 0 0 0.01 0 0 0 0 -0.01 0 0 0.01 0 0 0 0 -0.01 0 0 0.01 0 0 -0.01 0 0 0 0 0 0 0 -0.01 0 0 0 -0.01 0.01 0 0 0 0 -0.01 0 0 0.21 0 0 0.01 -0.01 0.02 0 0.01 0 0.02 0 0.01 -0.01 0.01 0 0.02 -0.01 0.01 0 0.01 -0.01 0.02 0 0.01 -0.01 0.01 -0.01 0.01 -0.01 0.01 -0.01 0.01 -0.01 0.01 -0.01 0.01 -0.01 0.01 -0.01 0.01 -0.01 0 -0.01 0.01 -0.01 0.01 -0.01 0 -0.02 0.01 -0.01 0.01 -0.01 0 -0.02 0 -0.01 0.01 -0.01 0 -0.02 0 -0.01 0 -0.02 0 0 0zm-0.28 -0.28l0.21 0 0 0 0 0 0 0.01 0 0 0 0 0 0.01 0 0 0 0.01 0.01 0 0 0 0 0 0 0.01 0 0 0 0 0.01 0.01 0 0 0 0 0 0 0.01 0.01 0 0 0 0 0.01 0 0 0 0 0.01 0.01 0 0 0 0 0 0.01 0 0 0 0 0 0.01 0 0 0 0 0 0 0.21 -0.01 0 -0.02 0 -0.01 0 -0.01 0 -0.02 -0.01 -0.01 0 -0.01 0 -0.02 -0.01 -0.01 -0.01 -0.01 0 -0.01 -0.01 -0.01 -0.01 -0.02 0 -0.01 -0.01 -0.01 -0.01 -0.01 -0.01 -0.01 -0.01 -0.01 -0.01 0 -0.01 -0.01 -0.01 -0.01 -0.01 -0.01 -0.01 0 -0.02 -0.01 -0.01 0 -0.01 -0.01 -0.02 0 -0.01 0 -0.01 -0.01 -0.02 0 -0.01 0 -0.02 0 -0.01 0 0zm0.28 -0.28l0 0.21 0 0 0 0 0 0 -0.01 0 0 0 0 0 -0.01 0 0 0 0 0 -0.01 0 0 0.01 0 0 -0.01 0 0 0 0 0 -0.01 0.01 0 0 0 0 0 0 -0.01 0.01 0 0 0 0 0 0.01 0 0 0 0 -0.01 0 0 0.01 0 0 0 0.01 0 0 0 0 0 0.01 0 0 -0.21 0 0 -0.01 0 -0.02 0 -0.01 0.01 -0.02 0 -0.01 0 -0.01 0.01 -0.02 0 -0.01 0.01 -0.01 0 -0.02 0.01 -0.01 0.01 -0.01 0.01 -0.01 0 -0.01 0.01 -0.01 0.01 -0.01 0.01 -0.01 0.01 -0.01 0.01 -0.01 0.02 -0.01 0.01 0 0.01 -0.01 0.01 -0.01 0.01 0 0.02 -0.01 0.01 0 0.01 0 0.02 -0.01 0.01 0 0.01 0 0.02 0 0.01 0 0 0z"/>
    </g>
    <g>
     <path class="fil0" d="M5.44 7.73l-3.01 0 0 -0.53 3.01 0 0.27 0.27 -0.27 0.26zm0 -0.53l0.27 0 0 0.27 -0.27 -0.27zm-0.26 1.47l0 -1.2 0.53 0 0 1.2 -0.27 0.27 -0.26 -0.27zm0.26 0.27l-0.26 0 0 -0.27 0.26 0.27zm0.72 0l-0.72 0 0 -0.53 0.72 0 0.26 0.26 -0.26 0.27zm0.26 -0.27l0 0.27 -0.26 0 0.26 -0.27zm0 -1.2l0 1.2 -0.53 0 0 -1.2 0.27 -0.27 0.26 0.27zm-0.53 0l0 -0.27 0.27 0 -0.27 0.27zm3.29 0.26l-3.02 0 0 -0.53 3.02 0 0.26 0.24 -0.26 0.29zm0.26 -0.29l0.02 0.29 -0.28 0 0.26 -0.29zm-3.64 -2.82l0 -0.52 0 0 0.18 0 0.18 0.01 0.17 0.02 0.17 0.03 0.17 0.04 0.16 0.04 0.17 0.06 0.16 0.06 0.15 0.06 0.15 0.08 0.15 0.08 0.14 0.08 0.14 0.09 0.14 0.1 0.13 0.11 0.12 0.11 0.12 0.11 0.11 0.12 0.11 0.13 0.1 0.13 0.1 0.14 0.09 0.14 0.09 0.14 0.07 0.15 0.08 0.15 0.06 0.16 0.06 0.16 0.05 0.16 0.04 0.17 0.03 0.17 0.03 0.17 0.02 0.17 -0.53 0.05 -0.01 -0.15 -0.02 -0.15 -0.03 -0.14 -0.04 -0.15 -0.04 -0.14 -0.05 -0.13 -0.06 -0.14 -0.06 -0.13 -0.06 -0.12 -0.08 -0.13 -0.07 -0.12 -0.09 -0.11 -0.08 -0.12 -0.1 -0.1 -0.09 -0.11 -0.11 -0.1 -0.1 -0.09 -0.11 -0.09 -0.12 -0.09 -0.12 -0.08 -0.12 -0.07 -0.13 -0.07 -0.13 -0.06 -0.13 -0.06 -0.14 -0.05 -0.13 -0.04 -0.15 -0.04 -0.14 -0.03 -0.15 -0.03 -0.14 -0.01 -0.16 -0.01 -0.15 -0.01 0 0zm-3.37 2.58l0 0.53 -0.27 -0.29 0.02 -0.17 0.03 -0.17 0.03 -0.17 0.05 -0.17 0.05 -0.16 0.05 -0.16 0.07 -0.16 0.07 -0.15 0.08 -0.15 0.08 -0.14 0.09 -0.14 0.1 -0.14 0.1 -0.13 0.11 -0.13 0.11 -0.12 0.12 -0.11 0.13 -0.11 0.13 -0.11 0.13 -0.1 0.14 -0.09 0.14 -0.08 0.15 -0.08 0.15 -0.08 0.16 -0.06 0.16 -0.06 0.16 -0.06 0.16 -0.04 0.17 -0.04 0.17 -0.03 0.18 -0.02 0.17 -0.01 0.18 0 0 0.52 -0.15 0.01 -0.15 0.01 -0.15 0.01 -0.15 0.03 -0.14 0.03 -0.14 0.04 -0.14 0.04 -0.14 0.05 -0.13 0.06 -0.13 0.06 -0.13 0.07 -0.12 0.07 -0.12 0.08 -0.11 0.09 -0.11 0.09 -0.11 0.09 -0.1 0.1 -0.1 0.11 -0.09 0.1 -0.09 0.12 -0.09 0.11 -0.07 0.12 -0.08 0.13 -0.06 0.12 -0.06 0.13 -0.06 0.14 -0.05 0.13 -0.04 0.14 -0.03 0.15 -0.03 0.14 -0.03 0.15 -0.01 0.15 -0.26 -0.29zm0 0.53l-0.29 0 0.02 -0.29 0.27 0.29z"/>
    </g>
   </g>
   <rect class="fil1" x="0.31" y="0.31" width="10.89" height="10.89"/>
  </g>
 </g>
</svg>
