<?xml version="1.0" encoding="UTF-8"?>
<!DOCTYPE svg PUBLIC "-//W3C//DTD SVG 1.1//EN" "http://www.w3.org/Graphics/SVG/1.1/DTD/svg11.dtd">
<!-- Creator: CorelDRAW 2018 (64-Bit) -->
<svg xmlns="http://www.w3.org/2000/svg" xml:space="preserve" width="4.9648mm" height="4.9648mm" version="1.1" style="shape-rendering:geometricPrecision; text-rendering:geometricPrecision; image-rendering:optimizeQuality; fill-rule:evenodd; clip-rule:evenodd"
viewBox="0 0 93.08 93.08"
 xmlns:xlink="http://www.w3.org/1999/xlink">
 <defs>
  <style type="text/css">
   <![CDATA[
    .fil0 {fill:#9999FF;fill-rule:nonzero}
   ]]>
  </style>
 </defs>
 <g id="Layer_x0020_1">
  <metadata id="CorelCorpID_0Corel-Layer"/>
  <g id="_1715889467504">
   <g>
    <path class="fil0" d="M2.06 81.08l9.94 9.94c-2.74,2.74 -7.2,2.74 -9.94,0 -2.74,-2.74 -2.74,-7.2 0,-9.94zm39.51 -39.51l9.94 0 0 9.94 -39.51 39.51 -9.94 -9.94 39.51 -39.51zm9.94 0l4.97 4.97 -4.97 4.97 0 -9.94zm-49.45 -29.57l9.94 -9.94 39.51 39.51 -9.94 9.94 -39.51 -39.51zm9.94 -9.94l-9.94 9.94c-2.74,-2.74 -2.74,-7.2 0,-9.94 2.74,-2.74 7.2,-2.74 9.94,0z"/>
   </g>
   <g>
    <path class="fil0" d="M2.06 81.08l9.94 9.94c-2.74,2.74 -7.2,2.74 -9.94,0 -2.74,-2.74 -2.74,-7.2 0,-9.94zm39.51 -39.51l9.94 0 0 9.94 -39.51 39.51 -9.94 -9.94 39.51 -39.51zm9.94 0l4.97 4.97 -4.97 4.97 0 -9.94zm-49.45 -29.57l9.94 -9.94 39.51 39.51 -9.94 9.94 -39.51 -39.51zm9.94 -9.94l-9.94 9.94c-2.74,-2.74 -2.74,-7.2 0,-9.94 2.74,-2.74 7.2,-2.74 9.94,0z"/>
   </g>
   <g>
    <path class="fil0" d="M91.02 81.08c2.74,2.74 2.74,7.2 0,9.94 -2.74,2.74 -7.2,2.74 -9.94,0l9.94 -9.94zm-39.51 -39.51l39.51 39.51 -9.94 9.94 -39.51 -39.51 0 -9.94 9.94 0zm-9.94 9.94l-4.97 -4.97 4.97 -4.97 0 9.94zm49.45 -39.51l-39.51 39.51 -9.94 -9.94 39.51 -39.51 9.94 9.94zm-9.94 -9.94c2.74,-2.74 7.2,-2.74 9.94,0 2.74,2.74 2.74,7.2 0,9.94l-9.94 -9.94z"/>
   </g>
  </g>
 </g>
</svg>
