<?xml version="1.0" encoding="UTF-8"?>
<!DOCTYPE svg PUBLIC "-//W3C//DTD SVG 1.1//EN" "http://www.w3.org/Graphics/SVG/1.1/DTD/svg11.dtd">
<!-- Creator: CorelDRAW 2018 (64-Bit) -->
<svg xmlns="http://www.w3.org/2000/svg" xml:space="preserve" width="3.0128mm" height="4.9648mm" version="1.1" style="shape-rendering:geometricPrecision; text-rendering:geometricPrecision; image-rendering:optimizeQuality; fill-rule:evenodd; clip-rule:evenodd"
viewBox="0 0 18.83 31.02"
 xmlns:xlink="http://www.w3.org/1999/xlink">
 <defs>
  <style type="text/css">
   <![CDATA[
    .fil0 {fill:#9999FF;fill-rule:nonzero}
   ]]>
  </style>
 </defs>
 <g id="Layer_x0020_1">
  <metadata id="CorelCorpID_0Corel-Layer"/>
  <g>
   <path class="fil0" d="M18.14 27.02c0.91,0.91 0.91,2.4 0,3.31 -0.91,0.91 -2.4,0.91 -3.31,0l3.31 -3.31zm-13.17 -13.17l13.17 13.17 -3.31 3.31 -13.17 -13.17 0 -3.31 3.31 0zm-3.31 3.31l-1.66 -1.66 1.66 -1.66 0 3.31zm16.48 -13.17l-13.17 13.17 -3.31 -3.31 13.17 -13.17 3.31 3.31zm-3.31 -3.31c0.91,-0.91 2.4,-0.91 3.31,0 0.91,0.91 0.91,2.4 0,3.31l-3.31 -3.31z"/>
  </g>
 </g>
</svg>
