<?xml version="1.0" encoding="UTF-8"?>
<!DOCTYPE svg PUBLIC "-//W3C//DTD SVG 1.1//EN" "http://www.w3.org/Graphics/SVG/1.1/DTD/svg11.dtd">
<!-- Creator: CorelDRAW 2018 (64-Bit) -->
<svg xmlns="http://www.w3.org/2000/svg" xml:space="preserve" width="3.0128mm" height="4.9648mm" version="1.1" style="shape-rendering:geometricPrecision; text-rendering:geometricPrecision; image-rendering:optimizeQuality; fill-rule:evenodd; clip-rule:evenodd"
viewBox="0 0 288.58 475.55"
 xmlns:xlink="http://www.w3.org/1999/xlink">
 <defs>
  <style type="text/css">
   <![CDATA[
    .fil0 {fill:#9999FF;fill-rule:nonzero}
   ]]>
  </style>
 </defs>
 <g id="Layer_x0020_1">
  <metadata id="CorelCorpID_0Corel-Layer"/>
  <g>
   <path class="fil0" d="M10.52 414.23l50.8 50.8c-14.02,14.02 -36.78,14.02 -50.8,0 -14.02,-14.02 -14.02,-36.78 0,-50.8zm201.86 -201.86l50.8 0 0 50.8 -201.86 201.86 -50.8 -50.8 201.86 -201.86zm50.8 0l25.4 25.4 -25.4 25.4 0 -50.8zm-252.66 -151.05l50.8 -50.8 201.86 201.86 -50.8 50.8 -201.86 -201.86zm50.8 -50.8l-50.8 50.8c-14.02,-14.02 -14.02,-36.78 0,-50.8 14.02,-14.02 36.78,-14.02 50.8,0z"/>
  </g>
 </g>
</svg>
