<?xml version="1.0" encoding="UTF-8"?>
<!DOCTYPE svg PUBLIC "-//W3C//DTD SVG 1.1//EN" "http://www.w3.org/Graphics/SVG/1.1/DTD/svg11.dtd">
<!-- Creator: CorelDRAW 2018 (64-Bit) -->
<svg xmlns="http://www.w3.org/2000/svg" xml:space="preserve" width="9.0464mm" height="9.0464mm" version="1.1" style="shape-rendering:geometricPrecision; text-rendering:geometricPrecision; image-rendering:optimizeQuality; fill-rule:evenodd; clip-rule:evenodd"
viewBox="0 0 267.77 267.77"
 xmlns:xlink="http://www.w3.org/1999/xlink">
 <defs>
  <style type="text/css">
   <![CDATA[
    .str0 {stroke:#9999FF;stroke-width:13.03;stroke-miterlimit:22.9256}
    .fil0 {fill:none}
    .fil1 {fill:#9999FF}
   ]]>
  </style>
 </defs>
 <g id="Layer_x0020_1">
  <metadata id="CorelCorpID_0Corel-Layer"/>
  <rect class="fil0 str0" x="6.51" y="6.51" width="254.75" height="254.75"/>
  <g id="_1528674076304">
   <path class="fil1" d="M43.31 192.64l0 -17.25c195.62,0 42.93,0 181.15,0l0 17.25c-77.56,0 -83.3,0 -181.15,0z"/>
   <path class="fil1" d="M43.31 93.17l0 -17.25c195.62,0 42.93,0 181.15,0l0 17.25c-77.56,0 -83.3,0 -181.15,0z"/>
  </g>
  <path class="fil1" d="M43.31 142.51l0 -17.25c195.62,0 42.93,0 181.15,0l0 17.25c-77.56,0 -83.3,0 -181.15,0z"/>
 </g>
</svg>
