<?xml version="1.0" encoding="UTF-8"?>
<!DOCTYPE svg PUBLIC "-//W3C//DTD SVG 1.1//EN" "http://www.w3.org/Graphics/SVG/1.1/DTD/svg11.dtd">
<!-- Creator: CorelDRAW 2018 (64-Bit) -->
<svg xmlns="http://www.w3.org/2000/svg" xml:space="preserve" width="168.487mm" height="76.0942mm" version="1.1" style="shape-rendering:geometricPrecision; text-rendering:geometricPrecision; image-rendering:optimizeQuality; fill-rule:evenodd; clip-rule:evenodd"
viewBox="0 0 18586.24 8394.16"
 xmlns:xlink="http://www.w3.org/1999/xlink">
 <defs>
  <style type="text/css">
   <![CDATA[
    .str13 {stroke:#9999FF;stroke-width:54.78;stroke-miterlimit:22.9256}
    .str7 {stroke:#9999FF;stroke-width:66.19;stroke-linejoin:bevel;stroke-miterlimit:22.9256}
    .str12 {stroke:#9999FF;stroke-width:66.19;stroke-linejoin:bevel;stroke-miterlimit:22.9256}
    .str1 {stroke:#9999FF;stroke-width:66.19;stroke-linejoin:bevel;stroke-miterlimit:22.9256}
    .str0 {stroke:#9999FF;stroke-width:66.19;stroke-linejoin:bevel;stroke-miterlimit:22.9256}
    .str6 {stroke:#9999FF;stroke-width:66.19;stroke-linejoin:bevel;stroke-miterlimit:22.9256}
    .str5 {stroke:#9999FF;stroke-width:66.19;stroke-linejoin:bevel;stroke-miterlimit:22.9256}
    .str2 {stroke:#9999FF;stroke-width:66.19;stroke-linejoin:bevel;stroke-miterlimit:22.9256}
    .str3 {stroke:#9999FF;stroke-width:66.19;stroke-linejoin:bevel;stroke-miterlimit:22.9256}
    .str4 {stroke:#9999FF;stroke-width:66.19;stroke-linejoin:bevel;stroke-miterlimit:22.9256}
    .str8 {stroke:#9999FF;stroke-width:66.19;stroke-linejoin:bevel;stroke-miterlimit:22.9256}
    .str10 {stroke:#9999FF;stroke-width:66.19;stroke-linejoin:bevel;stroke-miterlimit:22.9256}
    .str9 {stroke:#9999FF;stroke-width:66.19;stroke-linejoin:bevel;stroke-miterlimit:22.9256}
    .str11 {stroke:#9999FF;stroke-width:66.19;stroke-linejoin:bevel;stroke-miterlimit:22.9256}
    .fil0 {fill:none}
    .fil2 {fill:#9999FF}
    .fil3 {fill:#9999FF;fill-rule:nonzero}
    .fil1 {fill:#9999FF;fill-rule:nonzero}
   ]]>
  </style>
 </defs>
 <g id="Layer_x0020_1">
  <metadata id="CorelCorpID_0Corel-Layer"/>
  <g id="_1854305147808">
   <polygon class="fil0 str0" points="8719.68,3327.73 10992.13,2296.65 11575.51,3470.18 11138.84,3534.75 10616.22,3160.26 8936.75,3558.37 "/>
   <polygon class="fil0 str1" points="8957.1,5227.09 11365.22,5579.84 11860.41,4331.69 11423.74,4267.11 10792.6,4879.01 9167.38,4921.84 "/>
   <g>
    <path class="fil1" d="M10897.01 3697.5l-2006.19 404.97 -13.26 -64.86 2006.19 -404.97 14.5 0.28 -1.24 64.59zm765.61 188.17l-780.11 -188.45 15.73 -64.31 780.11 188.45 12.67 58.21 -28.41 6.1zm-361.18 212.94l348.5 -271.15 41.08 52.11 -348.5 271.15 -27.53 6.3 -13.55 -58.41zm-501.86 -119.18l529.39 112.88 -13.99 64.71 -529.39 -112.88 2.93 -65.21 11.05 0.5zm-1700.7 205.5l1689.65 -206 8.12 65.7 -1689.65 206 -22.78 -5.48 14.66 -60.22zm-195.98 -142.26l218.76 147.74 -37.44 54.74 -218.76 -147.74 12.09 -59.8 25.35 5.06z"/>
   </g>
   <polygon class="fil0 str2" points="625.18,4563.6 2079.84,4846.79 1319.58,5708.19 625.18,6169.33 "/>
   <polygon class="fil0 str2" points="3814.25,3424.04 4770.4,3459.97 5207.06,3838.64 "/>
   <polygon class="fil0 str2" points="2365.12,4049.91 2574.41,4627.68 2079.84,4846.79 1452.85,4061 "/>
   <polygon class="fil0 str3" points="1197.31,3736.89 2057.5,3241.49 2365.12,4049.91 1452.09,4061.01 "/>
   <polygon class="fil0 str2" points="625.18,3887.89 1197.31,3736.89 625.18,4565.1 "/>
   <polygon class="fil0 str4" points="3568.41,5085.08 3098.98,5081.99 2574.41,4627.68 2365.12,4049.91 4118.58,4861.66 "/>
   <polygon class="fil0 str5" points="4736.77,5066.66 4118.58,4861.66 3568.41,5085.08 4212.76,5278.31 4589.39,5557.83 4874.67,5720.15 5098.04,5873.87 5311.65,5810.09 5304.46,5532.86 5055.07,5226.71 "/>
   <polygon class="fil0 str3" points="4622.39,5903.39 4796.24,6024.3 4936.37,5763.79 4874.69,5716.96 4589.38,5557.83 "/>
   <polygon class="fil0 str3" points="3815.85,3423.87 2057.5,3241.49 2365.12,4049.91 2756.1,3764.53 "/>
   <polygon class="fil0 str3" points="2368.04,4049.33 4118.58,4861.66 3736.55,4329.08 3377.28,3790.86 3814.54,3424.05 2754.23,3756.12 "/>
   <line class="fil0 str3" x1="4363.61" y1="4755.94" x2="4736.77" y2= "5066.66" />
   <polygon class="fil0 str3" points="4613.37,4338.28 5197.41,4115.79 3387.83,3792.73 4093.87,4419.02 4231.29,4590.34 "/>
   <polygon class="fil0 str6" points="4613.37,4338.28 5119.35,4464.36 4581.21,4680.63 5118.7,4464.72 5054.86,5225.84 4735.44,5064.38 4581.21,4680.63 4369.26,4763.26 4231.29,4590.33 "/>
   <polygon class="fil0 str2" points="3814.25,3424.04 5197.98,4115.17 6041.23,4082.28 5207.06,3838.64 "/>
   <polygon class="fil0 str3" points="4613.37,4338.28 5119.34,4464.37 5773.35,4478.83 5194.43,4116.29 "/>
   <polygon class="fil0 str3" points="5579.52,4949.27 5119.34,4464.37 5773.35,4478.83 6180.14,5165.21 "/>
   <polygon class="fil0 str3" points="5429.2,5120.06 5687.88,5157.71 5572.33,4941.7 5119.34,4464.37 5090.12,4821.96 "/>
   <polygon class="fil0 str3" points="5429.2,5120.06 5690.88,5158.47 5904.91,5573.49 5835.77,5685.96 "/>
   <polygon class="fil0 str3" points="6181.65,5165.21 5579.52,4949.28 5904.91,5573.49 6120.25,5711.29 6244.53,5568.65 "/>
   <polygon class="fil0 str2" points="5778.92,4483.51 5197.98,4115.17 6041.23,4082.28 6265.02,4914.66 "/>
   <polygon class="fil0 str2" points="6873,5114.07 6487.68,4575.69 6041.23,4082.28 6265.02,4914.66 6546.37,5224.14 6763.82,5230.32 "/>
   <polygon class="fil0 str2" points="625.18,4563.6 1451.26,4060.06 2079.84,4846.79 "/>
   <polygon class="fil0 str7" points="11655.17,2877.34 12232.33,2724.99 12762.12,4731.98 12184.94,4884.33 "/>
   <path class="fil0 str8" d="M13426.26 3041.9l-793.82 209.7c-132.92,35.1 -270.4,-44.96 -305.49,-177.9"/>
   <path class="fil0 str9" d="M12642.74 4271.08c-35.09,-132.94 44.96,-270.39 177.89,-305.5l793.81 -209.7"/>
   <path class="fil0 str10" d="M14437.92 3734.68c84.39,-65.57 150.04,-152.2 190.33,-251.17 126.78,-311.42 -22.89,-666.65 -334.3,-793.45 -311.42,-126.78 -666.65,22.89 -793.44,334.3 -111.42,273.65 -10.26,587.78 239.88,745.01l1329.63 1015.43"/>
   <path class="fil0 str11" d="M15376.89 4041.4c-84.39,65.57 -150.03,152.2 -190.33,251.17 -126.78,311.42 22.89,666.65 334.3,793.44 311.42,126.78 666.65,-22.88 793.45,-334.3 111.4,-273.64 10.26,-587.78 -239.88,-745l-1329.63 -1015.43"/>
   <path class="fil0 str7" d="M13971.68 3481.65c-125.76,-51.21 -186.2,-194.66 -135,-320.41 51.2,-125.76 194.65,-186.2 320.4,-135 125.76,51.21 186.2,194.66 135,320.41 -51.2,125.76 -194.65,186.2 -320.4,135z"/>
   <path class="fil0 str7" d="M15843.14 4294.43c125.76,51.21 186.2,194.65 135,320.41 -51.21,125.76 -194.66,186.2 -320.41,134.99 -125.76,-51.2 -186.2,-194.65 -134.99,-320.4 51.2,-125.76 194.65,-186.2 320.4,-135z"/>
   <polyline class="fil0 str12" points="16211.39,3938.76 17398.5,3938.76 17398.5,5105.51 16211.39,5105.51 "/>
   <rect class="fil0 str13" x="7292.08" y="4003.55" width="1071.29" height="1071.29"/>
   <path class="fil2" d="M7502.84 4158.3l72.56 0 0 369.87c26.89,-0.49 53.16,-3.57 78.54,-9.05l0 -360.82 72.56 0 0 337.83c19.88,-8.44 38.94,-18.42 57.04,-29.78l-0.14 -0.33c19.58,-12.33 38.04,-26.28 55.18,-41.67l0.18 0.42c74.65,-66.83 124.45,-160.84 133.83,-266.47l72.83 0c-10.21,135.96 -77.21,256.09 -177.33,336.74l32.51 77.92c130.43,-95.71 219.42,-244.56 235.02,-414.67l72.86 0c-12,147.5 -73.02,281.13 -166.75,384.59l157.44 377.2 -72.56 0 -136.24 -326.43c-19.38,17.16 -39.78,33.18 -61.1,47.98l116.23 278.45 -72.56 0 -101.31 -242.73c-45.36,24.93 -94.01,44.59 -145.12,58.25l0 184.49 -72.56 0 0 -169.46c-25.71,3.82 -51.94,6.1 -78.54,6.81l0 162.66 -72.56 0 0 -164.69c-18.86,-1.57 -37.5,-3.94 -55.86,-7.08l0 -73.74c18.32,3.54 36.95,6.21 55.86,7.99l0 -86.13c-19.01,-2.58 -37.65,-6.28 -55.86,-11.02l0 -75.48c18.1,5.65 36.76,10.05 55.86,13.13l0 -364.77zm72.56 526.53c26.67,-0.81 52.89,-3.4 78.54,-7.69l0 -84.07c-25.54,4.64 -51.77,7.24 -78.54,7.66l0 84.1zm151.11 -24.68c41.11,-12.49 80.29,-29.42 116.98,-50.23l-31.66 -75.84c-26.86,15.93 -55.4,29.33 -85.32,39.82l0 86.24z"/>
  </g>
  <path class="fil3" d="M3458.74 8315.99c-23.52,5.88 -54.56,12.12 -93.15,18.74 -38.58,6.61 -83.22,9.92 -133.93,9.92 -44.09,0 -81.2,-6.43 -111.33,-19.29 -30.13,-12.85 -54.38,-31.04 -72.75,-54.56 -18.37,-23.52 -31.6,-51.25 -39.68,-83.22 -8.09,-31.97 -12.13,-67.42 -12.13,-106.37l0 -321.87 102.51 0 0 299.83c0,69.81 11.03,119.78 33.07,149.9 22.05,30.14 59.16,45.2 111.34,45.2 11.02,0 22.4,-0.36 34.16,-1.1 11.76,-0.73 22.78,-1.64 33.07,-2.75 10.29,-1.1 19.66,-2.21 28.11,-3.31 8.45,-1.1 14.52,-2.39 18.19,-3.86l0 -483.91 102.51 0 0 556.66z"/>
  <path id="1" class="fil3" d="M3803.38 7775.86c23.52,-5.88 54.75,-12.12 93.7,-18.74 38.94,-6.61 83.77,-9.92 134.47,-9.92 45.57,0 83.41,6.43 113.54,19.29 30.13,12.85 54.2,30.85 72.2,54.01 18,23.14 30.68,50.89 38.02,83.22 7.35,32.33 11.03,67.97 11.03,106.93l0 321.87 -102.52 0 0 -299.83c0,-35.27 -2.38,-65.39 -7.16,-90.38 -4.78,-24.99 -12.67,-45.2 -23.7,-60.63 -11.03,-15.43 -25.72,-26.64 -44.09,-33.62 -18.38,-6.98 -41.16,-10.47 -68.35,-10.47 -11.02,0 -22.42,0.36 -34.16,1.1 -11.76,0.73 -22.97,1.64 -33.62,2.75 -10.66,1.1 -20.21,2.39 -28.66,3.86 -8.45,1.47 -14.52,2.57 -18.19,3.31l0 483.91 -102.51 0 0 -556.66z"/>
  <path id="2" class="fil3" d="M4974.74 7880.58c-12.5,-10.29 -30.5,-20.21 -54.02,-29.76 -23.51,-9.55 -49.23,-14.33 -77.15,-14.33 -29.4,0 -54.57,5.33 -75.51,15.98 -20.95,10.66 -38.04,25.35 -51.26,44.09 -13.23,18.73 -22.78,40.97 -28.66,66.68 -5.88,25.72 -8.81,53.28 -8.81,82.67 0,66.88 16.54,118.5 49.61,154.88 33.06,36.37 77.15,54.56 132.28,54.56 27.92,0 51.25,-1.28 69.99,-3.85 18.73,-2.58 33.25,-5.33 43.54,-8.27l0 -362.65zm0 -385.81l102.51 -17.64 0 838.85c-23.52,6.62 -53.65,13.23 -90.39,19.85 -36.75,6.61 -78.99,9.92 -126.76,9.92 -44.09,0 -83.78,-6.98 -119.05,-20.94 -35.28,-13.97 -65.4,-33.81 -90.39,-59.52 -24.99,-25.72 -44.28,-57.14 -57.87,-94.25 -13.6,-37.11 -20.4,-78.82 -20.4,-125.12 0,-44.09 5.69,-84.5 17.09,-121.24 11.4,-36.75 28.11,-68.35 50.16,-94.8 22.04,-26.45 49.05,-47.03 81.01,-61.73 31.97,-14.69 68.53,-22.04 109.68,-22.04 33.06,0 62.27,4.41 87.63,13.23 25.35,8.81 44.27,17.26 56.77,25.35l0 -289.9z"/>
  <path id="3" class="fil3" d="M5389.93 8047.02c0,-50.7 7.35,-94.98 22.05,-132.83 14.69,-37.84 34.16,-69.25 58.42,-94.24 24.25,-24.99 52.17,-43.73 83.77,-56.22 31.6,-12.5 63.94,-18.74 97,-18.74 77.16,0 136.32,24.07 177.47,72.2 41.16,48.13 61.73,121.43 61.73,219.91 0,4.41 0,10.1 0,17.09 0,6.98 -0.36,13.41 -1.1,19.29l-392.42 0c4.41,59.52 21.68,104.71 51.8,135.57 30.14,30.87 77.16,46.3 141.1,46.3 36.01,0 66.32,-3.12 90.94,-9.37 24.61,-6.24 43.17,-12.31 55.66,-18.19l14.33 85.98c-12.5,6.62 -34.36,13.6 -65.59,20.95 -31.23,7.35 -66.68,11.02 -106.36,11.02 -49.97,0 -93.15,-7.53 -129.53,-22.59 -36.37,-15.07 -66.32,-35.83 -89.84,-62.28 -23.51,-26.45 -40.96,-57.87 -52.35,-94.25 -11.4,-36.37 -17.09,-76.24 -17.09,-119.6zm393.52 -56.22c0.74,-46.3 -10.83,-84.32 -34.72,-114.09 -23.88,-29.76 -56.77,-44.64 -98.66,-44.64 -23.51,0 -44.27,4.59 -62.27,13.78 -18,9.19 -33.26,21.12 -45.75,35.83 -12.5,14.69 -22.23,31.59 -29.21,50.7 -6.98,19.11 -11.57,38.59 -13.78,58.42l284.39 0z"/>
  <path id="4" class="fil3" d="M6418 7747.2c8.81,0 18.92,0.55 30.31,1.65 11.38,1.1 22.59,2.57 33.61,4.4 11.03,1.84 21.12,3.67 30.31,5.52 9.19,1.84 15.98,3.49 20.4,4.96l-17.64 89.29c-8.09,-2.95 -21.5,-6.43 -40.23,-10.48 -18.74,-4.04 -42.81,-6.06 -72.2,-6.06 -19.11,0 -38.04,2.02 -56.77,6.06 -18.74,4.05 -31.05,6.81 -36.93,8.27l0 481.7 -102.51 0 0 -548.95c24.25,-8.81 54.38,-17.08 90.39,-24.8 36.01,-7.71 76.42,-11.57 121.26,-11.57z"/>
  <path id="5" class="fil3" d="M7303.87 8345.75c-46.3,0 -86.89,-7.35 -121.81,-22.04 -34.9,-14.7 -64.3,-35.28 -88.18,-61.73 -23.88,-26.45 -41.7,-57.87 -53.46,-94.25 -11.76,-36.37 -17.64,-76.61 -17.64,-120.7 0,-44.09 6.43,-84.5 19.29,-121.24 12.86,-36.75 31.04,-68.53 54.56,-95.35 23.52,-26.82 52.37,-47.77 86.53,-62.83 34.17,-15.06 72.2,-22.59 114.1,-22.59 25.71,0 51.44,2.21 77.15,6.62 25.72,4.4 50.34,11.38 73.85,20.94l-23.14 87.08c-15.43,-7.35 -33.26,-13.23 -53.47,-17.64 -20.21,-4.4 -41.7,-6.61 -64.48,-6.61 -57.32,0 -101.23,18 -131.72,54.01 -30.5,36.01 -45.75,88.55 -45.75,157.63 0,30.87 3.49,59.16 10.47,84.89 6.98,25.71 18,47.77 33.07,66.13 15.07,18.38 34.35,32.52 57.87,42.44 23.52,9.93 52.18,14.88 85.98,14.88 27.19,0 51.81,-2.57 73.85,-7.71 22.05,-5.15 39.32,-10.66 51.81,-16.54l14.33 85.98c-5.88,3.67 -14.33,7.17 -25.36,10.47 -11.02,3.31 -23.51,6.25 -37.47,8.83 -13.97,2.57 -28.85,4.78 -44.64,6.61 -15.8,1.84 -31.05,2.76 -45.75,2.76z"/>
  <path id="6" class="fil3" d="M8227.22 8045.92c0,45.57 -6.62,86.72 -19.85,123.46 -13.23,36.75 -31.78,68.34 -55.66,94.8 -23.88,26.45 -52.37,46.84 -85.43,61.17 -33.07,14.34 -69.08,21.5 -108.03,21.5 -38.95,0 -74.96,-7.16 -108.03,-21.5 -33.07,-14.33 -61.54,-34.72 -85.43,-61.17 -23.88,-26.46 -42.44,-58.06 -55.66,-94.8 -13.23,-36.75 -19.85,-77.89 -19.85,-123.46 0,-44.82 6.62,-85.79 19.85,-122.9 13.23,-37.11 31.78,-68.89 55.66,-95.35 23.88,-26.45 52.35,-46.84 85.43,-61.17 33.07,-14.34 69.08,-21.5 108.03,-21.5 38.95,0 74.96,7.16 108.03,21.5 33.06,14.33 61.54,34.72 85.43,61.17 23.88,26.46 42.44,58.25 55.66,95.35 13.23,37.11 19.85,78.08 19.85,122.9zm-106.93 0c0,-64.67 -14.52,-115.92 -43.54,-153.77 -29.03,-37.85 -68.53,-56.77 -118.5,-56.77 -49.97,0 -89.47,18.92 -118.5,56.77 -29.02,37.85 -43.54,89.1 -43.54,153.77 0,64.68 14.52,115.93 43.54,153.78 29.02,37.85 68.53,56.77 118.5,56.77 49.97,0 89.46,-18.92 118.5,-56.77 29.02,-37.85 43.54,-89.1 43.54,-153.78z"/>
  <path id="7" class="fil3" d="M8539.89 7775.86c23.52,-5.88 54.75,-12.12 93.7,-18.74 38.94,-6.61 83.77,-9.92 134.47,-9.92 45.57,0 83.41,6.43 113.54,19.29 30.13,12.85 54.2,30.85 72.2,54.01 18,23.14 30.68,50.89 38.02,83.22 7.35,32.33 11.03,67.97 11.03,106.93l0 321.87 -102.52 0 0 -299.83c0,-35.27 -2.38,-65.39 -7.16,-90.38 -4.78,-24.99 -12.67,-45.2 -23.7,-60.63 -11.03,-15.43 -25.72,-26.64 -44.09,-33.62 -18.38,-6.98 -41.16,-10.47 -68.35,-10.47 -11.02,0 -22.42,0.36 -34.16,1.1 -11.76,0.73 -22.97,1.64 -33.62,2.75 -10.66,1.1 -20.21,2.39 -28.66,3.86 -8.45,1.47 -14.52,2.57 -18.19,3.31l0 483.91 -102.51 0 0 -556.66z"/>
  <path id="8" class="fil3" d="M9474.26 8258.67c41.89,0 72.94,-5.52 93.15,-16.54 20.21,-11.02 30.31,-28.66 30.31,-52.91 0,-24.99 -9.93,-44.83 -29.76,-59.52 -19.85,-14.7 -52.55,-31.23 -98.11,-49.61 -22.04,-8.81 -43.18,-17.82 -63.37,-27 -20.21,-9.19 -37.67,-20.02 -52.37,-32.52 -14.69,-12.49 -26.45,-27.56 -35.27,-45.2 -8.83,-17.64 -13.24,-39.32 -13.24,-65.03 0,-50.71 18.74,-90.94 56.23,-120.7 37.47,-29.76 88.55,-44.64 153.21,-44.64 16.17,0 32.33,0.92 48.5,2.76 16.16,1.83 31.23,4.04 45.2,6.61 13.95,2.57 26.27,5.33 36.92,8.27 10.66,2.93 18.93,5.5 24.81,7.71l-18.74 88.18c-11.02,-5.88 -28.3,-11.94 -51.81,-18.19 -23.51,-6.24 -51.8,-9.37 -84.87,-9.37 -28.66,0 -53.65,5.69 -74.96,17.09 -21.31,11.4 -31.97,29.21 -31.97,53.46 0,12.5 2.39,23.52 7.17,33.07 4.78,9.55 12.12,18.19 22.04,25.9 9.93,7.72 22.24,14.88 36.93,21.5 14.69,6.61 32.33,13.59 52.91,20.94 27.19,10.29 51.44,20.4 72.75,30.31 21.31,9.93 39.5,21.5 54.57,34.73 15.06,13.23 26.64,29.21 34.72,47.95 8.09,18.73 12.12,41.7 12.12,68.89 0,52.91 -19.66,92.96 -58.97,120.15 -39.32,27.19 -95.34,40.78 -168.09,40.78 -50.71,0 -90.39,-4.22 -119.05,-12.67 -28.66,-8.45 -48.13,-14.88 -58.42,-19.29l18.74 -88.18c11.76,4.41 30.49,11.03 56.22,19.85 25.71,8.81 59.89,13.23 102.51,13.23z"/>
  <path id="9" class="fil3" d="M10096.68 7759.33l217.16 0 0 85.98 -217.16 0 0 264.55c0,28.66 2.21,52.37 6.62,71.1 4.41,18.74 11.02,33.44 19.85,44.09 8.81,10.66 19.83,18.19 33.06,22.6 13.24,4.4 28.66,6.61 46.3,6.61 30.87,0 55.66,-3.49 74.41,-10.47 18.74,-6.98 31.78,-11.94 39.14,-14.88l19.83 84.87c-10.28,5.15 -28.3,11.57 -54.01,19.29 -25.72,7.71 -55.11,11.57 -88.18,11.57 -38.95,0 -71.1,-4.95 -96.46,-14.88 -25.35,-9.92 -45.74,-24.8 -61.17,-44.64 -15.43,-19.83 -26.28,-44.27 -32.52,-73.3 -6.24,-29.02 -9.38,-62.65 -9.38,-100.86l0 -511.47 102.51 -17.64 0 177.47z"/>
  <path id="10" class="fil3" d="M10823.83 7747.2c8.81,0 18.92,0.55 30.31,1.65 11.38,1.1 22.59,2.57 33.61,4.4 11.03,1.84 21.12,3.67 30.31,5.52 9.19,1.84 15.98,3.49 20.4,4.96l-17.64 89.29c-8.09,-2.95 -21.5,-6.43 -40.23,-10.48 -18.74,-4.04 -42.81,-6.06 -72.2,-6.06 -19.11,0 -38.04,2.02 -56.77,6.06 -18.74,4.05 -31.05,6.81 -36.93,8.27l0 481.7 -102.51 0 0 -548.95c24.25,-8.81 54.38,-17.08 90.39,-24.8 36.01,-7.71 76.42,-11.57 121.26,-11.57z"/>
  <path id="11" class="fil3" d="M11662.29 8315.99c-23.52,5.88 -54.56,12.12 -93.15,18.74 -38.58,6.61 -83.22,9.92 -133.93,9.92 -44.09,0 -81.2,-6.43 -111.33,-19.29 -30.13,-12.85 -54.38,-31.04 -72.75,-54.56 -18.37,-23.52 -31.6,-51.25 -39.68,-83.22 -8.09,-31.97 -12.13,-67.42 -12.13,-106.37l0 -321.87 102.51 0 0 299.83c0,69.81 11.03,119.78 33.07,149.9 22.05,30.14 59.16,45.2 111.34,45.2 11.02,0 22.4,-0.36 34.16,-1.1 11.76,-0.73 22.78,-1.64 33.07,-2.75 10.29,-1.1 19.66,-2.21 28.11,-3.31 8.45,-1.1 14.52,-2.39 18.19,-3.86l0 -483.91 102.51 0 0 556.66z"/>
  <path id="12" class="fil3" d="M12256.05 8345.75c-46.3,0 -86.89,-7.35 -121.81,-22.04 -34.9,-14.7 -64.3,-35.28 -88.18,-61.73 -23.88,-26.45 -41.7,-57.87 -53.46,-94.25 -11.76,-36.37 -17.64,-76.61 -17.64,-120.7 0,-44.09 6.43,-84.5 19.29,-121.24 12.86,-36.75 31.04,-68.53 54.56,-95.35 23.52,-26.82 52.37,-47.77 86.53,-62.83 34.17,-15.06 72.2,-22.59 114.1,-22.59 25.71,0 51.44,2.21 77.15,6.62 25.72,4.4 50.34,11.38 73.85,20.94l-23.14 87.08c-15.43,-7.35 -33.26,-13.23 -53.47,-17.64 -20.21,-4.4 -41.7,-6.61 -64.48,-6.61 -57.32,0 -101.23,18 -131.72,54.01 -30.5,36.01 -45.75,88.55 -45.75,157.63 0,30.87 3.49,59.16 10.47,84.89 6.98,25.71 18,47.77 33.07,66.13 15.07,18.38 34.35,32.52 57.87,42.44 23.52,9.93 52.18,14.88 85.98,14.88 27.19,0 51.81,-2.57 73.85,-7.71 22.05,-5.15 39.32,-10.66 51.81,-16.54l14.33 85.98c-5.88,3.67 -14.33,7.17 -25.36,10.47 -11.02,3.31 -23.51,6.25 -37.47,8.83 -13.97,2.57 -28.85,4.78 -44.64,6.61 -15.8,1.84 -31.05,2.76 -45.75,2.76z"/>
  <path id="13" class="fil3" d="M12783.67 7759.33l217.16 0 0 85.98 -217.16 0 0 264.55c0,28.66 2.21,52.37 6.62,71.1 4.41,18.74 11.02,33.44 19.85,44.09 8.81,10.66 19.83,18.19 33.06,22.6 13.24,4.4 28.66,6.61 46.3,6.61 30.87,0 55.66,-3.49 74.41,-10.47 18.74,-6.98 31.78,-11.94 39.14,-14.88l19.83 84.87c-10.28,5.15 -28.3,11.57 -54.01,19.29 -25.72,7.71 -55.11,11.57 -88.18,11.57 -38.95,0 -71.1,-4.95 -96.46,-14.88 -25.35,-9.92 -45.74,-24.8 -61.17,-44.64 -15.43,-19.83 -26.28,-44.27 -32.52,-73.3 -6.24,-29.02 -9.38,-62.65 -9.38,-100.86l0 -511.47 102.51 -17.64 0 177.47z"/>
  <path id="14" class="fil3" d="M13401.68 8332.52l-102.51 0 0 -573.2 102.51 0 0 573.2zm-51.8 -676.81c-18.38,0 -33.99,-6.07 -46.85,-18.19 -12.86,-12.12 -19.29,-28.47 -19.29,-49.05 0,-20.58 6.43,-36.93 19.29,-49.06 12.86,-12.12 28.47,-18.19 46.85,-18.19 18.37,0 33.99,6.07 46.84,18.19 12.86,12.12 19.29,28.47 19.29,49.06 0,20.57 -6.43,36.92 -19.29,49.05 -12.85,12.12 -28.47,18.19 -46.84,18.19z"/>
  <path id="15" class="fil3" d="M14252.28 8045.92c0,45.57 -6.62,86.72 -19.85,123.46 -13.23,36.75 -31.78,68.34 -55.66,94.8 -23.88,26.45 -52.37,46.84 -85.43,61.17 -33.07,14.34 -69.08,21.5 -108.03,21.5 -38.95,0 -74.96,-7.16 -108.03,-21.5 -33.07,-14.33 -61.54,-34.72 -85.43,-61.17 -23.88,-26.46 -42.44,-58.06 -55.66,-94.8 -13.23,-36.75 -19.85,-77.89 -19.85,-123.46 0,-44.82 6.62,-85.79 19.85,-122.9 13.23,-37.11 31.78,-68.89 55.66,-95.35 23.88,-26.45 52.35,-46.84 85.43,-61.17 33.07,-14.34 69.08,-21.5 108.03,-21.5 38.95,0 74.96,7.16 108.03,21.5 33.06,14.33 61.54,34.72 85.43,61.17 23.88,26.46 42.44,58.25 55.66,95.35 13.23,37.11 19.85,78.08 19.85,122.9zm-106.93 0c0,-64.67 -14.52,-115.92 -43.54,-153.77 -29.03,-37.85 -68.53,-56.77 -118.5,-56.77 -49.97,0 -89.47,18.92 -118.5,56.77 -29.02,37.85 -43.54,89.1 -43.54,153.77 0,64.68 14.52,115.93 43.54,153.78 29.02,37.85 68.53,56.77 118.5,56.77 49.97,0 89.46,-18.92 118.5,-56.77 29.02,-37.85 43.54,-89.1 43.54,-153.78z"/>
  <path id="16" class="fil3" d="M14564.95 7775.86c23.52,-5.88 54.75,-12.12 93.7,-18.74 38.94,-6.61 83.77,-9.92 134.47,-9.92 45.57,0 83.41,6.43 113.54,19.29 30.13,12.85 54.2,30.85 72.2,54.01 18,23.14 30.68,50.89 38.02,83.22 7.35,32.33 11.03,67.97 11.03,106.93l0 321.87 -102.52 0 0 -299.83c0,-35.27 -2.38,-65.39 -7.16,-90.38 -4.78,-24.99 -12.67,-45.2 -23.7,-60.63 -11.03,-15.43 -25.72,-26.64 -44.09,-33.62 -18.38,-6.98 -41.16,-10.47 -68.35,-10.47 -11.02,0 -22.42,0.36 -34.16,1.1 -11.76,0.73 -22.97,1.64 -33.62,2.75 -10.66,1.1 -20.21,2.39 -28.66,3.86 -8.45,1.47 -14.52,2.57 -18.19,3.31l0 483.91 -102.51 0 0 -556.66z"/>
  <rect class="fil0" x="-0.01" width="18586.24" height="8394.16"/>
 </g>
</svg>
