<?xml version="1.0" encoding="UTF-8"?>
<!DOCTYPE svg PUBLIC "-//W3C//DTD SVG 1.1//EN" "http://www.w3.org/Graphics/SVG/1.1/DTD/svg11.dtd">
<!-- Creator: CorelDRAW 2020 (64-Bit) -->
<svg xmlns="http://www.w3.org/2000/svg" xml:space="preserve" width="90mm" height="120mm" version="1.1" style="shape-rendering:geometricPrecision; text-rendering:geometricPrecision; image-rendering:optimizeQuality; fill-rule:evenodd; clip-rule:evenodd"
viewBox="0 0 4188.78 5585.04"
 xmlns:xlink="http://www.w3.org/1999/xlink"
 xmlns:xodm="http://www.corel.com/coreldraw/odm/2003">
 <defs>
  <style type="text/css">
   <![CDATA[
    .str0 {stroke:black;stroke-width:9.31;stroke-miterlimit:22.9256;stroke-opacity:0.219608}
    .str1 {stroke:#E6E6E6;stroke-width:15.76;stroke-miterlimit:22.9256;stroke-opacity:0.839216}
    .fil9 {fill:none}
    .fil3 {fill:#FEFEFE}
    .fil16 {fill:#FEFEFE}
    .fil5 {fill:white}
    .fil12 {fill:white}
    .fil2 {fill:#00ADB5}
    .fil0 {fill:#B8DBD6}
    .fil15 {fill:#0094BF}
    .fil6 {fill:#00B5BD}
    .fil14 {fill:#00ADB5}
    .fil4 {fill:#FEFEFE;fill-rule:nonzero}
    .fil18 {fill:black;fill-rule:nonzero}
    .fil7 {fill:#00B5BD;fill-rule:nonzero}
    .fil17 {fill:#00ADB5;fill-rule:nonzero}
    .fil8 {fill:gray;fill-opacity:0.450980}
    .fil1 {fill:gray;fill-opacity:0.470588}
    .fil11 {fill:#CCCCCC;fill-opacity:0.839216}
    .fil10 {fill:url(#id0)}
    .fil13 {fill:url(#id1)}
   ]]>
  </style>
  <linearGradient id="id0" gradientUnits="userSpaceOnUse" x1="1239.05" y1="630.77" x2="1074.27" y2="17.32">
   <stop offset="0" style="stop-opacity:1; stop-color:#00789C"/>
   <stop offset="0.580392" style="stop-opacity:1; stop-color:#0096AC"/>
   <stop offset="1" style="stop-opacity:1; stop-color:#00B5BD"/>
  </linearGradient>
  <linearGradient id="id1" gradientUnits="userSpaceOnUse" x1="1430.37" y1="647.72" x2="1430.37" y2="0">
   <stop offset="0" style="stop-opacity:1; stop-color:#00ADB5"/>
   <stop offset="0.701961" style="stop-opacity:1; stop-color:#2EBBB7"/>
   <stop offset="1" style="stop-opacity:1; stop-color:#5CC9BA"/>
  </linearGradient>
 </defs>
 <g id="Layer_x0020_1">
  <metadata id="CorelCorpID_0Corel-Layer"/>
  <rect class="fil0" x="-0" y="-0" width="4188.78" height="5585.05"/>
  <path class="fil1" d="M3169.04 532.95c189.15,0 342.49,153.34 342.49,342.49 0,189.15 -153.34,342.49 -342.49,342.49 -189.15,0 -342.49,-153.34 -342.49,-342.49 0,-189.15 153.34,-342.49 342.49,-342.49z"/>
  <circle class="fil2" cx="3145.77" cy="852.17" r="342.49"/>
  <g id="_1423858183392">
   <path class="fil3" d="M3113.36 829.65l-30.88 0 0 -30.14 -3.12 0 0 30.14 -26.25 0 0 -30.14 -3.12 0 0 30.14 -26.04 0 0 -30.14 -3.12 0 0 30.14 -26.46 0 0 -30.14 -3.12 0 0 30.14 -26.04 0 0 -30.14 -3.12 0 0 30.14 -2.96 0 -21.32 -36.91 1.72 -3.54 173.86 0.02 0 40.42zm188.8 -52.24c2.29,5.27 6.87,10.24 13.2,11.78l3.67 3.67 3.67 -3.67c6.33,-1.54 10.92,-6.5 13.21,-11.78 -2.89,4.48 -7.73,7.41 -14.32,8.04l0 -8.85c1.5,1.4 2.8,3.62 3.63,6.31 4.35,-1.07 7.14,-3.06 9.59,-6.26 1.07,-1.4 2.92,-0.34 2.29,1.46 -1.96,5.61 -6.03,9.99 -10.89,12.2 -0.18,5.3 -2.35,9.42 -5.49,9.83 -3.43,0.45 -6.86,-3.69 -8.2,-9.53 -5.16,-2.1 -9.53,-6.62 -11.58,-12.5 -0.63,-1.79 1.22,-2.86 2.29,-1.46 2.32,3.03 4.94,4.98 8.9,6.09 0.53,-3.72 2.11,-6.59 4.32,-7.48l0 10.2c-6.6,-0.63 -11.43,-3.56 -14.32,-8.04zm-334.51 63.52l4.38 -0.77 0.29 1.62 -4.38 0.77 -0.29 -1.62zm0 -2.7l4.38 -0.77 0.29 1.62 -4.38 0.77 -0.29 -1.62zm0 -2.67l4.38 -0.77 0.29 1.62 -4.38 0.77 -0.29 -1.62zm115.97 5.37l4.38 -0.77 0.29 1.62 -4.38 0.77 -0.28 -1.62zm0 -2.7l4.38 -0.77 0.29 1.62 -4.38 0.77 -0.28 -1.62zm0 -2.67l4.38 -0.77 0.29 1.62 -4.38 0.77 -0.28 -1.62zm-7.58 5.37l4.38 -0.77 0.28 1.62 -4.35 0.81 -0.31 -1.67zm0 -2.7l4.38 -0.77 0.28 1.62 -4.38 0.77 -0.28 -1.62zm0 -2.67l4.38 -0.77 0.28 1.62 -4.38 0.77 -0.28 -1.62zm188.81 -168.75l17.65 0 0 17.66 -17.65 0 0 -17.66zm-30.37 0l17.66 0 0 17.66 -17.66 0 0 -17.66zm-29.66 0l17.66 0 0 17.66 -17.66 0 0 -17.66zm-77.94 266.6l12.1 0c-4.85,0.58 -7.68,1.19 -12.1,2.88l0 -2.88zm-3.61 19.62c-13.79,8.27 -29.69,7.98 -43.51,0 -14.66,-8.46 -33.51,-8.37 -47.47,0l-3.81 -6.6c14.07,-8.2 37.67,-9.72 54.86,-0.13 12.85,7.17 23.16,7.7 36.13,0.13 15.64,-9.12 39.44,-9.04 55.08,-0.01 11.14,6.43 21.84,8.21 35.9,0 14.07,-8.2 38.05,-9.84 55.1,0l-3.82 6.6c-14.66,-8.46 -33.51,-8.37 -47.48,-0 -13.77,8.26 -29.68,7.99 -43.5,0.02 -14.66,-8.47 -33.51,-8.38 -47.48,-0.01zm5.79 10.03c-17.09,9.48 -38.21,10.5 -55.1,-0 -10.94,-6.8 -24.69,-6.22 -35.88,0l-3.34 -5.79c13.69,-7.54 29.05,-8.37 42.58,0.01 14.71,9.1 34.19,7.83 48.41,-0.01 13.85,-7.62 28.78,-7.96 42.56,-0 14.98,8.65 34.19,7.84 48.42,0 14.24,-7.84 29.32,-7.65 42.58,0l-3.34 5.79c-11.17,-6.45 -24.7,-6.23 -35.9,-0.01 -17.2,9.55 -38.04,9.85 -55.08,0.01 -11.17,-6.45 -24.69,-6.23 -35.9,-0zm75.46 -20.12c-26.77,-52.26 -37.71,-84.56 -37.47,-159.23 8.91,-15.23 32.83,-36.7 55.42,-50.8 23.65,-12.92 50.8,-24.95 78.47,-33.14l52.83 91.5 -86.73 150.22c-9,-4.47 -19.15,-6.99 -29.88,-6.99 -11.84,0 -22.97,3.06 -32.64,8.43zm67.77 -292.93l3.72 6.44 -80.53 0 -2.18 88.5c-2.41,2.12 -4.68,4.27 -6.8,6.44l2.32 -101.38 83.47 0zm-75.08 -38.57l37.53 0 7.62 31.44 -46.08 0 0.92 -31.44zm45.19 0.99l7.91 0 2.36 4.08 -9.1 0 -1.17 -4.08zm-89.39 320.97l39.24 0 2.3 4.17 -25.75 0c-4.96,-2.09 -10.26,-3.51 -15.8,-4.17zm-32.43 -145.97l0.05 -4.17 38.85 0c0,1.4 0,2.79 0.02,4.17l-38.91 0zm-166.11 -25.02l2.41 -4.17 222.19 0c-1.37,1.34 -2.77,2.74 -4.16,4.17l-220.44 0zm15.25 -26.42l2.41 -4.17 207.77 0 -0.1 4.17 -210.08 0zm16.05 -27.8l2.41 -4.17 192.4 0 -0.1 4.17 -194.7 0zm16.86 -29.19l2.41 -4.17 176.25 0 -0.1 4.17 -178.56 0zm17.66 -30.59l2.41 -4.17 159.35 0 -0.1 4.17 -161.65 0zm18.46 -31.97l2.41 -4.17 148.34 0 -0.34 4.17 -150.41 0zm87.95 303.06l59.06 0c0.62,1.39 1.25,2.78 1.9,4.17l-60.96 0 0 -4.17zm0 -15.29l52.76 0c0.53,1.39 1.07,2.78 1.62,4.17l-54.38 0 0 -4.17zm0 -16.69l47.02 0c0.43,1.4 0.87,2.78 1.33,4.17l-48.34 0 0 -4.17zm0 -18.07l42.05 0c0.34,1.4 0.68,2.78 1.04,4.17l-43.09 0 0 -4.17zm0 -19.46l38.04 0c0.24,1.4 0.49,2.79 0.75,4.17l-38.79 0 0 -4.17zm-5.78 -20.85l40.9 0c0.15,1.4 0.31,2.78 0.47,4.17l-41.37 0 0 -4.17zm0 -22.24l39.14 0c0.07,1.4 0.14,2.78 0.23,4.17l-39.37 0 0 -4.17zm-96.58 134.83l-34.65 -60.01 -19.22 -33.28 149.53 0 0 90.24 -3.03 1.74c-4.67,2.68 -9.74,5.04 -15.54,5.04 -3.93,0 -7.67,-0.86 -11.03,-2.4 -10.32,-6.08 -22.2,-9.28 -34.22,-9.28 -11.52,0 -22.36,2.88 -31.86,7.95zm72.98 -104.84c1.5,0 2.71,1.21 2.71,2.71 0,1.49 -1.21,2.71 -2.71,2.71 -1.49,0 -2.71,-1.21 -2.71,-2.71 0,-1.5 1.21,-2.71 2.71,-2.71zm-29.51 0c1.5,0 2.71,1.21 2.71,2.71 0,1.49 -1.21,2.71 -2.71,2.71 -1.5,0 -2.71,-1.21 -2.71,-2.71 0,-1.5 1.21,-2.71 2.71,-2.71zm4.57 -3.37l20 0c1.3,-1.05 1.76,-1.68 4.77,-1.68 3,0 7.61,3.41 7.61,7.61 0,4.21 -4.23,7.61 -7.61,7.61 -3.38,0 -4.83,-1.27 -6.21,-3.2l-17.12 0c-1.38,1.94 -2.83,3.2 -6.2,3.2 -3.38,0 -7.61,-3.41 -7.61,-7.61 0,-4.21 4.61,-7.61 7.61,-7.61 3,0 3.46,0.63 4.77,1.68zm-111.32 0l15.31 0c1.3,-1.05 1.76,-1.68 4.77,-1.68 3.01,0 7.61,3.41 7.61,7.61 0,4.21 -4.22,7.61 -7.61,7.61 -3.39,0 -4.85,-1.28 -6.23,-3.24l-6.97 -0.1c-2.63,-3.91 -4.34,-6.45 -6.87,-10.21zm20.02 3.37c1.5,0 2.71,1.21 2.71,2.71 0,1.49 -1.21,2.71 -2.71,2.71 -1.5,0 -2.71,-1.21 -2.71,-2.71 0,-1.5 1.21,-2.71 2.71,-2.71z"/>
   <path class="fil4" d="M2966.47 1090.51l0 -7.19 6.15 -0.86 29.06 -75.04 9.64 0 28.53 75.04 6.1 0.86 0 7.19 -23.84 0 0 -7.19 6.27 -1.09 -5.47 -15.29 -33.26 0 -5.66 15.29 6.29 1.09 0 7.19 -23.8 0zm26.64 -32.97l26.37 0 -12.21 -33.79 -0.68 -1.87 -0.35 0 -0.68 1.87 -12.45 33.79z"/>
   <path id="1" class="fil4" d="M3069.96 1090.51l0 -7.19 9.31 -1.6 0 -65.46 -9.31 -1.6 0 -7.19 37.04 0c6.04,0 11.14,0.92 15.31,2.71 4.17,1.81 7.34,4.44 9.5,7.85 2.16,3.43 3.25,7.61 3.25,12.56 0,4.87 -1.05,8.96 -3.17,12.27 -2.1,3.31 -5.1,5.8 -8.98,7.5 -3.88,1.69 -8.47,2.59 -13.81,2.71l-18.6 0.35 0 28.3 9.31 1.6 0 7.19 -29.85 0zm54.84 0l-18.48 -41.48 11.24 -0.12 15.34 33.21 5.77 1.03 0 7.36 -13.86 0zm-34.3 -45.92l15.34 0c6.27,0 10.85,-1.21 13.69,-3.6 2.86,-2.39 4.29,-5.9 4.29,-10.5 0,-4.38 -1.36,-7.83 -4.11,-10.38 -2.75,-2.56 -6.97,-3.84 -12.72,-3.84l-16.49 0 0 28.32z"/>
   <path id="2" class="fil4" d="M3291.95 1092.89c-5.38,0 -10.19,-1.03 -14.45,-3.1 -4.24,-2.04 -7.87,-4.95 -10.87,-8.68 -2.98,-3.76 -5.26,-8.2 -6.84,-13.34 -1.58,-5.12 -2.37,-10.79 -2.37,-17l0 -1.19c0,-6.17 0.8,-11.82 2.37,-16.98 1.58,-5.14 3.86,-9.6 6.84,-13.38 3,-3.76 6.62,-6.66 10.87,-8.72 4.26,-2.05 9.08,-3.08 14.45,-3.08 5.66,0 10.63,1.03 14.94,3.08 4.31,2.06 7.91,4.97 10.81,8.72 2.92,3.78 5.11,8.24 6.6,13.38 1.48,5.16 2.22,10.81 2.22,16.98l0 1.19c0,6.21 -0.74,11.88 -2.22,17 -1.5,5.14 -3.68,9.58 -6.6,13.34 -2.9,3.74 -6.5,6.64 -10.81,8.68 -4.31,2.07 -9.27,3.1 -14.94,3.1zm0 -9.36c5.51,0 9.97,-1.36 13.38,-4.11 3.39,-2.75 5.9,-6.56 7.5,-11.49 1.6,-4.93 2.4,-10.65 2.4,-17.16l0 -1.31c0,-6.46 -0.82,-12.15 -2.43,-17.02 -1.62,-4.89 -4.13,-8.72 -7.56,-11.47 -3.43,-2.76 -7.85,-4.15 -13.28,-4.15 -4.99,0 -9.22,1.41 -12.68,4.17 -3.47,2.78 -6.08,6.6 -7.87,11.49 -1.79,4.89 -2.69,10.56 -2.69,16.98l0 1.31c0,6.46 0.89,12.17 2.69,17.1 1.79,4.92 4.4,8.76 7.87,11.53 3.46,2.75 7.69,4.13 12.68,4.13z"/>
   <path id="3" class="fil4" d="M3199.56 1091.72c-7.67,0 -14.33,-1.79 -19.96,-5.33 -5.63,-3.57 -9.97,-8.49 -13.01,-14.82 -3.03,-6.31 -4.58,-13.61 -4.58,-21.91l0 -1.36c0,-8.37 1.54,-15.69 4.6,-21.99 3.06,-6.31 7.26,-11.22 12.58,-14.76 5.33,-3.53 11.37,-5.3 18.15,-5.3 6.46,0 11.96,0.74 16.45,2.22 4.52,1.48 8.35,3.49 11.55,6l0 16.77 -9.23 0 -1.21 -12.04c-1.87,-1.23 -4.15,-2.14 -6.84,-2.76 -2.71,-0.62 -5.9,-0.95 -9.6,-0.95 -4.75,0 -9.02,1.38 -12.83,4.11 -3.8,2.75 -6.8,6.56 -9.02,11.45 -2.2,4.89 -3.31,10.59 -3.31,17.14l0 1.48c0,6.62 1.03,12.41 3.06,17.33 2.04,4.91 5.03,8.75 8.94,11.45 3.91,2.73 8.67,4.09 14.26,4.09 3.79,0 7.01,-0.33 9.64,-0.99 2.63,-0.68 4.95,-1.54 6.97,-2.61l0 -19.51 -15.93 -0.57 0 -8.28 27.17 0 0 32.19c-2.4,2.24 -5.84,4.28 -10.3,6.15 -4.48,1.87 -10.32,2.8 -17.55,2.8z"/>
   <polygon class="fil3" points="2983.79,771.68 3017.26,781.86 3048.56,768.06 3096.32,786.15 2946.16,786.15 "/>
  </g>
  <path class="fil1" d="M499.14 2091.97c-137.9,108.65 -247.14,782.37 -247.96,986.2 -0.23,56.24 699.32,134.16 718.32,81.26 8.79,-24.47 30.47,-89.17 49.21,-160.53 140,481.94 248.36,1135.47 299.85,1351.64 23.66,99.35 92.24,804.45 111.09,884.45 36.47,154.78 2290.55,-384.59 2253.61,-536.72 -19.4,-79.87 -275.85,-740.23 -299.51,-839.58 -51.42,-215.93 -248.9,-847.01 -341.29,-1340.08 48.47,54.67 96.34,102 115.05,119.73 40.81,38.66 630.13,-346.22 604.59,-396.32 -92.36,-181.09 -491.64,-730.76 -664.47,-768.28 -45.59,-48.8 -358.67,-32.82 -689.94,-87.84 -61.43,-10.2 -10.34,172.91 -148.79,359.83 -190.21,256.8 -570.74,349.61 -861.18,221.55 -229.48,-101.19 -270.43,-301.76 -322.49,-264.04 -271,196.33 -555.62,324.38 -576.07,388.74z"/>
  <path class="fil5" d="M424.92 2065.92c-137.9,108.65 -247.14,782.37 -247.96,986.2 -0.23,56.23 699.32,134.16 718.32,81.25 8.79,-24.47 30.47,-89.17 49.21,-160.53 140,481.94 248.37,1135.47 299.85,1351.64 23.66,99.35 92.24,804.46 111.09,884.45 36.46,154.78 2290.55,-384.59 2253.6,-536.72 -19.4,-79.87 -275.85,-740.23 -299.51,-839.58 -51.42,-215.93 -248.9,-847.01 -341.29,-1340.08 48.47,54.67 96.34,102 115.05,119.73 40.81,38.66 630.13,-346.22 604.59,-396.32 -92.36,-181.09 -491.64,-730.76 -664.47,-768.28 -45.58,-48.8 -358.67,-32.82 -689.94,-87.84 -61.43,-10.2 -10.34,172.91 -148.79,359.84 -190.21,256.79 -570.74,349.61 -861.18,221.55 -229.48,-101.19 -270.43,-301.76 -322.49,-264.05 -271,196.33 -555.62,324.38 -576.07,388.74z"/>
  <g id="_1423825150864">
   <g>
    <path class="fil6" d="M1938.95 3027.82l-78.66 18.73 -18.29 -76.79 -7.96 1.89 18.29 76.79 -66.88 15.93 -18.29 -76.79 -7.95 1.89 18.29 76.79 -66.35 15.8 -18.29 -76.79 -7.95 1.89 18.29 76.79 -67.41 16.06 -18.29 -76.79 -7.96 1.89 18.29 76.79 -66.35 15.8 -18.29 -76.79 -7.96 1.89 18.29 76.79 -7.55 1.8 -76.71 -81.09 2.22 -10.05 442.91 -105.41 24.52 102.97zm449.26 -247.64c9.03,12.05 23.71,21.93 40.78,21.99l11.59 7.13 7.13 -11.58c15.21,-7.75 23.86,-23.19 26.5,-38.01 -4.64,13.18 -15.18,23.56 -31.6,29.17l-5.37 -22.56c4.68,2.66 9.32,7.52 13.09,13.87 10.42,-5.36 16.32,-12.13 20.62,-21.78 1.88,-4.21 7.24,-2.62 6.73,2.33 -1.58,15.48 -9.31,29.09 -20.34,37.68 2.74,13.59 -0.27,25.41 -8.02,28.35 -8.47,3.22 -19.72,-5.22 -26.66,-19.3 -14.41,-2.23 -28.28,-11.09 -37.07,-24.81 -2.69,-4.19 1.39,-8.02 4.96,-5.11 7.74,6.32 15.61,9.69 26.38,10.1 -0.91,-9.81 1.39,-18.05 6.46,-21.67l6.19 25.99c-17.19,2.4 -31.27,-2.13 -41.36,-11.8zm-813.61 364.77l10.69 -4.63 1.71 3.96 -10.69 4.63 -1.71 -3.96zm-1.64 -6.88l10.69 -4.62 1.71 3.96 -10.69 4.63 -1.71 -3.96zm-1.62 -6.8l10.69 -4.63 1.71 3.96 -10.69 4.63 -1.71 -3.96zm298.68 -56.68l10.69 -4.63 1.71 3.96 -10.69 4.63 -1.71 -3.96zm-1.64 -6.88l10.69 -4.62 1.71 3.96 -10.69 4.62 -1.71 -3.96zm-1.62 -6.8l10.69 -4.63 1.71 3.96 -10.69 4.63 -1.71 -3.96zm-16.04 18.28l10.69 -4.63 1.71 3.96 -10.59 4.72 -1.81 -4.06zm-1.64 -6.88l10.7 -4.62 1.71 3.96 -10.69 4.63 -1.72 -3.96zm-1.62 -6.8l10.69 -4.63 1.71 3.96 -10.69 4.62 -1.71 -3.96zm378.61 -544.43l44.98 -10.71 10.71 44.98 -44.98 10.71 -10.71 -44.98zm-77.36 18.43l44.98 -10.71 10.71 44.97 -44.98 10.71 -10.71 -44.97zm-75.56 17.99l44.98 -10.71 10.71 44.98 -44.98 10.71 -10.71 -44.98zm-36.81 726.44l30.81 -7.34c-12.01,4.41 -18.84,7.69 -29.07,14.66l-1.74 -7.32zm2.7 52.17c-30.1,29.42 -70.79,38.35 -110.85,26.39 -42.48,-12.66 -90.44,-1 -120.93,28.8l-13.69 -14.5c30.85,-29.43 90.05,-47.6 139.66,-33.61 37.09,10.46 63.68,5.56 92.12,-21.58 34.3,-32.73 94.98,-46.97 140.32,-33.45 32.26,9.62 60.61,7.65 91.45,-21.78 30.85,-29.43 90.97,-48.15 140.37,-33.42l-5.71 19.13c-42.48,-12.66 -90.47,-1 -120.97,28.8 -30.06,29.39 -70.76,38.36 -110.8,26.43 -42.49,-12.68 -90.47,-1.01 -120.96,28.78zm20.84 22.04c-37.77,34.52 -90.96,49.93 -140.36,33.42 -32,-10.69 -66.66,-0.87 -91.42,21.77l-12.01 -12.72c30.29,-27.51 68.91,-38.93 108.47,-25.8 42.98,14.27 91.83,-0.8 123.31,-29.39 30.65,-27.83 68.49,-37.74 108.42,-25.84 43.41,12.94 91.85,-0.77 123.35,-29.38 31.51,-28.62 70.03,-37.28 108.47,-25.82l-4.99 16.76c-32.36,-9.65 -66.69,-0.87 -91.46,21.76 -38.02,34.77 -90.93,48.18 -140.31,33.46 -32.37,-9.65 -66.67,-0.88 -91.46,21.76zm180.04 -97.04c-99.89,-116.88 -147.38,-192.54 -192.06,-382.89 13.46,-44.21 61.37,-113.42 110.36,-163.02 52.41,-47.25 114.27,-94.37 179.78,-132.02l190.08 201.03 -129.79 435.28c-25.65,-5.92 -53.01,-6.17 -80.35,0.34 -30.16,7.18 -56.65,21.73 -78.01,41.27zm-5.09 -787.32l13.37 14.14 -205.13 48.85 48.12 226.79c-4.85,6.86 -9.33,13.71 -13.42,20.53l-55.59 -259.67 212.64 -50.64zm-214.66 -52.7l95.61 -22.77 38.49 75.47 -117.37 27.95 -16.74 -80.65zm115.72 -24.9l20.15 -4.8 8.48 8.96 -23.17 5.52 -5.45 -9.69zm-32.98 871.9l99.98 -23.81 8.39 9.23 -65.59 15.62c-13.9,-2.31 -28.27,-2.72 -42.78,-1.04zm-171.15 -352.18l-2.42 -10.65 98.97 -23.57c0.84,3.56 1.71,7.09 2.57,10.62l-99.12 23.61zm-438.35 37.03l3.6 -12.09 566.02 -134.8c-2.68,4.24 -5.39,8.64 -8.06,13.14l-561.57 133.74zm22.82 -76.54l3.6 -12.08 529.29 -126.05 2.27 10.69 -535.16 127.45zm24.02 -80.57l3.6 -12.08 490.12 -116.73 2.27 10.69 -495.99 118.12zm25.23 -84.59l3.61 -12.09 449 -106.93 2.27 10.69 -454.87 108.33zm26.43 -88.63l3.6 -12.09 405.92 -96.67 2.27 10.69 -411.79 98.07zm27.63 -92.65l3.61 -12.09 377.88 -90 1.68 10.83 -383.17 91.25zm407.9 718.68l150.46 -35.83c2.42,3.17 4.88,6.33 7.37,9.47l-155.3 36.98 -2.53 -10.62zm-9.28 -38.96l134.4 -32.01c2.19,3.23 4.41,6.45 6.66,9.64l-138.53 32.99 -2.53 -10.63zm-10.12 -42.5l119.77 -28.53c1.95,3.29 3.92,6.55 5.92,9.82l-123.15 29.33 -2.53 -10.62zm-10.97 -46.04l107.13 -25.51c1.7,3.35 3.43,6.68 5.18,10l-109.77 26.14 -2.53 -10.63zm-11.81 -49.58l96.91 -23.08c1.46,3.41 2.94,6.8 4.44,10.17l-98.82 23.54 -2.53 -10.63zm-27.36 -49.62l104.18 -24.81c1.23,3.46 2.48,6.91 3.75,10.34l-105.4 25.1 -2.53 -10.63zm-13.5 -56.66l99.7 -23.74c1.03,3.51 2.07,7 3.12,10.48l-100.29 23.89 -2.53 -10.63zm-164.23 402.07l-124.68 -131.85 -69.14 -73.12 380.94 -90.72 54.74 229.87 -6.66 6.27c-10.28,9.67 -21.74,18.75 -36.54,22.27 -10.02,2.39 -20.05,2.46 -29.54,0.58 -29.98,-9.23 -62.17,-10.18 -92.8,-2.89 -29.34,6.99 -55.22,20.91 -76.32,39.59zm122.3 -311.34c3.82,-0.91 7.64,1.44 8.55,5.26 0.91,3.82 -1.45,7.64 -5.26,8.55 -3.82,0.91 -7.64,-1.45 -8.55,-5.26 -0.91,-3.82 1.45,-7.64 5.26,-8.55zm-75.17 17.9c3.82,-0.91 7.65,1.45 8.55,5.26 0.91,3.81 -1.45,7.64 -5.26,8.55 -3.81,0.91 -7.64,-1.45 -8.55,-5.26 -0.91,-3.81 1.45,-7.64 5.26,-8.55zm9.6 -11.36l50.94 -12.13c2.69,-3.46 3.48,-5.35 11.13,-7.17 7.66,-1.82 21.47,4.07 24.02,14.78 2.55,10.71 -6.16,21.96 -14.78,24.01 -8.61,2.05 -13.06,-0.29 -17.75,-4.39l-43.62 10.39c-2.35,5.77 -5.25,9.87 -13.87,11.92 -8.62,2.05 -21.46,-4.06 -24.02,-14.77 -2.55,-10.71 7.12,-22.2 14.78,-24.02 7.66,-1.82 9.21,-0.49 13.17,1.39zm-283.59 67.54l39 -9.29c2.69,-3.46 3.47,-5.35 11.13,-7.17 7.66,-1.82 21.47,4.07 24.02,14.78 2.55,10.71 -6.14,21.95 -14.78,24.01 -8.64,2.06 -13.14,-0.31 -17.83,-4.46l-17.83 3.97c-9.09,-8.37 -14.97,-13.79 -23.71,-21.84zm53.05 -3.56c3.81,-0.91 7.64,1.45 8.55,5.26 0.91,3.81 -1.45,7.64 -5.26,8.55 -3.82,0.91 -7.64,-1.45 -8.55,-5.26 -0.91,-3.81 1.45,-7.64 5.26,-8.55z"/>
    <polygon class="fil6" points="1573.7,2958.75 1665.16,2964.38 1736.5,2910.24 1869.16,2927.35 1486.62,3018.46 "/>
   </g>
   <path class="fil7" d="M1801.5 3674.96l-3.41 -14.31 11.85 -4.63 22.24 -163.16 19.2 -4.57 92.39 135.85 12.55 -1.18 3.41 14.31 -47.47 11.31 -3.41 -14.31 11.97 -5.14 -18.15 -27.85 -66.24 15.77 -4 33.12 13.05 -0.81 3.41 14.31 -47.39 11.29zm37.42 -78.29l52.47 -12.5 -40.33 -61.46 -2.25 -3.43 -0.66 0.16 -0.47 4.08 -8.76 73.15z"/>
   <path id="1" class="fil7" d="M2007.59 3625.88l-3.41 -14.31 17.78 -7.59 -31.03 -130.31 -19.29 1.24 -3.41 -14.31 73.72 -17.56c12.06,-2.87 22.65,-3.51 31.81,-1.88 9.16,1.62 16.68,5.33 22.65,11.12 5.92,5.8 10.04,13.59 12.38,23.44 2.31,9.69 2.15,18.34 -0.47,25.93 -2.62,7.59 -7.4,13.98 -14.32,19.19 -6.95,5.22 -15.68,9.22 -26.21,11.94l-36.87 9.52 13.42 56.35 19.25 -1.23 3.41 14.31 -59.41 14.15zm109.16 -26l-56.47 -73.84 22.33 -5.52 46.3 58.81 11.97 -0.68 3.5 14.66 -27.62 6.58zm-90.03 -75.19l30.56 -7.28c12.48,-2.97 20.99,-7.54 25.55,-13.66 4.52,-6.12 5.7,-13.73 3.51,-22.93 -2.07,-8.68 -6.43,-14.94 -13.07,-18.73 -6.66,-3.74 -15.73,-4.28 -27.17,-1.56l-32.81 7.81 13.42 56.35z"/>
   <path id="2" class="fil7" d="M2450.71 3525.35c-10.66,2.54 -20.73,2.76 -30.2,0.67 -9.47,-2.05 -18.05,-6.11 -25.76,-12.14 -7.72,-6.07 -14.36,-13.83 -19.93,-23.28 -5.58,-9.49 -9.86,-20.39 -12.79,-32.73l-0.57 -2.41c-2.92,-12.25 -4.02,-23.92 -3.31,-34.91 0.69,-11.03 3.12,-20.99 7.27,-29.88 4.15,-8.9 9.97,-16.43 17.5,-22.53 7.51,-6.13 16.62,-10.43 27.28,-12.97 11.29,-2.69 21.69,-3.04 31.24,-0.97 9.5,2.04 18.06,6.15 25.66,12.25 7.56,6.11 14.06,13.94 19.45,23.52 5.39,9.54 9.55,20.47 12.46,32.73l0.57 2.41c2.94,12.33 4.16,23.97 3.64,34.91 -0.52,10.9 -2.79,20.79 -6.79,29.65 -4.05,8.83 -9.85,16.32 -17.41,22.42 -7.59,6.15 -17.03,10.57 -28.32,13.26zm-4.44 -18.65c10.97,-2.62 19.21,-7.45 24.7,-14.53 5.49,-7.05 8.64,-15.87 9.49,-26.44 0.84,-10.57 -0.28,-22.31 -3.36,-35.26l-0.63 -2.63c-3.07,-12.88 -7.34,-23.79 -12.88,-32.76 -5.54,-8.96 -12.38,-15.37 -20.48,-19.25 -8.13,-3.84 -17.63,-4.49 -28.45,-1.91 -9.92,2.36 -17.65,7.11 -23.23,14.3 -5.59,7.16 -9.01,16.04 -10.22,26.62 -1.25,10.58 -0.35,22.26 2.69,35.06l0.63 2.63c3.07,12.87 7.54,23.77 13.45,32.74 5.87,8.97 12.92,15.36 21.14,19.23 8.2,3.83 17.24,4.58 27.16,2.22z"/>
   <path id="3" class="fil7" d="M2266.22 3566.83c-15.32,3.65 -29.39,3.23 -42.28,-1.16 -12.9,-4.43 -23.88,-12.18 -32.93,-23.3 -9.09,-11.16 -15.58,-24.98 -19.5,-41.46l-0.66 -2.75c-3.97,-16.64 -4.38,-31.99 -1.28,-45.96 3.11,-13.98 9.15,-25.75 18.06,-35.33 8.91,-9.58 20.14,-15.95 33.63,-19.16 12.84,-3.06 24.13,-4.19 33.83,-3.39 9.66,0.81 18.28,2.95 25.84,6.43l7.96 33.43 -18.42 4.39 -8.07 -23.41c-4.31,-1.56 -9.28,-2.3 -14.97,-2.29 -5.65,0.03 -12.16,0.93 -19.52,2.68 -9.47,2.26 -17.35,7 -23.61,14.27 -6.26,7.27 -10.47,16.26 -12.53,27.04 -2.07,10.78 -1.56,22.71 1.54,35.74l0.7 2.95c3.13,13.15 7.93,24.18 14.3,33.03 6.41,8.84 14.12,15.04 23.19,18.57 9.13,3.56 19.24,4.02 30.37,1.37 7.56,-1.8 13.8,-3.99 18.72,-6.55 4.91,-2.61 9.13,-5.41 12.61,-8.5l-9.24 -38.82 -31.96 6.38 -3.92 -16.44 54.06 -12.88 15.26 64.07c-3.7,5.6 -9.56,11.29 -17.6,17.14 -7.99,5.84 -19.18,10.47 -33.57,13.9z"/>
  </g>
  <g id="_1423825152208">
   <polygon class="fil8" points="733.41,585.22 1891.74,585.22 1891.74,1503.22 733.41,1503.22 "/>
   <path class="fil9 str0" d="M1190.95 627.4l200.88 0c15.81,0 28.76,12.94 28.76,28.76l0 4.84c0,15.81 -12.94,28.76 -28.76,28.76l-200.88 0c-15.81,0 -28.76,-12.95 -28.76,-28.76l0 -4.84c0,-15.82 12.95,-28.76 28.76,-28.76z"/>
   <polygon class="fil10" points="944.06,0.19 1095.78,0.19 1369.26,647.91 1217.53,647.91 "/>
   <path class="fil11 str1" d="M725.59 574.64l1132.05 0 0 898.63 -1132.05 0 0 -898.63zm465.68 40.44l200.69 0c21.84,0 39.7,17.86 39.7,39.7l0 6.67c0,21.84 -17.86,39.7 -39.7,39.7l-200.69 0c-21.84,0 -39.7,-17.86 -39.7,-39.7l0 -6.67c0,-21.83 17.86,-39.7 39.7,-39.7z"/>
   <rect class="fil12" x="775.19" y="750.06" width="1032.85" height="665.23"/>
   <polygon class="fil13" points="1642.97,0 1491.25,0 1217.77,647.72 1369.49,647.72 "/>
   <g>
    <path class="fil14" d="M957.66 948.18l-14.83 0 0 -14.48 -1.5 0 0 14.48 -12.61 0 0 -14.48 -1.5 0 0 14.48 -12.51 0 0 -14.48 -1.5 0 0 14.48 -12.71 0 0 -14.48 -1.5 0 0 14.48 -12.51 0 0 -14.48 -1.5 0 0 14.48 -1.42 0 -10.24 -17.73 0.82 -1.7 83.52 0.01 0 19.42zm-59.87 -27.98l16.05 4.88 15 -6.61 22.9 8.68 -71.99 0 18.04 -6.94zm132.64 -50.25l8.48 0 0 8.48 -8.48 0 0 -8.48zm-14.59 0l8.48 0 0 8.48 -8.48 0 0 -8.48zm-14.25 0l8.48 0 0 8.48 -8.48 0 0 -8.48zm-37.44 128.07l5.81 0c-2.33,0.27 -3.69,0.57 -5.81,1.38l0 -1.38zm-1.74 9.42c-6.62,3.97 -14.26,3.84 -20.9,0 -7.04,-4.07 -16.1,-4.02 -22.81,0l-1.83 -3.17c6.76,-3.94 18.1,-4.66 26.35,-0.06 6.18,3.44 11.13,3.7 17.36,0.07 7.51,-4.38 18.95,-4.35 26.46,-0 5.35,3.09 10.49,3.94 17.24,0 6.76,-3.94 18.28,-4.73 26.47,0l-1.83 3.17c-7.04,-4.07 -16.1,-4.03 -22.81,-0 -6.61,3.97 -14.26,3.84 -20.9,0.01 -7.04,-4.07 -16.1,-4.03 -22.81,-0zm2.78 4.82c-8.21,4.56 -18.35,5.05 -26.47,0 -5.25,-3.27 -11.86,-2.99 -17.24,0l-1.61 -2.78c6.58,-3.63 13.95,-4.02 20.46,0 7.07,4.37 16.42,3.76 23.25,-0 6.66,-3.66 13.83,-3.83 20.45,-0 7.2,4.16 16.42,3.77 23.26,0 6.84,-3.77 14.08,-3.67 20.46,0l-1.6 2.78c-5.37,-3.1 -11.86,-2.99 -17.25,-0 -8.26,4.59 -18.27,4.73 -26.46,0.01 -5.37,-3.1 -11.86,-2.99 -17.25,-0zm36.26 -9.67c-12.86,-25.1 -18.12,-40.62 -18,-76.49 4.28,-7.32 15.77,-17.63 26.62,-24.4 11.36,-6.2 24.4,-11.98 37.69,-15.92l25.37 43.95 -41.66 72.16c-4.33,-2.15 -9.2,-3.36 -14.35,-3.36 -5.69,0 -11.04,1.47 -15.68,4.05zm32.55 -140.72l1.79 3.09 -38.69 0 -1.05 42.52c-1.15,1.02 -2.25,2.05 -3.27,3.1l1.12 -48.7 40.1 0zm-36.07 -18.53l18.03 0 3.66 15.1 -22.13 0 0.44 -15.1zm21.71 0.47l3.8 0 1.14 1.96 -4.37 0 -0.56 -1.96zm-42.94 154.19l18.85 0 1.11 2 -12.37 0c-2.38,-1 -4.93,-1.68 -7.59,-2zm-15.57 -70.12l0.02 -2 18.66 0c0,0.67 0,1.34 0.01,2l-18.69 0zm-79.8 -12.02l1.16 -2 106.73 0c-0.66,0.64 -1.33,1.31 -1.99,2l-105.9 0zm7.33 -12.69l1.16 -2.01 99.81 0 -0.05 2.01 -100.92 0zm7.71 -13.36l1.16 -2 92.42 0 -0.05 2 -93.54 0zm8.1 -14.02l1.15 -2.01 84.67 0 -0.05 2.01 -85.78 0zm8.48 -14.69l1.16 -2.01 76.55 0 -0.05 2.01 -77.66 0zm8.87 -15.36l1.15 -2.01 71.27 0 -0.16 2.01 -72.26 0zm42.25 145.59l28.37 0c0.3,0.67 0.61,1.34 0.91,2l-29.28 0 0 -2zm0 -7.34l25.35 0c0.25,0.67 0.51,1.34 0.78,2l-26.12 0 0 -2zm0 -8.01l22.59 0c0.21,0.67 0.42,1.34 0.64,2l-23.22 0 0 -2zm0 -8.68l20.2 0c0.16,0.67 0.33,1.34 0.5,2.01l-20.7 0 0 -2.01zm0 -9.35l18.28 0c0.12,0.67 0.23,1.34 0.36,2.01l-18.64 0 0 -2.01zm-2.77 -10.02l19.65 0c0.07,0.67 0.15,1.34 0.23,2l-19.88 0 0 -2zm0 -10.69l18.8 0c0.03,0.67 0.07,1.34 0.11,2.01l-18.91 0 0 -2.01zm-46.4 64.77l-16.64 -28.83 -9.23 -15.99 71.84 0 0 43.35 -1.46 0.84c-2.24,1.29 -4.68,2.42 -7.47,2.42 -1.89,0 -3.68,-0.41 -5.3,-1.15 -4.96,-2.92 -10.66,-4.46 -16.44,-4.46 -5.53,0 -10.74,1.38 -15.3,3.82z"/>
    <circle class="fil15" cx="948.55" cy="952.96" r="3.43"/>
    <circle class="fil15" cx="935.88" cy="952.96" r="3.43"/>
    <circle class="fil15" cx="892.79" cy="952.96" r="3.43"/>
    <ellipse class="fil16" transform="matrix(0.240212 -0.039501 0.039501 0.240212 1055.28 930.291)" rx="18.98" ry="28.74"/>
    <path class="fil17" d="M1092.8 1013.64l0 -6.76 5.79 -0.81 27.32 -70.57 9.07 0 26.83 70.57 5.73 0.81 0 6.76 -22.41 0 0 -6.76 5.9 -1.02 -5.15 -14.38 -31.28 0 -5.33 14.38 5.92 1.02 0 6.76 -22.38 0zm25.05 -31.01l24.8 0 -11.49 -31.77 -0.64 -1.76 -0.33 0 -0.64 1.76 -11.7 31.77z"/>
    <path id="1" class="fil17" d="M1190.12 1013.64l0 -6.76 8.75 -1.5 0 -61.55 -8.75 -1.5 0 -6.76 34.83 0c5.68,0 10.48,0.86 14.4,2.55 3.92,1.7 6.9,4.17 8.94,7.38 2.03,3.22 3.06,7.16 3.06,11.81 0,4.58 -0.99,8.42 -2.98,11.54 -1.98,3.11 -4.8,5.46 -8.44,7.05 -3.64,1.59 -7.97,2.43 -12.99,2.55l-17.49 0.33 0 26.61 8.75 1.5 0 6.76 -28.07 0zm51.57 0l-17.38 -39.01 10.57 -0.11 14.43 31.23 5.42 0.97 0 6.92 -13.04 0zm-32.25 -43.19l14.43 0c5.9,0 10.2,-1.14 12.87,-3.39 2.69,-2.25 4.03,-5.55 4.03,-9.87 0,-4.12 -1.28,-7.36 -3.86,-9.76 -2.58,-2.4 -6.56,-3.61 -11.96,-3.61l-15.51 0 0 26.63z"/>
    <path id="2" class="fil17" d="M1398.86 1015.87c-5.05,0 -9.58,-0.97 -13.59,-2.91 -3.99,-1.92 -7.4,-4.65 -10.22,-8.17 -2.8,-3.53 -4.95,-7.71 -6.43,-12.54 -1.48,-4.82 -2.23,-10.15 -2.23,-15.99l0 -1.12c0,-5.81 0.75,-11.12 2.23,-15.97 1.48,-4.84 3.63,-9.03 6.43,-12.58 2.82,-3.54 6.23,-6.26 10.22,-8.21 4.01,-1.92 8.53,-2.89 13.59,-2.89 5.33,0 10,0.97 14.05,2.89 4.04,1.94 7.43,4.67 10.16,8.21 2.75,3.55 4.8,7.74 6.21,12.58 1.4,4.85 2.09,10.16 2.09,15.97l0 1.12c0,5.84 -0.69,11.17 -2.09,15.99 -1.41,4.84 -3.46,9.01 -6.21,12.54 -2.73,3.52 -6.12,6.25 -10.16,8.17 -4.05,1.94 -8.72,2.91 -14.05,2.91zm0 -8.81c5.18,0 9.38,-1.28 12.58,-3.86 3.18,-2.58 5.55,-6.17 7.05,-10.81 1.5,-4.63 2.25,-10.02 2.25,-16.13l0 -1.23c0,-6.08 -0.77,-11.43 -2.29,-16.01 -1.52,-4.6 -3.88,-8.21 -7.11,-10.79 -3.22,-2.6 -7.38,-3.9 -12.49,-3.9 -4.69,0 -8.66,1.32 -11.92,3.92 -3.26,2.62 -5.72,6.21 -7.4,10.81 -1.68,4.59 -2.53,9.92 -2.53,15.97l0 1.23c0,6.08 0.84,11.44 2.53,16.08 1.68,4.64 4.14,8.24 7.4,10.84 3.26,2.58 7.23,3.88 11.92,3.88z"/>
    <path id="3" class="fil17" d="M1311.98 1014.77c-7.21,0 -13.48,-1.68 -18.77,-5.02 -5.29,-3.35 -9.38,-7.99 -12.23,-13.94 -2.86,-5.93 -4.31,-12.8 -4.31,-20.6l0 -1.28c0,-7.87 1.45,-14.76 4.32,-20.68 2.88,-5.93 6.83,-10.55 11.83,-13.88 5.02,-3.32 10.7,-4.98 17.07,-4.98 6.08,0 11.24,0.7 15.48,2.09 4.25,1.39 7.86,3.28 10.86,5.64l0 15.77 -8.68 0 -1.14 -11.32c-1.76,-1.15 -3.9,-2.02 -6.43,-2.6 -2.55,-0.59 -5.55,-0.9 -9.03,-0.9 -4.47,0 -8.48,1.3 -12.07,3.87 -3.57,2.58 -6.39,6.17 -8.48,10.77 -2.07,4.59 -3.11,9.96 -3.11,16.11l0 1.39c0,6.23 0.97,11.67 2.88,16.3 1.92,4.61 4.72,8.22 8.41,10.77 3.68,2.56 8.15,3.85 13.4,3.85 3.57,0 6.6,-0.31 9.07,-0.94 2.48,-0.64 4.65,-1.45 6.56,-2.45l0 -18.35 -14.98 -0.53 0 -7.79 25.55 0 0 30.28c-2.25,2.1 -5.5,4.03 -9.69,5.79 -4.21,1.76 -9.71,2.64 -16.5,2.64z"/>
   </g>
   <polygon class="fil18" points="1113.33,1124.34 1097.35,1124.34 1097.35,1135.2 1116.1,1135.2 1116.1,1141.9 1089.03,1141.9 1089.03,1101.51 1116.05,1101.51 1116.05,1108.27 1097.35,1108.27 1097.35,1117.87 1113.33,1117.87 "/>
   <path id="1" class="fil18" d="M1140.29 1138.86c-1.98,2.41 -4.71,3.61 -8.21,3.61 -3.22,0 -5.67,-0.93 -7.37,-2.77 -1.69,-1.85 -2.56,-4.56 -2.59,-8.12l0 -19.67 8.02 0 0 19.4c0,3.12 1.42,4.69 4.27,4.69 2.72,0 4.58,-0.95 5.6,-2.83l0 -21.26 8.04 0 0 30 -7.55 0 -0.22 -3.04z"/>
   <path id="2" class="fil18" d="M1155.25 1126.68c0,-4.61 1.09,-8.32 3.29,-11.14 2.19,-2.81 5.14,-4.21 8.86,-4.21 3.3,0 5.85,1.14 7.68,3.4l0.34 -2.83 7.26 0 0 29c0,2.62 -0.6,4.91 -1.79,6.85 -1.19,1.94 -2.87,3.43 -5.04,4.44 -2.16,1.01 -4.7,1.53 -7.6,1.53 -2.21,0 -4.35,-0.44 -6.44,-1.32 -2.09,-0.88 -3.68,-2.01 -4.74,-3.39l3.55 -4.88c2,2.22 4.43,3.33 7.27,3.33 2.12,0 3.78,-0.57 4.96,-1.7 1.18,-1.14 1.78,-2.74 1.78,-4.83l0 -1.6c-1.85,2.09 -4.29,3.13 -7.3,3.13 -3.61,0 -6.53,-1.41 -8.75,-4.23 -2.23,-2.83 -3.34,-6.56 -3.34,-11.22l0 -0.33zm8.02 0.57c0,2.73 0.54,4.87 1.63,6.41 1.1,1.55 2.59,2.33 4.5,2.33 2.44,0 4.18,-0.92 5.25,-2.76l0 -12.67c-1.08,-1.84 -2.8,-2.76 -5.19,-2.76 -1.92,0 -3.43,0.79 -4.53,2.36 -1.1,1.58 -1.65,3.93 -1.65,7.07z"/>
   <path id="3" class="fil18" d="M1204.98 1142.47c-4.4,0 -7.99,-1.35 -10.76,-4.05 -2.76,-2.69 -4.15,-6.29 -4.15,-10.79l0 -0.78c0,-3.01 0.59,-5.71 1.75,-8.08 1.16,-2.38 2.81,-4.21 4.95,-5.49 2.14,-1.28 4.57,-1.93 7.31,-1.93 4.11,0 7.34,1.3 9.69,3.88 2.36,2.6 3.53,6.27 3.53,11.02l0 3.28 -19.11 0c0.26,1.96 1.04,3.52 2.34,4.71 1.31,1.18 2.96,1.77 4.95,1.77 3.1,0 5.5,-1.12 7.24,-3.35l3.94 4.41c-1.21,1.7 -2.83,3.03 -4.89,3.98 -2.04,0.95 -4.33,1.43 -6.82,1.43zm-0.92 -24.65c-1.59,0 -2.88,0.54 -3.87,1.62 -0.99,1.08 -1.62,2.62 -1.89,4.63l11.14 0 0 -0.64c-0.04,-1.78 -0.51,-3.16 -1.44,-4.14 -0.93,-0.98 -2.23,-1.47 -3.94,-1.47z"/>
   <path id="4" class="fil18" d="M1231.55 1111.9l0.26 3.47c2.14,-2.69 5.02,-4.04 8.62,-4.04 3.18,0 5.55,0.94 7.1,2.8 1.55,1.87 2.35,4.66 2.39,8.37l0 19.39 -8.02 0 0 -19.23c0,-1.69 -0.37,-2.93 -1.11,-3.7 -0.74,-0.77 -1.97,-1.15 -3.69,-1.15 -2.25,0 -3.95,0.96 -5.07,2.89l0 21.2 -8.02 0 0 -30 7.54 0z"/>
   <path id="5" class="fil18" d="M1272.13 1142.47c-4.4,0 -7.99,-1.35 -10.76,-4.05 -2.76,-2.69 -4.15,-6.29 -4.15,-10.79l0 -0.78c0,-3.01 0.59,-5.71 1.75,-8.08 1.16,-2.38 2.81,-4.21 4.95,-5.49 2.14,-1.28 4.57,-1.93 7.31,-1.93 4.11,0 7.34,1.3 9.69,3.88 2.36,2.6 3.53,6.27 3.53,11.02l0 3.28 -19.11 0c0.26,1.96 1.04,3.52 2.34,4.71 1.31,1.18 2.96,1.77 4.95,1.77 3.1,0 5.5,-1.12 7.24,-3.35l3.94 4.41c-1.21,1.7 -2.83,3.03 -4.89,3.98 -2.04,0.95 -4.33,1.43 -6.82,1.43zm-0.92 -24.65c-1.59,0 -2.88,0.54 -3.87,1.62 -0.99,1.08 -1.62,2.62 -1.89,4.63l11.14 0 0 -0.64c-0.04,-1.78 -0.51,-3.16 -1.44,-4.14 -0.93,-0.98 -2.23,-1.47 -3.94,-1.47z"/>
   <path id="6" class="fil18" d="M1337.94 1136.79c-1.5,1.8 -3.61,3.19 -6.35,4.19 -2.74,0.99 -5.77,1.48 -9.09,1.48 -3.5,0 -6.56,-0.77 -9.2,-2.29 -2.63,-1.53 -4.67,-3.74 -6.1,-6.65 -1.44,-2.91 -2.16,-6.33 -2.21,-10.24l0 -2.75c0,-4.04 0.68,-7.53 2.04,-10.48 1.36,-2.96 3.32,-5.21 5.88,-6.77 2.56,-1.56 5.57,-2.35 9.01,-2.35 4.79,0 8.53,1.15 11.24,3.43 2.69,2.28 4.3,5.6 4.79,9.96l-8.09 0c-0.37,-2.31 -1.2,-4.01 -2.45,-5.07 -1.27,-1.07 -3.01,-1.61 -5.24,-1.61 -2.83,0 -4.98,1.06 -6.46,3.19 -1.48,2.13 -2.23,5.3 -2.24,9.5l0 2.57c0,4.24 0.8,7.44 2.41,9.61 1.61,2.17 3.97,3.25 7.07,3.25 3.13,0 5.36,-0.67 6.69,-2l0 -6.98 -7.58 0 0 -6.13 15.89 0 0 16.14z"/>
   <path id="7" class="fil18" d="M1364.47 1138.86c-1.98,2.41 -4.71,3.61 -8.21,3.61 -3.22,0 -5.67,-0.93 -7.37,-2.77 -1.69,-1.85 -2.56,-4.56 -2.59,-8.12l0 -19.67 8.02 0 0 19.4c0,3.12 1.42,4.69 4.27,4.69 2.72,0 4.58,-0.95 5.6,-2.83l0 -21.26 8.04 0 0 30 -7.55 0 -0.22 -3.04z"/>
   <path id="8" class="fil18" d="M1407.63 1127.18c0,4.81 -1.03,8.56 -3.08,11.25 -2.05,2.69 -4.92,4.04 -8.61,4.04 -3.25,0 -5.85,-1.25 -7.79,-3.76l-0.36 3.19 -7.21 0 0 -42.6 8.02 0 0 15.29c1.85,-2.17 4.28,-3.25 7.3,-3.25 3.65,0 6.52,1.35 8.61,4.04 2.08,2.7 3.12,6.48 3.12,11.36l0 0.45zm-8.02 -0.61c0,-3.04 -0.48,-5.26 -1.44,-6.66 -0.97,-1.4 -2.4,-2.1 -4.3,-2.1 -2.56,0 -4.31,1.05 -5.27,3.14l0 11.86c0.98,2.11 2.76,3.17 5.32,3.17 2.59,0 4.3,-1.28 5.1,-3.84 0.39,-1.22 0.59,-3.09 0.59,-5.59z"/>
   <path id="9" class="fil18" d="M1432.28 1141.9c-0.37,-0.72 -0.63,-1.61 -0.81,-2.68 -1.94,2.17 -4.47,3.25 -7.57,3.25 -2.94,0 -5.38,-0.85 -7.31,-2.56 -1.93,-1.7 -2.89,-3.85 -2.89,-6.45 0,-3.18 1.18,-5.62 3.54,-7.33 2.36,-1.7 5.77,-2.56 10.22,-2.59l3.69 0 0 -1.7c0,-1.38 -0.36,-2.48 -1.07,-3.3 -0.71,-0.82 -1.83,-1.24 -3.37,-1.24 -1.35,0 -2.41,0.32 -3.17,0.95 -0.77,0.64 -1.16,1.52 -1.16,2.62l-8.01 0c0,-1.74 0.53,-3.34 1.6,-4.81 1.08,-1.48 2.59,-2.63 4.56,-3.47 1.96,-0.84 4.16,-1.26 6.6,-1.26 3.7,0 6.64,0.93 8.8,2.78 2.18,1.87 3.27,4.47 3.27,7.84l0 13.01c0.02,2.84 0.42,5 1.2,6.46l0 0.47 -8.11 0zm-6.63 -5.57c1.18,0 2.27,-0.27 3.28,-0.79 1,-0.53 1.73,-1.24 2.22,-2.12l0 -5.16 -2.99 0c-4.01,0 -6.15,1.38 -6.41,4.16l-0.03 0.47c0,1 0.35,1.82 1.05,2.47 0.7,0.65 1.67,0.97 2.89,0.97z"/>
   <path id="10" class="fil18" d="M1455.03 1111.9l0.26 3.47c2.14,-2.69 5.02,-4.04 8.62,-4.04 3.18,0 5.55,0.94 7.1,2.8 1.55,1.87 2.35,4.66 2.39,8.37l0 19.39 -8.02 0 0 -19.23c0,-1.69 -0.37,-2.93 -1.11,-3.7 -0.74,-0.77 -1.97,-1.15 -3.69,-1.15 -2.25,0 -3.95,0.96 -5.07,2.89l0 21.2 -8.02 0 0 -30 7.54 0z"/>
   <path id="11" class="fil18" d="M1480.53 1126.63c0,-2.98 0.58,-5.64 1.72,-7.96 1.14,-2.33 2.79,-4.14 4.95,-5.42 2.15,-1.28 4.65,-1.91 7.5,-1.91 4.05,0 7.36,1.24 9.92,3.72 2.56,2.47 3.98,5.84 4.28,10.09l0.06 2.06c0,4.61 -1.29,8.3 -3.85,11.09 -2.58,2.78 -6.02,4.17 -10.35,4.17 -4.32,0 -7.78,-1.39 -10.36,-4.17 -2.59,-2.77 -3.87,-6.54 -3.87,-11.31l0 -0.36zm8.02 0.57c0,2.85 0.53,5.03 1.61,6.53 1.07,1.51 2.6,2.27 4.6,2.27 1.94,0 3.46,-0.75 4.55,-2.24 1.1,-1.48 1.64,-3.87 1.64,-7.14 0,-2.8 -0.54,-4.96 -1.64,-6.5 -1.09,-1.54 -2.62,-2.3 -4.6,-2.3 -1.96,0 -3.48,0.76 -4.54,2.29 -1.08,1.52 -1.61,3.89 -1.61,7.09z"/>
   <polygon id="12" class="fil18" points="1527.04,1132.11 1532.61,1111.9 1540.99,1111.9 1530.87,1141.9 1523.21,1141.9 1513.09,1111.9 1521.47,1111.9 "/>
   <path id="13" class="fil18" d="M1099.06 1217.08c1.58,0 2.95,-0.47 4.11,-1.42 1.18,-0.95 1.83,-2.13 1.95,-3.56l4.16 0c-0.08,1.48 -0.58,2.88 -1.52,4.21 -0.94,1.33 -2.19,2.39 -3.75,3.19 -1.56,0.79 -3.22,1.19 -4.96,1.19 -3.5,0 -6.29,-1.17 -8.36,-3.51 -2.06,-2.34 -3.1,-5.54 -3.1,-9.6l0 -0.74c0,-2.5 0.47,-4.73 1.38,-6.68 0.92,-1.95 2.24,-3.47 3.96,-4.55 1.72,-1.08 3.75,-1.62 6.09,-1.62 2.89,0 5.28,0.86 7.2,2.59 1.91,1.73 2.92,3.97 3.05,6.73l-4.16 0c-0.12,-1.66 -0.75,-3.03 -1.89,-4.11 -1.13,-1.07 -2.53,-1.61 -4.2,-1.61 -2.23,0 -3.96,0.8 -5.19,2.41 -1.22,1.61 -1.84,3.93 -1.84,6.99l0 0.83c0,2.96 0.61,5.25 1.83,6.85 1.22,1.6 2.96,2.4 5.23,2.4z"/>
   <path id="14" class="fil18" d="M1120.63 1197.59c1.95,-2.39 4.49,-3.59 7.6,-3.59 5.44,0 8.18,3.07 8.23,9.21l0 16.99 -4.4 0 0 -17.01c-0.02,-1.85 -0.44,-3.22 -1.28,-4.11 -0.83,-0.88 -2.13,-1.33 -3.89,-1.33 -1.42,0 -2.68,0.38 -3.76,1.14 -1.07,0.76 -1.91,1.76 -2.51,3l0 18.31 -4.4 0 0 -36.52 4.4 0 0 13.91z"/>
   <path id="15" class="fil18" d="M1149.81 1220.2l-4.4 0 0 -25.71 4.4 0 0 25.71zm-4.76 -32.55c0,-0.71 0.22,-1.32 0.65,-1.82 0.44,-0.5 1.09,-0.74 1.94,-0.74 0.86,0 1.51,0.24 1.95,0.74 0.44,0.49 0.67,1.1 0.67,1.82 0,0.72 -0.22,1.32 -0.67,1.8 -0.44,0.47 -1.09,0.71 -1.95,0.71 -0.85,0 -1.5,-0.24 -1.94,-0.71 -0.43,-0.48 -0.65,-1.08 -0.65,-1.8z"/>
   <path id="16" class="fil18" d="M1169.5 1220.69c-3.48,0 -6.33,-1.14 -8.52,-3.43 -2.18,-2.29 -3.28,-5.36 -3.28,-9.2l0 -0.81c0,-2.55 0.49,-4.83 1.46,-6.83 0.97,-2.01 2.34,-3.58 4.09,-4.71 1.75,-1.14 3.65,-1.71 5.7,-1.71 3.34,0 5.94,1.11 7.8,3.3 1.85,2.21 2.78,5.37 2.78,9.47l0 1.83 -17.43 0c0.07,2.53 0.81,4.58 2.22,6.13 1.42,1.56 3.22,2.34 5.41,2.34 1.55,0 2.86,-0.32 3.94,-0.95 1.08,-0.63 2.02,-1.47 2.83,-2.5l2.69 2.09c-2.16,3.31 -5.4,4.97 -9.7,4.97zm-0.54 -23.08c-1.78,0 -3.26,0.65 -4.47,1.95 -1.2,1.3 -1.95,3.12 -2.23,5.45l12.89 0 0 -0.34c-0.13,-2.25 -0.73,-3.98 -1.81,-5.22 -1.08,-1.23 -2.54,-1.85 -4.37,-1.85z"/>
   <path id="17" class="fil18" d="M1188.75 1220.2l0 -22.3 -4.07 0 0 -3.41 4.07 0 0 -2.64c0,-2.76 0.74,-4.89 2.22,-6.4 1.47,-1.5 3.55,-2.26 6.25,-2.26 1.01,0 2.02,0.14 3.02,0.4l-0.24 3.56c-0.74,-0.14 -1.54,-0.21 -2.37,-0.21 -1.43,0 -2.53,0.41 -3.3,1.25 -0.78,0.84 -1.17,2.03 -1.17,3.59l0 2.71 5.49 0 0 3.41 -5.49 0 0 22.3 -4.4 0z"/>
   <path id="18" class="fil18" d="M1228.21 1220.69c-3.48,0 -6.33,-1.14 -8.52,-3.43 -2.18,-2.29 -3.28,-5.36 -3.28,-9.2l0 -0.81c0,-2.55 0.49,-4.83 1.46,-6.83 0.97,-2.01 2.34,-3.58 4.09,-4.71 1.75,-1.14 3.65,-1.71 5.7,-1.71 3.34,0 5.94,1.11 7.8,3.3 1.85,2.21 2.78,5.37 2.78,9.47l0 1.83 -17.43 0c0.07,2.53 0.81,4.58 2.22,6.13 1.42,1.56 3.22,2.34 5.41,2.34 1.55,0 2.86,-0.32 3.94,-0.95 1.08,-0.63 2.02,-1.47 2.83,-2.5l2.69 2.09c-2.16,3.31 -5.4,4.97 -9.7,4.97zm-0.54 -23.08c-1.78,0 -3.26,0.65 -4.47,1.95 -1.2,1.3 -1.95,3.12 -2.23,5.45l12.89 0 0 -0.34c-0.13,-2.25 -0.73,-3.98 -1.81,-5.22 -1.08,-1.23 -2.54,-1.85 -4.37,-1.85z"/>
   <polygon id="19" class="fil18" points="1253.94,1203.87 1259.64,1194.49 1264.78,1194.49 1256.36,1207.2 1265.04,1220.2 1259.95,1220.2 1254,1210.58 1248.06,1220.2 1242.95,1220.2 1251.63,1207.2 1243.21,1194.49 1248.29,1194.49 "/>
   <path id="20" class="fil18" d="M1281.62 1220.69c-3.48,0 -6.33,-1.14 -8.52,-3.43 -2.18,-2.29 -3.28,-5.36 -3.28,-9.2l0 -0.81c0,-2.55 0.49,-4.83 1.46,-6.83 0.97,-2.01 2.34,-3.58 4.09,-4.71 1.75,-1.14 3.65,-1.71 5.7,-1.71 3.34,0 5.94,1.11 7.8,3.3 1.85,2.21 2.78,5.37 2.78,9.47l0 1.83 -17.43 0c0.07,2.53 0.81,4.58 2.22,6.13 1.42,1.56 3.22,2.34 5.41,2.34 1.55,0 2.86,-0.32 3.94,-0.95 1.08,-0.63 2.02,-1.47 2.83,-2.5l2.69 2.09c-2.16,3.31 -5.4,4.97 -9.7,4.97zm-0.54 -23.08c-1.78,0 -3.26,0.65 -4.47,1.95 -1.2,1.3 -1.95,3.12 -2.23,5.45l12.89 0 0 -0.34c-0.13,-2.25 -0.73,-3.98 -1.81,-5.22 -1.08,-1.23 -2.54,-1.85 -4.37,-1.85z"/>
   <path id="21" class="fil18" d="M1309.02 1217.08c1.58,0 2.95,-0.47 4.11,-1.42 1.18,-0.95 1.83,-2.13 1.95,-3.56l4.16 0c-0.08,1.48 -0.58,2.88 -1.52,4.21 -0.94,1.33 -2.19,2.39 -3.75,3.19 -1.56,0.79 -3.22,1.19 -4.96,1.19 -3.5,0 -6.29,-1.17 -8.36,-3.51 -2.06,-2.34 -3.1,-5.54 -3.1,-9.6l0 -0.74c0,-2.5 0.47,-4.73 1.38,-6.68 0.92,-1.95 2.24,-3.47 3.96,-4.55 1.72,-1.08 3.75,-1.62 6.09,-1.62 2.89,0 5.28,0.86 7.2,2.59 1.91,1.73 2.92,3.97 3.05,6.73l-4.16 0c-0.12,-1.66 -0.75,-3.03 -1.89,-4.11 -1.13,-1.07 -2.53,-1.61 -4.2,-1.61 -2.23,0 -3.96,0.8 -5.19,2.41 -1.22,1.61 -1.84,3.93 -1.84,6.99l0 0.83c0,2.96 0.61,5.25 1.83,6.85 1.22,1.6 2.96,2.4 5.23,2.4z"/>
   <path id="22" class="fil18" d="M1342.06 1217.67c-1.71,2.01 -4.22,3.02 -7.54,3.02 -2.74,0 -4.83,-0.8 -6.26,-2.39 -1.43,-1.6 -2.16,-3.95 -2.17,-7.07l0 -16.74 4.4 0 0 16.61c0,3.9 1.58,5.84 4.76,5.84 3.36,0 5.59,-1.25 6.7,-3.75l0 -18.7 4.4 0 0 25.71 -4.19 0 -0.09 -2.53z"/>
   <path id="23" class="fil18" d="M1360.99 1188.26l0 6.23 4.79 0 0 3.41 -4.79 0 0 15.95c0,1.03 0.21,1.8 0.64,2.32 0.42,0.51 1.15,0.77 2.18,0.77 0.51,0 1.21,-0.1 2.09,-0.28l0 3.56c-1.16,0.31 -2.28,0.47 -3.38,0.47 -1.96,0 -3.45,-0.6 -4.44,-1.79 -1,-1.19 -1.49,-2.87 -1.49,-5.05l0 -15.95 -4.69 0 0 -3.41 4.69 0 0 -6.23 4.4 0z"/>
   <path id="24" class="fil18" d="M1377.68 1220.2l-4.4 0 0 -25.71 4.4 0 0 25.71zm-4.76 -32.55c0,-0.71 0.22,-1.32 0.65,-1.82 0.44,-0.5 1.09,-0.74 1.94,-0.74 0.86,0 1.51,0.24 1.95,0.74 0.44,0.49 0.67,1.1 0.67,1.82 0,0.72 -0.22,1.32 -0.67,1.8 -0.44,0.47 -1.09,0.71 -1.95,0.71 -0.85,0 -1.5,-0.24 -1.94,-0.71 -0.43,-0.48 -0.65,-1.08 -0.65,-1.8z"/>
   <polygon id="25" class="fil18" points="1395.17,1214.24 1401.54,1194.49 1406.03,1194.49 1396.81,1220.2 1393.45,1220.2 1384.14,1194.49 1388.63,1194.49 "/>
   <path id="26" class="fil18" d="M1422.62 1220.69c-3.48,0 -6.33,-1.14 -8.52,-3.43 -2.18,-2.29 -3.28,-5.36 -3.28,-9.2l0 -0.81c0,-2.55 0.49,-4.83 1.46,-6.83 0.97,-2.01 2.34,-3.58 4.09,-4.71 1.75,-1.14 3.65,-1.71 5.7,-1.71 3.34,0 5.94,1.11 7.8,3.3 1.85,2.21 2.78,5.37 2.78,9.47l0 1.83 -17.43 0c0.07,2.53 0.81,4.58 2.22,6.13 1.42,1.56 3.22,2.34 5.41,2.34 1.55,0 2.86,-0.32 3.94,-0.95 1.08,-0.63 2.02,-1.47 2.83,-2.5l2.69 2.09c-2.16,3.31 -5.4,4.97 -9.7,4.97zm-0.54 -23.08c-1.78,0 -3.26,0.65 -4.47,1.95 -1.2,1.3 -1.95,3.12 -2.23,5.45l12.89 0 0 -0.34c-0.13,-2.25 -0.73,-3.98 -1.81,-5.22 -1.08,-1.23 -2.54,-1.85 -4.37,-1.85z"/>
   <path id="27" class="fil18" d="M1450.6 1207.11c0,-2.52 0.49,-4.78 1.48,-6.8 0.99,-2.02 2.37,-3.57 4.14,-4.66 1.76,-1.1 3.78,-1.64 6.05,-1.64 3.5,0 6.34,1.21 8.51,3.64 2.15,2.42 3.23,5.65 3.23,9.68l0 0.31c0,2.51 -0.48,4.76 -1.43,6.74 -0.96,1.99 -2.33,3.54 -4.11,4.65 -1.78,1.11 -3.83,1.67 -6.14,1.67 -3.49,0 -6.32,-1.21 -8.48,-3.64 -2.16,-2.42 -3.24,-5.64 -3.24,-9.63l0 -0.31zm4.42 0.51c0,2.85 0.66,5.15 1.98,6.87 1.32,1.73 3.1,2.59 5.32,2.59 2.23,0 4.01,-0.87 5.32,-2.63 1.31,-1.75 1.97,-4.2 1.97,-7.36 0,-2.83 -0.67,-5.11 -2,-6.86 -1.34,-1.75 -3.12,-2.63 -5.34,-2.63 -2.16,0 -3.92,0.86 -5.25,2.59 -1.33,1.73 -2,4.2 -2,7.42z"/>
   <path id="28" class="fil18" d="M1483.68 1220.2l0 -22.3 -4.06 0 0 -3.41 4.06 0 0 -2.64c0,-2.76 0.74,-4.89 2.21,-6.4 1.48,-1.5 3.56,-2.26 6.26,-2.26 1.01,0 2.02,0.14 3.02,0.4l-0.24 3.56c-0.74,-0.14 -1.54,-0.21 -2.38,-0.21 -1.43,0 -2.53,0.41 -3.31,1.25 -0.77,0.84 -1.16,2.03 -1.16,3.59l0 2.71 9.51 0 0 -2.19c0,-2.86 0.82,-5.1 2.46,-6.7 1.64,-1.6 3.96,-2.4 6.96,-2.4 1.78,0 4.02,0.48 6.73,1.44l-0.74 3.71c-1.98,-0.8 -3.87,-1.19 -5.68,-1.19 -1.89,0 -3.24,0.42 -4.08,1.27 -0.83,0.83 -1.24,2.12 -1.24,3.83l0 2.24 5.28 0 0 3.41 -5.28 0 0 22.3 -4.4 0 0 -22.3 -9.51 0 0 22.3 -4.4 0zm32.22 0l-4.41 0 0 -25.71 4.41 0 0 25.71z"/>
   <path id="29" class="fil18" d="M1535.36 1217.08c1.58,0 2.95,-0.47 4.11,-1.42 1.18,-0.95 1.83,-2.13 1.95,-3.56l4.16 0c-0.08,1.48 -0.58,2.88 -1.52,4.21 -0.94,1.33 -2.19,2.39 -3.75,3.19 -1.56,0.79 -3.22,1.19 -4.96,1.19 -3.5,0 -6.29,-1.17 -8.36,-3.51 -2.06,-2.34 -3.1,-5.54 -3.1,-9.6l0 -0.74c0,-2.5 0.47,-4.73 1.38,-6.68 0.92,-1.95 2.24,-3.47 3.96,-4.55 1.72,-1.08 3.75,-1.62 6.09,-1.62 2.89,0 5.28,0.86 7.2,2.59 1.91,1.73 2.92,3.97 3.05,6.73l-4.16 0c-0.12,-1.66 -0.75,-3.03 -1.89,-4.11 -1.13,-1.07 -2.53,-1.61 -4.2,-1.61 -2.23,0 -3.96,0.8 -5.19,2.41 -1.22,1.61 -1.84,3.93 -1.84,6.99l0 0.83c0,2.96 0.61,5.25 1.83,6.85 1.22,1.6 2.96,2.4 5.23,2.4z"/>
   <path id="30" class="fil18" d="M1557.31 1220.2l-4.4 0 0 -25.71 4.4 0 0 25.71zm-4.76 -32.55c0,-0.71 0.22,-1.32 0.65,-1.82 0.44,-0.5 1.09,-0.74 1.94,-0.74 0.86,0 1.51,0.24 1.95,0.74 0.44,0.49 0.67,1.1 0.67,1.82 0,0.72 -0.22,1.32 -0.67,1.8 -0.44,0.47 -1.09,0.71 -1.95,0.71 -0.85,0 -1.5,-0.24 -1.94,-0.71 -0.43,-0.48 -0.65,-1.08 -0.65,-1.8z"/>
   <path id="31" class="fil18" d="M1577 1220.69c-3.48,0 -6.33,-1.14 -8.52,-3.43 -2.18,-2.29 -3.28,-5.36 -3.28,-9.2l0 -0.81c0,-2.55 0.49,-4.83 1.46,-6.83 0.97,-2.01 2.34,-3.58 4.09,-4.71 1.75,-1.14 3.65,-1.71 5.7,-1.71 3.34,0 5.94,1.11 7.8,3.3 1.85,2.21 2.78,5.37 2.78,9.47l0 1.83 -17.43 0c0.07,2.53 0.81,4.58 2.22,6.13 1.42,1.56 3.22,2.34 5.41,2.34 1.55,0 2.86,-0.32 3.94,-0.95 1.08,-0.63 2.02,-1.47 2.83,-2.5l2.69 2.09c-2.16,3.31 -5.4,4.97 -9.7,4.97zm-0.54 -23.08c-1.78,0 -3.26,0.65 -4.47,1.95 -1.2,1.3 -1.95,3.12 -2.23,5.45l12.89 0 0 -0.34c-0.13,-2.25 -0.73,-3.98 -1.81,-5.22 -1.08,-1.23 -2.54,-1.85 -4.37,-1.85z"/>
   <path id="32" class="fil18" d="M1606.51 1198.41c-0.67,-0.11 -1.39,-0.17 -2.15,-0.17 -2.89,0 -4.85,1.22 -5.88,3.68l0 18.28 -4.4 0 0 -25.71 4.28 0 0.07 2.96c1.44,-2.3 3.49,-3.45 6.13,-3.45 0.86,0 1.51,0.12 1.95,0.34l0 4.07z"/>
  </g>
 </g>
</svg>
