<?xml version="1.0" encoding="UTF-8"?>
<!DOCTYPE svg PUBLIC "-//W3C//DTD SVG 1.1//EN" "http://www.w3.org/Graphics/SVG/1.1/DTD/svg11.dtd">
<!-- Creator: CorelDRAW 2020 (64-Bit) -->
<svg xmlns="http://www.w3.org/2000/svg" xml:space="preserve" width="90mm" height="120mm" version="1.1" style="shape-rendering:geometricPrecision; text-rendering:geometricPrecision; image-rendering:optimizeQuality; fill-rule:evenodd; clip-rule:evenodd"
viewBox="0 0 60567.09 80756.12"
 xmlns:xlink="http://www.w3.org/1999/xlink"
 xmlns:xodm="http://www.corel.com/coreldraw/odm/2003">
 <defs>
  <style type="text/css">
   <![CDATA[
    .str0 {stroke:black;stroke-width:134.59;stroke-miterlimit:22.9256}
    .fil8 {fill:#FEFEFE}
    .fil12 {fill:black}
    .fil3 {fill:#666666}
    .fil4 {fill:white}
    .fil11 {fill:#00ADB5}
    .fil0 {fill:#B8DBD6}
    .fil7 {fill:#0094BF}
    .fil6 {fill:#00ADB5}
    .fil14 {fill:white;fill-rule:nonzero}
    .fil9 {fill:#00ADB5;fill-rule:nonzero}
    .fil10 {fill:gray;fill-opacity:0.431373}
    .fil1 {fill:gray;fill-opacity:0.450980}
    .fil5 {fill:#CCCCCC}
    .fil2 {fill:url(#id6)}
    .fil13 {fill:url(#id7);fill-opacity:0.101961}
   ]]>
  </style>
    <mask id="id0">
  <linearGradient id="id1" gradientUnits="userSpaceOnUse" x1="39065.82" y1="59832.47" x2="39065.73" y2="58971.38">
   <stop offset="0" style="stop-opacity:1; stop-color:white"/>
   <stop offset="1" style="stop-opacity:0; stop-color:white"/>
  </linearGradient>
     <rect style="fill:url(#id1)" x="21580.26" y="58091.98" width="33209.74" height="1835.92"/>
    </mask>
    <mask id="id2">
  <linearGradient id="id3" gradientUnits="userSpaceOnUse" x1="24090.18" y1="64362.46" x2="24855.42" y2="63968.13">
   <stop offset="0" style="stop-opacity:1; stop-color:white"/>
   <stop offset="1" style="stop-opacity:0; stop-color:white"/>
  </linearGradient>
     <rect style="fill:url(#id3)" x="20277.46" y="55919.91" width="3867.81" height="4661.78"/>
    </mask>
    <mask id="id4">
  <linearGradient id="id5" gradientUnits="userSpaceOnUse" x1="52060.66" y1="64377.65" x2="51295.41" y2="63983.32">
   <stop offset="0" style="stop-opacity:1; stop-color:white"/>
   <stop offset="1" style="stop-opacity:0; stop-color:white"/>
  </linearGradient>
     <rect style="fill:url(#id5)" x="52005.59" y="55935.12" width="3867.75" height="4661.78"/>
    </mask>
  <linearGradient id="id6" gradientUnits="userSpaceOnUse" x1="10525.89" y1="53912.58" x2="12702.74" y2="53912.58">
   <stop offset="0" style="stop-opacity:1; stop-color:#9C9A9A"/>
   <stop offset="1" style="stop-opacity:1; stop-color:#CCCCCC"/>
  </linearGradient>
  <linearGradient id="id7" gradientUnits="userSpaceOnUse" x1="38068.16" y1="59739.51" x2="38068.16" y2="56377.32">
   <stop offset="0" style="stop-opacity:1; stop-color:black"/>
   <stop offset="1" style="stop-opacity:1; stop-color:white"/>
  </linearGradient>
 </defs>
 <g id="Layer_x0020_1">
  <metadata id="CorelCorpID_0Corel-Layer"/>
  <rect class="fil0" x="-0" y="-0.05" width="60567.09" height="80756.15"/>
  <path class="fil1" d="M2917.52 52662.21l7526.6 0c259.63,0 474.98,196.24 505.2,447.93l2075.57 0 0 2344.82 -2115.2 0c-93.41,263.67 -330.56,441 -634.68,441l-7357.49 0 0 -3233.74zm11178.4 -56.13l2094.48 0c326.86,0 593.42,266.7 593.42,593.42l0 1834.51c0,469.13 -333.52,833.81 -793.7,833.81l-1894.2 0 0 -3261.74z"/>
  <g id="_1423915204368">
   <rect class="fil2" x="10525.91" y="52740.13" width="2176.83" height="2344.87"/>
   <rect class="fil3" x="11435.75" y="53139.16" width="518.01" height="510.98"/>
   <rect class="fil3" x="11435.75" y="54147.06" width="518.01" height="510.98"/>
  </g>
  <g id="_1423915215936">
   <polygon class="fil1" points="12636.11,4328.39 47968.73,13795.7 43166.9,31716.43 7834.29,22249.05 "/>
   <g>
    <rect class="fil4" transform="matrix(0.879005 0.235529 -0.238655 0.890674 12240.7 3299.73)" width="40196.16" height="20120.39"/>
    <path class="fil5" d="M28230.72 17351.86l13702.16 3671.51c266.97,71.54 426.86,348.46 355.33,615.43l-1443.31 5386.5c-71.54,266.97 -348.46,426.86 -615.43,355.33l-13702.16 -3671.44c-266.97,-71.54 -426.86,-348.53 -355.33,-615.5l1443.31 -5386.43c71.54,-266.97 348.46,-426.86 615.43,-355.39z"/>
   </g>
   <g>
    <path class="fil6" d="M15560.36 11624.71l-345.43 -92.6 90.38 -337.29 -34.99 -9.35 -90.31 337.29 -293.82 -78.74 90.38 -337.29 -34.86 -9.35 -90.38 337.29 -291.46 -78.06 90.38 -337.29 -34.93 -9.35 -90.38 337.29 -296.04 -79.34 90.38 -337.29 -34.99 -9.35 -90.31 337.29 -291.46 -78.06 90.38 -337.29 -34.93 -9.35 -90.38 337.22 -33.18 -8.88 -127.86 -476.86 29.81 -34.46 1945.21 521.55 -121.2 452.3zm-1219.69 -1025.27l343.35 213.8 390.66 -60.43 479.22 344.96 -1676.77 -449.34 463.54 -48.99zm3402.93 -342.61l197.58 52.9 -52.96 197.58 -197.52 -52.96 52.9 -197.52zm-339.78 -91.05l197.58 52.9 -52.96 197.58 -197.52 -52.96 52.9 -197.52zm-331.84 -88.97l197.52 52.96 -52.9 197.58 -197.58 -52.96 52.96 -197.58zm-1671.45 2749.41l135.33 36.27c-55.99,-8.14 -89.5,-9.69 -143.95,-4.11l8.61 -32.17zm-99.2 208.69c-179.08,51.15 -356.13,0.27 -486.89,-130.49 -138.7,-138.63 -349.81,-194.15 -531.17,-142.33l-22.81 -85.26c181.97,-49.6 450.55,4.17 614.22,162.99 122.35,118.78 236.08,155.66 403.85,109.83 202.29,-55.18 468.39,17.03 616.37,165.08 105.32,105.25 219.72,157.27 401.63,107.61 181.97,-49.6 455.33,3.97 616.57,165.21l-62.52 62.45c-138.63,-138.63 -349.88,-194.22 -531.24,-142.4 -178.81,51.15 -356.07,0.4 -486.76,-130.22 -138.7,-138.7 -349.94,-194.29 -531.24,-142.47zm34.73 129.61c-219.59,54.85 -458.96,2.89 -616.51,-165.21 -102.02,-108.95 -257.54,-143.68 -401.56,-107.61l-19.99 -74.77c175.78,-43.34 350.08,-6.53 476.33,127.73 137.29,145.97 359.03,190.11 541.67,145.09 177.8,-43.88 345.91,-2.83 476.26,127.53 141.73,141.66 359.03,190.18 541.81,145.16 182.78,-45.09 350.95,2.29 476.39,127.73l-54.71 54.71c-105.59,-105.59 -257.68,-143.68 -401.69,-107.74 -221.07,55.32 -455.13,-3.77 -616.3,-164.94 -105.66,-105.66 -257.61,-143.68 -401.69,-107.67zm904.74 1.08c-142.87,-664.89 -168.51,-1059.25 58.08,-1893.93 145.36,-143.75 477.4,-312.26 772.36,-402.23 303.37,-73.62 643.16,-126.85 977.28,-135.54l316.77 1182.13 -1420.77 1420.84c-87.35,-76.99 -193.28,-135.6 -313.33,-167.77 -132.51,-35.47 -266.16,-34.59 -390.39,-3.5zm1636.46 -3074.39l22.28 83.18 -901.04 -241.46 -289.78 983.74c-33.31,16.49 -65.14,33.72 -95.43,51.68l329.96 -1127.42 934.01 250.28zm-724.45 -656.68l419.93 112.52 -8.95 374.71 -515.56 -138.16 104.58 -349.07zm502.64 146.57l88.5 23.76 14.13 52.69 -101.75 -27.26 -0.87 -49.19zm-1962.51 3323.45l439.11 117.63 13.26 53.57 -288.1 -77.19c-49.19,-38.22 -104.24,-70.06 -164.27,-94.01zm74.83 -1730.47l12.99 -46.57 434.74 116.49c-4.24,15.61 -8.28,31.16 -12.32,46.7l-435.41 -116.63zm-1783.63 -778.09l39.44 -39.44 2486.14 666.17c-19.38,10.9 -39.17,22.28 -59.02,34.19l-2466.56 -660.92zm249.87 -249.81l39.44 -39.44 2324.77 622.9 -13.59 46.37 -2350.61 -629.83zm262.93 -263l39.44 -39.44 2152.82 576.87 -13.66 46.37 -2178.6 -583.8zm276.12 -276.12l39.5 -39.44 1972.13 528.48 -13.66 46.3 -1997.97 -535.35zm289.31 -289.24l39.44 -39.44 1782.89 477.74 -13.66 46.3 -1808.67 -484.6zm302.43 -302.43l39.44 -39.44 1659.81 444.76 -16.29 45.63 -1682.96 -450.96zm75.37 3654.69l660.85 177.06c2.76,17.43 5.72,34.93 8.75,52.36l-682.12 -182.71 12.52 -46.7zm45.83 -171.07l590.33 158.15c1.75,17.16 3.63,34.32 5.65,51.55l-608.5 -163.06 12.52 -46.64zm50 -186.68l526.13 140.92c0.61,16.89 1.41,33.78 2.36,50.67l-540.93 -144.96 12.45 -46.64zm54.24 -202.23l470.47 126.05c-0.4,16.62 -0.67,33.24 -0.87,49.8l-482.11 -129.21 12.52 -46.64zm58.35 -217.77l425.65 114.07c-1.48,16.29 -2.89,32.64 -4.11,48.92l-434.06 -116.36 12.52 -46.64zm-2.15 -250.61l457.62 122.61c-2.49,16.02 -4.91,32.03 -7.13,48.05l-462.93 -124.03 12.45 -46.64zm66.69 -248.93l437.9 117.37c-3.36,15.81 -6.66,31.63 -9.89,47.38l-440.46 -118.04 12.45 -46.7zm-1484.9 1219.08l-207.75 -775.39 -115.21 -429.96 1673.2 448.33 -270.53 1009.65 -39.17 10.36c-60.37,16.02 -124.03,27.26 -188.97,9.83 -44.08,-11.78 -83.25,-32.64 -116.22,-59.89 -97.24,-98.99 -220.53,-170.4 -355.06,-206.47 -128.81,-34.52 -258.82,-34.79 -380.29,-6.46z"/>
    <circle class="fil7" transform="matrix(0.449048 0.120322 -0.120322 0.449048 15318.5 11679.2)" r="178.07"/>
    <circle class="fil7" transform="matrix(0.449048 0.120322 -0.120322 0.449048 15023.3 11600.1)" r="178.07"/>
    <circle class="fil7" transform="matrix(0.449048 0.120322 -0.120322 0.449048 14019.6 11331.1)" r="178.07"/>
    <ellipse class="fil8" transform="matrix(0.403991 0.0400511 -0.0400511 0.403991 17945.9 11817.2)" rx="274.5" ry="415.49"/>
    <path class="fil9" d="M18299.47 13992.68l42.2 -157.41 139.84 17.36 1076.28 -1472.39 211.18 56.6 184.33 1810.15 128.94 54.64 -42.2 157.41 -522.16 -139.91 42.2 -157.41 143.81 12.92 -30.22 -367.04 -728.62 -195.23 -213.47 301.76 130.96 60.7 -42.2 157.41 -520.88 -139.57zm777.14 -565.9l577.2 154.72 -69.25 -811.4 -3.97 -44.95 -7.67 -2.02 -25.91 36.95 -470.4 666.71z"/>
    <path id="1" class="fil9" d="M20566.5 14600.17l42.2 -157.47 213.26 19.65 384 -1432.95 -194.55 -89.57 42.2 -157.47 810.99 217.3c132.17,35.47 239.11,85.13 319.39,149.2 80.69,64.13 134.86,139.91 162.12,227.66 27.32,87.35 26.65,185.54 -2.36,293.88 -28.6,106.6 -75.71,190.05 -141.59,250.07 -65.41,59.76 -145.83,97.18 -240.65,111.58 -94.82,14.33 -200.75,7 -318.31,-21.74l-408.96 -101.82 -166.09 619.8 194.08 89.5 -42.2 157.47 -653.52 -175.11zm1200.91 321.75l-161.51 -1016.72 246.84 63.46 141.39 816.92 119.79 56.33 -43.2 161.31 -303.31 -81.29zm-481.31 -1207.1l335.74 89.98c137.82,36.88 244.56,37.62 320.94,1.88 76.79,-35.73 128.47,-104.18 155.46,-204.85 25.71,-95.97 16.08,-179.48 -29.14,-251.42 -45.16,-72.01 -130.29,-124.57 -256.13,-158.28l-360.85 -96.71 -166.02 619.4z"/>
    <path id="2" class="fil9" d="M25414.62 15954.99c-117.23,-31.43 -216.56,-82.24 -297.92,-152.56 -81.43,-69.79 -143.68,-154.58 -187.09,-254.05 -43.2,-99.8 -66.96,-210.37 -71.54,-331.84 -4.37,-121.94 11.44,-250.75 47.78,-386.42l6.93 -26.04c36.27,-135.2 86.88,-254.18 151.75,-358.02 64.74,-103.37 140.78,-187.69 228.14,-252.56 87.49,-65.21 183.85,-107.54 289.38,-127.73 105.45,-19.72 216.9,-14.13 334.13,17.3 124.16,33.31 227.33,85.2 309.16,155.12 82.17,70.46 144.08,155.12 185.47,254.92 41.93,99.53 63.53,210.03 65.75,331.3 2.56,121.87 -14.4,249.94 -50.61,385.14l-6.93 26.04c-36.41,135.6 -85.8,255.46 -148.93,359.3 -62.45,103.5 -136.28,187.96 -222.35,253.1 -85.53,64.94 -181.43,107.27 -287.69,126.85 -105.99,20.05 -221.27,13.39 -345.43,-19.85zm54.98 -205.19c120.8,32.37 226.39,28.67 317.24,-11.44 90.24,-39.84 167.77,-109.16 231.7,-207.68 63.86,-98.59 114.88,-218.92 153.03,-361.45l7.67 -28.53c37.96,-141.59 53.37,-270.94 46.5,-387.16 -6.66,-116.49 -39.17,-215.28 -98.12,-295.57 -58.41,-80.55 -147.72,-136.55 -266.76,-168.44 -109.16,-29.27 -209.9,-23.76 -301.56,16.62 -92.26,40.65 -172.41,109.22 -239.85,205.46 -67.9,96.57 -120.8,215.48 -158.48,356.27l-7.67 28.53c-37.96,141.66 -51.68,271.54 -41.45,389.92 9.96,118.31 45.09,217.84 104.78,298.73 59.36,80.35 143.75,135.47 252.97,164.74z"/>
    <path id="3" class="fil9" d="M23397.67 15387.07c-168.11,-45.02 -303.44,-123.35 -405.93,-233.99 -102.36,-111.11 -168.17,-244.49 -197.65,-400.48 -29.95,-156.13 -20.39,-325.04 28.33,-506.81l8.01 -29.81c49.13,-183.45 125.78,-334.87 229.68,-454.72 103.91,-119.79 224.57,-203.17 362.12,-249 137.29,-46.5 280.36,-49.73 428.41,-10.09 141.59,37.96 257.54,86.34 347.25,145.7 89.91,58.75 162.72,124.97 217.91,198.66l-98.39 367.37 -202.23 -54.24 44.15 -270.73c-33.38,-37.28 -78.27,-71.27 -133.45,-100.68 -55.59,-29.54 -123.83,-55.12 -204.38,-76.72 -104.11,-27.86 -206,-23.15 -305.26,14.67 -99.26,37.48 -187.76,103.37 -264.61,197.52 -76.92,94.15 -134.73,212.59 -173.09,355.93l-8.75 32.44c-38.83,145.02 -50.54,277.26 -34.66,397.19 15.48,119.86 58.35,220.94 128.07,303.64 69.85,82.3 165.95,139.98 288.43,172.82 83.58,22.41 155.93,34.05 216.96,34.86 61.44,0.87 117.37,-4.71 168.04,-16.29l114.4 -427 -345.23 -105.72 48.59 -181.3 594.7 159.36 -188.77 704.66c-65.68,34.99 -153.17,59.62 -261.85,74.36 -108.68,14.81 -242.54,0.87 -400.82,-41.59z"/>
   </g>
  </g>
  <polygon class="fil10" points="15524.96,27774.38 51548.24,34126.26 48326.55,52397.26 12303.26,46045.39 "/>
  <rect class="fil4" transform="matrix(0.896188 0.158022 -0.16012 0.908085 14921.7 26763)" width="40196.16" height="20120.39"/>
  <g id="_1423915219776">
   <path class="fil6" d="M19177.69 34806.36l-352.23 -62.11 60.63 -343.89 -35.6 -6.26 -60.63 343.82 -299.54 -52.76 60.63 -343.89 -35.6 -6.26 -60.63 343.82 -297.05 -52.36 60.63 -343.89 -35.67 -6.26 -60.63 343.89 -301.83 -53.23 60.63 -343.89 -35.67 -6.33 -60.63 343.89 -297.05 -52.36 60.63 -343.89 -35.67 -6.26 -60.63 343.82 -33.78 -5.92 -168.98 -463.94 26.65 -36.95 1983.3 350.08 -81.29 461.12zm-1304.48 -915.1l360.71 183.11 383.93 -94.28 507.48 301.89 -1709.61 -301.42 457.48 -89.3zm3360.19 -637.84l201.42 35.47 -35.53 201.42 -201.42 -35.47 35.53 -201.42zm-346.44 -61.11l201.49 35.53 -35.53 201.42 -201.42 -35.53 35.47 -201.42zm-338.37 -59.69l201.42 35.53 -35.47 201.42 -201.49 -35.53 35.53 -201.42zm-1425.41 2884.61l137.96 24.29c-56.46,-3.16 -89.98,-1.82 -143.75,8.48l5.79 -32.77zm-80.69 216.49c-173.89,66.62 -354.72,31.36 -496.38,-87.55 -150.21,-125.98 -365.42,-162.86 -541.54,-95.49l-30.15 -82.91c176.92,-65.28 449.21,-35.06 626.06,108.89 132.24,107.61 248.8,134.39 411.86,74.16 196.78,-72.61 468.12,-23.82 628.42,110.7 114.14,95.76 232.64,137.55 409.57,72.21 176.92,-65.28 453.85,-35.67 628.55,110.91l-56.8 67.63c-150.21,-126.05 -365.49,-162.99 -541.67,-95.56 -173.69,66.49 -354.65,31.43 -496.25,-87.35 -150.21,-126.05 -365.49,-162.99 -541.67,-95.63zm45.96 126.11c-214,73.82 -457.01,42.94 -628.55,-110.84 -111.17,-99.67 -269.12,-120.66 -409.43,-72.21l-26.45 -72.75c171.34,-58.48 348.19,-37.01 485.68,85.8 149.47,133.38 374.24,158.01 552.24,97.24 173.29,-59.15 344.36,-32.91 485.55,85.6 153.57,128.74 374.24,158.15 552.37,97.38 178.2,-60.84 349.81,-28.33 485.75,85.67l-49.73 59.36c-114.4,-96.03 -269.19,-120.73 -409.5,-72.34 -215.48,74.36 -453.78,35.87 -628.42,-110.64 -114.47,-96.03 -269.12,-120.66 -409.5,-72.28zm901.37 -77.73c-200.28,-649.95 -260.17,-1040.54 -107.2,-1891.85 132.24,-155.79 448.33,-352.64 734.34,-467.98 295.77,-99.8 629.7,-182.44 961.81,-220.2l418.59 1150.03 -1291.56 1539.21c-93.68,-69.05 -204.38,-118.17 -326.79,-139.78 -135.06,-23.82 -268.11,-11.24 -389.18,30.55zm1362.22 -3205.34l29.48 80.89 -918.6 -161.98 -202.97 1005.28c-31.76,19.38 -61.98,39.3 -90.58,59.76l230.42 -1151.85 952.25 167.91zm-778.89 -591l428.14 75.51 23.76 373.97 -525.59 -92.67 73.69 -356.81zm513.54 102.16l90.24 15.95 18.64 51.28 -103.77 -18.3 -5.11 -48.92zm-1665.39 3481.87l447.73 78.94 17.83 52.22 -293.68 -51.82c-52.36,-33.78 -110.03,-60.7 -171.88,-79.34zm-76.25 -1730.47l8.88 -47.44 443.15 78.13c-2.83,15.95 -5.52,31.76 -8.21,47.58l-443.82 -78.27zm-1844.67 -619.6l35.87 -42.73 2534.67 446.99c-18.3,12.52 -37.01,25.57 -55.79,39.17l-2514.75 -443.42zm227.13 -270.6l35.87 -42.73 2370.19 417.91 -9.56 47.38 -2396.51 -422.56zm239.04 -284.93l35.87 -42.73 2194.82 387.02 -9.56 47.38 -2221.13 -391.67zm251.02 -299.13l35.87 -42.73 2010.69 354.52 -9.56 47.38 -2037.01 -359.16zm262.93 -313.4l35.87 -42.73 1817.75 320.53 -9.56 47.38 -1844.07 -325.18zm274.91 -327.6l35.87 -42.73 1692.24 298.39 -12.25 46.91 -1715.87 -302.57zm393.62 3634.23l673.78 118.78c4.31,17.16 8.75,34.25 13.32,51.41l-695.44 -122.61 8.34 -47.58zm30.75 -174.43l601.9 106.06c3.23,16.96 6.6,33.92 10.09,50.88l-620.34 -109.42 8.34 -47.51zm33.58 -190.32l536.36 94.55c2.15,16.76 4.37,33.51 6.8,50.2l-551.56 -97.24 8.41 -47.51zm36.34 -206.2l479.76 84.59c1.01,16.56 2.15,33.11 3.43,49.67l-491.54 -86.68 8.34 -47.58zm39.17 -222.01l434 76.52c-0.07,16.35 0,32.71 0.13,49.06l-442.54 -78 8.41 -47.58zm-23.96 -249.54l466.57 82.3c-1.08,16.15 -2.09,32.37 -2.96,48.52l-471.95 -83.25 8.34 -47.58zm44.75 -253.71l446.51 78.67c-2.02,16.08 -3.97,32.1 -5.79,48.05l-449.07 -79.14 8.34 -47.58zm-1372.99 1343.85l-274.57 -754.33 -152.23 -418.32 1705.91 300.82 -181.57 1029.37 -38.02 13.73c-58.75,21.2 -121.2,37.96 -187.49,26.25 -44.89,-7.87 -85.74,-25.24 -120.93,-49.53 -105.52,-90.11 -234.53,-150.54 -371.68,-174.7 -131.36,-23.15 -260.91,-12.11 -379.42,26.72z"/>
   <circle class="fil7" transform="matrix(0.457826 0.080727 -0.080727 0.457826 18941.5 34881.7)" r="178.07"/>
   <circle class="fil7" transform="matrix(0.457826 0.080727 -0.080727 0.457826 18640.5 34828.6)" r="178.07"/>
   <circle class="fil7" transform="matrix(0.457826 0.080727 -0.080727 0.457826 17617.2 34648.2)" r="178.07"/>
   <ellipse class="fil8" transform="matrix(0.405945 0.00468856 -0.00468856 0.405945 21570.9 34790.2)" rx="274.5" ry="415.49"/>
   <path class="fil9" d="M22112.77 36926.61l28.33 -160.5 140.78 5.11 943.84 -1560.61 215.35 37.96 341.33 1787.27 133.25 43.14 -28.33 160.5 -532.38 -93.81 28.33 -160.57 144.35 0.4 -62.05 -363 -742.89 -131.03 -186.28 319.26 135.74 48.99 -28.33 160.5 -531.04 -93.61zm724.85 -631.45l588.44 103.77 -139.64 -802.24 -7.87 -44.42 -7.87 -1.41 -22.61 39.1 -410.44 705.2z"/>
   <path id="1" class="fil9" d="M24424.08 37334.16l28.33 -160.5 214.21 1.01 257.54 -1461.01 -201.55 -72.28 28.26 -160.5 826.88 145.76c134.8,23.76 245.63,63.93 331.17,120.8 85.94,56.87 146.57,127.59 181.36,212.66 34.79,84.66 42.73,182.44 23.22,292.94 -19.18,108.68 -58.82,195.97 -119.18,261.45 -59.96,65.21 -136.81,109.56 -230.02,132.17 -93.27,22.54 -199.4,24.5 -319.05,6.06l-416.23 -65.75 -111.44 631.92 201.15 72.28 -28.33 160.5 -666.31 -117.5zm1224.4 215.89l-249.54 -998.75 251.49 41.66 211.98 801.5 124.23 45.69 -28.94 164.41 -309.23 -54.51zm-584.67 -1160.6l342.34 60.37c140.52,24.77 246.91,16.22 319.79,-26.04 73.42,-42.33 118.98,-114.94 137.08,-217.64 17.23,-97.85 0.4,-180.22 -50.94,-247.92 -51.28,-67.84 -140.65,-112.79 -268.92,-135.4l-367.98 -64.87 -111.38 631.51z"/>
   <path id="2" class="fil9" d="M27313.06 37871.39c-171.4,-30.22 -313.06,-96.5 -424.78,-197.79 -111.65,-101.75 -188.77,-228.88 -231.84,-381.71 -43.41,-152.97 -48.59,-322.02 -15.88,-507.35l5.32 -30.42c32.98,-187.02 96.17,-344.56 189.24,-473.03 93.07,-128.33 206,-221.94 339.04,-279.62 132.71,-58.28 274.97,-73.96 425.85,-47.38 144.42,25.51 264.14,63.6 358.69,114.88 94.62,50.67 172.95,110.3 234.39,178.94l-66.02 374.51 -206.2 -36.34 20.39 -273.56c-36.47,-34.25 -84.19,-64.2 -141.73,-88.7 -57.94,-24.56 -128.13,-44.15 -210.3,-58.62 -106.13,-18.71 -207.21,-5.11 -302.84,41.25 -95.56,45.96 -178,119.32 -246.37,219.79 -68.37,100.47 -115.68,223.56 -141.39,369.66l-5.85 33.11c-26.04,147.85 -26.18,280.63 0.07,398.67 25.84,118.04 77.39,215.01 154.04,291.33 76.79,75.91 177.53,125.04 302.36,147.04 85.26,15.01 158.28,20.32 219.19,15.81 61.31,-4.51 116.56,-14.94 166.02,-30.89l76.79 -435.34 -353.17 -75.24 32.57 -184.86 606.34 106.93 -126.65 718.46c-62.38,40.58 -147.38,72.68 -254.38,96.91 -106.93,24.16 -241.53,22.01 -402.91,-6.46z"/>
   <path id="3" class="fil9" d="M29371.87 38261.31c-119.59,-21.06 -222.95,-63.06 -310.1,-126.05 -87.22,-62.45 -156.6,-141.46 -208.49,-236.75 -51.75,-95.63 -85.13,-203.77 -100.2,-324.37 -15.01,-121.07 -10.5,-250.75 13.86,-389.11l4.71 -26.51c24.29,-137.82 64.34,-260.77 119.92,-369.93 55.52,-108.55 123.89,-199.2 205.26,-271.41 81.5,-72.61 173.76,-123.22 277.13,-152.49 103.37,-28.8 214.88,-32.98 334.4,-11.84 126.59,22.28 233.86,65.01 321.54,127.53 87.96,62.99 157,142 206.94,237.83 50.47,95.43 81.63,203.64 94.35,324.24 13.26,121.27 7.47,250.28 -16.82,388.17l-4.64 26.45c-24.43,138.36 -63.26,261.99 -117.03,370.94 -53.16,108.62 -119.38,199.13 -199.4,271.54 -79.61,72.14 -171.47,122.68 -275.58,151.42 -103.84,29.27 -219.25,32.71 -345.84,10.36zm36.88 -209.23c123.15,21.74 228.07,8.82 315.02,-39.03 86.41,-47.58 157.61,-123.35 212.73,-227.06 55.05,-103.84 95.36,-228.14 121,-373.36l5.11 -29.14c25.44,-144.42 29.54,-274.64 12.58,-389.72 -16.76,-115.55 -57.81,-211.11 -123.56,-285.94 -65.21,-75.17 -159.02,-123.15 -280.36,-144.55 -111.38,-19.58 -211.18,-5.38 -299,42.8 -88.36,48.59 -162.19,123.89 -221,225.65 -59.22,102.09 -101.55,225.17 -126.85,368.72l-5.11 29.07c-25.51,144.42 -27.86,275.04 -7.34,392.07 20.26,117.03 63.86,213.06 130.35,288.5 66.15,74.83 155.12,122.35 266.43,142z"/>
  </g>
  <g id="_1423915194192">
   <polygon class="fil1" points="22601.82,52817.53 54893.97,52817.53 57037.37,56989.86 57037.37,57030.31 57037.37,63947.2 57030.1,63947.2 57030.1,75799.58 20451.08,75799.58 20451.08,57797.89 20458.35,57797.89 20458.35,57030.31 20458.35,56989.86 "/>
   <polygon class="fil11" points="21928.18,52327.61 54220.33,52327.61 56363.73,56499.94 56363.73,56540.39 56363.73,63457.28 19784.71,63457.28 19784.71,56540.39 19784.71,56499.94 "/>
   <polygon class="fil12 str0" style="mask:url(#id0)" points="21647.55,59860.61 21647.55,58159.28 54722.7,58159.28 54722.7,59860.61 "/>
   <polygon class="fil12 str0" style="mask:url(#id2)" points="20344.75,56731.71 21874.54,55987.21 24077.97,60514.39 22185.79,60514.39 "/>
   <polygon class="fil12 str0" style="mask:url(#id4)" points="55806.04,56746.92 54276.25,56002.42 52072.89,60529.6 53965.07,60529.6 "/>
   <polygon class="fil13" points="19788.75,56377.33 56347.58,56377.33 56347.58,59739.54 19788.75,59739.54 "/>
   <polygon class="fil4" points="19784.71,56517.37 20615.49,56517.37 21077.14,57409.52 22045.21,59280.24 22045.21,59292.22 38777.81,59292.22 39391.56,59292.22 54103.23,59292.22 54103.23,59280.24 55071.23,57409.52 55532.89,56517.37 56363.73,56517.37 56363.73,75070.28 19784.71,75070.28 "/>
  </g>
  <path class="fil11" d="M13811.05 52267.71l2094.48 0c326.86,0 593.42,266.56 593.42,593.42l0 2074.89c0,326.86 -266.56,593.42 -593.42,593.42l-2094.48 0 0 -3261.74zm-11178.4 56.13l7526.6 0c280.22,0 508.83,228.54 508.83,508.76l0 2216.22c0,280.22 -228.61,508.76 -508.83,508.76l-7526.6 0 0 -3233.74z"/>
  <g id="_1423954125664">
   <polygon class="fil4" points="3489.67,53293.79 3846.95,53293.79 4204.3,53293.79 4382.97,53603.22 4416.48,53661.36 4494.48,53796.43 4561.58,53912.72 4382.97,54222.15 4282.29,54396.45 4204.3,54531.58 3846.95,54531.58 3489.67,54531.58 3411.68,54396.45 3567.67,54396.45 3701.86,54164 3277.42,54164 3199.42,54028.94 3779.86,54028.94 3914.05,53796.43 3199.42,53796.43 3277.42,53661.36 3992.11,53661.36 4126.3,53428.92 3411.61,53428.92 "/>
   <path class="fil14" d="M4924.24 54503.51l0 -84.93 72.75 -10.16 343.42 -886.9 114 0 337.22 886.9 72.01 10.16 0 84.93 -281.7 0 0 -84.93 74.09 -12.92 -64.67 -180.69 -393.15 0 -67.03 180.69 74.36 12.92 0 84.93 -281.3 0zm314.88 -389.72l311.72 0 -144.35 -399.34 -8.08 -22.14 -4.11 0 -8.08 22.14 -147.11 399.34z"/>
   <path id="1" class="fil14" d="M6147.56 54503.51l0 -84.93 110.03 -18.91 0 -773.64 -110.03 -18.84 0 -85 437.77 0c71.4,0 131.7,10.83 180.96,32.03 49.26,21.4 86.75,52.49 112.32,92.73 25.57,40.51 38.43,90.04 38.43,148.52 0,57.54 -12.38,105.86 -37.48,144.96 -24.9,39.17 -60.3,68.64 -106.13,88.63 -45.83,20.05 -100.14,30.62 -163.19,32.03l-219.86 4.11 0 334.46 110.03 18.91 0 84.93 -352.84 0zm648.2 0l-218.45 -490.32 132.78 -1.35 181.43 392.47 68.1 12.18 0 87.01 -163.87 0zm-405.4 -542.82l181.43 0c74.09,0 128.2,-14.27 161.78,-42.53 33.85,-28.33 50.67,-69.79 50.67,-124.1 0,-51.82 -16.15,-92.53 -48.59,-122.68 -32.44,-30.15 -82.44,-45.36 -150.34,-45.36l-194.96 0 0 334.67z"/>
   <path id="2" class="fil14" d="M7679.23 54517.78c-90.72,0 -169.39,-21.2 -235.94,-63.06 -66.49,-42.13 -117.84,-100.34 -153.77,-175.17 -35.87,-74.56 -54.11,-160.91 -54.11,-258.96l0 -16.15c0,-98.93 18.24,-185.54 54.38,-259.83 36.14,-74.63 85.8,-132.64 148.66,-174.5 63.06,-41.66 134.46,-62.65 214.54,-62.65 76.45,0 141.32,8.75 194.55,26.25 53.37,17.5 98.72,41.25 136.48,70.93l0 198.19 -109.09 0 -14.33 -142.27c-22.07,-14.47 -48.99,-25.3 -80.76,-32.71 -32.03,-7.34 -69.79,-11.24 -113.46,-11.24 -56.19,0 -106.6,16.35 -151.75,48.59 -44.89,32.44 -80.29,77.53 -106.53,135.33 -26.04,57.74 -39.17,125.24 -39.17,202.56l0 17.5c0,78.27 12.25,146.64 36.14,204.85 24.16,58.01 59.42,103.37 105.66,135.33 46.3,32.24 102.43,48.39 168.51,48.39 44.89,0 82.91,-3.97 113.93,-11.78 31.09,-8.08 58.48,-18.17 82.44,-30.82l0 -230.69 -188.3 -6.66 0 -97.78 321.07 0 0 380.5c-28.26,26.45 -69.05,50.61 -121.74,72.75 -52.96,22.07 -122.01,33.11 -207.41,33.11z"/>
   <path id="3" class="fil14" d="M8771.33 54531.58c-63.53,0 -120.39,-12.18 -170.8,-36.61 -50.2,-24.16 -93,-58.48 -128.47,-102.63 -35.2,-44.42 -62.11,-96.91 -80.76,-157.68 -18.71,-60.57 -28.13,-127.53 -28.13,-200.95l0 -14.07c0,-72.95 9.42,-139.71 28.13,-200.75 18.64,-60.77 45.56,-113.46 80.76,-158.15 35.47,-44.42 78.27,-78.67 128.47,-103.1 50.41,-24.16 107.27,-36.41 170.8,-36.41 66.96,0 125.64,12.25 176.52,36.41 50.88,24.43 93.48,58.68 127.8,103.1 34.52,44.69 60.3,97.38 78,158.15 17.5,61.04 26.25,127.8 26.25,200.75l0 14.07c0,73.42 -8.75,140.38 -26.25,200.95 -17.7,60.77 -43.47,113.26 -78,157.68 -34.32,44.15 -76.92,78.47 -127.8,102.63 -50.88,24.43 -109.56,36.61 -176.52,36.61zm0 -110.7c65.14,0 117.84,-16.15 158.15,-48.59 40.04,-32.44 69.72,-77.59 88.63,-135.8 18.84,-58.21 28.26,-125.91 28.26,-202.77l0 -15.48c0,-76.38 -9.62,-143.61 -28.74,-201.15 -19.11,-57.81 -48.79,-103.17 -89.3,-135.6 -40.51,-32.71 -92.8,-48.99 -157,-48.99 -58.95,0 -108.89,16.56 -149.87,49.26 -40.98,32.91 -71.81,78 -93,135.8 -21.2,57.74 -31.76,124.77 -31.76,200.68l0 15.48c0,76.38 10.57,143.81 31.76,202.09 21.2,58.21 52.02,103.57 93,136.28 40.98,32.44 90.92,48.79 149.87,48.79z"/>
  </g>
  <ellipse class="fil11" transform="matrix(0.342993 -0.0564025 0.0564025 0.342993 4199.68 53912.7)" rx="274.5" ry="415.49"/>
 </g>
</svg>
