<?xml version="1.0" encoding="UTF-8"?>
<!DOCTYPE svg PUBLIC "-//W3C//DTD SVG 1.1//EN" "http://www.w3.org/Graphics/SVG/1.1/DTD/svg11.dtd">
<!-- Creator: CorelDRAW 2020 (64-Bit) -->
<svg xmlns="http://www.w3.org/2000/svg" xml:space="preserve" width="90mm" height="120mm" version="1.1" style="shape-rendering:geometricPrecision; text-rendering:geometricPrecision; image-rendering:optimizeQuality; fill-rule:evenodd; clip-rule:evenodd"
viewBox="0 0 4188.78 5585.04"
 xmlns:xlink="http://www.w3.org/1999/xlink"
 xmlns:xodm="http://www.corel.com/coreldraw/odm/2003">
 <defs>
  <style type="text/css">
   <![CDATA[
    .str0 {stroke:#B8DBD6;stroke-width:9.31;stroke-miterlimit:22.9256}
    .fil5 {fill:#FEFEFE}
    .fil2 {fill:white}
    .fil0 {fill:#B8DBD6}
    .fil4 {fill:#0094BF}
    .fil3 {fill:#00ADB5}
    .fil8 {fill:#B8DBD6;fill-rule:nonzero}
    .fil7 {fill:#B8DBD6;fill-rule:nonzero}
    .fil6 {fill:#00ADB5;fill-rule:nonzero}
    .fil1 {fill:gray;fill-opacity:0.431373}
   ]]>
  </style>
 </defs>
 <g id="Layer_x0020_1">
  <metadata id="CorelCorpID_0Corel-Layer"/>
  <g id="_1423832209808">
   <rect class="fil0" x="-0" y="-0" width="4188.78" height="5585.05"/>
   <polygon class="fil1" points="426.99,664.8 3042.52,435.97 3380.84,4303.02 765.31,4531.85 "/>
   <rect class="fil2" transform="matrix(0.940857 -0.0823143 0.242914 2.77652 366.684 609.373)" width="2779.94" height="1391.51"/>
   <polygon class="fil1" points="1277.17,1239.87 3892.7,1468.69 3554.37,5335.75 938.85,5106.91 "/>
   <path class="fil0 str0" d="M1358.77 1186.3l2484.17 217.33 -338.02 3863.57 -2615.53 -228.83 326.53 -3732.2c6.32,-72.26 70.6,-126.2 142.86,-119.87z"/>
   <path class="fil2 str0" d="M1358.78 1186.3l2484.16 217.33 -338.02 3863.57 -2615.53 -228.83 271.59 -3104.25c72.55,6.34 136.51,-47.33 142.86,-119.88 6.34,-72.55 -47.33,-136.51 -119.88,-142.86l31.96 -365.21c6.32,-72.25 70.61,-126.2 142.86,-119.87z"/>
   <g>
    <path class="fil3" d="M808.77 980.41l-25.57 2.24 -2.18 -24.97 -2.59 0.23 2.19 24.97 -21.74 1.9 -2.19 -24.97 -2.58 0.22 2.18 24.97 -21.57 1.88 -2.18 -24.97 -2.59 0.22 2.19 24.97 -21.92 1.92 -2.18 -24.97 -2.59 0.23 2.19 24.97 -21.57 1.89 -2.18 -24.97 -2.59 0.23 2.18 24.97 -2.45 0.21 -20.34 -29.03 1.17 -3.05 144.01 -12.58 2.93 33.48zm-107.44 -39.21l28.41 5.99 24.87 -13.67 40.79 11.5 -124.12 10.86 30.06 -14.68zm221.12 -106.65l14.62 -1.28 1.28 14.63 -14.62 1.28 -1.28 -14.63zm-25.16 2.2l14.63 -1.28 1.28 14.62 -14.62 1.28 -1.28 -14.62zm-24.57 2.15l14.63 -1.28 1.28 14.62 -14.63 1.28 -1.28 -14.62zm-45.23 226.47l10.02 -0.88c-3.97,0.83 -6.27,1.55 -9.81,3.26l-0.2 -2.38zm-1.57 16.51c-10.82,7.85 -24.01,8.76 -36.04,3.15 -12.76,-5.94 -28.36,-4.51 -39.32,3.44l-3.63 -5.19c11.05,-7.81 30.49,-10.77 45.43,-4.08 11.17,5 19.75,4.7 29.94,-2.51 12.29,-8.69 32.01,-10.35 45.63,-4 9.69,4.51 18.68,5.21 29.74,-2.6 11.05,-7.81 30.81,-10.9 45.64,-3.99l-2.68 5.74c-12.76,-5.95 -28.37,-4.51 -39.33,3.44 -10.8,7.84 -24,8.77 -36.02,3.16 -12.76,-5.95 -28.37,-4.51 -39.33,3.43zm5.52 7.89c-13.46,9.09 -30.88,11.47 -45.63,3.99 -9.56,-4.85 -20.9,-3.36 -29.73,2.6l-3.18 -4.55c10.79,-7.23 23.45,-9.03 35.26,-3.08 12.84,6.47 28.88,4.01 40.1,-3.51 10.91,-7.32 23.26,-8.68 35.25,-3.09 13.04,6.07 28.88,4.01 40.11,-3.51 11.23,-7.53 23.73,-8.46 35.27,-3.08l-2.35 5.03c-9.71,-4.53 -20.91,-3.36 -29.74,2.6 -13.56,9.16 -30.8,10.92 -45.62,4 -9.72,-4.53 -20.9,-3.36 -29.74,2.6zm61.05 -22.14c-25.96,-41.34 -37.36,-67.31 -42.58,-129.17 6.28,-13.26 24.54,-32.78 42.22,-46.09 18.65,-12.41 40.26,-24.35 62.59,-33.13l50.39 71.96 -60.95 130.7c-7.78,-3.04 -16.36,-4.39 -25.25,-3.62 -9.81,0.86 -18.8,4.2 -26.42,9.35zm34.9 -247.53l3.55 5.06 -66.7 5.83 4.6 73.47c-1.84,1.93 -3.57,3.87 -5.17,5.83l-5.42 -84.14 69.14 -6.05zm-64.98 -26.51l31.09 -2.72 8.6 25.49 -38.16 3.34 -1.52 -26.11zm37.5 -2.46l6.55 -0.57 2.24 3.21 -7.53 0.66 -1.27 -3.3zm-50.78 272.34l32.51 -2.84 2.21 3.29 -21.33 1.87c-4.26,-1.37 -8.75,-2.16 -13.39,-2.31zm-37.43 -118.56l-0.27 -3.46 32.18 -2.82c0.1,1.15 0.2,2.31 0.32,3.45l-32.23 2.82zm-139.4 -8.69l1.69 -3.63 184.04 -16.1c-1.04,1.21 -2.09,2.46 -3.14,3.75l-182.59 15.98zm10.72 -22.99l1.69 -3.63 172.09 -15.06 0.22 3.46 -174.01 15.22zm11.28 -24.19l1.69 -3.63 159.36 -13.94 0.21 3.46 -161.27 14.11zm11.84 -25.4l1.69 -3.63 145.99 -12.78 0.22 3.46 -147.9 12.94zm12.41 -26.61l1.69 -3.63 131.98 -11.55 0.21 3.46 -133.89 11.71zm12.98 -27.82l1.69 -3.63 122.87 -10.75 0.02 3.48 -124.58 10.9zm94.8 244.65l48.92 -4.28c0.61,1.11 1.24,2.21 1.88,3.31l-50.49 4.42 -0.3 -3.45zm-1.11 -12.66l43.7 -3.83c0.54,1.12 1.09,2.23 1.65,3.34l-45.04 3.94 -0.3 -3.45zm-1.21 -13.82l38.95 -3.41c0.46,1.12 0.93,2.24 1.4,3.36l-40.04 3.5 -0.3 -3.45zm-1.31 -14.97l34.83 -3.05c0.38,1.13 0.76,2.26 1.16,3.38l-35.69 3.12 -0.3 -3.45zm-1.41 -16.12l31.51 -2.76c0.3,1.14 0.61,2.27 0.93,3.4l-32.13 2.81 -0.3 -3.45zm-6.29 -16.85l33.87 -2.96c0.22,1.14 0.46,2.29 0.7,3.42l-34.27 3 -0.3 -3.45zm-1.62 -18.43l32.42 -2.83c0.16,1.15 0.33,2.29 0.5,3.43l-32.61 2.85 -0.3 -3.45zm-70.23 118.68l-33.04 -47.2 -18.33 -26.17 123.86 -10.83 6.54 74.74 -2.38 1.66c-3.68,2.56 -7.7,4.88 -12.51,5.3 -3.26,0.28 -6.41,-0.15 -9.3,-1.19 -8.99,-4.29 -19.06,-6.08 -29.01,-5.21 -9.54,0.83 -18.31,4.01 -25.81,8.9z"/>
    <circle class="fil4" transform="matrix(0.480645 -0.042051 0.042051 0.480645 793.798 990.024)" r="12.32"/>
    <circle class="fil4" transform="matrix(0.480645 -0.042051 0.042051 0.480645 771.942 991.936)" r="12.32"/>
    <circle class="fil4" transform="matrix(0.480645 -0.042051 0.042051 0.480645 697.641 998.437)" r="12.32"/>
    <ellipse class="fil5" transform="matrix(0.408211 -0.104342 0.104342 0.408211 974.396 934.839)" rx="18.98" ry="28.74"/>
    <path class="fil6" d="M1051.65 1072.89l-1.02 -11.65 9.86 -2.27 36.44 -125.76 15.63 -1.37 56.91 117.6 10.01 0.53 1.02 11.65 -38.65 3.38 -1.02 -11.65 10.02 -2.66 -11.04 -24.01 -53.94 4.72 -6.99 25.58 10.36 0.88 1.02 11.65 -38.59 3.37zm38.52 -57.24l42.73 -3.74 -24.59 -53.03 -1.37 -2.97 -0.54 0.05 -0.84 3.16 -15.39 56.52z"/>
    <path id="1" class="fil6" d="M1219.47 1058.21l-1.02 -11.65 14.87 -3.91 -9.29 -106.1 -15.32 -1.27 -1.02 -11.65 60.03 -5.25c9.82,-0.86 18.22,-0.13 25.24,2.22 7.01,2.35 12.5,6.13 16.52,11.38 3.99,5.25 6.32,11.85 7.02,19.87 0.69,7.9 -0.43,14.67 -3.38,20.34 -2.94,5.67 -7.45,10.14 -13.49,13.44 -6.07,3.3 -13.39,5.43 -22.01,6.34l-30.11 3.21 4.02 45.88 15.29 1.28 1.02 11.65 -48.38 4.24zm88.9 -7.78l-35.85 -64.64 18.2 -1.75 29.6 51.63 9.49 0.86 1.04 11.94 -22.48 1.96zm-62.09 -69.6l24.88 -2.17c10.17,-0.89 17.39,-3.5 21.69,-7.79 4.27,-4.29 6.08,-10.14 5.43,-17.63 -0.62,-7.07 -3.32,-12.5 -8.11,-16.25 -4.81,-3.71 -11.88,-5.2 -21.2,-4.38l-26.72 2.34 4.02 45.89z"/>
    <path id="2" class="fil6" d="M1429.77 1041.78c-12.47,1.09 -23.49,-0.87 -33.12,-5.82 -9.63,-4.98 -17.37,-12.35 -23.2,-22.15 -5.85,-9.83 -9.35,-21.46 -10.53,-34.88l-0.2 -2.24c-1.18,-13.55 0.27,-25.67 4.33,-36.31 4.06,-10.63 10.19,-19.18 18.31,-25.69 8.12,-6.5 17.69,-10.2 28.68,-11.17 10.45,-0.91 19.46,-0.5 27,1.27 7.51,1.76 14.04,4.43 19.58,8.06l2.38 27.22 -15 1.31 -3.63 -19.34c-3.2,-1.73 -7.03,-2.89 -11.51,-3.55 -4.44,-0.63 -9.67,-0.68 -15.67,-0.15 -7.7,0.67 -14.46,3.49 -20.22,8.48 -5.78,4.99 -10.13,11.58 -13,19.82 -2.88,8.24 -3.86,17.68 -2.94,28.29l0.21 2.4c0.94,10.7 3.43,19.94 7.41,27.64 4.02,7.7 9.36,13.47 16.09,17.3 6.77,3.86 14.67,5.39 23.73,4.6 6.16,-0.54 11.32,-1.53 15.49,-2.97 4.17,-1.48 7.8,-3.2 10.9,-5.22l-2.76 -31.61 -25.88 1.31 -1.17 -13.39 44.01 -3.85 4.57 52.17c-3.57,3.97 -8.83,7.77 -15.83,11.44 -6.96,3.67 -16.3,6.01 -28.02,7.04z"/>
    <path id="3" class="fil6" d="M1579.72 1030.57c-8.68,0.76 -16.63,-0.23 -23.84,-2.97 -7.2,-2.71 -13.49,-6.9 -18.85,-12.54 -5.36,-5.67 -9.69,-12.55 -12.98,-20.63 -3.28,-8.12 -5.38,-17.19 -6.26,-27.23l-0.17 -1.96c-0.87,-9.98 -0.38,-19.28 1.44,-27.85 1.83,-8.59 4.89,-16.14 9.19,-22.66 4.3,-6.52 9.76,-11.77 16.38,-15.69 6.63,-3.95 14.28,-6.27 22.96,-7.04 9.19,-0.8 17.42,0.13 24.69,2.87 7.24,2.71 13.5,6.93 18.77,12.61 5.24,5.69 9.44,12.6 12.57,20.76 3.13,8.13 5.13,17.21 6.01,27.19l0.17 1.95c0.88,10.04 0.48,19.34 -1.19,27.88 -1.67,8.51 -4.61,16.03 -8.79,22.54 -4.2,6.47 -9.63,11.69 -16.29,15.61 -6.69,3.96 -14.63,6.34 -23.82,7.14zm-1.33 -15.19c8.94,-0.78 15.98,-3.63 21.12,-8.56 5.14,-4.9 8.63,-11.48 10.53,-19.69 1.89,-8.22 2.37,-17.58 1.45,-28.13l-0.19 -2.15c-0.92,-10.48 -3.02,-19.56 -6.33,-27.26 -3.31,-7.7 -7.96,-13.53 -13.88,-17.53 -5.94,-3.97 -13.34,-5.58 -22.15,-4.81 -8.08,0.71 -14.71,3.55 -19.93,8.55 -5.23,4.98 -8.95,11.57 -11.13,19.75 -2.21,8.18 -2.86,17.47 -1.95,27.89l0.19 2.15c0.92,10.49 3.18,19.58 6.78,27.32 3.57,7.74 8.38,13.59 14.39,17.58 6.01,3.96 13.03,5.6 21.11,4.9z"/>
   </g>
   <polygon class="fil7" points="1677.59,750.67 1692.31,749.37 1692.61,752.71 1673.77,754.36 1671.06,723.31 1675.17,722.96 "/>
   <path id="1" class="fil7" d="M1706.29 751.96c-3.13,0.27 -5.77,-0.54 -7.91,-2.42 -2.14,-1.88 -3.36,-4.55 -3.66,-7.99l-0.07 -0.73c-0.2,-2.29 0.06,-4.37 0.77,-6.25 0.72,-1.87 1.82,-3.39 3.3,-4.55 1.48,-1.15 3.14,-1.82 4.97,-1.97 3.01,-0.27 5.42,0.53 7.26,2.36 1.84,1.83 2.92,4.59 3.24,8.28l0.15 1.65 -15.63 1.36c0.26,2.28 1.08,4.06 2.48,5.35 1.4,1.29 3.07,1.85 5.04,1.68 1.39,-0.12 2.54,-0.51 3.47,-1.16 0.91,-0.66 1.69,-1.49 2.34,-2.5l2.57 1.67c-1.68,3.15 -4.44,4.88 -8.31,5.23zm-2.3 -20.66c-1.59,0.14 -2.88,0.84 -3.86,2.1 -0.98,1.25 -1.5,2.94 -1.57,5.05l11.55 -1.01 -0.03 -0.3c-0.28,-2 -0.96,-3.51 -2.02,-4.52 -1.07,-1.01 -2.42,-1.46 -4.07,-1.32z"/>
   <path id="2" class="fil7" d="M1721.54 726.94l0.39 2.88c1.56,-2.36 3.77,-3.68 6.61,-3.93 4.88,-0.43 7.58,2.11 8.11,7.6l1.33 15.26 -3.95 0.34 -1.34 -15.28c-0.15,-1.67 -0.65,-2.87 -1.46,-3.6 -0.82,-0.73 -2.01,-1.02 -3.59,-0.88 -1.28,0.11 -2.37,0.54 -3.29,1.31 -0.9,0.77 -1.58,1.73 -2.02,2.89l1.44 16.46 -3.95 0.34 -2.02 -23.07 3.73 -0.33z"/>
   <path id="3" class="fil7" d="M1748.22 747.85l-3.95 0.34 -2.02 -23.07 3.95 -0.34 2.02 23.07zm-6.82 -28.84c-0.06,-0.64 0.09,-1.19 0.44,-1.67 0.35,-0.47 0.91,-0.74 1.68,-0.81 0.76,-0.07 1.37,0.1 1.81,0.51 0.44,0.4 0.68,0.92 0.74,1.56 0.05,0.63 -0.1,1.19 -0.47,1.65 -0.35,0.46 -0.93,0.73 -1.69,0.79 -0.77,0.07 -1.36,-0.09 -1.8,-0.49 -0.43,-0.39 -0.67,-0.9 -0.72,-1.55z"/>
   <path id="4" class="fil7" d="M1756.25 723.9l0.39 2.88c1.56,-2.36 3.77,-3.68 6.61,-3.93 4.88,-0.42 7.58,2.11 8.11,7.61l1.33 15.25 -3.95 0.34 -1.34 -15.28c-0.15,-1.66 -0.64,-2.86 -1.46,-3.6 -0.82,-0.73 -2.01,-1.02 -3.59,-0.88 -1.28,0.11 -2.37,0.55 -3.28,1.32 -0.9,0.76 -1.59,1.73 -2.02,2.89l1.44 16.46 -3.95 0.35 -2.02 -23.08 3.73 -0.33z"/>
   <path id="5" class="fil7" d="M1776.68 733.54c-0.32,-3.6 0.27,-6.54 1.75,-8.81 1.48,-2.28 3.59,-3.53 6.33,-3.77 2.82,-0.24 5.1,0.56 6.86,2.42l-0.03 -2.57 3.6 -0.32 1.97 22.52c0.26,2.98 -0.42,5.42 -2.04,7.29 -1.62,1.87 -3.92,2.95 -6.9,3.2 -1.66,0.14 -3.32,-0.07 -4.98,-0.64 -1.65,-0.57 -2.96,-1.43 -3.9,-2.59l1.84 -2.55c1.88,1.95 4.04,2.82 6.48,2.6 1.91,-0.17 3.37,-0.84 4.35,-2.02 0.97,-1.18 1.38,-2.74 1.2,-4.71l-0.17 -1.98c-1.42,1.95 -3.49,3.05 -6.23,3.3 -2.69,0.23 -4.98,-0.66 -6.84,-2.69 -1.86,-2.03 -2.96,-4.92 -3.29,-8.68zm4.01 0.1c0.23,2.61 0.94,4.61 2.13,6.01 1.2,1.39 2.76,2.01 4.67,1.84 2.49,-0.22 4.22,-1.52 5.19,-3.88l-0.93 -10.56c-1.39,-2.11 -3.3,-3.05 -5.72,-2.84 -1.92,0.17 -3.36,1.05 -4.31,2.64 -0.94,1.59 -1.29,3.85 -1.03,6.79z"/>
   <path id="6" class="fil7" d="M1812.59 722.52c-0.61,-0.05 -1.26,-0.03 -1.96,0.02 -2.58,0.22 -4.24,1.48 -4.98,3.76l1.43 16.39 -3.95 0.34 -2.02 -23.07 3.85 -0.34 0.29 2.66c1.11,-2.18 2.85,-3.37 5.24,-3.58 0.76,-0.07 1.35,-0.02 1.77,0.15l0.32 3.66z"/>
   <path id="7" class="fil7" d="M1831.32 740.58c-0.26,-0.43 -0.52,-1.22 -0.76,-2.37 -1.67,2.07 -3.78,3.21 -6.33,3.44 -2.27,0.19 -4.19,-0.29 -5.77,-1.45 -1.57,-1.16 -2.44,-2.73 -2.62,-4.7 -0.2,-2.41 0.54,-4.36 2.25,-5.85 1.71,-1.49 4.23,-2.37 7.54,-2.67l3.84 -0.34 -0.15 -1.82c-0.12,-1.38 -0.63,-2.45 -1.53,-3.2 -0.9,-0.74 -2.15,-1.05 -3.76,-0.91 -1.41,0.12 -2.56,0.58 -3.44,1.38 -0.89,0.8 -1.29,1.7 -1.21,2.72l-3.97 0.35c-0.09,-1.15 0.21,-2.3 0.94,-3.45 0.72,-1.15 1.76,-2.09 3.1,-2.84 1.35,-0.74 2.86,-1.19 4.53,-1.34 2.66,-0.23 4.81,0.25 6.43,1.45 1.62,1.2 2.56,2.96 2.83,5.29l0.93 10.63c0.19,2.11 0.61,3.78 1.25,4.98l0.04 0.34 -4.15 0.36zm-6.8 -2.41c1.23,-0.12 2.38,-0.54 3.43,-1.28 1.05,-0.73 1.78,-1.64 2.19,-2.7l-0.41 -4.74 -3.09 0.27c-4.84,0.42 -7.13,2.05 -6.88,4.88 0.1,1.24 0.6,2.17 1.49,2.8 0.89,0.62 1.97,0.89 3.27,0.77z"/>
   <path id="8" class="fil7" d="M1838.86 728.1c-0.31,-3.54 0.28,-6.46 1.77,-8.76 1.48,-2.3 3.59,-3.57 6.31,-3.81 2.69,-0.25 4.92,0.49 6.66,2.21l-1.05 -12.03 3.95 -0.34 2.87 32.76 -3.63 0.31 -0.41 -2.45c-1.41,2.08 -3.52,3.23 -6.33,3.48 -2.67,0.24 -4.94,-0.67 -6.82,-2.71 -1.88,-2.05 -2.97,-4.83 -3.28,-8.36l-0.02 -0.3zm3.98 0.11c0.23,2.62 0.95,4.63 2.15,6.02 1.21,1.39 2.77,1.99 4.68,1.83 2.5,-0.22 4.24,-1.5 5.18,-3.85l-0.93 -10.63c-1.36,-2.08 -3.28,-3.01 -5.72,-2.79 -1.94,0.17 -3.38,1.05 -4.33,2.64 -0.95,1.59 -1.29,3.86 -1.04,6.8z"/>
   <path id="9" class="fil7" d="M1878.39 730.31c-0.09,-1.08 -0.57,-1.88 -1.42,-2.39 -0.86,-0.52 -2.3,-0.91 -4.33,-1.16 -2.03,-0.25 -3.66,-0.63 -4.89,-1.12 -1.22,-0.49 -2.15,-1.13 -2.78,-1.9 -0.64,-0.78 -1,-1.74 -1.11,-2.87 -0.16,-1.9 0.5,-3.57 1.98,-5.02 1.48,-1.45 3.47,-2.28 5.96,-2.5 2.62,-0.23 4.8,0.26 6.55,1.47 1.74,1.21 2.71,2.86 2.9,4.97l-3.97 0.34c-0.1,-1.08 -0.64,-1.97 -1.63,-2.67 -0.98,-0.7 -2.17,-1 -3.57,-0.87 -1.43,0.13 -2.53,0.54 -3.29,1.24 -0.75,0.7 -1.09,1.55 -1,2.57 0.08,0.95 0.52,1.64 1.32,2.06 0.8,0.41 2.2,0.75 4.21,1.03 2.01,0.27 3.65,0.66 4.93,1.16 1.28,0.5 2.24,1.15 2.9,1.97 0.67,0.81 1.06,1.82 1.17,3.06 0.17,2.06 -0.51,3.79 -2.05,5.18 -1.54,1.38 -3.63,2.19 -6.26,2.42 -1.84,0.16 -3.5,-0.02 -4.98,-0.55 -1.48,-0.53 -2.68,-1.35 -3.58,-2.45 -0.9,-1.1 -1.42,-2.34 -1.54,-3.7l3.95 -0.35c0.18,1.33 0.8,2.33 1.86,3.03 1.06,0.69 2.39,0.96 4.02,0.82 1.49,-0.13 2.67,-0.54 3.51,-1.22 0.85,-0.69 1.23,-1.54 1.14,-2.55z"/>
   <polygon id="10" class="fil7" points="1893.52,724.37 1891.27,727.17 1891.98,735.27 1888.03,735.62 1885.17,702.85 1889.11,702.51 1890.84,722.33 1892.74,719.61 1899.26,711.39 1904.06,710.97 1895.93,721.39 1907.12,733.95 1902.5,734.35 "/>
   <path id="11" class="fil7" d="M1914.45 733.31l-3.95 0.34 -2.02 -23.07 3.95 -0.34 2.02 23.07zm-6.82 -28.84c-0.06,-0.64 0.09,-1.2 0.44,-1.68 0.36,-0.47 0.91,-0.74 1.68,-0.81 0.77,-0.07 1.37,0.1 1.81,0.51 0.43,0.4 0.68,0.92 0.74,1.56 0.05,0.63 -0.1,1.19 -0.46,1.65 -0.36,0.46 -0.93,0.73 -1.69,0.79 -0.77,0.07 -1.36,-0.09 -1.79,-0.49 -0.43,-0.39 -0.67,-0.9 -0.73,-1.54z"/>
   <path id="12" class="fil7" d="M1927.8 726.33l3.86 -17.77 4.23 -0.37 -6.95 27.46c-1.09,3.97 -3.21,6.09 -6.34,6.36l-0.75 0 -1.5 -0.15 -0.28 -3.21 1.08 -0c1.33,-0.12 2.36,-0.48 3.05,-1.08 0.7,-0.61 1.23,-1.65 1.59,-3.13l0.67 -2.42 -10.23 -22.11 4.31 -0.37 7.27 16.8z"/>
   <path id="13" class="fil7" d="M1970.76 717.02c0.31,3.51 -0.25,6.42 -1.67,8.7 -1.42,2.29 -3.5,3.56 -6.25,3.79 -2.79,0.24 -5.08,-0.45 -6.84,-2.09l0.97 11.09 -3.95 0.34 -2.79 -31.93 3.6 -0.32 0.42 2.54c1.43,-2.13 3.57,-3.32 6.43,-3.57 2.78,-0.25 5.06,0.61 6.86,2.56 1.8,1.95 2.86,4.78 3.19,8.51l0.03 0.37zm-3.98 -0.11c-0.23,-2.61 -0.97,-4.62 -2.21,-6.03 -1.24,-1.41 -2.83,-2.04 -4.76,-1.87 -2.39,0.2 -4.09,1.43 -5.1,3.66l0.96 11.06c1.37,2.01 3.26,2.9 5.69,2.69 1.9,-0.16 3.33,-1.04 4.31,-2.65 0.99,-1.6 1.35,-3.88 1.09,-6.85z"/>
   <path id="14" class="fil7" d="M1986.2 707.34c-0.61,-0.05 -1.26,-0.04 -1.95,0.02 -2.59,0.23 -4.25,1.48 -4.98,3.77l1.43 16.39 -3.95 0.34 -2.02 -23.07 3.85 -0.34 0.29 2.66c1.11,-2.18 2.85,-3.37 5.23,-3.58 0.76,-0.07 1.36,-0.02 1.77,0.15l0.32 3.66z"/>
   <polygon id="15" class="fil7" points="1998.73,714.22 1988.32,715.13 1988.05,711.93 1998.45,711.02 "/>
   <path id="16" class="fil7" d="M2006.43 696.4l0.49 5.57 4.31 -0.37 0.27 3.07 -4.31 0.37 1.26 14.33c0.08,0.93 0.34,1.61 0.76,2.03 0.42,0.43 1.1,0.61 2.02,0.53 0.46,-0.04 1.07,-0.18 1.85,-0.42l0.28 3.17c-1.01,0.38 -2.01,0.61 -2.99,0.69 -1.76,0.15 -3.14,-0.26 -4.12,-1.25 -0.99,-0.98 -1.57,-2.46 -1.75,-4.42l-1.25 -14.3 -4.2 0.37 -0.27 -3.07 4.2 -0.37 -0.49 -5.58 3.95 -0.34z"/>
   <path id="17" class="fil7" d="M2044.01 711.46l4.31 -0.38 0.28 3.2 -4.31 0.38 0.63 7.23 -3.97 0.35 -0.63 -7.24 -14.14 1.24 -0.21 -2.31 12.03 -22.72 4.2 -0.37 1.81 20.62zm-13.62 1.19l9.65 -0.85 -1.33 -15.21 -0.4 0.9 -7.93 15.17z"/>
   <path id="18" class="fil7" d="M2068.54 709.31l4.31 -0.38 0.28 3.2 -4.31 0.38 0.63 7.23 -3.97 0.34 -0.63 -7.24 -14.14 1.24 -0.2 -2.31 12.03 -22.72 4.2 -0.37 1.8 20.61zm-13.62 1.19l9.65 -0.85 -1.33 -15.22 -0.4 0.9 -7.93 15.16z"/>
   <path id="19" class="fil7" d="M2094.79 709.31l-13.01 1.13 -2.21 8.42 -4.22 0.37 9.13 -32.09 3.59 -0.32 14.6 30.01 -4.2 0.37 -3.68 -7.89zm-12.06 -2.31l10.56 -0.92 -6.56 -14.04 -4 14.96z"/>
   <polygon id="20" class="fil7" points="2107.26,719.13 2103.87,719.42 2113.88,684.57 2117.25,684.27 "/>
   <path id="21" class="fil7" d="M2128.05 697.03l2.97 -0.26c1.86,-0.19 3.28,-0.81 4.26,-1.85 0.99,-1.04 1.41,-2.37 1.27,-4 -0.32,-3.64 -2.3,-5.3 -5.92,-4.98 -1.7,0.15 -3.02,0.76 -3.95,1.82 -0.93,1.07 -1.32,2.4 -1.18,4l-3.95 0.35c-0.21,-2.46 0.51,-4.58 2.17,-6.38 1.65,-1.78 3.87,-2.79 6.64,-3.04 2.92,-0.26 5.3,0.32 7.09,1.73 1.8,1.4 2.83,3.48 3.07,6.24 0.12,1.35 -0.2,2.69 -0.97,4.04 -0.76,1.34 -1.87,2.39 -3.33,3.14 1.75,0.4 3.15,1.18 4.19,2.35 1.04,1.18 1.64,2.67 1.8,4.47 0.24,2.79 -0.47,5.09 -2.15,6.89 -1.68,1.8 -3.98,2.82 -6.89,3.08 -2.92,0.26 -5.36,-0.33 -7.33,-1.75 -1.96,-1.41 -3.06,-3.42 -3.29,-6l3.97 -0.34c0.14,1.64 0.79,2.9 1.95,3.79 1.15,0.89 2.62,1.26 4.41,1.1 1.91,-0.16 3.32,-0.79 4.25,-1.88 0.92,-1.09 1.3,-2.56 1.13,-4.44 -0.16,-1.82 -0.83,-3.16 -2.02,-4.04 -1.2,-0.87 -2.84,-1.24 -4.93,-1.08l-2.97 0.25 -0.27 -3.2z"/>
   <polygon id="22" class="fil7" points="2171.35,679.55 2183.72,703.99 2191.65,677.77 2196.97,677.3 2199.69,708.35 2195.59,708.71 2194.53,696.62 2193.78,683.53 2185.78,709.56 2182.65,709.84 2170.28,685.66 2171.82,698.61 2172.88,710.7 2168.78,711.06 2166.07,680 "/>
   <path id="23" class="fil7" d="M2204.23 696.12c-0.2,-2.27 0.07,-4.34 0.8,-6.22 0.73,-1.89 1.85,-3.39 3.35,-4.51 1.49,-1.12 3.26,-1.77 5.3,-1.95 3.14,-0.27 5.77,0.6 7.91,2.6 2.13,2.01 3.36,4.82 3.67,8.43l0.03 0.27c0.2,2.25 -0.06,4.31 -0.76,6.17 -0.71,1.85 -1.82,3.35 -3.33,4.49 -1.51,1.14 -3.31,1.79 -5.38,1.98 -3.13,0.27 -5.75,-0.6 -7.88,-2.6 -2.14,-2.01 -3.36,-4.81 -3.68,-8.4l-0.02 -0.27zm4.01 0.13c0.22,2.56 1,4.57 2.32,6.01 1.32,1.46 2.98,2.09 4.97,1.92 2,-0.18 3.53,-1.1 4.57,-2.78 1.05,-1.68 1.44,-3.93 1.2,-6.77 -0.22,-2.54 -1,-4.54 -2.34,-6.01 -1.34,-1.47 -3.01,-2.11 -4.99,-1.95 -1.95,0.17 -3.45,1.09 -4.51,2.74 -1.06,1.66 -1.46,3.93 -1.21,6.83z"/>
   <path id="24" class="fil7" d="M2244.13 698.32c-0.09,-1.08 -0.57,-1.88 -1.42,-2.39 -0.86,-0.52 -2.3,-0.91 -4.33,-1.16 -2.04,-0.25 -3.66,-0.63 -4.89,-1.12 -1.22,-0.49 -2.15,-1.13 -2.78,-1.9 -0.64,-0.78 -1,-1.74 -1.11,-2.87 -0.16,-1.9 0.5,-3.57 1.98,-5.02 1.48,-1.45 3.47,-2.28 5.96,-2.5 2.62,-0.23 4.8,0.26 6.55,1.47 1.74,1.21 2.71,2.86 2.89,4.97l-3.97 0.34c-0.1,-1.08 -0.64,-1.97 -1.63,-2.67 -0.98,-0.7 -2.17,-1 -3.57,-0.87 -1.43,0.13 -2.53,0.54 -3.29,1.24 -0.75,0.7 -1.09,1.55 -1,2.57 0.08,0.95 0.52,1.64 1.32,2.06 0.8,0.41 2.2,0.75 4.21,1.03 2.01,0.27 3.65,0.66 4.93,1.16 1.27,0.5 2.24,1.15 2.9,1.96 0.67,0.81 1.06,1.83 1.17,3.07 0.17,2.06 -0.51,3.79 -2.05,5.18 -1.54,1.38 -3.63,2.19 -6.26,2.42 -1.84,0.16 -3.5,-0.02 -4.98,-0.55 -1.48,-0.53 -2.68,-1.35 -3.58,-2.45 -0.91,-1.1 -1.42,-2.34 -1.54,-3.7l3.95 -0.35c0.18,1.33 0.8,2.33 1.86,3.03 1.06,0.69 2.39,0.96 4.02,0.82 1.49,-0.13 2.67,-0.54 3.51,-1.22 0.85,-0.69 1.23,-1.54 1.14,-2.55z"/>
   <path id="25" class="fil7" d="M2262.76 700.05c1.41,-0.13 2.6,-0.67 3.57,-1.61 0.98,-0.96 1.47,-2.08 1.47,-3.37l3.73 -0.33c0.05,1.33 -0.3,2.63 -1.04,3.9 -0.73,1.27 -1.77,2.32 -3.11,3.15 -1.34,0.84 -2.79,1.32 -4.35,1.46 -3.15,0.27 -5.73,-0.55 -7.77,-2.49 -2.04,-1.94 -3.22,-4.73 -3.54,-8.37l-0.06 -0.67c-0.2,-2.24 0.04,-4.29 0.71,-6.11 0.67,-1.82 1.74,-3.28 3.2,-4.38 1.46,-1.1 3.24,-1.75 5.35,-1.93 2.59,-0.22 4.8,0.36 6.65,1.76 1.85,1.4 2.94,3.33 3.27,5.8l-3.73 0.32c-0.25,-1.48 -0.92,-2.65 -2.02,-3.52 -1.1,-0.87 -2.4,-1.25 -3.9,-1.11 -2,0.17 -3.5,1.03 -4.47,2.57 -0.98,1.55 -1.34,3.69 -1.1,6.42l0.07 0.75c0.23,2.67 0.96,4.67 2.18,6.01 1.22,1.34 2.85,1.92 4.88,1.75z"/>
   <path id="26" class="fil7" d="M2274.55 689.97c-0.2,-2.27 0.06,-4.34 0.8,-6.22 0.73,-1.88 1.85,-3.39 3.35,-4.51 1.49,-1.12 3.27,-1.77 5.3,-1.95 3.14,-0.27 5.77,0.59 7.91,2.6 2.13,2 3.36,4.82 3.67,8.43l0.03 0.27c0.2,2.26 -0.06,4.31 -0.76,6.17 -0.71,1.86 -1.82,3.35 -3.33,4.5 -1.51,1.13 -3.31,1.79 -5.38,1.97 -3.13,0.27 -5.75,-0.6 -7.88,-2.6 -2.14,-2.01 -3.36,-4.8 -3.67,-8.39l-0.02 -0.27zm4 0.13c0.23,2.56 1,4.57 2.32,6.01 1.32,1.46 2.99,2.09 4.97,1.92 2,-0.18 3.53,-1.1 4.57,-2.78 1.05,-1.68 1.44,-3.93 1.19,-6.77 -0.22,-2.54 -1,-4.54 -2.34,-6.01 -1.34,-1.47 -3.01,-2.11 -4.99,-1.95 -1.95,0.18 -3.45,1.09 -4.51,2.75 -1.06,1.66 -1.46,3.93 -1.21,6.82z"/>
   <polygon id="27" class="fil7" points="2321.49,692.21 2324.37,674.2 2328.32,673.85 2323.62,697.51 2320.43,697.79 2313.29,680.8 2309.36,698.75 2306.15,699.03 2297.44,676.55 2301.36,676.2 2307.42,693.08 2311.29,675.34 2314.46,675.06 "/>
   <path id="28" class="fil7" d="M2332.14 702.99l-2.37 -1.35c1.17,-1.98 1.7,-3.97 1.58,-5.95l-0.31 -3.57 3.87 -0.34 0.27 3.1c0.13,1.43 -0.1,2.91 -0.68,4.4 -0.57,1.51 -1.36,2.74 -2.35,3.7z"/>
   <path id="29" class="fil7" d="M2362.02 681.47l-7.3 0.63 1.11 12.59 -4.12 0.36 -2.71 -31.05 10.28 -0.9c3.5,-0.31 6.26,0.26 8.28,1.68 2.02,1.42 3.17,3.65 3.43,6.69 0.16,1.93 -0.2,3.66 -1.13,5.18 -0.92,1.53 -2.28,2.73 -4.08,3.6l8.46 12.56 0.01 0.26 -4.39 0.39 -7.84 -11.99zm-7.59 -2.69l6.3 -0.55c2.03,-0.18 3.6,-0.85 4.71,-2.01 1.12,-1.15 1.59,-2.62 1.43,-4.39 -0.17,-1.93 -0.87,-3.35 -2.1,-4.27 -1.24,-0.93 -2.93,-1.3 -5.1,-1.13l-6.26 0.54 1.02 11.8z"/>
   <path id="30" class="fil7" d="M2392.06 689.23c-1.37,1.94 -3.55,3.04 -6.52,3.3 -2.47,0.21 -4.4,-0.33 -5.81,-1.65 -1.41,-1.33 -2.24,-3.38 -2.51,-6.18l-1.31 -15.02 3.94 -0.34 1.31 14.93c0.31,3.5 1.88,5.12 4.72,4.87 3.02,-0.26 4.93,-1.56 5.72,-3.9l-1.47 -16.8 3.95 -0.34 2.02 23.07 -3.75 0.33 -0.29 -2.26z"/>
   <path id="31" class="fil7" d="M2415.01 683.37c-0.09,-1.08 -0.57,-1.88 -1.42,-2.39 -0.86,-0.52 -2.3,-0.91 -4.33,-1.16 -2.04,-0.25 -3.66,-0.63 -4.89,-1.12 -1.22,-0.49 -2.15,-1.13 -2.78,-1.9 -0.64,-0.78 -1.01,-1.74 -1.11,-2.87 -0.16,-1.9 0.5,-3.57 1.98,-5.02 1.48,-1.45 3.47,-2.28 5.96,-2.49 2.62,-0.23 4.8,0.26 6.55,1.47 1.74,1.21 2.71,2.87 2.89,4.97l-3.97 0.34c-0.1,-1.08 -0.64,-1.97 -1.62,-2.67 -0.98,-0.7 -2.17,-1 -3.57,-0.87 -1.43,0.13 -2.53,0.54 -3.29,1.24 -0.75,0.7 -1.09,1.55 -0.99,2.57 0.08,0.96 0.52,1.64 1.31,2.06 0.8,0.42 2.2,0.76 4.21,1.03 2.01,0.27 3.64,0.66 4.93,1.16 1.27,0.5 2.24,1.15 2.9,1.96 0.67,0.81 1.06,1.83 1.16,3.07 0.18,2.06 -0.5,3.79 -2.04,5.18 -1.54,1.38 -3.63,2.19 -6.26,2.42 -1.84,0.16 -3.5,-0.02 -4.98,-0.55 -1.48,-0.53 -2.68,-1.35 -3.58,-2.45 -0.91,-1.1 -1.42,-2.34 -1.54,-3.7l3.95 -0.35c0.18,1.33 0.8,2.33 1.86,3.03 1.06,0.69 2.39,0.96 4.02,0.82 1.48,-0.13 2.67,-0.54 3.51,-1.22 0.85,-0.69 1.23,-1.54 1.14,-2.55z"/>
   <path id="32" class="fil7" d="M2437.54 681.4c-0.09,-1.08 -0.57,-1.88 -1.42,-2.4 -0.86,-0.52 -2.29,-0.9 -4.33,-1.16 -2.03,-0.26 -3.66,-0.63 -4.89,-1.13 -1.22,-0.49 -2.15,-1.12 -2.78,-1.9 -0.64,-0.78 -1,-1.74 -1.1,-2.87 -0.16,-1.89 0.49,-3.57 1.98,-5.02 1.48,-1.45 3.47,-2.28 5.96,-2.5 2.62,-0.23 4.8,0.27 6.55,1.47 1.74,1.21 2.71,2.86 2.9,4.97l-3.97 0.34c-0.1,-1.08 -0.64,-1.96 -1.62,-2.66 -0.98,-0.71 -2.17,-1 -3.57,-0.87 -1.43,0.13 -2.53,0.54 -3.29,1.23 -0.75,0.7 -1.09,1.55 -1,2.57 0.08,0.95 0.52,1.64 1.32,2.06 0.8,0.41 2.2,0.75 4.21,1.03 2,0.27 3.64,0.66 4.92,1.16 1.28,0.49 2.24,1.15 2.9,1.96 0.67,0.81 1.06,1.83 1.17,3.07 0.18,2.06 -0.51,3.78 -2.05,5.17 -1.54,1.38 -3.63,2.19 -6.26,2.42 -1.84,0.16 -3.5,-0.02 -4.98,-0.55 -1.48,-0.52 -2.68,-1.35 -3.58,-2.45 -0.9,-1.1 -1.42,-2.34 -1.53,-3.7l3.94 -0.35c0.18,1.32 0.81,2.33 1.86,3.03 1.06,0.69 2.39,0.96 4.02,0.83 1.49,-0.13 2.67,-0.54 3.51,-1.23 0.85,-0.68 1.23,-1.54 1.14,-2.54z"/>
   <path id="33" class="fil7" d="M2451.45 686.32l-3.95 0.34 -2.02 -23.07 3.94 -0.34 2.02 23.07zm-6.82 -28.84c-0.06,-0.64 0.09,-1.19 0.44,-1.67 0.36,-0.47 0.91,-0.74 1.68,-0.81 0.76,-0.06 1.37,0.11 1.81,0.52 0.44,0.4 0.68,0.92 0.74,1.56 0.05,0.64 -0.1,1.19 -0.47,1.65 -0.35,0.47 -0.93,0.73 -1.69,0.79 -0.77,0.07 -1.36,-0.09 -1.8,-0.49 -0.43,-0.39 -0.67,-0.9 -0.73,-1.55z"/>
   <path id="34" class="fil7" d="M2472.01 684.53c-0.26,-0.44 -0.52,-1.23 -0.76,-2.37 -1.67,2.07 -3.78,3.21 -6.33,3.43 -2.27,0.2 -4.19,-0.29 -5.76,-1.44 -1.57,-1.16 -2.44,-2.73 -2.62,-4.71 -0.2,-2.41 0.54,-4.36 2.25,-5.85 1.71,-1.49 4.23,-2.37 7.54,-2.66l3.84 -0.34 -0.16 -1.82c-0.12,-1.38 -0.63,-2.45 -1.53,-3.2 -0.89,-0.74 -2.15,-1.05 -3.76,-0.9 -1.41,0.11 -2.56,0.57 -3.44,1.38 -0.89,0.8 -1.29,1.7 -1.21,2.72l-3.97 0.35c-0.1,-1.15 0.21,-2.3 0.94,-3.45 0.72,-1.14 1.76,-2.09 3.1,-2.84 1.35,-0.75 2.86,-1.2 4.53,-1.34 2.66,-0.23 4.8,0.25 6.42,1.45 1.62,1.2 2.57,2.96 2.83,5.29l0.93 10.63c0.19,2.11 0.61,3.78 1.25,4.98l0.04 0.34 -4.15 0.36zm-6.8 -2.41c1.23,-0.11 2.38,-0.54 3.43,-1.27 1.06,-0.74 1.78,-1.64 2.2,-2.71l-0.42 -4.74 -3.09 0.27c-4.84,0.42 -7.13,2.06 -6.88,4.88 0.1,1.24 0.6,2.17 1.49,2.8 0.89,0.62 1.98,0.88 3.27,0.77z"/>
   <path id="35" class="fil7" d="M2483.25 660.29l0.39 2.88c1.56,-2.36 3.77,-3.68 6.61,-3.93 4.88,-0.42 7.58,2.11 8.11,7.61l1.33 15.25 -3.94 0.35 -1.35 -15.29c-0.15,-1.66 -0.64,-2.86 -1.46,-3.59 -0.82,-0.74 -2.01,-1.02 -3.59,-0.88 -1.28,0.11 -2.37,0.55 -3.28,1.32 -0.9,0.76 -1.59,1.73 -2.02,2.89l1.44 16.46 -3.95 0.35 -2.01 -23.08 3.73 -0.33z"/>
   <polygon id="36" class="fil7" points="2532.99,665.36 2519.96,666.5 2521.16,680.23 2517.06,680.58 2514.35,649.53 2533.59,647.85 2533.87,651.19 2518.74,652.51 2519.66,663.17 2532.7,662.03 "/>
   <path id="37" class="fil7" d="M2549.77 678.16c-3.13,0.27 -5.77,-0.53 -7.91,-2.42 -2.14,-1.88 -3.36,-4.54 -3.67,-7.99l-0.06 -0.73c-0.2,-2.29 0.06,-4.37 0.77,-6.25 0.72,-1.87 1.82,-3.39 3.3,-4.54 1.48,-1.16 3.13,-1.82 4.97,-1.98 3,-0.26 5.42,0.53 7.26,2.36 1.84,1.83 2.92,4.59 3.24,8.28l0.15 1.65 -15.64 1.36c0.26,2.28 1.08,4.06 2.48,5.35 1.4,1.29 3.07,1.85 5.03,1.68 1.39,-0.12 2.55,-0.51 3.47,-1.17 0.92,-0.66 1.7,-1.49 2.34,-2.5l2.58 1.67c-1.68,3.15 -4.45,4.89 -8.31,5.23zm-2.3 -20.66c-1.59,0.14 -2.88,0.84 -3.86,2.1 -0.98,1.25 -1.5,2.94 -1.57,5.05l11.56 -1.01 -0.03 -0.3c-0.28,-1.99 -0.96,-3.51 -2.02,-4.52 -1.07,-1.01 -2.42,-1.46 -4.07,-1.32z"/>
   <path id="38" class="fil7" d="M2561.32 664.89c-0.32,-3.54 0.27,-6.46 1.77,-8.76 1.48,-2.3 3.59,-3.57 6.31,-3.81 2.69,-0.25 4.92,0.49 6.66,2.21l-1.06 -12.03 3.95 -0.34 2.87 32.76 -3.63 0.32 -0.41 -2.45c-1.4,2.08 -3.52,3.23 -6.33,3.48 -2.67,0.23 -4.94,-0.67 -6.82,-2.71 -1.88,-2.04 -2.96,-4.83 -3.28,-8.36l-0.02 -0.3zm3.98 0.11c0.23,2.62 0.95,4.63 2.15,6.01 1.21,1.39 2.77,2 4.68,1.83 2.5,-0.22 4.24,-1.49 5.18,-3.85l-0.93 -10.63c-1.36,-2.08 -3.28,-3.01 -5.72,-2.8 -1.94,0.17 -3.38,1.05 -4.33,2.64 -0.95,1.59 -1.29,3.86 -1.04,6.8z"/>
   <path id="39" class="fil7" d="M2597.56 673.98c-3.13,0.27 -5.76,-0.54 -7.9,-2.42 -2.14,-1.88 -3.36,-4.55 -3.67,-7.99l-0.07 -0.73c-0.2,-2.29 0.06,-4.37 0.78,-6.25 0.72,-1.87 1.82,-3.39 3.3,-4.55 1.48,-1.15 3.13,-1.82 4.97,-1.97 3,-0.27 5.42,0.53 7.26,2.36 1.84,1.83 2.92,4.59 3.24,8.28l0.14 1.64 -15.63 1.36c0.26,2.28 1.08,4.06 2.48,5.35 1.4,1.29 3.07,1.85 5.04,1.68 1.39,-0.12 2.55,-0.51 3.47,-1.16 0.91,-0.66 1.69,-1.49 2.34,-2.5l2.57 1.67c-1.67,3.15 -4.44,4.88 -8.31,5.23zm-2.3 -20.66c-1.59,0.14 -2.88,0.84 -3.86,2.1 -0.98,1.25 -1.5,2.94 -1.57,5.05l11.56 -1.01 -0.03 -0.3c-0.29,-2 -0.97,-3.51 -2.02,-4.52 -1.07,-1.01 -2.42,-1.46 -4.07,-1.32z"/>
   <path id="40" class="fil7" d="M2620.54 651.84c-0.61,-0.05 -1.26,-0.04 -1.96,0.02 -2.59,0.23 -4.24,1.48 -4.98,3.76l1.43 16.39 -3.95 0.34 -2.02 -23.07 3.85 -0.34 0.29 2.66c1.11,-2.18 2.85,-3.37 5.23,-3.58 0.77,-0.07 1.36,-0.02 1.78,0.15l0.32 3.66z"/>
   <path id="41" class="fil7" d="M2639.27 669.89c-0.26,-0.44 -0.52,-1.23 -0.76,-2.37 -1.67,2.07 -3.78,3.21 -6.33,3.43 -2.27,0.2 -4.19,-0.29 -5.77,-1.44 -1.57,-1.16 -2.44,-2.73 -2.62,-4.71 -0.2,-2.41 0.54,-4.36 2.25,-5.85 1.71,-1.49 4.23,-2.37 7.54,-2.66l3.84 -0.34 -0.15 -1.82c-0.12,-1.38 -0.63,-2.45 -1.53,-3.2 -0.9,-0.74 -2.15,-1.05 -3.76,-0.9 -1.41,0.11 -2.56,0.57 -3.44,1.38 -0.89,0.8 -1.29,1.7 -1.21,2.72l-3.97 0.35c-0.09,-1.16 0.21,-2.3 0.94,-3.45 0.73,-1.14 1.76,-2.09 3.11,-2.84 1.35,-0.75 2.86,-1.2 4.53,-1.34 2.66,-0.23 4.81,0.25 6.43,1.45 1.62,1.2 2.56,2.96 2.83,5.29l0.93 10.63c0.19,2.11 0.61,3.78 1.25,4.98l0.03 0.34 -4.14 0.36zm-6.8 -2.41c1.23,-0.11 2.38,-0.54 3.43,-1.27 1.05,-0.74 1.78,-1.64 2.19,-2.71l-0.41 -4.74 -3.09 0.27c-4.84,0.42 -7.13,2.05 -6.88,4.88 0.1,1.24 0.6,2.17 1.49,2.8 0.89,0.62 1.97,0.88 3.27,0.77z"/>
   <path id="42" class="fil7" d="M2651.63 639.95l0.49 5.57 4.31 -0.37 0.27 3.07 -4.31 0.37 1.26 14.33c0.08,0.93 0.34,1.61 0.76,2.03 0.42,0.44 1.09,0.61 2.02,0.53 0.46,-0.05 1.08,-0.18 1.86,-0.42l0.27 3.17c-1.01,0.37 -2.01,0.6 -2.99,0.69 -1.76,0.15 -3.15,-0.27 -4.13,-1.25 -0.99,-0.98 -1.57,-2.46 -1.74,-4.42l-1.25 -14.3 -4.21 0.37 -0.27 -3.07 4.2 -0.37 -0.49 -5.57 3.95 -0.34z"/>
   <path id="43" class="fil7" d="M2667.35 667.44l-3.95 0.34 -2.02 -23.07 3.95 -0.34 2.02 23.07zm-6.82 -28.84c-0.06,-0.64 0.09,-1.2 0.44,-1.68 0.36,-0.47 0.91,-0.74 1.68,-0.81 0.77,-0.06 1.38,0.1 1.81,0.52 0.43,0.4 0.68,0.92 0.74,1.56 0.05,0.64 -0.1,1.19 -0.46,1.65 -0.36,0.46 -0.93,0.73 -1.69,0.79 -0.77,0.07 -1.36,-0.09 -1.79,-0.48 -0.43,-0.39 -0.67,-0.91 -0.73,-1.55z"/>
   <path id="44" class="fil7" d="M2671.59 655.23c-0.2,-2.27 0.07,-4.34 0.8,-6.22 0.73,-1.88 1.85,-3.39 3.35,-4.51 1.5,-1.12 3.27,-1.77 5.3,-1.95 3.14,-0.27 5.77,0.59 7.91,2.6 2.13,2.01 3.36,4.82 3.67,8.43l0.03 0.28c0.2,2.25 -0.06,4.31 -0.76,6.17 -0.71,1.86 -1.82,3.36 -3.32,4.5 -1.51,1.13 -3.31,1.79 -5.39,1.98 -3.13,0.27 -5.75,-0.6 -7.88,-2.61 -2.14,-2 -3.36,-4.8 -3.67,-8.39l-0.02 -0.27zm4 0.13c0.23,2.56 1,4.57 2.32,6.02 1.32,1.45 2.99,2.09 4.97,1.91 2,-0.17 3.53,-1.1 4.57,-2.78 1.05,-1.68 1.44,-3.93 1.19,-6.76 -0.22,-2.54 -1,-4.54 -2.34,-6.01 -1.34,-1.47 -3,-2.11 -4.99,-1.95 -1.95,0.18 -3.45,1.09 -4.51,2.75 -1.06,1.66 -1.46,3.93 -1.21,6.82z"/>
   <path id="45" class="fil7" d="M2700.3 641.3l0.39 2.88c1.56,-2.36 3.77,-3.68 6.61,-3.93 4.88,-0.42 7.58,2.11 8.11,7.61l1.33 15.25 -3.94 0.34 -1.35 -15.28c-0.15,-1.66 -0.64,-2.86 -1.46,-3.6 -0.82,-0.73 -2.01,-1.02 -3.59,-0.88 -1.28,0.11 -2.37,0.55 -3.28,1.31 -0.9,0.77 -1.59,1.74 -2.02,2.89l1.44 16.46 -3.95 0.34 -2.01 -23.07 3.72 -0.33z"/>
   <path id="46" class="fil7" d="M2723.1 668.79l-2.37 -1.35c1.18,-1.98 1.7,-3.97 1.59,-5.95l-0.32 -3.57 3.87 -0.34 0.27 3.1c0.13,1.44 -0.1,2.91 -0.68,4.41 -0.57,1.51 -1.35,2.73 -2.35,3.7z"/>
   <polygon id="47" class="fil7" points="2754.64,659.8 2750.67,660.14 2748.37,633.84 2740.67,637.47 2740.36,633.87 2751.29,628.62 2751.91,628.57 "/>
   <path id="48" class="fil7" d="M2786.55 657.01l-20.34 1.77 -0.25 -2.81 9.7 -12.91c1.43,-1.94 2.41,-3.5 2.91,-4.69 0.5,-1.18 0.71,-2.38 0.6,-3.59 -0.14,-1.62 -0.74,-2.91 -1.82,-3.86 -1.08,-0.95 -2.42,-1.36 -4.06,-1.21 -1.95,0.17 -3.43,0.86 -4.43,2.07 -0.99,1.21 -1.39,2.81 -1.22,4.8l-3.95 0.34c-0.25,-2.86 0.47,-5.25 2.16,-7.17 1.68,-1.92 4.07,-3.02 7.15,-3.29 2.89,-0.26 5.24,0.31 7.05,1.67 1.81,1.37 2.83,3.31 3.05,5.84 0.27,3.05 -1.36,6.87 -4.89,11.44l-7.53 9.76 15.59 -1.36 0.28 3.2z"/>
   <path id="49" class="fil8" d="M2149.19 719l-2.37 -1.35c1.18,-1.98 1.7,-3.97 1.59,-5.95l-0.32 -3.57 3.87 -0.34 0.27 3.1c0.13,1.44 -0.1,2.91 -0.68,4.4 -0.57,1.51 -1.35,2.74 -2.35,3.7z"/>
   <path id="50" class="fil8" d="M2791.19 640.93l0.21 -15.63 15.92 -1.4 0.32 3.64 -12.56 1.09 -0.2 8.58c1.45,-1.03 3.14,-1.63 5.07,-1.8 2.83,-0.25 5.16,0.49 6.99,2.22 1.83,1.72 2.88,4.18 3.16,7.35 0.27,3.21 -0.37,5.8 -1.93,7.79 -1.56,1.99 -3.9,3.12 -7,3.4 -2.74,0.24 -5.05,-0.33 -6.91,-1.7 -1.87,-1.36 -3.04,-3.39 -3.51,-6.05l3.73 -0.33c0.4,1.76 1.14,3.05 2.25,3.86 1.1,0.82 2.49,1.15 4.17,1.01 1.83,-0.16 3.22,-0.91 4.15,-2.25 0.94,-1.34 1.31,-3.11 1.12,-5.32 -0.19,-2.07 -0.89,-3.7 -2.14,-4.85 -1.25,-1.16 -2.8,-1.66 -4.68,-1.48 -1.71,0.14 -3.03,0.64 -3.95,1.48l-0.97 0.94 -3.23 -0.54z"/>
   <polygon id="51" class="fil8" points="2828.23,653.36 2824.26,653.7 2821.97,627.41 2814.27,631.03 2813.95,627.43 2824.88,622.19 2825.51,622.13 "/>
   <path id="52" class="fil8" d="M2852.56 619.9l0.29 3.34 -0.73 0.06c-3.06,0.33 -5.43,1.45 -7.09,3.38 -1.67,1.93 -2.5,4.51 -2.51,7.72 1.48,-2.02 3.63,-3.15 6.46,-3.39 2.7,-0.24 4.94,0.53 6.73,2.29 1.78,1.77 2.8,4.16 3.07,7.18 0.28,3.2 -0.37,5.84 -1.94,7.92 -1.57,2.08 -3.82,3.24 -6.75,3.5 -2.97,0.26 -5.48,-0.67 -7.53,-2.8 -2.05,-2.12 -3.23,-4.98 -3.55,-8.58l-0.13 -1.52c-0.5,-5.72 0.34,-10.19 2.51,-13.43 2.17,-3.24 5.66,-5.11 10.48,-5.6l0.7 -0.06zm-3.96 14.49c-1.35,0.12 -2.56,0.63 -3.63,1.54 -1.07,0.9 -1.76,1.98 -2.09,3.23l0.12 1.44c0.22,2.54 0.98,4.55 2.27,6 1.28,1.45 2.79,2.1 4.51,1.95 1.77,-0.16 3.12,-0.93 4.01,-2.31 0.91,-1.4 1.27,-3.14 1.08,-5.25 -0.19,-2.12 -0.86,-3.79 -1.99,-5.01 -1.15,-1.22 -2.57,-1.75 -4.29,-1.6z"/>
   <polygon id="53" class="fil8" points="2881.86,619.62 2871.51,649.57 2867.38,649.94 2877.76,621.01 2860.96,622.47 2860.67,619.23 2881.66,617.4 "/>
   <path id="54" class="fil7" d="M2800.81 714.83l-2.37 -1.34c1.18,-1.98 1.7,-3.97 1.59,-5.95l-0.31 -3.57 3.87 -0.34 0.27 3.1c0.13,1.44 -0.1,2.91 -0.68,4.4 -0.57,1.51 -1.36,2.74 -2.36,3.7z"/>
   <polygon id="55" class="fil7" points="2824.23,703.19 2838.95,701.89 2839.24,705.23 2820.41,706.88 2817.69,675.83 2821.81,675.47 "/>
   <polygon id="56" class="fil7" points="2847.74,701.13 2862.46,699.83 2862.75,703.17 2843.91,704.82 2841.2,673.77 2845.32,673.42 "/>
   <path id="57" class="fil7" d="M2888.02 691.05c-0.1,3.32 -1.09,5.96 -2.97,7.93 -1.88,1.96 -4.51,3.09 -7.9,3.38 -3.67,0.32 -6.72,-0.74 -9.16,-3.17 -2.44,-2.44 -3.85,-5.86 -4.24,-10.28l-0.27 -2.99c-0.25,-2.89 0.05,-5.46 0.88,-7.74 0.84,-2.29 2.15,-4.09 3.95,-5.43 1.79,-1.35 3.93,-2.12 6.41,-2.34 3.3,-0.28 6.02,0.4 8.18,2.07 2.15,1.67 3.53,4.12 4.14,7.34l-4.11 0.36c-0.58,-2.46 -1.51,-4.19 -2.79,-5.2 -1.28,-1.01 -3,-1.42 -5.13,-1.24 -2.62,0.23 -4.58,1.38 -5.9,3.45 -1.32,2.07 -1.82,4.9 -1.5,8.48l0.26 3.01c0.3,3.38 1.24,6.01 2.82,7.88 1.58,1.88 3.64,2.7 6.17,2.48 2.27,-0.2 3.97,-0.86 5.1,-2 1.13,-1.14 1.77,-3.01 1.95,-5.61l4.12 -0.36z"/>
   <path id="58" class="fil7" d="M2699.95 710.97l-11.22 0.98 -1.57 6.59 -6.8 0.59 8.84 -32.06 5.94 -0.52 14.34 30.03 -6.8 0.6 -2.72 -6.21zm-9.95 -4.34l7.77 -0.68 -4.92 -11.28 -2.85 11.97z"/>
   <path id="59" class="fil7" d="M2722.88 703.97l-5.09 0.44 0.99 11.36 -6.4 0.56 -2.71 -31.04 11.53 -1.01c3.67,-0.33 6.57,0.25 8.7,1.71 2.14,1.47 3.34,3.69 3.6,6.67 0.18,2.12 -0.12,3.93 -0.91,5.42 -0.8,1.49 -2.08,2.75 -3.88,3.75l7.83 12.09 0.02 0.3 -6.86 0.6 -6.82 -10.84zm-5.55 -4.73l5.16 -0.46c1.61,-0.14 2.82,-0.66 3.63,-1.55 0.81,-0.9 1.15,-2.07 1.02,-3.51 -0.13,-1.47 -0.64,-2.59 -1.55,-3.35 -0.91,-0.77 -2.22,-1.08 -3.94,-0.92l-5.14 0.44 0.81 9.35z"/>
   <path id="60" class="fil7" d="M2764.48 707.83c-1.03,1.48 -2.57,2.7 -4.61,3.64 -2.04,0.94 -4.33,1.53 -6.89,1.76 -2.69,0.23 -5.1,-0.15 -7.23,-1.14 -2.13,-1 -3.84,-2.56 -5.14,-4.7 -1.3,-2.14 -2.09,-4.71 -2.38,-7.73l-0.19 -2.11c-0.27,-3.1 0.02,-5.84 0.87,-8.19 0.84,-2.36 2.2,-4.23 4.06,-5.6 1.87,-1.38 4.12,-2.18 6.76,-2.42 3.69,-0.32 6.64,0.31 8.87,1.89 2.23,1.57 3.68,4.02 4.36,7.34l-6.23 0.54c-0.44,-1.75 -1.18,-2.99 -2.22,-3.73 -1.05,-0.74 -2.42,-1.03 -4.13,-0.88 -2.17,0.19 -3.76,1.15 -4.75,2.89 -0.99,1.74 -1.36,4.23 -1.09,7.46l0.18 1.98c0.28,3.26 1.12,5.66 2.5,7.22 1.38,1.55 3.27,2.23 5.66,2.02 2.41,-0.21 4.07,-0.87 5,-1.99l-0.47 -5.38 -5.82 0.51 -0.41 -4.69 12.22 -1.07 1.09 12.4z"/>
   <path id="61" class="fil7" d="M2794.24 694.23c0.26,3.06 -0.04,5.79 -0.93,8.19 -0.87,2.4 -2.27,4.31 -4.17,5.74 -1.91,1.43 -4.16,2.26 -6.76,2.49 -2.57,0.23 -4.93,-0.19 -7.05,-1.25 -2.13,-1.07 -3.85,-2.7 -5.15,-4.9 -1.31,-2.2 -2.11,-4.79 -2.38,-7.78l-0.14 -1.54c-0.26,-3.06 0.05,-5.8 0.95,-8.22 0.9,-2.42 2.3,-4.34 4.21,-5.76 1.9,-1.43 4.14,-2.25 6.73,-2.47 2.59,-0.23 4.94,0.19 7.07,1.27 2.12,1.07 3.83,2.71 5.14,4.94 1.3,2.23 2.09,4.86 2.36,7.91l0.13 1.39zm-6.61 -0.84c-0.28,-3.25 -1.08,-5.68 -2.4,-7.27 -1.31,-1.58 -3.05,-2.29 -5.21,-2.09 -2.15,0.18 -3.74,1.16 -4.75,2.94 -1.02,1.77 -1.4,4.27 -1.13,7.5l0.13 1.51c0.27,3.16 1.08,5.58 2.39,7.22 1.32,1.64 3.08,2.37 5.26,2.18 2.15,-0.19 3.73,-1.17 4.73,-2.96 1,-1.78 1.37,-4.29 1.1,-7.52l-0.13 -1.51z"/>
   <g>
    <g>
     <path class="fil0" d="M2284.26 3198.45l-79.29 -6.93 6.77 -77.4 -8.02 -0.7 -6.77 77.4 -67.42 -5.9 6.77 -77.4 -8.01 -0.7 -6.77 77.4 -66.88 -5.85 6.77 -77.4 -8.01 -0.7 -6.77 77.4 -67.95 -5.94 6.77 -77.4 -8.02 -0.7 -6.77 77.4 -66.88 -5.85 6.77 -77.4 -8.02 -0.7 -6.77 77.4 -7.61 -0.67 -46.46 -99.57 5.2 -8.7 446.45 39.13 -9.08 103.79zm496.55 -91.74c4.7,14.05 15.34,27.84 31.26,33.21l8.61 10.26 10.26 -8.61c16.61,-2.51 29.49,-14.25 36.55,-27.27 -8.43,10.87 -21.5,17.3 -38.58,17.43l1.99 -22.74c3.55,3.94 6.38,9.92 7.92,17.02 11.4,-1.77 19.02,-6.26 26.03,-13.94 3.06,-3.36 7.57,-0.2 5.56,4.26 -6.28,13.96 -17.73,24.28 -30.7,28.87 -1.66,13.55 -8.14,23.65 -16.3,23.99 -8.91,0.37 -16.8,-11 -18.91,-26.31 -12.77,-6.56 -22.98,-19.15 -26.92,-34.69 -1.2,-4.75 3.79,-7.06 6.22,-3.23 5.27,8.31 11.58,13.9 21.49,17.63 2.2,-9.44 6.91,-16.43 12.77,-18.24l-2.29 26.2c-16.8,-3.1 -28.55,-11.7 -34.97,-23.87zm-873.26 87.96l11.42 -1 0.37 4.23 -11.42 1 -0.37 -4.23zm0.61 -6.93l11.42 -1 0.37 4.23 -11.42 1 -0.37 -4.23zm0.6 -6.86l11.42 -1 0.37 4.23 -11.43 1 -0.37 -4.24zm296.59 39.84l11.42 -1 0.37 4.23 -11.42 1 -0.37 -4.23zm0.61 -6.93l11.42 -1 0.37 4.23 -11.42 1 -0.37 -4.23zm0.6 -6.86l11.42 -1 0.37 4.23 -11.42 1 -0.37 -4.23zm-20.66 12.09l11.42 -1 0.37 4.23 -11.36 1.12 -0.43 -4.36zm0.61 -6.93l11.42 -1 0.37 4.23 -11.42 1 -0.37 -4.23zm0.6 -6.85l11.42 -1 0.37 4.23 -11.42 1 -0.37 -4.23zm522.76 -390.91l45.34 3.97 -3.97 45.34 -45.34 -3.97 3.97 -45.34zm-77.98 -6.82l45.34 3.97 -3.97 45.34 -45.34 -3.97 3.97 -45.34zm-76.17 -6.66l45.34 3.97 -3.97 45.34 -45.34 -3.97 3.97 -45.34zm-260.04 667.1l31.05 2.71c-12.58,0.4 -19.98,1.34 -31.7,4.66l0.65 -7.38zm-13.68 49.57c-37.26,18.13 -78.03,13.82 -111.74,-9.78 -35.74,-25.02 -84.16,-29.02 -121.91,-10.67l-8.29 -17.8c37.96,-17.9 98.9,-16.49 140.9,11.99 31.4,21.29 57.75,24.97 92.74,8.46 42.2,-19.92 103.3,-14.37 141.46,12.35 27.15,19.01 54.23,25.98 92.19,8.07 37.96,-17.9 99.93,-16.72 141.49,12.38l-11.28 16.1c-35.74,-25.03 -84.19,-29.04 -121.94,-10.68 -37.21,18.11 -78.01,13.86 -111.7,-9.73 -35.75,-25.04 -84.19,-29.05 -121.93,-10.69zm12.62 27.06c-46,20.51 -100.47,18.38 -141.49,-12.38 -26.57,-19.93 -62,-21.52 -92.15,-8.06l-7.27 -15.61c36.84,-16.29 76.46,-14.96 109.33,9.6 35.72,26.68 86.02,27.78 124.31,10.85 37.27,-16.48 75.7,-13.98 109.3,9.55 36.53,25.57 86.03,27.81 124.34,10.88 38.32,-16.95 76.99,-13.06 109.34,9.58l-9.87 14.11c-27.22,-19.06 -62.02,-21.53 -92.19,-8.08 -46.32,20.66 -99.9,16.76 -141.45,-12.34 -27.24,-19.07 -62,-21.53 -92.19,-8.08zm198.31 -34.72c-57,-140.2 -77.85,-225.62 -60.46,-417.31 26.3,-37.11 92.56,-86.87 153.72,-117.98 63.63,-27.86 136.04,-52.65 208.94,-67.47l115.1 246.83 -256.46 366.26c-22.12,-13.49 -47.6,-22.23 -75.15,-24.64 -30.41,-2.66 -59.67,2.7 -85.69,14.32zm239.82 -736.98l8.1 17.36 -206.78 -18.09 -25.5 226.78c-6.66,4.91 -12.98,9.91 -18.91,15.01l28.74 -259.82 214.35 18.76zm-184.13 -115.91l96.38 8.43 12.52 82.45 -118.31 -10.35 9.42 -80.53zm115.83 12.7l20.31 1.77 5.13 11.01 -23.36 -2.04 -2.08 -10.74zm-301.66 804.15l100.78 8.82 4.97 11.23 -66.12 -5.79c-12.26,-6.47 -25.56,-11.32 -39.64,-14.26zm-50.47 -382.12l1.05 -10.7 99.76 8.73c-0.32,3.58 -0.61,7.15 -0.89,10.71l-99.92 -8.74zm-420.94 -101.58l7.12 -10.17 570.57 49.92c-3.83,3.13 -7.72,6.4 -11.61,9.78l-566.08 -49.53zm45.09 -64.4l7.12 -10.17 533.54 46.68 -1.2 10.69 -539.46 -47.2zm47.47 -67.79l7.12 -10.17 494.06 43.23 -1.2 10.69 -499.98 -43.74zm49.84 -71.18l7.12 -10.17 452.61 39.6 -1.2 10.69 -458.53 -40.12zm52.22 -74.57l7.12 -10.17 409.18 35.8 -1.2 10.69 -415.1 -36.32zm54.59 -77.96l7.12 -10.17 380.92 33.33 -1.8 10.63 -386.24 -33.79zm157.74 798l151.67 13.27c1.28,3.71 2.6,7.43 3.95,11.14l-156.55 -13.7 0.94 -10.71zm3.43 -39.27l135.48 11.85c1.04,3.7 2.12,7.39 3.22,11.07l-139.64 -12.22 0.94 -10.71zm3.75 -42.84l120.73 10.56c0.8,3.68 1.62,7.34 2.48,11.01l-124.15 -10.86 0.94 -10.71zm4.06 -46.41l107.99 9.45c0.54,3.66 1.12,7.3 1.73,10.94l-110.65 -9.68 0.94 -10.71zm4.37 -49.98l97.69 8.55c0.31,3.63 0.64,7.26 0.99,10.88l-99.61 -8.72 0.94 -10.71zm-10.14 -54.85l105.02 9.19c0.07,3.61 0.17,7.22 0.29,10.82l-106.25 -9.29 0.94 -10.71zm4.99 -57.12l100.5 8.79c-0.13,3.6 -0.25,7.19 -0.34,10.77l-101.1 -8.85 0.94 -10.71zm-278.3 324.53l-75.5 -161.89 -41.86 -89.78 384 33.6 -20.27 231.71 -8.17 3.78c-12.61,5.84 -26.13,10.76 -41.05,9.45 -10.1,-0.88 -19.5,-3.93 -27.77,-8.63 -25.14,-17.93 -54.91,-28.82 -85.78,-31.52 -29.58,-2.59 -58.08,2.37 -83.59,13.27zm210.96 -252.82c3.84,0.34 6.69,3.72 6.35,7.57 -0.34,3.84 -3.73,6.69 -7.57,6.35 -3.84,-0.34 -6.69,-3.72 -6.35,-7.57 0.34,-3.84 3.72,-6.69 7.57,-6.35zm-75.78 -6.63c3.85,0.34 6.69,3.72 6.35,7.57 -0.34,3.84 -3.72,6.69 -7.57,6.35 -3.85,-0.34 -6.69,-3.72 -6.35,-7.57 0.34,-3.85 3.72,-6.69 7.57,-6.35zm12.5 -7.63l51.35 4.49c3.59,-2.4 4.91,-3.91 12.62,-3.24 7.72,0.67 18.78,10.47 17.84,21.27 -0.94,10.8 -12.57,18.6 -21.26,17.84 -8.68,-0.76 -12.11,-4.33 -15.22,-9.62l-43.97 -3.85c-3.98,4.67 -7.97,7.59 -16.66,6.83 -8.68,-0.76 -18.78,-10.46 -17.84,-21.26 0.94,-10.8 13.54,-18.52 21.26,-17.84 7.72,0.67 8.75,2.4 11.87,5.38zm-285.87 -25.01l39.31 3.44c3.58,-2.4 4.9,-3.91 12.62,-3.24 7.72,0.67 18.78,10.47 17.84,21.27 -0.94,10.8 -12.55,18.6 -21.26,17.84 -8.71,-0.76 -12.18,-4.37 -15.28,-9.71l-17.89 -1.82c-5.88,-10.64 -9.69,-17.53 -15.35,-27.77zm50.66 13.16c3.84,0.34 6.69,3.72 6.35,7.57 -0.34,3.84 -3.72,6.69 -7.57,6.35 -3.84,-0.34 -6.69,-3.72 -6.35,-7.57 0.34,-3.84 3.72,-6.69 7.57,-6.35z"/>
     <polygon class="fil0" points="1964.56,3020.47 2048.24,3054.14 2131.7,3025.73 2250.28,3082.93 1864.67,3049.19 "/>
    </g>
    <path class="fil8" d="M1954.85 3760.21l1.26 -14.42 12.51 -0.64 71.47 -145.49 19.35 1.69 44.1 155.6 12.08 2.79 -1.26 14.43 -47.85 -4.19 1.27 -14.42 12.78 -1.09 -8.3 -31.65 -66.77 -5.84 -14.02 29.7 12.43 3.29 -1.26 14.42 -47.78 -4.18zm59.27 -61.51l52.9 4.63 -18.58 -69.93 -1.03 -3.91 -0.67 -0.06 -1.7 3.67 -30.91 65.6z"/>
    <path id="1" class="fil8" d="M2162.6 3778.39l1.26 -14.43 18.97 -1.57 11.49 -131.35 -18.41 -4.84 1.27 -14.43 74.32 6.5c12.16,1.07 22.24,3.76 30.29,8.13 8.05,4.37 13.92,10.16 17.7,17.43 3.74,7.26 5.16,15.81 4.29,25.74 -0.86,9.77 -3.68,17.8 -8.49,24.08 -4.8,6.28 -11.26,10.76 -19.34,13.47 -8.12,2.72 -17.5,3.75 -28.19,3.01l-37.4 -2.56 -4.97 56.8 18.37 4.84 -1.27 14.42 -59.89 -5.24zm110.04 9.62l-29.81 -86.51 22.57 1.77 24.98 69.32 11.39 3.09 -1.29 14.78 -27.84 -2.44zm-60.73 -98.2l30.8 2.69c12.59,1.1 21.95,-0.53 28.12,-4.83 6.12,-4.31 9.6,-11.05 10.41,-20.32 0.76,-8.75 -1.36,-15.95 -6.39,-21.55 -5.07,-5.57 -13.36,-8.89 -24.9,-9.9l-33.07 -2.89 -4.97 56.8z"/>
    <path id="2" class="fil8" d="M2422.53 3803.58c-15.44,-1.35 -28.46,-6.12 -39.13,-14.22 -10.67,-8.14 -18.52,-18.79 -23.52,-31.99 -5.02,-13.24 -6.79,-28.17 -5.34,-44.78l0.24 -2.78c1.47,-16.77 5.85,-31.24 13.09,-43.33 7.25,-12.09 16.55,-21.2 27.85,-27.39 11.3,-6.18 23.76,-8.63 37.36,-7.44 12.94,1.13 23.83,3.58 32.64,7.34 8.77,3.76 16.16,8.43 22.13,14.03l-2.95 33.7 -18.57 -1.62 -0.27 -24.36c-3.53,-2.79 -7.95,-5.03 -13.27,-6.8 -5.28,-1.72 -11.64,-2.91 -19.07,-3.56 -9.54,-0.83 -18.38,1.15 -26.48,5.99 -8.11,4.85 -14.83,11.94 -20.11,21.37 -5.28,9.42 -8.51,20.73 -9.66,33.86l-0.26 2.97c-1.16,13.25 -0.1,25.04 3.1,35.29 3.24,10.25 8.51,18.43 15.89,24.55 7.42,6.17 16.72,9.74 27.93,10.72 7.62,0.67 14.13,0.57 19.53,-0.3 5.39,-0.9 10.2,-2.22 14.41,-4.02l3.43 -39.13 -31.84 -3.97 1.45 -16.58 54.5 4.77 -5.65 64.58c-5.2,4.07 -12.44,7.58 -21.76,10.55 -9.28,2.96 -21.17,3.82 -35.67,2.55z"/>
    <path id="3" class="fil8" d="M2607.75 3822.14c-10.75,-0.94 -20.22,-3.86 -28.42,-8.75 -8.21,-4.85 -14.96,-11.31 -20.29,-19.34 -5.32,-8.07 -9.11,-17.38 -11.38,-27.94 -2.26,-10.6 -2.87,-22.11 -1.78,-34.54l0.21 -2.42c1.08,-12.36 3.68,-23.59 7.75,-33.64 4.07,-10.09 9.43,-18.63 16.07,-25.66 6.64,-7.02 14.42,-12.25 23.35,-15.6 8.92,-3.4 18.76,-4.58 29.5,-3.64 11.37,1 21.21,3.9 29.48,8.8 8.24,4.86 14.96,11.36 20.16,19.41 5.17,8.06 8.81,17.39 10.86,28.01 2.07,10.58 2.56,22.08 1.48,34.44l-0.21 2.42c-1.09,12.43 -3.57,23.68 -7.45,33.73 -3.87,10.03 -9.07,18.55 -15.55,25.59 -6.52,6.99 -14.26,12.18 -23.22,15.54 -9,3.39 -19.19,4.58 -30.57,3.59zm1.65 -18.8c11.07,0.97 20.26,-0.99 27.58,-5.9 7.32,-4.87 13,-12.13 17.07,-21.75 4.07,-9.61 6.67,-20.92 7.82,-33.98l0.23 -2.66c1.14,-12.98 0.53,-24.5 -1.86,-34.59 -2.39,-10.09 -6.8,-18.2 -13.16,-24.35 -6.4,-6.12 -15.07,-9.67 -25.98,-10.63 -10.01,-0.87 -18.69,1.16 -26.14,6.14 -7.45,4.95 -13.4,12.18 -17.82,21.68 -4.45,9.5 -7.24,20.68 -8.37,33.58l-0.23 2.66c-1.14,12.98 -0.34,24.55 2.39,34.75 2.7,10.2 7.3,18.37 13.77,24.53 6.48,6.12 14.68,9.63 24.69,10.51z"/>
   </g>
  </g>
 </g>
</svg>
