<?xml version="1.0" encoding="UTF-8"?>
<!DOCTYPE svg PUBLIC "-//W3C//DTD SVG 1.1//EN" "http://www.w3.org/Graphics/SVG/1.1/DTD/svg11.dtd">
<!-- Creator: CorelDRAW 2020 (64-Bit) -->
<svg xmlns="http://www.w3.org/2000/svg" xml:space="preserve" width="90mm" height="60mm" version="1.1" style="shape-rendering:geometricPrecision; text-rendering:geometricPrecision; image-rendering:optimizeQuality; fill-rule:evenodd; clip-rule:evenodd"
viewBox="0 0 60567.09 40378.06"
 xmlns:xlink="http://www.w3.org/1999/xlink"
 xmlns:xodm="http://www.corel.com/coreldraw/odm/2003">
 <defs>
  <style type="text/css">
   <![CDATA[
    .fil8 {fill:#FEFEFE}
    .fil12 {fill:#1A1A1A}
    .fil11 {fill:#4D4D4D}
    .fil2 {fill:white}
    .fil4 {fill:#00ADB5}
    .fil0 {fill:#B8DBD6}
    .fil7 {fill:#0094BF}
    .fil6 {fill:#00ADB5}
    .fil30 {fill:black;fill-rule:nonzero}
    .fil5 {fill:white;fill-rule:nonzero}
    .fil31 {fill:#5CC9BA;fill-rule:nonzero}
    .fil29 {fill:#B8DBD6;fill-rule:nonzero}
    .fil9 {fill:#00ADB5;fill-rule:nonzero}
    .fil3 {fill:gray;fill-opacity:0.431373}
    .fil1 {fill:gray;fill-opacity:0.439216}
    .fil10 {fill:gray;fill-opacity:0.490196}
    .fil19 {fill:url(#id0)}
    .fil14 {fill:url(#id1)}
    .fil25 {fill:url(#id2)}
    .fil17 {fill:url(#id3)}
    .fil15 {fill:url(#id4)}
    .fil27 {fill:url(#id5)}
    .fil16 {fill:url(#id6)}
    .fil20 {fill:url(#id7)}
    .fil22 {fill:url(#id8)}
    .fil23 {fill:url(#id9)}
    .fil13 {fill:url(#id10)}
    .fil18 {fill:url(#id11)}
    .fil26 {fill:url(#id12)}
    .fil21 {fill:url(#id13)}
    .fil24 {fill:url(#id14)}
    .fil28 {fill:url(#id15)}
   ]]>
  </style>
  <linearGradient id="id0" gradientUnits="userSpaceOnUse" x1="7290.43" y1="19861.2" x2="9530.57" y2="19466.21">
   <stop offset="0" style="stop-opacity:1; stop-color:black"/>
   <stop offset="0.431373" style="stop-opacity:1; stop-color:#B8B8B8"/>
   <stop offset="1" style="stop-opacity:1; stop-color:black"/>
  </linearGradient>
  <linearGradient id="id1" gradientUnits="userSpaceOnUse" xlink:href="#id0" x1="5638.4" y1="10492.13" x2="7878.55" y2="10097.13">
  </linearGradient>
  <linearGradient id="id2" gradientUnits="userSpaceOnUse" xlink:href="#id0" x1="9043.32" y1="29802.36" x2="11283.46" y2="29407.36">
  </linearGradient>
  <linearGradient id="id3" gradientUnits="userSpaceOnUse" xlink:href="#id0" x1="6706.13" y1="16547.48" x2="8946.27" y2="16152.49">
  </linearGradient>
  <linearGradient id="id4" gradientUnits="userSpaceOnUse" xlink:href="#id0" x1="6121.83" y1="13233.76" x2="8361.97" y2="12838.77">
  </linearGradient>
  <linearGradient id="id5" gradientUnits="userSpaceOnUse" xlink:href="#id0" x1="9627.62" y1="33116.08" x2="11867.76" y2="32721.08">
  </linearGradient>
  <linearGradient id="id6" gradientUnits="userSpaceOnUse" xlink:href="#id0" x1="6222.7" y1="13805.85" x2="8462.84" y2="13410.85">
  </linearGradient>
  <linearGradient id="id7" gradientUnits="userSpaceOnUse" xlink:href="#id0" x1="7391.3" y1="20433.28" x2="9631.44" y2="20038.29">
  </linearGradient>
  <linearGradient id="id8" gradientUnits="userSpaceOnUse" xlink:href="#id0" x1="7975.6" y1="23747" x2="10215.74" y2="23352">
  </linearGradient>
  <linearGradient id="id9" gradientUnits="userSpaceOnUse" xlink:href="#id0" x1="8459.02" y1="26488.64" x2="10699.16" y2="26093.64">
  </linearGradient>
  <linearGradient id="id10" gradientUnits="userSpaceOnUse" xlink:href="#id0" x1="5537.53" y1="9920.05" x2="7777.67" y2="9525.05">
  </linearGradient>
  <linearGradient id="id11" gradientUnits="userSpaceOnUse" xlink:href="#id0" x1="6807" y1="17119.56" x2="9047.14" y2="16724.57">
  </linearGradient>
  <linearGradient id="id12" gradientUnits="userSpaceOnUse" xlink:href="#id0" x1="9144.19" y1="30374.44" x2="11384.33" y2="29979.44">
  </linearGradient>
  <linearGradient id="id13" gradientUnits="userSpaceOnUse" xlink:href="#id0" x1="7874.72" y1="23174.92" x2="10114.86" y2="22779.92">
  </linearGradient>
  <linearGradient id="id14" gradientUnits="userSpaceOnUse" xlink:href="#id0" x1="8559.9" y1="27060.72" x2="10800.04" y2="26665.72">
  </linearGradient>
  <linearGradient id="id15" gradientUnits="userSpaceOnUse" xlink:href="#id0" x1="9728.49" y1="33688.16" x2="11968.63" y2="33293.16">
  </linearGradient>
 </defs>
 <g id="Layer_x0020_1">
  <metadata id="CorelCorpID_0Corel-Layer"/>
  <rect class="fil0" x="-0" y="-0.02" width="60567.09" height="40378.08"/>
  <polygon class="fil1" points="33695.15,11754.25 50155.2,13194.34 49348.72,22412.45 32888.67,20972.36 "/>
  <rect class="fil2" transform="matrix(0.996195 0.0871557 -0.0871557 0.996195 33342.9 11344.2)" width="16559.24" height="9303.44"/>
  <polygon class="fil3" points="37748.44,25692.76 54208.49,27132.84 53402,36350.89 36941.95,34910.87 "/>
  <rect class="fil4" transform="matrix(0.996195 0.0871557 -0.0871557 0.996195 37404 25194)" width="16559.24" height="9303.44"/>
  <g id="_1423829596512">
   <path class="fil2" d="M44861.17 30228.49l-390.99 -34.19 33.38 -381.71 -39.5 -3.5 -33.38 381.71 -332.45 -29.07 33.38 -381.71 -39.5 -3.43 -33.38 381.71 -329.82 -28.87 33.38 -381.71 -39.5 -3.43 -33.38 381.64 -335.14 -29.27 33.45 -381.71 -39.57 -3.43 -33.38 381.64 -329.82 -28.8 33.45 -381.71 -39.57 -3.5 -33.38 381.71 -37.55 -3.3 -229.08 -490.93 25.64 -42.94 2201.55 192.94 -44.82 511.86zm2448.59 -452.44c23.15,69.32 75.64,137.29 154.18,163.73l42.46 50.61 50.54 -42.46c81.97,-12.38 145.43,-70.26 180.29,-134.46 -41.59,53.57 -105.99,85.26 -190.25,85.94l9.83 -112.12c17.5,19.45 31.43,48.92 39.03,83.92 56.26,-8.75 93.81,-30.89 128.33,-68.71 15.14,-16.56 37.35,-1.01 27.46,21 -31.02,68.84 -87.49,119.72 -151.42,142.4 -8.21,66.83 -40.18,116.63 -80.35,118.31 -43.94,1.82 -82.84,-54.24 -93.27,-129.75 -62.99,-32.3 -113.33,-94.42 -132.71,-171 -5.99,-23.42 18.64,-34.86 30.62,-15.95 26.04,40.98 57.13,68.58 106.06,86.95 10.83,-46.57 34.05,-81.03 62.92,-89.91l-11.31 129.21c-82.84,-15.28 -140.72,-57.67 -172.41,-117.7zm-4306.19 433.79l56.33 -4.91 1.82 20.86 -56.33 4.91 -1.82 -20.86zm2.96 -34.19l56.33 -4.98 1.82 20.86 -56.33 4.98 -1.82 -20.86zm2.96 -33.85l56.33 -4.91 1.82 20.86 -56.33 4.91 -1.82 -20.86zm1462.56 196.51l56.33 -4.91 1.82 20.86 -56.33 4.91 -1.82 -20.86zm2.96 -34.19l56.33 -4.91 1.82 20.79 -56.33 4.98 -1.82 -20.86zm2.96 -33.78l56.33 -4.98 1.82 20.86 -56.33 4.98 -1.82 -20.86zm-101.89 59.56l56.33 -4.91 1.82 20.86 -56.06 5.52 -2.09 -21.47zm2.96 -34.19l56.33 -4.91 1.82 20.86 -56.33 4.91 -1.82 -20.86zm2.96 -33.78l56.33 -4.91 1.82 20.86 -56.33 4.91 -1.82 -20.86zm2577.87 -1927.65l223.56 19.58 -19.58 223.56 -223.56 -19.58 19.58 -223.56zm-384.6 -33.65l223.63 19.58 -19.58 223.56 -223.56 -19.58 19.52 -223.56zm-375.58 -32.84l223.63 19.52 -19.58 223.63 -223.56 -19.58 19.52 -223.56zm-1282.27 3289.6l153.1 13.39c-62.05,1.88 -98.52,6.6 -156.33,22.95l3.23 -36.34zm-67.5 244.42c-183.72,89.44 -384.8,68.17 -551.03,-48.25 -176.25,-123.35 -415.02,-143.14 -601.16,-52.63l-40.85 -87.75c187.22,-88.29 487.7,-81.29 694.77,59.15 154.85,104.98 284.8,123.15 457.35,41.72 208.15,-98.25 509.44,-70.86 697.53,60.9 133.92,93.74 267.44,128.07 454.59,39.77 187.15,-88.29 492.75,-82.44 697.73,61.04l-55.59 79.41c-176.25,-123.42 -415.15,-143.21 -601.3,-52.69 -183.52,89.37 -384.67,68.31 -550.82,-47.98 -176.25,-123.42 -415.15,-143.21 -601.23,-52.69zm62.25 133.45c-226.86,101.15 -495.44,90.58 -697.73,-61.11 -131.03,-98.25 -305.73,-106.13 -454.46,-39.77l-35.8 -76.99c181.63,-80.29 377,-73.76 539.11,47.31 176.12,131.57 424.17,137.02 612.94,53.57 183.79,-81.29 373.3,-68.98 538.98,47.04 180.15,126.11 424.24,137.15 613.14,53.7 188.97,-83.58 379.69,-64.47 539.18,47.18l-48.72 69.58c-134.19,-94.01 -305.8,-106.19 -454.59,-39.84 -228.41,101.89 -492.61,82.64 -697.46,-60.84 -134.32,-94.08 -305.73,-106.19 -454.59,-39.84zm977.89 -171.2c-281.1,-691.34 -383.93,-1112.62 -298.12,-2057.8 129.68,-182.98 456.41,-428.41 758.03,-581.85 313.8,-137.35 670.88,-259.63 1030.31,-332.65l567.58 1217.13 -1264.64 1806.11c-109.09,-66.56 -234.73,-109.69 -370.6,-121.54 -149.94,-13.12 -294.22,13.32 -422.56,70.59zm1182.61 -3634.23l39.91 85.67 -1019.61 -89.24 -125.78 1118.34c-32.84,24.16 -64,48.86 -93.27,73.96l141.73 -1281.2 1057.03 92.47zm-907.97 -571.55l475.25 41.59 61.71 406.54 -583.46 -51.01 46.5 -397.12zm571.15 62.59l100.14 8.75 25.3 54.31 -115.21 -10.09 -10.23 -52.96zm-1487.59 3965.46l496.99 43.47 24.5 55.39 -325.99 -28.53c-60.5,-31.97 -126.05,-55.86 -195.5,-70.33zm-248.8 -1884.31l5.11 -52.83 492.01 43.07c-1.62,17.7 -3.03,35.26 -4.44,52.83l-492.68 -43.07zm-2075.77 -500.96l35.13 -50.14 2813.54 246.17c-18.84,15.48 -38.02,31.56 -57.2,48.18l-2791.47 -244.22zm222.35 -317.57l35.13 -50.14 2631.03 230.22 -5.92 52.69 -2660.24 -232.78zm234.13 -334.26l35.06 -50.14 2436.34 213.13 -5.92 52.69 -2465.48 -215.69zm245.77 -351.02l35.13 -50.14 2231.9 195.23 -5.92 52.69 -2261.1 -197.79zm257.48 -367.71l35.13 -50.14 2017.76 176.52 -5.92 52.69 -2046.97 -179.08zm269.19 -384.47l35.13 -50.14 1878.39 164.34 -8.88 52.42 -1904.63 -166.63zm777.88 3935.11l747.87 65.41c6.33,18.3 12.79,36.61 19.45,54.91l-771.96 -67.5 4.64 -52.83zm16.89 -193.68l668.12 58.48c5.11,18.24 10.43,36.41 15.88,54.58l-688.58 -60.23 4.58 -52.83zm18.51 -211.24l595.37 52.09c3.9,18.17 8.01,36.21 12.18,54.31l-612.2 -53.57 4.64 -52.83zm19.99 -228.81l532.52 46.57c2.69,18.04 5.59,36 8.55,53.97l-545.64 -47.78 4.58 -52.76zm21.6 -246.51l481.71 42.2c1.48,17.9 3.16,35.8 4.91,53.64l-491.27 -43 4.64 -52.83zm-50.07 -270.4l517.92 45.29c0.34,17.83 0.81,35.6 1.41,53.37l-523.91 -45.9 4.58 -52.76zm24.7 -281.7l495.57 43.34c-0.67,17.77 -1.21,35.47 -1.68,53.1l-498.53 -43.61 4.64 -52.83zm-1372.38 1600.32l-372.29 -798.27 -206.47 -442.68 1893.6 165.62 -100 1142.63 -40.31 18.71c-62.11,28.74 -128.87,53.03 -202.36,46.57 -49.8,-4.31 -96.17,-19.38 -136.95,-42.53 -123.96,-88.43 -270.8,-142.13 -423.03,-155.46 -145.83,-12.79 -286.35,11.71 -412.19,65.41zm1040.27 -1246.67c18.91,1.68 32.98,18.37 31.29,37.35 -1.68,18.98 -18.37,32.98 -37.35,31.29 -18.91,-1.62 -32.98,-18.37 -31.29,-37.28 1.62,-18.98 18.37,-32.98 37.35,-31.36zm-373.7 -32.71c18.98,1.68 32.98,18.37 31.36,37.35 -1.68,18.98 -18.37,32.98 -37.35,31.36 -18.98,-1.68 -32.98,-18.37 -31.36,-37.35 1.68,-18.98 18.37,-32.98 37.35,-31.36zm61.64 -37.62l253.24 22.14c17.63,-11.78 24.16,-19.25 62.25,-15.95 38.02,3.36 92.6,51.62 87.96,104.85 -4.64,53.3 -61.98,91.73 -104.85,87.96 -42.87,-3.7 -59.69,-21.33 -75.04,-47.38l-216.83 -18.98c-19.65,23.02 -39.3,37.42 -82.17,33.65 -42.8,-3.77 -92.6,-51.55 -87.96,-104.85 4.64,-53.23 66.76,-91.32 104.85,-87.96 38.02,3.3 43.14,11.78 58.55,26.51zm-1409.73 -123.29l193.88 16.96c17.7,-11.84 24.16,-19.31 62.25,-16.02 38.09,3.36 92.67,51.62 87.96,104.85 -4.64,53.3 -61.91,91.73 -104.85,88.02 -42.94,-3.77 -60.03,-21.6 -75.31,-47.92l-88.16 -9.02c-29.07,-52.42 -47.85,-86.41 -75.78,-136.88zm249.81 64.87c18.98,1.62 32.98,18.37 31.36,37.28 -1.68,18.98 -18.37,32.98 -37.35,31.36 -18.98,-1.68 -32.98,-18.37 -31.29,-37.35 1.62,-18.98 18.3,-32.98 37.28,-31.29z"/>
   <path class="fil5" d="M42712.04 33369.03l8.01 -90.99 78.8 -4.04 450.82 -917.73 122.08 10.63 278.14 981.52 76.31 17.63 -8.01 90.99 -301.89 -26.45 8.01 -90.99 80.62 -6.8 -52.36 -199.74 -421.14 -36.81 -88.5 187.35 78.47 20.79 -8.01 90.92 -301.35 -26.31zm373.9 -387.97l333.66 29.21 -117.23 -441.2 -6.53 -24.63 -4.24 -0.34 -10.7 23.08 -194.96 413.88z"/>
   <path id="1" class="fil5" d="M44022.51 33483.64l7.94 -90.92 119.65 -9.96 72.48 -828.56 -116.09 -30.55 7.94 -90.99 468.79 40.98c76.65,6.73 140.31,23.69 191.06,51.28 50.74,27.52 87.82,64.07 111.65,109.96 23.55,45.76 32.57,99.67 27.05,162.32 -5.38,61.64 -23.22,112.25 -53.5,151.89 -30.28,39.57 -71.07,67.84 -122.01,85 -51.21,17.09 -110.43,23.62 -177.87,18.98l-235.88 -16.22 -31.36 358.36 115.89 30.55 -7.94 90.92 -377.8 -33.04zm694.17 60.77l-188.03 -545.78 142.33 11.24 157.54 437.23 71.87 19.45 -8.14 93.21 -175.58 -15.34zm-383.19 -619.47l194.35 16.96c79.41,6.93 138.43,-3.3 177.39,-30.42 38.63,-27.12 60.43,-69.72 65.55,-128.2 4.85,-55.25 -8.55,-100.61 -40.24,-135.94 -31.97,-35.06 -84.32,-56.06 -157.07,-62.45l-208.62 -18.24 -31.36 358.29z"/>
   <path id="2" class="fil5" d="M45662.07 33642.53c-97.45,-8.55 -179.55,-38.56 -246.91,-89.71 -67.3,-51.35 -116.83,-118.58 -148.32,-201.82 -31.63,-83.52 -42.8,-177.66 -33.65,-282.44l1.55 -17.56c9.22,-105.79 36.81,-197.04 82.51,-273.29 45.69,-76.31 104.44,-133.79 175.64,-172.75 71.27,-38.96 149.87,-54.44 235.67,-46.91 81.7,7.13 150.41,22.54 205.93,46.3 55.32,23.69 101.95,53.16 139.64,88.5l-18.57 212.59 -117.23 -10.3 -1.68 -153.71c-22.28,-17.56 -50.07,-31.7 -83.72,-42.8 -33.31,-10.9 -73.42,-18.44 -120.19,-22.48 -60.23,-5.32 -115.95,7.27 -167.1,37.75 -51.15,30.62 -93.61,75.31 -126.92,134.8 -33.24,59.49 -53.64,130.69 -60.9,213.6l-1.62 18.78c-7.34,83.52 -0.67,157.95 19.58,222.62 20.39,64.6 53.64,116.22 100.2,154.78 46.77,38.9 105.45,61.44 176.25,67.63 48.12,4.24 89.17,3.57 123.15,-1.88 34.05,-5.72 64.34,-14 90.92,-25.37l21.6 -246.84 -200.81 -25.03 9.15 -104.58 343.75 30.08 -35.67 407.41c-32.84,25.71 -78.47,47.78 -137.22,66.49 -58.55,18.71 -133.58,24.16 -225.04,16.15z"/>
   <path id="3" class="fil5" d="M46830.34 33759.62c-67.77,-5.92 -127.53,-24.29 -179.28,-55.18 -51.75,-30.62 -94.35,-71.33 -128,-122.01 -33.58,-50.88 -57.47,-109.63 -71.74,-176.25 -14.33,-66.83 -18.17,-139.51 -11.31,-217.84l1.35 -15.41c6.8,-77.86 23.22,-148.73 48.92,-212.05 25.64,-63.66 59.42,-117.57 101.35,-161.85 41.93,-44.28 90.99,-77.32 147.25,-98.46 56.33,-21.4 118.38,-28.87 186.14,-22.95 71.74,6.26 133.79,24.56 186.01,55.52 51.95,30.62 94.35,71.6 127.12,122.41 32.64,50.88 55.52,109.76 68.58,176.72 13.06,66.76 16.15,139.3 9.29,217.23l-1.28 15.34c-6.86,78.33 -22.54,149.33 -46.97,212.79 -24.43,63.19 -57.13,116.96 -98.12,161.38 -41.12,44.08 -89.98,76.85 -146.44,97.98 -56.8,21.33 -121.13,28.94 -192.87,22.61zm10.36 -118.58c69.85,6.12 127.8,-6.26 174.03,-37.22 46.17,-30.75 81.97,-76.58 107.61,-137.22 25.71,-60.57 42.2,-131.97 49.4,-214.27l1.48 -16.82c7.13,-81.9 3.3,-154.51 -11.78,-218.18 -15.07,-63.73 -42.87,-114.88 -82.98,-153.64 -40.38,-38.56 -95.09,-61.04 -163.87,-67.03 -63.12,-5.52 -117.9,7.34 -164.88,38.76 -46.97,31.23 -84.52,76.85 -112.39,136.81 -28.06,59.89 -45.69,130.42 -52.83,211.72l-1.48 16.82c-7.13,81.9 -2.09,154.92 15.14,219.19 17.03,64.4 46.03,115.95 86.88,154.78 40.85,38.63 92.53,60.77 155.66,66.29z"/>
   <polygon class="fil2" points="43284.67,29350.88 43697.34,29516.83 44108.86,29376.79 44693.6,29658.83 42792.13,29492.47 "/>
  </g>
  <g id="_1423829567136">
   <path class="fil6" d="M34973.52 13606.6l-141.05 -12.38 12.05 -137.69 -14.27 -1.28 -12.05 137.76 -119.92 -10.5 12.05 -137.69 -14.27 -1.28 -12.05 137.69 -118.98 -10.36 12.05 -137.76 -14.2 -1.21 -12.05 137.69 -120.93 -10.57 12.05 -137.69 -14.27 -1.28 -12.05 137.69 -118.98 -10.36 12.05 -137.76 -14.27 -1.21 -12.05 137.69 -13.53 -1.21 -82.64 -177.13 9.22 -15.48 794.24 69.65 -16.15 184.66zm-545.98 -315.89l148.52 59.76 148.19 -50.41 210.57 101.55 -684.61 -59.89 177.33 -51.01zm1303.13 -367.51l80.69 7.07 -7.07 80.69 -80.69 -7.07 7.07 -80.69zm-138.7 -12.11l80.62 7.07 -7.07 80.62 -80.62 -7.07 7.07 -80.62zm-135.54 -11.84l80.69 7 -7.07 80.69 -80.69 -7.07 7.07 -80.62zm-462.6 1186.78l55.25 4.78c-22.41,0.74 -35.6,2.42 -56.39,8.34l1.14 -13.12zm-24.36 88.16c-66.29,32.24 -138.83,24.56 -198.79,-17.43 -63.6,-44.48 -149.74,-51.62 -216.9,-18.98l-14.74 -31.63c67.57,-31.83 175.98,-29.34 250.68,21.33 55.86,37.89 102.76,44.42 165.01,15.01 75.04,-35.4 183.79,-25.51 251.62,22.01 48.32,33.78 96.5,46.23 164,14.33 67.57,-31.83 177.8,-29.75 251.76,22.07l-20.12 28.6c-63.53,-44.48 -149.74,-51.62 -216.9,-18.98 -66.22,32.24 -138.77,24.63 -198.73,-17.3 -63.6,-44.55 -149.74,-51.68 -216.9,-19.04zm22.48 48.12c-81.83,36.54 -178.74,32.71 -251.76,-22.01 -47.24,-35.47 -110.23,-38.29 -163.93,-14.33l-12.92 -27.79c65.55,-28.94 136.01,-26.58 194.49,17.09 63.53,47.44 153.03,49.4 221.14,19.31 66.35,-29.34 134.66,-24.9 194.49,16.96 64.94,45.49 153.03,49.46 221.2,19.38 68.17,-30.15 136.95,-23.28 194.49,17.03l-17.56 25.1c-48.45,-33.92 -110.37,-38.29 -164,-14.4 -82.37,36.74 -177.73,29.81 -251.62,-21.94 -48.45,-33.92 -110.3,-38.29 -164,-14.4zm352.77 -61.71c-101.42,-249.47 -138.5,-401.43 -107.54,-742.42 46.77,-66.02 164.68,-154.51 273.49,-209.9 113.19,-49.53 242,-93.68 371.68,-119.99l204.78 439.04 -456.27 651.63c-39.37,-24.02 -84.66,-39.57 -133.72,-43.88 -54.04,-4.71 -106.13,4.85 -152.43,25.51zm426.66 -1311.14l14.4 30.89 -367.84 -32.17 -45.36 403.44c-11.84,8.75 -23.08,17.63 -33.65,26.72l51.08 -462.19 381.37 33.31zm-327.6 -206.2l171.47 15.01 22.28 146.71 -210.5 -18.44 16.76 -143.27zm206.06 22.61l36.14 3.16 9.15 19.58 -41.59 -3.63 -3.7 -19.11zm-536.62 1430.59l179.28 15.68 8.82 19.99 -117.63 -10.3c-21.8,-11.51 -45.43,-20.19 -70.46,-25.37zm-89.77 -679.83l1.82 -19.04 177.53 15.55c-0.61,6.39 -1.14,12.72 -1.62,19.04l-177.73 -15.55zm-748.88 -180.69l12.65 -18.1 1015.04 88.83c-6.8,5.59 -13.73,11.37 -20.66,17.36l-1007.03 -88.09zm80.22 -114.61l12.65 -18.04 949.22 83.04 -2.15 18.98 -959.72 -83.99zm84.46 -120.6l12.65 -18.04 878.96 76.85 -2.15 19.04 -889.46 -77.86zm88.63 -126.59l12.72 -18.1 805.14 70.46 -2.09 18.98 -815.77 -71.33zm92.94 -132.71l12.65 -18.1 727.95 63.73 -2.15 18.98 -738.45 -64.6zm97.11 -138.7l12.65 -18.04 677.68 59.29 -3.23 18.91 -687.1 -60.16zm280.63 1419.69l269.79 23.62c2.29,6.6 4.64,13.19 7,19.79l-278.47 -24.36 1.68 -19.04zm6.12 -69.85l240.99 21.06c1.88,6.6 3.77,13.12 5.72,19.72l-248.39 -21.74 1.68 -19.04zm6.66 -76.25l214.74 18.78c1.41,6.6 2.89,13.12 4.44,19.58l-220.87 -19.31 1.68 -19.04zm7.2 -82.57l192.13 16.82c0.94,6.53 1.95,12.99 3.03,19.45l-196.84 -17.16 1.68 -19.11zm7.81 -88.9l173.76 15.21c0.54,6.46 1.14,12.92 1.75,19.38l-177.19 -15.55 1.68 -19.04zm-18.1 -97.58l186.88 16.35c0.13,6.46 0.27,12.85 0.47,19.25l-188.97 -16.56 1.62 -19.04zm8.95 -101.62l178.74 15.68c-0.2,6.39 -0.4,12.79 -0.61,19.11l-179.82 -15.75 1.68 -19.04zm-495.17 577.41l-134.26 -288.03 -74.5 -159.7 683.13 59.76 -36.07 412.19 -14.54 6.73c-22.41,10.43 -46.5,19.18 -73.02,16.82 -17.97,-1.55 -34.66,-7 -49.4,-15.34 -44.75,-31.9 -97.71,-51.28 -152.63,-56.06 -52.63,-4.64 -103.3,4.17 -148.73,23.62z"/>
   <circle class="fil7" transform="matrix(0.183339 0.0160401 -0.0160401 0.183339 34883 13644.4)" r="178.07"/>
   <circle class="fil7" transform="matrix(0.183339 0.0160401 -0.0160401 0.183339 34762.5 13633.9)" r="178.07"/>
   <circle class="fil7" transform="matrix(0.183339 0.0160401 -0.0160401 0.183339 34352.7 13598)" r="178.07"/>
   <ellipse class="fil8" transform="matrix(0.160255 -0.0121573 0.0121573 0.160255 35916.8 13517.7)" rx="274.5" ry="415.49"/>
   <path class="fil9" d="M36204.25 14341.48l5.65 -64.27 55.72 -2.83 318.31 -648.2 86.21 7.54 196.44 693.22 53.84 12.45 -5.59 64.27 -213.2 -18.64 5.59 -64.34 57 -4.78 -37.01 -141.05 -297.45 -26.04 -62.52 132.37 55.45 14.6 -5.65 64.34 -212.79 -18.64zm264.07 -273.97l235.67 20.59 -82.84 -311.58 -4.58 -17.43 -2.96 -0.27 -7.6 16.35 -137.69 292.34z"/>
   <path id="1" class="fil9" d="M37129.85 14422.44l5.59 -64.27 84.52 -7 51.21 -585.21 -82.03 -21.53 5.65 -64.34 331.1 29c54.17,4.71 99.06,16.76 134.93,36.21 35.8,19.45 61.98,45.29 78.87,77.59 16.62,32.44 22.95,70.53 19.04,114.74 -3.84,43.54 -16.42,79.34 -37.82,107.27 -21.33,27.93 -50.14,47.85 -86.14,60.03 -36.14,12.11 -78,16.69 -125.58,13.39l-166.63 -11.44 -22.14 253.1 81.83 21.53 -5.65 64.27 -266.76 -23.35zm490.26 42.94l-132.84 -385.48 100.61 7.94 111.24 308.76 50.74 13.8 -5.72 65.82 -124.03 -10.83zm-270.6 -437.5l137.22 11.98c56.06,4.91 97.78,-2.36 125.24,-21.53 27.39,-19.18 42.73,-49.19 46.37,-90.51 3.43,-39.03 -6.06,-71.07 -28.4,-96.03 -22.61,-24.83 -59.56,-39.64 -110.91,-44.08l-147.38 -12.92 -22.14 253.1z"/>
   <path id="2" class="fil9" d="M38287.89 14534.62c-68.78,-5.99 -126.79,-27.19 -174.37,-63.33 -47.58,-36.27 -82.51,-83.72 -104.78,-142.53 -22.34,-59.02 -30.28,-125.51 -23.76,-199.53l1.08 -12.32c6.53,-74.77 25.98,-139.17 58.28,-193.07 32.3,-53.9 73.76,-94.42 124.03,-122.01 50.41,-27.52 105.93,-38.49 166.49,-33.18 57.67,5.05 106.19,15.95 145.43,32.71 39.1,16.82 72.07,37.62 98.66,62.59l-13.12 150.07 -82.78 -7.27 -1.21 -108.48c-15.75,-12.45 -35.4,-22.41 -59.09,-30.35 -23.62,-7.67 -51.89,-12.85 -85,-15.81 -42.53,-3.7 -81.9,5.11 -118.04,26.72 -36.07,21.6 -66.02,53.23 -89.57,95.22 -23.49,41.99 -37.89,92.33 -43,150.81l-1.14 13.26c-5.18,59.02 -0.54,111.51 13.8,157.21 14.4,45.69 37.89,82.1 70.8,109.36 33.04,27.52 74.43,43.41 124.5,47.78 33.92,2.96 62.92,2.56 86.95,-1.35 24.09,-4.04 45.49,-9.89 64.2,-17.9l15.28 -174.3 -141.79 -17.7 6.46 -73.89 242.74 21.27 -25.17 287.76c-23.15,18.17 -55.39,33.78 -96.97,46.97 -41.32,13.19 -94.28,17.03 -158.89,11.31z"/>
   <path id="3" class="fil9" d="M39113.01 14617.4c-47.85,-4.17 -90.11,-17.23 -126.59,-38.96 -36.54,-21.67 -66.69,-50.47 -90.45,-86.21 -23.69,-35.94 -40.58,-77.39 -50.67,-124.5 -10.09,-47.24 -12.79,-98.52 -7.94,-153.91l0.94 -10.77c4.85,-55.05 16.35,-105.12 34.52,-149.87 18.17,-44.89 41.99,-82.98 71.6,-114.34 29.61,-31.23 64.27,-54.58 103.97,-69.45 39.77,-15.14 83.65,-20.46 131.5,-16.29 50.67,4.44 94.48,17.43 131.36,39.3 36.74,21.53 66.69,50.54 89.84,86.41 23.02,35.94 39.17,77.53 48.45,124.84 9.15,47.11 11.37,98.39 6.53,153.44l-0.94 10.77c-4.85,55.39 -15.88,105.52 -33.11,150.34 -17.3,44.69 -40.45,82.64 -69.38,113.93 -29,31.23 -63.53,54.31 -103.37,69.25 -40.18,15.07 -85.6,20.46 -136.28,16.02zm7.34 -83.78c49.26,4.31 90.24,-4.37 122.88,-26.31 32.64,-21.67 57.88,-54.04 76.05,-96.91 18.1,-42.8 29.75,-93.14 34.86,-151.35l1.01 -11.84c5.11,-57.81 2.36,-109.16 -8.21,-154.11 -10.7,-44.95 -30.35,-81.09 -58.62,-108.48 -28.6,-27.26 -67.16,-43.07 -115.82,-47.38 -44.55,-3.9 -83.25,5.18 -116.42,27.39 -33.18,22.01 -59.69,54.31 -79.34,96.64 -19.85,42.33 -32.3,92.06 -37.35,149.6l-1.01 11.78c-5.11,57.88 -1.48,109.42 10.7,154.92 11.91,45.43 32.5,81.83 61.37,109.29 28.8,27.19 65.35,42.87 109.9,46.77z"/>
  </g>
  <g id="_1423829575920">
   <g>
    <path class="fil10" d="M6461.77 8684.65l19160.06 -3378.43c244.69,-43.14 479.42,121.2 522.56,365.89l4564.74 25887.72c43.14,244.62 -121.27,479.42 -365.96,522.56l-19160.06 3378.43 -4721.34 -26776.17z"/>
    <path class="fil2" d="M5916.06 8302.54l19160.06 -3378.43c244.69,-43.2 479.42,121.2 522.56,365.89l4564.67 25887.65c43.14,244.69 -121.2,479.42 -365.89,522.63l-19160.06 3378.43 -4721.34 -26776.17z"/>
    <g>
     <g>
      <rect class="fil11" transform="matrix(0.984808 -0.173648 0.200095 1.13479 7272.91 9208.42)" width="827.95" height="1197.48"/>
      <rect class="fil12" transform="matrix(0.238858 -0.0421171 0.200095 1.13479 7272.94 9208.41)" width="827.95" height="1197.48"/>
      <rect class="fil12" transform="matrix(-0.370774 0.0653774 0.200095 1.13479 8088.8 9064.55)" width="827.95" height="1197.48"/>
      <rect class="fil12" transform="matrix(0.370774 -0.0653774 0.200095 1.13479 7290.76 9205.27)" width="827.95" height="1197.48"/>
      <g>
       <path class="fil13" d="M5687.38 9706.08l1876.3 -330.9c100.07,-17.63 196.37,49.8 214,149.87l0 0c17.63,100.07 -49.8,196.37 -149.87,214l-1876.3 330.83c-100.07,17.63 -196.37,-49.73 -214,-149.87l0 0c-17.63,-100.07 49.8,-196.3 149.87,-213.94z"/>
       <path class="fil14" d="M5788.26 10278.1l1876.3 -330.83c100.07,-17.63 196.3,49.8 214,149.87l0 0c17.63,100.07 -49.8,196.37 -149.87,214l-1876.3 330.83c-100.07,17.63 -196.37,-49.8 -214,-149.87l0 0c-17.63,-100.07 49.8,-196.3 149.87,-214z"/>
      </g>
     </g>
     <g>
      <rect class="fil11" transform="matrix(0.984808 -0.173648 0.200095 1.13479 7857.21 12522.1)" width="827.95" height="1197.48"/>
      <rect class="fil12" transform="matrix(0.238858 -0.0421171 0.200095 1.13479 7857.24 12522.1)" width="827.95" height="1197.48"/>
      <rect class="fil12" transform="matrix(-0.370774 0.0653774 0.200095 1.13479 8673.1 12378.3)" width="827.95" height="1197.48"/>
      <rect class="fil12" transform="matrix(0.370774 -0.0653774 0.200095 1.13479 7875.06 12519)" width="827.95" height="1197.48"/>
      <g>
       <path class="fil15" d="M6271.65 13019.77l1876.3 -330.83c100.07,-17.63 196.37,49.73 214,149.8l0 0c17.63,100.07 -49.73,196.37 -149.8,214l-1876.3 330.83c-100.07,17.7 -196.37,-49.73 -214,-149.8l0 0c-17.7,-100.07 49.73,-196.37 149.8,-214z"/>
       <path class="fil16" d="M6372.53 13591.86l1876.3 -330.83c100.07,-17.7 196.37,49.73 214,149.8l0 0c17.63,100.07 -49.73,196.37 -149.87,214l-1876.23 330.83c-100.07,17.7 -196.37,-49.73 -214,-149.8l0 0c-17.7,-100.07 49.73,-196.37 149.8,-214z"/>
      </g>
     </g>
     <g>
      <rect class="fil11" transform="matrix(0.984808 -0.173648 0.200095 1.13479 8441.51 15835.9)" width="827.95" height="1197.48"/>
      <rect class="fil12" transform="matrix(0.238858 -0.0421171 0.200095 1.13479 8441.54 15835.8)" width="827.95" height="1197.48"/>
      <rect class="fil12" transform="matrix(-0.370774 0.0653774 0.200095 1.13479 9257.39 15692)" width="827.95" height="1197.48"/>
      <rect class="fil12" transform="matrix(0.370774 -0.0653774 0.200095 1.13479 8459.36 15832.7)" width="827.95" height="1197.48"/>
      <g>
       <path class="fil17" d="M6855.99 16333.46l1876.3 -330.83c100.07,-17.63 196.3,49.8 214,149.87l0 0c17.63,100.07 -49.8,196.37 -149.87,214l-1876.3 330.83c-100.07,17.63 -196.37,-49.8 -214,-149.87l0 0c-17.63,-100.07 49.8,-196.37 149.87,-214z"/>
       <path class="fil18" d="M6956.87 16905.55l1876.3 -330.83c100.07,-17.63 196.3,49.8 213.94,149.87l0 0c17.7,100.07 -49.73,196.3 -149.8,214l-1876.3 330.83c-100.07,17.63 -196.37,-49.8 -214,-149.87l0 0c-17.63,-100.07 49.8,-196.37 149.87,-214z"/>
      </g>
     </g>
     <g>
      <rect class="fil11" transform="matrix(0.984808 -0.173648 0.200095 1.13479 9025.81 19149.6)" width="827.95" height="1197.48"/>
      <rect class="fil12" transform="matrix(0.238858 -0.0421171 0.200095 1.13479 9025.83 19149.6)" width="827.95" height="1197.48"/>
      <rect class="fil12" transform="matrix(-0.370774 0.0653774 0.200095 1.13479 9841.69 19005.7)" width="827.95" height="1197.48"/>
      <rect class="fil12" transform="matrix(0.370774 -0.0653774 0.200095 1.13479 9043.66 19146.4)" width="827.95" height="1197.48"/>
      <g>
       <path class="fil19" d="M7440.26 19647.22l1876.3 -330.83c100.07,-17.7 196.37,49.73 214,149.8l0 0c17.63,100.07 -49.8,196.37 -149.87,214l-1876.3 330.83c-100.07,17.63 -196.3,-49.73 -214,-149.8l0 0c-17.63,-100.07 49.8,-196.37 149.87,-214z"/>
       <path class="fil20" d="M7541.14 20219.31l1876.3 -330.9c100.07,-17.63 196.37,49.8 214,149.87l0 0c17.63,100.07 -49.8,196.37 -149.87,214l-1876.3 330.83c-100.07,17.63 -196.3,-49.73 -214,-149.87l0 0c-17.63,-100.07 49.8,-196.3 149.87,-213.94z"/>
      </g>
     </g>
     <g>
      <rect class="fil11" transform="matrix(0.984808 -0.173648 0.200095 1.13479 9610.11 22463.3)" width="827.95" height="1197.48"/>
      <rect class="fil12" transform="matrix(0.238858 -0.0421171 0.200095 1.13479 9610.13 22463.3)" width="827.95" height="1197.48"/>
      <rect class="fil12" transform="matrix(-0.370774 0.0653774 0.200095 1.13479 10426 22319.4)" width="827.95" height="1197.48"/>
      <rect class="fil12" transform="matrix(0.370774 -0.0653774 0.200095 1.13479 9627.96 22460.1)" width="827.95" height="1197.48"/>
      <g>
       <path class="fil21" d="M8024.6 22960.92l1876.23 -330.83c100.07,-17.63 196.37,49.73 214,149.87l0 0c17.7,100.07 -49.73,196.3 -149.8,214l-1876.3 330.83c-100.07,17.63 -196.37,-49.8 -214,-149.87l0 0c-17.63,-100.07 49.73,-196.37 149.87,-214z"/>
       <path class="fil22" d="M8125.41 23533.01l1876.3 -330.83c100.07,-17.63 196.37,49.73 214,149.8l0 0c17.7,100.07 -49.73,196.37 -149.8,214l-1876.3 330.9c-100.07,17.63 -196.37,-49.8 -214,-149.87l0 0c-17.63,-100.07 49.73,-196.37 149.8,-214z"/>
      </g>
     </g>
     <g>
      <rect class="fil11" transform="matrix(0.984808 -0.173648 0.200095 1.13479 10194.4 25777)" width="827.95" height="1197.48"/>
      <rect class="fil12" transform="matrix(0.238858 -0.0421171 0.200095 1.13479 10194.4 25777)" width="827.95" height="1197.48"/>
      <rect class="fil12" transform="matrix(-0.370774 0.0653774 0.200095 1.13479 11010.3 25633.1)" width="827.95" height="1197.48"/>
      <rect class="fil12" transform="matrix(0.370774 -0.0653774 0.200095 1.13479 10212.3 25773.9)" width="827.95" height="1197.48"/>
      <g>
       <path class="fil23" d="M8608.87 26274.61l1876.3 -330.83c100.07,-17.63 196.37,49.8 214,149.87l0 0c17.63,100.07 -49.8,196.37 -149.87,214l-1876.3 330.83c-100.07,17.63 -196.3,-49.8 -214,-149.87l0 0c-17.63,-100.07 49.8,-196.3 149.87,-214z"/>
       <path class="fil24" d="M8709.75 26846.7l1876.3 -330.83c100.07,-17.63 196.37,49.8 214,149.87l0 0c17.63,100.07 -49.8,196.37 -149.87,214l-1876.3 330.83c-100.07,17.63 -196.37,-49.8 -214,-149.87l0 0c-17.63,-100.07 49.8,-196.3 149.87,-214z"/>
      </g>
     </g>
     <g>
      <rect class="fil11" transform="matrix(0.984808 -0.173648 0.200095 1.13479 10778.7 29090.7)" width="827.95" height="1197.48"/>
      <rect class="fil12" transform="matrix(0.238858 -0.0421171 0.200095 1.13479 10778.7 29090.7)" width="827.95" height="1197.48"/>
      <rect class="fil12" transform="matrix(-0.370774 0.0653774 0.200095 1.13479 11594.6 28946.9)" width="827.95" height="1197.48"/>
      <rect class="fil12" transform="matrix(0.370774 -0.0653774 0.200095 1.13479 10796.6 29087.6)" width="827.95" height="1197.48"/>
      <g>
       <path class="fil25" d="M9193.14 29588.37l1876.3 -330.83c100.07,-17.7 196.37,49.73 214,149.8l0 0c17.63,100.07 -49.73,196.37 -149.8,214l-1876.3 330.83c-100.07,17.7 -196.37,-49.73 -214,-149.8l0 0c-17.63,-100.07 49.73,-196.37 149.8,-214z"/>
       <path class="fil26" d="M9294.02 30160.46l1876.3 -330.83c100.07,-17.7 196.37,49.73 214,149.8l0 0c17.63,100.07 -49.73,196.37 -149.87,214l-1876.23 330.83c-100.07,17.7 -196.37,-49.73 -214,-149.8l0 0c-17.7,-100.07 49.73,-196.37 149.8,-214z"/>
      </g>
     </g>
     <g>
      <rect class="fil11" transform="matrix(0.984808 -0.173648 0.200095 1.13479 11363 32404.4)" width="827.95" height="1197.48"/>
      <rect class="fil12" transform="matrix(0.238858 -0.0421171 0.200095 1.13479 11363 32404.4)" width="827.95" height="1197.48"/>
      <rect class="fil12" transform="matrix(-0.370774 0.0653774 0.200095 1.13479 12178.9 32260.6)" width="827.95" height="1197.48"/>
      <rect class="fil12" transform="matrix(0.370774 -0.0653774 0.200095 1.13479 11380.8 32401.3)" width="827.95" height="1197.48"/>
      <g>
       <path class="fil27" d="M9777.48 32902.06l1876.3 -330.83c100.07,-17.63 196.3,49.8 214,149.87l0 0c17.63,100.07 -49.8,196.3 -149.87,214l-1876.3 330.83c-100.07,17.63 -196.37,-49.8 -214,-149.87l0 0c-17.63,-100.07 49.8,-196.37 149.87,-214z"/>
       <path class="fil28" d="M9878.36 33474.15l1876.3 -330.83c100.07,-17.63 196.3,49.8 214,149.87l0 0c17.63,100.07 -49.8,196.3 -149.87,214l-1876.3 330.83c-100.07,17.63 -196.37,-49.8 -214,-149.87l0 0c-17.63,-100.07 49.8,-196.37 149.87,-214z"/>
      </g>
     </g>
    </g>
   </g>
   <g>
    <path class="fil0" d="M11811.93 10855.64l-222.89 39.3 -38.36 -217.57 -22.54 3.97 38.36 217.57 -189.51 33.45 -38.36 -217.57 -22.48 3.97 38.36 217.57 -188.03 33.11 -38.36 -217.57 -22.54 3.97 38.43 217.57 -191.06 33.72 -38.36 -217.57 -22.54 3.97 38.36 217.57 -187.96 33.11 -38.36 -217.57 -22.54 3.97 38.36 217.57 -21.4 3.77 -200.88 -239.24 7.94 -27.73 1254.88 -221.07 51.48 291.73zm-973.58 -261.72l254.05 30.82 207.88 -139.17 367.04 69.65 -1081.66 190.72 252.7 -152.02zm1859.75 -1106.43l127.46 -22.48 22.48 127.46 -127.46 22.41 -22.48 -127.39zm-219.19 38.63l127.46 -22.48 22.48 127.46 -127.46 22.48 -22.48 -127.46zm-214.07 37.75l127.39 -22.48 22.48 127.46 -127.46 22.48 -22.41 -127.46zm-223.29 2023.55l87.28 -15.41c-34.25,10.3 -53.9,18.37 -83.65,36.14l-3.63 -20.73zm-1.08 146.17c-89.03,77.19 -204.18,95.43 -314.14,55.39 -116.56,-42.46 -252.5,-17.77 -342.61,60.37l-35.87 -42.73c91.05,-77.12 259.5,-118.11 395.77,-70.8 101.89,35.4 176.99,26.11 260.91,-45.02 101.28,-85.74 273.16,-115.48 397.59,-70.12 88.56,32.17 168.11,31.43 259.16,-45.69 91.05,-77.12 262.12,-119.45 397.72,-70.12l-19.18 52.49c-116.56,-42.4 -252.56,-17.77 -342.74,60.43 -88.83,77.12 -204.04,95.43 -313.94,55.45 -116.56,-42.46 -252.56,-17.83 -342.68,60.37zm54.58 65.01c-111.31,90.24 -262.46,124.43 -397.72,70.12 -87.62,-35.2 -186.14,-13.46 -259.03,45.69l-31.49 -37.55c89.24,-71.81 199,-97.31 307.34,-54.11 117.7,46.97 256.67,12.99 349.4,-61.64 90.24,-72.68 197.58,-94.08 307.21,-54.24 119.12,43.34 256.74,13.12 349.47,-61.58 92.8,-74.77 201.82,-92.53 307.34,-54.17l-16.76 46.03c-88.76,-32.37 -186.14,-13.53 -259.09,45.63 -112.05,90.78 -262.05,119.52 -397.59,70.19 -88.83,-32.3 -186.14,-13.53 -259.09,45.63zm519.06 -241.26c-259.7,-343.08 -379.82,-562.33 -473.1,-1101.58 44.89,-121.27 190.25,-306.74 335.34,-437.16 154.24,-123.35 334.87,-244.76 524.17,-339.04l497.73 593.15 -434.8 1194.65c-70.66,-20.79 -147.04,-26.04 -224.5,-12.38 -85.47,15.07 -161.92,51.28 -224.84,102.36zm116.29 -2200.54l35.06 41.72 -581.24 102.49 96.84 641.61c-14.67,18.37 -28.33,36.74 -40.85,55.12l-112.25 -734.68 602.44 -106.26zm-591 -182.85l270.94 -47.78 95.02 217.23 -332.58 58.68 -33.38 -228.14zm327.47 -50.41l57.07 -10.03 22.21 26.45 -65.61 11.58 -13.66 -28zm-236.68 2430.56l283.25 -49.93 21.94 27.19 -185.87 32.77c-38.43,-8.75 -78.54,-12.32 -119.32,-10.03zm-419.86 -1012.35l-4.98 -30.15 280.43 -49.46c1.75,10.09 3.57,20.12 5.45,30.15l-280.9 49.46zm-1230.79 30.82l12.05 -33.18 1603.75 -282.78c-8.21,11.44 -16.49,23.28 -24.7,35.4l-1591.1 280.56zm76.45 -210.1l12.05 -33.11 1499.71 -264.48 4.58 30.22 -1516.33 267.37zm80.49 -221.07l12.05 -33.18 1388.74 -244.89 4.58 30.22 -1405.36 247.85zm84.52 -232.17l12.05 -33.18 1272.18 -224.3 4.58 30.22 -1288.8 227.26zm88.5 -243.28l12.05 -33.11 1150.17 -202.83 4.58 30.22 -1166.79 205.73zm92.53 -254.25l12.11 -33.18 1070.69 -188.77 2.89 30.49 -1085.7 191.46zm1020.49 2075.57l426.32 -75.17c6.26,9.22 12.58,18.51 19.04,27.66l-440.05 77.59 -5.32 -30.08zm-19.45 -110.37l380.83 -67.16c5.59,9.35 11.24,18.71 16.96,28.06l-392.47 69.18 -5.32 -30.08zm-21.27 -120.46l339.38 -59.83c4.91,9.56 9.89,18.98 14.94,28.4l-349 61.58 -5.32 -30.15zm-22.95 -130.42l303.51 -53.5c4.17,9.62 8.48,19.25 12.79,28.8l-310.98 54.78 -5.32 -30.08zm-24.77 -140.45l274.57 -48.45c3.5,9.76 7.07,19.52 10.7,29.14l-280.02 49.4 -5.25 -30.08zm-68.24 -143.21l295.16 -52.02c2.89,9.89 5.79,19.72 8.75,29.48l-298.6 52.69 -5.32 -30.15zm-28.33 -160.5l282.51 -49.87c2.29,10.03 4.58,19.92 7,29.81l-284.19 50.14 -5.32 -30.08zm-525.52 1096.06l-326.46 -389.04 -181.03 -215.75 1079.31 -190.32 114.88 651.3 -19.65 16.42c-30.35,25.3 -63.86,48.79 -105.79,56.19 -28.4,4.98 -56.46,3.5 -82.64,-3.3 -82.24,-30.75 -172.01,-38.76 -258.76,-23.49 -83.18,14.67 -157.81,49.26 -219.86,97.98z"/>
    <circle class="fil0" transform="matrix(0.289673 -0.0510772 0.0510772 0.289673 11687.8 10951.6)" r="178.07"/>
    <circle class="fil0" transform="matrix(0.289673 -0.0510772 0.0510772 0.289673 11497.3 10985.1)" r="178.07"/>
    <circle class="fil0" transform="matrix(0.289673 -0.0510772 0.0510772 0.289673 10849.9 11099.3)" r="178.07"/>
    <ellipse class="fil0" transform="matrix(0.242372 -0.0850593 0.0850593 0.242372 13231.3 10328.2)" rx="274.5" ry="415.49"/>
    <path class="fil29" d="M14015.83 11481.1l-17.9 -101.48 84.79 -27.46 223.43 -1132.13 136.21 -23.96 589.72 988.66 88.56 -3.1 17.9 101.55 -336.75 59.36 -17.9 -101.55 85.87 -31.02 -115.41 -202.36 -470.07 82.84 -41.66 230.09 91.32 -0.2 17.9 101.55 -336.01 59.22zm294.29 -532.25l372.29 -65.68 -256.6 -446.65 -14.27 -24.77 -4.98 0.87 -5.05 28.13 -91.39 508.09z"/>
    <path id="1" class="fil29" d="M15478.19 11223.28l-17.97 -101.55 127.59 -45.76 -162.99 -924.39 -135.54 0.67 -17.9 -101.48 523.1 -92.26c85.4,-15.07 159.96,-15.14 223.09,0.07 63.39,15.21 114.74,44.15 153.84,87.22 39.03,42.8 64.87,99.2 77.26,169.12 12.11,68.78 7.4,129.21 -14.33,181.3 -21.53,51.75 -57.67,94.69 -108.15,128.33 -50.61,33.58 -113.33,57.67 -188.36,72.61l-261.72 50.94 70.53 399.88 135.2 -0.54 17.9 101.48 -421.55 74.36zm774.59 -136.61l-364.41 -539.79 158.48 -29.68 299.54 430.63 83.72 0.27 18.37 104.04 -195.7 34.52zm-598.67 -563.48l216.49 -38.16c88.97,-15.75 150.34,-43.81 184.53,-84.79 34.52,-40.98 45.9,-94.01 34.46,-158.95 -10.97,-61.91 -38.83,-107.27 -83.92,-136.48 -45.22,-29.21 -108.08,-36.54 -189.31,-22.21l-232.71 40.98 70.46 399.61z"/>
    <path id="2" class="fil29" d="M18620.27 10703.82c-75.64,13.32 -146.24,10.77 -211.58,-7.81 -65.35,-18.24 -123.83,-50.2 -175.24,-95.63 -51.41,-45.69 -94.69,-102.76 -129.75,-171.2 -35.13,-68.71 -60.5,-146.77 -75.98,-234.33l-2.96 -16.76c-15.34,-87.22 -18.17,-169.05 -8.68,-245.9 9.49,-76.58 30.55,-145.29 63.26,-205.79 32.71,-60.77 76.72,-110.84 131.77,-150.61 55.18,-39.5 120.6,-66.09 196.3,-79.41 80.02,-14.13 153.03,-11.98 218.71,6.26 65.95,18.44 124.1,50.47 174.5,96.57 50.67,45.83 92.6,103.44 126.25,172.35 34.12,69.25 58.62,147.18 74.03,234.39l2.96 16.76c15.41,87.55 19.04,169.45 10.63,245.84 -8.08,76.05 -27.86,144.28 -59.76,204.65 -31.7,60.1 -75.37,110.03 -131.09,149.67 -55.39,39.84 -123.29,66.83 -203.37,80.96zm-23.28 -132.37c77.86,-13.73 137.49,-44.08 178.74,-91.39 41.12,-46.97 67.03,-107.41 77.32,-181.03 10.3,-73.56 7.4,-156.26 -8.82,-248.12l-3.23 -18.44c-16.08,-91.32 -41.86,-169.72 -76.79,-234.46 -35.06,-65.01 -80.15,-112.99 -135.33,-143.21 -55.12,-30.62 -121.27,-38.83 -197.99,-25.3 -70.46,12.45 -126.72,42.53 -168.58,90.18 -41.99,48.05 -69.65,108.82 -82.57,181.97 -13.12,73.56 -11.64,155.86 4.37,246.64l3.23 18.44c16.08,91.39 42.94,169.45 80.55,234.66 37.28,65.14 84.05,112.79 139.91,143.27 55.52,30.22 118.71,39.23 189.17,26.78z"/>
    <path id="3" class="fil29" d="M17311.89 10917.49c-108.42,19.11 -206.94,10.43 -295.3,-25.64 -88.43,-36.34 -161.85,-95.22 -220.46,-176.79 -58.95,-81.5 -98.52,-180.89 -119.25,-298.12l-3.36 -19.31c-20.86,-118.31 -17.36,-225.58 10.16,-322.15 27.46,-96.5 74.36,-176.52 140.99,-239.64 66.29,-63.26 147.51,-103.44 242.94,-120.26 91.39,-16.08 170.87,-19.31 238.1,-9.35 67.3,9.69 126.72,28.13 178.07,55.72l41.79 236.88 -130.42 23.02 -47.04 -167.03c-29.14,-12.52 -63.93,-19.99 -103.5,-22.07 -39.77,-2.09 -85.67,1.48 -137.69,10.7 -67.16,11.84 -124.3,41.79 -171.14,89.98 -46.77,47.98 -79.95,109.49 -98.86,183.99 -18.91,74.63 -20.39,157.95 -4.11,250.41l3.7 20.93c16.49,93.61 45.16,172.55 86.34,237.02 40.92,64.6 92.53,111.17 154.58,139.91 62.05,28.47 132.57,35.94 211.58,22.01 53.97,-9.56 98.52,-22.21 133.72,-38.09 35.53,-15.88 66.09,-34.05 92.06,-54.31l-48.59 -275.38 -226.25 31.7 -20.66 -117.03 383.66 -67.63 80.15 454.59c-28.26,37.62 -71.87,75.1 -130.22,112.72 -58.35,37.48 -138.9,65.28 -240.99,83.25z"/>
   </g>
  </g>
  <polygon class="fil30" points="39686.52,16160.04 39443.71,16138.77 39429.31,16303.52 39714.31,16328.35 39705.36,16429.76 39293.91,16393.83 39347.61,15780.15 39758.26,15816.09 39749.24,15918.38 39465.11,15893.48 39452.32,16039.98 39695.13,16061.25 "/>
  <path id="1" class="fil30" d="M40076.84 16415.77c-33.24,33.98 -76.38,48.59 -129.55,43.94 -48.99,-4.37 -85,-21.53 -108.28,-52.02 -23.22,-30.35 -32.77,-72.68 -28.53,-126.92l26.11 -299 121.74 10.77 -25.77 295.23c-4.24,47.51 15.41,73.22 58.62,76.99 41.32,3.77 70.93,-8.21 88.97,-35.47l28.33 -323.63 122.21 10.7 -39.91 455.94 -114.67 -9.96 0.74 -46.57z"/>
  <path id="2" class="fil30" d="M40320.86 16250.49c6.06,-69.85 27.73,-124.9 64.74,-164.68 37.15,-39.91 83.78,-57.34 140.25,-52.29 50.14,4.31 87.55,25.03 112.25,61.85l8.82 -42.6 110.5 9.69 -38.56 440.73c-3.5,39.84 -15.61,73.62 -36.27,101.69 -20.79,27.86 -48.25,48.12 -82.51,60.7 -34.19,12.52 -73.35,16.89 -117.37,12.99 -33.58,-2.89 -65.48,-12.45 -96.1,-28.47 -30.62,-16.02 -53.16,-35.4 -67.63,-57.74l60.37 -69.38c27.46,36.74 62.72,56.87 106.06,60.7 32.37,2.89 58.21,-3.63 77.73,-19.38 19.52,-15.61 30.62,-39.44 33.38,-71.07l2.15 -24.56c-30.96,29.34 -69.18,42.06 -115.01,37.96 -54.78,-4.78 -97.18,-30.01 -127.39,-75.98 -30.08,-45.83 -42.06,-104.18 -35.87,-175.11l0.47 -5.05zm121.07 19.85c-3.77,41.39 1.68,74.77 16.35,99.8 14.4,24.97 36.27,38.7 65.14,41.25 37.08,3.16 64.81,-8.34 83.31,-34.93l16.89 -192.74c-13.8,-29.27 -39.03,-45.63 -75.24,-48.79 -29.21,-2.49 -53.16,7.47 -72.14,30.01 -18.71,22.54 -30.15,57.67 -34.32,105.39z"/>
  <path id="3" class="fil30" d="M41055.33 16556.55c-66.89,-5.72 -119.65,-30.96 -158.08,-75.84 -38.43,-44.62 -54.64,-101.21 -48.72,-169.52l1.21 -11.91c3.9,-45.76 16.35,-85.94 37.28,-120.6 20.79,-34.52 48.39,-60.23 82.44,-76.85 34.25,-16.76 72.07,-23.28 113.73,-19.65 62.38,5.52 109.76,29.48 142.13,71.94 32.3,42.6 45.36,99.94 39.17,172.35l-4.51 49.8 -290.32 -25.37c1.28,30.15 11.1,55.18 29.27,74.97 18.24,19.65 42.46,30.96 73.02,33.51 46.77,4.17 84.86,-9.69 114.34,-41.59l54.11 72.21c-20.59,24.29 -47.18,42.33 -79.54,54.04 -32.5,11.71 -67.7,15.88 -105.52,12.52zm18.91 -376.46c-24.29,-2.15 -44.55,4.37 -60.97,19.58 -16.49,15.14 -28.2,37.75 -35.06,68.1l169.39 14.74 0.87 -9.62c1.88,-27.32 -3.63,-49.19 -16.35,-65.21 -12.85,-16.08 -32.03,-25.24 -57.88,-27.59z"/>
  <path id="4" class="fil30" d="M41500.37 16127.4l-0.87 53.03c36.34,-38.02 81.7,-54.64 136.55,-49.87 48.25,4.17 83.04,21.53 104.18,52.02 21.06,30.49 29.48,74.03 25.17,130.42l-25.91 294.69 -121.81 -10.5 25.57 -292c2.36,-25.98 -1.75,-45.16 -11.98,-57.74 -10.09,-12.72 -28.26,-20.26 -54.44,-22.54 -34.39,-2.89 -61.31,9.35 -81.09,37.15l-28.13 322.02 -121.74 -10.77 39.77 -455.87 114.74 9.96z"/>
  <path id="5" class="fil30" d="M42076.16 16645.85c-66.89,-5.72 -119.65,-30.96 -158.08,-75.84 -38.43,-44.62 -54.64,-101.21 -48.72,-169.52l1.21 -11.84c3.9,-45.83 16.35,-86.01 37.28,-120.66 20.79,-34.52 48.39,-60.23 82.44,-76.79 34.25,-16.82 72.07,-23.28 113.73,-19.72 62.38,5.52 109.76,29.54 142.13,71.94 32.37,42.6 45.36,99.94 39.17,172.35l-4.51 49.8 -290.32 -25.37c1.28,30.15 11.1,55.18 29.27,74.97 18.24,19.65 42.46,30.96 73.02,33.51 46.77,4.17 84.86,-9.69 114.34,-41.59l54.11 72.21c-20.59,24.29 -47.18,42.33 -79.54,54.04 -32.5,11.71 -67.7,15.95 -105.52,12.52zm18.91 -376.39c-24.29,-2.22 -44.55,4.31 -60.97,19.52 -16.49,15.14 -28.2,37.75 -35.06,68.1l169.39 14.74 0.87 -9.62c1.88,-27.32 -3.63,-49.13 -16.35,-65.21 -12.85,-16.08 -32.03,-25.24 -57.88,-27.52z"/>
  <path id="6" class="fil30" d="M43084.2 16647.4c-25.1,25.44 -59.09,43.74 -101.95,55.05 -42.94,11.37 -89.71,15.01 -140.31,10.5 -53.16,-4.58 -98.66,-20.32 -136.61,-47.11 -38.02,-26.51 -66.02,-62.99 -83.99,-109.09 -17.9,-46.03 -24.56,-98.93 -19.85,-158.55l3.7 -41.79c5.32,-61.17 20.26,-113.4 44.75,-156.46 24.7,-43 57.4,-74.83 98.46,-95.16 40.98,-20.26 87.62,-28.2 139.91,-23.55 72.82,6.33 128.13,28.6 166.16,67.03 37.96,38.29 57.94,90.85 59.69,157.88l-123.09 -10.7c-2.62,-35.53 -12.72,-62.38 -30.62,-80.29 -17.77,-17.9 -43.54,-28.47 -77.32,-31.36 -43,-3.77 -77.19,9.56 -102.36,39.91 -25.3,30.28 -40.92,77.39 -46.84,141.26l-3.5 39.3c-5.65,64.4 2.42,114.14 23.96,149.13 21.53,34.99 55.99,54.58 103.17,58.68 47.51,4.24 82.24,-2.96 104.31,-21.6l9.22 -106.33 -114.94 -10.09 8.08 -92.73 241.6 21.06 -21.6 245.03z"/>
  <path id="7" class="fil30" d="M43484.61 16713.89c-33.24,33.98 -76.45,48.59 -129.61,43.94 -48.99,-4.37 -85,-21.53 -108.21,-52.02 -23.22,-30.35 -32.77,-72.68 -28.6,-126.92l26.18 -298.93 121.74 10.7 -25.84 295.23c-4.24,47.51 15.41,73.22 58.68,77.05 41.25,3.7 70.86,-8.28 88.97,-35.53l28.33 -323.63 122.21 10.7 -39.91 455.94 -114.74 -9.96 0.81 -46.57z"/>
  <path id="8" class="fil30" d="M44156.5 16593.7c-6.33,73.29 -26.99,128.87 -61.64,166.96 -34.86,38.16 -80.22,54.98 -136.14,50.07 -49.4,-4.37 -87.22,-26.92 -113.4,-67.63l-9.83 48.12 -109.49 -9.69 56.6 -647.46 121.81 10.7 -20.39 232.31c31.09,-30.55 69.52,-43.68 115.28,-39.77 55.65,4.91 97.51,29.21 125.58,72.75 28,43.81 38.7,102.76 32.24,176.99l-0.61 6.66zm-121.07 -19.45c4.04,-46.3 -0.27,-80.62 -13.06,-103.17 -12.65,-22.61 -33.58,-35.13 -62.45,-37.55 -38.9,-3.43 -66.89,10.09 -84.26,40.71l-15.95 180.56c12.18,33.38 37.75,51.89 76.72,55.18 39.5,3.5 66.96,-13.73 82.84,-51.55 7.47,-18.1 12.85,-46.1 16.15,-84.19z"/>
  <path id="9" class="fil30" d="M44511.43 16850.23c-4.58,-11.44 -7.54,-25.24 -8.48,-41.72 -32.5,30.28 -72.28,43.41 -119.52,39.3 -44.55,-3.9 -80.62,-20.12 -107.61,-48.59 -27.12,-28.47 -39.03,-62.38 -35.53,-101.82 4.24,-48.52 25.44,-84.12 63.6,-106.93 37.96,-22.81 90.99,-31.29 158.75,-25.64l56.06 4.85 2.29 -25.98c1.75,-21.06 -2.15,-38.29 -11.84,-51.82 -9.69,-13.66 -26.31,-21.47 -49.53,-23.49 -20.53,-1.75 -37.15,1.75 -49.6,10.43 -12.58,8.68 -19.52,21.53 -21.06,38.43l-121.81 -10.57c2.29,-26.25 12.65,-49.93 30.96,-70.93 18.17,-20.86 42.8,-36.47 73.62,-46.64 30.96,-10.16 64.94,-13.59 102.02,-10.3 56.19,4.98 99.53,23.02 130.15,54.04 30.49,31.23 43.68,72.41 39.17,123.56l-17.36 197.58c-3.43,43.34 -0.27,76.58 9.56,99.87l-0.54 7.2 -123.29 -10.83zm-93.27 -92.87c17.9,1.55 34.93,-1.01 50.81,-7.81 15.95,-6.66 28.06,-16.62 36.54,-29.61l6.93 -79.21 -45.49 -4.04c-60.9,-5.32 -95.29,13.19 -103.03,55.52l-1.01 7.07c-1.41,15.48 2.96,28.4 12.79,39.44 9.62,10.83 23.96,17.03 42.46,18.64z"/>
  <path id="10" class="fil30" d="M44897.57 16424.65l-0.87 53.03c36.34,-38.02 81.7,-54.71 136.55,-49.87 48.25,4.17 83.11,21.53 104.18,52.02 21.06,30.49 29.48,73.96 25.17,130.42l-25.84 294.69 -121.87 -10.57 25.57 -291.93c2.36,-25.98 -1.75,-45.22 -11.98,-57.81 -10.09,-12.72 -28.26,-20.26 -54.44,-22.54 -34.39,-2.83 -61.24,9.42 -81.09,37.22l-28.13 321.95 -121.74 -10.7 39.84 -455.87 114.67 9.96z"/>
  <path id="11" class="fil30" d="M45265.62 16682.33c3.9,-45.29 16.15,-84.93 36.68,-118.85 20.53,-33.78 47.92,-59.09 82.51,-75.57 34.39,-16.62 73.29,-22.95 116.56,-19.25 61.58,5.52 110.1,28.67 145.76,69.79 35.53,41.05 52.76,94.22 51.62,159.22l-1.95 31.36c-6.06,69.92 -30.49,124.36 -73.22,163.4 -42.73,38.83 -97.04,55.45 -162.79,49.73 -65.68,-5.85 -116.42,-31.56 -151.96,-77.19 -35.53,-45.49 -50.14,-104.58 -43.81,-177.26l0.61 -5.38zm121.07 19.25c-3.9,43.47 1.41,77.39 15.75,101.82 14.27,24.56 36.54,38.02 66.83,40.78 29.48,2.56 53.64,-6.8 72.07,-28 18.64,-21.4 30.08,-56.93 34.46,-106.93 3.7,-42.6 -1.62,-76.45 -16.22,-101.28 -14.47,-24.83 -36.81,-38.7 -66.89,-41.32 -29.68,-2.62 -53.84,7.07 -72.07,28.87 -18.3,21.94 -29.75,57.27 -33.92,106.06z"/>
  <polygon id="12" class="fil30" points="45965.17,16827.56 46076.68,16527.82 46203.94,16538.92 46010.19,16981.4 45893.97,16971.17 45779.9,16501.84 45907.23,16513.01 "/>
  <path id="13" class="fil30" d="M39346.4 17550.52c23.76,2.09 45.29,-3.3 64.4,-16.22 19.04,-12.99 30.55,-30.15 34.39,-51.89l63.12 5.59c-3.1,22.34 -12.58,43 -28.74,61.91 -15.95,18.91 -36.27,33.45 -60.97,43.47 -24.83,9.89 -50.41,13.73 -76.92,11.37 -53.3,-4.58 -94.15,-26.11 -122.35,-64.4 -28.33,-38.22 -39.91,-88.23 -34.46,-150.07l1.01 -11.1c3.36,-38.16 13.26,-71.33 29.88,-99.8 16.62,-28.33 38.56,-49.67 66.09,-63.8 27.59,-14.07 59.22,-19.58 94.89,-16.42 43.81,3.84 79.07,20.12 105.86,48.92 26.78,28.8 39.3,64.2 37.48,106.33l-63.19 -5.59c0.13,-25.37 -7.47,-47.04 -23.35,-64.81 -15.75,-17.63 -36.27,-27.66 -61.71,-29.88 -33.92,-3.03 -61.24,6.93 -82.03,29.81 -20.86,22.88 -33.31,57.4 -37.28,103.7l-1.14 12.72c-3.97,45.16 2.29,80.69 18.71,106.67 16.35,26.04 41.86,40.51 76.31,43.47z"/>
  <path id="14" class="fil30" d="M39700.18 17282.41c32.71,-33.72 72.95,-48.66 120.39,-44.42 82.57,7.2 120.19,57.47 112.79,150.81l-22.68 258.35 -66.83 -5.85 22.61 -258.96c2.29,-28.2 -2.36,-49.6 -13.8,-64.2 -11.44,-14.67 -30.62,-23.15 -57.34,-25.57 -21.67,-1.82 -41.19,2.29 -58.62,12.45 -17.3,10.09 -31.43,24.29 -42.2,42.2l-24.36 278.88 -66.96 -5.85 48.59 -555 66.83 5.79 -18.44 211.38z"/>
  <path id="15" class="fil30" d="M40113.51 17664.86l-66.89 -5.85 34.19 -390.79 66.83 5.85 -34.12 390.79zm-28.94 -501.16c0.87,-10.7 5.05,-19.65 12.25,-26.58 7.27,-6.8 17.43,-9.62 30.49,-8.55 12.92,1.14 22.54,5.65 28.53,13.8 6.19,8.01 8.68,17.43 7.81,28.26 -1.01,10.83 -5.18,19.65 -12.45,26.18 -7.47,6.66 -17.56,9.35 -30.62,8.28 -12.99,-1.08 -22.54,-5.59 -28.47,-13.32 -6.06,-7.87 -8.55,-17.23 -7.54,-28.06z"/>
  <path id="16" class="fil30" d="M40412.18 17698.44c-52.96,-4.58 -94.55,-25.77 -124.84,-63.53 -30.22,-37.82 -42.67,-85.8 -37.62,-144.15l0.94 -12.25c3.5,-38.76 13.93,-72.82 31.36,-102.02 17.56,-29.14 40.38,-51.15 68.51,-66.15 28.13,-14.81 57.67,-20.86 88.76,-18.17 50.81,4.31 88.97,24.63 114.07,60.5 25.24,36.07 35.13,85.4 29.68,147.78l-2.42 27.79 -264.75 -23.15c-2.56,38.76 6.06,71 25.51,96.64 19.52,25.64 45.9,39.84 79.07,42.87 23.69,2.02 44.15,-1.01 61.37,-9.29 17.16,-8.34 32.64,-19.99 46.23,-34.79l38.09 35.26c-37.22,47.51 -88.5,68.44 -153.97,62.65zm22.28 -351.29c-26.99,-2.49 -50.54,5.45 -70.39,23.49 -20.12,18.1 -33.85,44.62 -41.25,79.75l195.77 17.16 0.4 -5.11c1.21,-34.19 -5.72,-61.31 -20.46,-81.5 -14.81,-20.12 -36,-31.49 -64.07,-33.78z"/>
  <path id="17" class="fil30" d="M40705.59 17716.68l29.54 -338.84 -61.78 -5.38 4.58 -52.02 61.85 5.45 3.43 -40.18c3.7,-41.79 17.7,-73.29 42.06,-94.15 24.43,-20.93 57.13,-29.61 98.12,-26.04 15.34,1.35 30.42,4.71 45.29,10.03l-8.28 53.37c-11.17,-3.1 -23.08,-5.38 -35.8,-6.39 -21.67,-1.88 -38.96,2.96 -51.89,14.67 -12.99,11.64 -20.39,29.41 -22.54,53.1l-3.57 41.39 83.45 7.34 -4.58 51.95 -83.52 -7.27 -29.54 338.77 -66.83 -5.79z"/>
  <path id="18" class="fil30" d="M41304.47 17776.51c-52.96,-4.58 -94.55,-25.77 -124.84,-63.53 -30.15,-37.82 -42.67,-85.8 -37.62,-144.15l1.01 -12.25c3.43,-38.76 13.86,-72.82 31.36,-102.02 17.5,-29.14 40.31,-51.15 68.44,-66.15 28.13,-14.81 57.74,-20.86 88.83,-18.17 50.74,4.31 88.9,24.63 114,60.5 25.3,36.07 35.13,85.4 29.68,147.78l-2.42 27.79 -264.75 -23.15c-2.49,38.76 6.06,71 25.51,96.64 19.52,25.64 45.9,39.91 79.07,42.87 23.69,2.02 44.15,-1.01 61.37,-9.29 17.23,-8.34 32.71,-19.99 46.3,-34.79l38.02 35.26c-37.22,47.51 -88.5,68.44 -153.97,62.65zm22.28 -351.29c-26.99,-2.49 -50.54,5.45 -70.39,23.49 -20.12,18.1 -33.85,44.62 -41.25,79.75l195.77 17.16 0.47 -5.11c1.14,-34.19 -5.79,-61.31 -20.53,-81.5 -14.81,-20.12 -36,-31.49 -64.07,-33.78z"/>
  <polygon id="19" class="fil30" points="41717.73,17555.3 41816.93,17420.1 41894.93,17426.97 41750.17,17609.01 41864.71,17818.16 41787.45,17811.3 41709.93,17657.12 41606.83,17795.49 41529.17,17788.82 41678.23,17602.68 41567.26,17398.23 41644.52,17405.03 "/>
  <path id="20" class="fil30" d="M42116.27 17847.51c-52.96,-4.58 -94.55,-25.77 -124.84,-63.53 -30.15,-37.75 -42.67,-85.8 -37.62,-144.15l1.01 -12.18c3.43,-38.83 13.86,-72.82 31.36,-102.02 17.5,-29.14 40.31,-51.21 68.44,-66.15 28.13,-14.87 57.74,-20.93 88.83,-18.17 50.74,4.31 88.9,24.56 114,60.5 25.3,36 35.13,85.33 29.68,147.72l-2.42 27.86 -264.75 -23.15c-2.49,38.76 6.06,71 25.51,96.57 19.52,25.64 45.9,39.91 79.07,42.87 23.69,2.09 44.15,-1.01 61.37,-9.29 17.16,-8.28 32.64,-19.99 46.23,-34.79l38.09 35.26c-37.22,47.58 -88.5,68.44 -153.97,62.65zm22.28 -351.29c-26.99,-2.49 -50.54,5.45 -70.39,23.49 -20.12,18.1 -33.85,44.62 -41.25,79.81l195.77 17.09 0.47 -5.11c1.14,-34.19 -5.79,-61.31 -20.53,-81.5 -14.81,-20.12 -36,-31.43 -64.07,-33.78z"/>
  <path id="21" class="fil30" d="M42537.48 17829.74c23.76,2.09 45.29,-3.36 64.4,-16.29 19.04,-12.99 30.49,-30.15 34.39,-51.82l63.12 5.59c-3.1,22.28 -12.58,42.94 -28.74,61.85 -15.95,18.98 -36.27,33.45 -60.97,43.54 -24.83,9.83 -50.41,13.66 -76.99,11.37 -53.23,-4.58 -94.08,-26.18 -122.28,-64.4 -28.33,-38.22 -39.91,-88.29 -34.46,-150.07l1.01 -11.17c3.3,-38.16 13.26,-71.33 29.88,-99.8 16.56,-28.33 38.56,-49.67 66.09,-63.8 27.59,-14.07 59.22,-19.52 94.89,-16.42 43.81,3.84 79.07,20.19 105.79,48.92 26.85,28.8 39.3,64.27 37.55,106.4l-63.26 -5.65c0.2,-25.37 -7.4,-47.04 -23.28,-64.74 -15.75,-17.7 -36.27,-27.73 -61.71,-29.95 -33.92,-2.96 -61.24,6.93 -82.03,29.81 -20.86,22.95 -33.31,57.47 -37.28,103.77l-1.14 12.65c-3.97,45.22 2.29,80.76 18.71,106.73 16.35,25.98 41.86,40.51 76.31,43.47z"/>
  <path id="22" class="fil30" d="M43038.84 17882.1c-28.74,28.26 -68.24,40.24 -118.64,35.8 -41.52,-3.63 -72.28,-18.44 -91.93,-44.55 -19.72,-26.18 -27.66,-62.92 -23.62,-110.5l22.21 -254.38 66.89 5.85 -22.14 252.77c-5.25,59.29 16.35,91.12 64.47,95.36 51.01,4.37 86.68,-11.64 106.87,-48.32l24.9 -284.53 66.89 5.79 -34.19 390.86 -63.66 -5.59 1.95 -38.56z"/>
  <path id="23" class="fil30" d="M43365.29 17460.55l-8.34 94.35 72.95 6.26 -4.37 52.09 -73.08 -6.33 -21.2 242.67c-1.35,15.75 0.87,27.79 6.73,36.21 5.79,8.41 16.42,13.26 32.17,14.54 7.67,0.74 18.37,0.13 32.17,-1.55l-4.64 53.7c-18.17,3.23 -35.47,4.11 -52.09,2.62 -29.81,-2.62 -51.48,-13.66 -65.14,-32.98 -13.59,-19.38 -18.91,-45.69 -16.08,-78.87l21.13 -242.27 -71.13 -6.26 4.58 -52.02 71.2 6.26 8.34 -94.42 66.83 5.99z"/>
  <path id="24" class="fil30" d="M43576.81 17967.9l-66.89 -5.85 34.19 -390.79 66.83 5.85 -34.12 390.79zm-29 -501.16c0.87,-10.77 5.05,-19.72 12.25,-26.65 7.34,-6.8 17.5,-9.62 30.49,-8.55 12.92,1.14 22.54,5.72 28.6,13.8 6.19,8.01 8.68,17.43 7.81,28.33 -1.01,10.77 -5.25,19.58 -12.52,26.11 -7.47,6.73 -17.56,9.42 -30.55,8.34 -13.06,-1.14 -22.54,-5.65 -28.53,-13.39 -6.06,-7.81 -8.55,-17.23 -7.54,-28z"/>
  <polygon id="25" class="fil30" points="43850.44,17900.47 43973.46,17608.74 44041.83,17614.73 43867.4,17993.2 43816.45,17988.76 43708.98,17585.59 43777.35,17591.71 "/>
  <path id="26" class="fil30" d="M44259.2 18034.99c-52.96,-4.58 -94.55,-25.77 -124.77,-63.53 -30.22,-37.75 -42.73,-85.8 -37.69,-144.15l1.01 -12.18c3.5,-38.83 13.86,-72.82 31.36,-102.02 17.56,-29.14 40.38,-51.21 68.51,-66.15 28.06,-14.87 57.67,-20.93 88.76,-18.24 50.74,4.31 88.9,24.63 114,60.57 25.3,36 35.2,85.33 29.68,147.72l-2.42 27.86 -264.75 -23.15c-2.49,38.76 6.12,71 25.57,96.57 19.52,25.64 45.9,39.91 79.07,42.87 23.62,2.09 44.08,-1.01 61.31,-9.29 17.23,-8.28 32.71,-19.99 46.3,-34.79l38.02 35.26c-37.15,47.58 -88.43,68.44 -153.97,62.65zm22.34 -351.29c-27.05,-2.49 -50.54,5.45 -70.46,23.49 -20.05,18.1 -33.78,44.62 -41.19,79.81l195.7 17.09 0.47 -5.11c1.14,-34.19 -5.79,-61.31 -20.46,-81.5 -14.81,-20.12 -36.07,-31.43 -64.07,-33.78z"/>
  <path id="27" class="fil30" d="M44702.48 17865.81c3.3,-38.22 13.86,-72.01 31.56,-101.42 17.83,-29.34 40.85,-51.15 69.05,-65.35 28.4,-14.27 59.69,-19.92 94.22,-16.82 53.16,4.58 94.69,26.72 124.36,66.62 29.61,39.71 41.79,90.11 36.41,151.35l-0.34 4.78c-3.36,38.02 -13.59,71.54 -30.82,100.54 -17.23,28.94 -40.18,50.74 -68.71,65.28 -28.67,14.4 -60.5,20.12 -95.63,17.09 -53.03,-4.64 -94.35,-26.92 -123.96,-66.69 -29.75,-39.71 -41.86,-89.91 -36.54,-150.61l0.4 -4.78zm66.49 14c-3.84,43.47 3.23,79.21 21.06,107.27 17.77,28.13 43.61,43.54 77.26,46.57 33.92,2.96 62.18,-8.08 84.46,-32.98 22.28,-24.9 35.47,-61.31 39.71,-109.36 3.9,-42.94 -3.3,-78.6 -21.4,-107.07 -17.97,-28.47 -43.88,-44.28 -77.53,-47.04 -33.04,-2.96 -60.84,7.87 -83.31,32.44 -22.54,24.5 -35.94,61.24 -40.24,110.16z"/>
  <path id="28" class="fil30" d="M45187.76 18108.82l29.61 -338.77 -61.78 -5.45 4.58 -52.02 61.78 5.45 3.5 -40.18c3.7,-41.79 17.7,-73.29 42.2,-94.15 24.36,-20.93 57,-29.61 97.92,-26.04 15.48,1.35 30.62,4.71 45.36,10.03l-8.34 53.43c-10.97,-3.3 -22.95,-5.32 -35.8,-6.46 -21.6,-1.88 -38.96,2.96 -51.89,14.74 -12.79,11.64 -20.39,29.34 -22.48,53.1l-3.57 41.32 144.49 12.65 3.03 -33.18c3.63,-43.61 19.18,-76.58 46.23,-98.72 26.99,-22.01 63.33,-31.16 108.82,-27.19 27.05,2.36 60.43,12.65 100.34,30.82l-16.08 54.98c-29,-14.74 -57.34,-23.28 -84.73,-25.57 -28.74,-2.56 -49.87,2.02 -63.6,13.8 -13.93,11.71 -21.8,30.55 -24.16,56.87l-2.96 34.05 80.22 7 -4.64 52.02 -80.22 -7 -29.54 338.77 -66.89 -5.85 29.61 -338.77 -144.49 -12.65 -29.61 338.84 -66.89 -5.85zm489.65 42.87l-66.89 -5.79 34.12 -390.86 66.96 5.85 -34.19 390.79z"/>
  <path id="29" class="fil30" d="M45977.49 18130.69c23.69,2.09 45.29,-3.36 64.34,-16.29 19.04,-12.99 30.55,-30.15 34.39,-51.82l63.19 5.59c-3.1,22.28 -12.65,42.94 -28.74,61.85 -15.95,18.98 -36.27,33.45 -61.04,43.54 -24.77,9.83 -50.34,13.66 -76.92,11.37 -53.23,-4.58 -94.08,-26.11 -122.28,-64.4 -28.33,-38.22 -39.91,-88.29 -34.46,-150.07l1.01 -11.17c3.3,-38.09 13.26,-71.27 29.81,-99.8 16.62,-28.33 38.63,-49.6 66.15,-63.8 27.59,-14.07 59.22,-19.52 94.82,-16.42 43.88,3.84 79.14,20.19 105.86,48.92 26.78,28.87 39.3,64.27 37.48,106.4l-63.19 -5.59c0.2,-25.44 -7.4,-47.11 -23.28,-64.81 -15.75,-17.7 -36.27,-27.73 -61.71,-29.95 -33.92,-2.96 -61.24,6.93 -82.03,29.88 -20.86,22.88 -33.38,57.4 -37.35,103.7l-1.08 12.65c-3.97,45.22 2.22,80.76 18.71,106.73 16.35,25.98 41.86,40.51 76.31,43.47z"/>
  <path id="30" class="fil30" d="M46306.9 18206.74l-66.89 -5.85 34.19 -390.79 66.83 5.85 -34.12 390.79zm-29 -501.16c0.87,-10.7 5.05,-19.72 12.25,-26.65 7.34,-6.8 17.5,-9.62 30.49,-8.55 12.92,1.14 22.54,5.72 28.6,13.8 6.19,8.08 8.68,17.43 7.81,28.33 -1.01,10.77 -5.25,19.58 -12.52,26.11 -7.47,6.73 -17.56,9.42 -30.55,8.34 -13.06,-1.14 -22.54,-5.59 -28.53,-13.39 -6.06,-7.81 -8.55,-17.23 -7.54,-28z"/>
  <path id="31" class="fil30" d="M46605.5 18240.32c-52.96,-4.58 -94.55,-25.77 -124.84,-63.6 -30.15,-37.75 -42.67,-85.8 -37.62,-144.15l1.01 -12.18c3.43,-38.83 13.86,-72.82 31.36,-102.02 17.56,-29.14 40.31,-51.21 68.44,-66.15 28.13,-14.87 57.74,-20.93 88.83,-18.17 50.74,4.31 88.9,24.56 114,60.5 25.3,36.07 35.13,85.33 29.68,147.78l-2.42 27.79 -264.75 -23.15c-2.49,38.76 6.12,71 25.51,96.57 19.52,25.64 45.9,39.91 79.07,42.87 23.69,2.09 44.15,-1.01 61.37,-9.29 17.23,-8.28 32.71,-19.99 46.3,-34.79l38.02 35.26c-37.22,47.58 -88.5,68.51 -153.97,62.72zm22.28 -351.29c-26.99,-2.56 -50.47,5.38 -70.39,23.49 -20.12,18.1 -33.85,44.55 -41.25,79.75l195.77 17.09 0.47 -5.05c1.14,-34.25 -5.79,-61.31 -20.53,-81.56 -14.74,-20.12 -36,-31.43 -64.07,-33.72z"/>
  <path id="32" class="fil30" d="M47083.78 17941.12c-9.96,-2.56 -20.79,-4.44 -32.57,-5.38 -43.88,-3.84 -75.24,12.25 -94.22,48.12l-24.29 277.6 -66.83 -5.72 34.25 -390.86 65.01 5.65 -2.83 45.09c24.9,-32.98 57.61,-47.78 97.85,-44.35 12.99,1.14 22.61,3.77 29.14,7.74l-5.52 62.11z"/>
  <polygon class="fil31" points="34869.68,19859.41 34967.6,19867.96 34963.97,19910.08 34866.12,19901.47 34856.29,20012.31 34811.61,20008.4 34821.23,19897.57 34723.51,19889.02 34727.08,19846.89 34825,19855.44 34833.88,19753.01 34878.7,19756.98 "/>
  <polygon id="1" class="fil31" points="35275.82,19756.45 35101.99,20069.38 35055.22,20065.34 35227.57,19763.92 35037.72,19747.29 35040.89,19710.62 35278.04,19731.34 "/>
  <path id="2" class="fil31" d="M35638.68 19997.5l48.59 4.24 -3.1 36.27 -48.66 -4.37 -7.13 81.83 -44.89 -3.97 7.13 -81.7 -159.76 -14.07 2.36 -26.04 178.34 -229.15 47.51 4.11 -20.39 232.85zm-153.97 -13.46l109.09 9.56 15.07 -171.88 -6.12 9.15 -118.04 153.17z"/>
  <path id="3" class="fil31" d="M35921.67 19985.59c-10.3,10.3 -22.14,18.3 -35.73,23.89 -13.53,5.59 -27.93,7.74 -43.34,6.33 -20.26,-1.68 -37.48,-8.28 -51.55,-19.52 -14.2,-11.24 -24.63,-26.31 -31.23,-45.09 -6.6,-18.78 -8.88,-39.1 -7.07,-60.97 2.15,-23.49 8.41,-44.21 18.98,-62.18 10.57,-17.97 24.43,-31.29 41.66,-39.77 17.3,-8.48 36.81,-11.91 58.75,-9.96 34.66,2.96 60.84,18.37 78.6,46.17 17.77,27.59 24.56,63.86 20.73,108.62l-1.21 13.06c-5.85,68.17 -23.69,116.83 -53.5,145.9 -29.68,29 -71.94,41.52 -126.38,37.55l-8.68 -0.74 3.3 -37.62 9.42 0.81c36.81,2.56 65.88,-4.58 87.28,-21.33 21.4,-16.82 34.66,-45.09 39.97,-85.13zm-68.58 -6.73c14.87,1.28 29.07,-1.95 42.53,-10.03 13.39,-8.01 23.55,-18.37 30.49,-31.29l1.62 -17.7c2.49,-28.94 -1.75,-53.16 -12.92,-72.41 -11.1,-19.31 -26.31,-29.75 -45.76,-31.43 -19.65,-1.75 -36,4.37 -49.19,18.17 -13.19,13.86 -20.79,33.04 -22.95,57.4 -2.09,23.76 1.88,43.81 12.05,60.16 10.16,16.35 24.83,25.44 44.15,27.12z"/>
  <path id="4" class="fil31" d="M36070.39 19977.11l33.18 -173.63 179.68 15.81 -3.5 41.12 -142 -12.38 -18.98 95.02c18.1,-8.68 38.02,-12.05 59.83,-10.16 31.97,2.83 56.53,15.61 73.42,38.43 16.96,22.68 23.82,52.09 20.79,88.02 -3.23,36.14 -15.48,63.73 -36.81,82.78 -21.4,19.04 -49.53,27.19 -84.59,24.09 -31.02,-2.76 -55.52,-13.59 -73.62,-32.37 -18.04,-18.98 -27.19,-43.74 -27.26,-74.36l42.2 3.7c0.94,20.39 6.8,36.27 17.43,47.51 10.63,11.24 25.57,17.63 44.42,19.31 20.73,1.82 37.69,-3.84 50.67,-16.89 13.12,-13.06 20.66,-32.1 22.81,-57 2.09,-23.49 -2.62,-42.87 -14.13,-58.14 -11.58,-15.34 -28,-23.89 -49.19,-25.84 -19.45,-1.62 -34.99,1.28 -46.84,8.75l-12.65 8.55 -34.86 -12.32z"/>
  <polygon id="5" class="fil31" points="36600.35,20200.47 36555.53,20196.63 36581.51,19899.45 36488.78,19924.62 36492.34,19883.97 36624.18,19847.16 36631.24,19847.7 "/>
  <path id="6" class="fil31" d="M36980.98 20233.71l-229.89 -20.05 2.76 -31.83 133.31 -124.43c19.72,-18.84 33.58,-34.39 41.52,-46.5 7.94,-12.25 12.58,-25.1 13.73,-38.83 1.62,-18.37 -2.69,-33.85 -12.65,-46.57 -10.09,-12.65 -24.43,-19.79 -42.8,-21.47 -22.21,-1.88 -39.91,2.89 -53.43,14.33 -13.39,11.64 -21,28.6 -22.95,51.01l-44.55 -3.77c2.76,-32.37 15.48,-57.54 38.02,-75.57 22.54,-18.17 51.21,-25.71 86.07,-22.61 32.57,2.83 57.67,13.66 75.1,32.44 17.43,18.78 24.97,42.46 22.48,70.8 -3.03,34.59 -28.6,73.82 -76.85,117.77l-102.9 93.81 176.12 15.34 -3.1 36.14z"/>
  <path id="7" class="fil31" d="M37130.38 20048.18l33.45 2.96c21.06,1.41 38.09,-2.62 51.08,-12.38 12.99,-9.62 20.26,-23.69 21.87,-41.99 3.63,-41.05 -15.07,-63.39 -55.99,-66.96 -19.31,-1.75 -35.13,2.36 -47.65,12.38 -12.38,9.96 -19.38,24.09 -21.06,42.26l-44.55 -3.97c2.49,-27.79 14.6,-49.93 36.54,-66.56 22.01,-16.69 48.52,-23.62 79.81,-20.79 33.18,2.89 58.35,13.86 75.57,32.98 17.3,19.25 24.56,44.35 21.87,75.44 -1.35,15.28 -7.6,29.68 -18.71,43 -11.1,13.46 -25.51,22.95 -43.2,28.6 18.78,7.81 32.77,19.18 42.06,34.25 9.22,15.14 13.06,32.84 11.24,53.3 -2.76,31.49 -15.21,55.59 -37.42,72.34 -22.14,16.76 -49.67,23.62 -82.64,20.79 -32.98,-2.89 -58.95,-14.2 -78.06,-33.78 -19.11,-19.65 -27.32,-44.08 -24.77,-73.35l44.82 3.97c-1.62,18.51 3.16,33.85 14.2,46.1 11.1,12.11 26.72,19.04 47.04,20.86 21.4,1.95 38.49,-2.36 50.88,-12.58 12.38,-10.36 19.45,-26.04 21.27,-47.18 1.82,-20.59 -3.03,-36.81 -14.6,-48.92 -11.58,-12.05 -29.14,-19.31 -52.76,-21.74l-33.45 -2.83 3.16 -36.21z"/>
  <path id="8" class="fil31" d="M37666.13 20174.9l48.59 4.24 -3.1 36.21 -48.66 -4.31 -7.2 81.77 -44.82 -3.9 7.13 -81.7 -159.76 -14.07 2.36 -26.04 178.34 -229.15 47.51 4.04 -20.39 232.91zm-153.97 -13.46l109.09 9.56 15.07 -171.88 -6.12 9.15 -118.04 153.17z"/>
  <path id="9" class="fil31" d="M37800.59 20128.53l33.24 -173.63 179.68 15.75 -3.57 41.12 -142 -12.32 -18.98 94.96c18.17,-8.68 38.09,-12.05 59.89,-10.16 31.97,2.89 56.53,15.61 73.42,38.49 16.96,22.68 23.82,52.02 20.73,87.96 -3.23,36.14 -15.41,63.73 -36.74,82.84 -21.4,19.04 -49.53,27.12 -84.59,24.02 -31.02,-2.76 -55.52,-13.53 -73.62,-32.37 -18.1,-18.91 -27.19,-43.74 -27.26,-74.3l42.2 3.7c0.94,20.39 6.8,36.21 17.43,47.51 10.63,11.17 25.51,17.63 44.42,19.25 20.73,1.82 37.62,-3.77 50.67,-16.89 13.12,-13.06 20.66,-32.1 22.81,-57 2.09,-23.42 -2.69,-42.87 -14.13,-58.08 -11.58,-15.34 -28,-23.96 -49.19,-25.84 -19.45,-1.68 -34.99,1.21 -46.91,8.68l-12.58 8.55 -34.93 -12.25z"/>
  <path id="10" class="fil31" d="M38389.78 20003.09l-3.3 37.62 -8.14 -0.61c-34.73,-2.42 -63.33,5.38 -85.6,23.55 -22.28,18.1 -36.68,45.16 -43,81.03 20.26,-19.58 46.5,-28 78.4,-25.24 30.55,2.69 53.97,15.68 70.33,38.83 16.35,23.15 23.02,51.68 20.05,85.87 -3.16,36.21 -15.55,64.27 -37.15,84.32 -21.6,19.99 -48.92,28.47 -82.03,25.57 -33.58,-2.83 -59.62,-18.1 -78.33,-45.83 -18.57,-27.59 -26.04,-61.71 -22.48,-102.43l1.48 -17.09c5.59,-64.67 23.69,-112.86 54.24,-144.62 30.55,-31.76 73.08,-45.63 127.59,-41.66l7.94 0.67zm-72.41 153.37c-15.28,-1.28 -29.68,2.02 -43.34,10.03 -13.66,7.94 -23.55,18.57 -29.81,31.83l-1.35 16.35c-2.56,28.8 1.95,52.49 13.39,71.2 11.51,18.71 26.99,28.87 46.37,30.55 20.12,1.88 36.47,-4.24 49.26,-17.83 12.85,-13.73 20.32,-32.44 22.28,-56.19 2.15,-24.02 -2.02,-43.88 -12.32,-59.62 -10.36,-15.88 -25.24,-24.5 -44.48,-26.31z"/>
  <polygon id="11" class="fil31" points="38736.29,20059.21 38562.53,20372.14 38515.75,20368.04 38688.1,20066.62 38498.26,20050.06 38501.35,20013.38 38738.57,20034.11 "/>
  <polygon id="12" class="fil31" points="38943.96,20470.94 38908.03,20467.77 38944.37,20052.15 38980.24,20055.24 "/>
  <path id="13" class="fil31" d="M39275.6 20439.44c-35.33,-2.96 -63.06,-17.09 -83.25,-42.33 -20.12,-25.17 -28.47,-57.2 -25.1,-96.1l0.67 -8.14c2.36,-25.91 9.22,-48.59 20.86,-68.04 11.71,-19.45 26.92,-34.12 45.69,-44.08 18.78,-9.96 38.43,-14 59.22,-12.18 33.78,2.89 59.22,16.42 76.05,40.38 16.82,24.02 23.42,56.87 19.85,98.52l-1.75 18.51 -176.52 -15.41c-1.62,25.84 4.04,47.38 17.03,64.47 13.06,17.03 30.62,26.58 52.76,28.53 15.75,1.41 29.34,-0.61 40.85,-6.19 11.51,-5.52 21.87,-13.26 30.89,-23.22l25.37 23.55c-24.77,31.7 -58.95,45.63 -102.63,41.72zm14.81 -234.26c-17.97,-1.62 -33.65,3.7 -46.97,15.68 -13.32,12.11 -22.48,29.81 -27.46,53.23l130.56 11.44 0.34 -3.43c0.74,-22.81 -3.9,-40.92 -13.66,-54.31 -9.89,-13.46 -24.09,-21 -42.8,-22.61z"/>
  <path id="14" class="fil31" d="M39452.26 20426.32c0.67,-7.74 3.57,-14 8.61,-18.71 5.05,-4.78 12.05,-6.73 21.27,-5.92 9.15,0.87 15.95,3.97 20.26,9.56 4.24,5.52 5.99,12.18 5.32,19.85 -0.67,7.4 -3.5,13.39 -8.68,17.9 -5.18,4.64 -12.38,6.53 -21.53,5.72 -9.22,-0.81 -15.75,-3.9 -19.92,-9.29 -4.24,-5.38 -5.92,-11.78 -5.32,-19.11z"/>
  <path id="15" class="fil31" d="M39600.24 20329.48c3.57,-40.65 15.75,-72.21 36.61,-94.55 20.93,-22.41 46.91,-32.24 77.86,-29.54 31.83,2.76 55.65,16.22 71.54,40.24l4.71 -28.6 40.71 3.57 -22.34 254.38c-2.83,33.65 -15.14,59.29 -36.81,76.99 -21.8,17.7 -49.53,25.03 -83.25,22.14 -18.78,-1.68 -36.74,-7.27 -54.11,-16.82 -17.3,-9.62 -30.08,-21.8 -38.36,-36.61l25.51 -24.56c17.09,25.24 39.44,39.1 66.96,41.52 21.74,1.88 39.17,-2.76 52.36,-13.86 13.26,-11.17 20.73,-27.79 22.75,-50l1.95 -22.34c-19.58,18.98 -44.89,27.12 -75.71,24.43 -30.55,-2.69 -54.11,-17.09 -70.86,-43.34 -16.69,-26.25 -23.22,-60.63 -19.52,-103.03zm44.42 8.95c-2.62,29.48 1.41,53.23 11.98,71 10.57,17.97 26.65,27.79 48.39,29.75 28.06,2.49 49.87,-8.55 65.21,-33.04l10.43 -119.32c-11.37,-26.11 -30.82,-40.45 -58.14,-42.87 -21.6,-1.88 -39.3,5.18 -53.03,21 -13.73,15.81 -21.94,40.31 -24.83,73.49z"/>
  <path id="16" class="fil31" d="M40059.27 20477.33c-19.11,18.78 -45.49,26.78 -79.07,23.82 -27.73,-2.42 -48.25,-12.32 -61.37,-29.75 -13.12,-17.43 -18.44,-41.93 -15.68,-73.62l14.81 -169.66 44.62 3.9 -14.81 168.58c-3.5,39.5 10.83,60.7 43.07,63.53 33.98,2.96 57.74,-7.81 71.2,-32.17l16.62 -189.78 44.55 3.9 -22.75 260.64 -42.46 -3.77 1.28 -25.64z"/>
  <path id="17" class="fil31" d="M40420.19 20406.33c-3.5,39.84 -15.41,71.07 -35.8,93.61 -20.53,22.68 -46.1,32.57 -76.99,29.81 -32.98,-2.89 -57.4,-16.69 -73.35,-41.59l-4.78 29.81 -40.92 -3.57 32.37 -370.06 44.55 3.9 -12.05 138.03c19.92,-20.79 45.76,-29.81 77.32,-26.99 31.63,2.69 55.45,16.89 71.47,42.46 15.95,25.51 22.14,59.09 18.51,100.68l-0.34 3.9zm-44.15 -9.02c2.69,-30.49 -1.14,-54.44 -11.44,-72.07 -10.23,-17.63 -26.38,-27.39 -48.39,-29.34 -29.34,-2.49 -51.75,9.29 -66.96,35.53l-9.89 113.13c11.24,28.53 31.36,44.08 60.23,46.7 21.4,1.75 38.76,-5.11 52.09,-20.59 13.32,-15.55 21.47,-40.04 24.36,-73.35z"/>
  <path id="18" class="fil31" d="M40646.17 20554.45c-2.02,-5.32 -3.43,-14.6 -3.77,-28 -22.61,19.79 -48.32,28.47 -77.05,25.91 -25.77,-2.22 -46.17,-11.37 -61.37,-27.32 -15.14,-16.02 -21.8,-35.2 -19.92,-57.47 2.42,-27.19 14.54,-47.44 36.54,-60.63 21.94,-13.19 51.68,-18.24 89.1,-14.87l43.34 3.77 1.82 -20.59c1.41,-15.68 -2.22,-28.47 -10.7,-38.56 -8.55,-10.16 -21.87,-15.95 -40.04,-17.63 -15.81,-1.28 -29.48,1.55 -40.98,8.75 -11.51,7.07 -17.7,16.42 -18.78,27.86l-44.75 -3.84c1.08,-13.12 6.86,-25.24 17.09,-36.61 10.36,-11.31 23.69,-19.85 40.18,-25.51 16.42,-5.65 34.12,-7.67 53.03,-5.99 30.08,2.62 52.96,12.18 68.64,28.67 15.75,16.56 22.81,38.02 21.06,64.34l-10.5 120.06c-2.02,23.96 -0.67,43.2 4.24,57.88l-0.34 3.9 -46.84 -4.11zm-71 -40.11c14.07,1.21 27.59,-1.35 40.71,-7.4 13.19,-6.19 23.02,-14.81 29.75,-25.84l4.64 -53.57 -34.93 -3.03c-54.58,-4.85 -83.38,8.75 -86.07,40.85 -1.28,13.93 2.42,25.24 11.04,33.98 8.55,8.68 20.26,13.66 34.86,15.01z"/>
  <path id="19" class="fil31" d="M40838.84 20308.75l-1.41 32.71c22.07,-23.28 49.26,-33.51 81.36,-30.75 55.12,4.85 80.22,38.29 75.24,100.61l-15.14 172.28 -44.62 -3.9 15.14 -172.68c1.48,-18.84 -1.55,-33.11 -9.22,-42.87 -7.6,-9.69 -20.39,-15.41 -38.16,-16.96 -14.54,-1.28 -27.52,1.48 -39.17,8.21 -11.58,6.8 -20.93,16.22 -28.13,28.2l-16.29 185.94 -44.62 -3.9 22.81 -260.57 42.2 3.7z"/>
  <path id="20" class="fil31" d="M41065.97 20457.41c2.22,-25.44 9.29,-48.05 21.06,-67.57 11.91,-19.58 27.26,-34.12 46.1,-43.61 18.84,-9.49 39.77,-13.26 62.79,-11.24 35.47,3.1 63.06,17.83 82.91,44.42 19.72,26.45 27.86,60.1 24.29,101.01l-0.2 3.1c-2.29,25.37 -9.15,47.71 -20.59,67.09 -11.51,19.31 -26.78,33.85 -45.83,43.54 -19.11,9.62 -40.31,13.39 -63.8,11.37 -35.33,-3.1 -62.92,-17.97 -82.64,-44.48 -19.85,-26.45 -27.93,-59.89 -24.36,-100.47l0.27 -3.16zm44.35 9.35c-2.56,28.94 2.15,52.9 14.07,71.47 11.84,18.84 29.07,29.14 51.48,31.09 22.61,1.95 41.45,-5.38 56.33,-21.94 14.81,-16.62 23.69,-40.85 26.51,-72.88 2.56,-28.74 -2.22,-52.49 -14.27,-71.47 -11.98,-18.98 -29.27,-29.48 -51.75,-31.43 -22.01,-1.95 -40.51,5.32 -55.59,21.67 -15.01,16.35 -23.89,40.92 -26.78,73.49z"/>
  <polygon id="21" class="fil31" points="41455.34,20564.34 41537.38,20369.86 41583.01,20373.76 41466.58,20626.26 41432.67,20623.23 41360.99,20354.31 41406.62,20358.42 "/>
  <path id="22" class="fil31" d="M42018.82 20552.77c-5.32,38.7 -17.63,68.58 -36.95,89.5 -19.38,21 -43.54,30.22 -72.55,27.66 -30.15,-2.69 -48.18,-17.83 -54.38,-45.63 -9.83,12.99 -20.59,22.28 -32.37,27.93 -11.78,5.72 -23.62,8.01 -35.47,7.07 -22.81,-2.02 -39.23,-12.92 -49.33,-32.57 -10.16,-19.58 -12.25,-45.83 -6.33,-78.54 4.71,-26.25 12.92,-49.46 24.43,-69.32 11.51,-19.99 25.44,-35.26 41.93,-45.83 16.35,-10.5 32.91,-15.07 49.87,-13.66 12.99,1.14 24.43,3.9 34.46,8.28 9.96,4.37 20.93,12.11 32.91,23.35l-24.16 132.37c-6.26,36.88 2.29,56.26 25.91,58.41 18.1,1.55 33.65,-6.19 46.5,-23.28 12.79,-16.96 20.93,-39.84 24.43,-68.64 8.55,-62.25 1.08,-110.91 -22.34,-146.03 -23.35,-35.06 -61.85,-54.85 -115.55,-59.56 -32.3,-2.83 -61.64,2.62 -88.09,16.42 -26.45,13.73 -48.25,35.13 -65.35,64.07 -17.09,28.87 -28.2,62.99 -33.38,102.36 -5.52,39.64 -3.63,74.7 5.32,104.98 8.95,30.35 24.7,54.24 47.04,71.81 22.34,17.63 50.2,27.86 83.78,30.82 14.54,1.21 29.14,0.74 44.01,-1.62 14.87,-2.22 27.32,-5.72 37.48,-10.57l6.39 28.8c-10.5,5.45 -24.16,9.56 -40.92,12.18 -16.89,2.62 -33.72,3.23 -50.54,1.75 -40.24,-3.5 -73.89,-15.55 -101.21,-36.21 -27.39,-20.59 -46.77,-48.52 -58.14,-83.78 -11.44,-35.2 -14.13,-75.51 -8.28,-120.86 5.72,-44.01 19.18,-82.91 40.11,-116.69 20.86,-33.72 47.38,-58.82 79.61,-75.37 32.24,-16.49 67.5,-23.15 105.93,-19.72 39.97,3.43 73.49,15.48 100.47,35.94 27.05,20.53 46.03,48.39 57.07,83.45 10.97,35.2 13.59,75.37 7.67,120.73zm-249 -1.35c-4.17,22.61 -3.63,40.31 1.75,53.1 5.52,12.72 15.28,19.72 29.41,21 9.62,0.87 19.25,-2.42 28.87,-9.89 9.69,-7.34 18.04,-18.44 25.17,-33.24l0.47 -2.09 21.67 -120.26c-8.61,-5.52 -18.04,-8.68 -28.33,-9.56 -18.84,-1.62 -35.13,6.6 -49.13,24.56 -13.93,18.1 -23.96,43.54 -29.88,76.38z"/>
  <path id="23" class="fil31" d="M42247.43 20694.56c-2.02,-5.32 -3.36,-14.67 -3.77,-28 -22.61,19.79 -48.32,28.4 -77.05,25.91 -25.77,-2.29 -46.17,-11.44 -61.37,-27.32 -15.14,-16.08 -21.8,-35.2 -19.92,-57.47 2.49,-27.26 14.54,-47.44 36.54,-60.63 21.94,-13.26 51.68,-18.24 89.1,-14.94l43.34 3.84 1.82 -20.59c1.41,-15.68 -2.22,-28.53 -10.7,-38.56 -8.55,-10.16 -21.87,-15.95 -40.04,-17.63 -15.81,-1.35 -29.48,1.55 -40.98,8.68 -11.51,7.13 -17.7,16.42 -18.71,27.93l-44.82 -3.9c1.08,-13.06 6.86,-25.17 17.09,-36.54 10.36,-11.37 23.69,-19.85 40.18,-25.51 16.42,-5.65 34.19,-7.67 53.03,-6.06 30.08,2.62 52.96,12.25 68.64,28.74 15.75,16.49 22.81,38.02 21.06,64.34l-10.5 120.06c-2.02,23.96 -0.67,43.2 4.24,57.88l-0.34 3.9 -46.84 -4.11zm-71 -40.18c14.07,1.28 27.59,-1.28 40.71,-7.34 13.19,-6.19 23.02,-14.81 29.75,-25.84l4.64 -53.57 -34.93 -3.1c-54.58,-4.85 -83.38,8.82 -86.07,40.85 -1.21,13.93 2.42,25.3 11.04,33.98 8.55,8.75 20.26,13.66 34.86,15.01z"/>
  <path id="24" class="fil31" d="M42520.25 20495.97c-6.6,-1.75 -13.8,-2.96 -21.67,-3.57 -29.21,-2.56 -50.27,8.14 -62.86,32.1l-16.15 185.07 -44.55 -3.84 22.81 -260.64 43.34 3.84 -1.88 30.08c16.56,-22.07 38.36,-31.9 65.21,-29.61 8.68,0.74 15.07,2.49 19.38,5.11l-3.63 41.45z"/>
  <path id="25" class="fil31" d="M42558.54 20588.3c3.57,-40.65 15.75,-72.21 36.68,-94.55 20.86,-22.48 46.84,-32.24 77.8,-29.54 31.83,2.76 55.65,16.22 71.54,40.24l4.71 -28.6 40.71 3.57 -22.34 254.38c-2.83,33.65 -15.14,59.29 -36.81,76.99 -21.8,17.7 -49.53,25.03 -83.25,22.14 -18.78,-1.68 -36.74,-7.27 -54.11,-16.82 -17.3,-9.62 -30.01,-21.8 -38.36,-36.61l25.57 -24.56c17.03,25.24 39.37,39.1 66.96,41.52 21.67,1.88 39.1,-2.76 52.29,-13.86 13.26,-11.17 20.79,-27.79 22.75,-50l2.02 -22.34c-19.65,18.98 -44.95,27.12 -75.71,24.43 -30.62,-2.69 -54.17,-17.09 -70.93,-43.34 -16.69,-26.25 -23.22,-60.63 -19.52,-103.03zm44.42 8.95c-2.62,29.48 1.41,53.16 11.98,71 10.57,17.97 26.65,27.79 48.39,29.68 28.06,2.56 49.87,-8.48 65.21,-32.98l10.43 -119.32c-11.37,-26.11 -30.82,-40.45 -58.14,-42.87 -21.6,-1.88 -39.3,5.18 -52.96,21 -13.8,15.81 -22.01,40.31 -24.9,73.49z"/>
  <path id="26" class="fil31" d="M42854.24 20613.87c2.22,-25.51 9.22,-48.05 21,-67.63 11.91,-19.52 27.26,-34.05 46.1,-43.54 18.91,-9.49 39.84,-13.32 62.86,-11.31 35.47,3.1 63.06,17.9 82.91,44.48 19.72,26.45 27.79,60.1 24.23,100.95l-0.2 3.16c-2.29,25.37 -9.09,47.71 -20.59,67.03 -11.44,19.38 -26.72,33.92 -45.83,43.61 -19.04,9.56 -40.24,13.39 -63.73,11.37 -35.33,-3.1 -62.92,-17.97 -82.64,-44.48 -19.85,-26.45 -27.93,-59.96 -24.36,-100.47l0.27 -3.16zm44.28 9.35c-2.56,28.94 2.22,52.9 14.07,71.47 11.91,18.84 29.07,29.07 51.55,31.09 22.61,1.95 41.39,-5.38 56.33,-22.01 14.81,-16.56 23.69,-40.78 26.45,-72.82 2.62,-28.74 -2.22,-52.49 -14.27,-71.47 -11.98,-19.04 -29.21,-29.54 -51.68,-31.43 -22.07,-1.95 -40.51,5.32 -55.59,21.6 -15.01,16.42 -23.96,40.98 -26.85,73.56z"/>
  <polygon id="27" class="fil31" points="43260.24,20650.89 43142.61,20640.52 43145.7,20604.38 43263.34,20614.68 "/>
  <polygon id="28" class="fil31" points="43360.65,20791.94 43315.97,20788.04 43348.34,20417.97 43392.95,20421.88 "/>
  <polygon id="29" class="fil31" points="43500.49,20804.19 43455.81,20800.29 43488.18,20430.22 43532.8,20434.12 "/>
  <path id="30" class="fil31" d="M43699.09 20790.06c15.81,1.41 30.22,-2.22 42.94,-10.83 12.72,-8.68 20.39,-20.19 22.95,-34.59l42.13 3.77c-2.09,14.81 -8.41,28.6 -19.18,41.25 -10.63,12.65 -24.16,22.28 -40.71,28.94 -16.56,6.66 -33.58,9.22 -51.28,7.6 -35.47,-3.03 -62.72,-17.36 -81.56,-42.94 -18.91,-25.51 -26.58,-58.88 -23.02,-100l0.74 -7.47c2.22,-25.44 8.82,-47.58 19.85,-66.56 11.1,-18.91 25.77,-33.11 44.15,-42.53 18.37,-9.42 39.44,-13.06 63.26,-10.97 29.21,2.56 52.69,13.46 70.59,32.57 17.83,19.31 26.18,42.94 24.97,71l-42.13 -3.77c0.07,-16.89 -4.98,-31.36 -15.55,-43.2 -10.5,-11.78 -24.23,-18.44 -41.19,-19.92 -22.61,-1.95 -40.85,4.58 -54.71,19.85 -13.86,15.28 -22.21,38.36 -24.83,69.25l-0.81 8.34c-2.62,30.22 1.55,53.84 12.52,71.27 10.9,17.3 27.93,26.92 50.88,28.94z"/>
  <path id="31" class="fil31" d="M43873.25 20813.07c0.67,-7.74 3.63,-13.93 8.61,-18.71 5.05,-4.78 12.05,-6.73 21.27,-5.92 9.15,0.87 15.95,3.97 20.26,9.56 4.24,5.59 5.99,12.25 5.32,19.85 -0.61,7.47 -3.5,13.39 -8.68,17.97 -5.18,4.58 -12.38,6.46 -21.53,5.65 -9.22,-0.81 -15.75,-3.84 -19.92,-9.22 -4.17,-5.45 -5.92,-11.78 -5.32,-19.18z"/>
  <path id="32" class="fil31" d="M44127.43 20827.54c15.81,1.41 30.15,-2.22 42.87,-10.83 12.72,-8.68 20.46,-20.19 22.95,-34.59l42.2 3.77c-2.09,14.81 -8.48,28.6 -19.25,41.25 -10.63,12.65 -24.16,22.28 -40.65,28.94 -16.56,6.66 -33.58,9.22 -51.28,7.6 -35.47,-3.03 -62.72,-17.36 -81.56,-42.94 -18.91,-25.51 -26.58,-58.88 -23.02,-100.07l0.74 -7.4c2.22,-25.51 8.82,-47.58 19.85,-66.56 11.04,-18.91 25.77,-33.18 44.15,-42.53 18.37,-9.42 39.44,-13.06 63.26,-10.97 29.21,2.56 52.69,13.46 70.53,32.57 17.83,19.25 26.18,42.94 25.03,71l-42.2 -3.77c0.13,-16.89 -4.91,-31.36 -15.55,-43.2 -10.43,-11.78 -24.16,-18.44 -41.12,-19.92 -22.61,-2.02 -40.85,4.58 -54.71,19.85 -13.93,15.28 -22.21,38.29 -24.83,69.25l-0.81 8.34c-2.62,30.22 1.48,53.84 12.52,71.2 10.9,17.36 27.86,26.99 50.88,29z"/>
  <path id="33" class="fil31" d="M44298.43 20740.19c2.22,-25.44 9.22,-47.98 21,-67.57 11.91,-19.58 27.26,-34.12 46.1,-43.61 18.91,-9.49 39.84,-13.26 62.86,-11.24 35.47,3.1 63.06,17.9 82.91,44.48 19.72,26.45 27.79,60.03 24.23,100.95l-0.2 3.16c-2.29,25.3 -9.09,47.71 -20.59,67.03 -11.44,19.31 -26.72,33.85 -45.83,43.54 -19.04,9.62 -40.24,13.46 -63.73,11.37 -35.33,-3.1 -62.92,-17.9 -82.64,-44.42 -19.85,-26.51 -27.93,-59.96 -24.36,-100.54l0.27 -3.16zm44.28 9.35c-2.56,29 2.22,52.9 14.07,71.54 11.91,18.78 29.07,29.07 51.55,31.02 22.61,2.02 41.39,-5.38 56.33,-21.94 14.81,-16.62 23.69,-40.85 26.45,-72.88 2.62,-28.67 -2.22,-52.49 -14.27,-71.4 -11.98,-19.04 -29.21,-29.54 -51.68,-31.43 -22.07,-2.02 -40.51,5.32 -55.59,21.6 -15.01,16.35 -23.96,40.92 -26.85,73.49z"/>
  <path id="34" class="fil31" d="M44664.93 20643.48l-1.35 28.87c21.06,-20.79 47.85,-29.81 80.29,-27.05 36.54,3.3 60.03,19.45 70.8,48.45 9.83,-11.71 21.94,-20.79 36.47,-27.39 14.6,-6.39 31.36,-8.88 50.27,-7.27 57.2,5.05 83.72,37.82 79.28,98.52l-15.21 174.7 -44.55 -3.97 15.01 -172.15c1.62,-18.64 -1.35,-32.98 -9.09,-42.94 -7.74,-9.96 -21.67,-15.81 -41.66,-17.63 -16.49,-1.48 -30.75,2.29 -42.53,11.24 -11.84,9.02 -19.31,21.74 -22.54,38.29l-15.14 173.15 -44.82 -3.97 14.94 -171c3.36,-37.96 -13.53,-58.48 -50.61,-61.78 -29.27,-2.56 -50.41,8.14 -63.33,32.17l-16.62 190.52 -44.62 -3.84 22.81 -260.64 42.2 3.7z"/>
 </g>
</svg>
