<?xml version="1.0" encoding="UTF-8"?>
<!DOCTYPE svg PUBLIC "-//W3C//DTD SVG 1.1//EN" "http://www.w3.org/Graphics/SVG/1.1/DTD/svg11.dtd">
<!-- Creator: CorelDRAW 2020 (64-Bit) -->
<svg xmlns="http://www.w3.org/2000/svg" xml:space="preserve" width="90mm" height="60mm" version="1.1" style="shape-rendering:geometricPrecision; text-rendering:geometricPrecision; image-rendering:optimizeQuality; fill-rule:evenodd; clip-rule:evenodd"
viewBox="0 0 60567.09 40378.06"
 xmlns:xlink="http://www.w3.org/1999/xlink"
 xmlns:xodm="http://www.corel.com/coreldraw/odm/2003">
 <defs>
  <style type="text/css">
   <![CDATA[
    .str1 {stroke:black;stroke-width:51.28;stroke-miterlimit:22.9256;stroke-opacity:0.490196}
    .str4 {stroke:#4D4D4D;stroke-width:134.59;stroke-miterlimit:22.9256;stroke-opacity:0.549020}
    .str3 {stroke:#CCCCCC;stroke-width:57;stroke-miterlimit:22.9256}
    .str0 {stroke:black;stroke-width:134.59;stroke-miterlimit:22.9256}
    .str2 {stroke:#4D4D4D;stroke-width:51.28;stroke-miterlimit:22.9256}
    .fil3 {fill:black}
    .fil6 {fill:black}
    .fil8 {fill:white}
    .fil0 {fill:#B8DBD6}
    .fil9 {fill:#00B5BD}
    .fil13 {fill:#B8DBD6;fill-rule:nonzero}
    .fil10 {fill:#00B5BD;fill-rule:nonzero}
    .fil7 {fill:gray;fill-opacity:0.450980}
    .fil5 {fill:#CCCCCC;fill-opacity:0.490196}
    .fil12 {fill:gray;fill-opacity:0.549020}
    .fil1 {fill:gray;fill-opacity:0.580392}
    .fil11 {fill:url(#id4)}
    .fil2 {fill:url(#id5)}
    .fil4 {fill:url(#id6);fill-opacity:0.729412}
   ]]>
  </style>
   <mask id="id0">
  <linearGradient id="id1" gradientUnits="userSpaceOnUse" x1="17558.55" y1="4461.3" x2="17559.7" y2="6535.68">
   <stop offset="0" style="stop-opacity:1; stop-color:white"/>
   <stop offset="1" style="stop-opacity:0; stop-color:white"/>
  </linearGradient>
    <rect style="fill:url(#id1)" x="10392.5" y="4326.31" width="15131.88" height="4233.17"/>
   </mask>
   <mask id="id2">
  <linearGradient id="id3" gradientUnits="userSpaceOnUse" x1="10652.09" y1="18550.78" x2="11724.25" y2="18550.59">
   <stop offset="0" style="stop-opacity:1; stop-color:white"/>
   <stop offset="1" style="stop-opacity:0; stop-color:white"/>
  </linearGradient>
    <rect style="fill:url(#id3)" x="10549.78" y="5136.76" width="2252.96" height="25478.29"/>
   </mask>
  <linearGradient id="id4" gradientUnits="userSpaceOnUse" x1="33844.15" y1="10483.83" x2="36833.61" y2="9823.51">
   <stop offset="0" style="stop-opacity:1; stop-color:black"/>
   <stop offset="0.360784" style="stop-opacity:1; stop-color:#04141D"/>
   <stop offset="1" style="stop-opacity:1; stop-color:#09293B"/>
  </linearGradient>
  <linearGradient id="id5" gradientUnits="userSpaceOnUse" xlink:href="#id4" x1="10137.38" y1="22708.62" x2="25692.56" y2="15946.91">
  </linearGradient>
  <linearGradient id="id6" gradientUnits="userSpaceOnUse" x1="10311.72" y1="19317.87" x2="25320.37" y2="19317.87">
   <stop offset="0" style="stop-opacity:1; stop-color:#1A1A1A"/>
   <stop offset="0.819608" style="stop-opacity:1; stop-color:#444952"/>
   <stop offset="1" style="stop-opacity:1; stop-color:#6E798A"/>
  </linearGradient>
 </defs>
 <g id="Layer_x0020_1">
  <metadata id="CorelCorpID_0Corel-Layer"/>
  <rect class="fil0" x="-0" y="-0.02" width="60567.09" height="40378.08"/>
  <path class="fil1" d="M12072.03 5048.33l12784.9 0c710.45,0 1289.81,695.78 1289.81,1548.9l0 26883.85c0,853.12 -579.36,1548.9 -1289.81,1548.9l-12784.9 0c-710.45,0 -1289.81,-695.78 -1289.81,-1548.9l0 -26883.85c0,-853.12 579.36,-1548.9 1289.81,-1548.9z"/>
  <path class="fil2" d="M11602.84 4246.02l12624.4 0c701.5,0 1273.66,699.95 1273.66,1558.26l0 27046.97c0,858.24 -572.16,1558.26 -1273.66,1558.26l-12624.4 0c-701.57,0 -1273.66,-700.02 -1273.66,-1558.26l0 -27046.97c0,-858.3 572.09,-1558.26 1273.66,-1558.26z"/>
  <path class="fil3 str0" style="mask:url(#id0)" d="M25437.84 5664.97l19.25 2827.2 -14997.29 -30.82 25.03 -2807.62c56.73,-366.77 296.24,-1075.81 1075,-1260.13l12973.4 5.79c766.17,421.68 821.76,1017.86 904.6,1265.58z"/>
  <polygon class="fil3 str0" style="mask:url(#id2)" points="10617.07,5204.06 12735.44,5204.06 12735.44,30547.75 10617.07,30547.75 "/>
  <path class="fil4" d="M11571.68 4376.51l12488.73 0c693.96,0 1259.93,693.49 1259.93,1543.79l0 26795.15c0,850.29 -565.97,1543.72 -1259.93,1543.72l-12488.73 0c-693.96,0 -1259.93,-693.43 -1259.93,-1543.72l0 -26795.15c0,-850.29 565.97,-1543.79 1259.93,-1543.79zm92.4 168.78l12333.81 0c665.16,0 1207.64,664.76 1207.64,1479.72l0 26592.99c0,815.03 -542.48,1479.72 -1207.64,1479.72l-12333.81 0c-665.16,0 -1207.64,-664.69 -1207.64,-1479.72l0 -26592.99c0,-814.96 542.48,-1479.72 1207.64,-1479.72z"/>
  <path class="fil5 str1" d="M15280.13 5267.52c193.95,0 351.22,157.27 351.22,351.22 0,193.95 -157.27,351.22 -351.22,351.22 -193.95,0 -351.29,-157.27 -351.29,-351.22 0,-193.95 157.34,-351.22 351.29,-351.22z"/>
  <rect class="fil6 str2" x="16841.37" y="5433.59" width="2147.41" height="370.28" rx="653.05" ry="653.05"/>
  <path class="fil7" d="M33345.82 5048.81l12784.9 0c710.45,0 1289.81,695.71 1289.81,1548.84l0 26883.91c0,853.12 -579.36,1548.84 -1289.81,1548.84l-12784.9 0c-710.45,0 -1289.81,-695.71 -1289.81,-1548.84l0 -26883.91c0,-853.12 579.36,-1548.84 1289.81,-1548.84z"/>
  <path class="fil8" d="M32755.22 4150.26l12624.47 0c701.5,0 1273.66,700.02 1273.66,1558.32l0 27046.91c0,858.3 -572.16,1558.26 -1273.66,1558.26l-12624.47 0c-701.5,0 -1273.66,-699.95 -1273.66,-1558.26l0 -27046.91c0,-858.3 572.16,-1558.32 1273.66,-1558.32z"/>
  <g id="_1423862008064">
   <path class="fil9" d="M37970.52 18469.8l-1045.05 0 0 -1020.22 -105.72 0 0 1020.22 -888.59 0 0 -1020.22 -105.59 0 0 1020.22 -881.45 0 0 -1020.22 -105.66 0 0 1020.22 -895.65 0 0 -1020.22 -105.66 0 0 1020.22 -881.45 0 0 -1020.22 -105.72 0 0 1020.22 -100.27 0 -721.69 -1249.23 58.08 -119.72 5884.43 0.87 0 1368.08zm6389.96 -1768.29c77.46,178.47 232.58,346.65 446.92,398.53l124.36 124.36 124.3 -124.36c214.41,-51.89 369.46,-220.06 446.92,-398.53 -97.85,151.82 -261.38,250.82 -484.67,272.15l0 -299.74c50.94,47.51 94.75,122.48 123.09,213.6 147.11,-36.21 241.6,-103.7 324.5,-212.12 36.14,-47.38 98.79,-11.37 77.59,49.4 -66.22,189.84 -204.18,337.9 -368.52,412.87 -6.26,179.14 -79.48,318.65 -185.81,332.45 -116.09,15.07 -232.31,-124.7 -277.4,-322.42 -174.57,-71.2 -322.49,-224.17 -391.8,-422.89 -21.2,-60.77 41.45,-96.77 77.66,-49.4 78.47,102.63 167.3,168.58 301.35,206.06 17.97,-126.05 71.54,-222.89 146.17,-253.17l0 345.37c-223.29,-21.33 -386.75,-120.33 -484.67,-272.15zm-11321.74 2149.93l148.25 -26.11 9.69 54.91 -148.25 26.11 -9.69 -54.91zm0 -91.46l148.25 -26.11 9.69 54.91 -148.25 26.18 -9.69 -54.98zm0 -90.31l148.25 -26.11 9.69 54.91 -148.25 26.11 -9.69 -54.91zm3925.02 181.77l148.25 -26.11 9.69 54.91 -148.25 26.11 -9.69 -54.91zm0 -91.46l148.25 -26.11 9.69 54.91 -148.25 26.18 -9.69 -54.98zm0 -90.31l148.25 -26.11 9.69 54.91 -148.25 26.11 -9.69 -54.91zm-256.47 181.77l148.25 -26.11 9.69 54.91 -147.38 27.66 -10.57 -56.46zm0 -91.46l148.25 -26.11 9.69 54.91 -148.25 26.18 -9.69 -54.98zm0 -90.31l148.25 -26.11 9.69 54.91 -148.25 26.11 -9.69 -54.91zm6390.43 -5711.34l597.6 0 0 597.6 -597.6 0 0 -597.6zm-1027.82 0l597.6 0 0 597.6 -597.6 0 0 -597.6zm-1003.93 0l597.66 0 0 597.6 -597.66 0 0 -597.6zm-2637.97 9023.35l409.3 0c-164.14,19.52 -259.83,40.38 -409.3,97.24l0 -97.24zm-122.21 664.02c-466.64,279.82 -1004.94,270.13 -1472.79,-0.13 -496.18,-286.35 -1134.09,-283.25 -1606.78,0l-128.81 -223.29c476.06,-277.67 1274.8,-328.88 1856.65,-4.37 435.07,242.54 784.07,260.57 1222.85,4.51 529.22,-308.82 1334.76,-306.13 1864.32,-0.34 376.86,217.57 739.12,277.67 1215.04,0.07 475.99,-277.67 1287.93,-333.05 1864.93,0.07l-129.08 223.49c-496.18,-286.48 -1134.42,-283.52 -1607.11,-0.2 -466.03,279.48 -1004.61,270.47 -1472.18,0.54 -496.25,-286.62 -1134.42,-283.66 -1607.05,-0.34zm196.04 339.51c-578.28,320.94 -1293.11,355.39 -1864.86,-0.07 -370.33,-230.29 -835.56,-210.57 -1214.64,0l-112.99 -195.9c463.27,-255.19 983,-283.18 1441.03,0.4 497.73,308.02 1156.9,264.95 1638.41,-0.34 468.65,-258.15 974.05,-269.46 1440.55,-0.13 507.01,292.67 1157.03,265.28 1638.81,0 481.84,-265.49 992.09,-258.96 1441.09,0.13l-112.99 195.9c-377.94,-218.24 -835.83,-210.77 -1215.04,-0.34 -582.25,323.29 -1287.59,333.52 -1864.25,0.54 -378.14,-218.31 -835.62,-210.77 -1215.11,-0.2zm2554.18 -681.04c-906.02,-1768.56 -1276.49,-2862.06 -1268.34,-5389.19 301.56,-515.49 1111.27,-1242.23 1875.7,-1719.16 800.43,-437.16 1719.23,-844.37 2655.66,-1121.57l1787.94 3096.8 -2935.28 5084.2c-304.72,-151.22 -648,-236.35 -1011.2,-236.35 -400.82,0 -777.34,103.57 -1104.47,285.27zm2293.54 -9914.23l125.78 217.84 -2725.38 0 -74.03 2995.51c-81.5,71.81 -158.35,144.49 -230.22,217.97l78.67 -3431.33 2825.19 0zm-2541.13 -1305.42l1270.29 0 258.02 1064.16 -1559.4 0 31.09 -1064.16zm1529.52 33.51l267.71 0 79.68 138.09 -307.82 0 -39.57 -138.09zm-3025.53 10863.65l1328.37 0 77.8 141.19 -871.36 0c-167.84,-70.66 -347.32,-118.85 -534.81,-141.19zm-1097.34 -4940.46l1.41 -141.19 1314.91 0c0,47.24 0.2,94.28 0.61,141.19l-1316.93 0zm-5622.24 -847l81.5 -141.12 7520.21 0c-46.43,45.36 -93.68,92.47 -140.65,141.12l-7461.06 0zm516.17 -893.97l81.5 -141.19 7032.24 0 -3.43 141.19 -7110.31 0zm543.29 -941.08l81.5 -141.12 6511.9 0 -3.5 141.12 -6589.9 0zm570.54 -988.05l81.5 -141.19 5965.45 0 -3.43 141.19 -6043.52 0zm597.6 -1035.16l81.5 -141.19 5393.1 0 -3.43 141.19 -5471.16 0zm624.85 -1082.2l81.5 -141.19 5020.68 0 -11.37 141.19 -5090.8 0zm2976.47 10257.37l1999.05 0c20.93,47.11 42.46,94.15 64.27,141.19l-2063.32 0 0 -141.19zm0 -517.51l1785.65 0c17.9,47.11 36.14,94.15 54.85,141.12l-1840.5 0 0 -141.12zm0 -564.69l1591.3 0c14.67,47.18 29.68,94.15 45.02,141.19l-1636.32 0 0 -141.19zm0 -611.66l1423.26 0c11.37,47.18 23.08,94.22 35.13,141.12l-1458.39 0 0 -141.12zm0 -658.7l1287.59 0c8.14,47.18 16.62,94.22 25.37,141.12l-1312.96 0 0 -141.12zm-195.5 -705.81l1384.16 0c5.11,47.18 10.5,94.28 16.22,141.12l-1400.38 0 0 -141.12zm0 -752.85l1324.67 0c2.42,47.24 4.98,94.28 7.87,141.12l-1332.54 0 0 -141.12zm-3268.81 4563.39l-1172.78 -2031.15 -650.29 -1126.35 5061.12 0 0 3054.06 -102.56 58.88c-158.21,90.72 -329.48,170.6 -526.06,170.6 -133.11,0 -259.5,-29.07 -373.16,-81.16 -349.27,-205.79 -751.17,-314.14 -1158.11,-314.14 -389.78,0 -756.89,97.51 -1078.16,269.25zm2469.99 -3548.29c50.67,0 91.73,41.12 91.73,91.79 0,50.67 -41.05,91.73 -91.73,91.73 -50.74,0 -91.79,-41.05 -91.79,-91.73 0,-50.67 41.05,-91.79 91.79,-91.79zm-998.75 0c50.67,0 91.73,41.12 91.73,91.79 0,50.67 -41.05,91.73 -91.73,91.73 -50.74,0 -91.79,-41.05 -91.79,-91.73 0,-50.67 41.05,-91.79 91.79,-91.79zm154.72 -114.07l676.8 0c44.21,-35.53 59.76,-56.87 161.44,-56.87 101.69,0 257.68,115.41 257.68,257.75 0,142.33 -143.21,257.68 -257.68,257.68 -114.54,0 -163.4,-42.8 -210.1,-108.35l-579.49 0c-46.77,65.55 -95.63,108.35 -210.1,108.35 -114.47,0 -257.68,-115.35 -257.68,-257.68 0,-142.33 155.99,-257.75 257.68,-257.75 101.69,0 117.3,21.33 161.44,56.87zm-3767.88 0l518.19 0c44.08,-35.53 59.62,-56.87 161.38,-56.87 101.69,0 257.68,115.41 257.68,257.75 0,142.33 -142.94,257.68 -257.68,257.68 -114.81,0 -164.27,-43.34 -210.91,-109.56l-236.01 -3.36c-89.17,-132.51 -146.91,-218.24 -232.64,-345.64zm677.68 114.07c50.67,0 91.73,41.12 91.73,91.79 0,50.67 -41.05,91.73 -91.73,91.73 -50.74,0 -91.79,-41.05 -91.79,-91.73 0,-50.67 41.05,-91.79 91.79,-91.79z"/>
   <path class="fil10" d="M32998.77 27298.86l0 -243.21 208.22 -29 983.34 -2539.31 326.25 0 965.51 2539.31 206.26 29 0 243.21 -806.69 0 0 -243.21 212.25 -36.88 -185.2 -517.38 -1125.67 0 -191.8 517.38 212.86 36.88 0 243.21 -805.34 0zm901.57 -1115.78l892.36 0 -413.2 -1143.51 -23.08 -63.26 -11.84 0 -23.08 63.26 -421.14 1143.51z"/>
   <path id="1" class="fil10" d="M36501.09 27298.86l0 -243.21 315.02 -54.04 0 -2215.07 -315.02 -54.04 0 -243.21 1253.54 0c204.31,0 377,30.96 517.98,91.59 141.05,61.31 248.53,150.27 321.68,265.62 73.15,116.02 110.03,257.68 110.03,425.11 0,164.74 -35.6,303.17 -107.41,415.22 -71.2,111.98 -172.68,196.37 -303.84,253.71 -131.16,57.34 -286.68,87.62 -467.24,91.59l-629.43 11.84 0 957.63 315.02 54.04 0 243.21 -1010.33 0zm1855.91 0l-625.46 -1403.81 380.29 -3.97 519.33 1123.72 195.09 34.93 0 249.13 -469.26 0zm-1160.6 -1554.08l519.33 0c212.25,0 367.1,-40.85 463.34,-121.87 96.84,-81.09 144.96,-199.74 144.96,-355.26 0,-148.32 -46.1,-264.95 -139.04,-351.29 -92.94,-86.34 -235.94,-129.82 -430.36,-129.82l-558.23 0 0 958.24z"/>
   <path id="2" class="fil10" d="M44013.16 27379.28c-181.9,0 -344.69,-34.93 -488.98,-104.78 -143.68,-69.18 -266.29,-167.37 -367.78,-293.95 -100.88,-127.19 -177.93,-277.46 -231.37,-451.43 -53.37,-173.36 -80.35,-365.15 -80.35,-575.39l0 -40.18c0,-208.96 26.99,-400.08 80.35,-574.71 53.43,-173.96 130.49,-324.91 231.37,-452.77 101.48,-127.19 224.1,-225.38 367.78,-295.23 144.28,-69.25 307.08,-104.18 488.98,-104.18 191.8,0 359.84,34.93 505.53,104.18 145.63,69.85 267.57,168.04 365.76,295.23 98.86,127.86 172.68,278.81 223.43,452.77 50.07,174.64 75.1,365.76 75.1,574.71l0 40.18c0,210.24 -25.03,402.03 -75.1,575.39 -50.74,173.96 -124.57,324.24 -223.43,451.43 -98.19,126.59 -220.13,224.77 -365.76,293.95 -145.7,69.85 -313.74,104.78 -505.53,104.78zm0 -316.97c186.55,0 337.43,-46.17 452.77,-139.1 114.67,-92.94 199.74,-222.08 253.78,-388.84 54.04,-166.76 81.03,-360.51 81.03,-580.64l0 -44.15c0,-218.78 -27.66,-411.25 -82.37,-575.99 -54.71,-165.42 -139.71,-295.3 -255.73,-388.24 -115.95,-93.54 -265.55,-140.38 -449.48,-140.38 -168.71,0 -311.72,47.51 -429.02,141.05 -117.3,94.28 -205.66,223.43 -266.29,388.84 -60.63,165.42 -90.92,357.21 -90.92,574.71l0 44.15c0,218.85 30.28,411.92 90.92,578.68 60.63,166.69 149,296.58 266.29,390.12 117.3,92.94 260.3,139.78 429.02,139.78z"/>
   <path id="3" class="fil10" d="M40886.49 27339.71c-259.63,0 -485.08,-60.63 -675.52,-180.56 -190.45,-120.6 -337.43,-287.36 -440.26,-501.56 -102.83,-213.53 -154.85,-460.65 -154.85,-741.41l0 -46.17c0,-283.39 52.02,-531.17 155.52,-744.1 103.44,-213.53 245.84,-379.62 425.72,-499.54 180.62,-119.32 384.94,-179.28 614.28,-179.28 218.78,0 404.66,25.03 556.88,75.17 152.9,50.07 282.71,117.97 390.86,202.97l0 567.45 -312.39 0 -40.92 -407.28c-63.26,-41.52 -140.38,-72.48 -231.3,-93.61 -91.59,-21.06 -199.74,-32.3 -324.91,-32.3 -160.84,0 -305.19,46.84 -434.33,139.1 -128.54,92.94 -230.02,222.08 -305.12,387.49 -74.5,165.42 -112.05,358.56 -112.05,579.96l0 50.14c0,224.03 34.93,419.8 103.44,586.56 69.25,166.09 170.06,295.9 302.5,387.49 132.51,92.26 293.28,138.43 482.45,138.43 128.54,0 237.29,-11.24 326.25,-33.65 88.97,-23.02 167.37,-52.02 235.94,-88.29l0 -660.38 -539.11 -19.11 0 -280.09 919.41 0 0 1089.4c-81.09,75.78 -197.72,145.02 -348.66,208.28 -151.55,63.26 -349.27,94.89 -593.83,94.89z"/>
   <polygon class="fil9" points="33585.12,16507.69 34718.13,16852.25 35777.25,16385.21 37393.85,16997.61 32311.4,16997.61 "/>
  </g>
  <rect class="fil11 str3" x="33981.28" y="6605.38" width="2715.19" height="7096.58" rx="1585.97" ry="1585.97"/>
  <path class="fil12 str4" d="M35338.88 7199.34c449.48,0 813.82,364.34 813.82,813.82 0,449.48 -364.34,813.82 -813.82,813.82 -449.48,0 -813.82,-364.34 -813.82,-813.82 0,-449.48 364.34,-813.82 813.82,-813.82z"/>
  <path class="fil12 str4" d="M35338.88 9390.05c449.48,0 813.82,364.34 813.82,813.82 0,449.48 -364.34,813.75 -813.82,813.75 -449.48,0 -813.82,-364.28 -813.82,-813.75 0,-449.48 364.34,-813.82 813.82,-813.82z"/>
  <path class="fil12 str4" d="M35338.88 11550.01c449.48,0 813.82,364.28 813.82,813.75 0,449.48 -364.34,813.82 -813.82,813.82 -449.48,0 -813.82,-364.34 -813.82,-813.82 0,-449.48 364.34,-813.75 813.82,-813.75z"/>
  <path class="fil12 str4" d="M35338.88 12082.8c155.19,0 281.03,125.78 281.03,280.96 0,155.19 -125.84,281.03 -281.03,281.03 -155.19,0 -280.96,-125.84 -280.96,-281.03 0,-155.19 125.78,-280.96 280.96,-280.96z"/>
  <g id="_1423862015024">
   <path class="fil0" d="M17343.92 18930.92l-544.09 0 0 -531.17 -55.05 0 0 531.17 -462.6 0 0 -531.17 -54.98 0 0 531.17 -458.96 0 0 -531.17 -54.98 0 0 531.17 -466.3 0 0 -531.17 -55.05 0 0 531.17 -458.9 0 0 -531.17 -55.05 0 0 531.17 -52.22 0 -375.72 -650.36 30.28 -62.38 3063.62 0.47 0 712.27zm3326.88 -920.62c40.31,92.94 121.07,180.49 232.71,207.54l64.74 64.67 64.67 -64.67c111.65,-27.05 192.4,-114.61 232.71,-207.54 -50.94,79.01 -136.07,130.62 -252.36,141.73l0 -156.06c26.51,24.7 49.33,63.73 64.13,111.17 76.52,-18.84 125.78,-53.97 168.91,-110.43 18.84,-24.63 51.41,-5.92 40.45,25.71 -34.52,98.86 -106.33,175.91 -191.93,214.95 -3.23,93.27 -41.39,165.89 -96.71,173.09 -60.43,7.87 -121,-64.94 -144.42,-167.84 -90.92,-37.08 -167.91,-116.69 -203.98,-220.2 -11.04,-31.63 21.53,-50.34 40.38,-25.71 40.85,53.43 87.15,87.75 156.94,107.27 9.35,-65.61 37.22,-116.02 76.11,-131.77l0 179.82c-116.29,-11.1 -201.42,-62.72 -252.36,-141.73zm-5894.52 1119.35l77.19 -13.59 5.05 28.6 -77.19 13.59 -5.05 -28.6zm0 -47.58l77.19 -13.66 5.05 28.6 -77.19 13.66 -5.05 -28.6zm0 -47.04l77.19 -13.59 5.05 28.53 -77.19 13.66 -5.05 -28.6zm2043.47 94.62l77.19 -13.59 5.05 28.6 -77.19 13.59 -5.05 -28.6zm0 -47.58l77.19 -13.66 5.05 28.6 -77.19 13.66 -5.05 -28.6zm0 -47.04l77.19 -13.59 5.05 28.53 -77.19 13.66 -5.05 -28.6zm-133.52 94.62l77.19 -13.59 5.05 28.6 -76.72 14.4 -5.52 -29.41zm0 -47.58l77.19 -13.66 5.05 28.6 -77.19 13.66 -5.05 -28.6zm0 -47.04l77.19 -13.59 5.05 28.53 -77.19 13.66 -5.05 -28.6zm3327.15 -2973.57l311.11 0 0 311.11 -311.11 0 0 -311.11zm-535.14 0l311.11 0 0 311.11 -311.11 0 0 -311.11zm-522.69 0l311.18 0 0 311.11 -311.18 0 0 -311.11zm-1373.39 4697.92l213.06 0c-85.47,10.16 -135.27,21 -213.06,50.61l0 -50.61zm-63.66 345.7c-242.94,145.7 -523.23,140.65 -766.78,-0.07 -258.35,-149.06 -590.46,-147.45 -836.57,0l-67.03 -116.29c247.85,-144.49 663.68,-171.2 966.65,-2.22 226.52,126.25 408.15,135.67 636.63,2.29 275.51,-160.77 694.91,-159.36 970.62,-0.13 196.24,113.26 384.8,144.55 632.59,0 247.85,-144.55 670.54,-173.36 971.03,0.07l-67.23 116.36c-258.35,-149.13 -590.66,-147.58 -836.77,-0.07 -242.6,145.5 -523.03,140.78 -766.44,0.27 -258.35,-149.26 -590.66,-147.72 -836.7,-0.2zm102.09 176.79c-301.09,167.1 -673.24,185 -970.96,-0.07 -192.81,-119.86 -435.01,-109.63 -632.39,0l-58.82 -101.95c241.19,-132.84 511.79,-147.45 750.22,0.2 259.16,160.37 602.37,137.89 853.05,-0.2 243.95,-134.39 507.15,-140.25 750.02,-0.07 263.94,152.36 602.37,138.16 853.19,0 250.88,-138.23 516.57,-134.86 750.29,0.07l-58.82 102.02c-196.71,-113.66 -435.14,-109.76 -632.59,-0.2 -303.1,168.31 -670.34,173.69 -970.62,0.27 -196.84,-113.6 -435.01,-109.69 -632.59,-0.07zm1329.78 -354.59c-471.68,-920.75 -664.56,-1490.08 -660.32,-2805.8 157,-268.38 578.55,-646.79 976.54,-895.11 416.7,-227.6 895.05,-439.58 1382.61,-583.93l930.92 1612.3 -1528.24 2647.05c-158.62,-78.74 -337.36,-123.02 -526.46,-123.02 -208.69,0 -404.72,53.9 -575.05,148.52zm1194.11 -5161.73l65.48 113.4 -1418.95 0 -38.49 1559.6c-42.46,37.35 -82.51,75.17 -119.92,113.46l40.98 -1786.46 1470.91 0zm-1322.99 -679.63l661.33 0 134.32 553.99 -811.87 0 16.22 -553.99zm796.32 17.43l139.37 0 41.45 71.87 -160.23 0 -20.59 -71.87zm-1575.22 5656.02l691.61 0 40.51 73.49 -453.71 0c-87.35,-36.81 -180.83,-61.85 -278.41,-73.49zm-571.35 -2572.22l0.74 -73.49 684.61 0c0,24.56 0.13,49.06 0.27,73.49l-685.62 0zm-2927.14 -440.93l42.4 -73.49 3915.33 0c-24.16,23.62 -48.72,48.12 -73.22,73.49l-3884.5 0zm268.72 -465.49l42.46 -73.49 3661.21 0 -1.75 73.49 -3701.93 0zm282.85 -489.92l42.46 -73.49 3390.34 0 -1.82 73.49 -3430.99 0zm297.05 -514.48l42.46 -73.49 3105.81 0 -1.75 73.49 -3146.53 0zm311.18 -538.91l42.4 -73.49 2807.89 0 -1.82 73.49 -2848.47 0zm325.31 -563.48l42.4 -73.49 2613.94 0 -5.92 73.49 -2650.42 0zm1549.64 5340.47l1040.74 0c10.97,24.5 22.14,48.99 33.51,73.49l-1074.26 0 0 -73.49zm0 -269.46l929.7 0c9.29,24.5 18.84,48.99 28.53,73.49l-958.24 0 0 -73.49zm0 -294.02l828.49 0c7.6,24.56 15.48,49.06 23.42,73.49l-851.91 0 0 -73.49zm0 -318.45l741 0c5.92,24.56 12.05,49.06 18.3,73.49l-759.31 0 0 -73.49zm0 -342.94l670.34 0c4.31,24.56 8.68,49.06 13.26,73.49l-683.6 0 0 -73.49zm-101.75 -367.44l720.61 0c2.69,24.56 5.52,49.06 8.48,73.49l-729.09 0 0 -73.49zm0 -392l689.66 0c1.21,24.63 2.56,49.13 4.11,73.49l-693.76 0 0 -73.49zm-1701.94 2375.91l-610.52 -1057.5 -338.64 -586.42 2635.07 0 0 1590.09 -53.43 30.62c-82.37,47.24 -171.54,88.83 -273.83,88.83 -69.38,0 -135.13,-15.14 -194.29,-42.26 -181.9,-107.14 -391.13,-163.53 -602.98,-163.53 -202.97,0 -394.09,50.74 -561.39,140.18zm1285.97 -1847.36c26.45,0 47.78,21.4 47.78,47.78 0,26.38 -21.33,47.71 -47.78,47.71 -26.38,0 -47.71,-21.33 -47.71,-47.71 0,-26.38 21.33,-47.78 47.71,-47.78zm-519.93 0c26.38,0 47.78,21.4 47.78,47.78 0,26.38 -21.4,47.71 -47.78,47.71 -26.38,0 -47.78,-21.33 -47.78,-47.71 0,-26.38 21.4,-47.78 47.78,-47.78zm80.55 -59.42l352.37 0c23.02,-18.51 31.09,-29.61 84.05,-29.61 52.96,0 134.12,60.1 134.12,134.19 0,74.09 -74.5,134.19 -134.12,134.19 -59.62,0 -85.06,-22.28 -109.42,-56.46l-301.69 0c-24.36,34.19 -49.8,56.46 -109.36,56.46 -59.62,0 -134.19,-60.1 -134.19,-134.19 0,-74.09 81.23,-134.19 134.19,-134.19 52.96,0 61.04,11.1 84.05,29.61zm-1961.77 0l269.79 0c23.02,-18.51 31.09,-29.61 84.05,-29.61 52.96,0 134.19,60.1 134.19,134.19 0,74.09 -74.43,134.19 -134.19,134.19 -59.76,0 -85.53,-22.54 -109.83,-57.07l-122.88 -1.75c-46.37,-68.98 -76.45,-113.6 -121.13,-179.95zm352.84 59.42c26.38,0 47.78,21.4 47.78,47.78 0,26.38 -21.4,47.71 -47.78,47.71 -26.38,0 -47.78,-21.33 -47.78,-47.71 0,-26.38 21.4,-47.78 47.78,-47.78z"/>
   <path class="fil13" d="M14755.42 23527.69l0 -126.59 108.42 -15.14 511.99 -1322.11 169.86 0 502.71 1322.11 107.41 15.14 0 126.59 -420 0 0 -126.59 110.43 -19.25 -96.37 -269.39 -586.09 0 -99.87 269.39 110.84 19.25 0 126.59 -419.33 0zm469.39 -580.91l464.62 0 -215.15 -595.37 -11.98 -32.91 -6.19 0 -11.98 32.91 -219.32 595.37z"/>
   <path id="1" class="fil13" d="M16578.89 23527.69l0 -126.59 164.07 -28.2 0 -1153.26 -164.07 -28.13 0 -126.59 652.64 0c106.4,0 196.3,16.08 269.73,47.65 73.42,31.97 129.34,78.27 167.43,138.29 38.09,60.43 57.34,134.19 57.34,221.34 0,85.8 -18.57,157.81 -55.92,216.16 -37.08,58.35 -89.91,102.29 -158.21,132.1 -68.31,29.88 -149.26,45.63 -243.28,47.71l-327.67 6.19 0 498.53 164 28.2 0 126.59 -526.06 0zm966.31 0l-325.65 -730.91 197.99 -2.02 270.4 585.01 101.55 18.24 0 129.68 -244.29 0zm-604.26 -809.11l270.4 0c110.43,0 191.12,-21.27 241.19,-63.46 50.47,-42.2 75.51,-103.97 75.51,-185 0,-77.19 -24.02,-137.89 -72.41,-182.85 -48.39,-44.95 -122.82,-67.63 -224.1,-67.63l-290.59 0 0 498.94z"/>
   <path id="2" class="fil13" d="M18862.21 23548.95c-135.2,0 -252.56,-31.56 -351.76,-94.01 -99.13,-62.79 -175.64,-149.6 -229.21,-261.11 -53.5,-111.17 -80.62,-239.85 -80.62,-386.01l0 -24.02c0,-147.58 27.12,-276.59 80.96,-387.43 53.9,-111.17 128,-197.65 221.68,-260.1 94.01,-62.11 200.41,-93.34 319.79,-93.34 113.93,0 210.71,13.06 289.98,39.17 79.61,26.04 147.18,61.37 203.51,105.66l0 295.43 -162.66 0 -21.27 -212.05c-32.98,-21.6 -73.08,-37.75 -120.46,-48.72 -47.71,-10.97 -103.97,-16.82 -169.18,-16.82 -83.72,0 -158.89,24.36 -226.12,72.41 -66.89,48.39 -119.72,115.62 -158.89,201.76 -38.76,86.14 -58.35,186.68 -58.35,301.96l0 26.11c0,116.63 18.24,218.58 53.9,305.39 36,86.48 88.5,154.04 157.47,201.76 68.98,48.05 152.7,72.01 251.22,72.01 66.89,0 123.49,-5.79 169.86,-17.5 46.3,-11.98 87.15,-27.05 122.82,-45.96l0 -343.82 -280.69 -9.96 0 -145.83 478.68 0 0 567.24c-42.2,39.44 -102.96,75.44 -181.5,108.42 -78.94,32.91 -181.9,49.4 -309.16,49.4z"/>
   <path id="3" class="fil13" d="M20490.05 23569.55c-94.69,0 -179.41,-18.17 -254.58,-54.58 -74.77,-36 -138.63,-87.15 -191.46,-153.03 -52.49,-66.22 -92.67,-144.42 -120.46,-235 -27.79,-90.24 -41.86,-190.11 -41.86,-299.61l0 -20.93c0,-108.75 14.07,-208.28 41.86,-299.2 27.79,-90.58 67.97,-169.18 120.46,-235.74 52.83,-66.22 116.69,-117.37 191.46,-153.71 75.17,-36 159.9,-54.24 254.58,-54.24 99.87,0 187.35,18.24 263.2,54.24 75.84,36.34 139.3,87.49 190.45,153.71 51.48,66.56 89.91,145.16 116.36,235.74 26.04,90.92 39.1,190.45 39.1,299.2l0 20.93c0,109.49 -13.06,209.36 -39.1,299.61 -26.45,90.58 -64.87,168.78 -116.36,235 -51.15,65.88 -114.61,117.03 -190.45,153.03 -75.84,36.41 -163.33,54.58 -263.2,54.58zm0 -165.01c97.11,0 175.71,-24.02 235.74,-72.41 59.76,-48.39 103.97,-115.68 132.1,-202.5 28.2,-86.81 42.26,-187.69 42.26,-302.3l0 -22.95c0,-113.93 -14.47,-214.14 -42.94,-299.94 -28.47,-86.07 -72.75,-153.71 -133.11,-202.09 -60.37,-48.72 -138.29,-73.08 -234.06,-73.08 -87.82,0 -162.25,24.7 -223.36,73.42 -61.04,49.06 -107.07,116.36 -138.63,202.5 -31.56,86.07 -47.31,185.94 -47.31,299.2l0 22.95c0,113.93 15.75,214.47 47.31,301.29 31.56,86.81 77.59,154.45 138.63,203.17 61.11,48.39 135.54,72.75 223.36,72.75z"/>
   <polygon class="fil0" points="15060.75,17909.42 15650.6,18088.76 16202.03,17845.62 17043.71,18164.47 14397.6,18164.47 "/>
  </g>
 </g>
</svg>
