<?xml version="1.0" encoding="UTF-8"?>
<!DOCTYPE svg PUBLIC "-//W3C//DTD SVG 1.1//EN" "http://www.w3.org/Graphics/SVG/1.1/DTD/svg11.dtd">
<!-- Creator: CorelDRAW 2020 (64-Bit) -->
<svg xmlns="http://www.w3.org/2000/svg" xml:space="preserve" width="80mm" height="80mm" version="1.1" style="shape-rendering:geometricPrecision; text-rendering:geometricPrecision; image-rendering:optimizeQuality; fill-rule:evenodd; clip-rule:evenodd"
viewBox="0 0 1583.08 1583.08"
 xmlns:xlink="http://www.w3.org/1999/xlink"
 xmlns:xodm="http://www.corel.com/coreldraw/odm/2003">
 <defs>
  <style type="text/css">
   <![CDATA[
    .fil0 {fill:none}
    .fil1 {fill:#B8DBD6}
    .fil2 {fill:#B8DBD6;fill-rule:nonzero}
   ]]>
  </style>
 </defs>
 <g id="Layer_x0020_1">
  <metadata id="CorelCorpID_0Corel-Layer"/>
  <rect class="fil0" x="0" y="0" width="1583.08" height="1583.08"/>
  <g id="_1423858189152">
   <g>
    <path class="fil1" d="M710.79 771.72l-102.91 0 0 -100.47 -10.41 0 0 100.47 -87.5 0 0 -100.47 -10.4 0 0 100.47 -86.81 0 0 -100.47 -10.4 0 0 100.47 -88.2 0 0 -100.47 -10.41 0 0 100.47 -86.8 0 0 -100.47 -10.41 0 0 100.47 -9.88 0 -71.07 -123.02 5.72 -11.79 579.48 0.09 0 134.72zm629.27 -174.14c7.63,17.57 22.9,34.14 44.01,39.25l12.24 12.24 12.24 -12.24c21.11,-5.11 36.38,-21.68 44.01,-39.25 -9.64,14.95 -25.74,24.7 -47.73,26.8l0 -29.52c5.01,4.68 9.33,12.06 12.12,21.03 14.48,-3.56 23.79,-10.21 31.95,-20.89 3.56,-4.66 9.73,-1.12 7.65,4.86 -6.52,18.7 -20.11,33.28 -36.3,40.66 -0.61,17.64 -7.82,31.38 -18.29,32.74 -11.43,1.48 -22.88,-12.28 -27.32,-31.75 -17.19,-7.01 -31.75,-22.07 -38.58,-41.64 -2.09,-5.98 4.08,-9.53 7.65,-4.86 7.73,10.11 16.48,16.6 29.68,20.29 1.77,-12.41 7.05,-21.95 14.39,-24.93l0 34.01c-21.99,-2.1 -38.09,-11.85 -47.73,-26.8zm-1114.93 211.72l14.6 -2.57 0.95 5.41 -14.6 2.57 -0.95 -5.41zm0 -9l14.6 -2.57 0.95 5.41 -14.6 2.57 -0.95 -5.41zm0 -8.89l14.6 -2.57 0.95 5.41 -14.6 2.57 -0.95 -5.41zm386.52 17.9l14.6 -2.57 0.95 5.41 -14.6 2.57 -0.95 -5.41zm0 -9l14.6 -2.57 0.95 5.41 -14.6 2.57 -0.95 -5.41zm0 -8.89l14.6 -2.57 0.95 5.41 -14.6 2.57 -0.95 -5.41zm-25.26 17.9l14.6 -2.57 0.95 5.41 -14.51 2.72 -1.04 -5.56zm0 -9l14.6 -2.57 0.95 5.41 -14.6 2.57 -0.95 -5.41zm0 -8.89l14.6 -2.57 0.95 5.41 -14.6 2.57 -0.95 -5.41zm629.31 -562.44l58.85 0 0 58.85 -58.85 0 0 -58.85zm-101.22 0l58.85 0 0 58.85 -58.85 0 0 -58.85zm-98.86 0l58.85 0 0 58.85 -58.85 0 0 -58.85zm-259.78 888.59l40.31 0c-16.17,1.92 -25.59,3.97 -40.31,9.58l0 -9.58zm-12.04 65.39c-45.95,27.56 -98.96,26.6 -145.04,-0.01 -48.86,-28.2 -111.68,-27.9 -158.23,0l-12.68 -21.99c46.88,-27.34 125.53,-32.38 182.84,-0.43 42.84,23.89 77.21,25.66 120.42,0.45 52.12,-30.41 131.45,-30.15 183.6,-0.03 37.12,21.43 72.78,27.35 119.65,0 46.88,-27.34 126.83,-32.8 183.66,0.01l-12.71 22.01c-48.86,-28.21 -111.71,-27.92 -158.26,-0.02 -45.89,27.52 -98.93,26.63 -144.97,0.05 -48.87,-28.22 -111.72,-27.93 -158.26,-0.03zm19.31 33.43c-56.95,31.61 -127.34,35 -183.65,-0.01 -36.47,-22.68 -82.28,-20.73 -119.61,0l-11.13 -19.29c45.62,-25.13 96.81,-27.88 141.91,0.04 49.02,30.34 113.93,26.09 161.35,-0.03 46.15,-25.42 95.92,-26.54 141.86,-0.02 49.93,28.82 113.94,26.13 161.38,0 47.45,-26.14 97.7,-25.5 141.92,0.02l-11.13 19.29c-37.21,-21.49 -82.31,-20.75 -119.66,-0.03 -57.33,31.83 -126.79,32.84 -183.59,0.05 -37.24,-21.5 -82.29,-20.75 -119.66,-0.02zm251.53 -67.07c-89.22,-174.16 -125.71,-281.85 -124.9,-530.71 29.69,-50.77 109.43,-122.33 184.71,-169.3 78.82,-43.05 169.3,-83.15 261.53,-110.45l176.07 304.96 -289.06 500.68c-30.01,-14.89 -63.81,-23.28 -99.58,-23.28 -39.47,0 -76.55,10.2 -108.76,28.1zm225.86 -976.33l12.39 21.45 -268.39 0 -7.29 294.99c-8.03,7.07 -15.6,14.23 -22.67,21.46l7.74 -337.91 278.22 0zm-250.24 -128.55l125.09 0 25.41 104.79 -153.57 0 3.06 -104.79zm150.62 3.3l26.36 0 7.85 13.59 -30.32 0 -3.89 -13.59zm-297.94 1069.82l130.81 0 7.66 13.9 -85.81 0c-16.52,-6.96 -34.2,-11.7 -52.66,-13.9zm-108.07 -486.53l0.14 -13.9 129.49 0c-0.01,4.65 0.02,9.28 0.05,13.9l-129.69 0zm-553.66 -83.4l8.02 -13.9 740.57 0c-4.57,4.47 -9.22,9.11 -13.85,13.9l-734.74 0zm50.83 -88.04l8.02 -13.9 692.51 0 -0.34 13.9 -700.2 0zm53.5 -92.67l8.03 -13.9 641.27 0 -0.34 13.9 -648.95 0zm56.18 -97.31l8.03 -13.9 587.46 0 -0.34 13.9 -595.15 0zm58.85 -101.94l8.02 -13.9 531.1 0 -0.34 13.9 -538.78 0zm61.53 -106.57l8.02 -13.9 494.42 0 -1.12 13.9 -501.33 0zm293.12 1010.12l196.86 0c2.07,4.64 4.18,9.27 6.33,13.9l-203.19 0 0 -13.9zm0 -50.97l175.85 0c1.76,4.64 3.56,9.27 5.4,13.9l-181.25 0 0 -13.9zm0 -55.6l156.71 0c1.44,4.64 2.92,9.27 4.43,13.9l-161.14 0 0 -13.9zm0 -60.24l140.16 0c1.12,4.65 2.27,9.28 3.46,13.9l-143.62 0 0 -13.9zm0 -64.87l126.8 0c0.8,4.65 1.64,9.28 2.5,13.9l-129.3 0 0 -13.9zm-19.25 -69.5l136.31 0c0.5,4.65 1.03,9.28 1.59,13.9l-137.9 0 0 -13.9zm0 -74.14l130.45 0c0.24,4.65 0.49,9.28 0.77,13.9l-131.22 0 0 -13.9zm-321.91 449.39l-115.49 -200.02 -64.04 -110.92 498.41 0 0 300.76 -10.1 5.8c-15.58,8.94 -32.45,16.8 -51.8,16.8 -13.11,0 -25.56,-2.86 -36.75,-7.99 -34.39,-20.27 -73.98,-30.94 -114.05,-30.94 -38.39,0 -74.54,9.6 -106.18,26.52zm243.24 -349.43c4.99,0 9.04,4.04 9.04,9.04 0,4.99 -4.04,9.03 -9.04,9.03 -4.99,0 -9.04,-4.04 -9.04,-9.03 0,-4.99 4.05,-9.04 9.04,-9.04zm-98.35 0c4.99,0 9.04,4.04 9.04,9.04 0,4.99 -4.04,9.03 -9.04,9.03 -4.99,0 -9.03,-4.04 -9.03,-9.03 0,-4.99 4.04,-9.04 9.03,-9.04zm15.24 -11.24l66.65 0c4.35,-3.5 5.88,-5.6 15.9,-5.6 10.01,0 25.37,11.36 25.37,25.38 0,14.02 -14.1,25.37 -25.37,25.37 -11.28,0 -16.09,-4.21 -20.69,-10.67l-57.07 0c-4.6,6.46 -9.41,10.67 -20.69,10.67 -11.27,0 -25.37,-11.36 -25.37,-25.37 0,-14.02 15.36,-25.38 25.37,-25.38 10.02,0 11.55,2.1 15.9,5.6zm-371.05 0l51.03 0c4.35,-3.5 5.87,-5.6 15.89,-5.6 10.02,0 25.38,11.36 25.38,25.38 0,14.02 -14.08,25.37 -25.38,25.37 -11.3,0 -16.18,-4.26 -20.77,-10.79l-23.24 -0.33c-8.78,-13.04 -14.47,-21.49 -22.91,-34.04zm66.73 11.24c4.99,0 9.04,4.04 9.04,9.04 0,4.99 -4.04,9.03 -9.04,9.03 -4.99,0 -9.03,-4.04 -9.03,-9.03 0,-4.99 4.04,-9.04 9.03,-9.04z"/>
    <polygon class="fil1" points="278.93,578.5 390.51,612.43 494.81,566.44 654.01,626.74 153.5,626.74 "/>
   </g>
   <path class="fil2" d="M349.79 1532.45l0 -18.72 16.03 -2.23 75.7 -195.5 25.12 0 74.33 195.5 15.88 2.23 0 18.72 -62.11 0 0 -18.72 16.34 -2.84 -14.26 -39.83 -86.67 0 -14.76 39.83 16.39 2.84 0 18.72 -62.01 0zm69.41 -85.9l68.7 0 -31.81 -88.04 -1.78 -4.87 -0.91 0 -1.78 4.87 -32.42 88.04z"/>
   <path id="1" class="fil2" d="M619.43 1532.45l0 -18.72 24.25 -4.16 0 -170.54 -24.25 -4.16 0 -18.72 96.51 0c15.73,0 29.02,2.38 39.88,7.05 10.86,4.72 19.13,11.57 24.76,20.45 5.63,8.93 8.47,19.84 8.47,32.73 0,12.68 -2.74,23.34 -8.27,31.97 -5.48,8.63 -13.29,15.12 -23.39,19.54 -10.1,4.41 -22.07,6.75 -35.97,7.05l-48.46 0.91 0 73.73 24.25 4.16 0 18.72 -77.78 0zm142.88 0l-48.15 -108.08 29.28 -0.3 39.98 86.51 15.02 2.69 0 19.18 -36.13 0zm-89.35 -119.65l39.98 0c16.34,0 28.26,-3.15 35.67,-9.39 7.46,-6.24 11.16,-15.38 11.16,-27.35 0,-11.42 -3.55,-20.4 -10.71,-27.04 -7.15,-6.65 -18.16,-10 -33.13,-10l-42.98 0 0 73.78z"/>
   <path id="2" class="fil2" d="M957.06 1535.6c-19.99,0 -37.34,-4.67 -52.01,-13.9 -14.66,-9.28 -25.98,-22.12 -33.89,-38.61 -7.92,-16.44 -11.92,-35.47 -11.92,-57.08l0 -3.55c0,-21.82 4.01,-40.9 11.97,-57.29 7.97,-16.44 18.93,-29.23 32.78,-38.46 13.9,-9.18 29.63,-13.8 47.29,-13.8 16.85,0 31.16,1.93 42.88,5.78 11.77,3.85 21.77,9.08 30.09,15.63l0 43.69 -24.05 0 -3.15 -31.36c-4.87,-3.2 -10.81,-5.58 -17.81,-7.21 -7.05,-1.62 -15.37,-2.49 -25.01,-2.49 -12.38,0 -23.49,3.6 -33.44,10.71 -9.89,7.15 -17.71,17.1 -23.49,29.84 -5.73,12.74 -8.63,27.6 -8.63,44.65l0 3.86c0,17.25 2.69,32.32 7.97,45.16 5.33,12.79 13.09,22.78 23.29,29.84 10.2,7.1 22.58,10.66 37.14,10.66 9.89,0 18.27,-0.86 25.12,-2.59 6.85,-1.78 12.89,-4.01 18.16,-6.8l0 -50.84 -41.5 -1.47 0 -21.56 70.78 0 0 83.87c-6.24,5.84 -15.22,11.16 -26.84,16.03 -11.67,4.87 -26.89,7.31 -45.72,7.31z"/>
   <path id="3" class="fil2" d="M1197.78 1538.64c-14,0 -26.54,-2.69 -37.65,-8.07 -11.06,-5.33 -20.5,-12.89 -28.31,-22.63 -7.76,-9.79 -13.7,-21.36 -17.81,-34.76 -4.11,-13.35 -6.19,-28.11 -6.19,-44.3l0 -3.09c0,-16.08 2.08,-30.8 6.19,-44.25 4.11,-13.4 10.05,-25.01 17.81,-34.86 7.81,-9.79 17.25,-17.35 28.31,-22.73 11.11,-5.33 23.65,-8.02 37.65,-8.02 14.77,0 27.7,2.69 38.92,8.02 11.21,5.38 20.6,12.94 28.16,22.73 7.61,9.84 13.29,21.46 17.2,34.86 3.86,13.45 5.78,28.16 5.78,44.25l0 3.09c0,16.19 -1.93,30.95 -5.78,44.3 -3.91,13.39 -9.59,24.96 -17.2,34.76 -7.56,9.74 -16.95,17.3 -28.16,22.63 -11.21,5.38 -24.15,8.07 -38.92,8.07zm0 -24.41c14.36,0 25.98,-3.55 34.86,-10.71 8.83,-7.15 15.37,-17.1 19.54,-29.94 4.16,-12.84 6.24,-27.76 6.24,-44.7l0 -3.4c0,-16.85 -2.13,-31.66 -6.34,-44.35 -4.21,-12.74 -10.76,-22.73 -19.69,-29.89 -8.93,-7.21 -20.45,-10.81 -34.61,-10.81 -12.99,0 -24,3.65 -33.03,10.86 -9.03,7.25 -15.83,17.2 -20.5,29.94 -4.67,12.74 -7,27.5 -7,44.25l0 3.4c0,16.85 2.34,31.71 7,44.55 4.67,12.84 11.47,22.83 20.5,30.04 9.03,7.16 20.04,10.76 33.03,10.76z"/>
  </g>
 </g>
</svg>
