<?xml version="1.0" encoding="UTF-8"?>
<!DOCTYPE svg PUBLIC "-//W3C//DTD SVG 1.1//EN" "http://www.w3.org/Graphics/SVG/1.1/DTD/svg11.dtd">
<!-- Creator: CorelDRAW 2020 (64-Bit) -->
<svg xmlns="http://www.w3.org/2000/svg" xml:space="preserve" width="90mm" height="120mm" version="1.1" style="shape-rendering:geometricPrecision; text-rendering:geometricPrecision; image-rendering:optimizeQuality; fill-rule:evenodd; clip-rule:evenodd"
viewBox="0 0 4188.78 5585.04"
 xmlns:xlink="http://www.w3.org/1999/xlink"
 xmlns:xodm="http://www.corel.com/coreldraw/odm/2003">
 <defs>
  <style type="text/css">
   <![CDATA[
    .str0 {stroke:black;stroke-width:9.31;stroke-miterlimit:22.9256;stroke-opacity:0.219608}
    .str1 {stroke:#E6E6E6;stroke-width:15.76;stroke-miterlimit:22.9256;stroke-opacity:0.839216}
    .fil5 {fill:none}
    .fil3 {fill:white}
    .fil8 {fill:white}
    .fil2 {fill:#2E5E8D}
    .fil0 {fill:#88C7ED}
    .fil10 {fill:#2E5E8D}
    .fil11 {fill:#2E5E8D;fill-rule:nonzero}
    .fil12 {fill:#2E5E8D;fill-rule:nonzero}
    .fil4 {fill:gray;fill-opacity:0.450980}
    .fil1 {fill:gray;fill-opacity:0.470588}
    .fil7 {fill:#CCCCCC;fill-opacity:0.839216}
    .fil6 {fill:url(#id0)}
    .fil9 {fill:url(#id1)}
   ]]>
  </style>
  <linearGradient id="id0" gradientUnits="userSpaceOnUse" x1="1239.05" y1="630.77" x2="1074.27" y2="17.32">
   <stop offset="0" style="stop-opacity:1; stop-color:#2E5E8D"/>
   <stop offset="0.580392" style="stop-opacity:1; stop-color:#2963A1"/>
   <stop offset="1" style="stop-opacity:1; stop-color:#2369B5"/>
  </linearGradient>
  <linearGradient id="id1" gradientUnits="userSpaceOnUse" x1="1430.37" y1="647.72" x2="1430.37" y2="0">
   <stop offset="0" style="stop-opacity:1; stop-color:#2369B5"/>
   <stop offset="0.701961" style="stop-opacity:1; stop-color:#428DCE"/>
   <stop offset="1" style="stop-opacity:1; stop-color:#61B2E7"/>
  </linearGradient>
 </defs>
 <g id="Layer_x0020_1">
  <metadata id="CorelCorpID_0Corel-Layer"/>
  <rect class="fil0" x="-0" y="-0" width="4188.78" height="5585.05"/>
  <path class="fil1" d="M3169.04 532.95c189.15,0 342.49,153.34 342.49,342.49 0,189.15 -153.34,342.49 -342.49,342.49 -189.15,0 -342.49,-153.34 -342.49,-342.49 0,-189.15 153.34,-342.49 342.49,-342.49z"/>
  <circle class="fil2" cx="3145.77" cy="852.17" r="342.49"/>
  <path class="fil1" d="M563.07 2158.93c-134.8,112.46 -225.14,788.98 -220.26,992.76 1.35,56.22 702.8,114.53 720.32,61.11 8.1,-24.71 27.96,-89.99 44.69,-161.85 153.44,477.83 280.05,1128.07 337.56,1342.71 26.43,98.65 114.72,801.56 135.8,881 40.78,153.71 2278.88,-448.55 2237.7,-599.59 -21.62,-79.29 -296.45,-732.21 -322.89,-830.86 -57.45,-214.41 -272.51,-839.71 -378.67,-1330.01 49.98,53.29 99.15,99.26 118.36,116.46 41.87,37.5 620.2,-363.73 593.25,-413.09 -97.39,-178.43 -511.9,-716.71 -685.72,-749.38 -46.93,-47.51 -359.45,-22.76 -692.13,-68.5 -61.69,-8.48 -5.5,173.14 -138.67,363.86 -182.94,262.02 -560.73,365.45 -854.64,245.57 -232.23,-94.73 -278.77,-294.07 -329.75,-254.92 -265.4,203.84 -546.32,339.81 -564.97,404.72z"/>
  <path class="fil3" d="M488.15 2134.97c-134.8,112.47 -225.15,788.98 -220.26,992.76 1.35,56.22 702.8,114.54 720.31,61.12 8.1,-24.71 27.96,-89.99 44.69,-161.85 153.44,477.83 280.05,1128.07 337.57,1342.71 26.43,98.65 114.72,801.56 135.8,881 40.78,153.7 2278.88,-448.56 2237.7,-599.59 -21.63,-79.29 -296.46,-732.22 -322.89,-830.87 -57.45,-214.41 -272.51,-839.71 -378.67,-1330 49.98,53.29 99.15,99.26 118.36,116.46 41.87,37.5 620.2,-363.72 593.25,-413.08 -97.39,-178.43 -511.9,-716.71 -685.71,-749.38 -46.93,-47.51 -359.45,-22.76 -692.13,-68.5 -61.69,-8.48 -5.49,173.13 -138.66,363.86 -182.94,262.02 -560.73,365.44 -854.64,245.57 -232.23,-94.73 -278.77,-294.07 -329.75,-254.91 -265.4,203.84 -546.32,339.81 -564.97,404.71z"/>
  <polygon class="fil4" points="733.41,585.22 1891.74,585.22 1891.74,1503.22 733.41,1503.22 "/>
  <path class="fil5 str0" d="M1190.95 627.4l200.88 0c15.81,0 28.76,12.94 28.76,28.76l0 4.84c0,15.81 -12.94,28.76 -28.76,28.76l-200.88 0c-15.81,0 -28.76,-12.95 -28.76,-28.76l0 -4.84c0,-15.82 12.95,-28.76 28.76,-28.76z"/>
  <polygon class="fil6" points="944.06,0.19 1095.78,0.19 1369.26,647.91 1217.53,647.91 "/>
  <path class="fil7 str1" d="M725.59 574.64l1132.05 0 0 898.63 -1132.05 0 0 -898.63zm465.68 40.44l200.69 0c21.84,0 39.7,17.86 39.7,39.7l0 6.67c0,21.84 -17.86,39.7 -39.7,39.7l-200.69 0c-21.84,0 -39.7,-17.86 -39.7,-39.7l0 -6.67c0,-21.83 17.86,-39.7 39.7,-39.7z"/>
  <rect class="fil8" x="775.19" y="750.06" width="1032.85" height="665.23"/>
  <polygon class="fil9" points="1642.97,0 1491.25,0 1217.77,647.72 1369.49,647.72 "/>
  <path class="fil10" d="M1739.14 2345.75c24.58,-15.96 49.92,-29.84 75.8,-41.69l-21.77 -81.25 187.47 -50.23 21.77 81.23c57.81,-5.48 115.89,-2.28 172.29,9.16l30.19 -78.64 181.19 69.55 -30.15 78.55c49.05,28.87 94.37,65.19 134.1,108.6l70.57 -45.83 105.71 162.78 -70.57 45.83c15.76,36.18 27.59,73.37 35.61,111l-95.54 -12.48c-10.75,-1.41 -22.59,4.44 -27.25,11.17 -56.27,-205.03 -241.03,-340.75 -443.91,-343.43 -25.79,-14.31 -52.14,-19.91 -77.75,-15.02 -7.53,1.43 -14.78,3.73 -21.76,6.85 3.3,-1 6.66,-1.83 10.06,-2.49 105.62,-20.14 223.68,138.33 263.69,353.94 11.63,62.66 15.38,123.26 12.26,178.19l251.96 -163.27c-3.23,5.3 -3.99,8.8 -4.14,15.57l-0.44 8.85 -892.1 560.88 2.19 7.66 923.79 -477.94c11.81,13.5 56,5.77 62.08,27.96l36.55 135.82 -1018.3 329.52 0.82 3.06 915.69 -261.46 3.88 14.47c-326.53,88.43 -653.08,177.73 -979.72,265.26l-3.25 -12.15 114.69 -74.32c-13.29,-12.05 -26.1,-24.79 -38.38,-38.2l-70.57 45.83 -105.71 -162.78 70.57 -45.83c-23.49,-53.95 -38.25,-110.12 -44.69,-166.67l-84 -4.4 10.16 -193.82 84.14 4.41c12.48,-56.17 33.18,-110.53 61.7,-161.11l-65.36 -52.94 122.14 -150.83 65.4 52.96c21.34,-18.83 44.31,-36.34 68.9,-52.31zm178.28 46.13c-7.69,2.42 -15.28,5.04 -22.75,7.83 -14.61,-4.59 -29.26,-5.74 -43.64,-2.99 -6.7,1.28 -13.15,3.36 -19.33,6.19 2.72,-0.82 5.49,-1.49 8.3,-2.03 89.82,-17.13 190.21,117.63 224.24,300.98 17.77,95.75 26.04,319.19 -92.06,360.76 -2.93,0.91 -5.92,1.67 -8.95,2.24 -89.82,17.13 -190.21,-117.63 -224.24,-300.98 -20.75,-111.84 -12.02,-215.91 18.33,-283.98 -134.11,113.12 -198.57,297.44 -150.15,478.11 27.12,101.21 85.49,185.71 161.95,245.89l254.08 -164.64c146.69,-118.62 121.92,-302.97 115.72,-379.57 22.95,33.93 49.23,169.64 19.79,291.77l10.61 -6.87c6.99,-29.01 11.14,-61.88 12.02,-97.36 1.05,-42.24 -2.55,-88.22 -11.27,-135.17 -6.17,-33.19 -14.5,-64.69 -24.47,-93.61 -9.96,-28.89 -21.6,-55.45 -34.4,-78.88 -25.42,-46.56 -55.37,-80.86 -86.06,-97.87 -4.85,-2.69 -15.8,-6.44 -29.73,-10.57 -13.93,-4.14 -30.98,-8.69 -47.92,-12.9 -15.39,-3.82 -30.84,-7.35 -43.95,-10.11 4.42,-5.87 9.06,-11.29 13.92,-16.22zm-2.18 105.78c46.35,35.39 88.08,114.37 106.06,210.97 26.04,139.84 -7.59,263.6 -75.09,276.45 -1.2,0.23 -2.4,0.4 -3.6,0.56 -60.01,-9.26 -121.76,-102.69 -144.53,-224.99 -25.44,-136.65 7.41,-257.6 73.37,-270.15 14.4,-2.74 29.2,-0.08 43.78,7.17zm-24.12 178.65c15.3,-2.92 32.4,20.04 38.2,51.27 5.8,31.23 -1.91,58.92 -17.21,61.84 -15.3,2.92 -32.4,-20.04 -38.2,-51.27 -5.79,-31.24 1.91,-58.92 17.21,-61.84zm17.06 -11.25c18.83,-3.59 39.87,24.66 47,63.09 7.13,38.43 -2.34,72.49 -21.17,76.08 -7.96,1.52 -18.63,-5.79 -28.61,-8.73 -14.69,-4.33 -29.22,-27.22 -34.7,-56.74 -6.47,-34.85 2.13,-65.74 19.2,-68.99 8.48,-1.62 12.51,-3.6 18.28,-4.71zm-53.86 -187.03c68.94,-13.14 146,90.29 172.12,231.03 26.11,140.74 -8.6,265.49 -77.54,278.63 -68.94,13.15 -146,-90.29 -172.12,-231.03 -26.12,-140.74 8.6,-265.49 77.54,-278.64zm944.2 574.57l4.13 15.41c-10.69,-0.47 -19.57,0.24 -26.63,2.13 -3.01,0.81 -5.84,2.07 -8.5,3.78 -5.98,3.83 -7.89,9.79 -5.72,17.88l15.94 59.47c2.34,8.72 6.72,12.22 13.15,10.5 14.01,-3.76 25.02,-8.54 33.03,-14.36l4.88 18.21c-7.91,3.68 -13.42,6.16 -16.53,7.43 -2.79,1.2 -5.67,2.3 -8.62,3.31 -2.96,1.01 -6.04,1.95 -9.26,2.81 -18.37,4.92 -35.61,3.65 -51.75,-3.82 -17.08,-8.11 -28.02,-21.13 -32.83,-39.09 -4.78,-17.85 -1.8,-34.5 8.97,-49.96 10.3,-14.67 24.59,-24.44 42.86,-29.34l5.3 -1.42c13.28,-3.56 23.81,-4.54 31.58,-2.96zm-265.94 67.25l59.62 -15.97 13.22 49.35 18.52 -4.97 -13.22 -49.35 59.31 -15.89 31.95 119.25 -59.31 15.89 -13.93 -51.99 -18.83 5.05 13.93 52 -59.31 15.89 -31.95 -119.25zm-63.72 115.18l-18.18 -30.5 -3.77 36.38 21.95 -5.88zm-24.39 26.05l-1.66 10.63 -17.9 4.79 13.35 -131.38 29.42 -7.88 80.06 106.36 -61.49 16.48 -7.06 -8.28 -34.72 9.3zm-171.9 -71.9l59.62 -15.98c43.17,-11.57 69.05,-1.32 77.65,30.75 4.95,18.47 1.85,33.26 -9.3,44.37 -8.55,8.75 -22.75,15.78 -42.57,21.09l6.26 23.35 -59.62 15.97 -32.03 -119.55zm63.88 -0.1l17.02 63.52c5.6,-1.5 9.76,-3.72 12.47,-6.68 2.72,-2.95 3.6,-6.19 2.65,-9.72l-10.76 -40.16c-1.06,-3.95 -4.06,-6.42 -9,-7.43 -4,-0.82 -8.13,-0.66 -12.38,0.48zm-71.83 130.37l-59.62 15.98 -27.78 -103.68 -18.21 4.88 -4.17 -15.57 96.05 -25.73 4.17 15.56 -18.21 4.88 27.78 103.68zm-191.72 -77.94c17.96,-4.81 35.22,-3.49 51.79,3.98 17.49,7.99 28.61,20.86 33.37,38.61 4.76,17.75 1.64,34.55 -9.36,50.4 -10.23,14.53 -24.58,24.27 -43.06,29.22 -18.37,4.92 -35.67,3.66 -51.9,-3.78 -17.29,-8.05 -28.33,-21.05 -33.15,-39.01 -4.75,-17.75 -1.61,-34.44 9.44,-50.08 10.52,-14.72 24.8,-24.5 42.86,-29.34zm5.17 16.8c-3.63,0.97 -5.79,2.28 -6.46,3.9 -1.15,2.76 -0.85,7.4 0.9,13.94l15.81 59c1.28,4.77 2.58,7.98 3.91,9.62 1.94,2.26 5.09,2.81 9.45,1.64 3.43,-0.92 5.45,-2.07 6.08,-3.46 1.06,-2.29 0.75,-6.54 -0.92,-12.77l-15.64 -58.38c-1.95,-7.27 -3.98,-11.72 -6.09,-13.39 -1.48,-0.94 -3.83,-0.98 -7.04,-0.12zm-210.34 39.34l59.62 -15.97c12.97,-3.48 25.19,-4.36 36.67,-2.65 15.39,2.22 24.6,8.98 27.63,20.3 2.17,8.09 0.36,16.31 -5.41,24.64 4.05,1.81 7.49,3.67 10.34,5.57 9.07,6.03 14.67,13.04 16.81,21.02 3.39,12.66 -2.02,24.02 -16.23,34.05 -10.02,7.02 -22.61,12.56 -37.76,16.62l-59.62 15.97 -32.03 -119.56zm63.88 -0.1l8.97 33.47c4.46,-1.2 8.21,-2.98 11.25,-5.35 3.7,-3.22 5.02,-6.8 3.96,-10.74l-2.79 -10.43c-1.06,-3.95 -4.06,-6.42 -9,-7.43 -4,-0.82 -8.13,-0.66 -12.38,0.48zm13.18 49.19l10.35 38.61 3.31 -0.72c4,-0.85 7.08,-2.23 9.24,-4.14 3.08,-2.61 4.19,-5.52 3.33,-8.74l-5.21 -19.45c-1.28,-4.78 -4.4,-7.28 -9.35,-7.51 -2.37,-0.14 -6.26,0.51 -11.65,1.95zm-163.57 -27.08c17.96,-4.81 35.21,-3.49 51.79,3.97 17.49,8 28.62,20.86 33.37,38.61 4.76,17.75 1.64,34.54 -9.35,50.4 -10.23,14.53 -24.59,24.27 -43.06,29.22 -18.37,4.92 -35.67,3.66 -51.9,-3.77 -17.29,-8.05 -28.33,-21.05 -33.15,-39.01 -4.75,-17.75 -1.61,-34.44 9.44,-50.08 10.52,-14.72 24.81,-24.5 42.87,-29.34zm5.17 16.8c-3.63,0.97 -5.79,2.27 -6.46,3.9 -1.15,2.76 -0.85,7.4 0.9,13.94l15.81 59c1.28,4.78 2.58,7.99 3.91,9.63 1.94,2.26 5.09,2.81 9.45,1.64 3.43,-0.92 5.45,-2.08 6.08,-3.47 1.06,-2.29 0.75,-6.54 -0.92,-12.77l-15.64 -58.38c-1.95,-7.26 -3.98,-11.72 -6.09,-13.38 -1.48,-0.94 -3.83,-0.98 -7.04,-0.12zm-226.92 44.12l59.62 -15.98 13.22 49.35 18.52 -4.97 -13.22 -49.35 59.31 -15.89 31.95 119.25 -59.31 15.89 -13.93 -52 -18.84 5.05 13.93 51.99 -59.31 15.89 -31.95 -119.25zm983.42 -666.3c38.13,4.94 76.29,9.71 114.44,14.55 14,1.78 34.56,21.93 38.8,39.15 4.54,18.37 9.06,36.65 13.54,54.89 5.63,22.87 -50.54,10.44 -43.96,36.67 10.98,43.78 21.97,87.56 32.96,131.34 1.8,7.18 8.47,14.52 14.17,15 13.52,1.12 26.62,2.28 39.23,3.33 12.24,1.03 24.21,2.02 35.83,2.96 0.89,3.8 1.86,7.66 2.73,11.38 -80.92,21.68 -161.85,43.37 -242.78,65.05 -1.34,-4.99 -2.71,-10.11 -4.09,-15.27 17.33,-9.31 33.99,-18.38 50.07,-27 15.49,-8.3 30.45,-16.43 44.89,-24.23 5.78,-3.12 8.79,-13.26 6.85,-20.85 -11.92,-46.71 -23.81,-93.42 -35.72,-140.14 -3.56,-13.97 -22.22,-17.11 -40.61,-20.39 -18.09,-3.23 -35.89,-6.55 -39.56,-20.61 -5.83,-22.41 -11.69,-45 -17.6,-67.65 -5.49,-21.02 11.87,-40.63 30.8,-38.17zm-928.03 389.26c0.46,0.77 0.9,1.55 1.33,2.31 0.42,0.77 0.79,1.51 1.11,2.21l19.18 -11.4 5.17 8.68 -49 29.15 -8.13 -13.66c-1.36,-2.28 -2.45,-4.34 -3.26,-6.18 -0.81,-1.82 -1.41,-3.54 -1.79,-5.12 -0.9,-3.84 -0.74,-7.31 0.47,-10.39 1.2,-3.09 3.53,-5.65 7.01,-7.72 2.36,-1.41 4.77,-2.2 7.22,-2.38 2.46,-0.19 4.88,0.24 7.28,1.28 2.4,1.02 4.73,2.63 6.99,4.84 2.27,2.19 4.41,4.99 6.43,8.38zm-5.1 9.01c-0.22,-0.54 -0.53,-1.2 -0.94,-1.98 -0.42,-0.8 -0.88,-1.6 -1.37,-2.42 -1.39,-2.33 -2.75,-4.17 -4.07,-5.5 -1.33,-1.35 -2.62,-2.3 -3.89,-2.85 -1.28,-0.55 -2.52,-0.74 -3.76,-0.57 -1.24,0.17 -2.44,0.59 -3.62,1.29 -1.44,0.85 -2.5,1.91 -3.17,3.18 -0.67,1.26 -0.83,2.84 -0.48,4.78 0.2,0.99 0.59,2.13 1.18,3.43 0.58,1.28 1.4,2.81 2.45,4.57l2.9 4.88 14.78 -8.8zm-20.57 -90.69l-8.97 -25.54 8.24 -2.89 12.32 35.08 -53.79 18.89 -11.83 -33.68 8.24 -2.89 8.48 24.14 13.93 -4.89 -7.28 -20.73 8.24 -2.89 7.28 20.73 15.16 -5.33zm-34.05 -98.69c-4.64,-0.35 -9.65,-0.93 -15.03,-1.73l-28.56 -4.3 -2.62 -13.92 56.04 -10.53 1.87 9.94 -28.39 5.34c-4.16,0.78 -9.03,1.52 -14.59,2.24l0.07 0.36c1.68,0.15 3.57,0.35 5.67,0.61 2.1,0.25 4.18,0.53 6.23,0.84l33.77 5.23 1.2 6.38 -29.56 17.13c-1.79,1.04 -3.63,2.06 -5.5,3.05 -1.86,1 -3.54,1.87 -5.06,2.62l0.07 0.36c5.11,-1.29 9.89,-2.36 14.37,-3.2l28.43 -5.34 1.87 9.94 -56.03 10.53 -2.6 -13.83 24.91 -14.36c4.16,-2.39 8.66,-4.77 13.5,-7.09l-0.04 -0.25zm-20.18 -121.29c-3.48,-0.05 -6.51,0.33 -9.13,1.12 -2.62,0.78 -4.8,1.89 -6.55,3.33 -1.75,1.42 -3.07,3.13 -3.96,5.11 -0.88,1.98 -1.34,4.17 -1.36,6.55 -0.03,2.39 0.36,4.58 1.19,6.59 0.83,2 2.1,3.75 3.82,5.22 1.71,1.48 3.86,2.65 6.46,3.5 2.59,0.87 5.61,1.31 9.09,1.35 3.46,0.05 6.51,-0.32 9.13,-1.11 2.62,-0.78 4.78,-1.89 6.53,-3.33 1.74,-1.42 3.05,-3.13 3.95,-5.11 0.88,-1.98 1.35,-4.17 1.38,-6.55 0.03,-2.39 -0.38,-4.58 -1.21,-6.59 -0.85,-2.01 -2.12,-3.75 -3.82,-5.22 -1.71,-1.48 -3.85,-2.65 -6.44,-3.5 -2.6,-0.86 -5.63,-1.31 -9.09,-1.36zm0.13 -10.44c4.35,0.06 8.33,0.7 11.93,1.94 3.61,1.24 6.72,3.03 9.29,5.36 2.59,2.33 4.59,5.16 6,8.52 1.4,3.35 2.08,7.15 2.02,11.4 -0.06,4.25 -0.83,8.04 -2.32,11.35 -1.5,3.32 -3.57,6.11 -6.22,8.36 -2.63,2.25 -5.79,3.96 -9.43,5.1 -3.63,1.15 -7.63,1.7 -11.98,1.64 -4.35,-0.06 -8.33,-0.71 -11.94,-1.95 -3.61,-1.24 -6.71,-3.02 -9.29,-5.34 -2.59,-2.33 -4.59,-5.16 -6,-8.52 -1.4,-3.35 -2.08,-7.14 -2.02,-11.4 0.06,-4.25 0.83,-8.04 2.32,-11.34 1.5,-3.32 3.57,-6.11 6.22,-8.36 2.63,-2.25 5.79,-3.97 9.42,-5.11 3.64,-1.14 7.63,-1.68 11.98,-1.62zm5.71 -63.05l5.28 -24.89 -22.97 -4.87 2.1 -9.89 55.77 11.83 -2.1 9.89 -24.26 -5.14 -5.28 24.89 24.26 5.15 -2.09 9.89 -55.78 -11.83 2.1 -9.89 22.97 4.87zm66.16 -95.26l-3.95 9.31 -44.45 -18.85 -6.94 16.36 -8.04 -3.41 17.82 -42 8.04 3.41 -6.93 16.33 44.45 18.85zm6.58 -82.12l14.32 -21.04 -19.42 -13.21 5.69 -8.36 47.13 32.07 -5.69 8.36 -20.5 -13.95 -14.32 21.04 20.5 13.95 -5.69 8.36 -47.14 -32.07 5.69 -8.36 19.42 13.22zm91.39 -81.39l-14.72 14.75 6.49 14.02 -7.59 7.6 -24.91 -55.75 6.51 -6.52 55.79 24.81 -7.53 7.54 -14.03 -6.46zm-27.81 -12.92c2.81,5.59 5.11,10.33 6.87,14.23l2.33 4.98 10.14 -10.16 -4.97 -2.32c-3.93,-1.78 -8.68,-4.06 -14.26,-6.86l-0.12 0.12zm82.83 -73.76l-7.71 5.2c-1.16,0.79 -2.11,1.52 -2.85,2.2 -0.74,0.7 -1.36,1.4 -1.84,2.09 -1.09,1.67 -1.6,3.35 -1.53,5.07 0.08,1.7 0.61,3.29 1.59,4.74 0.53,0.79 1.11,1.47 1.73,2.06 0.65,0.6 1.35,1.08 2.13,1.42 0.79,0.33 1.63,0.54 2.56,0.58 0.93,0.04 1.94,-0.09 3.03,-0.43 0.75,-0.22 1.56,-0.56 2.48,-1.05 0.9,-0.47 1.97,-1.12 3.19,-1.95l7.34 -4.95 -10.11 -14.98zm6.18 28.16l1.67 24.69 -9.54 6.43 -1.5 -26.75 -0.09 -0.13c-3.72,0.86 -7.05,0.68 -9.94,-0.53 -2.91,-1.21 -5.43,-3.41 -7.58,-6.6 -2.1,-3.11 -3.17,-6.41 -3.21,-9.87 -0.04,-3.47 1.01,-6.8 3.15,-9.95 0.81,-1.2 1.83,-2.38 3.03,-3.55 1.22,-1.15 2.71,-2.33 4.48,-3.53l16.84 -11.37 31.9 47.26 -8.38 5.65 -11.97 -17.73 -8.85 5.97zm153.18 -49.79l-13.2 -55.47 9.81 -2.33 6.01 25.24 0.15 -0.04 14.2 -30.05 12.16 -2.89 -15.78 32.79 30.83 22.23 -12.57 2.99 -27.61 -19.88 -0.15 0.03 5.96 25.04 -9.81 2.34zm118.91 -47.99c-0.29,-3.47 -0.94,-6.45 -1.98,-8.98 -1.02,-2.53 -2.34,-4.6 -3.94,-6.2 -1.58,-1.61 -3.41,-2.76 -5.47,-3.45 -2.06,-0.69 -4.27,-0.93 -6.66,-0.74 -2.38,0.2 -4.53,0.8 -6.45,1.82 -1.91,1.01 -3.53,2.45 -4.83,4.3 -1.31,1.85 -2.27,4.1 -2.87,6.76 -0.61,2.66 -0.76,5.72 -0.48,9.18 0.28,3.45 0.94,6.45 1.98,8.98 1.02,2.53 2.34,4.58 3.93,6.19 1.58,1.59 3.41,2.74 5.46,3.45 2.06,0.69 4.28,0.95 6.66,0.75 2.38,-0.2 4.52,-0.81 6.44,-1.83 1.92,-1.03 3.53,-2.47 4.83,-4.3 1.31,-1.84 2.28,-4.09 2.87,-6.75 0.61,-2.66 0.77,-5.73 0.49,-9.18zm10.41 -0.86c0.36,4.34 0.1,8.35 -0.79,12.07 -0.89,3.71 -2.39,6.97 -4.45,9.76 -2.07,2.79 -4.7,5.06 -7.91,6.78 -3.2,1.71 -6.92,2.75 -11.16,3.1 -4.24,0.34 -8.08,-0.07 -11.51,-1.23 -3.45,-1.18 -6.42,-2.98 -8.91,-5.4 -2.49,-2.4 -4.49,-5.38 -5.98,-8.89 -1.48,-3.51 -2.42,-7.44 -2.77,-11.77 -0.35,-4.34 -0.08,-8.36 0.81,-12.07 0.89,-3.71 2.37,-6.97 4.44,-9.76 2.07,-2.8 4.7,-5.06 7.91,-6.79 3.2,-1.71 6.92,-2.74 11.16,-3.09 4.24,-0.35 8.08,0.06 11.51,1.22 3.45,1.18 6.41,2.98 8.91,5.4 2.49,2.41 4.5,5.38 5.99,8.89 1.49,3.51 2.4,7.44 2.76,11.78zm79.38 18.87c1.72,-4.32 3.76,-8.94 6.12,-13.83l12.62 -25.98 14.06 1.64 -6.63 56.63 -10.04 -1.18 3.36 -28.69c0.49,-4.2 1.23,-9.07 2.2,-14.6l-0.36 -0.04c-0.65,1.56 -1.41,3.31 -2.27,5.23 -0.86,1.94 -1.75,3.84 -2.66,5.7l-15.04 30.68 -6.45 -0.76 -7.55 -33.32c-0.46,-2.02 -0.88,-4.07 -1.28,-6.15 -0.39,-2.07 -0.73,-3.94 -0.99,-5.61l-0.36 -0.04c-0.29,5.27 -0.69,10.14 -1.22,14.67l-3.37 28.73 -10.03 -1.18 6.63 -56.63 13.97 1.64 6.28 28.06c1.05,4.68 1.98,9.68 2.75,15l0.26 0.03zm135.21 -7l-19.92 53.42 -9.47 -3.54 16.81 -45.07 -22.03 -8.21 -16.81 45.08 -9.47 -3.54 19.92 -53.42 40.97 15.28zm59.96 77.51l-17.81 -10.82 -12.09 9.61 -9.18 -5.58 48.28 -37.38 7.87 4.78 -10.94 60.07 -9.1 -5.54 2.96 -15.15zm5.99 -30.08c-4.76,4.05 -8.83,7.4 -12.21,10.03l-4.28 3.44 12.26 7.45 1.08 -5.37c0.8,-4.23 1.89,-9.39 3.29,-15.47l-0.14 -0.09zm65.12 57.27l19.64 16.17 14.93 -18.13 7.81 6.42 -36.23 44.02 -7.81 -6.43 15.76 -19.15 -19.65 -16.16 -15.75 19.14 -7.81 -6.42 36.23 -44.02 7.81 6.43 -14.92 18.13zm108.77 81.03l6.26 8.52 -45.92 33.78 -5.99 -8.14 21.15 -15.55c2.62,-1.94 6.97,-4.92 13.02,-8.97l-0.1 -0.14c-3.79,0.45 -9.88,0.84 -18.24,1.16l-32.13 1.34 -6.26 -8.52 45.93 -33.78 5.99 8.14 -21.14 15.56c-3.36,2.48 -7.69,5.45 -12.98,8.95l0.1 0.13c3.46,-0.37 9.42,-0.74 17.9,-1.12l32.44 -1.36zm44.12 89.34l-4.37 -8.21c-0.66,-1.24 -1.28,-2.26 -1.89,-3.06 -0.62,-0.82 -1.25,-1.5 -1.88,-2.05 -1.55,-1.27 -3.16,-1.95 -4.88,-2.05 -1.7,-0.1 -3.34,0.26 -4.88,1.08 -0.83,0.44 -1.57,0.95 -2.23,1.5 -0.67,0.58 -1.21,1.23 -1.64,1.97 -0.41,0.74 -0.7,1.56 -0.84,2.48 -0.14,0.92 -0.11,1.94 0.11,3.06 0.14,0.76 0.4,1.62 0.79,2.57 0.37,0.94 0.91,2.08 1.6,3.38l4.15 7.81 15.96 -8.48zm-28.66 3.2l-24.72 -0.94 -5.4 -10.16 26.77 1.31 0.14 -0.07c-0.46,-3.79 0.07,-7.07 1.56,-9.83 1.51,-2.76 3.96,-5.05 7.35,-6.85 3.31,-1.76 6.7,-2.48 10.16,-2.16 3.45,0.33 6.65,1.72 9.57,4.17 1.11,0.94 2.17,2.07 3.2,3.39 1.02,1.33 2.04,2.94 3.04,4.82l9.54 17.94 -50.34 26.76 -4.75 -8.92 18.89 -10.04 -5.01 -9.42z"/>
  <path class="fil8" d="M3079.48 644.35c10.21,-3.32 20.48,-5.82 30.76,-7.56l0 -30.8 71.06 0 0 30.79c20.96,3.54 41.2,10.18 60.06,19.57l18.13 -24.95 57.49 41.77 -18.1 24.92c14.61,14.86 27.2,32 37.13,51.11l29.3 -9.52 21.96 67.58 -29.3 9.52c2.14,14.29 2.8,28.56 2.08,42.63l-32.61 -13.46c-3.67,-1.52 -8.41,-0.57 -10.7,1.36 -0.47,-77.84 -52.95,-143.35 -124.45,-163.52 -7.76,-7.5 -16.55,-11.98 -26.07,-12.68 -2.8,-0.21 -5.58,-0.08 -8.34,0.36 1.26,-0.04 2.53,-0.02 3.79,0.07 39.26,2.89 66,70.12 59.72,150.16 -1.82,23.26 -6.24,45.05 -12.55,64.18l104.58 -33.87c-1.64,1.57 -2.25,2.74 -2.94,5.11l-0.99 3.09 -368.65 113.82 0.05 2.92 371.99 -81.49c2.89,5.89 19.26,7.34 19.3,15.77l0.06 51.5 -391.35 20.04 0 1.16 348.61 -5.69 0 5.49c-123.86,0.33 -247.81,0.97 -371.62,0.97l0 -4.61 47.6 -15.41c-3.56,-5.52 -6.88,-11.24 -9.96,-17.15l-29.3 9.52 -21.96 -67.58 29.3 -9.52c-3.19,-21.31 -3.09,-42.57 -0.01,-63.18l-29.29 -9.52 21.96 -67.58 29.34 9.54c9.74,-18.69 22.21,-35.95 37.09,-51.14l-18.1 -24.91 57.49 -41.77 18.11 24.92c9.33,-4.64 19.11,-8.65 29.32,-11.97zm58.68 33.21c-2.95,0.13 -5.88,0.34 -8.79,0.61 -4.73,-3.01 -9.8,-4.8 -15.15,-5.2 -2.49,-0.18 -4.97,-0.06 -7.42,0.36 1.04,-0.03 2.09,-0.01 3.13,0.07 33.39,2.45 56.13,59.62 50.78,127.69 -2.79,35.54 -21.04,115.35 -66.74,118.86 -1.13,0.04 -2.25,0.03 -3.38,-0.06 -33.39,-2.45 -56.12,-59.62 -50.78,-127.69 3.26,-41.52 16.21,-77.5 33.39,-98.69 -58.14,27.29 -98.41,86.37 -98.41,154.86 0,38.36 12.64,73.77 33.97,102.3l105.46 -34.15c63.12,-28.05 71.83,-95.6 76.9,-123.28 4.9,14.18 1.34,64.66 -20.65,105.06l4.4 -1.43c5.22,-9.6 9.8,-20.83 13.47,-33.29 4.37,-14.84 7.46,-31.44 8.82,-48.87 0.96,-12.32 1,-24.25 0.21,-35.43 -0.79,-11.17 -2.39,-21.66 -4.69,-31.16 -4.58,-18.87 -11.92,-33.84 -21.16,-42.76 -1.47,-1.41 -4.98,-3.77 -9.51,-6.56 -4.54,-2.78 -10.13,-6.01 -15.73,-9.1 -5.08,-2.81 -10.21,-5.52 -14.59,-7.74 2.12,-1.66 4.28,-3.13 6.46,-4.42zm-10.8 37.2c13.04,16.91 20.32,48.79 17.52,84.66 -4.04,51.92 -27.66,92.51 -52.75,90.65 -0.45,-0.03 -0.89,-0.08 -1.33,-0.14 -20.35,-8.96 -33.33,-47.85 -29.8,-93.27 3.96,-50.74 27.03,-90.4 51.55,-88.59 5.35,0.4 10.33,2.74 14.81,6.68zm-25.46 60.9c5.68,0.42 9.56,10.16 8.65,21.75 -0.91,11.59 -6.26,20.66 -11.94,20.24 -5.69,-0.42 -9.56,-10.16 -8.65,-21.75 0.91,-11.6 6.26,-20.66 11.95,-20.24zm7.1 -2.36c7,0.51 11.77,12.5 10.64,26.76 -1.12,14.27 -7.7,25.42 -14.7,24.9 -2.96,-0.22 -6.04,-3.82 -9.29,-5.8 -4.78,-2.93 -7.75,-12.4 -6.89,-23.35 1.01,-12.94 6.98,-23.05 13.33,-22.58 3.15,0.23 4.76,-0.09 6.91,0.07zm-1.32 -71.25c25.63,1.88 43.07,45.76 38.98,98.01 -4.1,52.25 -28.2,93.07 -53.83,91.19 -25.63,-1.88 -43.08,-45.77 -38.98,-98.02 4.1,-52.25 28.2,-93.07 53.83,-91.19zm279.47 292.67l0 5.84c-3.74,-1.18 -6.94,-1.77 -9.62,-1.77 -1.14,0 -2.26,0.18 -3.36,0.53 -2.48,0.79 -3.72,2.71 -3.72,5.78l0 22.54c0,3.3 1.22,4.96 3.66,4.96 5.31,0 9.66,-0.65 13.04,-1.95l0 6.91c-3.15,0.55 -5.33,0.9 -6.55,1.06 -1.1,0.16 -2.22,0.27 -3.36,0.35 -1.14,0.08 -2.32,0.12 -3.54,0.12 -6.97,0 -12.94,-2.09 -17.94,-6.26 -5.27,-4.48 -7.91,-10.13 -7.91,-16.93 0,-6.77 2.63,-12.37 7.91,-16.82 5.03,-4.21 11.01,-6.31 17.94,-6.31l2.01 0c5.04,0 8.85,0.65 11.44,1.95zm-100.42 -1.41l22.6 0 0 18.71 7.02 0 0 -18.71 22.48 0 0 45.2 -22.48 0 0 -19.71 -7.14 0 0 19.71 -22.48 0 0 -45.2zm-33.45 34.7l-3.54 -12.51 -4.78 12.51 8.32 0zm-11.1 6.9l-1.59 3.6 -6.79 0 17.17 -45.2 11.15 0 18.23 45.2 -23.3 0 -1.71 -3.6 -13.16 0zm-53.98 -41.72l22.6 0c16.36,0 24.55,6.08 24.55,18.23 0,7 -2.5,11.94 -7.49,14.81 -3.85,2.29 -9.54,3.43 -17.05,3.43l0 8.85 -22.6 0 0 -45.31zm22.6 6.02l0 24.07c2.12,0 3.81,-0.39 5.05,-1.18 1.24,-0.79 1.86,-1.85 1.86,-3.19l0 -15.22c0,-1.49 -0.82,-2.65 -2.48,-3.48 -1.34,-0.67 -2.82,-1 -4.43,-1zm-37.75 39.3l-22.6 0 0 -39.3 -6.9 0 0 -5.9 36.41 0 0 5.9 -6.9 0 0 39.3zm-60.42 -45.73c6.8,0 12.79,2.1 17.94,6.31 5.43,4.49 8.14,10.09 8.14,16.82 0,6.73 -2.69,12.37 -8.08,16.93 -5,4.17 -11,6.26 -18,6.26 -6.96,0 -12.96,-2.09 -18,-6.26 -5.35,-4.48 -8.02,-10.13 -8.02,-16.93 0,-6.73 2.69,-12.33 8.08,-16.82 5.11,-4.21 11.09,-6.31 17.94,-6.31zm0.24 6.43c-1.38,0 -2.26,0.26 -2.66,0.77 -0.67,0.86 -1,2.54 -1,5.01l0 22.36c0,1.81 0.16,3.07 0.47,3.78 0.47,0.98 1.54,1.48 3.19,1.48 1.3,0 2.12,-0.22 2.48,-0.65 0.59,-0.71 0.88,-2.24 0.88,-4.6l0 -22.13c0,-2.76 -0.29,-4.52 -0.88,-5.31 -0.43,-0.47 -1.26,-0.71 -2.48,-0.71zm-78.12 -6.02l22.6 0c4.91,0 9.32,0.84 13.22,2.54 5.23,2.24 7.85,5.51 7.85,9.79 0,3.07 -1.42,5.8 -4.25,8.2 1.26,1.02 2.3,2.01 3.13,2.95 2.63,2.99 3.95,6 3.95,9.03 0,4.8 -2.99,8.3 -8.97,10.5 -4.21,1.54 -9.19,2.3 -14.93,2.3l-22.6 0 0 -45.31zm22.6 6.02l0 12.69c1.69,0 3.18,-0.28 4.48,-0.83 1.62,-0.79 2.42,-1.93 2.42,-3.42l0 -3.96c0,-1.49 -0.83,-2.65 -2.48,-3.48 -1.34,-0.67 -2.81,-1 -4.42,-1zm0 18.64l0 14.63 1.24 0.06c1.49,0.08 2.71,-0.12 3.66,-0.59 1.34,-0.63 2.01,-1.55 2.01,-2.77l0 -7.37c0,-1.81 -0.87,-2.99 -2.6,-3.54 -0.82,-0.27 -2.26,-0.41 -4.31,-0.41zm-55.28 -25.08c6.8,0 12.79,2.1 17.94,6.31 5.43,4.49 8.14,10.09 8.14,16.82 0,6.73 -2.69,12.37 -8.08,16.93 -5,4.17 -11,6.26 -18,6.26 -6.96,0 -12.96,-2.09 -18,-6.26 -5.35,-4.48 -8.02,-10.13 -8.02,-16.93 0,-6.73 2.69,-12.33 8.08,-16.82 5.11,-4.21 11.09,-6.31 17.94,-6.31zm0.24 6.43c-1.38,0 -2.26,0.26 -2.66,0.77 -0.67,0.86 -1,2.54 -1,5.01l0 22.36c0,1.81 0.15,3.07 0.47,3.78 0.47,0.98 1.54,1.48 3.19,1.48 1.3,0 2.12,-0.22 2.48,-0.65 0.59,-0.71 0.88,-2.24 0.88,-4.6l0 -22.13c0,-2.76 -0.29,-4.52 -0.88,-5.31 -0.43,-0.47 -1.26,-0.71 -2.48,-0.71zm-84.43 -5.9l22.6 0 0 18.71 7.02 0 0 -18.71 22.48 0 0 45.2 -22.48 0 0 -19.71 -7.14 0 0 19.71 -22.48 0 0 -45.2zm410.93 -142.45c13.02,5.36 26.06,10.66 39.1,15.99 4.78,1.95 10.14,11.03 10.01,17.52 -0.13,6.92 -0.27,13.81 -0.41,20.69 -0.18,8.62 -18.86,-1.1 -19.02,8.8 -0.27,16.52 -0.53,33.04 -0.79,49.57 -0.04,2.71 1.62,5.94 3.59,6.65 4.67,1.68 9.2,3.32 13.56,4.9 4.23,1.52 8.37,3.01 12.39,4.44 -0.04,1.43 -0.07,2.89 -0.11,4.29 -30.68,0 -61.35,0 -92.03,0 0,-1.89 0,-3.84 0,-5.79 7.01,-1.65 13.77,-3.28 20.27,-4.8 6.26,-1.47 12.33,-2.93 18.17,-4.31 2.34,-0.55 4.36,-3.85 4.4,-6.73 0.21,-17.65 0.43,-35.3 0.65,-52.95 0.07,-5.28 -6.24,-8.15 -12.43,-11.06 -6.09,-2.85 -12.07,-5.72 -12.04,-11.04 0.06,-8.48 0.13,-17.02 0.19,-25.59 0.05,-7.95 8.05,-13.25 14.51,-10.58zm-365.08 49.73c0.09,0.32 0.17,0.63 0.25,0.94 0.08,0.31 0.14,0.61 0.19,0.88l7.86 -2.22 1.01 3.56 -20.09 5.67 -1.58 -5.6c-0.27,-0.94 -0.46,-1.77 -0.57,-2.5 -0.11,-0.72 -0.16,-1.38 -0.15,-1.98 0.05,-1.45 0.43,-2.66 1.15,-3.63 0.71,-0.98 1.78,-1.67 3.21,-2.07 0.97,-0.27 1.89,-0.33 2.78,-0.16 0.89,0.16 1.7,0.55 2.45,1.14 0.75,0.59 1.42,1.38 2.02,2.37 0.6,0.99 1.08,2.18 1.48,3.57zm-2.66 2.7c-0.02,-0.21 -0.07,-0.47 -0.14,-0.79 -0.07,-0.32 -0.16,-0.65 -0.26,-0.99 -0.27,-0.95 -0.58,-1.74 -0.92,-2.33 -0.34,-0.61 -0.71,-1.06 -1.11,-1.38 -0.4,-0.31 -0.82,-0.5 -1.28,-0.56 -0.46,-0.06 -0.92,-0.02 -1.4,0.11 -0.59,0.17 -1.07,0.44 -1.42,0.82 -0.36,0.39 -0.56,0.93 -0.62,1.65 -0.02,0.37 0.01,0.81 0.09,1.33 0.08,0.51 0.23,1.12 0.43,1.85l0.56 2 6.06 -1.71zm1.32 -34.02l-0.75 -9.89 3.19 -0.24 1.03 13.58 -20.81 1.58 -0.99 -13.03 3.18 -0.24 0.71 9.34 5.39 -0.41 -0.61 -8.02 3.19 -0.24 0.61 8.02 5.86 -0.45zm-2.69 -38.13c-1.61,-0.56 -3.32,-1.24 -5.15,-2.03l-9.69 -4.23 0.4 -5.17 20.81 1.58 -0.28 3.69 -10.55 -0.8c-1.55,-0.12 -3.34,-0.32 -5.38,-0.59l-0.01 0.13c0.58,0.21 1.23,0.47 1.95,0.75 0.72,0.29 1.43,0.59 2.12,0.89l11.45 5.05 -0.18 2.36 -12.08 3.26c-0.73,0.2 -1.48,0.39 -2.23,0.56 -0.75,0.18 -1.43,0.33 -2.04,0.45l-0.01 0.13c1.93,0.03 3.72,0.1 5.38,0.23l10.56 0.81 -0.28 3.69 -20.81 -1.58 0.39 -5.14 10.17 -2.72c1.7,-0.45 3.51,-0.87 5.45,-1.23l0 -0.09zm4.36 -44.81c-1.22,-0.35 -2.33,-0.5 -3.33,-0.47 -1,0.03 -1.88,0.21 -2.63,0.55 -0.75,0.34 -1.38,0.82 -1.88,1.43 -0.5,0.62 -0.87,1.35 -1.1,2.19 -0.24,0.84 -0.31,1.65 -0.2,2.44 0.1,0.79 0.39,1.52 0.86,2.21 0.47,0.68 1.11,1.3 1.95,1.85 0.83,0.55 1.86,1 3.09,1.34 1.22,0.34 2.34,0.5 3.34,0.47 1,-0.03 1.87,-0.21 2.62,-0.56 0.75,-0.34 1.38,-0.82 1.88,-1.43 0.5,-0.62 0.87,-1.35 1.11,-2.19 0.24,-0.84 0.3,-1.66 0.2,-2.44 -0.11,-0.79 -0.4,-1.53 -0.86,-2.21 -0.47,-0.69 -1.11,-1.3 -1.95,-1.85 -0.84,-0.55 -1.87,-1 -3.09,-1.34zm1.04 -3.68c1.54,0.43 2.88,1.04 4.04,1.82 1.16,0.78 2.09,1.71 2.77,2.78 0.7,1.07 1.14,2.26 1.32,3.58 0.18,1.32 0.06,2.72 -0.37,4.23 -0.42,1.5 -1.06,2.76 -1.89,3.79 -0.84,1.04 -1.84,1.82 -2.99,2.37 -1.14,0.54 -2.42,0.85 -3.82,0.91 -1.39,0.07 -2.86,-0.12 -4.39,-0.55 -1.53,-0.43 -2.88,-1.04 -4.04,-1.82 -1.16,-0.78 -2.09,-1.71 -2.78,-2.77 -0.69,-1.07 -1.14,-2.26 -1.31,-3.58 -0.18,-1.32 -0.06,-2.73 0.37,-4.23 0.42,-1.5 1.05,-2.76 1.89,-3.79 0.84,-1.03 1.84,-1.82 2.99,-2.37 1.14,-0.55 2.42,-0.86 3.82,-0.92 1.4,-0.06 2.86,0.13 4.39,0.56zm8 -21.75l4.22 -8.3 -7.66 -3.9 1.68 -3.3 18.6 9.47 -1.68 3.3 -8.09 -4.12 -4.23 8.3 8.09 4.12 -1.68 3.3 -18.61 -9.47 1.68 -3.3 7.67 3.9zm32.43 -27.42l-2.28 2.92 -13.93 -10.88 -4.01 5.13 -2.52 -1.96 10.28 -13.17 2.52 1.97 -4 5.11 13.93 10.88zm10.11 -28.42l7.06 -6.08 -5.61 -6.52 2.8 -2.42 13.63 15.81 -2.81 2.42 -5.92 -6.87 -7.06 6.08 5.93 6.87 -2.8 2.42 -13.63 -15.81 2.81 -2.42 5.61 6.52zm40.03 -20.12l-6.6 3.82 0.97 5.57 -3.41 1.97 -3.53 -22.07 2.92 -1.69 17.38 14.06 -3.37 1.95 -4.35 -3.62zm-8.61 -7.2c0.47,2.24 0.82,4.14 1.08,5.68l0.35 1.98 4.55 -2.63 -1.54 -1.29c-1.22,-1 -2.69,-2.26 -4.39,-3.77l-0.05 0.03zm36.28 -18.24l-3.22 1.11c-0.48,0.17 -0.89,0.34 -1.21,0.51 -0.33,0.18 -0.61,0.36 -0.85,0.56 -0.54,0.48 -0.88,1.03 -1.02,1.65 -0.13,0.61 -0.09,1.22 0.11,1.82 0.12,0.33 0.25,0.62 0.42,0.89 0.17,0.27 0.38,0.51 0.62,0.71 0.24,0.19 0.53,0.34 0.85,0.45 0.33,0.1 0.69,0.15 1.11,0.13 0.29,-0.01 0.61,-0.05 0.98,-0.14 0.36,-0.08 0.8,-0.21 1.31,-0.39l3.06 -1.06 -2.15 -6.26zm-0.48 10.55l-1.75 8.89 -3.98 1.37 2.01 -9.6 -0.02 -0.06c-1.4,-0.05 -2.56,-0.43 -3.47,-1.13 -0.91,-0.71 -1.6,-1.72 -2.06,-3.05 -0.45,-1.3 -0.51,-2.56 -0.2,-3.8 0.32,-1.23 1,-2.3 2.06,-3.22 0.4,-0.34 0.87,-0.67 1.41,-0.96 0.54,-0.29 1.18,-0.57 1.92,-0.82l7.03 -2.42 6.8 19.74 -3.5 1.21 -2.55 -7.4 -3.7 1.27zm58.89 -3.1l0.58 -20.86 3.69 0.1 -0.27 9.5 0.06 0 7.87 -9.29 4.58 0.13 -8.68 10.1 8.8 10.78 -4.73 -0.13 -7.88 -9.65 -0.06 -0 -0.27 9.42 -3.69 -0.1zm46.6 -5.7c0.22,-1.26 0.28,-2.37 0.15,-3.36 -0.12,-0.99 -0.39,-1.85 -0.81,-2.56 -0.4,-0.72 -0.94,-1.3 -1.61,-1.74 -0.66,-0.44 -1.42,-0.74 -2.29,-0.89 -0.86,-0.16 -1.68,-0.15 -2.45,0.03 -0.77,0.18 -1.48,0.54 -2.12,1.07 -0.64,0.53 -1.19,1.23 -1.65,2.12 -0.47,0.88 -0.81,1.95 -1.04,3.2 -0.23,1.25 -0.28,2.37 -0.15,3.36 0.12,0.99 0.39,1.84 0.8,2.56 0.41,0.72 0.95,1.29 1.61,1.74 0.66,0.44 1.42,0.74 2.28,0.89 0.86,0.16 1.68,0.14 2.45,-0.03 0.78,-0.19 1.48,-0.54 2.12,-1.06 0.64,-0.53 1.19,-1.23 1.65,-2.12 0.47,-0.88 0.81,-1.95 1.04,-3.2zm3.76 0.68c-0.28,1.57 -0.75,2.96 -1.42,4.19 -0.67,1.23 -1.5,2.24 -2.5,3.03 -1,0.79 -2.14,1.34 -3.44,1.65 -1.29,0.3 -2.7,0.32 -4.24,0.04 -1.53,-0.28 -2.85,-0.79 -3.95,-1.53 -1.11,-0.74 -1.99,-1.66 -2.64,-2.76 -0.65,-1.08 -1.08,-2.33 -1.27,-3.71 -0.19,-1.38 -0.15,-2.86 0.13,-4.43 0.29,-1.57 0.76,-2.96 1.43,-4.19 0.67,-1.22 1.5,-2.24 2.49,-3.03 0.99,-0.79 2.14,-1.34 3.44,-1.65 1.29,-0.3 2.7,-0.32 4.24,-0.04 1.53,0.28 2.85,0.79 3.96,1.53 1.11,0.74 1.98,1.66 2.64,2.76 0.65,1.08 1.08,2.33 1.28,3.71 0.19,1.39 0.14,2.86 -0.14,4.43zm26.28 14.2c1.02,-1.37 2.18,-2.81 3.48,-4.31l6.93 -7.99 4.82 1.92 -7.71 19.39 -3.44 -1.36 3.9 -9.83c0.57,-1.44 1.29,-3.09 2.16,-4.95l-0.13 -0.05c-0.38,0.49 -0.81,1.04 -1.3,1.63 -0.49,0.61 -0.98,1.19 -1.48,1.76l-8.23 9.42 -2.21 -0.88 0.49 -12.5c0.03,-0.75 0.07,-1.52 0.13,-2.29 0.06,-0.77 0.12,-1.47 0.18,-2.08l-0.12 -0.05c-0.61,1.84 -1.21,3.52 -1.82,5.07l-3.91 9.84 -3.44 -1.37 7.71 -19.4 4.79 1.9 -0.44 10.52c-0.07,1.75 -0.22,3.61 -0.45,5.57l0.08 0.04zm48.48 10.34l-12.11 17 -3.02 -2.15 10.22 -14.35 -7.01 -4.99 -10.22 14.35 -3.02 -2.15 12.11 -17.01 13.04 9.29zm13.86 33.09l-5.27 -5.52 -5.18 2.26 -2.72 -2.84 20.62 -8.64 2.33 2.44 -9.56 20.21 -2.7 -2.83 2.49 -5.08zm4.97 -10.07c-2.07,0.98 -3.83,1.78 -5.26,2.39l-1.84 0.81 3.63 3.8 0.89 -1.8c0.68,-1.42 1.56,-3.14 2.63,-5.16l-0.05 -0.04zm17.6 26.42l5.42 7.58 7 -5 2.15 3.01 -16.98 12.14 -2.15 -3.01 7.39 -5.28 -5.42 -7.58 -7.39 5.28 -2.15 -3.01 16.98 -12.14 2.15 3.02 -7 5zm30.79 38.96l1.41 3.61 -19.44 7.6 -1.35 -3.44 8.95 -3.5c1.11,-0.43 2.93,-1.08 5.45,-1.94l-0.02 -0.06c-1.38,-0.2 -3.57,-0.64 -6.56,-1.32l-11.49 -2.57 -1.41 -3.61 19.44 -7.6 1.35 3.45 -8.95 3.5c-1.42,0.56 -3.23,1.2 -5.44,1.94l0.02 0.06c1.26,0.2 3.41,0.63 6.44,1.3l11.6 2.59zm7.14 35.78l-0.76 -3.31c-0.12,-0.5 -0.24,-0.92 -0.38,-1.27 -0.14,-0.34 -0.3,-0.65 -0.47,-0.9 -0.43,-0.59 -0.94,-0.99 -1.53,-1.19 -0.59,-0.2 -1.21,-0.22 -1.83,-0.08 -0.34,0.08 -0.65,0.19 -0.93,0.32 -0.29,0.14 -0.54,0.32 -0.77,0.54 -0.21,0.22 -0.4,0.49 -0.53,0.8 -0.14,0.31 -0.22,0.67 -0.25,1.09 -0.02,0.28 -0.01,0.61 0.03,0.98 0.04,0.37 0.13,0.82 0.25,1.35l0.73 3.16 6.45 -1.49zm-10.44 -1.58l-8.65 -2.68 -0.94 -4.1 9.34 3 0.06 -0.01c0.2,-1.38 0.69,-2.49 1.48,-3.33 0.8,-0.83 1.88,-1.41 3.25,-1.73 1.34,-0.31 2.61,-0.24 3.8,0.2 1.19,0.45 2.19,1.24 2.99,2.38 0.3,0.44 0.57,0.94 0.81,1.5 0.24,0.57 0.45,1.23 0.62,1.99l1.68 7.25 -20.34 4.7 -0.83 -3.61 7.63 -1.76 -0.88 -3.81z"/>
  <g id="_1423988240976">
   <polygon class="fil2" points="1000.85,862.23 1001.99,861.87 1001.99,862.71 1000.85,862.71 "/>
   <path class="fil2" d="M970.42 894.09c1.77,0.73 3.47,1.42 5.1,2.09 1.55,0.63 3.04,1.24 4.48,1.83 1.17,0.48 2.49,2.7 2.45,4.29 -0.03,1.69 -0.07,3.38 -0.1,5.07 -0.04,2.11 -4.62,-0.27 -4.65,2.15 -0.04,2.03 -0.07,4.07 -0.1,6.1 -0.03,2.02 -0.06,4.03 -0.09,6.04 -0.01,0.67 0.4,1.45 0.88,1.63 1.14,0.41 2.25,0.81 3.32,1.2 1.04,0.38 2.05,0.74 3.03,1.09 -0.01,0.35 -0.02,0.71 -0.03,1.05 -1.44,0 -2.93,0 -4.48,0 -1.64,0 -3.34,0 -5.13,0 -0.95,0 -1.93,0 -2.92,0 -0.99,0 -2,0 -3.03,0 -1.11,0 -2.25,0 -3.42,0 -1.15,0 -2.34,0 -3.55,0 0,-0.46 0,-0.94 0,-1.41 1.72,-0.4 3.37,-0.81 4.97,-1.18 1.53,-0.36 3.02,-0.72 4.45,-1.06 0.57,-0.13 1.07,-0.94 1.08,-1.65 0.03,-2.13 0.06,-4.29 0.08,-6.45 0.02,-2.15 0.06,-4.33 0.08,-6.52 0.02,-1.29 -1.53,-2 -3.04,-2.71 -1.49,-0.7 -2.96,-1.4 -2.95,-2.7 0.01,-2.08 0.03,-4.17 0.05,-6.27 0.01,-1.95 1.97,-3.24 3.55,-2.59zm-30.78 -44.22c4.88,7.19 7.82,19.26 7.32,32.84 -0.27,7.03 -1.42,13.6 -3.23,19.25l23.1 -7.47c-0.4,0.38 -0.54,0.66 -0.72,1.24l-22.67 7.11 -0.02 0.06 -0.62 0.14 -69.26 21.7 0 0.7 93.15 -20.41c0.7,1.43 4.67,1.78 4.68,3.83l0.03 -0 -0.01 12.5 -97.85 5.01 0 0.24 87.49 -1.48 0 1.33 -87.49 0.23 0 0 -0.34 0 -2.3 0.01 0 -0.01 0 -0.04 0 -0.14 0 -0.47 0 -0.45 0 -0.01 0 -0.01 12.64 -4.09c-1.57,-2.24 -3.04,-4.66 -4.41,-7.29l-7.22 2.35 -5.41 -16.65 7.22 -2.35c-0.79,-5.25 -0.76,-10.49 -0,-15.56l-7.21 -2.35 5.41 -16.65 7.23 2.35c2.4,-4.6 5.47,-8.86 9.14,-12.59l-4.46 -6.14 14.16 -10.29 4.46 6.14c2.3,-1.14 4.71,-2.13 7.22,-2.95 2.51,-0.81 5.05,-1.43 7.58,-1.86l0 -7.59 17.5 0 0 7.59c5.17,0.87 10.15,2.5 14.8,4.82l4.46 -6.14 14.16 10.29 -4.46 6.14c3.6,3.66 6.7,7.88 9.15,12.59l7.21 -2.35 5.41 16.65 -7.22 2.35c0.73,4.86 0.76,9.72 0.16,14.45l-8.18 -3.38c-0.74,-0.3 -1.66,-0.2 -2.26,0.12 0.09,-1.12 0.13,-2.26 0.13,-3.41 0,-18.48 -11.9,-34.18 -28.46,-39.85zm-4.66 54.92l-0.47 0.1c1.62,-2.94 3,-6.52 4.01,-10.55 1.01,-4.04 1.66,-8.55 1.84,-13.26 0.12,-3.33 0,-6.54 -0.34,-9.54 -0.33,-3 -0.88,-5.81 -1.61,-8.34 -1.44,-5.03 -3.58,-8.98 -6.17,-11.28 -0.41,-0.36 -1.38,-0.96 -2.63,-1.66 -1.25,-0.7 -2.8,-1.51 -4.33,-2.28 -0.25,-0.13 -0.47,-0.24 -0.68,-0.36l-0.05 0c-1.28,-0.63 -2.53,-1.22 -3.59,-1.7 -0.49,-0.22 -0.95,-0.42 -1.35,-0.6 6.76,4.11 11.35,17.17 10.77,32.49 -0.69,18.39 -8.56,33.06 -17.57,32.77 -9.02,-0.29 -15.77,-15.44 -15.08,-33.83 0.32,-8.59 2.21,-16.37 5.05,-22.19 -11.4,7.54 -18.92,20.46 -18.92,35.15 0,10.81 4.07,20.67 10.77,28.13l26.85 -8.69 -6.03 1.82c20.15,-7.22 21.9,-27.58 23.04,-35.6 1.54,3.92 1.03,18.59 -5.14,29.94l1.62 -0.53zm-20.7 -33.17c1.54,0.05 2.69,2.63 2.57,5.76 -0.12,3.13 -1.46,5.63 -3,5.58 -1.54,-0.05 -2.69,-2.63 -2.57,-5.76 0.12,-3.13 1.46,-5.63 3,-5.58zm6.19 -16.68c3.7,4.41 6.01,12.92 5.65,22.61 -0.52,14.03 -6.43,25.22 -13.21,24.99 -0.12,-0 -0.24,-0.01 -0.36,-0.02 -5.58,-2.19 -9.5,-12.52 -9.05,-24.79 0.51,-13.71 6.29,-24.64 12.91,-24.42 1.44,0.05 2.81,0.62 4.06,1.63zm-4.3 15.96c1.89,0.07 3.3,3.24 3.16,7.09 -0.14,3.85 -1.79,6.93 -3.68,6.86 -0.8,-0.02 -1.67,-0.96 -2.56,-1.46 -1.32,-0.74 -2.22,-3.25 -2.12,-6.21 0.13,-3.5 1.63,-6.28 3.34,-6.23 0.85,0.03 1.28,-0.08 1.86,-0.06zm-1.14 -19.17c6.92,0.23 12.11,11.85 11.58,25.97 -0.53,14.12 -6.57,25.37 -13.49,25.15 -6.92,-0.23 -12.1,-11.85 -11.58,-25.97 0.53,-14.12 6.57,-25.37 13.49,-25.15z"/>
   <polygon class="fil11" points="999.62,883.24 1021.05,883.24 1021.05,900.98 1027.71,900.98 1027.71,883.24 1049.02,883.24 1049.02,926.11 1027.71,926.11 1027.71,907.42 1020.94,907.42 1020.94,926.11 999.62,926.11 "/>
   <path id="1" class="fil11" d="M1079.45 882.74c6.46,0 12.12,2 17.01,5.99 5.15,4.25 7.72,9.57 7.72,15.95 0,6.38 -2.56,11.73 -7.67,16.06 -4.74,3.95 -10.43,5.93 -17.07,5.93 -6.6,0 -12.29,-1.98 -17.07,-5.93 -5.07,-4.25 -7.61,-9.61 -7.61,-16.06 0,-6.38 2.56,-11.7 7.67,-15.95 4.85,-3.99 10.52,-5.99 17.01,-5.99zm0.22 6.1c-1.3,0 -2.15,0.24 -2.52,0.73 -0.63,0.82 -0.95,2.41 -0.95,4.76l0 21.21c0,1.71 0.15,2.91 0.45,3.58 0.45,0.94 1.46,1.4 3.02,1.4 1.23,0 2.02,-0.2 2.35,-0.62 0.56,-0.67 0.84,-2.12 0.84,-4.36l0 -20.99c0,-2.61 -0.28,-4.29 -0.84,-5.04 -0.41,-0.45 -1.19,-0.67 -2.35,-0.67z"/>
   <path id="2" class="fil11" d="M1110.45 883.13l21.43 0c4.66,0 8.84,0.81 12.53,2.41 4.96,2.13 7.44,5.22 7.44,9.29 0,2.91 -1.35,5.5 -4.03,7.78 1.2,0.97 2.18,1.9 2.97,2.8 2.5,2.84 3.75,5.69 3.75,8.56 0,4.55 -2.83,7.87 -8.5,9.96 -3.99,1.46 -8.71,2.18 -14.16,2.18l-21.43 0 0 -42.98zm21.43 5.71l0 12.03c1.6,0 3.02,-0.26 4.25,-0.79 1.53,-0.74 2.29,-1.82 2.29,-3.24l0 -3.75c0,-1.41 -0.79,-2.52 -2.35,-3.3 -1.27,-0.63 -2.67,-0.95 -4.2,-0.95zm0 17.68l0 13.88 1.17 0.06c1.42,0.07 2.57,-0.11 3.47,-0.56 1.27,-0.6 1.9,-1.47 1.9,-2.63l0 -7c0,-1.71 -0.82,-2.83 -2.47,-3.36 -0.78,-0.26 -2.14,-0.39 -4.08,-0.39z"/>
   <path id="3" class="fil11" d="M1184.3 882.74c6.46,0 12.12,2 17.01,5.99 5.15,4.25 7.72,9.57 7.72,15.95 0,6.38 -2.56,11.73 -7.67,16.06 -4.74,3.95 -10.43,5.93 -17.07,5.93 -6.6,0 -12.29,-1.98 -17.07,-5.93 -5.07,-4.25 -7.61,-9.61 -7.61,-16.06 0,-6.38 2.56,-11.7 7.67,-15.95 4.85,-3.99 10.52,-5.99 17.01,-5.99zm0.22 6.1c-1.3,0 -2.15,0.24 -2.52,0.73 -0.63,0.82 -0.95,2.41 -0.95,4.76l0 21.21c0,1.71 0.15,2.91 0.45,3.58 0.45,0.94 1.46,1.4 3.02,1.4 1.23,0 2.02,-0.2 2.35,-0.62 0.56,-0.67 0.84,-2.12 0.84,-4.36l0 -20.99c0,-2.61 -0.28,-4.29 -0.84,-5.04 -0.41,-0.45 -1.19,-0.67 -2.35,-0.67z"/>
   <polygon id="4" class="fil11" points="1241.59,926.11 1220.16,926.11 1220.16,888.84 1213.61,888.84 1213.61,883.24 1248.14,883.24 1248.14,888.84 1241.59,888.84 "/>
   <path id="5" class="fil11" d="M1255.96 883.13l21.43 0c15.52,0 23.28,5.77 23.28,17.29 0,6.64 -2.37,11.32 -7.11,14.05 -3.65,2.16 -9.04,3.25 -16.17,3.25l0 8.39 -21.43 0 0 -42.98zm21.43 5.71l0 22.83c2.02,0 3.61,-0.37 4.78,-1.12 1.17,-0.75 1.76,-1.75 1.76,-3.03l0 -14.44c0,-1.41 -0.79,-2.52 -2.35,-3.3 -1.27,-0.63 -2.67,-0.95 -4.2,-0.95z"/>
   <path id="6" class="fil11" d="M1317.67 916.15l-3.36 -11.86 -4.53 11.86 7.89 0zm-10.52 6.55l-1.51 3.41 -6.44 0 16.29 -42.87 10.57 0 17.29 42.87 -22.1 0 -1.62 -3.41 -12.48 0z"/>
   <polygon id="7" class="fil11" points="1349.39,883.24 1370.83,883.24 1370.83,900.98 1377.49,900.98 1377.49,883.24 1398.8,883.24 1398.8,926.11 1377.49,926.11 1377.49,907.42 1370.71,907.42 1370.71,926.11 1349.39,926.11 "/>
   <path id="8" class="fil11" d="M1444.62 884.59l0 5.54c-3.54,-1.12 -6.58,-1.68 -9.12,-1.68 -1.08,0 -2.15,0.17 -3.19,0.5 -2.35,0.74 -3.52,2.57 -3.52,5.48l0 21.38c0,3.13 1.15,4.7 3.47,4.7 5.04,0 9.16,-0.62 12.37,-1.85l0 6.55c-2.98,0.52 -5.05,0.86 -6.21,1.01 -1.05,0.15 -2.11,0.26 -3.19,0.34 -1.08,0.07 -2.2,0.11 -3.36,0.11 -6.6,0 -12.27,-1.98 -17.01,-5.93 -5,-4.25 -7.5,-9.61 -7.5,-16.06 0,-6.41 2.5,-11.73 7.5,-15.95 4.78,-3.99 10.44,-5.99 17.01,-5.99l1.9 0c4.78,0 8.39,0.61 10.85,1.85z"/>
   <path class="fil11" d="M1004.84 867.08c-0.31,0 -0.61,-0 -0.91,-0.01 -0.31,-0.01 -0.59,-0.03 -0.85,-0.06l0 7.38 -3.47 0 0 -18.86 5.45 0c0.91,0 1.71,0.04 2.39,0.12 0.67,0.08 1.29,0.2 1.82,0.36 1.29,0.39 2.28,1.02 2.98,1.89 0.7,0.86 1.04,1.96 1.04,3.3 0,0.91 -0.19,1.73 -0.56,2.46 -0.38,0.73 -0.93,1.35 -1.65,1.85 -0.72,0.51 -1.61,0.9 -2.65,1.17 -1.05,0.27 -2.24,0.41 -3.6,0.41zm-1.76 -2.97c0.2,0.03 0.45,0.05 0.75,0.07 0.31,0.02 0.62,0.02 0.95,0.02 0.93,0 1.71,-0.08 2.33,-0.23 0.63,-0.15 1.14,-0.35 1.52,-0.62 0.39,-0.27 0.66,-0.6 0.83,-0.97 0.17,-0.38 0.26,-0.8 0.26,-1.25 0,-0.55 -0.13,-1.04 -0.38,-1.44 -0.26,-0.4 -0.69,-0.72 -1.32,-0.94 -0.33,-0.11 -0.74,-0.19 -1.22,-0.25 -0.48,-0.05 -1.08,-0.07 -1.78,-0.07l-1.94 0 0 5.69z"/>
   <polygon id="1" class="fil11" points="1026.98,871.49 1036.25,871.49 1036.25,874.39 1023.51,874.39 1023.51,855.53 1035.75,855.53 1035.75,858.42 1026.98,858.42 1026.98,863.29 1034.51,863.29 1034.51,866.18 1026.98,866.18 "/>
   <path id="2" class="fil11" d="M1056.16 869.33c0.41,-1.48 0.92,-3.08 1.54,-4.78l3.26 -9.02 4.85 0 0 18.86 -3.46 0 0 -9.56c0,-1.4 0.06,-3.03 0.17,-4.88l-0.13 0c-0.16,0.54 -0.34,1.14 -0.56,1.8 -0.21,0.67 -0.44,1.33 -0.68,1.97l-3.9 10.66 -2.22 0 -3.9 -10.66c-0.24,-0.64 -0.46,-1.3 -0.68,-1.97 -0.21,-0.66 -0.4,-1.27 -0.56,-1.8l-0.13 0c0.11,1.74 0.17,3.36 0.17,4.86l0 9.57 -3.47 0 0 -18.86 4.82 0 3.26 8.98c0.54,1.49 1.06,3.1 1.54,4.82l0.09 0z"/>
   <path id="3" class="fil11" d="M1090.84 864.94c0,-1.15 -0.14,-2.15 -0.42,-3.01 -0.28,-0.87 -0.67,-1.58 -1.17,-2.15 -0.5,-0.57 -1.09,-1 -1.77,-1.28 -0.68,-0.28 -1.43,-0.42 -2.25,-0.42 -0.81,0 -1.57,0.14 -2.25,0.42 -0.68,0.28 -1.28,0.71 -1.77,1.28 -0.5,0.57 -0.89,1.29 -1.17,2.15 -0.28,0.86 -0.42,1.86 -0.42,3.01 0,1.14 0.14,2.15 0.42,3.01 0.28,0.86 0.67,1.58 1.17,2.15 0.49,0.57 1.08,1 1.77,1.28 0.68,0.28 1.44,0.43 2.25,0.43 0.82,0 1.57,-0.14 2.25,-0.43 0.68,-0.29 1.28,-0.72 1.77,-1.28 0.5,-0.57 0.89,-1.29 1.17,-2.15 0.28,-0.86 0.42,-1.87 0.42,-3.01zm3.58 0c0,1.44 -0.2,2.76 -0.61,3.96 -0.41,1.2 -1.01,2.23 -1.79,3.1 -0.79,0.87 -1.75,1.54 -2.89,2.02 -1.14,0.48 -2.44,0.72 -3.9,0.72 -1.46,0 -2.76,-0.24 -3.9,-0.72 -1.14,-0.48 -2.11,-1.15 -2.89,-2.02 -0.78,-0.86 -1.38,-1.89 -1.79,-3.1 -0.4,-1.2 -0.61,-2.52 -0.61,-3.96 0,-1.44 0.21,-2.76 0.61,-3.96 0.41,-1.2 1.01,-2.23 1.79,-3.1 0.79,-0.87 1.75,-1.54 2.89,-2.02 1.14,-0.48 2.44,-0.72 3.9,-0.72 1.46,0 2.76,0.24 3.9,0.72 1.14,0.48 2.11,1.15 2.89,2.02 0.78,0.86 1.38,1.89 1.79,3.1 0.41,1.2 0.61,2.52 0.61,3.96z"/>
   <polygon id="4" class="fil11" points="1108.1,863.29 1116.82,863.29 1116.82,855.53 1120.28,855.53 1120.28,874.39 1116.82,874.39 1116.82,866.18 1108.1,866.18 1108.1,874.39 1104.63,874.39 1104.63,855.53 1108.1,855.53 "/>
   <polygon id="5" class="fil11" points="1139.08,874.39 1135.62,874.39 1135.62,858.42 1129.52,858.42 1129.52,855.53 1145.16,855.53 1145.16,858.42 1139.08,858.42 "/>
   <polygon id="6" class="fil11" points="1157.83,863.29 1166.55,863.29 1166.55,855.53 1170.02,855.53 1170.02,874.39 1166.55,874.39 1166.55,866.18 1157.83,866.18 1157.83,874.39 1154.36,874.39 1154.36,855.53 1157.83,855.53 "/>
   <path id="7" class="fil11" d="M1191.9 869.59l-7.14 0 -1.83 4.79 -3.68 0 7.49 -18.86 3.16 0 7.49 18.86 -3.65 0 -1.83 -4.79zm-3.6 -9.53c-0.67,1.96 -1.27,3.61 -1.79,4.93l-0.64 1.71 4.92 0 -0.64 -1.7c-0.52,-1.33 -1.12,-2.98 -1.79,-4.94l-0.06 0z"/>
   <path id="8" class="fil11" d="M1217.4 858.44l-3.19 0c-0.48,0 -0.89,0.02 -1.23,0.07 -0.34,0.06 -0.65,0.13 -0.92,0.23 -0.63,0.26 -1.1,0.62 -1.41,1.11 -0.3,0.48 -0.46,1.01 -0.46,1.59 0,0.31 0.04,0.61 0.1,0.88 0.07,0.28 0.18,0.54 0.33,0.79 0.16,0.24 0.36,0.45 0.62,0.63 0.26,0.18 0.57,0.33 0.94,0.44 0.25,0.07 0.55,0.13 0.9,0.17 0.34,0.04 0.77,0.06 1.28,0.06l3.03 0 0 -5.98zm-3.64 8.87l-4.26 7.07 -3.94 0 4.71 -7.61 0 -0.05c-1.22,-0.46 -2.13,-1.12 -2.72,-1.99 -0.6,-0.87 -0.89,-1.94 -0.89,-3.21 0,-1.24 0.33,-2.35 0.98,-3.3 0.66,-0.96 1.59,-1.68 2.8,-2.15 0.46,-0.18 0.98,-0.31 1.54,-0.41 0.57,-0.09 1.22,-0.14 1.95,-0.14l6.96 0 0 18.86 -3.46 0 0 -7.07 -3.66 0z"/>
   <polygon id="9" class="fil11" points="1243.82,874.39 1243.82,855.53 1247.28,855.53 1247.28,864.11 1247.33,864.11 1254.45,855.53 1258.73,855.53 1250.87,864.87 1259.39,874.39 1254.95,874.39 1247.33,865.87 1247.28,865.87 1247.28,874.39 "/>
   <path id="10" class="fil11" d="M1280.05 864.94c0,-1.15 -0.14,-2.15 -0.42,-3.01 -0.28,-0.87 -0.67,-1.58 -1.17,-2.15 -0.5,-0.57 -1.09,-1 -1.77,-1.28 -0.68,-0.28 -1.43,-0.42 -2.25,-0.42 -0.81,0 -1.57,0.14 -2.25,0.42 -0.68,0.28 -1.28,0.71 -1.77,1.28 -0.5,0.57 -0.89,1.29 -1.17,2.15 -0.28,0.86 -0.42,1.86 -0.42,3.01 0,1.14 0.14,2.15 0.42,3.01 0.28,0.86 0.67,1.58 1.17,2.15 0.49,0.57 1.08,1 1.77,1.28 0.68,0.28 1.44,0.43 2.25,0.43 0.82,0 1.57,-0.14 2.25,-0.43 0.68,-0.29 1.28,-0.72 1.77,-1.28 0.5,-0.57 0.89,-1.29 1.17,-2.15 0.28,-0.86 0.42,-1.87 0.42,-3.01zm3.58 0c0,1.44 -0.2,2.76 -0.61,3.96 -0.41,1.2 -1.01,2.23 -1.79,3.1 -0.79,0.87 -1.75,1.54 -2.89,2.02 -1.14,0.48 -2.44,0.72 -3.9,0.72 -1.46,0 -2.76,-0.24 -3.9,-0.72 -1.14,-0.48 -2.11,-1.15 -2.89,-2.02 -0.78,-0.86 -1.38,-1.89 -1.79,-3.1 -0.4,-1.2 -0.61,-2.52 -0.61,-3.96 0,-1.44 0.21,-2.76 0.61,-3.96 0.41,-1.2 1.01,-2.23 1.79,-3.1 0.79,-0.87 1.75,-1.54 2.89,-2.02 1.14,-0.48 2.44,-0.72 3.9,-0.72 1.46,0 2.76,0.24 3.9,0.72 1.14,0.48 2.11,1.15 2.89,2.02 0.78,0.86 1.38,1.89 1.79,3.1 0.41,1.2 0.61,2.52 0.61,3.96z"/>
   <path id="11" class="fil11" d="M1303.54 869.33c0.41,-1.48 0.92,-3.08 1.54,-4.78l3.26 -9.02 4.85 0 0 18.86 -3.46 0 0 -9.56c0,-1.4 0.06,-3.03 0.17,-4.88l-0.13 0c-0.16,0.54 -0.34,1.14 -0.56,1.8 -0.21,0.67 -0.44,1.33 -0.68,1.97l-3.9 10.66 -2.22 0 -3.9 -10.66c-0.24,-0.64 -0.46,-1.3 -0.68,-1.97 -0.21,-0.66 -0.4,-1.27 -0.56,-1.8l-0.13 0c0.11,1.74 0.17,3.36 0.17,4.86l0 9.57 -3.47 0 0 -18.86 4.82 0 3.26 8.98c0.54,1.49 1.06,3.1 1.54,4.82l0.09 0z"/>
   <polygon id="12" class="fil11" points="1339.23,855.53 1339.23,874.39 1335.77,874.39 1335.77,858.47 1327.71,858.47 1327.71,874.39 1324.24,874.39 1324.24,855.53 "/>
   <path id="13" class="fil11" d="M1361.1 869.59l-7.14 0 -1.83 4.79 -3.68 0 7.49 -18.86 3.16 0 7.49 18.86 -3.65 0 -1.83 -4.79zm-3.6 -9.53c-0.67,1.96 -1.27,3.61 -1.79,4.93l-0.64 1.71 4.92 0 -0.64 -1.7c-0.52,-1.33 -1.12,-2.98 -1.79,-4.94l-0.06 0z"/>
   <polygon id="14" class="fil11" points="1379.28,863.29 1388,863.29 1388,855.53 1391.46,855.53 1391.46,874.39 1388,874.39 1388,866.18 1379.28,866.18 1379.28,874.39 1375.81,874.39 1375.81,855.53 1379.28,855.53 "/>
   <path id="15" class="fil11" d="M1415.42 855.53l3.62 0 0 18.86 -3.46 0 0 -8.68c0,-1.08 0.06,-2.82 0.17,-5.23l-0.06 0c-0.64,1.1 -1.77,2.8 -3.38,5.09l-6.15 8.82 -3.63 0 0 -18.86 3.47 0 0 8.68c0,1.38 -0.06,3.12 -0.17,5.21l0.06 0c0.6,-1 1.71,-2.66 3.32,-4.99l6.22 -8.91z"/>
   <path id="16" class="fil11" d="M1440.88 858.44l-3.19 0c-0.48,0 -0.89,0.02 -1.23,0.07 -0.34,0.06 -0.65,0.13 -0.92,0.23 -0.63,0.26 -1.1,0.62 -1.41,1.11 -0.3,0.48 -0.46,1.01 -0.46,1.59 0,0.31 0.04,0.61 0.1,0.88 0.07,0.28 0.18,0.54 0.33,0.79 0.16,0.24 0.36,0.45 0.62,0.63 0.26,0.18 0.57,0.33 0.94,0.44 0.25,0.07 0.55,0.13 0.9,0.17 0.34,0.04 0.77,0.06 1.28,0.06l3.03 0 0 -5.98zm-3.64 8.87l-4.26 7.07 -3.94 0 4.71 -7.61 0 -0.05c-1.22,-0.46 -2.13,-1.12 -2.72,-1.99 -0.6,-0.87 -0.89,-1.94 -0.89,-3.21 0,-1.24 0.33,-2.35 0.98,-3.3 0.66,-0.96 1.59,-1.68 2.8,-2.15 0.46,-0.18 0.98,-0.31 1.54,-0.41 0.57,-0.09 1.22,-0.14 1.95,-0.14l6.96 0 0 18.86 -3.46 0 0 -7.07 -3.66 0z"/>
  </g>
  <path class="fil12" d="M1438.74 1070.79c0,0.88 -0.21,1.55 -0.61,2 -0.4,0.44 -0.96,0.66 -1.68,0.66l-49.77 0c-0.71,0 -1.29,-0.22 -1.74,-0.66 -0.44,-0.44 -0.66,-1.12 -0.66,-2l0 -45.6c0,-0.18 0.05,-0.34 0.17,-0.49 0.12,-0.16 0.3,-0.27 0.53,-0.36 0.25,-0.09 0.57,-0.16 0.99,-0.21 0.43,-0.05 0.94,-0.07 1.55,-0.07 0.63,0 1.15,0.02 1.55,0.07 0.4,0.05 0.74,0.12 0.99,0.21 0.26,0.09 0.43,0.2 0.53,0.36 0.1,0.15 0.15,0.31 0.15,0.49l0 42.73 17.58 0 0 -42.73c0,-0.18 0.05,-0.34 0.17,-0.49 0.12,-0.16 0.3,-0.27 0.53,-0.36 0.25,-0.09 0.57,-0.16 0.99,-0.21 0.43,-0.05 0.93,-0.07 1.54,-0.07 0.61,0 1.12,0.02 1.52,0.07 0.4,0.05 0.74,0.12 0.99,0.21 0.26,0.09 0.44,0.2 0.56,0.36 0.12,0.15 0.17,0.31 0.17,0.49l0 42.73 17.5 0 0 -42.73c0,-0.18 0.05,-0.34 0.15,-0.49 0.1,-0.16 0.27,-0.27 0.53,-0.36 0.25,-0.09 0.59,-0.16 1,-0.21 0.43,-0.05 0.93,-0.07 1.54,-0.07 0.61,0 1.12,0.02 1.55,0.07 0.41,0.05 0.74,0.12 0.98,0.21 0.23,0.09 0.41,0.2 0.54,0.36 0.12,0.15 0.17,0.31 0.17,0.49l0 45.6z"/>
  <path id="1" class="fil12" d="M1476.87 1072.54c0,0.3 -0.1,0.53 -0.3,0.69 -0.21,0.15 -0.48,0.26 -0.84,0.34 -0.35,0.08 -0.87,0.12 -1.56,0.12 -0.65,0 -1.18,-0.04 -1.57,-0.12 -0.39,-0.08 -0.67,-0.18 -0.85,-0.34 -0.18,-0.16 -0.27,-0.38 -0.27,-0.69l0 -3.42c-1.49,1.59 -3.15,2.84 -4.99,3.72 -1.84,0.87 -3.79,1.31 -5.84,1.31 -1.8,0 -3.43,-0.23 -4.89,-0.7 -1.45,-0.47 -2.7,-1.15 -3.72,-2.03 -1.02,-0.88 -1.82,-1.99 -2.4,-3.27 -0.57,-1.3 -0.86,-2.76 -0.86,-4.41 0,-1.94 0.39,-3.61 1.18,-5.02 0.78,-1.42 1.9,-2.6 3.38,-3.54 1.46,-0.94 3.27,-1.65 5.39,-2.11 2.12,-0.47 4.52,-0.7 7.18,-0.7l4.72 0 0 -2.67c0,-1.31 -0.14,-2.48 -0.41,-3.5 -0.29,-1.01 -0.73,-1.86 -1.35,-2.53 -0.62,-0.67 -1.43,-1.18 -2.41,-1.52 -0.99,-0.35 -2.21,-0.52 -3.64,-0.52 -1.54,0 -2.93,0.18 -4.15,0.56 -1.23,0.38 -2.31,0.78 -3.23,1.23 -0.92,0.46 -1.7,0.86 -2.32,1.23 -0.61,0.38 -1.08,0.56 -1.37,0.56 -0.21,0 -0.39,-0.05 -0.53,-0.16 -0.16,-0.09 -0.28,-0.25 -0.4,-0.45 -0.12,-0.2 -0.19,-0.46 -0.24,-0.76 -0.06,-0.33 -0.08,-0.67 -0.08,-1.05 0,-0.62 0.04,-1.13 0.13,-1.49 0.09,-0.36 0.31,-0.72 0.65,-1.04 0.34,-0.33 0.94,-0.72 1.76,-1.17 0.83,-0.44 1.8,-0.86 2.89,-1.23 1.08,-0.36 2.27,-0.67 3.57,-0.92 1.28,-0.25 2.59,-0.36 3.9,-0.36 2.45,0 4.54,0.27 6.26,0.83 1.73,0.56 3.11,1.39 4.17,2.46 1.06,1.08 1.83,2.41 2.31,4.01 0.48,1.6 0.73,3.46 0.73,5.59l0 23.08zm-6.22 -15.66l-5.36 0c-1.71,0 -3.2,0.14 -4.47,0.44 -1.26,0.28 -2.31,0.73 -3.15,1.29 -0.83,0.57 -1.44,1.25 -1.84,2.05 -0.39,0.81 -0.59,1.73 -0.59,2.76 0,1.77 0.56,3.19 1.69,4.24 1.13,1.05 2.69,1.58 4.73,1.58 1.63,0 3.16,-0.41 4.57,-1.26 1.4,-0.83 2.88,-2.11 4.42,-3.84l0 -7.27z"/>
  <path id="2" class="fil12" d="M1519.81 1054.85c0,2.99 -0.33,5.68 -0.97,8.06 -0.63,2.37 -1.58,4.4 -2.84,6.06 -1.24,1.66 -2.8,2.95 -4.64,3.84 -1.84,0.89 -3.96,1.35 -6.33,1.35 -1.01,0 -1.95,-0.1 -2.8,-0.3 -0.87,-0.2 -1.7,-0.52 -2.53,-0.96 -0.81,-0.43 -1.63,-0.97 -2.43,-1.63 -0.82,-0.65 -1.68,-1.42 -2.58,-2.31l0 17.13c0,0.21 -0.05,0.38 -0.15,0.53 -0.1,0.16 -0.26,0.29 -0.49,0.39 -0.23,0.09 -0.54,0.17 -0.96,0.22 -0.4,0.06 -0.92,0.08 -1.55,0.08 -0.62,0 -1.13,-0.02 -1.53,-0.08 -0.41,-0.05 -0.74,-0.13 -0.97,-0.22 -0.25,-0.1 -0.41,-0.23 -0.51,-0.39 -0.09,-0.15 -0.13,-0.32 -0.13,-0.53l0 -47.78c0,-0.23 0.04,-0.41 0.12,-0.56 0.07,-0.13 0.23,-0.26 0.45,-0.35 0.23,-0.1 0.52,-0.18 0.88,-0.22 0.35,-0.04 0.79,-0.05 1.29,-0.05 0.53,0 0.97,0.01 1.32,0.05 0.34,0.04 0.62,0.12 0.86,0.2 0.23,0.11 0.39,0.23 0.48,0.36 0.09,0.14 0.13,0.33 0.13,0.56l0 4.58c1.04,-1.06 2.03,-1.98 3,-2.77 0.96,-0.78 1.93,-1.42 2.9,-1.95 0.97,-0.52 1.97,-0.92 2.99,-1.18 1.02,-0.27 2.1,-0.4 3.24,-0.4 2.48,0 4.58,0.48 6.33,1.44 1.74,0.97 3.16,2.28 4.26,3.95 1.1,1.68 1.91,3.62 2.41,5.84 0.51,2.22 0.75,4.57 0.75,7.04zm-6.53 0.73c0,-1.75 -0.13,-3.45 -0.4,-5.08 -0.26,-1.63 -0.73,-3.09 -1.36,-4.36 -0.65,-1.27 -1.52,-2.29 -2.61,-3.05 -1.09,-0.76 -2.45,-1.14 -4.07,-1.14 -0.82,0 -1.61,0.12 -2.4,0.36 -0.78,0.25 -1.58,0.62 -2.4,1.14 -0.81,0.52 -1.66,1.21 -2.54,2.06 -0.88,0.86 -1.83,1.9 -2.82,3.15l0 13.6c1.73,2.11 3.36,3.72 4.9,4.85 1.56,1.11 3.18,1.67 4.88,1.67 1.57,0 2.92,-0.38 4.04,-1.14 1.13,-0.76 2.03,-1.78 2.74,-3.05 0.7,-1.27 1.21,-2.68 1.54,-4.26 0.33,-1.57 0.49,-3.16 0.49,-4.76z"/>
  <path id="3" class="fil12" d="M1559.67 1072.54c0,0.18 -0.05,0.35 -0.16,0.49 -0.1,0.15 -0.26,0.27 -0.49,0.36 -0.22,0.09 -0.54,0.15 -0.94,0.2 -0.4,0.06 -0.91,0.08 -1.52,0.08 -0.61,0 -1.11,-0.02 -1.52,-0.08 -0.4,-0.05 -0.74,-0.12 -0.98,-0.2 -0.26,-0.09 -0.43,-0.21 -0.54,-0.36 -0.1,-0.16 -0.15,-0.31 -0.15,-0.49l0 -19.68c0,-1 0.02,-2 0.08,-3.03 0.05,-1.03 0.12,-2.02 0.19,-3.03 -0.58,1.03 -1.23,2.01 -1.92,3 -0.7,0.97 -1.4,1.95 -2.1,2.9l-14.48 19.84c-0.18,0.21 -0.34,0.38 -0.48,0.53 -0.14,0.16 -0.32,0.27 -0.53,0.36 -0.22,0.09 -0.49,0.16 -0.83,0.2 -0.33,0.04 -0.74,0.05 -1.22,0.05 -0.56,0 -1.02,-0.02 -1.37,-0.08 -0.36,-0.05 -0.65,-0.12 -0.86,-0.2 -0.22,-0.09 -0.38,-0.21 -0.47,-0.36 -0.09,-0.16 -0.13,-0.31 -0.13,-0.49l0 -34.28c0,-0.18 0.04,-0.34 0.13,-0.49 0.09,-0.16 0.26,-0.28 0.51,-0.38 0.23,-0.1 0.56,-0.18 0.97,-0.22 0.4,-0.04 0.89,-0.05 1.49,-0.05 1.22,0 2.06,0.09 2.52,0.28 0.45,0.2 0.68,0.48 0.68,0.86l0 19.79c0,0.99 -0.02,1.97 -0.07,2.95 -0.05,0.98 -0.12,1.95 -0.2,2.92 0.58,-0.97 1.18,-1.91 1.78,-2.84 0.58,-0.92 1.23,-1.82 1.9,-2.71l14.67 -20.11c0.14,-0.21 0.3,-0.38 0.47,-0.52 0.17,-0.14 0.36,-0.26 0.61,-0.34 0.23,-0.09 0.52,-0.14 0.85,-0.18 0.33,-0.04 0.75,-0.07 1.28,-0.07 0.53,0 0.99,0.02 1.35,0.07 0.38,0.04 0.66,0.1 0.88,0.2 0.21,0.11 0.36,0.22 0.46,0.38 0.09,0.16 0.13,0.33 0.13,0.53l0 34.2z"/>
  <path id="4" class="fil12" d="M1600.15 1072.51c0,0.2 -0.05,0.37 -0.15,0.52 -0.1,0.13 -0.26,0.26 -0.49,0.36 -0.22,0.09 -0.54,0.17 -0.94,0.22 -0.4,0.06 -0.91,0.08 -1.52,0.08 -0.64,0 -1.15,-0.02 -1.55,-0.08 -0.4,-0.05 -0.73,-0.13 -0.97,-0.22 -0.23,-0.1 -0.4,-0.23 -0.51,-0.36 -0.1,-0.14 -0.15,-0.31 -0.15,-0.52l0 -29.86 -16.26 0 0 29.86c0,0.2 -0.05,0.37 -0.15,0.52 -0.1,0.13 -0.27,0.26 -0.52,0.36 -0.24,0.09 -0.56,0.17 -0.97,0.22 -0.4,0.06 -0.91,0.08 -1.52,0.08 -0.62,0 -1.13,-0.02 -1.53,-0.08 -0.41,-0.05 -0.74,-0.13 -0.97,-0.22 -0.25,-0.1 -0.41,-0.23 -0.51,-0.36 -0.09,-0.14 -0.13,-0.31 -0.13,-0.52l0 -32.91c0,-0.77 0.17,-1.33 0.52,-1.7 0.34,-0.36 0.81,-0.54 1.41,-0.54l25.03 0c0.6,0 1.08,0.18 1.4,0.54 0.32,0.37 0.49,0.93 0.49,1.7l0 32.91z"/>
  <path id="5" class="fil12" d="M1643.52 1055c0,2.79 -0.36,5.35 -1.1,7.7 -0.73,2.33 -1.83,4.36 -3.28,6.06 -1.45,1.7 -3.28,3.02 -5.45,3.97 -2.19,0.94 -4.73,1.42 -7.61,1.42 -2.81,0 -5.26,-0.41 -7.35,-1.26 -2.09,-0.83 -3.83,-2.05 -5.21,-3.64 -1.39,-1.59 -2.42,-3.54 -3.11,-5.81 -0.68,-2.28 -1.02,-4.86 -1.02,-7.75 0,-2.79 0.36,-5.36 1.08,-7.69 0.73,-2.35 1.82,-4.37 3.27,-6.07 1.45,-1.7 3.27,-3.01 5.45,-3.96 2.18,-0.93 4.72,-1.4 7.62,-1.4 2.81,0 5.26,0.41 7.35,1.26 2.09,0.83 3.83,2.05 5.21,3.64 1.39,1.59 2.44,3.52 3.14,5.81 0.69,2.28 1.04,4.85 1.04,7.71zm-6.53 0.4c0,-1.85 -0.17,-3.6 -0.52,-5.25 -0.34,-1.65 -0.91,-3.09 -1.69,-4.33 -0.78,-1.25 -1.86,-2.23 -3.21,-2.95 -1.33,-0.73 -3.02,-1.09 -5.03,-1.09 -1.86,0 -3.45,0.33 -4.78,0.99 -1.34,0.66 -2.42,1.6 -3.3,2.8 -0.87,1.21 -1.5,2.63 -1.92,4.28 -0.43,1.65 -0.64,3.45 -0.64,5.39 0,1.88 0.17,3.64 0.52,5.29 0.34,1.65 0.91,3.09 1.71,4.32 0.8,1.22 1.88,2.21 3.21,2.92 1.35,0.73 3.03,1.09 5.05,1.09 1.83,0 3.41,-0.33 4.76,-0.99 1.35,-0.66 2.45,-1.58 3.32,-2.77 0.87,-1.19 1.51,-2.62 1.91,-4.26 0.4,-1.65 0.61,-3.46 0.61,-5.44z"/>
  <path id="6" class="fil12" d="M1680.89 1062.66c0,1.81 -0.34,3.41 -1.02,4.81 -0.68,1.41 -1.7,2.58 -3.04,3.54 -1.34,0.95 -3.01,1.68 -5.01,2.17 -2.01,0.49 -4.34,0.74 -7,0.74 -0.83,0 -1.65,0 -2.42,-0.01 -0.79,-0.01 -1.55,-0.04 -2.28,-0.07 -0.74,-0.04 -1.47,-0.09 -2.19,-0.14 -0.71,-0.04 -1.44,-0.1 -2.14,-0.18 -1.02,-0.13 -1.76,-0.47 -2.24,-1.01 -0.48,-0.54 -0.73,-1.35 -0.73,-2.41l0 -29.43c0,-1.04 0.23,-1.84 0.7,-2.4 0.47,-0.56 1.19,-0.88 2.15,-0.99 0.66,-0.08 1.36,-0.14 2.11,-0.2 0.74,-0.04 1.51,-0.09 2.3,-0.13 0.79,-0.04 1.59,-0.07 2.43,-0.09 0.83,-0.03 1.68,-0.04 2.54,-0.04 2.46,0 4.59,0.2 6.38,0.61 1.8,0.4 3.29,1 4.49,1.77 1.19,0.79 2.07,1.75 2.64,2.89 0.57,1.14 0.86,2.44 0.86,3.9 0,1.92 -0.52,3.57 -1.55,4.94 -1.02,1.36 -2.54,2.34 -4.54,2.92 2.5,0.53 4.4,1.55 5.67,3.07 1.26,1.53 1.89,3.43 1.89,5.74zm-7.54 -15.86c0,-0.83 -0.15,-1.57 -0.45,-2.23 -0.31,-0.65 -0.81,-1.21 -1.51,-1.66 -0.7,-0.46 -1.61,-0.79 -2.71,-1.02 -1.1,-0.22 -2.43,-0.34 -4.02,-0.34 -1.2,0 -2.29,0.03 -3.27,0.09 -1,0.07 -1.83,0.14 -2.52,0.2l0 10.59 6.39 0c2.62,0 4.61,-0.48 6,-1.45 1.39,-0.97 2.08,-2.37 2.08,-4.19zm1.09 15.95c0,-1.01 -0.18,-1.91 -0.53,-2.67 -0.35,-0.78 -0.92,-1.41 -1.68,-1.92 -0.78,-0.51 -1.76,-0.88 -2.97,-1.14 -1.2,-0.25 -2.62,-0.38 -4.27,-0.38l-6.11 0 0 12.11c0.48,0.07 0.99,0.13 1.5,0.17 0.52,0.04 1.05,0.08 1.6,0.12 0.54,0.04 1.08,0.07 1.62,0.09 0.54,0.03 1.05,0.04 1.5,0.04 1.65,0 3.05,-0.14 4.22,-0.44 1.16,-0.28 2.13,-0.71 2.9,-1.27 0.76,-0.56 1.34,-1.23 1.68,-2.02 0.35,-0.8 0.53,-1.69 0.53,-2.68z"/>
  <path id="7" class="fil12" d="M1134.14 1133.65c0,2.46 -0.4,4.68 -1.22,6.66 -0.81,1.97 -1.95,3.66 -3.47,5.06 -1.51,1.39 -3.35,2.46 -5.54,3.23 -2.19,0.76 -4.8,1.14 -7.84,1.14l-5.58 0 0 17.68c0,0.21 -0.05,0.39 -0.17,0.54 -0.12,0.15 -0.3,0.27 -0.53,0.36 -0.25,0.09 -0.57,0.17 -0.99,0.23 -0.43,0.07 -0.95,0.09 -1.58,0.09 -0.64,0 -1.15,-0.02 -1.58,-0.09 -0.41,-0.07 -0.75,-0.14 -1,-0.23 -0.26,-0.09 -0.43,-0.21 -0.54,-0.36 -0.1,-0.14 -0.15,-0.33 -0.15,-0.54l0 -45.36c0,-1.01 0.27,-1.74 0.81,-2.16 0.53,-0.43 1.11,-0.65 1.77,-0.65l10.51 0c1.07,0 2.09,0.04 3.06,0.13 0.97,0.09 2.13,0.28 3.45,0.57 1.34,0.3 2.69,0.84 4.07,1.63 1.37,0.81 2.54,1.79 3.51,2.96 0.96,1.17 1.69,2.52 2.22,4.04 0.52,1.53 0.78,3.23 0.78,5.07zm-6.85 0.52c0,-2.01 -0.38,-3.68 -1.11,-5.03 -0.75,-1.34 -1.68,-2.35 -2.79,-3.01 -1.1,-0.65 -2.24,-1.08 -3.41,-1.24 -1.18,-0.18 -2.33,-0.27 -3.45,-0.27l-6.04 0 0 19.76 5.9 0c1.97,0 3.62,-0.26 4.91,-0.76 1.31,-0.51 2.4,-1.21 3.3,-2.11 0.88,-0.89 1.55,-1.97 2.01,-3.23 0.45,-1.26 0.68,-2.62 0.68,-4.1z"/>
  <path id="8" class="fil12" d="M1169.2 1167.5c0,0.3 -0.1,0.53 -0.3,0.69 -0.21,0.15 -0.48,0.26 -0.84,0.34 -0.35,0.08 -0.87,0.12 -1.56,0.12 -0.65,0 -1.18,-0.04 -1.57,-0.12 -0.39,-0.08 -0.67,-0.18 -0.85,-0.34 -0.18,-0.16 -0.27,-0.38 -0.27,-0.69l0 -3.42c-1.49,1.59 -3.15,2.84 -4.99,3.72 -1.84,0.87 -3.79,1.31 -5.84,1.31 -1.8,0 -3.43,-0.23 -4.89,-0.7 -1.45,-0.47 -2.7,-1.15 -3.72,-2.03 -1.02,-0.88 -1.82,-1.99 -2.4,-3.27 -0.57,-1.3 -0.86,-2.76 -0.86,-4.41 0,-1.94 0.39,-3.61 1.18,-5.02 0.78,-1.42 1.9,-2.6 3.38,-3.54 1.46,-0.94 3.27,-1.65 5.39,-2.11 2.12,-0.47 4.52,-0.7 7.18,-0.7l4.72 0 0 -2.67c0,-1.31 -0.14,-2.48 -0.41,-3.5 -0.29,-1.01 -0.73,-1.86 -1.35,-2.53 -0.62,-0.67 -1.43,-1.18 -2.41,-1.52 -0.99,-0.35 -2.21,-0.52 -3.64,-0.52 -1.54,0 -2.93,0.18 -4.15,0.56 -1.23,0.38 -2.31,0.78 -3.23,1.23 -0.92,0.46 -1.7,0.86 -2.32,1.23 -0.61,0.38 -1.08,0.56 -1.37,0.56 -0.21,0 -0.39,-0.05 -0.53,-0.16 -0.16,-0.09 -0.28,-0.25 -0.4,-0.45 -0.12,-0.2 -0.19,-0.46 -0.24,-0.76 -0.06,-0.33 -0.08,-0.67 -0.08,-1.05 0,-0.62 0.04,-1.13 0.13,-1.49 0.09,-0.36 0.31,-0.72 0.65,-1.04 0.34,-0.33 0.94,-0.72 1.76,-1.17 0.83,-0.44 1.8,-0.86 2.89,-1.23 1.08,-0.36 2.27,-0.67 3.57,-0.92 1.28,-0.25 2.59,-0.36 3.9,-0.36 2.45,0 4.54,0.27 6.26,0.83 1.73,0.56 3.11,1.39 4.17,2.46 1.06,1.08 1.83,2.41 2.31,4.01 0.48,1.6 0.73,3.46 0.73,5.59l0 23.08zm-6.22 -15.66l-5.36 0c-1.71,0 -3.2,0.14 -4.47,0.44 -1.26,0.28 -2.31,0.73 -3.15,1.29 -0.83,0.57 -1.44,1.25 -1.84,2.05 -0.39,0.81 -0.59,1.73 -0.59,2.76 0,1.77 0.56,3.19 1.69,4.24 1.13,1.05 2.69,1.58 4.73,1.58 1.63,0 3.16,-0.41 4.57,-1.26 1.4,-0.83 2.88,-2.11 4.42,-3.84l0 -7.27z"/>
  <path id="9" class="fil12" d="M1225.75 1166.2c0,0.74 -0.18,1.28 -0.53,1.65 -0.35,0.38 -0.82,0.56 -1.4,0.56l-41.18 0c-0.6,0 -1.08,-0.18 -1.41,-0.56 -0.35,-0.36 -0.52,-0.91 -0.52,-1.65l0 -32.94c0,-0.21 0.04,-0.38 0.13,-0.52 0.09,-0.13 0.26,-0.26 0.52,-0.38 0.26,-0.12 0.58,-0.2 1,-0.23 0.4,-0.04 0.91,-0.05 1.53,-0.05 0.61,0 1.12,0.01 1.52,0.05 0.41,0.04 0.73,0.12 0.96,0.23 0.23,0.12 0.39,0.25 0.49,0.38 0.1,0.14 0.15,0.31 0.15,0.52l0 29.78 13.15 0 0 -29.78c0,-0.21 0.04,-0.38 0.13,-0.52 0.09,-0.13 0.25,-0.26 0.48,-0.38 0.23,-0.12 0.53,-0.2 0.92,-0.23 0.38,-0.04 0.88,-0.05 1.53,-0.05 0.59,0 1.08,0.01 1.48,0.05 0.41,0.04 0.73,0.12 0.96,0.23 0.23,0.12 0.39,0.25 0.49,0.38 0.1,0.14 0.15,0.31 0.15,0.52l0 29.78 13.15 0 0 -29.78c0,-0.21 0.04,-0.38 0.13,-0.52 0.09,-0.13 0.26,-0.26 0.51,-0.38 0.23,-0.12 0.55,-0.2 0.94,-0.23 0.4,-0.04 0.89,-0.05 1.52,-0.05 0.63,0 1.15,0.01 1.55,0.05 0.41,0.04 0.74,0.12 0.97,0.23 0.25,0.12 0.41,0.25 0.52,0.38 0.1,0.14 0.15,0.31 0.15,0.52l0 32.94z"/>
  <path id="10" class="fil12" d="M1267.8 1167.5c0,0.18 -0.05,0.35 -0.16,0.49 -0.1,0.15 -0.26,0.27 -0.49,0.36 -0.22,0.09 -0.54,0.15 -0.94,0.2 -0.4,0.06 -0.91,0.08 -1.52,0.08 -0.61,0 -1.11,-0.02 -1.52,-0.08 -0.4,-0.05 -0.74,-0.12 -0.98,-0.2 -0.26,-0.09 -0.43,-0.21 -0.54,-0.36 -0.1,-0.16 -0.15,-0.31 -0.15,-0.49l0 -19.68c0,-1 0.02,-2 0.08,-3.03 0.05,-1.03 0.12,-2.02 0.19,-3.03 -0.58,1.03 -1.23,2.01 -1.92,3 -0.7,0.97 -1.4,1.95 -2.1,2.9l-14.48 19.84c-0.18,0.21 -0.34,0.38 -0.48,0.53 -0.14,0.16 -0.32,0.27 -0.53,0.36 -0.22,0.09 -0.49,0.16 -0.83,0.2 -0.33,0.04 -0.74,0.05 -1.22,0.05 -0.56,0 -1.02,-0.02 -1.37,-0.08 -0.36,-0.05 -0.65,-0.12 -0.86,-0.2 -0.22,-0.09 -0.38,-0.21 -0.47,-0.36 -0.09,-0.16 -0.13,-0.31 -0.13,-0.49l0 -34.28c0,-0.18 0.04,-0.34 0.13,-0.49 0.09,-0.16 0.26,-0.28 0.51,-0.38 0.23,-0.1 0.56,-0.18 0.97,-0.22 0.4,-0.04 0.89,-0.05 1.49,-0.05 1.22,0 2.06,0.09 2.52,0.28 0.45,0.2 0.68,0.48 0.68,0.86l0 19.79c0,0.99 -0.02,1.97 -0.07,2.95 -0.05,0.98 -0.12,1.95 -0.2,2.92 0.58,-0.97 1.18,-1.91 1.78,-2.84 0.58,-0.92 1.23,-1.82 1.9,-2.71l14.67 -20.11c0.14,-0.21 0.3,-0.38 0.47,-0.52 0.17,-0.14 0.36,-0.26 0.61,-0.34 0.23,-0.09 0.52,-0.14 0.85,-0.18 0.33,-0.04 0.75,-0.07 1.28,-0.07 0.53,0 0.99,0.02 1.35,0.07 0.38,0.04 0.66,0.1 0.88,0.2 0.21,0.11 0.36,0.22 0.46,0.38 0.09,0.16 0.13,0.33 0.13,0.53l0 34.2z"/>
  <path id="11" class="fil12" d="M1303.31 1135.16c0,0.5 -0.03,0.93 -0.08,1.28 -0.05,0.36 -0.13,0.65 -0.25,0.87 -0.12,0.23 -0.25,0.4 -0.39,0.52 -0.16,0.12 -0.35,0.17 -0.57,0.17l-10.23 0 0 29.47c0,0.2 -0.05,0.37 -0.15,0.52 -0.11,0.13 -0.26,0.26 -0.49,0.36 -0.23,0.09 -0.54,0.17 -0.96,0.22 -0.4,0.06 -0.92,0.08 -1.56,0.08 -0.62,0 -1.13,-0.02 -1.53,-0.08 -0.41,-0.05 -0.74,-0.13 -0.97,-0.22 -0.25,-0.1 -0.41,-0.23 -0.51,-0.36 -0.09,-0.14 -0.13,-0.31 -0.13,-0.52l0 -29.47 -10.23 0c-0.19,0 -0.37,-0.05 -0.54,-0.17 -0.17,-0.12 -0.3,-0.29 -0.4,-0.52 -0.09,-0.22 -0.18,-0.52 -0.25,-0.88 -0.07,-0.36 -0.09,-0.81 -0.09,-1.31 0,-0.45 0.02,-0.85 0.09,-1.21 0.07,-0.36 0.15,-0.66 0.27,-0.89 0.12,-0.25 0.24,-0.41 0.4,-0.53 0.14,-0.12 0.33,-0.17 0.52,-0.17l26.76 0c0.2,0 0.38,0.05 0.54,0.17 0.17,0.12 0.3,0.28 0.4,0.53 0.09,0.23 0.18,0.54 0.25,0.91 0.07,0.36 0.09,0.78 0.09,1.23z"/>
  <path id="12" class="fil12" d="M1372.01 1142.37c0,2.74 -0.43,5.21 -1.27,7.44 -0.85,2.23 -2.13,4.17 -3.84,5.8 -1.7,1.63 -3.84,2.93 -6.39,3.91 -2.56,0.97 -5.51,1.54 -8.88,1.72l0 6.25c0,0.18 -0.05,0.34 -0.17,0.49 -0.12,0.15 -0.3,0.27 -0.53,0.36 -0.25,0.09 -0.58,0.15 -1.01,0.2 -0.43,0.06 -0.94,0.08 -1.52,0.08 -0.61,0 -1.12,-0.01 -1.52,-0.05 -0.4,-0.04 -0.74,-0.1 -1.01,-0.2 -0.26,-0.09 -0.44,-0.2 -0.54,-0.36 -0.11,-0.15 -0.16,-0.32 -0.16,-0.53l0 -6.25c-3.5,-0.1 -6.53,-0.57 -9.11,-1.42 -2.57,-0.84 -4.7,-2.05 -6.37,-3.59 -1.67,-1.54 -2.92,-3.43 -3.75,-5.69 -0.81,-2.25 -1.23,-4.84 -1.23,-7.75 0,-2.63 0.43,-5.05 1.27,-7.25 0.86,-2.2 2.13,-4.12 3.83,-5.74 1.7,-1.62 3.83,-2.93 6.37,-3.93 2.56,-1 5.55,-1.59 9,-1.8l0 -5.94c0,-0.15 0.05,-0.28 0.17,-0.41 0.12,-0.13 0.31,-0.25 0.57,-0.35 0.27,-0.09 0.6,-0.17 1.01,-0.22 0.4,-0.05 0.89,-0.07 1.48,-0.07 0.58,0 1.09,0.02 1.52,0.07 0.43,0.06 0.76,0.13 1.01,0.22 0.23,0.1 0.41,0.22 0.53,0.35 0.12,0.13 0.17,0.26 0.17,0.41l0 5.94c3.49,0.13 6.53,0.61 9.08,1.47 2.56,0.84 4.67,2.03 6.34,3.57 1.66,1.53 2.9,3.41 3.73,5.64 0.81,2.23 1.23,4.77 1.23,7.63zm-6.69 0.36c0,-1.95 -0.25,-3.72 -0.73,-5.3 -0.48,-1.58 -1.24,-2.96 -2.31,-4.11 -1.06,-1.15 -2.48,-2.08 -4.23,-2.77 -1.76,-0.7 -3.91,-1.12 -6.47,-1.27l0 26.68c2.5,-0.13 4.62,-0.56 6.35,-1.31 1.74,-0.75 3.15,-1.71 4.25,-2.89 1.1,-1.18 1.89,-2.54 2.38,-4.08 0.49,-1.55 0.74,-3.19 0.74,-4.94zm-20.11 -13.46c-2.52,0.15 -4.65,0.6 -6.41,1.34 -1.76,0.73 -3.17,1.68 -4.28,2.84 -1.09,1.17 -1.88,2.51 -2.38,4.06 -0.49,1.53 -0.74,3.15 -0.74,4.87 0,1.98 0.23,3.77 0.7,5.37 0.48,1.6 1.26,2.97 2.34,4.14 1.08,1.17 2.5,2.1 4.26,2.8 1.78,0.68 3.94,1.11 6.51,1.27l0 -26.68z"/>
  <path id="13" class="fil12" d="M1407.12 1167.5c0,0.3 -0.1,0.53 -0.3,0.69 -0.21,0.15 -0.48,0.26 -0.84,0.34 -0.35,0.08 -0.87,0.12 -1.56,0.12 -0.65,0 -1.18,-0.04 -1.57,-0.12 -0.39,-0.08 -0.67,-0.18 -0.85,-0.34 -0.18,-0.16 -0.27,-0.38 -0.27,-0.69l0 -3.42c-1.49,1.59 -3.15,2.84 -4.99,3.72 -1.84,0.87 -3.79,1.31 -5.84,1.31 -1.8,0 -3.43,-0.23 -4.89,-0.7 -1.45,-0.47 -2.7,-1.15 -3.72,-2.03 -1.02,-0.88 -1.82,-1.99 -2.4,-3.27 -0.57,-1.3 -0.86,-2.76 -0.86,-4.41 0,-1.94 0.39,-3.61 1.18,-5.02 0.78,-1.42 1.9,-2.6 3.38,-3.54 1.46,-0.94 3.27,-1.65 5.39,-2.11 2.12,-0.47 4.52,-0.7 7.18,-0.7l4.72 0 0 -2.67c0,-1.31 -0.14,-2.48 -0.41,-3.5 -0.29,-1.01 -0.73,-1.86 -1.35,-2.53 -0.62,-0.67 -1.43,-1.18 -2.41,-1.52 -0.99,-0.35 -2.21,-0.52 -3.64,-0.52 -1.54,0 -2.93,0.18 -4.15,0.56 -1.23,0.38 -2.31,0.78 -3.23,1.23 -0.92,0.46 -1.7,0.86 -2.32,1.23 -0.61,0.38 -1.08,0.56 -1.37,0.56 -0.21,0 -0.39,-0.05 -0.53,-0.16 -0.16,-0.09 -0.28,-0.25 -0.4,-0.45 -0.12,-0.2 -0.19,-0.46 -0.24,-0.76 -0.06,-0.33 -0.08,-0.67 -0.08,-1.05 0,-0.62 0.04,-1.13 0.13,-1.49 0.09,-0.36 0.31,-0.72 0.65,-1.04 0.34,-0.33 0.94,-0.72 1.76,-1.17 0.83,-0.44 1.8,-0.86 2.89,-1.23 1.08,-0.36 2.27,-0.67 3.57,-0.92 1.28,-0.25 2.59,-0.36 3.9,-0.36 2.45,0 4.54,0.27 6.26,0.83 1.73,0.56 3.11,1.39 4.17,2.46 1.06,1.08 1.83,2.41 2.31,4.01 0.48,1.6 0.73,3.46 0.73,5.59l0 23.08zm-6.22 -15.66l-5.36 0c-1.71,0 -3.2,0.14 -4.47,0.44 -1.26,0.28 -2.31,0.73 -3.15,1.29 -0.83,0.57 -1.44,1.25 -1.84,2.05 -0.39,0.81 -0.59,1.73 -0.59,2.76 0,1.77 0.56,3.19 1.69,4.24 1.13,1.05 2.69,1.58 4.73,1.58 1.63,0 3.16,-0.41 4.57,-1.26 1.4,-0.83 2.88,-2.11 4.42,-3.84l0 -7.27z"/>
  <path id="14" class="fil12" d="M1442.28 1157.98c0,1.72 -0.34,3.27 -1.02,4.64 -0.69,1.36 -1.66,2.54 -2.95,3.51 -1.27,0.97 -2.84,1.71 -4.68,2.22 -1.86,0.51 -3.96,0.76 -6.3,0.76 -1.32,0 -2.56,-0.09 -3.71,-0.28 -1.15,-0.2 -2.19,-0.44 -3.15,-0.74 -0.94,-0.28 -1.74,-0.61 -2.38,-0.96 -0.65,-0.34 -1.1,-0.63 -1.36,-0.86 -0.27,-0.23 -0.47,-0.44 -0.6,-0.63 -0.13,-0.18 -0.21,-0.39 -0.26,-0.62 -0.05,-0.22 -0.1,-0.5 -0.14,-0.83 -0.04,-0.33 -0.06,-0.71 -0.06,-1.17 0,-0.4 0.03,-0.74 0.08,-1.02 0.05,-0.27 0.12,-0.51 0.2,-0.67 0.07,-0.18 0.15,-0.31 0.26,-0.4 0.1,-0.09 0.25,-0.13 0.41,-0.13 0.28,0 0.67,0.17 1.16,0.52 0.49,0.34 1.15,0.72 2,1.13 0.83,0.43 1.87,0.81 3.1,1.17 1.22,0.35 2.74,0.53 4.54,0.53 1.27,0 2.41,-0.13 3.43,-0.4 1.01,-0.26 1.87,-0.66 2.58,-1.18 0.71,-0.52 1.26,-1.17 1.66,-1.96 0.39,-0.78 0.58,-1.7 0.58,-2.74 0,-0.89 -0.2,-1.68 -0.57,-2.4 -0.37,-0.71 -0.97,-1.31 -1.79,-1.8 -0.81,-0.49 -1.84,-0.88 -3.11,-1.17 -1.27,-0.27 -2.8,-0.41 -4.6,-0.41l-3.8 0c-0.26,0 -0.45,-0.04 -0.61,-0.13 -0.15,-0.09 -0.28,-0.23 -0.4,-0.41 -0.12,-0.2 -0.2,-0.45 -0.23,-0.76 -0.04,-0.31 -0.05,-0.69 -0.05,-1.12 0,-0.41 0.02,-0.76 0.07,-1.06 0.06,-0.31 0.13,-0.54 0.22,-0.73 0.1,-0.18 0.23,-0.31 0.39,-0.4 0.14,-0.09 0.34,-0.13 0.56,-0.13l3.68 0c1.58,0 2.96,-0.13 4.1,-0.38 1.15,-0.26 2.11,-0.64 2.88,-1.13 0.78,-0.49 1.34,-1.1 1.71,-1.82 0.36,-0.73 0.54,-1.56 0.54,-2.49 0,-0.84 -0.18,-1.58 -0.54,-2.22 -0.35,-0.63 -0.83,-1.15 -1.42,-1.58 -0.58,-0.42 -1.32,-0.73 -2.18,-0.95 -0.86,-0.22 -1.78,-0.32 -2.76,-0.32 -1.55,0 -2.92,0.18 -4.12,0.53 -1.21,0.35 -2.24,0.74 -3.11,1.15 -0.87,0.43 -1.58,0.8 -2.14,1.14 -0.56,0.35 -0.95,0.52 -1.18,0.52 -0.13,0 -0.25,-0.02 -0.36,-0.09 -0.1,-0.07 -0.2,-0.18 -0.3,-0.35 -0.09,-0.16 -0.15,-0.39 -0.2,-0.67 -0.04,-0.29 -0.05,-0.64 -0.05,-1.04 0,-0.74 0.05,-1.31 0.17,-1.74 0.12,-0.44 0.33,-0.81 0.64,-1.1 0.3,-0.3 0.83,-0.66 1.59,-1.07 0.75,-0.4 1.65,-0.76 2.67,-1.08 1.02,-0.31 2.14,-0.58 3.35,-0.79 1.21,-0.22 2.44,-0.32 3.71,-0.32 1.85,0 3.54,0.19 5.09,0.58 1.55,0.4 2.87,0.99 3.97,1.79 1.1,0.79 1.96,1.79 2.56,2.96 0.61,1.18 0.91,2.56 0.91,4.12 0,0.94 -0.15,1.83 -0.45,2.67 -0.31,0.86 -0.74,1.63 -1.31,2.34 -0.57,0.71 -1.27,1.35 -2.11,1.9 -0.83,0.56 -1.75,0.99 -2.78,1.28l-0.07 0.04c1,0.1 1.97,0.39 2.93,0.86 0.96,0.48 1.83,1.08 2.58,1.83 0.76,0.75 1.37,1.63 1.84,2.66 0.47,1.04 0.7,2.16 0.7,3.41z"/>
  <path id="15" class="fil12" d="M1481.94 1167.5c0,0.18 -0.05,0.35 -0.16,0.49 -0.1,0.15 -0.26,0.27 -0.49,0.36 -0.22,0.09 -0.54,0.15 -0.94,0.2 -0.4,0.06 -0.91,0.08 -1.52,0.08 -0.61,0 -1.11,-0.02 -1.52,-0.08 -0.4,-0.05 -0.74,-0.12 -0.98,-0.2 -0.26,-0.09 -0.43,-0.21 -0.54,-0.36 -0.1,-0.16 -0.15,-0.31 -0.15,-0.49l0 -19.68c0,-1 0.02,-2 0.08,-3.03 0.05,-1.03 0.12,-2.02 0.19,-3.03 -0.58,1.03 -1.23,2.01 -1.92,3 -0.7,0.97 -1.4,1.95 -2.1,2.9l-14.48 19.84c-0.18,0.21 -0.34,0.38 -0.48,0.53 -0.14,0.16 -0.32,0.27 -0.53,0.36 -0.22,0.09 -0.49,0.16 -0.83,0.2 -0.33,0.04 -0.74,0.05 -1.22,0.05 -0.56,0 -1.02,-0.02 -1.37,-0.08 -0.36,-0.05 -0.65,-0.12 -0.86,-0.2 -0.22,-0.09 -0.38,-0.21 -0.47,-0.36 -0.09,-0.16 -0.13,-0.31 -0.13,-0.49l0 -34.28c0,-0.18 0.04,-0.34 0.13,-0.49 0.09,-0.16 0.26,-0.28 0.51,-0.38 0.23,-0.1 0.56,-0.18 0.97,-0.22 0.4,-0.04 0.89,-0.05 1.49,-0.05 1.22,0 2.06,0.09 2.52,0.28 0.45,0.2 0.68,0.48 0.68,0.86l0 19.79c0,0.99 -0.02,1.97 -0.07,2.95 -0.05,0.98 -0.12,1.95 -0.2,2.92 0.58,-0.97 1.18,-1.91 1.78,-2.84 0.58,-0.92 1.23,-1.82 1.9,-2.71l14.67 -20.11c0.14,-0.21 0.3,-0.38 0.47,-0.52 0.17,-0.14 0.36,-0.26 0.61,-0.34 0.23,-0.09 0.52,-0.14 0.85,-0.18 0.33,-0.04 0.75,-0.07 1.28,-0.07 0.53,0 0.99,0.02 1.35,0.07 0.38,0.04 0.66,0.1 0.88,0.2 0.21,0.11 0.36,0.22 0.46,0.38 0.09,0.16 0.13,0.33 0.13,0.53l0 34.2z"/>
  <path id="16" class="fil12" d="M1521.65 1167.46c0,0.2 -0.05,0.37 -0.15,0.52 -0.1,0.13 -0.26,0.26 -0.49,0.36 -0.22,0.09 -0.54,0.17 -0.94,0.22 -0.4,0.06 -0.91,0.08 -1.52,0.08 -0.64,0 -1.15,-0.02 -1.56,-0.08 -0.4,-0.05 -0.73,-0.13 -0.97,-0.22 -0.24,-0.1 -0.4,-0.23 -0.51,-0.36 -0.1,-0.14 -0.16,-0.31 -0.16,-0.52l0 -29.86 -9.41 0c-0.4,4.02 -0.89,7.6 -1.47,10.74 -0.57,3.14 -1.21,5.87 -1.92,8.21 -0.71,2.32 -1.52,4.29 -2.4,5.89 -0.88,1.59 -1.86,2.88 -2.9,3.85 -1.07,0.97 -2.21,1.68 -3.44,2.1 -1.21,0.43 -2.54,0.65 -3.93,0.65 -0.23,0 -0.43,-0.04 -0.6,-0.12 -0.15,-0.08 -0.3,-0.21 -0.4,-0.42 -0.09,-0.19 -0.17,-0.48 -0.22,-0.85 -0.06,-0.36 -0.08,-0.83 -0.08,-1.41 0,-0.61 0.01,-1.1 0.05,-1.48 0.04,-0.37 0.1,-0.68 0.2,-0.91 0.09,-0.23 0.2,-0.37 0.34,-0.45 0.14,-0.08 0.31,-0.12 0.52,-0.12 0.84,0 1.63,-0.2 2.4,-0.58 0.75,-0.4 1.47,-1.05 2.13,-1.95 0.66,-0.9 1.28,-2.08 1.87,-3.53 0.57,-1.47 1.1,-3.25 1.6,-5.38 0.48,-2.13 0.93,-4.62 1.36,-7.47 0.43,-2.84 0.84,-6.12 1.22,-9.81 0.05,-0.77 0.23,-1.33 0.56,-1.7 0.31,-0.36 0.76,-0.54 1.35,-0.54l17.56 0c0.6,0 1.08,0.18 1.41,0.55 0.35,0.36 0.52,0.92 0.52,1.69l0 32.91z"/>
  <path id="17" class="fil12" d="M1565.01 1149.96c0,2.79 -0.36,5.35 -1.1,7.7 -0.73,2.33 -1.83,4.36 -3.28,6.06 -1.45,1.7 -3.28,3.02 -5.45,3.97 -2.19,0.94 -4.73,1.42 -7.61,1.42 -2.81,0 -5.26,-0.41 -7.35,-1.26 -2.09,-0.83 -3.83,-2.05 -5.21,-3.64 -1.39,-1.59 -2.42,-3.54 -3.11,-5.81 -0.68,-2.28 -1.02,-4.86 -1.02,-7.75 0,-2.79 0.36,-5.36 1.08,-7.69 0.73,-2.35 1.82,-4.37 3.27,-6.07 1.45,-1.7 3.27,-3.01 5.45,-3.96 2.18,-0.93 4.72,-1.4 7.62,-1.4 2.81,0 5.26,0.41 7.35,1.26 2.09,0.83 3.83,2.05 5.21,3.64 1.39,1.59 2.44,3.52 3.14,5.81 0.69,2.28 1.04,4.85 1.04,7.71zm-6.53 0.4c0,-1.85 -0.17,-3.6 -0.52,-5.25 -0.34,-1.65 -0.91,-3.09 -1.69,-4.33 -0.78,-1.25 -1.86,-2.23 -3.21,-2.95 -1.33,-0.73 -3.02,-1.09 -5.03,-1.09 -1.86,0 -3.45,0.33 -4.78,0.99 -1.34,0.66 -2.42,1.6 -3.3,2.8 -0.87,1.21 -1.5,2.63 -1.92,4.28 -0.43,1.65 -0.64,3.45 -0.64,5.39 0,1.88 0.17,3.64 0.52,5.29 0.34,1.65 0.91,3.09 1.71,4.32 0.8,1.22 1.88,2.21 3.21,2.92 1.35,0.73 3.03,1.09 5.05,1.09 1.83,0 3.41,-0.33 4.76,-0.99 1.35,-0.66 2.45,-1.58 3.32,-2.77 0.87,-1.19 1.51,-2.62 1.91,-4.26 0.4,-1.65 0.61,-3.46 0.61,-5.44z"/>
  <path id="18" class="fil12" d="M1602.37 1157.62c0,1.81 -0.34,3.41 -1.02,4.81 -0.68,1.41 -1.7,2.58 -3.04,3.54 -1.34,0.95 -3.01,1.68 -5.01,2.17 -2.01,0.49 -4.34,0.74 -7,0.74 -0.83,0 -1.65,0 -2.42,-0.01 -0.79,-0.01 -1.55,-0.04 -2.28,-0.07 -0.74,-0.04 -1.47,-0.09 -2.19,-0.14 -0.71,-0.04 -1.44,-0.1 -2.14,-0.18 -1.02,-0.13 -1.76,-0.47 -2.24,-1.01 -0.48,-0.54 -0.73,-1.35 -0.73,-2.41l0 -29.43c0,-1.04 0.23,-1.84 0.7,-2.4 0.47,-0.56 1.19,-0.88 2.15,-0.99 0.66,-0.08 1.36,-0.14 2.11,-0.2 0.74,-0.04 1.51,-0.09 2.3,-0.13 0.79,-0.04 1.59,-0.07 2.43,-0.09 0.83,-0.03 1.68,-0.04 2.54,-0.04 2.46,0 4.59,0.2 6.38,0.61 1.8,0.4 3.29,1 4.49,1.77 1.19,0.79 2.07,1.75 2.64,2.89 0.57,1.14 0.86,2.44 0.86,3.9 0,1.92 -0.52,3.57 -1.55,4.94 -1.02,1.36 -2.54,2.34 -4.54,2.92 2.5,0.53 4.4,1.55 5.67,3.07 1.26,1.53 1.89,3.43 1.89,5.74zm-7.54 -15.86c0,-0.83 -0.15,-1.57 -0.45,-2.23 -0.31,-0.65 -0.81,-1.21 -1.51,-1.66 -0.7,-0.46 -1.61,-0.79 -2.71,-1.02 -1.1,-0.22 -2.43,-0.34 -4.02,-0.34 -1.2,0 -2.29,0.03 -3.27,0.09 -1,0.07 -1.83,0.14 -2.52,0.2l0 10.59 6.39 0c2.62,0 4.61,-0.48 6,-1.45 1.39,-0.97 2.08,-2.37 2.08,-4.19zm1.09 15.95c0,-1.01 -0.18,-1.91 -0.53,-2.67 -0.35,-0.78 -0.92,-1.41 -1.68,-1.92 -0.78,-0.51 -1.76,-0.88 -2.97,-1.14 -1.2,-0.25 -2.62,-0.38 -4.27,-0.38l-6.11 0 0 12.11c0.48,0.07 0.99,0.13 1.5,0.17 0.52,0.04 1.05,0.08 1.6,0.12 0.54,0.04 1.08,0.07 1.62,0.09 0.54,0.03 1.05,0.04 1.5,0.04 1.65,0 3.05,-0.14 4.22,-0.44 1.16,-0.28 2.13,-0.71 2.9,-1.27 0.76,-0.56 1.34,-1.23 1.68,-2.02 0.35,-0.8 0.53,-1.69 0.53,-2.68z"/>
  <path id="19" class="fil12" d="M1641.97 1167.5c0,0.18 -0.05,0.35 -0.16,0.49 -0.1,0.15 -0.26,0.27 -0.49,0.36 -0.22,0.09 -0.54,0.15 -0.94,0.2 -0.4,0.06 -0.91,0.08 -1.52,0.08 -0.61,0 -1.11,-0.02 -1.52,-0.08 -0.4,-0.05 -0.74,-0.12 -0.98,-0.2 -0.26,-0.09 -0.43,-0.21 -0.54,-0.36 -0.1,-0.16 -0.15,-0.31 -0.15,-0.49l0 -19.68c0,-1 0.02,-2 0.08,-3.03 0.05,-1.03 0.12,-2.02 0.19,-3.03 -0.58,1.03 -1.23,2.01 -1.92,3 -0.7,0.97 -1.4,1.95 -2.1,2.9l-14.48 19.84c-0.18,0.21 -0.34,0.38 -0.48,0.53 -0.14,0.16 -0.32,0.27 -0.53,0.36 -0.22,0.09 -0.49,0.16 -0.83,0.2 -0.33,0.04 -0.74,0.05 -1.22,0.05 -0.56,0 -1.02,-0.02 -1.37,-0.08 -0.36,-0.05 -0.65,-0.12 -0.86,-0.2 -0.22,-0.09 -0.38,-0.21 -0.47,-0.36 -0.09,-0.16 -0.13,-0.31 -0.13,-0.49l0 -34.28c0,-0.18 0.04,-0.34 0.13,-0.49 0.09,-0.16 0.26,-0.28 0.51,-0.38 0.23,-0.1 0.56,-0.18 0.97,-0.22 0.4,-0.04 0.89,-0.05 1.49,-0.05 1.22,0 2.06,0.09 2.52,0.28 0.45,0.2 0.68,0.48 0.68,0.86l0 19.79c0,0.99 -0.02,1.97 -0.07,2.95 -0.05,0.98 -0.12,1.95 -0.2,2.92 0.58,-0.97 1.18,-1.91 1.78,-2.84 0.58,-0.92 1.23,-1.82 1.9,-2.71l14.67 -20.11c0.14,-0.21 0.3,-0.38 0.47,-0.52 0.17,-0.14 0.36,-0.26 0.61,-0.34 0.23,-0.09 0.52,-0.14 0.85,-0.18 0.33,-0.04 0.75,-0.07 1.28,-0.07 0.53,0 0.99,0.02 1.35,0.07 0.38,0.04 0.66,0.1 0.88,0.2 0.21,0.11 0.36,0.22 0.46,0.38 0.09,0.16 0.13,0.33 0.13,0.53l0 34.2z"/>
  <path id="20" class="fil12" d="M1678.41 1167.46c0,0.2 -0.05,0.37 -0.15,0.52 -0.1,0.13 -0.26,0.26 -0.49,0.36 -0.23,0.09 -0.54,0.17 -0.96,0.22 -0.4,0.06 -0.91,0.08 -1.52,0.08 -0.62,0 -1.13,-0.02 -1.55,-0.08 -0.41,-0.05 -0.75,-0.13 -0.99,-0.22 -0.25,-0.1 -0.41,-0.23 -0.51,-0.36 -0.09,-0.14 -0.13,-0.31 -0.13,-0.52l0 -13.79c-1.41,0.64 -2.91,1.13 -4.5,1.49 -1.58,0.38 -3.3,0.56 -5.13,0.56 -2.36,0 -4.32,-0.3 -5.89,-0.91 -1.57,-0.61 -2.83,-1.45 -3.76,-2.5 -0.93,-1.06 -1.59,-2.33 -2,-3.8 -0.39,-1.47 -0.58,-3.32 -0.58,-5.55l0 -9.71c0,-0.21 0.04,-0.38 0.13,-0.52 0.09,-0.13 0.26,-0.26 0.52,-0.38 0.25,-0.12 0.57,-0.2 0.96,-0.23 0.4,-0.04 0.89,-0.05 1.5,-0.05 0.64,0 1.15,0.01 1.56,0.05 0.4,0.04 0.73,0.12 0.94,0.23 0.23,0.12 0.4,0.25 0.52,0.38 0.12,0.14 0.17,0.31 0.17,0.52l0 8.73c0,2.05 0.15,3.58 0.45,4.59 0.31,1.01 0.75,1.82 1.34,2.41 0.57,0.58 1.3,1.01 2.14,1.24 0.84,0.25 1.84,0.36 2.98,0.36 1.49,0 2.96,-0.19 4.38,-0.57 1.42,-0.38 2.85,-0.92 4.26,-1.63l0 -15.13c0,-0.21 0.04,-0.38 0.13,-0.52 0.09,-0.13 0.26,-0.26 0.51,-0.38 0.23,-0.12 0.57,-0.2 0.99,-0.23 0.43,-0.04 0.93,-0.05 1.55,-0.05 0.61,0 1.12,0.01 1.52,0.05 0.41,0.04 0.73,0.12 0.96,0.23 0.23,0.12 0.39,0.25 0.49,0.38 0.1,0.14 0.15,0.31 0.15,0.52l0 34.2z"/>
  <path class="fil12" d="M1208.38 1231.46c0,0.33 -0.02,0.6 -0.06,0.82 -0.04,0.22 -0.1,0.42 -0.17,0.56 -0.07,0.15 -0.15,0.26 -0.24,0.32 -0.09,0.07 -0.2,0.1 -0.33,0.1l-8.25 0 0 18.98c0,0.13 -0.04,0.24 -0.1,0.34 -0.07,0.08 -0.17,0.17 -0.32,0.23 -0.15,0.06 -0.35,0.11 -0.61,0.14 -0.26,0.04 -0.59,0.05 -1,0.05 -0.4,0 -0.73,-0.01 -0.98,-0.05 -0.27,-0.03 -0.47,-0.08 -0.63,-0.14 -0.16,-0.07 -0.27,-0.15 -0.33,-0.23 -0.06,-0.09 -0.08,-0.2 -0.08,-0.34l0 -21.14c0,-0.49 0.11,-0.85 0.33,-1.09 0.22,-0.23 0.52,-0.35 0.91,-0.35l11.05 0c0.13,0 0.24,0.03 0.34,0.11 0.09,0.08 0.16,0.19 0.24,0.34 0.07,0.15 0.13,0.34 0.17,0.56 0.04,0.21 0.06,0.48 0.06,0.79z"/>
  <path id="1" class="fil12" d="M1230.75 1240.3c0,0.63 -0.16,1.08 -0.47,1.36 -0.32,0.27 -0.68,0.4 -1.09,0.4l-14.43 0c0,1.22 0.12,2.32 0.36,3.3 0.24,0.98 0.65,1.82 1.23,2.52 0.56,0.7 1.31,1.23 2.22,1.61 0.92,0.37 2.03,0.57 3.35,0.57 1.04,0 1.98,-0.08 2.78,-0.26 0.82,-0.17 1.53,-0.36 2.12,-0.57 0.59,-0.2 1.08,-0.4 1.47,-0.56 0.38,-0.18 0.67,-0.26 0.87,-0.26 0.12,0 0.22,0.02 0.31,0.08 0.08,0.06 0.16,0.14 0.2,0.26 0.05,0.11 0.09,0.27 0.12,0.47 0.03,0.2 0.04,0.45 0.04,0.74 0,0.21 -0.01,0.39 -0.03,0.55 -0.01,0.15 -0.03,0.29 -0.06,0.41 -0.03,0.13 -0.07,0.23 -0.13,0.33 -0.06,0.09 -0.13,0.19 -0.22,0.28 -0.09,0.09 -0.36,0.23 -0.79,0.43 -0.44,0.2 -1.01,0.4 -1.71,0.6 -0.7,0.19 -1.51,0.36 -2.42,0.52 -0.92,0.16 -1.89,0.23 -2.93,0.23 -1.81,0 -3.38,-0.25 -4.74,-0.76 -1.36,-0.5 -2.5,-1.25 -3.43,-2.24 -0.93,-1 -1.62,-2.24 -2.09,-3.74 -0.48,-1.49 -0.71,-3.23 -0.71,-5.22 0,-1.88 0.24,-3.58 0.74,-5.09 0.48,-1.5 1.19,-2.78 2.11,-3.83 0.92,-1.05 2.03,-1.85 3.33,-2.42 1.3,-0.56 2.76,-0.84 4.37,-0.84 1.72,0 3.19,0.27 4.4,0.83 1.21,0.55 2.21,1.3 2.99,2.23 0.77,0.93 1.35,2.03 1.72,3.3 0.36,1.26 0.55,2.61 0.55,4.04l0 0.73zm-4.05 -1.19c0.05,-2.11 -0.42,-3.78 -1.41,-4.99 -0.99,-1.21 -2.45,-1.81 -4.39,-1.81 -1,0 -1.88,0.19 -2.62,0.56 -0.75,0.38 -1.38,0.87 -1.88,1.5 -0.51,0.61 -0.9,1.34 -1.17,2.15 -0.27,0.82 -0.43,1.68 -0.47,2.58l11.95 0z"/>
  <path id="2" class="fil12" d="M1256.17 1252.25c0,0.13 -0.03,0.24 -0.1,0.34 -0.07,0.08 -0.16,0.17 -0.32,0.23 -0.15,0.06 -0.35,0.11 -0.61,0.14 -0.26,0.04 -0.58,0.05 -0.98,0.05 -0.41,0 -0.75,-0.01 -1.01,-0.05 -0.27,-0.03 -0.47,-0.08 -0.62,-0.14 -0.15,-0.07 -0.25,-0.15 -0.32,-0.23 -0.07,-0.09 -0.1,-0.2 -0.1,-0.34l0 -9.64 -11.15 0 0 9.64c0,0.13 -0.04,0.24 -0.1,0.34 -0.07,0.08 -0.17,0.17 -0.32,0.23 -0.15,0.06 -0.35,0.11 -0.61,0.14 -0.26,0.04 -0.59,0.05 -1,0.05 -0.4,0 -0.73,-0.01 -0.98,-0.05 -0.27,-0.03 -0.47,-0.08 -0.63,-0.14 -0.16,-0.07 -0.27,-0.15 -0.33,-0.23 -0.06,-0.09 -0.08,-0.2 -0.08,-0.34l0 -21.98c0,-0.13 0.02,-0.24 0.08,-0.34 0.06,-0.08 0.17,-0.17 0.33,-0.24 0.15,-0.07 0.36,-0.13 0.63,-0.15 0.26,-0.02 0.58,-0.03 0.98,-0.03 0.41,0 0.74,0.01 1,0.03 0.27,0.02 0.47,0.07 0.61,0.15 0.15,0.07 0.25,0.16 0.32,0.24 0.07,0.09 0.1,0.2 0.1,0.34l0 8.94 11.15 0 0 -8.94c0,-0.13 0.03,-0.24 0.1,-0.34 0.07,-0.08 0.17,-0.17 0.32,-0.24 0.15,-0.07 0.35,-0.13 0.62,-0.15 0.26,-0.02 0.59,-0.03 1.01,-0.03 0.4,0 0.72,0.01 0.98,0.03 0.27,0.02 0.47,0.07 0.61,0.15 0.15,0.07 0.25,0.16 0.32,0.24 0.07,0.09 0.1,0.2 0.1,0.34l0 21.98z"/>
  <path id="3" class="fil12" d="M1282.35 1240.3c0,0.63 -0.16,1.08 -0.47,1.36 -0.32,0.27 -0.68,0.4 -1.09,0.4l-14.43 0c0,1.22 0.12,2.32 0.36,3.3 0.24,0.98 0.65,1.82 1.23,2.52 0.56,0.7 1.31,1.23 2.22,1.61 0.92,0.37 2.03,0.57 3.35,0.57 1.04,0 1.98,-0.08 2.78,-0.26 0.82,-0.17 1.53,-0.36 2.12,-0.57 0.59,-0.2 1.08,-0.4 1.47,-0.56 0.38,-0.18 0.67,-0.26 0.87,-0.26 0.12,0 0.22,0.02 0.31,0.08 0.08,0.06 0.16,0.14 0.2,0.26 0.05,0.11 0.09,0.27 0.12,0.47 0.03,0.2 0.04,0.45 0.04,0.74 0,0.21 -0.01,0.39 -0.03,0.55 -0.01,0.15 -0.03,0.29 -0.06,0.41 -0.03,0.13 -0.07,0.23 -0.13,0.33 -0.06,0.09 -0.13,0.19 -0.22,0.28 -0.09,0.09 -0.36,0.23 -0.79,0.43 -0.44,0.2 -1.01,0.4 -1.71,0.6 -0.7,0.19 -1.51,0.36 -2.42,0.52 -0.92,0.16 -1.89,0.23 -2.93,0.23 -1.81,0 -3.38,-0.25 -4.74,-0.76 -1.36,-0.5 -2.5,-1.25 -3.43,-2.24 -0.93,-1 -1.62,-2.24 -2.09,-3.74 -0.48,-1.49 -0.71,-3.23 -0.71,-5.22 0,-1.88 0.24,-3.58 0.74,-5.09 0.48,-1.5 1.19,-2.78 2.11,-3.83 0.92,-1.05 2.03,-1.85 3.33,-2.42 1.3,-0.56 2.76,-0.84 4.37,-0.84 1.72,0 3.19,0.27 4.4,0.83 1.21,0.55 2.21,1.3 2.99,2.23 0.77,0.93 1.35,2.03 1.72,3.3 0.36,1.26 0.55,2.61 0.55,4.04l0 0.73zm-4.05 -1.19c0.05,-2.11 -0.42,-3.78 -1.41,-4.99 -0.99,-1.21 -2.45,-1.81 -4.39,-1.81 -1,0 -1.88,0.19 -2.62,0.56 -0.75,0.38 -1.38,0.87 -1.88,1.5 -0.51,0.61 -0.9,1.34 -1.17,2.15 -0.27,0.82 -0.43,1.68 -0.47,2.58l11.95 0z"/>
  <path id="4" class="fil12" d="M1308.72 1240.9c0,1.93 -0.21,3.65 -0.62,5.18 -0.41,1.52 -1.02,2.82 -1.82,3.89 -0.8,1.07 -1.8,1.89 -2.98,2.46 -1.18,0.58 -2.54,0.87 -4.07,0.87 -0.65,0 -1.25,-0.07 -1.8,-0.2 -0.55,-0.13 -1.09,-0.33 -1.62,-0.61 -0.52,-0.27 -1.05,-0.62 -1.56,-1.05 -0.53,-0.41 -1.08,-0.91 -1.66,-1.48l0 11.01c0,0.13 -0.04,0.24 -0.1,0.34 -0.07,0.1 -0.17,0.18 -0.32,0.25 -0.15,0.06 -0.35,0.11 -0.61,0.14 -0.26,0.03 -0.59,0.05 -1,0.05 -0.4,0 -0.73,-0.02 -0.98,-0.05 -0.27,-0.03 -0.47,-0.08 -0.63,-0.14 -0.16,-0.07 -0.27,-0.15 -0.33,-0.25 -0.06,-0.1 -0.08,-0.21 -0.08,-0.34l0 -30.7c0,-0.15 0.02,-0.27 0.07,-0.36 0.05,-0.08 0.15,-0.17 0.29,-0.22 0.15,-0.07 0.34,-0.12 0.57,-0.14 0.22,-0.02 0.51,-0.03 0.83,-0.03 0.34,0 0.62,0.01 0.85,0.03 0.21,0.02 0.4,0.07 0.55,0.13 0.15,0.07 0.25,0.15 0.31,0.23 0.06,0.09 0.08,0.21 0.08,0.36l0 2.94c0.67,-0.68 1.31,-1.28 1.93,-1.78 0.61,-0.5 1.24,-0.92 1.87,-1.25 0.62,-0.33 1.27,-0.59 1.92,-0.76 0.66,-0.17 1.35,-0.26 2.09,-0.26 1.59,0 2.94,0.31 4.06,0.92 1.12,0.63 2.03,1.47 2.74,2.54 0.71,1.08 1.22,2.33 1.55,3.75 0.33,1.42 0.48,2.93 0.48,4.52zm-4.2 0.47c0,-1.12 -0.08,-2.22 -0.26,-3.26 -0.17,-1.05 -0.47,-1.98 -0.87,-2.8 -0.41,-0.81 -0.97,-1.47 -1.68,-1.96 -0.7,-0.49 -1.57,-0.73 -2.62,-0.73 -0.52,0 -1.03,0.07 -1.54,0.23 -0.5,0.16 -1.01,0.4 -1.54,0.74 -0.52,0.33 -1.07,0.77 -1.63,1.32 -0.57,0.55 -1.17,1.22 -1.81,2.02l0 8.74c1.11,1.36 2.15,2.39 3.15,3.12 1,0.72 2.04,1.08 3.13,1.08 1.01,0 1.88,-0.24 2.6,-0.74 0.73,-0.49 1.31,-1.14 1.76,-1.96 0.45,-0.81 0.77,-1.72 0.99,-2.74 0.2,-1.01 0.32,-2.03 0.32,-3.06z"/>
  <path id="5" class="fil12" d="M1331.33 1252.27c0,0.19 -0.07,0.34 -0.19,0.44 -0.13,0.1 -0.31,0.16 -0.54,0.21 -0.22,0.05 -0.56,0.07 -1,0.07 -0.41,0 -0.75,-0.02 -1.01,-0.07 -0.25,-0.05 -0.43,-0.12 -0.55,-0.21 -0.12,-0.1 -0.18,-0.24 -0.18,-0.44l0 -2.2c-0.96,1.02 -2.02,1.82 -3.21,2.39 -1.18,0.56 -2.43,0.84 -3.75,0.84 -1.15,0 -2.21,-0.15 -3.14,-0.45 -0.93,-0.3 -1.73,-0.74 -2.39,-1.31 -0.66,-0.57 -1.18,-1.28 -1.55,-2.1 -0.36,-0.83 -0.55,-1.77 -0.55,-2.83 0,-1.24 0.25,-2.32 0.76,-3.23 0.5,-0.92 1.22,-1.67 2.17,-2.27 0.94,-0.6 2.1,-1.06 3.47,-1.36 1.37,-0.3 2.91,-0.45 4.62,-0.45l3.03 0 0 -1.72c0,-0.84 -0.09,-1.59 -0.27,-2.25 -0.18,-0.65 -0.47,-1.19 -0.87,-1.62 -0.4,-0.43 -0.92,-0.76 -1.55,-0.97 -0.63,-0.23 -1.41,-0.34 -2.34,-0.34 -0.99,0 -1.88,0.12 -2.67,0.36 -0.79,0.24 -1.48,0.5 -2.08,0.79 -0.59,0.29 -1.09,0.55 -1.49,0.79 -0.39,0.24 -0.69,0.36 -0.88,0.36 -0.13,0 -0.25,-0.03 -0.34,-0.1 -0.1,-0.06 -0.18,-0.16 -0.26,-0.29 -0.07,-0.13 -0.12,-0.29 -0.16,-0.49 -0.03,-0.2 -0.05,-0.42 -0.05,-0.67 0,-0.4 0.02,-0.72 0.08,-0.96 0.06,-0.23 0.2,-0.46 0.41,-0.67 0.22,-0.21 0.6,-0.46 1.14,-0.75 0.53,-0.28 1.15,-0.55 1.86,-0.79 0.69,-0.23 1.46,-0.43 2.29,-0.59 0.82,-0.16 1.67,-0.23 2.51,-0.23 1.57,0 2.91,0.17 4.03,0.53 1.11,0.36 2,0.89 2.68,1.58 0.68,0.69 1.17,1.55 1.48,2.58 0.31,1.02 0.47,2.22 0.47,3.59l0 14.83zm-4 -10.07l-3.44 0c-1.1,0 -2.06,0.09 -2.87,0.28 -0.81,0.18 -1.48,0.47 -2.02,0.83 -0.54,0.37 -0.93,0.8 -1.19,1.32 -0.25,0.52 -0.37,1.11 -0.37,1.77 0,1.14 0.36,2.05 1.08,2.73 0.72,0.67 1.73,1.01 3.04,1.01 1.05,0 2.03,-0.27 2.93,-0.81 0.9,-0.53 1.85,-1.35 2.84,-2.47l0 -4.67z"/>
  <path id="6" class="fil12" d="M1356.78 1252.25c0,0.13 -0.03,0.24 -0.1,0.34 -0.07,0.08 -0.17,0.17 -0.32,0.23 -0.14,0.06 -0.35,0.11 -0.61,0.14 -0.26,0.04 -0.58,0.05 -0.98,0.05 -0.4,0 -0.74,-0.01 -1,-0.05 -0.26,-0.03 -0.47,-0.08 -0.63,-0.14 -0.15,-0.07 -0.26,-0.15 -0.32,-0.23 -0.07,-0.09 -0.1,-0.2 -0.1,-0.34l0 -19.18 -6.05 0c-0.26,2.58 -0.57,4.88 -0.94,6.9 -0.37,2.02 -0.77,3.77 -1.23,5.27 -0.46,1.49 -0.97,2.76 -1.54,3.78 -0.57,1.02 -1.19,1.85 -1.87,2.47 -0.68,0.63 -1.41,1.08 -2.21,1.35 -0.79,0.27 -1.63,0.42 -2.53,0.42 -0.15,0 -0.27,-0.02 -0.38,-0.07 -0.1,-0.05 -0.19,-0.13 -0.26,-0.27 -0.06,-0.13 -0.11,-0.31 -0.14,-0.55 -0.03,-0.23 -0.05,-0.53 -0.05,-0.91 0,-0.39 0.01,-0.71 0.03,-0.95 0.03,-0.24 0.07,-0.44 0.13,-0.58 0.06,-0.15 0.13,-0.24 0.22,-0.29 0.09,-0.05 0.2,-0.07 0.33,-0.07 0.54,0 1.05,-0.13 1.54,-0.37 0.48,-0.26 0.94,-0.67 1.37,-1.25 0.42,-0.58 0.82,-1.33 1.2,-2.27 0.37,-0.94 0.71,-2.09 1.02,-3.46 0.31,-1.36 0.6,-2.96 0.87,-4.8 0.27,-1.82 0.54,-3.93 0.78,-6.31 0.03,-0.49 0.15,-0.85 0.36,-1.09 0.2,-0.23 0.49,-0.35 0.87,-0.35l11.28 0c0.39,0 0.69,0.12 0.91,0.36 0.23,0.23 0.34,0.59 0.34,1.08l0 21.14z"/>
  <path id="7" class="fil12" d="M1382.49 1245.25c0,1.12 -0.21,2.17 -0.62,3.15 -0.42,0.98 -1.06,1.82 -1.94,2.54 -0.87,0.72 -2,1.28 -3.37,1.69 -1.37,0.41 -3.01,0.62 -4.91,0.62 -0.43,0 -0.89,0 -1.36,-0.01 -0.47,-0.01 -0.94,-0.02 -1.39,-0.05 -0.46,-0.02 -0.9,-0.06 -1.35,-0.09 -0.44,-0.03 -0.87,-0.07 -1.3,-0.12 -0.68,-0.08 -1.18,-0.3 -1.51,-0.66 -0.33,-0.36 -0.49,-0.91 -0.49,-1.64l0 -20.42c0,-0.13 0.02,-0.24 0.08,-0.34 0.06,-0.08 0.17,-0.17 0.33,-0.24 0.15,-0.07 0.36,-0.13 0.63,-0.15 0.26,-0.02 0.58,-0.03 0.98,-0.03 0.39,0 0.72,0.01 0.97,0.03 0.27,0.02 0.47,0.07 0.63,0.15 0.16,0.07 0.27,0.16 0.33,0.24 0.07,0.09 0.1,0.2 0.1,0.34l0 7.74c0.6,-0.05 1.25,-0.09 1.95,-0.12 0.7,-0.03 1.42,-0.03 2.15,-0.03 1.78,0 3.3,0.17 4.58,0.52 1.28,0.35 2.32,0.85 3.13,1.5 0.82,0.65 1.42,1.42 1.81,2.33 0.39,0.9 0.58,1.92 0.58,3.03zm-4.25 0.27c0,-0.67 -0.11,-1.28 -0.32,-1.83 -0.21,-0.54 -0.56,-1.01 -1.05,-1.39 -0.48,-0.38 -1.12,-0.68 -1.9,-0.88 -0.78,-0.21 -1.74,-0.31 -2.87,-0.31 -0.68,0 -1.36,0.01 -2.02,0.05 -0.66,0.03 -1.26,0.07 -1.79,0.12l0 8.48c0.56,0.06 1.17,0.12 1.83,0.17 0.65,0.05 1.37,0.07 2.17,0.07 2.02,0 3.51,-0.4 4.48,-1.19 0.97,-0.79 1.47,-1.89 1.47,-3.29z"/>
  <path id="8" class="fil12" d="M1406.97 1252.25c0,0.13 -0.03,0.24 -0.1,0.34 -0.07,0.08 -0.16,0.17 -0.32,0.23 -0.15,0.06 -0.35,0.11 -0.61,0.14 -0.26,0.04 -0.58,0.05 -0.98,0.05 -0.41,0 -0.75,-0.01 -1.01,-0.05 -0.27,-0.03 -0.47,-0.08 -0.62,-0.14 -0.15,-0.07 -0.25,-0.15 -0.32,-0.23 -0.07,-0.09 -0.1,-0.2 -0.1,-0.34l0 -9.64 -11.15 0 0 9.64c0,0.13 -0.04,0.24 -0.1,0.34 -0.07,0.08 -0.17,0.17 -0.32,0.23 -0.15,0.06 -0.35,0.11 -0.61,0.14 -0.26,0.04 -0.59,0.05 -1,0.05 -0.4,0 -0.73,-0.01 -0.98,-0.05 -0.27,-0.03 -0.47,-0.08 -0.63,-0.14 -0.16,-0.07 -0.27,-0.15 -0.33,-0.23 -0.06,-0.09 -0.08,-0.2 -0.08,-0.34l0 -21.98c0,-0.13 0.02,-0.24 0.08,-0.34 0.06,-0.08 0.17,-0.17 0.33,-0.24 0.15,-0.07 0.36,-0.13 0.63,-0.15 0.26,-0.02 0.58,-0.03 0.98,-0.03 0.41,0 0.74,0.01 1,0.03 0.27,0.02 0.47,0.07 0.61,0.15 0.15,0.07 0.25,0.16 0.32,0.24 0.07,0.09 0.1,0.2 0.1,0.34l0 8.94 11.15 0 0 -8.94c0,-0.13 0.03,-0.24 0.1,-0.34 0.07,-0.08 0.17,-0.17 0.32,-0.24 0.15,-0.07 0.35,-0.13 0.62,-0.15 0.26,-0.02 0.59,-0.03 1.01,-0.03 0.4,0 0.72,0.01 0.98,0.03 0.27,0.02 0.47,0.07 0.61,0.15 0.15,0.07 0.25,0.16 0.32,0.24 0.07,0.09 0.1,0.2 0.1,0.34l0 21.98z"/>
  <path id="9" class="fil12" d="M1440.3 1252.25c0,0.13 -0.03,0.24 -0.1,0.34 -0.07,0.08 -0.17,0.17 -0.32,0.23 -0.15,0.06 -0.35,0.11 -0.61,0.14 -0.26,0.04 -0.59,0.05 -1,0.05 -0.4,0 -0.73,-0.01 -0.98,-0.05 -0.27,-0.03 -0.47,-0.08 -0.63,-0.14 -0.16,-0.07 -0.27,-0.15 -0.32,-0.23 -0.06,-0.09 -0.08,-0.2 -0.08,-0.34l0 -21.98c0,-0.13 0.02,-0.24 0.08,-0.34 0.06,-0.08 0.16,-0.17 0.32,-0.24 0.15,-0.07 0.36,-0.13 0.63,-0.15 0.26,-0.02 0.58,-0.03 0.98,-0.03 0.41,0 0.74,0.01 1,0.03 0.27,0.02 0.47,0.07 0.61,0.15 0.15,0.07 0.25,0.16 0.32,0.24 0.07,0.09 0.1,0.2 0.1,0.34l0 21.98zm-21.8 -14.24c0.6,-0.05 1.21,-0.09 1.82,-0.12 0.61,-0.03 1.27,-0.03 1.98,-0.03 1.74,0 3.23,0.17 4.46,0.52 1.23,0.35 2.25,0.85 3.06,1.5 0.8,0.65 1.39,1.42 1.77,2.33 0.38,0.9 0.56,1.92 0.56,3.03 0,1.12 -0.2,2.17 -0.6,3.15 -0.4,0.98 -1.02,1.82 -1.88,2.54 -0.86,0.72 -1.95,1.28 -3.28,1.69 -1.34,0.41 -2.94,0.62 -4.82,0.62 -0.43,0 -0.87,0 -1.32,-0.01 -0.43,-0.01 -0.87,-0.02 -1.29,-0.05 -0.42,-0.02 -0.84,-0.06 -1.26,-0.09 -0.42,-0.03 -0.83,-0.07 -1.26,-0.12 -0.68,-0.08 -1.18,-0.3 -1.51,-0.66 -0.33,-0.36 -0.49,-0.91 -0.49,-1.64l0 -20.42c0,-0.13 0.02,-0.24 0.08,-0.34 0.06,-0.08 0.17,-0.17 0.33,-0.24 0.15,-0.07 0.36,-0.13 0.61,-0.15 0.26,-0.02 0.57,-0.03 0.95,-0.03 0.78,0 1.33,0.06 1.63,0.18 0.3,0.13 0.45,0.32 0.45,0.58l0 7.74zm9.45 7.52c0,-0.67 -0.1,-1.28 -0.31,-1.83 -0.2,-0.54 -0.53,-1.01 -0.99,-1.39 -0.47,-0.38 -1.08,-0.68 -1.84,-0.88 -0.77,-0.21 -1.7,-0.31 -2.8,-0.31 -0.67,0 -1.28,0.01 -1.85,0.05 -0.57,0.03 -1.13,0.07 -1.66,0.12l0 8.48c0.56,0.06 1.12,0.12 1.68,0.17 0.55,0.05 1.22,0.07 2.02,0.07 1.98,0 3.43,-0.4 4.36,-1.19 0.92,-0.79 1.39,-1.89 1.39,-3.29z"/>
  <path id="10" class="fil12" d="M1467.29 1252.27c0,0.12 -0.03,0.22 -0.1,0.32 -0.07,0.1 -0.17,0.17 -0.32,0.23 -0.14,0.06 -0.35,0.1 -0.61,0.13 -0.26,0.04 -0.58,0.05 -0.97,0.05 -0.39,0 -0.72,-0.01 -0.98,-0.05 -0.26,-0.03 -0.47,-0.07 -0.63,-0.13 -0.17,-0.06 -0.27,-0.13 -0.34,-0.23 -0.07,-0.1 -0.1,-0.2 -0.1,-0.32l0 -12.65c0,-0.64 0.02,-1.28 0.05,-1.95 0.03,-0.66 0.07,-1.3 0.13,-1.94 -0.38,0.66 -0.79,1.29 -1.23,1.93 -0.45,0.62 -0.9,1.25 -1.35,1.87l-9.31 12.75c-0.12,0.13 -0.21,0.24 -0.31,0.34 -0.09,0.1 -0.21,0.18 -0.34,0.23 -0.14,0.06 -0.32,0.1 -0.54,0.13 -0.21,0.02 -0.47,0.03 -0.78,0.03 -0.36,0 -0.66,-0.01 -0.88,-0.05 -0.23,-0.03 -0.41,-0.07 -0.55,-0.13 -0.14,-0.06 -0.24,-0.13 -0.3,-0.23 -0.06,-0.1 -0.08,-0.2 -0.08,-0.32l0 -22.03c0,-0.12 0.02,-0.21 0.08,-0.32 0.06,-0.1 0.17,-0.18 0.33,-0.24 0.15,-0.07 0.36,-0.12 0.63,-0.14 0.26,-0.02 0.57,-0.03 0.95,-0.03 0.79,0 1.33,0.06 1.62,0.18 0.29,0.13 0.44,0.31 0.44,0.55l0 12.72c0,0.63 -0.02,1.27 -0.05,1.89 -0.03,0.63 -0.07,1.25 -0.13,1.88 0.38,-0.62 0.76,-1.22 1.14,-1.82 0.38,-0.59 0.79,-1.17 1.22,-1.74l9.43 -12.92c0.09,-0.13 0.19,-0.24 0.3,-0.33 0.11,-0.09 0.23,-0.17 0.39,-0.22 0.15,-0.06 0.34,-0.09 0.55,-0.12 0.2,-0.02 0.48,-0.04 0.82,-0.04 0.34,0 0.63,0.02 0.87,0.04 0.24,0.03 0.42,0.07 0.57,0.13 0.13,0.07 0.23,0.14 0.29,0.24 0.06,0.1 0.08,0.21 0.08,0.34l0 21.98zm-2.15 -32.38c0,0.93 -0.14,1.8 -0.41,2.61 -0.27,0.82 -0.72,1.54 -1.32,2.14 -0.6,0.61 -1.37,1.09 -2.32,1.44 -0.94,0.35 -2.09,0.53 -3.44,0.53 -1.24,0 -2.32,-0.16 -3.26,-0.47 -0.94,-0.31 -1.72,-0.75 -2.35,-1.34 -0.63,-0.57 -1.1,-1.28 -1.42,-2.11 -0.32,-0.83 -0.47,-1.76 -0.47,-2.81 0,-0.17 0.03,-0.31 0.08,-0.41 0.06,-0.12 0.17,-0.21 0.33,-0.27 0.15,-0.06 0.36,-0.11 0.61,-0.14 0.25,-0.03 0.55,-0.05 0.91,-0.05 0.4,0 0.71,0.02 0.94,0.06 0.23,0.04 0.41,0.11 0.53,0.18 0.13,0.08 0.2,0.19 0.25,0.33 0.04,0.13 0.06,0.28 0.06,0.46 0,0.52 0.08,1.01 0.24,1.45 0.17,0.43 0.41,0.82 0.75,1.15 0.34,0.33 0.74,0.58 1.21,0.76 0.47,0.18 1.01,0.27 1.63,0.27 0.61,0 1.14,-0.09 1.6,-0.27 0.47,-0.18 0.87,-0.43 1.19,-0.76 0.33,-0.33 0.57,-0.72 0.74,-1.17 0.16,-0.46 0.24,-0.95 0.24,-1.48 0,-0.16 0.01,-0.3 0.06,-0.43 0.04,-0.12 0.13,-0.22 0.25,-0.31 0.12,-0.07 0.29,-0.14 0.51,-0.18 0.22,-0.04 0.52,-0.06 0.88,-0.06 0.39,0 0.72,0.02 0.96,0.05 0.25,0.03 0.45,0.08 0.61,0.14 0.15,0.07 0.27,0.16 0.33,0.27 0.07,0.11 0.1,0.25 0.1,0.41z"/>
  <path id="11" class="fil12" d="M1486.27 1260.22c0,0.12 -0.03,0.2 -0.08,0.28 -0.05,0.07 -0.14,0.13 -0.27,0.19 -0.14,0.04 -0.32,0.08 -0.52,0.12 -0.21,0.03 -0.47,0.05 -0.78,0.05 -0.34,0 -0.62,-0.02 -0.84,-0.05 -0.21,-0.03 -0.39,-0.07 -0.53,-0.12 -0.13,-0.05 -0.23,-0.12 -0.29,-0.19 -0.06,-0.07 -0.08,-0.16 -0.08,-0.28l0 -9.77c0,-0.4 0.07,-0.67 0.2,-0.81 0.13,-0.13 0.38,-0.19 0.76,-0.19l1.57 0c0.61,-0.74 1.17,-1.57 1.69,-2.52 0.53,-0.94 1.01,-2.13 1.47,-3.55 0.45,-1.42 0.86,-3.14 1.23,-5.14 0.38,-2 0.73,-4.39 1.03,-7.17 0.03,-0.23 0.07,-0.44 0.13,-0.63 0.06,-0.18 0.14,-0.33 0.24,-0.44 0.11,-0.1 0.23,-0.18 0.38,-0.25 0.14,-0.07 0.32,-0.1 0.51,-0.1l12.19 0c0.39,0 0.69,0.12 0.91,0.35 0.23,0.24 0.34,0.6 0.34,1.09l0 18.36 3.05 0c0.34,0 0.58,0.07 0.74,0.19 0.14,0.13 0.21,0.4 0.21,0.81l0 9.77c0,0.12 -0.02,0.2 -0.07,0.28 -0.05,0.07 -0.14,0.13 -0.27,0.19 -0.14,0.04 -0.33,0.08 -0.55,0.12 -0.23,0.03 -0.49,0.05 -0.8,0.05 -0.33,0 -0.59,-0.02 -0.8,-0.05 -0.21,-0.03 -0.38,-0.07 -0.53,-0.12 -0.13,-0.05 -0.23,-0.12 -0.29,-0.19 -0.06,-0.07 -0.08,-0.16 -0.08,-0.28l0 -7.37 -19.85 0 0 7.37zm15.2 -27.26l-6.95 0c-0.34,2.66 -0.69,4.9 -1.06,6.73 -0.36,1.82 -0.75,3.36 -1.17,4.61 -0.41,1.26 -0.85,2.28 -1.31,3.07 -0.45,0.79 -0.93,1.49 -1.41,2.09l11.91 0 0 -16.5z"/>
  <path id="12" class="fil12" d="M1533.51 1252.27c0,0.12 -0.03,0.22 -0.1,0.32 -0.07,0.1 -0.17,0.17 -0.32,0.23 -0.14,0.06 -0.35,0.1 -0.61,0.13 -0.26,0.04 -0.58,0.05 -0.97,0.05 -0.39,0 -0.72,-0.01 -0.98,-0.05 -0.26,-0.03 -0.47,-0.07 -0.63,-0.13 -0.17,-0.06 -0.27,-0.13 -0.34,-0.23 -0.07,-0.1 -0.1,-0.2 -0.1,-0.32l0 -12.65c0,-0.64 0.02,-1.28 0.05,-1.95 0.03,-0.66 0.07,-1.3 0.13,-1.94 -0.38,0.66 -0.79,1.29 -1.23,1.93 -0.45,0.62 -0.9,1.25 -1.35,1.87l-9.31 12.75c-0.12,0.13 -0.21,0.24 -0.31,0.34 -0.09,0.1 -0.21,0.18 -0.34,0.23 -0.14,0.06 -0.32,0.1 -0.54,0.13 -0.21,0.02 -0.47,0.03 -0.78,0.03 -0.36,0 -0.66,-0.01 -0.88,-0.05 -0.23,-0.03 -0.41,-0.07 -0.55,-0.13 -0.14,-0.06 -0.24,-0.13 -0.3,-0.23 -0.06,-0.1 -0.08,-0.2 -0.08,-0.32l0 -22.03c0,-0.12 0.02,-0.21 0.08,-0.32 0.06,-0.1 0.17,-0.18 0.33,-0.24 0.15,-0.07 0.36,-0.12 0.63,-0.14 0.26,-0.02 0.57,-0.03 0.95,-0.03 0.79,0 1.33,0.06 1.62,0.18 0.29,0.13 0.44,0.31 0.44,0.55l0 12.72c0,0.63 -0.02,1.27 -0.05,1.89 -0.03,0.63 -0.07,1.25 -0.13,1.88 0.38,-0.62 0.76,-1.22 1.14,-1.82 0.38,-0.59 0.79,-1.17 1.22,-1.74l9.43 -12.92c0.09,-0.13 0.19,-0.24 0.3,-0.33 0.11,-0.09 0.23,-0.17 0.39,-0.22 0.15,-0.06 0.34,-0.09 0.55,-0.12 0.2,-0.02 0.48,-0.04 0.82,-0.04 0.34,0 0.63,0.02 0.87,0.04 0.24,0.03 0.42,0.07 0.57,0.13 0.13,0.07 0.23,0.14 0.29,0.24 0.06,0.1 0.08,0.21 0.08,0.34l0 21.98z"/>
  <path id="13" class="fil12" d="M1561.19 1240.9c0,1.93 -0.21,3.65 -0.62,5.18 -0.41,1.52 -1.02,2.82 -1.82,3.89 -0.8,1.07 -1.8,1.89 -2.98,2.46 -1.18,0.58 -2.54,0.87 -4.07,0.87 -0.65,0 -1.25,-0.07 -1.8,-0.2 -0.55,-0.13 -1.09,-0.33 -1.62,-0.61 -0.52,-0.27 -1.05,-0.62 -1.56,-1.05 -0.53,-0.41 -1.08,-0.91 -1.66,-1.48l0 11.01c0,0.13 -0.04,0.24 -0.1,0.34 -0.07,0.1 -0.17,0.18 -0.32,0.25 -0.15,0.06 -0.35,0.11 -0.61,0.14 -0.26,0.03 -0.59,0.05 -1,0.05 -0.4,0 -0.73,-0.02 -0.98,-0.05 -0.27,-0.03 -0.47,-0.08 -0.63,-0.14 -0.16,-0.07 -0.27,-0.15 -0.33,-0.25 -0.06,-0.1 -0.08,-0.21 -0.08,-0.34l0 -30.7c0,-0.15 0.02,-0.27 0.07,-0.36 0.05,-0.08 0.15,-0.17 0.29,-0.22 0.15,-0.07 0.34,-0.12 0.57,-0.14 0.22,-0.02 0.51,-0.03 0.83,-0.03 0.34,0 0.62,0.01 0.85,0.03 0.21,0.02 0.4,0.07 0.55,0.13 0.15,0.07 0.25,0.15 0.31,0.23 0.06,0.09 0.08,0.21 0.08,0.36l0 2.94c0.67,-0.68 1.31,-1.28 1.93,-1.78 0.61,-0.5 1.24,-0.92 1.87,-1.25 0.62,-0.33 1.27,-0.59 1.92,-0.76 0.66,-0.17 1.35,-0.26 2.09,-0.26 1.59,0 2.94,0.31 4.06,0.92 1.12,0.63 2.03,1.47 2.74,2.54 0.71,1.08 1.22,2.33 1.55,3.75 0.33,1.42 0.48,2.93 0.48,4.52zm-4.2 0.47c0,-1.12 -0.08,-2.22 -0.26,-3.26 -0.17,-1.05 -0.47,-1.98 -0.87,-2.8 -0.41,-0.81 -0.97,-1.47 -1.68,-1.96 -0.7,-0.49 -1.57,-0.73 -2.62,-0.73 -0.52,0 -1.03,0.07 -1.54,0.23 -0.5,0.16 -1.01,0.4 -1.54,0.74 -0.52,0.33 -1.07,0.77 -1.63,1.32 -0.57,0.55 -1.17,1.22 -1.81,2.02l0 8.74c1.11,1.36 2.15,2.39 3.15,3.12 1,0.72 2.04,1.08 3.13,1.08 1.01,0 1.88,-0.24 2.6,-0.74 0.73,-0.49 1.31,-1.14 1.76,-1.96 0.45,-0.81 0.77,-1.72 0.99,-2.74 0.2,-1.01 0.32,-2.03 0.32,-3.06z"/>
  <path id="14" class="fil12" d="M1585.95 1240.3c0,0.63 -0.16,1.08 -0.47,1.36 -0.32,0.27 -0.68,0.4 -1.09,0.4l-14.43 0c0,1.22 0.12,2.32 0.36,3.3 0.24,0.98 0.65,1.82 1.23,2.52 0.56,0.7 1.31,1.23 2.22,1.61 0.92,0.37 2.03,0.57 3.35,0.57 1.04,0 1.98,-0.08 2.78,-0.26 0.82,-0.17 1.53,-0.36 2.12,-0.57 0.59,-0.2 1.08,-0.4 1.47,-0.56 0.38,-0.18 0.67,-0.26 0.87,-0.26 0.12,0 0.22,0.02 0.31,0.08 0.08,0.06 0.16,0.14 0.2,0.26 0.05,0.11 0.09,0.27 0.12,0.47 0.03,0.2 0.04,0.45 0.04,0.74 0,0.21 -0.01,0.39 -0.03,0.55 -0.01,0.15 -0.03,0.29 -0.06,0.41 -0.03,0.13 -0.07,0.23 -0.13,0.33 -0.06,0.09 -0.13,0.19 -0.22,0.28 -0.09,0.09 -0.36,0.23 -0.79,0.43 -0.44,0.2 -1.01,0.4 -1.71,0.6 -0.7,0.19 -1.51,0.36 -2.42,0.52 -0.92,0.16 -1.89,0.23 -2.93,0.23 -1.81,0 -3.38,-0.25 -4.74,-0.76 -1.36,-0.5 -2.5,-1.25 -3.43,-2.24 -0.93,-1 -1.62,-2.24 -2.09,-3.74 -0.48,-1.49 -0.71,-3.23 -0.71,-5.22 0,-1.88 0.24,-3.58 0.74,-5.09 0.48,-1.5 1.19,-2.78 2.11,-3.83 0.92,-1.05 2.03,-1.85 3.33,-2.42 1.3,-0.56 2.76,-0.84 4.37,-0.84 1.72,0 3.19,0.27 4.4,0.83 1.21,0.55 2.21,1.3 2.99,2.23 0.77,0.93 1.35,2.03 1.72,3.3 0.36,1.26 0.55,2.61 0.55,4.04l0 0.73zm-4.05 -1.19c0.05,-2.11 -0.42,-3.78 -1.41,-4.99 -0.99,-1.21 -2.45,-1.81 -4.39,-1.81 -1,0 -1.88,0.19 -2.62,0.56 -0.75,0.38 -1.38,0.87 -1.88,1.5 -0.51,0.61 -0.9,1.34 -1.17,2.15 -0.27,0.82 -0.43,1.68 -0.47,2.58l11.95 0z"/>
  <path id="15" class="fil12" d="M1610.02 1252.42c0,0.09 -0.03,0.18 -0.08,0.25 -0.06,0.07 -0.17,0.14 -0.32,0.18 -0.16,0.05 -0.36,0.09 -0.62,0.12 -0.25,0.02 -0.57,0.03 -0.96,0.03 -0.45,0 -0.82,-0.01 -1.11,-0.05 -0.28,-0.03 -0.52,-0.07 -0.7,-0.13 -0.17,-0.06 -0.31,-0.13 -0.38,-0.22 -0.08,-0.09 -0.14,-0.19 -0.18,-0.31l-2.33 -5.69c-0.29,-0.73 -0.6,-1.35 -0.93,-1.89 -0.34,-0.53 -0.72,-0.96 -1.16,-1.28 -0.43,-0.32 -0.93,-0.56 -1.48,-0.71 -0.55,-0.14 -1.17,-0.21 -1.89,-0.21l-1.7 0 0 9.89c0,0.08 -0.04,0.16 -0.13,0.24 -0.08,0.08 -0.2,0.15 -0.37,0.2 -0.17,0.05 -0.38,0.09 -0.64,0.12 -0.26,0.04 -0.56,0.05 -0.9,0.05 -0.35,0 -0.65,-0.01 -0.91,-0.05 -0.27,-0.03 -0.47,-0.07 -0.64,-0.12 -0.17,-0.04 -0.28,-0.11 -0.36,-0.2 -0.07,-0.08 -0.11,-0.16 -0.11,-0.24l0 -22.33c0,-0.07 0.03,-0.16 0.11,-0.22 0.07,-0.08 0.19,-0.14 0.36,-0.19 0.17,-0.05 0.37,-0.09 0.64,-0.12 0.26,-0.02 0.56,-0.03 0.91,-0.03 0.34,0 0.64,0.01 0.9,0.03 0.27,0.02 0.47,0.07 0.64,0.12 0.17,0.04 0.28,0.11 0.37,0.19 0.08,0.07 0.13,0.15 0.13,0.23l0 9.23 1.7 0c0.61,0 1.17,-0.07 1.68,-0.21 0.51,-0.14 0.98,-0.36 1.39,-0.68 0.43,-0.33 0.8,-0.74 1.13,-1.24 0.34,-0.51 0.64,-1.12 0.92,-1.83l2.03 -5.07c0.03,-0.13 0.09,-0.24 0.17,-0.34 0.08,-0.1 0.2,-0.18 0.36,-0.24 0.17,-0.07 0.39,-0.12 0.65,-0.14 0.27,-0.02 0.62,-0.03 1.07,-0.03 0.38,0 0.71,0.01 0.96,0.03 0.25,0.02 0.45,0.07 0.59,0.12 0.13,0.04 0.22,0.11 0.27,0.19 0.05,0.07 0.07,0.15 0.07,0.22 0,0.15 -0.01,0.31 -0.06,0.47 -0.04,0.17 -0.1,0.35 -0.19,0.57l-2.1 4.84c-0.33,0.81 -0.67,1.5 -1.06,2.06 -0.38,0.55 -0.77,1.02 -1.16,1.38 -0.38,0.37 -0.78,0.65 -1.19,0.86 -0.4,0.2 -0.79,0.36 -1.17,0.47l0 0.05c0.57,0.2 1.09,0.43 1.58,0.7 0.48,0.28 0.92,0.62 1.34,1.02 0.41,0.41 0.8,0.89 1.16,1.46 0.36,0.56 0.69,1.2 1.01,1.94l2.42 5.56c0.07,0.11 0.11,0.22 0.14,0.32 0.03,0.09 0.06,0.2 0.07,0.28 0.02,0.09 0.03,0.16 0.04,0.22 0.01,0.06 0.01,0.11 0.01,0.16z"/>
  <path id="16" class="fil12" d="M1630.66 1231.48c0,0.33 -0.02,0.6 -0.05,0.82 -0.03,0.24 -0.08,0.42 -0.16,0.56 -0.07,0.15 -0.16,0.26 -0.25,0.34 -0.1,0.07 -0.23,0.11 -0.37,0.11l-6.58 0 0 18.94c0,0.13 -0.03,0.24 -0.1,0.34 -0.07,0.08 -0.17,0.17 -0.32,0.23 -0.15,0.06 -0.35,0.11 -0.62,0.14 -0.26,0.04 -0.59,0.05 -1,0.05 -0.4,0 -0.73,-0.01 -0.99,-0.05 -0.27,-0.03 -0.47,-0.08 -0.62,-0.14 -0.16,-0.07 -0.27,-0.15 -0.33,-0.23 -0.06,-0.09 -0.08,-0.2 -0.08,-0.34l0 -18.94 -6.57 0c-0.13,0 -0.24,-0.03 -0.35,-0.11 -0.11,-0.07 -0.19,-0.18 -0.26,-0.34 -0.06,-0.14 -0.12,-0.33 -0.16,-0.56 -0.04,-0.23 -0.06,-0.52 -0.06,-0.84 0,-0.29 0.01,-0.55 0.06,-0.78 0.04,-0.23 0.1,-0.42 0.18,-0.57 0.07,-0.16 0.16,-0.27 0.26,-0.34 0.09,-0.07 0.21,-0.11 0.34,-0.11l17.2 0c0.13,0 0.24,0.03 0.35,0.11 0.11,0.08 0.19,0.19 0.26,0.34 0.06,0.15 0.12,0.35 0.16,0.58 0.04,0.23 0.06,0.5 0.06,0.79z"/>
  <path id="17" class="fil12" d="M1654.51 1241c0,1.79 -0.23,3.44 -0.71,4.95 -0.47,1.5 -1.18,2.8 -2.11,3.89 -0.94,1.09 -2.11,1.94 -3.51,2.55 -1.41,0.61 -3.04,0.92 -4.89,0.92 -1.81,0 -3.38,-0.27 -4.72,-0.81 -1.34,-0.54 -2.46,-1.32 -3.35,-2.34 -0.89,-1.02 -1.56,-2.28 -2,-3.73 -0.44,-1.47 -0.66,-3.12 -0.66,-4.98 0,-1.79 0.23,-3.44 0.69,-4.94 0.47,-1.51 1.17,-2.81 2.1,-3.9 0.94,-1.09 2.1,-1.93 3.5,-2.54 1.4,-0.6 3.03,-0.9 4.9,-0.9 1.81,0 3.38,0.27 4.72,0.81 1.34,0.54 2.46,1.32 3.35,2.34 0.89,1.03 1.57,2.27 2.02,3.73 0.44,1.47 0.67,3.12 0.67,4.96zm-4.2 0.26c0,-1.19 -0.11,-2.32 -0.34,-3.37 -0.21,-1.06 -0.58,-1.98 -1.09,-2.78 -0.5,-0.8 -1.19,-1.43 -2.06,-1.89 -0.86,-0.47 -1.94,-0.7 -3.23,-0.7 -1.19,0 -2.22,0.21 -3.08,0.63 -0.86,0.43 -1.56,1.03 -2.11,1.8 -0.56,0.78 -0.97,1.69 -1.23,2.75 -0.28,1.06 -0.41,2.22 -0.41,3.47 0,1.21 0.11,2.34 0.33,3.4 0.22,1.06 0.59,1.98 1.1,2.77 0.52,0.78 1.21,1.41 2.07,1.88 0.87,0.47 1.95,0.7 3.24,0.7 1.18,0 2.19,-0.2 3.06,-0.63 0.87,-0.42 1.57,-1.01 2.13,-1.78 0.56,-0.77 0.97,-1.68 1.23,-2.74 0.26,-1.06 0.39,-2.22 0.39,-3.49z"/>
  <path id="18" class="fil12" d="M1680.67 1240.9c0,1.93 -0.21,3.65 -0.62,5.18 -0.41,1.52 -1.02,2.82 -1.82,3.89 -0.8,1.07 -1.8,1.89 -2.98,2.46 -1.18,0.58 -2.54,0.87 -4.07,0.87 -0.65,0 -1.25,-0.07 -1.8,-0.2 -0.55,-0.13 -1.09,-0.33 -1.62,-0.61 -0.52,-0.27 -1.05,-0.62 -1.56,-1.05 -0.53,-0.41 -1.08,-0.91 -1.66,-1.48l0 11.01c0,0.13 -0.04,0.24 -0.1,0.34 -0.07,0.1 -0.17,0.18 -0.32,0.25 -0.15,0.06 -0.35,0.11 -0.61,0.14 -0.26,0.03 -0.59,0.05 -1,0.05 -0.4,0 -0.73,-0.02 -0.98,-0.05 -0.27,-0.03 -0.47,-0.08 -0.63,-0.14 -0.16,-0.07 -0.27,-0.15 -0.33,-0.25 -0.06,-0.1 -0.08,-0.21 -0.08,-0.34l0 -30.7c0,-0.15 0.02,-0.27 0.07,-0.36 0.05,-0.08 0.15,-0.17 0.29,-0.22 0.15,-0.07 0.34,-0.12 0.57,-0.14 0.22,-0.02 0.51,-0.03 0.83,-0.03 0.34,0 0.62,0.01 0.85,0.03 0.21,0.02 0.4,0.07 0.55,0.13 0.15,0.07 0.25,0.15 0.31,0.23 0.06,0.09 0.08,0.21 0.08,0.36l0 2.94c0.67,-0.68 1.31,-1.28 1.93,-1.78 0.61,-0.5 1.24,-0.92 1.87,-1.25 0.62,-0.33 1.27,-0.59 1.92,-0.76 0.66,-0.17 1.35,-0.26 2.09,-0.26 1.59,0 2.94,0.31 4.06,0.92 1.12,0.63 2.03,1.47 2.74,2.54 0.71,1.08 1.22,2.33 1.55,3.75 0.33,1.42 0.48,2.93 0.48,4.52zm-4.2 0.47c0,-1.12 -0.08,-2.22 -0.26,-3.26 -0.17,-1.05 -0.47,-1.98 -0.87,-2.8 -0.41,-0.81 -0.97,-1.47 -1.68,-1.96 -0.7,-0.49 -1.57,-0.73 -2.62,-0.73 -0.52,0 -1.03,0.07 -1.54,0.23 -0.5,0.16 -1.01,0.4 -1.54,0.74 -0.52,0.33 -1.07,0.77 -1.63,1.32 -0.57,0.55 -1.17,1.22 -1.81,2.02l0 8.74c1.11,1.36 2.15,2.39 3.15,3.12 1,0.72 2.04,1.08 3.13,1.08 1.01,0 1.88,-0.24 2.6,-0.74 0.73,-0.49 1.31,-1.14 1.76,-1.96 0.45,-0.81 0.77,-1.72 0.99,-2.74 0.2,-1.01 0.32,-2.03 0.32,-3.06z"/>
 </g>
</svg>
