<?xml version="1.0" encoding="UTF-8"?>
<!DOCTYPE svg PUBLIC "-//W3C//DTD SVG 1.1//EN" "http://www.w3.org/Graphics/SVG/1.1/DTD/svg11.dtd">
<!-- Creator: CorelDRAW 2020 (64-Bit) -->
<svg xmlns="http://www.w3.org/2000/svg" xml:space="preserve" width="90mm" height="120mm" version="1.1" style="shape-rendering:geometricPrecision; text-rendering:geometricPrecision; image-rendering:optimizeQuality; fill-rule:evenodd; clip-rule:evenodd"
viewBox="0 0 60567.09 80756.12"
 xmlns:xlink="http://www.w3.org/1999/xlink"
 xmlns:xodm="http://www.corel.com/coreldraw/odm/2003">
 <defs>
  <style type="text/css">
   <![CDATA[
    .str0 {stroke:black;stroke-width:134.59;stroke-miterlimit:22.9256}
    .fil8 {fill:black}
    .fil3 {fill:#666666}
    .fil4 {fill:white}
    .fil11 {fill:white}
    .fil7 {fill:#2E5E8D}
    .fil0 {fill:#88C7ED}
    .fil10 {fill:#2E5E8D}
    .fil6 {fill:gray;fill-opacity:0.431373}
    .fil1 {fill:gray;fill-opacity:0.450980}
    .fil5 {fill:#CCCCCC}
    .fil2 {fill:url(#id6)}
    .fil9 {fill:url(#id7);fill-opacity:0.101961}
   ]]>
  </style>
    <mask id="id0">
  <linearGradient id="id1" gradientUnits="userSpaceOnUse" x1="39065.82" y1="59832.47" x2="39065.73" y2="58971.38">
   <stop offset="0" style="stop-opacity:1; stop-color:white"/>
   <stop offset="1" style="stop-opacity:0; stop-color:white"/>
  </linearGradient>
     <rect style="fill:url(#id1)" x="21580.26" y="58091.98" width="33209.74" height="1835.92"/>
    </mask>
    <mask id="id2">
  <linearGradient id="id3" gradientUnits="userSpaceOnUse" x1="24090.18" y1="64362.46" x2="24855.42" y2="63968.13">
   <stop offset="0" style="stop-opacity:1; stop-color:white"/>
   <stop offset="1" style="stop-opacity:0; stop-color:white"/>
  </linearGradient>
     <rect style="fill:url(#id3)" x="20277.46" y="55919.91" width="3867.81" height="4661.78"/>
    </mask>
    <mask id="id4">
  <linearGradient id="id5" gradientUnits="userSpaceOnUse" x1="52060.66" y1="64377.65" x2="51295.41" y2="63983.32">
   <stop offset="0" style="stop-opacity:1; stop-color:white"/>
   <stop offset="1" style="stop-opacity:0; stop-color:white"/>
  </linearGradient>
     <rect style="fill:url(#id5)" x="52005.59" y="55935.12" width="3867.75" height="4661.78"/>
    </mask>
  <linearGradient id="id6" gradientUnits="userSpaceOnUse" x1="10525.89" y1="53912.58" x2="12702.74" y2="53912.58">
   <stop offset="0" style="stop-opacity:1; stop-color:#9C9A9A"/>
   <stop offset="1" style="stop-opacity:1; stop-color:#CCCCCC"/>
  </linearGradient>
  <linearGradient id="id7" gradientUnits="userSpaceOnUse" x1="38068.16" y1="59739.51" x2="38068.16" y2="56377.32">
   <stop offset="0" style="stop-opacity:1; stop-color:black"/>
   <stop offset="1" style="stop-opacity:1; stop-color:white"/>
  </linearGradient>
 </defs>
 <g id="Layer_x0020_1">
  <metadata id="CorelCorpID_0Corel-Layer"/>
  <rect class="fil0" x="-0" y="-0.05" width="60567.09" height="80756.15"/>
  <path class="fil1" d="M2917.52 52662.21l7526.6 0c259.63,0 474.98,196.24 505.2,447.93l2075.57 0 0 2344.82 -2115.2 0c-93.41,263.67 -330.56,441 -634.68,441l-7357.49 0 0 -3233.74zm11178.4 -56.13l2094.48 0c326.86,0 593.42,266.7 593.42,593.42l0 1834.51c0,469.13 -333.52,833.81 -793.7,833.81l-1894.2 0 0 -3261.74z"/>
  <g id="_1423714482464">
   <rect class="fil2" x="10525.91" y="52740.13" width="2176.83" height="2344.87"/>
   <rect class="fil3" x="11435.75" y="53139.16" width="518.01" height="510.98"/>
   <rect class="fil3" x="11435.75" y="54147.06" width="518.01" height="510.98"/>
  </g>
  <polygon class="fil1" points="12636.11,4328.39 47968.73,13795.7 43166.9,31716.43 7834.29,22249.05 "/>
  <g id="_1423714474448">
   <rect class="fil4" transform="matrix(0.879005 0.235529 -0.238655 0.890674 12240.7 3299.73)" width="40196.16" height="20120.39"/>
   <path class="fil5" d="M28230.72 17351.86l13702.16 3671.51c266.97,71.54 426.86,348.46 355.33,615.43l-1443.31 5386.5c-71.54,266.97 -348.46,426.86 -615.43,355.33l-13702.16 -3671.44c-266.97,-71.54 -426.86,-348.53 -355.33,-615.5l1443.31 -5386.43c71.54,-266.97 348.46,-426.86 615.43,-355.39z"/>
  </g>
  <polygon class="fil6" points="15524.96,27774.38 51548.24,34126.26 48326.55,52397.26 12303.26,46045.39 "/>
  <rect class="fil4" transform="matrix(0.896188 0.158022 -0.16012 0.908085 14921.7 26763)" width="40196.16" height="20120.39"/>
  <g id="_1423983322256">
   <polygon class="fil1" points="22601.82,52817.53 54893.97,52817.53 57037.37,56989.86 57037.37,57030.31 57037.37,63947.2 57030.1,63947.2 57030.1,75799.58 20451.08,75799.58 20451.08,57797.89 20458.35,57797.89 20458.35,57030.31 20458.35,56989.86 "/>
   <polygon class="fil7" points="21928.18,52327.61 54220.33,52327.61 56363.73,56499.94 56363.73,56540.39 56363.73,63457.28 19784.71,63457.28 19784.71,56540.39 19784.71,56499.94 "/>
   <polygon class="fil8 str0" style="mask:url(#id0)" points="21647.55,59860.61 21647.55,58159.28 54722.7,58159.28 54722.7,59860.61 "/>
   <polygon class="fil8 str0" style="mask:url(#id2)" points="20344.75,56731.71 21874.54,55987.21 24077.97,60514.39 22185.79,60514.39 "/>
   <polygon class="fil8 str0" style="mask:url(#id4)" points="55806.04,56746.92 54276.25,56002.42 52072.89,60529.6 53965.07,60529.6 "/>
   <polygon class="fil9" points="19788.75,56377.33 56347.58,56377.33 56347.58,59739.54 19788.75,59739.54 "/>
   <polygon class="fil4" points="19784.71,56517.37 20615.49,56517.37 21077.14,57409.52 22045.21,59280.24 22045.21,59292.22 38777.81,59292.22 39391.56,59292.22 54103.23,59292.22 54103.23,59280.24 55071.23,57409.52 55532.89,56517.37 56363.73,56517.37 56363.73,75070.28 19784.71,75070.28 "/>
  </g>
  <path class="fil7" d="M13811.05 52267.71l2094.48 0c326.86,0 593.42,266.56 593.42,593.42l0 2074.89c0,326.86 -266.56,593.42 -593.42,593.42l-2094.48 0 0 -3261.74zm-11178.4 56.13l7526.6 0c280.22,0 508.83,228.54 508.83,508.76l0 2216.22c0,280.22 -228.61,508.76 -508.83,508.76l-7526.6 0 0 -3233.74z"/>
  <path class="fil10" d="M20175.77 32598.49c136.68,-19.25 272.42,-28.06 406.47,-27.12l68.78 -390.05 899.96 158.69 -68.78 389.92c257.61,91.73 499.07,220.94 716.98,381.98l285.34 -275.51 634.81 657.35 -285 275.18c151.89,220.87 273.02,465.96 356.13,730.24l392.34 -55.12 127.19 904.94 -392.34 55.18c-4.71,185.74 -28.26,367.98 -68.91,544.5l-382.85 -243.35c-43.07,-27.39 -105.25,-25.98 -138.5,-6.6 167.84,-986.84 -350.55,-1933.71 -1210.94,-2348.86 -81.56,-112.39 -182.85,-188.63 -301.89,-218.78 -34.99,-8.88 -70.53,-13.46 -106.46,-14.07 16.08,2.29 32.03,5.38 47.85,9.42 490.8,124.23 679.23,1035.36 420.94,2035.05 -75.04,290.59 -179.62,556.61 -302.23,784.81l1400.11 -195.36c-24.29,16.22 -34.52,29.61 -48.66,58.21l-19.45 36.88 -4923.03 618.32 -5.85 37.01 4893.08 -201.28c23.55,81.09 227.53,136.07 209.29,242.81l-114.27 652.37 -5001.16 -620.14 -2.56 14.67 4427.79 706.41 -12.25 69.52c-1569.43,-272.42 -3140.54,-541.13 -4708.62,-817.59l10.3 -58.35 637.37 -88.97c-32.77,-77.86 -62.11,-157.68 -87.82,-239.37l-392.27 55.18 -127.19 -905.01 392.27 -55.12c7.13,-276.99 55.92,-546.05 140.99,-800.16l-349.67 -185.94 429.02 -806.89 350.28 186.28c165.01,-214.88 361.52,-405.66 583.87,-564.75l-173.56 -356 821.36 -400.55 173.69 356.07c128.54,-37.82 261.38,-66.89 398.06,-86.07zm669 551.56c-37.62,-4.98 -75.24,-8.88 -112.65,-11.84 -53.23,-48.72 -113.46,-82.78 -180.29,-99.67 -31.16,-7.87 -62.79,-11.84 -94.82,-12.05 13.26,1.95 26.38,4.58 39.5,7.87 417.31,105.59 577.61,880.44 357.95,1730.54 -114.67,443.96 -524.04,1413.91 -1110.73,1356.3 -14.33,-1.95 -28.53,-4.64 -42.67,-8.21 -417.31,-105.66 -577.61,-880.44 -357.95,-1730.6 133.99,-518.52 378.34,-945.25 643.29,-1175.41 -797.33,215.89 -1439.21,874.18 -1592.17,1741.51 -85.67,485.88 -4.71,962.61 201.82,1371.51l1411.82 -196.98c862.07,-214.27 1123.18,-1050.23 1249.16,-1389.48 30.35,190.45 -127.46,821.9 -496.18,1284.43l58.95 -8.21c87.55,-109.9 170.66,-241.86 245.03,-391.53 88.56,-178.2 164.68,-381.51 220.87,-599.28 39.71,-153.91 66.83,-304.92 81.83,-448.13 15.01,-143.14 18.17,-279.62 10.16,-405.13 -15.81,-249.2 -75.37,-455.2 -172.48,-588.85 -15.34,-21.13 -54.58,-58.88 -105.79,-104.31 -51.28,-45.36 -114.94,-98.72 -178.87,-150.34 -58.08,-46.97 -116.96,-92.73 -167.43,-130.62 30.55,-16.22 61.17,-30.15 91.66,-41.52zm-219.79 447.05c127.33,243.21 148.25,663.34 32.77,1111.27 -167.17,648.54 -556.88,1109.79 -870.48,1030.25 -5.59,-1.35 -11.04,-3.03 -16.49,-4.71 -237.69,-158.95 -315.29,-680.5 -169.05,-1247.75 163.33,-633.73 544.23,-1084.49 850.63,-1006.76 66.96,16.96 124.77,57.74 172.62,117.7zm-458.43 714.36c71.07,17.97 98.39,150 60.97,294.83 -37.42,144.82 -125.37,247.58 -196.51,229.62 -71.07,-17.97 -98.39,-150 -60.97,-294.83 37.42,-144.82 125.37,-247.65 196.51,-229.62zm95.16 -14.07c87.49,22.14 121.07,184.53 75.04,362.73 -46.03,178.2 -154.24,304.72 -241.73,282.58 -37.01,-9.35 -67.97,-61.85 -104.71,-94.22 -54.04,-47.71 -70.53,-174.3 -35.13,-311.18 41.72,-161.58 139.91,-276.25 219.19,-256.2 39.37,9.96 60.57,9.49 87.35,16.29zm142.33 -905.28c320.33,81.09 443.35,675.79 274.77,1328.37 -168.58,652.51 -564.96,1115.85 -885.29,1034.76 -320.33,-81.09 -443.42,-675.86 -274.77,-1328.37 168.58,-652.58 564.96,-1115.85 885.29,-1034.76zm2885.89 4330.68l-13.06 74.03c-44.69,-23.28 -83.99,-37.96 -117.84,-43.94 -14.47,-2.49 -29.07,-2.76 -43.81,-0.74 -33.11,4.44 -53.1,26.04 -59.96,64.94l-50.34 285.47c-7.4,41.86 4.37,65.48 35.26,70.93 67.23,11.84 123.76,13.32 169.52,4.44l-15.48 87.42c-41.05,0 -69.52,-0.4 -85.26,-1.14 -14.33,-0.47 -28.8,-1.48 -43.41,-3.03 -14.67,-1.55 -29.68,-3.7 -45.09,-6.39 -88.23,-15.55 -159.29,-55.32 -213.26,-119.32 -56.73,-68.51 -77.53,-145.9 -62.32,-232.11 15.14,-85.67 61.04,-150.81 137.69,-195.3 73.22,-42.13 153.64,-55.39 241.33,-39.91l25.37 4.44c63.8,11.24 110.64,28 140.65,50.2zm-1268.68 -242.13l286.28 50.47 -41.79 236.88 88.9 15.68 41.79 -236.88 284.73 50.2 -100.95 572.43 -284.73 -50.2 44.01 -249.6 -90.45 -15.95 -44.01 249.6 -284.73 -50.2 100.95 -572.43zm-501.09 364.68l-16.89 -166.29 -88.43 147.72 105.32 18.57zm-155.86 62.65l-28.26 42.06 -85.94 -15.14 318.45 -534.13 141.19 24.9 130.02 613.21 -295.16 -52.09 -13.66 -49.4 -166.63 -29.41zm-590.53 -648.88l286.21 50.47c207.27,36.54 297.32,131.77 270.2,285.74 -15.68,88.7 -58.35,145.63 -128,170.8 -53.9,20.32 -128.47,22.07 -223.63,5.32l-19.72 112.05 -286.28 -50.47 101.21 -573.91zm272.82 126.72l-53.77 304.85c26.85,4.78 49.06,3.57 66.49,-3.63 17.5,-7.2 27.66,-19.31 30.69,-36.21l33.98 -192.81c3.36,-18.98 -4.58,-35.47 -23.62,-49.67 -15.41,-11.44 -33.38,-18.98 -53.77,-22.54zm-565.97 413.4l-286.21 -50.47 87.75 -497.73 -87.42 -15.41 13.19 -74.77 461.05 81.29 -13.19 74.77 -87.42 -15.41 -87.75 497.73zm-663.01 -714.09c86.21,15.21 157.21,55.18 213.13,119.99 58.68,68.91 80.55,145.97 65.55,231.16 -15.01,85.2 -61.78,150.68 -140.18,196.44 -72.61,41.66 -153.23,54.64 -241.93,39.03 -88.16,-15.55 -159.49,-55.39 -213.94,-119.38 -57.74,-68.78 -79.01,-146.24 -63.86,-232.44 15.07,-85.2 61.71,-150.14 139.98,-194.89 74.16,-41.93 154.58,-55.18 241.26,-39.91zm-11.37 81.97c-17.43,-3.1 -29.21,-1.82 -35.33,3.77 -10.36,9.49 -18.37,29.88 -23.89,61.31l-49.93 283.25c-4.04,22.88 -4.91,39.17 -2.49,48.86 3.77,13.46 16.15,22.07 37.08,25.77 16.42,2.89 27.39,2.02 32.84,-2.69 9.02,-7.6 16.22,-26.38 21.47,-56.26l49.4 -280.29c6.19,-34.86 6.39,-57.94 0.67,-69.18 -4.44,-7 -14.33,-11.84 -29.81,-14.54zm-975.87 -250.68l286.21 50.47c62.32,10.97 116.22,31.56 161.71,61.64 61.31,40.11 87.15,87.28 77.53,141.59 -6.8,38.83 -30.89,70.33 -72.07,94.35 13.66,15.81 24.63,30.55 32.98,44.35 26.72,43.81 36.68,84.86 29.95,123.22 -10.77,60.77 -56.39,98.46 -137.08,112.99 -56.73,10.03 -121.47,8.61 -194.15,-4.24l-286.28 -50.41 101.21 -573.97zm272.82 126.72l-28.33 160.64c21.4,3.77 40.92,3.63 58.62,-0.4 22.21,-6.39 34.93,-19.04 38.29,-37.96l8.82 -50.07c3.36,-18.98 -4.58,-35.47 -23.62,-49.67 -15.41,-11.44 -33.38,-18.98 -53.77,-22.54zm-41.66 236.14l-32.71 185.34 15.55 3.5c18.78,4.31 34.66,4.58 47.71,0.67 18.3,-4.98 28.87,-15.14 31.56,-30.62l16.49 -93.41c4.04,-22.95 -4.31,-39.77 -24.97,-50.67 -9.89,-5.32 -27.73,-10.23 -53.64,-14.81zm-644.1 -441.06c86.14,15.21 157.21,55.18 213.06,119.99 58.75,68.91 80.62,146.03 65.55,231.16 -15.01,85.2 -61.71,150.68 -140.18,196.44 -72.61,41.66 -153.23,54.64 -241.86,39.03 -88.23,-15.55 -159.56,-55.32 -214,-119.38 -57.74,-68.78 -79.01,-146.24 -63.8,-232.44 15.01,-85.13 61.64,-150.14 139.91,-194.89 74.16,-41.93 154.58,-55.18 241.33,-39.91zm-11.37 81.97c-17.43,-3.1 -29.27,-1.82 -35.4,3.77 -10.36,9.49 -18.3,29.95 -23.89,61.31l-49.93 283.25c-4.04,22.88 -4.85,39.17 -2.42,48.86 3.77,13.53 16.08,22.14 37.01,25.77 16.49,2.96 27.39,2.02 32.84,-2.62 9.09,-7.67 16.22,-26.45 21.53,-56.33l49.4 -280.29c6.12,-34.86 6.33,-57.94 0.61,-69.18 -4.37,-7 -14.33,-11.78 -29.75,-14.54zm-1056.16 -263.26l286.21 50.47 -41.72 236.88 88.9 15.68 41.79 -236.88 284.73 50.2 -100.95 572.43 -284.73 -50.2 44.01 -249.6 -90.45 -15.95 -44.01 249.6 -284.73 -50.2 100.95 -572.43zm5522.44 -886.43c152.83,96.97 306.2,193.28 459.37,289.85 56.19,35.4 103.84,162.32 87.69,244.22 -17.16,87.42 -34.25,174.43 -51.41,261.18 -21.47,108.75 -236.41,-55.99 -260.57,68.98 -40.24,208.69 -80.49,417.37 -120.66,626.06 -6.6,34.19 7.2,78.8 30.62,92.2 55.45,31.7 109.02,62.65 160.77,92.26 50.14,28.74 99.26,56.8 146.98,83.92 -3.7,18.04 -7.34,36.41 -10.97,54.04 -388.5,-68.51 -777.01,-137.02 -1165.45,-205.52 4.17,-23.96 8.55,-48.52 12.92,-73.29 92.47,-5.25 181.63,-10.83 267.37,-15.61 82.64,-4.58 162.66,-9.49 239.85,-14 30.82,-1.82 63.86,-39.1 70.66,-75.37 42.13,-223.02 84.32,-446.04 126.45,-669.06 12.58,-66.76 -60.77,-117.3 -132.71,-167.84 -70.8,-49.73 -140.18,-99.4 -127.8,-166.63 19.65,-107.27 39.64,-215.28 59.49,-323.76 18.37,-100.61 131.5,-149.74 207.41,-101.62zm-4734.8 -185.54c0.47,4.17 0.81,8.41 1.08,12.52 0.27,4.17 0.4,8.01 0.34,11.64l104.51 -10.5 4.78 47.31 -267.1 26.92 -7.47 -74.43c-1.28,-12.45 -1.82,-23.42 -1.62,-32.91 0.13,-9.35 1.01,-17.9 2.56,-25.44 3.77,-18.17 11.37,-32.64 22.68,-43.41 11.24,-10.77 26.31,-17.03 45.22,-18.98 12.92,-1.28 24.77,0.13 35.6,4.24 10.83,4.04 20.32,10.77 28.47,19.92 8.21,9.09 15.01,20.66 20.26,34.52 5.32,13.93 8.88,30.08 10.7,48.59zm-39.71 28.33c0.13,-2.76 0.13,-6.19 -0.07,-10.36 -0.2,-4.24 -0.61,-8.61 -1.01,-13.06 -1.28,-12.72 -3.5,-23.28 -6.46,-31.56 -2.96,-8.41 -6.6,-15.07 -10.9,-19.92 -4.37,-4.85 -9.35,-8.14 -14.94,-9.96 -5.65,-1.75 -11.58,-2.36 -18.04,-1.68 -7.81,0.81 -14.47,3.16 -19.85,7.27 -5.32,4.04 -9.15,10.5 -11.51,19.45 -1.14,4.58 -1.75,10.23 -1.82,16.96 -0.07,6.66 0.4,14.81 1.35,24.36l2.69 26.58 80.55 -8.08zm92.73 -427.94l12.52 -126.85 40.92 4.04 -17.23 174.23 -267.17 -26.45 16.56 -167.23 40.92 4.04 -11.84 119.86 69.11 6.86 10.16 -102.96 40.92 4.04 -10.16 102.96 75.31 7.47zm51.08 -488.91c-19.11,-10.77 -39.37,-23.22 -60.7,-37.28l-113.26 -75.24 16.49 -64.54 260.1 66.56 -11.84 46.1 -131.77 -33.72c-19.31,-4.98 -41.52,-11.44 -66.69,-19.45l-0.47 1.62c6.93,4.04 14.54,8.68 23.02,13.93 8.48,5.18 16.76,10.57 24.9,15.95l133.65 89.5 -7.54 29.61 -160.23 14.27c-9.69,0.87 -19.58,1.55 -29.54,2.02 -9.89,0.54 -18.84,0.94 -26.78,1.14l-0.47 1.68c24.43,4.64 46.91,9.62 67.7,14.94l131.97 33.72 -11.84 46.17 -260.03 -66.56 16.42 -64.2 134.86 -11.64c22.54,-1.95 46.43,-3.16 71.74,-3.43l0.34 -1.14zm155.25 -557.76c-14.74,-7.13 -28.47,-11.58 -41.19,-13.39 -12.72,-1.88 -24.23,-1.48 -34.52,1.14 -10.36,2.62 -19.38,7.27 -27.12,14 -7.67,6.66 -13.93,15.07 -18.84,25.24 -4.91,10.09 -7.54,20.26 -8.01,30.49 -0.4,10.23 1.48,20.19 5.92,29.88 4.37,9.69 11.24,18.98 20.59,27.73 9.35,8.88 21.33,16.82 36.07,23.89 14.74,7.07 28.47,11.58 41.19,13.39 12.72,1.88 24.16,1.48 34.52,-1.14 10.23,-2.69 19.25,-7.34 27.05,-14 7.67,-6.73 14,-15.07 18.91,-25.24 4.91,-10.09 7.54,-20.32 7.94,-30.49 0.4,-10.23 -1.55,-20.26 -5.92,-29.88 -4.31,-9.76 -11.17,-18.98 -20.53,-27.73 -9.35,-8.88 -21.4,-16.82 -36.07,-23.89zm21.33 -44.28c18.51,8.88 34.19,19.52 47.11,31.97 12.92,12.52 22.61,26.38 28.94,41.39 6.46,15.07 9.35,31.16 8.68,48.25 -0.67,17.09 -5.38,34.66 -14.07,52.69 -8.75,18.04 -19.58,32.64 -32.5,43.81 -12.99,11.24 -27.39,18.98 -43.14,23.28 -15.75,4.37 -32.57,5.38 -50.41,3.03 -17.77,-2.36 -35.94,-7.94 -54.38,-16.82 -18.44,-8.95 -34.12,-19.65 -47.04,-32.1 -12.92,-12.52 -22.68,-26.31 -29,-41.32 -6.46,-15.07 -9.35,-31.16 -8.68,-48.25 0.67,-17.09 5.38,-34.66 14.07,-52.69 8.75,-18.04 19.58,-32.64 32.5,-43.81 12.99,-11.17 27.39,-18.98 43.2,-23.28 15.68,-4.37 32.57,-5.45 50.34,-3.1 17.83,2.36 35.94,8.01 54.38,16.96zm149.8 -257.68l72.07 -95.76 -88.36 -66.49 28.67 -38.02 214.41 161.44 -28.6 38.02 -93.27 -70.19 -72.07 95.7 93.27 70.19 -28.6 38.09 -214.47 -161.51 28.6 -38.02 88.36 66.56zm471.88 -274.91l-35.33 31.9 -152.16 -168.91 -62.18 55.99 -27.52 -30.49 159.63 -143.81 27.52 30.55 -62.11 55.92 152.16 168.85zm191.53 -337.36l102.96 -61.24 -56.6 -95.02 40.92 -24.36 137.35 230.63 -40.92 24.36 -59.76 -100.34 -102.9 61.31 59.69 100.34 -40.92 24.36 -137.29 -230.69 40.92 -24.36 56.53 95.02zm551.97 -165.42l-92.2 33.65 -0.2 72.68 -47.51 17.36 4.58 -287.42 40.78 -14.87 188.63 216.9 -47.11 17.23 -46.97 -55.52zm-93 -110.5c0.87,29.48 1.21,54.24 1.01,74.43l0.07 25.84 63.46 -23.15 -16.56 -19.79c-13.26,-15.34 -29,-34.59 -47.24,-57.61l-0.74 0.27zm500.22 -149.87l-43.2 6.8c-6.53,1.08 -12.05,2.29 -16.56,3.77 -4.58,1.48 -8.61,3.23 -12.05,5.25 -7.94,4.91 -13.46,11.1 -16.56,18.57 -3.1,7.4 -3.97,15.28 -2.69,23.35 0.74,4.44 1.82,8.48 3.3,12.25 1.55,3.9 3.63,7.27 6.26,10.36 2.69,2.96 5.92,5.52 9.76,7.54 3.84,2.02 8.48,3.43 13.8,4.17 3.63,0.54 7.81,0.74 12.65,0.4 4.78,-0.2 10.63,-0.81 17.5,-1.95l41.12 -6.46 -13.32 -84.05zm-29.68 132.44l-41.99 108.68 -53.5 8.48 46.84 -117.16 -0.13 -0.74c-17.56,-3.77 -31.43,-11.17 -41.39,-22.07 -9.96,-10.97 -16.35,-25.3 -19.18,-43.2 -2.83,-17.43 -0.81,-33.65 5.92,-48.52 6.73,-14.87 17.83,-26.99 33.24,-36.21 5.85,-3.5 12.52,-6.53 19.99,-9.09 7.47,-2.49 16.15,-4.58 26.11,-6.12l94.48 -15.01 42.06 265.15 -47.04 7.47 -15.75 -99.53 -49.67 7.87zm752.78 92.33l54.04 -262.93 46.5 9.56 -24.63 119.65 0.74 0.13 120.39 -100 57.67 11.84 -132.57 108.55 87.35 156.2 -59.62 -12.18 -78.27 -139.84 -0.74 -0.13 -24.36 118.71 -46.5 -9.56zm602.91 31.83c5.65,-15.41 8.82,-29.41 9.42,-42.26 0.67,-12.85 -0.81,-24.23 -4.44,-34.25 -3.57,-10.03 -9.09,-18.57 -16.49,-25.64 -7.4,-7.07 -16.42,-12.52 -26.92,-16.35 -10.57,-3.9 -20.93,-5.65 -31.16,-5.11 -10.16,0.54 -19.92,3.43 -29.14,8.75 -9.29,5.25 -17.83,12.99 -25.71,23.15 -7.87,10.09 -14.6,22.81 -20.32,38.16 -5.65,15.34 -8.82,29.41 -9.42,42.26 -0.67,12.85 0.87,24.23 4.51,34.25 3.57,9.96 9.09,18.51 16.42,25.57 7.47,7.07 16.42,12.58 26.92,16.49 10.57,3.9 20.93,5.52 31.16,4.98 10.23,-0.61 19.99,-3.5 29.14,-8.68 9.29,-5.32 17.83,-12.92 25.71,-23.08 7.87,-10.16 14.67,-22.95 20.32,-38.22zm46.1 17.03c-7.07,19.25 -16.15,35.87 -27.39,49.93 -11.17,14.07 -24.02,25.03 -38.43,32.77 -14.33,7.81 -30.08,12.25 -47.24,13.19 -17.03,0.94 -34.99,-2.02 -53.77,-9.02 -18.78,-6.93 -34.32,-16.29 -46.64,-28.13 -12.38,-11.91 -21.47,-25.44 -27.32,-40.78 -5.85,-15.21 -8.41,-31.9 -7.81,-49.87 0.67,-17.9 4.51,-36.54 11.64,-55.72 7.07,-19.25 16.29,-35.87 27.46,-49.87 11.17,-14.07 23.96,-25.03 38.36,-32.84 14.33,-7.81 30.08,-12.18 47.24,-13.19 17.03,-0.94 34.99,2.09 53.77,9.02 18.78,6.93 34.32,16.35 46.7,28.13 12.38,11.91 21.4,25.51 27.26,40.78 5.85,15.21 8.48,31.97 7.87,49.87 -0.67,17.97 -4.58,36.54 -11.71,55.72zm301.15 238.5c15.95,-15.01 33.85,-30.62 53.7,-46.84l105.52 -85.74 56.73 34.99 -140.99 228.47 -40.51 -25.03 71.4 -115.75c10.5,-16.96 23.28,-36.21 38.49,-57.88l-1.48 -0.87c-5.85,5.32 -12.58,11.31 -20.05,17.77 -7.54,6.53 -15.14,12.92 -22.68,19.04l-125.24 100.95 -26.04 -16.08 34.12 -157.21c2.09,-9.49 4.37,-19.11 6.8,-28.8 2.42,-9.62 4.71,-18.24 6.93,-25.91l-1.48 -0.87c-11.71,21.87 -23.15,41.86 -34.39,60.16l-71.54 115.89 -40.51 -24.97 140.99 -228.47 56.39 34.79 -29.07 132.24c-4.85,22.07 -10.77,45.22 -18.1,69.52l1.01 0.61zm590.93 239.17l-191.32 188.3 -33.38 -33.92 161.44 -158.89 -77.66 -78.87 -161.44 158.89 -33.38 -33.92 191.32 -188.3 144.42 146.71zm101.69 450.08l-54.51 -81.56 -70.66 16.96 -28.06 -42.06 280.36 -63.46 24.09 36.07 -166.22 234.6 -27.86 -41.72 42.87 -58.82zm85.4 -116.42c-28.4,7.81 -52.49,14 -72.07,18.51l-25.1 6.19 37.48 56.19 15.28 -20.73c11.84,-16.49 26.78,-36.34 44.82,-59.49l-0.4 -0.67zm163.87 373.97l51.68 108.08 99.73 -47.71 20.53 42.94 -242.2 115.75 -20.53 -42.94 105.39 -50.34 -51.68 -108.08 -105.32 50.34 -20.53 -42.94 242.2 -115.75 20.53 42.94 -99.8 47.71zm302.9 562.2l9.83 48.79 -263.2 52.83 -9.42 -46.7 121.2 -24.29c15.07,-3.03 39.57,-7.13 73.42,-12.38l-0.13 -0.81c-17.09,-5.59 -43.81,-16.08 -80.15,-31.29l-139.78 -58.21 -9.76 -48.79 263.2 -52.83 9.35 46.7 -121.2 24.29c-19.31,3.84 -43.68,7.94 -73.22,12.32l0.13 0.81c15.55,5.25 41.72,15.55 78.6,30.82l141.12 58.75zm10.5 468.99l-2.29 -43.68c-0.34,-6.6 -0.94,-12.18 -1.95,-16.82 -1.01,-4.71 -2.29,-8.88 -3.97,-12.52 -4.04,-8.48 -9.56,-14.6 -16.76,-18.44 -7,-3.84 -14.74,-5.52 -22.95,-5.11 -4.44,0.2 -8.61,0.94 -12.52,1.95 -3.97,1.14 -7.6,2.89 -10.9,5.18 -3.23,2.36 -6.12,5.25 -8.55,8.88 -2.42,3.63 -4.31,8.08 -5.59,13.26 -0.94,3.57 -1.55,7.74 -1.75,12.58 -0.34,4.78 -0.27,10.63 0.07,17.56l2.15 41.66 85 -4.51zm-128.6 -43.34l-103.64 -53.16 -2.83 -54.11 111.58 58.82 0.74 0c5.59,-17.09 14.4,-30.08 26.25,-38.83 11.98,-8.82 26.99,-13.66 45.02,-14.6 17.63,-0.94 33.51,2.76 47.65,10.97 14.07,8.28 24.97,20.59 32.5,36.88 2.89,6.19 5.18,13.12 6.93,20.79 1.75,7.74 2.89,16.62 3.36,26.65l5.05 95.49 -268.11 14.07 -2.49 -47.51 100.61 -5.32 -2.62 -50.14z"/>
  <path class="fil10" d="M17025.81 9350.15c137.82,-7.27 273.83,-4.17 407.21,8.41l102.56 -382.58 882.66 236.55 -102.49 382.45c248.66,113.8 478.01,263.53 681.04,443.01l308.22 -249.6 575.05 710.18 -307.82 249.27c132.04,233.25 231.3,488.04 291.13,758.5l395.64 -20.73 47.78 912.61 -395.57 20.73c-20.93,184.66 -60.3,364.14 -116.15,536.49l-360.17 -275.85c-40.58,-31.02 -102.56,-35.06 -137.42,-18.64 253.24,-968.47 -180.62,-1956.86 -1001.58,-2445.43 -71.54,-119.05 -165.75,-203.91 -281.7,-244.29 -34.05,-11.84 -69.05,-19.58 -104.85,-23.28 15.81,3.7 31.43,8.14 46.91,13.53 478.08,166.56 586.42,1090.68 241.93,2064.06 -100.07,282.92 -227.46,538.85 -369.46,755.47l1411.82 -72.55c-25.64,13.93 -37.01,26.45 -53.57,53.7l-22.61 35.06 -4958.16 186.88 -9.09 36.34 4892.07 225.98c16.35,82.84 214.74,155.32 187.29,260.1l-170.73 639.92 -4928.01 -1053.67 -3.9 14.4 4349.39 1089.6 -18.24 68.17c-1539.68,-408.15 -3081.45,-812.74 -4619.45,-1224.8l15.34 -57.27 642.68 -33.04c-25.84,-80.42 -48.12,-162.52 -66.56,-246.1l-395.64 20.73 -47.85 -912.61 395.64 -20.73c31.23,-275.24 103.23,-539.05 210.17,-784.81l-332.18 -215.69 497.73 -766.44 332.72 216.09c183.11,-199.67 395.5,-372.62 630.91,-511.72l-141.93 -369.73 853.12 -327.47 142 369.86c131.36,-26.51 266.23,-43.88 404.12,-51.08zm618.39 607.76c-37.08,-8.21 -74.16,-15.41 -111.24,-21.6 -48.79,-53.16 -105.79,-92.33 -170.93,-115.01 -30.28,-10.57 -61.51,-17.23 -93.41,-20.26 13.06,3.1 25.91,6.86 38.7,11.31 406.54,141.59 498.67,927.42 205.73,1755.17 -152.9,432.25 -645.24,1362.83 -1224.67,1254.34 -14.13,-3.23 -28.06,-7.13 -41.79,-11.91 -406.54,-141.66 -498.67,-927.48 -205.79,-1755.23 178.67,-504.86 459.3,-908.71 743.29,-1114.84 -813.15,145.5 -1509.94,745.38 -1737.87,1596.08 -127.66,476.53 -88.56,958.51 81.5,1383.89l1423.66 -73.15c877.42,-138.36 1210.4,-948.41 1365.45,-1275.34 13.66,192.4 -198.59,807.63 -606.21,1236.31l59.42 -3.1c96.84,-101.82 191.12,-226.05 278.2,-368.65 103.77,-169.79 197.31,-365.69 272.28,-577.74 52.96,-149.87 93.21,-297.92 120.6,-439.31 27.39,-141.32 42.46,-276.99 45.43,-402.7 5.99,-249.67 -35.4,-460.04 -120.46,-601.63 -13.53,-22.41 -49.26,-63.46 -96.37,-113.13 -47.11,-49.67 -105.86,-108.35 -165.08,-165.35 -53.77,-51.82 -108.42,-102.63 -155.39,-144.69 31.83,-13.59 63.53,-24.77 94.96,-33.45zm-257.95 426.19c105.66,253.44 89.91,673.78 -64.2,1109.93 -223.09,631.51 -651.5,1057.03 -956.96,950.5 -5.45,-1.88 -10.77,-3.97 -16.02,-6.19 -222.95,-179.01 -254.79,-705.34 -59.69,-1257.71 217.97,-617.11 636.69,-1032.94 935.22,-928.83 65.14,22.75 119.18,68.44 161.65,132.31zm-518.99 671.69c69.25,24.09 84.93,158.01 35.06,299 -49.87,141.05 -146.44,235.74 -215.75,211.65 -69.25,-24.09 -84.93,-158.01 -35.06,-299 49.93,-140.99 146.51,-235.74 215.75,-211.65zm96.1 -5.72c85.2,29.75 104.51,194.42 43.14,367.91 -61.37,173.49 -180.22,290.12 -265.49,260.44 -36,-12.58 -62.32,-67.5 -96.1,-102.96 -49.67,-52.29 -55.05,-179.82 -7.87,-313.06 55.65,-157.34 163.46,-263.06 240.72,-236.14 38.36,13.39 59.49,14.74 85.6,23.82zm220.67 -889.39c312.06,108.68 382.78,711.87 157.95,1347.28 -224.84,635.35 -660.05,1062.28 -972.1,953.6 -312.06,-108.68 -382.78,-711.87 -157.95,-1347.21 224.84,-635.42 660.05,-1062.35 972.1,-953.66zm2497.45 4565.75l-19.45 72.55c-42.46,-27.05 -80.35,-45.09 -113.6,-53.97 -14.13,-3.84 -28.67,-5.32 -43.54,-4.64 -33.38,1.55 -55.18,21.4 -65.41,59.49l-75.04 280.02c-10.97,41.05 -1.35,65.61 28.94,73.69 65.95,17.7 122.14,24.09 168.51,19.25l-23.02 85.74c-40.92,-3.63 -69.25,-6.46 -84.86,-8.61 -14.2,-1.68 -28.53,-3.97 -43,-6.8 -14.4,-2.83 -29.21,-6.26 -44.35,-10.3 -86.48,-23.15 -153.84,-68.98 -202.02,-137.42 -50.54,-73.22 -64.47,-152.09 -41.86,-236.68 22.54,-84.05 73.96,-144.89 154.24,-182.58 76.52,-35.53 157.81,-41.72 243.82,-18.71l24.9 6.66c62.59,16.76 107.81,37.55 135.74,62.32zm-1242.7 -351.83l280.69 75.24 -62.25 232.31 87.22 23.42 62.25 -232.38 279.28 74.83 -150.41 561.46 -279.28 -74.83 65.61 -244.83 -88.7 -23.76 -65.61 244.83 -279.28 -74.83 150.48 -561.46zm-530.97 319.66l-2.36 -167.17 -101.01 139.44 103.37 27.73zm-160.77 48.79l-31.83 39.44 -84.26 -22.61 363.74 -504.25 138.56 37.08 76.05 622.16 -289.58 -77.59 -9.22 -50.41 -163.46 -43.81zm-531.71 -697.87l280.76 75.24c203.24,54.44 284.67,157.21 244.22,308.15 -23.35,87.01 -70.8,140.04 -142.4,159.09 -55.52,15.48 -129.88,10.77 -223.22,-14.27l-29.48 109.96 -280.69 -75.24 150.81 -562.94zm260.71 150l-80.15 299.07c26.38,7.07 48.59,7.74 66.62,2.09 17.97,-5.65 29.21,-16.76 33.65,-33.38l50.67 -189.1c4.98,-18.57 -1.41,-35.73 -19.18,-51.48 -14.4,-12.79 -31.63,-21.8 -51.62,-27.19zm-599.82 362.46l-280.76 -75.17 130.82 -488.17 -85.74 -23.02 19.65 -73.29 452.23 121.2 -19.65 73.29 -85.74 -23.02 -130.82 488.17zm-598.27 -769.13c84.59,22.68 151.82,68.71 201.82,138.16 52.56,73.76 67.57,152.43 45.22,236.01 -22.41,83.52 -74.7,144.69 -156.8,183.45 -75.98,35.13 -157.41,41.05 -244.42,17.77 -86.48,-23.15 -154.04,-69.05 -202.7,-137.55 -51.55,-73.56 -66.02,-152.56 -43.34,-237.09 22.41,-83.58 74.5,-144.22 156.4,-182.04 77.53,-35.26 158.82,-41.45 243.82,-18.71zm-18.44 80.69c-17.09,-4.58 -28.94,-4.37 -35.53,0.67 -11.17,8.55 -20.93,28.2 -29.14,59.02l-74.43 277.8c-6.06,22.48 -8.28,38.63 -6.73,48.45 2.56,13.8 14.13,23.42 34.66,28.94 16.15,4.31 27.12,4.37 32.98,0.2 9.62,-6.86 18.44,-24.97 26.31,-54.24l73.62 -274.91c9.15,-34.19 11.37,-57.13 6.66,-68.84 -3.77,-7.34 -13.26,-13.06 -28.4,-17.09zm-950.3 -334.73l280.69 75.17c61.11,16.42 112.99,41.59 155.72,75.51 57.54,45.29 79.21,94.55 64.94,147.85 -10.23,38.09 -36.95,67.36 -80.08,87.69 12.25,16.96 21.87,32.64 29,47.11 22.81,45.9 29.14,87.69 19.04,125.31 -15.95,59.56 -64.74,93.14 -146.37,100.61 -57.4,5.05 -121.74,-2.02 -193.07,-21.13l-280.76 -75.17 150.88 -562.94zm260.71 149.94l-42.26 157.61c21,5.65 40.51,7.2 58.48,4.64 22.61,-4.37 36.47,-15.88 41.39,-34.46l13.19 -49.06c4.98,-18.57 -1.41,-35.73 -19.18,-51.55 -14.4,-12.72 -31.63,-21.8 -51.62,-27.19zm-62.11 231.64l-48.66 181.77 15.14 4.85c18.3,5.99 34.12,7.6 47.44,4.91 18.71,-3.43 30.08,-12.65 34.12,-27.79l24.56 -91.66c6.06,-22.48 -0.81,-39.97 -20.46,-52.63 -9.35,-6.12 -26.72,-12.65 -52.15,-19.45zm-603.18 -495.51c84.52,22.68 151.75,68.71 201.82,138.16 52.49,73.76 67.57,152.43 45.16,235.94 -22.41,83.58 -74.63,144.76 -156.8,183.52 -75.91,35.13 -157.41,41.05 -244.35,17.77 -86.48,-23.15 -154.11,-69.05 -202.77,-137.62 -51.55,-73.49 -65.95,-152.49 -43.34,-237.09 22.41,-83.52 74.56,-144.22 156.4,-181.97 77.53,-35.26 158.82,-41.52 243.88,-18.71zm-18.51 80.69c-17.09,-4.58 -28.94,-4.37 -35.53,0.67 -11.17,8.55 -20.86,28.2 -29.14,58.95l-74.43 277.8c-6.06,22.48 -8.28,38.7 -6.73,48.52 2.62,13.8 14.13,23.42 34.66,28.94 16.15,4.31 27.12,4.37 32.98,0.13 9.69,-6.8 18.44,-24.9 26.31,-54.17l73.62 -274.91c9.15,-34.19 11.37,-57.13 6.73,-68.91 -3.84,-7.27 -13.32,-12.99 -28.47,-17.03zm-1029.17 -354.32l280.76 75.24 -62.25 232.31 87.22 23.42 62.25 -232.38 279.28 74.83 -150.48 561.46 -279.21 -74.83 65.55 -244.83 -88.63 -23.76 -65.61 244.83 -279.28 -74.83 150.41 -561.46zm5578.7 -401.76c143.81,109.96 288.23,219.19 432.38,328.74 52.9,40.24 89.24,170.8 66.02,251.02 -24.7,85.53 -49.33,170.73 -73.96,255.66 -30.89,106.46 -230.63,-76.38 -265.55,46.03 -58.28,204.38 -116.56,408.76 -174.84,613.14 -9.56,33.51 0.34,79.14 22.48,94.48 52.49,36.41 103.17,71.94 152.16,105.99 47.44,32.98 93.95,65.21 139.1,96.37 -5.32,17.63 -10.43,35.6 -15.68,52.83 -381.03,-102.09 -762.07,-204.18 -1143.1,-306.27 6.33,-23.49 12.79,-47.58 19.25,-71.87 92.6,2.83 181.9,5.05 267.77,7.74 82.71,2.62 162.86,4.71 240.11,6.93 30.89,0.87 67.03,-33.38 76.99,-68.91 61.37,-218.51 122.88,-437.03 184.26,-655.54 18.44,-65.35 -50.27,-122.08 -117.57,-178.67 -66.15,-55.79 -130.96,-111.24 -112.79,-177.19 28.94,-105.12 58.28,-210.98 87.49,-317.3 27.12,-98.66 144.08,-137.76 215.48,-83.18zm-4700.61 -597.46c0.07,4.17 0.07,8.41 0,12.52 -0.13,4.17 -0.34,8.01 -0.67,11.64l105.05 -1.35 0.61 47.58 -268.45 3.5 -0.94 -74.83c-0.2,-12.45 0.2,-23.49 1.21,-32.84 1.01,-9.35 2.62,-17.77 4.78,-25.17 5.38,-17.77 14.2,-31.49 26.38,-41.25 12.18,-9.76 27.73,-14.67 46.77,-14.94 12.92,-0.2 24.63,2.22 35.06,7.27 10.43,5.05 19.31,12.52 26.65,22.34 7.34,9.83 13.12,21.87 17.09,36.21 4.11,14.27 6.26,30.75 6.46,49.33zm-41.99 24.7c0.4,-2.69 0.67,-6.12 0.81,-10.3 0.13,-4.24 0.2,-8.61 0.13,-13.12 -0.2,-12.72 -1.41,-23.42 -3.7,-31.97 -2.22,-8.68 -5.25,-15.55 -9.15,-20.79 -3.9,-5.25 -8.55,-8.95 -14,-11.24 -5.45,-2.22 -11.31,-3.3 -17.77,-3.23 -7.87,0.07 -14.74,1.88 -20.39,5.52 -5.72,3.57 -10.09,9.62 -13.19,18.3 -1.55,4.51 -2.62,10.09 -3.3,16.82 -0.67,6.6 -0.87,14.74 -0.81,24.36l0.4 26.72 80.96 -1.08zm129.61 -418.25l23.55 -125.24 40.38 7.6 -32.3 172.08 -263.87 -49.67 31.09 -165.15 40.38 7.6 -22.28 118.38 68.31 12.85 19.11 -101.69 40.45 7.6 -19.18 101.69 74.36 13.93zm93.54 -482.59c-18.1,-12.38 -37.15,-26.51 -57.2,-42.4l-106.33 -84.79 22.07 -62.92 253.31 88.97 -15.81 44.95 -128.27 -45.09c-18.84,-6.6 -40.45,-15.01 -64.81,-25.17l-0.61 1.62c6.53,4.58 13.8,9.83 21.74,15.81 7.94,5.92 15.81,11.98 23.35,18.1l125.44 100.81 -10.16 28.8 -160.84 0.2c-9.76,0.07 -19.65,-0.13 -29.61,-0.47 -9.89,-0.34 -18.84,-0.74 -26.78,-1.21l-0.61 1.62c23.89,6.8 45.9,13.66 66.15,20.79l128.47 45.09 -15.75 44.95 -253.31 -88.97 21.94 -62.52 135.4 0.13c22.61,0 46.57,0.87 71.81,2.83l0.4 -1.14zm203.24 -542.08c-14.07,-8.34 -27.32,-14 -39.84,-16.96 -12.45,-2.96 -24.02,-3.57 -34.52,-1.82 -10.5,1.68 -19.92,5.52 -28.2,11.51 -8.21,6.06 -15.21,13.86 -21,23.55 -5.72,9.69 -9.29,19.52 -10.63,29.68 -1.28,10.09 -0.2,20.26 3.3,30.28 3.5,10.03 9.56,19.85 18.1,29.41 8.55,9.69 19.85,18.57 33.92,26.99 14,8.34 27.26,14 39.84,16.89 12.45,2.96 23.89,3.57 34.46,1.82 10.43,-1.68 19.79,-5.59 28.13,-11.51 8.28,-6.06 15.34,-13.86 21.06,-23.49 5.79,-9.69 9.29,-19.58 10.63,-29.75 1.21,-10.16 0.13,-20.26 -3.3,-30.22 -3.5,-10.09 -9.49,-19.92 -18.04,-29.48 -8.55,-9.62 -19.92,-18.57 -33.92,-26.92zm25.17 -42.26c17.63,10.5 32.3,22.48 44.08,36 11.78,13.53 20.26,28.2 25.24,43.74 5.11,15.55 6.6,31.83 4.44,48.86 -2.15,16.89 -8.34,33.98 -18.64,51.21 -10.23,17.23 -22.28,30.82 -36.14,40.85 -13.93,10.03 -28.94,16.42 -45.02,19.38 -16.08,3.03 -32.91,2.56 -50.47,-1.35 -17.5,-3.9 -35.13,-11.1 -52.69,-21.53 -17.63,-10.5 -32.3,-22.54 -44.08,-36.07 -11.78,-13.53 -20.26,-28.13 -25.3,-43.68 -5.05,-15.55 -6.53,-31.83 -4.37,-48.86 2.15,-16.96 8.34,-34.05 18.57,-51.28 10.23,-17.16 22.34,-30.75 36.14,-40.78 13.93,-10.03 29,-16.49 45.09,-19.45 16.02,-2.96 32.91,-2.56 50.47,1.35 17.5,3.9 35.06,11.1 52.69,21.6zm171.67 -243.61l80.08 -89.1 -82.17 -73.96 31.83 -35.4 199.6 179.55 -31.83 35.4 -86.81 -78.13 -80.15 89.1 86.81 78.06 -31.83 35.4 -199.6 -179.48 31.83 -35.4 82.24 73.96zm494.09 -232.71l-38.02 28.67 -136.88 -181.5 -66.83 50.34 -24.77 -32.77 171.54 -129.34 24.77 32.84 -66.69 50.27 136.88 181.5zm220.13 -319.39l107.94 -52.09 -48.12 -99.6 42.87 -20.66 116.69 241.73 -42.87 20.73 -50.74 -105.18 -107.88 52.09 50.74 105.18 -42.87 20.66 -116.69 -241.73 42.87 -20.73 48.05 99.6zm564.28 -116.69l-94.75 25.51 -6.53 72.41 -48.86 13.12 29.61 -285.94 41.86 -11.31 169.12 232.58 -48.45 12.99 -41.99 -59.36zm-82.98 -118.17c-1.68,29.41 -3.57,54.17 -5.52,74.23l-2.22 25.77 65.28 -17.56 -14.81 -21.13c-11.84,-16.49 -25.84,-37.01 -41.99,-61.51l-0.74 0.2zm511.39 -105.72l-43.68 3.03c-6.6,0.47 -12.18,1.21 -16.82,2.29 -4.71,1.08 -8.82,2.49 -12.45,4.17 -8.34,4.24 -14.4,9.89 -18.1,17.09 -3.7,7.13 -5.25,14.87 -4.71,23.02 0.34,4.44 1.08,8.61 2.22,12.52 1.21,3.97 2.96,7.54 5.32,10.83 2.42,3.16 5.38,5.99 9.09,8.34 3.63,2.36 8.08,4.17 13.39,5.38 3.57,0.81 7.67,1.35 12.52,1.55 4.78,0.2 10.7,0.07 17.63,-0.47l41.52 -2.89 -5.92 -84.86zm-41.12 129.34l-51.35 104.58 -53.97 3.84 56.8 -112.65 0 -0.74c-17.23,-5.32 -30.35,-13.86 -39.3,-25.57 -9.02,-11.78 -14.13,-26.72 -15.41,-44.75 -1.28,-17.63 2.15,-33.58 10.16,-47.78 8.01,-14.27 20.12,-25.37 36.21,-33.18 6.19,-3.03 13.12,-5.38 20.73,-7.34 7.67,-1.82 16.56,-3.16 26.58,-3.84l95.43 -6.66 18.78 267.77 -47.51 3.3 -7 -100.47 -50.14 3.5zm741.88 157.61l76.72 -257.28 45.49 13.59 -34.93 117.1 0.67 0.2 128.67 -89.1 56.39 16.82 -141.53 96.5 73.35 163.26 -58.28 -17.36 -65.75 -146.1 -0.74 -0.2 -34.59 116.09 -45.49 -13.53zm597.8 84.26c7,-14.81 11.37,-28.53 13.06,-41.25 1.82,-12.79 1.28,-24.29 -1.41,-34.59 -2.69,-10.3 -7.47,-19.25 -14.2,-26.92 -6.73,-7.67 -15.21,-13.86 -25.37,-18.71 -10.16,-4.78 -20.39,-7.4 -30.55,-7.74 -10.23,-0.4 -20.19,1.68 -29.81,6.12 -9.76,4.44 -18.91,11.37 -27.66,20.86 -8.75,9.42 -16.56,21.47 -23.55,36.27 -7,14.74 -11.37,28.47 -13.06,41.25 -1.82,12.72 -1.28,24.16 1.41,34.52 2.76,10.16 7.47,19.18 14.2,26.92 6.8,7.67 15.21,13.93 25.37,18.71 10.16,4.85 20.39,7.34 30.62,7.74 10.23,0.27 20.19,-1.75 29.81,-6.12 9.69,-4.44 18.84,-11.37 27.52,-20.79 8.82,-9.42 16.69,-21.53 23.62,-36.27zm44.48 21c-8.75,18.51 -19.25,34.32 -31.63,47.31 -12.38,13.06 -26.18,22.81 -41.19,29.34 -15.01,6.53 -31.02,9.56 -48.18,9.02 -17.09,-0.54 -34.66,-5.11 -52.76,-13.66 -18.17,-8.55 -32.84,-19.25 -44.08,-32.1 -11.31,-12.92 -19.18,-27.26 -23.62,-43 -4.51,-15.68 -5.65,-32.5 -3.43,-50.34 2.22,-17.83 7.67,-36 16.42,-54.51 8.75,-18.57 19.31,-34.32 31.7,-47.31 12.38,-13.06 26.11,-22.88 41.12,-29.34 14.94,-6.53 31.02,-9.56 48.18,-9.02 17.09,0.54 34.66,5.05 52.76,13.66 18.1,8.55 32.84,19.25 44.08,32.1 11.31,12.92 19.18,27.26 23.62,42.94 4.51,15.75 5.72,32.57 3.5,50.41 -2.22,17.83 -7.74,36 -16.49,54.51zm279.21 263.8c17.23,-13.59 36.34,-27.59 57.54,-41.93l112.59 -76.25 53.43 39.77 -160.3 215.28 -38.16 -28.4 81.23 -109.09c11.91,-15.95 26.31,-34.05 43.34,-54.31l-1.41 -1.01c-6.33,4.85 -13.46,10.16 -21.53,15.95 -8.08,5.85 -16.15,11.51 -24.23,16.96l-133.58 89.71 -24.5 -18.3 47.65 -153.64c2.89,-9.29 6.06,-18.64 9.29,-28.06 3.3,-9.35 6.33,-17.83 9.15,-25.24l-1.35 -1.01c-13.59,20.79 -26.72,39.71 -39.5,56.93l-81.36 109.22 -38.22 -28.47 160.37 -215.28 53.16 39.57 -40.45 129.21c-6.73,21.6 -14.74,44.15 -24.09,67.7l0.94 0.67zm567.78 289.78l-207 170.93 -30.28 -36.74 174.64 -144.22 -70.46 -85.33 -174.64 144.22 -30.28 -36.68 206.94 -170.93 131.09 158.75zm62.05 457.21l-47.11 -86.01 -71.94 10.7 -24.29 -44.35 284.87 -38.76 20.86 38.09 -186.01 219.19 -24.16 -44.01 47.78 -54.85zm95.22 -108.55c-28.94,5.32 -53.43,9.42 -73.35,12.18l-25.57 3.97 32.44 59.29 17.09 -19.38c13.19,-15.41 29.81,-33.85 49.8,-55.32l-0.4 -0.74zm130.69 386.82l42.06 112.18 103.57 -38.83 16.69 44.55 -251.35 94.22 -16.69 -44.55 109.29 -40.98 -42.06 -112.18 -109.29 40.98 -16.69 -44.55 251.35 -94.22 16.69 44.55 -103.57 38.83zm252.77 586.49l5.52 49.46 -266.83 29.68 -5.25 -47.38 122.88 -13.59c15.21,-1.75 39.97,-3.7 74.16,-5.92l-0.07 -0.81c-16.49,-7.07 -42.26,-19.85 -77.12,-38.22l-134.12 -70.12 -5.52 -49.53 266.76 -29.61 5.25 47.31 -122.82 13.66c-19.52,2.15 -44.21,4.11 -74.03,5.85l0.13 0.81c15.01,6.66 40.18,19.18 75.57,37.55l135.47 70.86zm-30.42 468.12l1.55 -43.68c0.2,-6.66 0.07,-12.25 -0.47,-16.96 -0.61,-4.78 -1.55,-9.09 -2.89,-12.85 -3.3,-8.75 -8.28,-15.34 -15.07,-19.79 -6.66,-4.44 -14.2,-6.8 -22.41,-7.13 -4.44,-0.13 -8.68,0.2 -12.65,0.94 -4.11,0.74 -7.81,2.15 -11.31,4.17 -3.43,2.02 -6.6,4.71 -9.29,8.08 -2.76,3.43 -4.98,7.67 -6.73,12.79 -1.21,3.43 -2.22,7.54 -2.83,12.32 -0.74,4.71 -1.21,10.63 -1.48,17.56l-1.48 41.59 85.06 2.96zm-124.36 -54.38l-98.59 -62.05 1.88 -54.11 106.06 68.37 0.74 0c7.07,-16.56 16.96,-28.67 29.54,-36.41 12.65,-7.67 28,-11.24 46.1,-10.63 17.63,0.61 33.18,5.65 46.5,15.14 13.32,9.49 23.08,22.61 29.21,39.5 2.29,6.46 3.97,13.59 5.05,21.4 1.08,7.81 1.41,16.76 1.08,26.78l-3.36 95.63 -268.24 -9.42 1.62 -47.51 100.68 3.5 1.75 -50.2z"/>
  <path class="fil11" d="M4442.6 52994.65c62.05,-20.12 124.5,-35.4 186.95,-45.96l0 -187.22 432.05 0 0 187.15c127.39,21.53 250.48,61.91 365.15,118.98l110.16 -151.69 349.54 253.91 -110.1 151.55c88.83,90.31 165.35,194.49 225.71,310.71l178.13 -57.88 133.52 410.85 -178.13 57.88c13.06,86.88 17.03,173.63 12.65,259.16l-198.26 -81.83c-22.28,-9.22 -51.15,-3.5 -65.01,8.28 -2.89,-473.23 -321.95,-871.43 -756.55,-994.11 -47.24,-45.63 -100.61,-72.82 -158.55,-77.05 -16.96,-1.28 -33.92,-0.47 -50.67,2.15 7.67,-0.27 15.34,-0.07 23.02,0.47 238.7,17.56 401.22,426.26 363.07,912.88 -11.1,141.46 -37.96,273.9 -76.31,390.19l635.82 -205.86c-10.03,9.49 -13.66,16.62 -17.9,31.09l-6.06 18.78 -2241.12 691.95 0.27 17.7 2261.51 -495.37c17.56,35.8 117.1,44.69 117.37,95.9l0.34 313.06 -2379.21 121.81 0 7.07 2119.38 -34.59 0 33.31c-752.98,2.02 -1506.51,5.92 -2259.22,5.92l0 -28 289.44 -93.74c-21.67,-33.51 -41.86,-68.31 -60.57,-104.24l-178.07 57.94 -133.52 -410.91 178.13 -57.88c-19.45,-129.48 -18.84,-258.76 -0.07,-384.06l-178.07 -57.88 133.52 -410.85 178.34 57.94c59.22,-113.6 135,-218.51 225.44,-310.84l-110.03 -151.49 349.54 -253.91 110.1 151.55c56.73,-28.2 116.15,-52.63 178.27,-72.82zm356.67 201.89c-17.9,0.81 -35.73,2.02 -53.43,3.7 -28.74,-18.24 -59.56,-29.14 -92.06,-31.56 -15.14,-1.08 -30.22,-0.34 -45.16,2.15 6.33,-0.13 12.65,0 19.04,0.47 202.97,14.87 341.19,362.46 308.69,776.27 -16.96,216.09 -127.86,701.23 -405.73,722.57 -6.86,0.27 -13.66,0.2 -20.53,-0.34 -202.97,-14.87 -341.19,-362.46 -308.76,-776.27 19.79,-252.36 98.52,-471.14 203.03,-600.02 -353.51,165.95 -598.27,525.12 -598.27,941.48 0,233.18 76.79,448.47 206.53,621.96l641.07 -207.61c383.73,-170.53 436.69,-581.17 467.51,-749.42 29.75,86.14 8.14,393.08 -125.58,638.71l26.78 -8.68c31.76,-58.35 59.62,-126.65 81.9,-202.43 26.58,-90.18 45.36,-191.12 53.64,-297.12 5.85,-74.9 6.12,-147.45 1.35,-215.35 -4.78,-67.84 -14.54,-131.63 -28.53,-189.44 -27.79,-114.74 -72.48,-205.73 -128.6,-259.97 -8.95,-8.61 -30.28,-22.95 -57.88,-39.84 -27.59,-16.96 -61.58,-36.54 -95.56,-55.32 -30.89,-17.09 -62.11,-33.58 -88.7,-47.11 12.85,-10.03 25.98,-19.04 39.23,-26.85zm-65.61 226.18c79.28,102.76 123.49,296.64 106.53,514.69 -24.63,315.62 -168.17,562.33 -320.74,551.09 -2.69,-0.2 -5.38,-0.54 -8.08,-0.87 -123.69,-54.51 -202.63,-290.92 -181.1,-566.98 24.02,-308.49 164.34,-549.61 313.4,-538.58 32.5,2.42 62.79,16.62 89.98,40.65zm-154.78 370.2c34.59,2.56 58.14,61.71 52.63,132.24 -5.59,70.46 -38.09,125.58 -72.68,123.02 -34.52,-2.49 -58.08,-61.71 -52.56,-132.24 5.52,-70.46 38.02,-125.58 72.61,-123.02zm43.14 -14.33c42.6,3.1 71.54,75.98 64.74,162.66 -6.8,86.75 -46.77,154.51 -89.37,151.42 -17.97,-1.35 -36.68,-23.22 -56.46,-35.26 -29.07,-17.77 -47.11,-75.37 -41.93,-142 6.19,-78.6 42.46,-140.11 81.03,-137.29 19.18,1.41 29,-0.54 41.99,0.47zm-8.01 -433.19c155.79,11.51 261.85,278.27 236.95,595.91 -24.9,317.64 -171.4,565.83 -327.2,554.39 -155.79,-11.44 -261.92,-278.27 -237.02,-595.85 24.97,-317.71 171.47,-565.9 327.26,-554.46zm1344.32 904.67c79.14,32.64 158.48,64.81 237.69,97.24 29.07,11.84 61.64,67.03 60.84,106.46 -0.81,42.13 -1.62,84.05 -2.49,125.84 -1.08,52.42 -114.67,-6.66 -115.62,53.5 -1.62,100.47 -3.23,200.88 -4.85,301.35 -0.2,16.49 9.89,36.07 21.87,40.38 28.4,10.23 55.92,20.26 82.44,29.81 25.71,9.22 50.88,18.3 75.31,26.99 -0.27,8.68 -0.4,17.56 -0.67,26.04 -186.48,0 -372.96,0 -559.44,0 0,-11.51 0,-23.28 0,-35.2 42.6,-10.03 83.65,-19.92 123.15,-29.21 38.09,-8.88 74.97,-17.77 110.5,-26.25 14.27,-3.36 26.51,-23.42 26.78,-40.85 1.28,-107.27 2.62,-214.61 3.9,-321.88 0.4,-32.1 -37.89,-49.6 -75.57,-67.23 -37.01,-17.36 -73.42,-34.73 -73.15,-67.09 0.34,-51.55 0.81,-103.44 1.08,-155.59 0.34,-48.39 48.99,-80.49 88.23,-64.34z"/>
 </g>
</svg>
