<?xml version="1.0" encoding="UTF-8"?>
<!DOCTYPE svg PUBLIC "-//W3C//DTD SVG 1.1//EN" "http://www.w3.org/Graphics/SVG/1.1/DTD/svg11.dtd">
<!-- Creator: CorelDRAW 2020 (64-Bit) -->
<svg xmlns="http://www.w3.org/2000/svg" xml:space="preserve" width="90mm" height="120mm" version="1.1" style="shape-rendering:geometricPrecision; text-rendering:geometricPrecision; image-rendering:optimizeQuality; fill-rule:evenodd; clip-rule:evenodd"
viewBox="0 0 4188.78 5585.04"
 xmlns:xlink="http://www.w3.org/1999/xlink"
 xmlns:xodm="http://www.corel.com/coreldraw/odm/2003">
 <defs>
  <style type="text/css">
   <![CDATA[
    .str1 {stroke:#2E5E8D;stroke-width:3.94;stroke-miterlimit:22.9256}
    .str0 {stroke:#88C7ED;stroke-width:9.31;stroke-miterlimit:22.9256}
    .fil7 {fill:none}
    .fil5 {fill:#B3B3B3}
    .fil2 {fill:white}
    .fil3 {fill:#88C7ED}
    .fil0 {fill:#88C7ED}
    .fil6 {fill:#2E5E8D}
    .fil4 {fill:#2E5E8D;fill-rule:nonzero}
    .fil1 {fill:gray;fill-opacity:0.431373}
   ]]>
  </style>
 </defs>
 <g id="Layer_x0020_1">
  <metadata id="CorelCorpID_0Corel-Layer"/>
  <rect class="fil0" x="-0" y="-0" width="4188.78" height="5585.05"/>
  <polygon class="fil1" points="426.99,664.8 3042.52,435.97 3380.84,4303.02 765.31,4531.85 "/>
  <rect class="fil2" transform="matrix(0.940857 -0.0823143 0.242914 2.77652 366.684 609.373)" width="2779.94" height="1391.51"/>
  <polygon class="fil1" points="1277.17,1239.87 3892.7,1468.69 3554.37,5335.75 938.85,5106.91 "/>
  <path class="fil3 str0" d="M1358.77 1186.3l2484.17 217.33 -338.02 3863.57 -2615.53 -228.83 326.53 -3732.2c6.32,-72.26 70.6,-126.2 142.86,-119.87z"/>
  <path class="fil2 str0" d="M1358.78 1186.3l2484.16 217.33 -338.02 3863.57 -2615.53 -228.83 271.59 -3104.25c72.55,6.34 136.51,-47.33 142.86,-119.88 6.34,-72.55 -47.33,-136.51 -119.88,-142.86l31.96 -365.21c6.32,-72.25 70.61,-126.2 142.86,-119.87z"/>
  <path class="fil4" d="M914.36 1122.09c0.27,3.05 -0.01,5.74 -0.83,8.1 -0.83,2.36 -2.13,4.22 -3.9,5.58 -1.77,1.36 -3.91,2.15 -6.42,2.36 -2.44,0.21 -4.66,-0.2 -6.66,-1.23 -1.99,-1.04 -3.62,-2.62 -4.85,-4.76 -1.24,-2.14 -2.01,-4.66 -2.29,-7.6l-0.2 -2.24c-0.27,-2.99 0.03,-5.68 0.86,-8.05 0.84,-2.38 2.16,-4.27 3.95,-5.65 1.79,-1.38 3.91,-2.18 6.35,-2.39 2.49,-0.22 4.73,0.19 6.74,1.22 2,1.03 3.62,2.65 4.84,4.84 1.22,2.2 1.97,4.81 2.24,7.85l0.17 1.96zm-4.25 -1.66c-0.32,-3.68 -1.31,-6.45 -2.96,-8.29 -1.65,-1.84 -3.81,-2.64 -6.47,-2.41 -2.59,0.22 -4.53,1.39 -5.85,3.49 -1.31,2.1 -1.84,4.91 -1.57,8.42l0.2 2.29c0.31,3.57 1.3,6.32 2.98,8.23 1.68,1.9 3.84,2.75 6.46,2.52 2.65,-0.23 4.61,-1.37 5.89,-3.43 1.28,-2.05 1.78,-4.88 1.51,-8.49l-0.2 -2.32z"/>
  <path id="1" class="fil4" d="M929.41 1113.49c2.89,-0.26 5.31,0.51 7.21,2.3 1.91,1.79 3.01,4.27 3.28,7.44l0.04 0.37c0.19,2.17 -0.06,4.16 -0.75,5.93 -0.69,1.8 -1.78,3.23 -3.26,4.31 -1.48,1.08 -3.26,1.72 -5.3,1.89 -3.1,0.27 -5.69,-0.55 -7.76,-2.45 -2.08,-1.9 -3.26,-4.59 -3.57,-8.08l-0.17 -1.92c-0.42,-4.85 0.14,-8.78 1.69,-11.79 1.55,-3.02 4.04,-4.99 7.51,-5.92 1.95,-0.53 3.26,-1.08 3.91,-1.65 0.65,-0.57 0.94,-1.31 0.87,-2.2l3.23 -0.28c0.15,1.77 -0.12,3.19 -0.84,4.26 -0.72,1.07 -1.94,1.88 -3.66,2.45l-2.89 0.91c-2.3,0.76 -3.98,1.85 -5.04,3.27 -1.07,1.42 -1.67,3.24 -1.84,5.46 1.88,-2.6 4.32,-4.03 7.33,-4.29zm-0.49 3.3c-1.93,0.17 -3.4,0.96 -4.43,2.36 -1.02,1.41 -1.44,3.25 -1.24,5.56l0.03 0.34c0.22,2.48 0.96,4.38 2.23,5.73 1.27,1.35 2.88,1.93 4.83,1.76 1.96,-0.18 3.45,-1.04 4.46,-2.59 1.01,-1.55 1.4,-3.72 1.15,-6.5 -0.19,-2.18 -0.92,-3.88 -2.17,-5.09 -1.27,-1.21 -2.88,-1.74 -4.86,-1.57z"/>
  <polygon id="2" class="fil4" points="947.01,1110.62 948.75,1130.49 957.19,1129.75 955.46,1109.88 959.4,1109.54 961.14,1129.4 969.56,1128.67 967.83,1108.8 971.79,1108.46 973.53,1128.32 976.78,1128.03 977.27,1138.12 973.73,1138.43 973.13,1131.59 945.06,1134.04 943.04,1110.97 "/>
  <path id="3" class="fil4" d="M990.97 1130.47c-3.13,0.27 -5.77,-0.54 -7.91,-2.42 -2.14,-1.88 -3.36,-4.55 -3.66,-7.99l-0.07 -0.74c-0.2,-2.29 0.06,-4.37 0.78,-6.25 0.71,-1.87 1.82,-3.39 3.3,-4.55 1.48,-1.15 3.14,-1.82 4.97,-1.98 3.01,-0.26 5.43,0.53 7.26,2.36 1.84,1.84 2.92,4.59 3.24,8.28l0.15 1.64 -15.63 1.36c0.26,2.28 1.08,4.06 2.48,5.35 1.4,1.29 3.07,1.85 5.04,1.68 1.39,-0.12 2.54,-0.51 3.47,-1.17 0.91,-0.66 1.69,-1.49 2.34,-2.5l2.57 1.67c-1.67,3.15 -4.44,4.88 -8.31,5.23zm-2.3 -20.66c-1.59,0.14 -2.88,0.84 -3.86,2.1 -0.98,1.25 -1.5,2.94 -1.57,5.05l11.55 -1.01 -0.02 -0.3c-0.29,-1.99 -0.97,-3.5 -2.03,-4.52 -1.07,-1.01 -2.42,-1.46 -4.07,-1.32z"/>
  <path id="4" class="fil4" d="M1013.5 1125.27c1.41,-0.13 2.6,-0.67 3.57,-1.61 0.98,-0.95 1.47,-2.08 1.47,-3.37l3.73 -0.33c0.05,1.33 -0.3,2.63 -1.04,3.9 -0.73,1.27 -1.77,2.32 -3.1,3.15 -1.34,0.84 -2.79,1.32 -4.36,1.46 -3.14,0.27 -5.73,-0.55 -7.77,-2.49 -2.04,-1.94 -3.22,-4.72 -3.53,-8.36l-0.06 -0.67c-0.2,-2.24 0.04,-4.28 0.71,-6.1 0.67,-1.82 1.73,-3.28 3.19,-4.39 1.46,-1.1 3.24,-1.75 5.35,-1.93 2.59,-0.23 4.8,0.36 6.66,1.76 1.84,1.39 2.93,3.32 3.26,5.79l-3.73 0.32c-0.25,-1.48 -0.92,-2.65 -2.02,-3.52 -1.1,-0.87 -2.4,-1.24 -3.9,-1.11 -2,0.18 -3.5,1.03 -4.47,2.57 -0.98,1.54 -1.34,3.69 -1.1,6.42l0.07 0.74c0.23,2.67 0.96,4.67 2.18,6.01 1.22,1.35 2.85,1.92 4.88,1.75z"/>
  <polygon id="5" class="fil4" points="1042.78,1105.47 1035.04,1106.15 1036.77,1126.01 1032.83,1126.36 1031.09,1106.49 1023.5,1107.16 1023.22,1103.96 1042.49,1102.27 "/>
  <path id="6" class="fil4" d="M1048.72 1124.97l-2.02 -23.07 9 -0.79c3.08,-0.27 5.48,0.07 7.21,1 1.74,0.93 2.69,2.43 2.89,4.51 0.08,1.07 -0.15,2.05 -0.71,2.97 -0.56,0.92 -1.46,1.66 -2.67,2.22 1.42,0.21 2.6,0.75 3.53,1.63 0.93,0.88 1.45,1.98 1.56,3.3 0.19,2.12 -0.45,3.81 -1.91,5.07 -1.45,1.26 -3.61,2.01 -6.45,2.26l-10.43 0.92zm3.07 -10.48l0.61 6.97 6.53 -0.57c1.65,-0.15 2.85,-0.56 3.61,-1.24 0.77,-0.68 1.1,-1.58 1,-2.69 -0.2,-2.31 -1.99,-3.32 -5.38,-3.03l-6.37 0.56zm-0.28 -3.16l5.1 -0.45c3.7,-0.33 5.45,-1.56 5.26,-3.71 -0.19,-2.16 -2.03,-3.13 -5.54,-2.89l-5.39 0.48 0.57 6.57z"/>
  <path id="7" class="fil4" d="M1071.25 1111.16c-0.2,-2.27 0.07,-4.34 0.8,-6.22 0.73,-1.88 1.85,-3.39 3.35,-4.51 1.49,-1.12 3.26,-1.77 5.3,-1.95 3.14,-0.27 5.77,0.6 7.91,2.6 2.13,2.01 3.36,4.82 3.67,8.43l0.03 0.28c0.2,2.25 -0.06,4.31 -0.76,6.17 -0.71,1.86 -1.82,3.36 -3.33,4.5 -1.51,1.14 -3.31,1.79 -5.38,1.98 -3.13,0.27 -5.75,-0.6 -7.89,-2.61 -2.14,-2 -3.36,-4.8 -3.67,-8.39l-0.02 -0.27zm4.01 0.13c0.22,2.56 1,4.57 2.32,6.02 1.32,1.45 2.98,2.09 4.97,1.91 2.01,-0.17 3.54,-1.1 4.57,-2.77 1.05,-1.68 1.44,-3.93 1.19,-6.77 -0.21,-2.54 -1,-4.54 -2.34,-6.01 -1.34,-1.48 -3.01,-2.11 -4.99,-1.95 -1.95,0.18 -3.45,1.09 -4.51,2.75 -1.06,1.66 -1.46,3.93 -1.21,6.82z"/>
  <path id="8" class="fil4" d="M1118.06 1116.12c1.41,-0.13 2.6,-0.67 3.57,-1.61 0.98,-0.96 1.48,-2.08 1.47,-3.37l3.73 -0.33c0.05,1.33 -0.3,2.63 -1.04,3.9 -0.73,1.27 -1.77,2.32 -3.1,3.15 -1.34,0.84 -2.79,1.32 -4.35,1.46 -3.15,0.27 -5.74,-0.55 -7.77,-2.49 -2.04,-1.94 -3.23,-4.73 -3.54,-8.37l-0.06 -0.67c-0.2,-2.24 0.04,-4.29 0.71,-6.11 0.67,-1.82 1.74,-3.28 3.19,-4.38 1.46,-1.1 3.24,-1.75 5.35,-1.93 2.59,-0.22 4.8,0.36 6.66,1.76 1.84,1.4 2.94,3.33 3.26,5.8l-3.73 0.32c-0.25,-1.48 -0.92,-2.65 -2.02,-3.52 -1.1,-0.87 -2.4,-1.25 -3.9,-1.11 -2,0.17 -3.5,1.03 -4.47,2.57 -0.98,1.55 -1.34,3.69 -1.1,6.42l0.07 0.75c0.23,2.67 0.96,4.67 2.18,6.01 1.22,1.34 2.85,1.92 4.88,1.75z"/>
  <path id="9" class="fil4" d="M1140.67 1105.09c-0.2,-2.27 0.07,-4.34 0.8,-6.22 0.73,-1.89 1.85,-3.39 3.35,-4.51 1.49,-1.12 3.26,-1.77 5.3,-1.95 3.14,-0.27 5.77,0.6 7.91,2.6 2.13,2.01 3.36,4.82 3.67,8.43l0.03 0.27c0.2,2.25 -0.06,4.31 -0.76,6.17 -0.71,1.86 -1.82,3.36 -3.33,4.5 -1.51,1.14 -3.31,1.79 -5.38,1.98 -3.13,0.27 -5.75,-0.6 -7.88,-2.61 -2.14,-2 -3.36,-4.8 -3.68,-8.39l-0.02 -0.27zm4.01 0.13c0.22,2.56 1,4.57 2.32,6.01 1.32,1.45 2.98,2.09 4.97,1.92 2,-0.18 3.53,-1.11 4.57,-2.78 1.05,-1.68 1.44,-3.93 1.19,-6.77 -0.21,-2.54 -1,-4.54 -2.34,-6.01 -1.34,-1.47 -3.01,-2.11 -4.99,-1.95 -1.95,0.17 -3.45,1.09 -4.51,2.74 -1.06,1.66 -1.46,3.93 -1.21,6.83z"/>
  <polygon id="10" class="fil4" points="1180.84,1093.53 1170.19,1094.45 1171.92,1114.19 1167.95,1114.54 1165.93,1091.47 1180.54,1090.2 "/>
  <path id="11" class="fil4" d="M1204.49 1099.98c0.31,3.51 -0.25,6.42 -1.67,8.7 -1.42,2.29 -3.5,3.56 -6.25,3.79 -2.79,0.24 -5.08,-0.45 -6.84,-2.09l0.97 11.09 -3.95 0.34 -2.79 -31.93 3.6 -0.32 0.42 2.54c1.43,-2.14 3.57,-3.33 6.43,-3.57 2.78,-0.25 5.06,0.61 6.86,2.56 1.8,1.95 2.86,4.78 3.19,8.51l0.03 0.37zm-3.98 -0.1c-0.23,-2.61 -0.97,-4.62 -2.21,-6.04 -1.24,-1.41 -2.83,-2.04 -4.76,-1.87 -2.39,0.2 -4.09,1.42 -5.1,3.65l0.96 11.06c1.37,2.01 3.26,2.9 5.69,2.69 1.9,-0.16 3.33,-1.05 4.31,-2.65 0.99,-1.6 1.35,-3.89 1.09,-6.85z"/>
  <path id="12" class="fil4" d="M1224.74 1109.57c-0.26,-0.44 -0.52,-1.22 -0.76,-2.37 -1.67,2.07 -3.78,3.21 -6.33,3.43 -2.27,0.2 -4.19,-0.28 -5.77,-1.44 -1.57,-1.16 -2.44,-2.73 -2.62,-4.71 -0.2,-2.41 0.54,-4.35 2.25,-5.85 1.71,-1.49 4.23,-2.37 7.54,-2.66l3.84 -0.34 -0.15 -1.82c-0.12,-1.38 -0.63,-2.45 -1.53,-3.2 -0.9,-0.74 -2.15,-1.05 -3.76,-0.9 -1.41,0.11 -2.56,0.57 -3.44,1.38 -0.89,0.8 -1.29,1.7 -1.21,2.71l-3.97 0.35c-0.09,-1.15 0.21,-2.3 0.94,-3.45 0.73,-1.15 1.76,-2.09 3.11,-2.84 1.35,-0.75 2.86,-1.19 4.53,-1.34 2.66,-0.23 4.81,0.25 6.43,1.45 1.62,1.2 2.56,2.96 2.83,5.29l0.93 10.63c0.19,2.11 0.61,3.77 1.25,4.98l0.04 0.34 -4.15 0.36zm-6.8 -2.41c1.23,-0.11 2.38,-0.54 3.43,-1.27 1.05,-0.73 1.78,-1.64 2.19,-2.7l-0.41 -4.74 -3.09 0.27c-4.84,0.42 -7.13,2.05 -6.88,4.88 0.1,1.25 0.6,2.17 1.49,2.8 0.89,0.62 1.97,0.89 3.27,0.77z"/>
  <polygon id="13" class="fil4" points="1253.12,1107.09 1249.16,1107.44 1248.3,1097.57 1237.7,1098.49 1238.57,1108.36 1234.6,1108.71 1232.58,1085.63 1236.55,1085.29 1237.43,1095.3 1248.02,1094.37 1247.14,1084.37 1251.1,1084.02 "/>
  <polygon id="14" class="fil4" points="1272.37,1082.16 1276.31,1081.81 1278.33,1104.88 1274.38,1105.23 1272.92,1088.4 1263.74,1106.16 1259.79,1106.5 1257.78,1083.43 1261.72,1083.09 1263.2,1099.93 "/>
  <path id="15" class="fil4" d="M1302.09 1102.8l-3.97 0.34 -0.73 -8.35c-1.7,0.61 -3.45,0.99 -5.27,1.15 -2.89,0.25 -5.15,-0.29 -6.8,-1.65 -1.64,-1.34 -2.6,-3.38 -2.86,-6.12l-0.61 -6.89 3.95 -0.34 0.61 7.02c0.37,3.43 2.17,5.02 5.42,4.73 1.82,-0.17 3.57,-0.54 5.27,-1.15l-1 -11.47 3.97 -0.34 2.02 23.07z"/>
  <path id="16" class="fil4" d="M1318.04 1101.85c-3.13,0.27 -5.77,-0.53 -7.91,-2.42 -2.14,-1.88 -3.36,-4.54 -3.67,-7.98l-0.06 -0.74c-0.2,-2.29 0.06,-4.37 0.77,-6.25 0.72,-1.87 1.82,-3.39 3.3,-4.55 1.48,-1.16 3.13,-1.82 4.97,-1.98 3,-0.26 5.42,0.53 7.26,2.36 1.84,1.83 2.92,4.59 3.24,8.28l0.15 1.65 -15.64 1.36c0.26,2.28 1.08,4.06 2.48,5.35 1.4,1.29 3.07,1.85 5.03,1.68 1.39,-0.12 2.55,-0.51 3.47,-1.17 0.92,-0.66 1.7,-1.49 2.34,-2.5l2.58 1.67c-1.68,3.15 -4.45,4.89 -8.31,5.23zm-2.3 -20.66c-1.59,0.14 -2.88,0.84 -3.86,2.1 -0.98,1.25 -1.5,2.94 -1.57,5.05l11.56 -1.01 -0.03 -0.3c-0.28,-1.99 -0.96,-3.51 -2.02,-4.52 -1.07,-1.01 -2.42,-1.45 -4.07,-1.31z"/>
  <polygon id="17" class="fil4" points="1350.42,1098.58 1346.47,1098.92 1345.61,1089.06 1335.01,1089.98 1335.87,1099.85 1331.9,1100.19 1329.89,1077.12 1333.85,1076.78 1334.73,1086.78 1345.33,1085.85 1344.45,1075.85 1348.4,1075.51 "/>
  <polygon id="18" class="fil4" points="1375.61,1096.38 1371.66,1096.72 1370.8,1086.85 1360.2,1087.78 1361.07,1097.64 1357.1,1097.99 1355.09,1074.92 1359.05,1074.58 1359.93,1084.58 1370.53,1083.65 1369.65,1073.65 1373.59,1073.31 "/>
  <path id="19" class="fil4" d="M1379.88 1084.16c-0.2,-2.27 0.07,-4.34 0.8,-6.22 0.73,-1.88 1.85,-3.39 3.35,-4.51 1.5,-1.11 3.27,-1.77 5.3,-1.95 3.14,-0.27 5.77,0.59 7.91,2.6 2.14,2 3.36,4.82 3.67,8.43l0.03 0.28c0.2,2.25 -0.06,4.3 -0.76,6.17 -0.71,1.86 -1.81,3.35 -3.32,4.5 -1.51,1.13 -3.31,1.79 -5.39,1.97 -3.13,0.27 -5.75,-0.6 -7.88,-2.6 -2.14,-2.01 -3.36,-4.8 -3.67,-8.39l-0.02 -0.27zm4.01 0.13c0.22,2.56 1,4.57 2.32,6.01 1.33,1.46 2.99,2.09 4.97,1.92 2.01,-0.18 3.53,-1.1 4.57,-2.78 1.05,-1.68 1.44,-3.93 1.19,-6.77 -0.22,-2.54 -1,-4.54 -2.34,-6.01 -1.34,-1.47 -3.01,-2.11 -4.99,-1.95 -1.95,0.18 -3.45,1.09 -4.51,2.75 -1.06,1.66 -1.46,3.93 -1.21,6.82z"/>
  <path id="20" class="fil4" d="M1419.78 1069.26l3.95 -0.35 2.02 23.07 -3.95 0.36 -1.47 -16.83 -9.17 17.76 -3.95 0.34 -2.02 -23.07 3.95 -0.34 1.48 16.84 9.17 -17.77zm0.34 -8.51c0.15,1.71 -0.32,3.15 -1.4,4.29 -1.08,1.14 -2.57,1.8 -4.48,1.96 -1.91,0.17 -3.5,-0.21 -4.77,-1.16 -1.27,-0.94 -1.98,-2.28 -2.13,-3.97l3.22 -0.28c0.09,0.99 0.42,1.74 1.01,2.25 0.59,0.51 1.41,0.72 2.44,0.63 1,-0.09 1.75,-0.43 2.26,-1.03 0.52,-0.6 0.74,-1.4 0.65,-2.4l3.19 -0.28z"/>
  <path id="21" class="fil4" d="M1440.83 1078.83c-0.2,-2.27 0.07,-4.34 0.8,-6.22 0.73,-1.88 1.85,-3.39 3.35,-4.51 1.5,-1.12 3.27,-1.77 5.3,-1.95 3.14,-0.27 5.77,0.59 7.91,2.6 2.14,2.01 3.36,4.82 3.67,8.43l0.03 0.28c0.2,2.25 -0.06,4.3 -0.76,6.17 -0.71,1.86 -1.81,3.36 -3.32,4.5 -1.51,1.13 -3.31,1.79 -5.39,1.98 -3.13,0.27 -5.75,-0.6 -7.88,-2.61 -2.14,-2.01 -3.36,-4.8 -3.67,-8.39l-0.02 -0.27zm4.01 0.13c0.22,2.56 1,4.57 2.32,6.02 1.33,1.45 2.99,2.09 4.97,1.91 2.01,-0.17 3.53,-1.1 4.57,-2.78 1.05,-1.68 1.44,-3.93 1.19,-6.77 -0.22,-2.54 -1,-4.54 -2.34,-6.01 -1.34,-1.47 -3.01,-2.11 -4.99,-1.95 -1.95,0.18 -3.45,1.09 -4.51,2.75 -1.06,1.66 -1.46,3.93 -1.21,6.82z"/>
  <polygon id="22" class="fil4" points="1482.75,1066.98 1475.01,1067.66 1476.75,1087.52 1472.8,1087.87 1471.07,1068 1463.47,1068.67 1463.2,1065.46 1482.47,1063.77 "/>
  <path id="23" class="fil4" d="M1488.7 1086.48l-2.02 -23.07 9 -0.79c3.08,-0.27 5.48,0.07 7.21,0.99 1.74,0.93 2.69,2.43 2.88,4.51 0.08,1.07 -0.14,2.06 -0.71,2.97 -0.56,0.91 -1.46,1.65 -2.67,2.22 1.42,0.2 2.6,0.75 3.53,1.63 0.93,0.87 1.45,1.97 1.56,3.3 0.19,2.12 -0.45,3.81 -1.91,5.07 -1.45,1.26 -3.61,2.01 -6.45,2.26l-10.43 0.91zm3.07 -10.48l0.61 6.97 6.53 -0.56c1.65,-0.15 2.86,-0.56 3.62,-1.25 0.77,-0.68 1.1,-1.58 1,-2.69 -0.2,-2.31 -1.99,-3.32 -5.38,-3.03l-6.37 0.56zm-0.28 -3.16l5.1 -0.45c3.7,-0.33 5.45,-1.56 5.26,-3.72 -0.19,-2.16 -2.03,-3.12 -5.54,-2.89l-5.39 0.47 0.57 6.58z"/>
  <path id="24" class="fil4" d="M1522.92 1083.93c-3.13,0.27 -5.76,-0.53 -7.9,-2.42 -2.14,-1.88 -3.36,-4.55 -3.67,-7.99l-0.07 -0.73c-0.2,-2.29 0.06,-4.37 0.78,-6.25 0.72,-1.87 1.82,-3.39 3.3,-4.54 1.48,-1.16 3.13,-1.82 4.97,-1.98 3,-0.27 5.42,0.53 7.26,2.36 1.84,1.83 2.92,4.59 3.24,8.28l0.15 1.65 -15.64 1.36c0.26,2.28 1.08,4.06 2.48,5.35 1.4,1.29 3.07,1.85 5.03,1.68 1.39,-0.13 2.55,-0.51 3.47,-1.17 0.91,-0.66 1.69,-1.49 2.34,-2.5l2.57 1.67c-1.67,3.15 -4.44,4.88 -8.31,5.23zm-2.3 -20.66c-1.59,0.14 -2.88,0.84 -3.86,2.1 -0.98,1.25 -1.5,2.94 -1.57,5.05l11.56 -1.01 -0.03 -0.3c-0.29,-1.99 -0.96,-3.51 -2.02,-4.52 -1.07,-1.01 -2.42,-1.46 -4.07,-1.32z"/>
  <polygon id="25" class="fil4" points="1551.62,1060.95 1543.88,1061.63 1545.61,1081.5 1541.67,1081.84 1539.93,1061.98 1532.34,1062.64 1532.06,1059.44 1551.34,1057.75 "/>
  <path id="26" class="fil4" d="M1564.5 1077.07c1.41,-0.13 2.6,-0.67 3.57,-1.61 0.98,-0.96 1.47,-2.08 1.47,-3.37l3.73 -0.33c0.05,1.33 -0.3,2.63 -1.04,3.9 -0.73,1.27 -1.77,2.32 -3.11,3.15 -1.34,0.84 -2.79,1.33 -4.35,1.46 -3.14,0.27 -5.73,-0.55 -7.77,-2.49 -2.04,-1.94 -3.22,-4.73 -3.53,-8.37l-0.06 -0.67c-0.2,-2.24 0.04,-4.29 0.71,-6.11 0.67,-1.82 1.74,-3.28 3.2,-4.38 1.46,-1.1 3.24,-1.75 5.35,-1.93 2.59,-0.22 4.8,0.36 6.65,1.76 1.85,1.4 2.94,3.33 3.27,5.8l-3.73 0.32c-0.25,-1.48 -0.92,-2.65 -2.02,-3.52 -1.1,-0.87 -2.4,-1.25 -3.9,-1.11 -2,0.17 -3.5,1.03 -4.47,2.57 -0.98,1.55 -1.35,3.69 -1.1,6.42l0.07 0.75c0.23,2.66 0.96,4.67 2.18,6.01 1.22,1.34 2.85,1.92 4.88,1.75z"/>
  <polygon id="27" class="fil4" points="1593.78,1057.26 1586.04,1057.95 1587.77,1077.81 1583.83,1078.16 1582.09,1058.29 1574.49,1058.95 1574.22,1055.75 1593.49,1054.06 "/>
  <path id="28" class="fil4" d="M1599.72 1076.76l-2.02 -23.07 9 -0.79c3.08,-0.27 5.48,0.07 7.21,1 1.74,0.93 2.69,2.42 2.88,4.5 0.08,1.07 -0.14,2.06 -0.71,2.97 -0.56,0.91 -1.45,1.66 -2.66,2.22 1.42,0.2 2.6,0.75 3.53,1.63 0.93,0.87 1.45,1.97 1.56,3.3 0.19,2.13 -0.45,3.81 -1.91,5.07 -1.45,1.26 -3.61,2.01 -6.45,2.26l-10.43 0.91zm3.06 -10.48l0.61 6.97 6.53 -0.56c1.65,-0.15 2.86,-0.56 3.62,-1.25 0.77,-0.68 1.1,-1.58 1,-2.69 -0.2,-2.31 -2,-3.32 -5.38,-3.03l-6.38 0.56zm-0.28 -3.16l5.1 -0.45c3.7,-0.33 5.45,-1.56 5.26,-3.72 -0.19,-2.16 -2.03,-3.12 -5.54,-2.89l-5.39 0.47 0.57 6.58z"/>
  <path id="29" class="fil4" d="M1633.94 1074.21c-3.13,0.27 -5.76,-0.53 -7.9,-2.42 -2.14,-1.88 -3.36,-4.55 -3.67,-7.99l-0.07 -0.73c-0.2,-2.29 0.06,-4.37 0.78,-6.25 0.71,-1.87 1.82,-3.39 3.3,-4.54 1.48,-1.16 3.14,-1.82 4.98,-1.98 3,-0.27 5.42,0.53 7.26,2.36 1.84,1.83 2.92,4.59 3.23,8.28l0.15 1.65 -15.63 1.36c0.26,2.28 1.08,4.06 2.48,5.35 1.4,1.29 3.07,1.85 5.04,1.68 1.39,-0.12 2.54,-0.51 3.47,-1.17 0.91,-0.66 1.69,-1.49 2.34,-2.5l2.57 1.67c-1.67,3.15 -4.44,4.88 -8.31,5.23zm-2.3 -20.66c-1.59,0.14 -2.88,0.84 -3.86,2.1 -0.98,1.25 -1.5,2.94 -1.57,5.05l11.56 -1.01 -0.03 -0.3c-0.29,-1.99 -0.97,-3.51 -2.02,-4.52 -1.07,-1.01 -2.42,-1.46 -4.07,-1.32z"/>
  <polygon id="30" class="fil4" points="1666.33,1070.94 1662.38,1071.28 1661.51,1061.41 1650.92,1062.35 1651.78,1072.21 1647.81,1072.56 1645.8,1049.49 1649.76,1049.14 1650.64,1059.14 1661.24,1058.22 1660.36,1048.21 1664.31,1047.87 "/>
  <polygon id="31" class="fil4" points="1691.52,1068.74 1687.57,1069.08 1686.71,1059.21 1676.11,1060.14 1676.97,1070.01 1673,1070.35 1670.99,1047.28 1674.95,1046.94 1675.83,1056.94 1686.43,1056.01 1685.55,1046.01 1689.5,1045.66 "/>
  <path id="32" class="fil4" d="M1695.79 1056.52c-0.2,-2.27 0.06,-4.34 0.8,-6.22 0.73,-1.88 1.85,-3.39 3.35,-4.51 1.49,-1.12 3.27,-1.77 5.3,-1.95 3.14,-0.27 5.77,0.6 7.91,2.6 2.13,2.01 3.36,4.82 3.67,8.43l0.03 0.28c0.2,2.25 -0.06,4.31 -0.76,6.17 -0.71,1.86 -1.82,3.36 -3.32,4.5 -1.52,1.14 -3.31,1.79 -5.39,1.98 -3.13,0.27 -5.75,-0.6 -7.88,-2.61 -2.14,-2 -3.36,-4.8 -3.67,-8.39l-0.02 -0.27zm4 0.13c0.23,2.56 1,4.57 2.32,6.01 1.32,1.45 2.99,2.09 4.97,1.91 2,-0.17 3.53,-1.1 4.57,-2.77 1.05,-1.68 1.44,-3.93 1.19,-6.77 -0.22,-2.54 -1,-4.54 -2.34,-6.01 -1.34,-1.47 -3.01,-2.11 -4.99,-1.95 -1.95,0.17 -3.45,1.09 -4.51,2.74 -1.06,1.66 -1.46,3.93 -1.21,6.83z"/>
  <path id="33" class="fil4" d="M1731.79 1062.43c1.4,-0.13 2.59,-0.67 3.57,-1.61 0.98,-0.95 1.47,-2.08 1.47,-3.37l3.73 -0.33c0.05,1.33 -0.29,2.63 -1.03,3.9 -0.73,1.27 -1.77,2.32 -3.11,3.15 -1.34,0.84 -2.79,1.32 -4.35,1.46 -3.15,0.27 -5.73,-0.55 -7.77,-2.49 -2.04,-1.94 -3.22,-4.72 -3.54,-8.37l-0.06 -0.67c-0.2,-2.24 0.04,-4.28 0.71,-6.1 0.67,-1.82 1.74,-3.28 3.19,-4.39 1.46,-1.1 3.24,-1.75 5.35,-1.93 2.59,-0.23 4.8,0.36 6.65,1.76 1.85,1.4 2.94,3.33 3.26,5.8l-3.73 0.32c-0.25,-1.48 -0.92,-2.65 -2.01,-3.52 -1.1,-0.87 -2.4,-1.24 -3.9,-1.11 -2.01,0.18 -3.5,1.03 -4.47,2.57 -0.98,1.54 -1.34,3.69 -1.1,6.42l0.07 0.74c0.23,2.67 0.96,4.67 2.18,6.01 1.22,1.34 2.85,1.92 4.88,1.75z"/>
  <polygon id="34" class="fil4" points="1761.06,1042.63 1753.32,1043.31 1755.05,1063.17 1751.11,1063.52 1749.37,1043.65 1741.78,1044.31 1741.51,1041.12 1760.78,1039.43 "/>
  <path id="35" class="fil4" d="M1769.64 1046.66l5.99 -0.53c2.63,-0.2 4.76,0.3 6.39,1.51 1.64,1.2 2.56,2.95 2.76,5.24 0.2,2.3 -0.42,4.23 -1.87,5.76 -1.44,1.53 -3.48,2.41 -6.13,2.64l-9.76 0.85 -2.02 -23.07 3.95 -0.34 0.69 7.94zm0.28 3.2l0.76 8.73 5.87 -0.52c1.47,-0.12 2.58,-0.61 3.33,-1.44 0.74,-0.84 1.06,-1.92 0.94,-3.24 -0.12,-1.29 -0.61,-2.31 -1.46,-3.06 -0.86,-0.75 -2,-1.08 -3.43,-0.98l-6.02 0.53z"/>
  <path id="36" class="fil4" d="M1793.52 1046.42l5.55 -0.49c0.03,-3.1 0.9,-5.67 2.62,-7.7 1.72,-2.04 4.02,-3.17 6.88,-3.42 3.02,-0.27 5.58,0.53 7.67,2.4 2.09,1.86 3.36,4.42 3.8,7.66l0.13 1.24c0.2,2.25 -0.07,4.31 -0.79,6.2 -0.72,1.88 -1.83,3.38 -3.35,4.5 -1.5,1.11 -3.28,1.76 -5.32,1.93 -2.97,0.27 -5.49,-0.5 -7.55,-2.27 -2.06,-1.77 -3.34,-4.21 -3.84,-7.29l-5.53 0.48 0.88 10.04 -3.95 0.34 -2.02 -23.07 3.95 -0.34 0.85 9.78zm9.61 1.19c0.23,2.57 1,4.58 2.32,6.03 1.32,1.45 2.98,2.08 4.98,1.91 2.01,-0.18 3.53,-1.1 4.57,-2.79 1.04,-1.69 1.43,-3.94 1.18,-6.76 -0.22,-2.52 -0.99,-4.51 -2.33,-5.99 -1.33,-1.48 -2.99,-2.13 -4.98,-1.95 -1.96,0.17 -3.47,1.08 -4.53,2.74 -1.06,1.66 -1.46,3.94 -1.21,6.82z"/>
  <path id="37" class="fil4" d="M1838.79 1044.06l6.24 8.01 -3 0.26 -7.02 -7.74 -0.04 -0.4 5.57 -8.87 3 -0.26 -4.75 9zm7.07 -0.61l6.24 8 -3.01 0.27 -7.02 -7.74 -0.03 -0.41 5.56 -8.87 3.01 -0.27 -4.75 9.02z"/>
  <path id="38" class="fil4" d="M1860.96 1041.62l1.07 12.19 -4.09 0.36 -2.72 -31.05 11.45 -1.01c3.4,-0.3 6.14,0.34 8.21,1.9 2.09,1.55 3.25,3.76 3.5,6.61 0.27,3.02 -0.47,5.41 -2.22,7.2 -1.74,1.79 -4.36,2.84 -7.88,3.15l-7.32 0.64zm-0.29 -3.33l7.36 -0.64c2.19,-0.2 3.82,-0.86 4.9,-1.99 1.07,-1.14 1.53,-2.68 1.36,-4.63 -0.16,-1.85 -0.87,-3.28 -2.14,-4.29 -1.26,-1.01 -2.91,-1.44 -4.95,-1.31l-7.59 0.67 1.06 12.19z"/>
  <path id="39" class="fil4" d="M1894.24 1051.44c-3.13,0.27 -5.77,-0.53 -7.91,-2.42 -2.14,-1.88 -3.36,-4.54 -3.67,-7.99l-0.06 -0.73c-0.2,-2.29 0.06,-4.37 0.77,-6.25 0.72,-1.87 1.82,-3.39 3.3,-4.54 1.48,-1.16 3.13,-1.82 4.97,-1.98 3,-0.26 5.42,0.53 7.26,2.36 1.84,1.83 2.92,4.59 3.24,8.28l0.15 1.65 -15.63 1.36c0.25,2.28 1.08,4.06 2.48,5.35 1.4,1.29 3.07,1.85 5.03,1.68 1.39,-0.12 2.55,-0.51 3.47,-1.17 0.92,-0.66 1.7,-1.49 2.34,-2.5l2.58 1.67c-1.68,3.15 -4.45,4.88 -8.31,5.23zm-2.3 -20.66c-1.59,0.14 -2.88,0.84 -3.86,2.1 -0.98,1.25 -1.5,2.94 -1.57,5.05l11.56 -1.01 -0.03 -0.3c-0.28,-1.99 -0.96,-3.51 -2.02,-4.52 -1.07,-1.01 -2.42,-1.46 -4.07,-1.32z"/>
  <polygon id="40" class="fil4" points="1920.59,1043.43 1926.88,1024.89 1931.81,1024.46 1933.83,1047.53 1929.88,1047.88 1928.42,1031.1 1922.41,1048.53 1919.69,1048.77 1910.58,1032.3 1912.07,1049.44 1908.13,1049.78 1906.11,1026.72 1911.23,1026.27 "/>
  <path id="41" class="fil4" d="M1938.1 1035.33c-0.2,-2.27 0.07,-4.34 0.8,-6.22 0.73,-1.89 1.85,-3.39 3.35,-4.51 1.5,-1.12 3.27,-1.77 5.3,-1.95 3.14,-0.27 5.77,0.6 7.91,2.6 2.14,2.01 3.36,4.82 3.67,8.43l0.03 0.27c0.2,2.25 -0.06,4.31 -0.76,6.17 -0.71,1.85 -1.81,3.35 -3.32,4.5 -1.51,1.13 -3.31,1.79 -5.39,1.97 -3.13,0.27 -5.75,-0.6 -7.88,-2.6 -2.14,-2.01 -3.36,-4.8 -3.67,-8.4l-0.02 -0.27zm4.01 0.13c0.22,2.56 1,4.57 2.32,6.01 1.32,1.46 2.99,2.09 4.97,1.92 2,-0.18 3.53,-1.1 4.57,-2.78 1.05,-1.68 1.44,-3.93 1.19,-6.77 -0.22,-2.54 -1,-4.54 -2.34,-6.01 -1.34,-1.47 -3.01,-2.11 -4.99,-1.95 -1.95,0.17 -3.45,1.09 -4.51,2.74 -1.06,1.66 -1.46,3.93 -1.21,6.83z"/>
  <polygon id="42" class="fil4" points="1983.94,1043.16 1979.99,1043.5 1979.13,1033.63 1968.53,1034.55 1969.39,1044.42 1965.42,1044.77 1963.41,1021.7 1967.37,1021.36 1968.25,1031.36 1978.85,1030.43 1977.97,1020.43 1981.92,1020.08 "/>
  <polygon id="43" class="fil4" points="2005.69,1021.23 1997.95,1021.91 1999.68,1041.77 1995.74,1042.12 1994,1022.25 1986.41,1022.91 1986.13,1019.71 2005.41,1018.02 "/>
  <polygon id="44" class="fil4" points="2030.13,1039.11 2026.18,1039.46 2025.32,1029.59 2014.72,1030.52 2015.58,1040.38 2011.61,1040.73 2009.6,1017.66 2013.56,1017.32 2014.44,1027.31 2025.04,1026.39 2024.16,1016.38 2028.11,1016.04 "/>
  <path id="45" class="fil4" d="M2050.72 1037.31c-0.26,-0.43 -0.52,-1.22 -0.76,-2.37 -1.67,2.06 -3.78,3.21 -6.33,3.43 -2.27,0.2 -4.19,-0.29 -5.77,-1.44 -1.57,-1.16 -2.44,-2.73 -2.62,-4.71 -0.2,-2.41 0.54,-4.36 2.25,-5.85 1.71,-1.49 4.23,-2.37 7.54,-2.66l3.84 -0.34 -0.15 -1.82c-0.12,-1.38 -0.63,-2.45 -1.53,-3.2 -0.9,-0.74 -2.15,-1.05 -3.76,-0.91 -1.41,0.12 -2.56,0.58 -3.44,1.38 -0.89,0.8 -1.29,1.7 -1.21,2.72l-3.97 0.35c-0.09,-1.15 0.21,-2.3 0.94,-3.45 0.72,-1.14 1.76,-2.09 3.1,-2.84 1.35,-0.75 2.86,-1.2 4.53,-1.34 2.66,-0.23 4.81,0.25 6.43,1.44 1.62,1.2 2.56,2.96 2.83,5.29l0.93 10.63c0.19,2.11 0.61,3.78 1.25,4.98l0.04 0.34 -4.15 0.36zm-6.8 -2.41c1.23,-0.11 2.38,-0.54 3.43,-1.28 1.05,-0.73 1.78,-1.63 2.19,-2.7l-0.41 -4.74 -3.09 0.27c-4.84,0.42 -7.13,2.05 -6.88,4.88 0.1,1.24 0.6,2.17 1.49,2.8 0.89,0.62 1.97,0.89 3.27,0.77z"/>
  <path id="46" class="fil4" d="M2075.87 1011.86l2.02 23.07 -3.97 0.35 -0.79 -8.99 -5.95 0.51 -4.65 9.47 -4.26 0.37 4.96 -10.09c-1.53,-0.4 -2.74,-1.14 -3.62,-2.21 -0.89,-1.06 -1.4,-2.34 -1.53,-3.84 -0.19,-2.1 0.45,-3.87 1.92,-5.29 1.46,-1.42 3.52,-2.26 6.16,-2.51l9.71 -0.85zm-13.82 8.33c0.09,1.12 0.55,1.99 1.39,2.61 0.83,0.62 1.87,0.88 3.14,0.79l6.27 -0.55 -0.67 -7.63 -5.67 0.48c-1.47,0.13 -2.6,0.59 -3.41,1.38 -0.81,0.79 -1.15,1.76 -1.05,2.91z"/>
  <polygon id="47" class="fil4" points="2101.35,1022.98 2098.48,1023.23 2099.33,1033.05 2095.36,1033.4 2093.35,1010.33 2097.32,1009.99 2098.17,1019.76 2100.75,1019.54 2107.66,1009.08 2112.44,1008.66 2104.29,1020.56 2115.23,1031.66 2110.21,1032.1 "/>
  <path id="48" class="fil4" d="M2116.11 1019.75c-0.2,-2.27 0.06,-4.34 0.8,-6.22 0.73,-1.88 1.85,-3.39 3.35,-4.51 1.5,-1.12 3.27,-1.77 5.3,-1.95 3.14,-0.27 5.77,0.6 7.91,2.6 2.13,2.01 3.36,4.82 3.67,8.43l0.03 0.28c0.2,2.25 -0.06,4.31 -0.76,6.17 -0.71,1.86 -1.82,3.36 -3.32,4.5 -1.51,1.14 -3.31,1.79 -5.39,1.98 -3.13,0.27 -5.75,-0.6 -7.88,-2.61 -2.14,-2 -3.36,-4.8 -3.67,-8.39l-0.02 -0.27zm4 0.13c0.23,2.56 1,4.57 2.32,6.01 1.32,1.45 2.99,2.09 4.97,1.91 2,-0.17 3.53,-1.1 4.57,-2.77 1.05,-1.68 1.44,-3.93 1.19,-6.77 -0.22,-2.54 -1,-4.54 -2.34,-6.01 -1.34,-1.47 -3.01,-2.11 -4.99,-1.95 -1.95,0.17 -3.45,1.09 -4.51,2.74 -1.06,1.66 -1.46,3.93 -1.21,6.83z"/>
  <polygon id="49" class="fil4" points="2155.92,1022.84 2162.21,1004.3 2167.14,1003.87 2169.16,1026.94 2165.21,1027.29 2163.75,1010.51 2157.74,1027.94 2155.02,1028.19 2145.91,1011.71 2147.4,1028.85 2143.46,1029.19 2141.44,1006.13 2146.56,1005.68 "/>
  <polygon id="50" class="fil4" points="2194.37,1024.73 2190.43,1025.09 2188.7,1005.35 2178.08,1006.28 2179.81,1026.01 2175.84,1026.36 2173.82,1003.29 2192.36,1001.67 "/>
  <path id="51" class="fil4" d="M2214.96 1022.94c-0.26,-0.44 -0.52,-1.22 -0.76,-2.37 -1.67,2.07 -3.78,3.21 -6.33,3.43 -2.27,0.2 -4.19,-0.28 -5.76,-1.44 -1.57,-1.16 -2.44,-2.73 -2.62,-4.71 -0.2,-2.41 0.54,-4.35 2.25,-5.85 1.71,-1.49 4.23,-2.37 7.54,-2.66l3.84 -0.34 -0.15 -1.82c-0.12,-1.38 -0.64,-2.45 -1.53,-3.2 -0.89,-0.74 -2.15,-1.05 -3.76,-0.9 -1.41,0.11 -2.56,0.57 -3.44,1.38 -0.88,0.8 -1.29,1.7 -1.21,2.72l-3.97 0.35c-0.1,-1.15 0.21,-2.3 0.94,-3.45 0.72,-1.15 1.76,-2.09 3.1,-2.84 1.35,-0.75 2.86,-1.19 4.53,-1.34 2.66,-0.23 4.8,0.25 6.42,1.45 1.62,1.2 2.57,2.96 2.83,5.29l0.93 10.63c0.19,2.11 0.61,3.77 1.25,4.98l0.04 0.34 -4.15 0.36zm-6.8 -2.41c1.23,-0.11 2.38,-0.54 3.43,-1.27 1.05,-0.73 1.78,-1.64 2.19,-2.7l-0.42 -4.75 -3.09 0.27c-4.84,0.42 -7.13,2.05 -6.88,4.88 0.1,1.25 0.6,2.17 1.49,2.8 0.89,0.62 1.98,0.89 3.27,0.77z"/>
  <polygon id="52" class="fil4" points="2243.34,1020.46 2239.39,1020.8 2238.53,1010.93 2227.93,1011.86 2228.79,1021.73 2224.82,1022.08 2222.81,999 2226.77,998.66 2227.65,1008.66 2238.25,1007.73 2237.37,997.74 2241.32,997.39 "/>
  <polygon id="53" class="fil4" points="2262.59,995.53 2266.54,995.18 2268.55,1018.24 2264.61,1018.6 2263.14,1001.77 2253.97,1019.53 2250.01,1019.87 2248,996.8 2251.95,996.46 2253.42,1013.3 "/>
  <path id="54" class="fil4" d="M2290.53 993.08l2.02 23.07 -3.97 0.35 -0.79 -8.99 -5.95 0.52 -4.65 9.47 -4.26 0.37 4.96 -10.09c-1.53,-0.41 -2.74,-1.14 -3.62,-2.21 -0.89,-1.06 -1.4,-2.34 -1.53,-3.84 -0.19,-2.11 0.45,-3.87 1.92,-5.29 1.46,-1.42 3.51,-2.26 6.16,-2.51l9.71 -0.85zm-13.82 8.33c0.09,1.12 0.55,1.99 1.39,2.61 0.83,0.62 1.87,0.88 3.14,0.79l6.27 -0.55 -0.67 -7.63 -5.67 0.49c-1.47,0.13 -2.6,0.59 -3.41,1.38 -0.81,0.79 -1.15,1.76 -1.05,2.91z"/>
  <path id="55" class="fil4" d="M2299.31 995.14l7.02 7.76 0.03 0.4 -5.57 8.86 -3.03 0.27 4.76 -8.98 -6.25 -8.04 3.03 -0.27zm7.46 -0.65l7.02 7.75 0.03 0.4 -5.57 8.86 -3.03 0.26 4.76 -8.97 -6.25 -8.04 3.03 -0.26z"/>
  <polygon id="56" class="fil4" points="2343.84,1011.66 2339.73,1012.03 2338.47,997.64 2322.81,999.01 2324.07,1013.39 2319.98,1013.75 2317.26,982.7 2321.36,982.34 2322.52,995.67 2338.18,994.31 2337.01,980.98 2341.13,980.61 "/>
  <path id="57" class="fil4" d="M2348.43 999.42c-0.2,-2.27 0.07,-4.34 0.8,-6.22 0.73,-1.88 1.85,-3.39 3.35,-4.51 1.49,-1.12 3.26,-1.77 5.3,-1.95 3.14,-0.27 5.77,0.59 7.91,2.6 2.14,2.01 3.36,4.82 3.67,8.43l0.03 0.28c0.2,2.25 -0.06,4.31 -0.76,6.17 -0.71,1.86 -1.81,3.36 -3.32,4.5 -1.51,1.13 -3.31,1.79 -5.39,1.98 -3.13,0.27 -5.75,-0.6 -7.88,-2.61 -2.14,-2 -3.36,-4.8 -3.67,-8.39l-0.02 -0.27zm4.01 0.13c0.22,2.56 1,4.57 2.32,6.02 1.33,1.45 2.99,2.09 4.97,1.91 2.01,-0.17 3.53,-1.1 4.57,-2.78 1.05,-1.68 1.44,-3.93 1.19,-6.76 -0.21,-2.54 -1,-4.54 -2.34,-6.01 -1.34,-1.47 -3.01,-2.11 -4.99,-1.95 -1.95,0.18 -3.45,1.09 -4.51,2.75 -1.06,1.66 -1.46,3.93 -1.21,6.82z"/>
  <path id="58" class="fil4" d="M2375.78 1008.87l-2.02 -23.07 9 -0.79c3.08,-0.27 5.48,0.07 7.21,0.99 1.74,0.93 2.69,2.43 2.88,4.51 0.08,1.07 -0.14,2.05 -0.71,2.97 -0.56,0.91 -1.45,1.65 -2.66,2.21 1.42,0.21 2.6,0.75 3.53,1.63 0.93,0.87 1.45,1.97 1.56,3.3 0.19,2.12 -0.45,3.81 -1.91,5.07 -1.45,1.26 -3.61,2.01 -6.45,2.26l-10.43 0.91zm3.07 -10.48l0.61 6.97 6.53 -0.56c1.65,-0.15 2.86,-0.56 3.62,-1.25 0.77,-0.68 1.1,-1.58 1,-2.69 -0.2,-2.31 -1.99,-3.32 -5.38,-3.03l-6.37 0.56zm-0.28 -3.16l5.1 -0.45c3.7,-0.33 5.45,-1.56 5.26,-3.72 -0.19,-2.16 -2.03,-3.12 -5.54,-2.89l-5.39 0.47 0.57 6.58z"/>
  <path id="59" class="fil4" d="M2398.31 995.06c-0.2,-2.27 0.07,-4.34 0.8,-6.22 0.73,-1.89 1.85,-3.39 3.35,-4.51 1.49,-1.12 3.26,-1.77 5.3,-1.95 3.14,-0.27 5.77,0.6 7.91,2.6 2.13,2.01 3.35,4.82 3.66,8.43l0.03 0.27c0.2,2.25 -0.06,4.31 -0.76,6.17 -0.71,1.85 -1.81,3.35 -3.32,4.5 -1.51,1.13 -3.31,1.79 -5.38,1.97 -3.13,0.27 -5.75,-0.6 -7.89,-2.6 -2.14,-2.01 -3.36,-4.8 -3.67,-8.4l-0.02 -0.27zm4.01 0.13c0.22,2.56 1,4.57 2.32,6.01 1.33,1.46 2.99,2.09 4.97,1.92 2.01,-0.18 3.54,-1.1 4.57,-2.78 1.05,-1.68 1.44,-3.93 1.19,-6.77 -0.21,-2.54 -1,-4.54 -2.34,-6.01 -1.34,-1.47 -3.01,-2.11 -4.99,-1.95 -1.95,0.17 -3.45,1.09 -4.51,2.74 -1.06,1.66 -1.46,3.93 -1.21,6.83z"/>
  <polygon id="60" class="fil4" points="2440.24,983.21 2432.5,983.89 2434.23,1003.75 2430.29,1004.1 2428.55,984.23 2420.95,984.89 2420.68,981.7 2439.95,980.01 "/>
  <path id="61" class="fil4" d="M2464.33 989.76c0.31,3.51 -0.25,6.42 -1.67,8.7 -1.42,2.29 -3.5,3.56 -6.25,3.79 -2.79,0.24 -5.08,-0.45 -6.84,-2.09l0.97 11.09 -3.95 0.34 -2.79 -31.93 3.6 -0.32 0.42 2.54c1.43,-2.14 3.57,-3.33 6.43,-3.57 2.78,-0.25 5.06,0.61 6.86,2.56 1.8,1.95 2.86,4.78 3.19,8.51l0.03 0.37zm-3.98 -0.11c-0.23,-2.61 -0.97,-4.62 -2.21,-6.03 -1.24,-1.41 -2.83,-2.04 -4.76,-1.87 -2.39,0.2 -4.09,1.43 -5.1,3.66l0.96 11.06c1.37,2.01 3.26,2.9 5.69,2.69 1.9,-0.16 3.33,-1.04 4.31,-2.65 0.99,-1.6 1.35,-3.88 1.09,-6.85z"/>
  <path id="62" class="fil4" d="M2484.58 999.35c-0.26,-0.44 -0.52,-1.23 -0.76,-2.37 -1.67,2.07 -3.78,3.21 -6.33,3.43 -2.27,0.2 -4.19,-0.29 -5.77,-1.44 -1.57,-1.16 -2.44,-2.73 -2.62,-4.71 -0.2,-2.41 0.54,-4.36 2.25,-5.85 1.71,-1.49 4.23,-2.37 7.54,-2.66l3.84 -0.34 -0.15 -1.82c-0.12,-1.38 -0.63,-2.45 -1.53,-3.2 -0.9,-0.74 -2.15,-1.05 -3.76,-0.9 -1.41,0.11 -2.56,0.57 -3.44,1.38 -0.89,0.8 -1.29,1.7 -1.21,2.72l-3.97 0.35c-0.09,-1.15 0.21,-2.3 0.94,-3.45 0.73,-1.14 1.76,-2.09 3.11,-2.84 1.35,-0.75 2.86,-1.2 4.53,-1.34 2.66,-0.23 4.81,0.25 6.43,1.45 1.62,1.2 2.56,2.96 2.83,5.29l0.93 10.63c0.19,2.11 0.61,3.78 1.25,4.98l0.04 0.34 -4.15 0.36zm-6.8 -2.41c1.23,-0.11 2.38,-0.54 3.43,-1.27 1.05,-0.74 1.78,-1.64 2.19,-2.71l-0.41 -4.74 -3.09 0.27c-4.84,0.42 -7.13,2.05 -6.88,4.88 0.1,1.24 0.6,2.17 1.49,2.8 0.89,0.62 1.97,0.88 3.27,0.77z"/>
  <polygon id="63" class="fil4" points="2512.95,996.87 2509,997.21 2508.14,987.35 2497.54,988.27 2498.4,998.14 2494.43,998.48 2492.42,975.41 2496.38,975.07 2497.26,985.07 2507.86,984.15 2506.98,974.14 2510.93,973.8 "/>
  <path id="64" class="fil4" d="M2528.3 992.75c1.41,-0.13 2.6,-0.67 3.57,-1.61 0.98,-0.95 1.47,-2.08 1.47,-3.37l3.73 -0.33c0.05,1.33 -0.3,2.63 -1.04,3.9 -0.73,1.27 -1.77,2.32 -3.11,3.15 -1.34,0.84 -2.79,1.33 -4.35,1.46 -3.14,0.27 -5.73,-0.55 -7.77,-2.49 -2.04,-1.94 -3.22,-4.72 -3.53,-8.36l-0.06 -0.67c-0.2,-2.24 0.04,-4.28 0.71,-6.1 0.67,-1.82 1.74,-3.28 3.2,-4.38 1.46,-1.11 3.24,-1.75 5.35,-1.93 2.59,-0.23 4.8,0.36 6.65,1.76 1.85,1.39 2.94,3.33 3.27,5.79l-3.73 0.32c-0.25,-1.48 -0.92,-2.65 -2.02,-3.52 -1.1,-0.87 -2.4,-1.24 -3.9,-1.11 -2,0.18 -3.5,1.03 -4.47,2.57 -0.98,1.55 -1.35,3.69 -1.1,6.42l0.07 0.74c0.23,2.67 0.96,4.67 2.18,6.02 1.22,1.34 2.85,1.92 4.88,1.75z"/>
  <path id="65" class="fil4" d="M2542.6 973.85l7.02 7.76 0.04 0.4 -5.57 8.86 -3.03 0.27 4.76 -8.97 -6.25 -8.04 3.03 -0.27zm7.46 -0.65l7.02 7.75 0.03 0.4 -5.57 8.86 -3.03 0.26 4.76 -8.97 -6.25 -8.04 3.03 -0.26z"/>
  <path id="66" class="fil4" d="M1293.91 1140.68l0.22 -15.63 15.91 -1.4 0.32 3.64 -12.57 1.09 -0.2 8.58c1.45,-1.03 3.14,-1.63 5.06,-1.8 2.83,-0.25 5.16,0.49 6.99,2.21 1.83,1.72 2.89,4.18 3.16,7.35 0.27,3.21 -0.37,5.8 -1.93,7.79 -1.56,1.99 -3.9,3.12 -7,3.4 -2.74,0.24 -5.05,-0.33 -6.92,-1.7 -1.87,-1.36 -3.04,-3.39 -3.51,-6.05l3.73 -0.33c0.4,1.76 1.14,3.05 2.25,3.86 1.1,0.82 2.49,1.15 4.17,1.01 1.83,-0.16 3.22,-0.91 4.16,-2.25 0.94,-1.34 1.3,-3.11 1.12,-5.32 -0.19,-2.07 -0.89,-3.7 -2.14,-4.85 -1.24,-1.16 -2.8,-1.66 -4.68,-1.48 -1.72,0.14 -3.03,0.64 -3.96,1.48l-0.96 0.94 -3.23 -0.54z"/>
  <polygon id="67" class="fil4" points="1330.95,1153.11 1326.98,1153.46 1324.69,1127.16 1316.99,1130.79 1316.67,1127.19 1327.61,1121.94 1328.23,1121.89 "/>
  <path id="68" class="fil4" d="M1355.28 1119.65l0.29 3.34 -0.72 0.06c-3.07,0.33 -5.44,1.45 -7.1,3.38 -1.67,1.93 -2.5,4.51 -2.51,7.72 1.48,-2.02 3.63,-3.15 6.45,-3.39 2.7,-0.24 4.94,0.53 6.73,2.29 1.77,1.77 2.8,4.16 3.06,7.18 0.28,3.2 -0.37,5.84 -1.94,7.92 -1.57,2.08 -3.82,3.24 -6.75,3.5 -2.98,0.26 -5.48,-0.67 -7.53,-2.8 -2.05,-2.12 -3.23,-4.98 -3.55,-8.58l-0.13 -1.52c-0.51,-5.72 0.34,-10.19 2.5,-13.43 2.17,-3.24 5.66,-5.11 10.48,-5.6l0.7 -0.06zm-3.95 14.49c-1.35,0.12 -2.56,0.63 -3.63,1.54 -1.07,0.9 -1.76,1.98 -2.09,3.23l0.12 1.44c0.22,2.54 0.98,4.55 2.27,6 1.28,1.45 2.79,2.1 4.51,1.95 1.77,-0.16 3.12,-0.93 4.02,-2.31 0.91,-1.4 1.27,-3.14 1.08,-5.25 -0.19,-2.12 -0.85,-3.79 -1.99,-5.01 -1.15,-1.22 -2.57,-1.75 -4.28,-1.6z"/>
  <polygon id="69" class="fil4" points="1384.58,1119.37 1374.24,1149.33 1370.1,1149.7 1380.49,1120.76 1363.68,1122.23 1363.4,1118.98 1384.38,1117.15 "/>
  <path id="70" class="fil4" d="M1392.4 1153.97l-2.37 -1.34c1.18,-1.98 1.7,-3.97 1.59,-5.95l-0.31 -3.57 3.87 -0.34 0.27 3.1c0.13,1.44 -0.1,2.91 -0.68,4.4 -0.57,1.51 -1.36,2.74 -2.36,3.7z"/>
  <polygon id="71" class="fil4" points="1414.57,1114.51 1426.94,1138.95 1434.87,1112.74 1440.19,1112.27 1442.9,1143.32 1438.81,1143.68 1437.74,1131.59 1436.99,1118.49 1429,1144.53 1425.86,1144.81 1413.5,1120.63 1415.04,1133.58 1416.09,1145.66 1412,1146.02 1409.28,1114.97 "/>
  <path id="72" class="fil4" d="M1447.45 1131.09c-0.2,-2.27 0.07,-4.34 0.8,-6.22 0.73,-1.88 1.85,-3.39 3.35,-4.51 1.5,-1.12 3.27,-1.77 5.3,-1.95 3.14,-0.27 5.77,0.59 7.91,2.6 2.14,2 3.36,4.82 3.67,8.43l0.03 0.28c0.2,2.25 -0.06,4.3 -0.76,6.17 -0.71,1.86 -1.81,3.36 -3.32,4.5 -1.51,1.13 -3.31,1.79 -5.39,1.97 -3.13,0.27 -5.75,-0.59 -7.88,-2.6 -2.14,-2.01 -3.36,-4.8 -3.67,-8.39l-0.02 -0.27zm4.01 0.13c0.22,2.56 1,4.57 2.32,6.01 1.33,1.46 2.99,2.09 4.97,1.92 2,-0.18 3.53,-1.1 4.57,-2.78 1.05,-1.68 1.44,-3.93 1.19,-6.77 -0.22,-2.54 -1,-4.54 -2.34,-6.01 -1.34,-1.47 -3.01,-2.11 -4.99,-1.95 -1.95,0.18 -3.45,1.09 -4.51,2.75 -1.06,1.66 -1.46,3.93 -1.21,6.82z"/>
  <path id="73" class="fil4" d="M1483.44 1136.99c1.41,-0.13 2.6,-0.67 3.57,-1.61 0.98,-0.95 1.47,-2.08 1.47,-3.37l3.73 -0.33c0.05,1.33 -0.3,2.63 -1.04,3.9 -0.73,1.27 -1.77,2.32 -3.11,3.15 -1.34,0.84 -2.79,1.33 -4.35,1.46 -3.14,0.27 -5.73,-0.55 -7.77,-2.49 -2.04,-1.94 -3.22,-4.73 -3.54,-8.37l-0.06 -0.67c-0.2,-2.24 0.04,-4.28 0.71,-6.1 0.67,-1.82 1.74,-3.28 3.2,-4.38 1.46,-1.1 3.24,-1.75 5.35,-1.93 2.59,-0.23 4.8,0.36 6.65,1.76 1.85,1.4 2.94,3.33 3.27,5.8l-3.73 0.32c-0.25,-1.48 -0.92,-2.65 -2.02,-3.53 -1.1,-0.87 -2.4,-1.24 -3.9,-1.11 -2,0.18 -3.5,1.03 -4.47,2.57 -0.97,1.55 -1.34,3.69 -1.1,6.42l0.07 0.75c0.23,2.66 0.96,4.67 2.18,6.01 1.22,1.34 2.85,1.92 4.88,1.75z"/>
  <polygon id="74" class="fil4" points="1503.63,1128.1 1500.75,1128.36 1501.61,1138.18 1497.64,1138.53 1495.63,1115.46 1499.59,1115.11 1500.45,1124.89 1503.03,1124.67 1509.94,1114.21 1514.72,1113.79 1506.57,1125.68 1517.51,1136.79 1512.49,1137.23 "/>
  <path id="75" class="fil4" d="M1521.26 1136.46l-2.02 -23.07 9 -0.79c3.08,-0.27 5.48,0.07 7.21,1 1.74,0.93 2.7,2.42 2.89,4.5 0.08,1.07 -0.15,2.06 -0.71,2.97 -0.56,0.91 -1.45,1.66 -2.67,2.22 1.43,0.2 2.61,0.75 3.53,1.63 0.93,0.87 1.45,1.97 1.56,3.3 0.19,2.13 -0.45,3.81 -1.91,5.07 -1.45,1.26 -3.61,2.02 -6.45,2.26l-10.43 0.91zm3.06 -10.48l0.61 6.98 6.53 -0.57c1.65,-0.15 2.86,-0.56 3.62,-1.25 0.77,-0.68 1.1,-1.58 1,-2.69 -0.2,-2.31 -2,-3.32 -5.38,-3.03l-6.38 0.56zm-0.28 -3.16l5.1 -0.45c3.7,-0.33 5.45,-1.56 5.26,-3.72 -0.19,-2.16 -2.03,-3.12 -5.54,-2.89l-5.39 0.47 0.58 6.58z"/>
  <path id="76" class="fil4" d="M1560.11 1133.07c-0.26,-0.44 -0.52,-1.22 -0.76,-2.37 -1.67,2.07 -3.78,3.21 -6.33,3.43 -2.27,0.2 -4.19,-0.28 -5.77,-1.44 -1.57,-1.16 -2.44,-2.73 -2.62,-4.71 -0.2,-2.41 0.54,-4.35 2.25,-5.85 1.71,-1.49 4.23,-2.37 7.54,-2.66l3.84 -0.34 -0.16 -1.82c-0.12,-1.38 -0.63,-2.45 -1.53,-3.2 -0.89,-0.74 -2.15,-1.05 -3.76,-0.9 -1.41,0.11 -2.56,0.57 -3.44,1.38 -0.89,0.8 -1.29,1.7 -1.21,2.71l-3.97 0.35c-0.09,-1.15 0.21,-2.3 0.94,-3.45 0.72,-1.15 1.76,-2.09 3.1,-2.84 1.35,-0.75 2.86,-1.19 4.53,-1.34 2.66,-0.23 4.8,0.25 6.42,1.45 1.62,1.2 2.56,2.96 2.83,5.29l0.93 10.63c0.19,2.11 0.61,3.77 1.25,4.98l0.04 0.34 -4.15 0.36zm-6.8 -2.41c1.23,-0.11 2.38,-0.54 3.43,-1.27 1.06,-0.73 1.78,-1.64 2.2,-2.7l-0.42 -4.74 -3.09 0.27c-4.84,0.42 -7.13,2.05 -6.88,4.88 0.1,1.25 0.6,2.17 1.49,2.8 0.89,0.62 1.98,0.89 3.27,0.77z"/>
  <path id="77" class="fil4" d="M1570.04 1138.43l-2.37 -1.34c1.17,-1.98 1.7,-3.97 1.58,-5.95l-0.31 -3.57 3.87 -0.34 0.27 3.1c0.13,1.44 -0.1,2.91 -0.68,4.4 -0.57,1.51 -1.36,2.74 -2.35,3.7z"/>
  <path id="78" class="fil4" d="M1610.41 1097.38l2.72 31.05 -4.1 0.35 -2.42 -27.72 -11.14 0.97 0.53 12.37c0.15,4.15 -0,7.29 -0.45,9.42 -0.45,2.13 -1.25,3.74 -2.38,4.82 -1.14,1.08 -2.74,1.73 -4.78,1.94l-1.35 0.12 -0.3 -3.34 0.85 -0.12c1.32,-0.21 2.29,-0.74 2.94,-1.55 0.64,-0.83 1.08,-2.09 1.3,-3.78 0.23,-1.69 0.27,-4.29 0.12,-7.75l-0.68 -15.12 19.13 -1.67z"/>
  <path id="79" class="fil4" d="M1629.55 1127.43c-3.13,0.27 -5.76,-0.54 -7.9,-2.42 -2.14,-1.88 -3.36,-4.55 -3.67,-7.99l-0.07 -0.73c-0.2,-2.29 0.06,-4.37 0.78,-6.25 0.71,-1.87 1.82,-3.39 3.3,-4.55 1.48,-1.15 3.13,-1.82 4.97,-1.97 3,-0.27 5.42,0.53 7.26,2.36 1.84,1.83 2.92,4.59 3.23,8.28l0.15 1.64 -15.63 1.36c0.26,2.28 1.08,4.06 2.48,5.35 1.4,1.29 3.07,1.85 5.04,1.68 1.39,-0.12 2.54,-0.51 3.47,-1.16 0.91,-0.66 1.69,-1.49 2.34,-2.5l2.57 1.67c-1.67,3.15 -4.44,4.88 -8.31,5.23zm-2.3 -20.66c-1.59,0.14 -2.88,0.84 -3.86,2.1 -0.98,1.25 -1.5,2.94 -1.57,5.05l11.56 -1.01 -0.03 -0.3c-0.29,-2 -0.97,-3.51 -2.02,-4.52 -1.07,-1.01 -2.42,-1.46 -4.07,-1.32z"/>
  <polygon id="80" class="fil4" points="1661.94,1124.16 1657.99,1124.5 1657.12,1114.64 1646.52,1115.56 1647.38,1125.43 1643.42,1125.78 1641.4,1102.71 1645.37,1102.36 1646.25,1112.36 1656.85,1111.44 1655.97,1101.44 1659.92,1101.09 "/>
  <polygon id="81" class="fil4" points="1681.18,1099.23 1685.13,1098.88 1687.15,1121.95 1683.2,1122.3 1681.74,1105.48 1672.56,1123.23 1668.61,1123.57 1666.6,1100.5 1670.54,1100.16 1672.02,1117 "/>
  <polygon id="82" class="fil4" points="1712.35,1119.75 1708.4,1120.09 1707.53,1110.22 1696.94,1111.15 1697.8,1121.02 1693.83,1121.37 1691.82,1098.29 1695.78,1097.95 1696.66,1107.95 1707.26,1107.03 1706.38,1097.02 1710.33,1096.68 "/>
  <polygon id="83" class="fil4" points="1731.87,1098.15 1721.22,1099.08 1722.95,1118.82 1718.98,1119.16 1716.96,1096.1 1731.57,1094.82 "/>
  <path id="84" class="fil4" d="M1755.52 1104.61c0.31,3.51 -0.25,6.42 -1.66,8.7 -1.42,2.29 -3.5,3.56 -6.25,3.8 -2.79,0.24 -5.08,-0.46 -6.84,-2.09l0.97 11.09 -3.95 0.34 -2.79 -31.93 3.6 -0.31 0.42 2.54c1.43,-2.14 3.57,-3.33 6.43,-3.57 2.78,-0.25 5.06,0.61 6.86,2.56 1.8,1.95 2.86,4.79 3.19,8.51l0.03 0.37zm-3.98 -0.1c-0.23,-2.61 -0.97,-4.62 -2.21,-6.04 -1.24,-1.41 -2.83,-2.04 -4.76,-1.87 -2.39,0.2 -4.09,1.42 -5.1,3.65l0.96 11.06c1.37,2.01 3.26,2.9 5.69,2.69 1.9,-0.16 3.33,-1.05 4.31,-2.65 0.99,-1.6 1.35,-3.89 1.09,-6.85z"/>
  <path id="85" class="fil4" d="M1775.77 1114.2c-0.26,-0.44 -0.52,-1.22 -0.76,-2.37 -1.67,2.07 -3.78,3.21 -6.33,3.43 -2.27,0.2 -4.19,-0.28 -5.77,-1.44 -1.57,-1.16 -2.44,-2.73 -2.62,-4.71 -0.2,-2.41 0.54,-4.35 2.25,-5.85 1.71,-1.49 4.23,-2.37 7.54,-2.66l3.84 -0.34 -0.16 -1.82c-0.12,-1.38 -0.63,-2.45 -1.53,-3.2 -0.89,-0.74 -2.15,-1.05 -3.76,-0.9 -1.41,0.11 -2.56,0.57 -3.44,1.38 -0.89,0.8 -1.29,1.7 -1.21,2.71l-3.97 0.35c-0.09,-1.15 0.21,-2.3 0.94,-3.45 0.72,-1.15 1.76,-2.09 3.1,-2.84 1.35,-0.75 2.86,-1.19 4.53,-1.34 2.66,-0.23 4.8,0.25 6.42,1.45 1.62,1.2 2.56,2.96 2.83,5.29l0.93 10.63c0.19,2.11 0.61,3.77 1.25,4.98l0.04 0.34 -4.15 0.36zm-6.8 -2.41c1.23,-0.11 2.38,-0.54 3.43,-1.27 1.06,-0.73 1.78,-1.64 2.2,-2.7l-0.42 -4.74 -3.09 0.27c-4.84,0.42 -7.13,2.05 -6.88,4.88 0.1,1.24 0.6,2.17 1.49,2.8 0.89,0.62 1.98,0.89 3.27,0.77z"/>
  <path id="86" class="fil4" d="M1784.82 1110.18l1.21 -1.81c1.37,-2.12 1.98,-5.18 1.85,-9.19l-0.45 -9.25 14.87 -1.3 1.74 19.87 2.96 -0.27 0.87 10 -3.95 0.34 -0.59 -6.8 -16.1 1.41 0.59 6.8 -3.94 0.34 -0.85 -10 1.79 -0.16zm4.67 -0.41l10.6 -0.93 -1.42 -16.23 -7.1 0.62 0.25 5.52c0.16,4.62 -0.61,8.29 -2.33,11.01z"/>
  <path id="87" class="fil4" d="M1820.66 1107.49c1.41,-0.13 2.6,-0.67 3.57,-1.61 0.98,-0.95 1.47,-2.08 1.47,-3.37l3.73 -0.33c0.05,1.33 -0.3,2.63 -1.04,3.9 -0.73,1.27 -1.77,2.32 -3.1,3.15 -1.34,0.84 -2.79,1.33 -4.36,1.46 -3.14,0.27 -5.73,-0.55 -7.77,-2.49 -2.04,-1.94 -3.22,-4.73 -3.53,-8.37l-0.06 -0.67c-0.2,-2.24 0.04,-4.28 0.71,-6.1 0.67,-1.82 1.74,-3.28 3.2,-4.38 1.46,-1.1 3.24,-1.75 5.35,-1.93 2.59,-0.23 4.8,0.36 6.66,1.76 1.84,1.39 2.93,3.33 3.26,5.8l-3.73 0.32c-0.25,-1.48 -0.92,-2.65 -2.02,-3.53 -1.1,-0.87 -2.4,-1.24 -3.9,-1.11 -2,0.18 -3.5,1.03 -4.47,2.57 -0.98,1.55 -1.34,3.69 -1.1,6.42l0.07 0.75c0.23,2.66 0.96,4.67 2.18,6.01 1.22,1.34 2.85,1.92 4.88,1.75z"/>
  <polygon id="88" class="fil4" points="1840.85,1098.6 1837.98,1098.86 1838.83,1108.68 1834.87,1109.03 1832.85,1085.96 1836.82,1085.61 1837.67,1095.39 1840.25,1095.17 1847.16,1084.71 1851.94,1084.29 1843.79,1096.18 1854.73,1107.29 1849.71,1107.72 "/>
  <polygon id="89" class="fil4" points="1871.03,1082.62 1874.98,1082.27 1876.99,1105.34 1873.05,1105.69 1871.58,1088.86 1862.41,1106.62 1858.46,1106.96 1856.45,1083.89 1860.39,1083.55 1861.86,1100.39 "/>
  <path id="90" class="fil4" d="M1896.25 1080.41l3.95 -0.35 2.01 23.07 -3.94 0.35 -1.47 -16.82 -9.17 17.75 -3.95 0.35 -2.02 -23.08 3.95 -0.34 1.47 16.84 9.17 -17.77zm0.34 -8.51c0.15,1.71 -0.32,3.14 -1.4,4.29 -1.08,1.14 -2.57,1.8 -4.48,1.96 -1.91,0.17 -3.5,-0.22 -4.77,-1.17 -1.27,-0.94 -1.98,-2.27 -2.13,-3.97l3.23 -0.29c0.08,0.99 0.42,1.75 1.01,2.25 0.59,0.52 1.4,0.72 2.44,0.63 1,-0.09 1.75,-0.43 2.26,-1.03 0.51,-0.6 0.73,-1.4 0.64,-2.4l3.2 -0.28z"/>
  <polygon id="91" class="fil4" points="1938.24,1099.98 1934.3,1100.33 1932.57,1080.59 1921.95,1081.53 1923.68,1101.26 1919.71,1101.6 1917.69,1078.53 1936.23,1076.91 "/>
  <path id="92" class="fil4" d="M1963.1 1086.44c0.31,3.51 -0.25,6.42 -1.67,8.71 -1.42,2.29 -3.5,3.55 -6.25,3.79 -2.8,0.24 -5.08,-0.46 -6.85,-2.09l0.97 11.09 -3.95 0.34 -2.79 -31.93 3.6 -0.31 0.42 2.54c1.43,-2.14 3.57,-3.33 6.43,-3.57 2.78,-0.26 5.06,0.6 6.86,2.56 1.8,1.95 2.86,4.79 3.19,8.52l0.03 0.36zm-3.98 -0.1c-0.23,-2.61 -0.96,-4.62 -2.21,-6.04 -1.24,-1.41 -2.83,-2.04 -4.76,-1.87 -2.39,0.2 -4.09,1.42 -5.1,3.65l0.96 11.06c1.36,2.01 3.26,2.91 5.69,2.69 1.89,-0.16 3.33,-1.05 4.31,-2.65 0.99,-1.6 1.35,-3.89 1.09,-6.85z"/>
  <polygon id="93" class="fil4" points="1976.29,1084.94 1965.88,1085.86 1965.6,1082.66 1976.01,1081.74 "/>
  <polygon id="94" class="fil4" points="1996.56,1074.86 1988.81,1075.54 1990.55,1095.41 1986.6,1095.75 1984.87,1075.88 1977.27,1076.55 1977,1073.35 1996.27,1071.66 "/>
  <path id="95" class="fil4" d="M2002.55 1100.59l-2.37 -1.35c1.17,-1.98 1.7,-3.97 1.58,-5.95l-0.31 -3.57 3.87 -0.34 0.27 3.1c0.13,1.43 -0.1,2.91 -0.68,4.4 -0.57,1.51 -1.36,2.74 -2.35,3.7z"/>
  <path id="96" class="fil4" d="M2036.87 1080.84l4.31 -0.38 0.28 3.2 -4.31 0.38 0.63 7.23 -3.97 0.34 -0.63 -7.24 -14.14 1.24 -0.21 -2.31 12.04 -22.72 4.19 -0.37 1.81 20.61zm-13.62 1.19l9.65 -0.85 -1.33 -15.22 -0.4 0.9 -7.93 15.17z"/>
  <path id="97" class="fil4" d="M2061.4 1078.69l4.31 -0.38 0.28 3.2 -4.31 0.39 0.63 7.23 -3.97 0.34 -0.63 -7.24 -14.14 1.24 -0.21 -2.31 12.04 -22.72 4.19 -0.37 1.81 20.61zm-13.62 1.19l9.65 -0.85 -1.33 -15.22 -0.4 0.9 -7.93 15.17z"/>
  <path id="98" class="fil4" d="M2084.84 1087.16c-0.26,-0.43 -0.52,-1.22 -0.76,-2.37 -1.66,2.07 -3.78,3.21 -6.32,3.44 -2.28,0.19 -4.19,-0.29 -5.77,-1.45 -1.57,-1.16 -2.44,-2.73 -2.62,-4.7 -0.21,-2.41 0.54,-4.36 2.25,-5.85 1.71,-1.49 4.23,-2.37 7.54,-2.67l3.84 -0.34 -0.15 -1.82c-0.12,-1.38 -0.64,-2.45 -1.53,-3.2 -0.9,-0.74 -2.15,-1.05 -3.76,-0.91 -1.41,0.12 -2.56,0.57 -3.44,1.38 -0.89,0.8 -1.29,1.7 -1.21,2.72l-3.97 0.35c-0.1,-1.15 0.21,-2.3 0.94,-3.45 0.72,-1.15 1.76,-2.09 3.1,-2.84 1.35,-0.74 2.86,-1.19 4.53,-1.34 2.66,-0.23 4.8,0.25 6.42,1.45 1.62,1.2 2.57,2.96 2.83,5.29l0.93 10.63c0.19,2.11 0.61,3.78 1.25,4.98l0.03 0.34 -4.15 0.36zm-6.8 -2.41c1.23,-0.12 2.38,-0.54 3.43,-1.28 1.05,-0.73 1.78,-1.64 2.19,-2.7l-0.41 -4.74 -3.1 0.27c-4.84,0.42 -7.13,2.05 -6.88,4.88 0.1,1.24 0.6,2.17 1.49,2.8 0.88,0.62 1.97,0.89 3.27,0.77z"/>
  <path id="99" class="fil4" d="M2094.77 1092.52l-2.37 -1.35c1.18,-1.98 1.7,-3.97 1.59,-5.95l-0.31 -3.57 3.86 -0.34 0.27 3.1c0.13,1.44 -0.1,2.91 -0.68,4.4 -0.58,1.51 -1.36,2.74 -2.36,3.7z"/>
  <path id="100" class="fil4" d="M2122.75 1081.06c1.41,-0.13 2.6,-0.67 3.57,-1.61 0.98,-0.95 1.47,-2.08 1.47,-3.37l3.73 -0.34c0.05,1.34 -0.3,2.63 -1.04,3.9 -0.73,1.27 -1.77,2.32 -3.1,3.15 -1.34,0.84 -2.79,1.32 -4.36,1.46 -3.14,0.27 -5.73,-0.55 -7.77,-2.49 -2.04,-1.94 -3.22,-4.73 -3.53,-8.37l-0.06 -0.67c-0.2,-2.24 0.04,-4.28 0.71,-6.1 0.67,-1.82 1.73,-3.29 3.19,-4.39 1.46,-1.1 3.24,-1.75 5.35,-1.93 2.59,-0.22 4.8,0.36 6.66,1.76 1.84,1.4 2.93,3.33 3.26,5.8l-3.73 0.32c-0.25,-1.48 -0.92,-2.65 -2.02,-3.52 -1.1,-0.87 -2.4,-1.24 -3.9,-1.11 -2,0.18 -3.5,1.03 -4.47,2.57 -0.98,1.54 -1.34,3.69 -1.1,6.42l0.07 0.74c0.23,2.67 0.96,4.67 2.18,6.01 1.22,1.34 2.85,1.92 4.88,1.75z"/>
  <polygon id="101" class="fil4" points="2152.03,1061.26 2144.29,1061.94 2146.02,1081.8 2142.08,1082.15 2140.34,1062.28 2132.75,1062.95 2132.47,1059.75 2151.75,1058.05 "/>
  <path id="102" class="fil4" d="M2176.12 1067.81c0.31,3.51 -0.25,6.42 -1.67,8.7 -1.42,2.29 -3.5,3.56 -6.25,3.79 -2.79,0.24 -5.08,-0.45 -6.84,-2.09l0.97 11.09 -3.95 0.34 -2.79 -31.93 3.6 -0.32 0.42 2.54c1.43,-2.13 3.57,-3.32 6.43,-3.57 2.78,-0.25 5.06,0.61 6.86,2.56 1.8,1.95 2.86,4.78 3.19,8.51l0.03 0.37zm-3.98 -0.11c-0.23,-2.61 -0.97,-4.62 -2.21,-6.03 -1.24,-1.41 -2.83,-2.04 -4.76,-1.87 -2.39,0.2 -4.09,1.43 -5.1,3.66l0.96 11.06c1.37,2.01 3.26,2.9 5.69,2.69 1.9,-0.16 3.33,-1.04 4.31,-2.65 0.99,-1.6 1.35,-3.88 1.09,-6.85z"/>
  <path id="103" class="fil4" d="M2182.02 1076.55c-0.06,-0.68 0.1,-1.27 0.47,-1.76 0.36,-0.49 0.94,-0.77 1.75,-0.84 0.81,-0.07 1.45,0.1 1.91,0.52 0.46,0.42 0.71,0.97 0.77,1.65 0.06,0.66 -0.1,1.22 -0.48,1.7 -0.38,0.47 -0.98,0.75 -1.79,0.82 -0.81,0.07 -1.43,-0.09 -1.88,-0.5 -0.44,-0.41 -0.69,-0.94 -0.75,-1.59z"/>
  <path id="104" class="fil4" d="M2197.43 1059.72l2.96 -0.26c1.86,-0.19 3.29,-0.81 4.26,-1.86 0.99,-1.04 1.41,-2.37 1.26,-4 -0.32,-3.64 -2.29,-5.3 -5.92,-4.98 -1.7,0.15 -3.02,0.76 -3.95,1.82 -0.93,1.06 -1.32,2.4 -1.18,4l-3.95 0.35c-0.21,-2.46 0.51,-4.58 2.16,-6.37 1.65,-1.78 3.87,-2.79 6.65,-3.04 2.92,-0.26 5.29,0.32 7.09,1.72 1.8,1.41 2.83,3.48 3.06,6.24 0.12,1.35 -0.2,2.69 -0.97,4.04 -0.76,1.34 -1.87,2.39 -3.33,3.14 1.75,0.4 3.16,1.18 4.2,2.35 1.04,1.17 1.64,2.67 1.8,4.47 0.24,2.79 -0.47,5.09 -2.15,6.89 -1.68,1.79 -3.97,2.82 -6.89,3.08 -2.91,0.26 -5.35,-0.33 -7.33,-1.75 -1.96,-1.42 -3.06,-3.42 -3.29,-6.01l3.97 -0.34c0.14,1.63 0.79,2.9 1.95,3.79 1.15,0.89 2.62,1.25 4.41,1.1 1.91,-0.17 3.32,-0.8 4.25,-1.88 0.92,-1.09 1.3,-2.57 1.13,-4.44 -0.16,-1.82 -0.83,-3.16 -2.02,-4.04 -1.2,-0.87 -2.84,-1.23 -4.94,-1.08l-2.96 0.26 -0.27 -3.2z"/>
  <polygon id="105" class="fil4" points="1257.36,1159.55 1253.39,1159.89 1251.09,1133.6 1243.39,1137.22 1243.08,1133.62 1254.01,1128.38 1254.63,1128.32 "/>
  <path id="106" class="fil4" d="M1289.27 1156.76l-20.34 1.77 -0.25 -2.81 9.7 -12.91c1.43,-1.94 2.41,-3.5 2.91,-4.69 0.5,-1.18 0.71,-2.38 0.6,-3.59 -0.13,-1.62 -0.74,-2.91 -1.82,-3.86 -1.07,-0.95 -2.42,-1.36 -4.06,-1.21 -1.95,0.17 -3.43,0.86 -4.43,2.07 -0.99,1.21 -1.39,2.81 -1.22,4.8l-3.94 0.34c-0.25,-2.86 0.47,-5.25 2.15,-7.17 1.68,-1.92 4.07,-3.02 7.15,-3.29 2.89,-0.26 5.24,0.31 7.05,1.67 1.82,1.37 2.83,3.31 3.05,5.84 0.27,3.05 -1.36,6.87 -4.89,11.44l-7.53 9.76 15.59 -1.36 0.28 3.2z"/>
  <path class="fil5" d="M2286.7 2835.93c20.68,-4.78 41.35,-7.94 61.89,-9.59l5.31 -60.67 139.97 12.25 -5.31 60.65c40.68,10.59 79.41,27.14 114.94,48.9l40.01 -46.03 106.04 92.18 -39.96 45.97c26.22,31.79 48.06,67.71 64.34,107.08l59.36 -13.7 31.61 136.91 -59.35 13.7c1.76,28.52 0.6,56.75 -3.26,84.33l-61.9 -32.15c-6.97,-3.62 -16.47,-2.57 -21.3,0.85 12.48,-153.41 -79.6,-291.49 -216.96,-343.55 -14,-16.12 -30.54,-26.45 -49.18,-29.48 -5.47,-0.89 -10.97,-1.12 -16.49,-0.73 2.49,0.13 4.98,0.4 7.46,0.8 76.84,12.45 117.91,149.48 91.75,306.07 -7.61,45.51 -20.06,87.66 -35.78,124.26l211.84 -48.68c-3.51,2.8 -4.89,4.99 -6.67,9.57l-2.49 5.91 -745.77 160.68 -0.41 5.75 746.79 -96.41c4.69,12.11 36.67,17.79 35.31,34.39l-8.77 101.45 -774.33 -27.96 -0.2 2.28 687.68 48.86 -0.94 10.81c-244.03,-20.69 -488.3,-40.79 -732.18,-62.13l0.79 -9.08 96.43 -22.16c-6.06,-11.49 -11.62,-23.32 -16.65,-35.49l-59.36 13.7 -31.61 -136.91 59.36 -13.7c-2.62,-42.52 1.24,-84.39 10.87,-124.45l-56.06 -23.79 54.91 -129.34 56.15 23.83c22.4,-35.12 49.94,-66.98 81.86,-94.33l-31.36 -52.2 120.44 -72.37 31.37 52.22c19.18,-7.52 39.15,-13.75 59.83,-18.53zm109.86 75.52c-5.83,-0.26 -11.64,-0.35 -17.42,-0.31 -8.81,-6.74 -18.49,-11.15 -28.95,-12.85 -4.87,-0.79 -9.77,-0.97 -14.68,-0.58 2.06,0.12 4.11,0.34 6.15,0.67 65.35,10.59 100.27,127.12 78.02,260.28 -11.62,69.53 -61.31,223.59 -151.96,222.63 -2.22,-0.11 -4.44,-0.33 -6.64,-0.69 -65.35,-10.59 -100.27,-127.12 -78.03,-260.28 13.58,-81.22 45.29,-149.86 82.78,-188.65 -119.24,43.75 -208.73,153.18 -220.53,288.08 -6.61,75.57 12.18,147.5 49.29,207.38l213.62 -49.09c129.16,-44.37 157.95,-175.92 172.71,-229.57 7.21,28.76 -8.51,127.59 -58.78,203.38l8.92 -2.05c11.94,-18.01 22.9,-39.34 32.28,-63.26 11.17,-28.48 20.11,-60.64 25.8,-94.75 4.02,-24.11 6.15,-47.6 6.53,-69.75 0.38,-22.13 -0.97,-43.07 -3.87,-62.18 -5.76,-37.97 -17.65,-68.72 -34.32,-87.89 -2.63,-3.03 -9.15,-8.29 -17.61,-14.55 -8.46,-6.26 -18.92,-13.59 -29.41,-20.64 -9.52,-6.41 -19.16,-12.64 -27.39,-17.76 4.46,-2.9 8.96,-5.44 13.48,-7.59zm-27.68 71.42c22.76,35.55 31.6,99.62 19.92,169.78 -16.91,101.58 -70.43,177.45 -119.53,169.47 -0.87,-0.14 -1.74,-0.32 -2.59,-0.5 -38.54,-21.16 -57.41,-100 -42.61,-188.85 16.53,-99.26 68.83,-173.41 116.81,-165.61 10.48,1.7 19.88,7.17 28.01,15.71zm-60.64 115.56c11.13,1.8 17.08,21.66 13.29,44.34 -3.79,22.68 -15.89,39.61 -27.02,37.81 -11.13,-1.81 -17.08,-21.66 -13.29,-44.34 3.79,-22.68 15.89,-39.61 27.02,-37.81zm14.39 -3.43c13.7,2.22 21.02,26.65 16.35,54.56 -4.66,27.91 -19.55,48.74 -33.24,46.52 -5.79,-0.94 -11.24,-8.55 -17.3,-13.03 -8.92,-6.58 -13.14,-25.75 -9.56,-47.19 4.23,-25.31 17.72,-44.19 30.14,-42.18 6.17,1 9.4,0.65 13.6,1.32zm9.67 -140.57c50.15,8.13 76.97,97.57 59.89,199.78 -17.09,102.21 -71.59,178.48 -121.74,170.36 -50.16,-8.13 -76.97,-97.58 -59.89,-199.79 17.08,-102.21 71.58,-178.48 121.74,-170.35zm500.07 624.66l-1.01 11.51c-7.16,-2.96 -13.38,-4.68 -18.64,-5.14 -2.25,-0.2 -4.49,-0.04 -6.72,0.47 -5.02,1.12 -7.79,4.71 -8.32,10.75l-3.89 44.4c-0.57,6.51 1.55,9.97 6.35,10.39 10.46,0.92 19.13,0.39 26.02,-1.59l-1.19 13.6c-6.3,0.54 -10.66,0.87 -13.09,0.96 -2.2,0.12 -4.43,0.16 -6.68,0.12 -2.26,-0.04 -4.59,-0.17 -7,-0.38 -13.72,-1.2 -25.13,-6.34 -34.25,-15.41 -9.62,-9.74 -13.83,-21.32 -12.66,-34.73 1.17,-13.32 7.32,-23.91 18.47,-31.76 10.64,-7.42 22.79,-10.54 36.42,-9.35l3.95 0.34c9.92,0.87 17.32,2.81 22.21,5.81zm-197.57 -20.1l44.52 3.9 -3.23 36.85 13.83 1.21 3.22 -36.85 44.29 3.88 -7.79 89.03 -44.28 -3.87 3.4 -38.82 -14.07 -1.23 -3.4 38.83 -44.28 -3.88 7.79 -89.03zm-71.87 62.59l-4.82 -25.25 -11.57 23.82 16.39 1.43zm-23.04 11.69l-3.76 6.81 -13.37 -1.17 41.61 -86.07 21.97 1.92 28.13 92.18 -45.91 -4.02 -2.76 -7.39 -25.92 -2.27zm-99.14 -91.48l44.52 3.89c32.23,2.82 47.3,16.21 45.21,40.15 -1.21,13.8 -6.98,23.09 -17.31,27.88 -7.99,3.83 -19.38,5.1 -34.18,3.8l-1.52 17.43 -44.52 -3.9 7.81 -89.26zm43.48 15.75l-4.15 47.42c4.18,0.36 7.56,-0.12 10.14,-1.46 2.58,-1.34 3.98,-3.32 4.21,-5.96l2.62 -29.99c0.26,-2.95 -1.17,-5.37 -4.28,-7.28 -2.52,-1.55 -5.37,-2.46 -8.54,-2.74zm-81.15 70.9l-44.52 -3.9 6.77 -77.41 -13.59 -1.19 1.01 -11.62 71.72 6.27 -1.02 11.62 -13.6 -1.19 -6.77 77.41zm-111.12 -100.49c13.4,1.17 24.82,6.35 34.25,15.53 9.92,9.77 14.3,21.28 13.14,34.53 -1.16,13.25 -7.44,23.9 -18.84,31.97 -10.56,7.35 -22.74,10.43 -36.53,9.22 -13.72,-1.2 -25.17,-6.34 -34.37,-15.42 -9.76,-9.76 -14.06,-21.33 -12.89,-34.74 1.16,-13.25 7.43,-23.82 18.82,-31.73 10.8,-7.41 22.94,-10.52 36.42,-9.35zm-0.65 12.71c-2.71,-0.24 -4.5,0.11 -5.36,1.06 -1.47,1.59 -2.41,4.82 -2.84,9.7l-3.85 44.05c-0.31,3.57 -0.22,6.07 0.28,7.52 0.76,2.02 2.76,3.17 6.02,3.45 2.56,0.22 4.23,-0.06 5,-0.85 1.28,-1.29 2.13,-4.26 2.53,-8.91l3.82 -43.59c0.47,-5.42 0.2,-8.96 -0.83,-10.61 -0.77,-1.01 -2.36,-1.62 -4.76,-1.82zm-152.83 -25.31l44.52 3.89c9.69,0.85 18.22,3.28 25.6,7.28 9.92,5.32 14.51,12.2 13.77,20.65 -0.53,6.04 -3.79,11.18 -9.78,15.42 2.3,2.23 4.19,4.35 5.65,6.35 4.67,6.34 6.75,12.5 6.23,18.46 -0.82,9.46 -7.32,15.84 -19.47,19.15 -8.56,2.29 -18.49,2.95 -29.81,1.96l-44.52 -3.9 7.81 -89.26zm43.48 15.75l-2.18 24.99c3.33,0.29 6.32,0 8.97,-0.86 3.31,-1.27 5.1,-3.38 5.36,-6.32l0.68 -7.79c0.26,-2.95 -1.17,-5.37 -4.28,-7.28 -2.52,-1.55 -5.37,-2.46 -8.55,-2.74zm-3.21 36.73l-2.52 28.83 2.43 0.33c2.93,0.41 5.37,0.24 7.31,-0.53 2.74,-1.01 4.22,-2.71 4.43,-5.11l1.27 -14.53c0.31,-3.57 -1.19,-6.04 -4.51,-7.42 -1.58,-0.68 -4.38,-1.21 -8.41,-1.56zm-104.57 -58.92c13.41,1.17 24.82,6.35 34.25,15.53 9.92,9.77 14.3,21.28 13.14,34.53 -1.16,13.25 -7.44,23.9 -18.84,31.97 -10.56,7.35 -22.74,10.43 -36.53,9.22 -13.72,-1.2 -25.17,-6.34 -34.37,-15.42 -9.76,-9.76 -14.07,-21.33 -12.89,-34.74 1.16,-13.25 7.43,-23.82 18.82,-31.73 10.8,-7.41 22.94,-10.53 36.42,-9.35zm-0.64 12.71c-2.71,-0.24 -4.5,0.12 -5.36,1.06 -1.47,1.59 -2.42,4.82 -2.84,9.7l-3.86 44.06c-0.31,3.56 -0.22,6.07 0.28,7.52 0.76,2.02 2.77,3.17 6.02,3.46 2.56,0.22 4.22,-0.06 4.99,-0.85 1.28,-1.29 2.13,-4.27 2.54,-8.91l3.81 -43.59c0.47,-5.42 0.2,-8.96 -0.83,-10.61 -0.77,-1.01 -2.36,-1.61 -4.76,-1.82zm-165.29 -26.17l44.52 3.9 -3.23 36.84 13.83 1.21 3.22 -36.84 44.29 3.87 -7.79 89.03 -44.28 -3.88 3.39 -38.82 -14.06 -1.23 -3.4 38.82 -44.28 -3.87 7.79 -89.03zm834 -209.78c24.71,12.81 49.5,25.5 74.25,38.23 9.08,4.68 18.08,23.48 16.7,36.24 -1.46,13.61 -2.91,27.17 -4.37,40.69 -1.84,16.95 -36.97,-5.41 -38.99,14.06 -3.36,32.5 -6.73,65.01 -10.1,97.51 -0.55,5.33 2.17,11.98 5.93,13.71 8.92,4.11 17.54,8.14 25.86,11.98 8.07,3.73 15.97,7.37 23.64,10.89 -0.34,2.8 -0.64,5.67 -0.96,8.41 -60.42,-5.29 -120.85,-10.57 -181.27,-15.86 0.33,-3.72 0.66,-7.55 1,-11.4 14.09,-2.04 27.68,-4.09 40.75,-5.97 12.59,-1.81 24.79,-3.64 36.54,-5.37 4.71,-0.69 9.26,-6.84 9.82,-12.49 3.46,-34.73 6.94,-69.45 10.4,-104.18 1.04,-10.39 -10.88,-17.15 -22.58,-23.93 -11.51,-6.67 -22.8,-13.34 -21.81,-23.81 1.58,-16.69 3.19,-33.51 4.78,-50.38 1.47,-15.66 18.14,-24.7 30.41,-18.35zm-727.72 35.03c0.12,0.64 0.23,1.28 0.33,1.9 0.1,0.63 0.17,1.22 0.21,1.78l15.87 -3.02 1.36 7.19 -40.55 7.7 -2.15 -11.31c-0.36,-1.89 -0.59,-3.57 -0.68,-5.01 -0.1,-1.44 -0.08,-2.76 0.05,-3.93 0.34,-2.84 1.31,-5.15 2.89,-6.95 1.58,-1.8 3.8,-2.96 6.68,-3.51 1.95,-0.37 3.79,-0.32 5.5,0.17 1.72,0.48 3.26,1.37 4.64,2.67 1.38,1.29 2.57,2.97 3.56,5.03 1,2.06 1.76,4.49 2.29,7.29zm-5.7 4.87c-0.01,-0.42 -0.06,-0.95 -0.15,-1.58 -0.09,-0.65 -0.21,-1.31 -0.34,-1.99 -0.37,-1.93 -0.84,-3.51 -1.41,-4.75 -0.57,-1.25 -1.21,-2.21 -1.94,-2.9 -0.73,-0.69 -1.54,-1.13 -2.42,-1.32 -0.88,-0.2 -1.81,-0.2 -2.78,-0.02 -1.19,0.22 -2.18,0.68 -2.95,1.38 -0.77,0.69 -1.27,1.73 -1.51,3.13 -0.11,0.72 -0.12,1.6 -0.05,2.62 0.07,1.02 0.26,2.26 0.54,3.72l0.76 4.04 12.24 -2.33zm8.46 -66.79l0.22 -19.59 6.32 0.07 -0.3 26.92 -41.27 -0.47 0.29 -25.84 6.32 0.07 -0.2 18.52 10.68 0.12 0.18 -15.91 6.33 0.07 -0.18 15.91 11.63 0.13zm1.28 -75.57c-3.07,-1.39 -6.33,-3.03 -9.79,-4.9l-18.37 -10 1.67 -10.11 40.73 6.71 -1.19 7.22 -20.63 -3.4c-3.03,-0.5 -6.52,-1.2 -10.49,-2.09l-0.04 0.26c1.11,0.53 2.35,1.13 3.7,1.82 1.37,0.69 2.72,1.4 4.03,2.12l21.67 11.91 -0.76 4.64 -24.35 4.33c-1.48,0.26 -2.98,0.5 -4.5,0.71 -1.51,0.21 -2.87,0.4 -4.09,0.53l-0.04 0.27c3.8,0.39 7.31,0.84 10.57,1.38l20.66 3.4 -1.19 7.22 -40.73 -6.71 1.66 -10.05 20.5 -3.6c3.42,-0.6 7.07,-1.1 10.94,-1.48l0.03 -0.18zm16.3 -87.51c-2.36,-0.89 -4.51,-1.39 -6.48,-1.5 -1.97,-0.12 -3.73,0.1 -5.28,0.64 -1.55,0.54 -2.86,1.37 -3.96,2.5 -1.09,1.13 -1.94,2.5 -2.55,4.12 -0.61,1.62 -0.89,3.21 -0.82,4.78 0.07,1.57 0.5,3.07 1.31,4.5 0.8,1.43 1.97,2.76 3.53,3.97 1.55,1.23 3.5,2.29 5.85,3.17 2.35,0.89 4.51,1.39 6.49,1.5 1.97,0.12 3.72,-0.1 5.27,-0.64 1.54,-0.54 2.85,-1.38 3.96,-2.5 1.09,-1.13 1.95,-2.5 2.56,-4.11 0.61,-1.62 0.88,-3.21 0.81,-4.78 -0.08,-1.57 -0.51,-3.08 -1.3,-4.49 -0.8,-1.43 -1.96,-2.76 -3.52,-3.97 -1.55,-1.23 -3.5,-2.29 -5.85,-3.17zm2.68 -7.07c2.95,1.12 5.49,2.54 7.64,4.28 2.15,1.74 3.82,3.73 4.99,5.94 1.18,2.22 1.84,4.65 1.97,7.28 0.12,2.62 -0.36,5.38 -1.45,8.26 -1.09,2.88 -2.56,5.26 -4.38,7.14 -1.84,1.89 -3.94,3.27 -6.3,4.15 -2.35,0.88 -4.91,1.26 -7.67,1.13 -2.76,-0.12 -5.61,-0.74 -8.56,-1.85 -2.95,-1.12 -5.49,-2.55 -7.64,-4.29 -2.15,-1.74 -3.82,-3.72 -4.99,-5.93 -1.19,-2.22 -1.85,-4.65 -1.97,-7.28 -0.12,-2.62 0.36,-5.38 1.45,-8.26 1.09,-2.88 2.56,-5.26 4.38,-7.14 1.84,-1.89 3.94,-3.27 6.3,-4.15 2.35,-0.88 4.92,-1.26 7.68,-1.14 2.76,0.12 5.61,0.75 8.55,1.86zm19.49 -41.47l9.75 -15.63 -14.42 -9 3.87 -6.21 35.01 21.86 -3.88 6.21 -15.23 -9.51 -9.75 15.63 15.23 9.5 -3.87 6.21 -35.02 -21.86 3.88 -6.2 14.42 9zm68.6 -48.43l-4.99 5.36 -25.57 -23.83 -8.77 9.41 -4.63 -4.31 22.52 -24.16 4.62 4.31 -8.75 9.39 25.57 23.83zm24.81 -54.24l14.95 -10.77 -9.94 -13.8 5.94 -4.28 24.13 33.49 -5.94 4.27 -10.5 -14.56 -14.94 10.77 10.5 14.57 -5.94 4.28 -24.12 -33.49 5.94 -4.28 9.94 13.8zm82.32 -32.73l-13.67 6.39 0.94 11.14 -7.05 3.3 -3.15 -44.09 6.04 -2.82 31.81 30.69 -6.99 3.27 -7.94 -7.87zm-15.72 -15.68c0.53,4.5 0.91,8.29 1.15,11.38l0.35 3.96 9.42 -4.4 -2.81 -2.81c-2.23,-2.18 -4.9,-4.91 -8.01,-8.19l-0.11 0.05zm74.61 -29.66l-6.53 1.62c-0.99,0.25 -1.82,0.51 -2.49,0.8 -0.68,0.29 -1.27,0.61 -1.77,0.96 -1.16,0.86 -1.92,1.88 -2.29,3.07 -0.37,1.17 -0.4,2.39 -0.09,3.62 0.17,0.66 0.39,1.27 0.67,1.83 0.29,0.57 0.65,1.07 1.1,1.49 0.45,0.42 0.98,0.77 1.6,1.03 0.62,0.26 1.34,0.41 2.17,0.46 0.56,0.03 1.2,0 1.94,-0.1 0.73,-0.1 1.62,-0.27 2.65,-0.54l6.22 -1.55 -3.17 -12.69zm-2.77 20.69l-4.98 17.2 -8.08 2.02 5.6 -18.57 -0.03 -0.11c-2.75,-0.34 -4.96,-1.28 -6.63,-2.82 -1.68,-1.55 -2.85,-3.66 -3.53,-6.36 -0.66,-2.64 -0.57,-5.15 0.26,-7.52 0.84,-2.37 2.37,-4.37 4.6,-5.99 0.86,-0.61 1.84,-1.16 2.94,-1.66 1.12,-0.48 2.42,-0.92 3.92,-1.29l14.27 -3.56 9.99 40.05 -7.1 1.77 -3.75 -15.03 -7.5 1.87zm116.54 4.05l4.75 -41 7.25 0.84 -2.16 18.66 0.11 0.01 17.1 -16.93 8.99 1.04 -18.85 18.4 15.47 22.75 -9.29 -1.08 -13.86 -20.36 -0.11 -0.01 -2.14 18.51 -7.25 -0.84zm92.77 -3.21c0.66,-2.43 0.95,-4.62 0.87,-6.6 -0.07,-1.98 -0.45,-3.71 -1.14,-5.19 -0.68,-1.49 -1.64,-2.72 -2.87,-3.7 -1.23,-0.98 -2.68,-1.69 -4.35,-2.15 -1.67,-0.46 -3.28,-0.58 -4.83,-0.36 -1.55,0.22 -3.01,0.79 -4.35,1.73 -1.35,0.93 -2.56,2.23 -3.63,3.89 -1.07,1.66 -1.94,3.7 -2.6,6.12 -0.66,2.42 -0.95,4.62 -0.87,6.6 0.07,1.97 0.46,3.7 1.14,5.18 0.68,1.48 1.64,2.71 2.86,3.7 1.23,0.98 2.68,1.7 4.34,2.16 1.67,0.46 3.28,0.57 4.84,0.35 1.55,-0.23 3.01,-0.8 4.35,-1.72 1.35,-0.93 2.56,-2.22 3.62,-3.88 1.08,-1.66 1.95,-3.71 2.61,-6.12zm7.29 1.99c-0.83,3.04 -2,5.71 -3.53,8.01 -1.53,2.3 -3.35,4.15 -5.45,5.53 -2.1,1.39 -4.45,2.28 -7.06,2.66 -2.6,0.37 -5.38,0.15 -8.35,-0.66 -2.97,-0.81 -5.48,-2.04 -7.53,-3.69 -2.05,-1.65 -3.63,-3.61 -4.72,-5.88 -1.1,-2.26 -1.72,-4.77 -1.86,-7.53 -0.14,-2.76 0.2,-5.66 1.03,-8.69 0.83,-3.04 2.02,-5.71 3.54,-8.01 1.53,-2.3 3.34,-4.16 5.44,-5.54 2.1,-1.39 4.45,-2.28 7.06,-2.66 2.6,-0.37 5.38,-0.15 8.36,0.66 2.97,0.81 5.48,2.04 7.53,3.69 2.06,1.65 3.63,3.61 4.72,5.88 1.1,2.25 1.73,4.78 1.88,7.53 0.14,2.76 -0.21,5.66 -1.04,8.69zm49.33 32.5c2.24,-2.52 4.77,-5.15 7.59,-7.89l15.01 -14.55 9.15 4.6 -18.53 36.88 -6.53 -3.29 9.39 -18.69c1.38,-2.74 3.08,-5.86 5.11,-9.38l-0.23 -0.12c-0.83,0.9 -1.77,1.9 -2.84,3 -1.07,1.1 -2.14,2.18 -3.22,3.22l-17.83 17.14 -4.2 -2.11 3.11 -24.54c0.19,-1.48 0.41,-2.99 0.66,-4.5 0.25,-1.51 0.48,-2.86 0.72,-4.07l-0.24 -0.12c-1.5,3.51 -2.98,6.73 -4.47,9.68l-9.4 18.71 -6.54 -3.28 18.53 -36.88 9.1 4.58 -2.67 20.65c-0.44,3.44 -1.05,7.07 -1.84,10.89l0.17 0.08zm93.71 28.72l-26.78 31.41 -5.57 -4.75 22.6 -26.5 -12.95 -11.04 -22.6 26.51 -5.57 -4.75 26.78 -31.41 24.09 20.54zm21.6 67.58l-9.43 -11.77 -10.6 3.55 -4.87 -6.07 42.1 -13.47 4.17 5.2 -22.31 38.16 -4.83 -6.02 5.77 -9.57zm11.52 -18.98c-4.24,1.58 -7.84,2.84 -10.79,3.8l-3.77 1.28 6.5 8.1 2.07 -3.38c1.59,-2.69 3.61,-5.92 6.06,-9.71l-0.07 -0.09zm30.12 55.08l9.36 15.87 14.64 -8.64 3.72 6.3 -35.55 20.98 -3.72 -6.3 15.46 -9.12 -9.36 -15.87 -15.46 9.12 -3.72 -6.3 35.55 -20.98 3.72 6.31 -14.64 8.64zm53.93 82.06l2.15 7.34 -39.61 11.61 -2.06 -7.02 18.24 -5.35c2.27,-0.67 5.96,-1.62 11.08,-2.88l-0.03 -0.12c-2.69,-0.63 -6.93,-1.88 -12.7,-3.72l-22.19 -7.04 -2.15 -7.34 39.61 -11.61 2.06 7.02 -18.24 5.35c-2.9,0.85 -6.59,1.81 -11.05,2.87l0.04 0.12c2.45,0.61 6.6,1.82 12.45,3.67l22.41 7.11zm7.89 71.7l-0.94 -6.66c-0.14,-1.01 -0.32,-1.86 -0.53,-2.56 -0.22,-0.71 -0.47,-1.33 -0.77,-1.86 -0.74,-1.24 -1.67,-2.11 -2.81,-2.6 -1.13,-0.49 -2.34,-0.65 -3.59,-0.47 -0.67,0.1 -1.3,0.26 -1.89,0.47 -0.6,0.22 -1.13,0.54 -1.61,0.93 -0.47,0.4 -0.87,0.89 -1.18,1.48 -0.33,0.59 -0.55,1.29 -0.68,2.11 -0.09,0.56 -0.13,1.2 -0.1,1.94 0.01,0.74 0.1,1.64 0.25,2.7l0.89 6.34 12.96 -1.82zm-20.29 -4.92l-16.59 -6.76 -1.16 -8.24 17.89 7.52 0.12 -0.01c0.62,-2.69 1.8,-4.8 3.5,-6.3 1.72,-1.5 3.95,-2.45 6.7,-2.84 2.69,-0.38 5.17,-0.03 7.44,1.05 2.27,1.08 4.1,2.81 5.47,5.2 0.52,0.91 0.97,1.95 1.34,3.1 0.37,1.16 0.66,2.5 0.87,4.04l2.05 14.56 -40.87 5.74 -1.02 -7.25 15.34 -2.15 -1.08 -7.65z"/>
  <path class="fil6" d="M1642.58 674.45c7.07,-3 14.23,-5.43 21.44,-7.3l-1.92 -21.94 50.61 -4.43 1.92 21.93c15.15,1.21 29.98,4.68 44,10.19l11.36 -18.9 43.55 26.17 -11.34 18.88c11.33,9.68 21.36,21.1 29.63,34.09l20.27 -8.61 19.85 46.77 -20.27 8.61c2.42,10.05 3.77,20.17 4.13,30.24l-24.06 -7.56c-2.71,-0.85 -6.02,0.12 -7.53,1.64 -5.19,-55.41 -46.65,-98.79 -98.83,-108.71 -6,-4.86 -12.53,-7.5 -19.36,-7.41 -2.01,0.03 -3.98,0.29 -5.92,0.78 0.9,-0.11 1.8,-0.17 2.71,-0.18 28.14,-0.39 51.37,45.83 51.89,103.23 0.15,16.68 -1.64,32.47 -4.94,46.49l72.37 -30.63c-1.07,1.22 -1.43,2.09 -1.77,3.83l-0.52 2.26 -255.47 104.04 0.22 2.07 259.87 -81.22c2.43,4.02 14.18,4.03 14.74,10.03l3.25 36.68 -277.49 38.66 0.07 0.82 247.94 -25.78 0.34 3.91c-88.2,7.95 -176.44,16.13 -264.62,23.85l-0.29 -3.28 32.95 -13.94c-2.88,-3.71 -5.6,-7.58 -8.16,-11.59l-20.27 8.61 -19.85 -46.77 20.27 -8.61c-3.61,-14.98 -4.85,-30.13 -3.94,-45l-21.46 -4.95 11.43 -49.5 21.49 4.96c5.77,-13.92 13.58,-26.99 23.23,-38.73l-14.45 -16.62 38.35 -33.33 14.45 16.62c6.36,-3.88 13.07,-7.35 20.14,-10.35zm43.86 19.99c-2.09,0.27 -4.17,0.61 -6.22,0.98 -3.56,-1.85 -7.28,-2.81 -11.11,-2.76 -1.78,0.02 -3.54,0.27 -5.26,0.72 0.74,-0.09 1.48,-0.13 2.23,-0.14 23.93,-0.34 43.69,38.96 44.13,87.78 0.23,25.49 -7.8,83.47 -40.13,88.82 -0.8,0.1 -1.6,0.16 -2.41,0.17 -23.93,0.33 -43.68,-38.97 -44.13,-87.79 -0.27,-29.77 6.72,-56.2 17.63,-72.37 -39.71,23.06 -64.71,67.65 -60.44,116.43 2.39,27.32 13.59,51.76 30.57,70.75l72.98 -30.89c43.21,-23.91 45.2,-72.56 47.09,-92.59 4.37,9.79 4.98,45.97 -8.16,76.11l3.04 -1.29c3.12,-7.16 5.69,-15.45 7.53,-24.55 2.19,-10.84 3.36,-22.86 3.24,-35.36 -0.08,-8.84 -0.8,-17.34 -2.06,-25.25 -1.25,-7.9 -3.05,-15.28 -5.28,-21.9 -4.44,-13.16 -10.6,-23.36 -17.74,-29.14 -1.13,-0.92 -3.78,-2.38 -7.19,-4.08 -3.4,-1.7 -7.59,-3.65 -11.77,-5.5 -3.79,-1.68 -7.61,-3.3 -10.87,-4.61 1.41,-1.31 2.85,-2.5 4.32,-3.55zm-5.37 27.17c10.34,11.23 17.51,33.49 17.75,59.21 0.36,37.23 -13.93,67.61 -31.92,67.85 -0.32,0 -0.64,-0 -0.95,-0.02 -15.05,-5.11 -26.72,-32.01 -27.03,-64.57 -0.35,-36.38 13.62,-66.07 31.19,-66.3 3.84,-0.05 7.53,1.3 10.96,3.84zm-14.34 44.96c4.08,-0.06 7.44,6.64 7.52,14.95 0.07,8.32 -3.17,15.1 -7.25,15.16 -4.08,0.06 -7.44,-6.64 -7.52,-14.95 -0.07,-8.32 3.17,-15.1 7.25,-15.16zm4.91 -2.12c5.02,-0.07 9.16,8.17 9.25,18.4 0.09,10.23 -3.9,18.58 -8.91,18.65 -2.12,0.03 -4.54,-2.34 -6.98,-3.55 -3.59,-1.78 -6.29,-8.34 -6.36,-16.2 -0.08,-9.28 3.54,-16.85 8.08,-16.91 2.26,-0.03 3.39,-0.36 4.92,-0.38zm-5.38 -50.67c18.37,-0.25 33.53,29.91 33.87,67.38 0.34,37.47 -14.28,68.05 -32.65,68.31 -18.37,0.26 -33.53,-29.91 -33.87,-67.38 -0.34,-37.47 14.28,-68.05 32.65,-68.31zm217.29 191.04l0.37 4.16c-2.74,-0.61 -5.06,-0.83 -6.96,-0.66 -0.81,0.07 -1.6,0.27 -2.36,0.59 -1.71,0.72 -2.48,2.16 -2.29,4.35l1.41 16.05c0.2,2.36 1.18,3.45 2.91,3.3 3.78,-0.33 6.84,-1.07 9.17,-2.2l0.43 4.92c-2.21,0.59 -3.74,0.98 -4.6,1.16 -0.78,0.18 -1.57,0.34 -2.37,0.46 -0.81,0.13 -1.65,0.23 -2.51,0.31 -4.96,0.43 -9.35,-0.68 -13.17,-3.34 -4.04,-2.87 -6.26,-6.73 -6.69,-11.57 -0.42,-4.82 1.11,-8.98 4.58,-12.47 3.32,-3.31 7.45,-5.18 12.38,-5.61l1.43 -0.13c3.58,-0.31 6.34,-0.09 8.27,0.67zm-71.61 5.25l16.09 -1.41 1.17 13.32 5 -0.44 -1.16 -13.32 16.01 -1.4 2.82 32.19 -16.01 1.4 -1.23 -14.04 -5.09 0.45 1.23 14.04 -16.01 1.4 -2.82 -32.19zm-21.66 26.79l-3.3 -8.69 -2.62 9.21 5.93 -0.52zm-7.47 5.61l-0.91 2.66 -4.84 0.42 9.42 -33.26 7.94 -0.69 15.8 31.06 -16.6 1.45 -1.44 -2.46 -9.37 0.82zm-41.05 -26.35l16.1 -1.41c11.65,-1.02 17.86,2.8 18.62,11.46 0.44,4.98 -1.03,8.66 -4.42,11.02 -2.6,1.86 -6.58,3.03 -11.93,3.5l0.55 6.3 -16.09 1.41 -2.83 -32.28zm16.47 2.88l1.5 17.15c1.51,-0.13 2.69,-0.52 3.52,-1.15 0.83,-0.64 1.21,-1.43 1.12,-2.38l-0.94 -10.84c-0.09,-1.07 -0.75,-1.84 -1.98,-2.33 -1,-0.39 -2.07,-0.54 -3.22,-0.44zm-24.44 30.35l-16.09 1.41 -2.45 -27.99 -4.92 0.43 -0.37 -4.2 25.93 -2.27 0.37 4.2 -4.92 0.43 2.45 27.99zm-45.88 -28.81c4.85,-0.42 9.23,0.7 13.17,3.38 4.15,2.86 6.43,6.68 6.85,11.47 0.42,4.79 -1.15,8.98 -4.71,12.57 -3.3,3.28 -7.44,5.14 -12.43,5.58 -4.96,0.43 -9.36,-0.68 -13.21,-3.33 -4.09,-2.86 -6.35,-6.72 -6.77,-11.57 -0.42,-4.79 1.15,-8.95 4.71,-12.48 3.38,-3.32 7.51,-5.19 12.38,-5.62zm0.57 4.57c-0.98,0.09 -1.6,0.33 -1.84,0.71 -0.42,0.66 -0.56,1.87 -0.4,3.63l1.39 15.93c0.11,1.29 0.3,2.17 0.57,2.66 0.4,0.67 1.18,0.96 2.36,0.85 0.93,-0.08 1.5,-0.28 1.73,-0.61 0.37,-0.54 0.49,-1.65 0.34,-3.33l-1.38 -15.76c-0.17,-1.96 -0.49,-3.2 -0.96,-3.72 -0.34,-0.31 -0.94,-0.43 -1.81,-0.35zm-56.01 0.58l16.1 -1.41c3.5,-0.31 6.69,0.02 9.57,0.98 3.87,1.27 5.93,3.43 6.2,6.49 0.2,2.18 -0.65,4.22 -2.51,6.11 0.96,0.65 1.76,1.28 2.41,1.9 2.07,1.97 3.19,4.03 3.38,6.19 0.3,3.42 -1.61,6.1 -5.73,8.04 -2.9,1.35 -6.4,2.21 -10.49,2.57l-16.09 1.41 -2.83 -32.28zm16.47 2.88l0.79 9.03c1.21,-0.1 2.25,-0.4 3.14,-0.87 1.1,-0.66 1.61,-1.53 1.51,-2.59l-0.25 -2.82c-0.09,-1.06 -0.75,-1.84 -1.98,-2.32 -1,-0.4 -2.07,-0.54 -3.22,-0.44zm1.16 13.28l0.91 10.43 0.88 -0.04c1.07,-0.04 1.93,-0.25 2.57,-0.65 0.91,-0.53 1.33,-1.23 1.26,-2.1l-0.46 -5.25c-0.11,-1.29 -0.8,-2.08 -2.07,-2.36 -0.61,-0.14 -1.64,-0.15 -3.1,-0.03zm-40.94 -14.41c4.85,-0.43 9.24,0.7 13.17,3.38 4.15,2.85 6.43,6.68 6.85,11.47 0.42,4.79 -1.14,8.98 -4.7,12.57 -3.3,3.28 -7.44,5.14 -12.43,5.58 -4.96,0.43 -9.36,-0.67 -13.21,-3.33 -4.09,-2.86 -6.35,-6.72 -6.77,-11.56 -0.42,-4.79 1.15,-8.95 4.71,-12.48 3.38,-3.32 7.51,-5.19 12.38,-5.61zm0.57 4.57c-0.98,0.08 -1.6,0.32 -1.84,0.71 -0.42,0.66 -0.56,1.87 -0.4,3.63l1.4 15.93c0.11,1.29 0.3,2.17 0.57,2.66 0.4,0.67 1.19,0.96 2.36,0.86 0.92,-0.08 1.5,-0.29 1.72,-0.62 0.38,-0.54 0.49,-1.65 0.34,-3.33l-1.38 -15.76c-0.17,-1.96 -0.49,-3.21 -0.96,-3.73 -0.34,-0.31 -0.94,-0.43 -1.81,-0.35zm-60.5 1.06l16.1 -1.41 1.16 13.32 5 -0.44 -1.16 -13.32 16.02 -1.4 2.82 32.19 -16.02 1.4 -1.23 -14.04 -5.08 0.45 1.23 14.04 -16.02 1.4 -2.82 -32.19zm283.8 -127.06c9.61,3.01 19.23,5.97 28.84,8.95 3.53,1.09 7.91,7.22 8.22,11.85 0.34,4.94 0.67,9.86 1,14.76 0.41,6.15 -13.5,0.4 -13,7.46 0.84,11.78 1.68,23.57 2.53,35.35 0.13,1.93 1.52,4.13 2.97,4.51 3.43,0.9 6.76,1.8 9.96,2.64 3.1,0.82 6.15,1.62 9.1,2.39 0.06,1.02 0.13,2.06 0.19,3.06 -21.85,1.91 -43.69,3.82 -65.54,5.73 -0.12,-1.35 -0.24,-2.73 -0.36,-4.12 4.89,-1.61 9.6,-3.19 14.13,-4.68 4.37,-1.44 8.6,-2.85 12.68,-4.21 1.63,-0.54 2.87,-3.02 2.71,-5.06 -0.95,-12.58 -1.89,-25.17 -2.84,-37.75 -0.28,-3.76 -4.95,-5.42 -9.54,-7.1 -4.52,-1.66 -8.96,-3.32 -9.26,-7.11 -0.49,-6.04 -0.97,-12.13 -1.46,-18.24 -0.46,-5.67 4.91,-9.94 9.67,-8.44zm-256.93 58.16c0.08,0.22 0.16,0.44 0.24,0.66 0.07,0.22 0.13,0.43 0.19,0.62l5.46 -2.07 0.94 2.48 -13.96 5.29 -1.48 -3.89c-0.25,-0.65 -0.43,-1.23 -0.56,-1.74 -0.13,-0.51 -0.2,-0.98 -0.23,-1.4 -0.06,-1.03 0.14,-1.92 0.6,-2.66 0.45,-0.74 1.16,-1.3 2.15,-1.68 0.67,-0.25 1.33,-0.35 1.97,-0.28 0.64,0.07 1.25,0.28 1.82,0.66 0.57,0.37 1.1,0.89 1.58,1.56 0.48,0.67 0.91,1.49 1.28,2.45zm-1.73 2.09c-0.03,-0.15 -0.08,-0.34 -0.15,-0.56 -0.07,-0.22 -0.16,-0.45 -0.25,-0.68 -0.25,-0.67 -0.52,-1.2 -0.8,-1.6 -0.28,-0.41 -0.57,-0.71 -0.87,-0.91 -0.31,-0.2 -0.62,-0.31 -0.94,-0.32 -0.33,-0.01 -0.66,0.04 -0.99,0.17 -0.41,0.16 -0.74,0.38 -0.96,0.67 -0.23,0.3 -0.34,0.7 -0.34,1.21 0,0.27 0.06,0.58 0.15,0.94 0.09,0.36 0.23,0.79 0.42,1.29l0.53 1.39 4.21 -1.6zm-1.18 -24.32l-1.15 -6.99 2.26 -0.37 1.58 9.61 -14.73 2.42 -1.52 -9.22 2.26 -0.37 1.09 6.61 3.81 -0.63 -0.94 -5.67 2.25 -0.37 0.94 5.67 4.15 -0.68zm-4.29 -26.99c-1.18,-0.3 -2.45,-0.67 -3.8,-1.13l-7.16 -2.41 -0.05 -3.7 14.93 -0.17 0.03 2.65 -7.56 0.08c-1.11,0.01 -2.4,-0.02 -3.86,-0.08l0 0.09c0.43,0.12 0.91,0.26 1.43,0.41 0.53,0.16 1.06,0.33 1.57,0.5l8.47 2.88 0.02 1.7 -8.4 3.07c-0.51,0.19 -1.03,0.36 -1.55,0.54 -0.53,0.17 -1,0.32 -1.42,0.45l0 0.1c1.38,-0.1 2.66,-0.16 3.85,-0.17l7.57 -0.09 0.03 2.65 -14.93 0.17 -0.04 -3.68 7.08 -2.57c1.18,-0.43 2.45,-0.84 3.8,-1.21l0 -0.07zm0.31 -32.18c-0.9,-0.17 -1.69,-0.21 -2.41,-0.13 -0.71,0.08 -1.32,0.27 -1.84,0.56 -0.52,0.29 -0.94,0.67 -1.25,1.14 -0.32,0.47 -0.54,1.01 -0.65,1.62 -0.12,0.61 -0.11,1.2 0.01,1.75 0.13,0.55 0.37,1.06 0.75,1.52 0.37,0.46 0.87,0.86 1.5,1.2 0.63,0.34 1.39,0.6 2.29,0.76 0.89,0.17 1.69,0.21 2.4,0.13 0.71,-0.08 1.32,-0.27 1.84,-0.56 0.51,-0.29 0.93,-0.67 1.25,-1.14 0.32,-0.47 0.54,-1.01 0.66,-1.62 0.12,-0.61 0.11,-1.2 -0.01,-1.75 -0.13,-0.55 -0.37,-1.07 -0.74,-1.52 -0.38,-0.46 -0.87,-0.86 -1.5,-1.2 -0.63,-0.34 -1.39,-0.6 -2.28,-0.76zm0.51 -2.69c1.12,0.21 2.12,0.56 2.99,1.04 0.87,0.48 1.6,1.09 2.15,1.8 0.56,0.72 0.95,1.54 1.16,2.47 0.2,0.93 0.21,1.94 0,3.03 -0.21,1.09 -0.58,2.03 -1.11,2.82 -0.54,0.79 -1.2,1.41 -1.98,1.87 -0.78,0.46 -1.67,0.76 -2.66,0.88 -0.99,0.13 -2.05,0.09 -3.16,-0.12 -1.12,-0.21 -2.11,-0.56 -2.99,-1.05 -0.87,-0.48 -1.59,-1.08 -2.15,-1.8 -0.56,-0.72 -0.95,-1.54 -1.16,-2.47 -0.21,-0.93 -0.21,-1.94 -0,-3.03 0.21,-1.09 0.58,-2.03 1.11,-2.82 0.54,-0.79 1.2,-1.41 1.99,-1.87 0.78,-0.46 1.67,-0.76 2.66,-0.89 0.99,-0.13 2.05,-0.09 3.16,0.13zm4.34 -15.99l2.49 -6.18 -5.7 -2.3 0.99 -2.45 13.84 5.59 -0.99 2.45 -6.02 -2.43 -2.49 6.18 6.02 2.43 -0.99 2.45 -13.84 -5.58 0.99 -2.46 5.7 2.3zm21.39 -21.55l-1.44 2.22 -10.6 -6.88 -2.54 3.9 -1.92 -1.24 6.51 -10.02 1.92 1.24 -2.53 3.9 10.6 6.88zm5.43 -20.87l4.64 -4.78 -4.4 -4.29 1.84 -1.9 10.7 10.41 -1.85 1.9 -4.65 -4.53 -4.64 4.77 4.65 4.53 -1.85 1.89 -10.69 -10.41 1.84 -1.9 4.41 4.29zm27.26 -16.83l-4.47 3.13 1.04 3.91 -2.3 1.62 -3.89 -15.5 1.97 -1.38 13.26 8.93 -2.29 1.6 -3.32 -2.3zm-6.59 -4.59c0.47,1.57 0.85,2.89 1.13,3.98l0.37 1.39 3.08 -2.16 -1.17 -0.82c-0.93,-0.63 -2.05,-1.44 -3.36,-2.41l-0.04 0.02zm24.7 -15.25l-2.22 0.99c-0.34,0.15 -0.61,0.3 -0.83,0.44 -0.23,0.14 -0.42,0.3 -0.57,0.45 -0.36,0.38 -0.56,0.79 -0.62,1.24 -0.06,0.44 0.01,0.87 0.2,1.29 0.1,0.23 0.22,0.43 0.35,0.61 0.14,0.19 0.3,0.34 0.48,0.47 0.19,0.12 0.4,0.21 0.63,0.27 0.24,0.05 0.51,0.06 0.81,0.02 0.2,-0.02 0.43,-0.07 0.68,-0.16 0.25,-0.08 0.56,-0.2 0.91,-0.35l2.11 -0.94 -1.93 -4.32zm0.32 7.54l-0.69 6.44 -2.75 1.22 0.83 -6.97 -0.02 -0.04c-1,0.05 -1.84,-0.14 -2.54,-0.59 -0.69,-0.45 -1.25,-1.13 -1.66,-2.05 -0.4,-0.9 -0.53,-1.8 -0.38,-2.69 0.15,-0.9 0.57,-1.7 1.26,-2.42 0.27,-0.27 0.58,-0.53 0.94,-0.78 0.37,-0.24 0.81,-0.48 1.31,-0.71l4.86 -2.16 6.07 13.64 -2.42 1.08 -2.28 -5.11 -2.55 1.14zm41.75 -5.87l-0.88 -14.9 2.63 -0.16 0.4 6.78 0.04 0 5.03 -7.1 3.27 -0.2 -5.56 7.74 6.94 7.13 -3.38 0.2 -6.21 -6.38 -0.04 0 0.4 6.73 -2.63 0.16zm32.84 -6.97c0.08,-0.91 0.05,-1.7 -0.1,-2.4 -0.15,-0.7 -0.4,-1.29 -0.74,-1.78 -0.34,-0.49 -0.75,-0.87 -1.25,-1.14 -0.5,-0.27 -1.06,-0.43 -1.68,-0.49 -0.62,-0.06 -1.21,0 -1.75,0.18 -0.54,0.18 -1.02,0.47 -1.44,0.89 -0.42,0.41 -0.77,0.95 -1.05,1.61 -0.27,0.66 -0.46,1.44 -0.54,2.35 -0.08,0.9 -0.05,1.7 0.1,2.41 0.15,0.7 0.4,1.28 0.73,1.77 0.34,0.48 0.75,0.86 1.25,1.14 0.5,0.27 1.06,0.44 1.68,0.5 0.62,0.06 1.21,-0 1.75,-0.18 0.54,-0.18 1.02,-0.47 1.44,-0.88 0.42,-0.42 0.77,-0.95 1.05,-1.61 0.28,-0.66 0.46,-1.44 0.54,-2.35zm2.72 0.25c-0.1,1.14 -0.35,2.16 -0.75,3.08 -0.4,0.92 -0.94,1.69 -1.59,2.31 -0.66,0.63 -1.44,1.09 -2.35,1.39 -0.9,0.3 -1.91,0.4 -3.02,0.29 -1.11,-0.1 -2.08,-0.39 -2.91,-0.84 -0.84,-0.46 -1.52,-1.06 -2.05,-1.8 -0.54,-0.74 -0.91,-1.59 -1.14,-2.56 -0.22,-0.97 -0.29,-2.03 -0.18,-3.16 0.11,-1.14 0.36,-2.16 0.76,-3.08 0.4,-0.91 0.93,-1.69 1.59,-2.31 0.66,-0.62 1.44,-1.09 2.35,-1.39 0.9,-0.3 1.91,-0.4 3.02,-0.29 1.11,0.11 2.08,0.39 2.91,0.84 0.84,0.46 1.52,1.06 2.05,1.8 0.54,0.74 0.92,1.59 1.14,2.56 0.22,0.97 0.28,2.03 0.17,3.16zm19.61 8.48c0.64,-1.04 1.37,-2.13 2.21,-3.29l4.44 -6.12 3.55 1.06 -4.28 14.3 -2.54 -0.76 2.17 -7.24c0.32,-1.06 0.73,-2.29 1.23,-3.66l-0.09 -0.03c-0.24,0.37 -0.52,0.79 -0.82,1.24 -0.31,0.46 -0.63,0.91 -0.94,1.35l-5.27 7.22 -1.63 -0.49 -0.43 -8.93c-0.03,-0.54 -0.04,-1.09 -0.05,-1.65 -0,-0.55 -0.01,-1.05 0,-1.49l-0.09 -0.03c-0.31,1.35 -0.64,2.58 -0.98,3.73l-2.17 7.25 -2.53 -0.76 4.28 -14.3 3.53 1.06 0.34 7.52c0.06,1.25 0.07,2.58 0.03,3.99l0.07 0.02zm35.17 4.34l-7.56 12.86 -2.28 -1.34 6.38 -10.86 -5.31 -3.12 -6.38 10.86 -2.28 -1.35 7.56 -12.86 9.87 5.8zm11.94 22.71l-4.1 -3.6 -3.55 1.93 -2.11 -1.86 14.14 -7.44 1.81 1.59 -5.55 14.99 -2.1 -1.84 1.46 -3.77zm2.91 -7.48c-1.41,0.83 -2.62,1.51 -3.6,2.03l-1.26 0.69 2.82 2.48 0.53 -1.34c0.4,-1.05 0.91,-2.33 1.55,-3.84l-0.03 -0.03zm14.18 17.72l4.33 5.06 4.67 -3.99 1.72 2.01 -11.34 9.7 -1.72 -2.01 4.93 -4.22 -4.33 -5.06 -4.93 4.22 -1.72 -2.01 11.34 -9.7 1.72 2.01 -4.67 4zm24.36 25.83l1.23 2.48 -13.37 6.62 -1.18 -2.37 6.16 -3.05c0.76,-0.38 2.02,-0.95 3.76,-1.72l-0.02 -0.04c-1,-0.06 -2.58,-0.23 -4.76,-0.53l-8.34 -1.12 -1.23 -2.48 13.38 -6.62 1.17 2.37 -6.16 3.05c-0.98,0.48 -2.23,1.06 -3.76,1.72l0.02 0.04c0.91,0.06 2.47,0.24 4.66,0.53l8.42 1.12zm7.32 25.04l-0.75 -2.31c-0.11,-0.35 -0.23,-0.64 -0.35,-0.88 -0.12,-0.24 -0.25,-0.44 -0.39,-0.61 -0.34,-0.4 -0.73,-0.65 -1.16,-0.75 -0.43,-0.1 -0.87,-0.08 -1.31,0.06 -0.24,0.08 -0.45,0.17 -0.64,0.29 -0.2,0.12 -0.37,0.26 -0.51,0.43 -0.14,0.17 -0.26,0.37 -0.33,0.6 -0.08,0.23 -0.12,0.49 -0.11,0.8 0,0.2 0.03,0.43 0.09,0.7 0.05,0.26 0.14,0.58 0.26,0.94l0.72 2.2 4.5 -1.46zm-7.54 -0.48l-6.33 -1.36 -0.93 -2.86 6.84 1.55 0.04 -0.01c0.05,-1 0.34,-1.82 0.85,-2.47 0.52,-0.64 1.25,-1.12 2.21,-1.43 0.94,-0.31 1.84,-0.34 2.72,-0.09 0.87,0.24 1.63,0.74 2.28,1.51 0.24,0.29 0.47,0.63 0.67,1.02 0.2,0.39 0.4,0.85 0.57,1.38l1.64 5.06 -14.2 4.61 -0.82 -2.51 5.33 -1.73 -0.87 -2.66z"/>
  <line class="fil7 str1" x1="655.37" y1="1103.75" x2="2783.76" y2= "917.54" />
 </g>
</svg>
