<?xml version="1.0" encoding="UTF-8"?>
<!DOCTYPE svg PUBLIC "-//W3C//DTD SVG 1.1//EN" "http://www.w3.org/Graphics/SVG/1.1/DTD/svg11.dtd">
<!-- Creator: CorelDRAW 2020 (64-Bit) -->
<svg xmlns="http://www.w3.org/2000/svg" xml:space="preserve" width="90mm" height="60mm" version="1.1" style="shape-rendering:geometricPrecision; text-rendering:geometricPrecision; image-rendering:optimizeQuality; fill-rule:evenodd; clip-rule:evenodd"
viewBox="0 0 60567.09 40378.06"
 xmlns:xlink="http://www.w3.org/1999/xlink"
 xmlns:xodm="http://www.corel.com/coreldraw/odm/2003">
 <defs>
  <style type="text/css">
   <![CDATA[
    .str1 {stroke:black;stroke-width:51.28;stroke-miterlimit:22.9256;stroke-opacity:0.490196}
    .str4 {stroke:#4D4D4D;stroke-width:134.59;stroke-miterlimit:22.9256;stroke-opacity:0.549020}
    .str3 {stroke:#CCCCCC;stroke-width:57;stroke-miterlimit:22.9256}
    .str0 {stroke:black;stroke-width:134.59;stroke-miterlimit:22.9256}
    .str2 {stroke:#4D4D4D;stroke-width:51.28;stroke-miterlimit:22.9256}
    .fil3 {fill:black}
    .fil6 {fill:black}
    .fil8 {fill:white}
    .fil12 {fill:#2369B5}
    .fil0 {fill:#88C7ED}
    .fil11 {fill:#2E5E8D}
    .fil7 {fill:gray;fill-opacity:0.450980}
    .fil5 {fill:#CCCCCC;fill-opacity:0.490196}
    .fil10 {fill:gray;fill-opacity:0.549020}
    .fil1 {fill:gray;fill-opacity:0.580392}
    .fil9 {fill:url(#id4)}
    .fil2 {fill:url(#id5)}
    .fil4 {fill:url(#id6);fill-opacity:0.729412}
   ]]>
  </style>
   <mask id="id0">
  <linearGradient id="id1" gradientUnits="userSpaceOnUse" x1="17558.55" y1="4461.3" x2="17559.7" y2="6535.68">
   <stop offset="0" style="stop-opacity:1; stop-color:white"/>
   <stop offset="1" style="stop-opacity:0; stop-color:white"/>
  </linearGradient>
    <rect style="fill:url(#id1)" x="10392.5" y="4326.31" width="15131.88" height="4233.17"/>
   </mask>
   <mask id="id2">
  <linearGradient id="id3" gradientUnits="userSpaceOnUse" x1="10652.09" y1="18550.78" x2="11724.25" y2="18550.59">
   <stop offset="0" style="stop-opacity:1; stop-color:white"/>
   <stop offset="1" style="stop-opacity:0; stop-color:white"/>
  </linearGradient>
    <rect style="fill:url(#id3)" x="10549.78" y="5136.76" width="2252.96" height="25478.29"/>
   </mask>
  <linearGradient id="id4" gradientUnits="userSpaceOnUse" x1="33844.15" y1="10483.83" x2="36833.61" y2="9823.51">
   <stop offset="0" style="stop-opacity:1; stop-color:black"/>
   <stop offset="0.360784" style="stop-opacity:1; stop-color:#04141D"/>
   <stop offset="1" style="stop-opacity:1; stop-color:#09293B"/>
  </linearGradient>
  <linearGradient id="id5" gradientUnits="userSpaceOnUse" xlink:href="#id4" x1="10137.38" y1="22708.62" x2="25692.56" y2="15946.91">
  </linearGradient>
  <linearGradient id="id6" gradientUnits="userSpaceOnUse" x1="10311.72" y1="19317.87" x2="25320.37" y2="19317.87">
   <stop offset="0" style="stop-opacity:1; stop-color:#1A1A1A"/>
   <stop offset="0.819608" style="stop-opacity:1; stop-color:#444952"/>
   <stop offset="1" style="stop-opacity:1; stop-color:#6E798A"/>
  </linearGradient>
 </defs>
 <g id="Layer_x0020_1">
  <metadata id="CorelCorpID_0Corel-Layer"/>
  <rect class="fil0" x="-0" y="-0.02" width="60567.09" height="40378.08"/>
  <path class="fil1" d="M12072.03 5048.33l12784.9 0c710.45,0 1289.81,695.78 1289.81,1548.9l0 26883.85c0,853.12 -579.36,1548.9 -1289.81,1548.9l-12784.9 0c-710.45,0 -1289.81,-695.78 -1289.81,-1548.9l0 -26883.85c0,-853.12 579.36,-1548.9 1289.81,-1548.9z"/>
  <path class="fil2" d="M11602.84 4246.02l12624.4 0c701.5,0 1273.66,699.95 1273.66,1558.26l0 27046.97c0,858.24 -572.16,1558.26 -1273.66,1558.26l-12624.4 0c-701.57,0 -1273.66,-700.02 -1273.66,-1558.26l0 -27046.97c0,-858.3 572.09,-1558.26 1273.66,-1558.26z"/>
  <path class="fil3 str0" style="mask:url(#id0)" d="M25437.84 5664.97l19.25 2827.2 -14997.29 -30.82 25.03 -2807.62c56.73,-366.77 296.24,-1075.81 1075,-1260.13l12973.4 5.79c766.17,421.68 821.76,1017.86 904.6,1265.58z"/>
  <polygon class="fil3 str0" style="mask:url(#id2)" points="10617.07,5204.06 12735.44,5204.06 12735.44,30547.75 10617.07,30547.75 "/>
  <path class="fil4" d="M11571.68 4376.51l12488.73 0c693.96,0 1259.93,693.49 1259.93,1543.79l0 26795.15c0,850.29 -565.97,1543.72 -1259.93,1543.72l-12488.73 0c-693.96,0 -1259.93,-693.43 -1259.93,-1543.72l0 -26795.15c0,-850.29 565.97,-1543.79 1259.93,-1543.79zm92.4 168.78l12333.81 0c665.16,0 1207.64,664.76 1207.64,1479.72l0 26592.99c0,815.03 -542.48,1479.72 -1207.64,1479.72l-12333.81 0c-665.16,0 -1207.64,-664.69 -1207.64,-1479.72l0 -26592.99c0,-814.96 542.48,-1479.72 1207.64,-1479.72z"/>
  <path class="fil5 str1" d="M15280.13 5267.52c193.95,0 351.22,157.27 351.22,351.22 0,193.95 -157.27,351.22 -351.22,351.22 -193.95,0 -351.29,-157.27 -351.29,-351.22 0,-193.95 157.34,-351.22 351.29,-351.22z"/>
  <rect class="fil6 str2" x="16841.37" y="5433.59" width="2147.41" height="370.28" rx="653.05" ry="653.05"/>
  <path class="fil7" d="M33345.82 5048.81l12784.9 0c710.45,0 1289.81,695.71 1289.81,1548.84l0 26883.91c0,853.12 -579.36,1548.84 -1289.81,1548.84l-12784.9 0c-710.45,0 -1289.81,-695.71 -1289.81,-1548.84l0 -26883.91c0,-853.12 579.36,-1548.84 1289.81,-1548.84z"/>
  <path class="fil8" d="M32755.22 4150.26l12624.47 0c701.5,0 1273.66,700.02 1273.66,1558.32l0 27046.91c0,858.3 -572.16,1558.26 -1273.66,1558.26l-12624.47 0c-701.5,0 -1273.66,-699.95 -1273.66,-1558.26l0 -27046.91c0,-858.3 572.16,-1558.32 1273.66,-1558.32z"/>
  <rect class="fil9 str3" x="33981.28" y="6605.38" width="2715.19" height="7096.58" rx="1585.97" ry="1585.97"/>
  <path class="fil10 str4" d="M35338.88 7199.34c449.48,0 813.82,364.34 813.82,813.82 0,449.48 -364.34,813.82 -813.82,813.82 -449.48,0 -813.82,-364.34 -813.82,-813.82 0,-449.48 364.34,-813.82 813.82,-813.82z"/>
  <path class="fil10 str4" d="M35338.88 9390.05c449.48,0 813.82,364.34 813.82,813.82 0,449.48 -364.34,813.75 -813.82,813.75 -449.48,0 -813.82,-364.28 -813.82,-813.75 0,-449.48 364.34,-813.82 813.82,-813.82z"/>
  <path class="fil10 str4" d="M35338.88 11550.01c449.48,0 813.82,364.28 813.82,813.75 0,449.48 -364.34,813.82 -813.82,813.82 -449.48,0 -813.82,-364.34 -813.82,-813.82 0,-449.48 364.34,-813.75 813.82,-813.75z"/>
  <path class="fil10 str4" d="M35338.88 12082.8c155.19,0 281.03,125.78 281.03,280.96 0,155.19 -125.84,281.03 -281.03,281.03 -155.19,0 -280.96,-125.84 -280.96,-281.03 0,-155.19 125.78,-280.96 280.96,-280.96z"/>
  <path class="fil11" d="M37385.57 14711.01c258.96,-84.19 519.67,-147.78 780.44,-191.86l0 -781.45 1802.88 0 0 781.18c531.91,89.91 1045.46,258.22 1524,496.52l459.91 -633.06 1458.59 1059.72 -459.37 632.32c370.67,377 690.06,811.87 942.15,1296.81l743.36 -241.53 557.15 1714.72 -743.36 241.53c54.38,362.53 71.13,724.65 52.63,1081.59l-827.28 -341.67c-93.07,-38.43 -213.33,-14.4 -271.34,34.66 -11.98,-1974.96 -1343.51,-3636.99 -3157.43,-4148.85 -197.04,-190.38 -420,-303.91 -661.59,-321.75 -70.93,-5.18 -141.59,-1.95 -211.72,9.15 32.03,-1.01 64.13,-0.47 96.3,1.95 996.13,73.22 1674.41,1778.92 1515.12,3809.8 -46.37,590.26 -158.35,1143.04 -318.38,1628.45l2653.38 -859.25c-41.72,39.77 -57,69.38 -74.56,129.82l-25.24 78.27 -9353.31 2887.91 1.21 74.03 9438.17 -2067.49c73.49,149.53 488.71,186.41 489.79,400.08l1.41 1306.63 -9929.37 508.49 0 29.48 8845.02 -144.49 0 139.17c-3142.56,8.41 -6287.33,24.63 -9428.68,24.63l0 -116.89 1207.84 -391.06c-90.24,-140.11 -174.64,-285.2 -252.56,-435.07l-743.36 241.53 -557.15 -1714.72 743.36 -241.53c-81.09,-540.53 -78.47,-1080.05 -0.2,-1602.94l-743.16 -241.46 557.15 -1714.72 744.37 241.86c247.05,-473.97 563.54,-912.07 941.01,-1297.35l-459.23 -632.12 1458.59 -1059.72 459.44 632.39c236.82,-117.57 485.01,-219.59 744.03,-303.71zm1488.81 842.49c-74.83,3.3 -149.2,8.55 -223.02,15.55 -120.06,-76.31 -248.8,-121.87 -384.4,-131.83 -63.19,-4.58 -126.05,-1.48 -188.36,9.09 26.45,-0.74 52.9,-0.2 79.41,1.75 847.06,62.25 1423.93,1512.76 1288.4,3239.8 -70.73,901.84 -533.73,2926.67 -1693.39,3015.77 -28.53,1.08 -57.07,0.67 -85.74,-1.41 -847.06,-62.25 -1423.93,-1512.76 -1288.46,-3239.8 82.71,-1053.4 411.32,-1966.28 847.27,-2504.11 -1475.28,692.55 -2496.84,2191.52 -2496.84,3929.05 0,973.38 320.6,1871.86 861.94,2595.7l2675.65 -866.38c1601.53,-711.66 1822.4,-2425.51 1951,-3127.68 124.3,359.63 33.92,1640.49 -523.91,2665.56l111.65 -36.21c132.51,-243.48 248.73,-528.41 341.93,-844.64 110.97,-376.53 189.24,-797.67 223.83,-1240.01 24.43,-312.66 25.44,-615.36 5.45,-898.82 -19.92,-283.25 -60.5,-549.48 -118.98,-790.54 -116.09,-478.88 -302.43,-858.64 -536.89,-1085.03 -37.08,-35.87 -126.25,-95.76 -241.33,-166.36 -115.14,-70.59 -257.14,-152.49 -399,-230.9 -128.94,-71.33 -259.03,-140.18 -370.06,-196.44 53.77,-42.06 108.48,-79.54 163.87,-112.12zm-273.9 943.9c330.7,429.02 515.36,1238.06 444.43,2147.98 -102.63,1317.33 -701.84,2347.11 -1338.4,2300 -11.31,-0.87 -22.54,-2.15 -33.72,-3.63 -516.17,-227.4 -845.65,-1214.1 -755.88,-2366.36 100.27,-1287.32 685.82,-2293.54 1307.91,-2247.51 135.8,10.03 262.12,69.45 375.65,169.52zm-646.05 1545.07c144.28,10.57 242.54,257.68 219.52,551.83 -23.08,294.22 -158.82,524.11 -303.1,513.54 -144.28,-10.63 -242.6,-257.75 -219.52,-551.9 23.15,-294.22 158.82,-524.11 303.1,-513.47zm180.15 -59.96c177.6,13.06 298.46,317.1 270.06,679.09 -28.33,361.99 -195.36,644.84 -372.89,631.78 -75.1,-5.52 -153.23,-96.77 -235.67,-147.11 -121.4,-74.23 -196.78,-314.55 -174.97,-592.55 25.77,-328.27 177.19,-584.74 338.17,-572.9 79.95,5.85 120.93,-2.29 175.31,1.68zm-33.58 -1807.66c650.15,47.78 1092.97,1161.14 988.99,2486.82 -104.04,1325.61 -715.5,2361.51 -1365.65,2313.73 -650.22,-47.78 -1093.03,-1161.14 -988.99,-2486.82 104.04,-1325.61 715.43,-2361.51 1365.65,-2313.73zm7090.79 7425.66l0 148.19c-94.82,-29.88 -176.18,-44.89 -244.02,-44.89 -29,0 -57.4,4.51 -85.33,13.46 -62.92,19.99 -94.35,68.91 -94.35,146.77l0 571.89c0,83.85 30.96,125.78 92.8,125.78 134.8,0 245.03,-16.49 330.9,-49.4l0 175.11c-79.88,14 -135.27,23.02 -166.16,26.99 -28,3.97 -56.46,7 -85.4,8.95 -28.94,2.02 -58.82,3.03 -89.84,3.03 -176.65,0 -328.34,-52.9 -455.06,-158.69 -133.79,-113.8 -200.61,-257.01 -200.61,-429.69 0,-171.67 66.83,-313.87 200.61,-426.66 127.73,-106.87 279.42,-160.23 455.06,-160.23l50.94 0c127.73,0 224.57,16.49 290.45,49.4zm-2547.92 -35.94l573.44 0 0 474.64 178.13 0 0 -474.64 570.41 0 0 1146.8 -570.41 0 0 -500.01 -181.16 0 0 500.01 -570.41 0 0 -1146.8zm-848.61 880.38l-89.84 -317.44 -121.27 317.44 211.11 0zm-281.5 175.11l-40.38 91.32 -172.21 0 435.68 -1146.8 282.98 0 462.6 1146.8 -591.34 0 -43.47 -91.32 -333.86 0zm-1369.62 -1058.44l573.44 0c415.22,0 622.83,154.18 622.83,462.6 0,177.66 -63.39,302.9 -190.18,375.79 -97.78,57.88 -242,86.81 -432.65,86.81l0 224.57 -573.44 0 0 -1149.77zm573.44 152.7l0 610.85c53.9,0 96.57,-9.96 128,-29.95 31.43,-19.99 47.18,-46.97 47.18,-80.89l0 -386.22c0,-37.96 -21,-67.36 -62.92,-88.36 -33.92,-16.96 -71.33,-25.44 -112.25,-25.44zm-957.9 997.07l-573.44 0 0 -997.07 -175.17 0 0 -149.74 923.72 0 0 149.74 -175.11 0 0 997.07zm-1532.89 -1160.26c172.68,0 324.37,53.37 455.13,160.23 137.76,113.73 206.67,256 206.67,426.66 0,170.66 -68.37,313.87 -205.19,429.69 -126.72,105.79 -278.95,158.69 -456.61,158.69 -176.65,0 -328.81,-52.9 -456.61,-158.69 -135.74,-113.8 -203.57,-257.01 -203.57,-429.69 0,-170.66 68.37,-312.93 205.05,-426.66 129.75,-106.87 281.5,-160.23 455.13,-160.23zm5.99 163.19c-34.86,0 -57.4,6.46 -67.36,19.45 -16.96,21.94 -25.44,64.4 -25.44,127.26l0 567.45c0,45.9 3.97,77.86 11.98,95.76 11.98,24.97 38.9,37.48 80.82,37.48 32.98,0 53.9,-5.52 62.92,-16.49 14.94,-17.97 22.41,-56.93 22.41,-116.76l0 -561.46c0,-69.85 -7.47,-114.74 -22.41,-134.73 -10.97,-11.98 -31.97,-17.97 -62.92,-17.97zm-1981.96 -152.7l573.44 0c124.77,0 236.55,21.47 335.34,64.34 132.78,56.93 199.13,139.78 199.13,248.53 0,77.86 -35.94,147.25 -107.81,208.08 31.97,25.98 58.41,50.94 79.34,74.9 66.89,75.84 100.34,152.23 100.34,229.08 0,121.74 -75.84,210.57 -227.6,266.5 -106.8,38.9 -233.05,58.35 -378.75,58.35l-573.44 0 0 -1149.77zm573.44 152.7l0 321.88c42.87,0 80.82,-7 113.8,-20.93 40.92,-19.99 61.37,-48.92 61.37,-86.88l0 -100.27c0,-37.96 -21,-67.36 -62.92,-88.36 -33.92,-16.96 -71.33,-25.44 -112.25,-25.44zm0 473.1l0 371.28 31.43 1.48c37.96,2.02 68.84,-2.96 92.87,-14.94 33.92,-15.95 50.88,-39.44 50.88,-70.39l0 -187.09c0,-45.96 -22.01,-75.91 -65.88,-89.84 -20.93,-7 -57.4,-10.5 -109.29,-10.5zm-1402.6 -636.29c172.68,0 324.37,53.37 455.13,160.23 137.76,113.73 206.6,256 206.6,426.66 0,170.66 -68.37,313.87 -205.12,429.69 -126.72,105.79 -278.95,158.69 -456.61,158.69 -176.65,0 -328.88,-52.9 -456.61,-158.69 -135.74,-113.8 -203.64,-257.01 -203.64,-429.69 0,-170.66 68.37,-312.93 205.12,-426.66 129.75,-106.87 281.44,-160.23 455.13,-160.23zm5.99 163.19c-34.93,0 -57.4,6.46 -67.36,19.45 -16.96,21.94 -25.44,64.4 -25.44,127.26l0 567.45c0,45.9 3.97,77.86 11.98,95.76 11.98,24.97 38.9,37.48 80.82,37.48 32.98,0 53.9,-5.52 62.92,-16.49 14.94,-17.97 22.41,-56.93 22.41,-116.76l0 -561.46c0,-69.85 -7.47,-114.74 -22.41,-134.73 -11.04,-11.98 -31.97,-17.97 -62.92,-17.97zm-2142.19 -149.74l573.44 0 0 474.64 178.13 0 0 -474.64 570.41 0 0 1146.8 -570.41 0 0 -500.01 -181.16 0 0 500.01 -570.41 0 0 -1146.8zm10426.15 -3614.17c330.23,136.01 661.19,270.53 991.82,405.66 121.34,49.67 257.34,279.89 254.05,444.56 -3.43,175.71 -6.8,350.55 -10.36,525.05 -4.51,218.71 -478.61,-27.79 -482.65,223.29 -6.73,419.26 -13.39,838.52 -20.05,1257.71 -1.08,68.78 41.12,150.68 91.12,168.65 118.58,42.53 233.32,84.39 344.02,124.23 107.27,38.7 212.32,76.38 314.34,112.72 -1.08,36.21 -1.75,73.22 -2.89,108.68 -778.22,0 -1556.51,0 -2334.79,0 0,-47.98 0,-97.24 0,-146.84 177.87,-41.86 349.2,-83.25 514.21,-121.87 158.95,-37.28 312.73,-74.3 461.12,-109.49 59.36,-14.07 110.7,-97.78 111.58,-170.6 5.32,-447.79 10.97,-895.59 16.42,-1343.31 1.62,-133.92 -158.28,-207 -315.35,-280.56 -154.65,-72.48 -306.33,-145.09 -305.46,-280.02 1.55,-215.08 3.36,-431.91 4.71,-649.41 1.28,-201.82 204.25,-336.01 368.18,-268.45zm-9263 1261.55c2.29,8.01 4.37,16.08 6.33,23.96 1.95,8.01 3.5,15.41 4.71,22.54l199.4 -56.26 25.51 90.38 -509.77 143.81 -40.04 -142.13c-6.73,-23.76 -11.58,-44.89 -14.4,-63.33 -2.89,-18.3 -4.11,-35.13 -3.77,-50.27 1.21,-36.68 10.9,-67.36 29.21,-92.13 18.17,-24.77 45.29,-42.2 81.43,-52.42 24.63,-6.93 48.12,-8.28 70.53,-3.97 22.54,4.17 43.27,13.93 62.25,28.94 19.04,14.87 36.14,34.99 51.15,60.23 15.07,25.17 27.52,55.39 37.48,90.65zm-67.43 68.64c-0.67,-5.38 -1.88,-12.11 -3.7,-20.12 -1.95,-8.14 -4.11,-16.49 -6.53,-25.03 -6.8,-24.23 -14.67,-43.94 -23.28,-59.09 -8.68,-15.34 -17.97,-26.92 -28.06,-34.93 -10.16,-8.01 -20.93,-12.72 -32.44,-14.2 -11.51,-1.48 -23.28,-0.61 -35.53,2.83 -14.94,4.24 -27.05,11.17 -36.07,20.93 -9.09,9.76 -14.33,23.55 -15.81,41.72 -0.61,9.35 0.2,20.53 2.36,33.65 2.09,12.92 5.79,28.53 10.97,46.91l14.27 50.74 153.84 -43.41zm33.45 -863.28l-19.11 -250.75 80.89 -6.12 26.18 344.42 -528.08 40.18 -25.17 -330.63 80.82 -6.12 18.1 236.95 136.68 -10.43 -15.55 -203.51 80.89 -6.19 15.48 203.57 148.86 -11.37zm-68.24 -967.39c-40.78,-14.33 -84.32,-31.56 -130.69,-51.68l-245.84 -107.27 9.96 -131.09 528.08 40.18 -7.13 93.61 -267.57 -20.32c-39.17,-2.96 -84.66,-8.01 -136.28,-14.94l-0.27 3.36c14.74,5.45 31.23,11.84 49.4,19.04 18.24,7.27 36.27,14.81 53.84,22.61l290.39 128.07 -4.58 60.03 -306.4 82.64c-18.57,4.98 -37.48,9.76 -56.66,14.13 -19.04,4.44 -36.27,8.28 -51.68,11.37l-0.27 3.43c48.99,0.67 94.42,2.62 136.61,5.79l267.98 20.39 -7.13 93.68 -528.08 -40.24 9.89 -130.29 258.08 -68.91c43,-11.51 89.1,-22.01 138.16,-31.23l0.2 -2.36zm110.57 -1136.84c-31.09,-8.82 -59.22,-12.79 -84.52,-11.91 -25.37,0.67 -47.65,5.38 -66.83,14.07 -19.11,8.61 -35.06,20.73 -47.78,36.41 -12.65,15.68 -22.01,34.19 -28,55.52 -5.99,21.33 -7.74,41.99 -5.11,61.98 2.62,19.99 9.83,38.7 21.74,56.06 11.78,17.36 28.26,33.04 49.53,46.84 21.13,14 47.24,25.3 78.27,34.05 31.02,8.75 59.22,12.72 84.59,11.91 25.37,-0.74 47.44,-5.45 66.62,-14.13 19.04,-8.61 34.93,-20.79 47.78,-36.41 12.72,-15.68 22.14,-34.12 28.13,-55.45 6.06,-21.4 7.67,-42.06 5.05,-62.05 -2.83,-20.05 -10.03,-38.76 -21.74,-55.99 -11.78,-17.43 -28.2,-33.04 -49.4,-46.91 -21.2,-13.93 -47.38,-25.24 -78.33,-33.98zm26.31 -93.41c38.96,10.97 73.08,26.31 102.43,46.1 29.41,19.79 52.96,43.41 70.46,70.39 17.7,27.12 28.8,57.34 33.38,90.85 4.51,33.45 1.48,69.18 -9.29,107.2 -10.7,38.02 -26.78,70.12 -48.05,96.23 -21.47,26.25 -46.77,46.17 -75.91,60.03 -29.07,13.86 -61.44,21.6 -96.84,23.08 -35.4,1.55 -72.61,-3.1 -111.51,-14.07 -38.9,-10.97 -73.02,-26.45 -102.36,-46.23 -29.41,-19.79 -52.96,-43.27 -70.53,-70.33 -17.63,-27.05 -28.8,-57.34 -33.38,-90.85 -4.51,-33.38 -1.41,-69.11 9.35,-107.14 10.7,-38.02 26.78,-70.12 48.05,-96.23 21.4,-26.18 46.7,-46.17 75.91,-60.1 29.07,-13.86 61.44,-21.6 96.84,-23.15 35.4,-1.55 72.55,3.23 111.44,14.2zm202.77 -551.97l107.2 -210.64 -194.42 -98.99 42.6 -83.65 472.02 240.18 -42.6 83.72 -205.32 -104.51 -107.2 210.64 205.32 104.51 -42.6 83.72 -472.02 -240.25 42.6 -83.65 194.42 98.93zm822.77 -695.71l-57.81 74.03 -353.51 -276.05 -101.62 130.15 -63.93 -49.87 260.84 -334.06 63.93 49.93 -101.42 129.82 353.51 276.05zm256.47 -721.08l179.08 -154.31 -142.47 -165.28 71.13 -61.31 345.84 401.09 -71.2 61.31 -150.34 -174.43 -179.08 154.31 150.48 174.5 -71.13 61.31 -345.84 -401.09 71.13 -61.37 142.4 165.28zm1015.71 -510.51l-167.57 96.91 24.56 141.39 -86.41 50 -89.57 -560.11 74.09 -42.87 440.93 356.81 -85.67 49.6 -110.37 -91.73zm-218.51 -182.85c11.84,56.87 21,105.05 27.46,144.22l8.95 50.27 115.41 -66.76 -38.96 -32.71c-30.96,-25.44 -68.1,-57.27 -111.51,-95.76l-1.35 0.74zm920.55 -462.6l-81.63 28.06c-12.32,4.24 -22.61,8.55 -30.82,12.92 -8.41,4.51 -15.61,9.29 -21.6,14.33 -13.8,12.32 -22.41,26.18 -25.84,41.79 -3.36,15.48 -2.42,31.02 2.83,46.37 2.89,8.28 6.39,15.81 10.57,22.68 4.37,6.93 9.56,12.85 15.68,17.83 6.26,4.91 13.32,8.75 21.6,11.31 8.14,2.62 17.56,3.84 28.2,3.43 7.27,-0.2 15.41,-1.28 24.77,-3.5 9.15,-2.02 20.32,-5.32 33.24,-9.76l77.73 -26.78 -54.71 -158.69zm-12.18 267.57l-44.42 225.44 -101.01 34.79 50.81 -243.68 -0.47 -1.41c-35.47,-1.21 -64.87,-10.83 -87.96,-28.6 -23.15,-17.9 -40.58,-43.61 -52.22,-77.39 -11.37,-32.98 -12.99,-65.14 -5.05,-96.3 8.01,-31.23 25.44,-58.55 52.15,-81.77 10.23,-8.82 22.21,-16.89 35.73,-24.5 13.73,-7.4 29.88,-14.4 48.66,-20.86l178.47 -61.51 172.55 500.76 -88.83 30.62 -64.74 -187.89 -93.68 32.3zm1494.19 -78.54l14.87 -529.42 93.61 2.62 -6.8 240.92 1.48 0.07 199.67 -235.54 116.09 3.3 -220.4 256.27 223.16 273.56 -119.92 -3.3 -200.01 -244.83 -1.41 -0.07 -6.73 239.04 -93.61 -2.62zm1182.27 -144.76c5.79,-31.83 7.07,-60.16 3.9,-85.26 -3.16,-25.24 -9.96,-46.91 -20.46,-65.14 -10.3,-18.24 -23.96,-32.98 -40.78,-44.15 -16.76,-11.1 -36.07,-18.64 -57.94,-22.54 -21.8,-3.97 -42.53,-3.77 -62.18,0.74 -19.65,4.51 -37.55,13.53 -53.7,26.99 -16.22,13.39 -30.22,31.29 -41.99,53.77 -11.84,22.41 -20.59,49.4 -26.38,81.16 -5.72,31.7 -7.07,60.16 -3.84,85.33 3.1,25.17 9.96,46.77 20.39,65.01 10.43,18.04 24.02,32.77 40.78,44.08 16.82,11.17 36.14,18.78 57.94,22.75 21.8,3.97 42.53,3.63 62.25,-0.94 19.65,-4.64 37.55,-13.66 53.64,-26.92 16.22,-13.39 30.22,-31.23 41.99,-53.64 11.84,-22.48 20.66,-49.6 26.38,-81.23zm95.49 17.36c-7.2,39.77 -19.18,75.17 -36.14,106.33 -16.96,31.16 -38.16,56.87 -63.39,76.85 -25.3,20.12 -54.38,34.12 -87.28,41.86 -32.84,7.6 -68.71,8.01 -107.54,0.94 -38.9,-7.07 -72.34,-19.99 -100.34,-38.7 -28.2,-18.91 -50.47,-42.2 -67.03,-69.92 -16.62,-27.59 -27.32,-59.09 -32.24,-94.15 -4.85,-35.13 -3.77,-72.61 3.43,-112.32 7.27,-39.77 19.38,-75.24 36.27,-106.33 16.96,-31.16 38.09,-56.87 63.33,-76.85 25.24,-20.12 54.31,-34.12 87.28,-41.86 32.77,-7.67 68.64,-8.01 107.54,-0.94 38.83,7.07 72.34,19.99 100.34,38.7 28.13,18.84 50.41,42.13 66.96,69.85 16.62,27.59 27.46,59.15 32.37,94.22 4.91,35.13 3.63,72.55 -3.57,112.32zm666.84 360.17c25.84,-34.66 55.25,-71.13 88.23,-109.36l175.64 -202.77 122.21 48.52 -195.7 492.21 -87.22 -34.73 99.13 -249.33c14.47,-36.54 32.84,-78.47 54.85,-125.71l-3.16 -1.21c-9.56,12.45 -20.53,26.31 -32.91,41.45 -12.38,15.28 -24.9,30.22 -37.55,44.69l-208.75 239.11 -55.99 -22.28 12.38 -317.17c0.74,-19.18 1.88,-38.63 3.36,-58.28 1.48,-19.52 2.96,-37.08 4.58,-52.76l-3.16 -1.21c-15.28,46.57 -30.62,89.3 -46.23,128.67l-99.33 249.74 -87.22 -34.73 195.63 -492.14 121.47 48.25 -11.1 266.9c-1.82,44.55 -5.52,91.66 -11.37,141.26l2.22 0.87zm1230.05 262.26l-307.21 431.44 -76.52 -54.51 259.23 -364.01 -177.87 -126.65 -259.23 364.08 -76.52 -54.51 307.21 -431.44 330.9 235.61zm351.69 839.66l-133.79 -139.91 -131.57 57.2 -68.91 -72.14 523.03 -219.25 59.15 61.85 -242.54 512.73 -68.44 -71.6 63.06 -128.87zm126.05 -255.46c-52.49,24.9 -97.11,45.16 -133.65,60.63l-46.7 20.66 92.13 96.3 22.61 -45.56c17.3,-36.07 39.57,-79.68 66.69,-130.89l-1.08 -1.14zm446.58 670.34l137.35 192.33 177.53 -126.85 54.64 76.45 -430.97 307.88 -54.58 -76.38 187.42 -133.92 -137.42 -192.33 -187.42 133.92 -54.58 -76.45 430.9 -307.88 54.58 76.45 -177.46 126.79zm781.11 988.59l35.73 91.52 -493.29 192.74 -34.19 -87.49 227.19 -88.76c28.2,-11.04 74.3,-27.39 138.36,-49.13l-0.61 -1.48c-35.06,-5.11 -90.65,-16.29 -166.42,-33.45l-291.53 -65.21 -35.73 -91.46 493.29 -192.74 34.19 87.42 -227.13 88.76c-36.14,14.13 -82.17,30.42 -138.03,49.06l0.61 1.41c31.97,5.05 86.34,16.02 163.26,33.04l294.29 65.75zm181.16 907.7l-19.45 -84.12c-2.96,-12.72 -6.12,-23.35 -9.62,-32.03 -3.57,-8.82 -7.54,-16.49 -11.98,-22.95 -10.77,-15.07 -23.62,-25.1 -38.83,-30.08 -15.01,-5.05 -30.55,-5.72 -46.37,-2.09 -8.55,2.02 -16.42,4.78 -23.62,8.14 -7.4,3.57 -13.86,8.21 -19.52,13.8 -5.45,5.65 -10.03,12.32 -13.46,20.19 -3.5,7.87 -5.65,17.09 -6.39,27.73 -0.54,7.2 -0.34,15.48 0.87,24.97 1.08,9.35 3.16,20.79 6.26,34.19l18.44 80.08 163.67 -37.82zm-264.88 -40.18l-219.52 -67.84 -24.02 -104.04 237.02 76.05 1.41 -0.34c4.98,-35.13 17.56,-63.33 37.69,-84.46 20.19,-21.13 47.65,-35.73 82.44,-43.74 33.98,-7.87 66.09,-6.19 96.3,5.05 30.22,11.24 55.52,31.36 75.84,60.43 7.67,11.04 14.54,23.82 20.59,38.09 5.92,14.4 11.24,31.23 15.68,50.61l42.46 183.85 -516.1 119.12 -21.13 -91.52 193.61 -44.69 -22.28 -96.57z"/>
  <path class="fil12" d="M16737.98 13528c221.34,-71.94 444.23,-126.32 667.05,-164l0 -667.85 1540.96 0 0 667.65c454.59,76.79 893.5,220.67 1302.53,424.37l393.08 -541.07 1246.74 905.68 -392.68 540.46c316.83,322.28 589.79,693.9 805.27,1108.44l635.35 -206.47 476.19 1465.59 -635.35 206.4c46.5,309.9 60.77,619.4 45.02,924.52l-707.09 -292.07c-79.61,-32.84 -182.37,-12.32 -231.9,29.61 -10.3,-1688 -1148.35,-3108.57 -2698.73,-3546 -168.44,-162.72 -358.96,-259.77 -565.43,-274.97 -60.63,-4.51 -121.07,-1.75 -180.96,7.81 27.39,-0.94 54.78,-0.4 82.3,1.62 851.37,62.59 1431.13,1520.5 1294.92,3256.29 -39.57,504.52 -135.33,976.95 -272.08,1391.83l2267.83 -734.41c-35.6,33.98 -48.66,59.29 -63.73,110.91l-21.53 66.96 -7994.32 2468.31 1.08 63.19 8066.8 -1767.08c62.79,127.86 417.71,159.36 418.65,342l1.21 1116.79 -8486.66 434.6 0 25.17 7559.85 -123.49 0 118.98c-2685.95,7.2 -5373.85,21.06 -8058.72,21.06l0 -99.94 1032.33 -334.26c-77.12,-119.72 -149.26,-243.75 -215.89,-371.81l-635.35 206.4 -476.19 -1465.52 635.35 -206.47c-69.32,-461.99 -67.03,-923.11 -0.2,-1370.09l-635.15 -206.33 476.19 -1465.59 636.22 206.74c211.18,-405.13 481.64,-779.57 804.26,-1108.85l-392.54 -540.33 1246.74 -905.68 392.68 540.46c202.36,-100.47 414.55,-187.62 635.89,-259.56zm1272.51 720.08c-64,2.83 -127.53,7.27 -190.58,13.32 -102.63,-65.28 -212.66,-104.18 -328.61,-112.65 -53.97,-3.97 -107.74,-1.28 -160.97,7.74 22.54,-0.67 45.22,-0.2 67.9,1.48 723.98,53.23 1216.99,1292.97 1101.18,2769.06 -60.43,770.82 -456.2,2501.42 -1447.35,2577.53 -24.36,0.94 -48.79,0.61 -73.29,-1.14 -723.98,-53.23 -1216.99,-1292.97 -1101.24,-2769.13 70.66,-900.3 351.56,-1680.53 724.11,-2140.24 -1260.87,591.94 -2134.05,1873.07 -2134.05,3358.18 0,831.99 274.1,1599.91 736.7,2218.57l2286.95 -740.53c1368.75,-608.23 1557.58,-2073.01 1667.48,-2673.23 106.26,307.41 29,1402.13 -447.79,2278.26l95.43 -30.89c113.26,-208.15 212.66,-451.7 292.27,-721.96 94.82,-321.81 161.78,-681.78 191.32,-1059.79 20.86,-267.3 21.74,-525.99 4.71,-768.26 -17.03,-242.07 -51.82,-469.66 -101.75,-675.66 -99.26,-409.3 -258.49,-733.94 -458.9,-927.42 -31.7,-30.62 -107.88,-81.83 -206.26,-142.2 -98.39,-60.37 -219.72,-130.35 -340.99,-197.31 -110.23,-60.97 -221.41,-119.79 -316.36,-167.91 46.03,-35.94 92.73,-67.97 140.11,-95.83zm-234.13 806.75c282.65,366.7 440.46,1058.17 379.89,1835.92 -87.75,1125.94 -599.88,2006.05 -1143.98,1965.74 -9.62,-0.67 -19.25,-1.75 -28.8,-3.03 -441.2,-194.35 -722.77,-1037.72 -646.05,-2022.54 85.74,-1100.3 586.22,-1960.35 1117.87,-1920.99 116.09,8.61 224.1,59.36 321.07,144.89zm-552.17 1320.56c123.35,9.02 207.34,220.26 187.62,471.68 -19.72,251.49 -135.74,447.99 -259.03,438.91 -123.35,-9.09 -207.34,-220.26 -187.62,-471.75 19.72,-251.42 135.67,-447.93 259.03,-438.84zm153.97 -51.21c151.82,11.17 255.12,271 230.83,580.37 -24.23,309.43 -166.96,551.16 -318.72,540.06 -64.13,-4.78 -130.96,-82.78 -201.42,-125.78 -103.77,-63.46 -168.17,-268.85 -149.53,-506.48 22.01,-280.56 151.42,-499.75 289.04,-489.65 68.31,5.05 103.3,-1.95 149.8,1.48zm-28.67 -1545c555.67,40.85 934.15,992.43 845.25,2125.43 -88.9,1133.01 -611.53,2018.43 -1167.2,1977.58 -555.74,-40.85 -934.21,-992.43 -845.31,-2125.5 88.9,-1133.01 611.53,-2018.36 1167.26,-1977.52zm6060.48 6346.69l0 126.72c-81.03,-25.57 -150.54,-38.43 -208.55,-38.43 -24.77,0 -49.06,3.84 -72.95,11.51 -53.77,17.09 -80.62,58.88 -80.62,125.44l0 488.78c0,71.67 26.45,107.54 79.34,107.54 115.14,0 209.43,-14.13 282.78,-42.26l0 149.74c-68.24,11.91 -115.55,19.58 -142,23.02 -23.89,3.43 -48.25,5.99 -72.95,7.67 -24.77,1.68 -50.34,2.56 -76.79,2.56 -151.01,0 -280.63,-45.22 -388.98,-135.6 -114.34,-97.24 -171.47,-219.66 -171.47,-367.31 0,-146.71 57.13,-268.24 171.47,-364.68 109.16,-91.25 238.84,-136.88 388.98,-136.88l43.47 0c109.22,0 191.93,14.07 248.26,42.2zm-2177.72 -30.69l490.12 0 0 405.66 152.29 0 0 -405.66 487.5 0 0 980.18 -487.5 0 0 -427.4 -154.85 0 0 427.4 -487.57 0 0 -980.18zm-725.32 752.45l-76.72 -271.27 -103.7 271.27 180.42 0zm-240.52 149.67l-34.59 78.06 -147.11 0 372.35 -980.18 241.8 0 395.44 980.18 -505.47 0 -37.08 -78.06 -285.34 0zm-1170.63 -904.67l490.06 0c354.92,0 532.32,131.83 532.32,395.37 0,151.89 -54.17,258.96 -162.52,321.21 -83.58,49.46 -206.8,74.23 -369.8,74.23l0 191.93 -490.06 0 0 -982.73zm490.06 130.49l0 522.09c46.1,0 82.57,-8.48 109.42,-25.57 26.85,-17.09 40.31,-40.11 40.31,-69.11l0 -330.16c0,-32.37 -17.9,-57.54 -53.77,-75.44 -29,-14.54 -60.97,-21.8 -95.97,-21.8zm-818.73 852.25l-490.12 0 0 -852.25 -149.67 0 0 -127.93 789.53 0 0 127.93 -149.74 0 0 852.25zm-1310.13 -991.69c147.65,0 277.26,45.63 389.04,136.88 117.7,97.24 176.59,218.85 176.59,364.68 0,145.9 -58.48,268.31 -175.31,367.31 -108.35,90.38 -238.43,135.6 -390.32,135.6 -150.95,0 -281.03,-45.22 -390.25,-135.6 -116.02,-97.24 -174.03,-219.66 -174.03,-367.31 0,-145.83 58.41,-267.44 175.31,-364.68 110.91,-91.25 240.59,-136.88 388.98,-136.88zm5.11 139.44c-29.81,0 -49.06,5.59 -57.54,16.69 -14.54,18.78 -21.74,54.98 -21.74,108.75l0 484.94c0,39.23 3.36,66.56 10.23,81.9 10.23,21.33 33.24,32.03 69.05,32.03 28.2,0 46.1,-4.71 53.77,-14.13 12.79,-15.34 19.18,-48.59 19.18,-99.8l0 -479.83c0,-59.69 -6.39,-98.12 -19.18,-115.14 -9.35,-10.3 -27.32,-15.41 -53.77,-15.41zm-1693.93 -130.49l490.06 0c106.67,0 202.16,18.37 286.62,55.05 113.46,48.59 170.19,119.38 170.19,212.39 0,66.56 -30.69,125.84 -92.13,177.87 27.32,22.21 49.93,43.54 67.84,64 57.13,64.81 85.74,130.08 85.74,195.77 0,104.04 -64.81,180.02 -194.49,227.8 -91.32,33.24 -199.2,49.87 -323.76,49.87l-490.06 0 0 -982.73zm490.06 130.49l0 275.18c36.68,0 69.11,-5.99 97.24,-17.97 34.99,-17.03 52.49,-41.79 52.49,-74.16l0 -85.8c0,-32.37 -17.97,-57.54 -53.77,-75.44 -29,-14.54 -60.97,-21.8 -95.97,-21.8zm0 404.39l0 317.37 26.85 1.21c32.44,1.75 58.88,-2.56 79.34,-12.79 29,-13.59 43.54,-33.65 43.54,-60.1l0 -159.96c0,-39.23 -18.78,-64.81 -56.33,-76.79 -17.9,-5.92 -49.06,-8.95 -93.41,-8.95zm-1198.76 -543.83c147.58,0 277.2,45.63 388.98,136.88 117.7,97.24 176.59,218.85 176.59,364.68 0,145.9 -58.41,268.31 -175.31,367.31 -108.35,90.38 -238.43,135.6 -390.25,135.6 -151.01,0 -281.1,-45.22 -390.32,-135.6 -116.02,-97.24 -174.03,-219.66 -174.03,-367.31 0,-145.83 58.48,-267.44 175.31,-364.68 110.91,-91.25 240.59,-136.88 389.04,-136.88zm5.11 139.44c-29.88,0 -49.06,5.59 -57.61,16.69 -14.47,18.78 -21.74,54.98 -21.74,108.75l0 484.94c0,39.23 3.36,66.56 10.23,81.9 10.23,21.33 33.24,32.03 69.11,32.03 28.13,0 46.03,-4.71 53.7,-14.13 12.79,-15.34 19.18,-48.59 19.18,-99.8l0 -479.83c0,-59.69 -6.39,-98.12 -19.18,-115.14 -9.35,-10.3 -27.32,-15.41 -53.7,-15.41zm-1830.94 -127.93l490.06 0 0 405.66 152.29 0 0 -405.66 487.57 0 0 980.18 -487.57 0 0 -427.4 -154.85 0 0 427.4 -487.5 0 0 -980.18zm8911.24 -3089.06c282.24,116.29 565.16,231.23 847.74,346.71 103.7,42.4 219.93,239.24 217.17,379.96 -2.96,150.21 -5.85,299.67 -8.95,448.8 -3.84,186.88 -409.03,-23.82 -412.46,190.85 -5.72,358.29 -11.51,716.64 -17.16,1074.93 -0.94,58.75 35.13,128.81 77.86,144.15 101.35,36.34 199.47,72.14 294.02,106.19 91.73,33.04 181.5,65.28 268.72,96.3 -0.94,30.96 -1.55,62.59 -2.49,92.94 -665.16,0 -1330.39,0 -1995.55,0 0,-41.05 0,-83.11 0,-125.58 152.02,-35.73 298.46,-71.07 439.45,-104.11 135.87,-31.83 267.37,-63.46 394.16,-93.61 50.74,-12.05 94.62,-83.58 95.36,-145.76 4.58,-382.72 9.42,-765.43 14.07,-1148.15 1.41,-114.47 -135.27,-176.92 -269.59,-239.85 -132.1,-61.91 -261.78,-123.96 -261.04,-239.31 1.35,-183.79 2.89,-369.12 4.04,-555 1.08,-172.55 174.57,-287.22 314.68,-229.48zm-7917.13 1078.23c1.95,6.86 3.77,13.8 5.45,20.46 1.62,6.86 2.96,13.26 3.97,19.31l170.46 -48.12 21.8 77.26 -435.68 122.88 -34.25 -121.47c-5.72,-20.26 -9.89,-38.29 -12.32,-54.11 -2.42,-15.61 -3.5,-30.01 -3.23,-42.94 1.01,-31.36 9.35,-57.61 25.03,-78.74 15.48,-21.2 38.63,-36.07 69.58,-44.82 21,-5.92 41.12,-7.07 60.23,-3.43 19.25,3.63 36.95,11.91 53.23,24.77 16.29,12.72 30.89,29.95 43.68,51.48 12.92,21.47 23.55,47.31 32.03,77.46zm-57.61 58.68c-0.61,-4.58 -1.62,-10.3 -3.16,-17.16 -1.62,-7 -3.5,-14.13 -5.59,-21.4 -5.85,-20.73 -12.52,-37.62 -19.92,-50.54 -7.4,-13.12 -15.34,-23.02 -23.96,-29.88 -8.68,-6.8 -17.9,-10.83 -27.73,-12.11 -9.83,-1.28 -19.92,-0.47 -30.35,2.42 -12.79,3.63 -23.15,9.56 -30.89,17.9 -7.74,8.34 -12.25,20.12 -13.46,35.67 -0.54,8.01 0.13,17.56 1.95,28.74 1.82,11.04 4.98,24.43 9.42,40.11l12.18 43.34 131.5 -37.08zm28.6 -737.84l-16.35 -214.27 69.11 -5.32 22.41 294.42 -451.36 34.32 -21.53 -282.58 69.11 -5.25 15.41 202.56 116.83 -8.95 -13.26 -173.96 69.18 -5.25 13.19 173.96 127.26 -9.69zm-58.35 -826.81c-34.86,-12.32 -72.07,-26.99 -111.65,-44.21l-210.17 -91.66 8.48 -112.05 451.36 34.32 -6.06 80.02 -228.67 -17.36c-33.51,-2.56 -72.41,-6.86 -116.56,-12.79l-0.2 2.89c12.58,4.64 26.72,10.09 42.2,16.29 15.68,6.19 31.02,12.65 46.03,19.25l248.26 109.49 -3.9 51.35 -261.92 70.66c-15.88,4.24 -32.03,8.28 -48.45,12.05 -16.29,3.77 -31.02,7.07 -44.21,9.76l-0.2 2.89c41.93,0.61 80.69,2.22 116.76,4.91l229.01 17.43 -6.06 80.08 -451.36 -34.39 8.48 -111.38 220.53 -58.88c36.81,-9.83 76.18,-18.84 118.17,-26.72l0.13 -1.95zm94.48 -971.7c-26.58,-7.54 -50.61,-10.9 -72.28,-10.23 -21.6,0.67 -40.65,4.64 -57.07,12.05 -16.35,7.34 -29.95,17.77 -40.85,31.16 -10.83,13.39 -18.78,29.21 -23.89,47.44 -5.18,18.24 -6.66,35.87 -4.37,52.96 2.22,17.09 8.41,33.11 18.57,47.92 10.03,14.87 24.16,28.2 42.33,40.04 18.1,11.98 40.38,21.6 66.89,29.07 26.51,7.47 50.61,10.9 72.34,10.23 21.6,-0.61 40.51,-4.71 56.93,-12.11 16.22,-7.34 29.81,-17.77 40.78,-31.09 10.9,-13.39 18.91,-29.21 24.09,-47.44 5.11,-18.24 6.53,-35.94 4.24,-53.03 -2.36,-17.09 -8.55,-33.11 -18.51,-47.85 -10.09,-14.87 -24.09,-28.2 -42.26,-40.04 -18.1,-11.91 -40.45,-21.6 -66.96,-29.07zm22.54 -79.81c33.24,9.35 62.38,22.48 87.55,39.37 25.1,16.96 45.22,37.08 60.16,60.16 15.14,23.15 24.63,49.06 28.53,77.66 3.84,28.6 1.28,59.09 -7.94,91.66 -9.15,32.5 -22.88,59.89 -41.05,82.24 -18.37,22.41 -39.97,39.44 -64.87,51.28 -24.83,11.91 -52.56,18.44 -82.78,19.72 -30.28,1.35 -62.05,-2.62 -95.29,-11.98 -33.24,-9.42 -62.38,-22.61 -87.55,-39.57 -25.1,-16.89 -45.22,-36.95 -60.23,-60.03 -15.07,-23.15 -24.63,-48.99 -28.53,-77.66 -3.84,-28.6 -1.21,-59.09 8.01,-91.59 9.15,-32.5 22.88,-59.96 41.05,-82.24 18.3,-22.41 39.97,-39.5 64.87,-51.35 24.83,-11.84 52.56,-18.51 82.78,-19.85 30.28,-1.35 62.05,2.76 95.29,12.18zm173.29 -471.82l91.59 -180.02 -166.16 -84.59 36.41 -71.54 403.44 205.32 -36.41 71.54 -175.44 -89.3 -91.66 180.09 175.44 89.24 -36.34 71.54 -403.44 -205.26 36.41 -71.54 166.16 84.52zm703.18 -594.63l-49.4 63.33 -302.1 -235.94 -86.88 111.24 -54.64 -42.67 222.89 -285.54 54.71 42.67 -86.68 111.04 302.1 235.88zm219.25 -616.3l153.03 -131.9 -121.81 -141.19 60.84 -52.42 295.57 342.81 -60.84 52.42 -128.54 -149.13 -153.03 131.9 128.6 149.13 -60.77 52.42 -295.63 -342.81 60.84 -52.42 121.74 141.19zm868.13 -436.35l-143.21 82.91 20.93 120.8 -73.82 42.73 -76.52 -478.75 63.26 -36.61 376.86 304.99 -73.22 42.33 -94.28 -78.4zm-186.75 -156.2c10.03,48.59 17.9,89.71 23.42,123.22l7.67 42.94 98.66 -57 -33.38 -28c-26.45,-21.74 -58.21,-48.99 -95.22,-81.83l-1.14 0.67zm786.77 -395.44l-69.79 24.02c-10.5,3.63 -19.31,7.27 -26.38,11.04 -7.13,3.84 -13.26,7.87 -18.37,12.25 -11.84,10.5 -19.18,22.34 -22.14,35.73 -2.89,13.19 -2.09,26.45 2.42,39.57 2.49,7.13 5.45,13.53 9.02,19.38 3.7,5.92 8.14,10.97 13.39,15.28 5.38,4.17 11.44,7.47 18.44,9.69 7,2.22 15.07,3.23 24.16,2.89 6.19,-0.13 13.12,-1.08 21.13,-2.96 7.87,-1.75 17.43,-4.58 28.47,-8.34l66.42 -22.88 -46.77 -135.67zm-10.43 228.67l-37.96 192.74 -86.34 29.75 43.41 -208.28 -0.4 -1.21c-30.28,-1.08 -55.39,-9.29 -75.17,-24.43 -19.79,-15.34 -34.66,-37.35 -44.55,-66.22 -9.76,-28.13 -11.17,-55.65 -4.37,-82.3 6.86,-26.65 21.74,-50 44.55,-69.85 8.75,-7.54 18.98,-14.47 30.55,-20.93 11.71,-6.33 25.57,-12.32 41.66,-17.83l152.49 -52.56 147.45 428.01 -75.91 26.11 -55.32 -160.57 -80.08 27.59zm1277.09 -67.09l12.72 -452.5 80.02 2.22 -5.79 205.93 1.21 0.07 170.73 -201.28 99.2 2.76 -188.43 219.05 190.79 233.86 -102.56 -2.89 -170.87 -209.23 -1.28 -0.07 -5.72 204.31 -80.02 -2.22zm1010.53 -123.69c4.91,-27.19 6.06,-51.41 3.3,-72.95 -2.69,-21.53 -8.48,-40.04 -17.5,-55.65 -8.82,-15.61 -20.46,-28.13 -34.79,-37.69 -14.4,-9.56 -30.89,-15.95 -49.53,-19.31 -18.71,-3.36 -36.41,-3.23 -53.16,0.67 -16.82,3.84 -32.17,11.51 -45.9,23.02 -13.86,11.44 -25.84,26.78 -35.87,45.96 -10.16,19.18 -17.63,42.26 -22.61,69.38 -4.91,27.05 -5.99,51.41 -3.23,72.95 2.62,21.53 8.48,39.91 17.43,55.52 8.88,15.48 20.53,28.06 34.86,37.69 14.33,9.56 30.82,16.08 49.46,19.45 18.71,3.43 36.41,3.1 53.23,-0.81 16.76,-3.97 32.1,-11.64 45.83,-23.02 13.86,-11.44 25.84,-26.65 35.87,-45.83 10.16,-19.18 17.7,-42.4 22.61,-69.38zm81.56 14.81c-6.12,33.98 -16.42,64.27 -30.89,90.92 -14.47,26.58 -32.57,48.52 -54.17,65.68 -21.6,17.16 -46.43,29.14 -74.56,35.73 -28.06,6.53 -58.75,6.86 -91.99,0.81 -33.18,-6.06 -61.78,-17.09 -85.74,-33.11 -24.02,-16.08 -43.07,-36 -57.27,-59.69 -14.13,-23.62 -23.35,-50.54 -27.52,-80.49 -4.17,-30.01 -3.23,-62.05 2.96,-96.03 6.12,-33.98 16.56,-64.27 31.02,-90.85 14.47,-26.65 32.5,-48.59 54.04,-65.68 21.6,-17.23 46.43,-29.14 74.63,-35.8 28,-6.53 58.68,-6.8 91.93,-0.81 33.18,6.06 61.78,17.09 85.8,33.11 23.96,16.08 43.07,36 57.2,59.69 14.2,23.62 23.49,50.54 27.66,80.55 4.17,29.95 3.1,61.98 -3.1,95.97zm570 307.82c22.07,-29.61 47.18,-60.77 75.37,-93.48l150.14 -173.29 104.44 41.52 -167.23 420.6 -74.56 -29.61 84.73 -213.13c12.38,-31.23 28.06,-67.03 46.84,-107.41l-2.62 -1.08c-8.21,10.63 -17.63,22.48 -28.2,35.47 -10.57,13.06 -21.27,25.84 -32.03,38.16l-178.47 204.38 -47.85 -19.04 10.57 -271.07c0.67,-16.42 1.68,-33.04 2.89,-49.8 1.28,-16.69 2.49,-31.7 3.9,-45.09l-2.69 -1.08c-13.06,39.84 -26.18,76.38 -39.57,109.96l-84.86 213.47 -74.56 -29.68 167.23 -420.67 103.84 41.32 -9.49 228.14c-1.55,38.02 -4.71,78.27 -9.69,120.66l1.88 0.74zm1051.31 224.17l-262.59 368.79 -65.41 -46.57 221.61 -311.18 -152.09 -108.21 -221.54 311.11 -65.35 -46.57 262.52 -368.72 282.85 201.35zm300.61 717.65l-114.34 -119.52 -112.45 48.86 -58.95 -61.64 447.05 -187.42 50.54 52.9 -207.27 438.17 -58.48 -61.17 53.9 -110.16zm107.67 -218.31c-44.82,21.27 -82.98,38.56 -114.2,51.82l-39.91 17.63 78.74 82.37 19.31 -38.96c14.81,-30.82 33.78,-68.1 57,-111.91l-0.94 -0.94zm381.71 572.96l117.43 164.34 151.75 -108.35 46.64 65.28 -368.32 263.13 -46.64 -65.28 160.17 -114.47 -117.43 -164.34 -160.17 114.4 -46.7 -65.28 368.32 -263.2 46.64 65.35 -151.69 108.42zm667.65 844.91l30.55 78.2 -421.61 164.74 -29.21 -74.77 194.15 -75.84c24.09,-9.42 63.53,-23.42 118.24,-41.99l-0.47 -1.28c-30.01,-4.31 -77.53,-13.86 -142.27,-28.53l-249.2 -55.79 -30.49 -78.2 421.61 -164.68 29.21 74.7 -194.15 75.84c-30.89,12.11 -70.19,26.04 -117.97,41.93l0.47 1.28c27.39,4.24 73.82,13.66 139.57,28.2l251.56 56.19zm154.78 775.86l-16.62 -71.94c-2.49,-10.83 -5.18,-19.99 -8.14,-27.39 -3.1,-7.54 -6.46,-14.07 -10.23,-19.58 -9.29,-12.85 -20.26,-21.47 -33.24,-25.77 -12.85,-4.24 -26.11,-4.85 -39.64,-1.75 -7.34,1.75 -14,4.11 -20.19,7 -6.33,3.03 -11.84,7 -16.62,11.78 -4.71,4.85 -8.61,10.5 -11.58,17.23 -2.96,6.73 -4.78,14.6 -5.45,23.69 -0.47,6.19 -0.27,13.26 0.81,21.33 0.87,8.08 2.69,17.83 5.32,29.21l15.75 68.44 139.84 -32.24zm-226.32 -34.39l-187.69 -57.94 -20.53 -88.97 202.56 65.01 1.28 -0.27c4.24,-30.01 15.01,-54.17 32.17,-72.21 17.3,-18.04 40.71,-30.55 70.46,-37.42 29.07,-6.73 56.53,-5.25 82.37,4.31 25.77,9.62 47.44,26.85 64.74,51.68 6.6,9.49 12.45,20.39 17.63,32.57 5.11,12.32 9.62,26.72 13.39,43.2l36.27 157.21 -441.06 101.75 -18.04 -78.13 165.48 -38.22 -19.04 -82.57z"/>
 </g>
</svg>
