<?xml version="1.0" encoding="UTF-8"?>
<!DOCTYPE svg PUBLIC "-//W3C//DTD SVG 1.1//EN" "http://www.w3.org/Graphics/SVG/1.1/DTD/svg11.dtd">
<!-- Creator: CorelDRAW 2020 (64-Bit) -->
<svg xmlns="http://www.w3.org/2000/svg" xml:space="preserve" width="80mm" height="80mm" version="1.1" style="shape-rendering:geometricPrecision; text-rendering:geometricPrecision; image-rendering:optimizeQuality; fill-rule:evenodd; clip-rule:evenodd"
viewBox="0 0 1583.08 1583.08"
 xmlns:xlink="http://www.w3.org/1999/xlink"
 xmlns:xodm="http://www.corel.com/coreldraw/odm/2003">
 <defs>
  <style type="text/css">
   <![CDATA[
    .fil0 {fill:none}
    .fil1 {fill:#CCCCCC}
   ]]>
  </style>
 </defs>
 <g id="Layer_x0020_1">
  <metadata id="CorelCorpID_0Corel-Layer"/>
  <rect class="fil0" x="0" y="0" width="1583.08" height="1583.08"/>
  <path class="fil1" d="M581.23 226.19c32.38,-10.52 64.99,-18.48 97.59,-23.99l0 -97.72 225.45 0 0 97.69c66.51,11.24 130.73,32.28 190.57,62.08l57.52 -79.16 182.39 132.51 -57.44 79.07c46.35,47.15 86.28,101.52 117.81,162.16l92.96 -30.21 69.67 214.42 -92.96 30.2c6.8,45.34 8.89,90.62 6.59,135.26l-103.45 -42.73c-11.64,-4.81 -26.68,-1.8 -33.93,4.33 -1.5,-246.96 -168,-454.8 -394.83,-518.8 -24.64,-23.81 -52.51,-38.01 -82.73,-40.23 -8.87,-0.65 -17.7,-0.25 -26.47,1.14 4,-0.13 8.02,-0.06 12.04,0.24 124.56,9.16 209.39,222.45 189.46,476.41 -5.79,73.81 -19.8,142.93 -39.81,203.63l331.8 -107.44c-5.22,4.97 -7.12,8.67 -9.33,16.23l-3.15 9.79 -1169.6 361.12 0.15 9.25 1180.22 -258.53c9.19,18.7 61.11,23.31 61.25,50.04l0.18 163.39 -1241.64 63.59 0 3.68 1106.04 -18.07 0 17.41c-392.97,1.05 -786.21,3.08 -1179.03,3.08l0 -14.62 151.04 -48.91c-11.29,-17.51 -21.84,-35.66 -31.58,-54.4l-92.96 30.21 -69.67 -214.42 92.96 -30.2c-10.14,-67.6 -9.81,-135.06 -0.03,-200.45l-92.93 -30.19 69.67 -214.42 93.08 30.25c30.89,-59.27 70.46,-114.05 117.67,-162.23l-57.43 -79.05 182.39 -132.51 57.46 79.08c29.61,-14.7 60.65,-27.46 93.04,-37.98zm186.17 105.35c-9.36,0.41 -18.65,1.06 -27.88,1.95 -15.01,-9.55 -31.11,-15.24 -48.07,-16.48 -7.9,-0.58 -15.76,-0.19 -23.56,1.13 3.31,-0.1 6.62,-0.02 9.93,0.22 105.93,7.79 178.06,189.16 161.11,405.13 -8.85,112.77 -66.74,365.97 -211.76,377.11 -3.56,0.14 -7.14,0.09 -10.72,-0.17 -105.93,-7.79 -178.06,-189.17 -161.12,-405.13 10.34,-131.72 51.43,-245.87 105.94,-313.13 -184.48,86.6 -312.23,274.04 -312.23,491.32 0,121.72 40.1,234.07 107.78,324.59l334.59 -108.34c200.26,-88.99 227.88,-303.29 243.97,-391.1 15.54,44.97 4.24,205.14 -65.52,333.32l13.96 -4.52c16.56,-30.45 31.11,-66.08 42.76,-105.63 13.88,-47.08 23.67,-99.74 27.99,-155.05 3.06,-39.1 3.18,-76.95 0.69,-112.4 -2.49,-35.42 -7.57,-68.71 -14.88,-98.85 -14.52,-59.88 -37.82,-107.37 -67.14,-135.68 -4.64,-4.48 -15.79,-11.97 -30.18,-20.8 -14.39,-8.83 -32.15,-19.07 -49.89,-28.87 -16.12,-8.92 -32.39,-17.52 -46.28,-24.56 6.73,-5.26 13.57,-9.95 20.49,-14.02zm-34.25 118.03c41.36,53.64 64.45,154.81 55.58,268.6 -12.83,164.73 -87.76,293.5 -167.37,287.6 -1.41,-0.1 -2.82,-0.26 -4.21,-0.45 -64.55,-28.43 -105.75,-151.82 -94.52,-295.91 12.54,-160.98 85.76,-286.81 163.55,-281.05 16.99,1.26 32.78,8.69 46.97,21.2zm-80.78 193.2c18.04,1.32 30.33,32.23 27.45,69.01 -2.89,36.79 -19.86,65.54 -37.9,64.21 -18.05,-1.33 -30.33,-32.23 -27.45,-69.02 2.89,-36.79 19.86,-65.54 37.9,-64.21zm22.53 -7.49c22.21,1.63 37.32,39.65 33.77,84.92 -3.55,45.26 -24.43,80.64 -46.63,79 -9.39,-0.69 -19.16,-12.1 -29.47,-18.4 -15.18,-9.28 -24.6,-39.33 -21.87,-74.1 3.22,-41.05 22.15,-73.12 42.28,-71.64 10,0.74 15.12,-0.28 21.92,0.21zm-4.2 -226.04c81.3,5.98 136.67,145.2 123.67,310.97 -13.01,165.77 -89.47,295.3 -170.77,289.33 -81.31,-5.97 -136.68,-145.2 -123.67,-310.97 13.01,-165.77 89.46,-295.3 170.77,-289.33zm886.68 928.56l0 18.53c-11.86,-3.74 -22.03,-5.62 -30.51,-5.62 -3.62,0 -7.18,0.56 -10.67,1.69 -7.86,2.5 -11.79,8.61 -11.79,18.35l0 71.52c0,10.49 3.87,15.73 11.61,15.73 16.85,0 30.64,-2.06 41.37,-6.18l0 21.9c-9.99,1.75 -16.91,2.87 -20.78,3.37 -3.49,0.5 -7.05,0.87 -10.67,1.12 -3.62,0.25 -7.36,0.37 -11.23,0.37 -22.09,0 -41.06,-6.61 -56.91,-19.84 -16.73,-14.23 -25.09,-32.14 -25.09,-53.73 0,-21.47 8.36,-39.25 25.09,-53.35 15.98,-13.36 34.95,-20.03 56.91,-20.03l6.37 0c15.97,0 28.08,2.06 36.32,6.18zm-318.61 -4.49l71.7 0 0 59.35 22.28 0 0 -59.35 71.33 0 0 143.4 -71.33 0 0 -62.53 -22.65 0 0 62.53 -71.33 0 0 -143.4zm-106.12 110.08l-11.23 -39.69 -15.17 39.69 26.4 0zm-35.2 21.9l-5.06 11.42 -21.53 0 54.48 -143.4 35.38 0 57.85 143.4 -73.95 0 -5.43 -11.42 -41.75 0zm-171.27 -132.36l71.7 0c51.92,0 77.88,19.28 77.88,57.85 0,22.22 -7.93,37.88 -23.78,46.99 -12.23,7.24 -30.26,10.86 -54.1,10.86l0 28.08 -71.7 0 0 -143.78zm71.7 19.09l0 76.38c6.74,0 12.07,-1.24 16,-3.74 3.93,-2.5 5.9,-5.87 5.9,-10.11l0 -48.3c0,-4.75 -2.62,-8.42 -7.86,-11.05 -4.24,-2.12 -8.92,-3.18 -14.04,-3.18zm-119.79 124.68l-71.71 0 0 -124.68 -21.9 0 0 -18.72 115.51 0 0 18.72 -21.9 0 0 124.68zm-191.68 -145.09c21.59,0 40.56,6.68 56.91,20.03 17.22,14.23 25.84,32.01 25.84,53.35 0,21.34 -8.55,39.25 -25.65,53.73 -15.85,13.23 -34.88,19.84 -57.1,19.84 -22.09,0 -41.12,-6.61 -57.1,-19.84 -16.97,-14.23 -25.46,-32.14 -25.46,-53.73 0,-21.34 8.55,-39.13 25.65,-53.35 16.23,-13.36 35.2,-20.03 56.91,-20.03zm0.75 20.41c-4.37,0 -7.18,0.81 -8.42,2.43 -2.12,2.74 -3.18,8.05 -3.18,15.91l0 70.96c0,5.74 0.5,9.73 1.5,11.98 1.5,3.12 4.87,4.68 10.11,4.68 4.12,0 6.74,-0.69 7.86,-2.06 1.87,-2.25 2.81,-7.12 2.81,-14.6l0 -70.21c0,-8.73 -0.94,-14.35 -2.81,-16.85 -1.37,-1.5 -4,-2.25 -7.86,-2.25zm-247.84 -19.09l71.7 0c15.6,0 29.58,2.68 41.93,8.05 16.6,7.12 24.9,17.48 24.9,31.08 0,9.73 -4.49,18.41 -13.48,26.02 4,3.25 7.3,6.37 9.92,9.36 8.36,9.49 12.54,19.04 12.54,28.64 0,15.23 -9.48,26.34 -28.46,33.33 -13.36,4.87 -29.14,7.3 -47.36,7.3l-71.7 0 0 -143.78zm71.7 19.09l0 40.25c5.36,0 10.11,-0.87 14.23,-2.62 5.12,-2.5 7.67,-6.12 7.67,-10.86l0 -12.55c0,-4.75 -2.62,-8.42 -7.86,-11.05 -4.24,-2.12 -8.92,-3.18 -14.04,-3.18zm0 59.16l0 46.43 3.93 0.18c4.74,0.25 8.61,-0.37 11.61,-1.87 4.24,-2 6.36,-4.93 6.36,-8.8l0 -23.4c0,-5.74 -2.74,-9.49 -8.24,-11.23 -2.62,-0.87 -7.18,-1.31 -13.66,-1.31zm-175.39 -79.56c21.6,0 40.56,6.68 56.91,20.03 17.22,14.23 25.84,32.01 25.84,53.35 0,21.34 -8.55,39.25 -25.65,53.73 -15.85,13.23 -34.89,19.84 -57.1,19.84 -22.09,0 -41.12,-6.61 -57.1,-19.84 -16.97,-14.23 -25.46,-32.14 -25.46,-53.73 0,-21.34 8.55,-39.13 25.65,-53.35 16.23,-13.36 35.2,-20.03 56.91,-20.03zm0.75 20.41c-4.37,0 -7.18,0.81 -8.42,2.43 -2.12,2.74 -3.18,8.05 -3.18,15.91l0 70.96c0,5.74 0.5,9.73 1.5,11.98 1.5,3.12 4.87,4.68 10.11,4.68 4.12,0 6.74,-0.69 7.86,-2.06 1.87,-2.25 2.81,-7.12 2.81,-14.6l0 -70.21c0,-8.73 -0.94,-14.35 -2.81,-16.85 -1.37,-1.5 -4,-2.25 -7.86,-2.25zm-267.87 -18.72l71.7 0 0 59.35 22.28 0 0 -59.35 71.33 0 0 143.4 -71.33 0 0 -62.53 -22.65 0 0 62.53 -71.33 0 0 -143.4zm1303.76 -451.95c41.3,17.01 82.68,33.83 124.03,50.74 15.17,6.2 32.18,34.99 31.77,55.59 -0.43,21.97 -0.85,43.84 -1.3,65.65 -0.56,27.35 -59.84,-3.48 -60.35,27.92 -0.84,52.43 -1.68,104.85 -2.51,157.27 -0.14,8.6 5.14,18.84 11.39,21.08 14.83,5.32 29.18,10.56 43.02,15.54 13.42,4.83 26.56,9.55 39.31,14.09 -0.14,4.53 -0.22,9.15 -0.36,13.59 -97.32,0 -194.64,0 -291.96,0 0,-6 0,-12.15 0,-18.36 22.24,-5.23 43.67,-10.4 64.3,-15.24 19.88,-4.66 39.11,-9.29 57.66,-13.69 7.42,-1.77 13.84,-12.23 13.95,-21.34 0.67,-55.99 1.38,-111.99 2.06,-167.98 0.21,-16.75 -19.79,-25.88 -39.43,-35.09 -19.33,-9.06 -38.31,-18.14 -38.19,-35.01 0.19,-26.89 0.42,-54 0.59,-81.2 0.16,-25.24 25.54,-42.02 46.04,-33.58zm-1158.31 157.76c0.28,1 0.55,2.01 0.79,2.99 0.24,1 0.44,1.93 0.58,2.82l24.94 -7.03 3.19 11.3 -63.74 17.98 -5.01 -17.77c-0.84,-2.97 -1.44,-5.61 -1.79,-7.92 -0.36,-2.29 -0.52,-4.4 -0.47,-6.29 0.15,-4.59 1.36,-8.42 3.65,-11.52 2.27,-3.1 5.66,-5.27 10.18,-6.55 3.08,-0.87 6.01,-1.04 8.82,-0.5 2.82,0.53 5.41,1.74 7.78,3.62 2.38,1.87 4.52,4.38 6.39,7.54 1.89,3.14 3.44,6.93 4.69,11.34zm-8.44 8.58c-0.08,-0.67 -0.23,-1.51 -0.46,-2.51 -0.24,-1.02 -0.51,-2.06 -0.81,-3.13 -0.85,-3.03 -1.83,-5.5 -2.91,-7.39 -1.08,-1.92 -2.24,-3.37 -3.51,-4.37 -1.27,-1 -2.61,-1.59 -4.05,-1.78 -1.44,-0.18 -2.92,-0.07 -4.45,0.36 -1.87,0.53 -3.38,1.39 -4.51,2.61 -1.13,1.22 -1.79,2.94 -1.97,5.22 -0.07,1.17 0.03,2.57 0.29,4.21 0.26,1.62 0.73,3.57 1.37,5.87l1.79 6.34 19.23 -5.43zm4.19 -107.94l-2.39 -31.36 10.11 -0.77 3.28 43.07 -66.04 5.02 -3.15 -41.34 10.11 -0.77 2.26 29.63 17.09 -1.3 -1.94 -25.45 10.12 -0.77 1.94 25.45 18.61 -1.42zm-8.53 -120.97c-5.1,-1.8 -10.55,-3.95 -16.34,-6.46l-30.75 -13.41 1.25 -16.4 66.04 5.03 -0.89 11.71 -33.46 -2.54c-4.9,-0.37 -10.59,-1 -17.05,-1.87l-0.03 0.42c1.84,0.68 3.9,1.48 6.18,2.38 2.29,0.91 4.53,1.85 6.73,2.82l36.31 16.01 -0.57 7.51 -38.32 10.33c-2.32,0.63 -4.69,1.22 -7.08,1.77 -2.38,0.56 -4.54,1.03 -6.47,1.42l-0.03 0.42c6.13,0.09 11.81,0.33 17.08,0.73l33.51 2.55 -0.89 11.71 -66.04 -5.03 1.24 -16.29 32.27 -8.62c5.38,-1.43 11.14,-2.75 17.28,-3.9l0.02 -0.29zm13.82 -142.16c-3.89,-1.1 -7.4,-1.59 -10.57,-1.49 -3.17,0.09 -5.95,0.68 -8.35,1.76 -2.39,1.07 -4.39,2.59 -5.98,4.55 -1.59,1.96 -2.75,4.27 -3.5,6.94 -0.75,2.67 -0.97,5.25 -0.64,7.75 0.33,2.5 1.23,4.84 2.72,7.01 1.48,2.17 3.54,4.13 6.2,5.86 2.65,1.75 5.91,3.16 9.79,4.25 3.87,1.09 7.4,1.59 10.58,1.49 3.17,-0.09 5.93,-0.68 8.33,-1.77 2.37,-1.08 4.37,-2.6 5.97,-4.55 1.59,-1.96 2.77,-4.27 3.52,-6.94 0.75,-2.67 0.96,-5.26 0.63,-7.76 -0.35,-2.5 -1.25,-4.85 -2.71,-7 -1.48,-2.18 -3.53,-4.13 -6.18,-5.86 -2.66,-1.75 -5.92,-3.16 -9.8,-4.25zm3.29 -11.68c4.87,1.37 9.13,3.29 12.81,5.76 3.68,2.48 6.62,5.43 8.81,8.8 2.21,3.39 3.6,7.17 4.17,11.36 0.56,4.18 0.18,8.65 -1.16,13.4 -1.34,4.76 -3.35,8.77 -6.01,12.03 -2.68,3.28 -5.85,5.77 -9.49,7.51 -3.63,1.74 -7.68,2.7 -12.11,2.89 -4.43,0.19 -9.08,-0.39 -13.94,-1.76 -4.86,-1.37 -9.13,-3.3 -12.81,-5.78 -3.67,-2.47 -6.62,-5.41 -8.81,-8.79 -2.21,-3.39 -3.6,-7.17 -4.17,-11.36 -0.56,-4.18 -0.18,-8.65 1.16,-13.4 1.34,-4.76 3.35,-8.77 6.01,-12.03 2.68,-3.28 5.85,-5.78 9.49,-7.51 3.64,-1.73 7.68,-2.71 12.11,-2.9 4.43,-0.19 9.07,0.41 13.94,1.78zm25.36 -69.02l13.4 -26.34 -24.31 -12.37 5.33 -10.47 59.02 30.04 -5.33 10.47 -25.67 -13.06 -13.4 26.34 25.67 13.06 -5.33 10.47 -59.03 -30.04 5.33 -10.47 24.31 12.37zm102.88 -86.99l-7.23 9.26 -44.2 -34.52 -12.71 16.28 -7.99 -6.24 32.62 -41.77 7.99 6.25 -12.68 16.24 44.2 34.52zm32.08 -90.17l22.39 -19.3 -17.82 -20.66 8.89 -7.67 43.25 50.16 -8.9 7.67 -18.81 -21.82 -22.39 19.3 18.81 21.81 -8.89 7.67 -43.25 -50.16 8.9 -7.67 17.81 20.67zm127.01 -63.84l-20.95 12.12 3.07 17.68 -10.8 6.25 -11.2 -70.04 9.26 -5.35 55.14 44.61 -10.72 6.2 -13.8 -11.47zm-27.32 -22.86c1.48,7.11 2.62,13.13 3.43,18.03l1.12 6.28 14.43 -8.34 -4.88 -4.09c-3.87,-3.17 -8.52,-7.16 -13.94,-11.97l-0.17 0.1zm115.11 -57.85l-10.21 3.51c-1.54,0.53 -2.83,1.07 -3.86,1.62 -1.05,0.56 -1.95,1.16 -2.7,1.79 -1.73,1.54 -2.8,3.27 -3.24,5.23 -0.42,1.93 -0.3,3.88 0.36,5.79 0.36,1.04 0.8,1.98 1.32,2.84 0.54,0.87 1.19,1.61 1.96,2.24 0.78,0.61 1.67,1.09 2.7,1.41 1.02,0.33 2.2,0.48 3.53,0.43 0.9,-0.02 1.92,-0.16 3.09,-0.44 1.15,-0.26 2.55,-0.67 4.16,-1.22l9.72 -3.35 -6.84 -19.85zm-1.53 33.46l-5.55 28.19 -12.63 4.35 6.36 -30.47 -0.06 -0.18c-4.44,-0.16 -8.11,-1.36 -11,-3.58 -2.9,-2.24 -5.07,-5.46 -6.52,-9.68 -1.42,-4.12 -1.63,-8.14 -0.63,-12.04 1,-3.91 3.18,-7.32 6.52,-10.22 1.28,-1.1 2.77,-2.12 4.47,-3.06 1.71,-0.93 3.74,-1.8 6.09,-2.62l22.31 -7.69 21.57 62.62 -11.1 3.82 -8.09 -23.49 -11.72 4.04zm186.85 -9.82l1.86 -66.2 11.71 0.33 -0.85 30.13 0.18 0 24.97 -29.45 14.51 0.41 -27.56 32.05 27.91 34.21 -15 -0.42 -25.01 -30.61 -0.18 -0.01 -0.84 29.89 -11.71 -0.32zm147.84 -18.1c0.72,-3.98 0.88,-7.52 0.48,-10.67 -0.39,-3.15 -1.24,-5.86 -2.55,-8.14 -1.29,-2.28 -3,-4.12 -5.1,-5.52 -2.1,-1.39 -4.52,-2.33 -7.25,-2.82 -2.73,-0.5 -5.32,-0.47 -7.78,0.09 -2.45,0.57 -4.7,1.69 -6.71,3.37 -2.03,1.68 -3.78,3.92 -5.25,6.72 -1.48,2.8 -2.58,6.18 -3.3,10.16 -0.72,3.96 -0.88,7.52 -0.48,10.67 0.39,3.14 1.24,5.84 2.55,8.12 1.3,2.26 3,4.1 5.1,5.51 2.1,1.4 4.52,2.35 7.24,2.84 2.73,0.5 5.32,0.45 7.78,-0.11 2.46,-0.58 4.7,-1.71 6.71,-3.37 2.03,-1.68 3.78,-3.9 5.24,-6.71 1.49,-2.81 2.59,-6.2 3.31,-10.15zm11.94 2.16c-0.9,4.97 -2.4,9.41 -4.52,13.3 -2.12,3.89 -4.77,7.1 -7.93,9.61 -3.16,2.52 -6.8,4.26 -10.91,5.23 -4.1,0.95 -8.59,1 -13.45,0.11 -4.86,-0.88 -9.04,-2.5 -12.55,-4.84 -3.52,-2.36 -6.31,-5.27 -8.38,-8.74 -2.08,-3.45 -3.42,-7.39 -4.03,-11.78 -0.61,-4.39 -0.48,-9.07 0.43,-14.04 0.9,-4.97 2.42,-9.41 4.54,-13.3 2.12,-3.89 4.76,-7.11 7.91,-9.61 3.16,-2.52 6.79,-4.26 10.92,-5.23 4.1,-0.95 8.59,-1 13.45,-0.11 4.86,0.88 9.04,2.5 12.55,4.84 3.51,2.36 6.3,5.27 8.37,8.73 2.08,3.45 3.43,7.4 4.04,11.78 0.61,4.39 0.46,9.07 -0.45,14.04zm83.39 45.04c3.23,-4.34 6.91,-8.9 11.03,-13.68l21.96 -25.36 15.28 6.07 -24.47 61.54 -10.91 -4.34 12.39 -31.18c1.82,-4.57 4.11,-9.81 6.86,-15.71l-0.39 -0.16c-1.2,1.56 -2.57,3.29 -4.12,5.18 -1.55,1.91 -3.11,3.78 -4.69,5.59l-26.1 29.9 -7.01 -2.79 1.55 -39.66c0.09,-2.4 0.24,-4.83 0.42,-7.29 0.19,-2.44 0.37,-4.64 0.57,-6.6l-0.4 -0.16c-1.91,5.83 -3.83,11.17 -5.78,16.09l-12.42 31.22 -10.91 -4.34 24.47 -61.55 15.19 6.04 -1.39 33.37c-0.23,5.57 -0.69,11.46 -1.42,17.66l0.28 0.11zm153.81 32.8l-38.42 53.95 -9.57 -6.82 32.41 -45.52 -22.24 -15.84 -32.41 45.52 -9.57 -6.82 38.42 -53.95 41.37 29.46zm43.98 105l-16.73 -17.5 -16.45 7.15 -8.62 -9.02 65.41 -27.42 7.39 7.74 -30.33 64.11 -8.55 -8.95 7.89 -16.12zm15.76 -31.95c-6.56,3.12 -12.14,5.65 -16.71,7.59l-5.84 2.58 11.52 12.05 2.83 -5.7c2.17,-4.51 4.95,-9.96 8.34,-16.37l-0.14 -0.14zm55.85 83.83l17.18 24.05 22.2 -15.86 6.83 9.55 -53.89 38.5 -6.82 -9.55 23.44 -16.75 -17.18 -24.05 -23.44 16.75 -6.83 -9.55 53.89 -38.5 6.83 9.56 -22.19 15.86zm97.68 123.62l4.47 11.44 -61.69 24.1 -4.27 -10.94 28.4 -11.09c3.53,-1.38 9.29,-3.43 17.3,-6.15l-0.07 -0.19c-4.39,-0.63 -11.34,-2.03 -20.81,-4.18l-36.45 -8.16 -4.47 -11.44 61.69 -24.1 4.27 10.93 -28.4 11.1c-4.52,1.77 -10.27,3.81 -17.26,6.13l0.07 0.18c4,0.63 10.8,2 20.41,4.13l36.81 8.22zm22.65 113.51l-2.43 -10.52c-0.37,-1.59 -0.76,-2.92 -1.2,-4.01 -0.45,-1.1 -0.95,-2.06 -1.5,-2.87 -1.35,-1.88 -2.96,-3.14 -4.86,-3.77 -1.88,-0.63 -3.82,-0.71 -5.8,-0.26 -1.07,0.25 -2.05,0.59 -2.96,1.02 -0.92,0.45 -1.73,1.02 -2.43,1.72 -0.69,0.71 -1.26,1.54 -1.69,2.53 -0.44,0.99 -0.71,2.14 -0.8,3.46 -0.07,0.9 -0.04,1.94 0.11,3.12 0.13,1.18 0.39,2.61 0.78,4.28l2.31 10.01 20.46 -4.72zm-33.12 -5.03l-27.46 -8.48 -3 -13.01 29.64 9.51 0.18 -0.04c0.62,-4.39 2.2,-7.92 4.71,-10.56 2.53,-2.64 5.96,-4.47 10.31,-5.48 4.25,-0.98 8.27,-0.77 12.05,0.63 3.77,1.41 6.94,3.92 9.48,7.56 0.96,1.39 1.82,2.98 2.57,4.76 0.75,1.8 1.41,3.91 1.97,6.33l5.31 23 -64.53 14.89 -2.64 -11.44 24.21 -5.59 -2.79 -12.08z"/>
 </g>
</svg>
