<?xml version="1.0" encoding="UTF-8"?>
<!DOCTYPE svg PUBLIC "-//W3C//DTD SVG 1.1//EN" "http://www.w3.org/Graphics/SVG/1.1/DTD/svg11.dtd">
<!-- Creator: CorelDRAW 2020 (64-Bit) -->
<svg xmlns="http://www.w3.org/2000/svg" xml:space="preserve" width="90mm" height="120mm" version="1.1" style="shape-rendering:geometricPrecision; text-rendering:geometricPrecision; image-rendering:optimizeQuality; fill-rule:evenodd; clip-rule:evenodd"
viewBox="0 0 4188.78 5585.04"
 xmlns:xlink="http://www.w3.org/1999/xlink"
 xmlns:xodm="http://www.corel.com/coreldraw/odm/2003">
 <defs>
  <style type="text/css">
   <![CDATA[
    .str0 {stroke:black;stroke-width:9.31;stroke-miterlimit:22.9256;stroke-opacity:0.219608}
    .str1 {stroke:#E6E6E6;stroke-width:15.76;stroke-miterlimit:22.9256;stroke-opacity:0.839216}
    .fil5 {fill:none}
    .fil2 {fill:#1CBBEE}
    .fil3 {fill:white}
    .fil8 {fill:white}
    .fil0 {fill:#DCDFE0}
    .fil12 {fill:#1CBBEE;fill-rule:nonzero}
    .fil13 {fill:#1CBBEE;fill-rule:nonzero}
    .fil11 {fill:white;fill-rule:nonzero}
    .fil10 {fill:#435262;fill-rule:nonzero}
    .fil4 {fill:gray;fill-opacity:0.450980}
    .fil1 {fill:gray;fill-opacity:0.470588}
    .fil7 {fill:#CCCCCC;fill-opacity:0.839216}
    .fil6 {fill:url(#id0)}
    .fil9 {fill:url(#id1)}
   ]]>
  </style>
  <linearGradient id="id0" gradientUnits="userSpaceOnUse" x1="1239.05" y1="630.77" x2="1074.27" y2="17.32">
   <stop offset="0" style="stop-opacity:1; stop-color:#263644"/>
   <stop offset="0.580392" style="stop-opacity:1; stop-color:#344453"/>
   <stop offset="1" style="stop-opacity:1; stop-color:#435262"/>
  </linearGradient>
  <linearGradient id="id1" gradientUnits="userSpaceOnUse" x1="1430.37" y1="647.72" x2="1430.37" y2="0">
   <stop offset="0" style="stop-opacity:1; stop-color:#435262"/>
   <stop offset="0.701961" style="stop-opacity:1; stop-color:#6E7B87"/>
   <stop offset="1" style="stop-opacity:1; stop-color:#9AA4AD"/>
  </linearGradient>
 </defs>
 <g id="Layer_x0020_1">
  <metadata id="CorelCorpID_0Corel-Layer"/>
  <rect class="fil0" x="-0" y="-0" width="4188.78" height="5585.05"/>
  <path class="fil1" d="M3169.04 532.95c189.15,0 342.49,153.34 342.49,342.49 0,189.15 -153.34,342.49 -342.49,342.49 -189.15,0 -342.49,-153.34 -342.49,-342.49 0,-189.15 153.34,-342.49 342.49,-342.49z"/>
  <circle class="fil2" cx="3145.77" cy="852.17" r="342.49"/>
  <path class="fil1" d="M563.07 2158.93c-134.8,112.46 -225.14,788.98 -220.26,992.76 1.35,56.22 702.8,114.53 720.32,61.11 8.1,-24.71 27.96,-89.99 44.69,-161.85 153.44,477.83 280.05,1128.07 337.56,1342.71 26.43,98.65 114.72,801.56 135.8,881 40.78,153.71 2278.88,-448.55 2237.7,-599.59 -21.62,-79.29 -296.45,-732.21 -322.89,-830.86 -57.45,-214.41 -272.51,-839.71 -378.67,-1330.01 49.98,53.29 99.15,99.26 118.36,116.46 41.87,37.5 620.2,-363.73 593.25,-413.09 -97.39,-178.43 -511.9,-716.71 -685.72,-749.38 -46.93,-47.51 -359.45,-22.76 -692.13,-68.5 -61.69,-8.48 -5.5,173.14 -138.67,363.86 -182.94,262.02 -560.73,365.45 -854.64,245.57 -232.23,-94.73 -278.77,-294.07 -329.75,-254.92 -265.4,203.84 -546.32,339.81 -564.97,404.72z"/>
  <path class="fil3" d="M488.15 2134.97c-134.8,112.47 -225.15,788.98 -220.26,992.76 1.35,56.22 702.8,114.54 720.31,61.12 8.1,-24.71 27.96,-89.99 44.69,-161.85 153.44,477.83 280.05,1128.07 337.57,1342.71 26.43,98.65 114.72,801.56 135.8,881 40.78,153.7 2278.88,-448.56 2237.7,-599.59 -21.63,-79.29 -296.46,-732.22 -322.89,-830.87 -57.45,-214.41 -272.51,-839.71 -378.67,-1330 49.98,53.29 99.15,99.26 118.36,116.46 41.87,37.5 620.2,-363.72 593.25,-413.08 -97.39,-178.43 -511.9,-716.71 -685.71,-749.38 -46.93,-47.51 -359.45,-22.76 -692.13,-68.5 -61.69,-8.48 -5.49,173.13 -138.66,363.86 -182.94,262.02 -560.73,365.44 -854.64,245.57 -232.23,-94.73 -278.77,-294.07 -329.75,-254.91 -265.4,203.84 -546.32,339.81 -564.97,404.71z"/>
  <path class="fil0" d="M1383.21 4433.68c22.42,129.92 59.14,400.78 87.44,596.63l237.66 -768.09 -325.11 171.46zm369.38 828.94c103.2,-13.73 232.29,-37.66 375.05,-68.52l426.34 -1377.88 -422.86 223.02 -378.54 1223.39zm756.91 -159.09c129.05,-33 260.19,-68.77 386.45,-105.4l446.01 -1441.47c-13.07,-42.06 -27.05,-86.96 -41.64,-134.06l-323.51 170.61 -467.32 1510.32z"/>
  <polygon class="fil4" points="733.41,585.22 1891.74,585.22 1891.74,1503.22 733.41,1503.22 "/>
  <path class="fil5 str0" d="M1190.95 627.4l200.88 0c15.81,0 28.76,12.94 28.76,28.76l0 4.84c0,15.81 -12.94,28.76 -28.76,28.76l-200.88 0c-15.81,0 -28.76,-12.95 -28.76,-28.76l0 -4.84c0,-15.82 12.95,-28.76 28.76,-28.76z"/>
  <polygon class="fil6" points="944.06,0.19 1095.78,0.19 1369.26,647.91 1217.53,647.91 "/>
  <path class="fil7 str1" d="M725.59 574.64l1132.05 0 0 898.63 -1132.05 0 0 -898.63zm465.68 40.44l200.69 0c21.84,0 39.7,17.86 39.7,39.7l0 6.67c0,21.84 -17.86,39.7 -39.7,39.7l-200.69 0c-21.84,0 -39.7,-17.86 -39.7,-39.7l0 -6.67c0,-21.83 17.86,-39.7 39.7,-39.7z"/>
  <rect class="fil8" x="775.19" y="750.06" width="1032.85" height="665.23"/>
  <polygon class="fil9" points="1642.97,0 1491.25,0 1217.77,647.72 1369.49,647.72 "/>
  <path class="fil10" d="M3376.04 621.91l-460.54 0 0 0 0 0 0 460.54 65.79 0 0 0 394.75 0 0 -65.79 -394.75 0 0 -328.96 328.95 0 65.79 -65.79zm0 263.16l-263.16 0 -65.79 65.79 328.95 0 0 -65.79zm0 -131.58l-131.58 0 -65.79 65.79 197.38 0 0 -65.79z"/>
  <path class="fil11" d="M2967.86 1067.51l-13.08 0 -13.48 -26.01 -0.23 0c0.32,4.09 0.47,7.21 0.47,9.36l0 16.64 -8.83 0 0 -36.92 13.03 0 13.43 25.66 0.15 0c-0.24,-3.72 -0.35,-6.71 -0.35,-8.96l0 -16.69 8.88 0 0 36.92z"/>
  <path id="1" class="fil11" d="M3191.73 1054.07l0 13.45 -9.97 0 0 -36.92 12.1 0c10.03,0 15.05,3.64 15.05,10.9 0,4.27 -2.09,7.58 -6.26,9.92l10.76 16.1 -11.31 0 -7.83 -13.45 -2.53 0zm0 -7.5l1.87 0c3.49,0 5.24,-1.54 5.24,-4.62 0,-2.54 -1.71,-3.81 -5.13,-3.81l-1.97 0 0 8.42z"/>
  <path id="2" class="fil11" d="M3253.08 1067.51l-1.81 -6.93 -12 0 -1.86 6.93 -10.96 0 12.04 -37.08 13.31 0 12.19 37.08 -10.91 0zm-3.89 -15.1l-1.59 -6.07c-0.37,-1.35 -0.82,-3.09 -1.35,-5.22 -0.53,-2.15 -0.88,-3.67 -1.04,-4.6 -0.15,0.87 -0.46,2.28 -0.89,4.25 -0.45,1.96 -1.44,5.85 -2.97,11.64l7.85 0z"/>
  <path id="3" class="fil11" d="M3314.75 1067.51l-13.08 0 -13.48 -26.01 -0.23 0c0.32,4.09 0.47,7.21 0.47,9.36l0 16.64 -8.83 0 0 -36.92 13.03 0 13.43 25.66 0.15 0c-0.24,-3.72 -0.35,-6.71 -0.35,-8.96l0 -16.69 8.88 0 0 36.92z"/>
  <path id="4" class="fil11" d="M3357.45 1056.31c0,2.29 -0.58,4.32 -1.74,6.1 -1.16,1.77 -2.83,3.16 -5.03,4.14 -2.19,0.99 -4.76,1.48 -7.69,1.48 -2.46,0 -4.52,-0.17 -6.19,-0.52 -1.66,-0.34 -3.39,-0.95 -5.19,-1.81l0 -8.89c1.89,0.97 3.88,1.73 5.93,2.29 2.05,0.54 3.94,0.82 5.65,0.82 1.48,0 2.57,-0.26 3.26,-0.77 0.69,-0.51 1.04,-1.17 1.04,-1.97 0,-0.51 -0.14,-0.95 -0.42,-1.33 -0.27,-0.38 -0.73,-0.76 -1.34,-1.14 -0.61,-0.39 -2.25,-1.18 -4.91,-2.38 -2.4,-1.1 -4.2,-2.15 -5.41,-3.18 -1.2,-1.02 -2.09,-2.21 -2.67,-3.53 -0.58,-1.33 -0.87,-2.9 -0.87,-4.72 0,-3.39 1.23,-6.05 3.7,-7.95 2.47,-1.9 5.88,-2.85 10.2,-2.85 3.82,0 7.71,0.88 11.69,2.65l-3.05 7.69c-3.45,-1.58 -6.43,-2.37 -8.94,-2.37 -1.29,0 -2.24,0.23 -2.83,0.69 -0.6,0.46 -0.89,1.03 -0.89,1.7 0,0.73 0.38,1.38 1.13,1.95 0.75,0.57 2.77,1.61 6.09,3.13 3.18,1.43 5.38,2.97 6.63,4.61 1.23,1.65 1.85,3.71 1.85,6.2z"/>
  <path id="5" class="fil11" d="M3020.46 1049.01c0,6.22 -1.52,10.94 -4.57,14.17 -3.04,3.23 -7.5,4.85 -13.38,4.85 -5.79,0 -10.23,-1.63 -13.32,-4.88 -3.09,-3.25 -4.63,-7.98 -4.63,-14.19 0,-6.14 1.53,-10.84 4.61,-14.08 3.07,-3.24 7.54,-4.86 13.39,-4.86 5.88,0 10.32,1.62 13.36,4.83 3.03,3.22 4.54,7.94 4.54,14.16zm-25.4 -0c0,7.13 2.48,10.7 7.45,10.7 2.52,0 4.4,-0.87 5.62,-2.6 1.22,-1.73 1.83,-4.43 1.83,-8.1 0,-3.69 -0.62,-6.41 -1.86,-8.17 -1.23,-1.75 -3.09,-2.63 -5.54,-2.63 -5,0 -7.5,3.6 -7.5,10.81z"/>
  <path id="6" class="fil11" d="M3059.48 1030.59l11.16 0 -12.1 36.92 -11.74 0 -12.05 -36.92 11.21 0 5.03 18.71c1.04,4.17 1.62,7.06 1.72,8.69 0.11,-1.17 0.35,-2.65 0.71,-4.41 0.35,-1.78 0.66,-3.16 0.93,-4.17l5.12 -18.82z"/>
  <path id="7" class="fil11" d="M3120.78 1049.01c0,6.22 -1.52,10.94 -4.57,14.17 -3.04,3.23 -7.5,4.85 -13.38,4.85 -5.79,0 -10.23,-1.63 -13.32,-4.88 -3.09,-3.25 -4.63,-7.98 -4.63,-14.19 0,-6.14 1.53,-10.84 4.61,-14.08 3.07,-3.24 7.54,-4.86 13.39,-4.86 5.88,0 10.32,1.62 13.36,4.83 3.03,3.22 4.54,7.94 4.54,14.16zm-25.4 -0c0,7.13 2.48,10.7 7.45,10.7 2.52,0 4.4,-0.87 5.62,-2.6 1.22,-1.73 1.83,-4.43 1.83,-8.1 0,-3.69 -0.62,-6.41 -1.86,-8.17 -1.23,-1.75 -3.09,-2.63 -5.54,-2.63 -5,0 -7.5,3.6 -7.5,10.81z"/>
  <polygon id="8" class="fil11" points="3155.35,1067.51 3145.38,1067.51 3145.38,1038.76 3136.36,1038.76 3136.36,1030.59 3164.35,1030.59 3164.35,1038.76 3155.35,1038.76 "/>
  <g id="_1423888657664">
   <path class="fil12" d="M1802.89 3984.77l-84.13 271.89 0 0 0 0 271.89 84.13 12.02 -38.84 0 0 72.11 -233.05 -38.84 -12.02 -72.11 233.05 -194.21 -60.1 60.1 -194.21 -26.82 -50.86zm155.37 48.07l-48.07 155.37 26.82 50.86 60.09 -194.21 -38.84 -12.02zm-77.68 -24.03l-24.04 77.68 26.82 50.86 36.06 -116.52 -38.84 -12.02z"/>
   <path class="fil10" d="M2128.12 3773.78l-22.23 71.08 -164.24 28.99 -0.35 1.23c22.75,5.23 39.97,9.65 51.68,13.32l90.39 28.33 -15.03 47.99 -200.54 -62.8 22.17 -70.79 162.24 -29.34 0.25 -0.79c-20.59,-5.07 -37.07,-9.49 -49.32,-13.36l-90.64 -28.38 15.13 -48.29 200.49 62.8z"/>
   <path id="1" class="fil10" d="M2352.45 2788.42l73 22.87 -16.97 54.17 -200.54 -62.8 20.58 -65.69c17.07,-54.51 45.36,-75.57 84.87,-63.21 23.23,7.29 37.65,24.27 43.25,50.88l105.66 -31.05 -19.25 61.48 -86.28 19.63 -4.32 13.73zm-40.69 -12.75l3.17 -10.15c5.91,-18.92 0.5,-31.01 -16.22,-36.27 -13.82,-4.31 -23.61,2.82 -29.42,21.34l-3.37 10.69 45.83 14.39z"/>
   <path id="2" class="fil10" d="M2513.17 2528.65l-40.68 -1.91 -20.44 65.15 34.43 21.95 -18.65 59.51 -180.84 -128.5 22.62 -72.26 222.11 -3.17 -18.55 59.22zm-88.66 -4.57l-35.62 -1.64c-7.95,-0.32 -18.16,-0.8 -30.66,-1.58 -12.52,-0.78 -21.44,-1.44 -26.74,-2.1 4.36,2.27 11.56,6.27 21.5,12.05 9.94,5.78 29.33,17.77 58.17,35.92l13.35 -42.65z"/>
   <path id="3" class="fil10" d="M2601.34 2244.41l-22.23 71.08 -164.24 28.99 -0.35 1.22c22.75,5.23 39.97,9.65 51.68,13.32l90.39 28.33 -15.03 47.99 -200.54 -62.8 22.17 -70.79 162.24 -29.34 0.25 -0.78c-20.59,-5.08 -37.06,-9.5 -49.32,-13.37l-90.64 -28.38 15.13 -48.29 200.49 62.8z"/>
   <path id="4" class="fil10" d="M2596.31 2044.07c12.45,3.86 22.54,10.48 30.16,19.83 7.67,9.3 12.35,20.75 13.97,34.34 1.62,13.55 -0.05,28.32 -5.05,44.35 -4.22,13.33 -8.67,24.26 -13.36,32.69 -4.7,8.47 -10.95,16.89 -18.69,25.21l-48.24 -15.13c8.52,-8.66 16.01,-18.1 22.47,-28.33 6.46,-10.24 11.16,-19.99 14.09,-29.35 2.53,-8.04 2.99,-14.37 1.39,-18.98 -1.6,-4.62 -4.64,-7.62 -9,-9.01 -2.75,-0.85 -5.4,-0.85 -7.95,0.02 -2.5,0.87 -5.36,2.63 -8.51,5.32 -3.15,2.69 -10.24,10.22 -21.22,22.65 -10.05,11.21 -18.91,19.17 -26.53,24.01 -7.62,4.78 -15.54,7.6 -23.74,8.51 -8.2,0.9 -17.27,-0.21 -27.12,-3.28 -18.48,-5.81 -30.76,-17.03 -36.88,-33.74 -6.13,-16.65 -5.52,-36.72 1.87,-60.25 6.5,-20.73 17.9,-40.43 34.25,-58.97l36.66 29.67c-14.48,16.1 -23.86,30.94 -28.12,44.51 -2.19,7.06 -2.55,12.55 -1.09,16.54 1.46,3.98 4,6.54 7.68,7.68 3.92,1.24 8.09,0.33 12.47,-2.8 4.38,-3.08 13.49,-12.32 27.38,-27.78 13.2,-14.83 25.31,-24.26 36.31,-28.14 11.01,-3.94 23.28,-3.8 36.81,0.47z"/>
   <path id="5" class="fil10" d="M2100.32 3507.32c33.72,10.57 56.78,26.85 69.17,48.92 12.34,22.03 13.53,49.02 3.56,80.93 -9.87,31.48 -26.24,52.82 -49.14,64.07 -22.91,11.26 -51.22,11.55 -84.95,0.99 -33.38,-10.43 -56.25,-26.74 -68.63,-48.96 -12.39,-22.22 -13.57,-49.22 -3.6,-81.03 9.97,-31.91 26.29,-53.36 48.89,-64.37 22.61,-10.97 50.88,-11.17 84.71,-0.55zm-43.21 137.95c38.73,12.15 62.36,4.72 70.79,-22.24 4.32,-13.73 2.79,-25.36 -4.54,-34.95 -7.33,-9.55 -21,-17.49 -40.9,-23.69 -20.05,-6.3 -35.89,-7.58 -47.54,-3.84 -11.69,3.74 -19.57,12.25 -23.79,25.63 -8.48,27.16 6.81,46.84 45.97,59.09z"/>
   <path id="6" class="fil10" d="M2049.91 3314.76l18.99 -60.64 179.96 128.49 -19.99 63.77 -221.03 2.64 19.1 -60.88 110.2 4.55c24.33,1.35 41.06,3.18 50.08,5.42 -6.22,-2.62 -13.82,-6.43 -22.78,-11.36 -9.02,-4.89 -16.02,-8.99 -21.06,-12.14l-93.48 -59.84z"/>
   <path id="7" class="fil10" d="M2237.56 3063.76c33.73,10.57 56.78,26.84 69.17,48.92 12.34,22.02 13.53,49.02 3.56,80.93 -9.87,31.48 -26.24,52.82 -49.14,64.07 -22.91,11.26 -51.22,11.55 -84.95,0.99 -33.38,-10.42 -56.25,-26.74 -68.64,-48.96 -12.39,-22.22 -13.57,-49.22 -3.6,-81.03 9.97,-31.91 26.29,-53.36 48.9,-64.37 22.61,-10.97 50.88,-11.17 84.7,-0.55zm-43.21 137.95c38.73,12.15 62.36,4.72 70.79,-22.24 4.31,-13.73 2.78,-25.36 -4.55,-34.95 -7.33,-9.55 -21,-17.49 -40.9,-23.69 -20.05,-6.3 -35.89,-7.58 -47.53,-3.84 -11.69,3.74 -19.57,12.25 -23.79,25.63 -8.48,27.16 6.81,46.84 45.98,59.09z"/>
   <polygon id="8" class="fil10" points="2380.11,2958.11 2363.14,3012.28 2206.96,2963.37 2191.59,3012.34 2147.32,2998.45 2194.89,2846.48 2239.21,2860.38 2223.93,2909.2 "/>
  </g>
  <path class="fil2" d="M945.23 941.91l94.68 94.68 -264.72 0 0 -94.68 170.04 0zm189.35 189.35l94.68 94.68 -454.07 0 0 -94.68 359.39 0zm189.36 189.36l94.68 94.68 -643.42 0 0 -94.68 548.74 0z"/>
  <path class="fil10" d="M1198.39 1226.73c-1.69,0 -3.23,-0.32 -4.63,-0.94 -1.39,-0.62 -2.57,-1.58 -3.51,-2.88l-0.28 0c0.19,1.51 0.28,2.95 0.28,4.31l0 10.65 -3.92 0 0 -37.56 3.19 0 0.55 3.54 0.19 0c1.01,-1.42 2.19,-2.45 3.53,-3.08 1.34,-0.63 2.88,-0.94 4.61,-0.94 3.44,0 6.1,1.18 7.97,3.53 1.87,2.35 2.8,5.65 2.8,9.89 0,4.26 -0.95,7.58 -2.85,9.94 -1.9,2.36 -4.54,3.54 -7.92,3.54zm-0.57 -23.55c-2.65,0 -4.57,0.74 -5.75,2.2 -1.19,1.47 -1.79,3.81 -1.82,7.01l0 0.87c0,3.64 0.61,6.25 1.82,7.82 1.21,1.58 3.17,2.36 5.85,2.36 2.24,0 4,-0.9 5.27,-2.72 1.27,-1.82 1.9,-4.31 1.9,-7.5 0,-3.23 -0.64,-5.71 -1.9,-7.44 -1.27,-1.73 -3.06,-2.59 -5.37,-2.59z"/>
  <path id="1" class="fil10" d="M1227.85 1199.83c1.14,0 2.18,0.1 3.09,0.28l-0.54 3.66c-1.08,-0.23 -2.02,-0.35 -2.84,-0.35 -2.09,0 -3.89,0.85 -5.38,2.55 -1.48,1.71 -2.23,3.83 -2.23,6.37l0 13.91 -3.93 0 0 -25.93 3.25 0 0.44 4.79 0.2 0c0.96,-1.69 2.11,-2.99 3.47,-3.9 1.36,-0.91 2.84,-1.37 4.48,-1.37z"/>
  <path id="2" class="fil10" d="M1246.76 1226.73c-3.84,0 -6.86,-1.17 -9.07,-3.5 -2.22,-2.34 -3.33,-5.58 -3.33,-9.74 0,-4.18 1.02,-7.5 3.09,-9.96 2.06,-2.47 4.82,-3.7 8.29,-3.7 3.25,0 5.83,1.07 7.72,3.21 1.89,2.14 2.84,4.96 2.84,8.46l0 2.49 -17.87 0c0.08,3.05 0.85,5.36 2.3,6.94 1.47,1.58 3.51,2.37 6.17,2.37 2.79,0 5.55,-0.58 8.28,-1.75l0 3.5c-1.39,0.61 -2.7,1.04 -3.94,1.3 -1.23,0.26 -2.73,0.39 -4.48,0.39zm-1.07 -23.6c-2.09,0 -3.74,0.67 -4.98,2.03 -1.24,1.35 -1.97,3.22 -2.19,5.62l13.55 0c0,-2.47 -0.55,-4.37 -1.66,-5.69 -1.11,-1.32 -2.68,-1.97 -4.73,-1.97z"/>
  <path id="3" class="fil10" d="M1279.72 1219.17c0,2.42 -0.9,4.28 -2.7,5.59 -1.8,1.31 -4.32,1.96 -7.58,1.96 -3.43,0 -6.11,-0.54 -8.04,-1.63l0 -3.65c1.25,0.63 2.58,1.13 4.01,1.49 1.43,0.36 2.81,0.54 4.13,0.54 2.05,0 3.63,-0.33 4.73,-0.98 1.11,-0.66 1.66,-1.65 1.66,-2.99 0,-1.01 -0.44,-1.87 -1.32,-2.59 -0.87,-0.72 -2.57,-1.56 -5.12,-2.54 -2.42,-0.91 -4.13,-1.69 -5.15,-2.36 -1.01,-0.67 -1.78,-1.43 -2.27,-2.29 -0.5,-0.85 -0.74,-1.87 -0.74,-3.06 0,-2.11 0.86,-3.78 2.57,-5.01 1.72,-1.22 4.08,-1.83 7.08,-1.83 2.79,0 5.52,0.57 8.18,1.71l-1.4 3.2c-2.6,-1.08 -4.96,-1.61 -7.07,-1.61 -1.87,0 -3.27,0.29 -4.22,0.87 -0.94,0.59 -1.42,1.39 -1.42,2.42 0,0.69 0.18,1.28 0.53,1.78 0.36,0.48 0.93,0.95 1.72,1.4 0.78,0.44 2.3,1.08 4.54,1.91 3.08,1.13 5.16,2.26 6.24,3.39 1.08,1.14 1.62,2.57 1.62,4.29z"/>
  <path id="4" class="fil10" d="M1290.04 1226.24l-3.92 0 0 -25.93 3.92 0 0 25.93zm-4.26 -32.98c0,-0.9 0.22,-1.55 0.67,-1.97 0.44,-0.42 0.99,-0.63 1.66,-0.63 0.63,0 1.18,0.21 1.63,0.64 0.46,0.43 0.69,1.08 0.69,1.96 0,0.89 -0.23,1.55 -0.69,1.98 -0.45,0.44 -1,0.66 -1.63,0.66 -0.67,0 -1.21,-0.22 -1.66,-0.66 -0.45,-0.43 -0.67,-1.09 -0.67,-1.98z"/>
  <path id="5" class="fil10" d="M1316.04 1222.77l-0.21 0c-1.82,2.64 -4.53,3.96 -8.14,3.96 -3.39,0 -6.03,-1.16 -7.93,-3.48 -1.88,-2.32 -2.83,-5.62 -2.83,-9.89 0,-4.28 0.94,-7.6 2.84,-9.97 1.89,-2.36 4.53,-3.56 7.91,-3.56 3.51,0 6.21,1.28 8.09,3.84l0.31 0 -0.16 -1.88 -0.09 -1.82 0 -10.57 3.92 0 0 36.84 -3.19 0 -0.53 -3.47zm-7.86 0.66c2.68,0 4.63,-0.73 5.84,-2.19 1.2,-1.47 1.81,-3.82 1.81,-7.07l0 -0.82c0,-3.68 -0.61,-6.3 -1.83,-7.87 -1.23,-1.57 -3.18,-2.36 -5.86,-2.36 -2.3,0 -4.06,0.89 -5.29,2.69 -1.22,1.79 -1.83,4.31 -1.83,7.59 0,3.31 0.61,5.81 1.82,7.5 1.21,1.69 3,2.54 5.35,2.54z"/>
  <path id="6" class="fil10" d="M1339.03 1226.73c-3.84,0 -6.86,-1.17 -9.07,-3.5 -2.22,-2.34 -3.33,-5.58 -3.33,-9.74 0,-4.18 1.02,-7.5 3.09,-9.96 2.06,-2.47 4.82,-3.7 8.29,-3.7 3.25,0 5.83,1.07 7.72,3.21 1.89,2.14 2.84,4.96 2.84,8.46l0 2.49 -17.87 0c0.08,3.05 0.85,5.36 2.3,6.94 1.47,1.58 3.51,2.37 6.17,2.37 2.79,0 5.55,-0.58 8.28,-1.75l0 3.5c-1.39,0.61 -2.7,1.04 -3.94,1.3 -1.23,0.26 -2.73,0.39 -4.48,0.39zm-1.07 -23.6c-2.09,0 -3.74,0.67 -4.98,2.03 -1.24,1.35 -1.97,3.22 -2.19,5.62l13.55 0c0,-2.47 -0.55,-4.37 -1.66,-5.69 -1.11,-1.32 -2.68,-1.97 -4.73,-1.97z"/>
  <path id="7" class="fil10" d="M1373.03 1226.24l0 -16.78c0,-2.12 -0.48,-3.69 -1.45,-4.73 -0.96,-1.04 -2.47,-1.56 -4.52,-1.56 -2.71,0 -4.7,0.74 -5.96,2.2 -1.27,1.47 -1.9,3.9 -1.9,7.27l0 13.6 -3.92 0 0 -25.93 3.19 0 0.64 3.54 0.2 0c0.81,-1.28 1.93,-2.27 3.38,-2.97 1.46,-0.7 3.07,-1.05 4.85,-1.05 3.13,0 5.48,0.75 7.06,2.26 1.58,1.5 2.36,3.92 2.36,7.23l0 16.92 -3.92 0z"/>
  <path id="8" class="fil10" d="M1393.39 1223.48c0.7,0 1.37,-0.05 2.02,-0.15 0.65,-0.1 1.15,-0.21 1.53,-0.32l0 3.01c-0.43,0.2 -1.05,0.37 -1.88,0.51 -0.82,0.13 -1.57,0.2 -2.24,0.2 -5.02,0 -7.52,-2.64 -7.52,-7.93l0 -15.43 -3.71 0 0 -1.89 3.71 -1.64 1.66 -5.53 2.27 0 0 6.01 7.53 0 0 3.05 -7.53 0 0 15.26c0,1.57 0.37,2.76 1.11,3.6 0.74,0.83 1.76,1.25 3.05,1.25z"/>
  <path class="fil10" d="M928.9 1131.42l-10.19 0 -16.9 -24.38 -5.18 4.24 0 20.14 -8.81 0 0 -53.84 8.81 0 0 25.7c2.4,-2.94 4.79,-5.78 7.18,-8.51l14.53 -17.19 10.02 0c-9.4,11.05 -16.14,18.91 -20.21,23.6l20.76 30.24z"/>
  <path id="1" class="fil10" d="M971.23 1110.99c0,6.66 -1.71,11.85 -5.11,15.58 -3.42,3.73 -8.17,5.6 -14.25,5.6 -3.81,0 -7.18,-0.86 -10.09,-2.58 -2.93,-1.72 -5.18,-4.18 -6.75,-7.41 -1.57,-3.22 -2.35,-6.95 -2.35,-11.19 0,-6.61 1.7,-11.77 5.08,-15.47 3.39,-3.71 8.17,-5.57 14.33,-5.57 5.9,0 10.56,1.9 14,5.7 3.43,3.79 5.15,8.91 5.15,15.34zm-29.64 0c0,9.4 3.47,14.1 10.42,14.1 6.89,0 10.32,-4.7 10.32,-14.1 0,-9.3 -3.46,-13.95 -10.38,-13.95 -3.64,0 -6.27,1.21 -7.91,3.61 -1.63,2.4 -2.45,5.86 -2.45,10.35z"/>
  <path id="2" class="fil10" d="M1016.99 1131.42l-8.68 0 0 -25.03c0,-3.14 -0.64,-5.48 -1.9,-7.02 -1.27,-1.55 -3.28,-2.33 -6.03,-2.33 -3.66,0 -6.33,1.08 -8.03,3.24 -1.69,2.16 -2.54,5.78 -2.54,10.86l0 20.28 -8.66 0 0 -40.72 6.78 0 1.22 5.33 0.44 0c1.23,-1.95 2.98,-3.44 5.23,-4.5 2.26,-1.06 4.78,-1.59 7.51,-1.59 9.78,0 14.67,4.98 14.67,14.92l0 26.55z"/>
  <path id="3" class="fil10" d="M1056.39 1119.83c0,3.97 -1.44,7.03 -4.35,9.15 -2.89,2.12 -7.05,3.19 -12.44,3.19 -5.43,0 -9.79,-0.83 -13.08,-2.48l0 -7.48c4.79,2.22 9.25,3.32 13.37,3.32 5.33,0 7.99,-1.61 7.99,-4.83 0,-1.03 -0.29,-1.88 -0.88,-2.57 -0.59,-0.69 -1.55,-1.4 -2.91,-2.14 -1.35,-0.74 -3.23,-1.57 -5.63,-2.51 -4.69,-1.81 -7.87,-3.63 -9.52,-5.44 -1.66,-1.82 -2.49,-4.18 -2.49,-7.08 0,-3.49 1.41,-6.19 4.22,-8.13 2.82,-1.92 6.64,-2.89 11.47,-2.89 4.79,0 9.31,0.97 13.59,2.92l-2.8 6.52c-4.38,-1.82 -8.08,-2.73 -11.08,-2.73 -4.57,0 -6.85,1.29 -6.85,3.9 0,1.28 0.59,2.36 1.78,3.24 1.2,0.89 3.8,2.11 7.8,3.66 3.36,1.29 5.8,2.49 7.33,3.57 1.52,1.08 2.65,2.32 3.39,3.74 0.74,1.41 1.1,3.1 1.1,5.06z"/>
  <path id="4" class="fil10" d="M1080.9 1125.16c2.11,0 4.22,-0.33 6.33,-0.99l0 6.53c-0.95,0.41 -2.2,0.77 -3.7,1.04 -1.51,0.29 -3.07,0.43 -4.69,0.43 -8.2,0 -12.29,-4.32 -12.29,-12.97l0 -21.94 -5.57 0 0 -3.84 5.97 -3.16 2.94 -8.61 5.34 0 0 9.05 11.6 0 0 6.56 -11.6 0 0 21.79c0,2.09 0.52,3.62 1.56,4.61 1.04,0.99 2.41,1.49 4.11,1.49z"/>
  <path id="5" class="fil10" d="M1120.84 1131.42l-1.74 -5.65 -0.29 0c-1.96,2.48 -3.93,4.17 -5.93,5.06 -1.99,0.89 -4.54,1.35 -7.66,1.35 -4,0 -7.13,-1.08 -9.36,-3.24 -2.25,-2.16 -3.36,-5.21 -3.36,-9.17 0,-4.2 1.56,-7.36 4.67,-9.5 3.12,-2.14 7.87,-3.3 14.24,-3.5l7.04 -0.22 0 -2.17c0,-2.6 -0.62,-4.55 -1.82,-5.85 -1.22,-1.29 -3.1,-1.94 -5.65,-1.94 -2.09,0 -4.08,0.3 -5.99,0.92 -1.92,0.62 -3.76,1.35 -5.53,2.17l-2.79 -6.18c2.2,-1.16 4.62,-2.04 7.25,-2.64 2.62,-0.61 5.1,-0.91 7.42,-0.91 5.19,0 9.1,1.13 11.73,3.39 2.64,2.25 3.96,5.81 3.96,10.65l0 27.43 -6.18 0zm-12.88 -5.88c3.14,0 5.67,-0.88 7.57,-2.64 1.89,-1.76 2.85,-4.22 2.85,-7.39l0 -3.55 -5.23 0.23c-4.07,0.13 -7.04,0.83 -8.88,2.05 -1.86,1.21 -2.79,3.08 -2.79,5.58 0,1.82 0.54,3.23 1.62,4.22 1.08,0.99 2.7,1.49 4.86,1.49z"/>
  <path id="6" class="fil10" d="M1174.94 1131.42l-8.68 0 0 -25.03c0,-3.14 -0.64,-5.48 -1.9,-7.02 -1.27,-1.55 -3.28,-2.33 -6.03,-2.33 -3.66,0 -6.33,1.08 -8.03,3.24 -1.69,2.16 -2.54,5.78 -2.54,10.86l0 20.28 -8.66 0 0 -40.72 6.78 0 1.22 5.33 0.44 0c1.23,-1.95 2.98,-3.44 5.23,-4.5 2.26,-1.06 4.78,-1.59 7.51,-1.59 9.78,0 14.67,4.98 14.67,14.92l0 26.55z"/>
  <path id="7" class="fil10" d="M1202.14 1125.16c2.11,0 4.22,-0.33 6.33,-0.99l0 6.53c-0.95,0.41 -2.2,0.77 -3.7,1.04 -1.51,0.29 -3.07,0.43 -4.69,0.43 -8.2,0 -12.29,-4.32 -12.29,-12.97l0 -21.94 -5.57 0 0 -3.84 5.97 -3.16 2.94 -8.61 5.34 0 0 9.05 11.6 0 0 6.56 -11.6 0 0 21.79c0,2.09 0.52,3.62 1.56,4.61 1.04,0.99 2.41,1.49 4.11,1.49z"/>
  <path id="8" class="fil10" d="M1225.26 1131.42l-8.65 0 0 -40.72 8.65 0 0 40.72zm-9.16 -51.5c0,-1.55 0.42,-2.74 1.27,-3.57 0.84,-0.84 2.05,-1.26 3.62,-1.26 1.52,0 2.71,0.41 3.56,1.26 0.84,0.83 1.27,2.02 1.27,3.57 0,1.47 -0.43,2.62 -1.27,3.48 -0.84,0.84 -2.03,1.27 -3.56,1.27 -1.57,0 -2.78,-0.42 -3.62,-1.27 -0.85,-0.86 -1.27,-2.01 -1.27,-3.48z"/>
  <path id="9" class="fil10" d="M1273.46 1131.42l-8.68 0 0 -25.03c0,-3.14 -0.64,-5.48 -1.9,-7.02 -1.27,-1.55 -3.28,-2.33 -6.03,-2.33 -3.66,0 -6.33,1.08 -8.03,3.24 -1.69,2.16 -2.54,5.78 -2.54,10.86l0 20.28 -8.66 0 0 -40.72 6.78 0 1.22 5.33 0.44 0c1.23,-1.95 2.98,-3.44 5.23,-4.5 2.26,-1.06 4.78,-1.59 7.51,-1.59 9.78,0 14.67,4.98 14.67,14.92l0 26.55z"/>
  <path id="10" class="fil10" d="M1328.02 1102.24l19.81 0 0 27.03c-3.24,1.06 -6.35,1.8 -9.33,2.24 -2.99,0.44 -6.21,0.67 -9.66,0.67 -8.16,0 -14.44,-2.41 -18.85,-7.24 -4.43,-4.83 -6.64,-11.63 -6.64,-20.42 0,-8.66 2.5,-15.45 7.47,-20.33 4.99,-4.9 11.84,-7.35 20.59,-7.35 5.62,0 10.95,1.08 15.97,3.24l-3.09 7.32c-4.37,-2.01 -8.74,-3.02 -13.11,-3.02 -5.74,0 -10.28,1.81 -13.62,5.41 -3.33,3.61 -5,8.54 -5,14.79 0,6.58 1.51,11.58 4.51,15 3.01,3.43 7.33,5.14 12.97,5.14 2.85,0 5.89,-0.35 9.14,-1.07l0 -13.86 -11.16 0 0 -7.54z"/>
  <path id="11" class="fil10" d="M1395.96 1110.99c0,6.66 -1.71,11.85 -5.11,15.58 -3.42,3.73 -8.17,5.6 -14.25,5.6 -3.81,0 -7.18,-0.86 -10.09,-2.58 -2.93,-1.72 -5.18,-4.18 -6.75,-7.41 -1.57,-3.22 -2.35,-6.95 -2.35,-11.19 0,-6.61 1.7,-11.77 5.08,-15.47 3.39,-3.71 8.17,-5.57 14.33,-5.57 5.9,0 10.56,1.9 14,5.7 3.43,3.79 5.15,8.91 5.15,15.34zm-29.64 0c0,9.4 3.47,14.1 10.42,14.1 6.89,0 10.32,-4.7 10.32,-14.1 0,-9.3 -3.46,-13.95 -10.38,-13.95 -3.64,0 -6.27,1.21 -7.91,3.61 -1.63,2.4 -2.45,5.86 -2.45,10.35z"/>
  <path id="12" class="fil10" d="M1441.73 1131.42l-8.68 0 0 -25.03c0,-3.14 -0.64,-5.48 -1.9,-7.02 -1.27,-1.55 -3.28,-2.33 -6.03,-2.33 -3.66,0 -6.33,1.08 -8.03,3.24 -1.69,2.16 -2.54,5.78 -2.54,10.86l0 20.28 -8.66 0 0 -40.72 6.78 0 1.22 5.33 0.44 0c1.23,-1.95 2.98,-3.44 5.23,-4.5 2.26,-1.06 4.78,-1.59 7.51,-1.59 9.78,0 14.67,4.98 14.67,14.92l0 26.55z"/>
  <path id="13" class="fil10" d="M1470.17 1132.18c-6.16,0 -10.83,-1.8 -14.04,-5.4 -3.21,-3.59 -4.8,-8.76 -4.8,-15.48 0,-6.86 1.67,-12.12 5.03,-15.81 3.35,-3.69 8.18,-5.53 14.52,-5.53 4.3,0 8.16,0.81 11.6,2.4l-2.61 6.98c-3.66,-1.42 -6.67,-2.14 -9.06,-2.14 -7.04,0 -10.56,4.67 -10.56,14.02 0,4.56 0.88,7.99 2.62,10.28 1.76,2.3 4.32,3.44 7.72,3.44 3.84,0 7.49,-0.95 10.93,-2.88l0 7.57c-1.55,0.92 -3.2,1.57 -4.95,1.96 -1.76,0.39 -3.88,0.59 -6.39,0.59z"/>
  <path id="14" class="fil10" d="M1526.93 1131.42l-8.68 0 0 -25.03c0,-3.14 -0.64,-5.48 -1.9,-7.02 -1.27,-1.55 -3.28,-2.33 -6.03,-2.33 -3.63,0 -6.31,1.08 -8.01,3.26 -1.71,2.17 -2.56,5.82 -2.56,10.92l0 20.21 -8.66 0 0 -57.31 8.66 0 0 14.55c0,2.33 -0.15,4.81 -0.44,7.47l0.55 0c1.18,-1.96 2.82,-3.48 4.91,-4.56 2.1,-1.08 4.55,-1.62 7.35,-1.62 9.86,0 14.8,4.98 14.8,14.92l0 26.55z"/>
  <path id="15" class="fil10" d="M1564.44 1131.42l-1.74 -5.65 -0.29 0c-1.96,2.48 -3.93,4.17 -5.93,5.06 -1.99,0.89 -4.54,1.35 -7.66,1.35 -4,0 -7.13,-1.08 -9.36,-3.24 -2.25,-2.16 -3.36,-5.21 -3.36,-9.17 0,-4.2 1.56,-7.36 4.67,-9.5 3.12,-2.14 7.87,-3.3 14.24,-3.5l7.04 -0.22 0 -2.17c0,-2.6 -0.62,-4.55 -1.82,-5.85 -1.22,-1.29 -3.1,-1.94 -5.65,-1.94 -2.09,0 -4.08,0.3 -5.99,0.92 -1.92,0.62 -3.76,1.35 -5.53,2.17l-2.79 -6.18c2.2,-1.16 4.62,-2.04 7.25,-2.64 2.62,-0.61 5.1,-0.91 7.42,-0.91 5.19,0 9.1,1.13 11.73,3.39 2.64,2.25 3.96,5.81 3.96,10.65l0 27.43 -6.18 0zm-12.88 -5.88c3.14,0 5.67,-0.88 7.57,-2.64 1.89,-1.76 2.85,-4.22 2.85,-7.39l0 -3.55 -5.23 0.23c-4.07,0.13 -7.04,0.83 -8.88,2.05 -1.86,1.21 -2.79,3.08 -2.79,5.58 0,1.82 0.54,3.23 1.62,4.22 1.08,0.99 2.7,1.49 4.86,1.49z"/>
  <path id="16" class="fil10" d="M1603.35 1089.95c1.75,0 3.18,0.13 4.31,0.37l-0.86 8.07c-1.22,-0.29 -2.5,-0.44 -3.82,-0.44 -3.46,0 -6.26,1.13 -8.41,3.38 -2.15,2.26 -3.22,5.2 -3.22,8.81l0 21.29 -8.66 0 0 -40.72 6.78 0 1.14 7.17 0.44 0c1.35,-2.43 3.12,-4.36 5.28,-5.79 2.17,-1.42 4.51,-2.14 7.01,-2.14z"/>
  <path id="17" class="fil10" d="M1651.33 1110.99c0,6.66 -1.71,11.85 -5.11,15.58 -3.42,3.73 -8.17,5.6 -14.25,5.6 -3.81,0 -7.18,-0.86 -10.09,-2.58 -2.93,-1.72 -5.18,-4.18 -6.75,-7.41 -1.57,-3.22 -2.35,-6.95 -2.35,-11.19 0,-6.61 1.7,-11.77 5.08,-15.47 3.39,-3.71 8.17,-5.57 14.33,-5.57 5.9,0 10.56,1.9 14,5.7 3.43,3.79 5.15,8.91 5.15,15.34zm-29.64 0c0,9.4 3.47,14.1 10.42,14.1 6.89,0 10.32,-4.7 10.32,-14.1 0,-9.3 -3.46,-13.95 -10.38,-13.95 -3.64,0 -6.27,1.21 -7.91,3.61 -1.63,2.4 -2.45,5.86 -2.45,10.35z"/>
  <path id="18" class="fil10" d="M1670.54 1131.42l-15.46 -40.72 9.14 0 8.27 23.68c1.43,3.97 2.29,7.19 2.57,9.64l0.3 0c0.21,-1.76 1.08,-4.98 2.58,-9.64l8.28 -23.68 9.2 0 -15.54 40.72 -9.35 0z"/>
  <g id="_1423888591040">
   <path class="fil10" d="M1028.31 858.68l-83.1 0 0 0 0 0 0 83.09 11.87 0 0 0 71.22 0 0 -11.87 -71.22 0 0 -59.35 59.35 0 11.87 -11.87zm0 47.48l-47.48 0 -11.87 11.87 59.36 0 0 -11.87zm0 -23.74l-23.74 0 -11.87 11.87 35.61 0 0 -11.87z"/>
   <path class="fil13" d="M1115.24 930.95l-21.74 0 -22.41 -43.23 -0.37 0c0.53,6.8 0.79,11.99 0.79,15.57l0 27.66 -14.68 0 0 -61.37 21.66 0 22.32 42.65 0.26 0c-0.4,-6.19 -0.59,-11.15 -0.59,-14.9l0 -27.75 14.77 0 0 61.37z"/>
   <path id="1" class="fil13" d="M1409.31 908.6l0 22.35 -16.57 0 0 -61.37 20.12 0c16.67,0 25.01,6.05 25.01,18.12 0,7.1 -3.47,12.6 -10.4,16.49l17.88 26.76 -18.8 0 -13.02 -22.35 -4.21 0zm0 -12.46l3.11 0c5.8,0 8.71,-2.56 8.71,-7.67 0,-4.23 -2.85,-6.33 -8.54,-6.33l-3.28 0 0 14.01z"/>
   <path id="2" class="fil13" d="M1495.69 930.95l-3.01 -11.52 -19.94 0 -3.1 11.52 -18.22 0 20.01 -61.63 22.12 0 20.27 61.63 -18.14 0zm-6.46 -25.1l-2.64 -10.09c-0.61,-2.23 -1.36,-5.12 -2.25,-8.68 -0.87,-3.57 -1.46,-6.1 -1.73,-7.65 -0.26,1.43 -0.76,3.78 -1.49,7.06 -0.74,3.27 -2.39,9.73 -4.94,19.35l13.05 0z"/>
   <path id="3" class="fil13" d="M1582.59 930.95l-21.74 0 -22.41 -43.23 -0.37 0c0.53,6.8 0.79,11.99 0.79,15.57l0 27.66 -14.68 0 0 -61.37 21.66 0 22.32 42.65 0.26 0c-0.4,-6.19 -0.59,-11.15 -0.59,-14.9l0 -27.75 14.77 0 0 61.37z"/>
   <path id="4" class="fil13" d="M1637.96 912.33c0,3.81 -0.96,7.19 -2.89,10.14 -1.94,2.95 -4.71,5.24 -8.35,6.89 -3.64,1.63 -7.91,2.45 -12.79,2.45 -4.09,0 -7.52,-0.29 -10.29,-0.86 -2.76,-0.57 -5.65,-1.58 -8.64,-3.01l0 -14.79c3.15,1.62 6.45,2.88 9.85,3.8 3.41,0.9 6.55,1.36 9.4,1.36 2.47,0 4.27,-0.43 5.42,-1.28 1.14,-0.84 1.72,-1.95 1.72,-3.28 0,-0.84 -0.23,-1.57 -0.7,-2.21 -0.46,-0.63 -1.2,-1.26 -2.22,-1.9 -1.01,-0.64 -3.74,-1.96 -8.16,-3.96 -4,-1.82 -6.99,-3.58 -9,-5.28 -1.99,-1.71 -3.48,-3.67 -4.44,-5.87 -0.96,-2.21 -1.45,-4.83 -1.45,-7.85 0,-5.65 2.05,-10.06 6.16,-13.22 4.11,-3.16 9.77,-4.74 16.96,-4.74 6.34,0 12.82,1.46 19.43,4.4l-5.07 12.78c-5.74,-2.62 -10.69,-3.94 -14.86,-3.94 -2.15,0 -3.72,0.39 -4.7,1.14 -0.99,0.76 -1.48,1.71 -1.48,2.83 0,1.2 0.63,2.29 1.88,3.23 1.24,0.95 4.61,2.68 10.13,5.2 5.29,2.38 8.95,4.94 11.02,7.67 2.05,2.73 3.08,6.16 3.08,10.3z"/>
   <path id="5" class="fil13" d="M1187.05 900.2c0,10.33 -2.52,18.18 -7.6,23.55 -5.05,5.37 -12.48,8.07 -22.25,8.07 -9.62,0 -17,-2.71 -22.14,-8.11 -5.13,-5.4 -7.69,-13.27 -7.69,-23.58 0,-10.21 2.55,-18.02 7.67,-23.41 5.1,-5.39 12.52,-8.08 22.26,-8.08 9.77,0 17.16,2.68 22.21,8.02 5.04,5.34 7.55,13.19 7.55,23.54zm-42.22 -0.02c0,11.86 4.12,17.79 12.38,17.79 4.2,0 7.32,-1.45 9.34,-4.32 2.03,-2.88 3.05,-7.36 3.05,-13.47 0,-6.13 -1.03,-10.66 -3.1,-13.58 -2.05,-2.92 -5.13,-4.38 -9.21,-4.38 -8.31,0 -12.46,5.99 -12.46,17.96z"/>
   <path id="6" class="fil13" d="M1236.3 869.58l18.55 0 -20.12 61.37 -19.51 0 -20.03 -61.37 18.64 0 8.35 31.1c1.73,6.92 2.69,11.73 2.87,14.44 0.19,-1.95 0.59,-4.4 1.17,-7.34 0.59,-2.95 1.1,-5.26 1.55,-6.93l8.53 -31.27z"/>
   <path id="7" class="fil13" d="M1322.6 900.2c0,10.33 -2.52,18.18 -7.6,23.55 -5.05,5.37 -12.48,8.07 -22.25,8.07 -9.62,0 -17,-2.71 -22.14,-8.11 -5.13,-5.4 -7.69,-13.27 -7.69,-23.58 0,-10.21 2.55,-18.02 7.67,-23.41 5.1,-5.39 12.52,-8.08 22.26,-8.08 9.77,0 17.16,2.68 22.21,8.02 5.04,5.34 7.55,13.19 7.55,23.54zm-42.22 -0.02c0,11.86 4.12,17.79 12.38,17.79 4.2,0 7.32,-1.45 9.34,-4.32 2.03,-2.88 3.05,-7.36 3.05,-13.47 0,-6.13 -1.03,-10.66 -3.1,-13.58 -2.05,-2.92 -5.13,-4.38 -9.21,-4.38 -8.31,0 -12.46,5.99 -12.46,17.96z"/>
   <polygon id="8" class="fil13" points="1364.46,930.95 1347.88,930.95 1347.88,883.16 1332.88,883.16 1332.88,869.58 1379.41,869.58 1379.41,883.16 1364.46,883.16 "/>
  </g>
 </g>
</svg>
