<?xml version="1.0" encoding="UTF-8"?>
<!DOCTYPE svg PUBLIC "-//W3C//DTD SVG 1.1//EN" "http://www.w3.org/Graphics/SVG/1.1/DTD/svg11.dtd">
<!-- Creator: CorelDRAW 2020 (64-Bit) -->
<svg xmlns="http://www.w3.org/2000/svg" xml:space="preserve" width="90mm" height="120mm" version="1.1" style="shape-rendering:geometricPrecision; text-rendering:geometricPrecision; image-rendering:optimizeQuality; fill-rule:evenodd; clip-rule:evenodd"
viewBox="0 0 60567.09 80756.12"
 xmlns:xlink="http://www.w3.org/1999/xlink"
 xmlns:xodm="http://www.corel.com/coreldraw/odm/2003">
 <defs>
  <style type="text/css">
   <![CDATA[
    .str0 {stroke:black;stroke-width:134.59;stroke-miterlimit:22.9256}
    .fil14 {fill:#1CBBEE}
    .fil8 {fill:black}
    .fil3 {fill:#666666}
    .fil4 {fill:white}
    .fil10 {fill:#435262}
    .fil7 {fill:#778591}
    .fil0 {fill:#DCDFE0}
    .fil11 {fill:#1CBBEE;fill-rule:nonzero}
    .fil13 {fill:#1CBBEE;fill-rule:nonzero}
    .fil12 {fill:#435262;fill-rule:nonzero}
    .fil6 {fill:gray;fill-opacity:0.431373}
    .fil1 {fill:gray;fill-opacity:0.450980}
    .fil5 {fill:#CCCCCC}
    .fil2 {fill:url(#id6)}
    .fil9 {fill:url(#id7);fill-opacity:0.101961}
   ]]>
  </style>
   <mask id="id0">
  <linearGradient id="id1" gradientUnits="userSpaceOnUse" x1="39065.82" y1="59832.47" x2="39065.73" y2="58971.38">
   <stop offset="0" style="stop-opacity:1; stop-color:white"/>
   <stop offset="1" style="stop-opacity:0; stop-color:white"/>
  </linearGradient>
    <rect style="fill:url(#id1)" x="21580.26" y="58091.98" width="33209.74" height="1835.92"/>
   </mask>
   <mask id="id2">
  <linearGradient id="id3" gradientUnits="userSpaceOnUse" x1="24090.18" y1="64362.46" x2="24855.42" y2="63968.13">
   <stop offset="0" style="stop-opacity:1; stop-color:white"/>
   <stop offset="1" style="stop-opacity:0; stop-color:white"/>
  </linearGradient>
    <rect style="fill:url(#id3)" x="20277.46" y="55919.91" width="3867.81" height="4661.78"/>
   </mask>
   <mask id="id4">
  <linearGradient id="id5" gradientUnits="userSpaceOnUse" x1="52060.66" y1="64377.65" x2="51295.41" y2="63983.32">
   <stop offset="0" style="stop-opacity:1; stop-color:white"/>
   <stop offset="1" style="stop-opacity:0; stop-color:white"/>
  </linearGradient>
    <rect style="fill:url(#id5)" x="52005.59" y="55935.12" width="3867.75" height="4661.78"/>
   </mask>
  <linearGradient id="id6" gradientUnits="userSpaceOnUse" x1="10525.89" y1="53912.58" x2="12702.74" y2="53912.58">
   <stop offset="0" style="stop-opacity:1; stop-color:#9C9A9A"/>
   <stop offset="1" style="stop-opacity:1; stop-color:#CCCCCC"/>
  </linearGradient>
  <linearGradient id="id7" gradientUnits="userSpaceOnUse" x1="38068.16" y1="59739.51" x2="38068.16" y2="56377.32">
   <stop offset="0" style="stop-opacity:1; stop-color:black"/>
   <stop offset="1" style="stop-opacity:1; stop-color:white"/>
  </linearGradient>
 </defs>
 <g id="Layer_x0020_1">
  <metadata id="CorelCorpID_0Corel-Layer"/>
  <rect class="fil0" x="-0" y="-0.05" width="60567.09" height="80756.15"/>
  <path class="fil1" d="M2917.52 52662.21l7526.6 0c259.63,0 474.98,196.24 505.2,447.93l2075.57 0 0 2344.82 -2115.2 0c-93.41,263.67 -330.56,441 -634.68,441l-7357.49 0 0 -3233.74zm11178.4 -56.13l2094.48 0c326.86,0 593.42,266.7 593.42,593.42l0 1834.51c0,469.13 -333.52,833.81 -793.7,833.81l-1894.2 0 0 -3261.74z"/>
  <g id="_1423940562928">
   <rect class="fil2" x="10525.91" y="52740.13" width="2176.83" height="2344.87"/>
   <rect class="fil3" x="11435.75" y="53139.16" width="518.01" height="510.98"/>
   <rect class="fil3" x="11435.75" y="54147.06" width="518.01" height="510.98"/>
  </g>
  <polygon class="fil1" points="12636.11,4328.39 47968.73,13795.7 43166.9,31716.43 7834.29,22249.12 "/>
  <g id="_1423940565520">
   <rect class="fil4" transform="matrix(0.879005 0.235529 -0.238655 0.890674 12240.6 3299.75)" width="40196.16" height="20120.39"/>
   <path class="fil5" d="M28230.72 17351.93l13702.16 3671.44c266.97,71.54 426.86,348.53 355.33,615.5l-1443.31 5386.43c-71.54,266.97 -348.46,426.86 -615.43,355.33l-13702.16 -3671.44c-266.97,-71.54 -426.86,-348.46 -355.33,-615.5l1443.31 -5386.43c71.54,-266.97 348.46,-426.86 615.43,-355.33z"/>
  </g>
  <polygon class="fil6" points="15524.96,27774.38 51548.24,34126.26 48326.55,52397.26 12303.26,46045.39 "/>
  <rect class="fil4" transform="matrix(0.896188 0.158022 -0.16012 0.908085 14921.7 26763)" width="40196.16" height="20120.39"/>
  <polygon class="fil1" points="22601.82,52817.53 54893.97,52817.53 57037.37,56989.86 57037.37,57030.31 57037.37,63947.2 57030.1,63947.2 57030.1,75799.58 20451.08,75799.58 20451.08,57797.89 20458.35,57797.89 20458.35,57030.31 20458.35,56989.86 "/>
  <polygon class="fil7" points="21928.18,52327.61 54220.33,52327.61 56363.73,56499.94 56363.73,56540.39 56363.73,63457.28 19784.71,63457.28 19784.71,56540.39 19784.71,56499.94 "/>
  <polygon class="fil8 str0" style="mask:url(#id0)" points="21647.55,59860.61 21647.55,58159.28 54722.7,58159.28 54722.7,59860.61 "/>
  <polygon class="fil8 str0" style="mask:url(#id2)" points="20344.75,56731.71 21874.54,55987.21 24077.97,60514.39 22185.79,60514.39 "/>
  <polygon class="fil8 str0" style="mask:url(#id4)" points="55806.04,56746.92 54276.25,56002.42 52072.89,60529.6 53965.07,60529.6 "/>
  <polygon class="fil9" points="19788.75,56377.33 56347.58,56377.33 56347.58,59739.54 19788.75,59739.54 "/>
  <polygon class="fil4" points="19784.71,56517.37 20615.49,56517.37 21077.14,57409.52 22045.21,59280.24 22045.21,59292.22 38777.81,59292.22 39391.56,59292.22 54103.23,59292.22 54103.23,59280.24 55071.23,57409.52 55532.89,56517.37 56363.73,56517.37 56363.73,75070.28 19784.71,75070.28 "/>
  <path class="fil10" d="M13811.05 52267.71l2094.48 0c326.86,0 593.42,266.56 593.42,593.42l0 2074.89c0,326.86 -266.56,593.42 -593.42,593.42l-2094.48 0 0 -3261.74zm-11178.4 56.13l7526.6 0c280.22,0 508.83,228.54 508.83,508.76l0 2216.22c0,280.22 -228.61,508.76 -508.83,508.76l-7526.6 0 0 -3233.74z"/>
  <g id="_1423940579248">
   <path class="fil11" d="M17231.54 8842.93l-1566.47 -419.8 0 0 -0.07 0 -419.73 1566.53 223.83 59.96 0 0 1342.71 359.77 59.96 -223.76 -1342.71 -359.77 299.81 -1118.94 1118.94 299.81 283.72 -163.8zm-239.85 895.11l-895.11 -239.85 -283.79 163.8 1118.94 299.81 59.96 -223.76zm119.92 -447.59l-447.59 -119.92 -283.72 163.87 671.35 179.88 59.96 -223.83z"/>
   <path class="fil12" d="M18504.05 10644.26l-409.37 -109.63 -204.11 -927.42 -7 -1.95c-24.36,130.82 -45.56,229.82 -63.66,297.52l-139.64 520.88 -276.52 -74.09 309.57 -1155.89 407.95 109.29 205.26 916.04 4.78 1.14c24.02,-118.31 45.22,-212.86 64.27,-283.52l139.84 -522.63 278.54 74.63 -309.9 1155.62z"/>
   <path id="1" class="fil12" d="M24161.76 11709.64l-112.65 420.54 -312.06 -83.58 309.5 -1155.96 378.61 101.55c314.34,84.12 440.73,240.11 379.69,467.78 -35.73,133.92 -128.87,219.99 -279.35,258.08l201.89 593.89 -353.91 -95.09 -132.57 -485.95 -79.14 -21.27zm62.92 -234.87l58.68 15.68c109.02,29.34 176.52,-4.24 202.23,-100.68 21.47,-79.68 -21.27,-133.65 -128.33,-162.52l-61.78 -16.49 -70.8 264.01z"/>
   <path id="2" class="fil12" d="M25677.75 12566.46l1.14 -231.84 -375.52 -100.61 -116.63 201.02 -343.08 -91.99 688.11 -1059.45 416.63 111.58 70.73 1262.69 -341.4 -91.39zm4.78 -505.33l1.14 -202.97c-0.34,-45.29 0.27,-103.7 1.62,-175.04 1.08,-71.27 3.1,-122.14 5.65,-152.63 -12.05,25.44 -33.31,67.36 -63.8,125.24 -30.49,57.88 -93.95,171.14 -190.38,339.44l245.77 65.95z"/>
   <path id="3" class="fil12" d="M27315.35 13005.23l-409.3 -109.56 -204.18 -927.48 -7 -1.95c-24.29,130.89 -45.56,229.82 -63.66,297.52l-139.57 520.94 -276.52 -74.09 309.5 -1155.96 407.95 109.29 205.26 916.04 4.78 1.14c24.02,-118.31 45.22,-212.79 64.27,-283.52l139.84 -522.63 278.54 74.63 -309.9 1155.62z"/>
   <path id="4" class="fil12" d="M28453.95 12934.3c-19.31,71.54 -54.58,130.29 -105.72,176.18 -51.21,45.83 -115.21,74.9 -192.06,87.55 -76.92,12.52 -161.31,6.33 -253.71,-18.51 -76.85,-20.39 -140.04,-43.34 -189.24,-67.97 -49.19,-24.9 -98.39,-58.14 -147.65,-100.07l74.63 -278.54c51.21,46.7 106.87,87.01 166.42,121.34 59.83,34.46 116.63,58.82 170.26,73.29 46.43,12.32 82.51,13.39 108.48,3.1 26.04,-10.09 42.26,-28 48.92,-53.16 4.24,-15.95 3.63,-30.96 -1.95,-45.02 -5.25,-14.27 -16.22,-29.95 -32.1,-47.18 -15.95,-17.43 -60.7,-55.92 -133.99,-115.55 -66.02,-54.51 -113.8,-102.9 -142.87,-145.09 -29.07,-42.2 -47.04,-86.68 -53.9,-133.11 -7.07,-46.37 -3.16,-98.19 12.25,-155.19 28.53,-106.53 89.44,-178.94 182.85,-217.77 93.41,-38.9 208.08,-39.97 343.42,-3.97 119.65,32.17 234.33,92.53 343.62,181.23l-160.17 215.55c-94.82,-78.6 -181.57,-128.33 -259.83,-149.33 -40.78,-10.9 -72.14,-11.71 -94.48,-2.49 -22.07,9.22 -36.07,24.63 -41.66,45.56 -6.12,22.68 0.27,46.1 18.71,70.46 18.71,24.09 73.56,73.82 164.74,149.06 87.49,71.54 143.95,138.09 168.85,199.87 24.9,61.85 27.12,131.7 6.19,209.76z"/>
   <path id="5" class="fil12" d="M20013.12 10427.77c-52.02,194.35 -139.24,329.42 -261.72,405.19 -122.48,75.44 -275.65,88.63 -459.64,39.37 -181.23,-48.59 -306.81,-136.68 -376.12,-264.21 -69.65,-127.8 -78.27,-288.84 -25.98,-483.19 51.41,-192.33 138.9,-326.32 262.26,-402.1 123.29,-75.78 276.79,-88.9 460.24,-39.71 183.65,49.26 309.83,136.75 377.74,262.86 67.7,126.11 75.51,286.62 23.22,481.78zm-795.18 -213.06c-59.89,223.43 -12.05,355.93 143.41,397.59 79.07,21.27 145.09,9.83 197.72,-34.39 52.83,-43.88 94.48,-123.56 125.24,-238.5 31.02,-115.21 34.39,-205.79 10.63,-271.21 -24.09,-65.48 -74.7,-108.55 -151.55,-128.94 -156.6,-41.93 -264.81,49.8 -325.45,275.45z"/>
   <path id="6" class="fil12" d="M21096.39 10100.17l349.54 93.68 -688.38 1054.47 -367.44 -98.72 -67.7 -1256.63 351.22 93.95 0.34 628.08c-2.29,138.63 -8.68,234.33 -19.04,286.28 13.39,-36.07 33.24,-79.95 58.95,-132.51 26.04,-52.29 47.58,-93.14 64.34,-122.48l318.18 -546.11z"/>
   <path id="7" class="fil12" d="M22568.64 11112.58c-51.95,194.29 -139.24,329.35 -261.72,405.13 -122.48,75.44 -275.65,88.63 -459.64,39.37 -181.23,-48.59 -306.74,-136.68 -376.12,-264.21 -69.65,-127.8 -78.27,-288.84 -25.98,-483.19 51.41,-192.33 138.9,-326.25 262.26,-402.03 123.29,-75.84 276.79,-88.97 460.24,-39.77 183.72,49.26 309.83,136.75 377.74,262.86 67.77,126.18 75.51,286.62 23.22,481.84zm-795.18 -213.13c-59.89,223.43 -12.05,355.93 143.48,397.59 79.07,21.27 145.02,9.83 197.65,-34.39 52.83,-43.88 94.48,-123.56 125.31,-238.5 30.96,-115.21 34.32,-205.79 10.57,-271.21 -24.02,-65.48 -74.63,-108.48 -151.55,-128.87 -156.6,-41.99 -264.75,49.73 -325.45,275.38z"/>
   <polygon id="8" class="fil12" points="23203.18,11903.38 22891.13,11819.8 23132.19,10919.44 22850.08,10843.66 22918.52,10588.41 23794.25,10823.27 23725.81,11078.6 23444.51,11003.09 "/>
  </g>
  <path class="fil13" d="M5538.99 52794.38l-2236.47 0 0 0 0 0 0 2236.47 319.46 0 0 0 1917.02 0 0 -319.46 -1917.02 0 0 -1597.49 1597.49 0 319.53 -319.53zm0 1278.03l-1277.97 0 -319.53 319.46 1597.49 0 0 -319.46zm0 -639.05l-638.98 0 -319.53 319.53 958.51 0 0 -319.53z"/>
  <path class="fil0" d="M15230.33 9992.63l1818.96 3150.5 -6947.31 -1861.56 665.77 -2484.66 4462.58 1195.73zm3637.79 6300.86l1819.03 3150.63 -11916.78 -3193.1 665.83 -2484.87 9431.91 2527.33zm3638 6301.13l1818.9 3150.43 -16886.17 -4524.63 665.77 -2484.66 14401.51 3858.86z"/>
  <g id="_1423940581792">
   <g>
    <path class="fil11" d="M20376.72 31850.08l-1597.15 -281.57 0 0 0 0 -281.64 1597.09 228.2 40.24 0 0 1368.95 241.39 40.24 -228.2 -1368.95 -241.33 201.15 -1140.81 1140.81 201.15 268.38 -187.96zm-160.97 912.68l-912.61 -160.97 -268.38 187.96 1140.81 201.15 40.18 -228.14zm80.49 -456.34l-456.34 -80.49 -268.38 187.96 684.48 120.66 40.24 -228.14z"/>
    <path class="fil12" d="M21801.46 33533.84l-417.44 -73.49 -284.13 -906.29 -7.27 -1.41c-12.85,132.57 -25.17,232.91 -37.42,301.69l-93.68 531.31 -281.84 -49.8 207.68 -1178.3 415.83 73.22 284.4 894.51 4.98 0.87c13.46,-119.92 26.31,-216.16 39.17,-288.03l93.95 -532.92 283.79 50.07 -208.01 1178.57z"/>
    <path id="1" class="fil12" d="M27530.7 34101.69l-75.78 428.95 -318.18 -56.26 207.68 -1178.3 386.22 67.97c320.2,56.46 459.97,200.75 418.86,432.85 -24.09,136.68 -109.36,230.42 -255.86,281.57l253.04 574.11 -361.25 -63.53 -174.16 -473.1 -80.55 -14.27zm42.26 -239.31l59.56 10.57c111.24,19.58 175.51,-19.85 192.87,-117.97 14.27,-81.43 -33.31,-131.43 -142.33,-150.68l-62.92 -11.24 -47.18 269.32z"/>
    <path id="2" class="fil12" d="M29115.2 34823.32l-18.98 -230.96 -382.78 -67.63 -98.79 210.57 -349.74 -61.85 593.09 -1115.65 424.98 74.9 180.62 1252.12 -348.4 -61.51zm-39.17 -503.78l-16.49 -202.5c-4.17,-45.02 -8.95,-103.17 -13.66,-174.43 -5.05,-71.4 -7.54,-121.94 -7.54,-152.43 -9.83,26.25 -27.19,69.85 -52.56,130.29 -25.51,60.37 -78.87,178.67 -160.23,354.86l250.48 44.21z"/>
    <path id="3" class="fil12" d="M30785.04 35117.94l-417.51 -73.56 -284.06 -906.29 -7.27 -1.41c-12.85,132.57 -25.17,232.98 -37.42,301.76l-93.68 531.24 -281.84 -49.8 207.68 -1178.3 415.83 73.29 284.4 894.44 4.98 0.87c13.39,-119.92 26.25,-216.16 39.17,-288.03l93.95 -532.86 283.79 50 -208.01 1178.64z"/>
    <path id="4" class="fil12" d="M31913 34947.68c-12.92,73.22 -42.8,134.73 -89.77,184.8 -47.31,50.27 -108.48,85 -183.99,103.97 -75.24,19.04 -159.96,20.39 -253.84,3.9 -78.6,-14 -143.54,-31.02 -194.69,-51.41 -51.48,-20.39 -103.44,-49.53 -156.06,-86.95l50.07 -283.86c55.39,41.99 114.14,77.46 176.45,106.53 62.65,29.14 121.4,48.45 176.18,57.88 47.24,8.41 83.38,6.46 108.21,-6.12 24.9,-12.58 39.71,-31.63 44.15,-57.61 2.83,-15.88 0.87,-30.75 -5.85,-44.42 -6.66,-13.73 -18.71,-28.53 -36,-44.21 -17.63,-15.95 -65.48,-50.34 -143.48,-103.5 -70.73,-48.59 -122.55,-92.53 -155.19,-131.97 -32.44,-39.71 -54.24,-82.24 -65.48,-128.07 -11.17,-45.56 -11.44,-97.51 -1.08,-155.72 18.98,-108.48 73.49,-186.21 163.26,-232.91 89.5,-46.7 203.57,-57.88 341.73,-33.58 121.94,21.6 241.26,71.6 358.15,150.48l-140.92 228.41c-101.21,-69.92 -191.86,-111.85 -272.08,-125.78 -41.39,-7.6 -72.68,-5.59 -93.88,5.59 -21.6,11.51 -34.12,27.66 -37.82,49.19 -4.17,22.95 4.24,45.9 24.9,68.24 20.73,22.68 79.68,67.36 177.06,134.46 93.61,63.53 155.39,124.97 185.6,184.33 30.22,59.22 38.29,128.87 24.36,208.35z"/>
    <path id="5" class="fil12" d="M23286.23 33186.46c-34.93,198.26 -110.16,340.32 -225.65,426.39 -115.55,85.87 -267.1,112.39 -454.72,79.48 -184.8,-32.77 -317.3,-109.36 -397.52,-230.69 -80.29,-121.13 -103.23,-280.76 -68.31,-479.02 34.73,-195.97 110.16,-337.16 226.52,-423.36 116.36,-86.34 267.91,-112.92 454.93,-79.95 187.62,33.31 320.74,109.63 399.27,229.28 78.6,119.72 100.41,278.81 65.48,477.87zm-810.93 -143.21c-40.24,227.93 19.04,356 177.53,383.66 80.55,14.27 145.16,-2.76 193.81,-51.08 48.92,-48.72 83.58,-131.43 104.31,-248.59 20.73,-117.77 16.22,-208.08 -13.46,-271.27 -29.61,-63.19 -83.58,-101.48 -162.19,-115.48 -159.29,-27.93 -259.43,72.95 -300.01,302.77z"/>
    <path id="6" class="fil12" d="M24336.6 32765.65l356.47 62.92 -593.89 1110.4 -374.98 -66.29 -176.72 -1246.2 357.95 63.19 55.05 625.46c10.03,138.7 11.98,234.33 5.85,287.16 10.63,-37.15 26.31,-82.78 47.51,-137.29 21.27,-54.24 38.9,-96.97 53.43,-127.8l269.32 -571.55z"/>
    <path id="7" class="fil12" d="M25891.76 33645.89c-34.99,198.19 -110.16,340.25 -225.71,426.39 -115.48,85.87 -267.03,112.39 -454.66,79.41 -184.8,-32.71 -317.37,-109.29 -397.59,-230.63 -80.22,-121.13 -103.23,-280.76 -68.24,-479.02 34.66,-195.97 110.16,-337.22 226.45,-423.36 116.36,-86.34 267.91,-112.92 454.93,-79.95 187.69,33.31 320.8,109.56 399.34,229.28 78.6,119.72 100.41,278.81 65.48,477.87zm-810.93 -143.21c-40.24,227.93 19.04,356 177.53,383.66 80.55,14.27 145.16,-2.76 193.81,-51.15 48.92,-48.66 83.58,-131.43 104.31,-248.59 20.66,-117.7 16.15,-208.01 -13.46,-271.27 -29.61,-63.12 -83.58,-101.42 -162.19,-115.41 -159.36,-28 -259.5,72.95 -300.01,302.77z"/>
    <polygon id="8" class="fil12" points="26592.52,34378.55 26274,34322.36 26435.99,33404.36 26148.22,33353.49 26194.05,33093.12 27087.22,33250.52 27041.32,33511.16 26754.5,33460.56 "/>
   </g>
   <path class="fil0" d="M18483.33 33169.9l2086.6 2979.97 -7083.12 -1248.96 446.65 -2533.32 4549.87 802.31zm4173.07 5959.73l2086.74 2980.17 -12149.69 -2142.33 446.65 -2533.45 9616.3 1695.61zm4173.34 5960.14l2086.6 2979.97 -17216.33 -3035.76 446.72 -2533.25 14683.01 2589.04z"/>
  </g>
  <path class="fil14" d="M24404.77 62208.46l2572.35 2572.35 -7192.41 0 0 -2572.35 4620.06 0zm5144.57 5144.64l2572.49 2572.49 -12337.11 0 0 -2572.49 9764.63 0zm5144.9 5144.84l2572.35 2572.35 -17481.88 0 0 -2572.35 14909.53 0z"/>
 </g>
</svg>
