<?xml version="1.0" encoding="UTF-8"?>
<!DOCTYPE svg PUBLIC "-//W3C//DTD SVG 1.1//EN" "http://www.w3.org/Graphics/SVG/1.1/DTD/svg11.dtd">
<!-- Creator: CorelDRAW 2020 (64-Bit) -->
<svg xmlns="http://www.w3.org/2000/svg" xml:space="preserve" width="90mm" height="120mm" version="1.1" style="shape-rendering:geometricPrecision; text-rendering:geometricPrecision; image-rendering:optimizeQuality; fill-rule:evenodd; clip-rule:evenodd"
viewBox="0 0 4188.78 5585.04"
 xmlns:xlink="http://www.w3.org/1999/xlink"
 xmlns:xodm="http://www.corel.com/coreldraw/odm/2003">
 <defs>
  <style type="text/css">
   <![CDATA[
    .str0 {stroke:#DCDFE0;stroke-width:9.31;stroke-miterlimit:22.9256}
    .fil2 {fill:white}
    .fil3 {fill:#435262}
    .fil0 {fill:#DCDFE0}
    .fil4 {fill:#1CBBEE;fill-rule:nonzero}
    .fil7 {fill:white;fill-rule:nonzero}
    .fil5 {fill:#435262;fill-rule:nonzero}
    .fil6 {fill:#9AA4AD;fill-rule:nonzero}
    .fil1 {fill:gray;fill-opacity:0.431373}
   ]]>
  </style>
 </defs>
 <g id="Layer_x0020_1">
  <metadata id="CorelCorpID_0Corel-Layer"/>
  <rect class="fil0" x="-0" y="-0" width="4188.78" height="5585.05"/>
  <polygon class="fil1" points="588.63,545.52 3214.15,545.52 3214.15,4427.35 588.63,4427.35 "/>
  <rect class="fil2" x="533.38" y="485.05" width="2625.52" height="3878.33"/>
  <polygon class="fil1" points="1276.69,1239.9 3892.22,1468.73 3553.89,5335.78 938.37,5106.95 "/>
  <path class="fil0 str0" d="M1358.29 1186.33l2484.17 217.34 -338.02 3863.57 -2615.53 -228.83 326.52 -3732.2c6.32,-72.27 70.6,-126.2 142.86,-119.88z"/>
  <path class="fil3 str0" d="M1358.3 1186.33l2484.16 217.34 -338.02 3863.57 -2615.53 -228.83 271.59 -3104.25c72.55,6.35 136.51,-47.32 142.86,-119.87 6.35,-72.55 -47.32,-136.52 -119.87,-142.86l31.95 -365.22c6.32,-72.25 70.61,-126.19 142.86,-119.87z"/>
  <g id="_1423878569120">
   <path class="fil4" d="M1002.27 716.94l-109.02 0 0 0 0 0 0 109.02 15.58 0 0 0 93.44 0 0 -15.57 -93.44 0 0 -77.87 77.87 0 15.57 -15.57zm0 62.3l-62.3 0 -15.57 15.57 77.87 0 0 -15.57zm0 -31.15l-31.15 0 -15.57 15.58 46.72 0 0 -15.58z"/>
   <path class="fil5" d="M1116.32 811.78l-28.53 0 -29.4 -56.73 -0.49 0c0.7,8.93 1.04,15.74 1.04,20.43l0 36.3 -19.27 0 0 -80.53 28.42 0 29.29 55.96 0.34 0c-0.53,-8.12 -0.77,-14.62 -0.77,-19.55l0 -36.41 19.38 0 0 80.53z"/>
   <path id="1" class="fil5" d="M1502.18 782.46l0 29.32 -21.75 0 0 -80.53 26.39 0c21.88,0 32.82,7.94 32.82,23.78 0,9.32 -4.55,16.54 -13.65,21.64l23.46 35.11 -24.66 0 -17.09 -29.32 -5.52 0zm0 -16.35l4.08 0c7.61,0 11.43,-3.36 11.43,-10.08 0,-5.54 -3.74,-8.31 -11.21,-8.31l-4.3 0 0 18.38z"/>
   <path id="2" class="fil5" d="M1615.53 811.78l-3.95 -15.11 -26.16 0 -4.06 15.11 -23.91 0 26.26 -80.86 29.02 0 26.59 80.86 -23.8 0zm-8.48 -32.93l-3.46 -13.23c-0.81,-2.93 -1.79,-6.73 -2.95,-11.39 -1.15,-4.68 -1.92,-8.01 -2.28,-10.04 -0.34,1.88 -1,4.96 -1.95,9.27 -0.98,4.29 -3.14,12.76 -6.48,25.39l17.12 0z"/>
   <path id="3" class="fil5" d="M1729.55 811.78l-28.53 0 -29.4 -56.73 -0.49 0c0.7,8.93 1.04,15.74 1.04,20.43l0 36.3 -19.27 0 0 -80.53 28.42 0 29.29 55.96 0.34 0c-0.53,-8.12 -0.77,-14.62 -0.77,-19.55l0 -36.41 19.38 0 0 80.53z"/>
   <path id="4" class="fil5" d="M1802.19 787.34c0,5 -1.26,9.43 -3.8,13.31 -2.54,3.87 -6.18,6.88 -10.96,9.04 -4.78,2.14 -10.38,3.21 -16.79,3.21 -5.36,0 -9.87,-0.37 -13.49,-1.13 -3.63,-0.75 -7.41,-2.07 -11.34,-3.95l0 -19.4c4.14,2.12 8.46,3.78 12.93,4.98 4.47,1.19 8.59,1.79 12.33,1.79 3.23,0 5.6,-0.56 7.11,-1.68 1.5,-1.11 2.25,-2.56 2.25,-4.3 0,-1.11 -0.3,-2.07 -0.92,-2.89 -0.61,-0.83 -1.58,-1.66 -2.91,-2.5 -1.34,-0.85 -4.91,-2.58 -10.71,-5.19 -5.25,-2.39 -9.17,-4.7 -11.81,-6.93 -2.61,-2.24 -4.57,-4.81 -5.83,-7.71 -1.26,-2.89 -1.9,-6.33 -1.9,-10.3 0,-7.41 2.69,-13.2 8.08,-17.35 5.39,-4.16 12.82,-6.22 22.26,-6.22 8.33,0 16.82,1.92 25.49,5.77l-6.66 16.76c-7.54,-3.44 -14.02,-5.17 -19.49,-5.17 -2.82,0 -4.89,0.51 -6.16,1.5 -1.3,1 -1.94,2.23 -1.94,3.7 0,1.58 0.82,3.01 2.46,4.25 1.63,1.24 6.05,3.51 13.29,6.82 6.93,3.12 11.75,6.49 14.46,10.06 2.69,3.59 4.04,8.08 4.04,13.52z"/>
   <path id="5" class="fil5" d="M1210.55 771.42c0,13.55 -3.31,23.85 -9.96,30.9 -6.63,7.05 -16.37,10.58 -29.19,10.58 -12.63,0 -22.31,-3.55 -29.06,-10.64 -6.73,-7.08 -10.09,-17.4 -10.09,-30.94 0,-13.4 3.35,-23.65 10.05,-30.71 6.69,-7.07 16.43,-10.6 29.21,-10.6 12.82,0 22.52,3.51 29.14,10.52 6.61,7.01 9.9,17.31 9.9,30.89zm-55.39 -0.02c0,15.56 5.41,23.35 16.24,23.35 5.51,0 9.61,-1.9 12.26,-5.68 2.67,-3.77 4,-9.66 4,-17.67 0,-8.05 -1.35,-13.99 -4.06,-17.82 -2.69,-3.84 -6.73,-5.75 -12.08,-5.75 -10.9,0 -16.35,7.86 -16.35,23.57z"/>
   <path id="6" class="fil5" d="M1275.17 731.25l24.34 0 -26.39 80.53 -25.6 0 -26.28 -80.53 24.45 0 10.96 40.81c2.28,9.08 3.53,15.4 3.76,18.95 0.24,-2.56 0.77,-5.77 1.54,-9.62 0.77,-3.87 1.45,-6.9 2.03,-9.09l11.18 -41.04z"/>
   <path id="7" class="fil5" d="M1388.4 771.42c0,13.55 -3.31,23.85 -9.96,30.9 -6.63,7.05 -16.37,10.58 -29.19,10.58 -12.63,0 -22.31,-3.55 -29.06,-10.64 -6.73,-7.08 -10.09,-17.4 -10.09,-30.94 0,-13.4 3.35,-23.65 10.05,-30.71 6.69,-7.07 16.43,-10.6 29.21,-10.6 12.82,0 22.52,3.51 29.14,10.52 6.61,7.01 9.9,17.31 9.9,30.89zm-55.39 -0.02c0,15.56 5.41,23.35 16.24,23.35 5.51,0 9.61,-1.9 12.26,-5.68 2.67,-3.77 4,-9.66 4,-17.67 0,-8.05 -1.35,-13.99 -4.06,-17.82 -2.69,-3.84 -6.73,-5.75 -12.08,-5.75 -10.9,0 -16.35,7.86 -16.35,23.57z"/>
   <polygon id="8" class="fil5" points="1443.33,811.78 1421.58,811.78 1421.58,749.07 1401.9,749.07 1401.9,731.25 1462.95,731.25 1462.95,749.07 1443.33,749.07 "/>
  </g>
  <polygon class="fil6" points="2525.16,748.56 2518.73,748.56 2506.23,728.05 2506.23,748.56 2499.81,748.56 2499.81,717.38 2506.23,717.38 2518.75,737.94 2518.75,717.38 2525.16,717.38 "/>
  <path id="1" class="fil6" d="M2556.38 733.68c0,3.07 -0.55,5.76 -1.63,8.08 -1.09,2.32 -2.64,4.1 -4.66,5.36 -2.02,1.26 -4.34,1.88 -6.95,1.88 -2.59,0 -4.89,-0.62 -6.92,-1.86 -2.03,-1.24 -3.6,-3.02 -4.71,-5.33 -1.11,-2.3 -1.68,-4.96 -1.69,-7.96l0 -1.55c0,-3.07 0.55,-5.77 1.66,-8.11 1.1,-2.33 2.67,-4.12 4.68,-5.37 2.02,-1.25 4.34,-1.88 6.93,-1.88 2.6,0 4.91,0.63 6.93,1.88 2.02,1.25 3.58,3.04 4.69,5.37 1.11,2.34 1.67,5.04 1.67,8.09l0 1.4zm-6.51 -1.41c0,-3.28 -0.59,-5.76 -1.75,-7.47 -1.18,-1.7 -2.84,-2.55 -5.02,-2.55 -2.15,0 -3.82,0.84 -4.99,2.52 -1.17,1.68 -1.76,4.14 -1.78,7.39l0 1.52c0,3.19 0.59,5.67 1.76,7.42 1.17,1.76 2.85,2.63 5.05,2.63 2.15,0 3.81,-0.85 4.97,-2.54 1.15,-1.69 1.74,-4.16 1.75,-7.4l0 -1.53z"/>
  <polygon id="2" class="fil6" points="2572.1,740.83 2579.16,717.38 2586.32,717.38 2575.46,748.56 2568.76,748.56 2557.95,717.38 2565.08,717.38 "/>
  <path id="3" class="fil6" d="M2614.58 733.68c0,3.07 -0.55,5.76 -1.63,8.08 -1.09,2.32 -2.64,4.1 -4.66,5.36 -2.02,1.26 -4.34,1.88 -6.95,1.88 -2.59,0 -4.89,-0.62 -6.92,-1.86 -2.03,-1.24 -3.6,-3.02 -4.71,-5.33 -1.11,-2.3 -1.68,-4.96 -1.69,-7.96l0 -1.55c0,-3.07 0.55,-5.77 1.66,-8.11 1.1,-2.33 2.67,-4.12 4.68,-5.37 2.02,-1.25 4.34,-1.88 6.93,-1.88 2.6,0 4.91,0.63 6.93,1.88 2.02,1.25 3.58,3.04 4.69,5.37 1.11,2.34 1.67,5.04 1.67,8.09l0 1.4zm-6.51 -1.41c0,-3.28 -0.59,-5.76 -1.75,-7.47 -1.18,-1.7 -2.84,-2.55 -5.02,-2.55 -2.15,0 -3.82,0.84 -4.99,2.52 -1.17,1.68 -1.76,4.14 -1.78,7.39l0 1.52c0,3.19 0.59,5.67 1.76,7.42 1.17,1.76 2.85,2.63 5.05,2.63 2.15,0 3.81,-0.85 4.97,-2.54 1.15,-1.69 1.74,-4.16 1.75,-7.4l0 -1.53z"/>
  <polygon id="4" class="fil6" points="2640.91,722.6 2631.36,722.6 2631.36,748.56 2624.93,748.56 2624.93,722.6 2615.51,722.6 2615.51,717.38 2640.91,717.38 "/>
  <path id="5" class="fil6" d="M2656.11 737.16l-5.12 0 0 11.4 -6.42 0 0 -31.18 11.58 0c3.69,0 6.53,0.82 8.52,2.47 2.01,1.64 3,3.96 3,6.96 0,2.13 -0.46,3.9 -1.38,5.32 -0.92,1.42 -2.31,2.56 -4.18,3.4l6.75 12.73 0 0.3 -6.9 0 -5.85 -11.4zm-5.12 -5.22l5.18 0c1.62,0 2.86,-0.41 3.75,-1.23 0.88,-0.82 1.33,-1.95 1.33,-3.39 0,-1.47 -0.42,-2.62 -1.26,-3.46 -0.83,-0.84 -2.11,-1.26 -3.84,-1.26l-5.16 0 0 9.34z"/>
  <path id="6" class="fil6" d="M2690.16 742.16l-11.26 0 -2.14 6.4 -6.83 0 11.6 -31.18 5.96 0 11.67 31.18 -6.83 0 -2.16 -6.4zm-9.53 -5.22l7.8 0 -3.92 -11.68 -3.88 11.68z"/>
  <polygon id="7" class="fil6" points="2727.41,748.56 2720.99,748.56 2708.49,728.05 2708.49,748.56 2702.06,748.56 2702.06,717.38 2708.49,717.38 2721.01,737.94 2721.01,717.38 2727.41,717.38 "/>
  <path id="8" class="fil6" d="M2749.21 740.39c0,-1.21 -0.43,-2.15 -1.29,-2.8 -0.85,-0.64 -2.4,-1.33 -4.63,-2.05 -2.23,-0.72 -3.99,-1.43 -5.29,-2.13 -3.54,-1.92 -5.31,-4.5 -5.31,-7.74 0,-1.68 0.47,-3.19 1.42,-4.51 0.94,-1.33 2.31,-2.36 4.09,-3.1 1.78,-0.74 3.77,-1.11 5.99,-1.11 2.23,0 4.21,0.4 5.95,1.21 1.75,0.8 3.1,1.94 4.06,3.41 0.96,1.48 1.44,3.14 1.44,5.02l-6.41 0c0,-1.43 -0.46,-2.53 -1.35,-3.33 -0.9,-0.79 -2.16,-1.18 -3.79,-1.18 -1.56,0 -2.78,0.33 -3.66,0.99 -0.87,0.67 -1.3,1.54 -1.3,2.63 0,1.01 0.51,1.87 1.53,2.56 1.02,0.68 2.52,1.32 4.51,1.92 3.65,1.1 6.32,2.46 7.99,4.09 1.67,1.63 2.5,3.65 2.5,6.08 0,2.69 -1.01,4.82 -3.06,6.35 -2.04,1.53 -4.78,2.3 -8.24,2.3 -2.4,0 -4.58,-0.44 -6.55,-1.31 -1.97,-0.88 -3.47,-2.09 -4.51,-3.61 -1.03,-1.53 -1.55,-3.3 -1.55,-5.32l6.45 0c0,3.43 2.05,5.15 6.17,5.15 1.52,0 2.72,-0.31 3.57,-0.93 0.86,-0.62 1.29,-1.49 1.29,-2.6z"/>
  <path id="9" class="fil6" d="M2795.57 744.63c-1.15,1.39 -2.78,2.46 -4.91,3.23 -2.11,0.77 -4.45,1.14 -7.01,1.14 -2.7,0 -5.07,-0.59 -7.11,-1.77 -2.03,-1.18 -3.6,-2.89 -4.71,-5.13 -1.11,-2.24 -1.68,-4.88 -1.7,-7.91l0 -2.12c0,-3.11 0.53,-5.81 1.57,-8.09 1.05,-2.28 2.56,-4.02 4.54,-5.22 1.98,-1.21 4.3,-1.82 6.95,-1.82 3.7,0 6.59,0.88 8.68,2.65 2.08,1.76 3.32,4.32 3.7,7.69l-6.25 0c-0.28,-1.78 -0.92,-3.1 -1.89,-3.92 -0.98,-0.83 -2.33,-1.24 -4.04,-1.24 -2.18,0 -3.84,0.82 -4.98,2.46 -1.14,1.65 -1.73,4.09 -1.73,7.33l0 1.99c0,3.27 0.61,5.74 1.86,7.42 1.24,1.67 3.06,2.5 5.46,2.5 2.42,0 4.14,-0.51 5.17,-1.54l0 -5.39 -5.85 0 0 -4.73 12.26 0 0 12.46z"/>
  <path id="10" class="fil6" d="M2813.4 731.19c-0.84,-0.11 -1.58,-0.17 -2.22,-0.17 -2.35,0 -3.88,0.79 -4.61,2.37l0 15.17 -6.19 0 0 -23.15 5.85 0 0.17 2.75c1.24,-2.13 2.96,-3.19 5.16,-3.19 0.69,0 1.33,0.1 1.93,0.28l-0.09 5.94z"/>
  <path id="11" class="fil6" d="M2814.62 736.77c0,-2.3 0.44,-4.35 1.33,-6.15 0.88,-1.8 2.16,-3.19 3.83,-4.18 1.66,-0.99 3.59,-1.48 5.79,-1.48 3.13,0 5.68,0.96 7.66,2.88 1.97,1.91 3.08,4.51 3.3,7.79l0.05 1.59c0,3.56 -1,6.41 -2.97,8.56 -1.99,2.15 -4.65,3.22 -7.99,3.22 -3.34,0 -6.01,-1.08 -8,-3.22 -2,-2.14 -2.99,-5.05 -2.99,-8.74l0 -0.27zm6.19 0.44c0,2.2 0.41,3.88 1.24,5.05 0.82,1.16 2.01,1.75 3.55,1.75 1.5,0 2.67,-0.58 3.51,-1.73 0.85,-1.14 1.27,-2.99 1.27,-5.52 0,-2.16 -0.42,-3.83 -1.27,-5.02 -0.84,-1.18 -2.02,-1.77 -3.55,-1.77 -1.52,0 -2.69,0.59 -3.51,1.77 -0.83,1.18 -1.24,3 -1.24,5.47z"/>
  <path id="12" class="fil6" d="M2854.28 746.22c-1.53,1.86 -3.64,2.78 -6.33,2.78 -2.49,0 -4.38,-0.72 -5.69,-2.14 -1.31,-1.42 -1.97,-3.51 -2,-6.27l0 -15.18 6.19 0 0 14.98c0,2.41 1.09,3.62 3.3,3.62 2.1,0 3.54,-0.73 4.33,-2.19l0 -16.41 6.2 0 0 23.15 -5.83 0 -0.17 -2.35z"/>
  <path id="13" class="fil6" d="M2885.8 737.2c0,3.57 -0.81,6.43 -2.43,8.58 -1.62,2.15 -3.81,3.22 -6.57,3.22 -2.34,0 -4.23,-0.81 -5.67,-2.44l0 10.9 -6.19 0 0 -32.06 5.74 0 0.22 2.27c1.5,-1.81 3.45,-2.71 5.87,-2.71 2.85,0 5.07,1.06 6.66,3.17 1.58,2.11 2.38,5.02 2.38,8.74l0 0.32zm-6.19 -0.47c0,-2.16 -0.38,-3.83 -1.14,-5 -0.76,-1.18 -1.87,-1.76 -3.33,-1.76 -1.94,0 -3.27,0.74 -4,2.23l0 9.51c0.75,1.53 2.1,2.29 4.05,2.29 2.95,0 4.43,-2.42 4.43,-7.27z"/>
  <polygon id="14" class="fil6" points="2417.57,797.82 2432.34,797.82 2432.34,801.2 2413.43,801.2 2413.43,770.01 2417.57,770.01 "/>
  <path id="15" class="fil6" d="M2446.03 801.64c-3.14,0 -5.7,-1.03 -7.67,-3.09 -1.96,-2.07 -2.95,-4.83 -2.95,-8.28l0 -0.74c0,-2.29 0.44,-4.35 1.31,-6.15 0.88,-1.81 2.11,-3.22 3.69,-4.24 1.58,-1.02 3.29,-1.54 5.13,-1.54 3.02,0 5.35,1 7.03,2.98 1.67,1.99 2.5,4.83 2.5,8.53l0 1.65 -15.7 0c0.06,2.28 0.72,4.12 2,5.53 1.28,1.4 2.9,2.1 4.88,2.1 1.4,0 2.58,-0.28 3.55,-0.86 0.97,-0.57 1.82,-1.32 2.55,-2.26l2.42 1.88c-1.95,2.98 -4.86,4.47 -8.74,4.47zm-0.49 -20.79c-1.6,0 -2.94,0.58 -4.03,1.75 -1.08,1.17 -1.75,2.81 -2.01,4.91l11.61 0 0 -0.3c-0.12,-2.02 -0.66,-3.59 -1.63,-4.7 -0.97,-1.11 -2.29,-1.67 -3.94,-1.67z"/>
  <path id="16" class="fil6" d="M2463.4 778.04l0.13 2.9c1.77,-2.23 4.09,-3.34 6.93,-3.34 4.9,0 7.37,2.76 7.41,8.29l0 15.31 -3.96 0 0 -15.32c-0.02,-1.67 -0.4,-2.9 -1.15,-3.7 -0.74,-0.8 -1.92,-1.2 -3.5,-1.2 -1.28,0 -2.42,0.34 -3.38,1.02 -0.97,0.68 -1.73,1.59 -2.27,2.69l0 16.5 -3.97 0 0 -23.15 3.75 0z"/>
  <path id="17" class="fil6" d="M2488.16 801.2l-3.96 0 0 -23.15 3.96 0 0 23.15zm-4.28 -29.32c0,-0.64 0.2,-1.19 0.59,-1.64 0.4,-0.45 0.98,-0.67 1.75,-0.67 0.78,0 1.36,0.22 1.75,0.67 0.4,0.45 0.6,1 0.6,1.64 0,0.64 -0.2,1.18 -0.6,1.62 -0.4,0.43 -0.98,0.64 -1.75,0.64 -0.77,0 -1.35,-0.21 -1.75,-0.64 -0.39,-0.43 -0.59,-0.97 -0.59,-1.62z"/>
  <path id="18" class="fil6" d="M2498.25 778.04l0.13 2.9c1.77,-2.23 4.09,-3.34 6.93,-3.34 4.9,0 7.37,2.76 7.41,8.29l0 15.31 -3.96 0 0 -15.32c-0.02,-1.67 -0.4,-2.9 -1.15,-3.7 -0.74,-0.8 -1.92,-1.2 -3.5,-1.2 -1.28,0 -2.42,0.34 -3.38,1.02 -0.97,0.68 -1.73,1.59 -2.27,2.69l0 16.5 -3.97 0 0 -23.15 3.75 0z"/>
  <path id="19" class="fil6" d="M2517.75 789.43c0,-3.62 0.83,-6.49 2.51,-8.62 1.67,-2.13 3.88,-3.2 6.64,-3.2 2.83,0 5.04,1.01 6.61,3l0.2 -2.56 3.62 0 0 22.6c0,3 -0.89,5.36 -2.67,7.09 -1.78,1.73 -4.17,2.59 -7.16,2.59 -1.67,0 -3.3,-0.36 -4.91,-1.07 -1.59,-0.72 -2.82,-1.69 -3.66,-2.93l2.06 -2.37c1.69,2.08 3.77,3.13 6.23,3.13 1.93,0 3.43,-0.54 4.51,-1.62 1.08,-1.08 1.62,-2.61 1.62,-4.57l0 -1.99c-1.59,1.83 -3.75,2.74 -6.49,2.74 -2.71,0 -4.91,-1.09 -6.59,-3.27 -1.68,-2.19 -2.52,-5.17 -2.52,-8.94zm3.98 0.45c0,2.61 0.54,4.66 1.61,6.15 1.07,1.49 2.56,2.24 4.5,2.24 2.5,0 4.33,-1.14 5.5,-3.4l0 -10.57c-1.21,-2.21 -3.03,-3.31 -5.46,-3.31 -1.93,0 -3.43,0.74 -4.52,2.24 -1.09,1.5 -1.63,3.71 -1.63,6.65z"/>
  <path id="20" class="fil6" d="M2554.49 781.57c-0.6,-0.1 -1.25,-0.15 -1.94,-0.15 -2.61,0 -4.37,1.1 -5.29,3.32l0 16.46 -3.97 0 0 -23.15 3.85 0 0.07 2.67c1.3,-2.07 3.14,-3.11 5.52,-3.11 0.78,0 1.36,0.1 1.75,0.3l0 3.67z"/>
  <path id="21" class="fil6" d="M2571.58 801.2c-0.22,-0.45 -0.41,-1.27 -0.55,-2.43 -1.84,1.91 -4.04,2.87 -6.6,2.87 -2.29,0 -4.16,-0.64 -5.62,-1.94 -1.46,-1.29 -2.19,-2.93 -2.19,-4.91 0,-2.42 0.91,-4.29 2.75,-5.62 1.83,-1.34 4.42,-2 7.74,-2l3.85 0 0 -1.82c0,-1.38 -0.41,-2.49 -1.24,-3.31 -0.83,-0.82 -2.05,-1.23 -3.66,-1.23 -1.42,0 -2.6,0.36 -3.56,1.07 -0.96,0.72 -1.43,1.58 -1.43,2.59l-3.98 0c0,-1.16 0.41,-2.28 1.23,-3.36 0.82,-1.08 1.94,-1.93 3.35,-2.56 1.41,-0.63 2.95,-0.94 4.64,-0.94 2.67,0 4.76,0.67 6.27,2.01 1.51,1.33 2.3,3.17 2.36,5.51l0 10.66c0,2.13 0.28,3.82 0.82,5.07l0 0.34 -4.16 0zm-6.57 -2.94c1.24,0 2.42,-0.32 3.53,-0.97 1.12,-0.64 1.92,-1.49 2.42,-2.52l0 -4.79 -3.1 0c-4.85,0 -7.28,1.43 -7.28,4.3 0,1.25 0.41,2.23 1.23,2.93 0.83,0.71 1.89,1.06 3.19,1.06z"/>
  <path id="22" class="fil6" d="M2580.17 789.43c0,-3.56 0.85,-6.41 2.53,-8.58 1.69,-2.16 3.89,-3.25 6.61,-3.25 2.72,0 4.86,0.93 6.45,2.79l0 -12.08 3.97 0 0 32.89 -3.64 0 -0.19 -2.48c-1.59,1.94 -3.79,2.91 -6.62,2.91 -2.69,0 -4.87,-1.09 -6.56,-3.3 -1.69,-2.2 -2.54,-5.07 -2.54,-8.61l0 -0.3zm3.96 0.45c0,2.62 0.55,4.68 1.63,6.16 1.09,1.48 2.59,2.22 4.5,2.22 2.51,0 4.35,-1.13 5.5,-3.38l0 -10.63c-1.18,-2.19 -3,-3.28 -5.46,-3.28 -1.94,0 -3.45,0.74 -4.54,2.24 -1.08,1.5 -1.63,3.71 -1.63,6.65z"/>
  <path id="23" class="fil6" d="M2619.38 795.05c0,-1.07 -0.4,-1.9 -1.21,-2.49 -0.81,-0.59 -2.21,-1.1 -4.22,-1.54 -2.01,-0.42 -3.6,-0.94 -4.78,-1.54 -1.18,-0.6 -2.05,-1.31 -2.61,-2.14 -0.57,-0.83 -0.85,-1.82 -0.85,-2.96 0,-1.9 0.81,-3.5 2.41,-4.82 1.61,-1.31 3.66,-1.97 6.16,-1.97 2.62,0 4.76,0.68 6.39,2.03 1.63,1.36 2.45,3.09 2.45,5.2l-3.98 0c0,-1.09 -0.46,-2.02 -1.38,-2.81 -0.92,-0.78 -2.09,-1.18 -3.48,-1.18 -1.45,0 -2.57,0.31 -3.38,0.94 -0.82,0.63 -1.22,1.45 -1.22,2.47 0,0.95 0.38,1.67 1.13,2.16 0.76,0.48 2.13,0.95 4.1,1.39 1.98,0.45 3.58,0.97 4.81,1.59 1.23,0.61 2.14,1.36 2.73,2.22 0.59,0.86 0.89,1.92 0.89,3.16 0,2.07 -0.83,3.73 -2.49,4.98 -1.65,1.25 -3.8,1.88 -6.45,1.88 -1.86,0 -3.5,-0.33 -4.93,-0.99 -1.42,-0.66 -2.54,-1.57 -3.35,-2.75 -0.81,-1.18 -1.21,-2.46 -1.21,-3.83l3.96 0c0.07,1.33 0.61,2.38 1.6,3.15 0.99,0.78 2.3,1.16 3.93,1.16 1.5,0 2.7,-0.3 3.61,-0.91 0.9,-0.61 1.36,-1.41 1.36,-2.43z"/>
  <polygon id="24" class="fil6" points="2634.96,790.47 2632.47,793.06 2632.47,801.2 2628.51,801.2 2628.51,768.31 2632.47,768.31 2632.47,788.21 2634.59,785.66 2641.8,778.04 2646.63,778.04 2637.61,787.71 2647.67,801.2 2643.03,801.2 "/>
  <path id="25" class="fil6" d="M2655.03 801.2l-3.96 0 0 -23.15 3.96 0 0 23.15zm-4.28 -29.32c0,-0.64 0.2,-1.19 0.59,-1.64 0.4,-0.45 0.98,-0.67 1.75,-0.67 0.78,0 1.36,0.22 1.75,0.67 0.4,0.45 0.6,1 0.6,1.64 0,0.64 -0.2,1.18 -0.6,1.62 -0.4,0.43 -0.98,0.64 -1.75,0.64 -0.77,0 -1.35,-0.21 -1.75,-0.64 -0.39,-0.43 -0.59,-0.97 -0.59,-1.62z"/>
  <path id="26" class="fil6" d="M2668.94 795.39l5.39 -17.35 4.24 0 -9.31 26.72c-1.45,3.85 -3.74,5.78 -6.88,5.78l-0.74 -0.07 -1.48 -0.28 0 -3.21 1.07 0.09c1.35,0 2.39,-0.27 3.13,-0.81 0.75,-0.54 1.37,-1.53 1.86,-2.97l0.88 -2.35 -8.27 -22.9 4.32 0 5.79 17.35z"/>
  <path id="27" class="fil6" d="M2712.54 789.87c0,3.53 -0.81,6.37 -2.42,8.52 -1.62,2.16 -3.8,3.24 -6.56,3.24 -2.81,0 -5.02,-0.89 -6.64,-2.68l0 11.14 -3.96 0 0 -32.06 3.62 0 0.2 2.56c1.61,-1.99 3.85,-3 6.72,-3 2.78,0 4.99,1.06 6.61,3.15 1.62,2.1 2.43,5.02 2.43,8.76l0 0.36zm-3.97 -0.45c0,-2.61 -0.55,-4.67 -1.67,-6.18 -1.11,-1.51 -2.64,-2.27 -4.58,-2.27 -2.4,0 -4.19,1.06 -5.39,3.19l0 11.06c1.19,2.11 3,3.16 5.44,3.16 1.9,0 3.41,-0.75 4.53,-2.26 1.12,-1.51 1.68,-3.74 1.68,-6.71z"/>
  <path id="28" class="fil6" d="M2728.76 781.57c-0.6,-0.1 -1.25,-0.15 -1.94,-0.15 -2.61,0 -4.37,1.1 -5.29,3.32l0 16.46 -3.97 0 0 -23.15 3.85 0 0.07 2.67c1.3,-2.07 3.14,-3.11 5.52,-3.11 0.78,0 1.36,0.1 1.75,0.3l0 3.67z"/>
  <polygon id="29" class="fil6" points="2740.65,789.58 2730.2,789.58 2730.2,786.33 2740.65,786.33 "/>
  <path id="30" class="fil6" d="M2749.89 772.43l0 5.61 4.32 0 0 3.07 -4.32 0 0 14.36c0,0.93 0.19,1.62 0.58,2.09 0.38,0.46 1.04,0.7 1.97,0.7 0.46,0 1.09,-0.09 1.88,-0.26l0 3.21c-1.04,0.28 -2.05,0.42 -3.04,0.42 -1.77,0 -3.11,-0.53 -4.01,-1.61 -0.9,-1.07 -1.35,-2.59 -1.35,-4.56l0 -14.36 -4.23 0 0 -3.07 4.23 0 0 -5.61 3.96 0z"/>
  <path id="31" class="fil6" d="M2786.01 790.72l4.32 0 0 3.24 -4.32 0 0 7.24 -3.98 0 0 -7.24 -14.2 0 0 -2.35 13.96 -21.6 4.23 0 0 20.7zm-13.68 0l9.7 0 0 -15.28 -0.47 0.86 -9.22 14.43z"/>
  <path id="32" class="fil6" d="M2810.63 790.72l4.32 0 0 3.24 -4.32 0 0 7.24 -3.98 0 0 -7.24 -14.2 0 0 -2.35 13.96 -21.6 4.23 0 0 20.7zm-13.68 0l9.7 0 0 -15.28 -0.47 0.86 -9.22 14.43z"/>
  <path id="33" class="fil6" d="M2836.77 793.04l-13.07 0 -2.93 8.16 -4.24 0 11.91 -31.18 3.59 0 11.93 31.18 -4.22 0 -2.97 -8.16zm-11.83 -3.37l10.61 0 -5.32 -14.58 -5.29 14.58z"/>
  <polygon id="34" class="fil6" points="2848.34,803.87 2844.93,803.87 2857.95,770.01 2861.33,770.01 "/>
  <path id="35" class="fil6" d="M2870.98 783.7l2.97 0c1.87,-0.03 3.34,-0.53 4.41,-1.48 1.08,-0.95 1.61,-2.26 1.61,-3.89 0,-3.67 -1.82,-5.51 -5.46,-5.51 -1.71,0 -3.08,0.49 -4.1,1.47 -1.02,0.98 -1.54,2.28 -1.54,3.9l-3.96 0c0,-2.47 0.9,-4.52 2.7,-6.16 1.81,-1.63 4.1,-2.45 6.89,-2.45 2.94,0 5.25,0.78 6.91,2.34 1.68,1.56 2.51,3.73 2.51,6.5 0,1.36 -0.44,2.68 -1.32,3.95 -0.87,1.28 -2.08,2.23 -3.59,2.86 1.72,0.54 3.04,1.44 3.98,2.7 0.94,1.25 1.4,2.78 1.4,4.6 0,2.79 -0.92,5.01 -2.74,6.65 -1.83,1.64 -4.2,2.46 -7.13,2.46 -2.92,0 -5.31,-0.79 -7.14,-2.37 -1.83,-1.59 -2.76,-3.68 -2.76,-6.28l3.98 0c0,1.64 0.54,2.95 1.61,3.93 1.08,0.99 2.51,1.48 4.31,1.48 1.92,0 3.38,-0.5 4.39,-1.5 1.01,-1 1.52,-2.42 1.52,-4.29 0,-1.81 -0.56,-3.19 -1.68,-4.16 -1.11,-0.97 -2.72,-1.47 -4.82,-1.49l-2.97 0 0 -3.25z"/>
  <polygon id="36" class="fil6" points="2172.32,822.65 2182.51,848.09 2192.71,822.65 2198.04,822.65 2198.04,853.83 2193.93,853.83 2193.93,841.69 2194.31,828.58 2184.08,853.83 2180.93,853.83 2170.72,828.64 2171.13,841.69 2171.13,853.83 2167.01,853.83 2167.01,822.65 "/>
  <path id="37" class="fil6" d="M2203.62 842.04c0,-2.28 0.45,-4.31 1.34,-6.12 0.89,-1.82 2.14,-3.22 3.73,-4.2 1.59,-0.99 3.41,-1.48 5.45,-1.48 3.16,0 5.71,1.09 7.66,3.28 1.95,2.19 2.92,5.1 2.92,8.72l0 0.27c0,2.26 -0.43,4.29 -1.29,6.07 -0.87,1.79 -2.1,3.19 -3.71,4.19 -1.6,1 -3.45,1.5 -5.53,1.5 -3.15,0 -5.69,-1.09 -7.63,-3.27 -1.95,-2.19 -2.92,-5.08 -2.92,-8.68l0 -0.27zm3.98 0.46c0,2.56 0.59,4.63 1.78,6.19 1.19,1.55 2.79,2.33 4.79,2.33 2.01,0 3.61,-0.79 4.79,-2.37 1.18,-1.58 1.77,-3.78 1.77,-6.63 0,-2.55 -0.6,-4.6 -1.8,-6.18 -1.21,-1.58 -2.81,-2.37 -4.81,-2.37 -1.95,0 -3.53,0.77 -4.73,2.33 -1.2,1.55 -1.8,3.78 -1.8,6.69z"/>
  <path id="38" class="fil6" d="M2243.19 847.68c0,-1.07 -0.4,-1.9 -1.21,-2.49 -0.81,-0.59 -2.21,-1.1 -4.22,-1.54 -2.01,-0.42 -3.6,-0.94 -4.78,-1.54 -1.18,-0.6 -2.05,-1.31 -2.61,-2.14 -0.57,-0.83 -0.85,-1.82 -0.85,-2.96 0,-1.9 0.81,-3.5 2.41,-4.82 1.61,-1.31 3.66,-1.97 6.16,-1.97 2.62,0 4.76,0.68 6.39,2.03 1.63,1.36 2.45,3.09 2.45,5.2l-3.98 0c0,-1.09 -0.46,-2.02 -1.38,-2.81 -0.92,-0.78 -2.09,-1.18 -3.48,-1.18 -1.45,0 -2.57,0.31 -3.38,0.94 -0.82,0.63 -1.22,1.45 -1.22,2.47 0,0.95 0.38,1.67 1.13,2.16 0.76,0.48 2.13,0.95 4.1,1.39 1.98,0.45 3.58,0.97 4.81,1.59 1.23,0.61 2.14,1.36 2.73,2.22 0.59,0.86 0.89,1.92 0.89,3.16 0,2.07 -0.83,3.73 -2.49,4.98 -1.65,1.25 -3.8,1.88 -6.45,1.88 -1.86,0 -3.5,-0.33 -4.93,-0.99 -1.42,-0.66 -2.54,-1.57 -3.35,-2.75 -0.81,-1.18 -1.21,-2.46 -1.21,-3.83l3.96 0c0.07,1.33 0.61,2.38 1.6,3.15 0.99,0.78 2.3,1.16 3.93,1.16 1.5,0 2.7,-0.3 3.61,-0.91 0.9,-0.61 1.36,-1.41 1.36,-2.43z"/>
  <path id="39" class="fil6" d="M2261.58 851.03c1.42,0 2.66,-0.42 3.71,-1.28 1.06,-0.86 1.64,-1.92 1.75,-3.21l3.75 0c-0.07,1.33 -0.53,2.59 -1.36,3.79 -0.85,1.2 -1.97,2.15 -3.38,2.87 -1.41,0.71 -2.89,1.07 -4.47,1.07 -3.15,0 -5.66,-1.05 -7.53,-3.16 -1.86,-2.11 -2.79,-4.99 -2.79,-8.65l0 -0.67c0,-2.25 0.41,-4.26 1.24,-6.02 0.82,-1.75 2.02,-3.12 3.57,-4.09 1.55,-0.97 3.38,-1.46 5.49,-1.46 2.6,0 4.76,0.78 6.48,2.33 1.72,1.56 2.63,3.58 2.75,6.06l-3.75 0c-0.11,-1.5 -0.68,-2.73 -1.7,-3.7 -1.02,-0.97 -2.28,-1.45 -3.78,-1.45 -2.01,0 -3.57,0.72 -4.68,2.17 -1.11,1.46 -1.66,3.55 -1.66,6.29l0 0.75c0,2.67 0.55,4.73 1.65,6.17 1.1,1.44 2.67,2.16 4.71,2.16z"/>
  <path id="40" class="fil6" d="M2274.21 842.04c0,-2.28 0.45,-4.31 1.34,-6.12 0.89,-1.82 2.14,-3.22 3.73,-4.2 1.59,-0.99 3.41,-1.48 5.45,-1.48 3.16,0 5.71,1.09 7.66,3.28 1.95,2.19 2.92,5.1 2.92,8.72l0 0.27c0,2.26 -0.43,4.29 -1.29,6.07 -0.87,1.79 -2.1,3.19 -3.71,4.19 -1.6,1 -3.45,1.5 -5.53,1.5 -3.15,0 -5.69,-1.09 -7.63,-3.27 -1.95,-2.19 -2.92,-5.08 -2.92,-8.68l0 -0.27zm3.98 0.46c0,2.56 0.59,4.63 1.78,6.19 1.19,1.55 2.79,2.33 4.79,2.33 2.01,0 3.61,-0.79 4.79,-2.37 1.18,-1.58 1.77,-3.78 1.77,-6.63 0,-2.55 -0.6,-4.6 -1.8,-6.18 -1.21,-1.58 -2.81,-2.37 -4.81,-2.37 -1.95,0 -3.53,0.77 -4.73,2.33 -1.2,1.55 -1.8,3.78 -1.8,6.69z"/>
  <polygon id="41" class="fil6" points="2320.77,848.37 2325.23,830.68 2329.19,830.68 2322.45,853.83 2319.24,853.83 2313.6,836.28 2308.12,853.83 2304.91,853.83 2298.18,830.68 2302.13,830.68 2306.69,848.01 2312.08,830.68 2315.27,830.68 "/>
  <path id="42" class="fil6" d="M2330.45 860.06l-2.25 -1.54c1.35,-1.88 2.04,-3.81 2.1,-5.8l0 -3.58 3.88 0 0 3.11c0,1.44 -0.35,2.89 -1.06,4.33 -0.7,1.44 -1.6,2.61 -2.66,3.48z"/>
  <path id="43" class="fil6" d="M2362.1 841.25l-7.32 0 0 12.58 -4.13 0 0 -31.18 10.32 0c3.51,0 6.21,0.81 8.1,2.41 1.89,1.6 2.84,3.93 2.84,6.99 0,1.95 -0.53,3.64 -1.57,5.09 -1.05,1.44 -2.5,2.52 -4.38,3.24l7.33 13.21 0 0.26 -4.41 0 -6.77 -12.58zm-7.32 -3.38l6.32 0c2.04,0 3.66,-0.53 4.87,-1.59 1.21,-1.06 1.82,-2.48 1.82,-4.24 0,-1.93 -0.58,-3.42 -1.73,-4.44 -1.15,-1.03 -2.81,-1.55 -4.98,-1.56l-6.3 0 0 11.84z"/>
  <path id="44" class="fil6" d="M2391.33 851.55c-1.54,1.81 -3.8,2.72 -6.79,2.72 -2.47,0 -4.35,-0.72 -5.64,-2.15 -1.29,-1.44 -1.95,-3.56 -1.96,-6.38l0 -15.07 3.96 0 0 14.95c0,3.51 1.43,5.26 4.29,5.26 3.03,0 5.04,-1.13 6.04,-3.38l0 -16.84 3.96 0 0 23.15 -3.77 0 -0.09 -2.28z"/>
  <path id="45" class="fil6" d="M2414.72 847.68c0,-1.07 -0.4,-1.9 -1.21,-2.49 -0.81,-0.59 -2.21,-1.1 -4.22,-1.54 -2.01,-0.42 -3.6,-0.94 -4.78,-1.54 -1.18,-0.6 -2.05,-1.31 -2.61,-2.14 -0.57,-0.83 -0.85,-1.82 -0.85,-2.96 0,-1.9 0.81,-3.5 2.41,-4.82 1.61,-1.31 3.66,-1.97 6.16,-1.97 2.62,0 4.76,0.68 6.39,2.03 1.63,1.36 2.45,3.09 2.45,5.2l-3.98 0c0,-1.09 -0.46,-2.02 -1.38,-2.81 -0.92,-0.78 -2.09,-1.18 -3.48,-1.18 -1.45,0 -2.57,0.31 -3.38,0.94 -0.82,0.63 -1.22,1.45 -1.22,2.47 0,0.95 0.38,1.67 1.13,2.16 0.76,0.48 2.13,0.95 4.1,1.39 1.98,0.45 3.58,0.97 4.81,1.59 1.23,0.61 2.14,1.36 2.73,2.22 0.59,0.86 0.89,1.92 0.89,3.16 0,2.07 -0.83,3.73 -2.49,4.98 -1.65,1.25 -3.8,1.88 -6.45,1.88 -1.86,0 -3.5,-0.33 -4.93,-0.99 -1.42,-0.66 -2.54,-1.57 -3.35,-2.75 -0.81,-1.18 -1.21,-2.46 -1.21,-3.83l3.96 0c0.07,1.33 0.61,2.38 1.6,3.15 0.99,0.78 2.3,1.16 3.93,1.16 1.5,0 2.7,-0.3 3.61,-0.91 0.9,-0.61 1.36,-1.41 1.36,-2.43z"/>
  <path id="46" class="fil6" d="M2437.33 847.68c0,-1.07 -0.4,-1.9 -1.21,-2.49 -0.81,-0.59 -2.21,-1.1 -4.22,-1.54 -2.01,-0.42 -3.6,-0.94 -4.78,-1.54 -1.18,-0.6 -2.05,-1.31 -2.61,-2.14 -0.57,-0.83 -0.85,-1.82 -0.85,-2.96 0,-1.9 0.81,-3.5 2.41,-4.82 1.61,-1.31 3.66,-1.97 6.16,-1.97 2.62,0 4.76,0.68 6.39,2.03 1.63,1.36 2.45,3.09 2.45,5.2l-3.98 0c0,-1.09 -0.46,-2.02 -1.38,-2.81 -0.92,-0.78 -2.09,-1.18 -3.48,-1.18 -1.45,0 -2.57,0.31 -3.38,0.94 -0.82,0.63 -1.22,1.45 -1.22,2.47 0,0.95 0.38,1.67 1.13,2.16 0.76,0.48 2.13,0.95 4.1,1.39 1.98,0.45 3.58,0.97 4.81,1.59 1.23,0.61 2.14,1.36 2.73,2.22 0.59,0.86 0.89,1.92 0.89,3.16 0,2.07 -0.83,3.73 -2.49,4.98 -1.65,1.25 -3.8,1.88 -6.45,1.88 -1.86,0 -3.5,-0.33 -4.93,-0.99 -1.42,-0.66 -2.54,-1.57 -3.35,-2.75 -0.81,-1.18 -1.21,-2.46 -1.21,-3.83l3.96 0c0.07,1.33 0.61,2.38 1.6,3.15 0.99,0.78 2.3,1.16 3.93,1.16 1.5,0 2.7,-0.3 3.61,-0.91 0.9,-0.61 1.36,-1.41 1.36,-2.43z"/>
  <path id="47" class="fil6" d="M2450.75 853.83l-3.96 0 0 -23.15 3.96 0 0 23.15zm-4.28 -29.32c0,-0.64 0.2,-1.19 0.59,-1.64 0.4,-0.45 0.98,-0.67 1.75,-0.67 0.78,0 1.36,0.22 1.75,0.67 0.4,0.45 0.6,1 0.6,1.64 0,0.64 -0.2,1.18 -0.6,1.62 -0.4,0.43 -0.98,0.64 -1.75,0.64 -0.77,0 -1.35,-0.21 -1.75,-0.64 -0.39,-0.43 -0.59,-0.97 -0.59,-1.62z"/>
  <path id="48" class="fil6" d="M2471.39 853.83c-0.22,-0.45 -0.41,-1.27 -0.55,-2.43 -1.84,1.91 -4.04,2.87 -6.6,2.87 -2.29,0 -4.16,-0.64 -5.62,-1.94 -1.46,-1.29 -2.19,-2.93 -2.19,-4.91 0,-2.42 0.91,-4.29 2.75,-5.62 1.83,-1.34 4.42,-2 7.74,-2l3.85 0 0 -1.82c0,-1.38 -0.41,-2.49 -1.24,-3.31 -0.83,-0.82 -2.05,-1.23 -3.66,-1.23 -1.42,0 -2.6,0.36 -3.56,1.07 -0.96,0.72 -1.43,1.58 -1.43,2.59l-3.98 0c0,-1.16 0.41,-2.28 1.23,-3.36 0.82,-1.08 1.94,-1.93 3.35,-2.56 1.41,-0.63 2.95,-0.94 4.64,-0.94 2.67,0 4.76,0.67 6.27,2.01 1.51,1.33 2.3,3.17 2.36,5.51l0 10.66c0,2.13 0.28,3.82 0.82,5.07l0 0.34 -4.16 0zm-6.57 -2.94c1.24,0 2.42,-0.32 3.53,-0.97 1.12,-0.64 1.92,-1.49 2.42,-2.52l0 -4.79 -3.1 0c-4.85,0 -7.28,1.43 -7.28,4.3 0,1.25 0.41,2.23 1.23,2.93 0.83,0.71 1.89,1.06 3.19,1.06z"/>
  <path id="49" class="fil6" d="M2484.7 830.68l0.13 2.9c1.77,-2.23 4.09,-3.34 6.93,-3.34 4.9,0 7.37,2.76 7.41,8.29l0 15.31 -3.96 0 0 -15.32c-0.02,-1.67 -0.4,-2.9 -1.15,-3.7 -0.74,-0.8 -1.92,-1.2 -3.5,-1.2 -1.28,0 -2.42,0.34 -3.38,1.02 -0.97,0.68 -1.73,1.59 -2.27,2.69l0 16.5 -3.97 0 0 -23.15 3.75 0z"/>
  <polygon id="50" class="fil6" points="2533.82,840.06 2520.74,840.06 2520.74,853.83 2516.62,853.83 2516.62,822.65 2535.94,822.65 2535.94,826.03 2520.74,826.03 2520.74,836.69 2533.82,836.69 "/>
  <path id="51" class="fil6" d="M2549.41 854.27c-3.14,0 -5.7,-1.03 -7.67,-3.09 -1.96,-2.07 -2.95,-4.83 -2.95,-8.28l0 -0.74c0,-2.29 0.44,-4.35 1.31,-6.15 0.88,-1.81 2.11,-3.22 3.69,-4.24 1.58,-1.02 3.29,-1.54 5.13,-1.54 3.02,0 5.35,1 7.03,2.98 1.67,1.99 2.5,4.83 2.5,8.53l0 1.65 -15.7 0c0.06,2.28 0.72,4.12 2,5.53 1.28,1.4 2.9,2.1 4.88,2.1 1.4,0 2.58,-0.28 3.55,-0.86 0.97,-0.57 1.82,-1.32 2.55,-2.26l2.42 1.88c-1.95,2.98 -4.86,4.47 -8.74,4.47zm-0.49 -20.79c-1.6,0 -2.94,0.58 -4.03,1.75 -1.08,1.17 -1.75,2.81 -2.01,4.91l11.61 0 0 -0.3c-0.12,-2.02 -0.66,-3.59 -1.63,-4.7 -0.97,-1.11 -2.29,-1.67 -3.94,-1.67z"/>
  <path id="52" class="fil6" d="M2562.07 842.06c0,-3.56 0.85,-6.41 2.53,-8.58 1.69,-2.16 3.89,-3.25 6.61,-3.25 2.72,0 4.86,0.93 6.45,2.79l0 -12.08 3.97 0 0 32.89 -3.64 0 -0.19 -2.48c-1.59,1.94 -3.79,2.91 -6.62,2.91 -2.69,0 -4.87,-1.09 -6.56,-3.3 -1.69,-2.2 -2.54,-5.07 -2.54,-8.61l0 -0.3zm3.96 0.45c0,2.62 0.55,4.68 1.63,6.16 1.09,1.48 2.59,2.22 4.5,2.22 2.51,0 4.35,-1.13 5.5,-3.38l0 -10.63c-1.18,-2.19 -3,-3.28 -5.46,-3.28 -1.94,0 -3.45,0.74 -4.54,2.24 -1.08,1.5 -1.63,3.71 -1.63,6.65z"/>
  <path id="53" class="fil6" d="M2597.39 854.27c-3.14,0 -5.7,-1.03 -7.67,-3.09 -1.96,-2.07 -2.95,-4.83 -2.95,-8.28l0 -0.74c0,-2.29 0.44,-4.35 1.31,-6.15 0.88,-1.81 2.11,-3.22 3.69,-4.24 1.58,-1.02 3.29,-1.54 5.13,-1.54 3.02,0 5.35,1 7.03,2.98 1.67,1.99 2.5,4.83 2.5,8.53l0 1.65 -15.7 0c0.06,2.28 0.72,4.12 2,5.53 1.28,1.4 2.9,2.1 4.88,2.1 1.4,0 2.58,-0.28 3.55,-0.86 0.97,-0.57 1.82,-1.32 2.55,-2.26l2.42 1.88c-1.95,2.98 -4.86,4.47 -8.74,4.47zm-0.49 -20.79c-1.6,0 -2.94,0.58 -4.03,1.75 -1.08,1.17 -1.75,2.81 -2.01,4.91l11.61 0 0 -0.3c-0.12,-2.02 -0.66,-3.59 -1.63,-4.7 -0.97,-1.11 -2.29,-1.67 -3.94,-1.67z"/>
  <path id="54" class="fil6" d="M2622.2 834.21c-0.6,-0.1 -1.25,-0.15 -1.94,-0.15 -2.61,0 -4.37,1.1 -5.29,3.32l0 16.46 -3.97 0 0 -23.15 3.85 0 0.07 2.67c1.3,-2.07 3.14,-3.11 5.52,-3.11 0.78,0 1.36,0.1 1.75,0.3l0 3.67z"/>
  <path id="55" class="fil6" d="M2639.29 853.83c-0.22,-0.45 -0.41,-1.27 -0.55,-2.43 -1.84,1.91 -4.04,2.87 -6.6,2.87 -2.29,0 -4.16,-0.64 -5.62,-1.94 -1.46,-1.29 -2.19,-2.93 -2.19,-4.91 0,-2.42 0.91,-4.29 2.75,-5.62 1.83,-1.34 4.42,-2 7.74,-2l3.85 0 0 -1.82c0,-1.38 -0.41,-2.49 -1.24,-3.31 -0.83,-0.82 -2.05,-1.23 -3.66,-1.23 -1.42,0 -2.6,0.36 -3.56,1.07 -0.96,0.72 -1.43,1.58 -1.43,2.59l-3.98 0c0,-1.16 0.41,-2.28 1.23,-3.36 0.82,-1.08 1.94,-1.93 3.35,-2.56 1.41,-0.63 2.95,-0.94 4.64,-0.94 2.67,0 4.76,0.67 6.27,2.01 1.51,1.33 2.3,3.17 2.36,5.51l0 10.66c0,2.13 0.28,3.82 0.82,5.07l0 0.34 -4.16 0zm-6.57 -2.94c1.24,0 2.42,-0.32 3.53,-0.97 1.12,-0.64 1.92,-1.49 2.42,-2.52l0 -4.79 -3.1 0c-4.85,0 -7.28,1.43 -7.28,4.3 0,1.25 0.41,2.23 1.23,2.93 0.83,0.71 1.89,1.06 3.19,1.06z"/>
  <path id="56" class="fil6" d="M2654.23 825.06l0 5.61 4.32 0 0 3.07 -4.32 0 0 14.36c0,0.93 0.19,1.62 0.58,2.09 0.38,0.46 1.04,0.7 1.97,0.7 0.46,0 1.09,-0.09 1.88,-0.26l0 3.21c-1.04,0.28 -2.05,0.42 -3.04,0.42 -1.77,0 -3.11,-0.53 -4.01,-1.61 -0.9,-1.07 -1.35,-2.59 -1.35,-4.56l0 -14.36 -4.23 0 0 -3.07 4.23 0 0 -5.61 3.96 0z"/>
  <path id="57" class="fil6" d="M2667.48 853.83l-3.96 0 0 -23.15 3.96 0 0 23.15zm-4.28 -29.32c0,-0.64 0.2,-1.19 0.59,-1.64 0.4,-0.45 0.98,-0.67 1.75,-0.67 0.78,0 1.36,0.22 1.75,0.67 0.4,0.45 0.6,1 0.6,1.64 0,0.64 -0.2,1.18 -0.6,1.62 -0.4,0.43 -0.98,0.64 -1.75,0.64 -0.77,0 -1.35,-0.21 -1.75,-0.64 -0.39,-0.43 -0.59,-0.97 -0.59,-1.62z"/>
  <path id="58" class="fil6" d="M2672.76 842.04c0,-2.28 0.45,-4.31 1.34,-6.12 0.89,-1.82 2.14,-3.22 3.73,-4.2 1.59,-0.99 3.41,-1.48 5.45,-1.48 3.16,0 5.71,1.09 7.66,3.28 1.95,2.19 2.92,5.1 2.92,8.72l0 0.27c0,2.26 -0.43,4.29 -1.29,6.07 -0.87,1.79 -2.1,3.19 -3.71,4.19 -1.6,1 -3.45,1.5 -5.53,1.5 -3.15,0 -5.69,-1.09 -7.63,-3.27 -1.95,-2.19 -2.92,-5.08 -2.92,-8.68l0 -0.27zm3.98 0.46c0,2.56 0.59,4.63 1.78,6.19 1.19,1.55 2.79,2.33 4.79,2.33 2.01,0 3.61,-0.79 4.79,-2.37 1.18,-1.58 1.77,-3.78 1.77,-6.63 0,-2.55 -0.6,-4.6 -1.8,-6.18 -1.21,-1.58 -2.81,-2.37 -4.81,-2.37 -1.95,0 -3.53,0.77 -4.73,2.33 -1.2,1.55 -1.8,3.78 -1.8,6.69z"/>
  <path id="59" class="fil6" d="M2702.58 830.68l0.13 2.9c1.77,-2.23 4.09,-3.34 6.93,-3.34 4.9,0 7.37,2.76 7.41,8.29l0 15.31 -3.96 0 0 -15.32c-0.02,-1.67 -0.4,-2.9 -1.15,-3.7 -0.74,-0.8 -1.92,-1.2 -3.5,-1.2 -1.28,0 -2.42,0.34 -3.38,1.02 -0.97,0.68 -1.73,1.59 -2.27,2.69l0 16.5 -3.97 0 0 -23.15 3.75 0z"/>
  <path id="60" class="fil6" d="M2722.9 860.06l-2.25 -1.54c1.35,-1.88 2.04,-3.81 2.1,-5.8l0 -3.58 3.88 0 0 3.11c0,1.44 -0.35,2.89 -1.06,4.33 -0.7,1.44 -1.6,2.61 -2.66,3.48z"/>
  <polygon id="61" class="fil6" points="2755.11,853.83 2751.13,853.83 2751.13,827.44 2743.14,830.37 2743.14,826.77 2754.49,822.52 2755.11,822.52 "/>
  <path id="62" class="fil6" d="M2787.14 853.83l-20.43 0 0 -2.86 10.8 -11.99c1.6,-1.82 2.7,-3.29 3.31,-4.42 0.61,-1.14 0.91,-2.32 0.91,-3.53 0,-1.63 -0.49,-2.96 -1.48,-4.01 -0.99,-1.04 -2.3,-1.56 -3.94,-1.56 -1.97,0 -3.5,0.56 -4.59,1.68 -1.1,1.12 -1.64,2.69 -1.64,4.68l-3.97 0c0,-2.86 0.93,-5.19 2.78,-6.96 1.85,-1.77 4.32,-2.65 7.42,-2.65 2.89,0 5.19,0.76 6.87,2.28 1.69,1.52 2.53,3.55 2.53,6.07 0,3.07 -1.95,6.73 -5.87,10.97l-8.35 9.06 15.65 0 0 3.24z"/>
  <path id="63" class="fil6" d="M2793.16 838.21l1.58 -15.56 15.98 0 0 3.69 -12.62 0 -0.94 8.49c1.53,-0.9 3.27,-1.35 5.2,-1.35 2.84,0 5.1,0.94 6.77,2.81 1.68,1.88 2.51,4.42 2.51,7.61 0,3.22 -0.87,5.75 -2.6,7.6 -1.74,1.85 -4.16,2.77 -7.27,2.77 -2.76,0 -5,-0.77 -6.75,-2.29 -1.74,-1.53 -2.73,-3.64 -2.97,-6.34l3.75 0c0.24,1.79 0.87,3.13 1.91,4.03 1.02,0.91 2.38,1.36 4.06,1.36 1.84,0 3.29,-0.63 4.34,-1.88 1.05,-1.25 1.57,-2.98 1.57,-5.2 0,-2.08 -0.57,-3.75 -1.7,-5.01 -1.14,-1.27 -2.65,-1.89 -4.53,-1.89 -1.73,0 -3.09,0.38 -4.06,1.13l-1.05 0.87 -3.16 -0.82z"/>
  <polygon id="64" class="fil6" points="2828.99,853.83 2825,853.83 2825,827.44 2817.01,830.37 2817.01,826.77 2828.36,822.52 2828.99,822.52 "/>
  <path id="65" class="fil6" d="M2856.13 822.65l0 3.38 -0.72 0c-3.09,0.06 -5.54,0.96 -7.37,2.73 -1.83,1.77 -2.89,4.25 -3.17,7.47 1.65,-1.89 3.89,-2.83 6.73,-2.83 2.71,0 4.88,0.96 6.51,2.87 1.62,1.91 2.42,4.38 2.42,7.4 0,3.21 -0.87,5.78 -2.62,7.71 -1.75,1.92 -4.09,2.89 -7.03,2.89 -2.98,0 -5.41,-1.14 -7.26,-3.43 -1.86,-2.29 -2.78,-5.24 -2.78,-8.85l0 -1.52c0,-5.74 1.22,-10.13 3.67,-13.16 2.45,-3.03 6.1,-4.58 10.94,-4.66l0.7 0zm-5.19 14.12c-1.36,0 -2.61,0.4 -3.75,1.21 -1.14,0.81 -1.94,1.82 -2.37,3.04l0 1.45c0,2.56 0.58,4.61 1.73,6.17 1.15,1.55 2.59,2.34 4.33,2.34 1.78,0 3.18,-0.65 4.2,-1.96 1.02,-1.3 1.53,-3.01 1.53,-5.12 0,-2.13 -0.52,-3.84 -1.55,-5.16 -1.03,-1.31 -2.41,-1.97 -4.11,-1.97z"/>
  <polygon id="66" class="fil6" points="2885.34,824.87 2872.43,853.83 2868.27,853.83 2881.15,825.9 2864.28,825.9 2864.28,822.65 2885.34,822.65 "/>
  <path class="fil0" d="M1244.51 4267.36l145.29 173.15 -445.17 -38.95 13.93 -159.22 285.95 25.02zm290.56 346.28l145.29 173.15 -763.6 -66.81 13.93 -159.22 604.38 52.88zm290.58 346.29l145.29 173.15 -1082.02 -94.67 13.93 -159.21 922.81 80.73z"/>
  <g id="_1423933456464">
   <path class="fil4" d="M1706.64 4468.03l-158.33 -13.85 0 0 0 0 -13.86 158.33 22.62 1.98 0 0 135.71 11.87 1.98 -22.62 -135.71 -11.87 9.89 -113.09 113.09 9.89 24.6 -20.64zm-7.91 90.48l-90.48 -7.92 -24.6 20.64 113.09 9.89 1.98 -22.61zm3.96 -45.24l-45.24 -3.96 -24.6 20.64 67.86 5.94 1.98 -22.62z"/>
   <path class="fil7" d="M1860.2 4620.25l-41.43 -3.65 -35.48 -86.07 -0.72 -0.08c-0.13,13.04 -0.49,22.99 -1.07,29.81l-4.63 52.69 -27.98 -2.47 10.22 -116.89 41.26 3.61 35.43 84.94 0.47 0.06c0.3,-11.84 0.74,-21.35 1.37,-28.47l4.63 -52.85 28.14 2.47 -10.23 116.89z"/>
   <path id="1" class="fil7" d="M2424.25 4626.73l-3.7 42.53 -31.59 -2.77 10.22 -116.89 38.31 3.34c31.75,2.8 46.64,15.7 44.63,38.72 -1.18,13.54 -8.72,23.43 -22.58,29.7l29.6 53.9 -35.81 -3.13 -21.07 -44.72 -8 -0.68zm2.09 -23.76l5.92 0.53c11.04,0.95 16.99,-3.43 17.83,-13.18 0.72,-8.06 -4.35,-12.55 -15.18,-13.51l-6.22 -0.52 -2.35 26.68z"/>
   <path id="2" class="fil7" d="M2585.13 4683.65l-3.84 -22.41 -37.97 -3.32 -7.84 21.4 -34.69 -3.04 48.42 -114.05 42.11 3.7 28.36 120.75 -34.55 -3.04zm-8.11 -48.88l-3.37 -19.62c-0.79,-4.38 -1.72,-10.03 -2.82,-16.94 -1.1,-6.93 -1.78,-11.86 -2.06,-14.85 -0.71,2.69 -2.06,7.07 -4,13.18 -1.97,6.14 -6.16,18.14 -12.63,36.06l24.88 2.16z"/>
   <path id="3" class="fil7" d="M2750.69 4698.16l-41.43 -3.65 -35.48 -86.06 -0.71 -0.08c-0.14,13.04 -0.49,22.99 -1.07,29.81l-4.63 52.69 -27.98 -2.47 10.23 -116.89 41.26 3.62 35.43 84.94 0.47 0.06c0.3,-11.84 0.74,-21.34 1.37,-28.47l4.63 -52.86 28.14 2.47 -10.22 116.89z"/>
   <path id="4" class="fil7" d="M2859.32 4671.88c-0.63,7.24 -3.04,13.51 -7.2,18.83 -4.17,5.29 -9.86,9.21 -17.07,11.72 -7.18,2.5 -15.46,3.35 -24.77,2.53 -7.78,-0.66 -14.27,-1.78 -19.45,-3.35 -5.18,-1.56 -10.52,-3.95 -15.97,-7.15l2.46 -28.13c5.75,3.61 11.81,6.57 18.17,8.88 6.33,2.3 12.22,3.67 17.68,4.17 4.68,0.41 8.19,-0.11 10.52,-1.54 2.33,-1.45 3.62,-3.43 3.84,-6 0.13,-1.59 -0.19,-3.04 -0.96,-4.3 -0.77,-1.29 -2.08,-2.63 -3.92,-4.03 -1.83,-1.37 -6.8,-4.33 -14.91,-8.85 -7.32,-4.14 -12.74,-8.01 -16.24,-11.59 -3.54,-3.59 -6.03,-7.56 -7.51,-11.92 -1.48,-4.38 -1.95,-9.46 -1.45,-15.21 0.96,-10.77 5.59,-18.83 13.94,-24.17 8.39,-5.31 19.4,-7.39 33.1,-6.19 12.11,1.04 24.2,4.93 36.28,11.62l-11.81 23.56c-10.47,-5.98 -19.7,-9.32 -27.65,-10 -4.08,-0.36 -7.15,0.08 -9.12,1.37 -2,1.29 -3.1,2.99 -3.26,5.12 -0.22,2.27 0.79,4.44 3.01,6.46 2.22,2.01 8.35,5.9 18.44,11.59 9.67,5.43 16.25,10.9 19.7,16.44 3.48,5.53 4.85,12.25 4.17,20.14z"/>
   <path id="5" class="fil7" d="M2002.15 4573.61c-1.73,19.65 -7.87,34.2 -18.39,43.57 -10.55,9.4 -25.12,13.29 -43.73,11.64 -18.33,-1.59 -31.95,-7.97 -40.83,-19.1 -8.88,-11.15 -12.47,-26.55 -10.74,-46.23 1.7,-19.45 7.86,-33.9 18.5,-43.29 10.63,-9.42 25.21,-13.32 43.76,-11.7 18.6,1.64 32.25,7.97 40.97,18.99 8.71,11.02 12.19,26.38 10.47,46.11zm-80.45 -7.04c-1.97,22.6 4.9,34.58 20.63,35.95 8,0.71 14.16,-1.51 18.52,-6.66 4.33,-5.15 7.02,-13.54 8.03,-25.18 1.01,-11.68 -0.2,-20.45 -3.62,-26.37 -3.43,-5.92 -9.04,-9.2 -16.82,-9.89 -15.81,-1.4 -24.75,9.32 -26.74,32.15z"/>
   <path id="6" class="fil7" d="M2101.09 4523.53l35.34 3.1 -48.52 113.52 -37.18 -3.23 -27.92 -120.23 35.51 3.1 10.71 60.63c2.17,13.46 3.18,22.8 3.04,27.98 0.69,-3.7 1.86,-8.28 3.45,-13.79 1.62,-5.51 2.99,-9.81 4.11,-12.93l21.46 -58.14z"/>
   <path id="7" class="fil7" d="M2260.43 4596.21c-1.73,19.65 -7.87,34.2 -18.39,43.57 -10.55,9.4 -25.12,13.29 -43.73,11.64 -18.33,-1.59 -31.95,-7.97 -40.83,-19.1 -8.88,-11.16 -12.47,-26.55 -10.74,-46.23 1.7,-19.45 7.86,-33.9 18.5,-43.29 10.63,-9.42 25.21,-13.32 43.76,-11.7 18.6,1.64 32.25,7.97 40.97,18.99 8.71,11.01 12.19,26.38 10.47,46.11zm-80.45 -7.04c-1.97,22.6 4.9,34.58 20.63,35.95 8,0.71 14.16,-1.51 18.52,-6.66 4.33,-5.15 7.02,-13.54 8.03,-25.18 1.01,-11.68 -0.2,-20.45 -3.62,-26.37 -3.43,-5.92 -9.04,-9.2 -16.82,-9.89 -15.81,-1.4 -24.75,9.32 -26.74,32.15z"/>
   <polygon id="8" class="fil7" points="2335.06,4661.78 2303.49,4659.02 2311.43,4567.97 2282.91,4565.44 2285.16,4539.64 2373.75,4547.38 2371.5,4573.2 2343.03,4570.71 "/>
  </g>
 </g>
</svg>
