<?xml version="1.0" encoding="UTF-8"?>
<!DOCTYPE svg PUBLIC "-//W3C//DTD SVG 1.1//EN" "http://www.w3.org/Graphics/SVG/1.1/DTD/svg11.dtd">
<!-- Creator: CorelDRAW 2020 (64-Bit) -->
<svg xmlns="http://www.w3.org/2000/svg" xml:space="preserve" width="90mm" height="60mm" version="1.1" style="shape-rendering:geometricPrecision; text-rendering:geometricPrecision; image-rendering:optimizeQuality; fill-rule:evenodd; clip-rule:evenodd"
viewBox="0 0 60567.09 40378.06"
 xmlns:xlink="http://www.w3.org/1999/xlink"
 xmlns:xodm="http://www.corel.com/coreldraw/odm/2003">
 <defs>
  <style type="text/css">
   <![CDATA[
    .fil7 {fill:#1A1A1A}
    .fil6 {fill:#4D4D4D}
    .fil2 {fill:white}
    .fil24 {fill:#778591}
    .fil0 {fill:#DCDFE0}
    .fil25 {fill:#1CBBEE;fill-rule:nonzero}
    .fil28 {fill:#1CBBEE;fill-rule:nonzero}
    .fil27 {fill:white;fill-rule:nonzero}
    .fil4 {fill:#435262;fill-rule:nonzero}
    .fil26 {fill:#9AA4AD;fill-rule:nonzero}
    .fil3 {fill:gray;fill-opacity:0.431373}
    .fil1 {fill:gray;fill-opacity:0.439216}
    .fil5 {fill:gray;fill-opacity:0.490196}
    .fil14 {fill:url(#id0)}
    .fil9 {fill:url(#id1)}
    .fil20 {fill:url(#id2)}
    .fil12 {fill:url(#id3)}
    .fil10 {fill:url(#id4)}
    .fil22 {fill:url(#id5)}
    .fil11 {fill:url(#id6)}
    .fil15 {fill:url(#id7)}
    .fil17 {fill:url(#id8)}
    .fil18 {fill:url(#id9)}
    .fil8 {fill:url(#id10)}
    .fil13 {fill:url(#id11)}
    .fil21 {fill:url(#id12)}
    .fil16 {fill:url(#id13)}
    .fil19 {fill:url(#id14)}
    .fil23 {fill:url(#id15)}
   ]]>
  </style>
  <linearGradient id="id0" gradientUnits="userSpaceOnUse" x1="7290.43" y1="19861.2" x2="9530.57" y2="19466.21">
   <stop offset="0" style="stop-opacity:1; stop-color:black"/>
   <stop offset="0.431373" style="stop-opacity:1; stop-color:#B8B8B8"/>
   <stop offset="1" style="stop-opacity:1; stop-color:black"/>
  </linearGradient>
  <linearGradient id="id1" gradientUnits="userSpaceOnUse" xlink:href="#id0" x1="5638.4" y1="10492.13" x2="7878.55" y2="10097.13">
  </linearGradient>
  <linearGradient id="id2" gradientUnits="userSpaceOnUse" xlink:href="#id0" x1="9043.32" y1="29802.36" x2="11283.46" y2="29407.36">
  </linearGradient>
  <linearGradient id="id3" gradientUnits="userSpaceOnUse" xlink:href="#id0" x1="6706.13" y1="16547.48" x2="8946.27" y2="16152.49">
  </linearGradient>
  <linearGradient id="id4" gradientUnits="userSpaceOnUse" xlink:href="#id0" x1="6121.83" y1="13233.76" x2="8361.97" y2="12838.77">
  </linearGradient>
  <linearGradient id="id5" gradientUnits="userSpaceOnUse" xlink:href="#id0" x1="9627.62" y1="33116.08" x2="11867.76" y2="32721.08">
  </linearGradient>
  <linearGradient id="id6" gradientUnits="userSpaceOnUse" xlink:href="#id0" x1="6222.7" y1="13805.85" x2="8462.84" y2="13410.85">
  </linearGradient>
  <linearGradient id="id7" gradientUnits="userSpaceOnUse" xlink:href="#id0" x1="7391.3" y1="20433.28" x2="9631.44" y2="20038.29">
  </linearGradient>
  <linearGradient id="id8" gradientUnits="userSpaceOnUse" xlink:href="#id0" x1="7975.6" y1="23747" x2="10215.74" y2="23352">
  </linearGradient>
  <linearGradient id="id9" gradientUnits="userSpaceOnUse" xlink:href="#id0" x1="8459.02" y1="26488.64" x2="10699.16" y2="26093.64">
  </linearGradient>
  <linearGradient id="id10" gradientUnits="userSpaceOnUse" xlink:href="#id0" x1="5537.53" y1="9920.05" x2="7777.67" y2="9525.05">
  </linearGradient>
  <linearGradient id="id11" gradientUnits="userSpaceOnUse" xlink:href="#id0" x1="6807" y1="17119.56" x2="9047.14" y2="16724.57">
  </linearGradient>
  <linearGradient id="id12" gradientUnits="userSpaceOnUse" xlink:href="#id0" x1="9144.19" y1="30374.44" x2="11384.33" y2="29979.44">
  </linearGradient>
  <linearGradient id="id13" gradientUnits="userSpaceOnUse" xlink:href="#id0" x1="7874.72" y1="23174.92" x2="10114.86" y2="22779.92">
  </linearGradient>
  <linearGradient id="id14" gradientUnits="userSpaceOnUse" xlink:href="#id0" x1="8559.9" y1="27060.72" x2="10800.04" y2="26665.72">
  </linearGradient>
  <linearGradient id="id15" gradientUnits="userSpaceOnUse" xlink:href="#id0" x1="9728.49" y1="33688.16" x2="11968.63" y2="33293.16">
  </linearGradient>
 </defs>
 <g id="Layer_x0020_1">
  <metadata id="CorelCorpID_0Corel-Layer"/>
  <rect class="fil0" x="-0" y="-0.02" width="60567.09" height="40378.08"/>
  <polygon class="fil1" points="32677.96,12643.51 49200.87,12643.51 49200.87,21896.82 32677.96,21896.82 "/>
  <rect class="fil2" x="32291.3" y="12265.69" width="16559.24" height="9303.44"/>
  <polygon class="fil3" points="37930.68,26175.68 54453.58,26175.68 54453.58,35428.99 37930.68,35428.99 "/>
  <rect class="fil4" x="37544.02" y="25708.82" width="16559.24" height="9303.44"/>
  <g id="_1421830013136">
   <path class="fil5" d="M6461.77 8684.65l19160.06 -3378.43c244.69,-43.14 479.42,121.2 522.56,365.89l4564.74 25887.72c43.14,244.62 -121.27,479.42 -365.96,522.56l-19160.06 3378.43 -4721.34 -26776.17z"/>
   <path class="fil2" d="M5916.06 8302.54l19160.06 -3378.43c244.69,-43.2 479.42,121.2 522.56,365.89l4564.67 25887.65c43.14,244.69 -121.2,479.42 -365.89,522.63l-19160.06 3378.43 -4721.34 -26776.17z"/>
   <g>
    <g>
     <rect class="fil6" transform="matrix(0.984808 -0.173648 0.200095 1.13479 7272.91 9208.42)" width="827.95" height="1197.48"/>
     <rect class="fil7" transform="matrix(0.238858 -0.0421171 0.200095 1.13479 7272.94 9208.41)" width="827.95" height="1197.48"/>
     <rect class="fil7" transform="matrix(-0.370774 0.0653774 0.200095 1.13479 8088.8 9064.55)" width="827.95" height="1197.48"/>
     <rect class="fil7" transform="matrix(0.370774 -0.0653774 0.200095 1.13479 7290.76 9205.27)" width="827.95" height="1197.48"/>
     <g>
      <path class="fil8" d="M5687.38 9706.08l1876.3 -330.9c100.07,-17.63 196.37,49.8 214,149.87l0 0c17.63,100.07 -49.8,196.37 -149.87,214l-1876.3 330.83c-100.07,17.63 -196.37,-49.73 -214,-149.87l0 0c-17.63,-100.07 49.8,-196.3 149.87,-213.94z"/>
      <path class="fil9" d="M5788.26 10278.1l1876.3 -330.83c100.07,-17.63 196.3,49.8 214,149.87l0 0c17.63,100.07 -49.8,196.37 -149.87,214l-1876.3 330.83c-100.07,17.63 -196.37,-49.8 -214,-149.87l0 0c-17.63,-100.07 49.8,-196.3 149.87,-214z"/>
     </g>
    </g>
    <g>
     <rect class="fil6" transform="matrix(0.984808 -0.173648 0.200095 1.13479 7857.21 12522.1)" width="827.95" height="1197.48"/>
     <rect class="fil7" transform="matrix(0.238858 -0.0421171 0.200095 1.13479 7857.24 12522.1)" width="827.95" height="1197.48"/>
     <rect class="fil7" transform="matrix(-0.370774 0.0653774 0.200095 1.13479 8673.1 12378.3)" width="827.95" height="1197.48"/>
     <rect class="fil7" transform="matrix(0.370774 -0.0653774 0.200095 1.13479 7875.06 12519)" width="827.95" height="1197.48"/>
     <g>
      <path class="fil10" d="M6271.65 13019.77l1876.3 -330.83c100.07,-17.63 196.37,49.73 214,149.8l0 0c17.63,100.07 -49.73,196.37 -149.8,214l-1876.3 330.83c-100.07,17.7 -196.37,-49.73 -214,-149.8l0 0c-17.7,-100.07 49.73,-196.37 149.8,-214z"/>
      <path class="fil11" d="M6372.53 13591.86l1876.3 -330.83c100.07,-17.7 196.37,49.73 214,149.8l0 0c17.63,100.07 -49.73,196.37 -149.87,214l-1876.23 330.83c-100.07,17.7 -196.37,-49.73 -214,-149.8l0 0c-17.7,-100.07 49.73,-196.37 149.8,-214z"/>
     </g>
    </g>
    <g>
     <rect class="fil6" transform="matrix(0.984808 -0.173648 0.200095 1.13479 8441.51 15835.9)" width="827.95" height="1197.48"/>
     <rect class="fil7" transform="matrix(0.238858 -0.0421171 0.200095 1.13479 8441.54 15835.8)" width="827.95" height="1197.48"/>
     <rect class="fil7" transform="matrix(-0.370774 0.0653774 0.200095 1.13479 9257.39 15692)" width="827.95" height="1197.48"/>
     <rect class="fil7" transform="matrix(0.370774 -0.0653774 0.200095 1.13479 8459.36 15832.7)" width="827.95" height="1197.48"/>
     <g>
      <path class="fil12" d="M6855.99 16333.46l1876.3 -330.83c100.07,-17.63 196.3,49.8 214,149.87l0 0c17.63,100.07 -49.8,196.37 -149.87,214l-1876.3 330.83c-100.07,17.63 -196.37,-49.8 -214,-149.87l0 0c-17.63,-100.07 49.8,-196.37 149.87,-214z"/>
      <path class="fil13" d="M6956.87 16905.55l1876.3 -330.83c100.07,-17.63 196.3,49.8 213.94,149.87l0 0c17.7,100.07 -49.73,196.3 -149.8,214l-1876.3 330.83c-100.07,17.63 -196.37,-49.8 -214,-149.87l0 0c-17.63,-100.07 49.8,-196.37 149.87,-214z"/>
     </g>
    </g>
    <g>
     <rect class="fil6" transform="matrix(0.984808 -0.173648 0.200095 1.13479 9025.81 19149.6)" width="827.95" height="1197.48"/>
     <rect class="fil7" transform="matrix(0.238858 -0.0421171 0.200095 1.13479 9025.83 19149.6)" width="827.95" height="1197.48"/>
     <rect class="fil7" transform="matrix(-0.370774 0.0653774 0.200095 1.13479 9841.69 19005.7)" width="827.95" height="1197.48"/>
     <rect class="fil7" transform="matrix(0.370774 -0.0653774 0.200095 1.13479 9043.66 19146.4)" width="827.95" height="1197.48"/>
     <g>
      <path class="fil14" d="M7440.26 19647.22l1876.3 -330.83c100.07,-17.7 196.37,49.73 214,149.8l0 0c17.63,100.07 -49.8,196.37 -149.87,214l-1876.3 330.83c-100.07,17.63 -196.3,-49.73 -214,-149.8l0 0c-17.63,-100.07 49.8,-196.37 149.87,-214z"/>
      <path class="fil15" d="M7541.14 20219.31l1876.3 -330.9c100.07,-17.63 196.37,49.8 214,149.87l0 0c17.63,100.07 -49.8,196.37 -149.87,214l-1876.3 330.83c-100.07,17.63 -196.3,-49.73 -214,-149.87l0 0c-17.63,-100.07 49.8,-196.3 149.87,-213.94z"/>
     </g>
    </g>
    <g>
     <rect class="fil6" transform="matrix(0.984808 -0.173648 0.200095 1.13479 9610.11 22463.3)" width="827.95" height="1197.48"/>
     <rect class="fil7" transform="matrix(0.238858 -0.0421171 0.200095 1.13479 9610.13 22463.3)" width="827.95" height="1197.48"/>
     <rect class="fil7" transform="matrix(-0.370774 0.0653774 0.200095 1.13479 10426 22319.4)" width="827.95" height="1197.48"/>
     <rect class="fil7" transform="matrix(0.370774 -0.0653774 0.200095 1.13479 9627.96 22460.1)" width="827.95" height="1197.48"/>
     <g>
      <path class="fil16" d="M8024.6 22960.92l1876.23 -330.83c100.07,-17.63 196.37,49.73 214,149.87l0 0c17.7,100.07 -49.73,196.3 -149.8,214l-1876.3 330.83c-100.07,17.63 -196.37,-49.8 -214,-149.87l0 0c-17.63,-100.07 49.73,-196.37 149.87,-214z"/>
      <path class="fil17" d="M8125.41 23533.01l1876.3 -330.83c100.07,-17.63 196.37,49.73 214,149.8l0 0c17.7,100.07 -49.73,196.37 -149.8,214l-1876.3 330.9c-100.07,17.63 -196.37,-49.8 -214,-149.87l0 0c-17.63,-100.07 49.73,-196.37 149.8,-214z"/>
     </g>
    </g>
    <g>
     <rect class="fil6" transform="matrix(0.984808 -0.173648 0.200095 1.13479 10194.4 25777)" width="827.95" height="1197.48"/>
     <rect class="fil7" transform="matrix(0.238858 -0.0421171 0.200095 1.13479 10194.4 25777)" width="827.95" height="1197.48"/>
     <rect class="fil7" transform="matrix(-0.370774 0.0653774 0.200095 1.13479 11010.3 25633.1)" width="827.95" height="1197.48"/>
     <rect class="fil7" transform="matrix(0.370774 -0.0653774 0.200095 1.13479 10212.3 25773.9)" width="827.95" height="1197.48"/>
     <g>
      <path class="fil18" d="M8608.87 26274.61l1876.3 -330.83c100.07,-17.63 196.37,49.8 214,149.87l0 0c17.63,100.07 -49.8,196.37 -149.87,214l-1876.3 330.83c-100.07,17.63 -196.3,-49.8 -214,-149.87l0 0c-17.63,-100.07 49.8,-196.3 149.87,-214z"/>
      <path class="fil19" d="M8709.75 26846.7l1876.3 -330.83c100.07,-17.63 196.37,49.8 214,149.87l0 0c17.63,100.07 -49.8,196.37 -149.87,214l-1876.3 330.83c-100.07,17.63 -196.37,-49.8 -214,-149.87l0 0c-17.63,-100.07 49.8,-196.3 149.87,-214z"/>
     </g>
    </g>
    <g>
     <rect class="fil6" transform="matrix(0.984808 -0.173648 0.200095 1.13479 10778.7 29090.7)" width="827.95" height="1197.48"/>
     <rect class="fil7" transform="matrix(0.238858 -0.0421171 0.200095 1.13479 10778.7 29090.7)" width="827.95" height="1197.48"/>
     <rect class="fil7" transform="matrix(-0.370774 0.0653774 0.200095 1.13479 11594.6 28946.9)" width="827.95" height="1197.48"/>
     <rect class="fil7" transform="matrix(0.370774 -0.0653774 0.200095 1.13479 10796.6 29087.6)" width="827.95" height="1197.48"/>
     <g>
      <path class="fil20" d="M9193.14 29588.37l1876.3 -330.83c100.07,-17.7 196.37,49.73 214,149.8l0 0c17.63,100.07 -49.73,196.37 -149.8,214l-1876.3 330.83c-100.07,17.7 -196.37,-49.73 -214,-149.8l0 0c-17.63,-100.07 49.73,-196.37 149.8,-214z"/>
      <path class="fil21" d="M9294.02 30160.46l1876.3 -330.83c100.07,-17.7 196.37,49.73 214,149.8l0 0c17.63,100.07 -49.73,196.37 -149.87,214l-1876.23 330.83c-100.07,17.7 -196.37,-49.73 -214,-149.8l0 0c-17.7,-100.07 49.73,-196.37 149.8,-214z"/>
     </g>
    </g>
    <g>
     <rect class="fil6" transform="matrix(0.984808 -0.173648 0.200095 1.13479 11363 32404.4)" width="827.95" height="1197.48"/>
     <rect class="fil7" transform="matrix(0.238858 -0.0421171 0.200095 1.13479 11363 32404.4)" width="827.95" height="1197.48"/>
     <rect class="fil7" transform="matrix(-0.370774 0.0653774 0.200095 1.13479 12178.9 32260.6)" width="827.95" height="1197.48"/>
     <rect class="fil7" transform="matrix(0.370774 -0.0653774 0.200095 1.13479 11380.8 32401.3)" width="827.95" height="1197.48"/>
     <g>
      <path class="fil22" d="M9777.48 32902.06l1876.3 -330.83c100.07,-17.63 196.3,49.8 214,149.87l0 0c17.63,100.07 -49.8,196.3 -149.87,214l-1876.3 330.83c-100.07,17.63 -196.37,-49.8 -214,-149.87l0 0c-17.63,-100.07 49.8,-196.37 149.87,-214z"/>
      <path class="fil23" d="M9878.36 33474.15l1876.3 -330.83c100.07,-17.63 196.3,49.8 214,149.87l0 0c17.63,100.07 -49.8,196.3 -149.87,214l-1876.3 330.83c-100.07,17.63 -196.37,-49.8 -214,-149.87l0 0c-17.63,-100.07 49.8,-196.37 149.87,-214z"/>
     </g>
    </g>
   </g>
  </g>
  <path class="fil24" d="M40002.74 28167.53l1368.95 1368.95 -3827.64 0 0 -1368.95 2458.69 0zm2737.83 2737.83l1369.02 1369.02 -6565.54 0 0 -1369.02 5196.52 0zm2737.97 2737.97l1368.95 1368.95 -9303.44 0 0 -1368.95 7934.49 0z"/>
  <path class="fil4" d="M45461.66 16950.17c-19.85,0 -37.96,-3.7 -54.38,-11.04 -16.35,-7.34 -30.22,-18.64 -41.39,-33.85l-3.3 0c2.22,17.77 3.3,34.73 3.3,50.67l0 125.31 -46.17 0 0 -441.74 37.55 0 6.46 41.59 2.15 0c11.91,-16.76 25.77,-28.8 41.52,-36.21 15.81,-7.4 33.85,-11.1 54.24,-11.1 40.51,0 71.74,13.86 93.81,41.52 21.94,27.66 32.98,66.42 32.98,116.36 0,50.14 -11.24,89.1 -33.58,116.83 -22.41,27.79 -53.37,41.66 -93.21,41.66zm-6.6 -277.06c-31.16,0 -53.77,8.68 -67.63,25.84 -14,17.3 -21.13,44.75 -21.53,82.51l0 10.23c0,42.87 7.13,73.56 21.53,91.99 14.2,18.51 37.22,27.73 68.78,27.73 26.31,0 46.97,-10.63 61.91,-32.03 14.94,-21.4 22.41,-50.74 22.41,-88.23 0,-38.02 -7.47,-67.16 -22.41,-87.55 -14.94,-20.32 -36,-30.49 -63.06,-30.49z"/>
  <path id="1" class="fil4" d="M45808.17 16633.81c13.53,0 25.64,1.14 36.41,3.3l-6.39 43.07c-12.65,-2.76 -23.76,-4.17 -33.45,-4.17 -24.56,0 -45.69,9.96 -63.26,30.01 -17.5,20.05 -26.25,45.02 -26.25,74.83l0 163.6 -46.23 0 0 -304.92 38.16 0 5.25 56.33 2.29 0c11.31,-19.85 24.9,-35.2 40.85,-45.9 15.95,-10.77 33.45,-16.15 52.63,-16.15z"/>
  <path id="2" class="fil4" d="M46030.58 16950.17c-45.16,0 -80.69,-13.8 -106.73,-41.25 -26.11,-27.46 -39.1,-65.61 -39.1,-114.47 0,-49.19 12.05,-88.23 36.27,-117.23 24.23,-29 56.73,-43.41 97.58,-43.41 38.16,0 68.51,12.52 90.72,37.69 22.21,25.17 33.45,58.35 33.45,99.46l0 29.27 -210.17 0c0.94,35.8 9.96,62.99 27.12,81.63 17.16,18.51 41.32,27.79 72.55,27.79 32.77,0 65.28,-6.8 97.38,-20.59l0 41.25c-16.35,7.13 -31.83,12.11 -46.37,15.28 -14.54,3.03 -32.1,4.58 -52.69,4.58zm-12.58 -277.6c-24.5,0 -43.94,7.94 -58.48,23.96 -14.67,15.81 -23.22,37.89 -25.77,66.09l159.43 0c0,-29.07 -6.46,-51.41 -19.45,-66.89 -13.06,-15.48 -31.56,-23.15 -55.72,-23.15z"/>
  <path id="3" class="fil4" d="M46418.28 16861.34c0,28.4 -10.63,50.34 -31.76,65.75 -21.13,15.34 -50.81,23.08 -89.1,23.08 -40.38,0 -71.87,-6.39 -94.62,-19.18l0 -43c14.74,7.47 30.42,13.32 47.24,17.63 16.82,4.24 32.98,6.33 48.52,6.33 24.16,0 42.67,-3.9 55.72,-11.58 12.99,-7.67 19.45,-19.38 19.45,-35.13 0,-11.91 -5.11,-22.07 -15.48,-30.49 -10.3,-8.48 -30.35,-18.44 -60.23,-29.95 -28.4,-10.63 -48.59,-19.85 -60.5,-27.73 -11.98,-7.94 -20.93,-16.82 -26.72,-26.92 -5.92,-9.96 -8.75,-21.94 -8.75,-35.87 0,-24.9 10.09,-44.48 30.28,-58.95 20.26,-14.33 47.98,-21.53 83.25,-21.53 32.77,0 64.87,6.66 96.23,20.05l-16.42 37.62c-30.62,-12.65 -58.35,-18.91 -83.11,-18.91 -22.01,0 -38.49,3.43 -49.6,10.23 -11.1,6.93 -16.76,16.35 -16.76,28.4 0,8.21 2.09,15.14 6.26,20.93 4.24,5.72 10.97,11.24 20.26,16.42 9.22,5.11 27.05,12.72 53.37,22.54 36.21,13.19 60.63,26.51 73.35,39.77 12.72,13.39 19.11,30.22 19.11,50.47z"/>
  <path id="4" class="fil4" d="M46539.55 16944.45l-46.17 0 0 -304.92 46.17 0 0 304.92zm-50 -387.76c0,-10.57 2.56,-18.24 7.74,-23.22 5.25,-4.91 11.71,-7.4 19.52,-7.4 7.4,0 13.86,2.49 19.18,7.54 5.38,4.98 8.08,12.72 8.08,23.08 0,10.43 -2.69,18.24 -8.08,23.22 -5.32,5.18 -11.78,7.74 -19.18,7.74 -7.81,0 -14.27,-2.56 -19.52,-7.74 -5.18,-4.98 -7.74,-12.79 -7.74,-23.22z"/>
  <path id="5" class="fil4" d="M46845.28 16903.6l-2.42 0c-21.4,31.09 -53.3,46.57 -95.76,46.57 -39.91,0 -71,-13.73 -93.21,-40.98 -22.14,-27.26 -33.24,-66.09 -33.24,-116.36 0,-50.34 11.1,-89.37 33.45,-117.23 22.21,-27.86 53.3,-41.79 93,-41.79 41.32,0 73.02,15.01 95.16,45.09l3.63 0 -1.88 -22.01 -1.14 -21.4 0 -124.23 46.17 0 0 433.19 -37.55 0 -6.19 -40.85zm-92.4 7.81c31.49,0 54.44,-8.55 68.64,-25.77 14.2,-17.16 21.33,-44.82 21.33,-83.11l0 -9.69c0,-43.2 -7.27,-74.09 -21.6,-92.53 -14.4,-18.51 -37.42,-27.73 -68.98,-27.73 -27.05,0 -47.78,10.57 -62.18,31.63 -14.4,21 -21.6,50.74 -21.6,89.17 0,38.96 7.13,68.31 21.47,88.16 14.27,19.92 35.26,29.88 62.92,29.88z"/>
  <path id="6" class="fil4" d="M47115.81 16950.17c-45.16,0 -80.69,-13.8 -106.73,-41.25 -26.11,-27.46 -39.1,-65.61 -39.1,-114.47 0,-49.19 12.05,-88.23 36.27,-117.23 24.23,-29 56.73,-43.41 97.58,-43.41 38.16,0 68.51,12.52 90.72,37.69 22.21,25.17 33.45,58.35 33.45,99.46l0 29.27 -210.17 0c0.94,35.8 9.96,62.99 27.12,81.63 17.16,18.51 41.32,27.79 72.55,27.79 32.77,0 65.28,-6.8 97.38,-20.59l0 41.25c-16.35,7.13 -31.83,12.11 -46.37,15.28 -14.54,3.03 -32.1,4.58 -52.69,4.58zm-12.58 -277.6c-24.5,0 -43.94,7.94 -58.48,23.96 -14.67,15.81 -23.22,37.89 -25.77,66.09l159.43 0c0,-29.07 -6.46,-51.41 -19.45,-66.89 -13.06,-15.48 -31.56,-23.15 -55.72,-23.15z"/>
  <path id="7" class="fil4" d="M47515.55 16944.45l0 -197.31c0,-24.9 -5.59,-43.41 -16.96,-55.65 -11.31,-12.25 -29.07,-18.37 -53.23,-18.37 -31.9,0 -55.32,8.68 -70.12,25.84 -14.87,17.3 -22.34,45.83 -22.34,85.53l0 159.96 -46.17 0 0 -304.92 37.55 0 7.54 41.59 2.22 0c9.56,-15.01 22.75,-26.72 39.84,-34.99 17.09,-8.21 36.07,-12.32 57.07,-12.32 36.81,0 64.4,8.82 82.98,26.58 18.57,17.7 27.79,46.1 27.79,85.06l0 199 -46.17 0z"/>
  <path id="8" class="fil4" d="M47755.13 16911.95c8.21,0 16.08,-0.54 23.69,-1.82 7.6,-1.21 13.59,-2.42 18.04,-3.77l0 35.4c-5.05,2.42 -12.32,4.37 -22.14,5.99 -9.69,1.62 -18.51,2.42 -26.31,2.42 -59.02,0 -88.43,-31.09 -88.43,-93.34l0 -181.43 -43.74 0 0 -22.21 43.74 -19.31 19.45 -65.08 26.72 0 0 70.73 88.56 0 0 35.87 -88.56 0 0 179.48c0,18.44 4.37,32.5 13.12,42.33 8.75,9.83 20.66,14.74 35.87,14.74z"/>
  <g id="_1421830038192">
   <path class="fil25" d="M10703.75 8745.08l-984.82 173.69 0 0 0 0 173.69 984.75 140.65 -24.83 0 0 844.1 -148.79 -24.83 -140.72 -844.1 148.86 -124.03 -703.39 703.45 -124.03 115.89 -165.55zm99.2 562.74l-562.74 99.26 -115.89 165.48 703.45 -124.03 -24.83 -140.72zm-49.6 -281.37l-281.37 49.67 -115.89 165.48 422.02 -74.43 -24.77 -140.72z"/>
   <path class="fil26" d="M11884.41 9420.2l-257.48 45.29 -355.73 -465.02 -4.44 0.74c20.53,79.48 34.52,140.31 42.06,182.78l57.61 327.53 -173.83 30.69 -128.27 -726.74 256.54 -45.16 353.51 458.29 2.89 -0.47c-17.56,-72.48 -30.15,-130.89 -37.96,-175.24l-57.88 -328.61 174.77 -30.89 128.2 726.81z"/>
   <path id="1" class="fil26" d="M15323.68 8541.1l46.5 264.41 -196.17 34.73 -128.33 -726.81 238.16 -41.99c197.52,-34.86 308.96,19.45 334.13,162.52 14.81,84.19 -14.87,156.6 -88.76,217.1l267.57 279.35 -222.75 39.1 -200.75 -237.22 -49.6 8.82zm-26.04 -147.58l36.68 -6.6c68.71,-12.05 97.58,-48.45 86.95,-108.95 -8.82,-50.2 -46.91,-69.18 -114.2,-57.27l-38.76 6.73 29.34 166.09z"/>
   <path id="2" class="fil26" d="M16393.83 8625.09l-59.83 -130.02 -236.08 41.72 -12.72 142.6 -215.69 38.09 108.42 -771.36 261.92 -46.23 368.85 687.23 -214.88 37.96zm-128.94 -283.79l-52.29 -113.8c-12.05,-25.17 -26.85,-57.88 -44.82,-98.12 -17.7,-40.38 -30.01,-69.32 -36.54,-86.95 0,17.43 -0.87,46.43 -2.89,86.61 -1.88,40.31 -8.01,120.19 -17.97,239.51l154.51 -27.26z"/>
   <path id="3" class="fil26" d="M17423.47 8443.52l-257.41 45.29 -355.8 -465.02 -4.44 0.74c20.53,79.48 34.52,140.31 42.06,182.71l57.67 327.6 -173.83 30.69 -128.33 -726.74 256.6 -45.16 353.44 458.29 2.89 -0.47c-17.56,-72.48 -30.15,-130.89 -37.89,-175.24l-57.94 -328.61 174.84 -30.89 128.13 726.81z"/>
   <path id="4" class="fil26" d="M18041.12 8107.11c7.94,45.02 3.63,87.01 -13.12,125.98 -16.69,38.96 -44.95,71.87 -84.59,98.99 -39.71,26.85 -88.5,45.49 -146.37,55.86 -48.45,8.48 -89.71,12.25 -123.62,11.24 -34.05,-1.08 -70.19,-6.93 -108.68,-17.43l-30.82 -175.04c40.92,12.58 82.44,20.73 124.7,24.36 42.4,3.57 80.42,2.56 114.27,-3.5 29.14,-5.11 49.67,-13.93 61.37,-26.31 11.78,-12.58 16.35,-26.72 13.46,-42.6 -1.75,-10.03 -6.06,-18.3 -12.79,-24.7 -6.66,-6.53 -16.89,-12.52 -30.35,-18.1 -13.39,-5.32 -48.45,-15.28 -104.85,-29.61 -51.15,-13.12 -90.51,-27.79 -117.7,-43.81 -27.26,-16.02 -48.86,-36.21 -64.87,-60.3 -16.22,-24.16 -27.26,-54.17 -33.58,-89.91 -11.71,-66.89 3.23,-123.42 45.49,-169.45 42.13,-46.1 105.66,-76.58 190.92,-91.59 75.1,-13.26 154.92,-9.49 239.31,11.58l-33.45 162.25c-73.49,-19.18 -134.86,-24.43 -184.12,-15.68 -25.57,4.51 -43.27,12.25 -53.3,23.28 -10.09,10.83 -14,23.08 -11.58,36.41 2.42,14.07 12.05,25.64 28.8,34.25 16.69,8.61 60.5,22.07 131.03,40.51 67.57,17.03 116.36,39.71 146.37,67.63 30.01,28.13 49.53,66.56 58.08,115.68z"/>
   <path id="5" class="fil26" d="M12671.37 8905.72c21.53,122.28 7.94,220.53 -40.92,294.69 -48.79,74.3 -131.03,121.61 -246.58,141.86 -114.07,20.19 -207,3.63 -279.08,-49.67 -72.14,-53.23 -118.98,-141.05 -140.52,-263.26 -21.2,-120.8 -7.47,-218.58 41.86,-293.08 49.13,-74.43 131.57,-121.74 246.71,-142.13 115.75,-20.46 209.02,-4.24 279.82,48.45 70.73,52.96 116.89,140.52 138.7,263.13zm-500.08 88.16c24.7,140.45 86.07,202.23 183.65,185 49.87,-8.88 83.58,-32.44 101.75,-70.66 17.9,-38.49 20.53,-93.68 7.74,-165.95 -12.79,-72.55 -34.32,-124.1 -64.81,-154.51 -30.55,-30.28 -69.85,-41.19 -118.31,-32.57 -98.39,17.3 -135.13,96.97 -110.03,238.7z"/>
   <path id="6" class="fil26" d="M13191.24 8440.49l219.59 -38.76 -109.76 768.66 -231.23 40.85 -365.15 -685.01 220.67 -38.83 163.8 350.95c34.99,78.06 56.33,133.05 63.93,164.94 -1.68,-23.62 -2.22,-53.43 -1.35,-89.5 0.81,-36 2.02,-64.47 3.97,-85.33l35.53 -387.97z"/>
   <path id="7" class="fil26" d="M14277.88 8622.47c21.6,122.21 7.94,220.53 -40.85,294.69 -48.79,74.23 -131.03,121.54 -246.58,141.86 -114.14,20.19 -207,3.63 -279.08,-49.67 -72.14,-53.23 -118.98,-141.05 -140.52,-263.26 -21.27,-120.86 -7.47,-218.58 41.86,-293.08 49.13,-74.5 131.57,-121.74 246.71,-142.13 115.68,-20.46 208.96,-4.24 279.82,48.45 70.73,52.9 116.89,140.52 138.63,263.13zm-500.01 88.16c24.7,140.45 86.07,202.16 183.65,185 49.8,-8.88 83.58,-32.44 101.69,-70.73 17.97,-38.49 20.53,-93.61 7.81,-165.89 -12.79,-72.61 -34.32,-124.16 -64.81,-154.51 -30.55,-30.28 -69.85,-41.19 -118.31,-32.57 -98.46,17.3 -135.13,96.97 -110.03,238.7z"/>
   <polygon id="8" class="fil26" points="14838.4,8899.32 14642.09,8933.98 14542.22,8367.81 14364.83,8399.17 14336.57,8238.47 14887.26,8141.43 14915.52,8301.93 14738.66,8333.09 "/>
  </g>
  <path class="fil4" d="M38842.48 16108.22l-119.79 0 -198.79 -286.68 -60.9 49.8 0 236.88 -103.57 0 0 -633.13 103.57 0 0 302.23c28.26,-34.59 56.33,-67.97 84.39,-100.07l170.87 -202.16 117.77 0c-110.57,129.95 -189.78,222.42 -237.62,277.53l244.09 355.6z"/>
  <path id="1" class="fil4" d="M39340.27 15867.9c0,78.33 -20.12,139.37 -60.16,183.25 -40.18,43.94 -96.03,65.95 -167.57,65.95 -44.75,0 -84.39,-10.09 -118.64,-30.28 -34.46,-20.26 -60.9,-49.26 -79.41,-87.22 -18.44,-37.82 -27.59,-81.7 -27.59,-131.7 0,-77.73 19.92,-138.29 59.69,-181.9 39.91,-43.61 96.03,-65.48 168.44,-65.48 69.32,0 124.16,22.34 164.68,66.96 40.31,44.62 60.57,104.78 60.57,180.42zm-348.6 0c0,110.57 40.78,165.82 122.48,165.82 80.96,0 121.34,-55.25 121.34,-165.82 0,-109.36 -40.65,-164 -122.08,-164 -42.87,0 -73.76,14.2 -92.94,42.4 -19.25,28.2 -28.8,68.84 -28.8,121.61z"/>
  <path id="2" class="fil4" d="M39878.45 16108.22l-102.09 0 0 -294.36c0,-36.95 -7.54,-64.47 -22.34,-82.64 -14.87,-18.17 -38.56,-27.32 -70.93,-27.32 -43,0 -74.43,12.72 -94.42,38.09 -19.92,25.44 -29.88,67.97 -29.88,127.73l0 238.5 -101.82 0 0 -478.82 79.68 0 14.33 62.65 5.18 0c14.47,-22.88 34.99,-40.51 61.44,-52.9 26.65,-12.45 56.19,-18.64 88.43,-18.64 114.94,0 172.41,58.55 172.41,175.44l0 312.26z"/>
  <path id="3" class="fil4" d="M40341.79 15971.94c0,46.7 -16.96,82.64 -51.08,107.61 -34.05,24.97 -82.91,37.55 -146.37,37.55 -63.8,0 -115.08,-9.76 -153.84,-29.14l0 -87.89c56.33,25.98 108.82,38.96 157.27,38.96 62.65,0 94.01,-18.91 94.01,-56.73 0,-12.11 -3.43,-22.14 -10.36,-30.28 -6.93,-8.14 -18.3,-16.42 -34.32,-25.1 -15.81,-8.75 -37.96,-18.51 -66.15,-29.61 -55.12,-21.27 -92.53,-42.67 -112.05,-64 -19.52,-21.4 -29.27,-49.19 -29.27,-83.18 0,-41.05 16.56,-72.88 49.67,-95.63 33.11,-22.61 78.06,-33.98 134.93,-33.98 56.33,0 109.49,11.37 159.76,34.32l-32.98 76.65c-51.55,-21.4 -95.02,-32.03 -130.35,-32.03 -53.64,0 -80.49,15.21 -80.49,45.83 0,15.07 6.93,27.73 20.93,38.09 14.07,10.5 44.69,24.83 91.66,43 39.57,15.21 68.24,29.27 86.14,41.99 17.9,12.72 31.23,27.32 39.91,44.01 8.75,16.56 12.99,36.41 12.99,59.56z"/>
  <path id="4" class="fil4" d="M40630.02 16034.6c24.83,0 49.67,-3.84 74.5,-11.64l0 76.85c-11.24,4.85 -25.91,9.02 -43.61,12.25 -17.77,3.43 -36.07,5.05 -55.12,5.05 -96.37,0 -144.55,-50.88 -144.55,-152.56l0 -258.02 -65.48 0 0 -45.09 70.19 -37.22 34.59 -101.21 62.86 0 0 106.4 136.41 0 0 77.12 -136.41 0 0 256.27c0,24.56 6.06,42.6 18.3,54.24 12.25,11.71 28.4,17.56 48.32,17.56z"/>
  <path id="5" class="fil4" d="M41099.68 16108.22l-20.39 -66.49 -3.43 0c-23.02,29.07 -46.23,49.06 -69.72,59.56 -23.35,10.5 -53.37,15.81 -90.04,15.81 -46.97,0 -83.78,-12.72 -110.1,-38.16 -26.45,-25.44 -39.57,-61.31 -39.57,-107.88 0,-49.33 18.3,-86.61 54.98,-111.71 36.61,-25.1 92.47,-38.9 167.43,-41.12l82.71 -2.62 0 -25.57c0,-30.62 -7.2,-53.5 -21.4,-68.71 -14.33,-15.21 -36.47,-22.75 -66.49,-22.75 -24.56,0 -48.05,3.5 -70.53,10.77 -22.61,7.27 -44.15,15.81 -65.01,25.57l-32.77 -72.75c25.84,-13.59 54.38,-23.89 85.26,-31.02 30.89,-7.07 59.96,-10.63 87.35,-10.63 60.97,0 106.93,13.32 137.82,39.91 31.09,26.45 46.57,68.31 46.57,125.17l0 322.62 -72.68 0zm-151.49 -69.18c36.95,0 66.62,-10.3 88.97,-31.02 22.28,-20.66 33.51,-49.67 33.51,-86.88l0 -41.66 -61.44 2.62c-47.92,1.62 -82.78,9.76 -104.51,24.09 -21.87,14.2 -32.77,36.21 -32.77,65.61 0,21.47 6.33,37.96 19.04,49.67 12.72,11.64 31.76,17.56 57.2,17.56z"/>
  <path id="6" class="fil4" d="M41735.84 16108.22l-102.09 0 0 -294.36c0,-36.95 -7.54,-64.47 -22.34,-82.64 -14.87,-18.17 -38.56,-27.32 -70.93,-27.32 -43,0 -74.43,12.72 -94.42,38.09 -19.92,25.44 -29.88,67.97 -29.88,127.73l0 238.5 -101.82 0 0 -478.82 79.68 0 14.33 62.65 5.18 0c14.47,-22.88 34.99,-40.51 61.44,-52.9 26.65,-12.45 56.19,-18.64 88.43,-18.64 114.94,0 172.41,58.55 172.41,175.44l0 312.26z"/>
  <path id="7" class="fil4" d="M42055.7 16034.6c24.83,0 49.67,-3.84 74.5,-11.64l0 76.85c-11.24,4.85 -25.91,9.02 -43.61,12.25 -17.77,3.43 -36.07,5.05 -55.12,5.05 -96.37,0 -144.55,-50.88 -144.55,-152.56l0 -258.02 -65.48 0 0 -45.09 70.19 -37.22 34.59 -101.21 62.86 0 0 106.4 136.41 0 0 77.12 -136.41 0 0 256.27c0,24.56 6.06,42.6 18.3,54.24 12.25,11.71 28.4,17.56 48.32,17.56z"/>
  <path id="8" class="fil4" d="M42327.58 16108.22l-101.62 0 0 -478.82 101.62 0 0 478.82zm-107.67 -605.6c0,-18.17 4.85,-32.24 14.87,-41.99 9.96,-9.89 24.09,-14.74 42.6,-14.74 17.9,0 31.9,4.85 41.79,14.74 9.89,9.76 14.94,23.82 14.94,41.99 0,17.3 -5.05,30.89 -14.94,40.92 -9.89,9.89 -23.89,14.94 -41.79,14.94 -18.51,0 -32.64,-5.05 -42.6,-14.94 -10.03,-10.03 -14.87,-23.62 -14.87,-40.92z"/>
  <path id="9" class="fil4" d="M42894.49 16108.22l-102.09 0 0 -294.36c0,-36.95 -7.54,-64.47 -22.34,-82.64 -14.87,-18.17 -38.56,-27.32 -70.93,-27.32 -43,0 -74.43,12.72 -94.42,38.09 -19.92,25.44 -29.88,67.97 -29.88,127.73l0 238.5 -101.82 0 0 -478.82 79.68 0 14.33 62.65 5.18 0c14.47,-22.88 34.99,-40.51 61.44,-52.9 26.65,-12.45 56.19,-18.64 88.43,-18.64 114.94,0 172.41,58.55 172.41,175.44l0 312.26z"/>
  <path id="10" class="fil4" d="M43536.09 15765.07l232.91 0 0 317.84c-38.16,12.45 -74.63,21.2 -109.63,26.31 -35.2,5.18 -73.02,7.87 -113.66,7.87 -95.9,0 -169.79,-28.4 -221.68,-85.13 -52.02,-56.73 -78.06,-136.68 -78.06,-240.18 0,-101.82 29.41,-181.63 87.96,-239.11 58.68,-57.61 139.24,-86.41 242.07,-86.41 66.09,0 128.74,12.65 187.83,38.09l-36.34 86.01c-51.41,-23.62 -102.69,-35.47 -154.11,-35.47 -67.57,0 -120.93,21.27 -160.23,63.73 -39.17,42.4 -58.82,100.34 -58.82,173.89 0,77.32 17.77,136.14 53.03,176.32 35.33,40.38 86.21,60.43 152.56,60.43 33.51,0 69.32,-4.11 107.41,-12.52l0 -163.06 -131.23 0 0 -88.63z"/>
  <path id="11" class="fil4" d="M44335.04 15867.9c0,78.33 -20.12,139.37 -60.16,183.25 -40.18,43.94 -96.03,65.95 -167.57,65.95 -44.75,0 -84.39,-10.09 -118.64,-30.28 -34.46,-20.26 -60.9,-49.26 -79.41,-87.22 -18.44,-37.82 -27.59,-81.7 -27.59,-131.7 0,-77.73 19.92,-138.29 59.69,-181.9 39.91,-43.61 96.03,-65.48 168.44,-65.48 69.32,0 124.16,22.34 164.68,66.96 40.31,44.62 60.57,104.78 60.57,180.42zm-348.6 0c0,110.57 40.78,165.82 122.48,165.82 80.96,0 121.34,-55.25 121.34,-165.82 0,-109.36 -40.65,-164 -122.08,-164 -42.87,0 -73.76,14.2 -92.94,42.4 -19.25,28.2 -28.8,68.84 -28.8,121.61z"/>
  <path id="12" class="fil4" d="M44873.21 16108.22l-102.09 0 0 -294.36c0,-36.95 -7.54,-64.47 -22.34,-82.64 -14.87,-18.17 -38.56,-27.32 -70.93,-27.32 -43,0 -74.43,12.72 -94.42,38.09 -19.92,25.44 -29.88,67.97 -29.88,127.73l0 238.5 -101.82 0 0 -478.82 79.68 0 14.33 62.65 5.18 0c14.47,-22.88 34.99,-40.51 61.44,-52.9 26.65,-12.45 56.19,-18.64 88.43,-18.64 114.94,0 172.41,58.55 172.41,175.44l0 312.26z"/>
  <path id="13" class="fil4" d="M45207.68 16117.1c-72.41,0 -127.39,-21.13 -165.08,-63.6 -37.69,-42.26 -56.39,-102.96 -56.39,-182.04 0,-80.69 19.65,-142.6 59.09,-185.94 39.3,-43.27 96.23,-65.01 170.66,-65.01 50.54,0 95.97,9.49 136.41,28.26l-30.69 81.97c-43.07,-16.69 -78.54,-25.1 -106.6,-25.1 -82.78,0 -124.1,54.98 -124.1,164.94 0,53.64 10.3,93.95 30.89,120.86 20.66,27.05 50.81,40.51 90.72,40.51 45.22,0 88.09,-11.24 128.54,-33.85l0 88.97c-18.17,10.77 -37.69,18.44 -58.21,23.08 -20.66,4.58 -45.63,6.93 -75.24,6.93z"/>
  <path id="14" class="fil4" d="M45875.19 16108.22l-102.09 0 0 -294.36c0,-36.95 -7.54,-64.47 -22.34,-82.64 -14.87,-18.17 -38.56,-27.32 -70.93,-27.32 -42.67,0 -74.16,12.72 -94.15,38.29 -20.05,25.51 -30.15,68.37 -30.15,128.4l0 237.62 -101.82 0 0 -673.91 101.82 0 0 171.14c0,27.32 -1.75,56.6 -5.11,87.82l6.46 0c13.93,-23.08 33.11,-40.98 57.81,-53.7 24.7,-12.65 53.5,-19.04 86.48,-19.04 115.95,0 174.03,58.55 174.03,175.44l0 312.26z"/>
  <path id="15" class="fil4" d="M46316.26 16108.22l-20.39 -66.49 -3.43 0c-23.02,29.07 -46.23,49.06 -69.72,59.56 -23.35,10.5 -53.37,15.81 -90.04,15.81 -46.97,0 -83.78,-12.72 -110.1,-38.16 -26.45,-25.44 -39.57,-61.31 -39.57,-107.88 0,-49.33 18.3,-86.61 54.98,-111.71 36.61,-25.1 92.47,-38.9 167.43,-41.12l82.71 -2.62 0 -25.57c0,-30.62 -7.2,-53.5 -21.4,-68.71 -14.33,-15.21 -36.47,-22.75 -66.49,-22.75 -24.56,0 -48.05,3.5 -70.53,10.77 -22.61,7.27 -44.15,15.81 -65.01,25.57l-32.77 -72.75c25.84,-13.59 54.38,-23.89 85.26,-31.02 30.89,-7.07 59.96,-10.63 87.35,-10.63 60.97,0 106.93,13.32 137.82,39.91 31.09,26.45 46.57,68.31 46.57,125.17l0 322.62 -72.68 0zm-151.49 -69.18c36.95,0 66.62,-10.3 88.97,-31.02 22.28,-20.66 33.51,-49.67 33.51,-86.88l0 -41.66 -61.44 2.62c-47.92,1.62 -82.78,9.76 -104.51,24.09 -21.87,14.2 -32.77,36.21 -32.77,65.61 0,21.47 6.33,37.96 19.04,49.67 12.72,11.64 31.76,17.56 57.2,17.56z"/>
  <path id="16" class="fil4" d="M46773.74 15620.52c20.59,0 37.42,1.48 50.74,4.31l-10.09 94.89c-14.33,-3.43 -29.41,-5.18 -44.89,-5.18 -40.65,0 -73.62,13.26 -98.86,39.77 -25.3,26.58 -37.89,61.17 -37.89,103.57l0 250.34 -101.82 0 0 -478.82 79.68 0 13.46 84.26 5.18 0c15.81,-28.53 36.61,-51.28 62.05,-67.97 25.57,-16.76 53.03,-25.17 82.44,-25.17z"/>
  <path id="17" class="fil4" d="M47338.16 15867.9c0,78.33 -20.12,139.37 -60.16,183.25 -40.18,43.94 -96.03,65.95 -167.57,65.95 -44.75,0 -84.39,-10.09 -118.64,-30.28 -34.46,-20.26 -60.9,-49.26 -79.41,-87.22 -18.44,-37.82 -27.59,-81.7 -27.59,-131.7 0,-77.73 19.92,-138.29 59.69,-181.9 39.91,-43.61 96.03,-65.48 168.44,-65.48 69.32,0 124.16,22.34 164.68,66.96 40.31,44.62 60.57,104.78 60.57,180.42zm-348.6 0c0,110.57 40.78,165.82 122.48,165.82 80.96,0 121.34,-55.25 121.34,-165.82 0,-109.36 -40.65,-164 -122.08,-164 -42.87,0 -73.76,14.2 -92.94,42.4 -19.25,28.2 -28.8,68.84 -28.8,121.61z"/>
  <path id="18" class="fil4" d="M47563.94 16108.22l-181.77 -478.82 107.41 0 97.24 278.41c16.89,46.7 26.92,84.52 30.35,113.4l3.5 0c2.56,-20.73 12.72,-58.55 30.35,-113.4l97.38 -278.41 108.15 0 -182.64 478.82 -109.96 0z"/>
  <g id="_1421953362032">
   <path class="fil25" d="M42956 29602.37l-1516.33 0 0 1516.4 1516.33 0 0 -216.63 -1299.77 0 0 -1083.14 1083.14 0 216.63 -216.63zm0 866.51l-866.51 0 -216.56 216.63 1083.07 0 0 -216.63zm0 -433.26l-433.26 0 -216.63 216.63 649.88 0 0 -216.63z"/>
   <path class="fil27" d="M44542.45 30921.45l-396.92 0 -408.9 -789.05 -6.8 0c9.69,124.16 14.4,218.85 14.4,284.19l0 504.86 -267.98 0 0 -1120.02 395.3 0 407.35 778.29 4.71 0c-7.34,-112.92 -10.77,-203.37 -10.77,-271.88l0 -506.41 269.59 0 0 1120.02z"/>
   <path id="1" class="fil27" d="M49909.37 30513.56l0 407.89 -302.5 0 0 -1120.02 367.04 0c304.32,0 456.54,110.3 456.54,330.7 0,129.68 -63.33,230.09 -189.84,300.95l326.25 488.37 -343.01 0 -237.62 -407.89 -76.85 0zm0 -227.46l56.73 0c105.86,0 158.95,-46.77 158.95,-140.11 0,-77.12 -52.02,-115.55 -155.86,-115.55l-59.83 0 0 255.66z"/>
   <path id="2" class="fil27" d="M51485.86 30921.45l-54.91 -210.24 -363.94 0 -56.46 210.24 -332.58 0 365.22 -1124.73 403.71 0 369.93 1124.73 -330.97 0zm-117.9 -458.09l-48.12 -184.06c-11.24,-40.78 -24.83,-93.54 -41.05,-158.42 -15.95,-65.08 -26.72,-111.38 -31.63,-139.57 -4.71,26.11 -13.86,68.98 -27.19,128.87 -13.59,59.62 -43.68,177.53 -90.24,353.17l238.23 0z"/>
   <path id="3" class="fil27" d="M53071.78 30921.45l-396.92 0 -408.9 -789.05 -6.8 0c9.69,124.16 14.4,218.85 14.4,284.19l0 504.86 -267.98 0 0 -1120.02 395.3 0 407.35 778.29 4.71 0c-7.34,-112.92 -10.77,-203.37 -10.77,-271.88l0 -506.41 269.59 0 0 1120.02z"/>
   <path id="4" class="fil27" d="M54082.3 30581.53c0,69.58 -17.56,131.3 -52.83,185.13 -35.26,53.84 -86.01,95.7 -152.43,125.78 -66.42,29.81 -144.28,44.69 -233.45,44.69 -74.5,0 -137.29,-5.25 -187.76,-15.68 -50.47,-10.43 -102.96,-28.74 -157.61,-54.91l0 -269.79c57.47,29.54 117.63,52.56 179.88,69.25 62.18,16.49 119.45,24.83 171.47,24.83 44.95,0 77.93,-7.81 98.86,-23.22 20.86,-15.48 31.36,-35.6 31.36,-59.89 0,-15.41 -4.17,-28.74 -12.85,-40.24 -8.34,-11.51 -21.94,-23.02 -40.51,-34.79 -18.57,-11.78 -68.24,-35.8 -149,-72.14 -72.95,-33.24 -127.59,-65.41 -164.2,-96.5 -36.34,-31.09 -63.53,-66.89 -81.03,-107.2 -17.56,-40.24 -26.45,-88.09 -26.45,-143.27 0,-102.96 37.42,-183.52 112.45,-241.33 75.04,-57.74 178.27,-86.48 309.57,-86.48 115.82,0 233.99,26.65 354.52,80.22l-92.6 233.25c-104.78,-47.85 -195.03,-71.94 -271.07,-71.94 -39.23,0 -67.97,7.07 -85.8,20.93 -18.04,13.86 -26.92,31.09 -26.92,51.48 0,22.01 11.51,41.86 34.25,59.09 22.75,17.3 84.19,48.92 184.86,94.96 96.44,43.41 163.4,90.18 201.02,139.84 37.42,49.93 56.26,112.45 56.26,187.96z"/>
   <path id="5" class="fil27" d="M45853.12 30360.13c0,188.5 -46.03,331.77 -138.56,429.82 -92.33,98.05 -227.73,147.18 -406.07,147.18 -175.64,0 -310.31,-49.4 -404.18,-147.99 -93.61,-98.52 -140.38,-242.07 -140.38,-430.36 0,-186.41 46.5,-328.88 139.84,-427.2 93.07,-98.25 228.54,-147.45 406.34,-147.45 178.27,0 313.2,48.92 405.19,146.44 92.06,97.51 137.82,240.79 137.82,429.56zm-770.48 -0.27c0,216.49 75.31,324.71 225.85,324.71 76.65,0 133.65,-26.38 170.46,-78.94 37.15,-52.56 55.72,-134.39 55.72,-245.77 0,-111.91 -18.84,-194.49 -56.46,-247.85 -37.42,-53.37 -93.61,-80.02 -168.11,-80.02 -151.69,0 -227.46,109.29 -227.46,327.87z"/>
   <path id="6" class="fil27" d="M46751.94 29801.43l338.57 0 -367.04 1120.02 -356.13 0 -365.49 -1120.02 340.12 0 152.43 567.58c31.63,126.25 49.19,214.14 52.29,263.53 3.43,-35.53 10.77,-80.29 21.47,-133.85 10.7,-53.84 20.12,-95.97 28.2,-126.52l155.59 -570.74z"/>
   <path id="7" class="fil27" d="M48326.88 30360.13c0,188.5 -46.03,331.77 -138.56,429.82 -92.33,98.05 -227.73,147.18 -406.07,147.18 -175.64,0 -310.31,-49.4 -404.18,-147.99 -93.61,-98.52 -140.38,-242.07 -140.38,-430.36 0,-186.41 46.5,-328.88 139.84,-427.2 93.07,-98.25 228.54,-147.45 406.34,-147.45 178.27,0 313.2,48.92 405.19,146.44 92.06,97.51 137.82,240.79 137.82,429.56zm-770.48 -0.27c0,216.49 75.31,324.71 225.85,324.71 76.65,0 133.65,-26.38 170.46,-78.94 37.15,-52.56 55.72,-134.39 55.72,-245.77 0,-111.91 -18.84,-194.49 -56.46,-247.85 -37.42,-53.37 -93.61,-80.02 -168.11,-80.02 -151.69,0 -227.46,109.29 -227.46,327.87z"/>
   <polygon id="8" class="fil27" points="49090.77,30921.45 48788.27,30921.45 48788.27,30049.28 48514.57,30049.28 48514.57,29801.43 49363.72,29801.43 49363.72,30049.28 49090.77,30049.28 "/>
  </g>
  <path class="fil0" d="M34750.03 14724.4l1368.95 1368.95 -3827.64 0 0 -1368.95 2458.69 0zm2737.83 2737.83l1369.02 1369.02 -6565.54 0 0 -1369.02 5196.52 0zm2737.97 2737.97l1368.95 1368.95 -9303.44 0 0 -1368.95 7934.49 0z"/>
  <path class="fil28" d="M35020.43 13101.47l-1889.69 0 0 0 0 0 0 1889.69 269.99 0 0 0 1619.7 0 0 -269.99 -1619.7 0 0 -1349.77 1349.77 0 269.93 -269.93zm0 1079.78l-1079.84 0 -269.93 269.99 1349.77 0 0 -269.99zm0 -539.85l-539.92 0 -269.93 269.93 809.85 0 0 -269.93z"/>
  <path class="fil26" d="M43584.68 19017.26l-53.97 0 -222.42 -341.53 -2.29 0c2.96,40.11 4.51,76.79 4.51,110.23l0 231.3 -43.74 0 0 -407.01 53.43 0 221.88 340.25 2.22 0c-0.4,-5.05 -1.14,-21.13 -2.49,-48.39 -1.35,-27.19 -1.82,-46.57 -1.41,-58.35l0 -233.52 44.28 0 0 407.01z"/>
  <path id="1" class="fil26" d="M43952.8 18864.49c0,49.8 -12.52,88.63 -37.48,116.56 -25.1,27.93 -59.69,41.93 -103.84,41.93 -27.32,0 -51.55,-6.39 -72.68,-19.18 -21.13,-12.85 -37.48,-31.29 -48.92,-55.25 -11.64,-23.89 -17.3,-51.95 -17.3,-84.05 0,-49.8 12.45,-88.56 37.35,-116.29 24.77,-27.73 59.36,-41.59 103.44,-41.59 42.73,0 76.58,14.13 101.75,42.53 25.17,28.4 37.69,66.89 37.69,115.35zm-232.38 0c0,38.96 7.81,68.71 23.35,89.1 15.61,20.46 38.49,30.62 68.84,30.62 30.15,0 53.16,-10.16 68.84,-30.49 15.68,-20.39 23.49,-50.07 23.49,-89.24 0,-38.76 -7.81,-68.24 -23.49,-88.36 -15.68,-20.12 -38.83,-30.22 -69.45,-30.22 -30.28,0 -53.1,9.89 -68.51,29.75 -15.34,19.85 -23.08,49.53 -23.08,88.83z"/>
  <path id="2" class="fil26" d="M44100.65 19017.26l-115.82 -304.92 49.6 0 65.61 180.83c14.87,42.33 23.55,69.79 26.18,82.37l2.22 0c2.02,-9.89 8.48,-30.22 19.31,-61.04 10.9,-30.89 35.26,-98.32 73.08,-202.16l49.53 0 -115.75 304.92 -53.97 0z"/>
  <path id="3" class="fil26" d="M44582.63 18864.49c0,49.8 -12.52,88.63 -37.48,116.56 -25.1,27.93 -59.69,41.93 -103.84,41.93 -27.32,0 -51.55,-6.39 -72.68,-19.18 -21.13,-12.85 -37.48,-31.29 -48.92,-55.25 -11.64,-23.89 -17.3,-51.95 -17.3,-84.05 0,-49.8 12.45,-88.56 37.35,-116.29 24.77,-27.73 59.36,-41.59 103.44,-41.59 42.73,0 76.58,14.13 101.75,42.53 25.17,28.4 37.69,66.89 37.69,115.35zm-232.38 0c0,38.96 7.81,68.71 23.35,89.1 15.61,20.46 38.49,30.62 68.84,30.62 30.15,0 53.16,-10.16 68.84,-30.49 15.68,-20.39 23.49,-50.07 23.49,-89.24 0,-38.76 -7.81,-68.24 -23.49,-88.36 -15.68,-20.12 -38.83,-30.22 -69.45,-30.22 -30.28,0 -53.1,9.89 -68.51,29.75 -15.34,19.85 -23.08,49.53 -23.08,88.83z"/>
  <path id="4" class="fil26" d="M44762.17 18984.75c8.21,0 16.08,-0.54 23.69,-1.82 7.6,-1.21 13.59,-2.42 18.04,-3.77l0 35.4c-5.05,2.42 -12.32,4.37 -22.14,5.99 -9.69,1.62 -18.51,2.42 -26.31,2.42 -59.02,0 -88.43,-31.09 -88.43,-93.34l0 -181.43 -43.74 0 0 -22.21 43.74 -19.31 19.45 -65.08 26.72 0 0 70.73 88.56 0 0 35.87 -88.56 0 0 179.48c0,18.44 4.37,32.5 13.12,42.33 8.75,9.83 20.66,14.74 35.87,14.74z"/>
  <path id="5" class="fil26" d="M45003.97 18706.62c13.53,0 25.64,1.14 36.41,3.3l-6.39 43.07c-12.65,-2.76 -23.76,-4.17 -33.45,-4.17 -24.56,0 -45.69,9.96 -63.26,30.01 -17.5,20.05 -26.25,45.02 -26.25,74.83l0 163.6 -46.23 0 0 -304.92 38.16 0 5.25 56.33 2.29 0c11.31,-19.85 24.9,-35.2 40.85,-45.9 15.95,-10.77 33.45,-16.15 52.63,-16.15z"/>
  <path id="6" class="fil26" d="M45285.07 19017.26l-9.22 -43.41 -2.29 0c-15.21,19.11 -30.28,32.1 -45.43,38.96 -15.14,6.73 -33.98,10.16 -56.6,10.16 -30.28,0 -53.97,-7.81 -71.13,-23.42 -17.09,-15.61 -25.77,-37.75 -25.77,-66.69 0,-61.64 49.33,-93.95 147.72,-96.84l51.82 -1.75 0 -18.91c0,-23.82 -5.18,-41.52 -15.41,-52.9 -10.36,-11.37 -26.78,-17.09 -49.4,-17.09 -25.44,0 -54.17,7.81 -86.27,23.35l-14.13 -35.33c15.01,-8.14 31.43,-14.6 49.26,-19.31 17.97,-4.64 35.94,-6.93 53.9,-6.93 36.41,0 63.26,8.08 80.82,24.23 17.56,16.15 26.31,41.99 26.31,77.66l0 208.22 -34.19 0zm-104.38 -32.5c28.74,0 51.35,-7.87 67.7,-23.62 16.42,-15.81 24.7,-37.82 24.7,-66.22l0 -27.59 -46.23 2.02c-36.68,1.21 -63.19,6.93 -79.41,17.09 -16.29,10.09 -24.36,25.84 -24.36,47.11 0,16.76 5.05,29.48 15.21,38.09 10.09,8.75 24.23,13.12 42.4,13.12z"/>
  <path id="7" class="fil26" d="M45623.37 19017.26l0 -197.31c0,-24.9 -5.59,-43.41 -16.96,-55.65 -11.31,-12.25 -29.07,-18.37 -53.23,-18.37 -31.9,0 -55.32,8.68 -70.12,25.84 -14.87,17.3 -22.34,45.83 -22.34,85.53l0 159.96 -46.17 0 0 -304.92 37.55 0 7.54 41.59 2.22 0c9.56,-15.01 22.75,-26.72 39.84,-34.99 17.09,-8.21 36.07,-12.32 57.07,-12.32 36.81,0 64.4,8.82 82.98,26.58 18.57,17.7 27.79,46.1 27.79,85.06l0 199 -46.17 0z"/>
  <path id="8" class="fil26" d="M45961.2 18934.15c0,28.4 -10.63,50.34 -31.76,65.75 -21.13,15.34 -50.81,23.08 -89.1,23.08 -40.38,0 -71.87,-6.39 -94.62,-19.18l0 -43c14.74,7.47 30.42,13.32 47.24,17.63 16.82,4.24 32.98,6.33 48.52,6.33 24.16,0 42.67,-3.9 55.72,-11.58 12.99,-7.67 19.45,-19.38 19.45,-35.13 0,-11.91 -5.11,-22.07 -15.48,-30.49 -10.3,-8.48 -30.35,-18.44 -60.23,-29.95 -28.4,-10.63 -48.59,-19.85 -60.5,-27.73 -11.98,-7.94 -20.93,-16.82 -26.72,-26.92 -5.92,-9.96 -8.75,-21.94 -8.75,-35.87 0,-24.9 10.09,-44.48 30.28,-58.95 20.26,-14.33 47.98,-21.53 83.25,-21.53 32.77,0 64.87,6.66 96.23,20.05l-16.42 37.62c-30.62,-12.65 -58.35,-18.91 -83.11,-18.91 -22.01,0 -38.49,3.43 -49.6,10.23 -11.1,6.93 -16.76,16.35 -16.76,28.4 0,8.21 2.09,15.14 6.26,20.93 4.24,5.72 10.97,11.24 20.26,16.42 9.22,5.11 27.05,12.72 53.37,22.54 36.21,13.19 60.63,26.51 73.35,39.77 12.72,13.39 19.11,30.22 19.11,50.47z"/>
  <path id="9" class="fil26" d="M46370.36 18804.06l138.29 0 0 197.99c-21.53,6.86 -43.41,12.05 -65.68,15.61 -22.28,3.5 -48.12,5.32 -77.39,5.32 -61.64,0 -109.63,-18.37 -143.88,-55.05 -34.32,-36.68 -51.48,-87.96 -51.48,-154.04 0,-42.33 8.55,-79.34 25.44,-111.17 17.03,-31.83 41.39,-56.13 73.35,-72.95 31.9,-16.82 69.32,-25.17 112.18,-25.17 43.41,0 83.85,7.94 121.34,23.82l-18.37 41.72c-36.74,-15.61 -72.07,-23.35 -105.99,-23.35 -49.6,0 -88.29,14.67 -116.09,44.21 -27.86,29.48 -41.72,70.39 -41.72,122.75 0,54.91 13.39,96.64 40.18,125.04 26.78,28.4 66.22,42.53 118.17,42.53 28.13,0 55.72,-3.23 82.64,-9.76l0 -125.31 -90.99 0 0 -42.2z"/>
  <path id="10" class="fil26" d="M46738.48 18706.62c13.53,0 25.64,1.14 36.41,3.3l-6.39 43.07c-12.65,-2.76 -23.76,-4.17 -33.45,-4.17 -24.56,0 -45.69,9.96 -63.26,30.01 -17.5,20.05 -26.25,45.02 -26.25,74.83l0 163.6 -46.23 0 0 -304.92 38.16 0 5.25 56.33 2.29 0c11.31,-19.85 24.9,-35.2 40.85,-45.9 15.95,-10.77 33.45,-16.15 52.63,-16.15z"/>
  <path id="11" class="fil26" d="M47095.28 18864.49c0,49.8 -12.52,88.63 -37.48,116.56 -25.1,27.93 -59.69,41.93 -103.84,41.93 -27.32,0 -51.55,-6.39 -72.68,-19.18 -21.13,-12.85 -37.48,-31.29 -48.92,-55.25 -11.64,-23.89 -17.3,-51.95 -17.3,-84.05 0,-49.8 12.45,-88.56 37.35,-116.29 24.77,-27.73 59.36,-41.59 103.44,-41.59 42.73,0 76.58,14.13 101.75,42.53 25.17,28.4 37.69,66.89 37.69,115.35zm-232.38 0c0,38.96 7.81,68.71 23.35,89.1 15.61,20.46 38.49,30.62 68.84,30.62 30.15,0 53.16,-10.16 68.84,-30.49 15.68,-20.39 23.49,-50.07 23.49,-89.24 0,-38.76 -7.81,-68.24 -23.49,-88.36 -15.68,-20.12 -38.83,-30.22 -69.45,-30.22 -30.28,0 -53.1,9.89 -68.51,29.75 -15.34,19.85 -23.08,49.53 -23.08,88.83z"/>
  <path id="12" class="fil26" d="M47219.78 18712.34l0 197.85c0,24.77 5.59,43.41 16.96,55.65 11.31,12.25 29.07,18.37 53.23,18.37 31.9,0 55.18,-8.75 69.99,-26.11 14.74,-17.5 22.14,-46.03 22.14,-85.53l0 -160.23 46.17 0 0 304.92 -38.09 0 -6.66 -40.78 -2.56 0c-9.42,15.01 -22.61,26.51 -39.44,34.52 -16.69,7.94 -35.87,11.98 -57.47,11.98 -37.15,0 -64.87,-8.88 -83.38,-26.45 -18.44,-17.63 -27.66,-45.9 -27.66,-84.66l0 -199.53 46.77 0z"/>
  <path id="13" class="fil26" d="M47668.11 19022.98c-19.85,0 -37.96,-3.7 -54.38,-11.04 -16.35,-7.34 -30.22,-18.64 -41.39,-33.85l-3.3 0c2.22,17.77 3.3,34.73 3.3,50.67l0 125.31 -46.17 0 0 -441.74 37.55 0 6.46 41.59 2.15 0c11.91,-16.76 25.77,-28.8 41.52,-36.21 15.81,-7.4 33.85,-11.1 54.24,-11.1 40.51,0 71.74,13.86 93.81,41.52 21.94,27.66 32.98,66.42 32.98,116.36 0,50.14 -11.24,89.1 -33.58,116.83 -22.41,27.79 -53.37,41.66 -93.21,41.66zm-6.6 -277.06c-31.16,0 -53.77,8.68 -67.63,25.84 -14,17.3 -21.13,44.75 -21.53,82.51l0 10.23c0,42.87 7.13,73.56 21.53,91.99 14.2,18.51 37.22,27.73 68.78,27.73 26.31,0 46.97,-10.63 61.91,-32.03 14.94,-21.4 22.41,-50.74 22.41,-88.23 0,-38.02 -7.47,-67.16 -22.41,-87.55 -14.94,-20.32 -36,-30.49 -63.06,-30.49z"/>
  <path id="14" class="fil26" d="M41339.06 19482.88c13.53,0 25.64,1.14 36.41,3.3l-6.39 43.07c-12.65,-2.76 -23.76,-4.17 -33.45,-4.17 -24.56,0 -45.69,9.96 -63.26,30.01 -17.5,20.05 -26.25,45.02 -26.25,74.83l0 163.6 -46.23 0 0 -304.92 38.16 0 5.25 56.33 2.29 0c11.31,-19.85 24.9,-35.2 40.85,-45.9 15.95,-10.77 33.45,-16.15 52.63,-16.15z"/>
  <path id="15" class="fil26" d="M41561.47 19799.25c-45.16,0 -80.69,-13.8 -106.73,-41.25 -26.11,-27.46 -39.1,-65.61 -39.1,-114.47 0,-49.19 12.05,-88.23 36.27,-117.23 24.23,-29 56.73,-43.41 97.58,-43.41 38.16,0 68.51,12.52 90.72,37.69 22.21,25.17 33.45,58.35 33.45,99.46l0 29.27 -210.17 0c0.94,35.8 9.96,62.99 27.12,81.63 17.16,18.51 41.32,27.79 72.55,27.79 32.77,0 65.28,-6.8 97.38,-20.59l0 41.25c-16.35,7.13 -31.83,12.11 -46.37,15.28 -14.54,3.03 -32.1,4.58 -52.69,4.58zm-12.58 -277.6c-24.5,0 -43.94,7.94 -58.48,23.96 -14.67,15.81 -23.22,37.89 -25.77,66.09l159.43 0c0,-29.07 -6.46,-51.41 -19.45,-66.89 -13.06,-15.48 -31.56,-23.15 -55.72,-23.15z"/>
  <path id="16" class="fil26" d="M41889.88 19524.47l-77.59 0 0 269.05 -46.3 0 0 -269.05 -54.51 0 0 -20.86 54.51 -16.76 0 -17.03c0,-74.9 32.77,-112.39 98.32,-112.39 16.15,0 35.06,3.23 56.73,9.83l-11.98 37.01c-17.77,-5.79 -32.98,-8.61 -45.56,-8.61 -17.5,0 -30.35,5.79 -38.7,17.36 -8.34,11.58 -12.52,30.22 -12.52,55.79l0 19.79 77.59 0 0 35.87z"/>
  <path id="17" class="fil26" d="M42074.41 19799.25c-45.16,0 -80.69,-13.8 -106.73,-41.25 -26.11,-27.46 -39.1,-65.61 -39.1,-114.47 0,-49.19 12.05,-88.23 36.27,-117.23 24.23,-29 56.73,-43.41 97.58,-43.41 38.16,0 68.51,12.52 90.72,37.69 22.21,25.17 33.45,58.35 33.45,99.46l0 29.27 -210.17 0c0.94,35.8 9.96,62.99 27.12,81.63 17.16,18.51 41.32,27.79 72.55,27.79 32.77,0 65.28,-6.8 97.38,-20.59l0 41.25c-16.35,7.13 -31.83,12.11 -46.37,15.28 -14.54,3.03 -32.1,4.58 -52.69,4.58zm-12.58 -277.6c-24.5,0 -43.94,7.94 -58.48,23.96 -14.67,15.81 -23.22,37.89 -25.77,66.09l159.43 0c0,-29.07 -6.46,-51.41 -19.45,-66.89 -13.06,-15.48 -31.56,-23.15 -55.72,-23.15z"/>
  <path id="18" class="fil26" d="M42404.43 19482.88c13.53,0 25.64,1.14 36.41,3.3l-6.39 43.07c-12.65,-2.76 -23.76,-4.17 -33.45,-4.17 -24.56,0 -45.69,9.96 -63.26,30.01 -17.5,20.05 -26.25,45.02 -26.25,74.83l0 163.6 -46.23 0 0 -304.92 38.16 0 5.25 56.33 2.29 0c11.31,-19.85 24.9,-35.2 40.85,-45.9 15.95,-10.77 33.45,-16.15 52.63,-16.15z"/>
  <path id="19" class="fil26" d="M42626.85 19799.25c-45.16,0 -80.69,-13.8 -106.73,-41.25 -26.11,-27.46 -39.1,-65.61 -39.1,-114.47 0,-49.19 12.05,-88.23 36.27,-117.23 24.23,-29 56.73,-43.41 97.58,-43.41 38.16,0 68.51,12.52 90.72,37.69 22.21,25.17 33.45,58.35 33.45,99.46l0 29.27 -210.17 0c0.94,35.8 9.96,62.99 27.12,81.63 17.16,18.51 41.32,27.79 72.55,27.79 32.77,0 65.28,-6.8 97.38,-20.59l0 41.25c-16.35,7.13 -31.83,12.11 -46.37,15.28 -14.54,3.03 -32.1,4.58 -52.69,4.58zm-12.58 -277.6c-24.5,0 -43.94,7.94 -58.48,23.96 -14.67,15.81 -23.22,37.89 -25.77,66.09l159.43 0c0,-29.07 -6.46,-51.41 -19.45,-66.89 -13.06,-15.48 -31.56,-23.15 -55.72,-23.15z"/>
  <path id="20" class="fil26" d="M43026.59 19793.53l0 -197.31c0,-24.9 -5.59,-43.41 -16.96,-55.65 -11.31,-12.25 -29.07,-18.37 -53.23,-18.37 -31.9,0 -55.32,8.68 -70.12,25.84 -14.87,17.3 -22.34,45.83 -22.34,85.53l0 159.96 -46.17 0 0 -304.92 37.55 0 7.54 41.59 2.22 0c9.56,-15.01 22.75,-26.72 39.84,-34.99 17.09,-8.21 36.07,-12.32 57.07,-12.32 36.81,0 64.4,8.82 82.98,26.58 18.57,17.7 27.79,46.1 27.79,85.06l0 199 -46.17 0z"/>
  <path id="21" class="fil26" d="M43266.17 19761.02c8.21,0 16.08,-0.54 23.69,-1.82 7.6,-1.21 13.59,-2.42 18.04,-3.77l0 35.4c-5.05,2.42 -12.32,4.37 -22.14,5.99 -9.69,1.62 -18.51,2.42 -26.31,2.42 -59.02,0 -88.43,-31.09 -88.43,-93.34l0 -181.43 -43.74 0 0 -22.21 43.74 -19.31 19.45 -65.08 26.72 0 0 70.73 88.56 0 0 35.87 -88.56 0 0 179.48c0,18.44 4.37,32.5 13.12,42.33 8.75,9.83 20.66,14.74 35.87,14.74z"/>
  <path id="22" class="fil26" d="M43798.55 19590.63c0,26.31 -4.04,50.41 -12.11,72.28 -8.21,21.94 -19.79,38.96 -34.59,51.01 -14.81,12.05 -31.9,18.04 -51.21,18.04 -15.95,0 -29.34,-4.85 -40.38,-14.4 -10.9,-9.69 -17.36,-22.07 -19.45,-37.08l-2.22 0c-7.4,16.15 -18.04,28.8 -31.9,37.89 -13.8,9.02 -30.22,13.59 -49.13,13.59 -27.86,0 -49.6,-9.49 -65.28,-28.47 -15.68,-19.04 -23.49,-44.89 -23.49,-77.53 0,-37.82 10.97,-68.58 32.84,-92.26 21.94,-23.62 50.67,-35.4 86.34,-35.4 12.52,0 26.85,1.08 42.8,3.5 16.02,2.29 30.35,5.52 43.14,9.56l-6.93 130.76 0 6.06c0,33.04 12.38,49.6 36.95,49.6 16.96,0 30.69,-9.96 41.25,-29.95 10.57,-19.92 15.88,-45.83 15.88,-77.8 0,-33.65 -6.86,-62.99 -20.66,-88.23 -13.66,-25.3 -33.24,-44.69 -58.62,-58.35 -25.24,-13.59 -54.31,-20.39 -87.15,-20.39 -41.45,0 -77.46,8.55 -108.08,25.71 -30.55,17.23 -53.9,41.72 -70.06,73.56 -16.15,31.83 -24.23,68.58 -24.23,110.37 0,56.6 14.87,100.14 44.82,130.62 29.81,30.42 72.88,45.63 129.08,45.63 38.96,0 79.48,-8.01 121.34,-23.96l0 37.01c-35.6,15.61 -75.98,23.42 -121.34,23.42 -67.3,0 -119.59,-18.57 -156.8,-55.59 -37.28,-36.95 -55.79,-88.76 -55.79,-155.25 0,-48.25 9.89,-91.19 29.75,-128.87 19.85,-37.62 48.18,-66.83 84.93,-87.49 36.68,-20.73 78.87,-31.09 126.38,-31.09 39.84,0 75.31,8.34 106.46,25.17 31.09,16.82 55.12,40.65 72.01,71.54 17.03,30.89 25.44,66.49 25.44,106.8zm-287.76 36.47c0,47.11 18.1,70.66 54.31,70.66 38.43,0 59.22,-29.07 62.59,-87.08l3.97 -72.61c-13.39,-3.7 -27.93,-5.59 -43.68,-5.59 -24.16,0 -43.07,8.34 -56.73,25.03 -13.59,16.62 -20.46,39.91 -20.46,69.58z"/>
  <path id="23" class="fil26" d="M44090.15 19793.53l0 -197.31c0,-24.9 -5.59,-43.41 -16.96,-55.65 -11.31,-12.25 -29.07,-18.37 -53.23,-18.37 -31.9,0 -55.32,8.68 -70.12,25.84 -14.87,17.3 -22.34,45.83 -22.34,85.53l0 159.96 -46.17 0 0 -304.92 37.55 0 7.54 41.59 2.22 0c9.56,-15.01 22.75,-26.72 39.84,-34.99 17.09,-8.21 36.07,-12.32 57.07,-12.32 36.81,0 64.4,8.82 82.98,26.58 18.57,17.7 27.79,46.1 27.79,85.06l0 199 -46.17 0z"/>
  <path id="24" class="fil26" d="M44494.47 19640.76c0,49.8 -12.52,88.63 -37.48,116.56 -25.1,27.93 -59.69,41.93 -103.84,41.93 -27.32,0 -51.55,-6.39 -72.68,-19.18 -21.13,-12.85 -37.48,-31.29 -48.92,-55.25 -11.64,-23.89 -17.3,-51.95 -17.3,-84.05 0,-49.8 12.45,-88.56 37.35,-116.29 24.77,-27.73 59.36,-41.59 103.44,-41.59 42.73,0 76.58,14.13 101.75,42.53 25.17,28.4 37.69,66.89 37.69,115.35zm-232.38 0c0,38.96 7.81,68.71 23.35,89.1 15.61,20.46 38.49,30.62 68.84,30.62 30.15,0 53.16,-10.16 68.84,-30.49 15.68,-20.39 23.49,-50.07 23.49,-89.24 0,-38.76 -7.81,-68.24 -23.49,-88.36 -15.68,-20.12 -38.83,-30.22 -69.45,-30.22 -30.28,0 -53.1,9.89 -68.51,29.75 -15.34,19.85 -23.08,49.53 -23.08,88.83z"/>
  <path id="25" class="fil26" d="M44642.32 19793.53l-115.82 -304.92 49.6 0 65.61 180.83c14.87,42.33 23.55,69.79 26.18,82.37l2.22 0c2.02,-9.89 8.48,-30.22 19.31,-61.04 10.9,-30.89 35.26,-98.32 73.08,-202.16l49.53 0 -115.75 304.92 -53.97 0z"/>
  <path id="26" class="fil26" d="M45124.3 19640.76c0,49.8 -12.52,88.63 -37.48,116.56 -25.1,27.93 -59.69,41.93 -103.84,41.93 -27.32,0 -51.55,-6.39 -72.68,-19.18 -21.13,-12.85 -37.48,-31.29 -48.92,-55.25 -11.64,-23.89 -17.3,-51.95 -17.3,-84.05 0,-49.8 12.45,-88.56 37.35,-116.29 24.77,-27.73 59.36,-41.59 103.44,-41.59 42.73,0 76.58,14.13 101.75,42.53 25.17,28.4 37.69,66.89 37.69,115.35zm-232.38 0c0,38.96 7.81,68.71 23.35,89.1 15.61,20.46 38.49,30.62 68.84,30.62 30.15,0 53.16,-10.16 68.84,-30.49 15.68,-20.39 23.49,-50.07 23.49,-89.24 0,-38.76 -7.81,-68.24 -23.49,-88.36 -15.68,-20.12 -38.83,-30.22 -69.45,-30.22 -30.28,0 -53.1,9.89 -68.51,29.75 -15.34,19.85 -23.08,49.53 -23.08,88.83z"/>
  <path id="27" class="fil26" d="M45303.84 19761.02c8.21,0 16.08,-0.54 23.69,-1.82 7.6,-1.21 13.59,-2.42 18.04,-3.77l0 35.4c-5.05,2.42 -12.32,4.37 -22.14,5.99 -9.69,1.62 -18.51,2.42 -26.31,2.42 -59.02,0 -88.43,-31.09 -88.43,-93.34l0 -181.43 -43.74 0 0 -22.21 43.74 -19.31 19.45 -65.08 26.72 0 0 70.73 88.56 0 0 35.87 -88.56 0 0 179.48c0,18.44 4.37,32.5 13.12,42.33 8.75,9.83 20.66,14.74 35.87,14.74z"/>
  <path id="28" class="fil26" d="M45545.64 19482.88c13.53,0 25.64,1.14 36.41,3.3l-6.39 43.07c-12.65,-2.76 -23.76,-4.17 -33.45,-4.17 -24.56,0 -45.69,9.96 -63.26,30.01 -17.5,20.05 -26.25,45.02 -26.25,74.83l0 163.6 -46.23 0 0 -304.92 38.16 0 5.25 56.33 2.29 0c11.31,-19.85 24.9,-35.2 40.85,-45.9 15.95,-10.77 33.45,-16.15 52.63,-16.15z"/>
  <path id="29" class="fil26" d="M45826.74 19793.53l-9.22 -43.41 -2.29 0c-15.21,19.11 -30.28,32.1 -45.43,38.96 -15.14,6.73 -33.98,10.16 -56.6,10.16 -30.28,0 -53.97,-7.81 -71.13,-23.42 -17.09,-15.61 -25.77,-37.75 -25.77,-66.69 0,-61.64 49.33,-93.95 147.72,-96.84l51.82 -1.75 0 -18.91c0,-23.82 -5.18,-41.52 -15.41,-52.9 -10.36,-11.37 -26.78,-17.09 -49.4,-17.09 -25.44,0 -54.17,7.81 -86.27,23.35l-14.13 -35.33c15.01,-8.14 31.43,-14.6 49.26,-19.31 17.97,-4.64 35.94,-6.93 53.9,-6.93 36.41,0 63.26,8.08 80.82,24.23 17.56,16.15 26.31,41.99 26.31,77.66l0 208.22 -34.19 0zm-104.38 -32.5c28.74,0 51.35,-7.87 67.7,-23.62 16.42,-15.81 24.7,-37.82 24.7,-66.22l0 -27.59 -46.23 2.02c-36.68,1.21 -63.19,6.93 -79.41,17.09 -16.29,10.09 -24.36,25.84 -24.36,47.11 0,16.76 5.05,29.48 15.21,38.09 10.09,8.75 24.23,13.12 42.4,13.12z"/>
  <path id="30" class="fil26" d="M46165.04 19793.53l0 -197.31c0,-24.9 -5.59,-43.41 -16.96,-55.65 -11.31,-12.25 -29.07,-18.37 -53.23,-18.37 -31.9,0 -55.32,8.68 -70.12,25.84 -14.87,17.3 -22.34,45.83 -22.34,85.53l0 159.96 -46.17 0 0 -304.92 37.55 0 7.54 41.59 2.22 0c9.56,-15.01 22.75,-26.72 39.84,-34.99 17.09,-8.21 36.07,-12.32 57.07,-12.32 36.81,0 64.4,8.82 82.98,26.58 18.57,17.7 27.79,46.1 27.79,85.06l0 199 -46.17 0z"/>
  <path id="31" class="fil26" d="M46502.87 19710.41c0,28.4 -10.63,50.34 -31.76,65.75 -21.13,15.34 -50.81,23.08 -89.1,23.08 -40.38,0 -71.87,-6.39 -94.62,-19.18l0 -43c14.74,7.47 30.42,13.32 47.24,17.63 16.82,4.24 32.98,6.33 48.52,6.33 24.16,0 42.67,-3.9 55.72,-11.58 12.99,-7.67 19.45,-19.38 19.45,-35.13 0,-11.91 -5.11,-22.07 -15.48,-30.49 -10.3,-8.48 -30.35,-18.44 -60.23,-29.95 -28.4,-10.63 -48.59,-19.85 -60.5,-27.73 -11.98,-7.94 -20.93,-16.82 -26.72,-26.92 -5.92,-9.96 -8.75,-21.94 -8.75,-35.87 0,-24.9 10.09,-44.48 30.28,-58.95 20.26,-14.33 47.98,-21.53 83.25,-21.53 32.77,0 64.87,6.66 96.23,20.05l-16.42 37.62c-30.62,-12.65 -58.35,-18.91 -83.11,-18.91 -22.01,0 -38.49,3.43 -49.6,10.23 -11.1,6.93 -16.76,16.35 -16.76,28.4 0,8.21 2.09,15.14 6.26,20.93 4.24,5.72 10.97,11.24 20.26,16.42 9.22,5.11 27.05,12.72 53.37,22.54 36.21,13.19 60.63,26.51 73.35,39.77 12.72,13.39 19.11,30.22 19.11,50.47z"/>
  <path id="32" class="fil26" d="M46571.24 19763.98c0,-12.38 2.89,-21.74 8.48,-28.13 5.72,-6.33 13.8,-9.56 24.43,-9.56 10.7,0 19.04,3.23 25.17,9.56 5.99,6.39 9.02,15.75 9.02,28.13 0,12.05 -3.03,21.4 -9.15,27.86 -6.12,6.46 -14.54,9.69 -25.03,9.69 -9.56,0 -17.3,-2.96 -23.55,-8.75 -6.19,-5.79 -9.35,-15.41 -9.35,-28.8z"/>
  <path id="33" class="fil26" d="M46851.6 19799.25c-44.21,0 -78.4,-13.59 -102.63,-40.78 -24.23,-27.26 -36.27,-65.75 -36.27,-115.41 0,-51.15 12.25,-90.51 36.81,-118.38 24.63,-27.86 59.62,-41.79 105.12,-41.79 14.6,0 29.27,1.62 43.94,4.71 14.67,3.16 26.18,6.86 34.52,11.24l-14.27 39.23c-10.16,-4.11 -21.27,-7.4 -33.31,-10.16 -12.11,-2.69 -22.75,-3.97 -32.03,-3.97 -61.98,0 -92.94,39.5 -92.94,118.51 0,37.48 7.54,66.22 22.61,86.27 15.21,20.05 37.55,30.01 67.3,30.01 25.37,0 51.48,-5.52 78.13,-16.42l0 41.05c-20.39,10.57 -46.03,15.88 -76.99,15.88z"/>
  <path id="34" class="fil26" d="M47264.27 19640.76c0,49.8 -12.52,88.63 -37.48,116.56 -25.1,27.93 -59.69,41.93 -103.84,41.93 -27.32,0 -51.55,-6.39 -72.68,-19.18 -21.13,-12.85 -37.48,-31.29 -48.92,-55.25 -11.64,-23.89 -17.3,-51.95 -17.3,-84.05 0,-49.8 12.45,-88.56 37.35,-116.29 24.77,-27.73 59.36,-41.59 103.44,-41.59 42.73,0 76.58,14.13 101.75,42.53 25.17,28.4 37.69,66.89 37.69,115.35zm-232.38 0c0,38.96 7.81,68.71 23.35,89.1 15.61,20.46 38.49,30.62 68.84,30.62 30.15,0 53.16,-10.16 68.84,-30.49 15.68,-20.39 23.49,-50.07 23.49,-89.24 0,-38.76 -7.81,-68.24 -23.49,-88.36 -15.68,-20.12 -38.83,-30.22 -69.45,-30.22 -30.28,0 -53.1,9.89 -68.51,29.75 -15.34,19.85 -23.08,49.53 -23.08,88.83z"/>
  <path id="35" class="fil26" d="M47734 19793.53l0 -198.46c0,-24.23 -5.18,-42.46 -15.61,-54.64 -10.36,-12.11 -26.51,-18.24 -48.39,-18.24 -28.74,0 -49.93,8.28 -63.73,24.83 -13.66,16.49 -20.59,41.86 -20.59,76.18l0 170.33 -46.17 0 0 -198.46c0,-24.23 -5.25,-42.46 -15.61,-54.64 -10.36,-12.11 -26.58,-18.24 -48.72,-18.24 -28.87,0 -50.07,8.68 -63.53,26.04 -13.39,17.3 -20.19,45.83 -20.19,85.33l0 159.96 -46.17 0 0 -304.92 37.55 0 7.54 41.59 2.22 0c8.68,-14.81 21,-26.45 36.88,-34.79 15.88,-8.34 33.65,-12.52 53.3,-12.52 47.58,0 78.87,17.3 93.48,51.75l2.22 0c9.09,-15.95 22.28,-28.6 39.5,-37.89 17.3,-9.22 36.95,-13.86 59.02,-13.86 34.46,0 60.3,8.82 77.46,26.58 17.16,17.7 25.77,46.1 25.77,85.06l0 199 -46.23 0z"/>
  <polygon id="36" class="fil26" points="43467.05,20393.68 43356.21,20393.68 43356.21,20344.08 43467.05,20344.08 43467.05,20230.55 43517.12,20230.55 43517.12,20344.08 43628.29,20344.08 43628.29,20393.68 43517.12,20393.68 43517.12,20506.6 43467.05,20506.6 "/>
  <polygon id="37" class="fil26" points="43726.14,20569.79 43887.18,20220.93 43675.47,20220.93 43675.47,20163.39 43956.97,20163.39 43956.97,20209.08 43796.8,20569.79 "/>
  <path id="38" class="fil26" d="M44443.86 20480.9l-54.91 0 0 88.9 -63.73 0 0 -88.9 -186.01 0 0 -50.27 186.01 -268.99 63.73 0 0 265.08 54.91 0 0 54.17zm-118.64 -54.17l0 -102.22c0,-36.41 0.94,-66.09 2.76,-89.37l-2.22 0c-5.18,12.25 -13.39,27.12 -24.5,44.55l-101.08 147.04 125.04 0z"/>
  <path id="39" class="fil26" d="M44754.16 20336.68c0,80.15 -16.15,140.04 -48.45,179.55 -32.3,39.5 -80.96,59.29 -145.83,59.29 -24.7,0 -42.46,-1.55 -53.23,-4.51l0 -54.91c16.56,4.71 33.18,6.93 49.87,6.93 44.21,0 77.05,-11.84 98.86,-35.6 21.74,-23.76 33.58,-61.11 35.6,-111.98l-3.3 0c-10.97,16.69 -24.16,28.74 -39.77,36.21 -15.48,7.4 -33.58,11.1 -54.38,11.1 -36,0 -64.34,-11.24 -84.93,-33.65 -20.66,-22.41 -30.89,-53.23 -30.89,-92.33 0,-42.46 11.98,-76.31 35.8,-101.35 23.82,-25.17 56.33,-37.75 97.58,-37.75 28.94,0 54.11,7.07 75.71,21.2 21.53,14.07 38.16,34.59 49.87,61.37 11.71,26.78 17.5,58.88 17.5,96.44zm-141.93 -124.84c-22.75,0 -40.11,7.4 -52.15,22.14 -12.11,14.74 -18.1,35.53 -18.1,62.18 0,23.28 5.65,41.52 16.82,54.78 11.24,13.26 28.33,19.92 51.15,19.92 22.14,0 40.65,-6.53 55.72,-19.79 15.01,-13.19 22.54,-28.6 22.54,-46.23 0,-16.56 -3.23,-31.9 -9.62,-46.37 -6.46,-14.33 -15.34,-25.77 -26.85,-34.12 -11.51,-8.34 -24.7,-12.52 -39.5,-12.52z"/>
  <path id="40" class="fil26" d="M44942.26 20315.55c41.05,0 73.49,10.83 97.45,32.64 23.96,21.74 35.94,51.35 35.94,88.9 0,43.41 -13.59,77.32 -40.78,101.75 -27.19,24.43 -65.82,36.68 -115.95,36.68 -45.43,0 -81.23,-7.34 -107.2,-22.07l0 -59.36c15.01,8.55 32.3,15.07 51.82,19.79 19.45,4.64 37.62,6.93 54.31,6.93 29.48,0 51.95,-6.6 67.36,-19.79 15.41,-13.12 23.08,-32.37 23.08,-57.88 0,-48.52 -30.96,-72.82 -93,-72.82 -8.75,0 -19.45,0.81 -32.3,2.62 -12.85,1.68 -24.02,3.7 -33.65,5.99l-29.27 -17.3 15.61 -198.86 211.58 0 0 58.14 -154.04 0 -9.09 100.74c6.46,-1.08 14.33,-2.42 23.76,-3.9 9.42,-1.41 20.86,-2.22 34.39,-2.22z"/>
  <path id="41" class="fil26" d="M45469.8 20569.79l-65.48 0 0 -262.79c0,-31.36 0.81,-56.19 2.29,-74.56 -4.24,4.37 -9.49,9.35 -15.75,14.74 -6.19,5.38 -26.99,22.41 -62.52,51.21l-32.77 -41.52 119.72 -94.08 54.51 0 0 407.01z"/>
  <path id="42" class="fil26" d="M45878.96 20569.79l-275.85 0 0 -49.46 104.98 -105.59c30.96,-31.7 51.48,-54.11 61.64,-67.43 10.03,-13.32 17.43,-25.77 22.14,-37.42 4.64,-11.71 6.93,-24.23 6.93,-37.62 0,-18.37 -5.52,-32.91 -16.56,-43.41 -11.04,-10.57 -26.31,-15.88 -45.76,-15.88 -15.61,0 -30.69,2.83 -45.36,8.61 -14.54,5.72 -31.36,16.15 -50.54,31.16l-35.33 -43.14c22.75,-19.04 44.69,-32.57 66.02,-40.51 21.4,-8.01 44.08,-11.98 68.24,-11.98 37.82,0 68.17,9.89 90.99,29.61 22.88,19.79 34.32,46.37 34.32,79.75 0,18.37 -3.36,35.8 -9.89,52.29 -6.66,16.56 -16.69,33.58 -30.42,51.15 -13.66,17.5 -36.27,41.25 -68.1,71.07l-70.66 68.51 0 2.76 193.21 0 0 57.54z"/>
  <path id="43" class="fil26" d="M46189.07 20256.39c0,25.84 -7.54,47.31 -22.54,64.4 -15.07,17.23 -36.21,28.67 -63.53,34.66l0 2.22c32.71,4.04 57.2,14.2 73.56,30.49 16.29,16.22 24.5,37.89 24.5,64.81 0,39.1 -13.86,69.45 -41.52,90.58 -27.66,21.33 -66.96,31.97 -117.97,31.97 -45.16,0 -83.25,-7.34 -114.2,-22.07l0 -58.21c17.3,8.55 35.53,15.07 54.78,19.72 19.38,4.71 37.96,7 55.79,7 31.56,0 55.12,-5.92 70.66,-17.63 15.61,-11.64 23.35,-29.68 23.35,-54.24 0,-21.74 -8.55,-37.69 -25.84,-47.98 -17.23,-10.16 -44.35,-15.28 -81.29,-15.28l-35.33 0 0 -53.03 35.94 0c64.94,0 97.45,-22.41 97.45,-67.3 0,-17.5 -5.72,-31.02 -17.03,-40.51 -11.31,-9.42 -28,-14.13 -50.14,-14.13 -15.41,0 -30.22,2.15 -44.55,6.53 -14.27,4.37 -31.16,12.85 -50.67,25.51l-31.97 -45.63c37.22,-27.46 80.62,-41.12 129.95,-41.12 41.05,0 73.02,8.82 96.1,26.38 23.02,17.7 34.52,41.93 34.52,72.88z"/>
  <path id="44" class="fil26" d="M46540.02 20315.55c41.05,0 73.49,10.83 97.45,32.64 23.96,21.74 35.94,51.35 35.94,88.9 0,43.41 -13.59,77.32 -40.78,101.75 -27.19,24.43 -65.82,36.68 -115.95,36.68 -45.43,0 -81.23,-7.34 -107.2,-22.07l0 -59.36c15.01,8.55 32.3,15.07 51.82,19.79 19.45,4.64 37.62,6.93 54.31,6.93 29.48,0 51.95,-6.6 67.36,-19.79 15.41,-13.12 23.08,-32.37 23.08,-57.88 0,-48.52 -30.96,-72.82 -93,-72.82 -8.75,0 -19.45,0.81 -32.3,2.62 -12.85,1.68 -24.02,3.7 -33.65,5.99l-29.27 -17.3 15.61 -198.86 211.58 0 0 58.14 -154.04 0 -9.09 100.74c6.46,-1.08 14.33,-2.42 23.76,-3.9 9.42,-1.41 20.86,-2.22 34.39,-2.22z"/>
  <path id="45" class="fil26" d="M47017.76 20480.9l-54.91 0 0 88.9 -63.73 0 0 -88.9 -186.01 0 0 -50.27 186.01 -268.99 63.73 0 0 265.08 54.91 0 0 54.17zm-118.64 -54.17l0 -102.22c0,-36.41 0.94,-66.09 2.76,-89.37l-2.22 0c-5.18,12.25 -13.39,27.12 -24.5,44.55l-101.08 147.04 125.04 0z"/>
  <polygon id="46" class="fil26" points="47247.04,20569.79 47408.08,20220.93 47196.36,20220.93 47196.36,20163.39 47477.87,20163.39 47477.87,20209.08 47317.7,20569.79 "/>
  <path id="47" class="fil26" d="M47527.4 20396.51c0,-159.22 64.74,-238.84 194.55,-238.84 20.39,0 37.69,1.62 51.75,4.78l0 54.31c-14.07,-4.04 -30.42,-6.06 -48.99,-6.06 -43.61,0 -76.38,11.71 -98.25,35.06 -21.94,23.42 -33.85,60.97 -35.6,112.59l3.3 0c8.75,-15.01 21,-26.72 36.74,-34.99 15.81,-8.28 34.32,-12.32 55.72,-12.32 36.95,0 65.61,11.31 86.21,33.98 20.66,22.61 31.02,53.3 31.02,92.06 0,42.73 -11.98,76.45 -35.87,101.28 -23.82,24.77 -56.33,37.15 -97.51,37.15 -29.21,0 -54.58,-7.07 -76.05,-21 -21.53,-14.07 -38.09,-34.52 -49.67,-61.31 -11.58,-26.78 -17.36,-59.09 -17.36,-96.71zm141.93 124.84c22.48,0 39.77,-7.2 51.95,-21.74 12.18,-14.47 18.24,-35.2 18.24,-62.05 0,-23.49 -5.72,-41.79 -17.09,-55.18 -11.51,-13.39 -28.6,-20.05 -51.41,-20.05 -14.13,0 -27.19,3.03 -39.03,9.02 -11.91,6.06 -21.2,14.33 -28.13,24.77 -6.86,10.57 -10.23,21.2 -10.23,32.24 0,26.11 7.07,48.25 21.27,66.15 14.27,17.9 32.37,26.85 54.44,26.85z"/>
 </g>
</svg>
