<?xml version="1.0" encoding="UTF-8"?>
<!DOCTYPE svg PUBLIC "-//W3C//DTD SVG 1.1//EN" "http://www.w3.org/Graphics/SVG/1.1/DTD/svg11.dtd">
<!-- Creator: CorelDRAW 2021.5 -->
<svg xmlns="http://www.w3.org/2000/svg" xml:space="preserve" width="90mm" height="60mm" version="1.1" style="shape-rendering:geometricPrecision; text-rendering:geometricPrecision; image-rendering:optimizeQuality; fill-rule:evenodd; clip-rule:evenodd"
viewBox="0 0 60567.09 40378.06"
 xmlns:xlink="http://www.w3.org/1999/xlink"
 xmlns:xodm="http://www.corel.com/coreldraw/odm/2003">
 <defs>
  <style type="text/css">
   <![CDATA[
    .str1 {stroke:black;stroke-width:51.28;stroke-miterlimit:22.9256;stroke-opacity:0.490196}
    .str4 {stroke:#4D4D4D;stroke-width:134.59;stroke-miterlimit:22.9256;stroke-opacity:0.549020}
    .str3 {stroke:#CCCCCC;stroke-width:57;stroke-miterlimit:22.9256}
    .str0 {stroke:black;stroke-width:134.59;stroke-miterlimit:22.9256}
    .str2 {stroke:#4D4D4D;stroke-width:51.28;stroke-miterlimit:22.9256}
    .fil6 {fill:black}
    .fil3 {fill:black}
    .fil8 {fill:white}
    .fil0 {fill:#DCDFE0}
    .fil11 {fill:#1CBBEE;fill-rule:nonzero}
    .fil13 {fill:#1CBBEE;fill-rule:nonzero}
    .fil12 {fill:#435262;fill-rule:nonzero}
    .fil7 {fill:gray;fill-opacity:0.450980}
    .fil5 {fill:#CCCCCC;fill-opacity:0.490196}
    .fil10 {fill:gray;fill-opacity:0.549020}
    .fil1 {fill:gray;fill-opacity:0.580392}
    .fil9 {fill:url(#id4)}
    .fil2 {fill:url(#id5)}
    .fil4 {fill:url(#id6);fill-opacity:0.729412}
   ]]>
  </style>
   <mask id="id0">
  <linearGradient id="id1" gradientUnits="userSpaceOnUse" x1="17558.55" y1="4461.3" x2="17559.7" y2="6535.68">
   <stop offset="0" style="stop-opacity:1; stop-color:white"/>
   <stop offset="1" style="stop-opacity:0; stop-color:white"/>
  </linearGradient>
    <rect style="fill:url(#id1)" x="10392.5" y="4326.31" width="15131.88" height="4233.17"/>
   </mask>
   <mask id="id2">
  <linearGradient id="id3" gradientUnits="userSpaceOnUse" x1="10652.09" y1="18550.78" x2="11724.25" y2="18550.59">
   <stop offset="0" style="stop-opacity:1; stop-color:white"/>
   <stop offset="1" style="stop-opacity:0; stop-color:white"/>
  </linearGradient>
    <rect style="fill:url(#id3)" x="10549.78" y="5136.76" width="2252.96" height="25478.29"/>
   </mask>
  <linearGradient id="id4" gradientUnits="userSpaceOnUse" x1="33844.15" y1="10483.83" x2="36833.61" y2="9823.51">
   <stop offset="0" style="stop-opacity:1; stop-color:black"/>
   <stop offset="0.360784" style="stop-opacity:1; stop-color:#04141D"/>
   <stop offset="1" style="stop-opacity:1; stop-color:#09293B"/>
  </linearGradient>
  <linearGradient id="id5" gradientUnits="userSpaceOnUse" xlink:href="#id4" x1="10137.38" y1="22708.62" x2="25692.56" y2="15946.91">
  </linearGradient>
  <linearGradient id="id6" gradientUnits="userSpaceOnUse" x1="10311.72" y1="19317.87" x2="25320.37" y2="19317.87">
   <stop offset="0" style="stop-opacity:1; stop-color:#1A1A1A"/>
   <stop offset="0.819608" style="stop-opacity:1; stop-color:#444952"/>
   <stop offset="1" style="stop-opacity:1; stop-color:#6E798A"/>
  </linearGradient>
 </defs>
 <g id="Layer_x0020_1">
  <metadata id="CorelCorpID_0Corel-Layer"/>
  <rect class="fil0" x="-0" y="-0.02" width="60567.09" height="40378.08"/>
  <path class="fil1" d="M12072.03 5048.33l12784.9 0c710.45,0 1289.81,695.78 1289.81,1548.9l0 26883.85c0,853.12 -579.36,1548.9 -1289.81,1548.9l-12784.9 0c-710.45,0 -1289.81,-695.78 -1289.81,-1548.9l0 -26883.85c0,-853.12 579.36,-1548.9 1289.81,-1548.9z"/>
  <path class="fil2" d="M11602.84 4246.02l12624.4 0c701.5,0 1273.66,699.95 1273.66,1558.26l0 27046.97c0,858.24 -572.16,1558.26 -1273.66,1558.26l-12624.4 0c-701.57,0 -1273.66,-700.02 -1273.66,-1558.26l0 -27046.97c0,-858.3 572.09,-1558.26 1273.66,-1558.26z"/>
  <path class="fil3 str0" style="mask:url(#id0)" d="M25437.84 5664.97l19.25 2827.2 -14997.29 -30.82 25.03 -2807.62c56.73,-366.77 296.24,-1075.81 1075,-1260.13l12973.4 5.79c766.17,421.68 821.76,1017.86 904.6,1265.58z"/>
  <polygon class="fil3 str0" style="mask:url(#id2)" points="10617.07,5204.06 12735.44,5204.06 12735.44,30547.75 10617.07,30547.75 "/>
  <path class="fil4" d="M11571.68 4376.51l12488.73 0c693.96,0 1259.93,693.49 1259.93,1543.79l0 26795.15c0,850.29 -565.97,1543.72 -1259.93,1543.72l-12488.73 0c-693.96,0 -1259.93,-693.43 -1259.93,-1543.72l0 -26795.15c0,-850.29 565.97,-1543.79 1259.93,-1543.79zm92.4 168.78l12333.81 0c665.16,0 1207.64,664.76 1207.64,1479.72l0 26592.99c0,815.03 -542.48,1479.72 -1207.64,1479.72l-12333.81 0c-665.16,0 -1207.64,-664.69 -1207.64,-1479.72l0 -26592.99c0,-814.96 542.48,-1479.72 1207.64,-1479.72z"/>
  <path class="fil5 str1" d="M15280.13 5267.52c193.95,0 351.22,157.27 351.22,351.22 0,193.95 -157.27,351.22 -351.22,351.22 -193.95,0 -351.29,-157.27 -351.29,-351.22 0,-193.95 157.34,-351.22 351.29,-351.22z"/>
  <rect class="fil6 str2" x="16841.37" y="5433.59" width="2147.41" height="370.28" rx="653.05" ry="653.05"/>
  <path class="fil7" d="M33345.82 5048.81l12784.9 0c710.45,0 1289.81,695.71 1289.81,1548.84l0 26883.91c0,853.12 -579.36,1548.84 -1289.81,1548.84l-12784.9 0c-710.45,0 -1289.81,-695.71 -1289.81,-1548.84l0 -26883.91c0,-853.12 579.36,-1548.84 1289.81,-1548.84z"/>
  <path class="fil8" d="M32755.22 4150.26l12624.47 0c701.5,0 1273.66,700.02 1273.66,1558.32l0 27046.91c0,858.3 -572.16,1558.26 -1273.66,1558.26l-12624.47 0c-701.5,0 -1273.66,-699.95 -1273.66,-1558.26l0 -27046.91c0,-858.3 572.16,-1558.32 1273.66,-1558.32z"/>
  <path class="fil0" d="M46653.35 20859.84l0 11895.65c0,858.3 -572.16,1558.26 -1273.66,1558.26l-2057.94 0 2237.21 -12687.53 1094.38 -766.38zm-6425.16 13453.9l-3093.63 0 1365.59 -7745.05 3529.51 -2471.47 -1801.47 10216.52zm-6187.06 0l-1285.91 0c-701.5,0 -1273.66,-699.95 -1273.66,-1558.26l0 -1272.38 3489.47 -2443.48 -929.91 5274.11z"/>
  <rect class="fil9 str3" x="33981.28" y="6605.38" width="2715.19" height="7096.58" rx="1585.97" ry="1585.97"/>
  <path class="fil10 str4" d="M35338.88 7199.34c449.48,0 813.82,364.34 813.82,813.82 0,449.48 -364.34,813.82 -813.82,813.82 -449.48,0 -813.82,-364.34 -813.82,-813.82 0,-449.48 364.34,-813.82 813.82,-813.82z"/>
  <path class="fil10 str4" d="M35338.88 9390.05c449.48,0 813.82,364.34 813.82,813.82 0,449.48 -364.34,813.75 -813.82,813.75 -449.48,0 -813.82,-364.28 -813.82,-813.75 0,-449.48 364.34,-813.82 813.82,-813.82z"/>
  <path class="fil10 str4" d="M35338.88 11550.01c449.48,0 813.82,364.28 813.82,813.75 0,449.48 -364.34,813.82 -813.82,813.82 -449.48,0 -813.82,-364.34 -813.82,-813.82 0,-449.48 364.34,-813.75 813.82,-813.75z"/>
  <path class="fil10 str4" d="M35338.88 12082.8c155.19,0 281.03,125.78 281.03,280.96 0,155.19 -125.84,281.03 -281.03,281.03 -155.19,0 -280.96,-125.84 -280.96,-281.03 0,-155.19 125.78,-280.96 280.96,-280.96z"/>
  <path class="fil11" d="M35549.18 26261.35l-480.84 2727.13 0 0 0 0 2727.13 480.9 68.71 -389.65 0 0 412.13 -2337.55 -389.58 -68.71 -412.19 2337.62 -1947.9 -343.48 343.48 -1947.97 -320.94 -458.29zm1558.39 274.77l-274.77 1558.39 320.87 458.29 343.48 -1947.97 -389.58 -68.71zm-779.23 -137.42l-137.35 779.23 320.87 458.29 206.13 -1168.81 -389.65 -68.71z"/>
  <path class="fil12" d="M38424.5 23826.49l-125.84 713.82 -1548.77 485.14 -2.22 12.25c226.45,21.94 398.19,43.54 515.76,64.27l907.97 160.1 -85 481.98 -2014.39 -355.19 125.37 -710.99 1528.98 -485.82 1.48 -8.41c-205.39,-22.68 -369.19,-45.22 -492.41,-66.89l-910.79 -160.64 85.47 -484.81 2014.39 355.19zm968.47 -9781.72l733.53 129.34 -95.97 544.03 -2014.39 -355.19 116.42 -660.11c96.5,-547.39 343.21,-786.03 739.59,-716.17 233.18,41.12 393.75,186.75 481.04,436.82l981.79 -431.98 -108.75 616.98 -808.91 298.06 -24.36 138.23zm-409.1 -72.14l17.97 -102.02c33.58,-190.45 -33.78,-300.68 -201.62,-330.29 -138.7,-24.5 -224.37,56.93 -257.28,243.55l-18.98 107.67 459.91 81.09zm1642.58 -2633.86l-395.44 32.1 -115.41 654.6 360.1 168.17 -105.45 598.13 -1907.06 -1013.62 128 -725.93 2140.24 -308.76 -104.98 595.31zm-861.2 66.83l-346.31 28.2c-76.92,7.27 -176.18,14.94 -297.99,23.55 -122.14,8.01 -208.75,12.58 -261.11,12.58 45.56,16.76 119.72,46.84 223.16,89.77 102.96,43.41 305.46,134.86 606.75,274.3l75.51 -428.41zm1364.11 -2919.06l-125.84 713.75 -1548.77 485.14 -2.22 12.25c226.45,22.01 398.19,43.61 515.76,64.34l907.97 160.1 -85 481.91 -2014.39 -355.19 125.37 -710.99 1528.98 -485.75 1.48 -8.41c-205.39,-22.68 -369.19,-45.22 -492.41,-66.96l-910.79 -160.57 85.47 -484.81 2014.39 355.19zm-290.79 -1925.16c125.04,22.07 230.49,73.08 316.16,153.64 85.6,80.55 144.82,185.07 177.8,314.07 32.57,128.87 34.66,273.7 6.39,434.06 -23.62,134.06 -52.9,245.16 -87.75,332.65 -34.79,87.42 -84.39,176.12 -148.73,266.09l-485.28 -85.53c71.4,-94.08 131.83,-194.96 181.63,-301.49 49.33,-106.73 82.57,-207.07 99.06,-300.68 14.27,-80.82 10.57,-142.6 -10.5,-185.07 -21.13,-42.53 -53.97,-67.7 -97.71,-75.44 -27.79,-4.91 -53.03,-1.62 -76.52,10.3 -23.35,11.44 -48.32,32.24 -75.31,61.85 -27.12,29.61 -86.07,111.38 -177.06,245.09 -82.91,120.73 -158.01,208.82 -225.65,264.75 -67.43,55.45 -140.52,93 -218.45,111.78 -78,18.71 -166.9,19.52 -266.09,2.02 -185.27,-32.64 -318.18,-125.37 -398.33,-278.68 -80.08,-153.3 -99.13,-348.13 -57.47,-584.2 36.68,-208.28 122.14,-412.39 256.74,-612.13l390.12 240.38c-119.32,173.42 -191.19,328 -215.28,464.82 -12.45,70.53 -8.82,124.5 10.43,160.84 19.18,36.88 47.38,58.35 84.05,64.81 39.5,6.93 78.94,-7.4 117.16,-42.87 38.22,-35.47 114.67,-135.94 229.28,-302.36 108.68,-159.76 214.07,-265.28 315.35,-317.24 101.62,-51.41 219.99,-65.41 355.93,-41.45zm-3007.96 14729.98c339.04,59.76 582.12,187.96 729.09,385.54 147.04,197.04 192.54,456.2 136.01,776.87 -55.72,316.03 -187.35,542.48 -394.36,680.03 -207,137.08 -479.96,175.71 -818.46,116.02 -335.27,-59.09 -576.8,-187.96 -724.05,-387.02 -147.25,-198.59 -192.67,-457.75 -136.34,-777.41 56.6,-320.74 187.29,-547.86 391.87,-682.46 204.51,-134.59 476.73,-171.47 816.24,-111.58zm-244.83 1385.64c389.38,68.64 607.89,-32.44 655.67,-303.31 24.29,-137.76 -5.18,-248.59 -87.96,-331.64 -82.78,-83.38 -224.1,-142.74 -424.37,-178.07 -201.28,-35.47 -355.8,-27.79 -463.67,22.95 -107.74,50.34 -173.56,142.94 -197.18,276.99 -48.12,272.75 124.43,443.75 517.51,513.07zm-474.98 -3179.44l107.34 -608.9 1898.04 1015.44 -112.92 640.4 -2130.35 302.16 107.88 -611.79 1069.14 -94.08c237.15,-16.82 400.75,-20.53 490.59,-10.5 -62.86,-17.36 -140.92,-44.75 -233.99,-81.03 -93.41,-36.34 -166.09,-66.56 -218.65,-90.85l-977.08 -460.85zm1504.28 -2655.33c339.04,59.83 582.12,188.03 729.09,385.61 147.04,197.04 192.54,456.2 136.01,776.87 -55.72,316.03 -187.29,542.48 -394.36,680.03 -206.94,137.08 -479.96,175.71 -818.46,116.02 -335.27,-59.09 -576.8,-188.03 -724.05,-387.02 -147.25,-198.59 -192.67,-457.75 -136.34,-777.48 56.6,-320.67 187.29,-547.8 391.87,-682.46 204.51,-134.53 476.73,-171.4 816.24,-111.58zm-244.83 1385.71c389.38,68.64 607.89,-32.44 655.67,-303.31 24.29,-137.82 -5.18,-248.66 -87.96,-331.64 -82.78,-83.38 -224.03,-142.74 -424.37,-178.07 -201.22,-35.47 -355.8,-27.86 -463.61,22.95 -107.81,50.34 -173.56,142.94 -197.25,276.99 -48.05,272.75 124.43,443.75 517.51,513.07zm1496.61 -2581.57l-95.9 544.03 -1568.62 -276.59 -86.81 492.34 -445.77 -78.6 269.25 -1527.3 445.77 78.6 -86.54 490.86 1568.62 276.66z"/>
  <g id="_1973290885632">
   <path class="fil12" d="M21369.15 15873.83l-6908.08 0 0 0 0 0 0 6908.08 986.84 0 0 0 5921.24 0 0 -986.91 -5921.24 0 0 -4934.33 4934.4 0 986.84 -986.84zm0 3947.43l-3947.43 0 -986.91 986.91 4934.33 0 0 -986.91zm0 -1973.75l-1973.75 0 -986.84 986.91 2960.59 0 0 -986.91z"/>
   <path class="fil13" d="M15246.55 22557.88l-196.24 0 -202.16 -390.19 -3.36 0c4.78,61.44 7.07,108.21 7.07,140.58l0 249.6 -132.51 0 0 -553.85 195.5 0 201.42 384.87 2.29 0c-3.57,-55.86 -5.25,-100.54 -5.25,-134.46l0 -250.41 133.25 0 0 553.85zm3358.18 -201.69l0 201.69 -149.6 0 0 -553.85 181.57 0c150.48,0 225.71,54.58 225.71,163.6 0,64.07 -31.29,113.73 -93.88,148.79l161.31 241.46 -169.59 0 -117.5 -201.69 -38.02 0zm0 -112.45l28.06 0c52.36,0 78.6,-23.15 78.6,-69.32 0,-38.09 -25.71,-57.13 -77.05,-57.13l-29.61 0 0 126.45zm920.49 314.14l-27.19 -103.91 -179.95 0 -27.86 103.91 -164.47 0 180.62 -556.14 199.6 0 182.91 556.14 -163.67 0zm-58.28 -226.52l-23.82 -90.99c-5.59,-20.19 -12.25,-46.3 -20.32,-78.33 -7.87,-32.17 -13.12,-55.05 -15.61,-69.05 -2.36,12.92 -6.86,34.12 -13.46,63.73 -6.73,29.48 -21.6,87.75 -44.62,174.64l117.84 0zm983.34 226.52l-196.24 0 -202.16 -390.19 -3.36 0c4.78,61.44 7.07,108.21 7.07,140.58l0 249.6 -132.51 0 0 -553.85 195.5 0 201.42 384.87 2.29 0c-3.57,-55.86 -5.25,-100.54 -5.25,-134.46l0 -250.41 133.25 0 0 553.85zm640.53 -168.04c0,34.39 -8.61,64.87 -26.11,91.52 -17.43,26.58 -42.53,47.31 -75.37,62.18 -32.84,14.74 -71.33,22.07 -115.41,22.07 -36.88,0 -67.9,-2.56 -92.8,-7.74 -24.97,-5.18 -50.94,-14.2 -78,-27.12l0 -133.45c28.47,14.6 58.21,25.98 88.97,34.25 30.75,8.14 59.09,12.32 84.79,12.32 22.21,0 38.49,-3.9 48.86,-11.51 10.36,-7.67 15.55,-17.63 15.55,-29.61 0,-7.67 -2.09,-14.27 -6.39,-19.92 -4.11,-5.72 -10.83,-11.37 -19.99,-17.23 -9.22,-5.79 -33.78,-17.7 -73.69,-35.67 -36.07,-16.42 -63.12,-32.3 -81.23,-47.71 -17.97,-15.34 -31.36,-33.04 -40.04,-52.96 -8.68,-19.92 -13.06,-43.61 -13.06,-70.86 0,-50.94 18.51,-90.72 55.59,-119.32 37.08,-28.6 88.16,-42.8 153.03,-42.8 57.27,0 115.75,13.19 175.31,39.71l-45.76 115.28c-51.82,-23.62 -96.44,-35.53 -134.06,-35.53 -19.38,0 -33.58,3.5 -42.4,10.36 -8.95,6.86 -13.32,15.34 -13.32,25.44 0,10.9 5.72,20.73 16.96,29.21 11.24,8.55 41.59,24.23 91.39,46.97 47.71,21.47 80.82,44.62 99.4,69.18 18.51,24.63 27.79,55.59 27.79,92.94zm-5055.27 -109.49c0,93.21 -22.75,164 -68.51,212.52 -45.63,48.45 -112.65,72.75 -200.81,72.75 -86.88,0 -153.44,-24.43 -199.87,-73.15 -46.23,-48.72 -69.38,-119.72 -69.38,-212.79 0,-92.2 23.02,-162.66 69.18,-211.24 46.03,-48.59 112.99,-72.88 200.88,-72.88 88.16,0 154.85,24.16 200.34,72.34 45.56,48.25 68.17,119.12 68.17,212.46zm-380.97 -0.13c0,107 37.22,160.57 111.65,160.57 37.89,0 66.09,-13.06 84.32,-39.1 18.37,-25.98 27.52,-66.42 27.52,-121.47 0,-55.32 -9.29,-96.23 -27.93,-122.55 -18.51,-26.38 -46.3,-39.57 -83.11,-39.57 -74.97,0 -112.45,54.04 -112.45,162.12zm966.25 -276.19l167.43 0 -181.5 553.85 -176.05 0 -180.76 -553.85 168.17 0 75.37 280.69c15.68,62.45 24.29,105.86 25.84,130.29 1.68,-17.56 5.32,-39.64 10.63,-66.15 5.32,-26.65 9.96,-47.44 13.93,-62.59l76.92 -282.24zm919.68 276.32c0,93.21 -22.75,164 -68.51,212.52 -45.63,48.45 -112.65,72.75 -200.81,72.75 -86.88,0 -153.44,-24.43 -199.87,-73.15 -46.23,-48.72 -69.38,-119.72 -69.38,-212.79 0,-92.2 23.02,-162.66 69.18,-211.24 46.03,-48.59 112.99,-72.88 200.88,-72.88 88.16,0 154.85,24.16 200.34,72.34 45.56,48.25 68.17,119.12 68.17,212.46zm-380.97 -0.13c0,107 37.22,160.57 111.65,160.57 37.89,0 66.09,-13.06 84.32,-39.1 18.37,-25.98 27.52,-66.42 27.52,-121.47 0,-55.32 -9.29,-96.23 -27.93,-122.55 -18.51,-26.38 -46.3,-39.57 -83.11,-39.57 -74.97,0 -112.45,54.04 -112.45,162.12zm899.56 277.67l-149.53 0 0 -431.24 -135.4 0 0 -122.61 419.93 0 0 122.61 -135 0 0 431.24z"/>
  </g>
 </g>
</svg>
