<svg xmlns="http://www.w3.org/2000/svg" xmlns:xlink="http://www.w3.org/1999/xlink" viewBox="0 0 255.12 340.16"><defs><style>.cls-1{fill:#ddd3ce;}.cls-2,.cls-5,.cls-6{fill:#e5e5e5;}.cls-2{stroke:#fff;stroke-width:0.96px;}.cls-10,.cls-11,.cls-2,.cls-4,.cls-6{stroke-miterlimit:22.93;}.cls-14,.cls-3,.cls-4,.cls-9{fill:#fff;}.cls-4,.cls-6{stroke:#cbcbcb;stroke-width:0.22px;}.cls-10,.cls-11,.cls-12,.cls-13,.cls-14,.cls-17,.cls-18,.cls-19,.cls-20,.cls-21,.cls-22,.cls-23,.cls-24,.cls-25,.cls-26,.cls-27,.cls-30,.cls-32,.cls-6{fill-rule:evenodd;}.cls-6{opacity:0.27;}.cls-13,.cls-7{fill:gray;}.cls-8{fill:url(#GradientFill_25);}.cls-9{opacity:0.47;}.cls-10,.cls-11{fill:#cbcbcb;stroke:gray;opacity:0.86;}.cls-10{stroke-width:0.48px;}.cls-11{stroke-width:1.2px;}.cls-12{fill:url(#GradientFill_26);}.cls-13{opacity:0.42;}.cls-15{fill:#4d4d4d;}.cls-16{fill:#1a1a1a;}.cls-17{fill:url(#GradientFill_1);}.cls-18{fill:url(#GradientFill_1-2);}.cls-19{fill:url(#GradientFill_1-3);}.cls-20{fill:url(#GradientFill_1-4);}.cls-21{fill:url(#GradientFill_1-5);}.cls-22{fill:url(#GradientFill_1-6);}.cls-23{fill:url(#GradientFill_1-7);}.cls-24{fill:url(#GradientFill_1-8);}.cls-25{fill:url(#GradientFill_1-9);}.cls-26{fill:url(#GradientFill_1-10);}.cls-27,.cls-28,.cls-31{fill:#9bd3c9;}.cls-29,.cls-30{fill:#f06859;}.cls-31,.cls-32{stroke:#f06859;stroke-miterlimit:10;}.cls-31{stroke-width:5px;}.cls-32{fill:none;stroke-width:0.75px;}</style><linearGradient id="GradientFill_25" x1="53.45" y1="17.99" x2="53.45" y2="7" gradientUnits="userSpaceOnUse"><stop offset="0" stop-color="#757777"/><stop offset="0.65" stop-color="#fff"/><stop offset="1" stop-color="#c1c3c5"/></linearGradient><radialGradient id="GradientFill_26" cx="53.45" cy="15.21" r="1.64" gradientUnits="userSpaceOnUse"><stop offset="0" stop-color="#fff"/><stop offset="1" stop-color="#c1c3c5"/></radialGradient><linearGradient id="GradientFill_1" x1="235.6" y1="20.64" x2="235.6" y2="29.47" gradientUnits="userSpaceOnUse"><stop offset="0"/><stop offset="0.43" stop-color="#acaeb0"/><stop offset="1"/></linearGradient><linearGradient id="GradientFill_1-2" x1="233.34" y1="20.64" x2="233.34" y2="29.47" xlink:href="#GradientFill_1"/><linearGradient id="GradientFill_1-3" x1="222.53" y1="20.64" x2="222.53" y2="29.47" xlink:href="#GradientFill_1"/><linearGradient id="GradientFill_1-4" x1="220.28" y1="20.64" x2="220.28" y2="29.47" xlink:href="#GradientFill_1"/><linearGradient id="GradientFill_1-5" x1="209.47" y1="20.64" x2="209.47" y2="29.47" xlink:href="#GradientFill_1"/><linearGradient id="GradientFill_1-6" x1="207.21" y1="20.64" x2="207.21" y2="29.47" xlink:href="#GradientFill_1"/><linearGradient id="GradientFill_1-7" x1="196.4" y1="20.64" x2="196.4" y2="29.47" xlink:href="#GradientFill_1"/><linearGradient id="GradientFill_1-8" x1="194.15" y1="20.64" x2="194.15" y2="29.47" xlink:href="#GradientFill_1"/><linearGradient id="GradientFill_1-9" x1="183.34" y1="20.64" x2="183.34" y2="29.47" xlink:href="#GradientFill_1"/><linearGradient id="GradientFill_1-10" x1="181.08" y1="20.64" x2="181.08" y2="29.47" xlink:href="#GradientFill_1"/></defs><g id="Layer_2" data-name="Layer 2"><g id="Layer_1-2" data-name="Layer 1"><rect class="cls-1" width="255.12" height="340.16"/><rect class="cls-2" x="14.59" y="26.66" width="77.73" height="54.98" rx="2.3"/><rect class="cls-3" x="15.48" y="27.48" width="75.94" height="53.24" rx="0.92"/><rect class="cls-4" x="18.89" y="42.29" width="69.13" height="35.42"/><rect class="cls-5" x="16.44" y="28.63" width="74.03" height="7.25" rx="0.36"/><path class="cls-6" d="M91.48,39.79v40a1,1,0,0,1-1,1h-74a1,1,0,0,1-1-1v-40H41.06a1,1,0,0,1,.91.59c1.23,2.81,5.9,4.9,11.48,4.9s10.26-2.09,11.49-4.9a1,1,0,0,1,.91-.59Z"/><rect class="cls-7" x="46.49" y="30.5" width="13.94" height="3.41" rx="1.7"/><rect class="cls-8" x="50.71" y="7" width="5.49" height="10.99" rx="0.53"/><rect class="cls-9" x="50.25" y="12.7" width="6.4" height="18"/><path class="cls-10" d="M53.45,20.45a2.11,2.11,0,1,1-2.1,2.1A2.1,2.1,0,0,1,53.45,20.45Z"/><path class="cls-11" d="M53.45,21.37a1.19,1.19,0,1,1-1.18,1.18A1.18,1.18,0,0,1,53.45,21.37Z"/><path class="cls-12" d="M53.45,16.85a1.65,1.65,0,1,0-1.64-1.64A1.65,1.65,0,0,0,53.45,16.85Z"/><path class="cls-13" d="M176.67,27.74h66.79v116.1a1.57,1.57,0,0,1-1.57,1.57H178.24a1.57,1.57,0,0,1-1.57-1.57Z"/><path class="cls-14" d="M175,25.81h66.78v116.1a1.57,1.57,0,0,1-1.57,1.57H176.52a1.57,1.57,0,0,1-1.57-1.57Z"/><rect class="cls-15" x="231.79" y="27.75" width="5.36" height="3.21"/><rect class="cls-16" x="231.79" y="27.75" width="5.36" height="0.78"/><rect class="cls-16" x="231.79" y="29.76" width="5.36" height="1.21"/><rect class="cls-16" x="231.79" y="27.82" width="5.36" height="1.21"/><path class="cls-17" d="M236.31,21.35v7.4a.71.71,0,0,1-.71.72h0a.72.72,0,0,1-.72-.72v-7.4a.71.71,0,0,1,.72-.71h0A.71.71,0,0,1,236.31,21.35Z"/><path class="cls-18" d="M234.06,21.35v7.4a.72.72,0,0,1-.72.72h0a.72.72,0,0,1-.72-.72v-7.4a.72.72,0,0,1,.72-.71h0A.71.71,0,0,1,234.06,21.35Z"/><rect class="cls-15" x="218.72" y="27.75" width="5.36" height="3.21"/><rect class="cls-16" x="218.72" y="27.75" width="5.36" height="0.78"/><rect class="cls-16" x="218.72" y="29.76" width="5.36" height="1.21"/><rect class="cls-16" x="218.72" y="27.82" width="5.36" height="1.21"/><path class="cls-19" d="M223.25,21.35v7.4a.72.72,0,0,1-.72.72h0a.72.72,0,0,1-.72-.72v-7.4a.72.72,0,0,1,.72-.71h0A.71.71,0,0,1,223.25,21.35Z"/><path class="cls-20" d="M221,21.35v7.4a.71.71,0,0,1-.71.72h0a.72.72,0,0,1-.72-.72v-7.4a.71.71,0,0,1,.72-.71h0A.71.71,0,0,1,221,21.35Z"/><rect class="cls-15" x="205.66" y="27.75" width="5.36" height="3.21"/><rect class="cls-16" x="205.66" y="27.75" width="5.36" height="0.78"/><rect class="cls-16" x="205.66" y="29.76" width="5.36" height="1.21"/><rect class="cls-16" x="205.66" y="27.82" width="5.36" height="1.21"/><path class="cls-21" d="M210.18,21.35v7.4a.71.71,0,0,1-.71.72h0a.72.72,0,0,1-.72-.72v-7.4a.71.71,0,0,1,.72-.71h0A.71.71,0,0,1,210.18,21.35Z"/><path class="cls-22" d="M207.93,21.35v7.4a.72.72,0,0,1-.72.72h0a.72.72,0,0,1-.72-.72v-7.4a.72.72,0,0,1,.72-.71h0A.72.72,0,0,1,207.93,21.35Z"/><rect class="cls-15" x="192.59" y="27.75" width="5.36" height="3.21"/><rect class="cls-16" x="192.59" y="27.75" width="5.36" height="0.78"/><rect class="cls-16" x="192.59" y="29.76" width="5.36" height="1.21"/><rect class="cls-16" x="192.59" y="27.82" width="5.36" height="1.21"/><path class="cls-23" d="M197.12,21.35v7.4a.72.72,0,0,1-.72.72h0a.72.72,0,0,1-.72-.72v-7.4a.72.72,0,0,1,.72-.71h0A.71.71,0,0,1,197.12,21.35Z"/><path class="cls-24" d="M194.86,21.35v7.4a.71.71,0,0,1-.71.72h0a.72.72,0,0,1-.72-.72v-7.4a.71.71,0,0,1,.72-.71h0A.71.71,0,0,1,194.86,21.35Z"/><rect class="cls-15" x="179.53" y="27.75" width="5.36" height="3.21"/><rect class="cls-16" x="179.53" y="27.75" width="5.36" height="0.78"/><rect class="cls-16" x="179.53" y="29.76" width="5.36" height="1.21"/><rect class="cls-16" x="179.53" y="27.82" width="5.36" height="1.21"/><path class="cls-25" d="M184.05,21.35v7.4a.71.71,0,0,1-.71.72h0a.72.72,0,0,1-.72-.72v-7.4a.71.71,0,0,1,.72-.71h0A.71.71,0,0,1,184.05,21.35Z"/><path class="cls-26" d="M181.8,21.35v7.4a.72.72,0,0,1-.72.72h0a.72.72,0,0,1-.72-.72v-7.4a.72.72,0,0,1,.72-.71h0A.72.72,0,0,1,181.8,21.35Z"/><path class="cls-27" d="M198.57,182c41.29-13.17,7.14,31,7.81,45.91.57,12.51,21-6.32,21.62-5.47,1.23,1.73,2.64,3.05,2.42,3.28-4.46,4.67-17.26,14.92-24.68,10.85C199.39,233,201,224.84,203,219.29c3.49-10,10.77-25.11,11.07-30.58.49-9-15.85-1.31-15.8-2.25C198.28,185.31,198.19,182,198.57,182Z"/><path class="cls-27" d="M40.8,181.88c-41.29-13.18-7.14,31-7.81,45.91-.57,12.51-21-6.33-21.62-5.47-1.23,1.73-2.64,3.05-2.42,3.27,4.46,4.68,17.26,14.92,24.68,10.86,6.35-3.48,4.73-11.68,2.79-17.24-3.49-10-10.77-25.1-11.07-30.57-.49-9,15.85-1.31,15.8-2.25C41.09,185.24,41.18,181.91,40.8,181.88Z"/><path class="cls-27" d="M151,125.93c.26-4.82-.46-16.33-4.41-24.71-11.89-25.15-15.8,4.12-21.65,5.08-7.23,1.2-12.51-12.22-23.4-6C93,105.18,87.42,121,88,126c0,.22,1.87,0,3.67.08a30.06,30.06,0,0,1,2.3-9.31c4.49-10.89,10.27-13.43,13.22-13.23,7.78.53,12.45,9.65,20.27,6.64,6.64-2.55,9.12-28,17.59-.57,2.41,7.83,2.39,16.28,2.55,16.31A13.26,13.26,0,0,0,151,125.93Z"/><path class="cls-14" d="M120.92,308.53l68.26.31c3.95,0,3.2-1,3.24-5.37.65-70.2,4.78-84.39,7.3-126.45.34-5.68-47.37,2.27-48.78-50.93a7.24,7.24,0,0,0-7.21-7.07H95.26a7.24,7.24,0,0,0-7.21,7.07c-1.41,53.2-49.12,45.25-48.78,50.93,2.52,42.06,6.65,56.25,7.3,126.45,0,4.4-.71,5.38,3.23,5.37Z"/><rect class="cls-28" x="229.43" y="129.1" width="12.04" height="0.47"/><rect class="cls-28" x="229.43" y="131.5" width="12.04" height="0.47"/><rect class="cls-28" x="229.43" y="133.9" width="12.04" height="0.47"/><rect class="cls-28" x="229.43" y="136.3" width="12.04" height="0.47"/><rect class="cls-28" x="229.43" y="138.7" width="12.04" height="0.47"/><path class="cls-29" d="M227.61,137.63a2.61,2.61,0,0,0,.64-.08,2,2,0,0,0,.49-.22,1.24,1.24,0,0,0,.32-.33.88.88,0,0,0,.11-.42,1,1,0,0,0-.14-.48,1.18,1.18,0,0,0-.4-.4,2.31,2.31,0,0,0-.65-.27,3.33,3.33,0,0,0-.88-.1,3.6,3.6,0,0,0-1.19.17,2.74,2.74,0,0,0-.89.44,1.93,1.93,0,0,0-.55.63,1.54,1.54,0,0,0-.19.74,1.82,1.82,0,0,0,.24.91,2.22,2.22,0,0,0,.71.76,3.83,3.83,0,0,0,1.17.52,6.13,6.13,0,0,0,1.63.19,3.93,3.93,0,0,0,2.49-.64,2.21,2.21,0,0,0,.81-1.85,8.26,8.26,0,0,0-.07-1c0-.33-.09-.66-.15-1l-.68.12a4,4,0,0,1-.69,0,.67.67,0,0,1-.38-.08.24.24,0,0,1-.13-.22.19.19,0,0,1,.12-.2.53.53,0,0,0,.2.05l.28,0a4,4,0,0,0,.6-.05c.2,0,.4-.06.6-.11q-.09-.5-.15-1a5.79,5.79,0,0,1-.07-.92,2,2,0,0,1,.14-.85.43.43,0,0,1,.37-.27.22.22,0,0,1,.17.07.32.32,0,0,1,.1.18.59.59,0,0,0-.21.33,1.93,1.93,0,0,0-.08.58,6.4,6.4,0,0,0,.06.88c0,.28.09.58.14.88l.34,0,.33,0a1.29,1.29,0,0,1,.61.1q.18.11.18.24a.27.27,0,0,1-.06.17.2.2,0,0,1-.13.09.59.59,0,0,0-.28-.1,2.17,2.17,0,0,0-.47,0h-.22l-.22,0c.06.34.11.68.16,1a10,10,0,0,1,.06,1.12,2.71,2.71,0,0,1-.25,1.2,2.52,2.52,0,0,1-.74.89,3.54,3.54,0,0,1-1.19.55,6,6,0,0,1-1.59.19,6.65,6.65,0,0,1-1.81-.22,4.3,4.3,0,0,1-1.33-.61,2.73,2.73,0,0,1-.83-.87,2.12,2.12,0,0,1-.28-1.05,2,2,0,0,1,.23-.91,2.62,2.62,0,0,1,.67-.79,3.94,3.94,0,0,1,1.06-.56,4.44,4.44,0,0,1,1.41-.21,4.18,4.18,0,0,1,1,.12,2.79,2.79,0,0,1,.78.34,1.75,1.75,0,0,1,.49.53,1.31,1.31,0,0,1,.17.65,1.2,1.2,0,0,1-.15.59,1.51,1.51,0,0,1-.44.47,2.6,2.6,0,0,1-.67.32,3,3,0,0,1-.87.12,4,4,0,0,1-.59-.05,3.33,3.33,0,0,1-.55-.15,2.11,2.11,0,0,1-.4-.22.38.38,0,0,1-.15-.28.26.26,0,0,1,.1-.21.42.42,0,0,1,.29-.06.32.32,0,0,0,.14.21,1.36,1.36,0,0,0,.34.18,2.44,2.44,0,0,0,.45.12A3.88,3.88,0,0,0,227.61,137.63Zm5.86-7.35a.24.24,0,0,1,.27.26.53.53,0,0,1-.11.3.86.86,0,0,1-.36.27,2.48,2.48,0,0,1-.6.2,4.15,4.15,0,0,1-.83.07,7.89,7.89,0,0,1-1.31-.11l-1.21-.25-1.18-.24a6,6,0,0,0-1.2-.12,4,4,0,0,0-1.13.14,2.13,2.13,0,0,0-.74.36,1.23,1.23,0,0,0-.38.49,1.35,1.35,0,0,0-.12.53,1.18,1.18,0,0,0,.15.59,1.55,1.55,0,0,0,.4.45,2.28,2.28,0,0,0,.63.29,3,3,0,0,0,.81.1,3.1,3.1,0,0,0,1-.14,2.09,2.09,0,0,0,.74-.39.17.17,0,0,1,.15.18.25.25,0,0,1-.08.19,1.24,1.24,0,0,1-.26.2,3.17,3.17,0,0,1-.68.28,3,3,0,0,1-.92.13,3.45,3.45,0,0,1-1-.14,2.3,2.3,0,0,1-.75-.38,1.84,1.84,0,0,1-.49-.59,1.58,1.58,0,0,1-.16-.72,1.76,1.76,0,0,1,.16-.74,1.63,1.63,0,0,1,.5-.65,2.71,2.71,0,0,1,.9-.46,4.21,4.21,0,0,1,1.32-.18,6.41,6.41,0,0,1,1.26.12c.4.07.79.15,1.18.25l1.17.25a7.18,7.18,0,0,0,1.25.11,2.82,2.82,0,0,0,1.07-.18A1,1,0,0,0,233.47,130.28Z"/><path class="cls-29" d="M235.47,136.64a.78.78,0,0,1-.06.36.24.24,0,0,1-.15.13,2.35,2.35,0,0,1-.12.71q.09.75.45.75a.38.38,0,0,0,.25-.1.94.94,0,0,0,.26-.33,4.11,4.11,0,0,0,.29-.62c.11-.27.23-.6.35-1,.16,0,.21.1.16.31a10.37,10.37,0,0,1-.33,1.11,4.23,4.23,0,0,1-.33.7,1,1,0,0,1-.34.37.75.75,0,0,1-.38.1c-.33,0-.56-.2-.7-.61a2,2,0,0,1-.46.53.93.93,0,0,1-.58.22.78.78,0,0,1-.64-.37,1.93,1.93,0,0,1-.26-1.09,2.93,2.93,0,0,1,.13-.88,2.63,2.63,0,0,1,.34-.78,1.76,1.76,0,0,1,.51-.54,1.06,1.06,0,0,1,.63-.21,1,1,0,0,1,.43.1.86.86,0,0,1,.31.26,1.22,1.22,0,0,1,.18.4A1.86,1.86,0,0,1,235.47,136.64Zm-.37,0a.89.89,0,0,0-.21-.54.59.59,0,0,0-.46-.19.77.77,0,0,0-.46.15,1.48,1.48,0,0,0-.35.39,2.19,2.19,0,0,0-.23.56,2.82,2.82,0,0,0-.08.65,1.6,1.6,0,0,0,.17.81.5.5,0,0,0,.42.29.65.65,0,0,0,.44-.21,1.8,1.8,0,0,0,.38-.53c0-.05,0-.1,0-.16s0-.11,0-.17a2.23,2.23,0,0,1,.12-.81C234.89,136.66,235,136.59,235.1,136.62Z"/><path class="cls-30" d="M236.81,128.79a.32.32,0,0,1,.13-.28.63.63,0,0,1,.41-.11.77.77,0,0,1,.56.18.58.58,0,0,1,.18.43.85.85,0,0,1-.09.38,1.46,1.46,0,0,1-.22.33,1.66,1.66,0,0,1-.31.23.66.66,0,0,1-.32.08.49.49,0,0,1-.39-.14.56.56,0,0,1-.13-.38,1,1,0,0,1,.2-.58.78.78,0,0,1,0-.14Zm.17.5a.26.26,0,0,0,.09.21.36.36,0,0,0,.24.08.48.48,0,0,0,.29-.11.39.39,0,0,0,.13-.28.31.31,0,0,0-.12-.22.4.4,0,0,0-.32-.11.55.55,0,0,0-.18,0,1.46,1.46,0,0,0-.1.23A.57.57,0,0,0,237,129.29Z"/><rect class="cls-28" x="75.98" y="67.24" width="12.04" height="0.47"/><rect class="cls-28" x="75.98" y="69.64" width="12.04" height="0.47"/><rect class="cls-28" x="75.98" y="72.04" width="12.04" height="0.47"/><rect class="cls-28" x="75.98" y="74.44" width="12.04" height="0.47"/><rect class="cls-28" x="75.98" y="76.84" width="12.04" height="0.47"/><path class="cls-29" d="M74.16,75.77a2.61,2.61,0,0,0,.64-.08,1.7,1.7,0,0,0,.49-.22,1.25,1.25,0,0,0,.32-.33.84.84,0,0,0,.11-.41.92.92,0,0,0-.14-.48,1.2,1.2,0,0,0-.4-.41,2.45,2.45,0,0,0-.65-.27,3.81,3.81,0,0,0-.88-.1,4,4,0,0,0-1.2.17,3,3,0,0,0-.88.44,2.07,2.07,0,0,0-.55.64,1.5,1.5,0,0,0-.19.73,1.86,1.86,0,0,0,.24.92,2.22,2.22,0,0,0,.71.76,4,4,0,0,0,1.17.51,6.11,6.11,0,0,0,1.63.2,4,4,0,0,0,2.49-.64,2.24,2.24,0,0,0,.81-1.86,8.26,8.26,0,0,0-.07-1l-.15-1-.68.12a4,4,0,0,1-.69.06.74.74,0,0,1-.38-.08.25.25,0,0,1-.13-.22c0-.11,0-.18.11-.2a.93.93,0,0,0,.21,0h.28a4,4,0,0,0,.6,0q.3,0,.6-.12c-.06-.32-.11-.64-.16-1a7.11,7.11,0,0,1-.06-.92,1.82,1.82,0,0,1,.14-.84.41.41,0,0,1,.37-.28A.28.28,0,0,1,78,70a.35.35,0,0,1,.1.18.67.67,0,0,0-.21.33,2,2,0,0,0-.08.59,6.36,6.36,0,0,0,.06.87c0,.29.09.58.14.88l.34,0,.33,0a1.43,1.43,0,0,1,.61.1.29.29,0,0,1,.18.25.25.25,0,0,1-.06.16.2.2,0,0,1-.13.09.72.72,0,0,0-.28-.1,3.17,3.17,0,0,0-.47,0h-.22l-.22,0c.06.33.11.67.16,1a10.1,10.1,0,0,1,.06,1.12,2.71,2.71,0,0,1-.25,1.2,2.44,2.44,0,0,1-.74.89,3.65,3.65,0,0,1-1.19.56,6.42,6.42,0,0,1-1.59.19,6.63,6.63,0,0,1-1.81-.23,4.54,4.54,0,0,1-1.33-.6,2.87,2.87,0,0,1-.83-.88,2.07,2.07,0,0,1-.28-1,1.83,1.83,0,0,1,.23-.9,2.5,2.5,0,0,1,.67-.79,3.68,3.68,0,0,1,1.06-.56,4.44,4.44,0,0,1,1.41-.22,3.75,3.75,0,0,1,1,.13,2.52,2.52,0,0,1,.78.34A1.72,1.72,0,0,1,76,74a1.34,1.34,0,0,1,.17.65,1.11,1.11,0,0,1-.16.59,1.37,1.37,0,0,1-.43.47,2.25,2.25,0,0,1-.68.32,2.84,2.84,0,0,1-.86.12,4,4,0,0,1-.59,0,2.57,2.57,0,0,1-.55-.15,1.67,1.67,0,0,1-.4-.22.36.36,0,0,1-.15-.28.23.23,0,0,1,.1-.2.34.34,0,0,1,.29-.06.33.33,0,0,0,.14.21,1.53,1.53,0,0,0,.34.17,2.55,2.55,0,0,0,.44.12A2.77,2.77,0,0,0,74.16,75.77ZM80,68.42a.24.24,0,0,1,.27.26.53.53,0,0,1-.12.31.92.92,0,0,1-.35.27,2.5,2.5,0,0,1-.6.19,4.1,4.1,0,0,1-.83.08,6.86,6.86,0,0,1-1.31-.12c-.41-.07-.81-.15-1.21-.24l-1.18-.25a6,6,0,0,0-1.2-.11,4.16,4.16,0,0,0-1.14.13,2.61,2.61,0,0,0-.73.36,1.39,1.39,0,0,0-.39.5,1.48,1.48,0,0,0-.11.53,1.17,1.17,0,0,0,.15.58,1.23,1.23,0,0,0,.4.45,1.93,1.93,0,0,0,.63.29,2.94,2.94,0,0,0,.81.11,3.29,3.29,0,0,0,1-.14,2.09,2.09,0,0,0,.74-.4.17.17,0,0,1,.16.19.23.23,0,0,1-.08.18,1.24,1.24,0,0,1-.26.2,3.13,3.13,0,0,1-1.6.41,3.45,3.45,0,0,1-1-.14,2.35,2.35,0,0,1-.76-.38,1.75,1.75,0,0,1-.48-.58,1.66,1.66,0,0,1-.16-.73,1.92,1.92,0,0,1,.15-.74A1.84,1.84,0,0,1,71.3,69a2.71,2.71,0,0,1,.9-.46,4.55,4.55,0,0,1,1.32-.17,6.42,6.42,0,0,1,1.26.11l1.18.25c.38.09.78.18,1.17.25a6.32,6.32,0,0,0,1.25.11,2.82,2.82,0,0,0,1.07-.18A1,1,0,0,0,80,68.42Z"/><path class="cls-29" d="M82,74.78a.83.83,0,0,1-.05.37.22.22,0,0,1-.15.12,2.46,2.46,0,0,1-.12.72c0,.49.2.74.45.74a.43.43,0,0,0,.25-.09,1.4,1.4,0,0,0,.26-.33,4.85,4.85,0,0,0,.29-.63c.11-.26.22-.59.35-1,.16,0,.21.11.16.31a9.72,9.72,0,0,1-.33,1.11,3.87,3.87,0,0,1-.33.7,1.13,1.13,0,0,1-.34.37.79.79,0,0,1-.38.11c-.33,0-.57-.21-.7-.61a2.14,2.14,0,0,1-.46.53.92.92,0,0,1-.58.21.76.76,0,0,1-.64-.37A1.9,1.9,0,0,1,79.43,76a2.93,2.93,0,0,1,.13-.88,2.57,2.57,0,0,1,.34-.77,1.8,1.8,0,0,1,.51-.55,1.1,1.1,0,0,1,.63-.2,1,1,0,0,1,.43.09,1,1,0,0,1,.31.27,1.17,1.17,0,0,1,.18.39A2.44,2.44,0,0,1,82,74.78Zm-.36,0a1,1,0,0,0-.21-.55A.59.59,0,0,0,81,74a.77.77,0,0,0-.46.15,1.38,1.38,0,0,0-.35.4,2.12,2.12,0,0,0-.23.55,2.91,2.91,0,0,0-.08.66,1.53,1.53,0,0,0,.17.81.48.48,0,0,0,.42.28.65.65,0,0,0,.44-.21,1.89,1.89,0,0,0,.38-.52.86.86,0,0,1,0-.16,1.09,1.09,0,0,1,0-.18,2.14,2.14,0,0,1,.12-.8C81.44,74.81,81.53,74.73,81.65,74.77Z"/><path class="cls-30" d="M83.36,66.93a.33.33,0,0,1,.13-.28.63.63,0,0,1,.41-.11.77.77,0,0,1,.56.18.58.58,0,0,1,.18.43.85.85,0,0,1-.09.38,1.23,1.23,0,0,1-.23.33.93.93,0,0,1-.3.23.68.68,0,0,1-.33.09.52.52,0,0,1-.38-.14.55.55,0,0,1-.13-.38,1,1,0,0,1,.2-.59.68.68,0,0,1,0-.14Zm.17.5a.27.27,0,0,0,.09.22.36.36,0,0,0,.24.07.42.42,0,0,0,.29-.11.37.37,0,0,0,.13-.28.33.33,0,0,0-.12-.22.44.44,0,0,0-.32-.11l-.18,0a1.07,1.07,0,0,0-.1.23A.67.67,0,0,0,83.53,67.43Z"/><path class="cls-29" d="M35.23,63.87A3.1,3.1,0,0,0,37,63.24a6.64,6.64,0,0,0,1.79-2.09,18.2,18.2,0,0,0,1.65-3.82,37.12,37.12,0,0,0,1.3-5.82,22.52,22.52,0,0,1,.19-3c.1-.68.27-1,.49-1s.19.08.26.25a2.92,2.92,0,0,1,.09.87A23,23,0,0,1,42.35,52q0,1.23.21,2.52c.1.87.23,1.7.39,2.5s.33,1.53.52,2.2a12.39,12.39,0,0,0,.58,1.66,5.05,5.05,0,0,0,.32.6.41.41,0,0,0,.33.19c.21,0,.44-.27.68-.82.14-.3.28-.66.43-1.09s.29-.87.43-1.36.28-1,.42-1.51.27-1.06.39-1.58.22-1,.32-1.54.17-1,.24-1.4a16.33,16.33,0,0,1,.23-2.65c.12-.54.28-.81.47-.81a.27.27,0,0,1,.23.18,1.67,1.67,0,0,1,.09.67,8.27,8.27,0,0,1-.06.86l-.12,1.11c0,.57,0,1.2,0,1.87s0,1.35.07,2,.11,1.35.18,2,.18,1.25.28,1.8a18.47,18.47,0,0,0,.88,3.22,8.37,8.37,0,0,0,1,1.92,2.84,2.84,0,0,0,1,.91,2.1,2.1,0,0,0,.91.24,1.73,1.73,0,0,0,1-.28,1.55,1.55,0,0,0,.63-.77c.19,0,.31.06.35.21a.79.79,0,0,1-.09.54,2,2,0,0,1-.78.84,2.17,2.17,0,0,1-1.16.31,2.61,2.61,0,0,1-1.24-.34A3.87,3.87,0,0,1,50.19,65a9.64,9.64,0,0,1-1.12-2.19,19.52,19.52,0,0,1-.87-3.43c-.13-.78-.23-1.54-.3-2.29s-.12-1.5-.14-2.26c-.09.52-.2,1.05-.33,1.61s-.27,1.11-.43,1.65-.31,1.06-.48,1.57-.35,1-.52,1.37a4.69,4.69,0,0,1-.73,1.29.92.92,0,0,1-.68.37c-.43,0-.84-.47-1.25-1.41A10.5,10.5,0,0,1,42.85,60c-.15-.53-.3-1.1-.44-1.72s-.25-1.26-.36-1.94-.19-1.36-.24-2a26.73,26.73,0,0,1-1.27,4.79,14.87,14.87,0,0,1-1.66,3.23A6.35,6.35,0,0,1,37,64.14a3.74,3.74,0,0,1-1.89.57,2.93,2.93,0,0,1-1.24-.26,2.65,2.65,0,0,1-.93-.77,3.34,3.34,0,0,1-.59-1.21,5.64,5.64,0,0,1-.21-1.6,8.51,8.51,0,0,1,.22-1.95A9.63,9.63,0,0,1,33,57.11a9.37,9.37,0,0,1,.92-1.57A7.25,7.25,0,0,1,35,54.29a5.08,5.08,0,0,1,1.27-.82,3.22,3.22,0,0,1,1.34-.3A1.68,1.68,0,0,1,39,53.8a3.15,3.15,0,0,1,.5,2,6.71,6.71,0,0,1-.25,1.78,6.15,6.15,0,0,1-.69,1.56,4.16,4.16,0,0,1-1,1.1,1.85,1.85,0,0,1-1.14.42,1.15,1.15,0,0,1-.91-.44,2.05,2.05,0,0,1-.37-1.3,4.26,4.26,0,0,1,.21-1.3A3,3,0,0,1,36,56.51a.73.73,0,0,1,.52-.3.19.19,0,0,1,.17.07.33.33,0,0,1,.08.19,2.87,2.87,0,0,0-.67,1,3.23,3.23,0,0,0-.22,1.13,1.6,1.6,0,0,0,.21.93.62.62,0,0,0,.53.29,1.21,1.21,0,0,0,.72-.29,3.08,3.08,0,0,0,.69-.83,4.87,4.87,0,0,0,.53-1.24,5.87,5.87,0,0,0,.2-1.55,2.54,2.54,0,0,0-.35-1.49,1.15,1.15,0,0,0-1-.49,2.25,2.25,0,0,0-1,.25,4.32,4.32,0,0,0-1,.7A7.12,7.12,0,0,0,34.44,56a8.12,8.12,0,0,0-1.32,2.92,7.14,7.14,0,0,0-.21,1.67,5.16,5.16,0,0,0,.16,1.49,2.91,2.91,0,0,0,.5,1,1.82,1.82,0,0,0,.74.59A2.32,2.32,0,0,0,35.23,63.87Z"/><path class="cls-29" d="M55,59a1.36,1.36,0,0,1-.09.59.34.34,0,0,1-.24.2,3.73,3.73,0,0,1-.21,1.18c.09.82.34,1.23.74,1.23a.74.74,0,0,0,.42-.16,2,2,0,0,0,.42-.54,7.94,7.94,0,0,0,.48-1c.18-.43.37-1,.58-1.64.26,0,.34.17.26.51a16.76,16.76,0,0,1-.54,1.82,6.27,6.27,0,0,1-.54,1.15,2,2,0,0,1-.57.61,1.29,1.29,0,0,1-.62.17c-.55,0-.93-.33-1.15-1a3.06,3.06,0,0,1-.76.87,1.5,1.5,0,0,1-.94.35,1.25,1.25,0,0,1-1.06-.6,3.07,3.07,0,0,1-.43-1.79A5.15,5.15,0,0,1,51,59.42a4.58,4.58,0,0,1,.56-1.27,3.13,3.13,0,0,1,.84-.89,1.72,1.72,0,0,1,1-.34,1.46,1.46,0,0,1,.71.16,1.52,1.52,0,0,1,.51.43,1.93,1.93,0,0,1,.29.65A2.92,2.92,0,0,1,55,59Zm-.61,0A1.43,1.43,0,0,0,54,58a1,1,0,0,0-.76-.31,1.23,1.23,0,0,0-.75.25,2.22,2.22,0,0,0-.57.64,3.48,3.48,0,0,0-.38.92,4.3,4.3,0,0,0-.14,1.07,2.7,2.7,0,0,0,.28,1.34.81.81,0,0,0,.7.46,1,1,0,0,0,.72-.34,3.11,3.11,0,0,0,.62-.86,2.65,2.65,0,0,0,0-.27v-.28a3.94,3.94,0,0,1,.18-1.33C54.05,59,54.2,58.86,54.38,58.93Z"/><path class="cls-29" d="M61.49,58.79c.25,0,.34.17.26.51-.19.74-.37,1.36-.55,1.86a5.72,5.72,0,0,1-.54,1.2,2.14,2.14,0,0,1-.56.64,1.11,1.11,0,0,1-.59.19,1,1,0,0,1-.9-.55A3.28,3.28,0,0,1,58.3,61a8.88,8.88,0,0,1,.08-1.09,7,7,0,0,1,.29-1.22,1.55,1.55,0,0,1-.49.59,1,1,0,0,1-.54.18.68.68,0,0,1-.59-.31,1.66,1.66,0,0,1-.22-1,2.76,2.76,0,0,1,.05-.59,4.24,4.24,0,0,1,.11-.5,1.2,1.2,0,0,1,.17-.34.26.26,0,0,1,.2-.12c.19,0,.28.22.28.67,0,.15,0,.34,0,.56a6.18,6.18,0,0,1-.11.75.38.38,0,0,0,.26.08.85.85,0,0,0,.61-.36,2.65,2.65,0,0,0,.51-.93.27.27,0,0,1,.19,0,.43.43,0,0,1,.44.28.93.93,0,0,1,0,.53A9.33,9.33,0,0,0,59,60.88a2.27,2.27,0,0,0,.2,1.12.54.54,0,0,0,.43.31.55.55,0,0,0,.35-.17,2.05,2.05,0,0,0,.4-.59q.21-.4.48-1.08C61.07,60,61.27,59.46,61.49,58.79Z"/><path class="cls-29" d="M61.5,53.79a.65.65,0,0,1,.23-.52,1.19,1.19,0,0,1,.76-.2,1.44,1.44,0,0,1,1,.33,1.07,1.07,0,0,1,.33.79,1.56,1.56,0,0,1-.16.7,2.37,2.37,0,0,1-.42.61,2.26,2.26,0,0,1-.56.43,1.4,1.4,0,0,1-.6.15.89.89,0,0,1-.7-.26,1,1,0,0,1-.25-.7,1.74,1.74,0,0,1,.37-1.07A.82.82,0,0,1,61.5,53.79Zm1,9.3a1.05,1.05,0,0,1-.91-.55,3.38,3.38,0,0,1-.37-1.84c0-.19,0-.4,0-.64s.05-.46.09-.69a6.42,6.42,0,0,1,.13-.66,4,4,0,0,1,.16-.54,1.74,1.74,0,0,1,.23-.39.39.39,0,0,1,.32-.14.36.36,0,0,1,.28.11,8.16,8.16,0,0,0-.33,1.36,9.57,9.57,0,0,0-.11,1.41,3.09,3.09,0,0,0,.2,1.28c.14.27.31.4.52.4a.49.49,0,0,0,.33-.15,1.71,1.71,0,0,0,.38-.54,9.38,9.38,0,0,0,.46-1q.24-.66.57-1.68c.26,0,.35.17.26.51a18.5,18.5,0,0,1-.54,1.8,7.29,7.29,0,0,1-.54,1.17,2.08,2.08,0,0,1-.56.63A1.09,1.09,0,0,1,62.53,63.09Zm-.71-8.38a.49.49,0,0,0,.16.4.68.68,0,0,0,.44.14A.79.79,0,0,0,63,55a.65.65,0,0,0,.24-.51.61.61,0,0,0-.2-.41.82.82,0,0,0-.61-.21,1.87,1.87,0,0,0-.32,0,2.42,2.42,0,0,0-.19.42A1.12,1.12,0,0,0,61.82,54.71Z"/><path class="cls-29" d="M69.24,58.79c.25,0,.34.17.26.51a8.27,8.27,0,0,1-.66,1.79A5.57,5.57,0,0,1,68,62.34a3.15,3.15,0,0,1-.95.73,2.19,2.19,0,0,1-1,.24,1.65,1.65,0,0,1-1.37-.66,3.15,3.15,0,0,1-.53-2,5.4,5.4,0,0,1,.2-1.48A4.61,4.61,0,0,1,64.91,58a2.49,2.49,0,0,1,.73-.75,1.46,1.46,0,0,1,.85-.28,1,1,0,0,1,.51.12,1.12,1.12,0,0,1,.34.31,1.42,1.42,0,0,1,.2.47,2.62,2.62,0,0,1,.06.57,2.45,2.45,0,0,1-.16.91,2.36,2.36,0,0,1-.41.71,1.85,1.85,0,0,1-.58.47,1.39,1.39,0,0,1-.65.16,1.62,1.62,0,0,1-.56-.1,1,1,0,0,1-.43-.3v.11A2.55,2.55,0,0,0,65.2,62a1.21,1.21,0,0,0,1,.53,1.62,1.62,0,0,0,.73-.19,2.42,2.42,0,0,0,.79-.62,5.78,5.78,0,0,0,.79-1.14A11.15,11.15,0,0,0,69.24,58.79ZM66.3,57.7a.72.72,0,0,0-.42.15,1.79,1.79,0,0,0-.39.39,3.73,3.73,0,0,0-.34.57,3.83,3.83,0,0,0-.23.7.79.79,0,0,0,.32.38,1,1,0,0,0,.51.14.92.92,0,0,0,.38-.09,1,1,0,0,0,.35-.27,1.58,1.58,0,0,0,.26-.46,1.64,1.64,0,0,0,.11-.62,1.38,1.38,0,0,0-.14-.62A.44.44,0,0,0,66.3,57.7Z"/><path class="cls-27" d="M227,44.71l7.15-9.84a12.32,12.32,0,0,1,2.48,2.41,12.15,12.15,0,0,1,1.7,3Z"/><path class="cls-27" d="M73.19,52.57l7.16-9.83a12.15,12.15,0,0,1,4.18,5.42Z"/><path class="cls-31" d="M81.25,211.45h76.49a0,0,0,0,1,0,0v36.43a7.21,7.21,0,0,1-7.21,7.21H88.46a7.21,7.21,0,0,1-7.21-7.21V211.45A0,0,0,0,1,81.25,211.45Z"/><path class="cls-28" d="M81.25,209.11h76.49a0,0,0,0,1,0,0v38.77a7.21,7.21,0,0,1-7.21,7.21H88.46a7.21,7.21,0,0,1-7.21-7.21V209.11A0,0,0,0,1,81.25,209.11Z"/><rect class="cls-3" x="106.83" y="220.6" width="25.97" height="0.58"/><rect class="cls-3" x="106.83" y="223.79" width="25.97" height="0.58"/><rect class="cls-3" x="106.83" y="226.99" width="25.97" height="0.58"/><rect class="cls-3" x="106.83" y="230.18" width="25.97" height="0.58"/><path class="cls-29" d="M105.4,228.5a3.22,3.22,0,0,0,.79-.1,2.21,2.21,0,0,0,.62-.28,1.26,1.26,0,0,0,.39-.41,1,1,0,0,0,.14-.52,1.09,1.09,0,0,0-.17-.6,1.49,1.49,0,0,0-.5-.5,2.74,2.74,0,0,0-.81-.34,4.6,4.6,0,0,0-1.11-.12,5.14,5.14,0,0,0-1.48.2,3.61,3.61,0,0,0-1.11.56,2.45,2.45,0,0,0-.69.79,1.94,1.94,0,0,0-.24.92,2.29,2.29,0,0,0,.3,1.14,2.86,2.86,0,0,0,.89.95,4.76,4.76,0,0,0,1.47.65,7.69,7.69,0,0,0,2,.24,5,5,0,0,0,3.11-.8,2.79,2.79,0,0,0,1-2.31,8.69,8.69,0,0,0-.09-1.26c0-.41-.11-.82-.18-1.22-.29.06-.57.11-.86.15a4.83,4.83,0,0,1-.86.07,1,1,0,0,1-.47-.1.31.31,0,0,1-.16-.28.23.23,0,0,1,.14-.25,1.05,1.05,0,0,0,.26.07l.35,0a4.74,4.74,0,0,0,.75-.06l.75-.14c-.07-.41-.14-.81-.2-1.2a9.14,9.14,0,0,1-.08-1.15,2.35,2.35,0,0,1,.18-1.06.52.52,0,0,1,.46-.34.37.37,0,0,1,.22.08.36.36,0,0,1,.11.23.85.85,0,0,0-.25.41,2.22,2.22,0,0,0-.1.73,7.88,7.88,0,0,0,.07,1.09c0,.36.11.73.18,1.1l.41-.05.42,0a1.54,1.54,0,0,1,.76.13.34.34,0,0,1,.22.3.39.39,0,0,1-.06.21.27.27,0,0,1-.17.11.8.8,0,0,0-.35-.13,3.33,3.33,0,0,0-.59,0l-.27,0-.28,0c.08.41.14.84.2,1.28a12.42,12.42,0,0,1,.08,1.4,3.23,3.23,0,0,1-.32,1.49,3.1,3.1,0,0,1-.92,1.12,4.41,4.41,0,0,1-1.48.69,7.59,7.59,0,0,1-2,.24,8.17,8.17,0,0,1-2.26-.28,5.43,5.43,0,0,1-1.66-.76,3.38,3.38,0,0,1-1-1.1,2.65,2.65,0,0,1-.35-1.31,2.31,2.31,0,0,1,.29-1.12,3,3,0,0,1,.84-1,4.35,4.35,0,0,1,1.32-.7,5.37,5.37,0,0,1,1.76-.27,4.65,4.65,0,0,1,1.29.16,3.15,3.15,0,0,1,1,.42,2,2,0,0,1,.61.66,1.54,1.54,0,0,1,.22.81,1.47,1.47,0,0,1-.2.74,1.88,1.88,0,0,1-.54.59,3,3,0,0,1-.84.39,3.61,3.61,0,0,1-1.08.15,4.71,4.71,0,0,1-.74-.06,3.14,3.14,0,0,1-.69-.19,2,2,0,0,1-.49-.27.45.45,0,0,1-.19-.35.34.34,0,0,1,.12-.26.47.47,0,0,1,.37-.07.34.34,0,0,0,.17.26,1.65,1.65,0,0,0,.42.22,3.77,3.77,0,0,0,.56.15A4.18,4.18,0,0,0,105.4,228.5Zm7.31-9.18c.23,0,.35.11.35.32a.61.61,0,0,1-.15.38,1.2,1.2,0,0,1-.44.34,3,3,0,0,1-.75.24,4.68,4.68,0,0,1-1,.1,9.31,9.31,0,0,1-1.62-.14l-1.52-.31c-.49-.11-1-.22-1.47-.31a8.31,8.31,0,0,0-1.51-.14,5.13,5.13,0,0,0-1.41.17,2.86,2.86,0,0,0-.91.45,1.5,1.5,0,0,0-.49.62,1.74,1.74,0,0,0-.14.66,1.52,1.52,0,0,0,.18.73,1.8,1.8,0,0,0,.51.56,2.25,2.25,0,0,0,.78.36,3.62,3.62,0,0,0,1,.14,4,4,0,0,0,1.22-.18,2.74,2.74,0,0,0,.93-.49.2.2,0,0,1,.19.23.32.32,0,0,1-.1.23,2,2,0,0,1-.32.25,3.92,3.92,0,0,1-.86.35A3.81,3.81,0,0,1,104,224a4.32,4.32,0,0,1-1.24-.17,3.14,3.14,0,0,1-1-.48,2.2,2.2,0,0,1-.6-.73,2,2,0,0,1-.21-.91,2.31,2.31,0,0,1,.2-.92,2,2,0,0,1,.63-.81,3.47,3.47,0,0,1,1.12-.58,5.71,5.71,0,0,1,1.66-.22,8,8,0,0,1,1.57.15c.5.09,1,.19,1.47.31s1,.22,1.47.31a7.77,7.77,0,0,0,1.55.14,3.4,3.4,0,0,0,1.35-.23A1.24,1.24,0,0,0,112.71,219.32Z"/><path class="cls-29" d="M115.21,227.27a1.16,1.16,0,0,1-.07.45.26.26,0,0,1-.18.15,3.06,3.06,0,0,1-.16.9c.07.62.26.93.56.93a.53.53,0,0,0,.32-.12,1.49,1.49,0,0,0,.32-.41,7,7,0,0,0,.36-.79c.14-.32.28-.74.44-1.24.2,0,.27.13.2.39a13.38,13.38,0,0,1-.41,1.38,4.92,4.92,0,0,1-.41.88,1.4,1.4,0,0,1-.44.46,1,1,0,0,1-.46.13c-.42,0-.71-.26-.88-.77a2.5,2.5,0,0,1-.57.67,1.12,1.12,0,0,1-.72.26,1,1,0,0,1-.81-.45,2.42,2.42,0,0,1-.32-1.36,3.77,3.77,0,0,1,.16-1.11,3.7,3.7,0,0,1,.42-1,2.42,2.42,0,0,1,.64-.67,1.37,1.37,0,0,1,.78-.26,1.2,1.2,0,0,1,.55.12,1.1,1.1,0,0,1,.38.33,1.47,1.47,0,0,1,.22.49A2.37,2.37,0,0,1,115.21,227.27Zm-.46,0a1.2,1.2,0,0,0-.26-.68.75.75,0,0,0-.58-.23,1,1,0,0,0-.57.18,1.9,1.9,0,0,0-.44.49,2.93,2.93,0,0,0-.28.7,3.24,3.24,0,0,0-.11.82,1.87,1.87,0,0,0,.22,1,.6.6,0,0,0,.52.36.83.83,0,0,0,.55-.26,2.55,2.55,0,0,0,.48-.66,1.36,1.36,0,0,1,0-.2v-.22a2.82,2.82,0,0,1,.14-1C114.49,227.3,114.61,227.2,114.75,227.24Z"/><rect class="cls-3" x="106.83" y="217.4" width="25.97" height="0.58"/><path class="cls-32" d="M122.66,215.4v5.51a3,3,0,0,0,1.5-2.3c0-.85-.72-1.24-1.47-.64"/><path class="cls-32" d="M124.58,221.76v5.51a3,3,0,0,0,1.51-2.3c0-.84-.72-1.24-1.48-.64"/><path class="cls-32" d="M119.64,220.82v5.51a3,3,0,0,0,1.5-2.3c0-.84-.72-1.24-1.47-.64"/><path class="cls-32" d="M127.5,217.59v5.51a3,3,0,0,0,1.5-2.3c0-.85-.72-1.24-1.47-.65"/><path class="cls-30" d="M136.15,237.38l7.85-8.63a11.74,11.74,0,0,1,3.42,5.61Z"/><path class="cls-29" d="M110.54,246.22h-.32l-.93,0a.12.12,0,0,1-.05-.24.11.11,0,0,1,.08-.07,2,2,0,0,1,.55,0,8.36,8.36,0,0,1-.44-1.61,7,7,0,0,1-.79,0,2.77,2.77,0,0,1-.49,0h-.08c-.09.55-.19,1.08-.33,1.61h.41a.13.13,0,0,1,.11.2h.1a.12.12,0,1,1,0,.23,8.53,8.53,0,0,1-1.33-.07c-.1,0-.11-.12,0-.19s0-.18.1-.18h.32c.1-1.06.42-2.1.61-3.15s.36-2.25.55-3.37l-.52-.08a.1.1,0,0,1-.08,0,.69.69,0,0,1-.2,0,.12.12,0,0,1,0-.23,5.35,5.35,0,0,1,.88-.06.24.24,0,0,1,.12,0l.31,0c.18,0,.17.22,0,.25h0c.1,0,.08.16,0,.2a19,19,0,0,1,.36,2.59c.28,1.33.54,2.67.78,4a1.21,1.21,0,0,0,.19,0,.1.1,0,0,1,.13.08h.05C110.7,246,110.72,246.22,110.54,246.22ZM109.39,244l-.07-.52v0c-.13-.6-.21-1.2-.3-1.81l-.14-1.07-.06-.34c-.13.7-.26,1.39-.41,2.09,0,.25-.1.5-.16.75l-.13.84c.33-.06.65,0,1,0a.15.15,0,0,1,.16.13Z"/><path class="cls-29" d="M114.11,246.11c-.59.32-.81-.08-.88-.58a3.18,3.18,0,0,1-.14-.93c0-.41,0-.82-.06-1.23a1,1,0,0,0-.23-.57,1.1,1.1,0,0,0-.37-.25,1.61,1.61,0,0,0-.31,0l-.18.05c0,.79,0,1.59-.08,2.39,0,.29,0,.58,0,.88l.62-.05a.12.12,0,0,1,.11.19.12.12,0,0,1,0,.23,10.26,10.26,0,0,0-1.36,0c-.14,0-.22-.16-.1-.21s0-.11.12-.11h.38c0-.61,0-1.22,0-1.83s0-1.16,0-1.73a15.89,15.89,0,0,0,0-3.16h-.33c-.07,0-.11-.07-.13-.12a.12.12,0,0,1,.09-.22c.65,0,1.43-.14,2,.27a1.76,1.76,0,0,1,.47.6,1.68,1.68,0,0,1,.27.86,1.86,1.86,0,0,1-.52,1.62,2.13,2.13,0,0,1-.42.23l.16.11a1,1,0,0,1,.26.25,2.15,2.15,0,0,1,.32,1.2c0,.32-.24,1.36,0,1.77a.42.42,0,0,0,.32.17h0C114.15,245.88,114.24,246,114.11,246.11Zm-.8-5.64a1.39,1.39,0,0,0-.72-1.13,2,2,0,0,0-.68-.17,7.51,7.51,0,0,1,0,2.27l0,.81h0a2.24,2.24,0,0,0,1.08-.46A1.4,1.4,0,0,0,113.31,240.47Z"/><path class="cls-29" d="M117.63,240.11a.13.13,0,0,1,0,.09.14.14,0,0,1-.25,0,3.32,3.32,0,0,1-.12-1h-1a3.38,3.38,0,0,1,.1.69,5.69,5.69,0,0,1,0,.92c0,.47,0,.94,0,1.41a31.8,31.8,0,0,1,0,3.52.07.07,0,0,1,0,.07v0h.54a.13.13,0,0,1,.12.17.12.12,0,0,1-.09.21h-1.33a.14.14,0,0,1-.12-.06h-.06a.12.12,0,0,1,0-.24s0-.1.12-.1l.54,0,0-.29a8.17,8.17,0,0,1-.07-3c0-.9,0-1.8,0-2.71,0-.12,0-.22,0-.34v-.3l-.93,0h0c0,.35,0,.7,0,1.06a.15.15,0,0,1-.21.1c-.06,0-.12,0-.13-.08a3.71,3.71,0,0,1,0-.66c0-.22-.06-.43-.07-.64s.08-.12.15-.11a.19.19,0,0,1,.18,0l.17,0h2.55c.07,0,.18,0,.19.06A6.22,6.22,0,0,1,117.63,240.11Z"/><path class="cls-29" d="M119.35,242.6a0,0,0,0,0,0,0l-.06,0c0,.05,0,.1-.12.1-.57,0-1.14,0-1.7,0-.18,0-.18-.22,0-.23l.2,0,.07,0h.37l1.21,0h0A.12.12,0,0,1,119.35,242.6Z"/><path class="cls-29" d="M122.57,244.35a2.35,2.35,0,0,1-.44,1.67.64.64,0,0,1-.56.21,1.3,1.3,0,0,1-.37,0,1.41,1.41,0,0,1-.86-1.14,10.9,10.9,0,0,1-.18-1.89c0-.34,0-.68,0-1s0-.58,0-.87a4.12,4.12,0,0,1,.34-2,1.3,1.3,0,0,1,.19-.22.5.5,0,0,1,.5-.26.6.6,0,0,1,.4.1.66.66,0,0,1,.22.22l0-.17c0-.08.09-.09.18-.07s.28-.08.26,0a10.49,10.49,0,0,0-.11,1.58c0,.14-.26.17-.28,0h0s-.09,0-.1-.07a2,2,0,0,1-.08-.63.14.14,0,0,1-.12-.09l0-.06c-.07-.17-.39-.64-.64-.47h0c-.06.15-.11.31-.17.47l0,.33c-.1.58-.21,1.15-.27,1.73,0,.3,0,.58,0,.87,0,.61-.06,1.22,0,1.83.06.42.29,1.23.93,1.36.28.07.43-.11.5-.33-.1,0-.22-.07-.14-.17a1.74,1.74,0,0,0,.26-.53.09.09,0,0,1,0,0l.11-.36C122.3,244.19,122.57,244.23,122.57,244.35Z"/><path class="cls-29" d="M126.35,246.22H126l-.93,0a.12.12,0,0,1,0-.24.1.1,0,0,1,.08-.07,2,2,0,0,1,.55,0,7.13,7.13,0,0,1-.44-1.61,7,7,0,0,1-.79,0,2.7,2.7,0,0,1-.49,0h-.08c-.1.55-.19,1.08-.33,1.61H124a.13.13,0,0,1,.11.2h.1a.12.12,0,1,1,0,.23,8.47,8.47,0,0,1-1.33-.07.11.11,0,0,1-.06-.19c-.06-.06,0-.18.11-.18h.32c.1-1.06.42-2.1.61-3.15s.36-2.25.55-3.37l-.53-.08a.08.08,0,0,1-.07,0,.69.69,0,0,1-.2,0,.12.12,0,0,1,0-.23,5.35,5.35,0,0,1,.88-.06.24.24,0,0,1,.12,0l.31,0c.18,0,.17.22,0,.25h0c.11,0,.09.16,0,.2a17.56,17.56,0,0,1,.37,2.59c.28,1.33.54,2.67.78,4a1.21,1.21,0,0,0,.19,0,.1.1,0,0,1,.13.08h0C126.51,246,126.53,246.22,126.35,246.22ZM125.2,244l-.07-.52v0c-.13-.6-.22-1.2-.3-1.81l-.14-1.07-.06-.34c-.13.7-.26,1.39-.41,2.09,0,.25-.1.5-.16.75l-.13.84c.33-.06.65,0,1,0a.15.15,0,0,1,.17.13Z"/><path class="cls-29" d="M129,240.29a.13.13,0,0,1-.23,0,.07.07,0,0,1,0-.06v0a8,8,0,0,1,0-1h-.2c-.29,0-.58,0-.86,0a3.77,3.77,0,0,1,0,.58v.86c0,.59,0,1.19.06,1.79l.12,0a.17.17,0,0,1,.08-.06,1.65,1.65,0,0,1,.5,0,6,6,0,0,0,0-.74c0-.15.27-.15.27,0v.18a.07.07,0,0,1,0,.08c0,.19,0,.37,0,.55a5.79,5.79,0,0,0,0,.93c0,.07-.05.1-.12.1,0,.15-.26.15-.26,0a5.11,5.11,0,0,1,0-.78,1.06,1.06,0,0,1-.5,0h-.16v0a13.83,13.83,0,0,1,0,2.73v.1a.1.1,0,0,1,0,.12v0h.92a.13.13,0,0,1,.13.13l.07,0a.12.12,0,0,1,0,.24,8.25,8.25,0,0,1-1.12,0c-.23,0-.46,0-.68,0s-.12,0-.14-.12a.11.11,0,0,1,.06-.19l.48-.06v-.52l-.08-.36a5.35,5.35,0,0,1-.06-.79c0-.53,0-1.07,0-1.61s0-1.08,0-1.61l0-.08a10,10,0,0,1-.09-1.08,2,2,0,0,1,0-.51h-.26a.12.12,0,1,1,0-.24h0a.14.14,0,0,1,.12-.08,5.69,5.69,0,0,1,1.84,0,.12.12,0,0,1,.19.08.12.12,0,0,1,0,.16A2.88,2.88,0,0,1,129,240.29Z"/><path class="cls-29" d="M132.39,246.2a.14.14,0,0,1-.13,0,3.78,3.78,0,0,0-1.11-.08c-.38,0-.74.06-1.12.06a.13.13,0,1,1,0-.25h0a.11.11,0,0,1,.13-.12h.26c0-.42,0-.84-.06-1.26a47.64,47.64,0,0,1-.13-5.21.12.12,0,0,1,.09-.11v-.1h-.06l-.35,0a.12.12,0,0,1-.13-.12c-.11-.05-.07-.22.07-.23.61,0,1.21,0,1.82,0a.11.11,0,0,1,.11.07.17.17,0,0,1,.14,0c.07,0,.16,0,.17.08a3.57,3.57,0,0,1-.08,1.34c0,.14-.25.09-.27,0v0a1.75,1.75,0,0,1-.09-.81l0-.17a3,3,0,0,1-.73,0l-.32-.05c0,.11,0,.23,0,.34a8.47,8.47,0,0,1,.21,2.75.14.14,0,0,1,.09,0l0,0h.26s.05,0,.09,0l.12,0a4.27,4.27,0,0,1,.07-.71c0-.1.18-.11.24,0s.19.09.12.17a.56.56,0,0,0,0,.12,6,6,0,0,1,.09,1.4.13.13,0,0,1-.14.12l0,.12c0,.15-.24.15-.27,0,0-.31-.07-.6-.08-.9a1.17,1.17,0,0,1-.46,0h-.15c0,1,0,2,0,3.06a.13.13,0,0,1-.07.1v0l.18,0a2.18,2.18,0,0,1,1-.08c0-.32.05-.64.06-1a.13.13,0,0,1,.26,0,.07.07,0,0,1,.06.07,1.68,1.68,0,0,1,0,.18,4.61,4.61,0,0,1,.13,1.11A.09.09,0,0,1,132.39,246.2Zm-.62-8.5-.19.2c-.12.12-.25.22-.38.33l-.12.11-.05,0c-.12.09-.3-.07-.18-.18l0,0a0,0,0,0,1,0,0,1,1,0,0,1,.3-.45,1.77,1.77,0,0,1,.17-.2l.06-.05a.18.18,0,0,1,.24,0A.14.14,0,0,1,131.77,237.7Z"/></g></g></svg>