<svg xmlns="http://www.w3.org/2000/svg" xmlns:xlink="http://www.w3.org/1999/xlink" viewBox="0 0 255.12 340.16"><defs><style>.cls-1{fill:#ddd3ce;}.cls-2{fill:gray;opacity:0.42;}.cls-15,.cls-3{fill:#fff;}.cls-13,.cls-14,.cls-4,.cls-9{fill:#9bd3c9;}.cls-10,.cls-13,.cls-4,.cls-6{stroke:#f06859;stroke-miterlimit:10;}.cls-13,.cls-4{stroke-width:3px;}.cls-5,.cls-8{fill:#f06859;}.cls-10,.cls-6{fill:none;}.cls-10,.cls-11,.cls-12,.cls-13,.cls-14,.cls-15,.cls-16,.cls-18,.cls-6,.cls-7,.cls-8{fill-rule:evenodd;}.cls-7{fill:url(#linear-gradient);}.cls-10{stroke-width:0.75px;}.cls-11{fill:url(#linear-gradient-2);}.cls-12{fill:url(#linear-gradient-3);}.cls-16{fill:url(#New_Gradient_Swatch_1);}.cls-17{fill:url(#New_Gradient_Swatch_1-2);}.cls-18{fill:url(#linear-gradient-4);}</style><linearGradient id="linear-gradient" x1="164.55" y1="75.4" x2="228.59" y2="78.76" gradientUnits="userSpaceOnUse"><stop offset="0" stop-color="#fff"/><stop offset="0.27" stop-color="#fdfdfc"/><stop offset="0.43" stop-color="#f6f5f4"/><stop offset="0.57" stop-color="#ebe8e6"/><stop offset="0.68" stop-color="#dbd5d2"/><stop offset="0.79" stop-color="#c6bdb8"/><stop offset="0.8" stop-color="#c4bbb6"/><stop offset="0.85" stop-color="#cfc8c5"/><stop offset="0.96" stop-color="#eeeceb"/><stop offset="1" stop-color="#f9f9f9"/></linearGradient><linearGradient id="linear-gradient-2" x1="27.71" y1="41.83" x2="109.03" y2="182.69" gradientUnits="userSpaceOnUse"><stop offset="0" stop-color="#fff"/><stop offset="0.42" stop-color="#fdfdfd"/><stop offset="0.56" stop-color="#f8f8f7"/><stop offset="0.65" stop-color="#f5f5f3"/><stop offset="0.73" stop-color="#ebeae8"/><stop offset="0.82" stop-color="#dad8d6"/><stop offset="0.89" stop-color="#c3bfbc"/><stop offset="0.97" stop-color="#a59f9b"/><stop offset="0.97" stop-color="#a39c98"/></linearGradient><linearGradient id="linear-gradient-3" x1="56.53" y1="18.59" x2="57.3" y2="33.42" gradientTransform="translate(9.12 22.28) rotate(-1.34)" gradientUnits="userSpaceOnUse"><stop offset="0" stop-color="#fff"/><stop offset="0.42" stop-color="#fdfdfd"/><stop offset="0.56" stop-color="#f8f8f7"/><stop offset="0.65" stop-color="#f5f5f3"/><stop offset="0.74" stop-color="#ebeae8"/><stop offset="0.82" stop-color="#dbd8d6"/><stop offset="0.9" stop-color="#c4bfbc"/><stop offset="0.97" stop-color="#a8a19d"/></linearGradient><linearGradient id="New_Gradient_Swatch_1" x1="163.86" y1="31.89" x2="233.71" y2="31.89" gradientUnits="userSpaceOnUse"><stop offset="0" stop-color="#9bd3c9"/><stop offset="0.09" stop-color="#a0d5cc"/><stop offset="0.2" stop-color="#afdcd4"/><stop offset="0.33" stop-color="#c8e7e1"/><stop offset="0.45" stop-color="#eaf6f4"/><stop offset="0.52" stop-color="#fff"/><stop offset="0.54" stop-color="#f2f5f5"/><stop offset="0.61" stop-color="#c4d4d1"/><stop offset="0.68" stop-color="#9db8b3"/><stop offset="0.75" stop-color="#7fa39c"/><stop offset="0.82" stop-color="#6a938b"/><stop offset="0.89" stop-color="#5d8a81"/><stop offset="0.95" stop-color="#59877e"/></linearGradient><linearGradient id="New_Gradient_Swatch_1-2" x1="169.66" y1="25.18" x2="227.9" y2="25.18" xlink:href="#New_Gradient_Swatch_1"/><linearGradient id="linear-gradient-4" x1="24.21" y1="120.48" x2="39.43" y2="121.28" gradientUnits="userSpaceOnUse"><stop offset="0" stop-color="#fff"/><stop offset="0.15" stop-color="#fdfdfd"/><stop offset="0.2" stop-color="#f8f8f7"/><stop offset="0.33" stop-color="#e6e5e3"/><stop offset="0.61" stop-color="#b6b3b0"/><stop offset="0.81" stop-color="#928c88"/></linearGradient></defs><g id="Layer_2" data-name="Layer 2"><g id="Layer_1-2" data-name="Layer 1"><rect class="cls-1" width="255.12" height="340.16"/><rect class="cls-2" x="169.41" y="147.26" width="63.11" height="63.11" rx="12.53"/><rect class="cls-3" x="166.67" y="144.91" width="63.11" height="63.11" rx="12.53"/><rect class="cls-2" x="22.82" y="224.97" width="165.96" height="99.78" rx="3.91"/><rect class="cls-4" x="18.94" y="220.32" width="165.96" height="99.78" rx="3.91"/><rect class="cls-3" x="98.12" y="256.52" width="50.1" height="1.12"/><rect class="cls-3" x="98.12" y="262.68" width="50.1" height="1.12"/><rect class="cls-3" x="98.12" y="268.85" width="50.1" height="1.12"/><rect class="cls-3" x="98.12" y="275.01" width="50.1" height="1.12"/><path class="cls-5" d="M101.87,303.22h-.33l-1,0a.13.13,0,0,1,0-.26.11.11,0,0,1,.08-.09,1.76,1.76,0,0,1,.56,0,9.79,9.79,0,0,1-.45-1.85,5.31,5.31,0,0,1-.8,0,2.74,2.74,0,0,1-.5,0h-.09c-.1.62-.2,1.23-.34,1.84h.43c.12,0,.15.14.11.22h.09a.14.14,0,0,1,0,.27,7.65,7.65,0,0,1-1.35-.08c-.11,0-.12-.14-.06-.21a.14.14,0,0,1,.11-.21h.33c.09-1.22.42-2.4.62-3.61s.36-2.58.56-3.86l-.54-.08a.09.09,0,0,1-.07-.05.86.86,0,0,1-.21,0,.14.14,0,0,1,0-.26,4.71,4.71,0,0,1,.91-.07h.12l.32,0a.14.14,0,0,1,0,.28h-.05c.11,0,.08.18,0,.23a26.92,26.92,0,0,1,.38,3c.28,1.53.54,3.06.79,4.58a1.21,1.21,0,0,0,.19,0,.11.11,0,0,1,.14.1h.05C102,303,102.05,303.22,101.87,303.22Zm-1.17-2.55-.08-.6v0c-.14-.69-.22-1.37-.31-2.07l-.14-1.23-.06-.39c-.14.81-.27,1.6-.42,2.39-.05.3-.11.58-.17.87l-.13.95c.34-.06.67,0,1-.05a.16.16,0,0,1,.17.15Z"/><path class="cls-5" d="M105.53,303.1c-.61.36-.83-.1-.9-.67a4.23,4.23,0,0,1-.15-1.07c0-.46,0-.93-.06-1.4a1.2,1.2,0,0,0-.23-.66,1.24,1.24,0,0,0-.38-.28,1.71,1.71,0,0,0-.32,0l-.18.06c0,.9,0,1.82-.09,2.73,0,.33,0,.66,0,1l.64-.05c.12,0,.16.12.11.2a.14.14,0,0,1,0,.27,9.22,9.22,0,0,0-1.39,0c-.15,0-.23-.19-.11-.25a.12.12,0,0,1,.12-.12h.39c0-.7,0-1.39,0-2.09s0-1.33,0-2a19.78,19.78,0,0,0,0-3.61h-.33c-.07,0-.12-.08-.13-.14a.14.14,0,0,1,.08-.25c.67,0,1.47-.16,2,.31a1.89,1.89,0,0,1,.47.69,2,2,0,0,1,.28,1,2.29,2.29,0,0,1-.53,1.86,2.2,2.2,0,0,1-.43.27.83.83,0,0,1,.16.12.94.94,0,0,1,.27.29,2.75,2.75,0,0,1,.33,1.37c0,.37-.25,1.56,0,2a.42.42,0,0,0,.33.19h0A.15.15,0,0,1,105.53,303.1Zm-.82-6.46a1.59,1.59,0,0,0-.74-1.29,2.09,2.09,0,0,0-.7-.2,9.43,9.43,0,0,1,0,2.6l0,.93h0a2.18,2.18,0,0,0,1.1-.53A1.72,1.72,0,0,0,104.71,296.64Z"/><path class="cls-5" d="M109.13,296.23a.2.2,0,0,1,0,.11.14.14,0,0,1-.26,0,4.35,4.35,0,0,1-.12-1.13c-.37,0-.72,0-1.08,0a4.17,4.17,0,0,1,.1.79,7.4,7.4,0,0,1,0,1c0,.54,0,1.07,0,1.61,0,1.34.15,2.69,0,4,0,0,0,.07,0,.08v0h.55a.14.14,0,0,1,.12.2.13.13,0,0,1-.08.24h-.65c-.24,0-.47,0-.72,0a.15.15,0,0,1-.12-.07h-.06c-.16,0-.12-.26,0-.27s0-.11.13-.11h.55l0-.33a10.39,10.39,0,0,1-.08-3.43c0-1,0-2.06,0-3.1a2.61,2.61,0,0,1,0-.39l0,0v-.31l-1,0h0c0,.4,0,.8,0,1.21a.16.16,0,0,1-.22.12c-.06,0-.12,0-.13-.1a4.71,4.71,0,0,1,0-.75c0-.25-.06-.49-.07-.74a.12.12,0,0,1,.15-.12.17.17,0,0,1,.19,0l.17,0H109a.13.13,0,0,1,.2.07A8.19,8.19,0,0,1,109.13,296.23Z"/><path class="cls-5" d="M110.9,299.08h0l-.06,0a.12.12,0,0,1-.12.12c-.59,0-1.17,0-1.75,0a.14.14,0,1,1,0-.27l.21,0,.07,0h.38l1.23-.06h0A.14.14,0,0,1,110.9,299.08Z"/><path class="cls-5" d="M114.2,301.08a2.93,2.93,0,0,1-.45,1.91.62.62,0,0,1-.58.24,1.18,1.18,0,0,1-.38-.06,1.55,1.55,0,0,1-.87-1.3,14.23,14.23,0,0,1-.19-2.17c0-.39,0-.78,0-1.17s0-.67,0-1a5.11,5.11,0,0,1,.35-2.3,1,1,0,0,1,.2-.26.48.48,0,0,1,.51-.29.51.51,0,0,1,.4.11.71.71,0,0,1,.24.25l0-.19c0-.1.1-.11.19-.09s.29-.08.26.06a13.74,13.74,0,0,0-.11,1.81c0,.16-.27.19-.29,0v0a.12.12,0,0,1-.1-.08,2.49,2.49,0,0,1-.08-.72.15.15,0,0,1-.12-.1l0-.07c-.07-.2-.4-.74-.66-.54h0c-.06.17-.11.36-.17.54l0,.38c-.1.66-.2,1.32-.27,2,0,.35,0,.68,0,1,0,.69-.06,1.39,0,2.08.06.49.29,1.42,1,1.57.28.07.44-.13.51-.38-.11,0-.23-.09-.15-.2a1.84,1.84,0,0,0,.27-.61.09.09,0,0,1,0-.05l.11-.41C113.92,300.9,114.2,300.94,114.2,301.08Z"/><path class="cls-5" d="M118.07,303.22h-.33l-.95,0a.13.13,0,0,1-.05-.26.12.12,0,0,1,.08-.09,1.82,1.82,0,0,1,.57,0,9.82,9.82,0,0,1-.46-1.85,5.38,5.38,0,0,1-.8,0,2.81,2.81,0,0,1-.5,0h-.09c-.09.62-.19,1.23-.34,1.84h.43a.14.14,0,0,1,.11.22h.1a.14.14,0,0,1,0,.27,7.71,7.71,0,0,1-1.36-.08c-.11,0-.12-.14-.06-.21a.14.14,0,0,1,.11-.21h.33c.1-1.22.43-2.4.62-3.61s.37-2.58.56-3.86l-.53-.08s-.06,0-.08-.05a.71.71,0,0,1-.2,0,.13.13,0,0,1,0-.26,4.61,4.61,0,0,1,.9-.07h.12l.32,0a.14.14,0,0,1,0,.28h0c.11,0,.09.18,0,.23a24.7,24.7,0,0,1,.38,3c.28,1.53.55,3.06.79,4.58a1.34,1.34,0,0,0,.2,0,.11.11,0,0,1,.13.1h0C118.24,303,118.25,303.22,118.07,303.22Zm-1.17-2.55-.08-.6v0c-.13-.69-.22-1.37-.3-2.07l-.15-1.23-.06-.39c-.13.81-.27,1.6-.42,2.39a8.36,8.36,0,0,1-.17.87l-.13.95c.34-.06.67,0,1-.05a.16.16,0,0,1,.17.15Z"/><path class="cls-5" d="M120.81,296.43a.13.13,0,0,1-.24.05s0,0,0-.07v0c0-.38,0-.74,0-1.12h-.21c-.29,0-.58,0-.87,0,0,.22,0,.46,0,.67v1c0,.68,0,1.37.06,2.05a.24.24,0,0,1,.12,0s0-.05.09-.07a1.45,1.45,0,0,1,.51,0c0-.28,0-.56,0-.86s.28-.17.28,0v.21a.12.12,0,0,1,0,.1c0,.21,0,.42,0,.62a7.46,7.46,0,0,0,0,1.06.11.11,0,0,1-.12.13.14.14,0,0,1-.27,0,8.75,8.75,0,0,1,0-.89,1.1,1.1,0,0,1-.51,0h-.16v0a17.11,17.11,0,0,1,0,3.12l0,.12a.16.16,0,0,1,0,.14v0c.3,0,.62,0,.94,0,.1,0,.13.08.13.15l.08,0c.14,0,.11.25,0,.26a7.33,7.33,0,0,1-1.15,0c-.23,0-.46.05-.69.05s-.13-.06-.14-.14a.13.13,0,0,1,.06-.22,4.13,4.13,0,0,1,.49-.07v-.59l-.09-.41c0-.31-.06-.61-.06-.91,0-.61,0-1.22,0-1.84s0-1.23.05-1.84v-.1c0-.41-.07-.82-.08-1.23a3.28,3.28,0,0,1,0-.59h-.27a.13.13,0,1,1,0-.27h0a.14.14,0,0,1,.13-.1,5.17,5.17,0,0,1,1.88,0,.12.12,0,0,1,.19.09s0,.12,0,.18A3.72,3.72,0,0,1,120.81,296.43Z"/><path class="cls-5" d="M124.26,303.2a.11.11,0,0,1-.13,0,3.67,3.67,0,0,0-1.14-.09c-.39,0-.76.07-1.15.07-.17,0-.17-.27,0-.28h0a.13.13,0,0,1,.13-.15h.27c0-.47,0-1-.06-1.44a56.16,56.16,0,0,1-.13-6,.14.14,0,0,1,.08-.14v-.11h-.06l-.35,0a.13.13,0,0,1-.14-.13.15.15,0,0,1,.08-.27h1.85a.14.14,0,0,1,.13.09.1.1,0,0,1,.13,0c.07,0,.17,0,.18.08a4.7,4.7,0,0,1-.08,1.54c0,.16-.26.1-.28,0v-.06a2.1,2.1,0,0,1-.09-.93l0-.19a2.36,2.36,0,0,1-.75,0l-.33-.05c0,.12,0,.26,0,.39a11,11,0,0,1,.22,3.14.11.11,0,0,1,.09,0l0,0H123a.15.15,0,0,1,.1,0l.12,0a7.38,7.38,0,0,1,.07-.81.14.14,0,0,1,.25,0c.1,0,.19.09.12.19a.57.57,0,0,0,0,.14,7.74,7.74,0,0,1,.09,1.6.13.13,0,0,1-.14.13l0,.15c0,.17-.25.17-.27,0,0-.36-.07-.7-.09-1a1.05,1.05,0,0,1-.47,0h-.15c0,1.17,0,2.34,0,3.5a.13.13,0,0,1-.07.12v0l.19,0a2,2,0,0,1,1.05-.1,8.11,8.11,0,0,1,.06-1.1.14.14,0,0,1,.27,0,.1.1,0,0,1,.06.09c0,.07,0,.15,0,.21a5.32,5.32,0,0,1,.13,1.27A.1.1,0,0,1,124.26,303.2Zm-.63-9.73-.2.23c-.12.13-.26.26-.39.38l-.12.12s0,0,0,.05-.31-.09-.18-.21l0,0s0,0,0,0a1.09,1.09,0,0,1,.31-.51c.06-.08.11-.16.17-.23a.22.22,0,0,1,.06-.05.26.26,0,0,1,.37.26Z"/><path class="cls-5" d="M184.42,202.74h-1a.11.11,0,0,1,0-.21.1.1,0,0,1,.07-.07,2.08,2.08,0,0,1,.43,0,7.46,7.46,0,0,1-.35-1.41,4.33,4.33,0,0,1-.62,0,2.43,2.43,0,0,1-.38,0h-.07c-.07.48-.15.95-.26,1.42h.33a.11.11,0,0,1,.08.17h.08a.1.1,0,0,1,0,.2,6.05,6.05,0,0,1-1-.06c-.09,0-.09-.1,0-.16a.11.11,0,0,1,.09-.16H182c.07-.94.33-1.85.48-2.77s.28-2,.43-3l-.41-.07a.07.07,0,0,1-.06,0l-.16,0a.11.11,0,0,1,0-.2,3.28,3.28,0,0,1,.69-.06h.1l.24,0a.11.11,0,0,1,0,.22h0c.09,0,.07.14,0,.17a17.55,17.55,0,0,1,.29,2.28c.22,1.17.43,2.34.61,3.51a.75.75,0,0,0,.15,0,.09.09,0,0,1,.11.08h0C184.55,202.54,184.56,202.74,184.42,202.74Zm-.9-2-.05-.46v0c-.1-.53-.17-1.05-.24-1.58l-.11-.95-.05-.3c-.1.62-.2,1.23-.31,1.84,0,.22-.09.44-.13.66l-.11.73c.26-.05.52,0,.78,0a.12.12,0,0,1,.13.12Z"/><path class="cls-5" d="M187.23,202.65c-.47.28-.64-.07-.69-.51a3.09,3.09,0,0,1-.11-.82c0-.36,0-.72-.05-1.08a.89.89,0,0,0-.18-.5.86.86,0,0,0-.29-.22,1,1,0,0,0-.24,0l-.14.05c0,.69,0,1.4-.07,2.1,0,.25,0,.5,0,.77l.49,0c.09,0,.12.09.08.16s.11.2,0,.2a6.39,6.39,0,0,0-1.07,0c-.11,0-.18-.14-.09-.19a.09.09,0,0,1,.1-.1h.3c0-.53,0-1.06,0-1.6s0-1,0-1.52a15.19,15.19,0,0,0,0-2.78h-.25c-.06,0-.09-.05-.1-.1s-.05-.2.06-.2c.52,0,1.13-.12,1.56.25a1.4,1.4,0,0,1,.36.52,1.67,1.67,0,0,1,.22.75,1.79,1.79,0,0,1-.41,1.43,2.9,2.9,0,0,1-.33.2l.12.1a.89.89,0,0,1,.21.22,2.12,2.12,0,0,1,.25,1.05c0,.28-.19,1.2,0,1.55a.3.3,0,0,0,.25.15h0C187.26,202.44,187.33,202.59,187.23,202.65Zm-.63-5a1.2,1.2,0,0,0-.57-1,1.61,1.61,0,0,0-.53-.15,7.06,7.06,0,0,1,0,2l0,.71h0a1.69,1.69,0,0,0,.84-.4A1.34,1.34,0,0,0,186.6,197.69Z"/><path class="cls-5" d="M190,197.38a.12.12,0,0,1-.22.06,3.62,3.62,0,0,1-.09-.87h-.83a3.19,3.19,0,0,1,.08.61,7.2,7.2,0,0,1,0,.8c0,.42,0,.83,0,1.24,0,1,.12,2.06,0,3.09a.08.08,0,0,1,0,.07v0h.42a.11.11,0,0,1,.09.15.1.1,0,0,1-.06.18h-.5c-.19,0-.36,0-.55,0a.11.11,0,0,1-.1-.05h0c-.12,0-.1-.2,0-.21a.09.09,0,0,1,.09-.08h.42l0-.26a8,8,0,0,1-.05-2.63c0-.78,0-1.58,0-2.38a2.91,2.91,0,0,1,0-.3v-.26l-.73,0h0c0,.31,0,.62,0,.93a.12.12,0,0,1-.17.09.1.1,0,0,1-.1-.07,3.82,3.82,0,0,1,0-.58,5,5,0,0,0-.06-.56.1.1,0,0,1,.13-.1.12.12,0,0,1,.14,0l.13,0h2a.09.09,0,0,1,.15.06A5.48,5.48,0,0,1,190,197.38Z"/><path class="cls-5" d="M191.35,199.57a0,0,0,0,0,0,0h0a.09.09,0,0,1-.1.09c-.45,0-.9,0-1.34,0a.1.1,0,1,1,0-.2l.16,0,.06,0h.29l.94,0h0A.11.11,0,0,1,191.35,199.57Z"/><path class="cls-5" d="M193.88,201.1a2.24,2.24,0,0,1-.35,1.47.46.46,0,0,1-.44.18,1.17,1.17,0,0,1-.29,0,1.21,1.21,0,0,1-.67-1,11.36,11.36,0,0,1-.14-1.65q0-.45,0-.9l0-.77a3.8,3.8,0,0,1,.28-1.77.7.7,0,0,1,.15-.2.36.36,0,0,1,.39-.22.45.45,0,0,1,.31.08.68.68,0,0,1,.18.2l0-.15a.1.1,0,0,1,.14-.07c.07-.08.23-.06.21.05a9.2,9.2,0,0,0-.08,1.38c0,.13-.21.16-.23,0h0s-.06,0-.07-.06a1.73,1.73,0,0,1-.07-.55.12.12,0,0,1-.09-.08l0-.06c-.06-.14-.31-.56-.51-.41h0c0,.13-.08.27-.13.41l0,.29c-.07.51-.16,1-.2,1.52,0,.26,0,.52,0,.77,0,.53,0,1.07,0,1.6s.23,1.09.74,1.2c.21.06.33-.09.39-.29-.09,0-.18-.06-.11-.15a1.48,1.48,0,0,0,.2-.47s0,0,0,0l.09-.31C193.66,201,193.88,201,193.88,201.1Z"/><path class="cls-5" d="M196.85,202.74h-1a.11.11,0,0,1,0-.21.11.11,0,0,1,.06-.07,2.08,2.08,0,0,1,.43,0A7.44,7.44,0,0,1,196,201a4.28,4.28,0,0,1-.62,0,2.43,2.43,0,0,1-.38,0h-.07c-.08.48-.15.95-.26,1.42H195a.11.11,0,0,1,.08.17h.07a.1.1,0,1,1,0,.2,6.11,6.11,0,0,1-1-.06c-.08,0-.09-.1,0-.16a.1.1,0,0,1,.08-.16h.25c.08-.94.33-1.85.48-2.77s.28-2,.43-3l-.41-.07a0,0,0,0,1,0,0l-.16,0a.1.1,0,0,1,0-.2,3.22,3.22,0,0,1,.69-.06h.09l.25,0a.11.11,0,0,1,0,.22h0c.08,0,.06.14,0,.17a19.46,19.46,0,0,1,.29,2.28c.21,1.17.42,2.34.61,3.51a.75.75,0,0,0,.15,0c.06,0,.09,0,.1.08h0C197,202.54,197,202.74,196.85,202.74Zm-.9-2-.06-.46v0c-.1-.53-.17-1.05-.23-1.58l-.11-.95,0-.3c-.1.62-.21,1.23-.32,1.84,0,.22-.08.44-.13.66l-.1.73c.26-.05.51,0,.77,0a.13.13,0,0,1,.14.12Z"/><path class="cls-5" d="M199,197.54a.1.1,0,0,1-.18,0,.05.05,0,0,1,0,0v0a8.23,8.23,0,0,1,0-.86h-.83a4.53,4.53,0,0,1,0,.52v.75c0,.52,0,1.05.05,1.57l.09,0a.13.13,0,0,1,.07-.05,1,1,0,0,1,.39,0c0-.22,0-.43,0-.66s.21-.13.21,0v.16a.08.08,0,0,1,0,.08c0,.16,0,.31,0,.47a5.57,5.57,0,0,0,0,.82c0,.06,0,.09-.09.09a.11.11,0,0,1-.21,0,5.15,5.15,0,0,1,0-.68.74.74,0,0,1-.39,0h-.13v0a12.72,12.72,0,0,1,0,2.39v.1a.11.11,0,0,1,0,.1v0h.72a.1.1,0,0,1,.1.11l.06,0c.11,0,.08.2,0,.21a6.42,6.42,0,0,1-.88,0,4.9,4.9,0,0,1-.54,0c-.06,0-.09,0-.1-.11a.1.1,0,0,1,.05-.17l.37,0V202l-.06-.32a5.6,5.6,0,0,1-.05-.69c0-.47,0-.94,0-1.42s0-.94,0-1.41V198c0-.32-.06-.63-.07-.94a2,2,0,0,1,0-.45h-.2a.11.11,0,0,1,0-.21h0a.08.08,0,0,1,.09-.07,3.88,3.88,0,0,1,1.44,0,.09.09,0,0,1,.15.06.12.12,0,0,1,0,.14A2.81,2.81,0,0,1,199,197.54Z"/><path class="cls-5" d="M201.6,202.73a.12.12,0,0,1-.11,0,2.85,2.85,0,0,0-.87-.07,8.65,8.65,0,0,1-.88.05c-.13,0-.13-.2,0-.21h0a.09.09,0,0,1,.1-.11h.21c0-.37,0-.73,0-1.11a43.51,43.51,0,0,1-.1-4.57.1.1,0,0,1,.06-.1v-.09h0l-.28,0a.09.09,0,0,1-.1-.1.12.12,0,0,1,.06-.21h1.42a.1.1,0,0,1,.1.07.09.09,0,0,1,.1,0c.06,0,.13,0,.14.06a3.6,3.6,0,0,1-.07,1.18c0,.12-.19.08-.21,0v0a1.74,1.74,0,0,1-.07-.71l0-.15a2.69,2.69,0,0,1-.57,0l-.25,0a2.91,2.91,0,0,0,0,.3,8.1,8.1,0,0,1,.17,2.41l.06,0,0,0h.2a.1.1,0,0,1,.07,0l.1,0c0-.2,0-.41,0-.61a.1.1,0,0,1,.19,0c.08,0,.15.07.09.15s0,.06,0,.1a6.3,6.3,0,0,1,.06,1.23.09.09,0,0,1-.1.1v.11c0,.13-.19.13-.21,0s-.05-.53-.06-.79a.91.91,0,0,1-.37,0h-.11c0,.9,0,1.79,0,2.69a.11.11,0,0,1-.06.09v0l.14,0a1.59,1.59,0,0,1,.81-.08,7.89,7.89,0,0,1,.05-.84.1.1,0,0,1,.2,0,.07.07,0,0,1,.05.07c0,.05,0,.11,0,.16a4.43,4.43,0,0,1,.1,1C201.65,202.69,201.63,202.72,201.6,202.73Zm-.49-7.47-.15.18c-.09.1-.2.19-.3.29l-.09.09s0,0,0,0-.24-.07-.14-.16l0,0h0a.83.83,0,0,1,.24-.39l.13-.18.05,0a.13.13,0,0,1,.18,0A.12.12,0,0,1,201.11,195.26Z"/><path class="cls-5" d="M95.36,271.18a6.08,6.08,0,0,0,1.52-.19,4,4,0,0,0,1.19-.54,2.58,2.58,0,0,0,.76-.79,2,2,0,0,0,.27-1,2.25,2.25,0,0,0-.33-1.16,3,3,0,0,0-1-1,5.35,5.35,0,0,0-1.56-.65,8.56,8.56,0,0,0-2.13-.24,9.34,9.34,0,0,0-2.87.4,6.86,6.86,0,0,0-2.13,1.07,4.69,4.69,0,0,0-1.33,1.53,3.71,3.71,0,0,0-.46,1.77,4.52,4.52,0,0,0,.57,2.21,5.55,5.55,0,0,0,1.71,1.82,9.19,9.19,0,0,0,2.84,1.25,14.8,14.8,0,0,0,3.92.46q4.08,0,6-1.54a5.35,5.35,0,0,0,1.93-4.46,17.57,17.57,0,0,0-.16-2.42c-.11-.79-.23-1.58-.36-2.35l-1.64.29a10.26,10.26,0,0,1-1.67.13,1.71,1.71,0,0,1-.91-.2.62.62,0,0,1-.32-.53.46.46,0,0,1,.29-.48,2.15,2.15,0,0,0,.5.12,4.83,4.83,0,0,0,.67,0,10.22,10.22,0,0,0,1.45-.11c.48-.07,1-.16,1.45-.27-.15-.79-.28-1.57-.39-2.32a16.79,16.79,0,0,1-.16-2.21,4.78,4.78,0,0,1,.34-2,1,1,0,0,1,.89-.65.6.6,0,0,1,.42.16.65.65,0,0,1,.23.44,1.53,1.53,0,0,0-.5.8,4.39,4.39,0,0,0-.19,1.4,16.22,16.22,0,0,0,.14,2.1c.1.69.21,1.4.34,2.13.27,0,.54-.08.81-.1a7.32,7.32,0,0,1,.81,0,3.26,3.26,0,0,1,1.47.24.68.68,0,0,1,.42.58.64.64,0,0,1-.13.4.52.52,0,0,1-.31.23,1.43,1.43,0,0,0-.68-.26,6.43,6.43,0,0,0-1.14-.09l-.53,0-.53.06c.14.81.27,1.64.38,2.48a21.08,21.08,0,0,1,.16,2.7,6.49,6.49,0,0,1-.62,2.88,5.75,5.75,0,0,1-1.78,2.15,8.52,8.52,0,0,1-2.86,1.34,14.47,14.47,0,0,1-3.83.46,16,16,0,0,1-4.36-.54,10.83,10.83,0,0,1-3.21-1.46,6.68,6.68,0,0,1-2-2.12,5.08,5.08,0,0,1-.68-2.53,4.64,4.64,0,0,1,.56-2.17,6.19,6.19,0,0,1,1.62-1.91,9,9,0,0,1,2.56-1.35,10.5,10.5,0,0,1,3.39-.51,10,10,0,0,1,2.49.29,5.91,5.91,0,0,1,1.88.83A3.75,3.75,0,0,1,99.8,267a3.14,3.14,0,0,1,.41,1.57,2.81,2.81,0,0,1-.37,1.42,3.57,3.57,0,0,1-1.06,1.14,5.33,5.33,0,0,1-1.61.76,7.17,7.17,0,0,1-2.08.28,8.93,8.93,0,0,1-1.44-.12,6,6,0,0,1-1.32-.35,3.38,3.38,0,0,1-1-.53.87.87,0,0,1-.38-.67.63.63,0,0,1,.25-.5.85.85,0,0,1,.7-.14.73.73,0,0,0,.34.5,3.41,3.41,0,0,0,.81.42,5.3,5.3,0,0,0,1.08.29A7.83,7.83,0,0,0,95.36,271.18Zm14.1-17.71c.44,0,.66.21.66.62a1.2,1.2,0,0,1-.28.74,2.25,2.25,0,0,1-.85.65,6.17,6.17,0,0,1-1.45.47,9.86,9.86,0,0,1-2,.18,17.57,17.57,0,0,1-3.14-.27c-1-.18-2-.38-2.92-.6s-1.9-.41-2.84-.59a15.44,15.44,0,0,0-2.91-.27,9.7,9.7,0,0,0-2.73.33,5.25,5.25,0,0,0-1.76.86,3.24,3.24,0,0,0-.94,1.19,3.38,3.38,0,0,0-.27,1.28,2.78,2.78,0,0,0,.36,1.4,3.25,3.25,0,0,0,1,1.09,4.91,4.91,0,0,0,1.51.71,7.51,7.51,0,0,0,2,.25,7.6,7.6,0,0,0,2.34-.35,5,5,0,0,0,1.79-.94.41.41,0,0,1,.38.44.66.66,0,0,1-.2.45,3.08,3.08,0,0,1-.63.48,7.47,7.47,0,0,1-1.65.68,7.72,7.72,0,0,1-2.21.3,8.1,8.1,0,0,1-2.4-.33,5.66,5.66,0,0,1-1.82-.92,4.16,4.16,0,0,1-1.16-1.4,3.89,3.89,0,0,1-.41-1.76,4.33,4.33,0,0,1,.39-1.78,4.16,4.16,0,0,1,1.22-1.56,6.3,6.3,0,0,1,2.15-1.11,10.66,10.66,0,0,1,3.2-.42,16.42,16.42,0,0,1,3,.27c1,.18,1.9.38,2.84.6s1.87.43,2.83.61a16.09,16.09,0,0,0,3,.27,6.84,6.84,0,0,0,2.59-.44A2.41,2.41,0,0,0,109.46,253.47Z"/><path class="cls-5" d="M114.27,268.8a2,2,0,0,1-.13.88.5.5,0,0,1-.35.29,5.63,5.63,0,0,1-.3,1.73c.13,1.2.49,1.79,1.09,1.79a1,1,0,0,0,.6-.23,2.6,2.6,0,0,0,.62-.79,13.08,13.08,0,0,0,.71-1.51c.25-.64.54-1.43.85-2.4.37,0,.5.25.38.74a25.79,25.79,0,0,1-.8,2.67,9.85,9.85,0,0,1-.79,1.7,2.64,2.64,0,0,1-.84.88,1.75,1.75,0,0,1-.9.25c-.8,0-1.37-.49-1.69-1.47a4.77,4.77,0,0,1-1.11,1.28,2.2,2.2,0,0,1-1.39.52,1.87,1.87,0,0,1-1.55-.89,4.58,4.58,0,0,1-.62-2.62,7.73,7.73,0,0,1,.3-2.14,7.16,7.16,0,0,1,.83-1.86,4.55,4.55,0,0,1,1.23-1.31,2.54,2.54,0,0,1,1.51-.49,2.25,2.25,0,0,1,1,.23,2.15,2.15,0,0,1,.74.63,2.85,2.85,0,0,1,.43.95A4.37,4.37,0,0,1,114.27,268.8Zm-.88,0a2.22,2.22,0,0,0-.51-1.32,1.44,1.44,0,0,0-1.1-.45,1.81,1.81,0,0,0-1.1.36,3.27,3.27,0,0,0-.85.95,5.16,5.16,0,0,0-.55,1.35,5.88,5.88,0,0,0-.2,1.57,3.75,3.75,0,0,0,.41,1.95,1.18,1.18,0,0,0,1,.69,1.53,1.53,0,0,0,1-.51,4.42,4.42,0,0,0,.92-1.27c0-.12,0-.24,0-.38s0-.27,0-.42a5.71,5.71,0,0,1,.27-1.95C112.89,268.86,113.12,268.67,113.39,268.76Z"/><rect class="cls-3" x="98.12" y="250.36" width="50.1" height="1.12"/><path class="cls-6" d="M128.66,246.5v10.63a5.77,5.77,0,0,0,2.89-4.44c0-1.63-1.39-2.39-2.84-1.24"/><path class="cls-6" d="M132.37,258.77V269.4a5.77,5.77,0,0,0,2.89-4.44c0-1.63-1.39-2.39-2.84-1.24"/><path class="cls-6" d="M122.83,257v10.63a5.76,5.76,0,0,0,2.9-4.44c0-1.64-1.39-2.39-2.85-1.24"/><path class="cls-6" d="M138,250.72v10.63a5.76,5.76,0,0,0,2.9-4.44c0-1.63-1.39-2.39-2.84-1.24"/><polygon class="cls-7" points="166.67 34.81 230.89 34.81 222 120.06 175.57 120.06 166.67 34.81"/><path class="cls-8" d="M155.8,244.69,168,227.92a20.86,20.86,0,0,1,4.22,4.12,20.31,20.31,0,0,1,2.9,5.13Z"/><rect class="cls-9" x="181.55" y="172.87" width="38.42" height="0.86"/><rect class="cls-9" x="181.55" y="177.6" width="38.42" height="0.86"/><rect class="cls-9" x="181.55" y="182.32" width="38.42" height="0.86"/><rect class="cls-9" x="181.55" y="187.05" width="38.42" height="0.86"/><path class="cls-5" d="M179.43,184.11a4.23,4.23,0,0,0,1.16-.15,2.63,2.63,0,0,0,.91-.41,1.8,1.8,0,0,0,.59-.61,1.43,1.43,0,0,0,.21-.76,1.69,1.69,0,0,0-.25-.89,2.31,2.31,0,0,0-.75-.74,4,4,0,0,0-1.19-.5,6.26,6.26,0,0,0-1.64-.19,7.09,7.09,0,0,0-2.2.31,5.3,5.3,0,0,0-1.63.82,3.75,3.75,0,0,0-1,1.17,2.85,2.85,0,0,0-.36,1.36,3.46,3.46,0,0,0,.44,1.69,4.07,4.07,0,0,0,1.32,1.4,7.14,7.14,0,0,0,2.17,1,11.29,11.29,0,0,0,3,.36,7.32,7.32,0,0,0,4.6-1.19,4.1,4.1,0,0,0,1.49-3.42,14.13,14.13,0,0,0-.13-1.85c-.08-.61-.17-1.21-.28-1.81-.42.08-.84.16-1.25.22a7.8,7.8,0,0,1-1.28.1,1.32,1.32,0,0,1-.7-.15.46.46,0,0,1-.24-.4c0-.2.07-.32.21-.37a1.61,1.61,0,0,0,.39.09l.51,0a8.29,8.29,0,0,0,1.11-.08l1.12-.21c-.12-.61-.21-1.2-.3-1.78a12.36,12.36,0,0,1-.12-1.7,3.65,3.65,0,0,1,.26-1.57.78.78,0,0,1,.68-.5.48.48,0,0,1,.33.13.58.58,0,0,1,.17.34,1.15,1.15,0,0,0-.38.61,3.32,3.32,0,0,0-.15,1.07,12.2,12.2,0,0,0,.11,1.61c.07.53.16,1.08.26,1.63l.62-.07c.21,0,.41,0,.62,0a2.47,2.47,0,0,1,1.12.18.52.52,0,0,1,.33.45.5.5,0,0,1-.1.31.43.43,0,0,1-.24.17,1.19,1.19,0,0,0-.52-.2,5.57,5.57,0,0,0-.87-.06h-.41l-.41,0c.11.61.21,1.25.29,1.9a15.13,15.13,0,0,1,.13,2.07,5.08,5.08,0,0,1-.47,2.21,4.5,4.5,0,0,1-1.37,1.64,6.5,6.5,0,0,1-2.2,1,11,11,0,0,1-2.93.35,12.19,12.19,0,0,1-3.35-.41,8.23,8.23,0,0,1-2.46-1.12,5.09,5.09,0,0,1-1.53-1.62,3.87,3.87,0,0,1-.52-1.94,3.49,3.49,0,0,1,.43-1.67,4.61,4.61,0,0,1,1.24-1.46,6.62,6.62,0,0,1,2-1,8.07,8.07,0,0,1,2.6-.39,7.43,7.43,0,0,1,1.91.22,4.34,4.34,0,0,1,1.44.64,2.86,2.86,0,0,1,.91,1,2.4,2.4,0,0,1,.32,1.21,2.19,2.19,0,0,1-.28,1.09,2.9,2.9,0,0,1-.81.87,4.45,4.45,0,0,1-1.24.59,5.69,5.69,0,0,1-1.6.21,6.89,6.89,0,0,1-1.1-.09,4.64,4.64,0,0,1-1-.27,3.19,3.19,0,0,1-.74-.41.64.64,0,0,1-.28-.51.49.49,0,0,1,.19-.39.65.65,0,0,1,.54-.1.53.53,0,0,0,.26.38,2.39,2.39,0,0,0,.62.33,4.45,4.45,0,0,0,.82.21A5.69,5.69,0,0,0,179.43,184.11Zm10.81-13.58q.51,0,.51.48a1,1,0,0,1-.21.56,1.85,1.85,0,0,1-.66.5,4.38,4.38,0,0,1-1.11.36,7.71,7.71,0,0,1-1.54.14,13.26,13.26,0,0,1-2.41-.21c-.76-.14-1.51-.29-2.24-.46l-2.18-.45a11.61,11.61,0,0,0-2.22-.21,7.33,7.33,0,0,0-2.1.26,4,4,0,0,0-1.35.66,2.34,2.34,0,0,0-.72.91,2.54,2.54,0,0,0-.21,1,2.22,2.22,0,0,0,.27,1.08,2.57,2.57,0,0,0,.75.83,3.77,3.77,0,0,0,1.16.54,5.45,5.45,0,0,0,1.5.19,5.76,5.76,0,0,0,1.8-.26,4,4,0,0,0,1.37-.72.31.31,0,0,1,.29.34.5.5,0,0,1-.15.34,3.24,3.24,0,0,1-.48.37,6.09,6.09,0,0,1-3,.75,6.2,6.2,0,0,1-1.84-.25,4.5,4.5,0,0,1-1.4-.71,3.13,3.13,0,0,1-.88-1.08,2.9,2.9,0,0,1-.31-1.34,3.24,3.24,0,0,1,1.23-2.57,4.91,4.91,0,0,1,1.65-.84,7.93,7.93,0,0,1,2.45-.33,12.36,12.36,0,0,1,2.32.21c.74.14,1.47.29,2.18.46s1.44.33,2.17.47a12.23,12.23,0,0,0,2.3.2,5.07,5.07,0,0,0,2-.34A1.78,1.78,0,0,0,190.24,170.53Z"/><path class="cls-5" d="M193.93,182.29a1.53,1.53,0,0,1-.1.67.35.35,0,0,1-.27.22,4.09,4.09,0,0,1-.23,1.33q.15,1.38.84,1.38a.77.77,0,0,0,.46-.18,2.22,2.22,0,0,0,.48-.61,12.28,12.28,0,0,0,.54-1.16c.19-.48.41-1.1.65-1.84.29,0,.38.19.29.57a20.66,20.66,0,0,1-.61,2.05,7,7,0,0,1-.61,1.3,2.12,2.12,0,0,1-.64.68,1.33,1.33,0,0,1-.69.19c-.62,0-1-.37-1.3-1.13a3.52,3.52,0,0,1-.85,1,1.63,1.63,0,0,1-1.06.4,1.42,1.42,0,0,1-1.19-.68,3.47,3.47,0,0,1-.48-2,6.07,6.07,0,0,1,.23-1.64,5.65,5.65,0,0,1,.64-1.43,3.47,3.47,0,0,1,.94-1,2,2,0,0,1,1.16-.38,1.69,1.69,0,0,1,.8.18,1.63,1.63,0,0,1,.56.48,2.34,2.34,0,0,1,.34.73A3.71,3.71,0,0,1,193.93,182.29Zm-.68,0a1.73,1.73,0,0,0-.38-1,1.12,1.12,0,0,0-.85-.34,1.4,1.4,0,0,0-.84.27,2.42,2.42,0,0,0-.65.73,3.78,3.78,0,0,0-.43,1,4.81,4.81,0,0,0-.15,1.2,2.94,2.94,0,0,0,.31,1.5.93.93,0,0,0,.78.52,1.21,1.21,0,0,0,.82-.38,3.61,3.61,0,0,0,.7-1c0-.1,0-.2,0-.3s0-.21,0-.32a4.25,4.25,0,0,1,.21-1.49C192.88,182.33,193.05,182.18,193.25,182.26Z"/><rect class="cls-9" x="181.55" y="168.15" width="38.42" height="0.86"/><path class="cls-10" d="M205,165.18v8.16a4.41,4.41,0,0,0,2.22-3.41c0-1.25-1.06-1.83-2.18-1"/><path class="cls-10" d="M207.81,174.6v8.15a4.44,4.44,0,0,0,2.22-3.41c0-1.25-1.07-1.83-2.18-1"/><path class="cls-10" d="M200.5,173.2v8.16a4.44,4.44,0,0,0,2.22-3.41c0-1.25-1.07-1.83-2.18-.95"/><path class="cls-10" d="M212.13,168.42v8.15a4.45,4.45,0,0,0,2.22-3.4c0-1.25-1.07-1.84-2.19-.95"/><path class="cls-8" d="M181.82,162.51l10.36-14.24a18,18,0,0,1,3.59,3.49,17.74,17.74,0,0,1,2.46,4.37Z"/><polygon class="cls-11" points="122.85 174.71 35.65 186.72 26.55 42.5 104.89 44.38 122.85 174.71"/><path class="cls-12" d="M106.37,51.39l-78.44,5A67.1,67.1,0,0,0,27,42.51l77.75-1.42C105.72,43.22,106.11,47.14,106.37,51.39Z"/><path class="cls-13" d="M90.34,98.3l-32.28,2.77A3,3,0,0,1,55,98L52.66,43.48l33.61-.67,6.6,52.09A2.92,2.92,0,0,1,90.34,98.3Z"/><path class="cls-14" d="M90.33,98.2,58.06,101a3,3,0,0,1-3.06-3L52.6,42.19l33.51-.61L92.86,94.8A2.92,2.92,0,0,1,90.33,98.2Z"/><polygon class="cls-15" points="60.89 54.61 83.44 53.84 83.37 53.24 60.85 54 60.89 54.61"/><polygon class="cls-15" points="61.09 57.98 83.82 57.1 83.75 56.51 61.06 57.37 61.09 57.98"/><polygon class="cls-15" points="61.3 61.34 84.2 60.37 84.13 59.77 61.27 60.73 61.3 61.34"/><polygon class="cls-15" points="61.51 64.71 84.58 63.63 84.51 63.04 61.47 64.1 61.51 64.71"/><polygon class="cls-15" points="60.68 51.24 83.06 50.57 82.99 49.98 60.64 50.63 60.68 51.24"/><path class="cls-6" d="M74.06,48.17l.54,5.7a3,3,0,0,0,1.07-2.42c-.09-.88-.74-1.27-1.33-.63"/><path class="cls-6" d="M76.36,54.69l.56,5.69A3,3,0,0,0,78,58c-.09-.87-.76-1.25-1.36-.61"/><path class="cls-6" d="M72,53.86l.5,5.72a3,3,0,0,0,1.1-2.44c-.08-.87-.74-1.26-1.35-.61"/><path class="cls-6" d="M78.45,50.3,79,56a2.91,2.91,0,0,0,1.06-2.41c-.1-.87-.77-1.25-1.35-.62"/><path class="cls-8" d="M69.33,79.55l5-9.39a11.38,11.38,0,0,1,2.18,2.1,12.32,12.32,0,0,1,1.63,2.67Z"/><path class="cls-5" d="M60.05,62.07a2.17,2.17,0,0,0,.69-.13,1.67,1.67,0,0,0,.52-.31,1.73,1.73,0,0,0,.33-.45,1.28,1.28,0,0,0,.09-.55,1.46,1.46,0,0,0-.2-.63,1.52,1.52,0,0,0-.47-.51,2.34,2.34,0,0,0-.73-.33,3,3,0,0,0-1-.09,3.6,3.6,0,0,0-1.29.27,3,3,0,0,0-.94.62,2.7,2.7,0,0,0-.56.87,2.38,2.38,0,0,0-.16,1A2.81,2.81,0,0,0,57.51,64a4.06,4.06,0,0,0,1.34.63,6.06,6.06,0,0,0,1.82.17,3.86,3.86,0,0,0,2.71-1,3.15,3.15,0,0,0,.72-2.47A11.16,11.16,0,0,0,63.94,60c-.08-.43-.16-.86-.25-1.28l-.74.19a3.66,3.66,0,0,1-.75.1.66.66,0,0,1-.42-.09.34.34,0,0,1-.16-.28c0-.14,0-.23.11-.27a.89.89,0,0,0,.23.05,1.51,1.51,0,0,0,.3,0,3.74,3.74,0,0,0,.66-.09c.22-.05.43-.11.65-.18-.1-.42-.18-.84-.26-1.25a8.55,8.55,0,0,1-.15-1.2,2.77,2.77,0,0,1,.08-1.12c.08-.24.21-.37.37-.37a.27.27,0,0,1,.2.08.45.45,0,0,1,.11.24.86.86,0,0,0-.19.44,2.62,2.62,0,0,0,0,.76,8.45,8.45,0,0,0,.14,1.14c.07.38.14.76.23,1.16l.36-.07.37,0a1.19,1.19,0,0,1,.67.11.38.38,0,0,1,.22.31.54.54,0,0,1,0,.22c0,.06-.08.11-.14.12a.71.71,0,0,0-.31-.12,2.18,2.18,0,0,0-.52,0l-.25,0-.24,0c.1.44.19.89.27,1.34a12.91,12.91,0,0,1,.17,1.47A3.85,3.85,0,0,1,64.46,63a3,3,0,0,1-.74,1.2,3.47,3.47,0,0,1-1.27.79,5.44,5.44,0,0,1-1.75.34,6.14,6.14,0,0,1-2-.2,4.68,4.68,0,0,1-1.52-.74,3.37,3.37,0,0,1-1-1.12,3.31,3.31,0,0,1-.38-1.38,3,3,0,0,1,.2-1.2,3.11,3.11,0,0,1,.69-1.08,3.58,3.58,0,0,1,1.12-.79,4,4,0,0,1,1.52-.34,4.07,4.07,0,0,1,1.14.12,2.4,2.4,0,0,1,.88.42,2.07,2.07,0,0,1,.59.66,2,2,0,0,1,.24.85,1.69,1.69,0,0,1-.12.78,1.81,1.81,0,0,1-.45.65,2.4,2.4,0,0,1-.71.45,2.82,2.82,0,0,1-.95.19,3,3,0,0,1-.66,0,2.72,2.72,0,0,1-.61-.16,1.64,1.64,0,0,1-.45-.28A.46.46,0,0,1,58,61.8a.38.38,0,0,1,.09-.29.4.4,0,0,1,.32-.09.41.41,0,0,0,.17.27,1.27,1.27,0,0,0,.38.22,2.44,2.44,0,0,0,.5.13A2.57,2.57,0,0,0,60.05,62.07Zm5.74-9.88c.2,0,.31.1.32.33a.75.75,0,0,1-.09.4,1.15,1.15,0,0,1-.36.37,2.06,2.06,0,0,1-.63.27,3.3,3.3,0,0,1-.9.13,6.6,6.6,0,0,1-1.42-.1c-.45-.08-.89-.18-1.33-.28s-.87-.2-1.29-.29a5.75,5.75,0,0,0-1.31-.1,3.4,3.4,0,0,0-1.21.22,2.1,2.1,0,0,0-.77.5,1.61,1.61,0,0,0-.39.66,2.22,2.22,0,0,0-.08.71,1.94,1.94,0,0,0,.19.77,1.91,1.91,0,0,0,.48.58,1.94,1.94,0,0,0,.7.36,2.82,2.82,0,0,0,.89.11,3,3,0,0,0,1-.23,2,2,0,0,0,.77-.55c.12,0,.18.1.19.24a.38.38,0,0,1-.07.25,1.7,1.7,0,0,1-.27.27,2.92,2.92,0,0,1-.73.4,2.81,2.81,0,0,1-1,.2,2.91,2.91,0,0,1-1.09-.14A2.37,2.37,0,0,1,56,56a2.7,2.7,0,0,1-.23-.95,3,3,0,0,1,.13-1,2.28,2.28,0,0,1,.5-.88,2.77,2.77,0,0,1,.93-.63,3.89,3.89,0,0,1,1.42-.28,5.64,5.64,0,0,1,1.37.11c.43.08.86.18,1.29.29s.85.2,1.29.28a6,6,0,0,0,1.35.11,2.6,2.6,0,0,0,1.15-.28A1.09,1.09,0,0,0,65.79,52.19Z"/><path class="cls-5" d="M68.6,60.42a1.29,1.29,0,0,1,0,.47.24.24,0,0,1-.15.17,3.45,3.45,0,0,1-.07.94c.12.65.31,1,.58,1a.44.44,0,0,0,.27-.14,1.42,1.42,0,0,0,.25-.44,8.5,8.5,0,0,0,.26-.83c.09-.35.18-.79.28-1.31q.25,0,.21.39c-.08.59-.16,1.07-.25,1.46a6.12,6.12,0,0,1-.29.93,1.36,1.36,0,0,1-.35.5.76.76,0,0,1-.4.15c-.37,0-.65-.24-.84-.76a2.59,2.59,0,0,1-.45.72.91.91,0,0,1-.62.3.82.82,0,0,1-.75-.45,3,3,0,0,1-.39-1.4,4.55,4.55,0,0,1,.06-1.17,3.88,3.88,0,0,1,.3-1,2.21,2.21,0,0,1,.51-.73,1,1,0,0,1,.66-.29.87.87,0,0,1,.49.1,1.13,1.13,0,0,1,.36.33,1.72,1.72,0,0,1,.24.51A3,3,0,0,1,68.6,60.42Zm-.4,0a1.34,1.34,0,0,0-.29-.7.63.63,0,0,0-.52-.23.72.72,0,0,0-.49.22,1.75,1.75,0,0,0-.35.53,3.44,3.44,0,0,0-.2.74,3.51,3.51,0,0,0,0,.86,2.43,2.43,0,0,0,.26,1.05c.15.24.31.36.5.35a.66.66,0,0,0,.46-.3,2.31,2.31,0,0,0,.37-.7l0-.21a1.64,1.64,0,0,1,0-.23,3.41,3.41,0,0,1,0-1C68,60.47,68.07,60.37,68.2,60.41Z"/><path class="cls-5" d="M65.77,94.59h-.22l-.62,0a.11.11,0,0,1-.05-.2.12.12,0,0,1,.05-.07,1.18,1.18,0,0,1,.37,0A7.75,7.75,0,0,1,64.92,93a4.71,4.71,0,0,1-.53,0H64c0,.46-.07.91-.14,1.37l.28,0c.08,0,.11.09.08.16h.07c.11,0,.12.19,0,.2a3.86,3.86,0,0,1-.9,0c-.07,0-.08-.09,0-.15a.1.1,0,0,1,.06-.16h.22c0-.9.17-1.79.24-2.68s.12-1.9.19-2.85l-.35,0a0,0,0,0,1,0,0,.34.34,0,0,1-.14,0,.1.1,0,0,1,0-.19,3,3,0,0,1,.58-.09.12.12,0,0,1,.08,0h.21c.12,0,.12.17,0,.2h0c.07,0,.07.13,0,.17.18.71.28,1.43.39,2.15.25,1.1.5,2.21.73,3.31h.13c.06,0,.08,0,.1.06h0C65.87,94.39,65.89,94.59,65.77,94.59Zm-.89-1.8-.08-.43v0c-.12-.49-.2-1-.29-1.49l-.15-.9-.06-.28c-.05.6-.1,1.18-.16,1.77,0,.22,0,.43-.07.64l0,.71c.22-.07.44,0,.66-.09a.1.1,0,0,1,.12.1Z"/><path class="cls-5" d="M68.18,94.31c-.39.3-.56,0-.63-.44a3.19,3.19,0,0,1-.15-.76c0-.34-.06-.69-.11-1a.94.94,0,0,0-.19-.47.75.75,0,0,0-.26-.19.74.74,0,0,0-.21,0l-.12,0c.06.66.07,1.33.08,2,0,.24,0,.48,0,.73l.42-.07c.07,0,.11.09.08.15s.1.19,0,.2a5.62,5.62,0,0,0-.92,0c-.1,0-.16-.12-.09-.17a.08.08,0,0,1,.08-.09l.26,0c-.05-.51-.09-1-.13-1.52s-.09-1-.11-1.46A16.54,16.54,0,0,0,66,88.64h-.21c-.05,0-.09,0-.1-.09a.11.11,0,0,1,0-.19c.43,0,.94-.18,1.33.14a1.32,1.32,0,0,1,.34.47,1.72,1.72,0,0,1,.24.7,1.83,1.83,0,0,1-.26,1.38,1.39,1.39,0,0,1-.27.21.48.48,0,0,1,.11.09.63.63,0,0,1,.2.2,2.18,2.18,0,0,1,.28,1c0,.27-.08,1.16.12,1.48a.29.29,0,0,0,.23.13h0A.11.11,0,0,1,68.18,94.31Zm-.87-4.66a1,1,0,0,0-1-1,8.06,8.06,0,0,1,.12,1.9l.07.68h0a1.47,1.47,0,0,0,.7-.44A1.44,1.44,0,0,0,67.31,89.65Z"/><path class="cls-5" d="M70.16,89.13a.13.13,0,0,1,0,.09.09.09,0,0,1-.17,0,3.7,3.7,0,0,1-.14-.82l-.7,0a3.91,3.91,0,0,1,.1.58,5.11,5.11,0,0,1,.07.76c0,.39,0,.78.06,1.17.07,1,.25,2,.24,2.93a.08.08,0,0,1,0,.06v0L70,94c.06,0,.1.07.09.14s0,.17,0,.18l-.43,0-.47,0a.11.11,0,0,1-.09,0h0c-.1,0-.09-.18,0-.2a.11.11,0,0,1,.08-.09l.36,0,0-.23a8.63,8.63,0,0,1-.23-2.49c0-.75-.09-1.5-.16-2.26l0-.28v0l0-.23-.62,0h0c0,.29,0,.59,0,.88,0,.08-.09.13-.14.1s-.08,0-.09-.06a5.52,5.52,0,0,1-.07-.55,4.51,4.51,0,0,0-.08-.53.08.08,0,0,1,.09-.1.11.11,0,0,1,.12,0h.5l.42,0,.38,0,.49,0h0s.12,0,.13,0A4.9,4.9,0,0,1,70.16,89.13Z"/><path class="cls-5" d="M71.48,91.12h0a.08.08,0,0,1-.07.1c-.38,0-.77,0-1.14.06a.1.1,0,0,1,0-.2l.14,0,0,0,.25,0,.8-.1h0C71.54,90.93,71.57,91.08,71.48,91.12Z"/><path class="cls-5" d="M73.76,92.4a2.3,2.3,0,0,1-.18,1.4.4.4,0,0,1-.37.21A.76.76,0,0,1,73,94a1.18,1.18,0,0,1-.65-.9,10.34,10.34,0,0,1-.25-1.56c0-.28,0-.57,0-.85s0-.49,0-.73a4.16,4.16,0,0,1,.1-1.69.72.72,0,0,1,.11-.19c.06-.14.14-.25.31-.24a.34.34,0,0,1,.27.06.58.58,0,0,1,.17.18v-.15c0-.07.06-.08.11-.07s.19-.07.18,0a9.51,9.51,0,0,0,0,1.31c0,.12-.16.16-.19,0h0a.11.11,0,0,1-.07-.06,2.28,2.28,0,0,1-.1-.52.09.09,0,0,1-.08-.06l0,0c-.06-.14-.31-.51-.46-.36h0c0,.13,0,.26-.08.4v.27c0,.48-.06,1-.06,1.45,0,.24,0,.48.08.72.06.5,0,1,.14,1.51.07.35.27,1,.72,1.08.19,0,.28-.11.31-.3-.07,0-.16,0-.11-.13a1.29,1.29,0,0,0,.14-.46,0,0,0,0,1,0,0l0-.31C73.56,92.28,73.75,92.3,73.76,92.4Z"/><path class="cls-5" d="M76.44,93.74h-.22l-.63,0a.11.11,0,0,1,0-.2s0,0,0-.06a1,1,0,0,1,.37,0,7.38,7.38,0,0,1-.41-1.31,3.2,3.2,0,0,1-.53,0c-.12,0-.22,0-.34,0h-.05c0,.46,0,.9-.11,1.35l.28,0c.08,0,.11.09.08.15H75c.11,0,.13.18,0,.19a4.51,4.51,0,0,1-.9,0c-.08,0-.09-.09-.06-.15s0-.15.06-.15l.22,0c0-.89.13-1.76.19-2.64s.08-1.88.13-2.82l-.36,0a.07.07,0,0,1,0,0,.33.33,0,0,1-.14,0,.1.1,0,0,1,0-.19,2.33,2.33,0,0,1,.58-.09.11.11,0,0,1,.08,0h.21c.12,0,.12.18,0,.21h0c.08,0,.07.13,0,.17a21.5,21.5,0,0,1,.43,2.12c.28,1.09.55,2.17.81,3.26a.57.57,0,0,0,.13,0c.06,0,.08,0,.1.06h0C76.53,93.54,76.56,93.73,76.44,93.74ZM75.5,92l-.08-.43v0c-.13-.49-.23-1-.33-1.47l-.18-.89-.06-.28-.12,1.75c0,.22,0,.42-.06.64l0,.69c.22-.06.44,0,.66-.09a.11.11,0,0,1,.12.1Z"/><path class="cls-5" d="M77.78,88.72c0,.09-.1.09-.15,0s0,0,0-.05v0c0-.27,0-.54-.08-.81h-.13a5.51,5.51,0,0,1-.57.06c0,.16,0,.33,0,.48l0,.66v0q.08.73.18,1.47a.11.11,0,0,1,.07,0,.1.1,0,0,1,.06,0,1.22,1.22,0,0,1,.33,0c0-.2,0-.4,0-.61a.09.09,0,1,1,.18,0l0,.15a.06.06,0,0,1,0,.07c0,.15,0,.3,0,.45a4.78,4.78,0,0,0,.09.76c0,.06,0,.09-.07.1a.09.09,0,1,1-.18,0c0-.21,0-.43,0-.64a.63.63,0,0,1-.33,0h-.11v0a15.3,15.3,0,0,1,.21,2.25l0,.08a.1.1,0,0,1,0,.1v0c.21,0,.42,0,.62,0a.09.09,0,0,1,.1.1h0a.11.11,0,0,1,0,.2,3.9,3.9,0,0,1-.76,0,3.65,3.65,0,0,1-.46.07s-.08,0-.1-.09a.1.1,0,0,1,0-.16l.32-.08,0-.42L77,92.65a5.13,5.13,0,0,1-.1-.65c-.06-.44-.08-.88-.12-1.33s-.07-.89-.09-1.33v-.07c-.06-.3-.1-.59-.13-.88a2,2,0,0,1-.06-.42H76.3c-.12,0-.14-.19,0-.19h0a.08.08,0,0,1,.07-.07c.43,0,.8-.24,1.22-.1.05,0,.11,0,.14.05a.14.14,0,0,1,0,.13A3,3,0,0,1,77.78,88.72Z"/><path class="cls-5" d="M80.51,93.4a.08.08,0,0,1-.09,0,2.36,2.36,0,0,0-.75,0,6.5,6.5,0,0,1-.75.12c-.11,0-.13-.19,0-.21h0a.08.08,0,0,1,.07-.11h.18c-.06-.34-.1-.68-.14-1-.21-1.41-.42-2.84-.49-4.27a.09.09,0,0,1,0-.1v-.08h0l-.23,0a.09.09,0,0,1-.09-.09.11.11,0,0,1,0-.2l1.2-.09a.09.09,0,0,1,.09.06s0,0,.09,0a.07.07,0,0,1,.12.06,3.38,3.38,0,0,1,0,1.1c0,.12-.16.09-.18,0v0a2,2,0,0,1-.12-.67l0-.13a1.87,1.87,0,0,1-.48,0l-.22,0a2.64,2.64,0,0,0,0,.28,8.53,8.53,0,0,1,.36,2.25s0,0,.06,0h0l.17,0s0,0,.06,0h.08a3.74,3.74,0,0,1,0-.58.08.08,0,0,1,.15,0,.09.09,0,0,1,.1.13.36.36,0,0,0,0,.1,6.25,6.25,0,0,1,.17,1.15c0,.06,0,.1-.08.1l0,.1c0,.12-.15.14-.18,0s-.09-.5-.13-.74a.65.65,0,0,1-.31,0l-.09,0c.07.84.14,1.68.22,2.52a.08.08,0,0,1,0,.09v0l.11,0a1.24,1.24,0,0,1,.69-.13c0-.26,0-.53,0-.79a.09.09,0,0,1,.17,0s0,0,0,.06l0,.14a4,4,0,0,1,.18.91S80.54,93.39,80.51,93.4Zm-1.1-7-.11.18c-.07.1-.15.19-.23.29L79,87s0,0,0,0-.2,0-.13-.14v0a0,0,0,0,1,0,0A.81.81,0,0,1,79,86.5c0-.07.06-.12.1-.18s0,0,0,0a.09.09,0,0,1,.15,0A.11.11,0,0,1,79.41,86.45Z"/><polygon class="cls-16" points="233.71 35.24 163.85 35.24 166.24 28.55 231.33 28.55 233.71 35.24"/><rect class="cls-17" x="169.66" y="21.27" width="58.24" height="7.83"/><rect class="cls-9" x="188.32" y="35.24" width="0.99" height="25.58"/><rect class="cls-9" x="193.42" y="35.24" width="0.99" height="25.58"/><rect class="cls-9" x="198.52" y="35.24" width="0.99" height="25.58"/><rect class="cls-9" x="203.61" y="35.24" width="0.99" height="25.58"/><rect class="cls-9" x="208.71" y="35.24" width="0.99" height="25.58"/><path class="cls-5" d="M190.83,52.24c0-.39.18-.59.55-.59a1.13,1.13,0,0,1,.65.25,2,2,0,0,1,.57.76,5,5,0,0,1,.41,1.27,8.48,8.48,0,0,1,.16,1.77,15.47,15.47,0,0,1-.24,2.78c-.16.87-.33,1.73-.52,2.57s-.37,1.68-.53,2.5a13.55,13.55,0,0,0-.24,2.56,8.29,8.29,0,0,0,.3,2.41,4.58,4.58,0,0,0,.76,1.55,2.78,2.78,0,0,0,1.05.83,2.91,2.91,0,0,0,1.13.24,2.55,2.55,0,0,0,1.23-.31,3,3,0,0,0,1-.86,4.15,4.15,0,0,0,.62-1.34,6.18,6.18,0,0,0,.22-1.72,6.91,6.91,0,0,0-.3-2.07,4.5,4.5,0,0,0-.83-1.57.36.36,0,0,1,.39-.34.58.58,0,0,1,.4.18,3.33,3.33,0,0,1,.42.55,7.08,7.08,0,0,1,.6,1.46,6.66,6.66,0,0,1,.27,1.95,6.89,6.89,0,0,1-.3,2.11,4.78,4.78,0,0,1-.81,1.61,3.45,3.45,0,0,1-1.24,1,3.36,3.36,0,0,1-1.54.36,3.84,3.84,0,0,1-1.58-.34A3.64,3.64,0,0,1,192,70.76a5.85,5.85,0,0,1-1-1.9,9.32,9.32,0,0,1-.37-2.82,14.33,14.33,0,0,1,.24-2.67c.16-.85.33-1.68.53-2.51s.37-1.65.53-2.49a14.2,14.2,0,0,0,.24-2.65,5.9,5.9,0,0,0-.39-2.28A2.12,2.12,0,0,0,190.83,52.24Zm15.61,12.43a5.17,5.17,0,0,0-.17-1.34,3.38,3.38,0,0,0-.47-1,2.22,2.22,0,0,0-.7-.67,1.69,1.69,0,0,0-.88-.24,2,2,0,0,0-1,.29,2.59,2.59,0,0,0-.85.86,4.42,4.42,0,0,0-.58,1.37,7.61,7.61,0,0,0-.21,1.88,8.25,8.25,0,0,0,.35,2.54,6.18,6.18,0,0,0,.94,1.87,4.14,4.14,0,0,0,1.35,1.17,3.31,3.31,0,0,0,1.57.41,3.93,3.93,0,0,0,1.94-.51,4.69,4.69,0,0,0,1.61-1.51,8.07,8.07,0,0,0,1.1-2.49,13.3,13.3,0,0,0,.41-3.46,8.5,8.5,0,0,0-1.36-5.3,4.76,4.76,0,0,0-3.94-1.7,15,15,0,0,0-2.13.14c-.7.09-1.39.2-2.07.32.09.48.18,1,.25,1.45a8.81,8.81,0,0,1,.12,1.46,1.47,1.47,0,0,1-.18.81.54.54,0,0,1-.46.28.41.41,0,0,1-.43-.25,1.84,1.84,0,0,0,.11-.45,5.49,5.49,0,0,0,0-.58,9.07,9.07,0,0,0-.09-1.28c-.07-.43-.15-.85-.24-1.28-.7.13-1.38.24-2.05.34a14.44,14.44,0,0,1-1.95.14,4.06,4.06,0,0,1-1.8-.3.89.89,0,0,1-.58-.78.57.57,0,0,1,.14-.38.66.66,0,0,1,.39-.19,1.45,1.45,0,0,0,.7.43,4,4,0,0,0,1.24.17,14.29,14.29,0,0,0,1.86-.12c.6-.09,1.23-.19,1.87-.31,0-.23-.07-.47-.09-.71s0-.47,0-.71a2.81,2.81,0,0,1,.22-1.29.61.61,0,0,1,.51-.38.6.6,0,0,1,.36.12.44.44,0,0,1,.19.27,1.34,1.34,0,0,0-.22.6,5.87,5.87,0,0,0-.08,1c0,.17,0,.33,0,.47s0,.31.05.47q1.06-.2,2.19-.33a17.87,17.87,0,0,1,2.38-.15,5.78,5.78,0,0,1,2.54.55,5.18,5.18,0,0,1,1.89,1.57,7.54,7.54,0,0,1,1.18,2.52,12.93,12.93,0,0,1,.41,3.38,14,14,0,0,1-.48,3.84A9.37,9.37,0,0,1,210,70.46a5.83,5.83,0,0,1-1.86,1.76,4.48,4.48,0,0,1-2.23.61,4.1,4.1,0,0,1-1.92-.5,5.26,5.26,0,0,1-1.68-1.43,7.5,7.5,0,0,1-1.19-2.25,9.25,9.25,0,0,1-.45-3,8.25,8.25,0,0,1,.26-2.2,5.37,5.37,0,0,1,.72-1.66,3.52,3.52,0,0,1,1.11-1,2.71,2.71,0,0,1,1.39-.37,2.46,2.46,0,0,1,1.25.33,3,3,0,0,1,1,.93,4.86,4.86,0,0,1,.68,1.43,6.18,6.18,0,0,1,.25,1.83,7.88,7.88,0,0,1-.11,1.27,5.3,5.3,0,0,1-.31,1.16,3,3,0,0,1-.47.84.76.76,0,0,1-.59.33.56.56,0,0,1-.44-.21.77.77,0,0,1-.12-.62.68.68,0,0,0,.44-.31,2.62,2.62,0,0,0,.37-.71,4.87,4.87,0,0,0,.25-1A6.09,6.09,0,0,0,206.44,64.67Z"/><path class="cls-5" d="M204.34,48a1.83,1.83,0,0,1,.78.11.42.42,0,0,1,.25.31,4.84,4.84,0,0,1,1.53.27c1.06-.12,1.58-.44,1.58-1a.88.88,0,0,0-.2-.53,2.39,2.39,0,0,0-.7-.55,11.71,11.71,0,0,0-1.34-.63c-.55-.22-1.26-.47-2.11-.74,0-.33.22-.45.66-.34a23.47,23.47,0,0,1,2.35.7,8.43,8.43,0,0,1,1.49.7,2.24,2.24,0,0,1,.78.74,1.56,1.56,0,0,1,.23.79c0,.71-.44,1.21-1.3,1.49a4.32,4.32,0,0,1,1.13,1,2,2,0,0,1,.45,1.23,1.61,1.61,0,0,1-.78,1.36,4,4,0,0,1-2.31.55,7,7,0,0,1-1.88-.26,6.14,6.14,0,0,1-1.64-.73,4.17,4.17,0,0,1-1.16-1.08,2.3,2.3,0,0,1-.43-1.34,1.92,1.92,0,0,1,.2-.92,1.85,1.85,0,0,1,.56-.65,2.43,2.43,0,0,1,.83-.38A4.28,4.28,0,0,1,204.34,48Zm0,.78a1.84,1.84,0,0,0-1.16.44,1.27,1.27,0,0,0-.4,1,1.57,1.57,0,0,0,.32,1,2.84,2.84,0,0,0,.83.74,4.43,4.43,0,0,0,1.19.49,5.35,5.35,0,0,0,1.39.18,3.28,3.28,0,0,0,1.72-.37,1,1,0,0,0,.6-.89,1.43,1.43,0,0,0-.44-.94,4,4,0,0,0-1.12-.8l-.34,0h-.37a4.93,4.93,0,0,1-1.71-.24C204.39,49.21,204.23,49,204.31,48.78Z"/><path class="cls-8" d="M187.66,45.14a.74.74,0,0,1-.6-.27,1.36,1.36,0,0,1-.22-.87,1.68,1.68,0,0,1,.38-1.2,1.21,1.21,0,0,1,.9-.38,1.92,1.92,0,0,1,.82.18,2.85,2.85,0,0,1,.7.49,2.37,2.37,0,0,1,.49.65,1.54,1.54,0,0,1,.18.69,1.06,1.06,0,0,1-.3.81,1.13,1.13,0,0,1-.81.28,2,2,0,0,1-1.23-.43.87.87,0,0,1-.31,0Zm1.07-.36a.59.59,0,0,0,.46-.19.81.81,0,0,0,.15-.51,1,1,0,0,0-.23-.61.74.74,0,0,0-.59-.28.69.69,0,0,0-.48.24,1,1,0,0,0-.23.7,1.59,1.59,0,0,0,0,.36,2,2,0,0,0,.49.22A1.46,1.46,0,0,0,188.73,44.78Z"/><path class="cls-5" d="M187.39,98.48l-.42,0c-.41,0-.82,0-1.23,0a.17.17,0,0,1-.06-.34.15.15,0,0,1,.11-.11,2.5,2.5,0,0,1,.72,0,13,13,0,0,1-.58-2.37,7.09,7.09,0,0,1-1,0,4.73,4.73,0,0,1-.65,0h-.08l0,0c-.12.8-.25,1.58-.44,2.37h.55a.18.18,0,0,1,.14.28h.13a.18.18,0,0,1,0,.35,9.25,9.25,0,0,1-1.74-.11.16.16,0,0,1-.08-.27.17.17,0,0,1,.14-.27h.43c.12-1.57.54-3.09.8-4.64s.47-3.31.72-5c-.22,0-.46-.06-.69-.11a.12.12,0,0,1-.1-.06.8.8,0,0,1-.26,0,.17.17,0,0,1,0-.33,6.55,6.55,0,0,1,1.16-.09.19.19,0,0,1,.15,0l.41,0a.18.18,0,0,1,0,.36h-.06c.14,0,.11.24,0,.3a30.51,30.51,0,0,1,.48,3.81q.56,2.94,1,5.88a1.13,1.13,0,0,0,.26,0,.14.14,0,0,1,.17.13h.06C187.61,98.14,187.63,98.48,187.39,98.48Zm-1.51-3.28-.09-.77v0c-.18-.88-.29-1.76-.4-2.65l-.19-1.58-.07-.51c-.18,1-.35,2.06-.54,3.08-.06.38-.14.74-.22,1.11l-.17,1.23c.44-.08.86,0,1.3-.07a.2.2,0,0,1,.22.19Z"/><path class="cls-5" d="M192.1,98.32c-.79.47-1.07-.12-1.16-.86a5.23,5.23,0,0,1-.19-1.36c0-.6,0-1.21-.08-1.81a1.46,1.46,0,0,0-.3-.85,1.63,1.63,0,0,0-.48-.36,1.89,1.89,0,0,0-.41,0l-.24.08c0,1.16,0,2.33-.11,3.51q0,.63-.06,1.29l.82-.07c.15,0,.2.16.14.27a.18.18,0,0,1-.05.35,10.71,10.71,0,0,0-1.79,0c-.19,0-.3-.24-.14-.31a.15.15,0,0,1,.16-.16l.5,0c0-.89,0-1.79-.05-2.68s0-1.71,0-2.56a25.69,25.69,0,0,0,0-4.64h-.43c-.09,0-.15-.09-.17-.17a.19.19,0,0,1,.11-.33c.86,0,1.88-.21,2.6.41a2.26,2.26,0,0,1,.61.87,2.79,2.79,0,0,1,.37,1.26A3,3,0,0,1,191,92.5a3.63,3.63,0,0,1-.55.35,1.4,1.4,0,0,1,.2.16,1.38,1.38,0,0,1,.35.37,3.57,3.57,0,0,1,.42,1.76c0,.47-.31,2,0,2.6a.53.53,0,0,0,.42.25H192C192.15,98,192.27,98.21,192.1,98.32Zm-1-8.3a2.07,2.07,0,0,0-1-1.66,2.52,2.52,0,0,0-.89-.25,12.06,12.06,0,0,1,0,3.34l0,1.19h0a2.89,2.89,0,0,0,1.42-.67A2.28,2.28,0,0,0,191.05,90Z"/><path class="cls-5" d="M196.73,89.49a.2.2,0,0,1,0,.14.18.18,0,0,1-.33,0,5.94,5.94,0,0,1-.16-1.46c-.47,0-.92,0-1.38,0a6.06,6.06,0,0,1,.13,1,10.19,10.19,0,0,1,0,1.35c0,.69,0,1.38,0,2.07,0,1.73.2,3.45,0,5.18a.13.13,0,0,1-.05.11v0h.71a.18.18,0,0,1,.15.25.18.18,0,0,1-.11.32c-.26,0-.54,0-.83,0s-.61,0-.92,0a.2.2,0,0,1-.16-.09l-.08,0c-.2,0-.15-.33,0-.35a.17.17,0,0,1,.16-.14l.71,0-.07-.42a13.59,13.59,0,0,1-.09-4.41c.05-1.32,0-2.65,0-4a4.18,4.18,0,0,1,0-.5l0,0v-.41q-.61,0-1.23,0h-.05c0,.51,0,1,0,1.55a.2.2,0,0,1-.28.16.17.17,0,0,1-.18-.13,7.87,7.87,0,0,1,0-1c0-.32-.08-.63-.1-.94a.16.16,0,0,1,.21-.16.21.21,0,0,1,.23,0l.22,0,0,0,.41,0,.29,0,.85,0h1.71l0,0a.16.16,0,0,1,.25.09A9.72,9.72,0,0,1,196.73,89.49Z"/><path class="cls-5" d="M199,93.16s0,0,0,0h-.08a.15.15,0,0,1-.16.16c-.75,0-1.5,0-2.24,0a.17.17,0,1,1,0-.34l.27,0a.16.16,0,0,1,.09,0,2,2,0,0,1,.49,0c.53,0,1-.07,1.58-.08H199A.18.18,0,0,1,199,93.16Z"/><path class="cls-5" d="M203.24,95.73a3.78,3.78,0,0,1-.58,2.45.8.8,0,0,1-.74.32,1.6,1.6,0,0,1-.49-.08,2.06,2.06,0,0,1-1.13-1.68,19.79,19.79,0,0,1-.23-2.78c0-.5,0-1,.05-1.5s0-.87.06-1.29a6.58,6.58,0,0,1,.45-3,1.64,1.64,0,0,1,.26-.33.61.61,0,0,1,.65-.38.73.73,0,0,1,.52.14.93.93,0,0,1,.3.33l0-.25c0-.13.12-.14.23-.11.11-.14.38-.11.35.08a16.42,16.42,0,0,0-.14,2.32c0,.2-.35.25-.38,0v0a.18.18,0,0,1-.13-.11,3.56,3.56,0,0,1-.11-.92.21.21,0,0,1-.15-.13l0-.09c-.1-.26-.52-.94-.85-.69h0c-.07.22-.14.46-.22.69l0,.49c-.13.85-.27,1.69-.35,2.54,0,.44,0,.86.05,1.29,0,.89-.08,1.78,0,2.68.08.63.38,1.82,1.22,2,.36.09.57-.16.66-.49-.14,0-.3-.11-.19-.25a2.52,2.52,0,0,0,.35-.79.11.11,0,0,1,0-.06l.15-.53C202.88,95.5,203.24,95.55,203.24,95.73Z"/><path class="cls-5" d="M208.21,98.48l-.42,0c-.41,0-.82,0-1.22,0a.18.18,0,0,1-.07-.34.15.15,0,0,1,.11-.11,2.5,2.5,0,0,1,.72,0,13,13,0,0,1-.58-2.37,7.09,7.09,0,0,1-1,0,4.49,4.49,0,0,1-.64,0H205l0,0c-.12.8-.25,1.58-.43,2.37h.55a.18.18,0,0,1,.14.28h.12a.18.18,0,0,1,0,.35,9.25,9.25,0,0,1-1.74-.11.16.16,0,0,1-.08-.27.17.17,0,0,1,.14-.27h.43c.12-1.57.55-3.09.8-4.64s.47-3.31.72-5c-.22,0-.46-.06-.69-.11a.12.12,0,0,1-.1-.06.8.8,0,0,1-.26,0,.17.17,0,0,1,0-.33,6.55,6.55,0,0,1,1.16-.09.19.19,0,0,1,.15,0l.41,0a.18.18,0,0,1,0,.36h-.06c.14,0,.11.24,0,.3a30.54,30.54,0,0,1,.49,3.81q.54,2.94,1,5.88a1,1,0,0,0,.25,0,.14.14,0,0,1,.17.13h.06C208.43,98.14,208.45,98.48,208.21,98.48Zm-1.5-3.28-.1-.77v0c-.18-.88-.29-1.76-.4-2.65L206,90.17l-.08-.51c-.18,1-.35,2.06-.54,3.08-.06.38-.14.74-.22,1.11L205,95.08c.44-.08.86,0,1.3-.07a.2.2,0,0,1,.22.19Z"/><path class="cls-5" d="M211.73,89.76a.17.17,0,0,1-.3.06.09.09,0,0,1-.05-.09v0a13.88,13.88,0,0,1,0-1.44h-.27c-.37,0-.75,0-1.13,0a8.25,8.25,0,0,1,0,.86l0,1.18v.08c0,.87,0,1.75.08,2.63a.33.33,0,0,1,.16,0,.15.15,0,0,1,.11-.07,1.63,1.63,0,0,1,.66,0c0-.36,0-.72,0-1.1,0-.22.36-.22.36,0v.27a.11.11,0,0,1,0,.12c0,.27,0,.53,0,.8a10.45,10.45,0,0,0,0,1.37c0,.11-.06.15-.15.15a.18.18,0,0,1-.35,0,10.85,10.85,0,0,1,0-1.14,1.31,1.31,0,0,1-.65,0H210v0a23.35,23.35,0,0,1,0,4v.16a.15.15,0,0,1-.06.17v.05h1.21a.17.17,0,0,1,.17.19l.09,0a.17.17,0,0,1,0,.34,10.41,10.41,0,0,1-1.48,0,8.87,8.87,0,0,1-.89.06.17.17,0,0,1-.17-.17c-.08-.1-.07-.26.07-.29s.43-.07.63-.09v-.75l-.11-.54a9.17,9.17,0,0,1-.08-1.16c0-.78,0-1.57,0-2.37s0-1.58.06-2.36l0-.13a14,14,0,0,1-.11-1.58,3,3,0,0,1,0-.76H209a.18.18,0,0,1,0-.35H209a.17.17,0,0,1,.16-.12,6.57,6.57,0,0,1,2.42,0,.16.16,0,0,1,.25.11.23.23,0,0,1,0,.24A4.66,4.66,0,0,1,211.73,89.76Z"/><path class="cls-5" d="M216.17,98.45a.16.16,0,0,1-.18.06,4.45,4.45,0,0,0-1.45-.12c-.51,0-1,.09-1.48.09-.22,0-.22-.34,0-.36h0a.16.16,0,0,1,.18-.19h.34c-.05-.61-.06-1.22-.08-1.85a72.29,72.29,0,0,1-.17-7.65.18.18,0,0,1,.11-.18l0-.14h-.08l-.46,0a.17.17,0,0,1-.17-.18.19.19,0,0,1,.09-.34c.8,0,1.59,0,2.39,0a.14.14,0,0,1,.15.11.19.19,0,0,1,.18,0,.14.14,0,0,1,.23.11,5.75,5.75,0,0,1-.11,2c0,.2-.33.12-.36,0v-.08a2.84,2.84,0,0,1-.11-1.19l0-.25a3.42,3.42,0,0,1-1,0l-.42-.06a4.1,4.1,0,0,0,0,.5,13.62,13.62,0,0,1,.29,4,.16.16,0,0,1,.11,0l.06,0h.33a.14.14,0,0,1,.12,0l.16,0a7.32,7.32,0,0,1,.1-1c0-.16.23-.17.31,0s.25.13.16.25a.48.48,0,0,0,0,.18,10,10,0,0,1,.11,2.05.16.16,0,0,1-.17.17v.19c0,.22-.31.22-.34,0a10.08,10.08,0,0,1-.11-1.33,1.24,1.24,0,0,1-.61,0l-.19,0q0,2.27,0,4.5a.18.18,0,0,1-.1.16v0l.24,0a2.67,2.67,0,0,1,1.35-.12,13.31,13.31,0,0,1,.07-1.41.18.18,0,0,1,.35,0,.1.1,0,0,1,.08.11,2.23,2.23,0,0,0,0,.27,7.27,7.27,0,0,1,.17,1.63A.13.13,0,0,1,216.17,98.45ZM215.35,86l-.25.29c-.16.18-.33.33-.5.49l-.16.16s0,0-.06.06a.18.18,0,0,1-.24-.27l0,0a0,0,0,0,1,0,0,1.39,1.39,0,0,1,.39-.66c.08-.11.14-.21.22-.3l.08-.06a.21.21,0,0,1,.32,0A.2.2,0,0,1,215.35,86Z"/><polygon class="cls-18" points="27.64 55.03 24.97 179.55 32.66 179.55 36 186.72 27.64 55.03"/></g></g></svg>