<svg xmlns="http://www.w3.org/2000/svg" xmlns:xlink="http://www.w3.org/1999/xlink" viewBox="0 0 255.12 170.08"><defs><style>.cls-1{fill:#ddd3ce;}.cls-2,.cls-6,.cls-7{fill:#fff;}.cls-2{stroke:#f06859;}.cls-2,.cls-9{stroke-miterlimit:10;}.cls-3,.cls-8{fill:#f06859;}.cls-3,.cls-5,.cls-7{fill-rule:evenodd;}.cls-4,.cls-5,.cls-9{fill:#9bd3c9;}.cls-9{stroke:url(#linear-gradient);}</style><linearGradient id="linear-gradient" x1="53.23" y1="108.94" x2="83.94" y2="108.94" gradientUnits="userSpaceOnUse"><stop offset="0" stop-color="#fff"/><stop offset="1" stop-color="#a3a3a3"/></linearGradient></defs><g id="Layer_2" data-name="Layer 2"><g id="Layer_1-2" data-name="Layer 1"><rect class="cls-1" width="255.12" height="170.08"/><circle class="cls-2" cx="68.58" cy="108.94" r="46.31"/><path class="cls-3" d="M233.43,78a13,13,0,0,1,.54,1.91.38.38,0,0,1-.09.34.4.4,0,0,1-.32.15c-2.3-.16-2-.57-1.38,1.66a.38.38,0,0,1-.09.34.42.42,0,0,1-.32.16c-2.3-.17-2-.58-1.38,1.65a.37.37,0,0,1-.09.34.39.39,0,0,1-.32.16c-2.38-.17-2-.66-1.37,1.66a.42.42,0,0,1-.1.34.4.4,0,0,1-.32.15c-2.3-.16-2-.57-1.37,1.66a.41.41,0,0,1-.1.34.39.39,0,0,1-.32.15c-2.3-.16-2-.57-1.37,1.66a.41.41,0,0,1-.1.34.4.4,0,0,1-.32.16,13,13,0,0,1-2-.17l-42.37-35.3L137.8,20.45a11.36,11.36,0,0,1-.52-1.93.37.37,0,0,1,.09-.34.39.39,0,0,1,.32-.16c2.3.17,2,.58,1.38-1.66a.36.36,0,0,1,.09-.33.39.39,0,0,1,.32-.16c2.3.16,2,.57,1.38-1.66a.38.38,0,0,1,.09-.34.4.4,0,0,1,.32-.15c2.38.17,2,.65,1.38-1.66a.42.42,0,0,1,.41-.49c2.3.16,2,.57,1.38-1.66a.38.38,0,0,1,.09-.34.39.39,0,0,1,.32-.16c2.3.17,2,.58,1.38-1.65a.37.37,0,0,1,.09-.34.39.39,0,0,1,.32-.16,12.8,12.8,0,0,1,2,.19L191,42.75Z"/><path class="cls-4" d="M165.62,31.83a.88.88,0,0,0,.21-.62,2.66,2.66,0,0,0-.12-.76c-.08-.27-.17-.54-.27-.83a8.12,8.12,0,0,1-.27-.84,2.44,2.44,0,0,1-.08-.79,1.12,1.12,0,0,1,.26-.67,2,2,0,0,1,.75-.6c.25-.1.44-.1.56,0s.14.37-.11.67a3.05,3.05,0,0,1-.36.36,4,4,0,0,1-.47.33,4.34,4.34,0,0,0,.3,1.06,11,11,0,0,1,.39,1,3.6,3.6,0,0,1,.19,1,1.38,1.38,0,0,1-.29.92A2.65,2.65,0,0,0,167.4,32a9.86,9.86,0,0,0,1.68-.71q.31.27-.06.51a6,6,0,0,1-1.77.79,2.92,2.92,0,0,1-1.5,0,1.73,1.73,0,0,1-1,.15,2.29,2.29,0,0,1-1.11-.54,3.73,3.73,0,0,1-.6-.65,2.87,2.87,0,0,1-.41-.74,2.12,2.12,0,0,1-.13-.73,1,1,0,0,1,.22-.6.55.55,0,0,1,.48-.22.91.91,0,0,1,.55.25,2.28,2.28,0,0,1,.43.48c.13.21.27.42.42.64s.3.45.47.67A3,3,0,0,0,165.62,31.83Zm-1.46,0a1.35,1.35,0,0,0,.82.35,3.66,3.66,0,0,1-.52-.59c-.15-.21-.29-.43-.42-.65s-.25-.41-.37-.59a1.51,1.51,0,0,0-.31-.39c-.1-.08-.17-.09-.22,0a.42.42,0,0,0,0,.31,1.92,1.92,0,0,0,.16.48,3.67,3.67,0,0,0,.36.55A4.13,4.13,0,0,0,164.16,31.8Z"/><path class="cls-4" d="M174.09,35.43c.22.18.2.35-.06.52a15.13,15.13,0,0,1-1.42.8,4.87,4.87,0,0,1-1.05.4,1.79,1.79,0,0,1-.79,0,1.4,1.4,0,0,1-.59-.28,1.16,1.16,0,0,1-.44-.8,2.14,2.14,0,0,1,.16-1,4.12,4.12,0,0,1-1.25.2,1.49,1.49,0,0,1-1-.31,1.33,1.33,0,0,1-.46-1.13,2.89,2.89,0,0,1,.79-1.64,6.69,6.69,0,0,1,1.12-1.07,5.44,5.44,0,0,1,1.13-.69.64.64,0,0,1,.71,0,.73.73,0,0,1,.18.22,3,3,0,0,0-.51.25,6.7,6.7,0,0,0-.61.42,6.42,6.42,0,0,0-.63.54,6.29,6.29,0,0,0-.57.59,4.44,4.44,0,0,0-.48.71,2.25,2.25,0,0,0-.21.57.87.87,0,0,0,0,.43.52.52,0,0,0,.18.29,1,1,0,0,0,.72.19,3.8,3.8,0,0,0,1.22-.31l.14-.19.15-.18a3.08,3.08,0,0,1,.59-.55,3.91,3.91,0,0,1,.63-.38,2.06,2.06,0,0,1,.57-.16.49.49,0,0,1,.38.07c.15.13.15.28,0,.46a4,4,0,0,1-.71.6,8,8,0,0,1-1.09.62,1.72,1.72,0,0,0-.43,1,.88.88,0,0,0,.27.66.78.78,0,0,0,.35.14,1.52,1.52,0,0,0,.59-.07,6.15,6.15,0,0,0,1-.35C173,36,173.51,35.73,174.09,35.43Z"/><path class="cls-4" d="M175.64,39.22a4.06,4.06,0,0,1-1.76.35,2.15,2.15,0,0,1-1.35-.5,1.55,1.55,0,0,1-.61-1.13,1.91,1.91,0,0,1,.52-1.32,4,4,0,0,1,1.1-.93,3.67,3.67,0,0,1,1.23-.45,3.12,3.12,0,0,1,1.22,0,2.61,2.61,0,0,1,1,.53,1.85,1.85,0,0,1,.4.45,1.79,1.79,0,0,1,.21.47,1.06,1.06,0,0,1,0,.43.66.66,0,0,1-.15.35.87.87,0,0,1-.17.16l.11.05c.18.16.17.36-.05.62a1.24,1.24,0,0,1-.29.26,2.73,2.73,0,0,1-.42.23,6.85,6.85,0,0,0-.62,1.34c-.2.58-.43,1.17-.69,1.8a3.36,3.36,0,0,1,.88,1.57,1.4,1.4,0,0,1-.25,1.2,2.22,2.22,0,0,1-1.39.73,4.59,4.59,0,0,1-2-.12,4,4,0,0,1-1.39.4,4.61,4.61,0,0,1-1.47-.11,6.06,6.06,0,0,1-1.5-.55,8.6,8.6,0,0,1-1.45-1,9,9,0,0,1-1.37-1.4,5.61,5.61,0,0,1-.81-1.38,2.84,2.84,0,0,1-.23-1.23,1.71,1.71,0,0,1,.38-1,2.33,2.33,0,0,1,1-.7,4.31,4.31,0,0,1,1.4-.25,7.18,7.18,0,0,1,1.68.15,11.74,11.74,0,0,1,1.85.56,13.85,13.85,0,0,1,1.9.93,13.1,13.1,0,0,1,1.82,1.29.45.45,0,0,1,.1.09l.09.08.1.08c.17-.39.32-.78.46-1.14S175.51,39.5,175.64,39.22ZM168.41,42a1.6,1.6,0,0,1-.11-.4.46.46,0,0,1,.09-.33.29.29,0,0,1,.2-.11.38.38,0,0,1,.24.09,3.26,3.26,0,0,0,.49,1.08,6.16,6.16,0,0,0,1.05,1.09,7.48,7.48,0,0,0,1.07.75,5.32,5.32,0,0,0,1,.48,3.51,3.51,0,0,0,.88-.77A6.4,6.4,0,0,0,174,43c.19-.33.37-.67.54-1l-.3-.3-.34-.3a11.72,11.72,0,0,0-2.46-1.59,10.11,10.11,0,0,0-2.43-.85,5.64,5.64,0,0,0-2.06-.09,2,2,0,0,0-1.34.66,1.31,1.31,0,0,0-.3.82,2.41,2.41,0,0,0,.23,1,5.5,5.5,0,0,0,.74,1.18,8.77,8.77,0,0,0,1.26,1.25A6.24,6.24,0,0,0,169.68,45a3.35,3.35,0,0,0,2,0,7.76,7.76,0,0,1-.9-.47,7,7,0,0,1-.85-.61,6.37,6.37,0,0,1-1-1A3.25,3.25,0,0,1,168.41,42Zm8.51-4.3a.49.49,0,0,1-.24-.23.64.64,0,0,0,.13-.26.72.72,0,0,0,0-.33.89.89,0,0,0-.1-.36,1.37,1.37,0,0,0-.3-.35,1.47,1.47,0,0,0-.69-.32,2.17,2.17,0,0,0-.84,0,3,3,0,0,0-.89.37,3,3,0,0,0-.82.71,1.6,1.6,0,0,0-.43.92.85.85,0,0,0,.34.73,1.79,1.79,0,0,0,1.16.3,4.52,4.52,0,0,0,1.85-.55,2.74,2.74,0,0,1,.41-.42A1.75,1.75,0,0,1,176.92,37.71Zm-1.65,6.6a1,1,0,0,0,.21-.71,2.15,2.15,0,0,0-.41-1c-.13.28-.28.56-.43.82a6.48,6.48,0,0,1-.53.73,4.26,4.26,0,0,1-.35.38c-.12.12-.25.22-.37.32a2.51,2.51,0,0,0,1.11-.08A1.69,1.69,0,0,0,175.27,44.31Z"/><path class="cls-4" d="M182.08,42.26a.85.85,0,0,1-.4.33.38.38,0,0,1-.31,0,2.65,2.65,0,0,1-.81.63c-.37.6-.38,1-.05,1.32a.88.88,0,0,0,.44.19,2,2,0,0,0,.65-.06,7.64,7.64,0,0,0,1-.34c.38-.16.84-.38,1.38-.67.21.18.19.35-.06.52a12,12,0,0,1-1.45.81,4.78,4.78,0,0,1-1.08.37,1.7,1.7,0,0,1-.81,0,1.5,1.5,0,0,1-.6-.31,1.28,1.28,0,0,1-.43-1.46,3.17,3.17,0,0,1-1.11,0,1.94,1.94,0,0,1-1-.43,1.52,1.52,0,0,1-.56-1.14,2.16,2.16,0,0,1,.61-1.46,3.44,3.44,0,0,1,1-.81,3.65,3.65,0,0,1,1.16-.44,3,3,0,0,1,1.19,0,2.33,2.33,0,0,1,1.05.5,2,2,0,0,1,.51.6,1.39,1.39,0,0,1,.19.63,1.49,1.49,0,0,1-.1.63A1.91,1.91,0,0,1,182.08,42.26Zm-.49-.44a1.09,1.09,0,0,0,.2-.83,1.25,1.25,0,0,0-.46-.73,1.65,1.65,0,0,0-.77-.36,2.11,2.11,0,0,0-.83,0,2.75,2.75,0,0,0-.82.34,2.93,2.93,0,0,0-.7.61,1.81,1.81,0,0,0-.49,1.07,1,1,0,0,0,.33.79,1.32,1.32,0,0,0,.79.27,2.68,2.68,0,0,0,1-.13l.12-.18.15-.2a2.63,2.63,0,0,1,.88-.73Q181.41,41.57,181.59,41.82Z"/><path class="cls-4" d="M187.63,46.69q.31.27-.06.51a13.66,13.66,0,0,1-1.47.84,4.92,4.92,0,0,1-1.1.41,2.09,2.09,0,0,1-.82,0,1.43,1.43,0,0,1-.61-.28,1.16,1.16,0,0,1-.45-1,2.33,2.33,0,0,1,.61-1.28,5.26,5.26,0,0,1,.67-.66,4.52,4.52,0,0,1,.9-.59,1.41,1.41,0,0,1-.73,0,1.28,1.28,0,0,1-.55-.26.8.8,0,0,1-.33-.61,1.2,1.2,0,0,1,.34-.79,2.5,2.5,0,0,1,.37-.36,2.31,2.31,0,0,1,.37-.24.84.84,0,0,1,.32-.1.31.31,0,0,1,.24.06c.15.13.11.34-.14.63-.08.1-.19.21-.32.35a5.8,5.8,0,0,1-.5.41.46.46,0,0,0,.17.24,1,1,0,0,0,.7.18,2.1,2.1,0,0,0,.94-.25.39.39,0,0,1,.19.1.48.48,0,0,1,.21.49c0,.1-.13.21-.32.31a6.54,6.54,0,0,0-1.82,1.47,1.47,1.47,0,0,0-.44.87.63.63,0,0,0,.19.51.69.69,0,0,0,.39.13,2,2,0,0,0,.65-.11,7.37,7.37,0,0,0,1-.38C186.61,47.2,187.08,47,187.63,46.69Z"/><path class="cls-5" d="M232.05,81.54c0,.15.09.32.13.5a.27.27,0,0,1,0,.2L221.08,73l.3-.35Z"/><path class="cls-5" d="M230,83l.24.8-10.72-8.91.29-.36Z"/><path class="cls-5" d="M228.22,84.55c-.13.06-.08.24,0,.64L218,76.69l.29-.36Z"/><path class="cls-5" d="M227.12,86.74c-.4,0-.61-.06-.69,0l-9.92-8.25.3-.36Z"/><path class="cls-5" d="M226.07,89l-.83-.09L215,80.35l.29-.35Z"/><path class="cls-6" d="M214.54,77.7A1.14,1.14,0,0,0,215,78a1,1,0,0,0,.43.07.93.93,0,0,0,.4-.09,1,1,0,0,0,.32-.26,1.1,1.1,0,0,0,.23-.44,1.2,1.2,0,0,0,0-.5,1.42,1.42,0,0,0-.21-.52,2,2,0,0,0-.46-.51,2.43,2.43,0,0,0-.8-.46,2.24,2.24,0,0,0-.8-.09,1.88,1.88,0,0,0-.73.22,2,2,0,0,0-.58.46,2.42,2.42,0,0,0-.44.82,2,2,0,0,0-.06.92,2.74,2.74,0,0,0,.36,1,3.58,3.58,0,0,0,.83.94,2.21,2.21,0,0,0,3.52-.29c.21-.26.41-.53.6-.8s.36-.54.53-.82l-.48-.24a3,3,0,0,1-.44-.29.47.47,0,0,1-.17-.25.31.31,0,0,1,.06-.23.23.23,0,0,1,.2-.1.8.8,0,0,0,.09.14l.15.15a3.19,3.19,0,0,0,.38.26l.43.21c.17-.28.34-.56.52-.81a8.27,8.27,0,0,1,.54-.74,2.4,2.4,0,0,1,.62-.58q.25-.14.39,0a.18.18,0,0,1,.06.14.38.38,0,0,1-.06.19.59.59,0,0,0-.33.15,2.53,2.53,0,0,0-.42.4c-.18.23-.36.46-.52.7s-.32.48-.47.74l.22.13.21.15a.81.81,0,0,1,.29.38.28.28,0,0,1,0,.27.36.36,0,0,1-.14.1.2.2,0,0,1-.13,0,.42.42,0,0,0-.1-.22,1.5,1.5,0,0,0-.25-.26l-.14-.1-.14-.09-.56.86a10,10,0,0,1-.68.89,3.46,3.46,0,0,1-.9.79,2.31,2.31,0,0,1-2.05.16,3.57,3.57,0,0,1-1.06-.63,4,4,0,0,1-.92-1,3.13,3.13,0,0,1-.39-1.12,2.41,2.41,0,0,1,.07-1.07,2.44,2.44,0,0,1,.5-.94,2.21,2.21,0,0,1,.71-.57,2.32,2.32,0,0,1,.89-.28,2.74,2.74,0,0,1,1,.09,2.67,2.67,0,0,1,1,.52,2.43,2.43,0,0,1,.53.6,1.68,1.68,0,0,1,.24.64,1.53,1.53,0,0,1,0,.64,1.63,1.63,0,0,1-.31.58,1.41,1.41,0,0,1-.47.38,1.33,1.33,0,0,1-.56.15,1.54,1.54,0,0,1-.59-.09,1.88,1.88,0,0,1-.58-.33,2.5,2.5,0,0,1-.32-.33,1.93,1.93,0,0,1-.23-.38,1.35,1.35,0,0,1-.09-.36.4.4,0,0,1,.08-.29.33.33,0,0,1,.2-.11.26.26,0,0,1,.21.1.29.29,0,0,0-.05.23,1,1,0,0,0,.08.3,1.81,1.81,0,0,0,.45.57Zm8.1-2.75c.1.09.1.2,0,.33a.55.55,0,0,1-.26.18.79.79,0,0,1-.38,0,1.37,1.37,0,0,1-.47-.14A2.88,2.88,0,0,1,221,75a4.23,4.23,0,0,1-.69-.72c-.2-.26-.38-.52-.56-.78s-.35-.52-.53-.77a4,4,0,0,0-.64-.67,2.33,2.33,0,0,0-.75-.45,1.57,1.57,0,0,0-.66-.08,1.13,1.13,0,0,0-.54.19,1.51,1.51,0,0,0-.4.35,1.46,1.46,0,0,0-.29.51,1.24,1.24,0,0,0,0,.54,1.34,1.34,0,0,0,.18.53,1.81,1.81,0,0,0,.41.48,1.78,1.78,0,0,0,.66.36,1.46,1.46,0,0,0,.68.07.15.15,0,0,1,0,.21.34.34,0,0,1-.17.11l-.28,0a2.4,2.4,0,0,1-.58-.12,2,2,0,0,1-1.11-.94,1.52,1.52,0,0,1-.2-.66,1.74,1.74,0,0,1,.08-.68,2,2,0,0,1,.37-.64,2.41,2.41,0,0,1,.56-.49,1.86,1.86,0,0,1,1.52-.16,2.63,2.63,0,0,1,.89.51,4.4,4.4,0,0,1,.67.7c.19.26.36.51.53.77s.35.51.53.77a4.29,4.29,0,0,0,.66.69A1.67,1.67,0,0,0,222,75,.82.82,0,0,0,222.64,75Z"/><path class="cls-6" d="M219.77,80.78a1.11,1.11,0,0,1-.26.25c-.07,0-.12,0-.16,0a3.14,3.14,0,0,1-.53.49c-.29.41-.35.67-.21.79a.28.28,0,0,0,.21,0,1.06,1.06,0,0,0,.36-.13,4.89,4.89,0,0,0,.57-.33c.23-.15.51-.35.84-.59.09.08,0,.18-.11.31-.35.29-.64.52-.89.69a4.75,4.75,0,0,1-.64.37,1,1,0,0,1-.44.11.43.43,0,0,1-.28-.1q-.3-.24,0-.81a1.84,1.84,0,0,1-.61.18.52.52,0,0,1-.61-.71,2.34,2.34,0,0,1,.53-1,4.62,4.62,0,0,1,.64-.61,3.19,3.19,0,0,1,.69-.42,1.85,1.85,0,0,1,.65-.17.67.67,0,0,1,.49.15.57.57,0,0,1,.2.29.81.81,0,0,1,0,.35,1.26,1.26,0,0,1-.14.38A2.63,2.63,0,0,1,219.77,80.78Zm-.2-.19a1,1,0,0,0,.22-.52.42.42,0,0,0-.15-.37.5.5,0,0,0-.36-.11,1.39,1.39,0,0,0-.46.13,2.55,2.55,0,0,0-.49.32,3.25,3.25,0,0,0-.46.45,2,2,0,0,0-.41.71q-.09.3.06.42a.48.48,0,0,0,.39.06,2.09,2.09,0,0,0,.56-.22l.09-.13.11-.13a3.36,3.36,0,0,1,.58-.57C219.42,80.52,219.53,80.51,219.57,80.59Z"/><path class="cls-7" d="M227.21,77.12a.35.35,0,0,1,.27-.14.59.59,0,0,1,.38.19.75.75,0,0,1,.32.49.58.58,0,0,1-.13.44,1,1,0,0,1-.31.24,1.32,1.32,0,0,1-.39.1,1,1,0,0,1-.38,0,.6.6,0,0,1-.3-.14.51.51,0,0,1-.2-.35.52.52,0,0,1,.14-.37.94.94,0,0,1,.52-.32.5.5,0,0,1,.08-.12Zm-.19.49a.28.28,0,0,0-.07.22.36.36,0,0,0,.14.21.41.41,0,0,0,.29.1.35.35,0,0,0,.27-.13.31.31,0,0,0,.06-.24.46.46,0,0,0-.18-.3l-.15-.09-.22.11A.87.87,0,0,0,227,77.61Z"/><path class="cls-5" d="M208,69.35a13.65,13.65,0,0,1,1.1,1.66.41.41,0,0,1-.24.59c-2.24.55-2,.05-.81,2a.39.39,0,0,1,0,.35.42.42,0,0,1-.26.25c-2.24.54-2,0-.81,2a.41.41,0,0,1-.24.59c-2.32.57-2.08,0-.81,2a.39.39,0,0,1,0,.35.42.42,0,0,1-.26.25c-2.24.54-2,0-.81,2a.41.41,0,0,1-.24.59c-2.24.55-2,0-.81,2a.38.38,0,0,1,0,.35.42.42,0,0,1-.26.25,12.13,12.13,0,0,1-2,.45L150.52,64.3,99.38,43.66A11.94,11.94,0,0,1,98.29,42a.38.38,0,0,1,0-.35.42.42,0,0,1,.26-.25c2.24-.54,2,0,.81-2a.38.38,0,0,1,0-.35.43.43,0,0,1,.26-.24c2.24-.54,2-.05.81-2a.38.38,0,0,1,0-.35.42.42,0,0,1,.26-.25c2.32-.56,2.08,0,.81-2a.41.41,0,0,1,0-.36.43.43,0,0,1,.26-.24c2.24-.54,2-.05.81-2a.41.41,0,0,1,.24-.59c2.24-.55,2-.05.81-2a.41.41,0,0,1,0-.36.43.43,0,0,1,.26-.24,12.64,12.64,0,0,1,1.94-.42l51.11,20.73Z"/><path class="cls-8" d="M128,50.25a.79.79,0,0,0,0-.67,3.29,3.29,0,0,0-.45-.73c-.2-.24-.42-.5-.66-.76a9,9,0,0,1-.65-.78,3,3,0,0,1-.43-.77,1,1,0,0,1,0-.73,1.67,1.67,0,0,1,.57-.79.66.66,0,0,1,.62-.13c.25.1.31.34.16.71a2.54,2.54,0,0,1-.25.44,3.94,3.94,0,0,1-.36.45,4.6,4.6,0,0,0,.77,1c.31.32.6.63.87,1a4.53,4.53,0,0,1,.64.95,1.26,1.26,0,0,1,.07,1A3,3,0,0,0,130,50a9,9,0,0,0,1.54-1.13c.31.12.37.3.16.53a5.75,5.75,0,0,1-1.62,1.22,3.28,3.28,0,0,1-1.64.36,1.84,1.84,0,0,1-1.06.4,3.08,3.08,0,0,1-1.45-.26,5.32,5.32,0,0,1-.94-.5,3.81,3.81,0,0,1-.76-.65,2.15,2.15,0,0,1-.45-.69.89.89,0,0,1,0-.66.54.54,0,0,1,.43-.34,1.4,1.4,0,0,1,.72.12,3.11,3.11,0,0,1,.67.38l.74.53a9.39,9.39,0,0,0,.8.55A4,4,0,0,0,128,50.25Zm-1.61.34a1.78,1.78,0,0,0,1,.14,4.36,4.36,0,0,1-.82-.45c-.26-.18-.51-.37-.74-.55l-.66-.51a2.57,2.57,0,0,0-.51-.31c-.14-.06-.22,0-.25,0a.37.37,0,0,0,.08.32,2,2,0,0,0,.38.43,3.69,3.69,0,0,0,.63.47A4.7,4.7,0,0,0,126.36,50.59Z"/><path class="cls-8" d="M130.87,46a2.28,2.28,0,0,0,.39.24l.54.24.38.14.36.11a4.93,4.93,0,0,1,1-1.24c.31-.25.58-.34.8-.24a.31.31,0,0,1,.18.26,1.37,1.37,0,0,1-.15.67,3,3,0,0,1-.19.41c-.08.14-.18.29-.29.45l.62.15a6.35,6.35,0,0,1,.65.23,2,2,0,0,1,.81.49.4.4,0,0,1,.13.42.28.28,0,0,1-.19.16.57.57,0,0,1-.29,0,2,2,0,0,0-.38-.31,4.44,4.44,0,0,0-.62-.31c-.19-.08-.37-.14-.55-.2l-.54-.14-.47.59-.6.67a8,8,0,0,0-.51,1.52,4.78,4.78,0,0,0-.12,1.11,1.47,1.47,0,0,0,.18.72.82.82,0,0,0,.37.35,1,1,0,0,0,.47,0,1.91,1.91,0,0,0,.66-.24,6,6,0,0,0,.94-.62c.37-.27.81-.64,1.33-1.08.31.13.36.3.16.53a14.1,14.1,0,0,1-1.26,1.17,4.83,4.83,0,0,1-1.08.69,2.54,2.54,0,0,1-.91.26,1.55,1.55,0,0,1-.73-.1,1.47,1.47,0,0,1-.64-.49,1.84,1.84,0,0,1-.33-.88,4.24,4.24,0,0,1,.06-1.3,9.27,9.27,0,0,1,.54-1.77c.11-.28.23-.54.34-.79s.22-.47.34-.7l-.44-.13-.47-.17a2,2,0,0,1-.69-.4c-.12-.13-.16-.25-.11-.36S130.7,45.94,130.87,46Z"/><path class="cls-8" d="M141.52,52.88c.31.13.36.31.15.53a5.67,5.67,0,0,1-1.36,1.09,5.4,5.4,0,0,1-1.44.57,4.81,4.81,0,0,1-1.4.11,4.26,4.26,0,0,1-1.23-.28,2.77,2.77,0,0,1-1.47-1.2,2.09,2.09,0,0,1,0-1.83,3,3,0,0,1,.72-1.07,3.18,3.18,0,0,1,1-.66,3.13,3.13,0,0,1,1.13-.24,2.87,2.87,0,0,1,1.13.21,1.85,1.85,0,0,1,.58.34,1.24,1.24,0,0,1,.32.42,1.1,1.1,0,0,1,.1.47,1.67,1.67,0,0,1-.11.48,1.52,1.52,0,0,1-.48.63,2,2,0,0,1-.73.36,2.47,2.47,0,0,1-.86.09,3.08,3.08,0,0,1-.85-.19,3.15,3.15,0,0,1-.64-.36,1.38,1.38,0,0,1-.43-.45l0,.08a1.64,1.64,0,0,0,0,1.42,1.91,1.91,0,0,0,1,.9,3.38,3.38,0,0,0,1,.22,3.65,3.65,0,0,0,1.16-.1,5.76,5.76,0,0,0,1.32-.51A8,8,0,0,0,141.52,52.88Zm-3.24-2.3a1.25,1.25,0,0,0-.55-.09,1.81,1.81,0,0,0-.6.11,2.55,2.55,0,0,0-.6.29,2.07,2.07,0,0,0-.5.43.75.75,0,0,0,.27.46,1.64,1.64,0,0,0,.57.36,2,2,0,0,0,.49.12,1.51,1.51,0,0,0,.52,0,1.3,1.3,0,0,0,.46-.22,1.07,1.07,0,0,0,.33-.44.9.9,0,0,0,0-.56A.66.66,0,0,0,138.28,50.58Z"/><path class="cls-8" d="M142.18,56.34a.8.8,0,0,0,.51,0,2.59,2.59,0,0,0,.62-.28,5,5,0,0,0,.62-.46,5.81,5.81,0,0,0,.54-.58,2.28,2.28,0,0,1,.15-1.24,1.71,1.71,0,0,1,.52-.75.58.58,0,0,1,.54-.13.49.49,0,0,1,.26.38,1.93,1.93,0,0,1-.2.92,3.58,3.58,0,0,1-.57,1,1.15,1.15,0,0,0,.33.46A1.66,1.66,0,0,0,146,56a1.46,1.46,0,0,0,.36.09,1,1,0,0,0,.42,0,1.69,1.69,0,0,0,.49-.19,2.82,2.82,0,0,0,.56-.4c.32.12.37.3.16.53a2,2,0,0,1-.59.45,2.24,2.24,0,0,1-.62.2,2.26,2.26,0,0,1-.58,0,2.89,2.89,0,0,1-.49-.13,1.78,1.78,0,0,1-.93-.79,6.78,6.78,0,0,1-.74.68,4.19,4.19,0,0,1-.77.5,2.75,2.75,0,0,1-.78.26,1.35,1.35,0,0,1-.7-.07,1.69,1.69,0,0,1-.82-.69,2.88,2.88,0,0,1-.35-1.06,4.55,4.55,0,0,1,0-1.22,5.6,5.6,0,0,1,.31-1.14,1.72,1.72,0,0,1,.47-.71.48.48,0,0,1,.51-.13c.25.1.3.34.14.72a2.58,2.58,0,0,1-.47.72,4.88,4.88,0,0,0-.13,1.12,3.26,3.26,0,0,0,.09.82,1.66,1.66,0,0,0,.27.55A.92.92,0,0,0,142.18,56.34Z"/><path class="cls-8" d="M147.7,59.34a1.66,1.66,0,0,1-.93-.89,2.09,2.09,0,0,1,.14-1.63,3.65,3.65,0,0,1,.24-.49c.11-.17.22-.34.34-.5a4.14,4.14,0,0,1,.37-.46,2.77,2.77,0,0,1,.36-.34,1.4,1.4,0,0,1,.41-.2.67.67,0,0,1,.43.05.65.65,0,0,1,.32.23,4.28,4.28,0,0,0-.85.91,5.71,5.71,0,0,0-.58,1.06,1.79,1.79,0,0,0-.16,1.1.8.8,0,0,0,.5.57.86.86,0,0,0,.46,0,1.8,1.8,0,0,0,.63-.24,5.78,5.78,0,0,0,.89-.6c.34-.26.75-.61,1.24-1,.31.12.36.3.15.53a13.52,13.52,0,0,1-1.23,1.15,5.24,5.24,0,0,1-1,.65,2.23,2.23,0,0,1-.89.22A2,2,0,0,1,147.7,59.34Zm1.72-7.85a.49.49,0,0,1,.45-.3,2.3,2.3,0,0,1,1,.22,2.61,2.61,0,0,1,1.16.77.79.79,0,0,1,.16.79,1,1,0,0,1-.43.48,2.43,2.43,0,0,1-.7.27,3.18,3.18,0,0,1-.82.05,2.13,2.13,0,0,1-.78-.17,1.58,1.58,0,0,1-.77-.55.65.65,0,0,1-.08-.67,1.2,1.2,0,0,1,.79-.67A.51.51,0,0,1,149.42,51.49Zm.09.88a.37.37,0,0,0,.07.4,1.34,1.34,0,0,0,.49.32,1.39,1.39,0,0,0,.72.1.49.49,0,0,0,.45-.28.5.5,0,0,0-.12-.43,1.43,1.43,0,0,0-.67-.46,2.34,2.34,0,0,0-.4-.12,1.39,1.39,0,0,0-.37.23A.71.71,0,0,0,149.51,52.37Z"/><path class="cls-8" d="M156.08,58.93a.89.89,0,0,1-.3.43.43.43,0,0,1-.35,0,2.26,2.26,0,0,1-.63.83c-.15.69,0,1.14.51,1.34a1.25,1.25,0,0,0,.55.07,1.82,1.82,0,0,0,.7-.21,7.29,7.29,0,0,0,.91-.58c.35-.25.76-.59,1.23-1,.31.12.36.3.15.53a11.36,11.36,0,0,1-1.24,1.16,4.93,4.93,0,0,1-1,.65,2.16,2.16,0,0,1-.89.19,2.19,2.19,0,0,1-.8-.16,1.59,1.59,0,0,1-1.09-1.37,3.6,3.6,0,0,1-1.2.32,2.61,2.61,0,0,1-1.26-.19,1.86,1.86,0,0,1-1.05-2.62A3.2,3.2,0,0,1,151,57.3a3.49,3.49,0,0,1,1.1-.72,3.57,3.57,0,0,1,1.3-.29,3.25,3.25,0,0,1,1.37.24,2.91,2.91,0,0,1,.82.48,1.83,1.83,0,0,1,.47.59,1.36,1.36,0,0,1,.16.65A1.84,1.84,0,0,1,156.08,58.93Zm-.73-.32a1.07,1.07,0,0,0-.13-.88,1.74,1.74,0,0,0-.82-.62,2.37,2.37,0,0,0-1-.17,2.53,2.53,0,0,0-.91.22,2.47,2.47,0,0,0-.75.54,2.51,2.51,0,0,0-.51.78,1.62,1.62,0,0,0-.08,1.19,1.2,1.2,0,0,0,.7.71,1.8,1.8,0,0,0,1,.09,3.2,3.2,0,0,0,1-.38l.06-.22c0-.07,0-.15.09-.23a2.07,2.07,0,0,1,.65-1A.53.53,0,0,1,155.35,58.61Z"/><path class="cls-7" d="M207.74,73.17l.28.43a.29.29,0,0,1,0,.2L194.7,68.39l.18-.43Z"/><path class="cls-7" d="M206.27,75.14c.11.17.27.39.46.69L193.81,70.6l.17-.43Z"/><path class="cls-7" d="M205,77.2c-.1.1,0,.25.24.6l-12.33-5,.17-.43Z"/><path class="cls-7" d="M204.62,79.62c-.39.08-.59.13-.64.23L192,75l.18-.43Z"/><path class="cls-7" d="M204.31,82.06l-.82.17-12.36-5,.17-.42Z"/><path class="cls-8" d="M190.15,75.11a2,2,0,0,0,.57.15,1.36,1.36,0,0,0,.5,0,1,1,0,0,0,.39-.19.71.71,0,0,0,.25-.34.92.92,0,0,0,.07-.49,1.35,1.35,0,0,0-.2-.51,1.65,1.65,0,0,0-.45-.47,2.71,2.71,0,0,0-.72-.4,3.27,3.27,0,0,0-1.07-.26,2.68,2.68,0,0,0-.92.1,1.9,1.9,0,0,0-.71.4,1.73,1.73,0,0,0-.44.61,2.09,2.09,0,0,0-.14.92,2.13,2.13,0,0,0,.33.94,3.5,3.5,0,0,0,.81.89,5.44,5.44,0,0,0,1.32.74,3.43,3.43,0,0,0,2.36.27A2.29,2.29,0,0,0,193.47,76a7,7,0,0,0,.32-.94c.09-.32.16-.64.24-1L193.4,74a3.31,3.31,0,0,1-.61-.19.62.62,0,0,1-.29-.21.26.26,0,0,1,0-.24c0-.1.1-.15.17-.14l.16.11.23.11a3.27,3.27,0,0,0,.53.17l.56.1c.07-.32.14-.63.22-.94a6.34,6.34,0,0,1,.29-.87,2,2,0,0,1,.43-.73.41.41,0,0,1,.42-.12.2.2,0,0,1,.12.12.27.27,0,0,1,0,.2.67.67,0,0,0-.29.24,1.78,1.78,0,0,0-.29.5,6.68,6.68,0,0,0-.27.83c-.08.27-.15.56-.21.86l.3.07.29.1a1.09,1.09,0,0,1,.48.31.26.26,0,0,1,.06.28.3.3,0,0,1-.11.14.23.23,0,0,1-.14,0,.53.53,0,0,0-.2-.2,2.36,2.36,0,0,0-.39-.19l-.19-.07-.2-.06c-.07.33-.15.67-.25,1a8.86,8.86,0,0,1-.36,1.06,2.69,2.69,0,0,1-.66,1,2.46,2.46,0,0,1-1,.56,3,3,0,0,1-1.22.11,5.25,5.25,0,0,1-1.43-.38,5.64,5.64,0,0,1-1.46-.83,4.08,4.08,0,0,1-.91-1,2.69,2.69,0,0,1-.38-1.09,2.13,2.13,0,0,1,.15-1.06,1.94,1.94,0,0,1,.54-.75,2.38,2.38,0,0,1,.86-.5,3.34,3.34,0,0,1,1.12-.15,4,4,0,0,1,1.28.29,3.46,3.46,0,0,1,.83.47,2.28,2.28,0,0,1,.54.59,1.59,1.59,0,0,1,.23.65,1.39,1.39,0,0,1-.1.66,1.3,1.3,0,0,1-.35.48,1.39,1.39,0,0,1-.55.29,1.94,1.94,0,0,1-.69.06,2.61,2.61,0,0,1-.78-.19,3.23,3.23,0,0,1-.49-.25,2,2,0,0,1-.41-.33,1.14,1.14,0,0,1-.26-.34.33.33,0,0,1,0-.3.27.27,0,0,1,.17-.16.35.35,0,0,1,.27,0,.3.3,0,0,0,0,.25,1.31,1.31,0,0,0,.22.27,2.38,2.38,0,0,0,.34.27A2.14,2.14,0,0,0,190.15,75.11Zm7.73-4.74a.23.23,0,0,1,.14.33.52.52,0,0,1-.22.25.9.9,0,0,1-.4.12,2,2,0,0,1-.58,0,3,3,0,0,1-.74-.22,5.67,5.67,0,0,1-1.07-.55c-.33-.21-.64-.43-.95-.65l-.91-.63a5.47,5.47,0,0,0-1-.52,3.5,3.5,0,0,0-1-.26,1.8,1.8,0,0,0-.76.08,1.2,1.2,0,0,0-.52.32,1.46,1.46,0,0,0-.29.44,1.24,1.24,0,0,0-.09.59,1.47,1.47,0,0,0,.18.56,1.86,1.86,0,0,0,.42.48,2.92,2.92,0,0,0,.65.38,2.66,2.66,0,0,0,.89.2,2,2,0,0,0,.78-.1.16.16,0,0,1,.06.22.24.24,0,0,1-.14.14,1.21,1.21,0,0,1-.29.1,3,3,0,0,1-.69,0,2.87,2.87,0,0,1-.83-.2,2.82,2.82,0,0,1-.8-.47,1.93,1.93,0,0,1-.5-.62,1.57,1.57,0,0,1-.2-.7,1.67,1.67,0,0,1,.13-.72,2,2,0,0,1,.41-.63,1.63,1.63,0,0,1,.68-.42,2.42,2.42,0,0,1,.93-.12,3.77,3.77,0,0,1,1.19.3,5.67,5.67,0,0,1,1,.54c.31.2.61.42.91.64s.6.43.91.63a5.49,5.49,0,0,0,1,.54,2.52,2.52,0,0,0,1,.2A.91.91,0,0,0,197.88,70.37Z"/><path class="cls-8" d="M197.21,76.91a.81.81,0,0,1-.18.32.2.2,0,0,1-.17.06,2.54,2.54,0,0,1-.37.62c-.14.48-.1.75.1.84a.36.36,0,0,0,.25,0,1,1,0,0,0,.35-.22,6.65,6.65,0,0,0,.48-.47c.19-.21.41-.47.67-.8.13.06.14.17,0,.34-.26.37-.49.68-.69.91a3.75,3.75,0,0,1-.55.53,1,1,0,0,1-.43.22.72.72,0,0,1-.36,0c-.28-.12-.4-.39-.37-.81a1.82,1.82,0,0,1-.59.33.8.8,0,0,1-.57,0,.71.71,0,0,1-.41-.56,2,2,0,0,1,.18-1.09,3.66,3.66,0,0,1,.44-.77,3,3,0,0,1,.58-.6,2,2,0,0,1,.64-.32.91.91,0,0,1,.61,0,.83.83,0,0,1,.5.58,1.24,1.24,0,0,1,0,.43A1.59,1.59,0,0,1,197.21,76.91Zm-.31-.14a.88.88,0,0,0,0-.57.54.54,0,0,0-.32-.34.69.69,0,0,0-.45,0,1.13,1.13,0,0,0-.44.24,2.11,2.11,0,0,0-.41.43,3.15,3.15,0,0,0-.31.57,1.8,1.8,0,0,0-.16.81.48.48,0,0,0,.26.41.57.57,0,0,0,.45,0,1.64,1.64,0,0,0,.52-.35.88.88,0,0,1,.05-.15l.06-.16a2.52,2.52,0,0,1,.4-.71C196.72,76.74,196.82,76.7,196.9,76.77Z"/><path class="cls-3" d="M201.79,70.43a.31.31,0,0,1,.22-.21.57.57,0,0,1,.41,0,.79.79,0,0,1,.46.38.61.61,0,0,1,0,.46,1,1,0,0,1-.23.32,1.15,1.15,0,0,1-.33.21,1,1,0,0,1-.37.1.72.72,0,0,1-.33,0,.51.51,0,0,1-.3-.27.56.56,0,0,1,0-.4.94.94,0,0,1,.4-.46.57.57,0,0,1,0-.14Zm0,.52a.23.23,0,0,0,0,.23.34.34,0,0,0,.19.16.47.47,0,0,0,.31,0,.38.38,0,0,0,.22-.21.32.32,0,0,0,0-.25.45.45,0,0,0-.26-.22.47.47,0,0,0-.17,0,1,1,0,0,0-.18.17A.6.6,0,0,0,201.76,71Z"/><rect class="cls-4" x="102.96" y="104.68" width="12.04" height="0.47"/><rect class="cls-4" x="102.96" y="107.08" width="12.04" height="0.47"/><rect class="cls-4" x="102.96" y="109.48" width="12.04" height="0.47"/><rect class="cls-4" x="102.96" y="111.88" width="12.04" height="0.47"/><rect class="cls-4" x="102.96" y="114.28" width="12.04" height="0.47"/><path class="cls-8" d="M101.15,113.21a2.47,2.47,0,0,0,.63-.08,1.85,1.85,0,0,0,.49-.22,1.24,1.24,0,0,0,.32-.33.88.88,0,0,0,0-.9,1.27,1.27,0,0,0-.4-.4,2.37,2.37,0,0,0-.64-.27,3.46,3.46,0,0,0-.89-.1,3.64,3.64,0,0,0-1.19.17,2.69,2.69,0,0,0-.88.44,2,2,0,0,0-.56.63,1.66,1.66,0,0,0-.19.74,1.89,1.89,0,0,0,.24.92,2.39,2.39,0,0,0,.71.75,3.89,3.89,0,0,0,1.18.52,6.08,6.08,0,0,0,1.63.19,4,4,0,0,0,2.49-.64,2.23,2.23,0,0,0,.8-1.85,6.63,6.63,0,0,0-.07-1c0-.33-.09-.66-.15-1-.23,0-.45.09-.68.12a3.93,3.93,0,0,1-.69.06.67.67,0,0,1-.38-.09.24.24,0,0,1-.13-.22.19.19,0,0,1,.12-.2.54.54,0,0,0,.21,0l.27,0a3,3,0,0,0,.6-.05,6,6,0,0,0,.61-.11c-.06-.33-.12-.65-.16-1a5.79,5.79,0,0,1-.07-.92,2,2,0,0,1,.14-.85.43.43,0,0,1,.37-.27.24.24,0,0,1,.18.07.26.26,0,0,1,.09.18.65.65,0,0,0-.21.33,1.93,1.93,0,0,0-.08.58,6.4,6.4,0,0,0,.06.88c0,.28.09.58.14.88l.34,0,.33,0a1.26,1.26,0,0,1,.61.1q.18.1.18.24a.34.34,0,0,1,0,.17.22.22,0,0,1-.13.09.63.63,0,0,0-.28-.1,2.33,2.33,0,0,0-.48,0h-.22l-.22,0c.06.34.11.68.16,1a9.9,9.9,0,0,1,.07,1.12,2.71,2.71,0,0,1-.26,1.2,2.44,2.44,0,0,1-.74.89,3.36,3.36,0,0,1-1.19.55,5.83,5.83,0,0,1-1.58.2,6.58,6.58,0,0,1-1.81-.23,4.26,4.26,0,0,1-1.34-.61,2.73,2.73,0,0,1-.83-.87,2.12,2.12,0,0,1-.28-1.05,2,2,0,0,1,.23-.91,2.52,2.52,0,0,1,.68-.79,3.66,3.66,0,0,1,1.06-.56,4.34,4.34,0,0,1,1.4-.21,4.13,4.13,0,0,1,1,.12,2.79,2.79,0,0,1,.78.34,1.64,1.64,0,0,1,.49.53,1.24,1.24,0,0,1,.17.65,1.2,1.2,0,0,1-.15.59,1.51,1.51,0,0,1-.44.47,2.45,2.45,0,0,1-.67.32,3,3,0,0,1-.87.12,4,4,0,0,1-.59,0,3.63,3.63,0,0,1-.55-.15,1.43,1.43,0,0,1-.39-.22.36.36,0,0,1-.16-.28.26.26,0,0,1,.1-.21.45.45,0,0,1,.3-.06.26.26,0,0,0,.14.21,1.29,1.29,0,0,0,.33.18,2.44,2.44,0,0,0,.45.12A4,4,0,0,0,101.15,113.21Zm5.85-7.35c.18,0,.28.09.28.26a.48.48,0,0,1-.12.3,1,1,0,0,1-.36.28,2.84,2.84,0,0,1-.6.19,4,4,0,0,1-.83.07,6.77,6.77,0,0,1-1.3-.11c-.42-.07-.82-.16-1.22-.25s-.79-.17-1.18-.24a6,6,0,0,0-1.2-.12,4,4,0,0,0-1.13.14,2,2,0,0,0-.73.36,1.18,1.18,0,0,0-.39.49,1.36,1.36,0,0,0-.12.54,1.17,1.17,0,0,0,.15.58,1.45,1.45,0,0,0,.41.45,2.09,2.09,0,0,0,.62.29,3,3,0,0,0,.81.11,3.05,3.05,0,0,0,1-.15,2,2,0,0,0,.74-.39.18.18,0,0,1,.16.18.26.26,0,0,1-.09.19,1,1,0,0,1-.26.2,3,3,0,0,1-.68.28,3,3,0,0,1-.92.13,3.45,3.45,0,0,1-1-.14,2.41,2.41,0,0,1-.75-.38,1.69,1.69,0,0,1-.48-.59,1.59,1.59,0,0,1-.17-.72,1.76,1.76,0,0,1,.16-.74,1.63,1.63,0,0,1,.5-.65,2.81,2.81,0,0,1,.9-.46,4.25,4.25,0,0,1,1.32-.18,6.41,6.41,0,0,1,1.26.12c.4.07.79.16,1.18.25l1.17.25a7.27,7.27,0,0,0,1.25.11,2.91,2.91,0,0,0,1.08-.18A1,1,0,0,0,107,105.86Z"/><path class="cls-8" d="M109,112.22a.75.75,0,0,1-.06.36.18.18,0,0,1-.14.13,2.38,2.38,0,0,1-.13.71q.09.75.45.75a.36.36,0,0,0,.25-.1.94.94,0,0,0,.26-.33,5.22,5.22,0,0,0,.3-.62c.1-.27.22-.6.35-1,.15,0,.21.1.16.31-.12.45-.23.81-.33,1.11a4.23,4.23,0,0,1-.33.7,1.14,1.14,0,0,1-.35.37.74.74,0,0,1-.37.1c-.34,0-.57-.2-.71-.61a1.82,1.82,0,0,1-.46.53.85.85,0,0,1-.57.22.8.8,0,0,1-.65-.37,1.93,1.93,0,0,1-.26-1.09,3.29,3.29,0,0,1,.13-.88,3.07,3.07,0,0,1,.34-.78,2,2,0,0,1,.51-.54A1.08,1.08,0,0,1,108,111a.94.94,0,0,1,.43.1.79.79,0,0,1,.31.26,1.22,1.22,0,0,1,.18.4A1.86,1.86,0,0,1,109,112.22Zm-.37,0a.84.84,0,0,0-.21-.54.59.59,0,0,0-.46-.19.72.72,0,0,0-.45.15,1.35,1.35,0,0,0-.36.39,2.62,2.62,0,0,0-.23.56,2.82,2.82,0,0,0-.08.65,1.58,1.58,0,0,0,.17.81.51.51,0,0,0,.42.29.63.63,0,0,0,.44-.21,1.64,1.64,0,0,0,.38-.53s0-.1,0-.16v-.17a2.26,2.26,0,0,1,.11-.81C108.42,112.24,108.52,112.17,108.63,112.2Z"/><path class="cls-3" d="M110.34,104.37a.33.33,0,0,1,.13-.28.63.63,0,0,1,.41-.11.77.77,0,0,1,.56.18.58.58,0,0,1,.18.43.85.85,0,0,1-.09.38,1.19,1.19,0,0,1-.22.33,1.14,1.14,0,0,1-.31.23.68.68,0,0,1-.32.09.48.48,0,0,1-.38-.15.52.52,0,0,1-.14-.38,1,1,0,0,1,.2-.58.78.78,0,0,1,0-.14Zm.17.5a.28.28,0,0,0,.09.22.36.36,0,0,0,.24.07.46.46,0,0,0,.29-.11.35.35,0,0,0,.13-.28.33.33,0,0,0-.11-.22.44.44,0,0,0-.33-.11.5.5,0,0,0-.17,0,1,1,0,0,0-.11.23A.57.57,0,0,0,110.51,104.87Z"/><rect class="cls-4" x="172.66" y="150.96" width="20.08" height="3.86" rx="1.52"/><path class="cls-3" d="M213.89,116a8.71,8.71,0,0,0-1.27.3,42.44,42.44,0,0,0-.52-5.92c.32-.08.64-.14,1-.2,8.24-1.4,15.76,3.37,16.76,10s-5.07,13.54-13.31,14.95a16.62,16.62,0,0,1-7.71-.46,39.87,39.87,0,0,0,2.13-5.63,9.83,9.83,0,0,0,5,.4c4.62-.79,7.91-4.43,7.35-8.14S218.51,115.21,213.89,116Z"/><path class="cls-7" d="M211.87,106.7a42.76,42.76,0,0,1,1.14,9.84c0,20-13.6,36.19-30.37,36.19s-30.36-16.2-30.36-36.19a42.76,42.76,0,0,1,1.14-9.84Z"/><rect class="cls-4" x="186.3" y="106.7" width="0.47" height="12.04"/><rect class="cls-4" x="188.7" y="106.7" width="0.47" height="12.04"/><rect class="cls-4" x="191.1" y="106.7" width="0.47" height="12.04"/><rect class="cls-4" x="193.5" y="106.7" width="0.47" height="12.04"/><rect class="cls-4" x="195.9" y="106.7" width="0.47" height="12.04"/><path class="cls-8" d="M187.48,114.71c0-.19.09-.28.26-.28a.51.51,0,0,1,.31.12,1,1,0,0,1,.27.35,2.5,2.5,0,0,1,.19.6,4.13,4.13,0,0,1,.08.84,6.83,6.83,0,0,1-.12,1.3c-.07.41-.15.82-.24,1.21s-.17.79-.25,1.18a6.81,6.81,0,0,0-.11,1.21,3.71,3.71,0,0,0,.14,1.13,2.26,2.26,0,0,0,.35.73,1.39,1.39,0,0,0,.5.39,1.48,1.48,0,0,0,.53.11,1.17,1.17,0,0,0,.58-.15,1.23,1.23,0,0,0,.45-.4,1.67,1.67,0,0,0,.29-.63,2.88,2.88,0,0,0,.11-.81,3.34,3.34,0,0,0-.14-1,2.09,2.09,0,0,0-.4-.74.17.17,0,0,1,.19-.16.31.31,0,0,1,.19.08,1.76,1.76,0,0,1,.19.26,3.25,3.25,0,0,1,.29.69,3.31,3.31,0,0,1,.12.92,3.08,3.08,0,0,1-.14,1,2.35,2.35,0,0,1-.38.76,1.75,1.75,0,0,1-.58.48,1.63,1.63,0,0,1-.73.17,1.93,1.93,0,0,1-.74-.16,1.84,1.84,0,0,1-.65-.51,2.76,2.76,0,0,1-.46-.89,4.67,4.67,0,0,1-.17-1.33,7.29,7.29,0,0,1,.11-1.26c.08-.39.16-.79.25-1.18s.18-.77.25-1.17a6.24,6.24,0,0,0,.12-1.25,2.81,2.81,0,0,0-.19-1.07A1,1,0,0,0,187.48,114.71Zm7.35,5.85a2.09,2.09,0,0,0-.08-.63,1.52,1.52,0,0,0-.22-.5,1,1,0,0,0-.33-.31.75.75,0,0,0-.41-.12.92.92,0,0,0-.48.14,1.3,1.3,0,0,0-.41.4,2.45,2.45,0,0,0-.27.65,3.9,3.9,0,0,0-.1.89,4,4,0,0,0,.17,1.19,2.9,2.9,0,0,0,.44.88,2.07,2.07,0,0,0,.64.55,1.5,1.5,0,0,0,.73.19,2,2,0,0,0,.92-.23,2.32,2.32,0,0,0,.76-.71,3.89,3.89,0,0,0,.51-1.18,6.11,6.11,0,0,0,.2-1.63,4,4,0,0,0-.64-2.49,2.23,2.23,0,0,0-1.86-.8,8.39,8.39,0,0,0-1,.06l-1,.15c.05.23.09.46.13.68a5.34,5.34,0,0,1,0,.69.81.81,0,0,1-.08.39.27.27,0,0,1-.22.13.18.18,0,0,1-.2-.12.81.81,0,0,0,.05-.21,2.53,2.53,0,0,0,0-.28,4,4,0,0,0,0-.6c0-.2-.07-.4-.11-.6l-1,.16a7.12,7.12,0,0,1-.92.07,1.8,1.8,0,0,1-.84-.15.43.43,0,0,1-.28-.37.28.28,0,0,1,.07-.17.31.31,0,0,1,.19-.09.64.64,0,0,0,.33.2,1.89,1.89,0,0,0,.58.08,6.36,6.36,0,0,0,.87-.06c.29,0,.58-.08.88-.14,0-.11,0-.22,0-.33s0-.23,0-.34a1.43,1.43,0,0,1,.1-.61.28.28,0,0,1,.25-.17.24.24,0,0,1,.16,0,.31.31,0,0,1,.1.13.57.57,0,0,0-.11.28,3.17,3.17,0,0,0,0,.47c0,.08,0,.15,0,.22l0,.23c.33-.07.67-.12,1-.16a7.92,7.92,0,0,1,1.12-.07,2.7,2.7,0,0,1,1.19.25,2.37,2.37,0,0,1,.89.75,3.5,3.5,0,0,1,.56,1.18,6,6,0,0,1,.19,1.59,6.63,6.63,0,0,1-.23,1.81,4.42,4.42,0,0,1-.6,1.33,2.75,2.75,0,0,1-.88.83,2.08,2.08,0,0,1-1,.29,1.84,1.84,0,0,1-.9-.24,2.38,2.38,0,0,1-.79-.67,3.55,3.55,0,0,1-.56-1.06,4.39,4.39,0,0,1-.22-1.41,3.63,3.63,0,0,1,.13-1,2.33,2.33,0,0,1,.34-.78,1.64,1.64,0,0,1,.52-.5,1.34,1.34,0,0,1,.65-.17,1.09,1.09,0,0,1,.59.16,1.53,1.53,0,0,1,.48.44,2.31,2.31,0,0,1,.31.67,2.88,2.88,0,0,1,.12.86,4.16,4.16,0,0,1-.05.6,2.13,2.13,0,0,1-.15.54,1.26,1.26,0,0,1-.22.4.34.34,0,0,1-.27.15.24.24,0,0,1-.21-.1.33.33,0,0,1-.06-.29.29.29,0,0,0,.21-.14,1.53,1.53,0,0,0,.17-.34,2.55,2.55,0,0,0,.12-.44A2.77,2.77,0,0,0,194.83,120.56Z"/><path class="cls-8" d="M193.85,112.71a1,1,0,0,1,.36.05.22.22,0,0,1,.12.15,2.46,2.46,0,0,1,.72.12c.5,0,.74-.2.74-.45a.45.45,0,0,0-.09-.25,1.4,1.4,0,0,0-.33-.26,6.71,6.71,0,0,0-.63-.29c-.26-.11-.59-.22-1-.35,0-.16.11-.21.31-.16a9.72,9.72,0,0,1,1.11.33,3.87,3.87,0,0,1,.7.33,1,1,0,0,1,.37.35.72.72,0,0,1,.11.37c0,.33-.21.57-.61.7a2.14,2.14,0,0,1,.53.46.92.92,0,0,1,.21.58.74.74,0,0,1-.37.64,1.89,1.89,0,0,1-1.08.26,3.3,3.3,0,0,1-.89-.12,2.87,2.87,0,0,1-.77-.35,1.8,1.8,0,0,1-.55-.51,1.09,1.09,0,0,1-.2-.62,1,1,0,0,1,.09-.44,1,1,0,0,1,.27-.3,1.17,1.17,0,0,1,.39-.18A1.88,1.88,0,0,1,193.85,112.71Zm0,.37a1,1,0,0,0-.55.2.64.64,0,0,0-.19.46.77.77,0,0,0,.15.46,1.25,1.25,0,0,0,.4.35,1.78,1.78,0,0,0,.56.23,2.37,2.37,0,0,0,.65.09,1.52,1.52,0,0,0,.81-.18.48.48,0,0,0,.28-.42.67.67,0,0,0-.21-.44,1.94,1.94,0,0,0-.52-.38h-.34a2.4,2.4,0,0,1-.8-.11C193.87,113.28,193.79,113.19,193.83,113.08Z"/><path class="cls-3" d="M186,111.36a.35.35,0,0,1-.28-.12.65.65,0,0,1-.1-.41.8.8,0,0,1,.18-.57.56.56,0,0,1,.42-.18.85.85,0,0,1,.38.09,1.14,1.14,0,0,1,.33.23.93.93,0,0,1,.23.3.71.71,0,0,1,.09.33.52.52,0,0,1-.14.38.53.53,0,0,1-.38.13.89.89,0,0,1-.58-.2.39.39,0,0,1-.15,0Zm.5-.17a.27.27,0,0,0,.22-.09.36.36,0,0,0,.07-.24.38.38,0,0,0-.11-.28.32.32,0,0,0-.27-.13.31.31,0,0,0-.23.11.45.45,0,0,0-.11.33,1.11,1.11,0,0,0,0,.17,1.07,1.07,0,0,0,.23.1Z"/><circle class="cls-9" cx="68.58" cy="108.94" r="14.85"/><path class="cls-3" d="M84.76,100.19l15.56-18.08a23.69,23.69,0,0,1,4.47,5.11,24.16,24.16,0,0,1,2.84,6.17Z"/><path class="cls-3" d="M169.73,69.27l7.85-8.63A11.74,11.74,0,0,1,181,66.25Z"/><path class="cls-5" d="M198.67,66.75l7.85-8.63a11.61,11.61,0,0,1,2.12,2.56,11.93,11.93,0,0,1,1.3,3Z"/></g></g></svg>