<svg xmlns="http://www.w3.org/2000/svg" viewBox="0 0 255.12 170.08"><defs><style>.cls-1{fill:#ddd3ce;}.cls-2,.cls-8{fill:none;}.cls-2{stroke:#fff;stroke-miterlimit:22.93;stroke-width:1.2px;}.cls-3,.cls-5{fill:#f06859;}.cls-3,.cls-7{fill-rule:evenodd;}.cls-4,.cls-7{fill:#9bd3c9;}.cls-6,.cls-9{fill:#fff;}.cls-6{stroke:#f06859;}.cls-6,.cls-8{stroke-miterlimit:10;}.cls-8{stroke:#9bd3c9;}</style></defs><g id="Layer_2" data-name="Layer 2"><g id="Layer_1-2" data-name="Layer 1"><rect class="cls-1" width="255.12" height="170.08"/><rect class="cls-2" x="22.26" y="25.09" width="80.4" height="109.52"/><path class="cls-3" d="M17.52,133.73H107.4a3.28,3.28,0,0,1,3.14,2.35l2.92,8.91h-102l2.91-8.91A3.3,3.3,0,0,1,17.52,133.73Z"/><rect class="cls-4" x="37.26" y="31.84" width="50.4" height="96"/><path class="cls-5" d="M56.87,39.88l-.53.06a5.24,5.24,0,0,1-.57,0,5.43,5.43,0,0,1-1.14-.1,3,3,0,0,1-.81-.3,1.37,1.37,0,0,1-.48-.44,1.1,1.1,0,0,1-.16-.56,1.08,1.08,0,0,1,.21-.63,2.25,2.25,0,0,1,.57-.59,4.43,4.43,0,0,1,.87-.5,7.16,7.16,0,0,1,1.11-.41,9.65,9.65,0,0,1,1.28-.26,10.74,10.74,0,0,1,1.4-.09,8,8,0,0,1,1.82.17,4.42,4.42,0,0,1,1.24.46,2,2,0,0,1,.72.64,1.36,1.36,0,0,1,.23.72,1.33,1.33,0,0,1-.23.71,3.11,3.11,0,0,1-.64.68,5.28,5.28,0,0,1-1,.58,7.16,7.16,0,0,1-1.26.44,3.69,3.69,0,0,1,1.42.57,1.11,1.11,0,0,1,.52.9,1.26,1.26,0,0,1-.26.74,2.35,2.35,0,0,1-.72.62,4.51,4.51,0,0,1-1.13.43,6.5,6.5,0,0,1-1.45.16,4,4,0,0,1-.95-.1,2.67,2.67,0,0,1-.74-.25,1.49,1.49,0,0,1-.49-.38.72.72,0,0,1-.17-.45.8.8,0,0,1,.09-.36,1.12,1.12,0,0,1,.27-.32,1.66,1.66,0,0,1,.43-.27,2.32,2.32,0,0,1,.58-.18v-.43c0-.14,0-.29,0-.43a1.35,1.35,0,0,1-.41-.1c-.08,0-.13-.08-.13-.13s0-.08.12-.12a1.45,1.45,0,0,1,.4-.07Zm-1-.23a4.91,4.91,0,0,0,1-.09q0-.44-.09-.81a4.8,4.8,0,0,0-.12-.67,1.88,1.88,0,0,0-.66.22.75.75,0,0,0-.29.25.23.23,0,0,1-.14,0,.21.21,0,0,1-.06-.16c0-.1.09-.21.27-.32a2.43,2.43,0,0,1,.79-.26l0-.08a.3.3,0,0,0,0-.08.23.23,0,0,1,.24-.19.19.19,0,0,1,.14.07.67.67,0,0,1,.11.24h.29a3.82,3.82,0,0,1,.75.07,1.76,1.76,0,0,1,.51.19.74.74,0,0,1,.29.26.52.52,0,0,1,.09.29.78.78,0,0,1-.11.37,1.29,1.29,0,0,1-.32.35,3.1,3.1,0,0,1-.52.31,4.6,4.6,0,0,1-.69.24,1.94,1.94,0,0,1,0,.24c0,.09,0,.17,0,.25h.77l.54,0A7.82,7.82,0,0,0,60.13,40a5.41,5.41,0,0,0,1.13-.56,2.8,2.8,0,0,0,.7-.66,1.17,1.17,0,0,0,.24-.67,1,1,0,0,0-.22-.59,1.84,1.84,0,0,0-.66-.54,4,4,0,0,0-1.12-.38,7.5,7.5,0,0,0-1.6-.15,9.51,9.51,0,0,0-2,.2,7.19,7.19,0,0,0-1.58.49,3.66,3.66,0,0,0-1.05.67,1.07,1.07,0,0,0-.37.73.7.7,0,0,0,.14.44,1.08,1.08,0,0,0,.42.36,2.66,2.66,0,0,0,.71.25A4.74,4.74,0,0,0,55.86,39.65Zm1,3.76a6.34,6.34,0,0,0,.06-.69c0-.26,0-.53,0-.83a1.63,1.63,0,0,0-.7.32.64.64,0,0,0-.24.47.52.52,0,0,0,.22.42A1.68,1.68,0,0,0,56.83,43.41Zm.39-.28q0,.27-.18.33l.41.06a3.7,3.7,0,0,0,.48,0,6.09,6.09,0,0,0,1.36-.13,3.42,3.42,0,0,0,1-.34,1.67,1.67,0,0,0,.58-.48A1,1,0,0,0,61,42a.8.8,0,0,0-.17-.48,1.64,1.64,0,0,0-.48-.41,2.91,2.91,0,0,0-.73-.31,5,5,0,0,0-.92-.19c-.23,0-.46.06-.7.08s-.48,0-.73,0h0c0,.12,0,.23,0,.34v.44a2.68,2.68,0,0,1,.41,0,2.5,2.5,0,0,1,1,.16c.24.1.36.22.36.35a.25.25,0,0,1-.08.17.3.3,0,0,1-.25.06.32.32,0,0,0-.12-.18,1.17,1.17,0,0,0-.25-.14l-.35-.09a2.47,2.47,0,0,0-.39,0l-.35,0c0,.25,0,.48,0,.7A5.07,5.07,0,0,1,57.22,43.13ZM57,38c0,.19.07.4.11.64s.06.51.08.79a2.49,2.49,0,0,0,.91-.4.64.64,0,0,0,.33-.48.38.38,0,0,0-.06-.19.63.63,0,0,0-.21-.18,1.3,1.3,0,0,0-.37-.14,2.76,2.76,0,0,0-.54,0H57Z"/><path class="cls-5" d="M64.08,41.09a.62.62,0,0,1,0,.29.17.17,0,0,1-.12.1,1.81,1.81,0,0,1-.1.58c0,.4.17.6.37.6a.37.37,0,0,0,.2-.08,1.14,1.14,0,0,0,.21-.27,3.5,3.5,0,0,0,.23-.5c.09-.21.18-.48.28-.8.13,0,.17.08.13.25a8.21,8.21,0,0,1-.27.89,2.69,2.69,0,0,1-.26.56.91.91,0,0,1-.28.3.54.54,0,0,1-.3.08c-.27,0-.45-.16-.56-.49a1.72,1.72,0,0,1-.37.43.75.75,0,0,1-.46.17.63.63,0,0,1-.52-.29A1.52,1.52,0,0,1,62,42a2.44,2.44,0,0,1,.1-.71,2.34,2.34,0,0,1,.28-.62,1.45,1.45,0,0,1,.41-.44.83.83,0,0,1,.5-.16.78.78,0,0,1,.35.07.73.73,0,0,1,.24.22.81.81,0,0,1,.15.31A1.6,1.6,0,0,1,64.08,41.09Zm-.3,0a.71.71,0,0,0-.17-.44.48.48,0,0,0-.37-.15.6.6,0,0,0-.36.12,1.08,1.08,0,0,0-.29.31,1.84,1.84,0,0,0-.18.45,2.33,2.33,0,0,0-.07.53,1.28,1.28,0,0,0,.14.65.4.4,0,0,0,.34.23.52.52,0,0,0,.35-.17,1.53,1.53,0,0,0,.31-.42.57.57,0,0,1,0-.13.66.66,0,0,1,0-.14,1.88,1.88,0,0,1,.09-.65C63.62,41.11,63.69,41.05,63.78,41.08Z"/><path class="cls-5" d="M67.25,41c.13,0,.17.08.13.25a8.73,8.73,0,0,1-.27.91,2.67,2.67,0,0,1-.26.58,1,1,0,0,1-.28.32.52.52,0,0,1-.29.09.48.48,0,0,1-.43-.27,1.59,1.59,0,0,1-.16-.78c0-.17,0-.34,0-.54a3.41,3.41,0,0,1,.15-.59.75.75,0,0,1-.24.28.48.48,0,0,1-.27.09.34.34,0,0,1-.29-.15.83.83,0,0,1-.11-.47,1.36,1.36,0,0,1,0-.29.77.77,0,0,1,.06-.24.38.38,0,0,1,.08-.17.12.12,0,0,1,.1-.06c.09,0,.13.11.13.33s0,.16,0,.27a3.12,3.12,0,0,1-.06.37.22.22,0,0,0,.13,0,.43.43,0,0,0,.3-.18,1.47,1.47,0,0,0,.25-.45.12.12,0,0,1,.09,0,.2.2,0,0,1,.21.14.35.35,0,0,1,0,.26,4.91,4.91,0,0,0-.2,1.31,1.16,1.16,0,0,0,.09.55.28.28,0,0,0,.22.15.29.29,0,0,0,.17-.08,1.11,1.11,0,0,0,.19-.29,4.13,4.13,0,0,0,.23-.53C67.05,41.61,67.14,41.34,67.25,41Z"/><line class="cls-6" x1="61.48" y1="52.84" x2="61.48" y2="117.79"/><rect class="cls-2" x="152.46" y="25.09" width="80.4" height="109.52"/><path class="cls-7" d="M147.72,133.73H237.6a3.28,3.28,0,0,1,3.14,2.35l2.92,8.91h-102l2.91-8.91A3.3,3.3,0,0,1,147.72,133.73Z"/><rect class="cls-5" x="167.46" y="31.84" width="50.4" height="96"/><path class="cls-4" d="M174,39.68l-.53.06a7.24,7.24,0,0,1-1.74-.08,3.37,3.37,0,0,1-.82-.3,1.31,1.31,0,0,1-.48-.45,1,1,0,0,1-.16-.57,1.2,1.2,0,0,1,.2-.64,2.92,2.92,0,0,1,.58-.59,4.85,4.85,0,0,1,.88-.51,8.15,8.15,0,0,1,1.12-.41,12.11,12.11,0,0,1,1.31-.27,10.93,10.93,0,0,1,1.42-.09,8.87,8.87,0,0,1,1.84.17,4.69,4.69,0,0,1,1.26.47,2.09,2.09,0,0,1,.72.65,1.26,1.26,0,0,1,0,1.45,2.76,2.76,0,0,1-.65.68,5.18,5.18,0,0,1-1,.59,7.58,7.58,0,0,1-1.27.45,3.58,3.58,0,0,1,1.43.58,1.1,1.1,0,0,1,.52.91,1.24,1.24,0,0,1-.25.74,2.33,2.33,0,0,1-.74.63,4.23,4.23,0,0,1-1.14.43,6.06,6.06,0,0,1-1.47.17,4.1,4.1,0,0,1-1-.1,2.74,2.74,0,0,1-.75-.26,1.37,1.37,0,0,1-.49-.38.75.75,0,0,1-.17-.46.8.8,0,0,1,.09-.36,1,1,0,0,1,.27-.33,2,2,0,0,1,.43-.27,2.93,2.93,0,0,1,.59-.18V41c0-.14,0-.29,0-.43a1.27,1.27,0,0,1-.41-.1c-.09,0-.13-.09-.13-.13s0-.09.12-.12a1.31,1.31,0,0,1,.4-.08Zm-1-.24a6,6,0,0,0,1-.08c0-.3-.05-.57-.09-.83s-.08-.48-.12-.67a1.87,1.87,0,0,0-.67.22.75.75,0,0,0-.29.25.28.28,0,0,1-.15,0,.2.2,0,0,1-.06-.16c0-.1.09-.21.28-.32a2.21,2.21,0,0,1,.79-.26l0-.09a.3.3,0,0,1,0-.08.22.22,0,0,1,.24-.19.19.19,0,0,1,.14.07.88.88,0,0,1,.12.24h.29a3.33,3.33,0,0,1,.76.07,1.77,1.77,0,0,1,.51.18A.76.76,0,0,1,176,38a.46.46,0,0,1,.1.29.68.68,0,0,1-.12.37,1.19,1.19,0,0,1-.32.36,2.39,2.39,0,0,1-.53.31,3.69,3.69,0,0,1-.69.25c0,.08,0,.16,0,.24s0,.17,0,.25h.2l.58,0,.55,0a7.84,7.84,0,0,0,1.55-.37,5.5,5.5,0,0,0,1.14-.57,2.69,2.69,0,0,0,.71-.66,1.22,1.22,0,0,0,.24-.68,1,1,0,0,0-.22-.61,1.84,1.84,0,0,0-.66-.54,4.11,4.11,0,0,0-1.14-.38,7.7,7.7,0,0,0-1.62-.15,10.58,10.58,0,0,0-2,.19,8.17,8.17,0,0,0-1.6.5,3.67,3.67,0,0,0-1.05.69,1,1,0,0,0-.39.73.76.76,0,0,0,.15.45,1.12,1.12,0,0,0,.43.36,2.35,2.35,0,0,0,.71.25A5,5,0,0,0,173,39.44Zm1,3.81a6.34,6.34,0,0,0,.06-.69c0-.26,0-.55,0-.85a1.88,1.88,0,0,0-.71.33.66.66,0,0,0-.24.48.55.55,0,0,0,.22.42A1.66,1.66,0,0,0,174,43.25Zm.39-.28q0,.28-.18.33a2.65,2.65,0,0,0,.42.06,3.64,3.64,0,0,0,.48,0,6.89,6.89,0,0,0,1.38-.13,3.91,3.91,0,0,0,1-.35,1.84,1.84,0,0,0,.59-.49,1,1,0,0,0,.19-.57.8.8,0,0,0-.17-.48,1.81,1.81,0,0,0-.48-.42,3.92,3.92,0,0,0-.74-.31,5.21,5.21,0,0,0-.94-.19c-.23,0-.47.06-.71.08s-.48,0-.73,0h0v.34c0,.11,0,.22,0,.33v.12a2.68,2.68,0,0,1,.41,0,2.6,2.6,0,0,1,1,.16c.24.1.36.22.36.35a.25.25,0,0,1-.08.18.33.33,0,0,1-.26.06.27.27,0,0,0-.12-.18.86.86,0,0,0-.25-.14,1.79,1.79,0,0,0-.35-.09,2.58,2.58,0,0,0-.4,0l-.36,0c0,.25,0,.49,0,.71A5,5,0,0,1,174.37,43Zm-.17-5.15c0,.18.07.4.1.65s.06.51.09.8a2.82,2.82,0,0,0,.92-.41q.33-.26.33-.48a.39.39,0,0,0-.06-.2.63.63,0,0,0-.21-.18,1.43,1.43,0,0,0-.37-.14,2.29,2.29,0,0,0-.55,0h-.25Z"/><path class="cls-4" d="M182.87,40.82c.13,0,.17.09.13.26-.09.35-.18.65-.26.88a3.7,3.7,0,0,1-.25.58.8.8,0,0,1-.27.3.52.52,0,0,1-.29.09.46.46,0,0,1-.38-.19,1.33,1.33,0,0,1-.22-.48,2.13,2.13,0,0,1-.38.55.58.58,0,0,1-.43.22.58.58,0,0,1-.49-.33,2.08,2.08,0,0,1-.2-1,5.35,5.35,0,0,1,.08-.89,3.92,3.92,0,0,1,.2-.73c.06-.16.15-.25.25-.25a.25.25,0,0,1,.13,0,2.62,2.62,0,0,0-.1.3,2.38,2.38,0,0,0-.09.42c0,.15-.05.31-.07.47a3.77,3.77,0,0,0,0,.47,2.35,2.35,0,0,0,0,.5,1.1,1.1,0,0,0,.09.33.48.48,0,0,0,.12.19.21.21,0,0,0,.15.07.46.46,0,0,0,.31-.19,2.32,2.32,0,0,0,.33-.59v-.27a2.42,2.42,0,0,1,0-.47,3.26,3.26,0,0,1,.11-.4,1.54,1.54,0,0,1,.15-.29c.06-.07.11-.11.16-.11s.13.07.13.21a2.48,2.48,0,0,1-.07.53c-.05.22-.12.45-.2.69a1.15,1.15,0,0,0,.14.6.37.37,0,0,0,.29.2.25.25,0,0,0,.16-.07.84.84,0,0,0,.18-.25,3.21,3.21,0,0,0,.23-.51C182.66,41.46,182.76,41.17,182.87,40.82Z"/><path class="cls-4" d="M184.17,42.36a.66.66,0,0,0-.11-.36,1.75,1.75,0,0,0-.26-.29l-.34-.27a2.22,2.22,0,0,1-.33-.28,1.08,1.08,0,0,1-.26-.31.77.77,0,0,1-.11-.4,1.4,1.4,0,0,1,.09-.55c.06-.14.13-.21.2-.21s.16.12.16.35a1.59,1.59,0,0,1,0,.29,1.65,1.65,0,0,1-.06.32,2.08,2.08,0,0,0,.41.37,4.73,4.73,0,0,1,.43.31,2.14,2.14,0,0,1,.36.38.87.87,0,0,1,.16.52,1.52,1.52,0,0,0,.35-.46,8,8,0,0,0,.38-1c.12,0,.17.09.13.25a3.86,3.86,0,0,1-.4,1,1.42,1.42,0,0,1-.52.56.87.87,0,0,1-.31.44.82.82,0,0,1-.54.18,1.12,1.12,0,0,1-.4-.07,1.22,1.22,0,0,1-.36-.18.92.92,0,0,1-.25-.27.65.65,0,0,1-.1-.36.35.35,0,0,1,.1-.27.41.41,0,0,1,.27-.1.79.79,0,0,1,.28.06l.34.13a2.06,2.06,0,0,0,.35.12A1,1,0,0,0,184.17,42.36Zm-.52.53a.5.5,0,0,0,.39-.15,1,1,0,0,1-.35-.07l-.34-.13-.3-.13a.61.61,0,0,0-.22-.06c-.06,0-.09,0-.09.07a.27.27,0,0,0,.08.16.79.79,0,0,0,.19.15,1.1,1.1,0,0,0,.29.12A1.25,1.25,0,0,0,183.65,42.89Z"/><path class="cls-4" d="M185.21,38.35a.31.31,0,0,1,.12-.26.59.59,0,0,1,.37-.09.69.69,0,0,1,.51.16.5.5,0,0,1,.17.39.85.85,0,0,1-.08.35,1,1,0,0,1-.21.3,1.21,1.21,0,0,1-.28.21.67.67,0,0,1-.29.08.48.48,0,0,1-.35-.13.51.51,0,0,1-.12-.35.87.87,0,0,1,.18-.53A.69.69,0,0,1,185.21,38.35Zm.51,4.6a.53.53,0,0,1-.45-.27,1.7,1.7,0,0,1-.18-.91c0-.1,0-.2,0-.32s0-.23,0-.34l.06-.33.08-.26a.78.78,0,0,1,.12-.19.19.19,0,0,1,.16-.08.2.2,0,0,1,.14.06,4.11,4.11,0,0,0-.17.67,5.49,5.49,0,0,0,0,.7,1.42,1.42,0,0,0,.1.63c.07.14.15.2.25.2a.25.25,0,0,0,.17-.07.94.94,0,0,0,.19-.27,4.06,4.06,0,0,0,.22-.52c.08-.21.18-.49.29-.83.13,0,.17.09.13.26a9,9,0,0,1-.27.89,3.07,3.07,0,0,1-.27.57,1,1,0,0,1-.28.32A.53.53,0,0,1,185.72,43Zm-.35-4.15a.25.25,0,0,0,.08.2.31.31,0,0,0,.22.07.39.39,0,0,0,.26-.1.32.32,0,0,0,.12-.25.34.34,0,0,0-.1-.21.4.4,0,0,0-.3-.1l-.16,0a.88.88,0,0,0-.09.21A.5.5,0,0,0,185.37,38.8Z"/><path class="cls-4" d="M188.83,43a.38.38,0,0,1-.33-.18,1.45,1.45,0,0,1-.2-.45,3.53,3.53,0,0,1-.1-.61c0-.22,0-.44,0-.66v-.51c0-.05,0-.08,0-.08s0,0-.08.09a2.35,2.35,0,0,0-.21.45c-.07.17-.13.34-.19.52l-.18.49c-.05.15-.1.28-.14.38a1.2,1.2,0,0,1-.21.35.27.27,0,0,1-.17.07.27.27,0,0,1-.21-.11.73.73,0,0,1-.13-.38c0-.1,0-.24,0-.4a4,4,0,0,1,0-.49c0-.17,0-.33,0-.49a2.23,2.23,0,0,1,.09-.37.31.31,0,0,1,.1-.17.24.24,0,0,1,.14-.05.21.21,0,0,1,.12,0,.19.19,0,0,1,.06.07,1.27,1.27,0,0,0-.08.28,3.08,3.08,0,0,0-.08.5c0,.18,0,.37-.05.56a2.18,2.18,0,0,0,0,.47s0,.08,0,.09,0,0,.06-.07a4.61,4.61,0,0,0,.17-.44c.06-.19.13-.38.2-.57l.22-.57a2.52,2.52,0,0,1,.23-.44c.13-.2.27-.3.4-.3a.18.18,0,0,1,.19.12.91.91,0,0,1,.05.31c0,.33,0,.62,0,.88a5.35,5.35,0,0,0,.06.66,2,2,0,0,0,.11.43q.07.15.18.15a.27.27,0,0,0,.17-.08,1.13,1.13,0,0,0,.18-.29,4.29,4.29,0,0,0,.22-.53c.08-.22.18-.5.28-.84.13,0,.17.09.13.26a9.23,9.23,0,0,1-.26.89,3.63,3.63,0,0,1-.25.6,1.19,1.19,0,0,1-.27.33A.46.46,0,0,1,188.83,43Z"/><path class="cls-4" d="M192.11,40.82c.12,0,.17.09.13.26a4.26,4.26,0,0,1-.33.88,2.79,2.79,0,0,1-.42.62,1.69,1.69,0,0,1-.47.36,1.06,1.06,0,0,1-.47.12.84.84,0,0,1-.68-.32,1.6,1.6,0,0,1-.26-1,2.43,2.43,0,0,1,.1-.73,2.41,2.41,0,0,1,.25-.58,1.44,1.44,0,0,1,.37-.37.73.73,0,0,1,.42-.14A.49.49,0,0,1,191,40a.52.52,0,0,1,.17.16.7.7,0,0,1,.1.23,1.27,1.27,0,0,1,0,.28,1.33,1.33,0,0,1-.08.45,1.19,1.19,0,0,1-.2.35,1.09,1.09,0,0,1-.29.24.76.76,0,0,1-.32.08.71.71,0,0,1-.28-.06.46.46,0,0,1-.21-.14v.05a1.23,1.23,0,0,0,.19.76.57.57,0,0,0,.49.26.87.87,0,0,0,.37-.09,1.28,1.28,0,0,0,.39-.3,3.51,3.51,0,0,0,.39-.57A6.4,6.4,0,0,0,192.11,40.82Zm-1.46-.53a.32.32,0,0,0-.2.07,1.17,1.17,0,0,0-.2.19,1.87,1.87,0,0,0-.16.28,2.06,2.06,0,0,0-.12.35.42.42,0,0,0,.16.19.55.55,0,0,0,.25.07.45.45,0,0,0,.19,0,.52.52,0,0,0,.17-.13.58.58,0,0,0,.13-.23.7.7,0,0,0,0-.3.75.75,0,0,0-.06-.31A.23.23,0,0,0,190.65,40.29Z"/><path class="cls-4" d="M193.4,42.36a.66.66,0,0,0-.11-.36,1.39,1.39,0,0,0-.26-.29l-.33-.27a2.3,2.3,0,0,1-.34-.28,1.26,1.26,0,0,1-.26-.31.77.77,0,0,1-.1-.4,1.4,1.4,0,0,1,.09-.55c.06-.14.12-.21.19-.21s.16.12.16.35,0,.18,0,.29a3,3,0,0,1-.07.32,2.41,2.41,0,0,0,.41.37c.15.1.3.2.44.31a2.14,2.14,0,0,1,.36.38.94.94,0,0,1,.16.52,1.52,1.52,0,0,0,.34-.46,6.6,6.6,0,0,0,.38-1c.13,0,.17.09.13.25a4.26,4.26,0,0,1-.39,1,1.5,1.5,0,0,1-.52.56,1,1,0,0,1-.32.44.8.8,0,0,1-.54.18,1.16,1.16,0,0,1-.4-.07,1.06,1.06,0,0,1-.35-.18,1,1,0,0,1-.26-.27.75.75,0,0,1-.1-.36.35.35,0,0,1,.11-.27.36.36,0,0,1,.26-.1.83.83,0,0,1,.29.06l.33.13.36.12A.89.89,0,0,0,193.4,42.36Zm-.52.53a.5.5,0,0,0,.39-.15,1.09,1.09,0,0,1-.35-.07l-.34-.13-.3-.13a.56.56,0,0,0-.22-.06.07.07,0,0,0-.08.07.25.25,0,0,0,.07.16,1,1,0,0,0,.19.15,1.26,1.26,0,0,0,.29.12A1.34,1.34,0,0,0,192.88,42.89Z"/><path class="cls-4" d="M195.73,42.36a.65.65,0,0,0-.1-.36,1.45,1.45,0,0,0-.27-.29l-.33-.27a3,3,0,0,1-.34-.28,1.53,1.53,0,0,1-.26-.31.77.77,0,0,1-.1-.4,1.4,1.4,0,0,1,.09-.55c.06-.14.12-.21.2-.21s.15.12.15.35,0,.18,0,.29a3,3,0,0,1-.07.32,2.41,2.41,0,0,0,.41.37,4.91,4.91,0,0,1,.44.31,2.14,2.14,0,0,1,.36.38.94.94,0,0,1,.16.52,1.52,1.52,0,0,0,.34-.46,5.61,5.61,0,0,0,.38-1c.13,0,.17.09.13.25a3.55,3.55,0,0,1-.39,1,1.5,1.5,0,0,1-.52.56.93.93,0,0,1-.31.44.85.85,0,0,1-.55.18,1.07,1.07,0,0,1-.39-.07,1,1,0,0,1-.36-.18,1,1,0,0,1-.26-.27.75.75,0,0,1-.1-.36.35.35,0,0,1,.11-.27.36.36,0,0,1,.26-.1.83.83,0,0,1,.29.06l.33.13.36.12A.89.89,0,0,0,195.73,42.36Zm-.52.53a.5.5,0,0,0,.39-.15,1.09,1.09,0,0,1-.35-.07,3.24,3.24,0,0,1-.33-.13l-.3-.13a.6.6,0,0,0-.23-.06.07.07,0,0,0-.08.07.25.25,0,0,0,.07.16.86.86,0,0,0,.2.15,1,1,0,0,0,.28.12A1.34,1.34,0,0,0,195.21,42.89Z"/><path class="cls-4" d="M198.66,41.21a.77.77,0,0,0-.26-.06,2.25,2.25,0,0,0-.38,0,2.46,2.46,0,0,0-.41,0l-.3.06a.14.14,0,0,1-.13-.15q0-.12.21-.21a2.15,2.15,0,0,1,.74-.09c.45,0,.67.09.67.27a.2.2,0,0,1,0,.11A.21.21,0,0,1,198.66,41.21Z"/><path class="cls-4" d="M201,37.7a4.75,4.75,0,0,1-.1,1,4.83,4.83,0,0,1-.28.93,3.18,3.18,0,0,1-.43.71.89.89,0,0,1-.54.31,5.07,5.07,0,0,0,.09.87,3.14,3.14,0,0,0,.17.6,1,1,0,0,0,.2.34.31.31,0,0,0,.21.11.32.32,0,0,0,.17-.07.88.88,0,0,0,.22-.26,2.78,2.78,0,0,0,.28-.53,8.56,8.56,0,0,0,.33-.88c.13,0,.17.09.13.26a7.1,7.1,0,0,1-.28.88,2.76,2.76,0,0,1-.31.6,1.16,1.16,0,0,1-.31.34.53.53,0,0,1-.3.11.52.52,0,0,1-.34-.15,1.25,1.25,0,0,1-.3-.43,3.49,3.49,0,0,1-.22-.76,6.52,6.52,0,0,1-.09-1.08.65.65,0,0,1-.23-.15.28.28,0,0,1-.09-.23.17.17,0,0,1,.14-.15.39.39,0,0,0,.18.18,12.29,12.29,0,0,1,.1-1.53,9.64,9.64,0,0,1,.25-1.24,3.1,3.1,0,0,1,.37-.83.55.55,0,0,1,.43-.3c.18,0,.32.12.41.37A2.77,2.77,0,0,1,201,37.7Zm-1.36,2.6a.64.64,0,0,0,.36-.24,2.23,2.23,0,0,0,.31-.56,4.65,4.65,0,0,0,.23-.81,5.06,5.06,0,0,0,.09-1c0-.12,0-.24,0-.35a2.11,2.11,0,0,0-.06-.29.68.68,0,0,0-.08-.19s-.06-.07-.1-.07-.14.09-.23.26a5,5,0,0,0-.24.72q-.1.47-.18,1.08a11.4,11.4,0,0,0-.08,1.35Z"/><path class="cls-4" d="M204.32,40.82c.13,0,.17.09.13.26-.09.35-.18.65-.26.88a5,5,0,0,1-.25.58,1,1,0,0,1-.27.3.52.52,0,0,1-.29.09.44.44,0,0,1-.38-.19,1.33,1.33,0,0,1-.22-.48,2.41,2.41,0,0,1-.38.55A.58.58,0,0,1,202,43a.56.56,0,0,1-.49-.33,2.08,2.08,0,0,1-.2-1,5.35,5.35,0,0,1,.08-.89,4,4,0,0,1,.19-.73c.07-.16.16-.25.26-.25a.28.28,0,0,1,.13,0,2.45,2.45,0,0,0-.11.3c0,.13-.06.26-.09.42a3.55,3.55,0,0,0-.06.47,3.83,3.83,0,0,0,0,.47,3.26,3.26,0,0,0,0,.5,2.43,2.43,0,0,0,.09.33.48.48,0,0,0,.13.19.21.21,0,0,0,.15.07.47.47,0,0,0,.3-.19,2.3,2.3,0,0,0,.34-.59s0-.09,0-.14v-.13a2.42,2.42,0,0,1,.05-.47,2.11,2.11,0,0,1,.11-.4,1.54,1.54,0,0,1,.15-.29.22.22,0,0,1,.16-.11c.08,0,.13.07.13.21a2.62,2.62,0,0,1-.08.53,4.06,4.06,0,0,1-.2.69,1.14,1.14,0,0,0,.15.6.35.35,0,0,0,.28.2.25.25,0,0,0,.17-.07.84.84,0,0,0,.18-.25,4.48,4.48,0,0,0,.23-.51C204.11,41.46,204.21,41.17,204.32,40.82Z"/><path class="cls-4" d="M206.44,43a.39.39,0,0,1-.33-.18,1.45,1.45,0,0,1-.2-.45,3.57,3.57,0,0,1-.09-.61q0-.33,0-.66v-.26c0-.08,0-.17,0-.25s0-.08,0-.08-.05,0-.08.09a2.35,2.35,0,0,0-.21.45c-.07.17-.13.34-.19.52s-.12.33-.17.49l-.15.38a1,1,0,0,1-.21.35.25.25,0,0,1-.17.07.27.27,0,0,1-.21-.11.73.73,0,0,1-.13-.38c0-.1,0-.24,0-.4s0-.32,0-.49a3.87,3.87,0,0,1,0-.49,2.33,2.33,0,0,1,.08-.37.31.31,0,0,1,.1-.17.27.27,0,0,1,.14-.05.21.21,0,0,1,.12,0,.15.15,0,0,1,.07.07.8.8,0,0,0-.09.28,3.08,3.08,0,0,0-.08.5,5.09,5.09,0,0,0,0,.56,2.29,2.29,0,0,0,0,.47s0,.08,0,.09,0,0,.06-.07a4.61,4.61,0,0,0,.17-.44c.06-.19.13-.38.2-.57s.15-.39.23-.57a2.56,2.56,0,0,1,.22-.44c.13-.2.27-.3.4-.3a.18.18,0,0,1,.19.12.72.72,0,0,1,0,.31c0,.33,0,.62,0,.88a5.35,5.35,0,0,0,.06.66,2,2,0,0,0,.11.43q.08.15.18.15a.27.27,0,0,0,.17-.08.91.91,0,0,0,.18-.29,4.29,4.29,0,0,0,.22-.53c.08-.22.18-.5.29-.84.12,0,.17.09.13.26-.1.35-.18.65-.27.89a2.93,2.93,0,0,1-.25.6,1.19,1.19,0,0,1-.27.33A.46.46,0,0,1,206.44,43Z"/><path class="cls-4" d="M208.23,43.07a1.06,1.06,0,0,1-.4-.08.9.9,0,0,1-.33-.25,1.13,1.13,0,0,1-.21-.41,2.05,2.05,0,0,1-.08-.59,2.59,2.59,0,0,1,.09-.68,2.54,2.54,0,0,1,.27-.6,1.4,1.4,0,0,1,.39-.41.82.82,0,0,1,.49-.16.51.51,0,0,1,.46.21,1,1,0,0,1,.15.56,1.25,1.25,0,0,1,0,.35,1,1,0,0,1-.11.28.86.86,0,0,1-.14.18.29.29,0,0,1-.16.06.13.13,0,0,1-.12-.07.28.28,0,0,1-.06-.2,1,1,0,0,1,.07-.44.85.85,0,0,1,.24-.36.34.34,0,0,0-.13-.16.37.37,0,0,0-.2,0,.52.52,0,0,0-.33.11,1.08,1.08,0,0,0-.27.29,1.84,1.84,0,0,0-.26,1,1.29,1.29,0,0,0,.2.79.64.64,0,0,0,.54.25,1,1,0,0,0,.38-.07,1.17,1.17,0,0,0,.37-.29,2.62,2.62,0,0,0,.36-.55,7.56,7.56,0,0,0,.37-.92c.12,0,.17.09.13.26a4.69,4.69,0,0,1-.34,1,2.3,2.3,0,0,1-.41.62,1.21,1.21,0,0,1-.45.32A1.17,1.17,0,0,1,208.23,43.07Z"/><path class="cls-4" d="M209.54,40a.44.44,0,0,0,.21.13V40a11.19,11.19,0,0,1,.11-1.53,6,6,0,0,1,.27-1.11,2.07,2.07,0,0,1,.37-.67.66.66,0,0,1,.46-.23.51.51,0,0,1,.43.29,1.67,1.67,0,0,1,.17.82,4.36,4.36,0,0,1-.12,1,4.53,4.53,0,0,1-.33.86,2.78,2.78,0,0,1-.46.62,1.23,1.23,0,0,1-.52.32c0,.19,0,.37,0,.56s0,.36,0,.51,0,.3,0,.41a1.1,1.1,0,0,0,0,.24.11.11,0,0,0,0,.05s0,0,0,0,.11-.26.17-.43.12-.34.19-.51l.21-.53a4,4,0,0,1,.22-.42.73.73,0,0,1,.19-.22.3.3,0,0,1,.19-.07.23.23,0,0,1,.21.13,1.12,1.12,0,0,1,.12.39c0,.11,0,.23,0,.36s0,.27,0,.4,0,.27,0,.4a3.48,3.48,0,0,0,.05.36,1.63,1.63,0,0,0,.1.41c0,.1.09.15.17.15a.2.2,0,0,0,.15-.09,1,1,0,0,0,.18-.3q.09-.21.21-.54t.27-.81c.13,0,.17.09.13.26a6,6,0,0,1-.5,1.46c-.16.31-.34.46-.52.46a.5.5,0,0,1-.38-.2,1.49,1.49,0,0,1-.22-.72c0-.12,0-.25,0-.38l0-.41c0-.13,0-.26,0-.39a2.75,2.75,0,0,0,0-.34c0-.06,0-.09-.05-.1s0,0-.08.09A4.1,4.1,0,0,0,211,41c-.07.16-.13.31-.19.47l-.16.45c-.05.15-.1.27-.14.37a1.55,1.55,0,0,1-.12.28.76.76,0,0,1-.1.15.57.57,0,0,1-.09.08h-.1a.13.13,0,0,1-.09,0,.3.3,0,0,1-.09-.1.58.58,0,0,1-.07-.19,2.32,2.32,0,0,1,0-.33c0-.1,0-.21,0-.35s0-.27,0-.43,0-.31,0-.47,0-.33,0-.48l-.11,0-.1-.07a.22.22,0,0,1-.11-.18A.17.17,0,0,1,209.54,40Zm.59-.34a1.55,1.55,0,0,0,0,.22v.23a1,1,0,0,0,.38-.29,2.37,2.37,0,0,0,.34-.54,4.23,4.23,0,0,0,.23-.71,3.68,3.68,0,0,0,.09-.82,1.47,1.47,0,0,0-.09-.61c-.06-.12-.12-.18-.2-.18s-.16.06-.24.18a2.08,2.08,0,0,0-.23.53,5.9,5.9,0,0,0-.18.85A9.1,9.1,0,0,0,210.13,39.61Z"/><line class="cls-8" x1="192.66" y1="52.84" x2="192.66" y2="117.79"/><rect class="cls-9" x="77.99" y="115.05" width="9.67" height="0.37"/><rect class="cls-9" x="77.99" y="116.97" width="9.67" height="0.37"/><rect class="cls-9" x="77.99" y="118.9" width="9.67" height="0.37"/><rect class="cls-9" x="77.99" y="120.83" width="9.67" height="0.37"/><rect class="cls-9" x="77.99" y="122.76" width="9.67" height="0.37"/><path class="cls-5" d="M76.53,121.9a2.1,2.1,0,0,0,.51-.06,1.76,1.76,0,0,0,.39-.18,1,1,0,0,0,.26-.27.63.63,0,0,0,.09-.33.82.82,0,0,0-.11-.39,1.08,1.08,0,0,0-.32-.32,2.09,2.09,0,0,0-.52-.22,3.29,3.29,0,0,0-1.67.06,2.48,2.48,0,0,0-.71.35,1.62,1.62,0,0,0-.44.51,1.19,1.19,0,0,0-.16.59,1.6,1.6,0,0,0,.19.74,1.93,1.93,0,0,0,.57.61,3.2,3.2,0,0,0,1,.41,4.65,4.65,0,0,0,1.31.16,3.15,3.15,0,0,0,2-.52,1.77,1.77,0,0,0,.64-1.48,7.19,7.19,0,0,0-.05-.81l-.12-.78-.55.09a3.41,3.41,0,0,1-.55,0,.62.62,0,0,1-.31-.07.19.19,0,0,1-.1-.17.17.17,0,0,1,.09-.17.39.39,0,0,0,.17,0l.22,0a2.59,2.59,0,0,0,.48,0,3.86,3.86,0,0,0,.49-.09c0-.26-.09-.52-.13-.77a4.68,4.68,0,0,1-.05-.74,1.47,1.47,0,0,1,.11-.68c.08-.15.17-.22.3-.22a.24.24,0,0,1,.14,0,.26.26,0,0,1,.07.15.5.5,0,0,0-.16.27,1.24,1.24,0,0,0-.07.46,5.36,5.36,0,0,0,.05.7c0,.23.07.47.11.71l.27,0h.27a1,1,0,0,1,.49.08.21.21,0,0,1,.14.19.25.25,0,0,1,0,.14.19.19,0,0,1-.11.07.51.51,0,0,0-.22-.09c-.11,0-.24,0-.38,0h-.18l-.18,0c.05.27.1.55.13.83a6.37,6.37,0,0,1,.06.9,2.12,2.12,0,0,1-.21,1,1.92,1.92,0,0,1-.59.71,2.67,2.67,0,0,1-1,.45,4.92,4.92,0,0,1-1.27.15,5.4,5.4,0,0,1-1.46-.18,3.65,3.65,0,0,1-1.07-.48,2.21,2.21,0,0,1-.66-.71,1.59,1.59,0,0,1-.23-.84,1.5,1.5,0,0,1,.19-.73,1.88,1.88,0,0,1,.54-.63,2.54,2.54,0,0,1,.85-.45,3.31,3.31,0,0,1,1.13-.17,3.52,3.52,0,0,1,.83.09,2.15,2.15,0,0,1,.63.28,1.29,1.29,0,0,1,.39.42,1.07,1.07,0,0,1,.14.52,1,1,0,0,1-.12.48,1.29,1.29,0,0,1-.36.38,1.93,1.93,0,0,1-.54.25,2.39,2.39,0,0,1-.69.1,3.88,3.88,0,0,1-.48,0,2.55,2.55,0,0,1-.44-.12,1.22,1.22,0,0,1-.32-.18.29.29,0,0,1-.12-.22.23.23,0,0,1,.08-.17.33.33,0,0,1,.24-.05.22.22,0,0,0,.11.17,1.13,1.13,0,0,0,.27.14l.36.1A2.56,2.56,0,0,0,76.53,121.9Zm4.7-5.9c.15,0,.22.07.22.2a.4.4,0,0,1-.09.25.76.76,0,0,1-.29.22,2,2,0,0,1-.48.15,3.26,3.26,0,0,1-.67.06,6,6,0,0,1-1-.09c-.33-.06-.65-.12-1-.2l-1-.19a5,5,0,0,0-1-.09,2.94,2.94,0,0,0-.91.11,1.8,1.8,0,0,0-.59.28,1,1,0,0,0-.31.4,1.14,1.14,0,0,0-.09.43,1.08,1.08,0,0,0,.11.47,1.13,1.13,0,0,0,.33.36,1.53,1.53,0,0,0,.5.23,2.27,2.27,0,0,0,.65.09,2.47,2.47,0,0,0,.79-.12,1.65,1.65,0,0,0,.59-.31.13.13,0,0,1,.13.14.21.21,0,0,1-.07.16.81.81,0,0,1-.21.15,2.22,2.22,0,0,1-.55.23,2.84,2.84,0,0,1-1.53,0,1.6,1.6,0,0,1-.61-.31,1.25,1.25,0,0,1-.52-1,1.52,1.52,0,0,1,.12-.59,1.46,1.46,0,0,1,.41-.52,2,2,0,0,1,.72-.37,3.32,3.32,0,0,1,1.06-.14,5.42,5.42,0,0,1,1,.09c.32.06.64.12,1,.2l1,.2a5.31,5.31,0,0,0,1,.09,2.21,2.21,0,0,0,.86-.15A.82.82,0,0,0,81.23,116Z"/><path class="cls-5" d="M82.84,121.11a.65.65,0,0,1,0,.29.17.17,0,0,1-.11.1,2,2,0,0,1-.1.57q.06.6.36.6a.3.3,0,0,0,.2-.08.84.84,0,0,0,.21-.26,4.11,4.11,0,0,0,.23-.5c.09-.21.18-.48.28-.8.13,0,.17.08.13.25-.09.35-.18.65-.26.88a3.07,3.07,0,0,1-.27.57.78.78,0,0,1-.28.29.53.53,0,0,1-.3.09c-.26,0-.45-.16-.56-.49A1.51,1.51,0,0,1,82,123a.7.7,0,0,1-.46.18.61.61,0,0,1-.52-.3,1.51,1.51,0,0,1-.21-.87,2.83,2.83,0,0,1,.1-.71,2.41,2.41,0,0,1,.28-.63,1.41,1.41,0,0,1,.41-.43.84.84,0,0,1,.5-.17.75.75,0,0,1,.35.08.72.72,0,0,1,.25.21,1,1,0,0,1,.14.32A1.6,1.6,0,0,1,82.84,121.11Zm-.3,0a.71.71,0,0,0-.17-.44.47.47,0,0,0-.37-.15.6.6,0,0,0-.36.12,1,1,0,0,0-.28.32,1.85,1.85,0,0,0-.19.45,2.25,2.25,0,0,0-.07.52,1.26,1.26,0,0,0,.14.65.39.39,0,0,0,.34.23.47.47,0,0,0,.35-.17,1.53,1.53,0,0,0,.31-.42.53.53,0,0,1,0-.13v-.14a1.81,1.81,0,0,1,.09-.64C82.38,121.13,82.45,121.06,82.54,121.09Z"/><path class="cls-3" d="M83.92,114.8a.28.28,0,0,1,.1-.23.57.57,0,0,1,.33-.08.65.65,0,0,1,.45.14A.46.46,0,0,1,85,115a.82.82,0,0,1-.07.31,1,1,0,0,1-.19.27.84.84,0,0,1-.24.18.54.54,0,0,1-.26.07.42.42,0,0,1-.31-.11.45.45,0,0,1-.11-.31.83.83,0,0,1,.16-.47.41.41,0,0,1,0-.11Zm.13.4a.2.2,0,0,0,.08.17.27.27,0,0,0,.19.06.35.35,0,0,0,.23-.09.26.26,0,0,0,0-.4.34.34,0,0,0-.26-.09l-.14,0a.67.67,0,0,0-.08.18A.49.49,0,0,0,84.05,115.2Z"/><path class="cls-3" d="M72.35,45.33,80.2,36.7a11.52,11.52,0,0,1,2.11,2.56,11.76,11.76,0,0,1,1.31,3.05Z"/><path class="cls-7" d="M199.75,56.3l7.85-8.64a11.8,11.8,0,0,1,2.12,2.56,11.33,11.33,0,0,1,1.3,3.06Z"/><rect class="cls-9" x="41.63" y="52.84" width="17.13" height="3.93" rx="0.95"/><rect class="cls-9" x="41.63" y="87.28" width="17.13" height="3.93" rx="0.95"/><rect class="cls-9" x="64.48" y="68.64" width="17.13" height="3.93" rx="0.95"/><path class="cls-5" d="M43.63,53.28a1.15,1.15,0,0,1-.33,0,.84.84,0,0,1-.27-.11.52.52,0,0,1-.18-.18.45.45,0,0,1-.07-.23.63.63,0,0,1,.18-.41,1.55,1.55,0,0,1,.5-.37,3.4,3.4,0,0,1,.8-.27,4.77,4.77,0,0,1,1.05-.11,4.45,4.45,0,0,1,.93.09,2.8,2.8,0,0,1,.71.24,1.32,1.32,0,0,1,.46.36.78.78,0,0,1,.16.46.82.82,0,0,1-.14.44,1.89,1.89,0,0,1-.36.4,3.2,3.2,0,0,1-.55.33,4.67,4.67,0,0,1-.66.23,2.85,2.85,0,0,1,.23.26l.21.27c.06.09.13.17.19.25a2,2,0,0,0,.18.21,1.3,1.3,0,0,0,.2.15.46.46,0,0,0,.21,0,.45.45,0,0,0,.19,0,.64.64,0,0,0,.19-.16,2.54,2.54,0,0,0,.2-.35c.06-.15.14-.34.22-.57.06,0,.08,0,.06.13a4.3,4.3,0,0,1-.18.57,1.43,1.43,0,0,1-.2.37.57.57,0,0,1-.51.27.58.58,0,0,1-.26-.06.91.91,0,0,1-.23-.17,1.79,1.79,0,0,1-.22-.25l-.21-.29-.23-.3a3.33,3.33,0,0,0-.25-.28l-.31.05-.31,0a1.64,1.64,0,0,1-.38,1.11,1.38,1.38,0,0,1-1,.37,1.7,1.7,0,0,1-.46-.06,1.76,1.76,0,0,1-.39-.17.92.92,0,0,1-.26-.26.56.56,0,0,1-.09-.31.6.6,0,0,1,.07-.3.8.8,0,0,1,.23-.26,1.21,1.21,0,0,1,.36-.18,1.77,1.77,0,0,1,.49-.06,1.51,1.51,0,0,1,.39,0,.91.91,0,0,1,.28.12.53.53,0,0,1,.17.16.38.38,0,0,1,.06.19.33.33,0,0,1-.06.19.38.38,0,0,1-.15.16.55.55,0,0,1-.23.11,1.18,1.18,0,0,1-.61,0c-.07,0-.1-.07-.1-.12a.09.09,0,0,1,0-.08.6.6,0,0,0,.19.06h.19a.78.78,0,0,0,.22,0,.59.59,0,0,0,.16-.07.36.36,0,0,0,.11-.1.27.27,0,0,0,0-.12.18.18,0,0,0,0-.13.38.38,0,0,0-.13-.12,1.23,1.23,0,0,0-.23-.08,1.42,1.42,0,0,0-.31,0,1.5,1.5,0,0,0-.4,0,1,1,0,0,0-.29.14.51.51,0,0,0-.17.19.42.42,0,0,0-.06.21.39.39,0,0,0,.08.25.7.7,0,0,0,.21.21,1.26,1.26,0,0,0,.33.15,1.77,1.77,0,0,0,.41.05,1.45,1.45,0,0,0,.54-.09,1,1,0,0,0,.37-.25,1.08,1.08,0,0,0,.22-.41,2.29,2.29,0,0,0,.07-.55,1.29,1.29,0,0,1-.54-.11c-.11-.07-.17-.14-.17-.22a.15.15,0,0,1,0-.11.27.27,0,0,1,.11-.1.69.69,0,0,1,.19-.07l.26,0h.06a3.19,3.19,0,0,0-.12-.51,1.28,1.28,0,0,0-.16-.35.1.1,0,0,1,.11-.1q.09,0,.18.21c0,.1.07.21.1.35a2.61,2.61,0,0,1,.08.42,1.25,1.25,0,0,1,.4.13,1.94,1.94,0,0,1,.33.23,3.2,3.2,0,0,0,.64-.21,2.27,2.27,0,0,0,.51-.29,2,2,0,0,0,.35-.36.75.75,0,0,0,.12-.4.65.65,0,0,0-.12-.36,1.16,1.16,0,0,0-.39-.32,2.83,2.83,0,0,0-.66-.22,4.92,4.92,0,0,0-.92-.08,4.45,4.45,0,0,0-.93.09,2.89,2.89,0,0,0-.7.22,1.53,1.53,0,0,0-.46.3.51.51,0,0,0-.16.34.35.35,0,0,0,0,.18.47.47,0,0,0,.15.13.53.53,0,0,0,.22.08,1.09,1.09,0,0,0,.26,0,1.29,1.29,0,0,0,.29,0,.71.71,0,0,0,.21-.08.05.05,0,0,1,.06.06s0,.08-.1.12a.69.69,0,0,1-.23.07A1.27,1.27,0,0,1,43.63,53.28Zm1.22.78c0-.05,0-.1,0-.15a.78.78,0,0,0,0-.16h-.08a.74.74,0,0,0-.3,0q-.09,0-.09.09s0,.08.12.12A.88.88,0,0,0,44.85,54.06Zm.16-.28s0,.09,0,.14v.14h.24l.23,0a1.14,1.14,0,0,0-.23-.15A.82.82,0,0,0,45,53.78Z"/><path class="cls-5" d="M49.09,54.17c.06,0,.09,0,.06.13a2.24,2.24,0,0,1-.16.46,1.38,1.38,0,0,1-.22.32.72.72,0,0,1-.25.19.53.53,0,0,1-.24.06.42.42,0,0,1-.36-.17.87.87,0,0,1-.13-.51,1.52,1.52,0,0,1,.05-.38A1.42,1.42,0,0,1,48,54a.85.85,0,0,1,.19-.19.36.36,0,0,1,.22-.07.25.25,0,0,1,.13,0,.18.18,0,0,1,.09.08.33.33,0,0,1,0,.12.68.68,0,0,1,0,.15.85.85,0,0,1,0,.23.78.78,0,0,1-.11.18.44.44,0,0,1-.15.12.33.33,0,0,1-.17,0,.36.36,0,0,1-.14,0,.31.31,0,0,1-.11-.08v0a.66.66,0,0,0,.1.4.3.3,0,0,0,.26.13.36.36,0,0,0,.19,0,.66.66,0,0,0,.2-.16,1.45,1.45,0,0,0,.2-.29A2.43,2.43,0,0,0,49.09,54.17Zm-.76-.28a.19.19,0,0,0-.11,0l-.1.1a.53.53,0,0,0-.08.15.48.48,0,0,0-.06.18.14.14,0,0,0,.08.09.2.2,0,0,0,.13,0l.1,0,.09-.07a.47.47,0,0,0,.07-.12.78.78,0,0,0,0-.16.41.41,0,0,0,0-.16A.12.12,0,0,0,48.33,53.89Z"/><path class="cls-5" d="M50.38,51.84a.19.19,0,0,1,.12,0,.31.31,0,0,1,.09.12,1.84,1.84,0,0,1,.06.23,3,3,0,0,1,0,.34,4,4,0,0,1-.05.6c0,.2-.08.39-.13.58a4.15,4.15,0,0,1-.2.53,3.14,3.14,0,0,1-.23.45.7.7,0,0,0,.14.23.23.23,0,0,0,.15.07.19.19,0,0,0,.09,0,.43.43,0,0,0,.12-.14,1.22,1.22,0,0,0,.14-.26c0-.11.11-.26.17-.43.06,0,.08,0,.06.13a3.74,3.74,0,0,1-.14.46,1.38,1.38,0,0,1-.15.3.59.59,0,0,1-.15.16.37.37,0,0,1-.17.05.32.32,0,0,1-.2-.09.92.92,0,0,1-.19-.26,1.45,1.45,0,0,1-.27.28.4.4,0,0,1-.25.1.36.36,0,0,1-.31-.16.88.88,0,0,1-.11-.45,1.25,1.25,0,0,1,.06-.4.94.94,0,0,1,.14-.32,1,1,0,0,1,.22-.2.59.59,0,0,1,.26-.07h.06a5.79,5.79,0,0,1,.07-.78,3.23,3.23,0,0,1,.15-.58,1.61,1.61,0,0,1,.21-.38A.31.31,0,0,1,50.38,51.84Zm-.52,2.91a1.82,1.82,0,0,1-.09-.37c0-.14,0-.29,0-.46h-.09a.33.33,0,0,0-.19.06.58.58,0,0,0-.15.16.69.69,0,0,0-.09.23.86.86,0,0,0,0,.28.61.61,0,0,0,.08.34.24.24,0,0,0,.18.1.37.37,0,0,0,.21-.09A1,1,0,0,0,49.86,54.75Zm0-.71,0,.28c0,.08,0,.15.05.22a2.69,2.69,0,0,0,.19-.38c0-.14.11-.29.15-.45a4.59,4.59,0,0,0,.1-.51,3.43,3.43,0,0,0,0-.56,2,2,0,0,0,0-.26.45.45,0,0,0,0-.18.19.19,0,0,0,0-.09.05.05,0,0,0,0,0s-.08.05-.13.13a1.67,1.67,0,0,0-.14.34,4.42,4.42,0,0,0-.11.53,4.86,4.86,0,0,0-.05.69.19.19,0,0,1,.06.07.25.25,0,0,1,0,.07A.2.2,0,0,1,50,54Z"/><path class="cls-5" d="M52.16,54a1,1,0,0,1,0,.15c0,.06,0,.13,0,.21a1.51,1.51,0,0,0,0,.32.64.64,0,0,0,.06.22.31.31,0,0,0,.09.12.16.16,0,0,0,.1,0,.22.22,0,0,0,.15-.08.53.53,0,0,0,.11-.24,2.88,2.88,0,0,1,0-.32,1,1,0,0,1,0-.34c0-.09.06-.13.09-.13s0,0,.07.07a1.06,1.06,0,0,1,0,.21,1.21,1.21,0,0,1,0,.19l0,.19a1,1,0,0,0,.11.39c.06.09.12.14.18.14a.18.18,0,0,0,.09,0,.62.62,0,0,0,.08-.12,1.07,1.07,0,0,0,.06-.17,1.57,1.57,0,0,0,0-.23.87.87,0,0,1,0-.19.94.94,0,0,1,0-.25,1.19,1.19,0,0,1,0-.31c0-.07,0-.1.09-.1s.06,0,.08.14a1.34,1.34,0,0,1,0,.38v.14s0,.1,0,.15a.26.26,0,0,0,.16.07l.08,0,.08-.06a.62.62,0,0,0,.08-.12,1.17,1.17,0,0,0,.08-.21c.07,0,.09,0,.07.13a1,1,0,0,1-.08.23.53.53,0,0,1-.11.14.26.26,0,0,1-.11.07l-.11,0a.34.34,0,0,1-.17,0l-.06.24-.09.2a.33.33,0,0,1-.12.14.2.2,0,0,1-.15.05.29.29,0,0,1-.21-.1.84.84,0,0,1-.16-.3.63.63,0,0,1-.16.25.29.29,0,0,1-.18.08.27.27,0,0,1-.16-.06.53.53,0,0,1-.13-.16.85.85,0,0,1-.09-.27,1.4,1.4,0,0,1,0-.37A1.42,1.42,0,0,1,52,54c0-.09.07-.14.11-.14S52.16,53.9,52.16,54Z"/><path class="cls-5" d="M54,52.88a.16.16,0,0,1,.06-.13.31.31,0,0,1,.19,0,.37.37,0,0,1,.27.09.24.24,0,0,1,.08.2.39.39,0,0,1,0,.18.42.42,0,0,1-.11.15.36.36,0,0,1-.14.11.28.28,0,0,1-.15,0,.24.24,0,0,1-.18-.06.24.24,0,0,1-.07-.18A.44.44,0,0,1,54,53,.15.15,0,0,1,54,52.88Zm.26,2.4a.28.28,0,0,1-.23-.14.86.86,0,0,1-.1-.48s0-.1,0-.16a1.1,1.1,0,0,0,0-.18c0-.06,0-.12,0-.17A1.27,1.27,0,0,1,54,54l.06-.1a.12.12,0,0,1,.08,0,.08.08,0,0,1,.07,0,2.54,2.54,0,0,0-.11.72.78.78,0,0,0,0,.32c0,.07.08.11.14.11a.2.2,0,0,0,.08,0,.64.64,0,0,0,.1-.14c0-.07.07-.16.12-.27s.09-.26.14-.43c.07,0,.09,0,.07.13a3.74,3.74,0,0,1-.14.46,1.05,1.05,0,0,1-.14.3.63.63,0,0,1-.14.17A.3.3,0,0,1,54.26,55.28Zm-.18-2.16a.12.12,0,0,0,0,.1.15.15,0,0,0,.11,0,.2.2,0,0,0,.14-.06.15.15,0,0,0,.06-.13.16.16,0,0,0,0-.1.21.21,0,0,0-.16,0h-.08a.93.93,0,0,0,0,.1A.31.31,0,0,0,54.08,53.12Z"/><path class="cls-5" d="M55.88,55.3a.2.2,0,0,1-.17-.09A.67.67,0,0,1,55.6,55a2.51,2.51,0,0,1-.05-.31c0-.12,0-.23,0-.34v-.27s0,0,0,0,0,0,0,0a1.33,1.33,0,0,0-.11.24c0,.09-.07.18-.1.27l-.09.25-.08.2a.67.67,0,0,1-.1.18.16.16,0,0,1-.09,0,.14.14,0,0,1-.11-.06.3.3,0,0,1-.07-.19,1.34,1.34,0,0,1,0-.21v-.26l0-.25a.88.88,0,0,1,0-.2.12.12,0,0,1,.05-.08.13.13,0,0,1,.08,0L55,54l0,0a.48.48,0,0,0,0,.15,1.59,1.59,0,0,0,0,.26,2.58,2.58,0,0,0,0,.29,1.63,1.63,0,0,0,0,.24s0,.05,0,.05,0,0,0,0a1.1,1.1,0,0,0,.09-.23c0-.09.07-.19.11-.29a2.65,2.65,0,0,1,.11-.3,1.61,1.61,0,0,1,.12-.23q.1-.15.21-.15a.1.1,0,0,1,.1.06.7.7,0,0,1,0,.16c0,.17,0,.32,0,.46s0,.25,0,.34a1.29,1.29,0,0,0,.06.22c0,.06.06.08.1.08A.12.12,0,0,0,56,55a.76.76,0,0,0,.1-.15c0-.07.07-.16.11-.27l.15-.44c.06,0,.09,0,.07.13s-.1.34-.14.47a1.93,1.93,0,0,1-.13.31.63.63,0,0,1-.14.17A.3.3,0,0,1,55.88,55.3Z"/><path class="cls-5" d="M57.58,54.17c.07,0,.09,0,.07.13a2.22,2.22,0,0,1-.17.46,1.38,1.38,0,0,1-.22.32.72.72,0,0,1-.25.19.53.53,0,0,1-.24.06.41.41,0,0,1-.35-.17.8.8,0,0,1-.14-.51,1.16,1.16,0,0,1,.06-.38.83.83,0,0,1,.13-.3.66.66,0,0,1,.18-.19.4.4,0,0,1,.22-.07.23.23,0,0,1,.13,0,.18.18,0,0,1,.09.08.22.22,0,0,1,0,.12.68.68,0,0,1,0,.15.59.59,0,0,1,0,.23.54.54,0,0,1-.11.18.53.53,0,0,1-.14.12.38.38,0,0,1-.17,0,.39.39,0,0,1-.15,0l-.11-.08v0a.74.74,0,0,0,.1.4.32.32,0,0,0,.26.13.36.36,0,0,0,.19,0,.56.56,0,0,0,.2-.16,1.13,1.13,0,0,0,.2-.29A2.43,2.43,0,0,0,57.58,54.17Zm-.76-.28a.14.14,0,0,0-.1,0,.32.32,0,0,0-.1.1l-.09.15a.48.48,0,0,0-.06.18.18.18,0,0,0,.08.09.22.22,0,0,0,.13,0l.1,0,.09-.07a.47.47,0,0,0,.07-.12.41.41,0,0,0,0-.16.42.42,0,0,0,0-.16A.11.11,0,0,0,56.82,53.89Z"/><path class="cls-5" d="M44.45,88.4a4.61,4.61,0,0,1,0-.56c0-.16,0-.3.06-.41a1.37,1.37,0,0,1,.09-.25q0-.09.09-.09c.06,0,.08.07.08.22a2.23,2.23,0,0,1,0,.4,4.51,4.51,0,0,1-.14.61,3.14,3.14,0,0,0,.07.72,2,2,0,0,0,.19.52,1,1,0,0,0,.27.32.56.56,0,0,0,.31.11.61.61,0,0,0,.39-.17,1.57,1.57,0,0,0,.35-.51,3.31,3.31,0,0,0,.25-.82,5.39,5.39,0,0,0,.1-1.11,2.55,2.55,0,0,0,0-.39,3.69,3.69,0,0,0-.05-.37,2,2,0,0,0-.1-.32.7.7,0,0,0-.15-.24.22.22,0,0,1,.05-.08.11.11,0,0,1,.07,0s.07,0,.09,0a.19.19,0,0,1,.07.08,1,1,0,0,1,.11.23,1.57,1.57,0,0,1,.08.31c0,.11,0,.23,0,.35s0,.24,0,.36a6.33,6.33,0,0,1-.05.76,4.46,4.46,0,0,1-.13.69,4.2,4.2,0,0,1-.21.6,2.23,2.23,0,0,1-.27.46,1.12,1.12,0,0,1-.32.3.72.72,0,0,1-.37.11.57.57,0,0,1-.32-.1,1,1,0,0,1-.29-.27,1.64,1.64,0,0,1-.22-.44,2.62,2.62,0,0,1-.13-.61,2.4,2.4,0,0,1-.53,1,.9.9,0,0,1-.64.32,1,1,0,0,1-.24,0,.5.5,0,0,1-.19-.13.55.55,0,0,1-.14-.21.85.85,0,0,1,0-.3,1.65,1.65,0,0,1,.06-.43,3.52,3.52,0,0,1,.15-.42c.06-.15.12-.29.19-.43a4,4,0,0,0,.19-.43,3.52,3.52,0,0,0,.15-.42,1.65,1.65,0,0,0,.06-.43.61.61,0,0,0,0-.24.37.37,0,0,0-.1-.17.38.38,0,0,0-.15-.09.64.64,0,0,0-.2,0,1.25,1.25,0,0,0-.42.08,1.86,1.86,0,0,0-.39.21,1.92,1.92,0,0,0-.34.3,2.47,2.47,0,0,0-.28.38,3.79,3.79,0,0,0-.18.42,1.52,1.52,0,0,0-.06.42.59.59,0,0,0,.1.39.4.4,0,0,0,.29.11.71.71,0,0,0,.37-.1,1.32,1.32,0,0,0,.3-.28,1.46,1.46,0,0,0,.2-.37,1.13,1.13,0,0,0,.08-.39.56.56,0,0,0,0-.21.17.17,0,0,0-.12-.1.18.18,0,0,1,0-.1.1.1,0,0,1,.09,0,.2.2,0,0,1,.17.11.74.74,0,0,1,.05.28,1.41,1.41,0,0,1-.09.49,1.92,1.92,0,0,1-.27.46,1.51,1.51,0,0,1-.38.33.9.9,0,0,1-.45.13.54.54,0,0,1-.4-.16.7.7,0,0,1-.15-.49,1.61,1.61,0,0,1,.08-.48,2.26,2.26,0,0,1,.21-.48,2.88,2.88,0,0,1,.71-.79,2.46,2.46,0,0,1,.45-.24A1.36,1.36,0,0,1,43,86.1a.61.61,0,0,1,.47.18.66.66,0,0,1,.18.51,1.51,1.51,0,0,1-.06.41c0,.14-.09.29-.14.43l-.19.43c-.07.14-.13.28-.19.42s-.1.29-.14.43a1.59,1.59,0,0,0-.06.43.51.51,0,0,0,0,.22.35.35,0,0,0,.09.16.33.33,0,0,0,.14.1.47.47,0,0,0,.17,0,.6.6,0,0,0,.27-.07,1,1,0,0,0,.28-.25,2.39,2.39,0,0,0,.29-.44A6.25,6.25,0,0,0,44.45,88.4Z"/><path class="cls-5" d="M46.93,88.24a.41.41,0,0,0,.11.07v0a5.92,5.92,0,0,1,.06-.79,2.6,2.6,0,0,1,.14-.58,1,1,0,0,1,.19-.35.35.35,0,0,1,.24-.12.25.25,0,0,1,.22.15A.86.86,0,0,1,48,87a2,2,0,0,1-.23,1,1.34,1.34,0,0,1-.24.32.55.55,0,0,1-.27.16v.3a2.35,2.35,0,0,1,0,.26,1.86,1.86,0,0,1,0,.22.71.71,0,0,0,0,.12s0,0,0,0,0,0,0,0a1.65,1.65,0,0,0,.09-.22c0-.09.06-.18.1-.27s.07-.18.11-.27a1.5,1.5,0,0,1,.11-.22.44.44,0,0,1,.1-.12.19.19,0,0,1,.1,0,.13.13,0,0,1,.11.06.76.76,0,0,1,.06.21,1.11,1.11,0,0,1,0,.19,1.36,1.36,0,0,1,0,.2,1.49,1.49,0,0,1,0,.21l0,.19a.81.81,0,0,0,0,.21s.05.08.09.08a.15.15,0,0,0,.08,0,.45.45,0,0,0,.09-.16,1.86,1.86,0,0,0,.11-.27l.14-.42c.07,0,.09,0,.07.13a3.41,3.41,0,0,1-.26.76q-.13.24-.27.24a.26.26,0,0,1-.2-.11.93.93,0,0,1-.12-.37c0-.06,0-.13,0-.2a1.49,1.49,0,0,1,0-.21c0-.07,0-.14,0-.2s0-.13,0-.18,0,0,0,0,0,0,0,0-.07.14-.1.22a2.6,2.6,0,0,0-.1.25l-.09.23a1.31,1.31,0,0,1-.07.19l-.06.15,0,.08-.05,0h-.1a.07.07,0,0,1,0,0,.23.23,0,0,1,0-.1s0-.1,0-.17,0-.11,0-.18,0-.14,0-.22v-.25a2.18,2.18,0,0,1,0-.25l-.06,0,0,0a.11.11,0,0,1,0-.09A.08.08,0,0,1,46.93,88.24Zm.31-.18a.49.49,0,0,0,0,.12v.12a.46.46,0,0,0,.2-.15,1.12,1.12,0,0,0,.18-.28,1.86,1.86,0,0,0,.16-.8.85.85,0,0,0,0-.32c0-.06-.07-.09-.11-.09s-.08,0-.12.1a1.18,1.18,0,0,0-.12.27,3.24,3.24,0,0,0-.1.44A5.14,5.14,0,0,0,47.24,88.06Z"/><path class="cls-5" d="M48.74,87.41a.15.15,0,0,1,.06-.13.26.26,0,0,1,.19,0,.36.36,0,0,1,.27.08.27.27,0,0,1,.09.2.48.48,0,0,1,0,.18.91.91,0,0,1-.11.16.53.53,0,0,1-.15.11.28.28,0,0,1-.15,0,.21.21,0,0,1-.18-.07.24.24,0,0,1-.06-.18.44.44,0,0,1,.09-.27A.2.2,0,0,1,48.74,87.41ZM49,89.8a.26.26,0,0,1-.23-.14.9.9,0,0,1-.09-.47,1,1,0,0,1,0-.17.88.88,0,0,1,0-.17l0-.17a1.27,1.27,0,0,1,0-.14.44.44,0,0,1,.06-.1.09.09,0,0,1,.08,0,.11.11,0,0,1,.08,0,2,2,0,0,0-.09.35,2.19,2.19,0,0,0,0,.36.69.69,0,0,0,.06.33.13.13,0,0,0,.13.1.12.12,0,0,0,.09,0,.56.56,0,0,0,.09-.13,1.78,1.78,0,0,0,.12-.27l.15-.43c.06,0,.09,0,.07.13s-.1.34-.14.46a2.2,2.2,0,0,1-.14.3.47.47,0,0,1-.15.16A.24.24,0,0,1,49,89.8Zm-.18-2.15a.15.15,0,0,0,0,.1.21.21,0,0,0,.12,0,.18.18,0,0,0,.13-.06.16.16,0,0,0,.06-.13.12.12,0,0,0-.05-.1.19.19,0,0,0-.15-.06h-.09a.3.3,0,0,0,0,.11A.29.29,0,0,0,48.82,87.65Z"/><path class="cls-5" d="M49.19,88l.08,0h.27a1.85,1.85,0,0,1,.09-.46c0-.11.08-.16.13-.16s0,0,.05,0a.91.91,0,0,1,0,.21v.13s0,.1,0,.16l.12,0h.14a.3.3,0,0,1,.18,0,.14.14,0,0,1,0,.1.08.08,0,0,1,0,.07s0,0-.05,0l-.09,0-.14,0h-.11l-.11,0c0,.07,0,.14,0,.22s0,.16-.06.26a2.36,2.36,0,0,0,0,.48,1.22,1.22,0,0,0,.06.32.49.49,0,0,0,.08.19.14.14,0,0,0,.09,0,.12.12,0,0,0,.09,0,.45.45,0,0,0,.11-.14,2.9,2.9,0,0,0,.12-.28c0-.12.1-.27.16-.45.07,0,.09,0,.07.13s-.1.34-.14.47a1.8,1.8,0,0,1-.15.31.75.75,0,0,1-.14.18.24.24,0,0,1-.14.06.26.26,0,0,1-.16-.07.64.64,0,0,1-.12-.21,2.1,2.1,0,0,1-.08-.37,3,3,0,0,1,0-.56c0-.09,0-.18,0-.26a1.69,1.69,0,0,1,0-.23h-.19a.21.21,0,0,1-.15,0,.11.11,0,0,1,0-.09A.08.08,0,0,1,49.19,88Z"/><path class="cls-5" d="M51.62,88.7c.07,0,.09,0,.07.13a1.91,1.91,0,0,1-.17.46,1.29,1.29,0,0,1-.22.32,1,1,0,0,1-.24.19.61.61,0,0,1-.25.06.44.44,0,0,1-.35-.17.8.8,0,0,1-.13-.51,1.13,1.13,0,0,1,.05-.38,1,1,0,0,1,.13-.3.73.73,0,0,1,.19-.2.44.44,0,0,1,.22-.07.28.28,0,0,1,.13,0l.09.08a.61.61,0,0,1,0,.12.76.76,0,0,1,0,.15.64.64,0,0,1,0,.24.77.77,0,0,1-.1.18.79.79,0,0,1-.15.12.35.35,0,0,1-.17,0,.32.32,0,0,1-.14,0,.18.18,0,0,1-.11-.07v0a.63.63,0,0,0,.1.39.3.3,0,0,0,.25.14A.49.49,0,0,0,51,89.6a.59.59,0,0,0,.2-.16,1.45,1.45,0,0,0,.21-.29A3.49,3.49,0,0,0,51.62,88.7Zm-.75-.28a.23.23,0,0,0-.11,0l-.1.1-.09.15-.06.18a.22.22,0,0,0,.09.1.28.28,0,0,0,.13,0,.15.15,0,0,0,.09,0,.23.23,0,0,0,.1-.07l.06-.11a.41.41,0,0,0,0-.16.25.25,0,0,0,0-.16A.1.1,0,0,0,50.87,88.42Z"/><path class="cls-5" d="M52.91,88.5a.82.82,0,0,1,0,.14c0,.06,0,.13,0,.21a1.55,1.55,0,0,0,0,.33.64.64,0,0,0,.06.22.62.62,0,0,0,.09.12.16.16,0,0,0,.1,0,.2.2,0,0,0,.15-.09.49.49,0,0,0,.11-.23,3,3,0,0,1,0-.32.86.86,0,0,1,.05-.35q0-.12.09-.12s.05,0,.06.07a.49.49,0,0,1,0,.2,1.34,1.34,0,0,1,0,.2l0,.19a.9.9,0,0,0,.11.38c.06.1.12.14.18.14a.12.12,0,0,0,.09,0,.35.35,0,0,0,.07-.11.75.75,0,0,0,.07-.18,1.24,1.24,0,0,0,0-.22l-.06-.19a1.93,1.93,0,0,1,0-.25,1.19,1.19,0,0,1,0-.31c0-.07.05-.11.09-.11s.06,0,.08.15a1.29,1.29,0,0,1,0,.38v.14s0,.09,0,.15a.25.25,0,0,0,.16.06h.08l.08-.06.08-.12c0-.06,0-.13.08-.21s.09,0,.07.13a.79.79,0,0,1-.08.22,1,1,0,0,1-.11.15.41.41,0,0,1-.11.07l-.11,0a.27.27,0,0,1-.17-.06q0,.13-.06.24l-.09.21a.81.81,0,0,1-.12.14.25.25,0,0,1-.15.05.29.29,0,0,1-.21-.1.71.71,0,0,1-.16-.3.72.72,0,0,1-.16.25.27.27,0,0,1-.18.07.3.3,0,0,1-.16-.05.53.53,0,0,1-.13-.16,1.07,1.07,0,0,1-.09-.27,1.43,1.43,0,0,1,0-.38,1.35,1.35,0,0,1,.05-.4c0-.1.07-.14.11-.14S52.91,88.42,52.91,88.5Z"/><path class="cls-5" d="M54.76,87.41a.15.15,0,0,1,.06-.13.26.26,0,0,1,.19,0,.36.36,0,0,1,.27.08.26.26,0,0,1,.08.2.34.34,0,0,1,0,.18.57.57,0,0,1-.11.16.49.49,0,0,1-.14.11.32.32,0,0,1-.16,0,.24.24,0,0,1-.18-.07.24.24,0,0,1-.06-.18.39.39,0,0,1,.1-.27A.2.2,0,0,1,54.76,87.41ZM55,89.8a.26.26,0,0,1-.23-.14.8.8,0,0,1-.1-.47s0-.11,0-.17,0-.12,0-.17a.85.85,0,0,1,0-.17.47.47,0,0,1,0-.14.44.44,0,0,1,.06-.1.09.09,0,0,1,.08,0,.08.08,0,0,1,.07,0,1.37,1.37,0,0,0-.08.35,2.19,2.19,0,0,0,0,.36.87.87,0,0,0,.05.33c0,.07.08.1.13.1a.12.12,0,0,0,.09,0,.53.53,0,0,0,.1-.13c0-.07.07-.16.11-.27a4.18,4.18,0,0,0,.15-.43c.07,0,.09,0,.07.13a4.38,4.38,0,0,1-.14.46,1.05,1.05,0,0,1-.14.3.46.46,0,0,1-.14.16A.24.24,0,0,1,55,89.8Zm-.18-2.15a.12.12,0,0,0,0,.1.21.21,0,0,0,.11,0,.2.2,0,0,0,.14-.06.16.16,0,0,0,.06-.13.16.16,0,0,0,0-.1.21.21,0,0,0-.16-.06H54.9l0,.11A.28.28,0,0,0,54.84,87.65Z"/><path class="cls-5" d="M56.64,89.83a.23.23,0,0,1-.18-.09,1.08,1.08,0,0,1-.1-.24,2.4,2.4,0,0,1,0-.32c0-.11,0-.23,0-.34v-.26s0,0,0,0,0,0,0,0-.07.15-.1.24a2,2,0,0,0-.1.26,1.61,1.61,0,0,0-.09.26l-.08.2a.46.46,0,0,1-.11.18.18.18,0,0,1-.09,0,.14.14,0,0,1-.1-.06.34.34,0,0,1-.07-.2,1.22,1.22,0,0,1,0-.21,2.09,2.09,0,0,1,0-.25,1.9,1.9,0,0,1,0-.25.77.77,0,0,1,0-.2.19.19,0,0,1,0-.09l.08,0h.06a.05.05,0,0,1,0,0,.93.93,0,0,0-.05.14c0,.08,0,.16,0,.26s0,.2,0,.3a1.63,1.63,0,0,0,0,.24s0,0,0,0,0,0,0,0a1.38,1.38,0,0,0,.09-.23c0-.1.07-.19.11-.3a2.49,2.49,0,0,1,.11-.29,1.2,1.2,0,0,1,.12-.23c.07-.11.14-.16.21-.16a.1.1,0,0,1,.1.07.63.63,0,0,1,0,.16c0,.17,0,.32,0,.45s0,.25,0,.35a1.62,1.62,0,0,0,.06.22s.06.08.09.08a.18.18,0,0,0,.09,0,.76.76,0,0,0,.1-.15c0-.07.07-.16.11-.28l.15-.43c.06,0,.09,0,.06.13a4.63,4.63,0,0,1-.13.46c-.05.13-.09.23-.13.31a.51.51,0,0,1-.14.17A.24.24,0,0,1,56.64,89.83Z"/><path class="cls-5" d="M58.34,88.7c.07,0,.09,0,.07.13a2.46,2.46,0,0,1-.17.46,1.63,1.63,0,0,1-.22.32.87.87,0,0,1-.25.19.53.53,0,0,1-.24.06.43.43,0,0,1-.35-.17.8.8,0,0,1-.14-.51,1.46,1.46,0,0,1,.05-.38,1,1,0,0,1,.14-.3.7.7,0,0,1,.18-.2.47.47,0,0,1,.22-.07.25.25,0,0,1,.13,0,.24.24,0,0,1,.09.08.31.31,0,0,1,0,.12.77.77,0,0,1,0,.15.64.64,0,0,1,0,.24.54.54,0,0,1-.11.18.44.44,0,0,1-.15.12.32.32,0,0,1-.16,0,.4.4,0,0,1-.15,0,.21.21,0,0,1-.11-.07v0a.63.63,0,0,0,.1.39.31.31,0,0,0,.26.14.49.49,0,0,0,.19-.05.87.87,0,0,0,.2-.16,1.13,1.13,0,0,0,.2-.29A2.43,2.43,0,0,0,58.34,88.7Zm-.76-.28a.19.19,0,0,0-.1,0,.47.47,0,0,0-.1.1,1.19,1.19,0,0,0-.09.15.64.64,0,0,0-.06.18.2.2,0,0,0,.08.1.28.28,0,0,0,.13,0,.18.18,0,0,0,.1,0,.28.28,0,0,0,.09-.07.33.33,0,0,0,.09-.27.35.35,0,0,0,0-.16A.11.11,0,0,0,57.58,88.42Z"/><path class="cls-5" d="M70.61,69.41a2.4,2.4,0,0,1-.28,0l-.3,0a2.64,2.64,0,0,1-.6-.06,2,2,0,0,1-.43-.15.82.82,0,0,1-.25-.24.6.6,0,0,1-.08-.29.59.59,0,0,1,.11-.33,1.1,1.1,0,0,1,.3-.31,2.23,2.23,0,0,1,.46-.27,3.91,3.91,0,0,1,.58-.21,4.54,4.54,0,0,1,.68-.14,5.71,5.71,0,0,1,.73,0,4.48,4.48,0,0,1,1,.09,2.21,2.21,0,0,1,.65.24,1.06,1.06,0,0,1,.38.34.71.71,0,0,1,.12.38.68.68,0,0,1-.12.37,1.27,1.27,0,0,1-.34.36,3,3,0,0,1-.51.31,3.93,3.93,0,0,1-.66.23,2,2,0,0,1,.74.3.57.57,0,0,1,.27.47.63.63,0,0,1-.13.39,1.39,1.39,0,0,1-.38.33,2.27,2.27,0,0,1-.59.22,3.07,3.07,0,0,1-.77.09,2.57,2.57,0,0,1-.5,0,1.38,1.38,0,0,1-.39-.14.72.72,0,0,1-.25-.19.4.4,0,0,1-.09-.24.41.41,0,0,1,0-.19.75.75,0,0,1,.14-.17.88.88,0,0,1,.23-.14,1.89,1.89,0,0,1,.31-.1v-.22a1.77,1.77,0,0,0,0-.23.64.64,0,0,1-.21,0s-.07,0-.07-.07,0,0,.06-.06a.7.7,0,0,1,.21,0Zm-.53-.12a2.75,2.75,0,0,0,.52,0c0-.16,0-.3,0-.43s0-.25-.06-.35a1,1,0,0,0-.35.11.4.4,0,0,0-.15.13.08.08,0,0,1-.07,0,.08.08,0,0,1,0-.08c0-.06.05-.11.15-.17a1.15,1.15,0,0,1,.41-.14s0,0,0,0a.05.05,0,0,0,0,0,.12.12,0,0,1,.13-.1.11.11,0,0,1,.07,0,.53.53,0,0,1,.06.13h.15a2.15,2.15,0,0,1,.4,0,.78.78,0,0,1,.26.1.53.53,0,0,1,.16.13.32.32,0,0,1,0,.16.45.45,0,0,1,0,.19,1,1,0,0,1-.17.19,2.32,2.32,0,0,1-.28.16,2.12,2.12,0,0,1-.36.13.49.49,0,0,1,0,.12c0,.05,0,.09,0,.13h.41l.28,0a4.38,4.38,0,0,0,.81-.19,3,3,0,0,0,.59-.3,1.36,1.36,0,0,0,.37-.34.64.64,0,0,0,.12-.35.52.52,0,0,0-.11-.32,1,1,0,0,0-.35-.28,2.25,2.25,0,0,0-.59-.2,4.06,4.06,0,0,0-.84-.08,4.9,4.9,0,0,0-1,.11,3.89,3.89,0,0,0-.83.25,2,2,0,0,0-.55.36.57.57,0,0,0-.2.38.38.38,0,0,0,.08.23.52.52,0,0,0,.22.19,1.15,1.15,0,0,0,.37.13A2.62,2.62,0,0,0,70.08,69.29Zm.51,2q0-.15,0-.36c0-.14,0-.28,0-.44a.91.91,0,0,0-.37.17.33.33,0,0,0-.13.25.29.29,0,0,0,.12.22A.73.73,0,0,0,70.59,71.27Zm.2-.15c0,.1,0,.16-.09.17l.22,0h.25a3.14,3.14,0,0,0,.72-.07,1.69,1.69,0,0,0,.51-.18,1,1,0,0,0,.3-.25.51.51,0,0,0,.1-.3.4.4,0,0,0-.09-.25.75.75,0,0,0-.25-.21,1.49,1.49,0,0,0-.38-.17,3.26,3.26,0,0,0-.49-.1l-.37,0h-.38v.41h.21a1.56,1.56,0,0,1,.55.08c.12.06.18.12.18.19a.12.12,0,0,1,0,.09s-.07,0-.13,0a.18.18,0,0,0-.06-.09.47.47,0,0,0-.14-.08l-.18,0a.68.68,0,0,0-.21,0h-.18c0,.13,0,.25,0,.37A2.36,2.36,0,0,1,70.79,71.12Zm-.09-2.67c0,.09,0,.21.06.33s0,.27,0,.42a1.81,1.81,0,0,0,.48-.21c.12-.09.17-.17.17-.25a.23.23,0,0,0,0-.11.35.35,0,0,0-.11-.09.69.69,0,0,0-.19-.07,1.23,1.23,0,0,0-.29,0H70.7Z"/><path class="cls-5" d="M74.64,70c.07,0,.09,0,.07.13a2.22,2.22,0,0,1-.17.46,1.38,1.38,0,0,1-.22.32.87.87,0,0,1-.25.19.53.53,0,0,1-.24.06.43.43,0,0,1-.35-.17.8.8,0,0,1-.14-.51,1.52,1.52,0,0,1,0-.38,1,1,0,0,1,.14-.3.55.55,0,0,1,.18-.19.4.4,0,0,1,.22-.08.25.25,0,0,1,.13,0,.18.18,0,0,1,.09.08.33.33,0,0,1,0,.12.59.59,0,0,1,0,.14.61.61,0,0,1,0,.24.54.54,0,0,1-.11.18.44.44,0,0,1-.15.12.32.32,0,0,1-.16,0l-.15,0a.31.31,0,0,1-.11-.08v0a.63.63,0,0,0,.1.39.31.31,0,0,0,.26.14.49.49,0,0,0,.19,0,.66.66,0,0,0,.2-.16,1.13,1.13,0,0,0,.2-.29A2.43,2.43,0,0,0,74.64,70Zm-.76-.28a.14.14,0,0,0-.1,0,.24.24,0,0,0-.1.1.67.67,0,0,0-.09.14.64.64,0,0,0-.06.18.16.16,0,0,0,.08.1.28.28,0,0,0,.13,0,.19.19,0,0,0,.1,0,.28.28,0,0,0,.09-.07A.33.33,0,0,0,74,70a.38.38,0,0,0,0-.16A.12.12,0,0,0,73.88,69.73Z"/><path class="cls-5" d="M75.85,70c.07,0,.09,0,.07.13a2.22,2.22,0,0,1-.17.46,1.38,1.38,0,0,1-.22.32,1,1,0,0,1-.24.19.61.61,0,0,1-.25.06.44.44,0,0,1-.35-.17.8.8,0,0,1-.14-.51,1.16,1.16,0,0,1,.06-.38.83.83,0,0,1,.13-.3.57.57,0,0,1,.19-.19.37.37,0,0,1,.22-.08.28.28,0,0,1,.13,0,.2.2,0,0,1,.08.08.23.23,0,0,1,.06.12.61.61,0,0,1,0,.14.61.61,0,0,1,0,.24.77.77,0,0,1-.1.18.79.79,0,0,1-.15.12.35.35,0,0,1-.17,0l-.14,0a.36.36,0,0,1-.12-.08v0a.7.7,0,0,0,.1.39.33.33,0,0,0,.26.14.49.49,0,0,0,.19,0,.56.56,0,0,0,.2-.16,1.45,1.45,0,0,0,.21-.29A3.49,3.49,0,0,0,75.85,70Zm-.75-.28a.17.17,0,0,0-.11,0,.24.24,0,0,0-.1.1L74.8,70l-.06.18a.18.18,0,0,0,.09.1.25.25,0,0,0,.12,0,.17.17,0,0,0,.1,0,.16.16,0,0,0,.09-.07.39.39,0,0,0,.1-.27.27.27,0,0,0,0-.16A.1.1,0,0,0,75.1,69.73Z"/><path class="cls-5" d="M77,70c.06,0,.08,0,.06.13a3.14,3.14,0,0,1-.14.48,1.29,1.29,0,0,1-.14.31.45.45,0,0,1-.14.16.3.3,0,0,1-.15,0,.25.25,0,0,1-.23-.14.78.78,0,0,1-.08-.42,1.47,1.47,0,0,1,0-.28,2,2,0,0,1,.07-.31.38.38,0,0,1-.12.15.3.3,0,0,1-.14,0,.19.19,0,0,1-.16-.08.52.52,0,0,1,0-.25.71.71,0,0,1,0-.15l0-.13a.39.39,0,0,1,0-.09.09.09,0,0,1,.06,0s.07.06.07.17,0,.09,0,.15A1.81,1.81,0,0,1,76,70L76,70a.2.2,0,0,0,.15-.09.55.55,0,0,0,.13-.24l0,0a.12.12,0,0,1,.12.08.2.2,0,0,1,0,.13,2.26,2.26,0,0,0-.11.7.5.5,0,0,0,0,.28.12.12,0,0,0,.2,0,.48.48,0,0,0,.1-.15,2,2,0,0,0,.12-.28C76.88,70.32,76.93,70.18,77,70Z"/><rect class="cls-9" x="171.08" y="52.81" width="17.13" height="3.93" rx="0.95"/><path class="cls-4" d="M174.38,55.49a.82.82,0,0,0,.45-.17,1.78,1.78,0,0,0,.46-.53,4.74,4.74,0,0,0,.42-1,10.66,10.66,0,0,0,.34-1.5,6.64,6.64,0,0,1,0-.76c0-.18.07-.27.13-.27s.05,0,.07.07a1,1,0,0,1,0,.22,5.45,5.45,0,0,1-.1.86c0,.21,0,.43,0,.65s.06.44.1.64.09.39.14.57a3.26,3.26,0,0,0,.15.42.79.79,0,0,0,.08.16.1.1,0,0,0,.08,0c.06,0,.11-.07.18-.21l.11-.28c0-.11.07-.23.11-.35s.07-.26.11-.39.07-.27.1-.41.06-.27.08-.4.05-.24.06-.35a4.34,4.34,0,0,1,.06-.69q0-.21.12-.21a.06.06,0,0,1,.06.05.37.37,0,0,1,0,.17,2.11,2.11,0,0,1,0,.23l0,.28c0,.15,0,.31,0,.48s0,.35,0,.53,0,.34.05.51,0,.32.07.46a4.63,4.63,0,0,0,.22.83,2.8,2.8,0,0,0,.26.5.87.87,0,0,0,.26.23.56.56,0,0,0,.23.06.45.45,0,0,0,.25-.07.4.4,0,0,0,.16-.2.08.08,0,0,1,.09.06.22.22,0,0,1,0,.13.48.48,0,0,1-.2.22.61.61,0,0,1-.3.08.65.65,0,0,1-.32-.09,1,1,0,0,1-.31-.3,2.07,2.07,0,0,1-.29-.56,4.62,4.62,0,0,1-.23-.88c0-.2-.05-.4-.07-.59s0-.38,0-.58c0,.13,0,.27-.08.41s-.07.29-.11.43-.08.27-.13.4-.09.25-.13.35a1.41,1.41,0,0,1-.19.34.24.24,0,0,1-.18.09c-.1,0-.21-.12-.32-.36a3.5,3.5,0,0,1-.12-.35,4,4,0,0,1-.11-.44c0-.16-.07-.32-.1-.5s0-.35-.06-.52a7.19,7.19,0,0,1-.33,1.23,3.75,3.75,0,0,1-.42.83,1.63,1.63,0,0,1-.48.47,1,1,0,0,1-.49.15.68.68,0,0,1-.32-.07.72.72,0,0,1-.24-.19.79.79,0,0,1-.15-.32,1.32,1.32,0,0,1,0-.41,2.07,2.07,0,0,1,0-.5,2.27,2.27,0,0,1,.16-.46,2.33,2.33,0,0,1,.24-.41,2.26,2.26,0,0,1,.29-.32,1.15,1.15,0,0,1,.33-.21.81.81,0,0,1,.34-.08.43.43,0,0,1,.35.16.8.8,0,0,1,.13.51,1.82,1.82,0,0,1-.06.46,1.62,1.62,0,0,1-.18.4.85.85,0,0,1-.25.28.42.42,0,0,1-.29.11.3.3,0,0,1-.23-.11.55.55,0,0,1-.1-.34,1,1,0,0,1,.06-.33.69.69,0,0,1,.15-.28.19.19,0,0,1,.13-.08l0,0s0,0,0,0a.64.64,0,0,0-.18.27,1,1,0,0,0,0,.29.48.48,0,0,0,0,.24.16.16,0,0,0,.14.07.27.27,0,0,0,.18-.07.58.58,0,0,0,.18-.22,1.19,1.19,0,0,0,.14-.32,1.6,1.6,0,0,0,0-.39.7.7,0,0,0-.09-.39.31.31,0,0,0-.26-.12.62.62,0,0,0-.26.06,1.51,1.51,0,0,0-.26.18,1.72,1.72,0,0,0-.25.28,2.91,2.91,0,0,0-.2.35,2.34,2.34,0,0,0-.13.4,1.54,1.54,0,0,0-.06.43,1.43,1.43,0,0,0,0,.38.85.85,0,0,0,.13.27.55.55,0,0,0,.19.15A.6.6,0,0,0,174.38,55.49Z"/><path class="cls-4" d="M179.94,54.31a1.08,1.08,0,0,1-.1.27.72.72,0,0,1-.14.19.66.66,0,0,1-.17.12l-.18.06a.63.63,0,0,1-.2.29.53.53,0,0,1-.29.1.43.43,0,0,1-.35-.17.91.91,0,0,1-.13-.51,1.65,1.65,0,0,1,0-.31,1,1,0,0,1,.12-.28.43.43,0,0,1,.1-.26.29.29,0,0,1,.23-.1.48.48,0,0,1,.23.07.73.73,0,0,1,.17.18,1.09,1.09,0,0,1,.11.27,1.86,1.86,0,0,1,0,.34s0,.06,0,.1a.19.19,0,0,1,0,.08.39.39,0,0,0,.14,0,.35.35,0,0,0,.12-.1.56.56,0,0,0,.11-.17,1.18,1.18,0,0,0,.1-.25C179.94,54.18,180,54.22,179.94,54.31Zm-1,.81a.31.31,0,0,0,.27-.17.73.73,0,0,1-.19-.07,1.09,1.09,0,0,1-.17-.13,1.15,1.15,0,0,1-.14-.17,2,2,0,0,1-.1-.21,1.52,1.52,0,0,0,0,.23.63.63,0,0,0,.1.39A.3.3,0,0,0,178.9,55.12Zm-.22-1a.59.59,0,0,0,0,.22.69.69,0,0,0,.13.2.65.65,0,0,0,.18.15.39.39,0,0,0,.2.08.62.62,0,0,0,0-.15.83.83,0,0,0,0-.28.63.63,0,0,0-.09-.22A.44.44,0,0,0,179,54a.24.24,0,0,0-.16,0,.16.16,0,0,0-.13.06s0,0,0,0l0,0Z"/><path class="cls-4" d="M181,55.31a.2.2,0,0,1-.17-.09.67.67,0,0,1-.11-.24,2.4,2.4,0,0,1,0-.32c0-.11,0-.23,0-.34v-.26s0,0,0-.05,0,0,0,.05a1.33,1.33,0,0,0-.11.24,2,2,0,0,0-.1.26c0,.09-.06.18-.09.26l-.08.2a.46.46,0,0,1-.11.18.18.18,0,0,1-.09,0,.14.14,0,0,1-.1-.06.31.31,0,0,1-.07-.2,1.22,1.22,0,0,1,0-.21v-.25a1.9,1.9,0,0,1,0-.25.88.88,0,0,1,0-.2.19.19,0,0,1,0-.09l.08,0h.06a.05.05,0,0,1,0,0,.49.49,0,0,0,0,.14c0,.08,0,.16-.05.26s0,.2,0,.3a1.63,1.63,0,0,0,0,.24.06.06,0,0,0,0,0s0,0,0,0a1.38,1.38,0,0,0,.09-.23c0-.1.07-.19.11-.3a2.49,2.49,0,0,1,.11-.29,1.2,1.2,0,0,1,.12-.23c.07-.11.14-.16.21-.16a.1.1,0,0,1,.1.07.63.63,0,0,1,0,.16c0,.17,0,.32,0,.45s0,.25,0,.35a1.62,1.62,0,0,0,.06.22s.06.08.09.08a.18.18,0,0,0,.09,0,.76.76,0,0,0,.1-.15c0-.07.07-.16.11-.28l.15-.43c.06,0,.09,0,.06.13a4.63,4.63,0,0,1-.13.46c-.05.13-.09.23-.13.31a.66.66,0,0,1-.14.17A.24.24,0,0,1,181,55.31Z"/><path class="cls-4" d="M182.76,51.84a.25.25,0,0,1,.12,0A.48.48,0,0,1,183,52a1.84,1.84,0,0,1,.06.23,2.92,2.92,0,0,1,0,.33,4,4,0,0,1-.05.6c0,.2-.08.4-.13.58a4.3,4.3,0,0,1-.2.54,4.73,4.73,0,0,1-.23.45.57.57,0,0,0,.15.23.23.23,0,0,0,.14.07.14.14,0,0,0,.09,0,.38.38,0,0,0,.12-.13,1.22,1.22,0,0,0,.14-.26c0-.11.11-.26.17-.43.06,0,.08,0,.06.13a4.38,4.38,0,0,1-.14.46,2.09,2.09,0,0,1-.15.3.78.78,0,0,1-.15.16.35.35,0,0,1-.17,0,.32.32,0,0,1-.2-.09.74.74,0,0,1-.19-.25,1.45,1.45,0,0,1-.27.28.47.47,0,0,1-.25.1.37.37,0,0,1-.31-.17.83.83,0,0,1-.11-.45,1.68,1.68,0,0,1,0-.4,1,1,0,0,1,.16-.31.8.8,0,0,1,.21-.2.48.48,0,0,1,.26-.07h.06a5.79,5.79,0,0,1,.07-.77,2.79,2.79,0,0,1,.16-.59,1.39,1.39,0,0,1,.2-.37A.33.33,0,0,1,182.76,51.84Zm-.52,2.91a1.72,1.72,0,0,1-.09-.36c0-.14,0-.29,0-.46l-.09,0a.33.33,0,0,0-.19.06.77.77,0,0,0-.15.16.85.85,0,0,0-.09.24.8.8,0,0,0,0,.27.58.58,0,0,0,.08.34.26.26,0,0,0,.18.11A.37.37,0,0,0,182,55,1.12,1.12,0,0,0,182.24,54.75Zm0-.7,0,.27c0,.08,0,.16.05.23a2.69,2.69,0,0,0,.19-.38c.05-.14.11-.3.15-.46a3.84,3.84,0,0,0,.1-.51,3.31,3.31,0,0,0,0-.55,2.1,2.1,0,0,0,0-.27.4.4,0,0,0,0-.17.19.19,0,0,0,0-.09s0,0-.05,0-.08,0-.13.12a1.8,1.8,0,0,0-.14.35,4,4,0,0,0-.11.53,4.86,4.86,0,0,0-.05.69.13.13,0,0,1,.06.07.19.19,0,0,1,0,.07.13.13,0,0,1,0,.08Z"/><path class="cls-4" d="M184.22,54.22a.49.49,0,0,1,0,.15s0,.05-.06.05a.89.89,0,0,1-.06.31c0,.21.09.31.19.31a.17.17,0,0,0,.11,0,.34.34,0,0,0,.11-.14,1.29,1.29,0,0,0,.12-.26,3.26,3.26,0,0,0,.15-.42c.07,0,.09,0,.07.13a4.65,4.65,0,0,1-.14.47,1.58,1.58,0,0,1-.14.29.47.47,0,0,1-.15.16.28.28,0,0,1-.15,0c-.15,0-.25-.08-.3-.26a.74.74,0,0,1-.2.23.36.36,0,0,1-.24.09.31.31,0,0,1-.27-.16.8.8,0,0,1-.11-.46,1.57,1.57,0,0,1,.05-.37,1.24,1.24,0,0,1,.15-.33.93.93,0,0,1,.21-.23.5.5,0,0,1,.27-.08.34.34,0,0,1,.18,0,.28.28,0,0,1,.13.11.48.48,0,0,1,.08.16A1.49,1.49,0,0,1,184.22,54.22Zm-.15,0A.37.37,0,0,0,184,54a.28.28,0,0,0-.2-.08.33.33,0,0,0-.19.06.61.61,0,0,0-.15.17,1.33,1.33,0,0,0-.1.24,1.24,1.24,0,0,0,0,.27.68.68,0,0,0,.07.35.21.21,0,0,0,.18.12.3.3,0,0,0,.19-.09,1,1,0,0,0,.16-.22.2.2,0,0,1,0-.07v-.08a1.06,1.06,0,0,1,0-.34C184,54.23,184,54.2,184.07,54.21Z"/><path class="cls-4" d="M185.06,55.33a.26.26,0,0,1-.15,0,.29.29,0,0,1-.11-.11.69.69,0,0,1-.07-.19,1.32,1.32,0,0,1,0-.3c0-.07,0-.14,0-.21l0-.23a1.6,1.6,0,0,1,0-.21c0-.08,0-.14.06-.2s0-.08.07-.09a.09.09,0,0,1,.07,0,.08.08,0,0,1,.07,0,1.8,1.8,0,0,0-.13.43,3.34,3.34,0,0,0,0,.43,1.85,1.85,0,0,0,0,.25A.53.53,0,0,0,185,55a.16.16,0,0,0,.07.07.11.11,0,0,0,.07,0c.08,0,.17-.08.26-.23a2.66,2.66,0,0,0,.28-.71c0-.06.05-.09.1-.09h.07a1.25,1.25,0,0,0,0,.43c0,.15.08.31.13.48s.1.34.15.53a2.2,2.2,0,0,1,.07.58,1.44,1.44,0,0,1-.08.49,1.08,1.08,0,0,1-.24.37.88.88,0,0,1-.36.24,1.12,1.12,0,0,1-.45.08,1,1,0,0,1-.36-.06,1.32,1.32,0,0,1-.29-.15,1,1,0,0,1-.19-.22.59.59,0,0,1-.07-.25.16.16,0,0,1,0-.11.1.1,0,0,1,.1,0,.51.51,0,0,0,.07.23.61.61,0,0,0,.17.19.68.68,0,0,0,.25.14.73.73,0,0,0,.3,0,.92.92,0,0,0,.67-.24.94.94,0,0,0,.25-.69,2.14,2.14,0,0,0-.05-.45,2.71,2.71,0,0,0-.09-.41c0-.13-.07-.26-.11-.38a2.66,2.66,0,0,1-.07-.37,1.74,1.74,0,0,1-.28.58A.45.45,0,0,1,185.06,55.33Z"/><rect class="cls-9" x="171.08" y="75.75" width="17.13" height="3.93" rx="0.95"/><path class="cls-4" d="M174.59,75.52a.44.44,0,0,1-.07.24.78.78,0,0,1-.21.19,1.33,1.33,0,0,1-.32.12,1.7,1.7,0,0,1-.4,0,1.73,1.73,0,0,1-.47-.06,1.19,1.19,0,0,1-.36-.16.75.75,0,0,1-.23-.24.59.59,0,0,1-.09-.31.66.66,0,0,1,.11-.36,1,1,0,0,1,.29-.28,1.85,1.85,0,0,1,.45-.19,2.47,2.47,0,0,1,.56-.06,3.24,3.24,0,0,1,.55,0l.54.11.54.11a3.6,3.6,0,0,0,.58,0,1.27,1.27,0,0,0,.46-.07.49.49,0,0,0,.24-.2c.08,0,.11,0,.11.11a.2.2,0,0,1-.05.13.4.4,0,0,1-.14.11,1.23,1.23,0,0,1-.25.08,1.75,1.75,0,0,1-.35,0,3.69,3.69,0,0,1-.58,0l-.56-.11-.55-.1a3.43,3.43,0,0,0-.56,0,2.24,2.24,0,0,0-.46,0,1.31,1.31,0,0,0-.38.14.67.67,0,0,0-.25.22.47.47,0,0,0-.09.28.5.5,0,0,0,.06.24.68.68,0,0,0,.19.19,1.11,1.11,0,0,0,.29.13,1.6,1.6,0,0,0,.39,0,1.37,1.37,0,0,0,.36,0,1.34,1.34,0,0,0,.26-.08.49.49,0,0,0,.15-.13.2.2,0,0,0,.06-.14.17.17,0,0,0-.07-.14.39.39,0,0,0-.23-.07.11.11,0,0,1,0-.11.13.13,0,0,1,.11,0,.37.37,0,0,1,.25.1A.3.3,0,0,1,174.59,75.52Zm.39,1.65a.3.3,0,0,0,0-.15.33.33,0,0,0-.13-.13.58.58,0,0,0-.21-.09,1.47,1.47,0,0,0-.32,0,2.45,2.45,0,0,0-.56.07,1.69,1.69,0,0,0-.43.19.81.81,0,0,0-.28.27.55.55,0,0,0-.1.32.62.62,0,0,0,.1.35.75.75,0,0,0,.28.28,1.54,1.54,0,0,0,.47.18,2.76,2.76,0,0,0,.67.07,2.41,2.41,0,0,0,.64-.07,1.21,1.21,0,0,0,.44-.22.89.89,0,0,0,.27-.34,1.34,1.34,0,0,0,.08-.46,3.59,3.59,0,0,0,0-.47c0-.16,0-.31-.08-.47s-.05-.3-.07-.44a2.09,2.09,0,0,1,0-.43.76.76,0,0,1,.06-.35.18.18,0,0,1,.16-.12.09.09,0,0,1,.07,0,.1.1,0,0,1,0,.08s-.06.07-.09.14a.83.83,0,0,0,0,.24,3,3,0,0,0,0,.43c0,.14,0,.29.08.44s.05.3.07.46a4.12,4.12,0,0,1,0,.51,1.06,1.06,0,0,1-.11.51,1.08,1.08,0,0,1-.32.39,1.56,1.56,0,0,1-.52.24,2.53,2.53,0,0,1-.7.09,3.2,3.2,0,0,1-.73-.08,2.25,2.25,0,0,1-.54-.22,1,1,0,0,1-.33-.33.8.8,0,0,1-.11-.4.82.82,0,0,1,.11-.39,1,1,0,0,1,.32-.34,1.72,1.72,0,0,1,.51-.24,2.31,2.31,0,0,1,.67-.09,1.54,1.54,0,0,1,.4,0,.81.81,0,0,1,.28.13.47.47,0,0,1,.15.17.49.49,0,0,1,.05.2.53.53,0,0,1-.08.27.7.7,0,0,1-.21.21.91.91,0,0,1-.33.15,1.32,1.32,0,0,1-.41,0,.9.9,0,0,1-.23,0l-.2-.05-.15-.09a.16.16,0,0,1,0-.11.1.1,0,0,1,0-.09.2.2,0,0,1,.11,0,.1.1,0,0,0,.05.08.41.41,0,0,0,.11.07l.17,0,.19,0a1.06,1.06,0,0,0,.31,0,.69.69,0,0,0,.25-.1.58.58,0,0,0,.17-.14A.39.39,0,0,0,175,77.17Z"/><path class="cls-4" d="M178.09,77.12c.07,0,.09,0,.07.13a3.74,3.74,0,0,1-.14.46,1.07,1.07,0,0,1-.13.3.45.45,0,0,1-.14.16.25.25,0,0,1-.15,0,.24.24,0,0,1-.19-.1.65.65,0,0,1-.12-.25,1.24,1.24,0,0,1-.2.29.31.31,0,0,1-.22.11.29.29,0,0,1-.25-.17,1.09,1.09,0,0,1-.11-.54,3.57,3.57,0,0,1,0-.46,2,2,0,0,1,.11-.38c0-.09.07-.13.13-.13l.07,0a.91.91,0,0,0-.06.16c0,.06,0,.13-.05.21l0,.25a1.93,1.93,0,0,0,0,.24,1,1,0,0,0,0,.26.8.8,0,0,0,0,.18.35.35,0,0,0,.07.09.1.1,0,0,0,.08,0c.05,0,.1,0,.16-.1a1.18,1.18,0,0,0,.17-.31v-.14a1,1,0,0,1,0-.24q0-.12.06-.21a.53.53,0,0,1,.08-.15.09.09,0,0,1,.08-.06s.07,0,.07.11a2.06,2.06,0,0,1,0,.28c0,.11-.06.23-.1.35a.54.54,0,0,0,.07.32.17.17,0,0,0,.15.1.13.13,0,0,0,.08,0,.53.53,0,0,0,.1-.13l.12-.27Z"/><path class="cls-4" d="M179.31,77.12c.06,0,.08,0,.06.13a1.77,1.77,0,0,1-.17.46A1.36,1.36,0,0,1,179,78a.83.83,0,0,1-.25.19.57.57,0,0,1-.24.06.44.44,0,0,1-.36-.16.85.85,0,0,1-.13-.52,1.2,1.2,0,0,1,.05-.38,1.36,1.36,0,0,1,.13-.3.85.85,0,0,1,.19-.19.36.36,0,0,1,.22-.07.28.28,0,0,1,.13,0l.09.08a.33.33,0,0,1,.05.12.76.76,0,0,1,0,.15.59.59,0,0,1,0,.23.52.52,0,0,1-.1.18.4.4,0,0,1-.15.12.37.37,0,0,1-.17.05.35.35,0,0,1-.14,0,.19.19,0,0,1-.11-.08v0a.66.66,0,0,0,.1.4.3.3,0,0,0,.25.13.34.34,0,0,0,.19,0,.69.69,0,0,0,.21-.15,3.11,3.11,0,0,0,.2-.3A3.39,3.39,0,0,0,179.31,77.12Zm-.76-.28a.17.17,0,0,0-.11,0,.47.47,0,0,0-.1.1,1,1,0,0,0-.09.15,1.89,1.89,0,0,0-.06.18.2.2,0,0,0,.09.09.2.2,0,0,0,.13,0l.09,0,.1-.07a.34.34,0,0,0,.06-.12.44.44,0,0,0,0-.32A.15.15,0,0,0,178.55,76.84Z"/><path class="cls-4" d="M180,77.92a.28.28,0,0,0-.06-.18.65.65,0,0,0-.13-.16l-.18-.14-.17-.14a.75.75,0,0,1-.14-.17.46.46,0,0,1-.05-.2.78.78,0,0,1,0-.29c0-.07.07-.11.11-.11s.08.06.08.18,0,.1,0,.16a.94.94,0,0,1,0,.16.76.76,0,0,0,.21.19l.23.17a1.14,1.14,0,0,1,.19.19.46.46,0,0,1,.08.27.83.83,0,0,0,.18-.24,3.22,3.22,0,0,0,.2-.49c.06,0,.09,0,.07.13a2.44,2.44,0,0,1-.21.53.73.73,0,0,1-.27.28.51.51,0,0,1-.16.24.45.45,0,0,1-.28.09.52.52,0,0,1-.21,0,.66.66,0,0,1-.19-.09.57.57,0,0,1-.13-.14.41.41,0,0,1,0-.19.2.2,0,0,1,0-.14.22.22,0,0,1,.14-.05.4.4,0,0,1,.15,0l.17.07.19.06A.62.62,0,0,0,180,77.92Zm-.27.28a.26.26,0,0,0,.2-.08.58.58,0,0,1-.18,0l-.18-.07L179.4,78l-.12,0s0,0,0,0a.13.13,0,0,0,0,.08.31.31,0,0,0,.11.08.35.35,0,0,0,.14.06A.58.58,0,0,0,179.71,78.2Z"/><path class="cls-4" d="M181.82,74.79a.19.19,0,0,1,.11,0A.41.41,0,0,1,182,75c0,.06,0,.14.06.23a3,3,0,0,1,0,.34,4,4,0,0,1,0,.6c0,.2-.08.39-.13.58a4.15,4.15,0,0,1-.2.53,3.14,3.14,0,0,1-.23.45.61.61,0,0,0,.14.23.23.23,0,0,0,.15.07l.09,0a.43.43,0,0,0,.12-.14,1.22,1.22,0,0,0,.14-.26,4.29,4.29,0,0,0,.17-.43c.06,0,.08,0,.06.13a2.55,2.55,0,0,1-.14.46,1.38,1.38,0,0,1-.15.3.59.59,0,0,1-.15.16.37.37,0,0,1-.17,0,.32.32,0,0,1-.2-.09.92.92,0,0,1-.19-.26,1.45,1.45,0,0,1-.27.28.4.4,0,0,1-.25.1.36.36,0,0,1-.31-.16.83.83,0,0,1-.11-.45,1.25,1.25,0,0,1,.06-.4.89.89,0,0,1,.14-.31.68.68,0,0,1,.22-.2.48.48,0,0,1,.26-.07h.06a5.63,5.63,0,0,1,.07-.77,3.36,3.36,0,0,1,.15-.59,1.32,1.32,0,0,1,.21-.38A.31.31,0,0,1,181.82,74.79Zm-.53,2.91a1.82,1.82,0,0,1-.09-.37c0-.14,0-.29,0-.46h-.09a.33.33,0,0,0-.19.06.56.56,0,0,0-.14.16.54.54,0,0,0-.1.23.86.86,0,0,0,0,.28.61.61,0,0,0,.08.34.24.24,0,0,0,.18.1.43.43,0,0,0,.21-.08A1.4,1.4,0,0,0,181.29,77.7Zm.05-.71,0,.28c0,.08,0,.15,0,.22a2.69,2.69,0,0,0,.19-.38,3,3,0,0,0,.15-.45,3.84,3.84,0,0,0,.1-.51,3.43,3.43,0,0,0,0-.56,2,2,0,0,0,0-.26.48.48,0,0,0,0-.18.19.19,0,0,0,0-.09s0,0,0,0-.08,0-.13.12a1.67,1.67,0,0,0-.14.34,4.66,4.66,0,0,0-.16,1.22.19.19,0,0,1,.06.07.11.11,0,0,1,0,.07.2.2,0,0,1,0,.09Z"/><path class="cls-4" d="M183.27,77.16a.51.51,0,0,1,0,.16.13.13,0,0,1-.06.05.89.89,0,0,1-.06.3c0,.21.09.32.19.32a.21.21,0,0,0,.11,0,.57.57,0,0,0,.11-.14,1.78,1.78,0,0,0,.12-.27,3.26,3.26,0,0,0,.15-.42c.07,0,.09,0,.07.13a4,4,0,0,1-.14.47,2.15,2.15,0,0,1-.14.3.53.53,0,0,1-.15.15.3.3,0,0,1-.15,0c-.14,0-.24-.09-.3-.26a.85.85,0,0,1-.2.22.36.36,0,0,1-.24.09.32.32,0,0,1-.27-.15.84.84,0,0,1-.11-.46,1.65,1.65,0,0,1,0-.38,1.35,1.35,0,0,1,.15-.32.78.78,0,0,1,.21-.23.44.44,0,0,1,.27-.09.34.34,0,0,1,.18,0,.47.47,0,0,1,.13.11.89.89,0,0,1,.08.17A1.23,1.23,0,0,1,183.27,77.16Zm-.15,0a.37.37,0,0,0-.09-.23.24.24,0,0,0-.2-.08.33.33,0,0,0-.19.06.5.5,0,0,0-.15.17,1,1,0,0,0-.1.23,1.27,1.27,0,0,0,0,.28.64.64,0,0,0,.07.34.21.21,0,0,0,.18.12.3.3,0,0,0,.19-.09,1,1,0,0,0,.16-.22V77.6a1,1,0,0,1,.05-.34C183,77.17,183.07,77.14,183.12,77.16Z"/><path class="cls-4" d="M184.11,78.27a.4.4,0,0,1-.15,0,.38.38,0,0,1-.11-.11.77.77,0,0,1-.07-.2,1.26,1.26,0,0,1,0-.3,1.62,1.62,0,0,1,0-.21l0-.22a1.42,1.42,0,0,1,.05-.22.84.84,0,0,1,.07-.19.14.14,0,0,1,.06-.1.09.09,0,0,1,.07,0l.07,0a1.8,1.8,0,0,0-.13.43,3.49,3.49,0,0,0,0,.44,1.7,1.7,0,0,0,0,.24,1.31,1.31,0,0,0,0,.15.19.19,0,0,0,.07.08l.07,0c.08,0,.17-.08.26-.23a2.66,2.66,0,0,0,.28-.71q0-.09.09-.09l.08,0a1,1,0,0,0,0,.43c0,.15.08.31.13.47l.15.53a2.27,2.27,0,0,1,.07.59,1.53,1.53,0,0,1-.08.49,1.18,1.18,0,0,1-.24.37,1.13,1.13,0,0,1-.36.24,1.33,1.33,0,0,1-.45.08,1,1,0,0,1-.36-.06.9.9,0,0,1-.29-.16.79.79,0,0,1-.19-.22.55.55,0,0,1-.07-.25.16.16,0,0,1,0-.11.13.13,0,0,1,.11,0,.46.46,0,0,0,.06.23.79.79,0,0,0,.17.2.86.86,0,0,0,.25.14.94.94,0,0,0,.3,0,.88.88,0,0,0,.67-.25.93.93,0,0,0,.24-.69,3.4,3.4,0,0,0,0-.45c0-.14-.06-.28-.1-.41l-.11-.38a2.41,2.41,0,0,1-.07-.37,1.91,1.91,0,0,1-.28.59A.46.46,0,0,1,184.11,78.27Z"/><rect class="cls-9" x="171.08" y="100.95" width="17.13" height="3.93" rx="0.95"/><path class="cls-4" d="M173.8,102a4.56,4.56,0,0,1,0-.55,2.86,2.86,0,0,1,.07-.41,1,1,0,0,1,.08-.26s.07-.08.1-.08.08.07.08.21a3.58,3.58,0,0,1,0,.4c0,.17-.08.37-.14.61a3.17,3.17,0,0,0,.06.72,2,2,0,0,0,.19.53,1,1,0,0,0,.27.32.59.59,0,0,0,.32.11.58.58,0,0,0,.39-.18,1.56,1.56,0,0,0,.34-.51,3.45,3.45,0,0,0,.26-.82,6,6,0,0,0,.1-1.11c0-.13,0-.26,0-.39a2.2,2.2,0,0,0-.06-.37,2.42,2.42,0,0,0-.1-.32,1,1,0,0,0-.14-.23.12.12,0,0,1,0-.08.1.1,0,0,1,.08,0,.16.16,0,0,1,.09,0l.07.07a1.33,1.33,0,0,1,.11.24,2.17,2.17,0,0,1,.08.3c0,.12,0,.23,0,.35a2.17,2.17,0,0,1,0,.36,6.51,6.51,0,0,1,0,.77,7,7,0,0,1-.14.69,3.14,3.14,0,0,1-.2.59,2.32,2.32,0,0,1-.27.47,1.55,1.55,0,0,1-.33.3.69.69,0,0,1-.37.1.68.68,0,0,1-.32-.09.89.89,0,0,1-.28-.27,1.66,1.66,0,0,1-.23-.44,2.62,2.62,0,0,1-.12-.62,2.81,2.81,0,0,1-.53,1,.9.9,0,0,1-.64.31.61.61,0,0,1-.24,0,.56.56,0,0,1-.2-.12.57.57,0,0,1-.13-.21.73.73,0,0,1-.05-.3,1.54,1.54,0,0,1,.06-.43,3.59,3.59,0,0,1,.14-.43c.06-.14.13-.28.19-.43s.14-.28.2-.42a2.68,2.68,0,0,0,.14-.43,1.52,1.52,0,0,0,.06-.42.9.9,0,0,0,0-.25.62.62,0,0,0-.1-.16.51.51,0,0,0-.16-.09.64.64,0,0,0-.2,0,1.14,1.14,0,0,0-.41.07,1.47,1.47,0,0,0-.39.21,2,2,0,0,0-.35.31,2.41,2.41,0,0,0-.46.8,1.52,1.52,0,0,0-.06.42.58.58,0,0,0,.1.38.38.38,0,0,0,.3.12.69.69,0,0,0,.36-.11,1,1,0,0,0,.3-.27,1.36,1.36,0,0,0,.21-.37,1.16,1.16,0,0,0,.07-.4.41.41,0,0,0,0-.21.23.23,0,0,0-.12-.1.3.3,0,0,1,0-.1.18.18,0,0,1,.09,0,.18.18,0,0,1,.17.11.62.62,0,0,1,.06.29,1.48,1.48,0,0,1-.1.49,2.2,2.2,0,0,1-.26.45,1.31,1.31,0,0,1-.38.33.87.87,0,0,1-.46.13.51.51,0,0,1-.4-.16.7.7,0,0,1-.15-.49,1.72,1.72,0,0,1,.08-.48,2.18,2.18,0,0,1,.21-.47,2.75,2.75,0,0,1,.32-.44,2.23,2.23,0,0,1,.4-.35,1.4,1.4,0,0,1,.45-.24,1.36,1.36,0,0,1,.48-.09.66.66,0,0,1,.47.17.73.73,0,0,1,.17.51,1.52,1.52,0,0,1-.06.42,3.45,3.45,0,0,1-.14.42c-.06.15-.12.29-.19.43a3.93,3.93,0,0,0-.18.43,3.12,3.12,0,0,0-.15.43,1.52,1.52,0,0,0-.06.42.79.79,0,0,0,0,.23.51.51,0,0,0,.09.16.71.71,0,0,0,.14.1.51.51,0,0,0,.17,0,.56.56,0,0,0,.27-.08,1,1,0,0,0,.28-.24,1.84,1.84,0,0,0,.29-.45A5,5,0,0,0,173.8,102Z"/><path class="cls-4" d="M177.55,102.32c.06,0,.08.05.06.13a1.77,1.77,0,0,1-.17.46,1.36,1.36,0,0,1-.21.32.83.83,0,0,1-.25.19.57.57,0,0,1-.24.06.44.44,0,0,1-.36-.16.85.85,0,0,1-.13-.52,1.58,1.58,0,0,1,.05-.38,1.36,1.36,0,0,1,.13-.3.85.85,0,0,1,.19-.19.36.36,0,0,1,.22-.07.28.28,0,0,1,.13,0l.09.08a.33.33,0,0,1,.05.12.77.77,0,0,1,0,.15.59.59,0,0,1,0,.23.52.52,0,0,1-.1.18.4.4,0,0,1-.15.12.37.37,0,0,1-.17,0,.35.35,0,0,1-.14,0,.19.19,0,0,1-.11-.08v0a.66.66,0,0,0,.1.4.3.3,0,0,0,.25.13.34.34,0,0,0,.19,0,.69.69,0,0,0,.21-.15,3.11,3.11,0,0,0,.2-.3A3.39,3.39,0,0,0,177.55,102.32Zm-.76-.28a.17.17,0,0,0-.11,0,.47.47,0,0,0-.1.1.53.53,0,0,0-.08.15.48.48,0,0,0-.06.18.14.14,0,0,0,.08.09.2.2,0,0,0,.13,0l.1,0,.09-.07a.34.34,0,0,0,.06-.12.44.44,0,0,0,0-.32A.14.14,0,0,0,176.79,102Z"/><path class="cls-4" d="M178.84,100a.15.15,0,0,1,.11,0,.23.23,0,0,1,.09.12.7.7,0,0,1,.06.23,1.58,1.58,0,0,1,0,.34,4,4,0,0,1,0,.6,5.45,5.45,0,0,1-.14.58,4.14,4.14,0,0,1-.19.53,3.14,3.14,0,0,1-.23.45.61.61,0,0,0,.14.23.21.21,0,0,0,.14.07l.1,0A.43.43,0,0,0,179,103a1.92,1.92,0,0,0,.14-.26,2.85,2.85,0,0,0,.16-.43c.07,0,.09.05.07.13a3.74,3.74,0,0,1-.14.46,1.38,1.38,0,0,1-.15.3.41.41,0,0,1-.16.16.27.27,0,0,1-.36,0,.92.92,0,0,1-.19-.26,1.21,1.21,0,0,1-.27.28.43.43,0,0,1-.26.1.35.35,0,0,1-.3-.16.75.75,0,0,1-.11-.45,1.25,1.25,0,0,1,.05-.4,1.12,1.12,0,0,1,.15-.31.59.59,0,0,1,.22-.2.48.48,0,0,1,.26-.07h.06a4.4,4.4,0,0,1,.07-.77,3.36,3.36,0,0,1,.15-.59,1.12,1.12,0,0,1,.21-.38A.29.29,0,0,1,178.84,100Zm-.52,2.91a1.82,1.82,0,0,1-.09-.37,3.15,3.15,0,0,1,0-.46h-.09a.33.33,0,0,0-.19.06.46.46,0,0,0-.15.16.69.69,0,0,0-.09.23.86.86,0,0,0,0,.28.61.61,0,0,0,.08.34.24.24,0,0,0,.18.1.37.37,0,0,0,.2-.08A1.42,1.42,0,0,0,178.32,102.9Zm.05-.71,0,.28a1.42,1.42,0,0,0,0,.22c.06-.11.12-.24.18-.38a4.72,4.72,0,0,0,.16-.45,3.84,3.84,0,0,0,.1-.51,3.43,3.43,0,0,0,0-.56,2,2,0,0,0,0-.26q0-.11,0-.18a.19.19,0,0,0,0-.09l0,0s-.08,0-.13.12a1.67,1.67,0,0,0-.14.34,4.88,4.88,0,0,0-.11.53,3.73,3.73,0,0,0,0,.69l.06.07a.25.25,0,0,1,0,.07.12.12,0,0,1,0,.09A.1.1,0,0,1,178.37,102.19Z"/><path class="cls-4" d="M180.43,103.45a.23.23,0,0,1-.18-.09,1,1,0,0,1-.1-.23,3.06,3.06,0,0,1-.05-.32c0-.12,0-.23,0-.34v-.27s0,0,0,0,0,0-.05,0-.07.15-.1.24-.07.18-.1.27-.07.17-.09.25l-.08.2a.46.46,0,0,1-.11.18.12.12,0,0,1-.09,0,.14.14,0,0,1-.1-.06.28.28,0,0,1-.07-.19,1.34,1.34,0,0,1,0-.21,2.26,2.26,0,0,1,0-.26,1.9,1.9,0,0,1,0-.25.78.78,0,0,1,0-.19.13.13,0,0,1,.05-.09.11.11,0,0,1,.08,0l.06,0s0,0,0,0a.46.46,0,0,0,0,.14c0,.07,0,.16,0,.26s0,.19,0,.29a1.85,1.85,0,0,0,0,.25s0,0,0,0,0,0,0,0a1.1,1.1,0,0,0,.09-.23c0-.09.07-.19.11-.29s.07-.2.11-.3a1.61,1.61,0,0,1,.12-.23q.11-.15.21-.15a.1.1,0,0,1,.1.06.7.7,0,0,1,0,.16c0,.17,0,.32,0,.46s0,.25,0,.34a1.84,1.84,0,0,0,.06.23s.06.07.09.07a.12.12,0,0,0,.09,0,.76.76,0,0,0,.1-.15c0-.07.07-.16.11-.27l.15-.44c.06,0,.09.05.06.13s-.09.34-.13.47-.09.23-.13.31a.63.63,0,0,1-.14.17A.23.23,0,0,1,180.43,103.45Z"/><path class="cls-4" d="M182.13,102.32c.07,0,.09.05.07.13a2.22,2.22,0,0,1-.17.46,1.38,1.38,0,0,1-.22.32.72.72,0,0,1-.25.19.53.53,0,0,1-.24.06.42.42,0,0,1-.35-.16.85.85,0,0,1-.14-.52,1.58,1.58,0,0,1,0-.38,1.38,1.38,0,0,1,.14-.3.66.66,0,0,1,.18-.19.38.38,0,0,1,.22-.07.25.25,0,0,1,.13,0,.24.24,0,0,1,.09.08.22.22,0,0,1,.05.12.77.77,0,0,1,0,.15.59.59,0,0,1,0,.23.54.54,0,0,1-.11.18.29.29,0,0,1-.15.12.33.33,0,0,1-.16,0,.4.4,0,0,1-.15,0,.23.23,0,0,1-.11-.08v0a.66.66,0,0,0,.1.4.3.3,0,0,0,.26.13.36.36,0,0,0,.19,0,.8.8,0,0,0,.2-.15,1.42,1.42,0,0,0,.2-.3A2.43,2.43,0,0,0,182.13,102.32Zm-.76-.28a.14.14,0,0,0-.1,0,.32.32,0,0,0-.1.1.54.54,0,0,0-.09.15.48.48,0,0,0-.06.18.18.18,0,0,0,.08.09.2.2,0,0,0,.13,0l.1,0,.09-.07a.35.35,0,0,0,.07-.12.53.53,0,0,0,0-.32A.12.12,0,0,0,181.37,102Z"/><path class="cls-4" d="M182.8,103.12a.35.35,0,0,0-.05-.18.7.7,0,0,0-.14-.16l-.17-.14a.86.86,0,0,1-.18-.14.7.7,0,0,1-.13-.17.36.36,0,0,1-.06-.2.76.76,0,0,1,.05-.29c0-.07.06-.11.1-.11s.08.06.08.18a.92.92,0,0,1,0,.16l0,.16a.76.76,0,0,0,.21.19l.23.17a1.07,1.07,0,0,1,.18.19.54.54,0,0,1,.09.27.83.83,0,0,0,.18-.24,3,3,0,0,0,.19-.49c.07,0,.09,0,.07.13a2,2,0,0,1-.2.53.73.73,0,0,1-.27.28.53.53,0,0,1-.17.24.43.43,0,0,1-.28.09.52.52,0,0,1-.21,0,.51.51,0,0,1-.18-.09.43.43,0,0,1-.13-.14.33.33,0,0,1-.06-.19A.17.17,0,0,1,182,103a.2.2,0,0,1,.14,0l.14,0,.18.07.18.06A.65.65,0,0,0,182.8,103.12Zm-.27.28a.25.25,0,0,0,.2-.08.58.58,0,0,1-.18,0l-.17-.07-.16-.06-.11,0s-.05,0-.05,0,0,0,0,.08a.39.39,0,0,0,.1.08.34.34,0,0,0,.15.06A.57.57,0,0,0,182.53,103.4Z"/><path class="cls-4" d="M184.64,100a.15.15,0,0,1,.11,0,.23.23,0,0,1,.09.12.7.7,0,0,1,.06.23,1.67,1.67,0,0,1,0,.34,3,3,0,0,1,0,.6,3.75,3.75,0,0,1-.13.58c-.06.19-.12.36-.19.53a3.13,3.13,0,0,1-.24.45.76.76,0,0,0,.15.23.21.21,0,0,0,.14.07l.1,0a1,1,0,0,0,.12-.14,1.92,1.92,0,0,0,.14-.26c0-.11.1-.25.16-.43.07,0,.09.05.07.13a3.56,3.56,0,0,1-.15.46,1.05,1.05,0,0,1-.14.3.6.6,0,0,1-.16.16.33.33,0,0,1-.16,0,.32.32,0,0,1-.21-.09.91.91,0,0,1-.18-.26,1.21,1.21,0,0,1-.27.28.43.43,0,0,1-.26.1.34.34,0,0,1-.3-.16.75.75,0,0,1-.12-.45,1.25,1.25,0,0,1,.06-.4,1.12,1.12,0,0,1,.15-.31.59.59,0,0,1,.22-.2.47.47,0,0,1,.25-.07H184a4.46,4.46,0,0,1,.06-.77,3.3,3.3,0,0,1,.16-.59,1.12,1.12,0,0,1,.21-.38A.29.29,0,0,1,184.64,100Zm-.52,2.91a1.82,1.82,0,0,1-.09-.37,2.19,2.19,0,0,1,0-.46h-.1a.3.3,0,0,0-.18.06.46.46,0,0,0-.15.16,1,1,0,0,0-.1.23,1.27,1.27,0,0,0,0,.28.53.53,0,0,0,.08.34.21.21,0,0,0,.18.1.37.37,0,0,0,.2-.08A1.42,1.42,0,0,0,184.12,102.9Zm0-.71a1.27,1.27,0,0,0,0,.28,1.42,1.42,0,0,0,.05.22c.06-.11.12-.24.18-.38a3,3,0,0,0,.15-.45,3.82,3.82,0,0,0,.11-.51,5.09,5.09,0,0,0,0-.56c0-.1,0-.19,0-.26s0-.13,0-.18a.39.39,0,0,0,0-.09l-.06,0s-.07,0-.12.12a1.24,1.24,0,0,0-.14.34,4.72,4.72,0,0,0-.12.53,4.86,4.86,0,0,0-.05.69.46.46,0,0,1,.07.07.25.25,0,0,1,0,.07.12.12,0,0,1,0,.09A.1.1,0,0,1,184.17,102.19Z"/><path class="cls-4" d="M186.1,102.36a.3.3,0,0,1,0,.16s0,0-.06,0a1.17,1.17,0,0,1,0,.3c0,.21.09.32.19.32a.21.21,0,0,0,.1,0,.4.4,0,0,0,.11-.14c0-.07.08-.16.13-.27l.15-.42c.06,0,.08.05.06.13a2.69,2.69,0,0,1-.14.47,1.4,1.4,0,0,1-.14.3.41.41,0,0,1-.14.15.33.33,0,0,1-.16,0c-.14,0-.24-.09-.3-.26a.82.82,0,0,1-.19.22.4.4,0,0,1-.25.09.34.34,0,0,1-.27-.15.84.84,0,0,1-.11-.46,1.26,1.26,0,0,1,.06-.38,1,1,0,0,1,.14-.32.81.81,0,0,1,.22-.23.43.43,0,0,1,.26-.09.41.41,0,0,1,.19,0,.69.69,0,0,1,.13.11.87.87,0,0,1,.07.17A.64.64,0,0,1,186.1,102.36Zm-.16,0a.37.37,0,0,0-.09-.23.22.22,0,0,0-.19-.08.36.36,0,0,0-.2.06.61.61,0,0,0-.14.17.7.7,0,0,0-.1.23,1.26,1.26,0,0,0,0,.28.63.63,0,0,0,.08.34.19.19,0,0,0,.17.12.26.26,0,0,0,.19-.09.73.73,0,0,0,.16-.22v-.07a.15.15,0,0,1,0-.07,1,1,0,0,1,0-.34C185.85,102.37,185.89,102.34,185.94,102.36Z"/><path class="cls-4" d="M186.93,103.47a.32.32,0,0,1-.14,0,.29.29,0,0,1-.11-.11.52.52,0,0,1-.08-.2,2.36,2.36,0,0,1,0-.3,1.62,1.62,0,0,1,0-.21.83.83,0,0,1,0-.22,1.43,1.43,0,0,1,0-.22.84.84,0,0,1,.07-.19.29.29,0,0,1,.06-.1.11.11,0,0,1,.08,0l.06,0a1.52,1.52,0,0,0-.12.43,2.32,2.32,0,0,0,0,.44,1.54,1.54,0,0,0,0,.24.53.53,0,0,0,.05.15.28.28,0,0,0,.06.08l.07,0c.08,0,.17-.08.27-.23a3.58,3.58,0,0,0,.28-.71q0-.09.09-.09l.07,0a1.06,1.06,0,0,0,0,.43,4.77,4.77,0,0,0,.13.47c0,.17.1.35.14.53a2.27,2.27,0,0,1,.07.59,1.29,1.29,0,0,1-.08.49,1,1,0,0,1-.23.37,1.13,1.13,0,0,1-.36.24,1.34,1.34,0,0,1-.46.08,1,1,0,0,1-.36-.06,1,1,0,0,1-.28-.16.66.66,0,0,1-.19-.22.45.45,0,0,1-.07-.25.12.12,0,0,1,0-.11.12.12,0,0,1,.1,0,.46.46,0,0,0,.06.23,1.06,1.06,0,0,0,.17.2,1.23,1.23,0,0,0,.25.14,1,1,0,0,0,.3,0,.91.91,0,0,0,.68-.25.93.93,0,0,0,.24-.69,2.28,2.28,0,0,0,0-.45c0-.14-.06-.28-.1-.41s-.07-.25-.1-.38a2.45,2.45,0,0,1-.08-.37,1.71,1.71,0,0,1-.27.59A.43.43,0,0,1,186.93,103.47Z"/><rect class="cls-9" x="197.73" y="63.77" width="17.13" height="3.93" rx="0.95"/><path class="cls-4" d="M200.73,63.54a.4.4,0,0,1-.07.24.65.65,0,0,1-.21.19,1.33,1.33,0,0,1-.32.12,1.77,1.77,0,0,1-.41,0,1.65,1.65,0,0,1-.46-.06,1.2,1.2,0,0,1-.36-.17.69.69,0,0,1-.24-.24.61.61,0,0,1-.08-.3.66.66,0,0,1,.11-.36,1,1,0,0,1,.29-.29,1.41,1.41,0,0,1,.45-.18,2,2,0,0,1,.56-.07,3.31,3.31,0,0,1,.55.05l.53.1.55.11a3.58,3.58,0,0,0,.58.05,1.26,1.26,0,0,0,.46-.08.39.39,0,0,0,.23-.2c.08,0,.12,0,.12.11a.24.24,0,0,1,0,.13.37.37,0,0,1-.15.11.93.93,0,0,1-.24.09,1.83,1.83,0,0,1-.35,0,3.58,3.58,0,0,1-.58,0l-.56-.1-.55-.11a3.53,3.53,0,0,0-.56-.05,2.34,2.34,0,0,0-.47.05,1.59,1.59,0,0,0-.37.14.67.67,0,0,0-.25.22.42.42,0,0,0-.1.28.4.4,0,0,0,.07.24.49.49,0,0,0,.19.19.78.78,0,0,0,.29.13,1.19,1.19,0,0,0,.39.05,1.83,1.83,0,0,0,.35,0,.79.79,0,0,0,.26-.09.55.55,0,0,0,.16-.12.24.24,0,0,0,.06-.14.21.21,0,0,0-.07-.15.35.35,0,0,0-.23-.06.16.16,0,0,1,0-.12.16.16,0,0,1,.12,0,.37.37,0,0,1,.25.09A.33.33,0,0,1,200.73,63.54Zm.38,1.66a.29.29,0,0,0,0-.16.4.4,0,0,0-.13-.13.63.63,0,0,0-.22-.09,1.42,1.42,0,0,0-.31,0,2,2,0,0,0-.56.07,1.3,1.3,0,0,0-.43.18.91.91,0,0,0-.28.27.56.56,0,0,0-.1.33.67.67,0,0,0,.09.34.87.87,0,0,0,.29.28,1.59,1.59,0,0,0,.47.19,3.28,3.28,0,0,0,.67.07,2.38,2.38,0,0,0,.64-.08,1.14,1.14,0,0,0,.44-.22.78.78,0,0,0,.26-.34,1.1,1.1,0,0,0,.09-.45,3.87,3.87,0,0,0,0-.48c0-.16-.05-.31-.08-.46s0-.3-.08-.45a3,3,0,0,1,0-.42.81.81,0,0,1,.06-.36.18.18,0,0,1,.16-.12.11.11,0,0,1,.07,0,.2.2,0,0,1,0,.08.24.24,0,0,0-.09.14.9.9,0,0,0,0,.25,3,3,0,0,0,0,.42c0,.14.05.29.07.44s0,.3.08.46a4.12,4.12,0,0,1,0,.51,1.09,1.09,0,0,1-.43.9,1.67,1.67,0,0,1-.52.25,3,3,0,0,1-.7.08,2.67,2.67,0,0,1-.73-.08,1.65,1.65,0,0,1-.54-.22.87.87,0,0,1-.33-.33.69.69,0,0,1-.11-.4.72.72,0,0,1,.11-.39,1.13,1.13,0,0,1,.32-.34,1.66,1.66,0,0,1,.5-.24,2.38,2.38,0,0,1,.68-.09,1.56,1.56,0,0,1,.4,0,.85.85,0,0,1,.27.12.55.55,0,0,1,.16.18.45.45,0,0,1,0,.2.48.48,0,0,1-.07.26.66.66,0,0,1-.22.22,1.35,1.35,0,0,1-.32.15,1.77,1.77,0,0,1-.41,0l-.23,0a.59.59,0,0,1-.2-.06.38.38,0,0,1-.15-.09.13.13,0,0,1-.05-.11.1.1,0,0,1,0-.09.12.12,0,0,1,.1,0,.25.25,0,0,0,0,.08.34.34,0,0,0,.12.06l.16,0h.19a1.58,1.58,0,0,0,.32,0,1.45,1.45,0,0,0,.25-.1.46.46,0,0,0,.16-.15A.27.27,0,0,0,201.11,65.2Z"/><path class="cls-4" d="M202.64,64.69a.35.35,0,0,0,.12.07v-.05a6.06,6.06,0,0,1,.05-.79,3.29,3.29,0,0,1,.14-.58,1,1,0,0,1,.2-.35.31.31,0,0,1,.23-.12.27.27,0,0,1,.23.15.83.83,0,0,1,.09.43,2.35,2.35,0,0,1-.07.54,1.75,1.75,0,0,1-.17.44,1.4,1.4,0,0,1-.24.33.64.64,0,0,1-.27.16c0,.1,0,.2,0,.3a2.17,2.17,0,0,0,0,.26,1.34,1.34,0,0,0,0,.21.42.42,0,0,0,0,.13,0,0,0,0,0,0,0s0,0,0,0a1.65,1.65,0,0,0,.09-.22l.1-.27c0-.1.07-.19.11-.27l.11-.22a.33.33,0,0,1,.11-.12.16.16,0,0,1,.09,0,.11.11,0,0,1,.11.06.44.44,0,0,1,.06.21s0,.12,0,.19a43.67,43.67,0,0,1,0,.41,1.11,1.11,0,0,0,0,.19.81.81,0,0,0,.05.21s.05.08.09.08a.1.1,0,0,0,.08,0,.91.91,0,0,0,.1-.16c0-.07.06-.16.1-.28l.15-.41c.06,0,.08,0,.06.13a3.11,3.11,0,0,1-.26.76q-.12.24-.27.24a.24.24,0,0,1-.19-.11.69.69,0,0,1-.12-.37c0-.06,0-.13,0-.2s0-.14,0-.21,0-.14,0-.21,0-.12,0-.17,0-.05,0-.05,0,0,0,0l-.11.22a2.44,2.44,0,0,0-.1.24c0,.09-.06.16-.08.24l-.07.19-.07.15a.56.56,0,0,1,0,.08s0,0-.05,0h-.1a.11.11,0,0,1,0-.05.23.23,0,0,1,0-.1.79.79,0,0,1,0-.17s0-.11,0-.18,0-.15,0-.23a1.93,1.93,0,0,1,0-.24v-.25l-.06,0-.06,0a.11.11,0,0,1,0-.09A.08.08,0,0,1,202.64,64.69Zm.31-.18v.24a.8.8,0,0,0,.2-.15,1.48,1.48,0,0,0,.17-.28,2.08,2.08,0,0,0,.17-.8.82.82,0,0,0-.05-.32c0-.06-.06-.09-.1-.09a.17.17,0,0,0-.13.09,1.55,1.55,0,0,0-.12.28,2.26,2.26,0,0,0-.09.44A4.83,4.83,0,0,0,203,64.51Z"/><path class="cls-4" d="M206,65.15c.06,0,.09,0,.06.13s-.09.33-.13.46a2.93,2.93,0,0,1-.13.29.46.46,0,0,1-.14.16.3.3,0,0,1-.15,0,.23.23,0,0,1-.2-.1.83.83,0,0,1-.12-.25,1,1,0,0,1-.19.29.3.3,0,0,1-.23.11.28.28,0,0,1-.25-.17,1.06,1.06,0,0,1-.1-.53,2.49,2.49,0,0,1,0-.47,2.28,2.28,0,0,1,.1-.38c0-.08.08-.12.13-.12h.07a.5.5,0,0,0-.05.16,1.19,1.19,0,0,0,0,.22,1.72,1.72,0,0,0,0,.24c0,.09,0,.17,0,.25a1.84,1.84,0,0,0,0,.26.69.69,0,0,0,0,.17.44.44,0,0,0,.06.1l.08,0A.22.22,0,0,0,205,66a1.23,1.23,0,0,0,.18-.3.2.2,0,0,1,0-.07v-.07a1,1,0,0,1,0-.25,1.29,1.29,0,0,1,.05-.21,1,1,0,0,1,.08-.15.15.15,0,0,1,.08,0c.05,0,.07,0,.07.1a1.16,1.16,0,0,1,0,.28,2.8,2.8,0,0,1-.1.36.59.59,0,0,0,.07.31.19.19,0,0,0,.15.1.16.16,0,0,0,.09,0,.4.4,0,0,0,.09-.13,1.29,1.29,0,0,0,.12-.26C205.88,65.47,205.93,65.33,206,65.15Z"/><path class="cls-4" d="M207.12,65.15c.07,0,.09,0,.07.13s-.1.35-.14.47a1.54,1.54,0,0,1-.14.31.65.65,0,0,1-.15.17.3.3,0,0,1-.15,0,.27.27,0,0,1-.23-.14.92.92,0,0,1-.08-.42c0-.08,0-.18,0-.28a1.77,1.77,0,0,1,.08-.31.39.39,0,0,1-.13.15.27.27,0,0,1-.14,0,.19.19,0,0,1-.15-.08.44.44,0,0,1-.06-.25.78.78,0,0,1,0-.16.37.37,0,0,1,0-.12.36.36,0,0,1,0-.09.05.05,0,0,1,.05,0c.05,0,.07.06.07.17a.71.71,0,0,1,0,.14,1.5,1.5,0,0,1,0,.2l.06,0a.24.24,0,0,0,.16-.09.84.84,0,0,0,.13-.25h.05a.11.11,0,0,1,.11.08.2.2,0,0,1,0,.13,2.59,2.59,0,0,0-.11.69.62.62,0,0,0,0,.29s.07.08.11.08a.12.12,0,0,0,.09,0,.48.48,0,0,0,.11-.15l.12-.28Z"/><path class="cls-4" d="M207.79,65.94a.35.35,0,0,0,0-.18.5.5,0,0,0-.14-.15l-.17-.14-.18-.15a.65.65,0,0,1-.13-.16.37.37,0,0,1-.06-.21.79.79,0,0,1,.05-.29c0-.07.06-.1.1-.1s.08.06.08.18a.86.86,0,0,1,0,.15l0,.17a.91.91,0,0,0,.21.18l.23.17a.86.86,0,0,1,.18.2.45.45,0,0,1,.09.26.62.62,0,0,0,.18-.24,3,3,0,0,0,.19-.49c.07,0,.09,0,.07.13a1.9,1.9,0,0,1-.2.53.76.76,0,0,1-.27.29.55.55,0,0,1-.17.23.43.43,0,0,1-.28.09.76.76,0,0,1-.21,0,1,1,0,0,1-.18-.1.57.57,0,0,1-.13-.14.32.32,0,0,1-.05-.19.17.17,0,0,1,.05-.14.2.2,0,0,1,.14,0l.15,0,.17.07a1.06,1.06,0,0,0,.19.06A.37.37,0,0,0,207.79,65.94Zm-.27.28a.29.29,0,0,0,.21-.08.58.58,0,0,1-.19,0l-.17-.07-.16-.07-.11,0s0,0,0,0a.2.2,0,0,0,0,.08l.1.08.15.06Z"/><path class="cls-4" d="M209.63,62.81a.21.21,0,0,1,.11,0,.25.25,0,0,1,.09.13.58.58,0,0,1,.06.22,1.78,1.78,0,0,1,0,.34,3,3,0,0,1,0,.6,3.51,3.51,0,0,1-.13.58,3.65,3.65,0,0,1-.19.53,4,4,0,0,1-.24.46.83.83,0,0,0,.15.22.23.23,0,0,0,.14.08.16.16,0,0,0,.1,0,.81.81,0,0,0,.12-.13,2.15,2.15,0,0,0,.14-.27c.05-.11.1-.25.16-.42.07,0,.09,0,.07.13s-.1.33-.14.46a1.54,1.54,0,0,1-.15.29.48.48,0,0,1-.16.16.33.33,0,0,1-.16,0,.28.28,0,0,1-.2-.09.68.68,0,0,1-.19-.26,1.54,1.54,0,0,1-.27.29.5.5,0,0,1-.26.1.36.36,0,0,1-.3-.17.75.75,0,0,1-.12-.45,1.25,1.25,0,0,1,.06-.4,1.28,1.28,0,0,1,.15-.31.69.69,0,0,1,.22-.2.48.48,0,0,1,.26-.07H209a3.67,3.67,0,0,1,.07-.77,3.36,3.36,0,0,1,.15-.59,1.22,1.22,0,0,1,.21-.38A.32.32,0,0,1,209.63,62.81Zm-.52,2.91a1.82,1.82,0,0,1-.09-.37,2.13,2.13,0,0,1,0-.46h-.1a.3.3,0,0,0-.18.06.46.46,0,0,0-.15.16,1.6,1.6,0,0,0-.1.23,1.27,1.27,0,0,0,0,.28.58.58,0,0,0,.08.34.22.22,0,0,0,.18.11.32.32,0,0,0,.2-.09A1.14,1.14,0,0,0,209.11,65.72Zm0-.7a2,2,0,0,0,0,.27,1.55,1.55,0,0,0,.05.23c.06-.12.12-.24.18-.39a4.72,4.72,0,0,0,.16-.45c0-.16.07-.33.1-.51a3.31,3.31,0,0,0,0-.55c0-.11,0-.2,0-.27s0-.13,0-.17a.19.19,0,0,0,0-.09.09.09,0,0,0-.06,0s-.07,0-.12.12a1.39,1.39,0,0,0-.14.34,4.46,4.46,0,0,0-.12.54,6.55,6.55,0,0,0,0,.69.23.23,0,0,1,.07.07.19.19,0,0,1,0,.07.11.11,0,0,1,0,.08A.12.12,0,0,1,209.16,65Z"/><path class="cls-4" d="M211.09,65.19a.28.28,0,0,1,0,.15.06.06,0,0,1-.06,0,1.18,1.18,0,0,1-.05.31c0,.21.09.31.19.31a.19.19,0,0,0,.11,0,.61.61,0,0,0,.11-.14l.12-.26.15-.42c.06,0,.09,0,.07.13s-.1.34-.14.46a2.2,2.2,0,0,1-.14.3.47.47,0,0,1-.15.16.29.29,0,0,1-.16,0c-.14,0-.24-.09-.3-.26a.71.71,0,0,1-.19.23.38.38,0,0,1-.24.09.33.33,0,0,1-.28-.16.83.83,0,0,1-.1-.46,1.14,1.14,0,0,1,.05-.37,1.22,1.22,0,0,1,.14-.33.81.81,0,0,1,.22-.23.43.43,0,0,1,.26-.09.53.53,0,0,1,.19,0,.49.49,0,0,1,.13.12.39.39,0,0,1,.07.16A.71.71,0,0,1,211.09,65.19Zm-.16,0a.37.37,0,0,0-.09-.23.26.26,0,0,0-.19-.08.31.31,0,0,0-.19.06.61.61,0,0,0-.15.17.87.87,0,0,0-.1.24,1.26,1.26,0,0,0,0,.27.63.63,0,0,0,.08.34.21.21,0,0,0,.18.12.29.29,0,0,0,.18-.08.79.79,0,0,0,.16-.23v-.14a1.09,1.09,0,0,1,0-.34C210.84,65.2,210.88,65.16,210.93,65.18Z"/><path class="cls-4" d="M211.93,66.3a.24.24,0,0,1-.15,0,.23.23,0,0,1-.11-.11.76.76,0,0,1-.08-.2,2.33,2.33,0,0,1,0-.29,1.48,1.48,0,0,1,0-.21,1.6,1.6,0,0,1,0-.23c0-.07,0-.15,0-.22a1.07,1.07,0,0,1,.07-.19.29.29,0,0,1,.06-.1l.08,0h.06a1.94,1.94,0,0,0-.12.43,2.32,2.32,0,0,0,0,.44,1.44,1.44,0,0,0,0,.24.37.37,0,0,0,.05.15.18.18,0,0,0,.06.08.11.11,0,0,0,.07,0c.09,0,.17-.07.27-.22a3.25,3.25,0,0,0,.28-.71q0-.09.09-.09h.07a1.06,1.06,0,0,0,0,.43c0,.15.08.31.13.48s.1.34.15.53a2.71,2.71,0,0,1,.07.58,1.26,1.26,0,0,1-.09.49.93.93,0,0,1-.23.37,1,1,0,0,1-.36.24,1.34,1.34,0,0,1-.46.08,1,1,0,0,1-.35-.06,1.13,1.13,0,0,1-.29-.15.77.77,0,0,1-.19-.22.5.5,0,0,1-.07-.25.15.15,0,0,1,0-.12.09.09,0,0,1,.1,0,.46.46,0,0,0,.06.22.68.68,0,0,0,.18.2,1,1,0,0,0,.24.14,1.06,1.06,0,0,0,.31,0,.93.93,0,0,0,.67-.24,1,1,0,0,0,.24-.69,2.15,2.15,0,0,0,0-.45c0-.15-.06-.28-.09-.41s-.08-.26-.11-.39a2.33,2.33,0,0,1-.08-.36,1.65,1.65,0,0,1-.27.58A.45.45,0,0,1,211.93,66.3Z"/><rect class="cls-9" x="196.84" y="87.67" width="17.13" height="3.93" rx="0.95"/><path class="cls-4" d="M201.46,89.5a1.1,1.1,0,0,0,.27,0,.67.67,0,0,0,.21-.09.57.57,0,0,0,.13-.14.37.37,0,0,0,.05-.18.36.36,0,0,0-.06-.2.69.69,0,0,0-.17-.17.67.67,0,0,0-.27-.11,1.46,1.46,0,0,0-.38,0,1.89,1.89,0,0,0-.5.07,1.17,1.17,0,0,0-.37.19.87.87,0,0,0-.24.27.68.68,0,0,0-.08.31.87.87,0,0,0,.1.39,1,1,0,0,0,.3.32,1.93,1.93,0,0,0,.5.22,2.84,2.84,0,0,0,.69.08,1.69,1.69,0,0,0,1.05-.27.94.94,0,0,0,.34-.79,3,3,0,0,0,0-.42l-.06-.41-.29,0-.29,0a.32.32,0,0,1-.16,0,.12.12,0,0,1-.06-.1.08.08,0,0,1,.05-.08l.09,0h.12l.25,0,.26,0c0-.14,0-.27-.07-.41a2.56,2.56,0,0,1,0-.39.76.76,0,0,1,.06-.35A.18.18,0,0,1,203,87a.09.09,0,0,1,.07,0,.1.1,0,0,1,0,.08s-.06.07-.09.14a.83.83,0,0,0,0,.24,2.22,2.22,0,0,0,0,.37c0,.12,0,.25,0,.37h.29a.56.56,0,0,1,.26,0,.13.13,0,0,1,.07.11.25.25,0,0,1,0,.07l-.06,0a.23.23,0,0,0-.12,0l-.2,0h-.18l.06.43a3.64,3.64,0,0,1,0,.48,1,1,0,0,1-.11.5,1,1,0,0,1-.31.38,1.44,1.44,0,0,1-.5.23,2.31,2.31,0,0,1-.67.09,3,3,0,0,1-.77-.1,1.71,1.71,0,0,1-.56-.26,1.12,1.12,0,0,1-.35-.37.88.88,0,0,1-.12-.44.75.75,0,0,1,.1-.38,1,1,0,0,1,.28-.34,1.9,1.9,0,0,1,.45-.23,1.83,1.83,0,0,1,.59-.09,1.48,1.48,0,0,1,.44.05,1,1,0,0,1,.33.14.86.86,0,0,1,.21.22.55.55,0,0,1,.07.28.54.54,0,0,1-.06.25.72.72,0,0,1-.19.2,1,1,0,0,1-.28.13,1.07,1.07,0,0,1-.37,0l-.25,0a.86.86,0,0,1-.23-.06l-.17-.09a.17.17,0,0,1-.06-.12.1.1,0,0,1,0-.09.16.16,0,0,1,.12,0,.16.16,0,0,0,.06.08.53.53,0,0,0,.15.08l.18,0Zm2.48-3.11a.1.1,0,0,1,.11.11.2.2,0,0,1-.05.13.37.37,0,0,1-.15.11,1.05,1.05,0,0,1-.25.08,1.83,1.83,0,0,1-.35,0,3.16,3.16,0,0,1-.55,0l-.52-.11-.5-.1a2.76,2.76,0,0,0-.51,0,1.53,1.53,0,0,0-.47.06.9.9,0,0,0-.31.15.48.48,0,0,0-.17.21.63.63,0,0,0-.05.22.52.52,0,0,0,.07.25.61.61,0,0,0,.17.19.89.89,0,0,0,.26.12,1.29,1.29,0,0,0,.35,0,1.4,1.4,0,0,0,.41-.06.92.92,0,0,0,.31-.17.08.08,0,0,1,.07.08.1.1,0,0,1,0,.08l-.11.08a.87.87,0,0,1-.29.12A1.18,1.18,0,0,1,201,88a1.42,1.42,0,0,1-.42-.06,1.09,1.09,0,0,1-.32-.17.78.78,0,0,1-.2-.24.67.67,0,0,1-.07-.31.7.7,0,0,1,.07-.31.69.69,0,0,1,.21-.28,1.13,1.13,0,0,1,.38-.19,1.82,1.82,0,0,1,.56-.07,3,3,0,0,1,.53,0l.5.11.5.11a2.89,2.89,0,0,0,.52,0,1.27,1.27,0,0,0,.46-.07A.49.49,0,0,0,203.94,86.39Z"/><path class="cls-4" d="M204.94,89c.06,0,.09,0,.07.13s-.1.35-.14.48a3,3,0,0,1-.14.3.65.65,0,0,1-.15.17.3.3,0,0,1-.15,0,.25.25,0,0,1-.23-.14.92.92,0,0,1-.08-.42c0-.08,0-.18,0-.28a1.73,1.73,0,0,1,.07-.31.31.31,0,0,1-.12.15.3.3,0,0,1-.14,0,.19.19,0,0,1-.15-.08.44.44,0,0,1-.06-.25c0-.06,0-.11,0-.16l0-.12a.36.36,0,0,1,.05-.09.05.05,0,0,1,0,0c.05,0,.07.06.07.17a.71.71,0,0,1,0,.14.75.75,0,0,1,0,.2l.07,0a.24.24,0,0,0,.16-.09.89.89,0,0,0,.13-.24l0,0a.12.12,0,0,1,.11.08.2.2,0,0,1,0,.13,2.59,2.59,0,0,0-.11.69.62.62,0,0,0,.05.29s.07.08.11.08a.12.12,0,0,0,.09,0,.73.73,0,0,0,.11-.15l.12-.28Z"/><path class="cls-4" d="M204.94,87.75a.18.18,0,0,1,.06-.14.35.35,0,0,1,.2,0,.33.33,0,0,1,.26.08.27.27,0,0,1,.09.2.37.37,0,0,1,0,.18.91.91,0,0,1-.11.16.49.49,0,0,1-.14.11.34.34,0,0,1-.16,0,.21.21,0,0,1-.18-.07.24.24,0,0,1-.06-.18.44.44,0,0,1,.09-.27S204.94,87.77,204.94,87.75Zm.27,2.39A.29.29,0,0,1,205,90a.9.9,0,0,1-.09-.47,1,1,0,0,1,0-.17,1.1,1.1,0,0,1,0-.18l0-.17a.89.89,0,0,1,.05-.13.14.14,0,0,1,.06-.1.08.08,0,0,1,.08,0,.09.09,0,0,1,.07,0,2,2,0,0,0-.09.35c0,.12,0,.24,0,.36a.71.71,0,0,0,0,.33.14.14,0,0,0,.13.1.12.12,0,0,0,.09,0,.53.53,0,0,0,.1-.13c0-.07.07-.16.11-.27l.15-.43c.07,0,.09,0,.07.13s-.1.33-.14.46a2.15,2.15,0,0,1-.14.3.47.47,0,0,1-.15.16A.23.23,0,0,1,205.21,90.14ZM205,88a.14.14,0,0,0,0,.1.16.16,0,0,0,.11,0,.2.2,0,0,0,.14-.05.16.16,0,0,0,.06-.13.18.18,0,0,0,0-.11.25.25,0,0,0-.16,0h-.08a.34.34,0,0,0-.05.11A.29.29,0,0,0,205,88Z"/><path class="cls-4" d="M207,86.7a.21.21,0,0,1,.11,0,.48.48,0,0,1,.09.13.58.58,0,0,1,.06.22,3.28,3.28,0,0,1,0,.34,4,4,0,0,1-.05.6,4.93,4.93,0,0,1-.13.58c-.06.19-.12.37-.19.54a4.76,4.76,0,0,1-.24.45.83.83,0,0,0,.15.22.23.23,0,0,0,.14.08.16.16,0,0,0,.1,0,.81.81,0,0,0,.12-.13,2.15,2.15,0,0,0,.14-.27c0-.11.1-.25.16-.42.06,0,.09,0,.07.13s-.1.33-.15.46a1.11,1.11,0,0,1-.15.29.47.47,0,0,1-.15.16.25.25,0,0,1-.16,0,.32.32,0,0,1-.21-.09.7.7,0,0,1-.18-.25,1.45,1.45,0,0,1-.27.28.53.53,0,0,1-.26.1.34.34,0,0,1-.3-.17.75.75,0,0,1-.12-.45,1.29,1.29,0,0,1,.06-.4,1.28,1.28,0,0,1,.15-.31.6.6,0,0,1,.22-.2.45.45,0,0,1,.25-.07h.06a5.79,5.79,0,0,1,.07-.77,3.3,3.3,0,0,1,.16-.59,1.48,1.48,0,0,1,.2-.38A.34.34,0,0,1,207,86.7Zm-.52,2.91a2.8,2.8,0,0,1-.1-.37c0-.13,0-.29,0-.45l-.09,0a.28.28,0,0,0-.18.06.46.46,0,0,0-.15.16.94.94,0,0,0-.1.23,1.33,1.33,0,0,0,0,.28.52.52,0,0,0,.08.34.22.22,0,0,0,.18.11.32.32,0,0,0,.2-.09A1.44,1.44,0,0,0,206.5,89.61Zm.05-.7a1.12,1.12,0,0,0,0,.27,1.55,1.55,0,0,0,0,.23c.06-.12.12-.24.18-.38a3.53,3.53,0,0,0,.15-.46,3.82,3.82,0,0,0,.11-.51,4.91,4.91,0,0,0,0-.55c0-.11,0-.2,0-.27s0-.13,0-.17a.26.26,0,0,0,0-.09.09.09,0,0,0-.06,0s-.08,0-.12.12a1.39,1.39,0,0,0-.14.34,3.12,3.12,0,0,0-.12.54,4.65,4.65,0,0,0-.05.69.13.13,0,0,1,.06.07.11.11,0,0,1,0,.07.1.1,0,0,1,0,.08Z"/><path class="cls-4" d="M208.47,89.08a.3.3,0,0,1,0,.15.06.06,0,0,1-.06,0,1.18,1.18,0,0,1,0,.31c0,.21.08.31.19.31a.14.14,0,0,0,.1,0,.42.42,0,0,0,.11-.14,2.07,2.07,0,0,0,.13-.26c0-.11.09-.26.14-.42.07,0,.09,0,.07.13a3.74,3.74,0,0,1-.14.46,1.05,1.05,0,0,1-.14.3.46.46,0,0,1-.14.16.34.34,0,0,1-.16,0c-.14,0-.24-.09-.3-.26a.87.87,0,0,1-.19.23.4.4,0,0,1-.25.09.31.31,0,0,1-.27-.16.8.8,0,0,1-.11-.46,1.57,1.57,0,0,1,.05-.37,1.66,1.66,0,0,1,.15-.33.8.8,0,0,1,.22-.23.43.43,0,0,1,.26-.09.35.35,0,0,1,.18,0,.24.24,0,0,1,.13.11.4.4,0,0,1,.08.16A.71.71,0,0,1,208.47,89.08Zm-.15,0a.37.37,0,0,0-.09-.23.26.26,0,0,0-.19-.08.34.34,0,0,0-.2.06,1.29,1.29,0,0,0-.15.17.85.85,0,0,0-.09.24.84.84,0,0,0,0,.27.75.75,0,0,0,.07.34.21.21,0,0,0,.18.12.26.26,0,0,0,.19-.08,1,1,0,0,0,.16-.23.13.13,0,0,0,0-.06v-.08a1.06,1.06,0,0,1,0-.34C208.23,89.09,208.27,89.05,208.32,89.07Z"/><path class="cls-4" d="M209.31,90.19a.23.23,0,0,1-.14,0,.31.31,0,0,1-.12-.11.77.77,0,0,1-.07-.2,1.28,1.28,0,0,1,0-.29,1.48,1.48,0,0,1,0-.21.91.91,0,0,1,0-.23,1.7,1.7,0,0,1,0-.22,1.07,1.07,0,0,1,.07-.19.44.44,0,0,1,.06-.1l.08,0h.06a1.59,1.59,0,0,0-.12.44,2.22,2.22,0,0,0,0,.43,1.44,1.44,0,0,0,0,.24.37.37,0,0,0,.05.15.18.18,0,0,0,.06.08.1.1,0,0,0,.07,0c.08,0,.17-.07.27-.22a3.58,3.58,0,0,0,.28-.71q0-.09.09-.09h.07a1.26,1.26,0,0,0,0,.43c0,.15.08.31.14.48s.1.34.14.53a2.2,2.2,0,0,1,.07.58,1.26,1.26,0,0,1-.08.49,1.06,1.06,0,0,1-.23.37,1,1,0,0,1-.36.24,1.17,1.17,0,0,1-.46.08,1,1,0,0,1-.36-.06,1.06,1.06,0,0,1-.28-.15.77.77,0,0,1-.19-.22.5.5,0,0,1-.07-.25.16.16,0,0,1,0-.12.09.09,0,0,1,.1,0,.46.46,0,0,0,.06.22.65.65,0,0,0,.17.2.77.77,0,0,0,.25.14,1,1,0,0,0,.3,0,.9.9,0,0,0,.67-.24.91.91,0,0,0,.25-.69,3.14,3.14,0,0,0,0-.45,4.11,4.11,0,0,0-.1-.41c0-.13-.07-.26-.1-.38a2.74,2.74,0,0,1-.08-.37,1.65,1.65,0,0,1-.28.58A.45.45,0,0,1,209.31,90.19Z"/><rect class="cls-9" x="208.19" y="115.03" width="9.67" height="0.37"/><rect class="cls-9" x="208.19" y="116.95" width="9.67" height="0.37"/><rect class="cls-9" x="208.19" y="118.88" width="9.67" height="0.37"/><rect class="cls-9" x="208.19" y="120.81" width="9.67" height="0.37"/><rect class="cls-9" x="208.19" y="122.74" width="9.67" height="0.37"/><path class="cls-4" d="M206.73,121.88a2.1,2.1,0,0,0,.51-.06,1.76,1.76,0,0,0,.39-.18,1,1,0,0,0,.26-.27A.63.63,0,0,0,208,121a.82.82,0,0,0-.11-.39,1,1,0,0,0-.32-.32,2.09,2.09,0,0,0-.52-.22,3.29,3.29,0,0,0-1.67.06,2.24,2.24,0,0,0-.71.35,1.62,1.62,0,0,0-.44.51,1.19,1.19,0,0,0-.16.59,1.6,1.6,0,0,0,.19.74,1.93,1.93,0,0,0,.57.61,3.2,3.2,0,0,0,.95.41,4.65,4.65,0,0,0,1.31.16,3.15,3.15,0,0,0,2-.52,1.77,1.77,0,0,0,.64-1.48,7.19,7.19,0,0,0-.05-.81c0-.26-.08-.53-.12-.78L209,120a3.31,3.31,0,0,1-.55,0,.62.62,0,0,1-.31-.07.2.2,0,0,1-.1-.18.16.16,0,0,1,.09-.16.61.61,0,0,0,.17,0l.22,0a5,5,0,0,0,1-.13c0-.26-.09-.52-.13-.77a4.68,4.68,0,0,1,0-.74,1.47,1.47,0,0,1,.11-.68.34.34,0,0,1,.3-.22.24.24,0,0,1,.14,0,.26.26,0,0,1,.07.15.51.51,0,0,0-.16.26,1.33,1.33,0,0,0-.07.47,5.36,5.36,0,0,0,.05.7c0,.23.07.47.11.71l.27,0h.27a1,1,0,0,1,.49.08.21.21,0,0,1,.14.19.25.25,0,0,1,0,.14.16.16,0,0,1-.11.07.41.41,0,0,0-.22-.09,2.17,2.17,0,0,0-.38,0h-.18l-.18,0c.05.27.1.55.13.83a6.37,6.37,0,0,1,.06.9,2.12,2.12,0,0,1-.21,1,1.92,1.92,0,0,1-.59.71,2.67,2.67,0,0,1-1,.45,4.92,4.92,0,0,1-1.27.15,5.4,5.4,0,0,1-1.46-.18,3.65,3.65,0,0,1-1.07-.48,2.21,2.21,0,0,1-.66-.71,1.61,1.61,0,0,1-.23-.84,1.5,1.5,0,0,1,.19-.73,1.88,1.88,0,0,1,.54-.63,2.54,2.54,0,0,1,.85-.45,3.31,3.31,0,0,1,1.13-.17,3.52,3.52,0,0,1,.83.09,2.15,2.15,0,0,1,.63.28,1.29,1.29,0,0,1,.39.42,1.07,1.07,0,0,1,.14.52,1,1,0,0,1-.12.48,1.29,1.29,0,0,1-.36.38,1.93,1.93,0,0,1-.54.25,2.4,2.4,0,0,1-.69.09,2.59,2.59,0,0,1-.48,0,1.89,1.89,0,0,1-.44-.11,1.22,1.22,0,0,1-.32-.18.29.29,0,0,1-.12-.22.23.23,0,0,1,.08-.17.35.35,0,0,1,.24,0,.22.22,0,0,0,.11.17,1.13,1.13,0,0,0,.27.14l.36.1A2.56,2.56,0,0,0,206.73,121.88Zm4.7-5.9c.15,0,.22.07.22.2a.4.4,0,0,1-.09.25.88.88,0,0,1-.29.22,2,2,0,0,1-.48.15,3.26,3.26,0,0,1-.67.06,6,6,0,0,1-1.05-.09c-.33-.06-.65-.12-1-.2l-.95-.19a5,5,0,0,0-1-.09,2.94,2.94,0,0,0-.91.11,1.8,1.8,0,0,0-.59.28,1,1,0,0,0-.31.4,1.14,1.14,0,0,0-.09.43,1,1,0,0,0,.11.46,1.06,1.06,0,0,0,.33.37,1.53,1.53,0,0,0,.5.23,2.27,2.27,0,0,0,.65.09,2.47,2.47,0,0,0,.79-.12,1.65,1.65,0,0,0,.59-.31.13.13,0,0,1,.13.14.21.21,0,0,1-.07.16,1.16,1.16,0,0,1-.21.15,2.22,2.22,0,0,1-.55.23,2.45,2.45,0,0,1-.74.1,2.74,2.74,0,0,1-.79-.11,1.85,1.85,0,0,1-.61-.31,1.35,1.35,0,0,1-.39-.47,1.24,1.24,0,0,1-.13-.58A1.52,1.52,0,0,1,204,117a1.46,1.46,0,0,1,.41-.52,2,2,0,0,1,.72-.37,3.32,3.32,0,0,1,1.06-.14,5.42,5.42,0,0,1,1,.09c.33.06.64.12.95.2l1,.2a5.31,5.31,0,0,0,1,.09,2.21,2.21,0,0,0,.86-.15A.82.82,0,0,0,211.43,116Z"/><path class="cls-4" d="M213,121.09a.65.65,0,0,1,0,.29.17.17,0,0,1-.11.1,2,2,0,0,1-.1.57q.06.6.36.6a.29.29,0,0,0,.2-.08.84.84,0,0,0,.21-.26,4.11,4.11,0,0,0,.23-.5c.09-.22.18-.48.28-.8.13,0,.17.08.13.24-.09.36-.18.66-.26.89a3.07,3.07,0,0,1-.27.57.78.78,0,0,1-.28.29.53.53,0,0,1-.3.09c-.26,0-.45-.17-.56-.49a1.51,1.51,0,0,1-.37.42.7.7,0,0,1-.46.18.61.61,0,0,1-.52-.3A1.51,1.51,0,0,1,211,122a2.83,2.83,0,0,1,.1-.71,2.27,2.27,0,0,1,.28-.63,1.41,1.41,0,0,1,.41-.43.84.84,0,0,1,.5-.17.75.75,0,0,1,.35.08.72.72,0,0,1,.25.21,1,1,0,0,1,.14.32A1.6,1.6,0,0,1,213,121.09Zm-.3,0a.71.71,0,0,0-.17-.44.47.47,0,0,0-.37-.15.6.6,0,0,0-.36.12,1,1,0,0,0-.28.32,1.85,1.85,0,0,0-.19.45,2.25,2.25,0,0,0-.07.52,1.28,1.28,0,0,0,.14.65.39.39,0,0,0,.34.23.47.47,0,0,0,.35-.17,1.53,1.53,0,0,0,.31-.42.53.53,0,0,1,0-.13v-.14a1.91,1.91,0,0,1,.09-.65C212.58,121.11,212.65,121,212.74,121.07Z"/><path class="cls-7" d="M214.12,114.78a.28.28,0,0,1,.1-.23.57.57,0,0,1,.33-.08.65.65,0,0,1,.45.14.46.46,0,0,1,.15.34.82.82,0,0,1-.07.31,1,1,0,0,1-.19.27,1.08,1.08,0,0,1-.24.18.54.54,0,0,1-.26.07.42.42,0,0,1-.31-.11.45.45,0,0,1-.11-.31.83.83,0,0,1,.16-.47.45.45,0,0,1,0-.11Zm.13.4a.2.2,0,0,0,.08.17.27.27,0,0,0,.19.06.35.35,0,0,0,.23-.09.27.27,0,0,0,.1-.22.26.26,0,0,0-.09-.18.34.34,0,0,0-.26-.09l-.14,0a.67.67,0,0,0-.08.18A.49.49,0,0,0,214.25,115.18Z"/></g></g></svg>