<?xml version="1.0" encoding="UTF-8"?>
<!DOCTYPE svg PUBLIC "-//W3C//DTD SVG 1.1//EN" "http://www.w3.org/Graphics/SVG/1.1/DTD/svg11.dtd">
<!-- Creator: CorelDRAW 2020 (64-Bit) -->
<svg xmlns="http://www.w3.org/2000/svg" xml:space="preserve" width="97px" height="97px" version="1.1" style="shape-rendering:geometricPrecision; text-rendering:geometricPrecision; image-rendering:optimizeQuality; fill-rule:evenodd; clip-rule:evenodd"
viewBox="0 0 9.58 9.61"
 xmlns:xlink="http://www.w3.org/1999/xlink"
 xmlns:xodm="http://www.corel.com/coreldraw/odm/2003">
 <defs>
  <style type="text/css">
   <![CDATA[
    .fil2 {fill:none}
    .fil0 {fill:#8FA0A6}
    .fil1 {fill:black;fill-rule:nonzero}
   ]]>
  </style>
 </defs>
 <g id="Layer_x0020_1">
  <metadata id="CorelCorpID_0Corel-Layer"/>
  <g id="_1985164427984">
   <g>
    <g>
     <path class="fil0" d="M0.8 5.21c-0.05,-1.53 1.69,-1.28 2.2,-0.57 0.69,0.97 0.73,2.98 0.1,3.69 -0.13,0.16 -0.64,0.58 -0.18,0.28 1.3,-0.86 1.24,-2.9 0.7,-4.02 -0.36,-0.76 -1.42,-2.61 -2.58,-1.18 -0.34,0.41 -0.49,1.25 -0.35,1.78 0.08,0.33 0.11,0.03 0.11,0.02z"/>
     <path class="fil0" d="M8.78 5.21c0.05,-1.53 -1.69,-1.28 -2.2,-0.57 -0.69,0.97 -0.73,2.98 -0.11,3.69 0.14,0.16 0.64,0.58 0.19,0.28 -1.3,-0.86 -1.24,-2.9 -0.71,-4.02 0.36,-0.76 1.43,-2.61 2.59,-1.18 0.33,0.41 0.48,1.25 0.35,1.78 -0.09,0.33 -0.11,0.03 -0.11,0.02z"/>
    </g>
    <g>
     <g>
      <path class="fil0" d="M5.79 3.15c0.06,-0.97 -0.37,-2.42 -0.99,-2.97l-0.02 0c-0.62,0.55 -1.05,2 -0.99,2.97 0.09,1.46 0.44,2.4 0.43,3.91 0,0.77 0.2,1.68 0.47,2.2l0.1 0.14 0.1 -0.14c0.26,-0.52 0.47,-1.43 0.46,-2.2 0,-1.51 0.35,-2.45 0.44,-3.91z"/>
      <path id="1" class="fil1" d="M4.8 0.3l0 -0.24 0.08 0.03 0.07 0.06 0.06 0.06 0.05 0.07 0.06 0.07 0.06 0.08 0.05 0.08 0.05 0.08 0.05 0.09 0.05 0.09 0.05 0.09 0.04 0.1 0.04 0.1 0.04 0.1 0.04 0.1 0.04 0.1 0.04 0.11 0.03 0.11 0.03 0.1 0.03 0.11 0.03 0.11 0.02 0.11 0.02 0.11 0.02 0.11 0.02 0.11 0.01 0.1 0.02 0.11 0.01 0.11 0 0.1 0.01 0.1 0 0.1 0 0.1 -0.01 0.1 -0.24 -0.02 0 -0.08 0 -0.1 0 -0.09 0 -0.1 -0.01 -0.09 -0.01 -0.1 -0.01 -0.11 -0.01 -0.1 -0.02 -0.1 -0.02 -0.11 -0.02 -0.1 -0.02 -0.1 -0.03 -0.11 -0.03 -0.1 -0.03 -0.1 -0.03 -0.11 -0.03 -0.1 -0.04 -0.1 -0.03 -0.09 -0.04 -0.1 -0.04 -0.09 -0.05 -0.09 -0.04 -0.09 -0.04 -0.08 -0.05 -0.08 -0.05 -0.08 -0.05 -0.07 -0.05 -0.07 -0.05 -0.07 -0.05 -0.06 -0.05 -0.05 -0.05 -0.05 0.08 0.03zm0 -0.24l0.05 0 0.03 0.03 -0.08 -0.03zm-0.02 0l0.02 0 0 0.24 -0.02 0 -0.09 -0.21 0.09 -0.03zm-0.09 0.03l0.04 -0.03 0.05 0 -0.09 0.03zm-0.78 3.05l-0.25 0.02 0 0 0 -0.1 0 -0.1 0 -0.1 0 -0.1 0.01 -0.1 0.01 -0.11 0.01 -0.11 0.02 -0.1 0.01 -0.11 0.02 -0.11 0.03 -0.11 0.02 -0.11 0.03 -0.11 0.03 -0.11 0.03 -0.1 0.03 -0.11 0.04 -0.11 0.03 -0.1 0.04 -0.1 0.04 -0.1 0.05 -0.1 0.04 -0.1 0.05 -0.09 0.04 -0.09 0.05 -0.09 0.06 -0.08 0.05 -0.08 0.06 -0.08 0.05 -0.07 0.06 -0.07 0.06 -0.06 0.06 -0.06 0.17 0.18 -0.06 0.05 -0.05 0.05 -0.05 0.06 -0.05 0.07 -0.05 0.07 -0.05 0.07 -0.04 0.08 -0.05 0.08 -0.04 0.08 -0.05 0.09 -0.04 0.09 -0.04 0.09 -0.04 0.1 -0.04 0.09 -0.03 0.1 -0.04 0.1 -0.03 0.11 -0.03 0.1 -0.02 0.1 -0.03 0.11 -0.02 0.1 -0.02 0.1 -0.02 0.11 -0.02 0.1 -0.01 0.1 -0.02 0.11 0 0.1 -0.01 0.09 0 0.1 -0.01 0.09 0.01 0.1 0 0.08 0 0zm0.44 3.92l-0.25 0 0 0 0 -0.14 0 -0.13 -0.01 -0.13 0 -0.13 -0.01 -0.13 -0.01 -0.13 -0.01 -0.12 -0.01 -0.12 -0.01 -0.12 -0.02 -0.12 -0.01 -0.11 -0.02 -0.12 -0.02 -0.11 -0.01 -0.12 -0.02 -0.11 -0.02 -0.12 -0.02 -0.11 -0.02 -0.11 -0.02 -0.12 -0.02 -0.11 -0.01 -0.12 -0.02 -0.11 -0.02 -0.12 -0.02 -0.12 -0.02 -0.12 -0.01 -0.12 -0.02 -0.13 -0.01 -0.12 -0.01 -0.13 -0.02 -0.13 -0.01 -0.13 -0.01 -0.14 0.25 -0.02 0.01 0.14 0.01 0.13 0.01 0.13 0.01 0.12 0.02 0.12 0.01 0.13 0.02 0.12 0.02 0.12 0.01 0.11 0.02 0.12 0.02 0.11 0.02 0.12 0.02 0.11 0.02 0.12 0.01 0.11 0.02 0.11 0.02 0.12 0.02 0.11 0.02 0.12 0.01 0.12 0.02 0.11 0.02 0.12 0.01 0.12 0.01 0.12 0.02 0.13 0.01 0.12 0.01 0.13 0 0.13 0.01 0.14 0 0.13 0.01 0.14 0 0.14 0 0zm0.44 2.13l-0.2 0.15 -0.01 -0.02 -0.02 -0.06 -0.03 -0.05 -0.03 -0.06 -0.02 -0.06 -0.02 -0.06 -0.03 -0.06 -0.02 -0.06 -0.02 -0.07 -0.02 -0.06 -0.02 -0.07 -0.02 -0.07 -0.02 -0.07 -0.02 -0.07 -0.02 -0.08 -0.02 -0.07 -0.01 -0.07 -0.02 -0.08 -0.01 -0.07 -0.02 -0.08 -0.01 -0.07 -0.01 -0.08 -0.01 -0.08 -0.01 -0.07 -0.01 -0.08 -0.01 -0.08 -0.01 -0.08 -0.01 -0.07 0 -0.08 0 -0.07 -0.01 -0.08 0 -0.07 0 -0.08 0.25 0 0 0.07 0 0.07 0 0.08 0.01 0.07 0 0.07 0.01 0.07 0 0.08 0.01 0.07 0.01 0.07 0.01 0.08 0.01 0.07 0.01 0.08 0.01 0.07 0.02 0.07 0.01 0.07 0.02 0.08 0.01 0.07 0.02 0.07 0.02 0.07 0.01 0.06 0.02 0.07 0.02 0.07 0.02 0.06 0.02 0.06 0.02 0.07 0.02 0.06 0.03 0.05 0.02 0.06 0.02 0.06 0.02 0.05 0.03 0.05 0.02 0.05 -0.01 -0.02zm-0.2 0.15l0 -0.01 -0.01 -0.01 0.01 0.02zm0.11 0.13l-0.11 -0.13 0.2 -0.15 0.1 0.13 0.01 0.15 -0.2 0zm0.2 0l-0.1 0.14 -0.1 -0.14 0.2 0zm0.09 -0.14l-0.09 0.14 -0.21 -0.14 0.09 -0.14 0.21 0.13 0 0.01zm0 -0.01l0 0 0 0.01 0 -0.01zm0.24 -2.26l0.25 0 0 0 -0.01 0.08 0 0.07 0 0.08 0 0.07 -0.01 0.08 0 0.07 -0.01 0.08 -0.01 0.08 -0.01 0.08 -0.01 0.07 -0.01 0.08 -0.01 0.08 -0.02 0.07 -0.01 0.08 -0.01 0.07 -0.02 0.08 -0.02 0.07 -0.01 0.07 -0.02 0.08 -0.02 0.07 -0.02 0.07 -0.02 0.07 -0.02 0.07 -0.02 0.06 -0.02 0.07 -0.03 0.06 -0.02 0.06 -0.02 0.06 -0.03 0.06 -0.02 0.06 -0.03 0.05 -0.03 0.06 -0.21 -0.11 0.02 -0.05 0.02 -0.05 0.03 -0.05 0.02 -0.06 0.02 -0.06 0.02 -0.05 0.02 -0.06 0.02 -0.07 0.02 -0.06 0.02 -0.06 0.02 -0.07 0.02 -0.07 0.02 -0.06 0.02 -0.07 0.01 -0.07 0.02 -0.08 0.01 -0.07 0.02 -0.07 0.01 -0.07 0.01 -0.07 0.02 -0.08 0.01 -0.07 0.01 -0.08 0.01 -0.07 0 -0.07 0.01 -0.08 0.01 -0.07 0 -0.07 0 -0.07 0.01 -0.08 0 -0.07 0 -0.07 0 0zm0.44 -3.92l0.24 0.02 0 0 -0.01 0.14 -0.01 0.13 -0.01 0.13 -0.01 0.13 -0.02 0.12 -0.01 0.13 -0.02 0.12 -0.02 0.12 -0.01 0.12 -0.02 0.12 -0.02 0.11 -0.02 0.12 -0.02 0.11 -0.02 0.12 -0.01 0.11 -0.02 0.11 -0.02 0.12 -0.02 0.11 -0.02 0.12 -0.01 0.11 -0.02 0.12 -0.02 0.11 -0.01 0.12 -0.01 0.12 -0.01 0.12 -0.02 0.12 0 0.13 -0.01 0.13 -0.01 0.13 0 0.13 0 0.13 0 0.14 -0.25 0 0 -0.14 0 -0.14 0.01 -0.13 0 -0.14 0.01 -0.13 0.01 -0.13 0.01 -0.12 0.01 -0.13 0.02 -0.12 0.01 -0.12 0.02 -0.12 0.01 -0.11 0.02 -0.12 0.02 -0.12 0.01 -0.11 0.02 -0.12 0.02 -0.11 0.02 -0.11 0.02 -0.12 0.02 -0.11 0.02 -0.12 0.02 -0.11 0.01 -0.12 0.02 -0.11 0.02 -0.12 0.01 -0.12 0.02 -0.13 0.01 -0.12 0.02 -0.12 0.01 -0.13 0.01 -0.13 0.01 -0.14 0 0z"/>
     </g>
     <g>
      <path class="fil0" d="M3.35 5.28l2.87 0c0.16,0 0.28,0.12 0.28,0.28l0 0c0,0.15 -0.12,0.28 -0.28,0.28l-2.87 0c-0.15,0 -0.28,-0.13 -0.28,-0.28l0 0c0,-0.16 0.13,-0.28 0.28,-0.28z"/>
      <path id="1" class="fil1" d="M6.22 5.4l-2.87 0 0 -0.24 2.87 0 0 0 0 0.24zm0.41 0.16l-0.25 0 0 0 0 -0.01 0 -0.01 0 -0.01 0 0 0 -0.01 -0.01 -0.01 0 0 0 -0.01 0 -0.01 -0.01 -0.01 0 0 -0.01 -0.01 0 0 0 -0.01 -0.01 -0.01 -0.01 0 0 -0.01 -0.01 0 0 -0.01 -0.01 0 -0.01 -0.01 0 0 -0.01 0 -0.01 -0.01 0 0 -0.01 0 -0.01 0 0 0 -0.01 -0.01 -0.01 0 -0.01 0 -0.01 0 0 -0.24 0.03 0 0.02 0 0.02 0 0.01 0 0.02 0.01 0.02 0 0.02 0.01 0.02 0.01 0.02 0.01 0.02 0 0.01 0.01 0.02 0.01 0.01 0.02 0.02 0.01 0.01 0.01 0.02 0.01 0.01 0.02 0.01 0.01 0.02 0.02 0.01 0.01 0.01 0.02 0.01 0.02 0.01 0.01 0 0.02 0.01 0.02 0.01 0.02 0 0.02 0.01 0.02 0 0.02 0 0.02 0.01 0.02 0 0.02 0 0zm-0.13 0l0 0 0 0 0 0 0.13 0 -0.13 0zm-0.28 0.4l0 -0.25 0 0 0.01 0 0.01 0 0.01 0 0.01 0 0 0 0.01 0 0.01 -0.01 0 0 0.01 0 0.01 0 0 -0.01 0.01 0 0.01 -0.01 0 0 0.01 -0.01 0 0 0.01 -0.01 0 0 0.01 -0.01 0 -0.01 0.01 0 0 -0.01 0.01 0 0 -0.01 0 -0.01 0 -0.01 0.01 0 0 -0.01 0 -0.01 0 -0.01 0 0 0 -0.01 0.25 0 0 0.02 -0.01 0.02 0 0.02 0 0.02 -0.01 0.02 0 0.02 -0.01 0.02 -0.01 0.01 0 0.02 -0.01 0.02 -0.01 0.02 -0.01 0.01 -0.01 0.02 -0.02 0.01 -0.01 0.02 -0.01 0.01 -0.02 0.02 -0.01 0.01 -0.02 0.01 -0.01 0.01 -0.02 0.01 -0.01 0.01 -0.02 0.01 -0.02 0.01 -0.02 0.01 -0.02 0 -0.02 0.01 -0.02 0 -0.01 0.01 -0.02 0 -0.02 0 -0.03 0 0 0zm-2.87 -0.25l2.87 0 0 0.25 -2.87 0 0 0 0 -0.25zm-0.4 -0.15l0.25 0 0 0 0 0.01 0 0 0 0.01 0 0.01 0 0.01 0 0 0 0.01 0.01 0.01 0 0.01 0 0 0.01 0.01 0 0 0.01 0.01 0 0.01 0.01 0 0 0.01 0.01 0 0 0.01 0.01 0 0 0.01 0.01 0 0.01 0.01 0 0 0.01 0 0.01 0 0.01 0.01 0 0 0.01 0 0.01 0 0.01 0 0 0 0.01 0 0 0.25 -0.02 0 -0.02 0 -0.02 0 -0.02 -0.01 -0.02 0 -0.02 -0.01 -0.02 0 -0.01 -0.01 -0.02 -0.01 -0.02 -0.01 -0.02 -0.01 -0.01 -0.01 -0.02 -0.01 -0.01 -0.01 -0.02 -0.01 -0.01 -0.02 -0.02 -0.01 -0.01 -0.02 -0.01 -0.01 -0.01 -0.02 -0.01 -0.01 -0.01 -0.02 -0.01 -0.02 -0.01 -0.02 -0.01 -0.01 0 -0.02 -0.01 -0.02 0 -0.02 0 -0.02 -0.01 -0.02 0 -0.02 0 -0.02 0 0zm0.12 0l0 0 0 0 0 0 -0.12 0 0.12 0zm0.28 -0.4l0 0.24 0 0 -0.01 0 0 0 -0.01 0 -0.01 0.01 -0.01 0 0 0 -0.01 0 -0.01 0 -0.01 0.01 0 0 -0.01 0 -0.01 0.01 0 0 -0.01 0.01 0 0 -0.01 0.01 0 0 -0.01 0.01 0 0.01 -0.01 0 0 0.01 -0.01 0 0 0.01 0 0.01 -0.01 0.01 0 0 0 0.01 0 0.01 0 0 0 0.01 0 0.01 0 0.01 -0.25 0 0 -0.02 0 -0.02 0.01 -0.02 0 -0.02 0 -0.02 0.01 -0.02 0 -0.02 0.01 -0.02 0.01 -0.02 0.01 -0.01 0.01 -0.02 0.01 -0.02 0.01 -0.01 0.01 -0.02 0.02 -0.01 0.01 -0.02 0.01 -0.01 0.02 -0.01 0.01 -0.01 0.02 -0.02 0.01 -0.01 0.02 -0.01 0.02 0 0.02 -0.01 0.01 -0.01 0.02 -0.01 0.02 0 0.02 -0.01 0.02 0 0.02 0 0.02 0 0.02 0 0 0z"/>
     </g>
     <g>
      <path class="fil0" d="M3.35 5.83l2.87 0c0.16,0 0.28,0.13 0.28,0.28l0 0c0,0.16 -0.12,0.28 -0.28,0.28l-2.87 0c-0.15,0 -0.28,-0.12 -0.28,-0.28l0 0c0,-0.15 0.13,-0.28 0.28,-0.28z"/>
      <path id="1" class="fil1" d="M6.22 5.96l-2.87 0 0 -0.25 2.87 0 0 0 0 0.25zm0.41 0.15l-0.25 0 0 0 0 -0.01 0 0 0 -0.01 0 -0.01 0 -0.01 -0.01 0 0 -0.01 0 -0.01 0 -0.01 -0.01 0 0 -0.01 -0.01 -0.01 0 0 0 -0.01 -0.01 0 -0.01 -0.01 0 0 -0.01 -0.01 0 0 -0.01 -0.01 -0.01 0 0 -0.01 -0.01 0 -0.01 0 0 0 -0.01 -0.01 -0.01 0 0 0 -0.01 0 -0.01 0 -0.01 0 -0.01 0 0 -0.25 0.03 0 0.02 0 0.02 0 0.01 0.01 0.02 0 0.02 0.01 0.02 0 0.02 0.01 0.02 0.01 0.02 0.01 0.01 0.01 0.02 0.01 0.01 0.01 0.02 0.01 0.01 0.01 0.02 0.02 0.01 0.01 0.01 0.02 0.02 0.01 0.01 0.02 0.01 0.01 0.01 0.02 0.01 0.02 0 0.02 0.01 0.01 0.01 0.02 0 0.02 0.01 0.02 0 0.02 0 0.02 0.01 0.02 0 0.02 0 0zm-0.13 0l0 0 0 0 0 0 0.13 0 -0.13 0zm-0.28 0.4l0 -0.24 0 0 0.01 0 0.01 0 0.01 0 0.01 -0.01 0 0 0.01 0 0.01 0 0 0 0.01 -0.01 0.01 0 0 0 0.01 -0.01 0.01 0 0 -0.01 0.01 0 0 -0.01 0.01 0 0.01 -0.01 0 -0.01 0 0 0.01 -0.01 0 0 0.01 -0.01 0 -0.01 0 -0.01 0 0 0.01 -0.01 0 -0.01 0 -0.01 0 0 0 -0.01 0 -0.01 0.25 0 0 0.02 -0.01 0.02 0 0.02 0 0.02 -0.01 0.02 0 0.02 -0.01 0.02 -0.01 0.02 0 0.02 -0.01 0.01 -0.01 0.02 -0.01 0.02 -0.01 0.01 -0.02 0.02 -0.01 0.01 -0.01 0.02 -0.02 0.01 -0.01 0.01 -0.02 0.01 -0.01 0.01 -0.02 0.01 -0.01 0.01 -0.02 0.01 -0.02 0.01 -0.02 0.01 -0.02 0.01 -0.02 0 -0.02 0.01 -0.01 0 -0.02 0 -0.02 0 -0.03 0 0 0zm-2.87 -0.24l2.87 0 0 0.24 -2.87 0 0 0 0 -0.24zm-0.4 -0.16l0.25 0 0 0 0 0.01 0 0.01 0 0 0 0.01 0 0.01 0 0.01 0 0 0.01 0.01 0 0.01 0 0.01 0.01 0 0 0.01 0.01 0 0 0.01 0.01 0.01 0 0 0.01 0.01 0 0 0.01 0.01 0 0 0.01 0 0.01 0.01 0 0 0.01 0.01 0.01 0 0.01 0 0 0 0.01 0 0.01 0.01 0.01 0 0 0 0.01 0 0 0.24 -0.02 0 -0.02 0 -0.02 0 -0.02 0 -0.02 -0.01 -0.02 0 -0.02 -0.01 -0.01 -0.01 -0.02 -0.01 -0.02 -0.01 -0.02 0 -0.01 -0.02 -0.02 -0.01 -0.01 -0.01 -0.02 -0.01 -0.01 -0.01 -0.01 -0.02 -0.02 -0.01 -0.01 -0.02 -0.01 -0.01 -0.01 -0.02 -0.01 -0.02 -0.01 -0.01 -0.01 -0.02 -0.01 -0.02 0 -0.02 -0.01 -0.02 0 -0.02 0 -0.02 -0.01 -0.02 0 -0.02 0 -0.02 0 0zm0.12 0l0 0 0 0 0 0 -0.12 0 0.12 0zm0.28 -0.4l0 0.25 0 0 -0.01 0 0 0 -0.01 0 -0.01 0 -0.01 0 0 0 -0.01 0.01 -0.01 0 -0.01 0 0 0 -0.01 0.01 -0.01 0 0 0.01 -0.01 0 0 0.01 -0.01 0 0 0.01 -0.01 0 0 0.01 -0.01 0 0 0.01 -0.01 0.01 0 0 0 0.01 -0.01 0.01 0 0.01 0 0 0 0.01 0 0.01 0 0.01 0 0 0 0.01 -0.25 0 0 -0.02 0 -0.02 0.01 -0.02 0 -0.02 0 -0.02 0.01 -0.02 0 -0.02 0.01 -0.02 0.01 -0.01 0.01 -0.02 0.01 -0.02 0.01 -0.01 0.01 -0.02 0.01 -0.01 0.02 -0.02 0.01 -0.01 0.01 -0.02 0.02 -0.01 0.01 -0.01 0.02 -0.01 0.01 -0.01 0.02 -0.01 0.02 -0.01 0.02 -0.01 0.01 -0.01 0.02 0 0.02 -0.01 0.02 0 0.02 -0.01 0.02 0 0.02 0 0.02 0 0 0z"/>
     </g>
     <g>
      <path class="fil0" d="M3.35 6.4l2.87 0c0.16,0 0.28,0.12 0.28,0.28l0 0c0,0.15 -0.12,0.28 -0.28,0.28l-2.87 0c-0.15,0 -0.28,-0.13 -0.28,-0.28l0 0c0,-0.16 0.13,-0.28 0.28,-0.28z"/>
      <path id="1" class="fil1" d="M6.22 6.52l-2.87 0 0 -0.24 2.87 0 0 0 0 0.24zm0.41 0.16l-0.25 0 0 0 0 -0.01 0 -0.01 0 -0.01 0 0 0 -0.01 -0.01 -0.01 0 -0.01 0 0 0 -0.01 -0.01 -0.01 0 0 -0.01 -0.01 0 -0.01 0 0 -0.01 -0.01 -0.01 0 0 -0.01 -0.01 0 0 -0.01 -0.01 0 -0.01 -0.01 0 0 -0.01 0 -0.01 -0.01 0 0 -0.01 0 -0.01 0 0 -0.01 -0.01 0 -0.01 0 -0.01 0 -0.01 0 0 -0.24 0.03 0 0.02 0 0.02 0 0.01 0 0.02 0.01 0.02 0 0.02 0.01 0.02 0.01 0.02 0.01 0.02 0 0.01 0.01 0.02 0.01 0.01 0.02 0.02 0.01 0.01 0.01 0.02 0.01 0.01 0.02 0.01 0.01 0.02 0.02 0.01 0.01 0.01 0.02 0.01 0.02 0.01 0.01 0 0.02 0.01 0.02 0.01 0.02 0 0.02 0.01 0.02 0 0.02 0 0.02 0.01 0.02 0 0.02 0 0zm-0.13 0l0 0 0 0 0 0 0.13 0 -0.13 0zm-0.28 0.4l0 -0.25 0 0 0.01 0 0.01 0 0.01 0 0.01 0 0 0 0.01 0 0.01 -0.01 0 0 0.01 0 0.01 -0.01 0 0 0.01 0 0.01 -0.01 0 0 0.01 -0.01 0 0 0.01 -0.01 0.01 0 0 -0.01 0 -0.01 0.01 0 0 -0.01 0.01 -0.01 0 0 0 -0.01 0 -0.01 0.01 0 0 -0.01 0 -0.01 0 -0.01 0 0 0 -0.01 0.25 0 0 0.02 -0.01 0.02 0 0.02 0 0.02 -0.01 0.02 0 0.02 -0.01 0.02 -0.01 0.01 0 0.02 -0.01 0.02 -0.01 0.02 -0.01 0.01 -0.01 0.02 -0.02 0.01 -0.01 0.02 -0.01 0.01 -0.02 0.01 -0.01 0.02 -0.02 0.01 -0.01 0.01 -0.02 0.01 -0.01 0.01 -0.02 0.01 -0.02 0.01 -0.02 0 -0.02 0.01 -0.02 0.01 -0.02 0 -0.01 0 -0.02 0.01 -0.02 0 -0.03 0 0 0zm-2.87 -0.25l2.87 0 0 0.25 -2.87 0 0 0 0 -0.25zm-0.4 -0.15l0.25 0 0 0 0 0.01 0 0 0 0.01 0 0.01 0 0.01 0 0 0 0.01 0.01 0.01 0 0 0 0.01 0.01 0.01 0 0 0.01 0.01 0 0.01 0.01 0 0 0.01 0.01 0 0 0.01 0.01 0 0 0.01 0.01 0 0.01 0 0 0.01 0.01 0 0.01 0 0.01 0.01 0 0 0.01 0 0.01 0 0.01 0 0 0 0.01 0 0 0.25 -0.02 0 -0.02 0 -0.02 -0.01 -0.02 0 -0.02 0 -0.02 -0.01 -0.02 -0.01 -0.01 0 -0.02 -0.01 -0.02 -0.01 -0.02 -0.01 -0.01 -0.01 -0.02 -0.01 -0.01 -0.01 -0.02 -0.02 -0.01 -0.01 -0.01 -0.01 -0.02 -0.02 -0.01 -0.01 -0.01 -0.02 -0.01 -0.01 -0.01 -0.02 -0.01 -0.02 -0.01 -0.02 -0.01 -0.01 0 -0.02 -0.01 -0.02 0 -0.02 0 -0.02 -0.01 -0.02 0 -0.02 0 -0.02 0 0zm0.12 0l0 0 0 0 0 0 -0.12 0 0.12 0zm0.28 -0.4l0 0.24 0 0 -0.01 0 0 0 -0.01 0 -0.01 0 -0.01 0.01 0 0 -0.01 0 -0.01 0 -0.01 0.01 0 0 -0.01 0 -0.01 0.01 0 0 -0.01 0.01 0 0 -0.01 0.01 0 0 -0.01 0.01 0 0 -0.01 0.01 0 0.01 -0.01 0 0 0.01 0 0.01 -0.01 0 0 0.01 0 0.01 0 0.01 0 0 0 0.01 0 0.01 0 0.01 -0.25 0 0 -0.02 0 -0.02 0.01 -0.02 0 -0.02 0 -0.02 0.01 -0.02 0 -0.02 0.01 -0.02 0.01 -0.02 0.01 -0.01 0.01 -0.02 0.01 -0.02 0.01 -0.01 0.01 -0.02 0.02 -0.01 0.01 -0.02 0.01 -0.01 0.02 -0.01 0.01 -0.01 0.02 -0.02 0.01 -0.01 0.02 -0.01 0.02 0 0.02 -0.01 0.01 -0.01 0.02 -0.01 0.02 0 0.02 -0.01 0.02 0 0.02 0 0.02 0 0.02 0 0 0z"/>
     </g>
    </g>
   </g>
   <rect class="fil2" width="9.58" height="9.58"/>
  </g>
 </g>
</svg>
