<?xml version="1.0" encoding="UTF-8"?>
<!DOCTYPE svg PUBLIC "-//W3C//DTD SVG 1.1//EN" "http://www.w3.org/Graphics/SVG/1.1/DTD/svg11.dtd">
<!-- Creator: CorelDRAW 2020 (64-Bit) -->
<svg xmlns="http://www.w3.org/2000/svg" xml:space="preserve" width="1571px" height="1571px" version="1.1" style="shape-rendering:geometricPrecision; text-rendering:geometricPrecision; image-rendering:optimizeQuality; fill-rule:evenodd; clip-rule:evenodd"
viewBox="0 0 1385.07 1385.07"
 xmlns:xlink="http://www.w3.org/1999/xlink"
 xmlns:xodm="http://www.corel.com/coreldraw/odm/2003">
 <defs>
  <style type="text/css">
   <![CDATA[
    .str4 {stroke:black;stroke-width:1.84;stroke-miterlimit:22.9256}
    .str0 {stroke:#4D4D4D;stroke-width:1.84;stroke-miterlimit:22.9256}
    .str2 {stroke:#943326;stroke-width:1.84;stroke-miterlimit:22.9256}
    .str5 {stroke:#999999;stroke-width:1.84;stroke-miterlimit:22.9256}
    .str7 {stroke:#B3B3B3;stroke-width:1.84;stroke-miterlimit:22.9256}
    .str3 {stroke:black;stroke-width:0.79;stroke-miterlimit:22.9256}
    .str6 {stroke:#999999;stroke-width:0.79;stroke-miterlimit:22.9256}
    .str1 {stroke:#FFFFCC;stroke-width:0.79;stroke-miterlimit:22.9256}
    .fil6 {fill:black}
    .fil14 {fill:#045B73}
    .fil33 {fill:#0F4066}
    .fil12 {fill:#117DA4}
    .fil10 {fill:#1CC6EA}
    .fil2 {fill:#20202E}
    .fil0 {fill:#495AC7}
    .fil34 {fill:#4C8CC4}
    .fil9 {fill:#4D4D4D}
    .fil32 {fill:#6B6837}
    .fil19 {fill:gray}
    .fil16 {fill:#943326}
    .fil23 {fill:#999999}
    .fil7 {fill:#B3B3B3}
    .fil5 {fill:#B72915}
    .fil20 {fill:#BA7E70}
    .fil25 {fill:#C77F37}
    .fil15 {fill:#CC6633}
    .fil31 {fill:#CCC876}
    .fil26 {fill:#CCCCCC}
    .fil4 {fill:#CFB47F}
    .fil17 {fill:#D63520}
    .fil18 {fill:#D63520}
    .fil27 {fill:#D9B09A}
    .fil28 {fill:#D9B09A}
    .fil21 {fill:#DEB9A2}
    .fil13 {fill:#E6E6E6}
    .fil11 {fill:#EA8B39}
    .fil22 {fill:#F0D9C0}
    .fil24 {fill:#F0D9C0}
    .fil29 {fill:#F76956}
    .fil30 {fill:#F76956}
    .fil1 {fill:#FFCC99}
    .fil8 {fill:#FFFF66}
    .fil3 {fill:#FFFFCC}
   ]]>
  </style>
 </defs>
 <g id="Layer_x0020_1">
  <metadata id="CorelCorpID_0Corel-Layer"/>
  <rect class="fil0" width="1385.07" height="1385.07"/>
  <g id="_2860510144176">
   <path class="fil1" d="M253.86 1252.26c-9.92,-0.97 -18.41,-2.01 -17.48,-0.76 3.31,4.5 4.88,8.98 6.52,14.85 0.7,2.52 -14.36,12.86 -16.96,16.1 -16.64,20.77 -23.01,16.66 -45.87,16.48 -11.35,-0.09 -24.53,-12.33 -23.32,4.42 0,0.09 0.82,4.73 2.48,1.44 0.8,-1.58 2.49,-2.48 4.16,-2.54 15.9,-0.55 26.71,5.34 52.17,-1.78 10.06,-2.81 27.64,0.1 33.62,-2.46 -0.88,-2.05 -12.6,-1.22 -16.12,-1.39 -18.38,-0.93 4.47,-18.05 9.23,-20.07 6.38,-2.69 12.08,-4.12 12.98,-11.09 0.27,-2.05 0.02,-7.43 0.22,-10.59 0.18,-2.94 1.35,-2.32 -1.63,-2.61z"/>
   <path class="fil2" d="M332.19 1265.87c0.41,1.27 13.06,24.05 18.47,33.97 3.09,5.67 12.08,18.95 3.07,19.72 -5.43,0.46 -10.26,-10.06 -19.59,-9.83 -6.07,0.14 -8.67,8.8 -12.91,10.17 -2.92,0.94 -5.63,-1.33 -6.16,-2.8 -2.98,-8.25 -16.55,-48.8 -8.04,-50.55 0.64,-3.13 24.72,-2.03 25.16,-0.68z"/>
   <path class="fil3" d="M314.63 1304.53c-2.39,-6.81 13.12,-2.98 15.04,-3.28 2.88,-0.44 10.21,-11.19 15.92,-1.49 2.63,4.48 4.78,7.88 6.86,12.93 2.41,5.84 -11.91,-10.47 -22.77,-7 -6.32,2.02 -7.12,7.84 -9.18,9.38 -3.44,2.59 -4.88,-7.71 -5.87,-10.54z"/>
   <path class="fil1" d="M287.9 1267.08c-11.31,-1.93 -20.97,-3.83 -20.01,-2.32 3.43,5.44 4.86,10.72 6.26,17.59 0.6,2.95 -17.54,13.58 -20.8,17.09 -20.82,22.47 -27.79,17.23 -54.03,15.13 -13.03,-1.04 -27.15,-16.19 -27.15,3.14 0,0.12 0.55,5.51 2.74,1.86 1.05,-1.74 3.06,-2.64 4.98,-2.57 18.3,0.68 30.23,8.34 60.05,2.27 11.78,-2.39 31.72,2.4 38.8,-0.04 -0.84,-2.43 -14.36,-2.45 -18.39,-2.94 -21.02,-2.58 6.63,-20.35 12.26,-22.27 7.54,-2.57 14.21,-3.74 15.82,-11.67 0.47,-2.33 0.64,-8.52 1.12,-12.14 0.45,-3.36 1.75,-2.55 -1.65,-3.13z"/>
   <path class="fil4" d="M280.53 1066.62c13.46,-9.65 49.83,-17.78 34.8,-39.32 -59.5,-85.32 -176.56,41.6 -160.45,123.99 15.6,79.8 103.13,111.76 167.49,140.22 6.75,2.99 5.34,4.25 8.09,-6.55 12.96,-50.86 -23.96,-181.38 -57.13,-207.67 -1.58,-1.25 6.06,-9.85 7.2,-10.67z"/>
   <path class="fil2" d="M288.83 1001.81c-75.63,-32.91 -92.35,52.19 -19.68,61.3 16.36,2.05 54.79,-10.46 49.18,-27.63 -4.22,-12.88 -18.15,-28.73 -29.5,-33.67z"/>
   <path class="fil3" d="M292.23 1011.85c-68.81,-21.12 -77.47,49.68 -12.95,51.58 14.52,0.42 47.41,-12.72 41.26,-26.32 -4.62,-10.21 -17.99,-22.09 -28.31,-25.26z"/>
   <path class="fil5" d="M295.77 1015.09c-51.46,-11.21 -50.88,44.83 -4.35,41.34 10.47,-0.78 32.84,-13.6 27.12,-23.77 -4.3,-7.62 -15.05,-15.89 -22.77,-17.57z"/>
   <path class="fil2" d="M287.81 1022.57c9.29,0.75 24.52,4.71 29.82,8.37 2.76,1.91 0.75,3.76 -2.95,7.81 -1.37,1.51 -15.32,0.68 -31.1,-11.78 -0.83,-0.66 2.29,-4.56 4.23,-4.4z"/>
   <g>
    <path class="fil6 str0" d="M274.46 1025.44c-4.54,-2.68 -6.79,-12.53 5.23,-11.59 6.5,0.51 12.63,9.06 6.58,12.52 -1.89,1.08 -7.78,1.82 -11.81,-0.93z"/>
    <ellipse class="fil3 str1" cx="276.36" cy="1017.94" rx="1.96" ry="1.72"/>
   </g>
   <path class="fil7" d="M314.27 1032.42c1.65,-2.75 2.51,-2.06 6.58,0.02 5.96,3.04 22.63,11.09 26.49,13.67 4.4,2.95 5.71,3.62 -3.77,2.46 -18.61,-2.27 -28.68,-3.44 -34.29,-2.13 -3.46,0.81 -8.92,-5.58 -9.64,-9.56 -0.48,-2.65 11.74,0.37 14.63,-4.46z"/>
   <g>
    <path class="fil2" d="M229.24 1102.78c-20.96,80.27 115.14,122.88 130.44,182.3 2.06,8.01 3.87,-3.86 3.94,-5.57 0.66,-16.85 -2.88,-40.34 -8.84,-56 -17.15,-45.01 -34.69,-92.5 -66.07,-132.27 -22.66,-28.7 -47.91,-32.74 -59.47,11.54z"/>
    <path class="fil3" d="M291.64 1113.23c-8.83,6.69 -18.11,4.12 -18.76,4.26 -1.29,0.28 6.6,11.77 27.99,4.8 2.79,-0.91 -1.68,-6.27 -3.52,-9.28 -1.9,-3.11 -2.35,-2.33 -5.71,0.22z"/>
    <path class="fil3" d="M351.94 1260.62c3.56,-1.99 6.36,-5.64 6.37,-1.89 0.02,4.76 -3.48,4.12 -5.75,3.38 -1,-0.33 -1.48,-1.01 -0.62,-1.49z"/>
    <path class="fil3" d="M347.26 1253.79c3.55,-1.99 6.36,-5.64 6.37,-1.89 0.01,4.76 -3.49,4.12 -5.75,3.38 -1,-0.33 -1.48,-1.01 -0.62,-1.49z"/>
    <path class="fil3" d="M342.95 1246.4c3.56,-1.99 6.36,-5.64 6.37,-1.89 0.01,4.76 -3.49,4.12 -5.75,3.38 -1,-0.33 -1.48,-1.01 -0.62,-1.49z"/>
    <path class="fil3" d="M337.5 1239.66c3.56,-1.99 6.36,-5.64 6.37,-1.89 0.02,4.75 -3.48,4.12 -5.75,3.37 -1,-0.33 -1.47,-1.01 -0.62,-1.48z"/>
    <path class="fil3" d="M301.41 1131.82c-8.82,6.69 -18.1,4.12 -18.75,4.26 -1.29,0.28 6.6,11.77 27.99,4.79 2.78,-0.91 -1.69,-6.27 -3.52,-9.28 -1.9,-3.1 -2.35,-2.33 -5.72,0.23z"/>
    <path class="fil3" d="M311.38 1150.29c-8.82,6.69 -18.1,4.12 -18.75,4.26 -1.29,0.28 6.6,11.77 27.99,4.79 2.78,-0.9 -1.68,-6.27 -3.52,-9.27 -1.9,-3.11 -2.35,-2.33 -5.72,0.22z"/>
    <path class="fil3" d="M319.68 1167.77c-8.83,6.69 -18.11,4.12 -18.76,4.26 -1.29,0.28 6.6,11.77 27.99,4.8 2.79,-0.91 -1.68,-6.27 -3.52,-9.28 -1.9,-3.11 -2.35,-2.33 -5.71,0.22z"/>
    <path class="fil8" d="M310.16 1185.94c11.96,-3.65 14.18,8.72 22,5.24 5.42,-2.41 6.15,-9.97 6.2,-9.84 2.14,4.91 8.07,20.33 10.25,26.05 0.95,2.48 -0.94,5.14 -4.12,6.52 -5.42,2.35 -8.58,-0.58 -13.11,-2.91 -3.2,-1.65 -5.69,-1.83 -7.64,-1.06 -6.64,2.65 -2.26,10.55 -8.97,12.88 -3.56,1.24 -6.94,0.84 -12.66,-3.66 -5.65,-4.45 -24.9,-19.5 -29.74,-24.75 -2.61,-2.82 1.26,-0.44 4.76,1.78 8.58,5.42 14.91,6.88 19.35,5.19 8.49,-3.23 4.47,-12.62 13.68,-15.44z"/>
    <path class="fil3" d="M331.21 1232.54c3.56,-1.99 6.37,-5.64 6.38,-1.89 0.01,4.75 -3.49,4.12 -5.76,3.37 -1,-0.33 -1.47,-1.01 -0.62,-1.48z"/>
   </g>
   <path class="fil9" d="M342 1045.99c-0.85,1.8 -2.65,2.14 -0.36,2.35 0.73,0.06 5.69,0.77 8.08,0.77 1.13,-0.01 1.22,-0.38 0.41,-1.06 -1.47,-1.22 -4.92,-3.29 -7.28,-4.5 -1.21,-0.62 -0.47,1.61 -0.85,2.44z"/>
  </g>
  <g id="_2860510148064">
   <path class="fil10" d="M332.07 807.24c0.41,1.27 13.07,24.05 18.47,33.97 3.09,5.67 12.09,18.95 3.07,19.72 -5.42,0.46 -10.25,-10.06 -19.59,-9.83 -6.06,0.14 -8.67,8.79 -12.91,10.16 -2.92,0.95 -5.63,-1.32 -6.16,-2.79 -2.98,-8.25 -16.54,-48.8 -8.04,-50.55 0.65,-3.13 24.73,-2.03 25.16,-0.68z"/>
   <path class="fil5" d="M287.78 808.45c-11.31,-1.93 -20.96,-3.84 -20.01,-2.32 3.44,5.44 4.87,10.72 6.26,17.59 0.6,2.95 -17.54,13.58 -20.8,17.09 -20.82,22.47 -27.79,17.23 -54.03,15.13 -13.02,-1.05 -27.14,-16.19 -27.14,3.14 0,0.11 0.55,5.51 2.73,1.86 1.05,-1.74 3.07,-2.64 4.99,-2.57 18.3,0.68 30.22,8.34 60.04,2.27 11.79,-2.39 31.73,2.4 38.81,-0.04 -0.84,-2.43 -14.37,-2.45 -18.4,-2.94 -21.02,-2.58 6.63,-20.36 12.26,-22.27 7.55,-2.57 14.21,-3.74 15.82,-11.67 0.48,-2.33 0.64,-8.52 1.13,-12.14 0.45,-3.36 1.75,-2.55 -1.66,-3.13z"/>
   <path class="fil5" d="M251.93 792.65c-9.92,-0.96 -18.4,-2.01 -17.48,-0.76 3.32,4.5 4.88,8.99 6.52,14.85 0.71,2.52 -14.35,12.86 -16.95,16.11 -16.64,20.76 -23.01,16.66 -45.88,16.47 -11.34,-0.09 -24.52,-12.33 -23.32,4.42 0.01,0.1 0.82,4.73 2.49,1.44 0.8,-1.57 2.49,-2.48 4.16,-2.54 15.9,-0.55 26.7,5.34 52.16,-1.77 10.06,-2.81 27.64,0.09 33.62,-2.46 -0.88,-2.06 -12.6,-1.23 -16.12,-1.4 -18.37,-0.93 4.48,-18.05 9.23,-20.06 6.38,-2.7 12.08,-4.13 12.99,-11.1 0.26,-2.05 0.02,-7.43 0.21,-10.59 0.18,-2.93 1.36,-2.32 -1.63,-2.61z"/>
   <path class="fil11" d="M241.57 605.79c13.45,-9.65 82.47,-13.39 71.42,-33.47 -46.12,-83.8 -174.33,37.95 -158.23,120.34 15.6,79.79 103.14,111.76 167.49,140.22 6.76,2.99 5.34,4.25 8.09,-6.55 12.96,-50.86 -23.96,-181.38 -57.13,-207.67 -1.58,-1.25 -32.79,-12.05 -31.64,-12.87z"/>
   <path class="fil12" d="M264.67 522.64c-117.83,-33.3 -125.42,95.23 -16.69,94.11 24.46,-0.26 78.5,-26.33 66.81,-50.47 -8.77,-18.11 -32.44,-38.64 -50.12,-43.64z"/>
   <path class="fil13" d="M280.32 545.34c-84.67,-14.69 -84.3,70.46 -7.6,63.03 17.26,-1.67 54.25,-22.18 44.92,-37.37 -7,-11.39 -24.62,-23.46 -37.32,-25.66z"/>
   <path class="fil11" d="M290.06 549.97c-63.28,-13.79 -62.57,55.13 -5.35,50.84 12.88,-0.97 40.38,-16.74 33.34,-29.24 -5.28,-9.37 -18.49,-19.53 -27.99,-21.6z"/>
   <g>
    <path class="fil6 str0" d="M263.69 557.85c-5.45,-3.51 -7.75,-15.72 6.97,-13.99 7.97,0.94 15.1,11.73 7.5,15.7 -2.38,1.24 -9.66,1.86 -14.47,-1.71z"/>
    <ellipse class="fil3 str1" transform="matrix(1.22877 0.0478447 -0.0478447 1.22877 266.382 548.733)" rx="1.96" ry="1.72"/>
   </g>
   <path class="fil9" d="M314.27 572.08c1.51,-2.83 2.43,-2.16 6.57,-0.33 6.09,2.69 94.07,28.03 98.02,30.37 4.52,2.67 5.73,4.29 -3.63,2.66 -19.48,-3.41 -99.66,-16.83 -105.17,-15.26 -3.37,0.96 -9.23,-8.27 -10.16,-12.2 -0.62,-2.63 11.74,-0.26 14.37,-5.24z"/>
   <g>
    <path class="fil10" d="M235.43 524.38c-0.82,-0.66 -2.1,-1.64 -2.29,-1.48 -0.55,0.43 -3.83,3.19 -2.13,6.19 0.14,0.25 1.78,0.73 2.31,0.94 0.55,0.21 0.69,0.07 0.29,-0.42 -1.13,-1.4 0.34,-4.32 1.57,-4.64 0.87,-0.22 1.11,0.09 0.25,-0.59z"/>
    <path class="fil10" d="M241.15 525.18c-0.75,-0.6 -1.92,-1.5 -2.1,-1.35 -0.5,0.4 -3.5,2.91 -1.95,5.66 0.14,0.23 1.63,0.67 2.12,0.86 0.5,0.19 0.63,0.07 0.27,-0.38 -1.04,-1.28 0.31,-3.95 1.44,-4.24 0.79,-0.2 1.01,0.08 0.22,-0.55z"/>
    <path class="fil10" d="M246.15 527.32c-0.65,-0.53 -1.66,-1.3 -1.82,-1.18 -0.43,0.35 -3.03,2.53 -1.69,4.92 0.12,0.2 1.42,0.58 1.84,0.74 0.43,0.17 0.54,0.06 0.23,-0.33 -0.9,-1.11 0.27,-3.43 1.25,-3.68 0.69,-0.17 0.88,0.07 0.19,-0.47z"/>
    <path class="fil10" d="M250.01 530.81c-0.52,-0.41 -1.32,-1.03 -1.45,-0.93 -0.34,0.28 -2.41,2.01 -1.34,3.9 0.09,0.16 1.12,0.46 1.46,0.59 0.34,0.13 0.43,0.05 0.18,-0.26 -0.71,-0.88 0.21,-2.72 0.99,-2.92 0.55,-0.14 0.7,0.05 0.16,-0.38z"/>
    <path class="fil10" d="M252.84 534.35c-0.33,-0.27 -0.86,-0.67 -0.94,-0.6 -0.22,0.17 -1.57,1.3 -0.87,2.54 0.06,0.1 0.73,0.3 0.95,0.38 0.22,0.09 0.28,0.03 0.12,-0.17 -0.47,-0.57 0.13,-1.77 0.64,-1.9 0.36,-0.09 0.46,0.03 0.1,-0.25z"/>
   </g>
   <g>
    <path class="fil10" d="M209.63 598.91c-0.94,-0.49 -2.38,-1.19 -2.55,-1 -0.44,0.54 -3.12,3.89 -0.85,6.49 0.19,0.22 1.89,0.37 2.45,0.46 0.58,0.1 0.69,-0.06 0.2,-0.46 -1.38,-1.15 -0.52,-4.3 0.62,-4.86 0.81,-0.39 1.11,-0.14 0.13,-0.63z"/>
    <path class="fil10" d="M215.39 598.56c-0.86,-0.45 -2.17,-1.09 -2.32,-0.91 -0.41,0.49 -2.86,3.55 -0.79,5.94 0.18,0.2 1.73,0.33 2.25,0.42 0.53,0.09 0.63,-0.06 0.18,-0.43 -1.26,-1.05 -0.48,-3.94 0.57,-4.44 0.74,-0.36 1.01,-0.13 0.11,-0.58z"/>
    <path class="fil10" d="M220.72 599.66c-0.74,-0.39 -1.89,-0.95 -2.02,-0.79 -0.35,0.42 -2.47,3.08 -0.68,5.15 0.16,0.17 1.5,0.29 1.95,0.36 0.46,0.08 0.55,-0.05 0.16,-0.37 -1.1,-0.91 -0.42,-3.41 0.49,-3.85 0.64,-0.31 0.88,-0.11 0.1,-0.5z"/>
    <path class="fil10" d="M225.19 602.31c-0.59,-0.3 -1.5,-0.74 -1.6,-0.62 -0.28,0.34 -1.97,2.45 -0.54,4.09 0.12,0.14 1.19,0.23 1.54,0.29 0.37,0.06 0.44,-0.04 0.13,-0.29 -0.87,-0.73 -0.33,-2.72 0.39,-3.07 0.51,-0.24 0.7,-0.08 0.08,-0.4z"/>
    <path class="fil10" d="M228.67 605.22c-0.38,-0.2 -0.97,-0.49 -1.04,-0.41 -0.18,0.22 -1.28,1.6 -0.35,2.67 0.08,0.09 0.78,0.15 1.01,0.19 0.23,0.04 0.28,-0.03 0.08,-0.19 -0.57,-0.48 -0.22,-1.77 0.25,-2 0.33,-0.16 0.46,-0.05 0.05,-0.26z"/>
   </g>
   <g>
    <path class="fil10" d="M211.29 528.34c-0.86,-0.61 -2.18,-1.51 -2.37,-1.34 -0.52,0.47 -3.64,3.4 -1.78,6.3 0.16,0.25 1.83,0.63 2.37,0.81 0.55,0.18 0.68,0.03 0.26,-0.44 -1.2,-1.33 0.1,-4.33 1.31,-4.72 0.85,-0.26 1.11,0.03 0.21,-0.61z"/>
    <path class="fil10" d="M217.05 528.82c-0.78,-0.56 -2,-1.38 -2.17,-1.23 -0.48,0.43 -3.33,3.11 -1.63,5.77 0.15,0.22 1.67,0.57 2.17,0.73 0.5,0.17 0.63,0.04 0.24,-0.39 -1.1,-1.22 0.09,-3.97 1.2,-4.32 0.78,-0.24 1.01,0.02 0.19,-0.56z"/>
    <path class="fil10" d="M222.17 530.67c-0.69,-0.48 -1.74,-1.2 -1.89,-1.06 -0.41,0.37 -2.89,2.69 -1.41,4.99 0.13,0.2 1.45,0.5 1.88,0.64 0.44,0.15 0.55,0.03 0.21,-0.34 -0.96,-1.06 0.07,-3.44 1.04,-3.74 0.67,-0.22 0.88,0.02 0.17,-0.49z"/>
    <path class="fil10" d="M226.21 533.94c-0.54,-0.38 -1.37,-0.95 -1.49,-0.84 -0.33,0.29 -2.3,2.14 -1.12,3.96 0.1,0.16 1.14,0.4 1.48,0.51 0.35,0.12 0.44,0.03 0.17,-0.27 -0.76,-0.84 0.06,-2.73 0.83,-2.97 0.53,-0.17 0.7,0.01 0.13,-0.39z"/>
    <path class="fil10" d="M229.24 537.32c-0.35,-0.25 -0.89,-0.62 -0.97,-0.55 -0.21,0.19 -1.5,1.39 -0.73,2.58 0.06,0.1 0.75,0.26 0.97,0.33 0.23,0.08 0.28,0.02 0.11,-0.17 -0.5,-0.55 0.04,-1.78 0.54,-1.94 0.35,-0.11 0.45,0.01 0.08,-0.25z"/>
   </g>
   <g>
    <path class="fil10" d="M190.72 539.27c-0.94,-0.48 -2.38,-1.18 -2.54,-0.99 -0.45,0.54 -3.12,3.89 -0.86,6.49 0.19,0.22 1.89,0.36 2.45,0.46 0.58,0.1 0.69,-0.06 0.21,-0.46 -1.39,-1.15 -0.53,-4.31 0.62,-4.86 0.8,-0.39 1.1,-0.14 0.12,-0.64z"/>
    <path class="fil10" d="M196.49 538.92c-0.86,-0.44 -2.18,-1.08 -2.33,-0.9 -0.41,0.49 -2.85,3.55 -0.78,5.93 0.17,0.21 1.73,0.34 2.24,0.43 0.53,0.09 0.63,-0.06 0.19,-0.43 -1.27,-1.05 -0.49,-3.94 0.56,-4.45 0.74,-0.35 1.01,-0.12 0.12,-0.58z"/>
    <path class="fil10" d="M201.81 540.02c-0.74,-0.38 -1.88,-0.94 -2.01,-0.78 -0.36,0.42 -2.48,3.08 -0.68,5.15 0.15,0.17 1.5,0.28 1.94,0.36 0.46,0.08 0.55,-0.05 0.16,-0.37 -1.1,-0.91 -0.41,-3.41 0.5,-3.85 0.63,-0.31 0.87,-0.11 0.09,-0.51z"/>
    <path class="fil10" d="M206.28 542.68c-0.59,-0.3 -1.5,-0.74 -1.6,-0.62 -0.28,0.34 -1.96,2.45 -0.54,4.09 0.12,0.14 1.19,0.22 1.55,0.29 0.36,0.06 0.43,-0.04 0.13,-0.3 -0.88,-0.72 -0.34,-2.71 0.39,-3.06 0.5,-0.24 0.69,-0.08 0.07,-0.4z"/>
    <path class="fil10" d="M209.77 545.59c-0.39,-0.2 -0.98,-0.49 -1.05,-0.41 -0.18,0.22 -1.28,1.6 -0.35,2.67 0.08,0.09 0.78,0.15 1.01,0.18 0.23,0.05 0.28,-0.02 0.08,-0.19 -0.57,-0.47 -0.21,-1.76 0.26,-1.99 0.33,-0.16 0.45,-0.06 0.05,-0.26z"/>
   </g>
   <g>
    <path class="fil10" d="M197.15 553.22c-0.94,-0.49 -2.38,-1.19 -2.55,-0.99 -0.44,0.53 -3.11,3.88 -0.85,6.49 0.19,0.22 1.89,0.36 2.45,0.46 0.58,0.09 0.69,-0.07 0.2,-0.47 -1.38,-1.15 -0.52,-4.3 0.62,-4.86 0.81,-0.39 1.11,-0.13 0.13,-0.63z"/>
    <path class="fil10" d="M202.91 552.87c-0.85,-0.44 -2.17,-1.09 -2.32,-0.91 -0.41,0.49 -2.86,3.56 -0.79,5.94 0.18,0.2 1.73,0.33 2.25,0.42 0.53,0.09 0.63,-0.06 0.18,-0.42 -1.26,-1.06 -0.48,-3.94 0.57,-4.45 0.74,-0.35 1.01,-0.12 0.11,-0.58z"/>
    <path class="fil10" d="M208.24 553.97c-0.74,-0.38 -1.89,-0.94 -2.02,-0.79 -0.35,0.43 -2.47,3.08 -0.68,5.15 0.16,0.18 1.5,0.29 1.95,0.36 0.46,0.08 0.55,-0.04 0.16,-0.36 -1.1,-0.92 -0.42,-3.42 0.49,-3.86 0.64,-0.31 0.88,-0.11 0.1,-0.5z"/>
    <path class="fil10" d="M212.71 556.63c-0.59,-0.31 -1.5,-0.75 -1.6,-0.63 -0.28,0.34 -1.96,2.45 -0.54,4.09 0.12,0.14 1.19,0.23 1.55,0.29 0.36,0.06 0.43,-0.04 0.12,-0.29 -0.87,-0.73 -0.33,-2.71 0.39,-3.06 0.51,-0.25 0.7,-0.09 0.08,-0.4z"/>
    <path class="fil10" d="M216.19 559.53c-0.38,-0.19 -0.97,-0.48 -1.04,-0.4 -0.18,0.22 -1.28,1.59 -0.35,2.66 0.08,0.09 0.78,0.15 1.01,0.19 0.23,0.04 0.28,-0.03 0.08,-0.19 -0.57,-0.47 -0.22,-1.77 0.25,-2 0.33,-0.15 0.46,-0.05 0.05,-0.26z"/>
   </g>
   <g>
    <path class="fil10" d="M183.48 566.24c-0.94,-0.49 -2.38,-1.19 -2.54,-1 -0.45,0.54 -3.12,3.89 -0.86,6.49 0.19,0.22 1.89,0.37 2.45,0.46 0.58,0.1 0.69,-0.06 0.21,-0.46 -1.39,-1.15 -0.53,-4.3 0.62,-4.86 0.8,-0.39 1.1,-0.14 0.12,-0.63z"/>
    <path class="fil10" d="M189.25 565.89c-0.86,-0.44 -2.18,-1.09 -2.33,-0.91 -0.41,0.49 -2.85,3.55 -0.79,5.94 0.18,0.2 1.74,0.33 2.25,0.42 0.53,0.09 0.63,-0.06 0.19,-0.43 -1.27,-1.05 -0.49,-3.93 0.56,-4.44 0.74,-0.36 1.01,-0.13 0.12,-0.58z"/>
    <path class="fil10" d="M194.57 566.99c-0.74,-0.39 -1.88,-0.95 -2.01,-0.79 -0.36,0.42 -2.48,3.08 -0.68,5.15 0.15,0.17 1.5,0.29 1.94,0.36 0.46,0.08 0.55,-0.05 0.16,-0.37 -1.1,-0.91 -0.42,-3.41 0.49,-3.85 0.64,-0.31 0.88,-0.11 0.1,-0.5z"/>
    <path class="fil10" d="M199.04 569.65c-0.59,-0.31 -1.49,-0.75 -1.6,-0.63 -0.28,0.34 -1.96,2.45 -0.54,4.09 0.12,0.14 1.19,0.23 1.55,0.29 0.36,0.06 0.43,-0.04 0.13,-0.29 -0.88,-0.73 -0.34,-2.72 0.39,-3.07 0.5,-0.24 0.69,-0.08 0.07,-0.39z"/>
    <path class="fil10" d="M202.53 572.55c-0.39,-0.2 -0.98,-0.49 -1.05,-0.41 -0.18,0.22 -1.28,1.6 -0.35,2.67 0.08,0.09 0.78,0.15 1.01,0.19 0.24,0.04 0.28,-0.03 0.08,-0.19 -0.57,-0.48 -0.21,-1.77 0.26,-2 0.33,-0.16 0.45,-0.05 0.05,-0.26z"/>
   </g>
   <g>
    <path class="fil10" d="M195.85 581.11c-0.94,-0.49 -2.38,-1.19 -2.54,-0.99 -0.45,0.53 -3.12,3.88 -0.86,6.49 0.19,0.22 1.89,0.36 2.45,0.45 0.58,0.1 0.69,-0.06 0.21,-0.46 -1.39,-1.15 -0.53,-4.3 0.61,-4.86 0.81,-0.39 1.11,-0.13 0.13,-0.63z"/>
    <path class="fil10" d="M201.61 580.76c-0.85,-0.44 -2.17,-1.09 -2.32,-0.91 -0.41,0.49 -2.86,3.56 -0.79,5.94 0.18,0.2 1.74,0.33 2.25,0.42 0.53,0.09 0.63,-0.06 0.19,-0.43 -1.27,-1.05 -0.49,-3.93 0.56,-4.44 0.74,-0.36 1.01,-0.12 0.11,-0.58z"/>
    <path class="fil10" d="M206.94 581.86c-0.74,-0.38 -1.88,-0.94 -2.01,-0.79 -0.36,0.43 -2.48,3.08 -0.68,5.15 0.15,0.17 1.5,0.29 1.94,0.36 0.46,0.08 0.55,-0.05 0.16,-0.36 -1.1,-0.92 -0.42,-3.42 0.49,-3.86 0.64,-0.31 0.88,-0.11 0.1,-0.5z"/>
    <path class="fil10" d="M211.41 584.52c-0.59,-0.31 -1.5,-0.75 -1.6,-0.63 -0.28,0.34 -1.96,2.45 -0.54,4.09 0.12,0.14 1.19,0.23 1.55,0.29 0.36,0.06 0.43,-0.04 0.12,-0.29 -0.87,-0.73 -0.33,-2.71 0.4,-3.06 0.5,-0.25 0.69,-0.09 0.07,-0.4z"/>
    <path class="fil10" d="M214.9 587.42c-0.39,-0.2 -0.98,-0.48 -1.05,-0.4 -0.18,0.22 -1.28,1.59 -0.35,2.66 0.08,0.09 0.78,0.15 1.01,0.19 0.23,0.04 0.28,-0.03 0.08,-0.19 -0.57,-0.47 -0.22,-1.77 0.25,-2 0.34,-0.16 0.46,-0.05 0.06,-0.26z"/>
   </g>
   <g>
    <path class="fil10" d="M263.64 528.46c-0.82,-0.66 -2.09,-1.64 -2.29,-1.48 -0.55,0.44 -3.83,3.19 -2.13,6.19 0.14,0.26 1.78,0.73 2.31,0.94 0.55,0.21 0.69,0.08 0.29,-0.41 -1.13,-1.41 0.34,-4.33 1.57,-4.64 0.87,-0.22 1.11,0.08 0.25,-0.6z"/>
    <path class="fil10" d="M269.36 529.26c-0.75,-0.6 -1.91,-1.49 -2.1,-1.35 -0.5,0.4 -3.5,2.92 -1.95,5.67 0.14,0.23 1.64,0.67 2.12,0.85 0.5,0.2 0.63,0.07 0.27,-0.37 -1.04,-1.29 0.31,-3.96 1.44,-4.25 0.79,-0.2 1.01,0.08 0.22,-0.55z"/>
    <path class="fil10" d="M274.36 531.4c-0.65,-0.52 -1.66,-1.3 -1.82,-1.17 -0.43,0.34 -3.03,2.53 -1.69,4.91 0.12,0.2 1.42,0.58 1.84,0.74 0.43,0.17 0.54,0.06 0.23,-0.32 -0.89,-1.12 0.27,-3.43 1.25,-3.69 0.69,-0.17 0.88,0.07 0.19,-0.47z"/>
    <path class="fil10" d="M278.22 534.9c-0.52,-0.42 -1.32,-1.04 -1.45,-0.94 -0.34,0.28 -2.41,2.01 -1.34,3.9 0.09,0.16 1.12,0.46 1.46,0.59 0.34,0.14 0.43,0.05 0.18,-0.26 -0.71,-0.88 0.21,-2.72 0.99,-2.92 0.55,-0.14 0.7,0.06 0.16,-0.37z"/>
    <path class="fil10" d="M281.05 538.44c-0.33,-0.27 -0.86,-0.68 -0.94,-0.61 -0.22,0.18 -1.57,1.31 -0.87,2.54 0.06,0.11 0.73,0.3 0.95,0.39 0.22,0.08 0.28,0.03 0.12,-0.17 -0.47,-0.58 0.13,-1.78 0.64,-1.91 0.36,-0.09 0.46,0.04 0.1,-0.24z"/>
   </g>
   <path class="fil10" d="M224.79 641.46c-17.4,68.24 78.18,70.84 91.17,121.27 1.75,6.8 15.47,26.29 15.88,24.9 10.92,-36.74 -21.77,-130.38 -46.23,-159.27 -17.83,-21.04 -52.11,-21.04 -60.82,13.1z"/>
   <g>
    <path class="fil12" d="M219.71 652.7c-17.01,81.2 121,117.11 139.18,175.71 2.45,7.91 3.68,-4.03 3.66,-5.75 -0.16,-16.86 -4.83,-40.15 -11.55,-55.49 -19.33,-44.13 -39.17,-90.7 -72.46,-128.89 -24.02,-27.57 -49.45,-30.37 -58.83,14.42z"/>
    <path class="fil10" d="M236.74 695.89c3.99,-0.86 7.73,-3.54 6.65,0.05 -1.37,4.56 -4.54,2.93 -6.49,1.56 -0.86,-0.61 -1.12,-1.4 -0.16,-1.61z"/>
    <path class="fil10" d="M234.25 687.99c3.99,-0.86 7.73,-3.54 6.65,0.05 -1.37,4.56 -4.54,2.93 -6.49,1.56 -0.86,-0.61 -1.12,-1.4 -0.16,-1.61z"/>
    <path class="fil10" d="M232.28 679.67c3.99,-0.87 7.73,-3.54 6.65,0.05 -1.37,4.55 -4.54,2.92 -6.49,1.55 -0.86,-0.61 -1.11,-1.39 -0.16,-1.6z"/>
    <path class="fil10" d="M229.04 671.63c3.98,-0.87 7.73,-3.54 6.65,0.05 -1.38,4.55 -4.54,2.93 -6.49,1.55 -0.86,-0.6 -1.12,-1.39 -0.16,-1.6z"/>
    <path class="fil10" d="M225.1 662.99c3.98,-0.87 7.73,-3.54 6.64,0.05 -1.37,4.55 -4.53,2.92 -6.48,1.55 -0.86,-0.61 -1.12,-1.4 -0.16,-1.6z"/>
    <path class="fil10" d="M247.86 677.64c3.99,-0.87 7.73,-3.54 6.65,0.05 -1.37,4.55 -4.54,2.92 -6.49,1.55 -0.86,-0.61 -1.12,-1.4 -0.16,-1.6z"/>
    <path class="fil10" d="M245.37 669.74c3.99,-0.87 7.73,-3.54 6.65,0.05 -1.37,4.55 -4.54,2.92 -6.49,1.55 -0.86,-0.61 -1.12,-1.39 -0.16,-1.6z"/>
    <path class="fil10" d="M243.4 661.41c3.99,-0.86 7.73,-3.54 6.65,0.05 -1.37,4.56 -4.54,2.93 -6.49,1.56 -0.86,-0.61 -1.11,-1.4 -0.16,-1.61z"/>
    <path class="fil10" d="M240.16 653.37c3.98,-0.86 7.73,-3.53 6.65,0.05 -1.38,4.56 -4.54,2.93 -6.49,1.56 -0.86,-0.61 -1.12,-1.4 -0.16,-1.61z"/>
    <path class="fil10" d="M236.22 644.73c3.98,-0.87 7.73,-3.54 6.65,0.05 -1.38,4.55 -4.54,2.93 -6.49,1.55 -0.86,-0.6 -1.12,-1.39 -0.16,-1.6z"/>
    <path class="fil10" d="M268.95 685.66c3.99,-0.86 7.73,-3.53 6.65,0.05 -1.38,4.56 -4.54,2.93 -6.49,1.56 -0.86,-0.61 -1.12,-1.4 -0.16,-1.61z"/>
    <path class="fil10" d="M266.46 677.77c3.99,-0.87 7.73,-3.54 6.65,0.04 -1.38,4.56 -4.54,2.93 -6.49,1.56 -0.86,-0.61 -1.12,-1.4 -0.16,-1.6z"/>
    <path class="fil10" d="M264.49 669.44c3.99,-0.86 7.73,-3.54 6.65,0.05 -1.37,4.56 -4.54,2.93 -6.49,1.55 -0.86,-0.6 -1.11,-1.39 -0.16,-1.6z"/>
    <path class="fil10" d="M261.25 661.4c3.98,-0.86 7.73,-3.54 6.65,0.05 -1.38,4.56 -4.54,2.93 -6.49,1.56 -0.86,-0.61 -1.12,-1.4 -0.16,-1.61z"/>
    <path class="fil10" d="M257.31 652.76c3.98,-0.87 7.73,-3.54 6.65,0.05 -1.38,4.55 -4.54,2.93 -6.49,1.55 -0.86,-0.61 -1.12,-1.39 -0.16,-1.6z"/>
    <path class="fil10" d="M265.16 723.96c3.98,-0.86 7.73,-3.53 6.65,0.05 -1.38,4.56 -4.54,2.93 -6.49,1.56 -0.86,-0.61 -1.12,-1.4 -0.16,-1.61z"/>
    <path class="fil10" d="M262.67 716.06c3.98,-0.86 7.73,-3.53 6.65,0.05 -1.38,4.56 -4.54,2.93 -6.49,1.56 -0.86,-0.61 -1.12,-1.4 -0.16,-1.61z"/>
    <path class="fil10" d="M260.7 707.74c3.99,-0.87 7.73,-3.54 6.65,0.05 -1.37,4.56 -4.54,2.93 -6.49,1.55 -0.86,-0.6 -1.12,-1.39 -0.16,-1.6z"/>
    <path class="fil10" d="M257.46 699.7c3.98,-0.86 7.73,-3.54 6.65,0.05 -1.38,4.56 -4.54,2.93 -6.49,1.56 -0.86,-0.61 -1.12,-1.4 -0.16,-1.61z"/>
    <path class="fil10" d="M253.52 691.06c3.98,-0.87 7.73,-3.54 6.64,0.05 -1.37,4.55 -4.53,2.92 -6.48,1.55 -0.86,-0.61 -1.12,-1.39 -0.16,-1.6z"/>
    <g>
     <path class="fil10" d="M288.54 690.34c3.99,-0.86 7.73,-3.54 6.65,0.05 -1.38,4.56 -4.54,2.93 -6.49,1.55 -0.86,-0.6 -1.12,-1.39 -0.16,-1.6z"/>
     <path class="fil10" d="M286.05 682.44c3.99,-0.86 7.73,-3.54 6.65,0.05 -1.38,4.56 -4.54,2.93 -6.49,1.56 -0.86,-0.61 -1.12,-1.4 -0.16,-1.61z"/>
     <path class="fil10" d="M284.08 674.12c3.99,-0.87 7.73,-3.54 6.65,0.05 -1.37,4.55 -4.54,2.92 -6.49,1.55 -0.86,-0.61 -1.12,-1.39 -0.16,-1.6z"/>
     <path class="fil10" d="M280.84 666.08c3.98,-0.87 7.73,-3.54 6.65,0.05 -1.38,4.55 -4.54,2.93 -6.49,1.55 -0.86,-0.61 -1.12,-1.39 -0.16,-1.6z"/>
     <path class="fil10" d="M276.9 657.44c3.98,-0.87 7.73,-3.54 6.65,0.04 -1.38,4.56 -4.54,2.93 -6.49,1.56 -0.86,-0.61 -1.12,-1.4 -0.16,-1.6z"/>
    </g>
    <g>
     <path class="fil10" d="M313.54 738.03c3.98,-0.86 7.73,-3.54 6.65,0.05 -1.38,4.56 -4.54,2.93 -6.49,1.56 -0.86,-0.61 -1.12,-1.4 -0.16,-1.61z"/>
     <path class="fil10" d="M311.05 730.13c3.98,-0.86 7.73,-3.53 6.65,0.05 -1.38,4.56 -4.54,2.93 -6.49,1.56 -0.86,-0.61 -1.12,-1.4 -0.16,-1.61z"/>
     <path class="fil10" d="M309.08 721.81c3.99,-0.87 7.73,-3.54 6.65,0.05 -1.37,4.55 -4.54,2.93 -6.49,1.55 -0.86,-0.61 -1.12,-1.39 -0.16,-1.6z"/>
     <path class="fil10" d="M305.84 713.77c3.98,-0.87 7.73,-3.54 6.64,0.05 -1.37,4.55 -4.53,2.93 -6.48,1.55 -0.86,-0.6 -1.12,-1.39 -0.16,-1.6z"/>
     <path class="fil10" d="M301.9 705.13c3.98,-0.87 7.73,-3.54 6.64,0.05 -1.37,4.55 -4.53,2.92 -6.48,1.55 -0.86,-0.61 -1.12,-1.4 -0.16,-1.6z"/>
    </g>
    <path class="fil14" d="M319.8 781.58c18.27,14.78 33.87,29.9 39.09,46.83 2.44,7.91 3.68,-4.03 3.66,-5.75 -0.16,-16.86 -4.83,-40.15 -11.55,-55.49 -2.66,-6.06 -3.31,1.05 -4.73,1.21 -1.06,0.11 -4.43,-2.65 -5.47,-1.71 -0.85,0.77 -0.07,3.96 -1.25,4.63 -1,0.57 -3.84,-1.86 -5.07,-1.34 -0.91,0.39 -0.64,3.99 -1.71,4.28 -3.07,0.81 -3.3,-2.92 -6.33,-1.06 -1.5,0.93 0.04,6.24 -6.64,3.49 -2.66,-1.1 -2.93,2.54 0,4.91z"/>
    <g>
     <path class="fil10" d="M290.84 735.21c3.99,-0.87 7.73,-3.54 6.65,0.05 -1.37,4.55 -4.54,2.93 -6.49,1.55 -0.86,-0.6 -1.12,-1.39 -0.16,-1.6z"/>
     <path class="fil10" d="M288.35 727.31c3.99,-0.87 7.73,-3.54 6.65,0.05 -1.37,4.55 -4.54,2.93 -6.49,1.55 -0.86,-0.6 -1.11,-1.39 -0.16,-1.6z"/>
     <path class="fil10" d="M286.38 718.99c3.99,-0.87 7.73,-3.54 6.65,0.04 -1.37,4.56 -4.53,2.93 -6.48,1.56 -0.87,-0.61 -1.12,-1.4 -0.17,-1.6z"/>
     <path class="fil10" d="M283.14 710.95c3.99,-0.87 7.73,-3.54 6.65,0.05 -1.38,4.55 -4.54,2.92 -6.49,1.55 -0.86,-0.61 -1.12,-1.39 -0.16,-1.6z"/>
     <path class="fil10" d="M279.2 702.3c3.98,-0.86 7.73,-3.53 6.65,0.05 -1.38,4.56 -4.54,2.93 -6.49,1.56 -0.86,-0.61 -1.12,-1.4 -0.16,-1.61z"/>
    </g>
   </g>
  </g>
  <g id="_2860510160976">
   <path class="fil15" d="M1138.15 1252.26c-9.92,-0.97 -18.41,-2.01 -17.48,-0.76 3.31,4.5 4.88,8.98 6.52,14.85 0.7,2.52 -14.35,12.86 -16.96,16.1 -16.63,20.77 -23,16.66 -45.87,16.48 -11.35,-0.09 -24.53,-12.33 -23.32,4.42 0,0.09 0.82,4.73 2.48,1.44 0.81,-1.58 2.5,-2.48 4.16,-2.54 15.9,-0.55 26.71,5.34 52.17,-1.78 10.06,-2.81 27.64,0.1 33.62,-2.46 -0.88,-2.05 -12.6,-1.22 -16.12,-1.39 -18.37,-0.93 4.47,-18.05 9.23,-20.07 6.38,-2.69 12.08,-4.12 12.98,-11.09 0.27,-2.05 0.02,-7.43 0.22,-10.59 0.18,-2.94 1.36,-2.32 -1.63,-2.61z"/>
   <path class="fil16" d="M1213.35 1265.87c0.41,1.27 13.07,24.05 18.48,33.97 3.09,5.67 12.08,18.95 3.07,19.72 -5.43,0.46 -10.26,-10.06 -19.59,-9.83 -6.07,0.14 -8.68,8.8 -12.92,10.17 -2.91,0.94 -5.63,-1.33 -6.16,-2.8 -2.97,-8.25 -16.54,-48.8 -8.03,-50.55 0.64,-3.13 24.72,-2.03 25.15,-0.68z"/>
   <path class="fil15" d="M1169.07 1267.08c-11.31,-1.93 -20.97,-3.83 -20.01,-2.32 3.43,5.44 4.86,10.72 6.26,17.59 0.6,2.95 -17.55,13.58 -20.8,17.09 -20.82,22.47 -27.8,17.23 -54.04,15.13 -13.02,-1.04 -27.14,-16.19 -27.14,3.14 0,0.12 0.55,5.51 2.74,1.86 1.04,-1.74 3.06,-2.64 4.98,-2.57 18.3,0.68 30.22,8.34 60.04,2.27 11.79,-2.39 31.73,2.4 38.81,-0.04 -0.84,-2.43 -14.37,-2.45 -18.39,-2.94 -21.02,-2.58 6.63,-20.35 12.25,-22.27 7.55,-2.57 14.21,-3.74 15.83,-11.67 0.47,-2.33 0.64,-8.52 1.12,-12.14 0.45,-3.36 1.75,-2.55 -1.65,-3.13z"/>
   <path class="fil5" d="M1161.7 1066.62c13.46,-9.65 49.82,-17.78 34.8,-39.32 -59.5,-85.32 -169.4,40.22 -153.29,122.61 15.6,79.8 95.97,113.15 160.33,141.6 6.75,2.99 5.33,4.25 8.08,-6.55 12.97,-50.86 -23.96,-181.38 -57.12,-207.67 -1.59,-1.25 6.05,-9.85 7.2,-10.67z"/>
   <path class="fil17" d="M1161.7 1066.62c13.46,-9.65 49.82,-17.78 34.8,-39.32 -59.5,-85.32 -172.01,38.44 -152.88,125.51 4.8,21.84 34.04,38.33 50.79,37.53 22.19,-1.06 44.63,-29.9 43.88,-32.5 -11.72,-40.67 32.1,-67.42 16.07,-80.13 -1.58,-1.26 6.2,-10.27 7.34,-11.09z"/>
   <path class="fil16" d="M1110.4 1102.78c-20.95,80.27 115.14,122.88 130.44,182.3 2.07,8.01 3.88,-3.86 3.95,-5.57 0.66,-16.85 -2.88,-40.34 -8.84,-56 -17.15,-45.01 -34.69,-92.5 -66.08,-132.27 -22.65,-28.7 -47.91,-32.74 -59.47,11.54z"/>
   <path class="fil18" d="M1137.84 983.18c-1.12,-3.91 -12.06,-22.93 -11.34,-22.93 15.69,0 71.35,32.3 72.34,71.74 0.45,18.09 -74.74,-24.1 -74.74,-26.96 0,-3.58 18.29,-5.97 13.74,-21.85z"/>
   <path class="fil16" d="M1197.35 1032.43c-2.09,-4.14 10.59,2.83 16.11,6.64 7.69,5.32 8.65,7.59 -0.54,8.41 -14.32,1.28 -14.52,5.5 -21.76,6.03 -4.34,0.32 11.71,-10.11 6.19,-21.08z"/>
   <path class="fil5" d="M1172.58 1005.61c-72.06,-31.36 -87.99,49.73 -18.74,58.41 15.58,1.95 52.2,-9.97 46.85,-26.33 -4.01,-12.28 -17.29,-27.38 -28.11,-32.08z"/>
   <path class="fil18" d="M1171.66 1011.43c-62.63,-19.23 -70.51,45.22 -11.78,46.95 13.22,0.38 43.16,-11.58 37.56,-23.96 -4.21,-9.29 -16.38,-20.11 -25.78,-22.99z"/>
   <path class="fil6" d="M1179.48 1014.23c-46,-19.98 -53.43,37.29 -9.9,41.45 9.8,0.94 32.31,-8.43 28.46,-19.75 -2.89,-8.49 -11.66,-18.7 -18.56,-21.7z"/>
   <g>
    <path class="fil6 str2" d="M1168.07 1038.83c-4.95,-1.81 -8.98,-11.07 3.01,-12.35 6.49,-0.69 14.08,6.58 8.77,11.09 -1.66,1.42 -7.32,3.22 -11.78,1.26z"/>
    <ellipse class="fil3" transform="matrix(0.983038 -0.183403 0.183403 0.983038 1168.56 1031.11)" rx="1.96" ry="1.72"/>
   </g>
   <path class="fil19" d="M1221.63 1235.96c-3.38,2.56 -8.02,3.7 -4.46,5.27 4.52,2 5.38,-1.59 5.61,-4.05 0.11,-1.09 -0.34,-1.83 -1.15,-1.22z"/>
   <path class="fil19" d="M1238.17 1258c-3.38,2.56 -8.02,3.7 -4.46,5.27 4.52,2 5.38,-1.59 5.61,-4.05 0.11,-1.09 -0.34,-1.83 -1.15,-1.22z"/>
   <path class="fil19" d="M1228.81 1245.59c-3.38,2.55 -8.01,3.69 -4.46,5.27 4.52,2 5.38,-1.6 5.62,-4.06 0.1,-1.09 -0.35,-1.83 -1.16,-1.21z"/>
   <path class="fil19" d="M1234.87 1235.25c-3.38,2.55 -8.02,3.7 -4.46,5.27 4.52,2 5.38,-1.59 5.61,-4.06 0.11,-1.09 -0.34,-1.82 -1.15,-1.21z"/>
   <path class="fil19" d="M1238.44 1247.79c-3.38,2.55 -8.02,3.69 -4.46,5.27 4.52,2 5.38,-1.6 5.62,-4.06 0.1,-1.09 -0.35,-1.82 -1.16,-1.21z"/>
   <path class="fil19" d="M1232.1 1225.77c-3.38,2.55 -8.02,3.69 -4.46,5.27 4.52,2 5.38,-1.59 5.61,-4.06 0.11,-1.09 -0.34,-1.82 -1.15,-1.21z"/>
   <path class="fil19" d="M1219.98 1224.67c-3.38,2.55 -8.02,3.69 -4.46,5.27 4.52,2 5.37,-1.6 5.61,-4.06 0.11,-1.09 -0.34,-1.83 -1.15,-1.21z"/>
   <path class="fil19" d="M1227.14 1213.09c-3.38,2.56 -8.02,3.7 -4.46,5.27 4.52,2 5.38,-1.59 5.62,-4.05 0.1,-1.09 -0.35,-1.83 -1.16,-1.22z"/>
   <path class="fil19" d="M1209.51 1224.39c-3.38,2.56 -8.02,3.7 -4.46,5.27 4.52,2 5.37,-1.59 5.61,-4.06 0.1,-1.09 -0.34,-1.82 -1.15,-1.21z"/>
   <path class="fil19" d="M1214.47 1213.37c-3.38,2.55 -8.02,3.7 -4.46,5.27 4.52,2 5.37,-1.59 5.61,-4.06 0.1,-1.09 -0.34,-1.82 -1.15,-1.21z"/>
   <path class="fil19" d="M1141.17 1100.12c-3.38,2.56 -8.01,3.7 -4.46,5.27 4.52,2 5.38,-1.59 5.62,-4.05 0.1,-1.09 -0.34,-1.83 -1.16,-1.22z"/>
   <path class="fil19" d="M1164.46 1089.65c-3.37,2.55 -8.01,3.7 -4.45,5.27 4.51,2 5.37,-1.59 5.61,-4.06 0.1,-1.09 -0.34,-1.82 -1.16,-1.21z"/>
   <path class="fil19" d="M1127.14 1099.27c-3.38,2.56 -8.02,3.7 -4.46,5.27 4.52,2 5.38,-1.59 5.61,-4.05 0.11,-1.09 -0.34,-1.83 -1.15,-1.22z"/>
   <path class="fil19" d="M1154.41 1099.41c-3.38,2.55 -8.01,3.69 -4.46,5.27 4.52,2 5.38,-1.59 5.62,-4.06 0.1,-1.09 -0.35,-1.82 -1.16,-1.21z"/>
   <path class="fil19" d="M1156.33 1079.57c-3.38,2.55 -8.02,3.7 -4.46,5.27 4.52,2 5.38,-1.59 5.62,-4.06 0.1,-1.09 -0.35,-1.82 -1.16,-1.21z"/>
   <path class="fil19" d="M1151.64 1089.93c-3.38,2.55 -8.01,3.69 -4.46,5.27 4.52,2 5.38,-1.6 5.62,-4.06 0.1,-1.09 -0.34,-1.82 -1.16,-1.21z"/>
   <path class="fil19" d="M1139.52 1088.83c-3.38,2.55 -8.02,3.69 -4.46,5.27 4.52,2 5.38,-1.6 5.62,-4.06 0.1,-1.09 -0.35,-1.83 -1.16,-1.21z"/>
   <path class="fil19" d="M1146.68 1077.25c-3.37,2.56 -8.01,3.7 -4.45,5.27 4.51,2 5.37,-1.59 5.61,-4.06 0.1,-1.08 -0.34,-1.82 -1.16,-1.21z"/>
   <path class="fil19" d="M1129.05 1088.55c-3.38,2.55 -8.02,3.7 -4.46,5.27 4.52,2 5.38,-1.59 5.61,-4.06 0.11,-1.09 -0.34,-1.82 -1.15,-1.21z"/>
   <path class="fil19" d="M1134.01 1077.53c-3.38,2.55 -8.02,3.69 -4.46,5.27 4.52,2 5.38,-1.59 5.61,-4.06 0.11,-1.09 -0.34,-1.82 -1.15,-1.21z"/>
   <path class="fil19" d="M1165.71 1100.79c-3.38,2.55 -8.02,3.69 -4.46,5.27 4.52,2 5.38,-1.6 5.61,-4.06 0.11,-1.09 -0.34,-1.83 -1.15,-1.21z"/>
   <path class="fil19" d="M1158.68 1111.26c-3.38,2.55 -8.01,3.69 -4.46,5.27 4.52,2 5.38,-1.6 5.62,-4.06 0.1,-1.09 -0.34,-1.83 -1.16,-1.21z"/>
  </g>
  <g id="_2860510162752">
   <path class="fil6" d="M1213.91 347.22c0.4,1.27 13.06,24.05 18.47,33.97 3.09,5.67 12.53,17.96 3.67,19.78 -4.36,0.9 -38.29,2.34 -39.27,-2.52 -1.6,-8.01 -16.54,-48.8 -8.03,-50.55 0.64,-3.13 24.72,-2.03 25.16,-0.68z"/>
   <path class="fil20" d="M1178.23 347.32c-11.32,-1.93 -20.97,-3.83 -20.02,-2.32 3.44,5.44 4.87,10.72 6.26,17.6 0.6,2.94 -17.54,13.57 -20.8,17.08 -20.82,22.47 -27.79,17.23 -54.03,15.13 -13.02,-1.04 -27.14,-16.19 -27.14,3.15 0,0.11 0.55,5.5 2.73,1.86 1.05,-1.75 3.07,-2.64 4.99,-2.57 18.3,0.68 30.22,8.33 60.04,2.27 11.79,-2.4 31.73,2.39 38.81,-0.05 -0.84,-2.43 -14.37,-2.44 -18.4,-2.94 -21.02,-2.58 6.63,-20.35 12.26,-22.27 7.55,-2.57 14.21,-3.73 15.83,-11.66 0.47,-2.33 0.63,-8.53 1.12,-12.15 0.45,-3.35 1.75,-2.55 -1.65,-3.13z"/>
   <path class="fil20" d="M1142.37 331.59c-9.92,-0.97 -18.4,-2.01 -17.48,-0.76 3.31,4.5 4.88,8.98 6.52,14.85 0.71,2.52 -14.35,12.86 -16.95,16.1 -16.64,20.77 -23.01,16.66 -45.88,16.48 -11.35,-0.09 -24.53,-12.33 -23.32,4.42 0.01,0.09 0.82,4.73 2.49,1.44 0.8,-1.58 2.49,-2.48 4.16,-2.54 15.89,-0.55 26.7,5.34 52.16,-1.78 10.06,-2.81 27.64,0.1 33.62,-2.46 -0.88,-2.05 -12.6,-1.22 -16.12,-1.39 -18.37,-0.93 4.48,-18.05 9.23,-20.07 6.38,-2.69 12.08,-4.12 12.99,-11.09 0.26,-2.05 0.02,-7.43 0.21,-10.59 0.18,-2.94 1.36,-2.32 -1.63,-2.61z"/>
   <path class="fil21" d="M1163.54 152.79c3.52,-12.56 57.07,-19.33 39.38,-44.7 -59.5,-85.31 -176.56,41.61 -160.45,124 15.6,79.79 103.13,111.76 167.49,140.22 6.75,2.98 5.34,4.25 8.09,-6.55 12.96,-50.87 -18.73,-183.44 -51.89,-209.73 -0.68,-0.54 -2.85,-2.45 -2.62,-3.24z"/>
   <path class="fil6" d="M1144.55 65.54c-1.12,-3.91 -12.06,-22.92 -11.33,-22.92 15.69,0 71.34,32.29 72.33,71.73 0.46,18.09 -74.74,-24.1 -74.74,-26.96 0,-3.58 18.29,-5.97 13.74,-21.85z"/>
   <path class="fil22" d="M1177.73 83.85c-75.64,-32.91 -92.35,52.19 -19.68,61.3 16.36,2.05 54.79,-10.46 49.17,-27.63 -4.21,-12.89 -18.14,-28.73 -29.49,-33.67z"/>
   <path class="fil6" d="M1184.48 85.68c-52.62,-21.28 -64.24,33.75 -13.69,39.64 11.38,1.32 38.11,-6.76 34.21,-17.87 -2.93,-8.33 -12.63,-18.57 -20.52,-21.77z"/>
   <path class="fil13" d="M1186.74 96.69c-52.62,-21.28 -64.25,33.74 -13.69,39.64 11.38,1.32 38.11,-6.77 34.21,-17.87 -2.94,-8.33 -12.63,-18.58 -20.52,-21.77z"/>
   <g>
    <path class="fil6 str0" d="M1170.26 115.19c-4.54,-2.68 -6.79,-12.53 5.22,-11.58 6.51,0.5 12.64,9.05 6.59,12.51 -1.89,1.08 -7.79,1.82 -11.81,-0.93z"/>
    <ellipse class="fil3 str3" cx="1178.96" cy="109.63" rx="1.96" ry="1.72"/>
   </g>
   <path class="fil9" d="M1203.84 113.02c-2.09,-4.15 9.28,1.04 14.8,4.85 7.69,5.31 8.66,7.59 -0.53,8.41 -14.32,1.28 -14.53,5.49 -21.76,6.03 -4.35,0.32 13.02,-8.32 7.49,-19.29z"/>
   <ellipse class="fil6 str4" transform="matrix(0.860161 -0.510022 0.510022 0.860161 1188.41 125.594)" rx="15.43" ry="5.24"/>
   <path class="fil6" d="M1134.01 184.73c-25.13,81.57 104.67,134.16 116.02,196.48 1.53,8.41 3.99,-3.73 4.16,-5.49 1.64,-17.36 -0.4,-41.85 -5.27,-58.39 -14,-47.58 -28.24,-97.72 -56.4,-140.77 -20.32,-31.08 -44.64,-36.84 -58.51,8.17z"/>
   <path class="fil13" d="M1187.03 268.87c7.62,2.4 15.26,3.44 25.24,-0.33 9.98,-3.76 16.55,-15.56 16.59,-15.44 1.98,5.23 6.99,20.31 8.76,26.35 -14.39,-8.24 -32.92,1.8 -30.4,10.74 -5.64,-6.01 -18.27,-19.43 -20.19,-21.32z"/>
   <path class="fil23" d="M1182.11 263.75c-0.99,-0.07 -19.53,9.47 -18.97,10.12 28.96,33.37 64.67,59.71 70.3,90.61 1.53,8.4 4.23,-3.74 4.16,-5.5 -1.81,-44.67 -31.03,-69.31 -55.49,-95.23z"/>
   <path class="fil10" d="M1186.92 268.69c-22.26,-27.72 -21.32,-33.91 -30.38,-61.2 -11.37,-34.25 -6.14,-68.26 -22.53,-23.89 -12.57,34.05 7.12,68.56 34.09,95.73 5.96,6.01 12.38,3.89 15.53,0.68 4.01,-4.09 3.87,-10.6 3.29,-11.32z"/>
   <path class="fil24" d="M1214.25 216.84c-3.82,-11.05 -4.64,-13.23 -16.05,-32.73 -18.7,-31.97 -46.41,-50.26 -62.79,-5.88 -12.57,34.04 -2.05,48.15 3.6,61.95 6.94,16.92 76.28,-22.05 75.24,-23.34z"/>
   <path class="fil6" d="M1145.59 248.4c4.12,-0.53 8.44,-2.9 6.53,0.62 -2.43,4.46 -5.16,2.55 -6.75,1.01 -0.7,-0.69 -0.77,-1.5 0.22,-1.63z"/>
   <path class="fil6" d="M1148.63 254.18c3.86,-0.79 7.73,-3.34 6.25,0.13 -1.88,4.4 -4.65,2.78 -6.31,1.43 -0.73,-0.6 -0.87,-1.37 0.06,-1.56z"/>
   <path class="fil6" d="M1152.21 259.02c3.86,-0.79 7.73,-3.34 6.25,0.13 -1.88,4.4 -4.65,2.78 -6.31,1.43 -0.73,-0.6 -0.87,-1.37 0.06,-1.56z"/>
   <path class="fil6" d="M1155.79 263.68c3.86,-0.79 7.73,-3.34 6.25,0.13 -1.88,4.4 -4.65,2.78 -6.31,1.43 -0.73,-0.6 -0.87,-1.37 0.06,-1.56z"/>
   <path class="fil6" d="M1159.49 268.31c3.86,-0.79 7.73,-3.34 6.25,0.12 -1.88,4.41 -4.65,2.79 -6.31,1.44 -0.73,-0.6 -0.87,-1.37 0.06,-1.56z"/>
   <path class="fil6" d="M1163.44 272.76c3.86,-0.8 7.73,-3.34 6.25,0.12 -1.88,4.41 -4.65,2.79 -6.31,1.43 -0.73,-0.6 -0.87,-1.36 0.06,-1.55z"/>
   <path class="fil6" d="M1167.51 277.03c3.87,-0.8 7.74,-3.34 6.26,0.12 -1.88,4.41 -4.65,2.79 -6.31,1.43 -0.73,-0.6 -0.87,-1.36 0.05,-1.55z"/>
   <path class="fil6" d="M1154.14 246.33c3.93,-0.47 8.07,-2.69 6.21,0.64 -2.36,4.23 -4.93,2.39 -6.43,0.91 -0.67,-0.66 -0.72,-1.43 0.22,-1.55z"/>
   <path class="fil6" d="M1156.95 251.76c3.86,-0.79 7.73,-3.34 6.25,0.13 -1.88,4.4 -4.65,2.79 -6.31,1.43 -0.73,-0.6 -0.87,-1.37 0.06,-1.56z"/>
   <path class="fil6" d="M1160.53 256.6c3.86,-0.79 7.73,-3.34 6.25,0.13 -1.88,4.4 -4.65,2.78 -6.31,1.43 -0.73,-0.6 -0.87,-1.37 0.06,-1.56z"/>
   <path class="fil6" d="M1164.1 261.26c3.87,-0.79 7.74,-3.34 6.26,0.13 -1.88,4.4 -4.65,2.79 -6.31,1.43 -0.73,-0.6 -0.87,-1.37 0.05,-1.56z"/>
   <path class="fil6" d="M1167.8 265.89c3.87,-0.79 7.74,-3.34 6.26,0.13 -1.88,4.4 -4.65,2.78 -6.31,1.43 -0.73,-0.6 -0.87,-1.37 0.05,-1.56z"/>
   <path class="fil6" d="M1171.76 270.34c3.86,-0.8 7.73,-3.34 6.25,0.12 -1.88,4.41 -4.65,2.79 -6.31,1.43 -0.73,-0.6 -0.87,-1.36 0.06,-1.55z"/>
   <path class="fil6" d="M1175.83 274.61c3.87,-0.8 7.73,-3.34 6.25,0.12 -1.87,4.41 -4.64,2.79 -6.3,1.43 -0.73,-0.6 -0.87,-1.36 0.05,-1.55z"/>
   <path class="fil6" d="M1162.12 244.36c3.86,-0.79 7.73,-3.34 6.25,0.13 -1.88,4.4 -4.65,2.78 -6.31,1.43 -0.73,-0.6 -0.87,-1.37 0.06,-1.56z"/>
   <path class="fil6" d="M1165.36 249.63c3.86,-0.8 7.73,-3.34 6.25,0.12 -1.88,4.41 -4.65,2.79 -6.31,1.43 -0.73,-0.6 -0.87,-1.36 0.06,-1.55z"/>
   <path class="fil6" d="M1168.94 254.47c3.86,-0.8 7.73,-3.34 6.25,0.12 -1.88,4.41 -4.65,2.79 -6.31,1.43 -0.73,-0.6 -0.87,-1.36 0.06,-1.55z"/>
   <path class="fil6" d="M1172.51 259.13c3.87,-0.8 7.74,-3.34 6.26,0.12 -1.88,4.41 -4.65,2.79 -6.31,1.43 -0.73,-0.6 -0.87,-1.36 0.05,-1.55z"/>
   <path class="fil6" d="M1176.22 263.75c3.86,-0.79 7.73,-3.34 6.25,0.13 -1.88,4.4 -4.65,2.79 -6.31,1.43 -0.73,-0.6 -0.87,-1.37 0.06,-1.56z"/>
   <path class="fil6" d="M1180.17 268.2c3.86,-0.79 7.73,-3.34 6.25,0.13 -1.88,4.4 -4.65,2.78 -6.31,1.43 -0.73,-0.6 -0.87,-1.37 0.06,-1.56z"/>
  </g>
  <g id="_2860510167552">
   <path class="fil25" d="M698.36 793.63c-9.92,-0.97 -18.41,-2.02 -17.48,-0.76 3.31,4.49 4.88,8.98 6.52,14.85 0.7,2.52 -14.36,12.85 -16.96,16.1 -16.64,20.77 -23.01,16.66 -45.87,16.48 -11.35,-0.09 -24.53,-12.33 -23.33,4.42 0.01,0.09 0.83,4.73 2.49,1.44 0.8,-1.58 2.49,-2.48 4.16,-2.54 15.9,-0.55 26.71,5.33 52.16,-1.78 10.07,-2.81 27.64,0.1 33.62,-2.46 -0.88,-2.05 -12.6,-1.22 -16.11,-1.4 -18.38,-0.92 4.47,-18.05 9.23,-20.06 6.37,-2.69 12.08,-4.12 12.98,-11.09 0.27,-2.05 0.02,-7.43 0.22,-10.59 0.18,-2.94 1.35,-2.32 -1.63,-2.61z"/>
   <path class="fil19" d="M776.69 807.24c0.4,1.27 13.06,24.05 18.47,33.97 3.09,5.67 12.08,18.95 3.07,19.72 -5.43,0.46 -10.26,-10.06 -19.59,-9.83 -6.07,0.14 -8.67,8.79 -12.92,10.16 -2.91,0.95 -5.63,-1.32 -6.16,-2.79 -2.97,-8.25 -16.54,-48.8 -8.03,-50.55 0.64,-3.13 24.72,-2.03 25.16,-0.68z"/>
   <path class="fil25" d="M732.4 808.45c-11.31,-1.93 -20.97,-3.84 -20.01,-2.32 3.43,5.44 4.86,10.72 6.26,17.59 0.6,2.95 -17.55,13.58 -20.8,17.09 -20.82,22.47 -27.8,17.23 -54.04,15.13 -13.02,-1.05 -27.14,-16.19 -27.14,3.14 0,0.11 0.55,5.51 2.74,1.86 1.05,-1.74 3.06,-2.64 4.98,-2.57 18.3,0.68 30.23,8.34 60.04,2.27 11.79,-2.39 31.73,2.4 38.81,-0.04 -0.84,-2.43 -14.37,-2.45 -18.39,-2.94 -21.02,-2.58 6.63,-20.36 12.25,-22.27 7.55,-2.57 14.21,-3.74 15.83,-11.67 0.47,-2.33 0.64,-8.52 1.12,-12.14 0.45,-3.36 1.75,-2.55 -1.65,-3.13z"/>
   <path class="fil26" d="M725.03 607.99c13.46,-9.65 49.83,-17.78 34.8,-39.32 -59.5,-85.32 -176.56,41.6 -160.45,123.99 15.6,79.8 103.13,111.76 167.49,140.22 6.75,2.99 5.34,4.25 8.09,-6.55 12.96,-50.86 -23.96,-181.38 -57.13,-207.67 -1.58,-1.25 6.05,-9.85 7.2,-10.67z"/>
   <path class="fil11" d="M725.03 607.99c13.46,-9.65 49.83,-17.78 34.8,-39.32 -59.5,-85.32 -176.56,41.6 -160.45,123.99 4.29,21.95 27.36,-32.46 45.41,-13.58 24.37,25.49 57.58,22.73 56.83,20.13 -11.73,-40.67 32.25,-67.83 16.21,-80.55 -1.58,-1.25 6.05,-9.85 7.2,-10.67z"/>
   <path class="fil19" d="M673.74 644.15c-20.96,80.27 115.14,122.88 130.44,182.29 2.06,8.02 3.87,-3.85 3.94,-5.56 0.66,-16.85 -2.88,-40.34 -8.84,-56 -17.15,-45.02 -34.69,-92.5 -66.08,-132.27 -22.65,-28.7 -47.9,-32.75 -59.46,11.54z"/>
   <path class="fil9" d="M794.87 799.83c3.7,-2.07 6.61,-5.86 6.62,-1.96 0.02,4.94 -3.62,4.28 -5.97,3.5 -1.04,-0.34 -1.53,-1.04 -0.65,-1.54z"/>
   <path class="fil9" d="M790.01 792.74c3.7,-2.07 6.61,-5.86 6.62,-1.97 0.01,4.94 -3.62,4.28 -5.97,3.51 -1.04,-0.34 -1.54,-1.05 -0.65,-1.54z"/>
   <path class="fil9" d="M785.54 785.06c3.69,-2.06 6.6,-5.85 6.62,-1.96 0.01,4.94 -3.63,4.28 -5.98,3.51 -1.04,-0.35 -1.53,-1.05 -0.64,-1.55z"/>
   <path class="fil9" d="M779.88 778.06c3.7,-2.07 6.61,-5.85 6.62,-1.96 0.01,4.94 -3.62,4.28 -5.97,3.5 -1.04,-0.34 -1.54,-1.04 -0.65,-1.54z"/>
   <path class="fil9" d="M773.35 770.67c3.7,-2.07 6.61,-5.86 6.62,-1.97 0.01,4.94 -3.62,4.28 -5.97,3.51 -1.04,-0.34 -1.54,-1.05 -0.65,-1.54z"/>
   <g>
    <path class="fil9" d="M784.35 759.79c3.96,-1.5 7.39,-4.82 6.84,-0.97 -0.71,4.89 -4.21,3.7 -6.42,2.6 -0.98,-0.5 -1.37,-1.26 -0.42,-1.63z"/>
    <path class="fil9" d="M780.57 752.07c3.96,-1.51 7.4,-4.83 6.84,-0.98 -0.71,4.89 -4.21,3.71 -6.42,2.6 -0.98,-0.49 -1.37,-1.26 -0.42,-1.62z"/>
    <path class="fil9" d="M777.27 743.83c3.95,-1.51 7.39,-4.83 6.83,-0.98 -0.71,4.89 -4.21,3.7 -6.42,2.6 -0.98,-0.49 -1.37,-1.26 -0.41,-1.62z"/>
    <path class="fil9" d="M772.69 736.07c3.96,-1.5 7.39,-4.83 6.84,-0.98 -0.71,4.9 -4.21,3.71 -6.43,2.6 -0.97,-0.49 -1.36,-1.25 -0.41,-1.62z"/>
    <path class="fil9" d="M767.31 727.81c3.96,-1.51 7.39,-4.83 6.83,-0.98 -0.71,4.89 -4.21,3.71 -6.42,2.6 -0.98,-0.49 -1.36,-1.26 -0.41,-1.62z"/>
   </g>
   <g>
    <path class="fil9" d="M752.52 751.23c3.7,-2.07 6.61,-5.86 6.62,-1.97 0.01,4.95 -3.62,4.29 -5.97,3.51 -1.04,-0.34 -1.53,-1.05 -0.65,-1.54z"/>
    <path class="fil9" d="M747.66 744.13c3.7,-2.06 6.61,-5.85 6.62,-1.96 0.01,4.94 -3.62,4.28 -5.97,3.51 -1.04,-0.35 -1.54,-1.05 -0.65,-1.55z"/>
    <path class="fil9" d="M743.19 736.46c3.69,-2.07 6.61,-5.85 6.62,-1.96 0.01,4.94 -3.63,4.28 -5.98,3.5 -1.04,-0.34 -1.53,-1.04 -0.64,-1.54z"/>
    <path class="fil9" d="M737.53 729.45c3.7,-2.06 6.61,-5.85 6.62,-1.96 0.02,4.94 -3.62,4.28 -5.97,3.51 -1.04,-0.34 -1.53,-1.05 -0.65,-1.55z"/>
    <path class="fil9" d="M731 722.06c3.7,-2.07 6.61,-5.85 6.62,-1.96 0.01,4.94 -3.62,4.28 -5.97,3.5 -1.04,-0.34 -1.54,-1.04 -0.65,-1.54z"/>
   </g>
   <path class="fil19" d="M733.33 543.18c-75.64,-32.91 -92.35,52.19 -19.68,61.3 16.36,2.05 54.79,-10.46 49.17,-27.63 -4.21,-12.89 -18.14,-28.73 -29.49,-33.67z"/>
   <path class="fil11" d="M736.72 553.22c-68.8,-21.12 -77.46,49.68 -12.94,51.58 14.52,0.42 47.41,-12.72 41.26,-26.32 -4.62,-10.21 -17.99,-22.09 -28.32,-25.26z"/>
   <g>
    <path class="fil6 str5" d="M712.65 574.99c-4.95,-1.8 -8.97,-11.07 3.01,-12.35 6.5,-0.69 14.09,6.59 8.78,11.1 -1.66,1.41 -7.32,3.21 -11.79,1.25z"/>
    <ellipse class="fil3 str6" transform="matrix(0.983038 -0.183403 0.183403 0.983038 713.149 567.275)" rx="1.96" ry="1.72"/>
   </g>
   <path class="fil9" d="M758.77 573.79c1.65,-2.76 2.51,-2.06 6.58,0.02 5.96,3.04 22.63,11.09 26.49,13.67 4.4,2.94 5.71,3.62 -3.77,2.46 -18.61,-2.28 -28.68,-3.45 -34.3,-2.13 -3.45,0.81 -8.91,-5.58 -9.63,-9.56 -0.48,-2.66 11.73,0.37 14.63,-4.46z"/>
   <g>
    <path class="fil19" d="M637.8 738.62c-3.73,2.82 -8.86,4.09 -4.93,5.83 4.99,2.2 5.94,-1.77 6.2,-4.49 0.12,-1.2 -0.38,-2.01 -1.27,-1.34z"/>
    <path class="fil19" d="M632.78 730.56c-3.73,2.81 -8.85,4.08 -4.92,5.82 4.99,2.2 5.94,-1.76 6.2,-4.49 0.11,-1.2 -0.38,-2.01 -1.28,-1.33z"/>
    <path class="fil19" d="M627.01 722.62c-3.73,2.82 -8.85,4.08 -4.92,5.82 4.99,2.21 5.94,-1.76 6.2,-4.48 0.11,-1.2 -0.38,-2.02 -1.28,-1.34z"/>
    <path class="fil19" d="M622.44 713.79c-3.73,2.82 -8.85,4.08 -4.92,5.82 4.99,2.21 5.94,-1.76 6.2,-4.48 0.11,-1.2 -0.38,-2.02 -1.28,-1.34z"/>
    <path class="fil19" d="M617.87 703.9c-3.73,2.82 -8.86,4.08 -4.93,5.82 4.99,2.21 5.94,-1.76 6.2,-4.48 0.12,-1.2 -0.38,-2.02 -1.27,-1.34z"/>
   </g>
   <g>
    <path class="fil19" d="M666.56 746.52c-3.74,2.82 -8.86,4.09 -4.93,5.83 4.99,2.2 5.94,-1.77 6.2,-4.49 0.11,-1.2 -0.38,-2.01 -1.27,-1.34z"/>
    <path class="fil19" d="M661.54 738.46c-3.73,2.81 -8.85,4.08 -4.92,5.82 4.99,2.2 5.94,-1.76 6.2,-4.49 0.11,-1.2 -0.38,-2.01 -1.28,-1.33z"/>
    <path class="fil19" d="M655.77 730.52c-3.73,2.82 -8.85,4.08 -4.92,5.82 4.99,2.21 5.93,-1.76 6.2,-4.48 0.11,-1.2 -0.38,-2.02 -1.28,-1.34z"/>
    <path class="fil19" d="M651.2 721.69c-3.73,2.82 -8.85,4.08 -4.92,5.82 4.99,2.21 5.93,-1.76 6.2,-4.48 0.11,-1.2 -0.38,-2.02 -1.28,-1.34z"/>
    <path class="fil19" d="M646.63 711.8c-3.73,2.82 -8.86,4.08 -4.93,5.82 4.99,2.21 5.94,-1.76 6.2,-4.48 0.12,-1.2 -0.38,-2.02 -1.27,-1.34z"/>
   </g>
   <g>
    <path class="fil19" d="M696.9 762.01c-3.74,2.82 -8.86,4.08 -4.93,5.82 4.99,2.21 5.94,-1.76 6.2,-4.48 0.11,-1.21 -0.38,-2.02 -1.27,-1.34z"/>
    <path class="fil19" d="M691.88 753.94c-3.73,2.82 -8.85,4.08 -4.92,5.82 4.99,2.21 5.94,-1.76 6.2,-4.48 0.11,-1.2 -0.38,-2.02 -1.28,-1.34z"/>
    <path class="fil19" d="M686.11 746.01c-3.73,2.82 -8.85,4.08 -4.92,5.82 4.99,2.21 5.93,-1.76 6.2,-4.49 0.11,-1.2 -0.38,-2.01 -1.28,-1.33z"/>
    <path class="fil19" d="M681.54 737.18c-3.73,2.82 -8.85,4.08 -4.92,5.82 4.99,2.21 5.93,-1.76 6.2,-4.49 0.11,-1.2 -0.38,-2.01 -1.28,-1.33z"/>
    <path class="fil19" d="M676.97 727.29c-3.74,2.82 -8.86,4.08 -4.93,5.82 4.99,2.21 5.94,-1.76 6.2,-4.49 0.12,-1.2 -0.38,-2.01 -1.27,-1.33z"/>
   </g>
   <g>
    <path class="fil19" d="M724.29 767.79c-3.74,2.82 -8.86,4.08 -4.93,5.82 4.99,2.21 5.94,-1.76 6.2,-4.48 0.11,-1.2 -0.38,-2.01 -1.27,-1.34z"/>
    <path class="fil19" d="M719.27 759.72c-3.73,2.82 -8.85,4.08 -4.92,5.82 4.99,2.21 5.94,-1.76 6.2,-4.48 0.11,-1.2 -0.38,-2.01 -1.28,-1.34z"/>
    <path class="fil19" d="M713.5 751.79c-3.73,2.82 -8.85,4.08 -4.92,5.82 4.99,2.21 5.93,-1.76 6.2,-4.48 0.11,-1.21 -0.38,-2.02 -1.28,-1.34z"/>
    <path class="fil19" d="M708.93 742.96c-3.73,2.82 -8.85,4.08 -4.92,5.82 4.99,2.21 5.93,-1.76 6.2,-4.48 0.11,-1.21 -0.38,-2.02 -1.28,-1.34z"/>
    <path class="fil19" d="M704.36 733.07c-3.74,2.82 -8.86,4.08 -4.93,5.82 4.99,2.21 5.94,-1.76 6.2,-4.48 0.12,-1.21 -0.38,-2.02 -1.27,-1.34z"/>
   </g>
   <g>
    <path class="fil9" d="M751.98 715.57c3.95,-1.51 7.39,-4.83 6.83,-0.98 -0.71,4.89 -4.21,3.71 -6.42,2.6 -0.98,-0.49 -1.36,-1.26 -0.41,-1.62z"/>
    <path class="fil9" d="M748.2 707.84c3.96,-1.5 7.39,-4.82 6.83,-0.97 -0.7,4.89 -4.2,3.71 -6.42,2.6 -0.98,-0.49 -1.36,-1.26 -0.41,-1.63z"/>
    <path class="fil9" d="M744.89 699.6c3.96,-1.5 7.39,-4.83 6.83,-0.98 -0.7,4.89 -4.2,3.71 -6.42,2.6 -0.97,-0.49 -1.36,-1.26 -0.41,-1.62z"/>
    <path class="fil9" d="M740.32 691.85c3.95,-1.51 7.39,-4.83 6.83,-0.98 -0.71,4.89 -4.21,3.71 -6.42,2.6 -0.98,-0.49 -1.37,-1.26 -0.41,-1.62z"/>
    <path class="fil9" d="M734.93 683.58c3.96,-1.5 7.39,-4.83 6.84,-0.97 -0.71,4.89 -4.21,3.7 -6.43,2.59 -0.97,-0.49 -1.36,-1.25 -0.41,-1.62z"/>
   </g>
  </g>
  <g id="_2860510179360">
   <path class="fil2" d="M771.58 347.22c0.41,1.27 13.06,24.05 18.47,33.97 3.09,5.67 12.53,17.96 3.67,19.78 -4.36,0.9 -38.29,2.34 -39.26,-2.52 -1.61,-8.01 -16.55,-48.8 -8.04,-50.55 0.65,-3.13 24.73,-2.03 25.16,-0.68z"/>
   <path class="fil27" d="M735.9 347.32c-11.31,-1.93 -20.97,-3.83 -20.01,-2.32 3.43,5.44 4.86,10.72 6.26,17.6 0.6,2.94 -17.55,13.57 -20.8,17.08 -20.82,22.47 -27.8,17.23 -54.04,15.13 -13.02,-1.04 -27.14,-16.19 -27.14,3.15 0,0.11 0.55,5.5 2.74,1.86 1.04,-1.75 3.06,-2.64 4.98,-2.57 18.3,0.68 30.22,8.33 60.04,2.27 11.79,-2.4 31.73,2.39 38.81,-0.05 -0.84,-2.43 -14.37,-2.44 -18.39,-2.94 -21.02,-2.58 6.63,-20.35 12.25,-22.27 7.55,-2.57 14.21,-3.73 15.83,-11.66 0.47,-2.33 0.64,-8.53 1.12,-12.15 0.45,-3.35 1.75,-2.55 -1.65,-3.13z"/>
   <path class="fil28" d="M700.05 331.59c-9.92,-0.97 -18.41,-2.01 -17.49,-0.76 3.32,4.5 4.89,8.98 6.53,14.85 0.7,2.52 -14.36,12.86 -16.96,16.1 -16.64,20.77 -23.01,16.66 -45.87,16.48 -11.35,-0.09 -24.53,-12.33 -23.33,4.42 0.01,0.09 0.83,4.73 2.49,1.44 0.8,-1.58 2.49,-2.48 4.16,-2.54 15.9,-0.55 26.71,5.34 52.16,-1.78 10.07,-2.81 27.64,0.1 33.62,-2.46 -0.88,-2.05 -12.6,-1.22 -16.12,-1.39 -18.37,-0.93 4.48,-18.05 9.24,-20.07 6.37,-2.69 12.07,-4.12 12.98,-11.09 0.26,-2.05 0.02,-7.43 0.22,-10.59 0.18,-2.94 1.35,-2.32 -1.63,-2.61z"/>
   <path class="fil26" d="M721.21 152.79c3.52,-12.56 57.08,-19.33 39.39,-44.7 -59.51,-85.31 -176.57,41.61 -160.46,124 15.6,79.79 103.14,111.76 167.49,140.22 6.76,2.98 5.34,4.25 8.09,-6.55 12.96,-50.87 -18.73,-183.44 -51.89,-209.73 -0.67,-0.54 -2.84,-2.45 -2.62,-3.24z"/>
   <path class="fil29" d="M753.43 111.4c-58.42,-82.87 -172.55,36.51 -153.43,123.58 4.8,21.84 28.2,74.41 81.93,72.94 27.84,-0.76 23.95,-50.45 23.21,-53.03 -11.7,-40.66 -10.04,-73.62 -0.19,-100.52 7.04,-19.19 54.39,-34.59 48.48,-42.97z"/>
   <path class="fil13" d="M736.5 79.85c-75.63,-32.91 -92.35,52.19 -19.67,61.31 16.35,2.04 54.78,-10.46 49.17,-27.64 -4.22,-12.88 -18.15,-28.73 -29.5,-33.67z"/>
   <path class="fil2" d="M748.53 82.1c-58.71,-40.73 -92.81,28.43 -33.3,50.02 13.39,4.85 55.5,-0.6 53.69,-15.93 -1.37,-11.5 -9.9,-26.81 -20.39,-34.09z"/>
   <path class="fil9" d="M762.45 112.73c-1.43,-4.42 9.42,2.06 13.87,7.07 6.77,7.62 7.51,9.55 -1.69,8.94 -14.35,-0.94 -10.47,-0.56 -18.32,-0.51 -4.35,0.02 9.9,-3.81 6.14,-15.5z"/>
   <path class="fil30" d="M737.94 104.82c-52.62,-20.35 -64.25,32.28 -13.69,37.92 11.38,1.26 38.11,-6.47 34.21,-17.09 -2.93,-7.97 -12.63,-17.77 -20.52,-20.83z"/>
   <path class="fil6 str0" d="M739.78 110.23c-3.95,-3.5 -4.29,-13.59 7.33,-10.38 6.29,1.74 10.68,11.3 4.08,13.54 -2.06,0.71 -7.99,0.31 -11.41,-3.16z"/>
   <ellipse class="fil3 str3" transform="matrix(0.981675 0.190563 -0.190563 0.981675 749.105 105.186)" rx="1.96" ry="1.72"/>
   <path class="fil2" d="M681.62 181.69c-25.13,81.58 104.67,134.16 116.02,196.49 1.53,8.41 3.99,-3.73 4.16,-5.5 1.64,-17.36 -0.4,-41.84 -5.27,-58.39 -14,-47.57 -28.25,-97.71 -56.4,-140.76 -20.33,-31.08 -44.64,-36.84 -58.51,8.16z"/>
   <path class="fil13" d="M705.38 264.68c-1.5,-1.78 17.47,10.21 26.94,-4.68 11.44,-17.97 -0.38,-38.06 -0.38,-38.18 -0.18,-5.93 15.2,8.45 17.17,9.97 5.2,4.01 7.35,19.9 1.08,31.76 -8.79,16.66 -33.89,11.5 -40.83,5.56 -1.03,-0.88 -3.08,-3.35 -3.98,-4.43z"/>
   <path class="fil23" d="M777.15 252.52c-2.79,-12.84 -20.19,-51.65 -31.34,-71.31 -18.84,-33.2 -46.53,-49.21 -62.79,-6.02 -9.8,26.03 -4.55,42.05 4.5,53.9 14.64,19.19 76.06,37.25 89.63,23.43z"/>
  </g>
  <g id="_2860510181088">
   <path class="fil2" d="M777.09 1263.79c0.41,1.27 13.07,24.05 18.48,33.96 3.09,5.68 12.08,18.96 3.07,19.73 -5.43,0.46 -10.26,-10.06 -19.59,-9.83 -6.07,0.14 -8.68,8.79 -12.92,10.16 -2.91,0.95 -5.63,-1.33 -6.16,-2.79 -2.97,-8.25 -16.54,-48.8 -8.03,-50.55 0.64,-3.13 24.72,-2.03 25.15,-0.68z"/>
   <path class="fil9" d="M732.81 1267.08c-11.31,-1.93 -20.97,-3.83 -20.01,-2.32 3.43,5.44 4.86,10.72 6.26,17.59 0.6,2.95 -17.55,13.58 -20.8,17.09 -20.82,22.47 -27.8,17.23 -54.04,15.13 -13.02,-1.04 -27.14,-16.19 -27.14,3.14 0,0.12 0.55,5.51 2.74,1.86 1.04,-1.74 3.06,-2.64 4.98,-2.57 18.3,0.68 30.22,8.34 60.04,2.27 11.79,-2.39 31.73,2.4 38.81,-0.04 -0.84,-2.43 -14.37,-2.45 -18.39,-2.94 -21.02,-2.58 6.63,-20.35 12.25,-22.27 7.55,-2.57 14.21,-3.74 15.83,-11.67 0.47,-2.33 0.64,-8.52 1.12,-12.14 0.45,-3.36 1.75,-2.55 -1.65,-3.13z"/>
   <path class="fil9" d="M700.81 1251.16c-9.92,-0.96 -18.41,-2.01 -17.48,-0.76 3.31,4.5 4.88,8.99 6.52,14.86 0.7,2.51 -14.36,12.85 -16.96,16.1 -16.64,20.77 -23.01,16.66 -45.87,16.47 -11.35,-0.09 -24.53,-12.33 -23.32,4.42 0,0.1 0.82,4.74 2.48,1.44 0.8,-1.57 2.49,-2.48 4.16,-2.53 15.9,-0.56 26.71,5.33 52.17,-1.78 10.06,-2.81 27.64,0.09 33.62,-2.46 -0.88,-2.05 -12.6,-1.22 -16.12,-1.4 -18.38,-0.92 4.47,-18.05 9.23,-20.06 6.38,-2.7 12.08,-4.12 12.98,-11.1 0.27,-2.04 0.02,-7.42 0.22,-10.59 0.18,-2.93 1.35,-2.32 -1.63,-2.61z"/>
   <path class="fil31" d="M728 1046.98c-9.6,-13.83 -8.86,-16.38 -19.75,-21.44 -56.56,-26.26 -121.97,54.51 -108.46,123.67 15.58,79.79 103.13,111.76 167.49,140.22 6.75,2.98 5.33,4.25 8.09,-6.55 12.96,-50.86 -23.97,-181.38 -57.13,-207.67 -14.03,-11.12 21.59,-11.19 9.76,-28.23z"/>
   <path class="fil8" d="M728.17 1063.83c13.46,-9.64 24.89,3.92 9.87,-17.62 -59.5,-85.31 -163.06,36.51 -134.7,116.96 15.43,43.76 101.48,23.69 108.86,-19.21 7.17,-41.7 36.56,-36.39 8.63,-66.49 -5.46,-5.9 6.21,-12.82 7.34,-13.64z"/>
   <path class="fil2" d="M716.07 1016.48c-84.74,-33.71 -100.22,60.92 -19.59,68.44 18.15,1.68 60.18,-13.49 53.37,-32.27 -5.11,-14.09 -21.06,-31.11 -33.78,-36.17z"/>
   <path class="fil13" d="M717.69 1026.63c-72.46,-26.21 -80.12,46.02 -12.53,52.2 15.21,1.39 49.38,-9.98 42.67,-24.37 -5.03,-10.8 -19.27,-23.89 -30.14,-27.83z"/>
   <path class="fil7" d="M718.08 1025.82c-40.35,-14.59 -60.61,1.34 -58.96,19.39 36.59,8.13 46.13,2.19 85.8,9.05 1.8,-2.75 4.77,2.52 3.3,-0.61 -5.03,-10.8 -19.27,-23.89 -30.14,-27.83z"/>
   <path class="fil2" d="M649.91 1038.53c23.51,-2.79 80.92,5.25 96.22,8.27 7.96,1.58 6.66,6.22 -0.3,11.1 -2.59,1.81 -50.77,2.7 -97.24,-7.96 -2.45,-0.57 -1.69,-11.05 1.32,-11.41z"/>
   <path class="fil6 str7" d="M708.95 1055.62c-5.16,-2.26 -8.8,-12.42 4.07,-12.95 6.97,-0.28 14.55,8 8.57,12.44 -1.87,1.39 -8.03,2.92 -12.64,0.51z"/>
   <ellipse class="fil3 str1" transform="matrix(1.06063 -0.126768 0.126768 1.06063 710.013 1047.44)" rx="1.96" ry="1.72"/>
   <path class="fil19" d="M748.45 1046.92c7.59,2.79 9.99,3.68 14.92,6.22 2.72,1.4 2.62,1.57 -0.99,2.95 -3.88,1.49 -10.94,3.63 -15.7,4.2 -2.03,0.24 -6.89,-4.09 -8.79,-8.35 -1.26,-2.83 6.45,-6.53 10.56,-5.02z"/>
   <path class="fil2" d="M651.82 1042.64c-19.92,5.89 -52.42,59.77 -49.22,102.74 0.85,11.44 5.39,29.66 1.69,19.82 -25.91,-69.08 34.12,-130.28 46.93,-140.14 3.6,-2.77 4.85,5.93 5.36,10.53 0.97,8.84 3.95,4.47 -4.76,7.05z"/>
   <path class="fil32" d="M690.89 1111.79c-17.75,68 97.55,104.09 110.51,154.43 1.74,6.79 3.28,-3.27 3.34,-4.71 0.56,-14.28 -2.44,-34.18 -7.49,-47.44 -14.53,-38.14 -29.39,-78.37 -55.98,-112.06 -19.19,-24.32 -40.58,-27.74 -50.38,9.78z"/>
   <g>
    <path class="fil2" d="M759.95 1160.18c-4.45,3.36 -10.56,4.87 -5.88,6.94 5.95,2.64 7.08,-2.1 7.4,-5.35 0.13,-1.43 -0.45,-2.4 -1.52,-1.59z"/>
    <path class="fil2" d="M735.27 1173.19c-4.45,3.36 -10.56,4.87 -5.87,6.94 5.95,2.64 7.08,-2.1 7.39,-5.34 0.14,-1.44 -0.45,-2.41 -1.52,-1.6z"/>
    <path class="fil2" d="M744.27 1171.79c-4.45,3.36 -10.56,4.87 -5.87,6.94 5.95,2.64 7.08,-2.1 7.39,-5.34 0.14,-1.44 -0.45,-2.41 -1.52,-1.6z"/>
    <path class="fil2" d="M754.32 1168.39c-4.45,3.36 -10.56,4.87 -5.88,6.94 5.95,2.63 7.08,-2.1 7.4,-5.35 0.13,-1.43 -0.45,-2.4 -1.52,-1.59z"/>
    <path class="fil2" d="M763.53 1151.36c-4.45,3.36 -10.56,4.87 -5.88,6.94 5.96,2.64 7.09,-2.1 7.4,-5.34 0.14,-1.44 -0.45,-2.41 -1.52,-1.6z"/>
   </g>
   <g>
    <path class="fil26" d="M767.39 1169.27c-4.46,3.36 -10.57,4.87 -5.88,6.94 5.95,2.64 7.08,-2.1 7.4,-5.34 0.13,-1.44 -0.45,-2.41 -1.52,-1.6z"/>
    <path class="fil26" d="M742.71 1182.28c-4.45,3.37 -10.56,4.87 -5.87,6.95 5.95,2.63 7.08,-2.1 7.39,-5.35 0.14,-1.43 -0.45,-2.4 -1.52,-1.6z"/>
    <path class="fil26" d="M751.71 1180.88c-4.45,3.36 -10.56,4.87 -5.87,6.94 5.95,2.64 7.08,-2.09 7.39,-5.34 0.14,-1.44 -0.45,-2.41 -1.52,-1.6z"/>
    <path class="fil26" d="M761.76 1177.48c-4.45,3.36 -10.57,4.87 -5.88,6.94 5.95,2.64 7.08,-2.1 7.4,-5.34 0.13,-1.44 -0.45,-2.41 -1.52,-1.6z"/>
    <path class="fil26" d="M770.97 1160.45c-4.45,3.37 -10.56,4.87 -5.88,6.95 5.96,2.63 7.09,-2.1 7.4,-5.35 0.13,-1.43 -0.45,-2.4 -1.52,-1.6z"/>
   </g>
  </g>
  <g id="_2860510183584">
   <path class="fil6" d="M321.59 333.43c3.34,10.43 34.95,64.69 29.37,66.4 -4.25,1.31 -44.73,3.22 -45.72,-1.75 -1.64,-8.17 -12.95,-55.85 -13.4,-60.87 0.66,-3.19 29.31,-5.16 29.75,-3.78z"/>
   <path class="fil19" d="M286.41 339.39c-11.31,-1.92 -20.97,-3.83 -20.01,-2.31 3.43,5.44 4.86,10.72 6.26,17.59 0.6,2.95 -17.54,13.57 -20.8,17.09 -20.82,22.47 -27.79,17.23 -54.03,15.12 -13.03,-1.04 -27.15,-16.18 -27.15,3.15 0,0.11 0.56,5.5 2.74,1.86 1.05,-1.74 3.07,-2.64 4.99,-2.57 18.29,0.68 30.22,8.33 60.04,2.27 11.78,-2.4 31.73,2.4 38.8,-0.04 -0.84,-2.43 -14.36,-2.45 -18.39,-2.94 -21.02,-2.58 6.63,-20.36 12.26,-22.27 7.54,-2.57 14.21,-3.74 15.82,-11.67 0.48,-2.33 0.64,-8.53 1.13,-12.14 0.45,-3.36 1.74,-2.56 -1.66,-3.14z"/>
   <path class="fil19" d="M250.56 323.66c-9.92,-0.96 -18.4,-2.01 -17.48,-0.76 3.31,4.5 4.88,8.99 6.52,14.85 0.7,2.52 -14.35,12.86 -16.96,16.11 -16.63,20.76 -23,16.66 -45.87,16.47 -11.35,-0.09 -24.53,-12.33 -23.32,4.42 0.01,0.1 0.82,4.73 2.48,1.44 0.81,-1.57 2.5,-2.48 4.16,-2.54 15.9,-0.55 26.71,5.34 52.17,-1.77 10.06,-2.81 27.64,0.09 33.62,-2.46 -0.88,-2.05 -12.6,-1.22 -16.12,-1.4 -18.37,-0.92 4.47,-18.05 9.23,-20.06 6.38,-2.7 12.08,-4.12 12.98,-11.1 0.27,-2.04 0.02,-7.42 0.22,-10.59 0.18,-2.93 1.36,-2.32 -1.63,-2.61z"/>
   <path class="fil13" d="M305.2 335.22c3.33,10.5 29.16,64.51 23.58,66.23 -4.25,1.32 -22.41,-0.51 -23.54,-3.01 -3.45,-7.62 -12.95,-56.16 -13.4,-61.21 0.66,-3.21 12.92,-3.39 13.36,-2.01z"/>
   <path class="fil18" d="M271.72 151.11c3.53,-12.56 57.08,-19.33 39.39,-44.69 -59.5,-85.32 -167.47,45.74 -151.36,128.12 15.6,79.8 87.43,92.76 151.78,121.21 6.75,2.98 6.45,4.52 9.19,-6.27 12.96,-50.86 -13.21,-168.84 -46.38,-195.13 -0.67,-0.53 -2.84,-2.44 -2.62,-3.24z"/>
   <path class="fil4" d="M310.84 110.27c-52.84,-89.59 -172.56,36.52 -153.43,123.58 4.79,21.84 28.19,74.41 81.92,72.94 27.84,-0.76 23.96,-50.45 23.21,-53.03 -11.7,-40.65 -7.29,-72.65 2.57,-99.55 7.03,-19.19 62.95,-14.73 45.73,-43.94z"/>
   <path class="fil13" d="M288 138.78c13.45,-9.64 25.59,-15.21 10.41,-36.64 -41.32,-58.3 -139.61,19.87 -118.71,90.24 10.22,34.44 48.99,33.06 61.6,7.65 18.81,-37.9 40.27,-37.63 29.71,-44.03 -6.87,-4.17 15.85,-16.4 16.99,-17.22z"/>
   <path class="fil6" d="M286.94 85.81c-76.49,-30.08 -93.39,47.7 -19.9,56.03 16.54,1.87 55.4,-9.56 49.73,-25.26 -4.26,-11.77 -18.36,-26.26 -29.83,-30.77z"/>
   <path class="fil18" d="M249.71 80.26c-5.15,-5.17 -5.46,-10.79 -2.17,-18.79 6.33,-15.44 5.52,-2.58 13.65,3.15 16.67,11.75 51.73,14.98 52.55,48.05 0.13,5.36 -41.3,-9.63 -64.03,-32.41z"/>
   <path class="fil5" d="M298.21 92.75c-55.15,-35.14 -81.68,8.91 -25.19,30.05 12.71,4.75 45.28,6.21 43.47,-4.66 -1.36,-8.15 -10,-20.11 -18.28,-25.39z"/>
   <path class="fil13" d="M292.95 94.87c-62.92,-20.29 -77.79,29.05 -17.1,35.44 11.11,1.43 46.09,-2.44 41.42,-15.41 -2.81,-7.79 -14.88,-16.99 -24.32,-20.03z"/>
   <g>
    <path class="fil6 str0" d="M286.93 109.19c-3.44,-2.04 -5.15,-9.51 3.97,-8.79 4.93,0.38 9.58,6.87 5,9.49 -1.44,0.82 -5.91,1.38 -8.97,-0.7z"/>
    <ellipse class="fil3 str3" cx="293.54" cy="104.97" rx="1.49" ry="1.31"/>
   </g>
   <path class="fil6" d="M242.2 183.05c-25.13,81.58 104.66,134.16 116.02,196.49 1.53,8.4 3.99,-3.74 4.16,-5.5 1.64,-17.36 -0.4,-41.85 -5.27,-58.39 -14,-47.58 -28.25,-97.72 -56.4,-140.77 -20.33,-31.07 -44.64,-36.84 -58.51,8.17z"/>
   <g>
    <path class="fil3" d="M271.28 258.57c4.12,-0.53 8.43,-2.9 6.52,0.62 -2.43,4.46 -5.15,2.55 -6.75,1.01 -0.7,-0.69 -0.77,-1.5 0.23,-1.63z"/>
    <path class="fil3" d="M274.31 264.35c3.87,-0.79 7.73,-3.34 6.25,0.13 -1.88,4.4 -4.64,2.79 -6.3,1.43 -0.73,-0.6 -0.87,-1.36 0.05,-1.56z"/>
    <path class="fil3" d="M277.89 269.19c3.86,-0.79 7.73,-3.34 6.25,0.13 -1.88,4.4 -4.64,2.79 -6.3,1.43 -0.73,-0.6 -0.88,-1.36 0.05,-1.56z"/>
    <path class="fil3" d="M281.47 273.85c3.86,-0.79 7.73,-3.34 6.25,0.13 -1.88,4.4 -4.65,2.79 -6.31,1.43 -0.73,-0.6 -0.87,-1.36 0.06,-1.56z"/>
    <path class="fil3" d="M285.17 278.48c3.86,-0.79 7.73,-3.34 6.25,0.13 -1.88,4.4 -4.65,2.78 -6.31,1.43 -0.73,-0.6 -0.87,-1.37 0.06,-1.56z"/>
    <path class="fil3" d="M289.12 282.93c3.86,-0.79 7.73,-3.34 6.25,0.12 -1.88,4.41 -4.65,2.79 -6.3,1.44 -0.74,-0.6 -0.88,-1.37 0.05,-1.56z"/>
    <path class="fil3" d="M293.2 287.2c3.86,-0.8 7.73,-3.34 6.25,0.12 -1.88,4.41 -4.65,2.79 -6.31,1.44 -0.73,-0.6 -0.87,-1.37 0.06,-1.56z"/>
   </g>
   <path class="fil19" d="M314.85 116.84c1.62,-2.76 5.14,-0.47 9.37,1.26 7.02,2.87 26.18,13.27 33.06,16.91 4.68,2.47 10.92,5.33 1.67,2.98 -29.31,-7.47 -48.23,-9.07 -46.62,-14.23 1.06,-3.37 -11.34,-5.2 -10.8,-6.8 0.54,-1.62 11.05,3.74 13.32,-0.12z"/>
   <path class="fil2" d="M308.47 358.63c-4.69,3.88 -9.33,1.9 -9.67,1.97 -0.66,0.13 2.99,7.68 14.09,4.1 1.44,-0.46 -0.66,-4.02 -1.5,-5.99 -0.87,-2.04 -1.13,-1.56 -2.92,-0.08z"/>
   <path class="fil2" d="M311.4 369.3c-4.69,3.88 -9.33,1.9 -9.67,1.97 -0.66,0.12 2.99,7.68 14.09,4.1 1.44,-0.46 -0.67,-4.02 -1.51,-5.99 -0.87,-2.04 -1.12,-1.56 -2.91,-0.08z"/>
   <path class="fil2" d="M314.88 380.15c-4.69,3.89 -9.33,1.91 -9.67,1.97 -0.66,0.13 2.99,7.68 14.08,4.11 1.45,-0.47 -0.66,-4.03 -1.5,-6 -0.87,-2.03 -1.12,-1.56 -2.91,-0.08z"/>
   <path class="fil2" d="M318.1 390.52c-4.69,3.88 -9.33,1.9 -9.67,1.97 -0.66,0.12 2.99,7.68 14.09,4.1 1.44,-0.47 -0.66,-4.02 -1.5,-5.99 -0.87,-2.04 -1.13,-1.56 -2.92,-0.08z"/>
   <path class="fil13" d="M312.85 295.73c-3.96,3.84 -8.29,2.39 -8.59,2.47 -0.59,0.16 3.25,6.72 13.01,2.7 1.27,-0.53 -0.88,-3.59 -1.78,-5.31 -0.93,-1.77 -1.13,-1.33 -2.64,0.14z"/>
   <path class="fil13" d="M320.5 304.71c-4.25,3.52 -8.45,1.72 -8.75,1.78 -0.6,0.12 2.71,6.96 12.75,3.72 1.31,-0.42 -0.6,-3.64 -1.36,-5.43 -0.78,-1.84 -1.01,-1.41 -2.64,-0.07z"/>
   <path class="fil13" d="M331.46 313.25c-4.25,3.52 -8.46,1.73 -8.76,1.79 -0.6,0.11 2.71,6.95 12.76,3.71 1.3,-0.42 -0.6,-3.64 -1.36,-5.43 -0.79,-1.84 -1.02,-1.41 -2.64,-0.07z"/>
   <path class="fil13" d="M337.18 322.55c-4.26,3.52 -8.46,1.73 -8.76,1.78 -0.6,0.12 2.71,6.96 12.75,3.72 1.31,-0.42 -0.6,-3.64 -1.36,-5.43 -0.78,-1.84 -1.01,-1.41 -2.63,-0.07z"/>
   <path class="fil13" d="M342.68 331.53c-3.61,2.98 -7.16,1.47 -7.42,1.52 -0.51,0.09 2.29,5.89 10.8,3.14 1.11,-0.35 -0.5,-3.08 -1.15,-4.59 -0.67,-1.57 -0.86,-1.2 -2.23,-0.07z"/>
   <path class="fil13" d="M353.02 338.46c-4.25,3.52 -8.45,1.73 -8.76,1.79 -0.6,0.11 2.71,6.96 12.76,3.71 1.31,-0.42 -0.6,-3.64 -1.36,-5.42 -0.79,-1.85 -1.02,-1.42 -2.64,-0.08z"/>
   <path class="fil13" d="M356.04 347.62c-3.71,3.07 -7.39,1.51 -7.65,1.56 -0.53,0.1 2.36,6.08 11.15,3.25 1.14,-0.37 -0.52,-3.19 -1.19,-4.75 -0.69,-1.61 -0.89,-1.24 -2.31,-0.06z"/>
   <path class="fil13" d="M328.36 291.3c-3.78,4.02 -8.17,2.77 -8.47,2.87 -0.58,0.19 3.57,6.56 13.13,2.08 1.24,-0.58 -1.06,-3.54 -2.04,-5.21 -1.01,-1.73 -1.18,-1.28 -2.62,0.26z"/>
   <path class="fil13" d="M334.01 301.47c-4.26,3.52 -8.46,1.73 -8.76,1.79 -0.6,0.11 2.71,6.95 12.76,3.71 1.3,-0.42 -0.6,-3.64 -1.36,-5.43 -0.79,-1.84 -1.02,-1.41 -2.64,-0.07z"/>
   <path class="fil13" d="M346.2 310.08c-4.25,3.52 -8.45,1.73 -8.76,1.79 -0.6,0.11 2.71,6.95 12.76,3.71 1.31,-0.42 -0.6,-3.64 -1.36,-5.43 -0.79,-1.84 -1.02,-1.41 -2.64,-0.07z"/>
   <path class="fil13" d="M350.88 319.38c-4.25,3.52 -8.45,1.73 -8.75,1.78 -0.6,0.12 2.7,6.96 12.75,3.72 1.31,-0.42 -0.6,-3.64 -1.36,-5.43 -0.79,-1.84 -1.02,-1.41 -2.64,-0.07z"/>
   <path class="fil13" d="M354.45 328.6c-3.68,3.04 -7.32,1.49 -7.58,1.54 -0.52,0.1 2.34,6.02 11.04,3.21 1.13,-0.36 -0.52,-3.15 -1.18,-4.69 -0.68,-1.6 -0.88,-1.23 -2.28,-0.06z"/>
   <path class="fil13" d="M342.71 288.26c-3.62,4.17 -8.05,3.09 -8.35,3.2 -0.57,0.21 3.82,6.42 13.2,1.58 1.22,-0.63 -1.19,-3.5 -2.23,-5.14 -1.08,-1.69 -1.24,-1.22 -2.62,0.36z"/>
   <g>
    <path class="fil3" d="M255.5 196.84c4.16,0.05 8.76,-1.69 6.38,1.52 -3.03,4.08 -5.47,1.81 -6.83,0.06 -0.6,-0.78 -0.55,-1.59 0.45,-1.58z"/>
    <path class="fil3" d="M257.7 202.99c3.93,-0.24 8.12,-2.22 6.17,1 -2.48,4.1 -4.99,2.11 -6.44,0.53 -0.64,-0.69 -0.68,-1.47 0.27,-1.53z"/>
    <path class="fil3" d="M260.56 208.28c3.94,-0.24 8.13,-2.22 6.18,1 -2.48,4.1 -5,2.11 -6.45,0.54 -0.64,-0.7 -0.67,-1.48 0.27,-1.54z"/>
    <path class="fil3" d="M263.45 213.4c3.94,-0.25 8.13,-2.23 6.18,1 -2.48,4.09 -5,2.11 -6.45,0.53 -0.64,-0.69 -0.67,-1.47 0.27,-1.53z"/>
    <path class="fil3" d="M266.47 218.5c3.94,-0.25 8.12,-2.23 6.17,1 -2.47,4.09 -4.99,2.11 -6.44,0.53 -0.64,-0.69 -0.68,-1.47 0.27,-1.53z"/>
    <path class="fil3" d="M269.76 223.46c3.94,-0.25 8.12,-2.23 6.17,0.99 -2.47,4.1 -4.99,2.11 -6.44,0.54 -0.64,-0.7 -0.68,-1.48 0.27,-1.53z"/>
    <path class="fil3" d="M273.2 228.25c3.93,-0.24 8.12,-2.22 6.17,1 -2.48,4.1 -4.99,2.11 -6.44,0.54 -0.64,-0.7 -0.68,-1.48 0.27,-1.54z"/>
   </g>
   <g>
    <path class="fil3" d="M246.32 212.92c4.14,0.33 8.85,-1.1 6.26,1.94 -3.3,3.87 -5.57,1.44 -6.81,-0.4 -0.55,-0.81 -0.45,-1.62 0.55,-1.54z"/>
    <path class="fil3" d="M248.1 219.2c3.94,0.02 8.25,-1.68 6.09,1.41 -2.75,3.92 -5.12,1.77 -6.46,0.1 -0.6,-0.73 -0.58,-1.51 0.37,-1.51z"/>
    <path class="fil3" d="M250.6 224.67c3.95,0.02 8.26,-1.67 6.1,1.41 -2.75,3.93 -5.13,1.77 -6.47,0.11 -0.59,-0.74 -0.57,-1.52 0.37,-1.52z"/>
    <path class="fil3" d="M253.15 229.97c3.94,0.02 8.25,-1.68 6.09,1.41 -2.75,3.92 -5.12,1.77 -6.47,0.1 -0.59,-0.73 -0.57,-1.51 0.38,-1.51z"/>
    <path class="fil3" d="M255.81 235.26c3.95,0.02 8.26,-1.68 6.1,1.41 -2.75,3.92 -5.13,1.77 -6.47,0.1 -0.59,-0.73 -0.57,-1.51 0.37,-1.51z"/>
    <path class="fil3" d="M258.77 240.43c3.94,0.01 8.25,-1.68 6.09,1.41 -2.75,3.92 -5.12,1.77 -6.47,0.1 -0.59,-0.74 -0.57,-1.52 0.38,-1.51z"/>
    <path class="fil3" d="M261.88 245.44c3.94,0.02 8.25,-1.67 6.09,1.41 -2.75,3.93 -5.12,1.77 -6.47,0.11 -0.59,-0.74 -0.57,-1.52 0.38,-1.52z"/>
   </g>
   <g>
    <path class="fil3" d="M277.9 240.55c4.14,-0.39 8.54,-2.6 6.5,0.84 -2.59,4.37 -5.24,2.37 -6.78,0.77 -0.68,-0.71 -0.71,-1.52 0.28,-1.61z"/>
    <path class="fil3" d="M280.73 246.43c3.89,-0.65 7.85,-3.06 6.24,0.35 -2.03,4.33 -4.74,2.62 -6.35,1.21 -0.71,-0.63 -0.82,-1.4 0.11,-1.56z"/>
    <path class="fil3" d="M284.13 251.39c3.89,-0.65 7.85,-3.06 6.25,0.35 -2.04,4.34 -4.75,2.62 -6.36,1.21 -0.71,-0.63 -0.82,-1.4 0.11,-1.56z"/>
    <path class="fil3" d="M287.54 256.18c3.89,-0.65 7.85,-3.06 6.25,0.35 -2.04,4.33 -4.75,2.62 -6.36,1.21 -0.71,-0.63 -0.82,-1.4 0.11,-1.56z"/>
    <path class="fil3" d="M291.07 260.94c3.89,-0.66 7.85,-3.07 6.25,0.35 -2.04,4.33 -4.75,2.61 -6.36,1.2 -0.71,-0.63 -0.82,-1.4 0.11,-1.55z"/>
    <path class="fil3" d="M294.87 265.52c3.88,-0.65 7.84,-3.06 6.24,0.35 -2.04,4.33 -4.75,2.62 -6.36,1.21 -0.71,-0.63 -0.82,-1.4 0.12,-1.56z"/>
    <path class="fil3" d="M298.79 269.94c3.88,-0.66 7.84,-3.07 6.24,0.34 -2.04,4.34 -4.74,2.62 -6.35,1.21 -0.71,-0.63 -0.83,-1.4 0.11,-1.55z"/>
   </g>
   <path class="fil13" d="M347.3 298.44c-4.25,3.52 -8.45,1.73 -8.76,1.78 -0.6,0.12 2.71,6.96 12.76,3.72 1.31,-0.42 -0.6,-3.64 -1.36,-5.43 -0.79,-1.84 -1.02,-1.41 -2.64,-0.07z"/>
   <path class="fil13" d="M358.42 356.21c-3.25,2.15 -6.07,0.57 -6.29,0.59 -0.43,0.04 1.38,5.1 8.69,3.57 0.95,-0.19 -0.15,-2.6 -0.55,-3.91 -0.41,-1.36 -0.61,-1.07 -1.85,-0.25z"/>
   <path class="fil23" d="M199.76 129.4c3.33,2.49 8.07,3.8 4.25,4.99 -4.85,1.5 -5.48,-1.76 -5.54,-3.98 -0.03,-0.98 0.49,-1.61 1.29,-1.01z"/>
   <path class="fil23" d="M214.64 138.22c3.33,2.49 8.07,3.8 4.25,4.98 -4.85,1.51 -5.48,-1.75 -5.54,-3.97 -0.03,-0.98 0.49,-1.61 1.29,-1.01z"/>
   <path class="fil23" d="M229.65 147.45c3.33,2.49 8.08,3.8 4.26,4.98 -4.85,1.51 -5.48,-1.75 -5.55,-3.97 -0.02,-0.98 0.49,-1.61 1.29,-1.01z"/>
   <path class="fil23" d="M201.27 143.18c3.33,2.49 8.08,3.8 4.26,4.98 -4.85,1.51 -5.48,-1.76 -5.55,-3.97 -0.02,-0.98 0.49,-1.61 1.29,-1.01z"/>
   <path class="fil23" d="M217.53 153.1c3.33,2.49 8.07,3.8 4.25,4.98 -4.85,1.51 -5.47,-1.76 -5.54,-3.97 -0.03,-0.98 0.49,-1.61 1.29,-1.01z"/>
   <path class="fil23" d="M204.58 157.37c3.33,2.49 8.07,3.8 4.25,4.98 -4.85,1.51 -5.47,-1.76 -5.54,-3.97 -0.03,-0.98 0.49,-1.61 1.29,-1.01z"/>
   <path class="fil23" d="M189.29 151.3c3.33,2.5 8.07,3.8 4.25,4.99 -4.85,1.51 -5.48,-1.76 -5.54,-3.97 -0.03,-0.98 0.49,-1.61 1.29,-1.02z"/>
   <path class="fil23" d="M217.53 166.32c3.33,2.49 8.07,3.8 4.25,4.99 -4.85,1.5 -5.47,-1.76 -5.54,-3.98 -0.03,-0.98 0.49,-1.61 1.29,-1.01z"/>
   <path class="fil23" d="M192.32 165.22c3.33,2.49 8.07,3.8 4.25,4.99 -4.85,1.5 -5.48,-1.76 -5.54,-3.98 -0.03,-0.98 0.49,-1.61 1.29,-1.01z"/>
   <path class="fil23" d="M207.47 172.8c3.33,2.49 8.08,3.8 4.26,4.98 -4.85,1.51 -5.48,-1.75 -5.55,-3.97 -0.02,-0.98 0.49,-1.61 1.29,-1.01z"/>
   <path class="fil23" d="M223.73 180.93c3.33,2.49 8.07,3.8 4.25,4.98 -4.85,1.51 -5.47,-1.76 -5.54,-3.97 -0.03,-0.98 0.49,-1.61 1.29,-1.01z"/>
   <path class="fil23" d="M196.73 181.89c3.33,2.49 8.07,3.8 4.25,4.99 -4.85,1.5 -5.48,-1.76 -5.54,-3.98 -0.03,-0.98 0.49,-1.61 1.29,-1.01z"/>
   <path class="fil23" d="M213.26 189.05c3.33,2.5 8.07,3.8 4.25,4.99 -4.85,1.51 -5.48,-1.76 -5.54,-3.97 -0.03,-0.98 0.49,-1.61 1.29,-1.02z"/>
   <path class="fil23" d="M201.69 197.04c3.33,2.5 8.07,3.8 4.25,4.99 -4.85,1.51 -5.48,-1.76 -5.54,-3.97 -0.03,-0.98 0.49,-1.61 1.29,-1.02z"/>
   <path class="fil23" d="M211.06 122.51c3.32,2.49 8.07,3.8 4.25,4.99 -4.85,1.5 -5.48,-1.76 -5.54,-3.98 -0.03,-0.98 0.49,-1.61 1.29,-1.01z"/>
   <path class="fil23" d="M229.79 134.63c3.33,2.5 8.07,3.8 4.26,4.99 -4.86,1.51 -5.48,-1.76 -5.55,-3.97 -0.03,-0.98 0.49,-1.61 1.29,-1.02z"/>
   <path class="fil23" d="M233.65 162.46c3.33,2.5 8.07,3.8 4.25,4.99 -4.85,1.51 -5.48,-1.76 -5.54,-3.97 -0.03,-0.98 0.49,-1.61 1.29,-1.02z"/>
   <path class="fil3" d="M274.87 189.83c3.99,-10.56 17.15,-15.76 25.77,-1.73 5.36,8.71 19.83,40.97 27.84,60.05 11.21,26.73 -0.84,26.62 -15.78,8.87 -12.38,-14.71 -42.6,-54.53 -37.83,-67.19z"/>
  </g>
  <g id="_2860510196592">
   <path class="fil2" d="M1220.19 805.16c0.4,1.27 13.06,24.05 18.47,33.96 3.09,5.68 12.08,18.96 3.07,19.72 -5.43,0.47 -10.26,-10.05 -19.59,-9.83 -6.07,0.15 -8.67,8.8 -12.92,10.17 -2.91,0.94 -5.63,-1.33 -6.15,-2.79 -2.98,-8.25 -16.55,-48.8 -8.04,-50.56 0.64,-3.12 24.72,-2.02 25.16,-0.67z"/>
   <path class="fil9" d="M1175.9 808.45c-11.31,-1.93 -20.97,-3.84 -20.01,-2.32 3.43,5.44 4.86,10.72 6.26,17.59 0.6,2.95 -17.55,13.58 -20.8,17.09 -20.82,22.47 -27.8,17.23 -54.03,15.13 -13.03,-1.05 -27.15,-16.19 -27.15,3.14 0,0.11 0.55,5.51 2.74,1.86 1.05,-1.74 3.06,-2.64 4.98,-2.57 18.3,0.68 30.23,8.34 60.04,2.27 11.79,-2.39 31.73,2.4 38.81,-0.04 -0.84,-2.43 -14.37,-2.45 -18.39,-2.94 -21.02,-2.58 6.63,-20.36 12.26,-22.27 7.54,-2.57 14.21,-3.74 15.82,-11.67 0.47,-2.33 0.64,-8.52 1.12,-12.14 0.45,-3.36 1.75,-2.55 -1.65,-3.13z"/>
   <path class="fil9" d="M1143.9 792.53c-9.92,-0.96 -18.41,-2.01 -17.48,-0.76 3.31,4.5 4.88,8.99 6.52,14.85 0.7,2.52 -14.36,12.86 -16.96,16.11 -16.63,20.76 -23,16.66 -45.87,16.47 -11.35,-0.09 -24.53,-12.33 -23.32,4.42 0,0.1 0.82,4.73 2.48,1.44 0.81,-1.57 2.5,-2.48 4.16,-2.54 15.9,-0.55 26.71,5.34 52.17,-1.77 10.06,-2.81 27.64,0.09 33.62,-2.46 -0.88,-2.05 -12.6,-1.22 -16.12,-1.4 -18.38,-0.92 4.47,-18.05 9.23,-20.06 6.38,-2.7 12.08,-4.12 12.98,-11.1 0.27,-2.04 0.02,-7.42 0.22,-10.59 0.18,-2.93 1.35,-2.32 -1.63,-2.61z"/>
   <path class="fil26" d="M1171.09 588.35c-9.6,-13.83 -8.86,-16.38 -19.75,-21.44 -56.56,-26.26 -121.97,54.51 -108.46,123.66 15.58,79.8 103.13,111.77 167.49,140.23 6.75,2.98 5.34,4.24 8.09,-6.55 12.96,-50.87 -23.97,-181.38 -57.13,-207.67 -14.02,-11.12 21.59,-11.19 9.76,-28.23z"/>
   <path class="fil8" d="M1159.69 602.45c13.45,-9.65 5.6,-8.49 1.6,-14.32 -8.46,-12.33 1.82,-20.8 -8.03,-25.24 -58.68,-26.45 -131.11,72.77 -106.82,141.65 15.42,43.76 101.48,23.69 108.85,-19.21 7.17,-41.71 36.56,-36.39 8.63,-66.49 -5.46,-5.9 -5.36,-15.58 -4.23,-16.39z"/>
   <path class="fil26" d="M1094.91 584.01c-19.92,5.89 -52.41,59.77 -49.22,102.74 0.85,11.44 5.39,29.66 1.7,19.82 -25.92,-69.08 34.11,-130.28 46.92,-140.14 3.6,-2.77 4.86,5.93 5.36,10.53 0.98,8.84 3.96,4.47 -4.76,7.05z"/>
   <path class="fil33" d="M1147.83 562.77c-84.79,-33.74 -100.28,60.95 -19.6,68.48 18.15,1.68 60.21,-13.5 53.4,-32.29 -5.11,-14.1 -21.08,-31.13 -33.8,-36.19z"/>
   <path class="fil34" d="M1104.28 556.27c3.17,-1.38 8.92,-5.02 1.99,-10.94 -4.37,-3.74 -4.74,-5.88 1.55,-4.76 20.57,3.67 73.79,19.34 74.62,52.39 0.41,16.64 -75.09,-26.22 -75.09,-28.85 0,-3.3 -10.53,-4.59 -3.07,-7.84z"/>
   <path class="fil34" d="M1152.98 559.69c-84.8,-29.65 -74.68,50.97 -18.36,58.71 15.86,1.74 52.95,-10.69 47.32,-26.99 -4.23,-12.23 -17.68,-27.78 -28.96,-31.72z"/>
   <path class="fil13" d="M1147.43 568.18c-81.33,-31.27 -67.98,44.92 -10.41,54.01 15.06,3.01 50.25,-10.47 42.9,-22.63 -5.51,-9.12 -20.96,-26.94 -32.49,-31.38z"/>
   <g>
    <path class="fil33" d="M1086.95 576.2c23.66,0.99 79.1,18.06 93.73,23.48 7.61,2.82 5.59,7.2 -2.06,10.92 -2.84,1.38 -50.58,-5.42 -94.79,-23.34 -2.33,-0.94 0.09,-11.18 3.12,-11.06z"/>
    <path class="fil6 str7" d="M1142.55 602.48c-4.73,-3.06 -6.71,-13.67 6.08,-12.14 6.93,0.82 13.1,10.22 6.49,13.65 -2.06,1.07 -8.39,1.61 -12.57,-1.51z"/>
   </g>
   <ellipse class="fil3 str1" transform="matrix(1.06125 -0.126841 0.126841 1.06125 1144.64 596.531)" rx="1.96" ry="1.72"/>
   <path class="fil7" d="M1184.4 599.25c6.84,4.32 8.95,5.71 13.24,9.23 2.36,1.94 2.23,2.08 -1.59,2.67 -4.11,0.64 -11.47,1.51 -16.25,1.07 -2.03,-0.19 -4.74,-6.15 -4.31,-7.73 0.82,-2.99 5.22,-7.57 8.91,-5.24z"/>
   <path class="fil34" d="M1138.18 656.05c-17.61,67.46 96.77,103.27 109.62,153.21 1.74,6.73 3.26,-3.24 3.32,-4.68 0.55,-14.16 -2.42,-33.9 -7.43,-47.06 -14.41,-37.83 -29.16,-77.74 -55.53,-111.16 -19.04,-24.13 -40.27,-27.53 -49.98,9.69z"/>
   <path class="fil31" d="M1139.73 649.98c-8.33,22.55 30.94,31.15 39.66,33.82 8.3,2.54 37.61,11.29 33.32,1 -7.94,-19 -51.52,-92.9 -72.98,-34.82z"/>
   <g>
    <path class="fil33" d="M1192.92 701.3c-3.74,2.82 -8.88,4.09 -4.94,5.83 5,2.22 5.95,-1.76 6.21,-4.49 0.12,-1.21 -0.37,-2.02 -1.27,-1.34z"/>
    <path class="fil33" d="M1172.64 710.84c-3.74,2.83 -8.87,4.1 -4.93,5.84 5,2.21 5.95,-1.77 6.21,-4.49 0.11,-1.21 -0.38,-2.02 -1.28,-1.35z"/>
    <path class="fil33" d="M1163.8 710.71c-3.74,2.83 -8.88,4.09 -4.94,5.83 5,2.22 5.95,-1.76 6.22,-4.49 0.11,-1.21 -0.38,-2.02 -1.28,-1.34z"/>
    <path class="fil33" d="M1181.59 710.65c-3.74,2.83 -8.87,4.09 -4.93,5.84 5,2.21 5.95,-1.77 6.21,-4.5 0.12,-1.2 -0.38,-2.02 -1.28,-1.34z"/>
    <path class="fil33" d="M1183.55 701.37c-3.74,2.82 -8.87,4.09 -4.93,5.83 5,2.22 5.95,-1.76 6.21,-4.49 0.12,-1.21 -0.38,-2.02 -1.28,-1.34z"/>
    <path class="fil33" d="M1202.01 698.75c-3.74,2.83 -8.88,4.09 -4.94,5.83 5,2.22 5.95,-1.76 6.21,-4.49 0.12,-1.21 -0.37,-2.02 -1.27,-1.34z"/>
    <path class="fil33" d="M1204.55 691.05c-3.74,2.83 -8.87,4.09 -4.93,5.83 5,2.22 5.95,-1.76 6.21,-4.49 0.12,-1.21 -0.38,-2.02 -1.28,-1.34z"/>
   </g>
   <path class="fil19" d="M1230.55 766.76c-2.84,2.14 -6.73,3.1 -3.74,4.42 3.79,1.69 4.52,-1.33 4.71,-3.41 0.09,-0.91 -0.28,-1.53 -0.97,-1.01z"/>
   <path class="fil19" d="M1244.46 785.28c-2.84,2.14 -6.74,3.1 -3.75,4.43 3.8,1.68 4.52,-1.34 4.71,-3.41 0.09,-0.92 -0.28,-1.54 -0.96,-1.02z"/>
   <path class="fil19" d="M1236.59 774.84c-2.84,2.15 -6.74,3.11 -3.75,4.43 3.8,1.68 4.52,-1.34 4.72,-3.41 0.09,-0.92 -0.29,-1.53 -0.97,-1.02z"/>
   <path class="fil19" d="M1241.68 766.16c-2.84,2.14 -6.74,3.1 -3.75,4.43 3.8,1.67 4.52,-1.35 4.72,-3.42 0.09,-0.91 -0.29,-1.53 -0.97,-1.01z"/>
   <path class="fil19" d="M1244.68 776.69c-2.84,2.15 -6.73,3.11 -3.74,4.43 3.79,1.68 4.51,-1.34 4.71,-3.41 0.09,-0.91 -0.28,-1.53 -0.97,-1.02z"/>
   <path class="fil19" d="M1239.35 758.19c-2.84,2.14 -6.73,3.1 -3.74,4.43 3.79,1.68 4.51,-1.34 4.71,-3.41 0.09,-0.92 -0.28,-1.54 -0.97,-1.02z"/>
   <path class="fil19" d="M1229.17 757.26c-2.84,2.15 -6.74,3.11 -3.75,4.43 3.8,1.68 4.52,-1.34 4.71,-3.41 0.09,-0.92 -0.28,-1.53 -0.96,-1.02z"/>
   <path class="fil19" d="M1235.19 747.53c-2.84,2.15 -6.74,3.11 -3.75,4.43 3.8,1.68 4.52,-1.34 4.72,-3.41 0.08,-0.91 -0.29,-1.53 -0.97,-1.02z"/>
   <path class="fil19" d="M1220.36 757.03c-2.83,2.15 -6.73,3.11 -3.74,4.43 3.79,1.68 4.52,-1.34 4.71,-3.41 0.09,-0.92 -0.28,-1.54 -0.97,-1.02z"/>
   <path class="fil19" d="M1224.53 747.77c-2.84,2.14 -6.73,3.1 -3.74,4.43 3.79,1.68 4.51,-1.34 4.71,-3.42 0.09,-0.91 -0.28,-1.53 -0.97,-1.01z"/>
   <g>
    <path class="fil3" d="M1201.73 710.39c-3.74,2.83 -8.87,4.09 -4.93,5.83 5,2.22 5.95,-1.76 6.21,-4.49 0.11,-1.2 -0.38,-2.02 -1.28,-1.34z"/>
    <path class="fil3" d="M1181.46 719.94c-3.74,2.82 -8.88,4.09 -4.94,5.83 5,2.22 5.95,-1.76 6.22,-4.49 0.11,-1.21 -0.38,-2.02 -1.28,-1.34z"/>
    <path class="fil3" d="M1172.61 719.8c-3.73,2.83 -8.87,4.09 -4.93,5.84 5,2.21 5.95,-1.77 6.21,-4.5 0.12,-1.2 -0.38,-2.02 -1.28,-1.34z"/>
    <path class="fil3" d="M1190.41 719.74c-3.74,2.83 -8.88,4.1 -4.94,5.84 5.01,2.21 5.96,-1.77 6.22,-4.5 0.11,-1.2 -0.38,-2.02 -1.28,-1.34z"/>
    <path class="fil3" d="M1192.37 710.46c-3.74,2.83 -8.88,4.09 -4.94,5.83 5,2.22 5.95,-1.76 6.22,-4.49 0.11,-1.21 -0.38,-2.02 -1.28,-1.34z"/>
    <path class="fil3" d="M1210.82 707.84c-3.74,2.83 -8.87,4.09 -4.93,5.84 5,2.21 5.95,-1.77 6.21,-4.5 0.11,-1.2 -0.38,-2.02 -1.28,-1.34z"/>
    <path class="fil3" d="M1213.37 700.14c-3.74,2.83 -8.88,4.09 -4.94,5.84 5,2.21 5.95,-1.77 6.22,-4.5 0.11,-1.2 -0.38,-2.02 -1.28,-1.34z"/>
   </g>
  </g>
 </g>
</svg>
