<?xml version="1.0" encoding="UTF-8"?>
<!DOCTYPE svg PUBLIC "-//W3C//DTD SVG 1.1//EN" "http://www.w3.org/Graphics/SVG/1.1/DTD/svg11.dtd">
<!-- Creator: CorelDRAW 2020 (64-Bit) -->
<svg xmlns="http://www.w3.org/2000/svg" xml:space="preserve" width="286px" height="507px" version="1.1" style="shape-rendering:geometricPrecision; text-rendering:geometricPrecision; image-rendering:optimizeQuality; fill-rule:evenodd; clip-rule:evenodd"
viewBox="0 0 319.18 565.62"
 xmlns:xlink="http://www.w3.org/1999/xlink"
 xmlns:xodm="http://www.corel.com/coreldraw/odm/2003">
 <defs>
  <style type="text/css">
   <![CDATA[
    .str0 {stroke:#943326;stroke-width:2.33;stroke-miterlimit:22.9256}
    .fil4 {fill:black}
    .fil6 {fill:gray}
    .fil1 {fill:#943326}
    .fil2 {fill:#B72915}
    .fil0 {fill:#CC6633}
    .fil3 {fill:#D63520}
    .fil5 {fill:#FFFFCC}
   ]]>
  </style>
 </defs>
 <g id="Layer_x0020_1">
  <metadata id="CorelCorpID_0Corel-Layer"/>
  <g id="_2824158565648">
   <path class="fil0" d="M152.14 457.09c-15.53,-1.51 -28.81,-3.15 -27.37,-1.19 5.19,7.04 7.64,14.06 10.21,23.24 1.1,3.94 -22.47,20.13 -26.54,25.21 -26.05,32.51 -36.02,26.08 -71.81,25.79 -17.76,-0.14 -38.4,-19.3 -36.51,6.92 0.01,0.15 1.29,7.41 3.9,2.25 1.25,-2.46 3.9,-3.88 6.51,-3.97 24.88,-0.86 41.8,8.35 81.65,-2.78 15.75,-4.4 43.27,0.15 52.63,-3.85 -1.38,-3.21 -19.73,-1.91 -25.23,-2.19 -28.77,-1.45 7,-28.25 14.44,-31.4 9.99,-4.22 18.91,-6.46 20.33,-17.37 0.41,-3.2 0.03,-11.63 0.34,-16.58 0.28,-4.59 2.12,-3.63 -2.55,-4.08z"/>
   <path class="fil1" d="M269.86 478.39c0.64,1.99 20.45,37.66 28.91,53.17 4.84,8.88 18.91,29.67 4.81,30.87 -8.5,0.73 -16.05,-15.74 -30.67,-15.38 -9.49,0.23 -13.57,13.77 -20.21,15.91 -4.57,1.48 -8.81,-2.08 -9.64,-4.37 -4.66,-12.92 -25.9,-76.39 -12.58,-79.13 1.01,-4.9 38.7,-3.18 39.38,-1.07z"/>
   <path class="fil0" d="M200.53 480.29c-17.7,-3.02 -32.82,-6 -31.32,-3.63 5.37,8.51 7.61,16.78 9.8,27.53 0.94,4.62 -27.46,21.25 -32.56,26.76 -32.59,35.17 -43.51,26.96 -84.58,23.67 -20.39,-1.63 -42.49,-25.33 -42.49,4.93 0,0.17 0.86,8.61 4.28,2.91 1.64,-2.73 4.8,-4.13 7.8,-4.03 28.65,1.07 47.32,13.05 93.99,3.56 18.45,-3.75 49.67,3.75 60.75,-0.07 -1.32,-3.8 -22.49,-3.83 -28.79,-4.6 -32.91,-4.04 10.38,-31.86 19.18,-34.86 11.81,-4.02 22.25,-5.85 24.77,-18.27 0.74,-3.64 1,-13.34 1.76,-19 0.71,-5.26 2.74,-4 -2.59,-4.9z"/>
   <path class="fil2" d="M189 166.5c21.07,-15.11 77.99,-27.83 54.48,-61.56 -93.15,-133.54 -265.17,62.97 -239.96,191.94 24.42,124.91 150.23,177.11 250.97,221.65 10.57,4.67 8.35,6.65 12.66,-10.25 20.29,-79.62 -37.51,-283.92 -89.42,-325.07 -2.48,-1.97 9.47,-15.42 11.27,-16.71z"/>
   <path class="fil3" d="M189 166.5c21.07,-15.11 77.99,-27.84 54.48,-61.56 -93.15,-133.54 -269.26,60.18 -239.31,196.47 7.51,34.2 53.29,60.01 79.5,58.76 34.73,-1.67 69.86,-46.82 68.68,-50.89 -18.34,-63.65 50.26,-105.53 25.16,-125.43 -2.48,-1.96 9.7,-16.06 11.49,-17.35z"/>
   <path class="fil1" d="M108.71 223.1c-32.8,125.65 180.23,192.35 204.18,285.36 3.23,12.54 6.06,-6.04 6.17,-8.71 1.03,-26.38 -4.5,-63.15 -13.83,-87.66 -26.85,-70.47 -54.31,-144.8 -103.44,-207.04 -35.46,-44.94 -74.99,-51.27 -93.08,18.05z"/>
   <path class="fil3" d="M151.65 35.89c-1.76,-6.13 -18.88,-35.89 -17.74,-35.89 24.56,0 111.67,50.55 113.22,112.29 0.71,28.31 -116.99,-37.72 -116.99,-42.2 0,-5.61 28.63,-9.35 21.51,-34.2z"/>
   <path class="fil1" d="M244.81 112.98c-3.27,-6.49 16.58,4.42 25.21,10.39 12.04,8.32 13.55,11.88 -0.84,13.16 -22.41,2.01 -22.74,8.61 -34.06,9.45 -6.8,0.5 18.33,-15.84 9.69,-33z"/>
   <path class="fil2" d="M206.04 70.99c-112.81,-49.09 -137.74,77.85 -29.35,91.43 24.4,3.06 81.72,-15.6 73.34,-41.21 -6.28,-19.22 -27.06,-42.85 -43.99,-50.22z"/>
   <path class="fil3" d="M204.6 80.1c-98.04,-30.09 -110.38,70.79 -18.45,73.5 20.69,0.6 67.56,-18.13 58.79,-37.51 -6.58,-14.54 -25.63,-31.47 -40.34,-35.99z"/>
   <path class="fil4" d="M216.83 84.49c-72.01,-31.27 -83.64,58.37 -15.49,64.89 15.34,1.46 50.57,-13.2 44.54,-30.92 -4.52,-13.29 -18.24,-29.27 -29.05,-33.97z"/>
   <g>
    <path class="fil4 str0" d="M198.97 122.99c-7.75,-2.82 -14.05,-17.32 4.71,-19.32 10.16,-1.09 22.05,10.3 13.73,17.36 -2.6,2.21 -11.46,5.04 -18.44,1.96z"/>
    <ellipse class="fil5" transform="matrix(1.21532 -0.226738 0.226738 1.21532 199.743 110.918)" rx="2.49" ry="2.18"/>
   </g>
   <path class="fil6" d="M282.81 431.58c-5.29,4 -12.55,5.79 -6.98,8.25 7.07,3.13 8.42,-2.5 8.79,-6.35 0.16,-1.71 -0.54,-2.86 -1.81,-1.9z"/>
   <path class="fil6" d="M308.7 466.08c-5.29,4 -12.55,5.78 -6.98,8.25 7.07,3.13 8.42,-2.49 8.79,-6.35 0.16,-1.71 -0.54,-2.86 -1.81,-1.9z"/>
   <path class="fil6" d="M294.05 446.64c-5.28,4 -12.55,5.78 -6.98,8.25 7.08,3.13 8.42,-2.49 8.79,-6.35 0.16,-1.71 -0.53,-2.86 -1.81,-1.9z"/>
   <path class="fil6" d="M303.53 430.46c-5.28,4 -12.54,5.79 -6.97,8.25 7.07,3.13 8.41,-2.49 8.78,-6.35 0.16,-1.71 -0.53,-2.86 -1.81,-1.9z"/>
   <path class="fil6" d="M309.13 450.09c-5.29,3.99 -12.55,5.78 -6.98,8.25 7.07,3.13 8.41,-2.5 8.78,-6.35 0.17,-1.71 -0.53,-2.86 -1.8,-1.9z"/>
   <path class="fil6" d="M299.2 415.62c-5.29,4 -12.55,5.79 -6.98,8.25 7.07,3.13 8.42,-2.49 8.79,-6.35 0.16,-1.71 -0.54,-2.86 -1.81,-1.9z"/>
   <path class="fil6" d="M280.22 413.9c-5.28,3.99 -12.55,5.78 -6.98,8.25 7.08,3.13 8.42,-2.5 8.79,-6.36 0.16,-1.7 -0.53,-2.85 -1.81,-1.89z"/>
   <path class="fil6" d="M291.44 395.78c-5.29,4 -12.55,5.79 -6.98,8.25 7.07,3.13 8.41,-2.49 8.78,-6.35 0.17,-1.71 -0.53,-2.86 -1.8,-1.9z"/>
   <path class="fil6" d="M263.83 413.47c-5.29,3.99 -12.55,5.78 -6.98,8.25 7.08,3.13 8.42,-2.5 8.79,-6.36 0.16,-1.7 -0.54,-2.85 -1.81,-1.89z"/>
   <path class="fil6" d="M271.6 396.21c-5.29,4 -12.55,5.79 -6.98,8.25 7.07,3.13 8.41,-2.49 8.78,-6.35 0.17,-1.71 -0.53,-2.86 -1.8,-1.9z"/>
   <path class="fil6" d="M156.87 218.94c-5.29,4 -12.55,5.79 -6.98,8.25 7.07,3.13 8.41,-2.49 8.79,-6.35 0.16,-1.71 -0.54,-2.86 -1.81,-1.9z"/>
   <path class="fil6" d="M193.33 202.55c-5.29,3.99 -12.55,5.78 -6.98,8.25 7.07,3.13 8.41,-2.5 8.78,-6.36 0.17,-1.7 -0.53,-2.85 -1.8,-1.89z"/>
   <path class="fil6" d="M134.9 217.61c-5.29,4 -12.55,5.79 -6.98,8.25 7.07,3.13 8.42,-2.49 8.79,-6.35 0.16,-1.7 -0.54,-2.86 -1.81,-1.9z"/>
   <path class="fil6" d="M177.59 217.82c-5.29,4 -12.55,5.79 -6.98,8.25 7.08,3.13 8.42,-2.49 8.79,-6.35 0.16,-1.7 -0.54,-2.86 -1.81,-1.9z"/>
   <path class="fil6" d="M180.6 186.77c-5.29,4 -12.55,5.79 -6.98,8.25 7.07,3.13 8.41,-2.49 8.78,-6.35 0.16,-1.71 -0.53,-2.86 -1.8,-1.9z"/>
   <path class="fil6" d="M173.26 202.98c-5.29,4 -12.55,5.79 -6.98,8.25 7.07,3.13 8.41,-2.49 8.79,-6.35 0.16,-1.7 -0.54,-2.86 -1.81,-1.9z"/>
   <path class="fil6" d="M154.28 201.26c-5.29,3.99 -12.55,5.78 -6.98,8.25 7.07,3.13 8.42,-2.5 8.79,-6.35 0.16,-1.71 -0.54,-2.86 -1.81,-1.9z"/>
   <path class="fil6" d="M165.5 183.14c-5.29,4 -12.55,5.79 -6.98,8.25 7.07,3.13 8.41,-2.49 8.78,-6.35 0.16,-1.71 -0.53,-2.86 -1.8,-1.9z"/>
   <path class="fil6" d="M137.89 200.83c-5.29,3.99 -12.55,5.78 -6.98,8.25 7.07,3.13 8.42,-2.5 8.79,-6.36 0.16,-1.7 -0.54,-2.85 -1.81,-1.89z"/>
   <path class="fil6" d="M145.65 183.58c-5.28,3.99 -12.54,5.78 -6.97,8.24 7.07,3.14 8.41,-2.49 8.78,-6.35 0.16,-1.7 -0.53,-2.85 -1.81,-1.89z"/>
   <path class="fil6" d="M195.28 219.98c-5.29,4 -12.55,5.79 -6.98,8.25 7.07,3.13 8.41,-2.49 8.78,-6.35 0.17,-1.71 -0.53,-2.86 -1.8,-1.9z"/>
   <path class="fil6" d="M184.28 236.37c-5.29,4 -12.55,5.79 -6.98,8.25 7.07,3.13 8.41,-2.49 8.78,-6.35 0.17,-1.71 -0.53,-2.86 -1.8,-1.9z"/>
  </g>
 </g>
</svg>
