<?xml version="1.0" encoding="UTF-8"?>
<!DOCTYPE svg PUBLIC "-//W3C//DTD SVG 1.1//EN" "http://www.w3.org/Graphics/SVG/1.1/DTD/svg11.dtd">
<!-- Creator: CorelDRAW 2020 (64-Bit) -->
<svg xmlns="http://www.w3.org/2000/svg" xml:space="preserve" width="1146px" height="1146px" version="1.1" style="shape-rendering:geometricPrecision; text-rendering:geometricPrecision; image-rendering:optimizeQuality; fill-rule:evenodd; clip-rule:evenodd"
viewBox="0 0 1150.31 1150.32"
 xmlns:xlink="http://www.w3.org/1999/xlink"
 xmlns:xodm="http://www.corel.com/coreldraw/odm/2003">
 <defs>
  <style type="text/css">
   <![CDATA[
    .str4 {stroke:black;stroke-width:1.25;stroke-miterlimit:22.9256}
    .str7 {stroke:black;stroke-width:1.25;stroke-miterlimit:22.9256}
    .str5 {stroke:#786654;stroke-width:1.25;stroke-miterlimit:22.9256}
    .str3 {stroke:black;stroke-width:3.14;stroke-miterlimit:22.9256}
    .str0 {stroke:black;stroke-width:2.09;stroke-miterlimit:22.9256}
    .str6 {stroke:black;stroke-width:2.09;stroke-miterlimit:22.9256}
    .str9 {stroke:#0F4066;stroke-width:2.09;stroke-miterlimit:22.9256}
    .str2 {stroke:#B72915;stroke-width:2.09;stroke-miterlimit:22.9256}
    .str1 {stroke:black;stroke-width:0.9;stroke-miterlimit:22.9256}
    .str8 {stroke:black;stroke-width:0.9;stroke-miterlimit:22.9256}
    .fil5 {fill:none}
    .fil3 {fill:black}
    .fil24 {fill:#045B73}
    .fil23 {fill:#20202E}
    .fil21 {fill:#362E27}
    .fil22 {fill:#362E27}
    .fil25 {fill:#42248F}
    .fil0 {fill:#43A8F0}
    .fil1 {fill:#4D4D4D}
    .fil19 {fill:#786654}
    .fil18 {fill:#786654}
    .fil6 {fill:gray}
    .fil16 {fill:#93905B}
    .fil26 {fill:#996633}
    .fil2 {fill:#999999}
    .fil34 {fill:#99CC33}
    .fil7 {fill:#B3B3B3}
    .fil12 {fill:#B72915}
    .fil29 {fill:#C25E0B}
    .fil28 {fill:#C25E0B}
    .fil14 {fill:#C77F37}
    .fil33 {fill:#CC6633}
    .fil27 {fill:#CC9933}
    .fil17 {fill:#CCC876}
    .fil4 {fill:#CCCCCC}
    .fil13 {fill:#CCFF66}
    .fil32 {fill:#E6E6E6}
    .fil30 {fill:#EDCA3D}
    .fil15 {fill:#FCBDBF}
    .fil8 {fill:#FCBDBF}
    .fil10 {fill:#FF9933}
    .fil11 {fill:#FFCC00}
    .fil20 {fill:#FFFF66}
    .fil9 {fill:white}
    .fil31 {fill:white}
   ]]>
  </style>
 </defs>
 <g id="Layer_x0020_1">
  <metadata id="CorelCorpID_0Corel-Layer"/>
  <rect class="fil0" width="1150.31" height="1150.31"/>
  <g id="_2824684336112">
   <g>
    <path class="fil1 str0" d="M229.37 81.91c-6.47,-1.86 -22.79,-0.68 -30.86,11.46 -5.99,8.99 -27.41,28.24 -35.56,37.76 -7.22,8.43 -12.18,11.37 -21.78,16.88 -8.73,5.02 -13.68,6.16 -20.59,8.69 -1.22,0.45 -7.65,2.18 -3.59,3.34 3.09,0.87 10.15,-0.96 14.64,-2.01 3.82,-0.9 5.69,-1.39 1.3,1.22 -3.9,2.33 -10.23,6.45 -4.88,5.37 0.75,-0.16 3.29,-0.67 5.61,-1.13 4.91,-0.98 6.6,-0.99 2.3,1.55 -4.6,2.72 -13.78,6.86 -10.45,7.08 6.5,0.43 18.85,-5.79 10.12,0.6 -1.8,1.32 -13.43,12.99 -2.62,6.93 5.67,-3.17 21.09,-14.52 30.23,-20.94 15.48,-10.88 10.96,-14.24 32.89,-4.19 22.89,10.48 44.61,-24.25 44.61,-41.31 0,-14.09 7.07,-25.99 -11.37,-31.3z"/>
    <g>
     <path class="fil2 str0" d="M237.59 77.04c-17.72,2.88 -18.2,35.34 3.05,37.81 5.87,0.68 10.89,-2.01 13.19,-7.38 2.53,-5.89 5.11,-9.13 5.88,-14.71 1.81,-13.05 -11.03,-17.53 -22.12,-15.72z"/>
     <path class="fil3 str0" d="M257.17 82.38c2.19,2.31 20.84,14.77 18.91,14.08 -8.04,-2.88 -18.91,1.01 -20.28,-0.07 -3.93,-3.11 -1.88,-14.14 1.37,-14.01z"/>
     <path class="fil1" d="M245.48 86.32c-1.26,0.59 -6.82,2.42 -7.57,3.3 -0.1,0.12 -3.49,1.67 -3.49,1.11 0,-1.05 -0.79,-0.9 0.31,-2.46 0.59,-0.83 0.67,-2.31 2.43,-2.88 1.56,-0.52 3.07,-2.26 5.44,-1.72 0.88,0.2 1.07,0.55 1.63,1.05 0.66,0.57 0.05,1.19 1.17,1.54 0.05,0.01 0.05,0.07 0.08,0.06z"/>
     <path class="fil4 str0" d="M244.01 83.71c4.26,4.09 1.4,12.97 -7.05,11.55 -2.33,-0.39 -6.5,-7.5 1.26,-11.17 2.02,-0.95 4.07,-2.03 5.79,-0.38z"/>
     <path class="fil5 str0" d="M245.92 86.38c-1.83,0 -8.73,4.4 -12.71,4.4"/>
     <path class="fil3 str0" d="M203.48 89.21c10.17,-12.14 13.66,9.87 13.22,19.37 -1.08,23.17 -26.19,32.09 -44.69,40.3 -2.44,1.08 -13.84,5.66 -6.18,-0.24 1.51,-1.17 16.65,-9.97 7.94,-7.02 -4.78,1.61 -14.78,8.74 -1.23,-4.15 4.93,-4.68 -4.81,1.27 -5.97,1.97 -1.35,0.82 -8.71,4.47 -2.61,-1.98 0.04,-0.04 10.24,-9.69 3.67,-5.63 -5.76,3.55 -4.53,-1.41 2.72,-7.58 11.65,-9.92 31,-32.5 33.13,-35.04z"/>
     <path class="fil5 str0" d="M215.6 153.53c0,6.65 2.05,16.5 5.77,21.42 2.22,2.94 4.87,3.56 8.78,4.19"/>
     <path class="fil5 str0" d="M221.44 175.5c-0.07,3.56 0.56,6.78 2.91,9.49"/>
     <path class="fil5 str0" d="M216.58 183.57c-0.71,-6.26 1.32,-7.74 3.92,-9.49"/>
     <path class="fil5 str0" d="M204.26 155.65c0.8,1.81 7.24,9.89 6.49,13.56 -0.37,1.84 -5.67,8.49 -6.13,8.99 -3.2,3.44 -8.14,-0.39 -7.81,-4.43"/>
     <path class="fil5 str0" d="M204.58 177.69c-2.19,-1.48 -5.02,-2.63 -4.04,-5.92"/>
     <path class="fil5 str0" d="M206.38 175.3c-1.87,0 -2.39,-2.97 -1.37,-4.55"/>
     <ellipse class="fil3" cx="238.85" cy="90.76" rx="1.67" ry="1.54"/>
    </g>
   </g>
   <g>
    <path class="fil2 str0" d="M275.48 293.59c3.41,0.56 3.04,-0.15 3.04,5.44 0,2.41 2.29,0.95 2.71,-2.5 0.61,-4.94 2.74,-7.41 -3.09,-6.21 -4.17,0.86 -7.59,-3.82 -7.59,-8.17 0,-1.51 0.53,-6.1 -0.9,-6.84 -2.81,-1.45 -6.05,-1.79 -9.04,0.11 -2.13,1.35 -0.36,15.69 14.87,18.17z"/>
    <path class="fil6 str0" d="M204.64 254.55c-0.69,7.72 -11.34,12.16 -12.57,8.37 -0.47,-1.45 -1.68,-3.61 -2.28,-6.27 -2.76,-12.28 15.41,-8.35 14.85,-2.1z"/>
    <path class="fil7 str0" d="M219.12 292.52c2.88,-1.16 4.44,-4.97 2.49,-5.67 -4.1,-1.49 -4.86,3.41 -6.15,0.79 -0.85,-1.72 -1.39,-5.39 -1.4,-5.53 -0.21,-1.68 -0.09,-1.66 -2.11,-1.66 -2.11,0 -3.65,-0.34 -3.61,2.11 0,2.23 5.15,12.24 10.78,9.96z"/>
    <path class="fil2 str0" d="M158.86 269.55c9.42,-9.6 22.27,-18.48 35.4,-9.17 6.17,4.38 18.74,-12.23 27.82,-13.93 26.31,-4.92 47.44,24.55 52.68,25.19 1.24,0.16 2.21,3.18 2.21,4.58 0,4.47 -2.7,8.45 -7.58,9.04 -9.1,1.09 -14.5,-2.58 -16.74,2.72 -1.55,3.66 -10.96,5.71 -11.77,10.79 -0.26,1.66 -13.15,-3.93 -11.41,-8.85 0.96,-2.69 5.82,5.08 9.91,3.66 1.84,-0.64 6.73,-6.48 7.17,-9.5 0.38,-2.63 0.4,-5.51 3.07,-6.97 1.5,-0.83 1.64,-1.52 -0.08,-0.7 -3.99,1.9 -1.97,5.29 -7.56,7.09 -6.92,2.23 -18.07,1.57 -25.09,-0.28 -3.64,-0.96 -16.84,7.39 -16.52,9.4 0.28,1.75 2.88,3.13 4.37,1.14 4.2,-5.58 6.13,4.17 1.29,4.57 -6.92,0.57 -9.95,-2.44 -10.44,-4.62 -0.84,-3.8 3.91,-7.7 6.62,-10.66 2.38,-2.59 -3.46,-0.77 -5.64,-0.42 -10.41,1.66 -24.01,0 -35.31,2.33 -0.72,0.15 -14.43,4.32 -11.95,2.44 1.13,-0.85 4.83,-3.74 6.74,-4.86 1.74,-1.02 -9.61,2.2 -10.91,2.36 -5.64,0.66 -21,2.37 -4.19,-4.34 6.06,-2.42 13.36,-6.37 17.91,-11.01z"/>
    <path class="fil8 str0" d="M278.08 276.08c7.63,0 19.03,1.29 26.07,4.37 8.79,3.84 18.25,9.62 27.24,8.3 6.46,-0.95 25.41,-8.71 36.35,-6.28 8.86,1.97 3.12,-1.19 -1.54,-1.63 -24.07,-2.3 -30.08,12.91 -54.9,-1.01 -11.05,-6.19 -28.46,-9.62 -37.26,-8.12 -0.19,0.03 -1.85,4.37 4.04,4.37z"/>
    <path class="fil8 str0" d="M181.8 253.26c-2.62,-11.11 11.52,-8.52 15.2,-6.75 5.01,2.39 1.01,11.27 -4.64,13.32 -4.76,1.73 -9.5,-2.04 -10.56,-6.57z"/>
    <path class="fil9 str0" d="M177.36 261.89c-2.79,-0.1 -5.74,2.24 -5.74,5.49 0,2.76 8.59,5.23 11.21,3.03 3.21,-2.71 -1.89,-8.4 -5.47,-8.52z"/>
    <path class="fil3 str1" d="M179.98 265.44c-0.22,1.6 3.02,2.54 1.53,0.02 -0.6,-1.02 -1.34,-0.55 -1.53,-0.02z"/>
    <path class="fil8 str0" d="M126.78 283.59c0.63,1.6 5.71,2.92 7.74,2.32 5.74,-1.71 -10.62,-9.69 -7.74,-2.32z"/>
    <path class="fil5 str0" d="M206.27 262.85c1.1,0 3.78,0.11 5.83,-1.85"/>
    <path class="fil5 str0" d="M208.5 271.98c3.27,1.22 3.21,1.36 6.61,0.58"/>
    <path class="fil5 str0" d="M220.07 264.98c3.28,1.34 6.21,1.23 8.69,-1.12"/>
    <path class="fil5 str0" d="M229.01 254.49c2.92,1.07 3.61,1.23 6.99,-0.78"/>
    <path class="fil5 str0" d="M230.46 273.73c1.93,1.04 4.16,0.87 6.03,-0.49"/>
    <path class="fil5 str0" d="M247.67 265.47c1.84,1.85 4.88,1.98 7.38,0.1"/>
    <path class="fil5 str0" d="M260.98 274.51c2.6,1.79 5.51,-0.55 5.93,-1.75"/>
   </g>
  </g>
  <g id="_2824684354112">
   <path class="fil10 str0" d="M903.93 237.81c0.73,4.27 1.31,16.73 2.92,16.61 6.03,-0.46 19.7,-0.92 20.25,-2.18 2.19,-4.98 7.15,-14.8 7.06,-15 -2.45,-5.39 -7,-13.97 -13.05,-15.46 -1.84,-0.46 -12,-3.53 -12.74,-5.82 -2.27,-7.11 -0.68,-37.27 4.87,-42.52 3.25,-3.07 4.33,-7.79 4.02,-10.08 -0.76,-5.78 -8.13,-6.81 -9.36,-1.94 -0.27,1.08 -1.16,2.3 -2.61,-1.52 -2.7,-7.07 -11.97,-5.33 -9.97,2.72 1.26,5.08 -1.63,0.96 -4.65,1.06 -7.87,0.24 -8.14,13.39 2.68,11.19 5.83,-1.19 5.67,20.12 5.39,24 -0.9,12.17 -7.58,11.55 -1.23,23.65 2.47,4.72 4.78,10.88 6.42,15.29z"/>
   <g>
    <path class="fil1 str1" d="M962.96 185.26c-24.29,-40.29 -101.89,-109.13 -120.54,-146.34 -1.57,-3.11 1.06,-0.69 3.39,0.17 7.97,24.74 99.1,108.48 119.73,145.26 2.72,4.84 -0.67,4.07 -2.58,0.91z"/>
    <path class="fil3 str0" d="M959.15 171.06c-0.95,0.91 -2.75,1.43 -4.1,2.16 -0.92,0.49 -1.55,1.19 -0.81,2.22 0.39,0.53 1.77,0.62 2.47,2 0.53,1.05 0.91,0.46 0.25,2.53 -0.63,1.97 2.44,1.42 2.54,2.55 0.13,1.47 -1.04,3.16 1.36,4.18 0.76,0.32 1.96,0.61 2.6,1.43 1.21,1.56 -0.54,3.67 2.72,2.38 1.22,-0.48 3.7,-0.77 3.42,-2.33 -0.25,-1.37 -3.48,-1.34 -2.65,-3.69 0.28,-0.79 0.02,-2.19 -0.4,-2.94 -1.19,-2.12 -4.57,-0.31 -3.22,-4.38 0.34,-1.01 0.18,-2.33 -1.12,-2.36 -1.34,-0.03 -1.71,-0.14 -2.07,-1.72 -0.13,-0.57 -0.21,-2.53 -0.99,-2.03z"/>
   </g>
   <g>
    <path class="fil5 str0" d="M845.56 39.59c-2.74,9.26 9.05,18.71 5.86,24.65 -3.74,6.98 -9.15,8.53 -10.4,16.36 -1.51,9.43 18.24,20.64 4.47,28.14"/>
    <path class="fil11 str0" d="M845.58 108.52c-4.9,2.02 -10.88,16.03 -7.77,23 2.25,5.04 3.97,6.54 1.05,9.7 -0.54,0.6 -10.68,8.56 -9.28,8.5 5.49,-0.23 6.72,-2.86 11.96,-0.72 4.24,1.74 5.81,4.64 9.95,6.59 4.02,1.9 -7.85,-11.42 -3.51,-15.02 8.56,-7.13 8.33,-15.24 6.75,-21.62 -0.9,-3.61 -5.43,-9.87 -9.15,-10.43z"/>
    <path class="fil12 str0" d="M844.53 116.72c-0.9,1.38 -1.05,4.01 0.93,4.43 7.78,1.65 2.18,-8.94 -0.93,-4.43z"/>
    <path class="fil5 str2" d="M837.53 122.97c4.7,3.14 11.74,5.45 17.8,4.27"/>
    <path class="fil5 str2" d="M837.13 128.44c4.96,2.95 12.87,5 17.48,3.98"/>
    <path class="fil5 str2" d="M839.35 134.63c1.44,0.75 6,3.13 11.41,3.29"/>
    <path class="fil5 str0" d="M846.05 108.74c-0.74,1.47 -1.8,3.57 -1.15,5.35"/>
   </g>
   <path class="fil10 str0" d="M998.2 245.83c1.1,-3.23 9,-20.34 10.08,-24.04 0.94,-3.22 0.37,-8.02 -3.13,-8.45 -4.43,-0.54 -3.23,4.69 -7.72,4.38 -4.31,-0.3 -3.39,-5.18 -1.18,-7.52 0.7,-0.74 -0.79,-0.44 -2.16,1.32 -1.04,1.33 -4.48,1 -5.68,-1.66 -1.49,-3.32 -0.54,-7.08 7.62,-6.43 1.8,0.14 1.21,-0.64 0.17,-0.86 -6.83,-1.45 -5.35,-7.17 0.03,-6.98 5.71,0.2 5.34,2.88 11.22,3.77 13.43,2.04 12.83,14.78 11.74,21.25 -1.81,10.7 -2.45,12.54 -7.4,23.6 -1.51,3.38 -7.75,14.37 -12.13,11.25 -4.51,-3.23 -2.72,-4.7 -1.46,-9.63z"/>
   <path class="fil10 str0" d="M1068.83 216.04c5.53,0.03 12.29,-1.63 7.41,3.86 -13.13,14.76 -7.38,6.27 -1.01,18.08 2.1,3.89 3.15,8.94 3.61,14.81 0.55,6.89 -2.59,12.14 4.82,11.05 0.94,-0.14 5.34,-1.21 7.83,-1.28 2.83,-0.08 2.28,2.65 1.53,4.64 -3.03,7.98 -19.15,18.34 -31.62,19.41 -11.38,0.98 -18.48,1.48 -30.05,2.54 -50.85,4.65 -66.3,19.45 -148.89,4.65 -37.18,-6.66 -39.95,-30.35 -57.64,-42.73 -20.94,-14.65 -46.62,0.6 -40.11,11.58 6.53,11.02 21.13,4.05 17.73,18.86 -1.49,6.46 -11.5,9.72 -19.05,7.04 -24.46,-8.69 -16.32,-44.13 8.71,-54.2 14.56,-5.87 31.97,1.31 44.58,8.63 15.58,9.05 12.22,19.28 38.66,30.62 1.88,0.81 18.71,7.77 11.14,0.33 -4.82,-4.73 -18.63,-18.64 -15.5,-34.65 3.54,-18.07 -5.68,-31.98 -11.44,-38.78 -1.74,-2.05 -6.68,-5.87 -11.01,-3.31 -10.89,6.43 -13.11,-6.64 -7.8,-7.48 5.13,-0.8 3.82,-2.34 0.88,-2.66 -14.71,-1.63 -3.53,-21.66 7.97,-9.94 2.24,2.29 2.21,0.54 0.74,-2.11 -1.6,-2.89 -4.4,-5.84 -0.78,-9.96 4.05,-4.61 16.83,1.42 10.63,9.83 -2.38,3.23 10.55,13.03 13.58,18.4 8.15,14.43 2.54,20.11 28.19,40.6 10.57,8.44 9.64,17.25 10.39,18.05 0.59,0.64 6.31,-6.37 9.91,-9.21 16.98,-13.41 39.56,-12.03 48.45,-10.84 5.31,0.72 4.36,0.2 3.03,-2.24 -5.69,-10.47 -10.81,-30.3 -12.96,-30.3 -6.16,0 -11.73,-1.71 -11.52,-7.31 0.22,-5.71 4.84,-8.05 9,-2.65 1.23,1.6 2.18,1.66 1.48,-0.37 -1.08,-3.1 -3.46,-6.33 2.44,-9.17 3.15,-1.53 8.19,0.94 7.66,4.94 -0.21,1.6 -0.27,5.79 2.16,0.39 1.81,-4.03 6.87,-3.58 8.85,-0.93 6.14,8.21 -6.14,7.53 -3.73,17.23 0.75,2.98 7.4,22.96 9.66,27.94 3.1,6.81 4.68,9.14 5.75,10.39 0.93,1.09 3.11,2.4 10.69,7.88 4.55,3.29 6.32,5.87 9.92,9.92 7.77,8.77 -11.52,-41.95 55.71,-41.55z"/>
   <path class="fil13 str0" d="M1050.57 241.02c1.88,2.34 -0.32,1.72 -1.96,0.91 -4.8,-2.38 -8.53,-8.1 -8.5,-11.69 0.06,-8.43 7.53,-9.59 7.03,-8.74 -2.49,4.29 -1.92,12.82 3.43,19.52z"/>
   <path class="fil13 str0" d="M1051.13 251.62c-2.36,7.02 3.55,14.91 9.01,18.3 1.55,0.96 3.21,1.95 -0.08,1.4 -6.35,-1.06 -14.25,-5.63 -15.06,-12.53 -0.4,-3.41 2.5,-7.83 5.52,-8.75 1.93,-0.59 0.95,0.55 0.61,1.58z"/>
   <path class="fil5 str0" d="M1060.76 245.26c-5.37,-0.39 -8.69,0.81 -10.34,1.67"/>
   <path class="fil3 str1" d="M1045.54 226.43c-0.8,0 -2.85,0.17 -2.62,1.35 0.17,0.87 3.73,-1.1 2.62,-1.35z"/>
   <path class="fil3 str1" d="M1050.53 255.1c-1.02,0.1 -2.86,0.17 -3.1,1.34 -0.28,1.37 1.3,0.48 2.37,-0.52 0.3,-0.28 0.88,-0.69 0.73,-0.82z"/>
   <path class="fil14" d="M935.42 286.25c-0.63,-8.63 -2.13,-19.92 8.77,-18.31 5.27,0.78 5.12,10.04 4.71,18.07 -0.16,3.08 1.4,13.28 -1.14,13.25 -7.7,-0.09 -11.13,3.35 -12.34,-13.01z"/>
   <path class="fil14" d="M962.05 287.07c-0.27,-8.64 -2.12,-19.92 8.77,-18.3 7.93,1.17 6.38,19.5 4.87,25.91 -0.76,3.21 -6.22,2.94 -9.85,3.35 -2.35,0.27 -3.52,-2.68 -3.79,-10.96z"/>
   <path class="fil14" d="M912.16 290.99c-1.83,-8.43 -5.25,-16.34 5.64,-14.73 7.91,1.16 5.11,9.36 5.33,15.94 0.06,1.74 -1.17,6.53 -4.01,5.97 -9.37,-1.86 -5.01,1.76 -6.96,-7.18z"/>
   <path class="fil14" d="M987.23 293.78c-0.6,-8.62 -4.78,-22.66 6.11,-21.05 7.91,1.16 3.38,7.86 3.61,14.44 0.05,1.74 2.83,6.29 0.22,6.29 -4.36,0 -9.8,2.28 -9.94,0.32z"/>
   <path class="fil14" d="M1068.71 239.65c-2.98,1.22 -6.8,3.03 -7.47,-0.47 -0.48,-2.53 7.09,-3.86 9.4,-4.72 0.61,-0.23 1.56,0.35 1.85,1.14 1.17,3.1 1.12,2.05 -3.78,4.05z"/>
   <path class="fil14" d="M1071.36 248.07c-3.57,0.55 -8.09,2.07 -8.17,-1.92 -0.06,-2.9 8.57,-2.95 11.28,-3.47 0.72,-0.13 1.4,-0.08 1.57,0.85 0.65,3.37 2.38,3.45 -4.68,4.54z"/>
   <path class="fil14" d="M1071.9 257.67c-3.68,0.58 -8.46,1.61 -8.28,-2.5 0.12,-2.99 9,-2.48 11.82,-2.84 0.75,-0.1 2.12,0.73 2.25,1.69 0.42,3.32 -2.17,3.07 -5.79,3.65z"/>
   <path class="fil14" d="M891.06 231.92c2.27,-1.3 3.96,-2.95 6.26,-0.2 1.8,2.15 -4.27,4.4 -6.03,5.34 -0.46,0.25 -2.79,-0.31 -3.11,-0.91 -1.27,-2.37 -0.85,-2.08 2.88,-4.23z"/>
   <path class="fil14" d="M896.72 238.03c3.43,-2.09 6.16,-3.47 8.56,0.44 1.68,2.75 -7.33,5.84 -10.28,6.68 -1.42,0.39 -3.21,-0.51 -3.49,-1.53 -0.73,-2.66 -0.44,-2.16 5.21,-5.59z"/>
   <path class="fil14" d="M900.66 246.98c3.58,-2.26 8.81,-6.4 9.06,-0.36 0.14,3.4 -7.59,5.89 -10.37,7.52 -0.74,0.44 -2.52,0.81 -3.09,-0.14 -2.24,-3.81 -1.48,-3.33 4.4,-7.02z"/>
   <path class="fil5 str0" d="M1054.82 252.11c-1.52,2.64 -0.3,9.71 2.05,11.49"/>
   <path class="fil5 str0" d="M1050.67 222.34c-2.12,3.45 -2.35,8.53 -0.1,14.02"/>
   <path class="fil5 str0" d="M1034.33 237.63c0.87,3.24 4.52,5.88 7.93,6.44 0.95,0.15 1.11,0 0.06,0.75 -2.12,1.52 -7.94,5.44 -6.1,11.39"/>
   <path class="fil14" d="M915.46 223.85c1.19,-1.82 0.9,-2.7 4.1,-1.37 2.12,0.89 -2.66,5.36 -3.59,6.68 -0.25,0.35 -0.95,0.71 -1.33,0.03 -1.49,-2.65 -1.12,-2.36 0.82,-5.34z"/>
   <path class="fil14" d="M920.13 227.32c1.72,-2.37 3.22,-4.37 5.26,-1.57 1.81,2.49 -2.77,5.92 -4.5,7.24 -0.84,0.64 -2.27,0.4 -2.73,-0.28 -1.2,-1.8 -0.86,-1.5 1.97,-5.39z"/>
   <path class="fil14" d="M924.53 233.09c1.57,-2.02 3.71,-6.31 5.37,-1.43 0.68,2.04 -3.45,4.49 -4.7,5.99 -0.33,0.4 -1.26,0.96 -1.77,0.49 -2.02,-1.87 -1.49,-1.73 1.1,-5.05z"/>
   <path class="fil14" d="M1083.71 274.39c-0.78,-1.23 -1.84,-3.58 0.8,-5.03 2.65,-1.46 7.38,-3.74 4.19,1.04 -0.41,0.61 -4.42,4.9 -4.99,3.99z"/>
   <path class="fil5 str0" d="M834.94 178.13c-1.81,-3.53 -4.95,-0.78 -5.57,0.51"/>
   <path class="fil5 str0" d="M850.28 164.76c0,-3.09 -1.74,-3.3 -4.63,-3.3"/>
   <path class="fil5 str0" d="M837.65 193.86c-4.96,-2.58 -6.07,0.47 -5.18,2.04"/>
   <path class="fil5 str0" d="M886.44 165.07c-0.12,-2.03 -2.67,-4.12 -4.32,-2.82"/>
   <path class="fil5 str0" d="M899.77 155.38c0.18,-1.73 0.77,-4.74 -3.76,-4.35"/>
   <path class="fil5 str0" d="M914.99 159.03c1.52,-1.47 2.69,-2.63 0.86,-5.33"/>
  </g>
  <g id="_2824684377152">
   <path class="fil15 str3" d="M578.14 494.55c-25.22,-27.26 -63.69,-18.05 -69.71,-57.59 -2.67,-17.52 16.88,-35.5 39.88,-31.62 15.47,2.6 31.06,31.9 38.11,25.26 49.57,-46.7 153.65,14.45 39.2,41.69 -39.93,9.51 -38.7,15.45 -38.76,22.23 -0.1,11.15 4.29,14.09 -8.72,0.03z"/>
   <g>
    <path class="fil16 str4" d="M625.63 436.14c11.81,-1.49 21.55,1.84 25.67,5.18 11.09,9.01 26.28,6.98 38.92,5.58 1.69,-0.19 3.32,-0.59 3.71,0.21 0.57,1.16 3.99,-2.33 4.89,0.25 0.85,2.45 -2.51,3.93 -4.45,5.1 -6.43,3.86 -85.02,5.38 -84.99,5.82 0.09,1.16 -3.26,6.21 -5.36,7.21 -2.99,1.43 -8.28,2.02 -5.87,-0.79 1.02,-1.18 3.1,-6.62 0.43,-7.09 -6.1,-1.06 -26.61,2.11 -37.06,1.26 -7.13,-0.59 -5.38,3.14 -8.87,5.1 -0.77,0.43 -5.9,2.15 -5.08,0.63 2.39,-4.45 2.7,-7.61 -3.47,-8.63 -17.08,-2.8 -21.32,-4.81 -41.3,-12.27 -9.53,-3.56 -21.17,-2.62 -20.97,-2.93 4.72,-7.1 13.85,-1.54 12.55,-9.35 -0.9,-5.43 1.73,-10.11 2.41,-10.11 0,11.04 4.8,18.14 13.61,19.95 53.75,10.98 81.74,-0.92 115.23,-5.12z"/>
    <path class="fil5 str4" d="M694.31 447.33c-11.74,6.02 -41.68,7.69 -53.27,4.6 -2.34,-0.62 -7.21,-2.47 -5.49,-6.87"/>
    <path class="fil9 str4" d="M646 439.37c-1.5,1.81 -1.35,4.98 1.93,6.26 8.19,3.17 9.11,-4.93 4.76,-6.96 -2.2,-1.02 -5.1,-1.22 -6.69,0.7z"/>
    <path class="fil17" d="M646.92 443.15c1.29,0 2.6,0.62 3.84,0.6 0.62,-0.01 1.77,0.01 2.62,-0.18 1.52,-0.35 1.65,-0.63 0.91,0.9 -0.95,1.97 -4.45,1.42 -5.75,0.87 -0.73,-0.32 -1.87,-1.47 -1.62,-2.19z"/>
    <path class="fil5 str1" d="M647.13 442.78c1.58,0.68 6.08,0.94 8.13,-0.01"/>
    <ellipse class="fil3" cx="652.23" cy="442.45" rx="1.35" ry="1.3"/>
    <path class="fil9 str4" d="M640.13 442.46c-1.27,1.53 -1.14,4.19 1.62,5.26 6.89,2.67 7.66,-4.14 4,-5.84 -1.85,-0.87 -4.29,-1.03 -5.62,0.58z"/>
    <path class="fil17" d="M639.85 445.18c1.29,0 2.67,0.23 3.92,0.21 0.62,-0.01 1.6,0.14 2.42,0.14 1.55,0 1.65,-0.52 0.9,1.01 -0.95,1.97 -4.12,1.25 -5.41,0.69 -0.74,-0.31 -2.08,-1.33 -1.83,-2.05z"/>
    <path class="fil5 str1" d="M639.58 444.71c3.4,1.01 5.87,0.73 8.38,0.53"/>
    <ellipse class="fil3" cx="645.1" cy="444.49" rx="1.14" ry="1.09"/>
    <path class="fil9 str4" d="M690.95 448.66c-0.6,0.5 -4.17,1.33 -4.08,1.09 0.47,-1.3 1.8,-4.31 2.38,-4.47 0.19,-0.05 2.26,2.7 1.7,3.38z"/>
    <path class="fil9 str4" d="M671.68 452.35c-0.67,0.4 -4.32,0.64 -4.2,0.42 0.68,-1.21 2.48,-3.96 3.08,-4.03 0.19,-0.02 1.79,3.03 1.12,3.61z"/>
    <path class="fil9 str4" d="M651.69 452.83c-0.07,-0.66 1.06,-3.58 1.19,-3.41 0.69,0.97 2.18,3.35 2.01,3.84 -0.05,0.16 -3,0.3 -3.2,-0.43z"/>
    <path class="fil9 str4" d="M663.7 453.86c0.06,0.67 -1.09,3.58 -1.22,3.4 -0.68,-0.97 -2.15,-3.36 -1.98,-3.85 0.05,-0.16 3,-0.28 3.2,0.45z"/>
    <path class="fil9 str4" d="M682.57 451.51c0.25,0.77 -0.31,4.5 -0.5,4.33 -1.08,-0.95 -3.45,-3.36 -3.39,-3.98 0.02,-0.2 3.45,-1.15 3.89,-0.35z"/>
    <path class="fil5 str5" d="M621.87 441.02c-1.17,0 -7.29,0.82 -6.17,2.93 1.05,1.98 6.56,1.01 2.17,3.88 -1.35,0.88 -2.96,2.32 -1.46,3.11 0.69,0.36 3.81,1.07 0.04,2.51"/>
    <path class="fil5 str5" d="M608.38 442.66c-0.48,0.02 -6.73,1.52 -4.38,2.92 1.5,0.89 4.87,1.99 4.87,2.04 0,2.64 -5.15,1.64 -4.59,4.43 0.06,0.3 2.13,0.81 2.42,1.41 0.71,1.42 -1.1,1.83 -2.39,2.08"/>
    <path class="fil5 str5" d="M595.77 444.35c-1.31,0.47 -4.37,2.67 -1.75,3.61 2.05,0.74 2.22,2.51 0.17,3.51 -0.79,0.38 -1.56,1.64 -0.11,2.25"/>
    <path class="fil5 str5" d="M585.07 446.26c-0.55,0.51 -2.74,1.6 -2.8,1.85 -0.81,0.16 0.4,1.42 1.4,1.72 6.11,1.83 -2.51,3.22 -0.77,4.71 0.36,0.31 2.04,0.58 2.47,0.36"/>
    <path class="fil5 str5" d="M574.91 447.3c-0.5,0.03 -3.63,1.12 -3.6,1.74 0.08,2.1 0.09,1.74 2.57,2.52 1.5,0.46 -1.4,1.99 -2.03,2.01 -1.01,0.03 -1.04,1.82 0.66,2.41"/>
    <path class="fil5 str5" d="M563.66 448.5c-0.9,0.69 -6.2,1.53 -3.7,3.18 0.42,0.28 5.3,1.04 2.74,2.32 -1.05,0.52 -6.98,-0.09 -2.49,2.69"/>
    <path class="fil5 str5" d="M552.14 448.66c-0.13,0.02 -3.7,0.85 -3.71,0.86 -1.2,0.77 -1.02,1.19 0.31,2.16 0.37,0.27 3.32,1.23 0.96,2.4"/>
    <path class="fil5 str5" d="M538.06 448.06c-1.08,0.21 -3.2,0.72 -2.13,2.13 0.29,0.39 1.82,1.02 1.8,1.75"/>
    <path class="fil5 str5" d="M528.45 447.35c-0.72,0.27 -3.91,0.75 -2.26,2.04 1.63,1.26 3.32,1.1 3.84,1.4"/>
   </g>
   <g>
    <path class="fil18 str0" d="M654.15 629.28c2.3,0.09 7.84,-4.97 9.43,-6.85 21.18,-24.87 23.94,8.01 31.81,9.22 8.11,1.24 6.79,-11.01 15.88,-12.31 7.8,-1.1 11.7,5.81 13.53,12.05 0.48,1.66 0.27,5.31 -2.39,5.65 -8.18,1.07 -8.42,-8.47 -12.72,-4.78 -4.11,3.53 -5.11,12 -16.61,8.3 -9.59,-3.1 -13.49,-16.77 -17.91,-16.02 -5.15,0.88 -9.53,11.84 -15.37,14.1 -9.54,3.69 -21.85,-1.61 -23.31,-8.91 -0.91,-4.58 -0.36,-4.67 2.92,-7.48 3.27,-2.8 5.36,6.65 14.74,7.03z"/>
    <path class="fil19 str0" d="M524.25 561.98c-5.96,-1.29 -6,-6.71 -6.97,-10.79 -1.25,-5.29 -2.72,-2.33 3.66,-7.02 2.61,-1.91 6.36,-4.55 7.14,-8.49 0.44,-2.2 0.45,-4.54 -2.59,-5.96 -2.94,-1.37 -6.94,-0.91 -8.34,2.09 -2.55,5.46 -0.88,-4.04 -5.32,-5.11 -5.63,-1.35 -9.99,3.52 -7.48,7.2 3.55,5.2 -2.51,1.17 -6.24,2.3 -6.62,1.99 -2.78,11.99 6.96,11.83 1.66,-0.03 4.03,11.69 4.6,14.07 1.9,7.92 6.28,7.34 14.15,9.89 2.01,0.65 12.82,5.21 12.39,6.75 -2.26,7.99 -3.96,24.17 -3.69,32.17 1.08,32.84 19.15,60.17 19.2,75.09 0.02,5.4 -4.27,2.21 -5.13,8.1 -0.54,3.65 4.71,6.18 6.21,2.95 1.97,-4.24 0.55,3.57 6.03,3.22 1.58,-0.09 2.89,-1.9 3.38,-3.64 0.42,-1.51 -0.02,-2.64 1.2,-0.42 1.73,3.14 6.19,2.95 6.88,-1.75 0.27,-1.81 -0.15,-6.09 -4.16,-6.83 -9.76,-1.8 -13.07,-21.72 2.06,-35.76 8.74,-8.13 25.89,-3.85 35.63,0.99 24.99,12.43 15.36,29.47 8.83,33.28 -2.01,1.18 -8.24,0.45 -10.7,2.08 -5.34,3.52 1.13,9.62 4.39,7.18 1.36,-1.01 2.36,-3.02 1.35,0.65 -0.66,2.44 0.53,4.73 3.13,5.5 2.47,0.72 4.26,-1.16 5.27,-2.74 1.24,-1.94 0.2,-1.49 1.43,0.12 1.87,2.42 6.7,6.01 8.84,-1.78 0.52,-1.91 0.33,-3.59 -1.01,-6.59 -1.28,-2.86 1.28,-8.63 2.53,-13.06 6.32,-22.34 13.16,-31.07 15.86,-61.54 1,-11.21 -4.73,-24.56 -3.3,-26.97 8.47,-14.26 22.47,-8.45 29.21,-22.44 2.47,-5.14 1.32,-17.01 4.81,-18.6 4.71,-2.14 10.83,-7.58 5.83,-12.24 -5.79,-5.39 -8.35,3.46 -8.2,1.92 0.38,-3.87 2.55,-6.38 -1.05,-8.83 -3.05,-2.08 -8.56,-2.88 -10.36,2.61 -1.18,3.55 3.28,7.77 -2.46,3.49 -6.95,-5.19 -14.11,8.98 -2.65,11.73 4.61,1.1 3.59,-4.27 5.28,1.15 3.29,10.54 -2.9,22.47 -14.15,24.22 -13.33,2.07 -9.09,-2.27 -14.28,-13.98 -3.23,-7.29 -15.91,-41.96 -21.21,-44.57 -0.72,-0.35 -4.16,10 -5.81,9.88 -7.05,-0.51 -15.41,-3.7 -22.11,-3.59 -10.12,0.16 -7.94,-5.37 -14.94,-11.49 -1.67,-1.46 -2.39,-2.22 -3.05,2.41 -0.66,4.62 -1.8,18.96 -4.28,21.83 -0.1,0.11 -3.75,10.21 -5.4,12.63 -3.63,5.34 -5.74,10.4 -8.47,15.69 -2.79,5.43 -17.6,2.31 -22.9,1.17z"/>
    <path class="fil20 str0" d="M576.72 542.5c0.13,-5.74 -13.55,-10.89 -20.48,-6.2 -4.32,2.93 -2.9,11.2 1.34,14.97 7.64,6.8 18.49,-1.46 19.14,-8.77z"/>
    <path class="fil20 str0" d="M581.87 544.57c2.92,10.49 19.48,11.52 25.33,6.68 6.17,-5.12 3.21,-17.53 -4.72,-19.03 -8.3,-1.57 -24.58,-1.91 -20.61,12.35z"/>
    <ellipse class="fil3" transform="matrix(4.39831 0.390526 -0.390526 4.39831 568.771 537.954)" rx="0.49" ry="0.47"/>
    <ellipse class="fil3" transform="matrix(5.64025 0.500798 -0.500798 5.64025 596.773 534.229)" rx="0.49" ry="0.47"/>
    <path class="fil21" d="M539.94 588.66c8.38,-3.36 15.96,-8.26 16.19,3.26 0.18,8.37 -8.77,6.9 -15.53,8.27 -1.79,0.37 -6.95,-0.08 -6.86,-3.11 0.29,-9.99 -2.69,-4.86 6.2,-8.42z"/>
    <path class="fil21" d="M634.52 592.5c-8.48,-1.48 -16.51,-4.58 -14.47,6.22 1.48,7.85 9.55,4.72 16.12,4.67 1.74,-0.01 6.47,-1.44 5.79,-4.24 -2.23,-9.28 1.55,-5.07 -7.44,-6.65z"/>
    <path class="fil21" d="M539.94 611.72c8.38,-3.35 15.95,-8.26 16.19,3.26 0.17,8.38 -8.78,6.9 -15.54,8.28 -1.78,0.36 -6.94,-0.08 -6.86,-3.11 0.3,-10 -2.68,-4.87 6.21,-8.43z"/>
    <path class="fil21" d="M636.96 612.11c-8.18,-2.71 -15.67,-6.95 -15.23,4.03 0.32,7.98 8.76,6.06 15.27,6.98 1.71,0.24 6.61,-0.47 6.35,-3.35 -0.86,-9.5 2.27,-4.79 -6.39,-7.66z"/>
    <path class="fil21" d="M543.91 630.42c8.38,-3.36 15.96,-8.26 16.19,3.26 0.17,8.37 -8.78,6.9 -15.53,8.27 -1.79,0.37 -6.95,-0.07 -6.86,-3.1 0.29,-10 -2.69,-4.87 6.2,-8.43z"/>
    <path class="fil21" d="M633.9 632.36c-7.83,-3.59 -14.81,-8.62 -15.57,2.35 -0.55,7.96 8.04,6.97 14.41,8.6 1.68,0.43 6.62,0.25 6.68,-2.64 0.19,-9.54 2.78,-4.51 -5.52,-8.31z"/>
    <path class="fil22" d="M504.45 540.36c1.08,-4.18 -10.8,-2.3 -6.11,2.18 3.69,3.52 5.89,-1.32 6.11,-2.18z"/>
    <path class="fil22" d="M506.7 529.66c-3.2,5.64 5.35,8.15 5.82,5.51 0.71,-8 -4.24,-8.3 -5.82,-5.51z"/>
    <path class="fil22" d="M523.64 531.45c-2.97,-0.32 -6.05,3.28 -4.53,6.46 1.85,3.87 10.12,-4.69 4.53,-6.46z"/>
    <path class="fil22" d="M509.11 545.53c-2.29,0.25 -2.01,-2.69 -1.34,-4.15 1.04,-2.29 1.76,-3.31 5.13,-2.19 3.07,1.01 2.99,7.14 0.81,5.1 -4.23,-3.94 -1.15,0.85 -4.6,1.24z"/>
    <path class="fil22" d="M504.45 540.36c1.08,-4.18 -10.8,-2.3 -6.11,2.18 3.69,3.52 5.89,-1.32 6.11,-2.18z"/>
    <path class="fil22" d="M506.7 529.66c-3.2,5.64 5.35,8.15 5.82,5.51 0.71,-8 -4.24,-8.3 -5.82,-5.51z"/>
    <path class="fil22" d="M523.64 531.45c-2.97,-0.32 -6.05,3.28 -4.53,6.46 1.85,3.87 10.12,-4.69 4.53,-6.46z"/>
    <path class="fil22" d="M509.11 545.53c-2.29,0.25 -2.01,-2.69 -1.34,-4.15 1.04,-2.29 1.76,-3.31 5.13,-2.19 3.07,1.01 2.99,7.14 0.81,5.1 -4.23,-3.94 -1.15,0.85 -4.6,1.24z"/>
    <path class="fil22" d="M666.23 530.25c-6.1,2.19 -1.25,9.67 0.82,7.97 5.76,-5.6 2.2,-9.06 -0.82,-7.97z"/>
    <path class="fil22" d="M677.7 536.95c-2.96,-0.32 -6.04,3.28 -4.53,6.45 1.85,3.87 10.13,-4.68 4.53,-6.45z"/>
    <path class="fil22" d="M663.07 546.47c-2.01,-1.14 -0.05,-3.36 1.35,-4.15 2.18,-1.24 3.36,-1.65 5.44,1.24 1.89,2.62 -1.78,7.53 -2.35,4.61 -1.1,-5.68 -1.42,0.01 -4.44,-1.7z"/>
    <path class="fil22" d="M659.65 540.48c2.2,-3.71 -9.72,-5.23 -6.48,0.38 2.56,4.41 6.03,0.39 6.48,-0.38z"/>
    <path class="fil5 str0" d="M523.37 528.9c-0.13,-0.85 -0.31,-2.97 2.58,-2.36"/>
    <path class="fil5 str0" d="M494.74 538.22c-1.2,-0.18 -3.12,-2.48 -1.95,-4"/>
    <path class="fil5 str0" d="M508 526.82c-1.2,-2.16 -1,-3.64 1.2,-4.74"/>
    <path class="fil5 str0" d="M651.43 535.66c-0.58,-2.5 -1.63,-2.44 -3.54,-2.43"/>
    <path class="fil5 str0" d="M668.06 527.47c1.73,-1.08 1.69,-3.2 0.16,-3.74"/>
    <path class="fil5 str0" d="M680.86 536.08c0.94,-0.35 2.16,-1.19 1.83,-3.48"/>
    <path class="fil22" d="M522.23 562.55c-0.23,2.59 -4.22,6.81 -3.49,6.95 1.45,0.27 2.35,1.12 2.68,0.32 0.53,-1.33 4.99,-6.23 3.51,-6.66 -0.19,-0.06 -2.68,-0.85 -2.7,-0.61z"/>
    <path class="fil22" d="M527.79 563.78c-0.24,2.71 -4.28,7.21 -3.55,7.36 1.47,0.31 2.55,1.46 2.88,0.62 0.55,-1.39 5.05,-7.22 3.55,-7.67 -0.2,-0.06 -2.86,-0.56 -2.88,-0.31z"/>
    <path class="fil22" d="M533.18 564.62c-0.25,2.9 -4.76,8.36 -3.9,8.62 1.68,0.52 2.44,1.71 2.83,0.82 0.64,-1.48 6.23,-8.63 4.42,-9.12 -0.24,-0.07 -3.32,-0.59 -3.35,-0.32z"/>
    <path class="fil22" d="M551.06 682.49c2.41,-0.99 8,0.6 7.78,-0.11 -0.43,-1.4 -0.09,-2.6 -0.95,-2.52 -1.42,0.13 -7.83,-1.56 -7.53,-0.05 0.04,0.2 0.48,2.77 0.7,2.68z"/>
    <path class="fil22" d="M624.71 684.79c-2.32,-1.18 -8.01,-0.04 -7.74,-0.73 0.54,-1.37 0.29,-2.59 1.14,-2.44 1.41,0.25 7.93,-0.93 7.52,0.55 -0.06,0.19 -0.71,2.72 -0.92,2.62z"/>
    <path class="fil22" d="M653.19 570.68c0.3,2.58 4.39,6.7 3.67,6.85 -1.44,0.31 -2.32,1.19 -2.67,0.39 -0.57,-1.31 -5.15,-6.1 -3.69,-6.56 0.19,-0.07 2.66,-0.92 2.69,-0.68z"/>
    <path class="fil22" d="M549.59 676.99c2.52,-1.04 8.38,0.47 8.17,-0.25 -0.4,-1.44 0.12,-2.93 -0.78,-2.83 -1.48,0.15 -8.73,-1.15 -8.44,0.38 0.04,0.2 0.82,2.79 1.05,2.7z"/>
    <path class="fil22" d="M626.61 679.42c-2.42,-1.23 -8.38,-0.2 -8.12,-0.9 0.52,-1.4 0.11,-2.93 1,-2.76 1.47,0.27 8.8,-0.45 8.38,1.05 -0.05,0.2 -1.03,2.72 -1.26,2.61z"/>
    <path class="fil22" d="M647.66 572.05c0.31,2.7 4.46,7.1 3.74,7.27 -1.46,0.34 -2.51,1.52 -2.86,0.69 -0.59,-1.37 -5.23,-7.09 -3.75,-7.57 0.2,-0.07 2.85,-0.64 2.87,-0.39z"/>
    <path class="fil22" d="M547.85 671.82c2.7,-1.11 9.62,0.37 9.45,-0.52 -0.32,-1.72 0.4,-2.95 -0.58,-2.88 -1.61,0.11 -10.52,-1.55 -10.13,0.28 0.05,0.24 1.01,3.22 1.26,3.12z"/>
    <path class="fil22" d="M628.76 674.4c-2.6,-1.32 -9.62,-0.39 -9.38,-1.26 0.45,-1.7 -0.16,-2.98 0.81,-2.83 1.6,0.24 10.61,-0.71 10.07,1.09 -0.07,0.23 -1.26,3.12 -1.5,3z"/>
    <path class="fil22" d="M642.29 573.02c0.33,2.9 4.98,8.24 4.12,8.53 -1.66,0.55 -2.39,1.77 -2.8,0.88 -0.68,-1.46 -6.45,-8.46 -4.65,-9 0.23,-0.07 3.3,-0.67 3.33,-0.41z"/>
    <path class="fil22" d="M651.38 630.09c0.91,2.44 -0.96,8.35 -0.25,8.55 0.86,0.24 2.45,0.87 2.4,0 -0.08,-1.42 1.97,-8.64 0.45,-8.39 -0.2,0.03 -2.69,-0.38 -2.6,-0.16z"/>
    <path class="fil22" d="M655.85 629.89c1.62,2.41 0.87,9.05 1.58,8.68 1.41,-0.73 3.08,-0.51 2.79,-1.43 -0.48,-1.51 -0.27,-9.31 -1.8,-8.68 -0.21,0.09 -2.72,1.22 -2.57,1.43z"/>
    <path class="fil22" d="M660.24 627.18c1.79,1.81 2.56,7.81 3.22,7.39 1.29,-0.84 2.22,-1.59 1.84,-2.35 -0.63,-1.27 -1.53,-8.09 -2.89,-7.16 -0.17,0.12 -2.34,1.96 -2.17,2.12z"/>
    <path class="fil22" d="M582.9 520.02c-0.26,2.9 -4.77,8.36 -3.9,8.62 1.68,0.52 2.44,1.71 2.83,0.82 0.64,-1.48 6.22,-8.63 4.41,-9.13 -0.23,-0.06 -3.31,-0.58 -3.34,-0.31z"/>
    <path class="fil22" d="M588.99 520.66c-0.23,2.6 -4.22,6.82 -3.49,6.95 1.44,0.27 2.35,1.13 2.67,0.32 0.54,-1.32 5,-6.22 3.52,-6.66 -0.19,-0.05 -2.68,-0.84 -2.7,-0.61z"/>
    <path class="fil22" d="M594.34 521.55c-0.19,2.08 -3.38,5.46 -2.8,5.57 1.16,0.21 1.88,0.9 2.15,0.25 0.43,-1.06 4,-4.98 2.81,-5.33 -0.15,-0.05 -2.15,-0.68 -2.16,-0.49z"/>
    <path class="fil22" d="M683.89 618.39c-1.17,2.32 -7.07,5.23 -6.44,5.63 1.24,0.78 1.37,2.31 1.97,1.68 0.99,-1.03 7.34,-4.35 6.12,-5.3 -0.16,-0.12 -1.55,-2.22 -1.65,-2.01z"/>
    <path class="fil22" d="M687.03 623.68c-1.49,2.03 -7.13,3.36 -6.62,3.82 1.01,0.94 1.31,2.37 1.98,1.86 1.09,-0.83 7.53,-2.93 6.56,-4 -0.13,-0.14 -1.78,-1.86 -1.92,-1.68z"/>
    <path class="fil22" d="M690.3 627.48c-1.48,2.08 -7.26,3.84 -6.73,4.42 1.03,1.13 1.93,1.92 2.62,1.42 1.14,-0.83 7.71,-2.87 6.57,-4.05 -0.15,-0.15 -2.32,-1.97 -2.46,-1.79z"/>
    <path class="fil22" d="M683.89 618.39c-1.17,2.32 -7.07,5.23 -6.44,5.63 1.24,0.78 1.37,2.31 1.97,1.68 0.99,-1.03 7.34,-4.35 6.12,-5.3 -0.16,-0.12 -1.55,-2.22 -1.65,-2.01z"/>
    <path class="fil22" d="M687.03 623.68c-1.49,2.03 -7.13,3.36 -6.62,3.82 1.01,0.94 1.31,2.37 1.98,1.86 1.09,-0.83 7.53,-2.93 6.56,-4 -0.13,-0.14 -1.78,-1.86 -1.92,-1.68z"/>
    <path class="fil22" d="M689.78 627.79c-1.48,2.08 -6.45,3.42 -5.92,4 1.03,1.13 1.37,2.22 2.06,1.72 1.14,-0.83 6.97,-2.51 5.84,-3.69 -0.15,-0.15 -1.85,-2.21 -1.98,-2.03z"/>
    <path class="fil22" d="M701.46 630.62c2.48,0.78 3.78,6.07 4.06,5.39 0.57,-1.35 2.16,-1.99 1.45,-2.48 -1.17,-0.81 -3.63,-6.01 -4.37,-4.67 -0.09,0.18 -1.36,1.69 -1.14,1.76z"/>
    <path class="fil22" d="M697.8 632.69c2.01,1.65 2.64,7.63 3.27,7.25 1.22,-0.74 2.67,-0.89 2.19,-1.61 -0.78,-1.2 -2.23,-7.7 -3.42,-6.73 -0.16,0.13 -2.22,0.95 -2.04,1.09z"/>
    <path class="fil22" d="M703.82 627.2c2.38,0.8 4.49,5.48 4.79,4.86 0.58,-1.24 2.34,-1.07 1.66,-1.55 -1.12,-0.79 -4.56,-6.56 -5.28,-5.32 -0.1,0.17 -1.38,1.94 -1.17,2.01z"/>
    <path class="fil5 str6" d="M566.64 561.72c4.89,0.44 12.44,2.37 11.5,-5.91 -0.12,-1.06 1.55,-1.2 1.01,2.99 -0.69,5.38 6.22,10.86 13.58,11.8 6.96,0.88 14.35,-2.44 14.91,-8.78"/>
   </g>
  </g>
  <g id="_2860449209152">
   <path class="fil9 str0" d="M250.31 671.88c3.86,3.6 6.56,6.76 6.43,12.01 -0.17,6.58 3.76,9.78 6.1,6.52 0.46,-0.65 0.93,-2.07 1.18,-2.02 1.11,0.23 0.32,4.3 3.55,4.44 2.16,0.09 2.71,-1.71 2.64,-4.42 -0.03,-1.29 0.82,-1.23 1.41,0.58 0.61,1.88 3.08,2.59 4.21,-0.1 2.41,-5.74 -8.79,-19.71 -13.14,-23.28 -13.01,-10.71 -13.64,-10.63 -20.4,-20.66 -2.65,-3.94 -7.46,-4.7 -9.52,-5.83 -2.52,-1.38 -0.61,7.91 -0.77,10.21 -0.85,12.57 10.42,15.2 18.31,22.55z"/>
   <path class="fil9 str0" d="M232.35 471.52c0.78,-2.04 2.13,-4.33 4.14,-5.69 0.43,-0.04 1.3,-0.09 3.16,3.83 1.52,3.21 3.98,10.51 3.67,14.27 -0.05,0.7 9.33,12.74 10.44,26.13 1.9,22.93 -13.56,31.77 -11.95,34.34 0.69,1.11 7.82,11.65 7.88,11.71 3.7,3.87 18.66,-18.43 18.66,-24.28 -0.01,-4.94 -1.73,-11.58 0.7,-14.87 1.54,-2.09 3.28,-2.64 5.46,-1.82 2.66,1 1.4,6.06 3.43,3.89 1.71,-1.83 5.57,-5.23 9,-2.03 3.57,3.34 -2.36,7.69 -1.45,7.51 5.76,-1.12 9.71,9.31 -3.13,9.86 -5.97,0.26 -14.02,33.85 -24.98,36.54 -2.85,0.69 -2.89,-1.27 -1.52,2.63 2.39,6.81 7.22,24.53 4.45,30.53 -1.29,2.78 15.25,5.88 17.29,6.31 20.7,4.39 36.95,-30.68 31.88,-46.06 -7.56,-22.89 13.94,-21.75 14.01,-2.86 0.12,29.4 -16.75,82.31 -64.4,55.48 -2.52,-1.42 -2.94,0.03 -3.47,2.35 -4.1,18.33 -20.25,33.38 -22.05,46.89 -1.08,8.13 -12.25,40.09 -23.19,35.22 -2.07,-0.93 1.85,-5.65 1.1,-5.56 -1.79,0.21 -2.33,6.41 -6.88,3.14 -3.07,-2.21 2.26,-4.88 1.72,-5.12 -0.9,-0.39 -4.14,3.95 -5.61,2.72 -2.3,-1.93 -2.45,-3.78 0.32,-6.63 1.78,-1.84 4.93,-1.22 6.1,-3.03 6.61,-10.25 17.04,-30.93 12.3,-37.59 -9.08,-12.74 -20.26,-21.56 -26.11,-36.52 -2.34,-5.97 -5.62,-11.6 -8.55,-18.17 -1.82,-4.06 -7.26,-16.71 -8.47,-20.29 -2.78,-8.19 2.54,-23.53 2.54,-28.83 0,-11.24 0.95,-22.03 0.95,-33.54 0,-9.7 1.81,-18.21 -2.95,-26.57 -1.07,-1.89 -6.21,-10.69 -6.31,-11.7 -0.33,-3.18 6.43,-1.28 8.79,-0.38 5.96,2.28 6.81,5.9 17.66,5.9 11.57,0 17.93,-7.31 31.7,-0.22 2.94,1.51 2.38,-4.14 3.67,-7.49z"/>
   <path class="fil5 str0" d="M230.27 609.05c-16.3,15.9 -10.76,23.56 -9.65,44.04"/>
   <path class="fil5 str0" d="M177.02 556.44c-13.52,41.47 9.69,59.43 17.48,71.55 1.01,1.57 2.38,3.25 4.03,4.24 1.84,1.1 2.48,-1.35 1.69,-2.8 -0.11,-0.21 -1.49,-2.16 0.07,-0.43 0.35,0.39 1.71,1.26 2.88,0.86 2.49,-0.83 1.13,-3.47 0.22,-4.6 -1.99,-2.45 -0.12,-0.62 0.55,0.05 0.4,0.41 1.5,1.48 2.48,0.37 0.79,-0.89 0.74,-2.36 0.33,-3.91 -0.4,-1.53 -2.88,-5.08 -4.19,-7.16 -2.92,-4.61 -12.8,-16.16 -12.83,-20.49 -0.1,-13.07 3.75,-14.58 4.3,-22.5"/>
   <path class="fil3" d="M232.59 471.52c0.78,-2.04 2.13,-4.33 4.13,-5.69 0.43,-0.04 1.31,-0.09 3.17,3.83 1.52,3.21 3.97,10.51 3.67,14.27 -0.06,0.7 14.63,32.8 -15.85,16.87 -0.7,-0.37 -2.31,0.59 -1.95,1.73 1,3.19 -0.26,10.14 -9.01,11.62 -3.93,0.66 -9.65,0.54 -8.91,3.8 1.86,8.22 -11.67,25.65 -20.68,24.32 -11.12,-1.64 -7.2,-7.59 -7.14,-30.29 0.03,-9.7 1.82,-18.21 -2.94,-26.57 -1.08,-1.89 -6.21,-10.69 -6.32,-11.7 -0.33,-3.18 6.44,-1.28 8.79,-0.38 5.96,2.28 6.81,5.9 17.66,5.9 11.58,0 17.94,-7.31 31.71,-0.22 2.93,1.51 2.38,-4.14 3.67,-7.49z"/>
   <path class="fil9 str1" d="M173.04 475.66c0.24,-0.22 2.24,-0.24 4.32,0.66 4.89,2.12 10.55,6.19 10.55,8.08 0,3.36 -7.15,11.98 -8.43,6.83 -0.43,-1.7 -2.12,-5.13 -3.04,-6.57 -0.6,-0.94 -4.65,-7.74 -3.4,-9z"/>
   <path class="fil13 str0" d="M223.62 500.43c-2.29,-3.66 -9.37,-5.05 -13.18,-3.61 -6.53,2.47 -10.88,10.54 -5.76,15.64 9.4,9.36 24.91,-2.52 18.94,-12.03z"/>
   <path class="fil13 str0" d="M233.37 491.6c-4.05,1.06 -6.37,6.06 -3.43,10.32 5.05,7.3 19.29,4.47 17.4,-3.94 -1.03,-4.59 -7.57,-8.06 -13.97,-6.38z"/>
   <path class="fil3" d="M215.91 501.92c0.39,4.56 6.19,0.91 3.78,-1.42 -1.38,-1.34 -3.91,-0.1 -3.78,1.42z"/>
   <path class="fil3" d="M236.77 497.66c3.73,2.64 4.7,-4.14 1.36,-3.81 -1.91,0.19 -2.6,2.92 -1.36,3.81z"/>
   <path class="fil9" d="M192.18 562.04c-0.47,0.23 -12.58,-3.54 -12.85,-2.91 -12.66,29.6 2.14,52.11 15.38,68.14 1.14,1.39 2.16,3.19 3.65,4.16 1.68,1.08 2.25,-1.32 1.54,-2.75 -0.1,-0.2 -1.36,-2.12 0.07,-0.42 0.31,0.38 1.54,1.23 2.61,0.85 2.26,-0.83 1.02,-3.42 0.19,-4.53 -1.8,-2.41 -0.1,-0.61 0.5,0.05 0.37,0.4 1.37,1.46 2.26,0.37 0.71,-0.88 0.67,-2.32 0.3,-3.84 -0.37,-1.5 -2.71,-4.88 -3.9,-6.92 -2.65,-4.53 -12.9,-15.3 -13.18,-19.55 -1.04,-15.99 3.43,-17.46 3.43,-32.65z"/>
   <path class="fil3 str1" d="M176.28 562.42c0.14,-0.5 1.93,2.8 2.49,4.46 1.01,2.98 1.07,10.56 3.21,13.33 5.55,7.22 8.06,21.8 7.49,30.58 -0.21,3.24 -0.92,9.85 -6.04,1.61 -2.34,-3.78 -5.94,-10.4 -8.09,-19.89 -2.29,-10.1 -1.78,-23.74 0.94,-30.09z"/>
   <path class="fil3 str1" d="M240.68 544c-3.33,4.22 -5.14,5.67 -9.25,9.41 -2.1,1.91 0.3,23.87 3.28,26.93 4.66,4.81 9.74,1.44 11.94,3.82 7.9,8.55 0.93,12.12 -3.72,22.65 -3.39,7.69 0.5,24.58 6.15,21.1 3.22,-1.99 5.46,-6.42 6.56,-10 0.56,-1.82 1.55,-3.06 7.96,0.8 8.58,5.17 19.04,7.3 28.33,4.02 24.92,-8.8 30.48,-39.39 29.7,-51.35 -0.16,-2.48 -0.86,-2.25 -1.9,-1.69 -0.99,0.53 -6.13,-2.98 -6.91,-2.72 -2.06,0.71 -2.03,2.11 -2.24,6.39 -0.33,6.89 -2.83,12.8 -4.47,16.73 -3.61,8.67 -7.19,12.18 -13.27,16.86 -7.61,5.84 -12.03,4.6 -19.38,3.24 -3.83,-0.71 -11.08,-2.75 -13.28,-4.7 -1.7,-1.51 0.87,-1.78 0.78,-7.45 -0.15,-10.19 -4.2,-19.35 -6.16,-26.98 -0.21,-0.83 5.73,2.97 13.44,-13.07 1.96,-4.08 4.55,-9.47 1.58,-10.5 -4.77,-1.65 6.4,-11.05 -0.85,-10.49 -5.33,0.42 -6.09,15.39 -18.15,19.88 -2.8,0.65 -8.22,-15.31 -10.14,-12.88z"/>
   <path class="fil5 str6" d="M215.13 522.05c3.72,0.2 9.18,0.8 13.36,-3.22 1.63,-1.56 3.42,-5.99 1.72,-8.41 -0.44,-0.63 0.25,-1.36 1.32,1.98 2.02,6.3 11.58,2.31 12.35,-0.74"/>
  </g>
  <g id="_2860449207280">
   <g>
    <path class="fil23 str0" d="M534.13 913.04c1.91,-1.41 5.76,-4.19 3.47,0.71 -0.8,1.7 -2.23,3.77 -2.91,5.48 -1.04,2.61 -0.63,4.21 2.17,1.72 3.59,-3.17 10.36,-10.92 7.68,-1.85 -1.37,4.63 2.73,0.41 4.16,-2.14 1.35,-2.4 1.77,0.03 2.59,2.19 0.45,1.19 1.17,1.74 2.17,0.57 2.49,-2.91 6.29,-16.66 8.45,-23.81 1.18,-3.91 3.48,-7.29 -3.9,-8.79 -13.59,-2.77 -27.14,21.71 -31.52,30.78 -4.03,8.35 3.94,-2.14 7.64,-4.86z"/>
    <path class="fil6 str0" d="M589.62 810.79c7.33,-9.38 21.64,-7.68 26.24,-3.48 5.64,5.15 6.26,13.02 5.89,19.73 -0.45,8.14 5.9,4.57 10.42,17.05 19.66,54.16 -58.9,72.07 -88.23,43.61 -6.18,-5.99 13.38,-27.19 30.93,-38.6 7.35,-4.78 15.53,-8.03 19.17,-9.14 5.25,-1.61 3.16,-5.82 0.28,-7 -10.78,-4.43 -8.14,-17.77 -4.7,-22.17z"/>
    <path class="fil7 str0" d="M584.94 838.83c-18.18,3.08 -57.96,43.49 -63.95,52.08 -5.99,8.59 -6.26,12.03 -0.97,9.84 18.45,-7.64 45.33,-5.07 63.27,-18.87 27.83,-21.41 11.16,-44.66 1.65,-43.05z"/>
    <path class="fil5 str0" d="M576.49 900.37c0.42,1.01 20.99,23.4 23.51,20.12 0.18,-0.23 11.97,-10.76 14.76,-6.06"/>
    <path class="fil5 str0" d="M608.95 910.57c-4.8,-1.86 -9.9,6.74 -9.67,9.28"/>
    <path class="fil5 str0" d="M602.07 910.08c-4.66,0 -3,7.71 -3.75,9.86"/>
    <path class="fil5 str0" d="M610.47 895.13c0.26,2.54 16.26,18.36 19.9,21.02 1.46,1.06 1.42,1.95 2.51,-0.33 0.33,-0.7 6.55,-16.09 10.33,-9.33"/>
    <path class="fil5 str0" d="M631.53 916.92c-3.98,-0.91 -9.35,-3.15 -8.31,1.9"/>
    <path class="fil5 str0" d="M637.95 902.94c-5.43,-2.8 -3.18,7.98 -6.36,13.7"/>
    <path class="fil5 str0" d="M645.98 912.17c-0.49,-2.12 -2.13,-2.61 -2.7,-2.61 -2.36,0 -9.19,6.98 -11.16,7.54"/>
    <path class="fil1 str0" d="M589.42 817c0.24,1.34 -0.07,2.81 -0.75,3.82 -1.17,1.73 -2.76,-0.52 -7.06,-0.52 -1.93,0 -2.79,0.16 -4.14,1.52 -3.02,3.04 -1,-3.62 1.53,-4.89 3.45,-1.73 8.29,-2.65 8.39,-2.36 0.69,2.19 1.78,1.05 2.03,2.43z"/>
    <path class="fil12 str0" d="M602.26 813.05c-2.56,1.06 -3.58,1.22 -6.21,2.93 -4.18,2.73 4.34,4.42 8.59,2.34 5.02,-2.46 0.41,-6.42 -2.38,-5.27z"/>
    <ellipse class="fil3" cx="601.3" cy="814.39" rx="1.58" ry="1.69"/>
    <path class="fil24" d="M597.77 833.69c1.52,0.42 20.74,-1.24 22.7,-14.09 0.1,-0.64 0.43,10.3 0.61,11.12 0.47,2.22 7.95,6.51 9.94,12.04 0.67,1.87 -4.64,8.21 -6.29,9.02 -4.64,2.28 -16.81,-6.09 -21.57,-8.86 -1.49,-0.86 -6.31,-2.34 -5.48,-3.96 2.3,-4.5 -2.53,-6 0.09,-5.27z"/>
    <path class="fil25" d="M596.97 839.44c-1.02,0.97 -2.93,0.96 -2.37,1.74 5.34,7.47 21.09,21.04 29.38,23.99 7.16,2.53 10.05,-1.7 10.38,-5.19 0.21,-2.12 -2.64,-18.77 -3.66,-17.62 -1.87,2.11 -3.54,8.85 -8.57,8.61 -5.08,-0.24 -23.81,-12.8 -25.16,-11.53z"/>
    <path class="fil23" d="M559.09 854.68c-2.85,13.83 10.22,23.49 22.8,24.6 6.32,0.56 0.37,3.2 -1.41,3.47 -16.47,2.45 -32.1,-15.37 -22.48,-28.04 0.24,-0.32 1.33,-1.22 1.09,-0.03z"/>
    <path class="fil23" d="M548.91 863.79c-2.58,12.52 9.25,21.27 20.63,22.27 5.72,0.51 0.34,2.9 -1.28,3.13 -14.9,2.22 -29.04,-13.9 -20.34,-25.36 0.22,-0.3 1.21,-1.11 0.99,-0.04z"/>
    <path class="fil5 str0" d="M598.57 810.9c4.5,-5.22 7.19,-4.88 11.67,1.32"/>
    <path class="fil23" d="M517.47 898.91c-0.38,1.5 -0.57,1.72 0.71,1.35 3.19,-0.94 10.33,-3.35 13.47,-4.03 1.8,-0.39 10.86,-1.66 10.79,-2.1 -0.16,-0.93 -2.19,-1.15 -3.37,-1.67 -8.54,-3.77 -4.63,-9.08 -4.63,-14.89 -3.63,2.71 -15.59,15.97 -16.97,21.34z"/>
   </g>
   <g>
    <path class="fil16 str6" d="M648.57 1033.28c1.02,3.9 5.31,7.83 8.95,9.38 1.16,0.49 -0.05,1.98 -2.18,1.11 -0.25,-0.11 -1.76,-0.76 -2.88,-1.06 -1.58,-0.41 -1.6,-0.41 -1.15,1.2 0.52,1.86 1.48,3.44 0.77,3.59 -0.28,0.05 -1.92,-0.96 -2.94,-1.82 -2.26,-1.91 -1.71,-2.88 -2.58,0.09 -0.58,1.96 -3.68,4.1 -3.24,2.15 2.28,-10.26 -2.67,-11.6 -6.04,-18.15 -1.53,-2.97 3.33,-4.94 5.66,-4.7 1.95,0.2 5.12,6.25 5.63,8.21z"/>
    <path class="fil16 str6" d="M510.28 1011.92c-10.31,6.01 -16.78,-5.66 -11.38,-9.55 1.79,-1.28 5.25,-3.98 0.34,-2.53 -7.56,2.24 -8.31,10.21 -3.61,16.1 2.68,3.35 7.05,4.65 10.64,6.38 6.42,3.08 9.62,7.44 18.52,13.08 4.67,2.96 -12.66,11.91 -13.91,13.17 -4.63,4.67 5.28,8.21 4.77,18.58 -0.01,0.21 0,4.93 0.75,7.06 0.35,1.01 1.35,1.32 1.74,0.52 1.72,-3.53 -0.87,-5.94 1.37,-6.77 1.31,-0.49 2.91,6.52 4.15,6.07 0.63,-0.23 1.68,-3.82 -0.53,-6.93 -0.44,-0.62 0.7,-2.05 3.92,2.71 1.78,2.63 3.06,-1.75 -0.18,-4.46 -0.98,-0.81 -3.2,-12.72 -2.67,-13.68 1.18,-2.15 12.66,-11.97 14.86,-11.12 19.68,7.58 80.78,19.6 111.04,-18.64 7.06,-8.91 12.54,-19.04 24.06,-19.04 2.64,0 15.2,1.08 16.09,-1.74 1.84,-5.85 -2.2,-5.73 1.67,-10.01 0.84,-0.93 0.61,-9.58 -1.98,-10.75 -0.07,-0.03 -11.81,-2.88 -13.51,-4.29 -2.66,-2.21 -18.76,-2.76 -24.11,4.23 -10.03,13.12 -31.93,20.78 -39.97,24.44 -25.15,11.45 -101.8,7.01 -102.07,7.17z"/>
    <path class="fil5 str7" d="M675.18 985.89c0,1.84 -1.84,2.9 -3.63,2.87 -2.03,-0.03 -4.55,0.26 -5.5,-1.95 -0.81,-1.89 0.42,-3.81 2.34,-4.23 1.58,-0.35 5.79,0.1 6.38,2.04 0.11,0.34 0.41,1.06 0.41,1.27z"/>
    <path class="fil5 str7" d="M670.72 984.74c0,1.8 1.05,2.62 1.33,1.22 0.08,-0.37 0.24,-1.17 -0.18,-1.42 -0.28,-0.17 -1.02,-0.25 -1.15,0.2z"/>
    <path class="fil26 str7" d="M666.33 985.9c1.01,-0.28 3.3,-1.15 4.88,-1.16 2.48,-0.02 4.01,1.16 3.97,1.05 -0.1,-0.02 0.44,-1.05 -1.1,-2.06 -2.56,-1.69 -7.13,-2.02 -8.04,1.54 -0.16,0.62 -0.3,0.79 0.29,0.63z"/>
    <path class="fil5 str7" d="M664.08 987.33c0,2.5 2.57,4.73 5.35,3.74"/>
    <path class="fil5 str7" d="M664.34 983.03c0.81,-2.02 2.34,-2.97 4.45,-2.55"/>
    <path class="fil5 str7" d="M663.08 981.41c-0.28,-0.89 1.49,-2.87 3.24,-2.28"/>
    <path class="fil5 str7" d="M670.99 998.12c0.47,-0.17 0.71,-0.3 1.07,-0.66 0.25,-0.25 0.42,-0.51 0.75,-0.69 0.58,-0.32 0.33,0.66 0.93,0.91 0.8,0.32 1.39,-0.91 1.53,-1.46 0.23,-0.84 1.13,1.12 1.47,1.32 0.9,0.52 11.32,-0.32 13.57,-1.74"/>
    <path class="fil5 str7" d="M686.67 985.86c0.67,-1.74 -1.35,-3.18 -2.97,-3.29 -1.98,-0.13 -1.71,3.31 1.74,1.5 0.24,-0.12 0.7,-0.07 1,-0.07"/>
    <g>
     <path class="fil14 str8" d="M507.47 1008.78c12.94,23.97 74.65,32.7 99.42,25.37 12.82,-3.8 39.29,-20.06 40.69,-35.11 0.2,-2.14 3.15,-3.36 -0.23,-6.17 -21.83,-18.13 -42.79,-47.22 -73.53,-43.85 -33.64,3.69 -40.53,33.45 -66.35,59.76z"/>
     <path class="fil26 str8" d="M648.05 993.88c-7.91,33.11 -46.74,48.47 -84.55,41.38 -20.87,-3.91 -42.44,-10.84 -56.4,-25.67 -2.02,-2.14 5.13,-6.09 7.48,-7.97 5.44,-4.33 15.24,3.26 16.63,10.95 0.62,3.46 -1.5,11.36 -2.68,12.16 -0.04,0.03 -0.14,1.37 1.33,-1.63 0.63,-1.29 2.77,-6.91 6.26,-8.69 3.1,-1.59 10.28,-1.2 13.64,-0.46 7.53,1.66 13.51,7.2 13.87,15.28 0,0.02 -0.35,6.66 -0.09,4.88 0.26,-1.75 2.73,-8.34 3.78,-9.83 5.98,-8.52 19.95,-7.25 27.13,-2.16 3.31,2.35 3.82,5.75 4.56,7.95 0.1,0.31 1.37,6.47 1.27,3.78 -0.01,-0.05 -0.34,-3.72 -0.34,-4.49 0.03,-5.98 0.74,-8.4 5.24,-13.1 4.8,-5.01 14.63,-3.33 18.83,-1.52 1.52,0.65 5.58,5.66 5.65,5.66 0.01,-2.91 -2.9,-2.38 -3.01,-8.51 -0.11,-6.01 2.33,-11.51 4.29,-13.75 1.76,-2.01 10.38,-8.25 17.11,-4.26z"/>
     <path class="fil27 str8" d="M641.61 988.98c-3.41,-1.73 -28.75,-38.35 -65.89,-40.26 -28.94,-1.49 -61.36,52.48 -60.48,52.44 3.41,-0.17 12.19,1.67 14.67,-6.11 0.9,-2.83 -0.76,-5.23 -3.2,-7.55 -2.8,-2.68 0.02,-0.12 3.29,1.2 5.37,2.17 13.57,0.25 16.69,-4.7 2.96,-4.68 2.5,-8.6 1.03,-13.09 -0.85,-2.61 -8.86,-11.2 -1.25,-3.49 7.75,7.83 24.14,12.61 28.47,-1.13 0.57,-1.84 -0.07,-16.13 1.66,-17.01 0.3,-0.15 -0.99,5.7 -0.95,6.33 0.48,6.8 3.39,15.4 10.51,17.52 12.15,3.61 19.4,-3.77 22.23,-12.39 1.08,-3.29 -0.41,2.69 -0.59,3.17 -2,5.6 -3.91,12.43 -0.48,15.27 10.78,8.92 18.58,-4.15 19.73,-3.84 1.85,0.5 -10.05,6.4 -2.47,14.31 3.27,3.42 10.87,4.8 18.65,3.18 1.87,-0.39 1.5,-2.26 -1.62,-3.85z"/>
     <path class="fil5 str6" d="M506.33 1008.44c12.94,23.97 74.65,32.7 99.41,25.37 12.83,-3.8 39.3,-20.06 40.7,-35.11 0.19,-2.14 3.15,-3.36 -0.23,-6.17 -21.83,-18.13 -42.8,-47.22 -73.53,-43.85 -33.64,3.69 -40.53,33.45 -66.35,59.76z"/>
     <path class="fil5 str6" d="M507.16 1008.39c2.73,-2.34 5.09,-4.11 7.84,-6.29 5.44,-4.34 15.24,3.25 16.63,10.94 0.62,3.46 -1.5,11.36 -2.68,12.17 -0.04,0.02 -0.14,1.36 1.32,-1.63 0.64,-1.3 2.78,-6.91 6.27,-8.7 3.1,-1.58 10.28,-1.19 13.63,-0.45 7.54,1.65 13.52,7.19 13.88,15.27 0,0.03 -0.36,6.67 -0.09,4.89 0.26,-1.76 2.73,-8.34 3.77,-9.83 5.99,-8.52 19.96,-7.25 27.14,-2.17 3.31,2.35 3.82,5.76 4.55,7.95 0.11,0.32 1.37,6.47 1.27,3.78 0,-0.05 -0.34,-3.72 -0.33,-4.49 0.03,-5.98 0.74,-8.39 5.24,-13.1 4.8,-5.01 14.63,-3.33 18.83,-1.52 1.51,0.66 5.12,5.14 5.19,5.14 0.01,-2.91 -2.44,-1.86 -2.55,-7.99 -0.11,-6.01 2.33,-11.51 4.29,-13.74 1.76,-2.01 10.06,-6.71 16.78,-2.72"/>
     <path class="fil5 str6" d="M523.24 1001.82c3.42,-1.27 5.59,-2.12 6.52,-7.22 0.53,-2.92 -0.76,-5.22 -3.2,-7.55 -2.8,-2.68 0.02,-0.12 3.29,1.2 5.37,2.18 13.57,0.25 16.69,-4.69 2.96,-4.69 2.5,-8.6 1.03,-13.09 -0.85,-2.62 -8.86,-11.2 -1.25,-3.5 7.75,7.84 24.14,12.61 28.46,-1.13 0.58,-1.84 -0.06,-16.13 1.67,-17 0.3,-0.16 -0.99,5.7 -0.95,6.32 0.48,6.81 3.39,15.4 10.51,17.52 12.15,3.62 19.4,-3.76 22.23,-12.38 1.08,-3.3 -0.41,2.68 -0.59,3.17 -2,5.6 -3.91,12.43 -0.48,15.26 10.78,8.93 18.58,-4.15 19.73,-3.84 1.85,0.51 -10.05,6.4 -2.47,14.31 3.71,3.88 12.2,6.8 20.92,3.74"/>
     <path class="fil5 str6" d="M528.33 987.98c6.12,7.55 12.63,17.78 7.34,27.63"/>
     <path class="fil5 str6" d="M547.14 968.45c8.68,8.99 13.89,32.06 11.24,49.8"/>
     <path class="fil5 str6" d="M579.52 968.04c-6.65,18.1 -4.37,45.58 -2.68,50.79"/>
     <path class="fil5 str6" d="M601.01 971.15c2.77,14.2 -5.07,35.88 -11.09,48.84"/>
     <path class="fil5 str6" d="M623.15 979.04c-11.71,11.25 -11.34,27.83 -10.74,34.72"/>
    </g>
    <path class="fil16" d="M618.61 1034.44c4.03,2.25 13.79,1.42 13.99,6.27 0.24,6.01 1.33,17.59 7.36,20.89 0.76,0.41 8.74,3.2 3.61,3.42 -1.6,0.07 -3.78,-0.16 -2.53,0.9 1,0.85 4.48,2.91 3.92,3.84 -0.88,1.44 -7.19,-3.5 -7.19,-0.23 0,0.91 0.53,6.13 -1.4,3.11 -1.68,-2.62 -1.47,-6.08 -3.31,-6.81 -4.93,-1.95 -8.64,-8.69 -10.79,-12.56 -1.46,-2.64 -2.74,-4.83 -6.32,-4.51 -12.73,1.15 -22.91,-4.01 -26.31,-6.93 -1.78,-1.52 30.51,-5.14 28.97,-7.39z"/>
    <path class="fil5 str6" d="M618.52 1034.8c4.03,2.25 13.79,1.42 13.99,6.27 0.24,6.01 1.33,17.58 7.36,20.88 0.76,0.42 8.74,3.21 3.61,3.43 -1.6,0.07 -3.78,-0.16 -2.53,0.9 1,0.85 4.49,2.91 3.92,3.83 -0.88,1.45 -7.19,-3.49 -7.19,-0.22 0,0.91 0.53,6.13 -1.4,3.11 -1.68,-2.62 -1.46,-6.08 -3.31,-6.81 -4.93,-1.95 -8.64,-8.69 -10.79,-12.56 -1.46,-2.64 -2.74,-4.83 -6.32,-4.51 -12.73,1.15 -22.91,-4.01 -26.31,-6.93"/>
   </g>
  </g>
  <g id="_2860449211264">
   <path class="fil10 str6" d="M277.65 890.48c-0.36,-1.42 0.43,-1.4 2.2,-1.01 9.12,2.03 10.92,4.02 16.35,9.15 2.39,2.27 -12.93,4.64 -14.05,4.63 -2.28,-0.02 -4,-10.86 -4.5,-12.77z"/>
   <path class="fil10 str6" d="M267.57 1023.15c-3.92,2.77 -47.8,19.39 -55.63,20.51 -11.3,1.62 -14.01,3.9 -40.3,1.3 -1.57,-0.16 -3.98,-0.34 -4.66,-1.86 -0.92,-2.03 -2.3,-6.38 -6.34,-8.49 -9.14,-4.76 -8.83,3.32 -8.08,4.43 2.01,2.98 2.7,1.37 3.91,2.58 1.06,1.06 -2.4,2.59 -4.3,1.23 -2.54,-1.81 -8.67,1.27 -6.44,7.29 1.09,2.94 6.22,4.22 7.37,1.89 0.82,-1.66 2.35,2.31 -1.46,3.35 -3.57,0.98 -2.65,11.24 7.84,5.87 5.07,-2.59 1.5,-3.79 11.17,-3.9 18.89,-0.22 61.3,2.66 80.84,8.62 99.9,30.47 53.64,-69.42 16.08,-42.82z"/>
   <path class="fil10 str6" d="M316.18 900.24c-11.1,-2.46 -16.66,-4.59 -27.07,-0.98 -11.52,3.98 -26.83,12.19 -23.71,27.53 2.88,14.17 16.76,19.89 28.25,24.58 0.75,0.31 -5.79,6.03 -9.55,13.21 -2.76,5.28 -2.67,13.35 -2.69,13.34 -0.05,-0.04 -10.36,-11.23 -15.63,-16.93 -3.95,-4.27 -14.47,-23.11 -14.52,-23.12 -3.9,-11.23 -17.29,-19.65 -22.76,-33.86 -0.9,-2.33 -0.99,-4.93 1.38,-8.63 2.9,-4.53 -6.56,-14.62 -12.36,-6.25 -0.82,1.18 -0.08,3.33 1,5.75 0.61,1.35 1.79,1.33 -0.2,2.52 -0.62,0.38 -4.36,-5.55 -8.83,-2.94 -1.74,1.03 -3.94,3.56 -2.89,6.22 1.45,3.67 7.32,1.06 6.71,3.92 -0.3,1.41 -0.55,1.02 -1.75,1.04 -7.73,0.13 -4.07,11.42 1.58,8.43 5.87,-3.11 8.23,2.17 9.13,7.69 0.04,0.26 5.5,14.24 9.37,15.14 2.5,1.21 9.12,0.21 10.59,7.48 3.62,17.81 16.4,79.99 46.89,104.06 2.98,2.35 18.41,6.27 9.87,5.75 -22.2,-1.37 -47.01,-44.89 -57.86,-55.75 -47.38,-47.38 -70.22,6.53 -54.74,18.72 14.92,11.75 21.41,-4.49 17.87,-7.51 -3.22,-2.74 -8.63,-5.15 -7.7,-9.75 1.93,-9.59 16.58,-8.32 21.4,-5.65 9.98,5.5 18.99,14.4 25.02,24.06 14.88,23.88 20.92,51.81 59.23,56.26 33.65,3.91 54.44,-11.22 59.77,-34.7 10.11,-44.53 -4.95,-74.94 -9.25,-92.23 -3.82,-15.38 -19.67,-32.72 -19.46,-35.28 0.06,-0.77 -0.89,-10.19 -2.02,-13.92 -0.01,-0.03 -2.14,-8.92 -4.68,-5.93 -0.88,1.03 -9.13,8.01 -10.39,7.73z"/>
   <path class="fil5 str6" d="M281.56 977.9c8.18,10.28 22.49,13.98 30.94,15.96 11.71,2.74 20.67,13.98 16.57,25.93"/>
   <path class="fil5 str6" d="M314.11 965.53c-8.22,2.94 -16.27,15.42 -16.27,23.8"/>
   <path class="fil5 str6" d="M294.33 951.25c5.73,-8.77 22.59,-18.45 33.54,-15.26"/>
   <path class="fil5 str6" d="M295.32 936.79c-5.51,-10.93 -9.14,-7.12 -9.37,-8.43 -0.24,-1.36 -0.41,-2.68 -0.22,-3.25 0.27,-0.86 -0.17,-1 -0.55,-0.03 -0.41,1.07 -1.04,3.33 -2.18,3.49 -1.82,0.25 -4.82,1.46 -6.31,5.61"/>
   <path class="fil13 str6" d="M268.48 913.41c0.86,-0.41 2.15,1.41 3.03,1.72 3.96,1.37 8.11,0.89 9.67,3.41 1.43,2.31 -15.65,8.31 -15.68,7.04 -0.21,-7.96 0.76,-9.89 2.98,-12.17z"/>
   <path class="fil13 str6" d="M296.72 921.89c1.88,2.83 5.01,3.37 8.39,2.98 1.97,-0.23 7.86,-1.12 10.41,-2.77 2.22,-1.44 0.84,-0.62 -0.87,-1.58 -2.88,-1.62 -4.79,-5.52 -8.86,-6.72 -7.07,-2.08 -13.92,3.89 -13.46,4.03 3.09,0.94 2.79,1.65 4.39,4.06z"/>
   <path class="fil3 str6" d="M297.8 920.93c0,0.42 0.36,1.78 0.92,1.78 1.19,0 1.63,-0.74 1.98,-1.76 0.15,-0.43 0.51,-3.84 -0.21,-3.84 -2.46,0 -2.69,2.4 -2.69,3.82z"/>
   <path class="fil3 str6" d="M269.92 919.78c-0.49,0.3 -1.34,2.27 -1.31,2.98 0.1,2.38 0.94,1.99 1.76,1.79 1.46,-0.38 3.08,-2.63 1.78,-4.56 -0.62,-0.92 -1.41,-0.82 -2.23,-0.21z"/>
   <path class="fil28" d="M351.66 1013c-8.58,1.08 -19.79,3.15 -18.74,-7.82 0.51,-5.3 9.76,-5.62 17.8,-5.63 3.09,-0.01 13.19,-2.09 13.29,0.45 0.13,3.11 0.48,5.92 0.15,7.79 -0.47,2.76 -2.79,3.98 -12.5,5.21z"/>
   <path class="fil29" d="M350.08 985.98c-8.61,0.84 -19.74,3.42 -18.84,-7.57 0.66,-7.98 19.05,-7.62 25.55,-6.53 3.25,0.55 3.34,6.02 3.98,9.61 0.42,2.33 -2.44,3.69 -10.69,4.49z"/>
   <path class="fil28" d="M354.99 1038.61c-8.52,-1.36 -16.26,1.02 -14.52,-7.81 1.55,-7.85 9.76,-4.3 16.34,-3.96 1.74,0.09 6.41,1.73 5.61,4.51 -2.65,9.18 1.4,8.67 -7.43,7.26z"/>
   <path class="fil28" d="M352.85 956.03c-8.51,1.48 -22.05,7.07 -21.56,-3.93 0.36,-8 7.48,-4.17 14,-5.06 1.72,-0.23 5.41,-3.43 5.88,-0.86 0.79,4.29 3.61,9.52 1.68,9.85z"/>
   <path class="fil28" d="M286.09 906.39c-0.15,3.21 -0.11,7.44 -3.56,6.58 -2.51,-0.62 -0.71,-6.67 -0.52,-9.12 0.05,-0.64 1.33,-1.23 2.32,-1.69 1.43,-0.39 1.84,-0.88 1.97,-0.53 0.17,0.43 -0.08,1.79 -0.21,4.76z"/>
   <path class="fil28" d="M295.09 905c0.06,3.3 0.65,8.25 -3.24,7.35 -2.82,-0.66 -1.58,-8.06 -1.41,-10.81 0.04,-0.73 -0.3,-1.51 0.62,-1.73 1.51,-0.37 2.72,-1.04 3.35,-0.83 0.8,0.28 0.6,2.04 0.68,6.02z"/>
   <path class="fil28" d="M303.66 903.41c-0.14,3.21 -0.11,7.44 -3.56,6.58 -1.33,-0.43 -1.31,-7.91 -1.13,-10.35 0.05,-0.65 -0.12,-1.35 0.72,-1.29 3.65,0.09 4.21,-0.23 3.97,5.06z"/>
   <path class="fil28" d="M323.66 904.78c-1.26,-0.74 -3.27,-2.34 -1.59,-4.84 1.69,-2.51 4.86,-6.7 4.21,-0.99 -0.09,0.73 -1.7,6.38 -2.62,5.83z"/>
   <path class="fil28" d="M271.6 979.85c2.12,-1.56 5.25,-5.34 6.56,-3.66 0.88,1.12 1.26,1.66 2.48,2.81 2.97,2.87 -5.46,6.7 -7.89,8.36 -0.65,0.44 -4.15,-0.01 -4.72,-0.85 -2.24,-3.28 -1.57,-2.92 3.57,-6.66z"/>
   <path class="fil28" d="M280.97 989.93c2.46,-2.74 4.32,-6.47 6.41,-4.85 1.03,0.8 3.3,1.69 4.75,2.98 3.23,2.87 -7.16,9.47 -10.62,11.68 -1.66,1.06 -4.31,0.59 -5.07,-0.61 -1.97,-3.13 -1.39,-2.61 4.53,-9.2z"/>
   <path class="fil28" d="M290.99 1000.28c2.3,-3.33 4.38,-8.14 7.1,-8.92 1.48,-0.42 4.66,1.17 6.92,1.77 4.85,1.29 -8.81,13.81 -11.64,17.65 -0.75,1.02 -2.95,2.56 -4.27,1.59 -5.25,-3.86 -3.93,-3.65 1.89,-12.09z"/>
   <path class="fil28" d="M265.17 970.58c1.35,-0.98 3.22,-2.98 4.49,-3.17 0.9,-0.14 1.48,1.27 2.67,2.41 2.2,2.14 -4.5,5.1 -6.31,6.34 -0.48,0.32 -3.08,-0.01 -3.5,-0.63 -1.67,-2.44 -1.17,-2.17 2.65,-4.95z"/>
   <path class="fil28" d="M243.42 1041.08c-0.38,-3.84 -1.73,-6.38 3.38,-7.79 4.1,-2.48 3.47,7.67 3.67,10.61 0.05,0.78 -2.11,3.57 -3.12,3.64 -3.96,0.27 -3.31,-0.13 -3.93,-6.46z"/>
   <path class="fil28" d="M234.28 1043.26c-0.25,-2.21 -0.74,-5.05 -0.23,-5.32 0.77,-0.4 1.76,-0.89 3.25,-1.34 1.71,-0.55 2.08,6.57 2.22,8.75 0.04,0.58 -1.57,2.65 -2.32,2.7 -2.94,0.2 -2.46,-0.1 -2.92,-4.79z"/>
   <path class="fil28" d="M166.01 1052.75c-0.39,2.54 -3.47,1.38 -4.84,0.23 -2.15,-1.78 -3.03,-2.85 -0.85,-6.15 1.99,-2.99 8.54,-1.11 5.72,0.63 -5.47,3.38 0.57,1.48 -0.03,5.29z"/>
   <path class="fil28" d="M150.04 1049.14c1.17,0.37 3.65,0.03 3.65,-1.82 0,-3.94 -8.19,0.37 -3.65,1.82z"/>
   <path class="fil28" d="M155.46 1059.36c1.22,-0.07 3.41,-1.3 2.74,-3.01 -1.43,-3.68 -7.49,3.31 -2.74,3.01z"/>
   <path class="fil28" d="M156.69 1038.45c0.55,1.1 2.52,2.64 3.84,1.35 2.83,-2.75 -5.97,-5.61 -3.84,-1.35z"/>
   <path class="fil5 str0" d="M207.31 910.43c-1.56,-0.73 -4.62,-1.72 -4.06,1.78"/>
   <path class="fil5 str0" d="M207.92 895.57c-1.23,-1.2 -3.8,-3.15 -4.42,0.34"/>
   <path class="fil5 str0" d="M220.76 885.74c-1.14,-1.27 -3.58,-3.38 -4.42,0.06"/>
   <path class="fil28" d="M184.69 1053.64c-3.83,-0.4 -7.17,-0.28 -8.14,-3.23 -0.75,-2.3 8.6,-0.45 11.52,-0.09 0.77,0.09 3.34,1.69 3.32,2.24 -0.07,2.16 -0.41,1.75 -6.7,1.08z"/>
   <g>
    <path class="fil30 str7" d="M168.49 908.76c-3.75,-1.01 -27.11,15.28 -10.77,11.94 2.55,-0.52 14.31,-7.29 12.22,-9.18 -0.13,-0.12 -1.4,-2.75 -1.45,-2.76z"/>
    <path class="fil3 str7" d="M170.17 908.59c0.37,-2.23 6.77,-7.01 7.32,-3.38 0.98,6.4 1.74,6.15 -5.74,6.44 -1.51,0.05 -1.74,-2.07 -1.58,-3.06z"/>
    <path class="fil9 str7" d="M183.33 897.84c-1.81,-0.69 -3.65,0.2 -4.76,1.52 -1.71,2 -1.74,4.96 2.53,4.78 5.9,-0.25 5.02,-5.23 2.23,-6.3z"/>
    <path class="fil9 str7" d="M185.04 904.93c-1.8,-0.69 -3.64,0.2 -4.76,1.52 -1.7,1.99 -1.73,4.96 2.54,4.78 5.89,-0.25 5.01,-5.23 2.22,-6.3z"/>
    <path class="fil4 str7" d="M171.91 889.48c-0.73,-1.51 -1.56,-3.45 -3.42,-3.77 -3.63,-0.61 -3.6,7.03 -2.15,9.38 1.05,1.71 6.94,11.33 7.62,11 2.16,-1.04 -1.3,-15.04 -2.05,-16.61z"/>
    <path class="fil4 str7" d="M177.5 926.76c0.73,1.51 1.56,3.45 3.42,3.77 3.64,0.61 3.6,-7.03 2.15,-9.38 -1.05,-1.71 -6.93,-11.33 -7.62,-11 -2.16,1.04 1.3,15.04 2.05,16.61z"/>
    <path class="fil3 str7" d="M183.67 908.25c-0.11,0.74 1.25,1.47 1.74,1.02 1.78,-1.66 -1.46,-2.83 -1.74,-1.02z"/>
    <path class="fil3 str7" d="M182.73 901.13c-0.09,0.55 0.92,1.08 1.28,0.74 1.3,-1.21 -1.08,-2.08 -1.28,-0.74z"/>
    <path class="fil5 str7" d="M165.29 909.78c0,2.87 0.34,3.23 2.83,5.07"/>
    <path class="fil5 str7" d="M161.37 911.67c-0.4,2.04 1.87,5.56 3.15,5.56"/>
    <path class="fil5 str7" d="M158.06 913.66c-0.41,2.04 1.86,5.57 3.15,5.57"/>
    <path class="fil5 str7" d="M154.8 916.19c-0.4,2.04 1.42,4.55 2.7,4.55"/>
   </g>
   <path class="fil5 str6" d="M183.73 904.1c0.35,-0.03 6.21,-1.15 7.46,-1.3"/>
  </g>
  <g id="_2860449221728">
   <path class="fil3 str0" d="M1020.03 912.47c5.17,4.23 16.89,17.33 18.18,9.91 0.98,-5.64 2.54,-5.51 -3.38,-12.29 -1.94,-2.22 -8.31,-7.2 -10.81,-8.54 -4.77,-2.57 -13.98,-4.83 -19.62,-2.7 -6.73,2.56 -3.28,1.47 -5.16,9.57 -1.09,4.67 15.79,-0.04 20.79,4.05z"/>
   <path class="fil31 str0" d="M899.77 916.83c-4.13,15.8 -11.52,43.65 -5.7,58.75 2.63,6.8 -9.24,7.95 -12.98,7.1 -9.65,-2.21 -11.48,-3.85 -16.92,-12.29 -6.45,-10.02 2.99,-20.47 0.72,-32.37 -2.74,-14.43 -22.04,-23.82 -33.15,-19.3 -5.37,2.18 -9.23,4.15 -7.73,10.89 1.32,5.93 10.47,4.68 16.8,3.95 8.56,-0.99 9.31,2.07 7.69,10.15 -3.82,19.01 -3.3,25.03 10.92,38.63 12.81,12.24 20.66,10.69 37,10.89 4.23,0.05 6.56,2.83 6.56,6.7 0,9.48 -5.05,17.93 -14.19,21.13 -11.39,3.99 -9.58,5.33 -12.1,13.85 -1,3.36 -2.95,20.4 -1.99,24.52 2.1,9.13 8.38,14.1 12.84,15.45 6.09,1.85 7.01,-5.15 3.19,-8.4 -0.71,-0.6 1.32,0.25 3.03,0.5 5.72,0.82 8.15,-5.31 2.97,-8.22 -1.46,-0.82 -1.12,-1.07 0.22,-1.02 2.67,0.1 6.03,-1.67 -2.43,-7.75 -3.19,-2.28 -3.58,-9.75 -2.5,-14.19 0.54,-2.25 1.12,-2.31 2.78,-3.82 11.61,-10.56 25.22,-9.78 33.83,-24.22 10.01,-16.78 6.29,-26.21 10.38,-33.93 2.08,-3.94 11.45,2.09 15.35,5.35 8.47,7.08 13.82,26.48 12.18,36.86 -1.74,11.06 -6.96,11.54 -1.45,17.39 3.17,3.38 11.67,14.69 15.57,17.68 4.23,3.23 22.59,13.66 27.22,7.38 1.4,-1.9 0.79,-3.65 -2.77,-3.91 -1.37,-0.1 6.07,-1.9 3.01,-6.14 -2.56,-3.53 -8,2.11 -6.14,-2.8 1.08,-2.83 -2.56,-6.41 -6.04,-2.55 -2.59,2.88 -4.28,0.15 -7.91,-2.73 -2.58,-2.05 -5.34,-4.64 -5.37,-7.36 -0.08,-7.61 6.36,-20.35 7.69,-27.81 2.98,-16.74 -0.94,-22.48 -11.27,-36.26 -4.46,-5.94 -4.97,-7.58 -0.33,-12.42 13.3,-13.87 13.08,-33.06 22.55,-45.99 2.16,-2.95 5.2,-8.46 11.93,-9.72 8.68,-1.64 21.42,-9.25 24.79,-16.98 4.89,-11.26 8.7,-47.97 5.09,-47.97 -5.07,0 -11.24,4.88 -12.82,9.78 -0.62,1.9 -2.98,2.11 -5.97,1.56 -15.65,-2.86 -18.79,-9.21 -36.96,-2.68 -3.17,1.14 -2.75,1.73 -4.97,-0.43 -2.84,-2.76 -8.29,-8.34 -12.12,-8.96 -2.66,-0.43 -2.16,1.9 -2.71,5.53 -0.46,3.01 0.4,11.21 1.16,14.52 0.22,0.92 -2.54,1.01 -3.3,1.21 -22.5,5.83 -55.93,23.33 -65.65,60.45z"/>
   <path class="fil5 str0" d="M970.75 879.66c0.85,17.48 28.59,24.64 40.24,21.65"/>
   <g>
    <path class="fil5 str0" d="M1049.54 925.7c-0.06,1.91 -3.71,14.24 -0.22,16.02 0.11,0.05 4.54,-0.29 5.16,1.19 0.08,0.19 0.8,1.13 0.56,2.67"/>
    <path class="fil5 str0" d="M1055.3 927.78c0.49,1.25 2.46,12.09 7.18,13.1 0.31,0.07 2.22,-1.22 2.9,-1.97 0.78,-0.87 4.33,0.57 4.74,1.33"/>
    <path class="fil5 str0" d="M1064.81 940.06c1.18,0.66 2.58,1.59 3.19,2.68"/>
    <path class="fil5 str0" d="M1051.89 941.95c1.04,1.51 0.44,3.84 -0.81,3.87"/>
    <path class="fil5 str0" d="M1049.66 942.17c0.08,1.59 -0.53,2.63 -1.75,2.71"/>
    <path class="fil5 str0" d="M1062.57 940.73c1.73,0.61 2.84,2.48 1.59,3.98"/>
   </g>
   <path class="fil6 str0" d="M1058.25 899.29c0.28,-3.38 2.96,-7.01 6.35,-7.88 4.68,-1.21 11.53,2.55 10.57,7.57 -0.14,0.77 9.2,1.64 11.17,2.46 1.52,0.64 1.02,0.94 -1.49,0.8 -3.87,-0.23 -4.94,-0.36 -8.01,-0.38 -2.2,0 6.06,3.93 6.93,4.36 0.41,0.2 3.25,1.94 0.23,1.07 -1.17,-0.34 -12.03,-4.21 -12.32,-1.7 -0.58,5.1 -5.6,17.51 -13.29,20.46 -7.82,3.01 -14.14,3.18 -19.7,6.21 -10.48,5.72 -18.15,11.57 -28.38,18.28 -2.33,1.53 -3.17,2.3 -0.92,-0.98 1.24,-1.81 3.32,-4.19 3.79,-4.76 1.01,-1.25 3.19,-3.3 0.48,-1.77 -1.22,0.69 -2.84,1.95 -2.79,1.78 0.32,-0.95 2.68,-3.95 4.88,-6.17 3.12,-3.15 1.43,-2.34 -1.19,-0.44 -3.79,2.75 2.51,-4.28 3.17,-5.3 2.49,-3.86 15.94,-15.88 23.58,-24.75 6.61,-7.66 16.72,-6.21 16.94,-8.86z"/>
   <path class="fil5 str0" d="M1053.88 906.65c11.18,4.18 -1.87,15.5 -8.45,16.85"/>
   <path class="fil5 str0" d="M1014.75 943.02c2.65,-3.03 9.12,-9.84 12.62,-10.15"/>
   <path class="fil5 str0" d="M1017.2 936.71c1.26,-1.52 6.56,-6.03 9.52,-6.9"/>
   <g>
    <path class="fil31" d="M982.13 908.84c5.13,10.88 36.27,9.04 46.75,7.75 4.89,-0.6 8.92,-0.79 11.97,-5.23 2.31,-3.34 9.55,-4.45 10.76,1.49 0.99,4.86 -4.32,5.75 -1.41,5.15 7.16,-1.46 10.26,5.2 4.33,8.14 -1.58,0.78 -3.89,1.33 -2.32,3.94 4.34,7.16 -3.5,10.12 -8.5,4.57 -2.5,-2.77 -4.56,-5.92 -11.38,-5.65 -17.59,0.69 -41.03,4.09 -57.02,0.85 -4.82,-0.98 2.53,-18.51 6.82,-21.01z"/>
    <path class="fil5 str0" d="M982.13 908.84c5.13,10.88 36.27,9.04 46.75,7.75 4.89,-0.6 8.92,-0.79 11.97,-5.23 2.31,-3.34 9.55,-4.45 10.76,1.49 0.99,4.86 -4.32,5.75 -1.41,5.15 7.16,-1.46 10.26,5.2 4.33,8.14 -1.58,0.78 -3.89,1.33 -2.32,3.94 4.34,7.16 -3.5,10.12 -8.5,4.57 -2.5,-2.77 -4.56,-5.92 -11.38,-5.65 -17.59,0.69 -41.03,4.09 -57.02,0.85 -4.82,-0.98 -13.44,-14.23 -14.99,-17.95"/>
   </g>
   <path class="fil3 str1" d="M971.65 837.64c2.36,2.09 5.57,5.32 6.76,7.52 2.61,4.82 -8.01,21.28 1.79,27.2 13.91,8.41 17.88,-3.02 17.85,-8.82 -0.01,-3.12 0.63,-4.27 2.73,-3.93 1.09,0.17 1.27,2.39 1.14,3.55 -1.49,13.12 9.41,13.6 14.58,13.73 13.94,0.37 19.91,-16.84 18.33,-24.44 -1.24,-5.94 9.83,-16.32 8.71,-16.44 -3.01,-0.35 -8.06,2.57 -10.72,5.07 -2.31,2.17 -1.36,7.55 -5.94,6.77 -9.93,-1.7 -19.32,-7.48 -31.78,-5.45 -2.88,0.47 -11.7,4.03 -11.98,3.65 -2.1,-2.81 -7.11,-7.84 -10.26,-9.28 -5.48,-2.51 -3.02,-0.73 -1.21,0.87z"/>
   <path class="fil3 str1" d="M976.76 996.73c-4.64,5.17 3.53,18.95 -3.88,18.95 -7.93,0 -7.24,7.96 -9.94,12.86 -1.24,2.25 4.7,6.18 8.51,12.09 1.97,3.05 4.14,5.3 5.13,6.01 1.91,1.35 4.66,2.32 2.44,-0.96 -1.88,-2.77 0.23,-5.87 3.54,-3.15 1.23,1.01 5.24,1.71 5.66,-0.2 0.64,-2.98 -2.54,-1.96 -5.35,-7.43 -3.54,-6.91 9.22,-24.89 8.27,-40.64 -0.4,-6.57 -9.54,-22.13 -13,-26.42 -4.74,-5.88 0.59,13.28 1.17,19.29 0.35,3.57 0.13,6.62 -2.55,9.6z"/>
   <path class="fil30" d="M1003.27 864.6c-0.94,7.54 4.95,10.55 11.28,10.55 13.39,0 18.12,-13.21 7.51,-15.85 -4.21,-1.05 -9.88,-1.49 -14.17,-0.62 -2.61,0.53 -4.29,3.21 -4.62,5.92z"/>
   <path class="fil30" d="M979.81 862.83c-4.48,12.43 19.45,14.39 16.89,1.72 -0.78,-3.86 -13.17,-12.05 -16.89,-1.72z"/>
   <path class="fil3 str1" d="M983.92 863.11c0.25,2.37 4.06,1.81 3.57,-0.43 -0.31,-1.46 -3.57,-2.03 -3.57,0.43z"/>
   <path class="fil3 str1" d="M1007.73 864.97c0.31,3 5.14,2.3 4.52,-0.55 -0.4,-1.84 -4.52,-2.56 -4.52,0.55z"/>
   <path class="fil3" d="M899.77 916.83c-4.13,15.8 -11.52,43.65 -5.7,58.75 2.63,6.8 -9.24,7.95 -12.98,7.1 -9.65,-2.21 -11.48,-3.85 -16.92,-12.29 -6.45,-10.02 2.99,-20.47 0.72,-32.37 -2.74,-14.43 -22.04,-23.82 -33.15,-19.3 -5.37,2.18 -9.23,4.15 -7.73,10.89 1.32,5.93 10.47,4.68 16.8,3.95 8.56,-0.99 9.31,2.07 7.69,10.15 -3.82,19.01 -3.3,25.03 10.92,38.63 12.81,12.24 20.66,10.69 37,10.89 4.23,0.05 6.56,2.83 6.56,6.7 0,9.48 -5.05,17.93 -14.19,21.13 -11.39,3.99 -9.58,5.33 -12.1,13.85 -1,3.36 -2.95,20.4 -1.99,24.52 2.1,9.13 8.38,14.1 12.84,15.45 6.09,1.85 7.01,-5.15 3.19,-8.4 -0.71,-0.6 1.32,0.25 3.03,0.5 5.72,0.82 8.15,-5.31 2.97,-8.22 -1.46,-0.82 -1.12,-1.07 0.22,-1.02 2.67,0.1 6.03,-1.67 -2.43,-7.75 -3.19,-2.28 -3.58,-9.75 -2.5,-14.19 0.54,-2.25 1.12,-2.31 2.78,-3.82 11.61,-10.56 25.22,-9.78 33.83,-24.22 10,-16.78 -8.89,-29.79 -2.02,-35.19 6.07,-4.76 11.51,-21.98 -0.44,-25.33 -10.97,-3.07 12.71,-22.59 5.44,-34.62 -11.81,-19.56 -2.8,-20.7 9.56,-25.38 27.36,-10.37 31.31,-32.28 27.62,-31.49 -22.72,4.87 -59.3,23.96 -69.02,61.08z"/>
   <path class="fil5 str6" d="M989.75 881.5c3.3,0.62 9.08,-2.36 8.94,-6 -0.02,-0.39 0,-1.47 0,-1.96 0,-2.02 1.13,-1.36 0.83,0.16 -0.11,0.51 -0.05,1.86 0.06,2.4 0.82,3.92 4.78,9.48 10.33,7.21"/>
   <path class="fil9 str0" d="M1065.26 900.79c2.5,1.12 5.99,0.45 5.81,-2.46 -0.48,-8.07 -11.92,-0.29 -5.81,2.46z"/>
   <path class="fil3" d="M1066.36 898.09c-1.4,-0.13 -1.98,2.28 -0.18,2.26 0.68,0.19 1.76,-2.1 0.18,-2.26z"/>
  </g>
  <g id="_2860449227392">
   <g>
    <path class="fil1 str6" d="M856.14 678.68c-2.11,0.25 -4.25,0.85 -6.45,1 -2.69,0.18 -5.05,-0.38 -5.82,-1.65 -0.66,-1.08 0.02,-2.93 0.85,-2.96 0.6,-0.02 -0.32,1.37 0.8,0.82 1,-0.49 0.11,-2.76 -1.91,-1.46 -1.31,0.84 -1.87,3.86 0.29,5.42 3.75,2.72 9.24,-0.35 12.35,-0.2 0.04,-0.82 -0.08,-0.97 -0.11,-0.97z"/>
    <path class="fil32 str6" d="M897.59 694.53c-24.76,-8.18 -27.84,1.76 -38.13,-0.43 -13.51,-2.87 -1.9,-29.11 11.75,-36.36 5.58,-2.96 13.92,-2.73 19.03,0.7 10.53,7.08 9.63,6.21 31.18,1.57 20.74,-4.47 25.38,27.25 54.65,10.55 9.34,-5.33 35.19,8.88 44.2,13.28 2.52,1.24 20.62,10.16 29.51,12.08 1.51,0.32 5.31,-0.28 1.01,2.09 -5.45,3 -11.78,-4.04 -19.62,0.21 -10.69,5.79 -9.95,-7.78 -21.87,0.35 -9.05,6.17 -5.54,-9.23 -22.91,1.94 -4.98,3.2 -13.92,-4.56 -23.41,-5.01 -11.41,-0.53 -1.4,10.71 -25.72,1.84 -25.91,-9.45 -14.47,6.28 -36.19,4.4 -12.23,-1.05 -24.98,-2.22 -29.05,-2.41 -2.53,-0.12 1.08,-3.45 6.31,-3 20.5,1.79 21.4,-1.1 19.26,-1.8z"/>
    <path class="fil4 str6" d="M890.2 654.87c2.31,-8.37 1.64,-13.12 0.22,-20.74 -0.09,0.01 4.03,-0.74 4.13,-0.35 1.7,6.25 -1.45,28.22 -10.82,35.75 -1.11,0.89 -1.36,1.24 -1.72,0.23 2.46,-3.82 5.26,-4.26 8.19,-14.89z"/>
    <path class="fil9 str6" d="M883.54 626.15c-0.58,2.68 1.89,6.46 4.56,7.83 6.96,3.57 19.33,2.43 15.81,-6.81 -2.59,-6.78 -11.53,-6.42 -15.27,-5.39 -3.98,1.1 -4.9,3.42 -5.1,4.37z"/>
    <path class="fil3 str6" d="M897.85 627.11c-0.16,0.3 -0.22,0.3 -0.24,0.88 -0.03,0.83 0.28,1.34 0.53,1.56 0.51,0.44 1.18,0.43 1.67,-0.01 0.22,-0.2 0.23,-1.25 -0.15,-1.64 -0.24,-0.25 -1.03,-0.74 -1.28,-0.73 -0.17,0.01 -0.35,-0.37 -0.53,-0.06z"/>
    <path class="fil4 str6" d="M884.15 628.46c2.58,4.1 19.39,-1.34 18.81,-3.04 -0.9,-2.67 -6.58,-4.24 -9.37,-4.24 -5.84,0 -11.18,4.51 -9.44,7.28z"/>
    <path class="fil4 str6" d="M871.66 645.15c-0.92,-8.64 -3.29,-12.82 -7.41,-19.38 -0.07,0.04 3.48,-2.16 3.72,-1.84 3.87,5.19 9,26.78 3.05,37.23 -0.7,1.23 -0.81,1.64 -1.52,0.84 0.89,-4.46 3.33,-5.89 2.16,-16.85z"/>
    <path class="fil9 str6" d="M854.93 620.87c0.44,2.7 4.13,5.32 7.11,5.61 7.79,0.77 18.88,-4.83 12.21,-12.13 -4.89,-5.36 -13.08,-1.75 -16.18,0.58 -3.31,2.48 -3.3,4.98 -3.14,5.94z"/>
    <path class="fil3 str6" d="M869.34 619.38c-0.09,0.3 -0.16,0.33 0.03,0.8 0.27,0.68 0.82,0.96 1.19,1.03 0.76,0.15 1.56,-0.14 1.97,-0.69 0.19,-0.25 -0.18,-1.09 -0.77,-1.25 -0.37,-0.11 -1.49,-0.18 -1.77,-0.07 -0.2,0.08 -0.56,-0.14 -0.65,0.18z"/>
    <path class="fil4 str6" d="M855.53 618.16c4.77,4.07 19.91,-0.34 19.44,-2.08 -0.74,-2.74 -3.4,-4.39 -6.65,-4.49 -3.93,-0.12 -8.67,1.82 -11.17,4.11 -0.29,0.26 -1.9,2.22 -1.62,2.46z"/>
    <path class="fil1 str6" d="M869.79 679.66c2.59,0.55 5.17,1.55 7.87,1.99 3.31,0.54 6.29,0.11 7.4,-1.37 0.94,-1.26 0.31,-3.63 -0.71,-3.76 -0.74,-0.09 0.24,1.73 -1.08,0.92 -1.18,-0.72 0.18,-3.43 2.53,-1.59 1.53,1.19 1.87,5 -0.99,6.68 -4.95,2.93 -11.4,-1.51 -15.26,-1.69 0.04,-1.02 0.21,-1.19 0.24,-1.18z"/>
    <g>
     <path class="fil33 str9" d="M937.83 674.48c-13,-0.87 -33.41,-6.04 -32.63,-22.73 0.04,-0.83 -0.19,-5.91 1.4,-4.86 9.83,6.48 23.66,-6.44 35.17,-11.81 57.97,-27.04 72.66,50.97 27.87,50.78 -19.25,-0.08 -28.38,-4.81 -31.81,-11.38z"/>
     <path class="fil5 str6" d="M937.67 674.5c-13.07,-1.14 -33.05,-6.63 -32.29,-22.74 0.03,-0.83 -0.2,-5.9 1.39,-4.85 9.83,6.48 23.66,-6.45 35.17,-11.82 57.98,-27.04 72.67,50.97 27.87,50.78 -54.81,-0.23 -31.87,-41.64 -8.57,-39.66 4.07,0.34 10.79,6.84 11.74,11.19 2.86,13.09 -17.2,16.71 -19.09,7.62 -1.25,-6 4.16,-5.36 4.37,-4.22"/>
    </g>
    <path class="fil6 str0" d="M962.88 593.14c-0.3,-3.54 -3.1,-7.34 -6.65,-8.26 -4.9,-1.26 -12.08,2.68 -11.07,7.94 0.15,0.8 -9.63,1.71 -11.7,2.57 -1.59,0.67 -1.07,0.99 1.56,0.84 4.05,-0.25 5.17,-0.38 8.39,-0.39 2.3,-0.01 -6.35,4.1 -7.26,4.56 -0.43,0.21 -3.41,2.03 -0.24,1.12 1.23,-0.36 12.6,-4.4 12.9,-1.78 0.61,5.34 5.87,18.34 13.92,21.43 8.19,3.15 17.12,2.94 23.22,5.52 10.78,4.55 16.51,1.19 19.03,-2.76 0.11,-0.18 -1.16,-4.03 -6.4,-1.75 -4.87,2.13 -9.98,-10.47 -17.96,-19.76 -6.91,-8.03 -17.51,-6.5 -17.74,-9.28z"/>
    <path class="fil9 str0" d="M950.99 593.56c2.62,1.17 6.27,0.47 6.09,-2.57 -0.5,-8.46 -12.49,-0.3 -6.09,2.57z"/>
    <path class="fil3" d="M952.14 590.74c-1.46,-0.14 -2.07,2.39 -0.18,2.36 0.71,0.2 1.84,-2.2 0.18,-2.36z"/>
    <g>
     <path class="fil5 str0" d="M970.84 618.83c0.05,2 3.88,14.91 0.23,16.78 -0.12,0.05 -4.76,-0.3 -5.41,1.25 -0.08,0.19 -0.84,1.18 -0.58,2.8"/>
     <path class="fil5 str0" d="M964.8 621c-0.52,1.32 -2.57,12.68 -7.52,13.73 -0.33,0.07 -2.32,-1.28 -3.03,-2.07 -0.82,-0.91 -4.54,0.6 -4.97,1.4"/>
     <path class="fil5 str0" d="M954.84 633.87c-1.24,0.69 -2.71,1.66 -3.34,2.81"/>
     <path class="fil5 str0" d="M968.37 635.85c-1.09,1.59 -0.45,4.02 0.85,4.05"/>
     <path class="fil5 str0" d="M970.71 636.08c-0.08,1.66 0.55,2.76 1.83,2.84"/>
     <path class="fil5 str0" d="M957.19 634.57c-1.82,0.64 -2.98,2.6 -1.67,4.17"/>
    </g>
    <path class="fil5 str8" d="M993.59 626.36c1.81,0.65 8.34,0.13 10.07,-3.21"/>
    <path class="fil5 str8" d="M992.7 624.22c1.74,0.8 8.29,0.88 10.31,-2.29"/>
    <path class="fil5 str6" d="M962.74 598.96c-4.17,0.88 -3.92,5.4 -2.68,7.51 4.09,6.96 25.49,16.72 25.16,14.02 -0.09,-0.72 -3.13,-2.14 -4.88,-3.06 -1.27,-0.67 -1.7,-1.39 0.05,-0.66 0.44,0.18 3.84,1.8 2.46,0.08 -0.65,-0.81 -2.07,-1.34 -2.85,-1.76 -0.69,-0.37 -2.51,-1.66 -0.5,-1.1 1.47,0.4 3.93,1.16 1.6,-0.86 -1.14,-0.99 -2.38,-1.86 -3.6,-2.71"/>
   </g>
   <g>
    <path class="fil30 str7" d="M900.72 545.28c-4.3,-1.16 -31.1,17.53 -12.36,13.7 2.93,-0.6 16.42,-8.37 14.02,-10.53 -0.15,-0.14 -1.61,-3.16 -1.66,-3.17z"/>
    <path class="fil3 str7" d="M902.65 545.08c0.42,-2.56 7.76,-8.04 8.39,-3.88 1.13,7.34 2,7.06 -6.59,7.39 -1.73,0.07 -1.99,-2.37 -1.8,-3.51z"/>
    <path class="fil9 str7" d="M917.74 532.75c-2.07,-0.79 -4.18,0.24 -5.46,1.74 -1.95,2.3 -1.99,5.7 2.91,5.49 6.76,-0.29 5.75,-6 2.55,-7.23z"/>
    <path class="fil9 str7" d="M919.71 540.88c-2.07,-0.79 -4.18,0.24 -5.47,1.75 -1.95,2.29 -1.99,5.69 2.92,5.48 6.76,-0.28 5.75,-6 2.55,-7.23z"/>
    <path class="fil4 str7" d="M904.64 523.16c-0.83,-1.74 -1.78,-3.96 -3.92,-4.32 -4.17,-0.71 -4.13,8.05 -2.47,10.76 1.2,1.95 7.96,12.99 8.74,12.62 2.48,-1.2 -1.49,-17.26 -2.35,-19.06z"/>
    <path class="fil4 str7" d="M911.06 565.93c0.83,1.74 1.78,3.96 3.91,4.32 4.18,0.71 4.14,-8.06 2.48,-10.76 -1.21,-1.95 -7.96,-13 -8.75,-12.62 -2.47,1.2 1.49,17.26 2.36,19.06z"/>
    <path class="fil3 str7" d="M918.13 544.7c-0.13,0.85 1.44,1.68 2,1.16 2.04,-1.89 -1.68,-3.25 -2,-1.16z"/>
    <path class="fil3 str7" d="M917.05 536.53c-0.1,0.62 1.05,1.23 1.47,0.85 1.5,-1.39 -1.24,-2.39 -1.47,-0.85z"/>
    <path class="fil5 str7" d="M897.04 546.45c0,3.3 0.39,3.7 3.26,5.81"/>
    <path class="fil5 str7" d="M892.55 548.62c-0.46,2.34 2.14,6.38 3.61,6.38"/>
    <path class="fil5 str7" d="M888.75 550.91c-0.47,2.33 2.14,6.38 3.61,6.38"/>
    <path class="fil5 str7" d="M885.02 553.8c-0.47,2.34 1.62,5.22 3.09,5.22"/>
   </g>
   <g>
    <path class="fil30 str7" d="M985.56 484.44c4.3,-1.16 31.1,17.54 12.36,13.71 -2.93,-0.6 -16.43,-8.37 -14.02,-10.54 0.15,-0.14 1.61,-3.15 1.66,-3.17z"/>
    <path class="fil3 str7" d="M983.63 484.25c-0.42,-2.56 -7.76,-8.05 -8.4,-3.88 -1.12,7.34 -1.99,7.05 6.59,7.39 1.73,0.06 2,-2.37 1.81,-3.51z"/>
    <path class="fil9 str7" d="M968.53 471.92c2.08,-0.8 4.19,0.23 5.47,1.74 1.95,2.29 1.99,5.69 -2.91,5.49 -6.77,-0.29 -5.76,-6.01 -2.56,-7.23z"/>
    <path class="fil9 str7" d="M966.57 480.05c2.07,-0.79 4.18,0.23 5.46,1.74 1.95,2.29 1.99,5.7 -2.91,5.49 -6.76,-0.29 -5.75,-6.01 -2.55,-7.23z"/>
    <path class="fil4 str7" d="M981.64 462.32c0.83,-1.73 1.78,-3.96 3.91,-4.32 4.18,-0.7 4.14,8.06 2.48,10.76 -1.21,1.96 -7.96,13 -8.74,12.62 -2.48,-1.19 1.48,-17.25 2.35,-19.06z"/>
    <path class="fil4 str7" d="M975.22 505.1c-0.83,1.73 -1.78,3.96 -3.92,4.32 -4.17,0.7 -4.13,-8.06 -2.47,-10.76 1.2,-1.96 7.96,-13 8.74,-12.62 2.48,1.19 -1.49,17.25 -2.35,19.06z"/>
    <path class="fil3 str7" d="M968.14 483.86c0.13,0.85 -1.43,1.69 -1.99,1.16 -2.04,-1.89 1.67,-3.24 1.99,-1.16z"/>
    <path class="fil3 str7" d="M969.23 475.69c0.09,0.63 -1.06,1.24 -1.47,0.85 -1.5,-1.39 1.23,-2.38 1.47,-0.85z"/>
    <path class="fil5 str7" d="M989.24 485.62c0,3.29 -0.4,3.69 -3.26,5.81"/>
    <path class="fil5 str7" d="M993.73 487.79c0.46,2.33 -2.14,6.38 -3.62,6.38"/>
    <path class="fil5 str7" d="M997.53 490.07c0.46,2.34 -2.14,6.38 -3.62,6.38"/>
    <path class="fil5 str7" d="M1001.26 492.97c0.46,2.33 -1.62,5.22 -3.09,5.22"/>
   </g>
   <path class="fil5 str6" d="M918.2 539.93c0.4,-0.03 7.12,-1.32 8.56,-1.49"/>
   <path class="fil5 str6" d="M968.08 479.09c-0.4,-0.02 -7.13,-1.32 -8.56,-1.48"/>
  </g>
  <g id="_2860449230560">
   <path class="fil9 str0" d="M478.96 145.9c-8.75,6.67 -18.83,15.74 -26.8,22.78 -6.25,5.52 -13.13,5.49 -21.04,5.04 -5.92,-0.34 -10.82,2.03 -9.62,6.74 0.45,1.73 2.01,2.5 4.22,2.3 1.76,-0.16 2.71,-0.55 1.13,1.04 -1.94,1.95 -4.69,5.69 0.27,9 3.72,2.48 6.6,-0.63 7.98,-2.47 1.32,-1.75 1.09,-1.36 0.86,0.73 -0.29,2.64 -0.48,6.58 5.19,6.16 6.53,-0.48 0.38,-10.48 9.16,-16.8 12.14,-8.71 49.37,-16.9 45.18,-36.09 -1.65,-7.57 -9.98,-3.41 -16.53,1.57z"/>
   <g>
    <path class="fil3 str0" d="M511.94 218.82c-1.49,8.73 3.66,17.6 8.24,24.47 0.8,1.21 7.25,9.79 5.65,10.72 -13.03,7.58 -21.05,21.57 -22.56,23.17 -2.46,2.64 -11.85,-0.12 -15.75,2.34 -4.71,2.98 -3.38,9.42 2.54,8.45 0.14,-0.02 1.64,-0.48 2.81,-0.83 1.52,-0.45 -0.65,1.41 -0.8,2.81 -0.57,5.63 8.91,3.6 10.09,1.06 0.99,-2.14 2.15,-2.72 0.9,0.74 -1.51,4.22 8.17,7.17 9.56,0.94 2.82,-12.62 4.82,-13.14 12.22,-18.68 4.92,-3.68 9.9,-6.37 14.73,-10.46 6.48,-5.47 11.74,-11.3 6.49,-16.14 -10.88,-10.06 -6.86,-27.52 -6.83,-28.21 0.21,-6.36 -26.72,-4.06 -27.29,-0.38z"/>
    <path class="fil9" d="M503.96 277.33c-2.54,3.51 -11.32,0.26 -15.22,2.72 -4.71,2.97 -3.97,8.36 1.95,7.39 0.13,-0.02 1.9,-0.52 3.06,-0.87 1.52,-0.44 -0.55,0.7 -0.77,2.4 -0.76,5.68 7.96,3.91 9.51,1.73 1.36,-1.92 2.52,-2.76 1.28,0.7 -1.52,4.21 7.36,6.87 8.75,0.64 1.13,-5.06 -6.25,-4.82 -7.48,-15.88 -0.05,-0.4 -0.84,0.84 -1.08,1.17z"/>
   </g>
   <path class="fil9 str0" d="M463.14 61.03c0,15.94 -4.76,12.27 -5.68,23.46 -1.39,17.07 7.16,29.52 20.35,38.15 10.71,7.01 15.75,5.91 17.99,7.16 0.59,0.33 -6.99,5.69 -8.81,10.93 -10.59,30.53 -3.96,78.78 42.33,92.59 9.44,2.82 35.7,5.4 44.89,14.74 2.82,2.87 3.74,6.13 1.57,9.79 -1.34,2.27 -13.78,14.83 -12.78,25.41 0.13,1.39 -8.83,-2.58 -11.31,3.06 -1.48,3.34 1,11.05 7.17,6.72 1.3,-0.91 2.97,-2.27 1.39,1.2 -2.05,4.51 8.2,11.25 10.25,-0.89 1.01,-6 1.34,-0.24 4.03,2.44 1.45,1.46 8.3,1.9 8.67,-3.74 0.19,-3.03 -7.71,-9.42 -3.11,-17.5 9.35,-16.4 22.33,-22.11 7.85,-35.84 -5.73,-5.43 -5.3,-13.18 -6.85,-20.77 -2.4,-11.73 17.78,-19.11 28.97,-25.21 25.6,-13.94 36.61,-42.03 34.64,-65.18 -1.88,-22.25 5.07,-40.69 17.11,-21.42 3.62,5.79 14.48,-12.42 -2.88,-18.43 -24.6,-8.51 -34.98,21.69 -33.78,41.97 2.1,35.54 -5.63,41.09 -27.27,54.99 -2.69,1.72 -19.13,13.69 -18.8,5.41 0.34,-8.7 -2.84,-30.55 -4.53,-38.57 -5.7,-27.15 -18.87,-51.11 -33.99,-66.23 -7.47,-7.47 -12.96,-9.1 -16.52,-19.56 -0.09,-0.26 -6.1,-17.18 -10.9,-14.3 -1.33,0.8 -5.01,4.67 -5.81,8.5 -1.08,5.15 -11.03,3.7 -17.52,4.03 -15.88,0.8 -7.89,-1.37 -18.8,-10.23 -6.02,-4.89 -7.87,2.48 -7.87,7.32z"/>
   <path class="fil3" d="M496.89 162.25c2.71,-2.27 -5.59,0.95 -7.03,0.81 -3.97,-0.38 -2.57,-3.31 -8.2,-4.42 -6.94,-1.36 -9.46,6.5 -3.68,9.62 1.59,0.87 2.27,0.9 0.7,1.93 -1.89,1.23 -4.64,0.96 -4.48,4.39 0.17,3.44 3.8,2.72 5.69,2.72 2.22,-0.01 0.94,1.09 0.2,3.22 -2.16,6.22 7.29,7.98 9.84,1.39 0.61,-1.59 3.07,-2.35 3.13,-4.28 0.17,-5.4 -4.9,-8.05 3.83,-15.38z"/>
   <path class="fil5 str0" d="M513.54 134.43c0,3.24 1.63,11.77 0.27,14.59 -2.36,4.93 -7.24,9.88 -16.29,12.7 -12.16,3.79 -7.82,-2.45 -15.5,-3.92 -7.58,-1.45 -10.09,7.51 -4.32,10.64 1.6,0.86 2.86,0.46 1.29,1.49 -1.89,1.24 -5.47,1.2 -5.3,4.63 0.17,3.44 4.11,3.66 6.16,3.38 2.2,-0.3 1.21,0.62 0.47,2.76 -2.16,6.22 7.6,8.82 10.08,2.21 3.37,-8.98 22.54,-12.72 33.87,-19.47 3.93,-2.34 6.92,-5.05 7.98,-8.45 4.16,-13.41 -2.2,-23.06 -0.2,-26.59"/>
   <path class="fil34 str0" d="M496.65 87.34c7.63,0.77 11.89,-0.58 17.42,-4.73 2.33,-1.74 2.86,-0.99 2.18,1.51 -2.24,8.2 -15.69,13.2 -21.09,4.39 -1.14,-1.86 -0.35,-1.35 1.49,-1.17z"/>
   <path class="fil3 str0" d="M503.66 90.31c2.84,-1.34 2.88,2.13 1.88,2.3 -2.21,0.35 -3.28,-1.63 -1.88,-2.3z"/>
   <path class="fil3 str0" d="M462.94 101.78c4.17,0.27 6.52,-3.67 11.93,-8.07 2.44,-1.99 7.03,-4.5 10.05,-5.33 15.33,-4.22 20.28,-11.29 26.72,-22.74 0.41,-0.75 5.07,-14.07 3.62,-14.37 -3.64,-0.73 -6.69,5.68 -7.95,8.7 -2.36,5.66 -24.34,5.31 -27.3,3.47 -3.05,-1.91 -3.54,-3.21 -7.97,-7.8 -0.89,-0.92 -5.89,-5.88 -7.27,-0.36 -1.93,7.71 -0.91,13.91 -4.37,20.54 -4.06,7.79 -2.73,13.75 -2.53,16.49 0.1,1.43 0.9,9.21 5.07,9.47z"/>
   <path class="fil3 str0" d="M529.3 75.43c-2.15,9.07 -4.23,18.41 1.06,26.55 3.93,6.05 13.48,4.36 14.62,13.61 1.05,8.55 -10.21,17.88 -7.21,27.14 2.52,7.76 19.32,6.79 22.87,8.85 4.61,2.68 1.44,7.31 -0.34,10.35 -4.8,8.16 -13.13,14.74 -11.59,27.88 2.22,18.95 31.4,31.74 31.97,25.4 1.47,-16.45 36.88,-18.18 52.79,-44.2 5.72,-9.35 10.32,-23.44 10.75,-33.93 0.16,-3.96 -0.23,-11.15 -0.17,-16.72 0.07,-5.77 0.55,-9.84 -2.05,-8.18 -7.84,5 -8.82,-7.71 -13.31,-3.88 -1.1,0.22 -3.13,14.92 -2.87,18.61 2.6,35.6 -5.12,47.7 -29.46,58.98 -2.55,1.18 -13.47,10.54 -17.32,6.37 -1,-1.07 -0.49,-3.37 -0.46,-6.54 0.15,-19.77 -8.9,-53.36 -15.98,-68.15 -8.68,-18.17 -30.87,-41.3 -33.3,-42.14z"/>
   <path class="fil34 str0" d="M463.98 88.75c6.26,1.59 15.9,2.7 22.19,0.78 1.48,-0.45 0.33,1.14 -0.17,1.73 -6.12,7.2 -16.92,6.36 -22.19,-0.27 -1.62,-2.04 -2.7,-2.97 0.17,-2.24z"/>
   <path class="fil3 str0" d="M473.36 95.98c-2.75,-1.9 -0.05,-4.17 1.98,-2.12 2.18,2.21 -1.42,2.51 -1.98,2.12z"/>
   <path class="fil5 str0" d="M421.63 180.49c-1.55,0.03 -6.2,-0.17 -3.05,4.46"/>
   <path class="fil5 str0" d="M425.52 191.78c-1.55,1.18 -4.22,2.61 -0.81,5"/>
   <path class="fil5 str0" d="M439.05 197.14c-1.73,0.61 -3.63,3.66 -0.21,4.55"/>
   <path class="fil5 str0" d="M474.17 162.21c-1.44,-0.08 -5.68,0.62 -3.94,-3.31"/>
   <path class="fil5 str0" d="M473.47 176.45c-1.95,1.81 -4.66,3.17 -5.74,-0.89"/>
   <path class="fil5 str0" d="M480.78 185.61c-1.23,1.25 -3.5,4.8 -6.31,0.46"/>
   <path class="fil8" d="M442.73 180.95c1.71,1.92 -1.14,3.55 -2.9,3.89 -2.74,0.52 -4.13,0.53 -5.29,-3.26 -1.05,-3.43 4.56,-7.29 4.12,-4.01 -0.87,6.37 1.5,0.5 4.07,3.38z"/>
   <path class="fil8" d="M425.61 180.64c1.18,0.38 3.66,0.04 3.66,-1.81 0,-3.95 -8.19,0.37 -3.66,1.81z"/>
   <path class="fil8" d="M430.8 189.71c1.08,-0.59 2.56,-2.61 1.23,-3.89 -2.85,-2.74 -5.41,6.16 -1.23,3.89z"/>
   <path class="fil8" d="M441.63 193.6c0.71,-1 1.15,-3.46 -0.61,-4.03 -3.75,-1.22 -2.17,7.9 0.61,4.03z"/>
   <path class="fil5 str6" d="M468.64 106.54c3.17,-4.75 20.96,-0.48 20.83,-3.72 -0.05,-1.27 0.41,-6.61 1.11,-1.11 0.2,1.63 1.17,1.89 3.28,1.89 2.42,0 15.22,-5.03 25.58,1.05"/>
  </g>
 </g>
</svg>
