<?xml version="1.0" encoding="UTF-8"?>
<!DOCTYPE svg PUBLIC "-//W3C//DTD SVG 1.1//EN" "http://www.w3.org/Graphics/SVG/1.1/DTD/svg11.dtd">
<!-- Creator: CorelDRAW 2020 (64-Bit) -->
<svg xmlns="http://www.w3.org/2000/svg" xml:space="preserve" width="474px" height="570px" version="1.1" style="shape-rendering:geometricPrecision; text-rendering:geometricPrecision; image-rendering:optimizeQuality; fill-rule:evenodd; clip-rule:evenodd"
viewBox="0 0 182.71 219.99"
 xmlns:xlink="http://www.w3.org/1999/xlink"
 xmlns:xodm="http://www.corel.com/coreldraw/odm/2003">
 <defs>
  <style type="text/css">
   <![CDATA[
    .str18 {stroke:black;stroke-width:0.25;stroke-miterlimit:22.9256}
    .str10 {stroke:black;stroke-width:0.25;stroke-miterlimit:22.9256}
    .str22 {stroke:black;stroke-width:0.51;stroke-miterlimit:22.9256}
    .str21 {stroke:black;stroke-width:0.51;stroke-miterlimit:22.9256}
    .str16 {stroke:black;stroke-width:0.51;stroke-miterlimit:22.9256}
    .str14 {stroke:black;stroke-width:0.51;stroke-miterlimit:22.9256}
    .str11 {stroke:black;stroke-width:0.51;stroke-miterlimit:22.9256}
    .str13 {stroke:black;stroke-width:0.51;stroke-miterlimit:22.9256}
    .str23 {stroke:black;stroke-width:0.51;stroke-miterlimit:22.9256}
    .str17 {stroke:black;stroke-width:0.51;stroke-miterlimit:22.9256}
    .str19 {stroke:black;stroke-width:0.51;stroke-miterlimit:22.9256}
    .str20 {stroke:black;stroke-width:0.51;stroke-miterlimit:22.9256}
    .str24 {stroke:black;stroke-width:0.51;stroke-miterlimit:22.9256}
    .str15 {stroke:black;stroke-width:0.51;stroke-miterlimit:22.9256}
    .str26 {stroke:black;stroke-width:0.51;stroke-miterlimit:22.9256}
    .str25 {stroke:black;stroke-width:0.51;stroke-miterlimit:22.9256}
    .str12 {stroke:black;stroke-width:0.51;stroke-miterlimit:22.9256}
    .str3 {stroke:black;stroke-width:0.51;stroke-miterlimit:22.9256}
    .str6 {stroke:black;stroke-width:0.29;stroke-miterlimit:22.9256}
    .str1 {stroke:black;stroke-width:0.29;stroke-miterlimit:22.9256}
    .str0 {stroke:black;stroke-width:0.29;stroke-miterlimit:22.9256}
    .str4 {stroke:black;stroke-width:0.29;stroke-miterlimit:22.9256}
    .str2 {stroke:black;stroke-width:0.29;stroke-miterlimit:22.9256}
    .str8 {stroke:black;stroke-width:0.29;stroke-miterlimit:22.9256}
    .str9 {stroke:black;stroke-width:0.29;stroke-miterlimit:22.9256}
    .str5 {stroke:black;stroke-width:0.29;stroke-miterlimit:22.9256}
    .str7 {stroke:black;stroke-width:0.29;stroke-miterlimit:22.9256}
    .fil3 {fill:none}
    .fil2 {fill:#FEFEFE}
    .fil1 {fill:#E31E24}
    .fil0 {fill:black}
    .fil4 {fill:black;fill-rule:nonzero}
   ]]>
  </style>
 </defs>
 <g id="Layer_x0020_1">
  <metadata id="CorelCorpID_0Corel-Layer"/>
  <g id="_2824161168816">
   <path class="fil0 str0" d="M83.25 164.85c-1.43,3.53 -4.67,9.6 -5.02,13.21 -0.03,0.36 -0.07,1.76 -0.05,2.1 0.02,0.43 0.07,0.86 0.14,1.27 0.08,0.43 0.62,2.03 0.82,2.4 1.03,1.85 2.39,2.59 5.86,2.32 4.35,-0.32 6.48,2 4.46,4.11 -0.84,0.88 0.65,1.13 -0.08,3.83 -0.19,0.68 -0.39,2.21 -3.07,3.47 0.66,-2.21 0.69,-4.56 -1.32,-4.24 -2.65,0.41 -3.42,-2.06 -3.67,-2.48 -0.26,-0.41 -5.01,-1.53 -6.08,0.27 -0.72,1.19 -0.66,0.53 -1.39,2.41 -0.8,2.05 -4.25,-0.49 -5.09,1.64 -0.34,0.87 -2.3,2.95 -3.74,2.85 -1.93,-0.13 -2.31,-1.53 -3.07,-1.76 -1.38,-0.4 -2.22,0.7 -3.42,3.49 -1.56,-2.32 -1.36,-6.15 1.91,-6.76 -1.34,-0.42 -1.25,1.03 -2.19,-0.07 -1.04,-0.32 -3.78,0.83 -3.6,2.5 -1.03,-1.33 -1.53,-3.34 0.19,-5.07 1.37,-1.38 1.87,-0.76 2.31,-1.22 0.19,-0.2 -0.65,-0.6 0.14,-1.56 0.58,-0.72 2.53,-1.05 1.15,-1.43 -1.68,-0.46 -2.28,-0.14 -3.44,0.64 0.3,-1.57 1.51,-3.66 4.68,-3.61 0.73,0.02 1.95,-1.74 3.97,0.72 0.88,1.07 1.56,1.73 2.92,2 2.17,0.42 3.29,0.41 4.21,-2.97 0.59,-2.15 4.36,-12.81 3.41,-20.12 -0.66,-5.04 10.91,-2.51 9.06,2.06z"/>
   <path class="fil1 str1" d="M60.03 195.9c-0.66,0.34 -1.25,1.28 -1.67,2.18 -0.58,-2.58 1.31,-5.57 2.88,-4.01 1.46,1.44 -0.53,1.49 -1.21,1.83z"/>
   <path class="fil1 str1" d="M57.55 192.13c-1.64,0.01 -2.21,-0.2 -3.13,1.41 -0.43,-1.65 0.82,-3.35 2.28,-3.74 1.59,-0.41 2.36,2.36 0.85,2.33z"/>
   <path class="fil1 str1" d="M58.87 185.71c-0.26,-0.01 -1.93,-0.69 -3.18,0.08 1.15,-1.29 2.3,-1.66 3.05,-1.64 1.61,0.05 1.63,1.67 0.13,1.56z"/>
   <path class="fil1 str2" d="M86.81 192.92c-0.97,-0.51 -0.49,-1.71 0.59,-2.11 3.42,-1.27 2.06,4.87 -0.57,5.78 0.53,-1.17 1.21,-3.02 -0.02,-3.67z"/>
   <path class="fil2 str1" d="M60.69 185.32c-0.07,0.68 -2.38,1.28 -0.69,1.72 1.75,0.46 2.15,-1.7 2.8,-0.5 0.56,1.03 7.15,0.66 3.69,-0.11 -2.98,-0.67 -1.23,0.05 -3.12,-1.91 -0.43,-0.44 -1.11,-1.5 -2.63,-1.22 -0.84,0.15 0.02,1.38 -0.05,2.02z"/>
   <path class="fil2" d="M61.25 192.46c0.86,-0.73 2.02,-2.28 4.69,-1.82 1.63,0.29 0.56,3.4 1.6,0.46 0.59,-1.66 1.16,-1.48 1.05,-1.76 -0.37,-0.1 -0.48,1.05 -3.25,0.72 -3.74,-0.45 -6.45,5.11 -6.14,0.75 0.08,-1 -3.04,-3.72 3.16,-3.16 2.85,0.25 6.88,0.36 8.69,-2.19 1.6,-2.26 4.17,-11.85 4.07,-20.54 -0.01,-1.26 8.11,-3.33 6.64,0.08 -1.9,4.42 -4.66,11.51 -4.36,15.24 0.76,9.62 7.66,4.95 7.5,7.27 -0.11,1.73 0.38,-1.9 3.78,-0.13 2.62,1.37 0.34,2.92 -0.94,2.91 -2.68,-0.04 -2,1.6 -2.44,2.22 -0.21,0.31 -1.79,0.72 -2.7,-0.72 -0.79,-1.23 0.24,-3.18 -5.29,-2.66 -2.89,0.27 -2.86,2.9 -4.55,4.15 -0.74,0.54 -2.11,-0.17 -3.68,0.29 -0.43,0.13 -2.64,5.15 -5.83,2.88 -1.21,-0.85 0.15,-1.26 -0.5,-2.26 -0.71,-1.1 -2.45,-0.91 -1.5,-1.73z"/>
   <path class="fil3 str3" d="M79.77 184.8c-0.05,1.02 -0.49,1.17 -0.77,1.74"/>
   <path class="fil3 str3" d="M81.5 185.64c-0.1,1.5 -0.1,0.72 -0.53,1.72"/>
   <path class="fil0" d="M102.97 169.34c0.32,8.26 -1.3,28.61 -8.51,33.64 -3.08,2.16 -3.58,-0.23 -4.65,-1.32 -2.36,-2.38 -7.16,-3.92 -8.12,-0.69 -0.23,0.78 -5.34,-0.03 -4.37,4.94 0.78,-1.45 3.57,-2.19 3.08,-0.06 -0.1,0.4 -3.29,4.83 -0.99,8.84 0.3,-1.12 1.59,-3.1 3.24,-3.64 0.55,-0.18 -0.22,1.32 1.58,1.54 1.39,0.18 1.64,-0.87 1.7,-0.65 1.13,3.79 2.51,1.27 2.77,2.8 0.21,1.2 -0.4,4.11 2.18,5.25 -0.42,-1.05 1.33,-3.93 2.77,-4.39 3.46,-1.12 1.14,-2.25 2.78,-4.91 2.3,-3.73 5.98,-4 9.98,-3.04 2.35,0.56 2.3,0.93 4.48,2.25 1.96,1.19 5.05,-2.59 5.32,2.44 1.1,-1.44 3.7,-3.62 1.16,-7.05 -1,-1.37 -0.42,-2.75 -3.15,-3.39 -1.31,-0.31 -3.26,0.74 -4.41,1.25 -3.07,1.36 -3.92,-5.13 -3.51,-8.7 0.89,-7.79 3.84,-21.9 5.33,-24.6 -0.11,-0.6 -9.02,-9.89 -8.66,-0.51z"/>
   <path class="fil1 str4" d="M81.1 208.25c-2.06,-0.25 -1.95,3.36 -1.22,4.7 0.72,-2.04 1.27,-1.98 2.04,-2.63 0.68,-0.58 0.11,-1.96 -0.82,-2.07z"/>
   <path class="fil1 str5" d="M81.11 201.96c-1.71,-0.19 -2.65,1.25 -2.8,2.43 0.63,-0.81 1.5,-0.92 1.93,-0.75 1.66,0.66 1.97,-1.29 0.87,-1.68z"/>
   <path class="fil1 str6" d="M91.71 212.84c-0.28,-0.33 -2.44,-0.11 -2.47,1.88 -0.03,1.91 0.23,3.1 1.41,3.86 -0.17,-1.45 0.49,-2.67 1.04,-3.05 1.24,-0.87 0.91,-2.07 0.02,-2.69z"/>
   <path class="fil2 str7" d="M83.13 200.5c1.24,-0.93 3.46,-0.91 4.65,0.22 0.63,0.6 2.79,3.1 2.48,3.15 -1,0.15 -3.33,-0.24 -4.86,-0.59 -0.99,-0.23 -4.11,1.85 -3.07,0.24 0.97,-1.49 -0.29,-2.2 0.8,-3.02z"/>
   <path class="fil2 str8" d="M84.21 204.29c-2.52,0.37 -3.31,1.29 -3.15,2.32 0.23,1.48 1.74,1.05 2,1.93 0.16,0.55 -0.2,1.87 0.16,2.46 0.74,1.2 2.34,0.73 2.71,-0.46 0.9,-2.94 4.41,-3.59 6.06,-3.21 -1.29,0.66 -0.71,0.96 0.39,1.76 -1.48,-0.41 -2.56,-1.12 -4.54,-0.01 -2.38,1.33 -0.92,4.47 -0.16,4.5 2.57,0.07 0.57,-1.2 3.25,-1.72 2.53,-0.49 1.29,3.64 3.14,2.95 2.49,-0.93 0.3,-2.25 1.5,-4.64 1.51,-3.03 5.32,-5.22 8.57,-3.82 2.2,0.94 3.69,0.44 5.28,1.23 1.58,0.79 1.78,1.8 3.74,0.97 0.48,-0.2 0.22,-2.54 2.75,-3.11 0.72,-0.17 -0.23,-3.35 -2.17,-2.5 -1.96,0.86 -1.65,-0.42 -3.38,0.98 -0.16,0.13 -1.01,1.11 -1.23,1.28 -0.13,0.1 0.32,-1.16 0.16,-1.13 -6.67,1.2 -2.31,-28.02 1.7,-34.35 0.09,-4.16 -6.44,-6.79 -6.7,0.21 -0.2,7.25 -2.77,32.38 -11.29,34.28 -2.42,0.55 -4.76,-0.21 -8.79,0.08z"/>
   <path class="fil1 str9" d="M114.74 207.65c-0.37,0.79 2.14,0.53 2.15,2.83 0.78,-0.97 0.67,-2.66 0.56,-3.12 -0.34,-1.43 -2.22,-0.75 -2.71,0.29z"/>
   <path class="fil0 str10" d="M94.69 61.4c0.28,7.38 0.26,12.74 -2.94,17.17 -1.65,2.28 -7.72,8.11 -5.5,10.54 2.83,3.09 7.21,-2.28 9.87,-3.74 -4.58,5.22 -10.41,16.64 -7.34,18.24 3.19,1.67 7.56,-3.55 9.41,-5.54 -0.2,2.83 -3.96,6.81 -6.48,12.56 -1.31,2.99 -0.01,5.5 3.26,4.64 1.36,-0.36 9.41,-8.56 10.23,-9.63 0.32,8.16 -8.44,14.44 -5.42,17.71 1.25,1.36 5.77,-1.42 8.44,-4.61 3.21,-3.85 7.28,-10.77 7.72,-12.96 0.57,4.81 -3.64,19.67 1.05,19.8 4.14,0.11 8.51,-17.36 8.4,-24 1.36,3.17 1.15,12.42 2.32,15.94 1.91,5.72 5.55,-6.56 6.16,-10.38 0.77,2.06 2.25,6.64 3.98,3.09 2.85,-5.81 1.61,-11.35 1.13,-15.89 1.1,1.53 2.73,5.15 4.7,3.63 1.05,-0.82 1.48,-10.69 0.83,-13.64 0.93,0.86 3.02,1.67 3.42,-2.57 1.69,4.77 1.73,13.24 1.23,18.88 -0.6,6.65 2.63,4.06 4.4,0.47 2.5,-5.11 2.39,-14.31 2.85,-16.19 0.65,4.05 1.47,20 -4.59,37.3 -1.54,4.39 -0.3,5.73 3.98,2.8 4.7,-3.21 8.89,-18.42 9.33,-23.31 2.07,14.65 -14.66,54.37 -4.91,44.84 4.49,-4.81 9.07,-12.41 12.42,-22.69 -2.58,6.88 -5.74,41.65 0.67,42.16 6.78,0.55 10.03,-56.78 9.13,-69.4 -0.63,-8.77 -0.62,-17.58 -1.66,-27.81 -1.11,-10.81 -8.37,-41.53 -19.18,-44.56 -15.12,-4.24 -11.19,9.16 -20.18,17.81 -2.91,2.8 -2.91,3.59 -6.96,6.91 -5.52,4.52 -23.51,20.54 -30.71,20.54 -1.73,0 -9.12,-9.6 -9.06,-8.11z"/>
   <path class="fil2" d="M179.67 130.43c-0.67,8.45 -2.23,17.75 -3.36,26.11 -0.97,7.21 -4.39,12.71 -5.57,-0.59 -0.35,-4.02 1.19,-20.66 1.96,-25.22 1.95,-11.43 4.62,-6.77 5.34,-13.16 -4.39,5.72 -3.69,-2.26 -3.5,-6.3 0.32,-6.66 4.72,-8.36 3.82,-11.26 -3.99,6.22 -3.97,-1.87 -3.74,-5.62 0.45,-7.37 3.03,-4.4 2.68,-11.43 -3.59,9.91 -4.86,-10.78 -5.03,-26.99 -0.09,-8.85 -5.01,-16.84 -6.44,-20.35 2.21,0.14 8.56,17.61 9.15,18.88 6.62,14.34 6.24,56.14 4.69,75.93z"/>
   <path class="fil2" d="M173.07 89.74c1.93,19.13 0.23,35.4 -10.85,51.97 -1.56,2.34 -2.64,4.7 -3.49,4.07 -0.67,-0.49 0.09,-3.57 1,-5.88 3.82,-9.7 3.63,-11.09 4.07,-13.08 1.49,-6.84 3.44,-5.91 3.57,-7.95 -0.76,0.81 -3.11,0.95 -0.81,-6.67 0.95,-3.12 2.98,-2.68 3.02,-4.35 -0.52,0.57 -3.63,1.96 -2.81,-4.88 0.61,-5.17 3.24,-3.76 2.67,-5.84 -0.65,1.32 -3.7,0 -2.99,-5.75 0.38,-3.03 1.86,-2.34 2.14,-5.45 -2.49,3.63 -4.7,-5.03 -3.03,-9.15 1.4,-3.47 2.08,-4.93 1.31,-6.44 -0.35,1.61 -1.64,3.02 -2.22,1.83 -2.07,-4.17 -2.26,-15.68 -2.12,-17.71 5.3,11.06 7.52,2.33 6.46,-3.18 0.69,0.65 1.54,-0.78 1.72,-1.36 -0.08,5.85 0.66,23.02 2.36,39.82z"/>
   <path class="fil0" d="M82.7 9.77c-3.2,0.23 -13.24,6.92 -13.24,16.95 0,10.85 3.6,13.37 2.96,21.48 -0.51,6.56 -27.07,14.4 -13.46,29.75 4.07,4.58 2.1,15.28 5.09,25.16 5.59,18.47 12.66,23.85 7.81,33.25 -2.31,4.46 -8.93,22.97 -4.56,26.44 1.34,1.05 4.02,-0.92 3.96,-3.53 -0.02,-0.93 -0.15,2.44 1.91,5.81 1.34,2.2 4.73,2.31 4.73,-3.25 0,-3.15 0.1,-1.96 0.94,-0.16 1.41,2.99 4.67,7.17 7.17,-0.82 0.98,4.96 6.74,12.43 9.17,5.79 0.91,1.72 3.16,5.25 6,0.32 0.94,4.99 8.43,8.49 8.64,0.17 1.13,1.64 10.2,9.73 7.5,-4.94 6.64,11.4 20.24,42.04 25.05,31.4 1.11,-2.46 5.29,6.81 9.11,4.98 1.31,-0.62 -1.59,-8.22 1.97,-3.86 4.18,5.11 11.54,8.15 11.54,4.29 0,-1.93 -2.9,-6.03 -2.49,-6.06 0.37,-0.02 4.5,3.29 7.24,2.9 1.98,-0.29 -1.04,-5.37 -0.48,-5.63 0,0 4.27,1.83 5.51,0.82 5.87,-4.82 -18.6,-26.43 -20.42,-27.93 -4.83,-4.01 -22.85,-30.81 -27.93,-31.79 -9.78,-1.88 -18.51,-24.65 -22.66,-34.23 -2.4,-5.55 -5.87,-27.99 -2.97,-31.39 0,1.5 1.46,3.02 3.4,3.06 0.94,0.02 2.17,-0.71 2.82,-2.49 0.55,-1.5 -0.29,7.04 5.28,1.25 0.16,-0.17 -0.75,4.54 4.32,2.25 3.04,-1.37 -2.04,-9.12 1.66,-2.02 0.21,0.4 5.28,3.22 5.28,-5.53 0.03,0 2.35,3.84 4.77,-0.2 1.04,-1.73 -0.66,-3.75 -0.05,-4.17 0.3,-0.2 0.74,0.36 2.72,0.95 4.68,1.4 0.69,-8.62 1.58,-8.93 6.27,-2.17 -0.11,-6.46 3.43,-6.46 5.36,0 1.47,-3.43 0.31,-7.21 5.58,-1.05 1.8,-9.63 2.17,-11.53 0.38,1.86 2.48,3.89 4,4.19 2.09,0.4 2.58,-2.73 1.12,-5.97 5.02,3.54 2.77,-5.02 2.76,-5.11 4.88,-0.92 7.8,7.81 11.7,7.44 -1.15,4.81 7.57,12.47 8,9.77 2.59,1.88 7.83,10.05 15.29,40.64 2.17,-26.28 -17.37,-62.76 -33.53,-73.1 -11.83,-7.58 -10.05,4.12 -17.46,6.53 -5.76,1.87 -0.95,8.33 -0.41,18.28 0.31,5.77 -1.23,13.5 -5.08,19.67 -12.17,19.46 -32.36,8.7 -30.26,-6.84 1.35,-10.01 4.19,-10.57 1.13,-18.87 -3.15,-8.56 -9.88,-9.95 -13.04,-11.52z"/>
   <path class="fil0" d="M64.16 58.48c-6.12,-2.98 -10.59,-4.69 -11.56,-13.64 -1.04,-9.53 -14.74,-20.31 -8,-26.78 2.6,-2.49 1.55,-9.8 -3.18,-11.13 -15.61,-4.38 -21.55,5.17 -30.34,23.08 -12.76,26.02 -14.3,91.85 -5.64,120.49 0.67,2.23 3.81,10.88 4.4,21.82 0.47,8.63 4.84,6.01 6.47,1.42 3.56,-9.96 -0.65,-31.28 -1.28,-39.89 2.29,9.71 8.73,17.06 12.03,16.43 6,-1.14 -3.77,-19.94 -4.4,-25.62 1.76,3.88 4.77,7.06 6.88,6.38 4.09,-1.31 -4.62,-22.06 -3.95,-26.07 1.9,5.01 5.33,10.86 7.89,8.45 1.32,-1.25 -1.24,-9.11 -2.74,-15.11 -0.33,-1.32 -1.96,-4.14 -2.55,-5.08 3.44,-1 2.6,-6.27 2.94,-8.18 0.44,10.26 4.58,7.1 5.69,4.6 0,0.85 -0.43,8.4 0.71,13.93 1.07,5.19 4.57,8.48 5.73,1.14 0.31,4.56 4.39,18.24 7.87,6.2 1.28,4.36 2.12,8.83 4.27,10.09 2.9,1.7 3.58,0.11 3.79,-13.28 0.84,4.37 3.03,15.25 7.64,11.97 3.57,-2.54 0.46,-32 -1.46,-36.66 -2.73,-6.61 0.81,-23.58 -1.21,-24.56z"/>
   <path class="fil2" d="M51.26 56.66c-1.27,2.04 -2.35,10.09 0.67,9.65 0.54,-0.08 2.03,-0.24 1.86,-5.68 1.48,4.39 3.53,2.27 5.36,-0.79 -3.64,-3.76 -4.85,-3.31 -7.13,-7.91 -1.88,-3.79 -2.11,-6.19 -2.48,-8.03 -0.06,-0.26 -4.21,5.79 -5.88,-1.49 2.46,5.28 7.91,2.38 2.86,-5.5 -0.76,-1.19 -1.79,-2.6 -3.18,-4.33 -9.56,-11.89 6.78,-18.87 -5,-24.16 -20.29,-9.12 -31.85,41.07 -33.6,56.11 -2.42,20.71 -4.29,52.69 0.87,80.85 -1.54,-10.05 -1.88,-37.92 -0.77,-55.83 0.97,-15.57 5.33,-30.66 5.35,-30.72 1.53,2.33 1.77,-3.04 2.96,-9 0.96,-4.8 3.02,-9.98 3.3,-11.85 1.3,8.72 4.33,-5.62 4.35,-5.7 1.62,-9.61 6.08,-19.38 9.81,-20.25 -4.21,4.07 -5.59,9.05 -5.53,11.7 1.17,-5.33 6.71,-12.11 11.38,-12.48 -1.91,0.6 -10.26,7.27 -10.95,16.2 1.13,-3.73 10.09,-16.66 15.66,-14.16 -7.21,0.61 -11.78,9.82 -9.3,14.49 0.93,1.74 3.32,4.34 5.61,1.49 0.28,-0.05 1.34,0.81 0.91,2.36 -2.55,-2.18 -4,0.44 -3.8,1.63 0.67,4.04 5.02,2.99 3.81,0.88 0.92,0.14 1.45,0.18 1.52,0.4 -1.45,0.34 -1.33,1.11 -0.3,2.69 1.27,1.96 4.25,0.77 3.14,-1.67 0.75,0.08 2.13,1.99 2.11,3.18 -2.4,-2 -3.67,0.62 -4.5,6.95 -1.16,8.86 3.41,0.03 5.94,2.46 -1.04,0.17 -5.35,0.51 -4.94,5.49 0.36,4.38 7.15,-2.64 9.13,-0.74 -6.25,1.31 -4.76,11.03 -2.07,9.43 0.9,-0.54 1.41,-5.33 2.83,-5.67z"/>
   <path class="fil2" d="M82.15 11.65c-2.19,2.19 -5.36,7.12 -8.94,8.16 -2.99,0.87 -3.87,12.43 -0.6,18.5 2.66,4.92 5.26,7.28 8.27,8.16 4.33,1.27 10.05,-0.33 12.37,-9.5 1.29,-5.1 2.14,-11.33 -0.42,-16.72 -1.23,-2.59 -4.8,-1.61 -10.68,-8.6z"/>
   <path class="fil0" d="M107.29 72.43c0.14,0.27 -1.47,4.11 -2.14,6.41 -1.43,4.93 1.5,3.82 3.64,1.17 2.67,-3.3 4.67,-8.21 4.76,-9.38 0.8,4.43 -3.96,14.94 0.25,15.68 5.15,0.91 5.8,-8.12 6.44,-9.28 0.82,5.77 -1.43,9.75 2.13,10.31 2.34,0.37 4.56,-3.55 4.87,-4.63 0.59,-2.07 0.2,-2.63 0.73,-5.27 0.63,1.42 -1.18,7.18 2.39,5.24 3.43,-1.86 3.05,-6.17 3.18,-10.65 0.34,2.16 0.6,5.89 2.49,5.56 3.55,-0.64 2.95,-10.47 2.85,-14.31 1.73,4.27 0.57,7.24 3.2,7.28 2.43,0.04 1.42,-10.02 1.36,-12.37 0.97,2.02 0.81,4.74 2.06,4.86 4.98,0.48 1.51,-17.99 -1.6,-20.01 2.91,0.23 1.43,-5.4 1.56,-6.12 0.64,1.92 2.57,3.14 3.49,2.97 2.03,-0.39 1.25,-2.16 1.22,-3.82 0.57,0.9 1.02,2.88 2.87,4.34 1.6,1.26 3.66,-0.5 2.54,-4.41 1.65,2.57 3.33,2.81 4.13,2.46 4.3,-1.86 -5.48,-23.56 -9.21,-26.49 -4.42,-3.46 -3,-2.54 -9.29,-2.79 -4.71,-0.18 -5.32,17.88 -6.39,21.47 -1.71,5.74 -0.94,12.12 -6.09,18.12 -3.37,3.93 -2.2,7.03 -9.12,10.68 -6.31,3.33 -7.08,1.03 -12.63,1.91 -2.12,0.33 -6.22,2.32 -6.38,4.3 -0.21,2.7 -2.08,11.69 -1.11,12.93 3.29,4.21 7.47,-6.77 7.8,-6.16z"/>
   <path class="fil2" d="M134.78 35.36c2.9,1.4 4.38,-1.64 3.98,-3.89 -0.27,-1.57 -3.36,-0.6 -3.19,-4.17 1.09,2.89 2.8,2.33 2.62,-2.02 -0.43,-9.91 2.47,3.79 4.27,2.74 2.25,-1.31 0.43,-5.52 -1.31,-7.62 0.2,-0.37 2.93,2.68 4.39,2.5 2.04,-0.25 -0.95,-6.36 -3.44,-7.46 -0.79,-0.35 -2.46,-0.2 -2.82,3.38 -0.81,-1.42 0.94,-2.01 -2.2,-3.6 4.72,0.91 4.81,-4.21 0.32,-6.45 4.48,0.15 3.95,6.48 7.46,7.9 3.93,1.59 3.07,-4.28 4.68,-0.53 1.09,2.55 6.77,9.6 9.93,8.08 -0.05,0.7 -0.41,3.05 0.49,5.21 1.53,3.66 4.87,7 6.31,2.46 3.8,3.53 13.06,28.03 14.76,39.6 -1.4,-21.53 -9.9,-37.27 -15.08,-46.41 -1.78,-3.13 -17.59,-21.69 -20.37,-22.17 -12.41,-2.16 -4.44,3.22 -13.7,7.03 -1.45,0.59 -2.74,2.58 -2.29,6.94 0.32,3.09 2.46,5.94 2.33,10.65 -0.3,11.12 -8.04,27.99 -19.57,30.72 -3.52,0.83 -6.5,0.94 -11.09,-1.7 -3.91,-2.24 -8.38,-9.31 -9.28,-14.65 -0.63,3.13 -4.55,5.64 -8.68,5.71 -3.57,0.06 -6.89,-1.1 -9.86,-5.31 2.09,8.38 -2.31,10.25 -5.85,13.42 -3.12,2.8 -11.38,7.51 -10.8,14.02 0.46,5.24 3.74,9.01 7.24,9.34 3.95,0.38 8.23,-3.35 10,-9.04 0.57,-1.82 0.91,-0.06 2.82,3.88 1.71,3.5 5.16,5.69 8.75,5.58 6.99,-0.22 14.49,-6.86 10.53,-13.31 -0.42,-0.69 0.52,-0.53 1.91,0.66 3.19,2.74 4.75,-3.42 1.08,-3.79 0.85,-0.44 2.79,-0.27 3.22,0.45 -2.24,-0.42 -0.62,3.43 1.08,4.07 1.61,0.61 4.89,-1.06 2.48,-3.37 0.72,0.33 1.3,0.79 2.73,0.78 -0.93,0.04 -1.47,1.24 -1.26,2.13 0.19,0.79 1.32,1.5 2.27,1.46 2.51,-0.09 0.05,-4.82 3.69,-4.61 -2.99,0.74 -1.72,5.91 1.85,5.27 3.35,-0.61 -0.32,-6.43 3.39,-6.94 -1.48,0.85 -1.51,2.68 -0.91,3.74 0.53,0.95 2.08,1.34 3.6,0.94 3.54,-0.95 3.27,-6.82 -0.49,-5.28 0.48,-0.71 3.34,-2.43 4.31,-2.5 -4.08,1.9 2.33,8.04 3.07,0.69 0.14,-1.38 -1.49,-3.54 -0.58,-4.36 -0.04,1.7 2.79,3.66 4.48,2.06 1.55,-1.47 1.28,-3.53 0.28,-5.12 -1.1,-1.77 -3.51,-2.17 -2.29,-4.57 0.5,4.36 4.57,1.05 4.99,0.4 1.25,-1.92 -1.88,-4.66 -1.55,-6.3 1.95,2.48 7.28,-1.18 1.3,-6.64z"/>
   <path class="fil2" d="M24.18 23.69c-1,1.43 -1.18,5.87 -1.37,7.06 -1.48,9.3 -4.13,9.4 -6.75,15.45 -1.69,3.9 -4.98,20.02 -4.86,20.24 4.51,-0.29 6.79,-10.91 8.93,-17.55 0.39,-1.21 -1.99,-1.44 -1.45,-3.3 1.91,2.82 3.53,-1.76 4.09,-3.06 2.38,-5.63 1.34,-7.35 1.68,-8.37 0.81,6.04 1.93,-5.1 6,-4.17 -1.4,1.06 -5.44,9.46 -8.21,16.02 -2.1,4.99 -2.78,13.13 -4.25,18.52 4.33,-0.92 6.18,-8.02 6.75,-10.85 0.68,-3.39 -0.46,-2.62 -1.01,-4.46 3.38,3.25 5.42,-12.91 9.42,-13.73 0.04,1.22 -6.99,13.81 -1.8,12.19 2.06,-0.65 2.99,-8.62 5.28,-9.37 -0.7,1.8 -3.64,10.51 -0.56,10.51 1.72,0 4.63,-8.52 5.36,-9.92 -1.25,0.26 -1.35,-0.59 -3.26,1.93 0.56,-2.22 0.92,-3.14 0.06,-4.03 -0.9,0.24 -1.35,0.29 -2.04,-0.07 -0.18,-0.09 -1.96,2.16 -3.03,3.67 0.39,-1.27 1.5,-4.81 1.34,-4.98 -0.98,-1.07 -1.08,-2.36 -0.48,-3.75 -3.6,-2.16 -4.05,-5.69 -3.48,-10.01 -2.52,1.09 -5.5,9.9 -5.63,10.4 -0.58,0.18 -0.96,-7.17 -0.73,-8.37z"/>
   <path class="fil2" d="M28.24 47.33c-2.94,3.56 -2.96,6.77 -2.96,13.79 8.31,-1.92 4.46,-15.63 3.99,-11.91 -0.46,3.61 -0.74,6.83 -2.58,7.8 1.71,-3.5 1.66,-9.07 1.55,-9.68z"/>
   <path class="fil2" d="M33.14 46.82c-0.28,0.42 -3.04,11.3 -1.46,11.36 2.87,0.12 6.2,-3.02 6.31,-6.24 0.04,-1.21 0.65,-0.28 -0.54,3.22 -1.19,3.51 -2.02,4.28 -1.63,8.42 0.36,3.75 1.94,3.86 3.04,2.43 1.38,-1.78 2.35,-5.74 3.19,-5.43 -1.51,3.94 -2.9,7.75 -2.33,12.12 0.25,1.83 2.71,2.34 3.62,0.18 0.8,-1.89 1.25,-8.48 3.31,-9.02 0.74,1.97 -2.23,8.01 -1.71,11.22 1.05,6.43 5.72,0.41 6.94,-7.35 1.19,0.2 -4.66,17.35 0.09,18.47 3.71,0.88 3.09,-6.78 4.55,-9.4 0.39,1.9 -1.76,7.49 1.64,11.61 1.89,2.28 3.46,0.05 3.11,-2.07 -0.45,-2.67 0.67,-1.2 0.23,-2.8 -6.43,-7.59 -6.37,-15.04 -4.06,-20.5 -2.57,0.71 -1.38,16.6 -5.27,19.26 1.26,-2.81 2.98,-17.88 2,-18.17 0.1,2.08 -2.42,4.36 -4.14,1.91 -0.75,0.08 -0.59,7.19 -3.26,8.77 0.59,-2.33 1.61,-8.03 2.37,-11.58 -5.43,0.69 -3.02,-4.72 -3.69,-4.7 -1.06,0.03 -3.6,9.93 -3.66,12.97 -1.2,-4.18 1.13,-12.52 4.19,-16.71 -2.52,1.61 -4.23,0.9 -4.91,0.38 -1.06,0.67 -2.83,6.46 -3.07,8.7 -0.08,-2.78 0.38,-5.93 1.77,-8.41 1.82,-3.24 -0.14,-5.67 -0.95,-7.67 -1.35,2.44 -2.04,2.39 -3.1,2.45 -1.63,1.45 -0.08,3.11 -2.05,4.4 0.73,-1.52 1.05,-6.27 -0.53,-7.82z"/>
   <path class="fil2" d="M38.59 72.72c-1.11,2.37 -2.75,34.99 2.52,34.89 2.31,-0.05 1.65,-16.26 1.63,-17.87 -0.02,-1.65 0.24,-9.36 1.02,-10.13 0.61,-0.61 0.65,-0.03 0.48,0.94 -0.52,2.96 -0.79,35.75 4.37,32.9 2.73,-1.5 1.82,-25.26 2.01,-25.72 0.01,-0.02 0.46,14.61 2.17,23.39 1.1,5.63 3.75,10.64 4.79,7.05 0.64,-2.19 0.44,-7.47 0.44,-15.76 0,-2.34 0.72,-10.56 2.48,-12.36 -2.99,0.86 -4.27,-3.05 -4.9,-4.77 -1.33,2.22 -1.53,12.69 -0.97,18.55 -2.13,-7.1 -0.92,-10.14 -1.19,-16.58 -0.01,-0.37 -3.5,0.44 -3.95,-2.23 -0.36,-2.13 -0.21,-4.42 -0.12,-6.72 -1.73,1.56 -2.28,22.2 -1.69,26.43 -2.31,-3.84 -0.57,-24.08 0.32,-25.81 -1.44,0.48 -2.68,-0.32 -3.13,-0.76 -1.19,-1.16 -1.03,-3.38 -0.91,-4.67 -4.26,3.94 -3.77,18.05 -3.7,24.26 -2.15,-6.56 0.01,-19.02 -0.47,-20.95 -0.68,-2.66 -0.74,-1.77 -1.2,-4.08z"/>
   <path class="fil2" d="M34.25 61.43c-0.56,3.35 0.57,3.32 -2.17,7.7 -1.42,2.27 -0.95,19.28 2.91,21.94 0.3,-1.66 0.42,-2.76 0.41,-3.56 0,-1.61 -0.77,-2 -0.86,-3.32 0.96,0.96 1.47,-0.35 1.29,-1.65 -0.19,-1.33 -1.11,-2.46 -1.06,-3 1.11,1.27 1.62,-0.16 1.79,-1.18 0.4,-2.3 -1.03,-2.73 -0.98,-4.42 0.74,1.79 1.66,0.85 1.7,-0.66 0.03,-0.88 -0.36,-1.46 -0.34,-2.34 0.42,0.65 0.94,1.69 1.56,-1.72 0.2,-1.06 -1.51,-0.28 -2.52,-2.05 -0.75,-1.33 -1.27,-3.49 -1.73,-5.74z"/>
   <path class="fil2" d="M64.94 118.85c3.4,0.53 2.74,-6.09 1.97,-8.1 0,-0.01 -1.34,-7.63 -1.67,-10.68 -1.32,2.4 -1.65,10.03 -0.32,13.46 -3.53,-3.19 -1.63,-13.4 -0.03,-18.54 0.1,-3.77 -1.13,-5.12 -1.34,-8.67 -7.28,9.2 -1.39,32.1 1.39,32.53z"/>
   <path class="fil2" d="M9.86 63.77c-3.29,19.8 -6.02,57.82 -2.33,80.43 1.09,6.62 2.73,14.81 3.86,23.18 0.97,7.2 1.06,14.31 3.45,0.63 0.85,-4.88 0.86,-10.97 0.62,-14.76 -1.74,-27.78 -7.05,-18.66 -6.05,-23.58 3.05,4.33 2.69,-6.28 2.2,-11.06 -0.5,-4.87 -3.74,-5.74 -3.6,-7.74 3.29,2.33 3.45,-1.82 3.45,-5.58 -0.01,-9.4 -3.06,-4.91 -2.91,-11.12 2.87,5.55 4.74,-2.12 4.84,-7.67 0.06,-3.23 -2.14,-1.62 -2.09,-4.87 1.55,1.23 2.68,4.03 3.94,-6.91 0.44,-3.92 3.66,-4.62 0.88,-11.16 -1.09,3.71 -4.92,2.88 -5.25,6.37 -1.38,-1.88 -0.92,-3.42 -1.01,-6.16z"/>
   <path class="fil2" d="M13.84 94.35c-1.93,19.13 -2.13,34.5 8.94,51.07 2.81,4.2 6.08,3.56 4.02,-1.68 -3.83,-9.7 -3.88,-11.89 -4.45,-13.84 -1.24,-4.23 -3.16,-5.06 -3.19,-6.61 0.76,0.81 2.73,-2.39 0.08,-7.63 -1.48,-2.91 -2.25,-2.3 -2.29,-3.96 0.52,0.57 2.74,1.29 1.96,-4.79 -0.31,-2.36 -2.39,-3.86 -1.82,-5.94 0.65,1.32 3.26,0.51 2.54,-5.24 -0.38,-3.02 -1.41,-2.85 -1.7,-5.96 2.5,3.63 3.74,-5.75 2.91,-8.32 -0.71,-2.22 -1.44,-4.68 -0.67,-6.19 0.35,1.61 1.5,1.52 2.09,0.33 2.07,-4.17 5.58,-13.43 5.89,-14.43 -2.01,0.9 -4.32,3.21 -4.17,-1.21 -1.69,2.97 -3.01,5.83 -5.65,5.93 0.35,4.9 -2.79,11.66 -4.49,28.47z"/>
   <path class="fil2" d="M18.28 102.41c4.69,2.79 3.02,9.11 6.89,17.79 -4.14,-4.88 -4.04,-12.34 -5.4,-13.57 0.48,2.74 0.8,6.46 -0.57,6.25 0.29,0.54 6.66,17.97 9.77,16.62 2.36,-1.03 -5.68,-24.37 -5.68,-27.54 1.3,2.03 7.02,11.26 8.85,10.69 2.53,-0.15 -2.53,-12.53 -3.14,-14.43 -1.61,-5.04 -6.24,-13.05 -5.29,-16.86 0.51,2.17 3.63,10.78 5.45,10.58 1.84,-0.2 1,-12.34 0.79,-14.66 -0.27,-2.92 -0.49,-6.53 1.48,-9.67 0.9,-1.46 2.01,-5.71 1.5,-7.91 -0.22,-0.95 -2.38,0.78 -3.12,1.57 -3.95,4.19 -3.77,15.2 -2.59,20.46 -1.09,-1.36 -2.63,-6.6 -1.57,-11.05 -1.21,2.76 -1.85,6.73 -4.24,7.17 1.66,5.69 0.88,9.08 0.27,12.24 -0.3,1.56 7.4,10.49 8.26,18.27 -0.96,-2.77 -7.89,-15.84 -10.02,-16.74 -0.04,-0.01 3.2,11.31 -1.64,10.79z"/>
   <path class="fil2 str11" d="M58.68 76.8c1.32,4.19 4.57,6.19 5.06,7.17 3.72,7.44 1.29,31.49 9.43,35.99 1.89,1.05 4.59,0.31 4.58,-1.88 -0.02,-2.13 -4.41,-2.98 -2.71,-6.69 -0.35,2.47 2.83,6.21 5.14,6.48 1.48,0.17 2.07,-1 2.09,-3.09 0.05,-3.15 -1.43,-2.01 -2.61,-3.23 1.69,0.49 1.53,0.21 3.55,-0.93 -3.06,4.26 3.92,7.62 4.44,1.81 0.65,1.71 -0.73,5.64 -4.79,3.24 0.15,1.25 -0.54,4.46 -4.38,2.78 0.04,1.68 -1.33,3.31 -5.4,2.62 -0.7,-0.11 -0.86,-0.19 -0.77,0.53 0.37,2.8 1.81,6.63 4.42,8.24 3.37,2.07 6.58,-0.05 5,-3.72 -0.76,-1.75 -2.57,-2.95 -2.78,-2.12 -0.27,-0.39 -0.12,-1.62 0.74,-2.14 -0.4,0.86 2.45,4.77 4.92,3.67 2.43,-1.07 1.31,-4.59 -1.25,-4.34 0.18,-0.15 1.08,-0.21 1.51,-1.34 0.15,-0.39 0.25,-0.76 0.26,-0.78 0.04,-0.08 -0.07,0.53 -0.03,0.9 0.24,2.71 2.88,2.5 3.82,1.17 0.75,-1.07 0.62,-2.6 -0.2,-3.86 0.93,0.56 1.28,1.58 1.21,2.58 -0.23,3.28 -3.14,2.59 -3.4,2.9 -0.38,0.43 0.44,1.44 -0.69,2.67 -1.54,1.66 -2.97,0.6 -3.42,0.97 0.39,1.76 -0.37,5.08 -0.19,5.77 0.57,0.48 1.31,1.24 2.32,1.68 2.2,0.97 4.93,0.99 4.67,-2.86 -0.15,-2.3 -1.83,-3.33 -3.21,-2.47 0.6,-1.9 2.38,-0.02 3.81,-0.86 1.33,-0.78 2.3,-3.03 -0.33,-4.67 -0.19,-0.12 2.15,-0.94 1.4,-3.17 1.38,1.96 -0.27,2.51 -0.29,3.14 -0.02,0.56 1.68,0.89 1.09,3.31 -0.28,1.15 -1.14,2.18 -2.7,2.15 3.34,7.42 -2.26,8.95 -5.99,5.7 -0.05,7.9 4.78,32.84 8.66,34.13 6.52,2.17 -0.54,-19.04 -1.37,-22.14 1.06,1.42 2.94,6.37 4.2,11.43 1.57,6.33 1.68,12.55 4.51,11 4.6,-2.53 -3.06,-20.94 -5.91,-25.12 8.25,8.31 7.37,30.58 14.14,27.34 4.96,-2.37 -5.88,-22.68 -7.23,-27.82 2.91,2.38 9.87,29.05 15.83,26.59 1.16,-0.48 1.19,-5.98 -1.04,-11.1 -2.09,-4.83 -7.87,-14.58 -9.64,-19.26 2.13,2.2 5.18,8.5 7.52,11.73 1.47,2.01 2.62,2.33 2.45,-0.18 0.94,0.67 0.35,2.85 2.23,4.47 1.15,0.99 2.51,1.64 3.24,1.46 0.57,-0.14 0.89,-0.5 0.44,-1.9 1.46,1.29 0.39,1.24 1.55,3.23 1.1,1.9 2.35,3.09 4.07,3.11 1.72,0.03 1.6,-0.81 1.2,-1.68 0.96,0.59 1.3,5.31 4.5,5.31 0.91,0.03 1.5,0.01 0.84,-1.5 1.64,1.23 2.07,2.63 4.57,4.52 4.54,3.43 14.43,8.01 14.69,6.7 -6.58,-3.86 -19.91,-14.85 -25.16,-20.26 -2.19,-2.26 -14.95,-15.65 -15.07,-20.08 5.9,11.38 30.37,32.86 40.57,39.64 0.8,0.54 1.14,-1.31 0.79,-2.62 2.64,1.02 -0.62,3.31 3.23,4.8 2.07,0.8 2.12,-0.66 1.39,-2.26 2.02,0.17 0.93,2.85 3.55,4.45 3.78,2.32 8.77,4.54 11.36,6.11 -7.83,-9.29 -20.81,-15.88 -32.53,-25.4 -9.83,-7.99 -18.47,-17.72 -22.91,-29.61 0.19,2.09 -1.99,2.62 -2.9,0.64 0.04,0.95 0.44,2.51 -0.94,3.09 -1.76,0.74 -2.7,-0.8 -2.86,-0.9 -0.04,-0.03 -0.12,2.22 -1.38,2.93 -0.91,0.52 -2.86,-0.17 -3.88,-2.38 0.73,6.27 -3.93,4.35 -5.01,1.58 0.03,2.59 -0.03,7.75 -3.71,6.13 -2.08,-0.91 -2.97,-5.04 -3.16,-5.43 -0.09,-0.19 -0.02,0.49 0.17,2.83 0.35,4.58 -4.61,2.48 -6.03,0.53 6.76,3.95 5.1,-4.15 5.26,-4.77 0.03,-0.15 1.78,3.52 3.6,4.54 3.43,1.93 3.18,-4.52 3.34,-5.83 0.22,0.57 0.95,1.75 1.75,2.54 1.31,1.28 2.96,1.66 3.23,-1.6 0.09,-1.02 0.16,-1.47 0.26,-1.56 0.33,-0.31 1.33,3.42 3.76,2.49 1.64,-0.63 1.32,-3.25 1.48,-3.42 0.13,-0.14 0.69,1.82 2.4,1.57 2.21,-0.34 1.06,-3.28 1.47,-3.51 0.24,-0.13 1.16,2.43 2.33,1.49 1.17,-0.95 -2.86,-11.01 -4.36,-5.68 -1.67,5.94 -2.4,-1.45 -2.73,2.61 -0.09,1.12 -0.79,2.97 -2.37,3.1 -1.45,0.11 -3.19,-0.7 -2.74,-2.98 -0.94,0.97 -0.87,2.78 -2.53,2.78 -1.67,0 -1.93,-0.79 -2.27,-1.35 -0.42,-0.69 -0.23,-0.47 -0.21,0.29 0.02,1.55 -0.08,4.91 -3.36,4.28 -2.89,-0.56 -3.09,-4.12 -1.98,-6.35 0.05,2.19 -0.28,4.85 2.57,5.11 2.18,0.2 1.69,-4.8 2.78,-4.96 0.23,0.89 1.25,2.5 3.07,1.98 0.85,-0.25 0.95,-1.57 2.58,-2.73 0.11,4.71 3.87,3.19 3.96,-0.69 0.05,-2.18 1.39,0.61 2.22,-0.17 1.1,-1.02 -0.05,-5.48 -0.36,-6.65 0.72,2.3 2.53,5.06 3.32,3.33 0.77,-1.68 -2.72,-6.58 -3.61,-7.71 -4.94,10.71 -16.08,13.12 -7.51,-3 -3.17,4.23 -5.99,4.24 -6.91,3.78 -4.73,-2.35 3.57,-18.09 3.67,-18.97 -4.58,6.75 -11.09,9.96 -11.44,5.01 -0.4,-5.63 4.09,-11.46 8.15,-15.97 -1.22,1.05 -4.03,3.63 -6.49,4.8 -4.77,2.26 -4.85,-2.82 -2.78,-5.71 2.64,-3.71 8.9,-5.55 10.11,-11.83 -2.46,6 -8.76,9.01 -14.11,8.15 -4.45,-0.72 -8.21,-4.44 -8.9,-8.46 -0.1,-0.57 -3.42,7.77 -8.41,8.54 -4.64,0.71 -6.07,-1.89 -7.53,-3.92z"/>
   <path class="fil2" d="M100.5 67.94c0.63,1.38 -2.87,15.07 2.52,9.26 2.12,-2.29 2.3,-3.23 4.13,-5.54 1.58,-1.99 -2.2,8.25 -1.27,9.39 0.75,0.9 3.51,-2.4 4.39,-4.02 1.74,-3.18 2.8,-6.88 3.28,-6.4 2,1.98 -1.91,14.01 -0.03,14.97 1.47,0.74 3.65,-2.15 4.98,-5.95 0.57,-1.63 1.92,-7.89 1.29,-9.55 -0.49,-1.27 -2.15,9.24 -4.79,12 0.48,-2.23 4.44,-12.8 2.24,-13.46 -1.97,3.08 -5.14,0.84 -5.28,0.13 -1.76,1.15 -0.87,5.27 -3.63,8.18 0.65,-2.24 1.97,-6.35 1.18,-7.45 -1.39,0.21 -2.34,-0.63 -2.94,-2.31 -0.57,1.37 -1.35,1.61 -1.91,1.51 -0.31,2.6 -2.3,5.88 -2.34,6.56 0,-0.5 1.27,-3.77 1.11,-5.52 -0.19,-1.99 -2.96,-1.87 -2.93,-1.8z"/>
   <path class="fil2" d="M119.99 68.47c0.06,1.4 2.43,2.69 2.47,7.82 0.03,4.49 -1.81,8.81 -0.9,9.87 0.37,0.42 0.96,0.48 2.3,-0.59 3.82,-3.06 3.32,-14.71 3.21,-18.99 2.18,3.71 1.78,13.38 1.78,15.17 6.17,-1.37 3.02,-15.58 3.64,-18.61 1.41,2.85 0.72,13.8 2.9,14.39 4.57,1.24 1.54,-22.58 1.21,-23.91 0.68,1.19 0.85,5.7 1.78,6.35 1.23,0.87 1.29,-2.37 0.77,-6.96 2.08,3.18 0.32,16.83 2.36,16.56 1.71,-0.23 1.8,-6.75 1.13,-12.6 -0.7,-6.02 -2.63,-11.69 -3.14,-13.02 4.03,4.68 4,17.57 6.35,17.74 4.22,0.29 -1.56,-18.91 -7.59,-23.62 1.38,-0.05 3.68,2.73 4.72,3.92 0.92,1.05 1.92,-1.39 1.76,-2.44 -1.01,-6.43 -2.87,-6.36 -2.05,-10.46 0.46,2.53 6.75,13.16 6.75,8.03 0,-1.92 -2.98,-10.67 -3.61,-12 3.18,2.41 5.17,14.8 8.35,14.56 2.06,-0.14 -1.08,-12.28 -4.55,-16.77 4.45,2.17 6.12,16.58 9.8,14.84 4.12,-1.96 -6.05,-16.39 -9.57,-19.04 -1.9,-1.44 -3.38,-1.66 -3.33,-0.16 0.04,1.25 1.79,7.41 -2.11,4.84 -0.96,-0.64 0.61,5.01 -2.2,5.19 -2.18,0.14 -3.1,-4.1 -3.76,-5.04 -0.25,-0.36 1.84,5.1 -0.32,5.8 0.31,1.25 2.56,1.25 1,4.34 0.34,1.54 4.84,2.46 3.98,5.64 -0.15,-1.59 -3.57,-4.08 -5.91,-3.22 0.16,0.57 0.93,2.61 0.94,3.33 1.46,1.7 3.35,2.49 5.16,9.28 -1.03,-1.22 -3.82,-7.13 -5.17,-8.02 -0.03,0.82 0.04,1.4 -0.59,2.06 0,0.02 3.3,6.83 3.15,10.45 -0.49,-1.97 -2.49,-7.89 -3.78,-9.84 -0.62,0.41 -1.54,0.44 -2.23,0.17 0.5,1.17 4.46,7.89 3.56,12.52 -0.23,-2.98 -1.49,-5.05 -2.37,-7.59 -0.04,-0.1 -1.13,2.55 -3.42,2.22 2.09,2.21 4.64,15.13 3.49,19.48 -0.54,-6.13 -1.37,-10.57 -2.38,-12.78 -1.57,1.98 -2.01,2.16 -4.05,1.54 1.12,1.42 1.47,13.3 0.48,15.27 0.19,-3.86 -0.7,-7.03 -0.7,-12.36 0,-0.73 -1.16,4.84 -4.89,2.52 1.56,5.95 1.45,13.26 -0.61,16.33 0.31,-3.7 1.42,-17.08 -3.81,-12.21z"/>
   <path class="fil2" d="M145.47 43.17c-0.73,0.84 2.97,16.03 5.44,16.2 5.44,0.37 -0.1,-16.52 -0.53,-19.9 2.03,3.73 4.55,22.6 7.85,22.33 6.88,-0.55 0.73,-18.34 -0.8,-21.67 1.72,1.64 5.78,15.38 8.36,17.82 1.62,1.53 2.89,-0.82 2.42,-5.76 -0.14,-1.37 -1.97,-8.62 -3.3,-11.1 2.02,1.39 3.49,9.75 4.33,9.42 1.56,-0.61 -0.38,-6.87 -2.66,-10.75 -2.87,-4.88 -6.24,-7.76 -5.5,-4.93 0.55,2.1 0.12,2.64 -0.12,3.35 -0.58,1.71 3.96,6.08 4.79,15.9 -1,-4.07 -4.71,-14.74 -7.67,-15.24 -1.51,-0.47 -1.35,-0.81 -1.77,-1.14 0.15,1.28 -0.34,2.77 -1.16,3.13 -0.06,0.18 4.86,12.81 3.45,17.12 0.06,-4.41 -4.13,-16.68 -4.76,-16.78 -1.94,-0.32 -2.33,-0.93 -2.97,-2.72 -0.34,1.28 -1.37,2.16 -2.71,1.34 0.98,2.32 3.47,12.94 2.27,15.92 -0.12,-3.49 -1.13,-10.41 -3.53,-15.46 0,0.92 -1.54,3.05 -1.43,2.92z"/>
   <path class="fil2" d="M99.5 71.49c-1.58,3.84 -2.5,5.69 -4.65,7.64 -2.45,2.21 -5.55,3.83 -7.03,6.76 -1.44,2.86 -1.27,4.44 2.29,3.2 3.04,-1.06 5.31,-3.52 7.98,-5.64 0.97,-0.78 1.42,-1.17 1.51,-1.2 0.16,-0.05 -6.28,8.32 -8.21,11.75 -1.01,1.79 -5.28,13.73 5.34,4.77 3.68,-3.1 6.47,-10 7.94,-14.47 0.79,5.73 -13.41,29.05 -7.15,29.7 7.3,0.76 13.03,-23.97 14.06,-26.47 0.79,3.53 -5.62,20.56 -7.01,23.59 -0.6,1.29 -5.15,9.51 -3.06,10.92 3.3,2.23 10.44,-10.57 11.45,-12.66 3.96,-8.22 5.13,-18.99 5.69,-21.21 0.84,2.54 -1.65,23.33 -2.4,26.15 -0.08,0.31 -1.26,6.97 -0.44,9.28 1.67,4.67 5.93,-4.04 7.53,-12.34 1.38,-7.13 1.12,-13.49 1.15,-14.5 0.03,-1 -0.92,-11.59 0.2,-5.63 1.38,7.36 2.96,15.84 3.43,23.32 0.28,4.51 1.29,4.16 3.05,-0.62 1.23,-3.33 1.75,-8.81 1.91,-10.47 0.45,-4.71 -1.16,-14.71 -1.82,-18.51 1.96,0.54 3.91,31.2 6.08,24.19 2.73,-8.78 -0.01,-18.99 -1.31,-27.76 -0.97,-6.51 2.42,7.89 2.69,8.98 0.65,2.59 4.51,11.49 5.31,4.67 1.15,-9.94 -3.17,-18.52 -3.05,-21.4 0.01,-0.05 3.67,10.74 4.93,10.4 3.1,-0.81 2.48,-19.19 -0.07,-21.37 -0.21,-0.18 -1.74,0.06 -2.31,-2.65 0,2.66 0.58,5.6 -0.55,9.1 0.32,1.61 3.6,3.62 2.59,12 0,-2.29 -0.98,-10.22 -3.66,-10.46 -2.96,-0.25 -1.65,-7.19 -2.18,-10.47 -0.35,0.83 -0.96,1.02 -1.75,0.47 0.04,1.26 1.7,9.96 0.61,13.84 -0.36,1.27 3.87,10.02 3.54,15.57 -0.65,-2.45 -3.3,-10.52 -4.64,-12.67 -1.22,2.56 -3.15,1.44 -4.17,-1.92 -0.34,1.09 -0.04,3.61 0.24,5.26 1.16,6.75 4.1,15.63 2.92,24.12 -0.2,-3.68 -2.91,-21.85 -4.45,-24.59 -0.35,0.82 -1.5,2.39 -3.09,2.51 0.95,3.9 2.76,12.72 1.1,27.43 0.09,-7.63 -2.53,-26.83 -2.4,-30.02 -0.78,1.96 -1.13,6.35 -4.27,7.17 -2.33,0.61 0.15,19.34 -3.96,26.26 1.12,-6.92 1.81,-23.49 0.75,-26.81 -0.37,-1.17 2.97,-9.71 0.58,-15.61 0.05,5.4 -1.78,11.51 -4.11,14.03 -0.01,0 -2.75,22 -10.39,30.08 5.61,-11.41 9.64,-28.73 9.12,-29.32 -1.89,1.15 -3.16,0.43 -3.31,-0.54 -0.62,-3.99 1.93,-8.14 1.38,-13.37 -0.7,4.7 -3.55,8.07 -5.54,9.43 2.06,4.73 -4.72,23.36 -8.08,26.08 4.1,-8.39 8.45,-23.29 6.95,-25.26 -2.45,0.68 -2.08,-1.45 -1.77,-2.75 -0.38,-0.27 -8.1,12.91 -10.8,17.29 1.13,-5.71 11.71,-20.17 12.27,-22.76 -0.17,-0.23 -2.13,3.78 -4.58,5.16 -3.02,1.7 -4.44,1.94 -10.4,5.94 3.3,-4.14 6.93,-5.05 7.43,-6.97 0.29,-3.62 0.26,-5.28 0.59,-6.64z"/>
   <path class="fil2" d="M161.54 60.37c1.91,10.12 2.54,28.95 1.96,40.65 -0.24,4.98 -3.48,16.99 -6.54,21.05 -2.3,3.05 -5.54,3.87 -4.76,2.29 1.94,-3.88 1.66,-6.72 2.83,-8.81 0.9,-1.61 1.95,-1.52 1.92,-2.87 -1.69,1.54 -1.62,-1.19 -0.8,-3.56 0.62,-1.79 2.84,-1.59 2.51,-2.99 -0.45,0.67 -2.54,2.02 -1.62,-3.85 0.45,-2.87 3.04,-3.06 2.34,-4.62 -0.38,0.76 -1.56,1.64 -1.44,-1.99 0.16,-4.61 2.07,-3.02 1.91,-5.62 -0.03,0.04 -1.93,3.62 -2.24,-0.28 -0.31,-3.96 1.9,-3.89 1.2,-6.72 -0.72,4.94 -3.23,-0.76 -1.97,-4.5 0.31,-0.95 2.22,-1.12 1.45,-3.6 -1.84,3.46 -1.94,-13.41 -2.09,-13.91 2.36,3.96 5.32,-0.72 5.34,-0.67z"/>
   <path class="fil2" d="M154.32 56.41c2.59,12.91 1.67,24.16 0.19,37.6 -0.35,3.12 -2.95,10 -4.01,9.47 -0.9,-0.46 -0.19,-7.69 0.05,-8.64 0.39,-1.59 1.29,-0.96 1.23,-2.97 -0.78,1.41 -1.42,1.05 -1.79,-1.24 -1.31,-8.06 0.86,-5.86 0.87,-7.99 -0.69,1.21 -2.14,0.03 -2.16,-2.43 -0.06,-5.65 1.59,-3.62 1.65,-6.05 -0.95,1.7 -1.6,-0.67 -1.77,-3.78 -0.63,-11.15 0.15,-3.48 -0.58,-13.05 0.19,-0.06 0.66,2.85 2.74,3.58 2.19,0.76 3.57,-4.51 3.58,-4.5z"/>
   <path class="fil2" d="M73.82 126.97c-0.6,4.96 3.64,11.13 4.28,7.12 0.13,-0.81 0.76,-0.93 0.55,0.53 -0.27,1.88 0.51,3.59 1.45,3.76 2.06,0.38 1.46,-5.82 1.29,-6.99 -0.14,-0.98 -0.29,0.63 -0.84,2.21 -0.39,1.15 -0.51,1.17 -0.47,0.11 0.06,-1.17 0.48,-4.2 -2.5,-1.64 -1.56,1.33 -3.74,-5.3 -3.76,-5.1z"/>
   <path class="fil2" d="M73.99 133.09c-2.18,1.76 -1.29,9.32 2.42,6.45 0.84,-0.65 1.59,-2.27 0.88,0.06 -0.99,3.26 2.1,3.24 2.68,1.76 0.28,-0.72 0.43,-1.2 0.43,-0.05 0,1.59 1.75,3.16 2.06,1.61 0.45,-2.25 -1.07,-7.45 -0.82,-2.58 0.04,0.74 -0.24,1.27 -0.31,0.76 -0.21,-1.42 -1.68,-3.06 -2.14,-1.53 -0.3,1.02 -0.82,1.54 -0.56,0.23 0.26,-1.35 -0.8,-4.04 -2.05,-3.09 -2.27,1.73 -1.89,1.36 -1.23,0.03 0.5,-1.02 -0.22,-3.22 -1.36,-3.65z"/>
   <path class="fil2" d="M72.18 137.56c-0.95,1.56 -4.73,14.25 -5.37,18.79 -0.64,4.55 2.07,6.85 2.93,4.52 1.24,-3.33 2.73,-10.38 4.04,-14.56 0.57,2.05 -2.77,9.08 -1.16,14.81 0.89,3.16 1.89,5.01 3.29,4.38 1.73,-0.79 0.33,-7.86 2.01,-11.3 0.03,-0.05 2.07,12.45 5.18,10.15 3.44,-2.54 -0.27,-24.65 -1.87,-19.13 -0.24,0.83 -0.51,6.38 0.55,12.26 -3.24,-5.29 -1.04,-13.09 -2.03,-15.15 -1.4,1.04 -1.83,0.58 -2.21,0.35 -0.74,1.38 -2.99,12.63 -2.91,18.67 -1.73,-7.64 2.28,-17.37 1.86,-20.76 -0.39,0.52 -1.06,0.47 -2.15,0.27 -2.22,1.95 -5.05,13.04 -5.43,15.51 -0.16,-7.37 3.23,-13.99 4.52,-16.07 -0.62,-0.49 -1.21,-0.69 -1.25,-2.74z"/>
   <path class="fil2" d="M118.81 127.32c0.79,3.33 1.69,6.79 3.93,10.49 2.8,4.62 6.89,9.24 12.62,14.39 7.01,6.3 15.51,13.24 23.48,18.53 1.29,0.86 4.12,3.02 4.19,2.84 0.11,-0.28 -10.15,-11.45 -10.15,-9.86 0,0.23 0.87,1.94 0.08,1.32 -0.08,-0.07 -0.36,-2.09 -1.77,-3.32 -0.69,-0.61 -1.54,-2.14 -0.52,0.34 0.34,0.82 -1.09,0.01 -1.6,-1.64 -0.12,-0.38 1.04,-0.89 -1.72,-3.91 -1.12,-1.22 -1.43,-0.49 -1.02,1.8 -1.5,-1.23 -0.8,-4.53 -1.61,-5.64 -1.67,-2.29 -2.53,-1.5 -2.58,1.41 -1.22,-2.15 0.42,-4.32 -1.59,-6.55 -1.56,-1.74 -2.96,-1.94 -2.74,0.91 -1.46,-1.07 1.17,-3.1 -2.15,-7.11 -1.01,-1.22 -1.75,1.91 -0.91,3.41 -1.44,-0.91 -0.96,-2.48 -1.23,-3.76 -0.03,-0.13 -0.6,-2.64 -1.3,-3.05 -0.75,-0.43 -2.3,0.91 -0.95,1.83 -2.58,-0.71 -0.37,-1.76 -1.21,-3.94 -0.83,-2.15 -1.91,-2.56 -3.66,-3.85 -0.84,-0.62 -3.33,1.19 -0.75,5.03 3.68,5.47 13.7,16.1 19.9,22.98 -14.84,-13.33 -22.37,-22.99 -23.72,-29.15 -0.18,-0.81 -0.97,-1.33 -3.02,-3.5z"/>
   <path class="fil2" d="M114.48 153.49c-0.83,0.2 17.58,36.53 23.69,41.11 0.91,0.68 3.09,0.39 3,-1.6 -0.15,-3.57 -0.69,-5.46 -2.13,-8.33 -2.12,-4.25 -1.88,-2.01 -3.72,-3.38 1.38,-0.39 1.64,-0.1 0.53,-2.53 -1,-2.19 -1.48,-0.8 -2.73,-1.52 0.92,-0.55 1.24,-0.79 0.55,-2.39 -1.58,-3.66 -1.7,-1.03 -3.41,-2.33 1.54,-0.33 2.05,-0.95 1.27,-2.48 -2.64,-5.16 -2.08,-1.77 -3.72,-2.37 2,-1.12 0.82,-4.34 0.06,-5.09 -0.2,-0.21 -4.12,0.56 -6.28,-4.5 -1.6,2.84 15.7,27.14 17.44,35.53 -4.31,-11.16 -18.56,-25.24 -19.11,-35.59 -2.76,0.27 -4.05,-2.38 -5.44,-4.53z"/>
   <path class="fil2" d="M129.18 163.93c0.68,2.77 14.21,27.49 17.96,32.06 0.62,0.75 1.31,1.32 1.99,1.68 2.16,1.16 2.29,0.54 1.94,-1.46 -0.51,-2.92 -2.02,-7.98 -3.27,-6.66 -0.46,0.49 -0.44,0.81 -0.21,1.73 -0.93,-0.88 -0.58,-1.57 -0.56,-2.8 0.06,-2.85 -2.32,-5.08 -2.42,-1.7 -0.97,-1.57 0.45,-2.28 0.31,-3.06 -0.15,-0.88 -1.99,-4.24 -2.84,-1.98 -0.47,-0.66 0.25,-0.95 0.33,-1.63 0.06,-0.57 -0.16,-1.93 -0.63,-2.52 -0.66,-0.82 -1.67,-0.66 -1.75,0.79 -0.51,-0.69 0.17,-2.55 -0.04,-3.73 -0.28,-1.54 -2.3,-6.15 -2.39,-2.79 -1.12,-1.06 0.41,-2.3 -0.44,-3.05 -1.36,-0.32 -2.85,-2.33 -3.1,-3.28 -1.65,0.06 2.14,9.15 9.26,22.46 -1.21,-0.6 -10.91,-18.71 -10.48,-21.97 -2.13,-0.34 -2.57,-0.55 -3.66,-2.09z"/>
   <path class="fil2" d="M139.68 170.55c-0.22,1.06 3.47,10.18 3.39,5.94 0.94,0.95 0.28,1.5 0.68,3.28 0.19,0.85 0.59,1.75 1.18,2.43 0.3,-0.46 0.54,-0.98 0.52,-1.52 0.22,0.48 0.45,0.77 0.21,1.53 -0.38,1.15 0.33,2.92 1.8,4.64 0.82,0.95 1.47,1.41 1.35,-0.05 0.89,0.81 -0.21,2.26 1.73,4.49 2.07,2.37 2.34,1.25 2.04,0.48 1.03,-0.18 0.55,4.74 8.64,7.64 3.02,1.08 3.42,0.5 2.23,-2.42 -1.52,-3.73 -5.08,-8.71 -5.83,-6.58 0.24,-2.64 -2.46,-6.36 -3.67,-4.82 0.27,-1.86 -3.22,-7.84 -4.57,-6.65 0.52,-1.35 -0.29,-2.38 -1.97,-4.61 -1.16,0.26 -1.22,-0.02 -3.8,-1.77 -0.63,0.93 10.71,17.17 15.16,22.59 -5.04,-4.81 -14.04,-16.12 -16.78,-23.08 -0.06,-0.16 -2.28,-1.66 -2.31,-1.52z"/>
   <path class="fil2" d="M148.82 174.95c1.44,3.93 3.08,4.37 5.69,5.72 -1.13,0.07 -0.36,1.6 -0.05,2.17 1.02,1.91 0.89,0.2 2.3,0.78 -1.45,0.81 -0.31,1.98 0.56,3.04 0.92,1.14 0.58,0.34 2.07,0.34 -1.06,0.51 -0.98,1.57 0.51,2.73 1.4,1.08 0.99,-0.13 2.1,-0.12 -1.86,1.95 4.64,5.33 7.02,5.55 1.64,0.15 -0.32,-4.07 -0.96,-4.98 -0.53,-0.74 -1.77,-1.54 -2.56,-0.76 -0.11,-1.28 2.07,-0.65 0.19,-2.21 -0.31,-0.26 -2.03,-1.33 -2.89,-1 0.21,-0.59 0.88,-0.46 0.99,-0.5 0.95,-0.32 -1.12,-3.31 -3.54,-3.03 0.29,-0.59 1.18,0.05 0.88,-1.13 -0.34,-1.37 -2.76,-3.76 -3.52,-2.55 -0.19,-1.2 2.06,-1.16 1.13,-2.41 -0.29,0.17 -1.88,0.23 -2.94,-0.46 -1.17,-0.75 -1.54,-1.83 -1.76,-2.62 -0.36,0.71 -0.54,0.92 -1.28,1.47 2.9,2.54 11,13.21 12.82,16.39 -3.1,-2.55 -9.69,-12.37 -13.59,-15.71 -0.76,0.12 -1.69,0.04 -3.17,-0.71z"/>
   <path class="fil2" d="M159.19 178.21c0,0 2.59,3.18 4.71,5.9 2.99,3.84 10.3,8.74 11.07,5.4 0.81,-3.5 -6.8,-6.64 -8.53,-7.86 -4.44,-3.15 3.33,4.45 5.77,6.44 -4.37,-2 -7.06,-4.93 -8.94,-7.56 -0.25,-0.35 -1.46,-1.87 -4.08,-2.32z"/>
   <path class="fil0" d="M81.97 11.18c-2.14,-0.42 -7.77,4.2 -8.71,6.06 -3.67,7.29 -5.12,7.74 -3.35,15.61 0.64,2.89 2.8,5.93 3.03,8.7 0.59,7.3 -1.94,6.36 -4.88,12.23 -1.33,2.67 0.7,6.7 -1.49,9.32 0.89,-4.01 -1.95,-3.99 -2.19,-9.65 -0.07,-1.62 0.8,-3.6 -1.01,-2.89 -1.2,0.48 -0.53,2.56 -4.96,4.21 1.92,-2.64 0.36,-4.7 2.69,-8.91 -2.2,2.97 -5.01,0.25 -4.77,5.73 -1.67,-3.02 -1.4,-6.33 0.59,-8.51 1.79,-1.96 -1.31,1.05 -4.01,-1.35 -1.05,-0.93 -3.02,-4.76 -1.81,-6.42 -0.43,1.93 3.05,5.68 4.28,3.56 1.28,-2.21 -2.25,-3.93 2.52,-5.89 1.76,-0.72 -1.55,-1.35 -3.69,-3.94 -3.2,-3.88 0.32,-9.02 5.54,-8.97 2.78,0.03 1.86,-3.39 1.23,-3.22 -5.06,1.39 -1.72,-3.55 -5.96,-0.1 -1.72,1.4 -5.82,1.3 -6.86,-1.65 3.55,3.26 4.99,-2.91 8.95,-2.74 2.66,0.12 4.23,3.38 6.23,-0.67 0.78,-1.57 2.22,-2.91 3.72,-3.73 3.84,-2.09 6.52,-1.91 10.78,-1.14 0.81,0.15 4.59,2.7 5.55,0.94 0.8,-1.44 4.31,-2.48 5.93,-2.48 5.46,0 7.31,2.27 11.17,5.17 2.41,1.82 4.92,1.39 7.78,0.33 2.18,-0.82 6.03,0.37 6.61,2.27 0.37,1.18 0.52,3.36 -2.13,3.87 0.6,-0.31 1.5,-2.19 0.24,-2.88 -2.44,-1.34 -7.05,2.04 -4.23,5.98 1.65,2.3 5.42,3.55 7.95,1.77 1.77,-1.25 2.85,-0.1 4.14,1.6 4.02,5.33 5.76,1.24 5.76,1.36 -0.03,2.29 -1.1,4.85 -4.04,4.25 -2.21,-0.46 -3.07,-3.4 -5.28,-0.95 -2.94,3.27 -7.93,-0.96 -6.65,2.62 0.63,1.78 2.02,-0.38 3.37,-0.38 2.32,0 3.78,0.82 4.71,2.01 4.11,5.23 5.15,2.7 5.48,2.12 0.08,0.49 -0.03,1.16 -0.57,1.73 -1.43,1.52 -5.67,2.66 -6.93,0.61 -1.85,-3 -5.71,0.85 -3.42,0.85 2.24,0 4.4,1.73 4.55,3.65 0.13,1.73 0.53,6.22 2,7.28 0.83,0.59 2.28,1.17 3.11,0.97 -1.5,0.93 -4.18,1.14 -6.37,-1.33 -1.39,-1.57 -1.98,-5.12 -4.48,-5.61 -0.42,-0.09 -2.32,1.28 -1.49,1.74 2.02,-0.06 2.64,0.8 3.53,2.96 1.21,2.95 -0.98,7.42 5.56,9.82 -2.43,0 -6.3,-1.09 -7.29,-1.69 -3.57,-2.17 -3.11,-6.44 -5.4,-7.97 1.35,2.57 1.52,4.57 1.46,6.36 -0.1,2.72 -0.84,5.98 1.73,7.73 -4.29,-1.12 -3.93,-9.99 -7.13,-11 0.34,0.64 0.95,3.11 0.27,4.91 -0.79,2.09 -2.1,3.62 -4.65,3.62 0.33,0.04 2.45,-1.43 2.71,-2.82 0.59,-3.23 0.2,-4.11 -3.63,-6.99 -2.68,-2 0,-4.15 -0.72,-7.37 0.01,3.24 -5.97,5.26 -4.11,10.49 -2.57,-2.91 0.4,-11.55 0.92,-12.83 2.14,-5.19 2.88,-13.94 0.63,-19.03 -1.28,-2.9 -5.23,-4.7 -8.09,-7.64 -0.01,-0.01 -5.27,-3.28 -4.55,-1.89l0.13 0.21z"/>
   <path class="fil0" d="M72.38 25.83c0.72,-4.53 7.67,-0.31 8.75,-2.54 0.58,-1.2 1.13,-1.85 0.95,-0.58 -0.62,4.25 -3.77,1.88 -6.29,1.88 -1.14,0 -2.66,0.12 -3.41,1.24z"/>
   <path class="fil0" d="M84.86 31.03c0.92,0.57 1.35,1.96 0,2.19 0.12,2.2 -2.49,2.2 -2.53,0.25 -1.25,0.34 -2.15,-1.39 -0.35,-1.96 0.22,-0.07 -2.54,-0.06 -1.92,1.61 0.32,0.84 1.09,1.09 1.9,1.06 -0.37,2.33 4.19,2.4 3.64,-0.69 1.13,-0.12 1.45,-1.7 0.37,-1.92 1.92,0.56 3.86,2.67 3.95,4.22 -0.09,-4.98 -4.08,-4.02 -5.08,-6.98 -0.25,-0.73 -0.84,-3.85 -0.62,-4.47 1.71,0.71 3.31,-1.01 5.18,-1.05 0.77,-0.02 3.21,0.43 4.1,1.93 -2.21,-3.96 -5.69,-2.51 -7.97,-1.93 -0.67,0.17 -1.49,-0.48 -1.45,-2.22 -1.08,1.67 -0.47,9.17 0.78,9.96z"/>
   <path class="fil0" d="M79.14 40.04c-0.27,-0.93 1.92,-2.85 4.04,-1.61 0.8,0.47 0.52,-0.44 1.67,-0.12 0.42,0.11 0.83,-0.23 1.54,-0.4 1.09,-0.26 2.89,0.05 3.19,1.48 -0.54,-0.48 -1.23,-1.16 -2.59,-0.98 -1.73,0.23 -2.25,0.88 -2.68,0.96 -0.49,0.08 -0.88,-0.44 -2.95,-0.62 -0.64,-0.06 -1.82,0.52 -2.22,1.29z"/>
   <path class="fil0" d="M86.07 40.72c-0.21,0.03 -1.69,0 -1.75,0.25 -0.18,0.05 1.34,0.01 1.48,0.34 -3.07,-0.19 -0.93,3.88 -1.68,3.22 -0.5,-0.44 -1.41,-2.87 -0.39,-3.47 0.09,-0.41 -0.9,-0.37 -1.81,-0.26 0.54,-0.7 2.56,-0.92 4.15,-0.08z"/>
   <path class="fil3 str11" d="M85.41 26.08c3.42,-1.97 3.56,-1.21 7.32,-0.66 0.32,0.05 -3.94,3.8 -7.32,0.66z"/>
   <path class="fil3 str12" d="M80.79 26.64c-3.41,-1.97 -3.55,-1.21 -7.31,-0.66 -0.32,0.05 3.94,3.8 7.31,0.66z"/>
   <path class="fil1 str13" d="M77.48 27.88c1.47,0 1.43,-2.72 -1.06,-2.1 -0.63,0.16 -0.86,2.1 1.06,2.1z"/>
   <path class="fil1 str14" d="M88.48 25.13c-0.96,0.12 -1.08,2.05 0.38,2.11 0.57,0.02 1.23,-0.16 1.29,-1.09 0.08,-1.03 -0.71,-1.14 -1.67,-1.02z"/>
   <path class="fil2" d="M81.52 10.88c0.07,0.12 -4.29,5.55 -6.62,6.31 -2.75,0.9 -4.4,2.48 -4.64,5.81 -0.23,3.25 -1,-2.53 -0.84,-3.49 0.45,-2.61 4.02,-3.36 6.91,-8.09 2.26,-3.69 6.75,-2.31 4.61,-1.64 -1.87,0.58 -3.95,3.87 -6.13,5.45 -1.32,0.97 -4.1,2.18 -2.19,1.29 3.39,-1.57 2.93,-1.2 5.52,-3.99 0.67,-0.71 2.86,-2.59 3.38,-1.65z"/>
   <path class="fil2" d="M79.11 8.01c-2.39,-1.58 -7.99,-1.51 -10.89,0.1 -2.99,1.66 -3.24,3.69 -4.29,4.78 -3.6,3.8 -6.28,-1.65 -9.26,1.34 -0.53,0.54 -1.36,2.01 -3.41,2.34 2.26,0.51 2.15,0.21 4.52,-1.5 2.05,-1.48 4.42,0.32 5.86,0.32 -1.73,0.59 -2.66,-0.7 -4.6,-0.38 1.87,0.36 2.07,1.25 3.23,1.47 5.11,0.95 4.66,-2.32 7.17,-4.91 0.79,-0.81 0.9,-1.48 2.05,-2.18 3.47,-2.09 5.93,-0.02 8.04,-1.07 -1.66,1.75 -5,-0.24 -6.75,1.37 -0.61,0.56 -2.62,0.98 -3.03,2.68 -0.89,3.77 -3.03,5.4 -5.87,4.56 0.37,0.5 0.95,0.71 2.12,1.01 -2.22,0.21 -0.16,2.65 -5.49,3.05 1.84,0.43 3.24,0.46 3.86,-0.21 3.74,-4.08 3.5,-2.44 5.39,-4.5 1.85,-2 1.21,-2.54 2.32,-3.82 1.12,-1.29 3.34,-0.22 4.2,-1.57 -0.64,1.2 -1.28,1.16 -3.01,1.56 -1.72,0.41 -1.17,2.23 -2.98,3.99 -2.17,2.12 -2.78,1.99 -4.94,4.25 -2.35,2.45 -10.48,-0.69 -8.38,6.68 0.43,1.49 4.43,3.38 4.72,5.39 0.27,-0.85 0.56,-2.37 -0.71,-4.74 -0.62,-1.16 -0.27,-2.85 1.12,-3.36 3.29,-1.21 3.6,1.4 5.58,-2.9 0.41,-0.9 4.65,-3.99 2.98,-3.39 -3.5,1.24 -2.38,5.23 -8.34,4.98 -1.91,-0.09 -3.83,2.73 -2.26,5.98 -1.98,-2.18 -2.07,-5.57 2.26,-7.18 2.57,-0.95 2.1,1.51 4.99,-2.6 1.05,-1.5 4.02,-0.84 6.01,-4.49 0.72,-1.33 3.37,-3.29 4.66,-4.38 0.88,-0.75 4.03,-2.08 3.13,-2.67z"/>
   <path class="fil2" d="M67.42 20.8c-2.24,2.1 -0.98,-0.08 -2.21,3.4 -1.01,2.88 -6.66,-1.85 -4.52,5.07 0.17,0.54 0.28,3.33 0.14,4 -0.19,0.09 0.13,0.75 -1.57,1.11 -0.79,0.16 2.08,0.2 2.02,-1.3 -0.08,-2.03 -0.27,-3.31 1.53,-3.89 2.66,-0.88 2.97,1.72 5.07,-2.79 0.72,-1.56 1.68,-2.39 -0.62,-1.59 -1.77,0.61 0.5,2.17 -4.2,1.97 -0.62,-0.02 -0.67,2.51 -0.76,0.07 -0.06,-1.43 3.27,0.44 3.55,-1.91 0.14,-1.12 1.35,-1.78 1.4,-3.95 0.01,-0.1 0.1,-0.13 0.17,-0.19z"/>
   <path class="fil2" d="M59.19 33.13c-5.52,0.86 -0.12,5.38 -4.29,7.19 -0.61,0.26 -2.33,-0.37 -3.62,-2.47 1.71,8.24 10.8,3.53 10.52,-3.41 -4.65,0.2 -1.44,3.62 -4.78,6.17 2.34,-4.65 0.35,-5.15 2.17,-7.48z"/>
   <path class="fil2" d="M68.57 28.09c-1.69,2.06 -2.52,1.56 -5.05,2.39 -1.94,0.65 -0.77,4.54 -1.3,6.47 -0.52,1.86 -1.25,4.02 -3.31,5.13 -2.45,1.33 -3.42,4.63 -2.98,7.38 0.86,-4.49 5.31,-3.87 6.72,-5.13 3.01,-2.7 0.69,-8.33 2.64,-8.83 2.32,-0.59 2.85,-1.31 3.36,-3.82 0.26,-1.23 0.6,-4.08 -0.61,-0.84 -0.48,1.29 -1.7,0.43 -2.58,1.97 -1.87,3.29 -1.86,4.98 -3.29,8.36 -0.86,2.04 -2.61,2.74 -0.5,0.24 1.18,-1.4 1.95,-8.45 5.14,-10.68 0.96,-0.67 2.41,-3.44 1.76,-2.64z"/>
   <path class="fil2" d="M68.79 32.03c0,-0.01 4.04,6.05 3.79,11.72 -0.1,2.07 -1.67,4.36 -2.68,5.97 -2.91,4.6 -3.26,5.2 -2.77,11 -2.65,-6.05 -0.42,-9.52 -0.57,-9.94 -0.19,-0.57 -1.69,2.23 -1.3,4.46 -1.75,-4.73 3.52,-9.17 2.99,-11.6 -1.33,3.24 -3.56,5.66 -5.65,6.53 -1.84,0.76 -2.42,2.3 -2.85,3.68 0,-3.2 2.55,-4.31 2.55,-7.21 0,-0.02 -0.79,2.44 -1.99,3.73 0.67,-6.93 5.43,-4.58 4.79,-12.07 0,-0.01 -0.43,-1.26 0.35,-2.08 0.13,-0.13 3.37,7.34 -3.59,13.7 7.77,-5.56 4.66,-14.22 4.79,-14.34 1.51,-0.47 1.53,-1.45 1.62,-1.29 1.96,3.4 2.67,8.48 0.98,12.31 -1.63,3.7 -2.45,4.67 -2.74,8.72 1.5,-6.53 3.32,-5.39 4.41,-11.57 0.52,-2.97 -2.37,-11.3 -2.13,-11.72z"/>
   <ellipse class="fil0 str15" cx="77.21" cy="26.64" rx="0.22" ry="0.21"/>
   <ellipse class="fil0 str16" cx="88.96" cy="26.17" rx="0.22" ry="0.21"/>
   <path class="fil2" d="M94.35 35.75c2.59,1.17 3.01,3.01 2.05,5.63 -0.8,2.19 -3.59,4.43 -4.04,7.54 0.04,-4.42 1.44,-5.53 0.45,-7.09 0.29,-0.45 0.8,-2.26 0.91,-3.47 0.27,0.04 0.6,0.86 0.68,1.86 0.09,1.15 -0.84,3.99 -1.14,5.01 1.45,-1.67 2.38,-4.45 2.45,-5.06 0.2,-1.64 -2.49,-1.84 -1.36,-4.42z"/>
   <path class="fil2" d="M94.38 34.89c0.58,1.63 3.41,-0.79 3.41,7.4 0,1.6 -0.54,4.06 -0.02,5.02 0.85,1.57 2.45,1.52 3.65,4.03 1.13,2.36 0.77,4.5 0.4,5.53 1.65,-1.15 0.84,-7.31 -1.35,-8.76 1.6,0.3 5,2.22 5.78,5.23 0.39,1.52 0.61,3.98 1.64,4.98 -0.62,-0.94 -0.74,-3.29 -0.85,-5.09 -0.16,-2.76 -2.46,-4.08 -2.3,-4.23 0.13,-0.13 0.73,-1.54 3.05,2.42 -0.39,-2.72 -2.27,-5.08 -3.11,-5.67 -3.9,-2.75 -1.83,-1.47 -2.83,-4.99 -1.05,-3.63 -2.85,-7.26 -7.18,-7.43 -0.8,-0.03 3.68,2.16 4.39,3.09 1.89,2.47 0.54,4.99 1.59,7.96 0.5,1.42 1.64,2.31 2.46,3.34 -1.72,-1.27 -3.07,-1.52 -3.59,-2.43 -1.16,-2.06 1.32,-8.09 -2.99,-10.23 -1.28,-0.63 -2.41,-0.91 -2.15,-0.17z"/>
   <path class="fil2" d="M88.62 6.57c7.56,0 8.02,4.06 13.28,5.43 3.25,0.85 4.71,-0.29 7.97,-0.29 3.64,0 4.36,0.93 4.4,2.48 -0.52,-1.75 -7.44,-1.9 -10.28,0.39 2.17,0.56 3.72,-0.01 5.14,-0.53 -3.03,2.31 -6.26,2.24 -7.53,1.86 -4.03,-1.22 -6.06,-3.75 -9.69,-5.38 -3.69,-1.65 -6.86,-0.02 -8.44,0.29 -1.04,0.2 -1.45,0.27 -0.83,-0.43 1.9,-2.13 8.57,-2.42 12,-0.15 3.1,2.05 4.79,3.24 7.54,3.34 -3.3,-1.03 -7.15,-4.1 -8.97,-5.05 -3.11,-1.64 -7.34,-1.13 -9.69,0.34 0.6,-1.39 0.88,-2.3 5.1,-2.3z"/>
   <path class="fil2" d="M83.28 11.73c3.64,-1.25 9.95,-0.54 12.88,2.19 1.09,1.02 3.84,3.79 6.32,4.14 1.65,0.22 3.81,-0.43 4.9,-2.06 0.23,0.87 -1.12,3.43 -5.05,3.43 -2.54,0 -3.44,-1.24 -5.35,-2.7 -0.4,0.77 2.07,3.15 4.96,3.77 -7.73,0.02 -5.26,-5.97 -13.08,-5.73 -0.81,0.03 -1.22,0.84 -2.17,0.38 -1.89,-0.9 -3.43,-3.39 -3.41,-3.42z"/>
   <path class="fil2" d="M103.64 20.08c-0.17,2.29 2.28,4.64 3.19,5.26 3.03,2.08 7.02,3.93 9.94,1.27 2.32,-2.13 5.43,3.42 8.24,0.31 -3.87,0.96 -4.61,-2.94 -5.84,-3.91 -0.43,-0.34 -1.06,-0.32 -2.22,0.38 -3.55,2.15 -9.46,-2.45 -9.76,-5.2 -0.24,0.47 -1,1.05 -1.32,1.21 1.6,3.98 6.8,6.04 9.53,5.95 -4.2,1.44 -7.78,-1.61 -8.8,-2.65 -0.96,-0.97 -1.16,-2.11 -1.33,-2.84 -0.39,0.22 -0.84,0.25 -1.63,0.22z"/>
   <path class="fil2" d="M88.28 15.9c0.61,2.4 5.32,0.46 7.05,7.83 0.95,4.06 4.2,8.09 8.8,7.98 2.62,-0.07 0.36,3.62 4.97,3.62 1.19,0 3.29,-1.7 5.28,-1.54 3.3,0.26 1.32,3.54 7.62,2.44 -4.38,-1.23 -3.65,-5.27 -7.16,-4.8 -1.48,0.19 -4.32,1.65 -5.49,0.38 -1.71,-1.84 0.92,-4.68 -2.34,-5.25 -2.36,-0.42 -3.77,-3.7 -4.32,-5.45 -1.3,0.26 -2.53,0.41 -5.21,-0.69 1.44,6.01 5.79,7.01 9.38,8.96 1.56,0.85 0.41,2.64 2.8,4.17 -4.39,0.37 -1.67,-3.81 -8.26,-5.61 -3.52,-0.97 -4.86,-10.15 -8.48,-11.34 -0.93,-0.31 -4.43,-1.05 -4.64,-0.7z"/>
   <path class="fil2" d="M95.3 30.37c-0.19,3.12 2.73,3.02 5.25,5 3.18,2.48 3.2,2.24 3.34,6.64 0.1,3.03 4.21,4.18 5.52,7.21 1.67,3.89 2.4,5.62 7.08,6.99 -4.77,-3.03 -4.1,-5.99 -4.02,-5.93 0.28,0.21 1.24,2.19 2.29,3.12 -1.68,-2.8 -0.76,-7.25 -2.72,-7.5 -6.41,-0.78 0.48,-4.59 -4.01,-8.72 -2.75,-2.53 -2.41,-2.94 -5.2,-4.76 -1.95,-1.26 -4.97,-6.48 -6.83,-7.49 -3.38,7.91 11.46,6.08 10.63,16.64 -1.08,-5.28 -10.03,-9.85 -11.33,-11.2z"/>
   <path class="fil2" d="M112.52 35.03c-2.43,4.39 3.13,1.95 4.48,5.81 0.81,2.31 0.58,5 1.58,7.02 0.4,0.8 0.84,1.3 2.01,1.93 -1.78,0.11 -4.44,-3.44 -6.57,-6.9 -1.11,-1.8 -3.12,-1.11 -3.87,-0.57 0.47,-1.42 0.24,-1.74 0.19,-2.28 1.98,-0.48 3.86,-0.38 6.13,3.86 -0.04,-4.25 -7.5,-5.97 -8.46,-7.89 1.74,0.32 3.6,-0.66 4.51,-0.98z"/>
   <path class="fil3 str11" d="M59.67 70.27c0,2.56 3.12,2.51 3.12,0.65"/>
   <path class="fil0 str11" d="M61.27 71.15c0.47,-0.1 0.92,-1.06 -0.07,-1.1 -0.74,-0.03 -0.71,1.25 0.07,1.1z"/>
   <g>
    <polygon class="fil4" points="87.43,72.22 87.92,72.36 87.85,72.57 87.76,72.77 87.65,72.95 87.53,73.12 87.39,73.26 87.24,73.4 87.08,73.51 86.91,73.61 86.73,73.69 86.54,73.76 86.35,73.81 86.16,73.84 85.96,73.86 85.76,73.86 85.57,73.85 85.37,73.83 85.17,73.79 84.98,73.73 84.79,73.67 84.61,73.58 84.43,73.49 84.26,73.38 84.1,73.26 83.95,73.12 83.81,72.97 83.68,72.8 83.57,72.62 83.48,72.43 83.4,72.23 83.34,72.01 83.3,71.79 83.28,71.55 83.79,71.54 83.81,71.73 83.84,71.9 83.88,72.07 83.94,72.23 84.02,72.38 84.1,72.51 84.2,72.64 84.31,72.76 84.43,72.87 84.55,72.96 84.69,73.05 84.83,73.13 84.98,73.19 85.13,73.25 85.29,73.29 85.45,73.33 85.61,73.35 85.77,73.35 85.93,73.35 86.09,73.34 86.24,73.31 86.39,73.27 86.54,73.22 86.67,73.16 86.8,73.08 86.92,73 87.03,72.9 87.13,72.79 87.23,72.67 87.31,72.53 87.37,72.38 "/>
   </g>
   <path class="fil0 str17" d="M85.73 72.27c0.62,0.03 1.45,-0.51 -0.14,-1.08 -0.56,-0.21 -0.81,1.04 0.14,1.08z"/>
   <path class="fil0 str18" d="M80 106.48c0.72,0.9 0.77,2.6 -0.78,2.48 -0.22,-0.01 -0.64,-0.45 -0.58,-0.75 0.1,-0.45 0.83,-0.74 1.14,-0.14 0.06,0.01 0.45,-0.86 0.22,-1.59z"/>
   <path class="fil0" d="M83.72 36.18c0.12,0.76 -0.37,1.63 0.77,1.34 0.45,-0.11 -0.77,-1.34 -0.77,-1.34z"/>
   <path class="fil3 str11" d="M74.97 169.22c-0.01,0 1.31,0.21 1.99,0.21"/>
   <path class="fil3 str11" d="M74.68 172.06c0.59,0.05 0.93,0.3 1.71,0.3"/>
   <path class="fil3 str11" d="M74.1 174.59c1.08,0.38 0.8,0.41 1.87,0.41"/>
   <path class="fil3 str11" d="M73.68 176.28c0.04,0.59 0.81,1.3 1.59,1.3 0.08,0 0.15,0 0.23,0"/>
   <path class="fil3 str11" d="M72.95 179.9c1.06,0.64 0.89,0.7 2.1,0.7"/>
   <path class="fil3 str11" d="M72.03 182.58c0.52,0.76 1.26,0.85 2.16,0.85"/>
   <path class="fil3 str11" d="M71.01 184.9c0.59,0.26 0.67,0.82 1.9,0.85 0.23,0.01 0.44,0.04 0.71,0.04"/>
   <path class="fil3 str11" d="M69.58 186.46c0.85,0.54 1,1.03 1.94,1.27"/>
   <path class="fil3 str11" d="M86.66 204.22c0.28,-0.21 1,0.66 0.96,1.39 0,0.04 0,0.09 0,0.13"/>
   <path class="fil3 str11" d="M89.3 204.35c0.53,-0.13 1.06,0.78 1.06,1.43l0 0.09"/>
   <path class="fil3 str11" d="M91.76 204.39c0.55,0.06 1.61,0.6 1.71,1.23 0.01,0.04 0.04,-0.02 0.04,0.12"/>
   <path class="fil3 str11" d="M94.08 203.61c0.68,0 2.11,0.93 2.07,1.37"/>
   <path class="fil3 str11" d="M107.51 203.47c-0.1,-0.11 -0.83,0.12 -0.8,0.93 0,0.01 -0.03,0.21 -0.03,0.32"/>
   <path class="fil3 str11" d="M106.54 201.64c-0.67,-0.05 -0.7,0.75 -0.81,1.01"/>
   <path class="fil3 str11" d="M96.72 201.25c0.52,0.51 1.79,0.73 2.52,0.73"/>
   <path class="fil3 str11" d="M98.41 198.92c-0.17,0.37 1.67,0.72 2.1,0.55"/>
   <path class="fil3 str11" d="M99.24 196.73c1,0.52 1.33,0.48 2.45,0.48"/>
   <path class="fil3 str11" d="M100.42 193.97c0.57,0.39 1.65,0.28 2.35,0.28"/>
   <path class="fil3 str11" d="M101.05 191.1c1.18,0.67 1.37,0.38 2.48,0.38"/>
   <path class="fil3 str11" d="M101.75 188.05c0.94,0.43 1.14,0.36 2.07,0.25 0.11,-0.01 0.55,-0.13 0.57,-0.12"/>
   <path class="fil3 str11" d="M102.54 184.45c0.93,0.95 2.18,0.3 2.39,0.32"/>
   <path class="fil3 str11" d="M102.96 180.63c0.35,0.6 2.03,0.47 2.64,0.26"/>
   <path class="fil3 str11" d="M103.47 177.1c1.18,0.97 1.89,0.32 2.67,0.32"/>
   <path class="fil3 str11" d="M103.82 174.02c1.24,0.49 1.46,0.66 2.77,0.66"/>
   <path class="fil0 str11" d="M85.58 143.24c0.96,1.66 3.47,1.74 3.98,-0.26 0,0.91 -1.64,3.56 -3.39,1.23 -0.01,-0.01 -0.56,-0.94 -0.59,-0.97z"/>
   <path class="fil0 str19" d="M106.23 138.34c0.95,1.66 3.46,1.74 3.97,-0.26 0,0.91 -1.63,3.56 -3.39,1.23 0,-0.01 -0.56,-0.94 -0.58,-0.97z"/>
   <path class="fil0 str20" d="M94 121.53c0.96,1.67 3.46,1.75 3.98,-0.25 0,0.91 -1.64,3.56 -3.4,1.23 0,-0.01 -0.56,-0.94 -0.58,-0.98z"/>
   <path class="fil0 str21" d="M92.22 119.56c0.95,1.67 3.46,1.75 3.98,-0.25 0,0.91 -1.64,3.56 -3.4,1.22 0,0 -0.56,-0.93 -0.58,-0.97z"/>
   <path class="fil0 str22" d="M87.25 111.73c0.96,1.67 3.47,1.75 3.98,-0.25 0,0.91 -1.63,3.56 -3.39,1.23 -0.01,-0.01 -0.56,-0.94 -0.59,-0.98z"/>
   <path class="fil0 str23" d="M83.06 101.49c0.95,1.67 3.46,1.75 3.97,-0.26 0,0.91 -1.63,3.56 -3.39,1.23 -0.01,0 -0.56,-0.93 -0.58,-0.97z"/>
   <path class="fil0 str24" d="M102.91 124.02c0.96,1.66 3.46,1.75 3.98,-0.26 0,0.91 -1.64,3.56 -3.4,1.23 0,-0.01 -0.56,-0.94 -0.58,-0.97z"/>
   <path class="fil0 str25" d="M111.71 142.2c0.96,1.66 3.47,1.75 3.98,-0.26 0,0.91 -1.64,3.56 -3.39,1.23 -0.01,-0.01 -0.56,-0.94 -0.59,-0.97z"/>
   <path class="fil0 str26" d="M94.07 144.36c0.96,1.67 3.46,1.75 3.98,-0.26 0,0.91 -1.64,3.56 -3.4,1.23 0,0 -0.56,-0.93 -0.58,-0.97z"/>
   <path class="fil3 str11" d="M72.9 26.78c3.61,3.05 6.9,1.63 8.53,0.61"/>
   <path class="fil3 str11" d="M85.2 26.97c1.96,1.89 6.03,1.14 7.81,-0.78"/>
  </g>
 </g>
</svg>
