<?xml version="1.0" encoding="UTF-8"?>
<!DOCTYPE svg PUBLIC "-//W3C//DTD SVG 1.1//EN" "http://www.w3.org/Graphics/SVG/1.1/DTD/svg11.dtd">
<!-- Creator: CorelDRAW 2020 (64-Bit) -->
<svg xmlns="http://www.w3.org/2000/svg" xml:space="preserve" width="318px" height="579px" version="1.1" style="shape-rendering:geometricPrecision; text-rendering:geometricPrecision; image-rendering:optimizeQuality; fill-rule:evenodd; clip-rule:evenodd"
viewBox="0 0 51.29 93.42"
 xmlns:xlink="http://www.w3.org/1999/xlink"
 xmlns:xodm="http://www.corel.com/coreldraw/odm/2003">
 <defs>
  <style type="text/css">
   <![CDATA[
    .str0 {stroke:white;stroke-width:0.48;stroke-miterlimit:22.9256}
    .str3 {stroke:white;stroke-width:0.67;stroke-miterlimit:22.9256}
    .str1 {stroke:white;stroke-width:0.67;stroke-miterlimit:22.9256}
    .str2 {stroke:white;stroke-width:0.67;stroke-miterlimit:22.9256}
    .fil1 {fill:#1D4D7D}
    .fil0 {fill:white}
    .fil2 {fill:white;fill-rule:nonzero}
   ]]>
  </style>
 </defs>
 <g id="Layer_x0020_1">
  <metadata id="CorelCorpID_0Corel-Layer"/>
  <g id="_2824233863024">
   <g>
    <path class="fil0 str0" d="M32.39 54.72l0.73 -0.6 0 -15.4 -2.54 0 5.05 -6.41 0.52 -0.66 1.69 -7.83 2.85 -13.24 2.85 13.24 1.68 7.83 0.52 0.66 5.06 6.41 -2.54 0 0 15.4 1.28 1.03 0 38.03 -47.72 0 0 -37.73 -1.31 0 5.29 -6.4 4.92 -5.95 -1.4 0c0,-0.03 0,-0.05 0,-0.08 0,-0.71 0.79,-1.29 1.78,-1.29 0.98,0 1.77,0.58 1.77,1.29 0,0.03 0,0.05 0,0.08l-1.4 0 4.92 5.95 3.66 4.43 1.22 -1.39 0.85 -0.97 0 -3.87 1.25 0 0 2.43 1.15 -1.31 0 -3.27 2.22 0 0 3.27 1.07 1.22 0 -2.34 1.25 0 0 3.78 0.93 1.06 2.4 2.63z"/>
    <path class="fil1" d="M8.49 48.7c0.6,0 1.08,0.41 1.08,0.91l0 4.41 -2.16 0 0 -4.41c0,-0.5 0.49,-0.91 1.08,-0.91z"/>
    <path class="fil1" d="M10.94 45.34c0.33,0 0.59,0.22 0.59,0.5l0 2.41 -1.18 0 0 -2.41c0,-0.28 0.26,-0.5 0.59,-0.5z"/>
    <polygon class="fil1" points="25.62,49.34 24.19,51.25 24.19,58.89 27.08,58.89 27.08,51.25 "/>
    <rect class="fil0" x="25.18" y="53.05" width="0.9" height="1.67"/>
    <rect class="fil0" x="25.18" y="56.31" width="0.9" height="1.67"/>
    <g>
     <path class="fil1" d="M4.27 61.36c0.59,0 1.08,0.41 1.08,0.91l0 8.82 -2.17 0 0 -8.82c0,-0.5 0.49,-0.91 1.09,-0.91z"/>
     <path class="fil1" d="M7.86 61.36c0.6,0 1.08,0.41 1.08,0.91l0 8.82 -2.16 0 0 -8.82c0,-0.5 0.49,-0.91 1.08,-0.91z"/>
     <path class="fil1" d="M11.45 61.36c0.6,0 1.09,0.41 1.09,0.91l0 8.82 -2.17 0 0 -8.82c0,-0.5 0.49,-0.91 1.08,-0.91z"/>
     <path class="fil1" d="M15.05 61.36c0.59,0 1.08,0.41 1.08,0.91l0 8.82 -2.16 0 0 -8.82c0,-0.5 0.48,-0.91 1.08,-0.91z"/>
     <path class="fil1" d="M18.64 61.36c0.6,0 1.08,0.41 1.08,0.91l0 8.82 -2.16 0 0 -8.82c0,-0.5 0.49,-0.91 1.08,-0.91z"/>
    </g>
    <g>
     <path class="fil1" d="M4.27 73.13c0.59,0 1.08,0.41 1.08,0.91l0 4.41 -2.17 0 0 -4.41c0,-0.5 0.49,-0.91 1.09,-0.91z"/>
     <path class="fil1" d="M7.86 73.13c0.6,0 1.08,0.41 1.08,0.91l0 4.41 -2.16 0 0 -4.41c0,-0.5 0.49,-0.91 1.08,-0.91z"/>
     <path class="fil1" d="M11.45 73.13c0.6,0 1.09,0.41 1.09,0.91l0 4.41 -2.17 0 0 -4.41c0,-0.5 0.49,-0.91 1.08,-0.91z"/>
     <path class="fil1" d="M15.05 73.13c0.59,0 1.08,0.41 1.08,0.91l0 4.41 -2.16 0 0 -4.41c0,-0.5 0.48,-0.91 1.08,-0.91z"/>
     <path class="fil1" d="M18.64 73.13c0.6,0 1.08,0.41 1.08,0.91l0 4.41 -2.16 0 0 -4.41c0,-0.5 0.49,-0.91 1.08,-0.91z"/>
     <path class="fil1" d="M22.24 73.13c0.59,0 1.08,0.41 1.08,0.91l0 4.41 -2.16 0 0 -4.41c0,-0.5 0.48,-0.91 1.08,-0.91z"/>
    </g>
    <g>
     <g>
      <path class="fil1" d="M4.27 55.78c0.59,0 1.08,0.41 1.08,0.91l0 2.78 -2.17 0 0 -2.78c0,-0.5 0.49,-0.91 1.09,-0.91z"/>
      <path class="fil1" d="M7.86 55.78c0.6,0 1.08,0.41 1.08,0.91l0 2.78 -2.16 0 0 -2.78c0,-0.5 0.49,-0.91 1.08,-0.91z"/>
      <path class="fil1" d="M11.45 55.78c0.6,0 1.09,0.41 1.09,0.91l0 2.78 -2.17 0 0 -2.78c0,-0.5 0.49,-0.91 1.08,-0.91z"/>
      <path class="fil1" d="M15.05 55.78c0.59,0 1.08,0.41 1.08,0.91l0 2.78 -2.16 0 0 -2.78c0,-0.5 0.48,-0.91 1.08,-0.91z"/>
      <path class="fil1" d="M18.64 55.78c0.6,0 1.08,0.41 1.08,0.91l0 2.78 -2.16 0 0 -2.78c0,-0.5 0.49,-0.91 1.08,-0.91z"/>
     </g>
     <path class="fil1" d="M21.91 53.36l0 0c0.49,0 0.89,0.4 0.89,0.9l0 0.92 0 3.73 0 1.66 -1.79 0 0 -1.66 0 -3.73 0 -0.92c0,-0.5 0.41,-0.9 0.9,-0.9z"/>
    </g>
    <g>
     <path class="fil1" d="M47.05 61.36c-0.6,0 -1.08,0.41 -1.08,0.91l0 8.82 2.16 0 0 -8.82c0,-0.5 -0.49,-0.91 -1.08,-0.91z"/>
     <path class="fil1" d="M43.45 61.36c-0.59,0 -1.08,0.41 -1.08,0.91l0 8.82 2.17 0 0 -8.82c0,-0.5 -0.49,-0.91 -1.09,-0.91z"/>
     <path class="fil1" d="M39.86 61.36c-0.59,0 -1.08,0.41 -1.08,0.91l0 8.82 2.16 0 0 -8.82c0,-0.5 -0.48,-0.91 -1.08,-0.91z"/>
     <path class="fil1" d="M36.27 61.36c-0.6,0 -1.08,0.41 -1.08,0.91l0 8.82 2.16 0 0 -8.82c0,-0.5 -0.49,-0.91 -1.08,-0.91z"/>
     <path class="fil1" d="M32.67 61.36c-0.59,0 -1.08,0.41 -1.08,0.91l0 8.82 2.16 0 0 -8.82c0,-0.5 -0.48,-0.91 -1.08,-0.91z"/>
    </g>
    <g>
     <path class="fil1" d="M47.05 73.13c-0.6,0 -1.08,0.41 -1.08,0.91l0 4.41 2.16 0 0 -4.41c0,-0.5 -0.49,-0.91 -1.08,-0.91z"/>
     <path class="fil1" d="M43.45 73.13c-0.59,0 -1.08,0.41 -1.08,0.91l0 4.41 2.17 0 0 -4.41c0,-0.5 -0.49,-0.91 -1.09,-0.91z"/>
     <path class="fil1" d="M39.86 73.13c-0.59,0 -1.08,0.41 -1.08,0.91l0 4.41 2.16 0 0 -4.41c0,-0.5 -0.48,-0.91 -1.08,-0.91z"/>
     <path class="fil1" d="M36.27 73.13c-0.6,0 -1.08,0.41 -1.08,0.91l0 4.41 2.16 0 0 -4.41c0,-0.5 -0.49,-0.91 -1.08,-0.91z"/>
     <path class="fil1" d="M32.67 73.13c-0.59,0 -1.08,0.41 -1.08,0.91l0 4.41 2.16 0 0 -4.41c0,-0.5 -0.48,-0.91 -1.08,-0.91z"/>
     <path class="fil1" d="M29.08 73.13c-0.6,0 -1.08,0.41 -1.08,0.91l0 4.41 2.16 0 0 -4.41c0,-0.5 -0.49,-0.91 -1.08,-0.91z"/>
    </g>
    <g>
     <g>
      <path class="fil1" d="M47.05 55.78c-0.6,0 -1.08,0.41 -1.08,0.91l0 2.78 2.16 0 0 -2.78c0,-0.5 -0.49,-0.91 -1.08,-0.91z"/>
      <path class="fil1" d="M43.45 55.78c-0.59,0 -1.08,0.41 -1.08,0.91l0 2.78 2.17 0 0 -2.78c0,-0.5 -0.49,-0.91 -1.09,-0.91z"/>
      <path class="fil1" d="M39.86 55.78c-0.59,0 -1.08,0.41 -1.08,0.91l0 2.78 2.16 0 0 -2.78c0,-0.5 -0.48,-0.91 -1.08,-0.91z"/>
      <path class="fil1" d="M36.27 55.78c-0.6,0 -1.08,0.41 -1.08,0.91l0 2.78 2.16 0 0 -2.78c0,-0.5 -0.49,-0.91 -1.08,-0.91z"/>
      <path class="fil1" d="M32.67 55.78c-0.59,0 -1.08,0.41 -1.08,0.91l0 2.78 2.16 0 0 -2.78c0,-0.5 -0.48,-0.91 -1.08,-0.91z"/>
     </g>
     <path class="fil1" d="M29.41 53.36l0 0c-0.5,0 -0.9,0.4 -0.9,0.9l0 0.92 0 3.73 0 1.66 1.79 0 0 -1.66 0 -3.73 0 -0.92c0,-0.5 -0.4,-0.9 -0.89,-0.9z"/>
    </g>
    <circle class="fil1 str1" cx="40.94" cy="39.72" r="5.6"/>
    <g>
     <path class="fil1" d="M40.94 35.57c2.29,0 4.15,1.86 4.15,4.15 0,2.29 -1.86,4.15 -4.15,4.15 -2.3,0 -4.15,-1.86 -4.15,-4.15 0,-2.29 1.85,-4.15 4.15,-4.15z"/>
     <path id="1" class="fil2" d="M45.42 39.72l-0.67 0 0 0 -0.01 -0.2 -0.01 -0.19 -0.03 -0.19 -0.03 -0.19 -0.04 -0.18 -0.05 -0.18 -0.06 -0.18 -0.07 -0.17 -0.08 -0.17 -0.08 -0.17 -0.09 -0.16 -0.1 -0.15 -0.11 -0.15 -0.11 -0.14 -0.12 -0.14 -0.13 -0.13 -0.13 -0.13 -0.14 -0.12 -0.14 -0.11 -0.15 -0.11 -0.16 -0.1 -0.16 -0.09 -0.16 -0.09 -0.17 -0.07 -0.17 -0.07 -0.18 -0.06 -0.18 -0.05 -0.19 -0.04 -0.18 -0.04 -0.19 -0.02 -0.2 -0.02 -0.19 0 0 -0.68 0.23 0.01 0.22 0.02 0.23 0.03 0.22 0.04 0.22 0.05 0.21 0.06 0.21 0.07 0.2 0.08 0.2 0.09 0.2 0.1 0.18 0.1 0.19 0.12 0.17 0.13 0.17 0.13 0.16 0.14 0.16 0.15 0.15 0.15 0.14 0.17 0.13 0.17 0.13 0.17 0.11 0.18 0.11 0.19 0.1 0.2 0.09 0.19 0.08 0.21 0.07 0.21 0.06 0.21 0.05 0.22 0.04 0.22 0.03 0.22 0.02 0.23 0 0.23 0 0zm-4.48 4.49l0 -0.68 0 0 0.19 0 0.2 -0.02 0.19 -0.02 0.18 -0.03 0.19 -0.05 0.18 -0.05 0.18 -0.06 0.17 -0.07 0.17 -0.07 0.16 -0.09 0.16 -0.09 0.16 -0.1 0.15 -0.1 0.14 -0.12 0.14 -0.12 0.13 -0.12 0.13 -0.14 0.12 -0.13 0.11 -0.15 0.11 -0.15 0.1 -0.15 0.09 -0.16 0.08 -0.17 0.08 -0.16 0.07 -0.18 0.06 -0.17 0.05 -0.19 0.04 -0.18 0.03 -0.19 0.03 -0.19 0.01 -0.19 0.01 -0.2 0.67 0 0 0.23 -0.02 0.23 -0.03 0.22 -0.04 0.23 -0.05 0.21 -0.06 0.22 -0.07 0.2 -0.08 0.21 -0.09 0.2 -0.1 0.19 -0.11 0.19 -0.11 0.18 -0.13 0.18 -0.13 0.17 -0.14 0.16 -0.15 0.15 -0.16 0.15 -0.16 0.14 -0.17 0.14 -0.17 0.12 -0.19 0.12 -0.19 0.11 -0.19 0.1 -0.2 0.09 -0.2 0.08 -0.21 0.07 -0.21 0.06 -0.22 0.05 -0.22 0.04 -0.23 0.02 -0.22 0.02 -0.23 0.01 0 0zm-4.49 -4.49l0.67 0 0 0 0.01 0.2 0.01 0.19 0.03 0.19 0.03 0.19 0.04 0.18 0.06 0.19 0.06 0.17 0.06 0.18 0.08 0.16 0.08 0.17 0.1 0.16 0.09 0.15 0.11 0.15 0.11 0.15 0.12 0.13 0.13 0.14 0.13 0.12 0.14 0.12 0.15 0.12 0.14 0.1 0.16 0.1 0.16 0.09 0.16 0.09 0.17 0.07 0.18 0.07 0.17 0.06 0.18 0.05 0.19 0.05 0.19 0.03 0.19 0.02 0.19 0.02 0.2 0 0 0.68 -0.23 -0.01 -0.23 -0.02 -0.23 -0.02 -0.22 -0.04 -0.21 -0.05 -0.22 -0.06 -0.21 -0.07 -0.2 -0.08 -0.2 -0.09 -0.19 -0.1 -0.19 -0.11 -0.18 -0.12 -0.18 -0.12 -0.17 -0.14 -0.16 -0.14 -0.16 -0.15 -0.14 -0.15 -0.15 -0.16 -0.13 -0.17 -0.12 -0.18 -0.12 -0.18 -0.11 -0.19 -0.1 -0.19 -0.09 -0.2 -0.08 -0.21 -0.07 -0.2 -0.06 -0.22 -0.05 -0.21 -0.04 -0.23 -0.03 -0.22 -0.01 -0.23 -0.01 -0.23 0 0zm4.49 -4.49l0 0.68 0 0 -0.2 0 -0.19 0.02 -0.19 0.02 -0.19 0.04 -0.19 0.04 -0.18 0.05 -0.17 0.06 -0.18 0.07 -0.17 0.07 -0.16 0.09 -0.16 0.09 -0.16 0.1 -0.14 0.11 -0.15 0.11 -0.14 0.12 -0.13 0.13 -0.13 0.13 -0.12 0.14 -0.11 0.14 -0.11 0.15 -0.09 0.15 -0.1 0.16 -0.08 0.17 -0.08 0.17 -0.06 0.17 -0.06 0.18 -0.06 0.18 -0.04 0.18 -0.03 0.19 -0.03 0.19 -0.01 0.19 -0.01 0.2 -0.67 0 0.01 -0.23 0.01 -0.23 0.03 -0.22 0.04 -0.22 0.05 -0.22 0.06 -0.21 0.07 -0.21 0.08 -0.21 0.09 -0.19 0.1 -0.2 0.11 -0.19 0.12 -0.18 0.12 -0.17 0.13 -0.17 0.15 -0.17 0.14 -0.15 0.16 -0.15 0.16 -0.14 0.17 -0.13 0.18 -0.13 0.18 -0.12 0.19 -0.1 0.19 -0.1 0.2 -0.09 0.2 -0.08 0.21 -0.07 0.22 -0.06 0.21 -0.05 0.22 -0.04 0.23 -0.03 0.23 -0.02 0.23 -0.01 0 0z"/>
    </g>
    <path class="fil1" d="M36.64 46.82l0 0c0.5,0 0.9,0.4 0.9,0.89l0 0.92 0 3.73 0 1.66 -1.79 0 0 -1.66 0 -3.73 0 -0.92c0,-0.49 0.4,-0.89 0.89,-0.89z"/>
    <path class="fil1" d="M40.8 49.75c0.33,0 0.59,0.22 0.59,0.5l0 2.41 -1.18 0 0 -2.41c0,-0.28 0.27,-0.5 0.59,-0.5z"/>
    <path class="fil1" d="M44.93 46.82l0 0c0.5,0 0.9,0.4 0.9,0.89l0 0.92 0 3.73 0 1.66 -1.79 0 0 -1.66 0 -3.73 0 -0.92c0,-0.49 0.4,-0.89 0.89,-0.89z"/>
    <path class="fil1" d="M13.48 48.7c0.59,0 1.08,0.41 1.08,0.91l0 4.41 -2.16 0 0 -4.41c0,-0.5 0.49,-0.91 1.08,-0.91z"/>
    <g>
     <path class="fil1" d="M5.95 80.17c0.81,0 1.46,2.52 1.46,3.02l0 0.96 0 3.86 0 1.71 -2.95 0 0 -1.71 0 -3.86 0 -0.96c0,-0.5 0.68,-3.02 1.49,-3.02z"/>
     <path class="fil1" d="M13.2 80.17c0.82,0 1.47,2.52 1.47,3.02l0 0.96 0 3.86 0 1.71 -2.96 0 0 -1.71 0 -3.86 0 -0.96c0,-0.5 0.68,-3.02 1.49,-3.02z"/>
     <path class="fil1" d="M20.46 80.17c0.81,0 1.46,2.52 1.46,3.02l0 0.96 0 3.86 0 1.71 -2.95 0 0 -1.71 0 -3.86 0 -0.96c0,-0.5 0.68,-3.02 1.49,-3.02z"/>
    </g>
    <g>
     <path class="fil1" d="M30.78 80.17c0.81,0 1.46,2.52 1.46,3.02l0 0.96 0 3.86 0 1.71 -2.95 0 0 -1.71 0 -3.86 0 -0.96c0,-0.5 0.68,-3.02 1.49,-3.02z"/>
     <path class="fil1" d="M38.04 80.17c0.81,0 1.46,2.52 1.46,3.02l0 0.96 0 3.86 0 1.71 -2.95 0 0 -1.71 0 -3.86 0 -0.96c0,-0.5 0.67,-3.02 1.49,-3.02z"/>
     <path class="fil1" d="M45.29 80.17c0.81,0 1.47,2.52 1.47,3.02l0 0.96 0 3.86 0 1.71 -2.96 0 0 -1.71 0 -3.86 0 -0.96c0,-0.5 0.68,-3.02 1.49,-3.02z"/>
    </g>
    <rect class="fil1 str2" transform="matrix(0.166462 -0.429876 0.429876 0.166462 38.5612 39.2973)" width="0.76" height="7.11" rx="3.05" ry="3.05"/>
    <rect class="fil1 str3" x="40.69" y="36.89" width="0.45" height="4.2" rx="1.8" ry="1.8"/>
   </g>
   <g>
    <path class="fil0" d="M40.68 11.18l0 0c0.08,0 0.15,-0.07 0.15,-0.15l0 -10.84c0,-0.08 -0.07,-0.15 -0.15,-0.15l0 0c-0.08,0 -0.14,0.07 -0.14,0.15l0 10.84c0,0.08 0.06,0.15 0.14,0.15z"/>
    <path id="1" class="fil2" d="M40.68 11.18l0 0 0 0 0 0 0 -0.04 0 0.04zm0.11 -0.15l0.08 0 0 0 0 0.01 0 0.01 0 0.01 -0.01 0.01 0 0.01 0 0.01 0 0.01 -0.01 0.01 0 0 0 0.01 -0.01 0.01 0 0.01 -0.01 0.01 0 0 -0.01 0.01 -0.01 0.01 0 0 -0.01 0.01 -0.01 0 0 0.01 -0.01 0 -0.01 0.01 -0.01 0 0 0 -0.01 0.01 -0.01 0 -0.01 0 -0.01 0.01 -0.01 0 -0.01 0 -0.01 0 -0.01 0 0 -0.08 0.01 0 0.01 0 0 0 0.01 0 0 0 0.01 0 0 -0.01 0.01 0 0 0 0.01 0 0 -0.01 0 0 0.01 0 0 0 0.01 -0.01 0 0 0 -0.01 0.01 0 0 0 0 -0.01 0.01 0 0 -0.01 0 0 0 -0.01 0.01 0 0 -0.01 0 0 0 0 0 -0.01 0 -0.01 0 0 0 -0.01 0 0zm0.08 -10.84l0 10.84 -0.08 0 0 -10.84 0 0 0.08 0zm-0.19 -0.11l0 -0.08 0 0 0.01 0 0.01 0 0.01 0 0.01 0 0.01 0.01 0.01 0 0.01 0 0.01 0 0 0.01 0.01 0 0.01 0.01 0.01 0 0 0.01 0.01 0 0.01 0.01 0 0 0.01 0.01 0.01 0.01 0 0 0.01 0.01 0 0.01 0.01 0.01 0 0 0 0.01 0.01 0.01 0 0.01 0 0.01 0 0.01 0.01 0.01 0 0.01 0 0.01 0 0.01 -0.08 0 0 -0.01 0 -0.01 0 0 0 -0.01 0 0 0 -0.01 0 0 -0.01 -0.01 0 0 0 0 0 -0.01 -0.01 0 0 -0.01 0 0 -0.01 -0.01 0 0 0 0 -0.01 -0.01 0 0 -0.01 0 0 -0.01 0 0 -0.01 0 0 0 -0.01 0 0 -0.01 -0.01 0 0 0 -0.01 0 0 0 -0.01 0 -0.01 0 0 0zm0 -0.04l0 0 0 0 0 0 0 0.04 0 -0.04zm-0.1 0.15l-0.08 0 0 0 0 -0.01 0 -0.01 0 -0.01 0 -0.01 0.01 -0.01 0 -0.01 0 -0.01 0.01 -0.01 0 -0.01 0 0 0.01 -0.01 0 -0.01 0.01 -0.01 0 0 0.01 -0.01 0 -0.01 0.01 0 0.01 -0.01 0 0 0.01 -0.01 0.01 0 0.01 -0.01 0 0 0.01 -0.01 0.01 0 0.01 0 0.01 0 0.01 -0.01 0.01 0 0.01 0 0.01 0 0 0 0 0.08 0 0 -0.01 0 0 0 -0.01 0 0 0 -0.01 0 0 0.01 -0.01 0 0 0 -0.01 0 0 0 -0.01 0.01 0 0 0 0 -0.01 0.01 0 0 -0.01 0 0 0.01 0 0 -0.01 0.01 0 0 0 0.01 0 0 -0.01 0 0 0.01 0 0 0 0.01 0 0 0 0.01 0 0 0 0.01 0 0.01 0 0zm-0.08 10.84l0 -10.84 0.08 0 0 10.84 0 0 -0.08 0zm0.18 0.11l0 0.08 0 0 0 0 -0.01 0 -0.01 0 -0.01 0 -0.01 -0.01 -0.01 0 -0.01 0 -0.01 -0.01 -0.01 0 0 0 -0.01 -0.01 -0.01 0 -0.01 -0.01 0 0 -0.01 -0.01 -0.01 0 0 -0.01 -0.01 -0.01 0 0 -0.01 -0.01 0 -0.01 -0.01 -0.01 0 -0.01 0 0 -0.01 -0.01 0 -0.01 0 -0.01 -0.01 -0.01 0 -0.01 0 -0.01 0 -0.01 0 -0.01 0.08 0 0 0.01 0 0 0 0.01 0 0.01 0 0 0 0.01 0 0 0 0 0.01 0.01 0 0 0 0.01 0 0 0.01 0.01 0 0 0 0 0.01 0.01 0 0 0.01 0.01 0 0 0 0 0.01 0 0 0.01 0.01 0 0 0 0.01 0 0 0.01 0.01 0 0 0 0.01 0 0 0 0.01 0 0 0 0 0z"/>
   </g>
  </g>
 </g>
</svg>
