<?xml version="1.0" encoding="UTF-8"?>
<!DOCTYPE svg PUBLIC "-//W3C//DTD SVG 1.1//EN" "http://www.w3.org/Graphics/SVG/1.1/DTD/svg11.dtd">
<!-- Creator: CorelDRAW 2020 (64-Bit) -->
<svg xmlns="http://www.w3.org/2000/svg" xml:space="preserve" width="800px" height="800px" version="1.1" style="shape-rendering:geometricPrecision; text-rendering:geometricPrecision; image-rendering:optimizeQuality; fill-rule:evenodd; clip-rule:evenodd"
viewBox="0 0 788.18 788.18"
 xmlns:xlink="http://www.w3.org/1999/xlink"
 xmlns:xodm="http://www.corel.com/coreldraw/odm/2003">
 <defs>
  <style type="text/css">
   <![CDATA[
    .str1 {stroke:#FEFEFE;stroke-width:1.23;stroke-miterlimit:22.9256}
    .str2 {stroke:#2B2A29;stroke-width:1.23;stroke-miterlimit:22.9256}
    .str0 {stroke:black;stroke-width:1.23;stroke-miterlimit:22.9256}
    .str5 {stroke:white;stroke-width:1.23;stroke-miterlimit:22.9256}
    .str4 {stroke:black;stroke-width:0.89;stroke-miterlimit:22.9256}
    .str3 {stroke:white;stroke-width:0.89;stroke-miterlimit:22.9256}
    .fil2 {fill:none}
    .fil3 {fill:#FEFEFE}
    .fil7 {fill:#2B2A29}
    .fil11 {fill:#FFF7B2}
    .fil10 {fill:#F5B2B6}
    .fil9 {fill:#F5B2B6}
    .fil5 {fill:#E31E24}
    .fil1 {fill:#00A2D9}
    .fil6 {fill:#008DD2}
    .fil4 {fill:black}
    .fil0 {fill:#DBBD93}
    .fil8 {fill:#EDCA3D}
   ]]>
  </style>
 </defs>
 <g id="Layer_x0020_1">
  <metadata id="CorelCorpID_0Corel-Layer"/>
  <rect class="fil0" width="788.18" height="788.18"/>
  <g id="_2825771888752">
   <path class="fil1 str0" d="M182.55 211.89c7.52,2.27 11.15,9.53 18.24,8.12 7.08,-1.41 16.18,-2.19 13.77,4.09 -1.87,4.88 -8.28,-3.27 -3.15,4.73 2.64,4.11 -4.38,6.47 -6.64,2.44 -0.99,-1.77 -1.34,-3.52 -1.31,0.26 0.03,3.03 -1.99,5.97 -4.95,3.96 -4.07,-2.77 1.01,-8.08 -2.56,-8.82 -0.05,-0.22 -13.74,-5.74 -17.79,-8.96 -4.93,-3.92 -14.27,-13.37 -14.27,-18.94 0,-7.48 -3.28,-10.7 1.59,-9.51 -2.94,1.57 13.98,21.7 17.07,22.63z"/>
   <g>
    <path class="fil1" d="M117.66 82.31c-2.49,0.89 0.02,3.94 1.34,8.97 0.73,2.81 0.36,7.43 0.82,12.79 0.73,8.5 10.99,23.87 16,25.95 1.94,0.8 8.04,2.69 11.33,6.82 0,3.31 -3.93,2.08 -4.98,8.24 -0.71,4.22 -3.45,3.66 -0.98,7.12 1.38,1.95 -1.6,5.01 3.34,6.15 3.76,10.87 -9.36,22.46 -9.34,23.18 0.24,6.04 -3.34,-2.83 -4.35,8.82 -6.92,17.24 -10.27,27.05 -8.73,38 1.65,11.74 4.27,26.77 -2.58,30.82 -1.63,0.97 0.72,22.34 -14.6,19.25 -0.12,-0.03 1.49,11.51 14.53,5.25 7.86,-3.78 4.75,-7.46 9.66,-7.19 0.6,0.84 8.61,7.18 4.51,18.52 -3.95,10.9 -4.78,10.32 -13.33,17.21 -1.79,1.43 -0.86,4.22 6.46,12.94 4.8,5.73 6.55,21.27 9.85,23.97 -2.59,2.2 -3.57,7.12 -0.68,9.2 5.18,3.74 5.63,-1.77 6.27,-4.33 0.43,-1.71 -0.66,-2.07 1.33,0.44 3.79,4.77 8.97,-0.39 6.1,-5.07 0.15,-0.06 6.94,2.08 6.5,-3.55 0.33,-0.09 -0.82,-4.78 -6.91,-2.39 -2.28,-0.67 -5.08,-2.96 -7.73,-5.61 -6.28,-6.27 -5.24,-12.17 -5.25,-21.07 -0.01,-4.08 14.57,-17.81 17.06,-20.85 3.48,-4.26 2.97,-7.69 4.23,-7.42 2.23,0.49 6.11,6.5 7.61,13.34 1.01,4.62 -0.08,7.65 -0.17,8.72 -0.17,1.87 0.57,3.94 4.75,6.02 10.18,5.04 4.22,12.72 10.63,17.21 4.93,3.46 5.48,4.35 14.64,11.59 0.41,0.32 4.5,7.92 7.85,8.05 1.29,0.05 5.44,-0.58 4.8,-3.86 -0.18,-0.87 -1.91,-1.72 -2.18,-2.09 -0.77,-1.02 -1.79,-1.16 0.23,-0.98 0.8,0.07 3.07,0.93 4.5,0.39 7.51,-2.86 -1.6,-6.74 -0.47,-7.4 1.14,-0.68 3.38,-0.44 3.83,-1.09 2.37,-3.41 -3.86,-6.34 -9.98,-3.01 -10.74,5.83 -21.92,-12.71 -23.22,-18.49 -5.04,-22.57 -2.04,-17.95 -1.67,-35.25 0.32,-14.85 -14.92,-18.47 -13.97,-25.96 15.96,-42.98 7.78,-51.92 2.21,-75.45 -0.79,-3.32 -0.84,-15.74 4.15,-15.04 15.03,2.12 14.1,-5.35 6.3,-5.04 -3.89,0.16 -6.07,-5.17 5.58,-4.04 4.87,0.47 7.98,-3.3 2.13,-9.38 -4.55,-4.75 -2.48,-9.76 -13.3,-13.44 -3.39,-1.15 -4.12,1.32 -5.23,-0.17 0.47,-5.29 3.51,-17.09 3.17,-25.99 -0.33,-8.34 -0.35,-17.65 -4.1,-27.87 -2.42,-6.59 -0.93,-19.45 -6.82,1.74 -3.69,13.25 -4.36,22.32 -0.78,34.3 1.49,5 2.82,13.17 0.89,18.76 -2.93,1.01 -6.01,0.72 -8.97,-4.04 -3.6,-5.78 -5,-17.03 -7.14,-19.91 -9.17,-12.35 -23.42,-28.39 -25.14,-27.78z"/>
    <g>
     <path class="fil2 str0" d="M127.24 116.12c-13.1,-7.78 -3.36,-20.17 -10.85,-30.69 -2.23,-3.13 1.55,-4.82 5.09,-0.68 10.98,12.88 24.15,22.09 26.79,37.72 3.36,19.8 16.96,8.1 23.51,10.8 13.43,5.55 9.3,10.87 16.42,16.94 1.85,1.58 1.56,5.88 -5.25,5.88 -12.25,0 -8.15,4.68 -3.78,4.41 7.56,-0.48 5.91,7.26 -7.71,5.03 -6.95,-1.13 -3.72,15 -2.94,18.83 1.91,9.36 12.05,22.07 0.58,61.11 -4.95,16.85 -10.23,7.27 -8.81,28.01 1.62,23.79 -24.89,36.72 -23.92,46.27 1.21,11.97 0.82,16.92 12.12,23.13 1.84,1.01 8.25,-3.9 7.6,4.56 -0.45,5.94 -9.9,-0.55 -6.29,2.94 3.53,3.4 -2.43,11.04 -7.2,2.62 -1.39,0.48 1.17,3.44 -0.79,5.57 -5.21,5.68 -11.28,-5.19 -5.8,-8.39 0.14,-1.5 -5.54,-8.75 -2.79,-12.18"/>
     <path class="fil2 str0" d="M123.62 117.54c0.99,0.14 5.03,3.62 7.56,2.99"/>
     <path class="fil2 str0" d="M123.78 122.42c3.71,2.2 4.07,1.57 8.5,1.57"/>
     <path class="fil2 str0" d="M131.33 126.82c3.37,5.31 14.84,6.89 16.37,11.34"/>
     <path class="fil2 str0" d="M144.86 138.16c-5.23,3.61 -2.3,10.07 -7.55,10.07"/>
     <path class="fil2 str0" d="M142.66 149.8c-2.94,1.87 0.05,6.14 -4.88,6.14"/>
     <path class="fil2 str0" d="M144.93 161.21c1.07,7.62 -1.08,7.29 -6.74,15.29 -2.02,2.86 -2.72,1.49 -5.44,-0.1"/>
     <path class="fil2 str0" d="M136.68 181.43c-5.45,1.74 -6.59,-1.43 -8.03,-2.2"/>
     <path class="fil2 str0" d="M130.07 189.77c-1.73,12.28 -9.1,15.1 -8.18,36.51 0.16,3.75 5.13,28.58 -2.36,32.89 -3.09,1.78 1.05,20.77 -13.38,18.73 -5.06,-0.72 2.49,14.27 11.23,5.4"/>
     <path class="fil2 str0" d="M120 278.53c0.47,1.13 1.43,2.13 -0.2,5.96"/>
     <path class="fil2 str0" d="M123.15 275.85c0.92,1.77 1.69,4 -0.16,5.35"/>
     <path class="fil2 str0" d="M125.51 272.55c0.98,1.63 2.16,4.77 0.85,6.6"/>
     <path class="fil2 str0" d="M129.17 267.6c-2.46,15.04 4.67,8.07 4.67,23.05 0,4.7 -4.62,13.62 -8.41,16.48 -6.36,4.78 -7.69,5.71 -5.91,10.35 0.75,1.96 5.82,5.05 5.82,7.8"/>
     <path class="fil2 str0" d="M127.65 324.24c0,1.76 -0.49,4.23 -2.36,4.88"/>
     <path class="fil2 str0" d="M129.03 328.14c0,1.83 -0.15,3.89 -1.78,5.17l-0.27 0.03"/>
     <path class="fil2 str0" d="M130.64 333.37c-0.02,0.04 -1.54,3.05 -1.57,3.15"/>
     <path class="fil2 str0" d="M164.69 255.11c0,11.23 20.35,8.69 13.79,40.86 -2.05,10.03 7.84,49.18 27.28,37.98 6.93,-4 12.26,5.82 4.25,5.5 -1.67,-0.06 1.96,1.08 2.93,3.03 1.3,2.63 -1.87,6.56 -8.02,3.95 -1.52,-0.64 0.01,0.65 1.43,1.32 3.39,1.58 0.73,6.31 -2.37,5.86 -7.47,-1.1 -4.69,-5.72 -12.7,-9.75 -0.66,-0.34 -9.02,-7.59 -8.97,-8.19"/>
     <path class="fil2 str0" d="M157.37 288.26c3.34,4.52 6.99,10.34 7.81,18.26 0.51,4.97 -2.73,4.85 2.75,8.67 2.88,2.02 5.57,4.75 5.57,4.75"/>
     <path class="fil2 str0" d="M176.96 321.51c-3.49,0 -2.83,3.99 -2.83,6.61"/>
     <path class="fil2 str0" d="M179.79 326.55c-2.16,0.2 -2.51,3.37 -2.51,5.03"/>
     <path class="fil2 str0" d="M182.94 331.27c-3.32,-0.15 -3.15,2.78 -3.15,5.35"/>
     <path class="fil2 str0" d="M144.86 155.35c0,2.97 -0.76,5.16 -4.25,6.14"/>
     <path class="fil2 str0" d="M148.95 159.76c0.74,1.25 0.6,4.64 -0.16,6.14"/>
     <path class="fil2 str0" d="M153.94 163.84c-0.59,1.13 -0.76,2.66 0.2,4.73"/>
     <path class="fil2 str0" d="M159 166.89c-0.3,0.76 -0.57,3.85 1.91,4.51"/>
     <path class="fil2 str0" d="M164.53 167.63c0.04,0.09 -0.6,3 1.26,4.09"/>
     <path class="fil2 str0" d="M158.91 134.04c0.17,-3.81 1.06,-19.25 -3.27,-20.37"/>
     <path class="fil2 str0" d="M154.06 109.26c1.94,-0.09 3.2,1.14 3.78,2.84"/>
     <path class="fil2 str0" d="M153.75 105.17c1.79,-0.81 2.77,0.99 4.09,1.89"/>
     <path class="fil2 str0" d="M155.95 102.34c-2.54,-11.67 7.39,-41.69 8.57,-31.24 1.14,10.05 6.18,10.56 5.33,32.85 -0.56,14.65 -1.65,27.27 -4.49,30.3"/>
     <path class="fil2 str0" d="M124.53 185.95c1.69,0.24 1.8,1.26 5.83,1.26 1.49,0 2.71,-1.61 3.46,-1.89"/>
     <path class="fil2 str0" d="M160.22 263.89c2.17,-9.81 -6.6,-10.01 -6.93,-18.94"/>
    </g>
   </g>
   <g>
    <path class="fil3 str0" d="M168.82 141.25c-2.32,-1.05 -6.15,-0.11 -7.87,1.62 -6.82,6.89 5.77,12.32 8.99,7.25 1.54,-2.43 1.12,-6.96 -1.12,-8.87z"/>
    <path class="fil4 str0" d="M166.13 146.11c-0.16,-2.14 -4.29,1.55 -0.72,1.69 1.02,0.04 0.74,-1.37 0.72,-1.69z"/>
   </g>
   <path class="fil4 str0" d="M187.02 148.98c-0.56,0.34 -2.72,-0.16 -3.67,0.19 -0.49,0.18 -1.93,0.25 -1.47,1.51 0.85,2.29 6.98,-1.31 4.37,2.81 -0.16,0.25 -1.74,1.12 -1.23,1.28 2.62,0.82 4.45,-1.81 3.09,-4.32 -0.34,-0.62 -1.36,-1.31 -1.09,-1.47z"/>
   <path class="fil5 str0" d="M168.27 188.29c-3.23,-3.42 -17.1,-2.83 -32.6,15.86 -1.88,2.27 -7.71,8.3 -7.5,10.98 -0.77,-1.78 -0.89,-2.02 -1.82,-4.11 12.66,-13.86 16.72,-25.9 41.85,-28.94 0.91,1.51 0.45,4.32 0.07,6.21z"/>
   <g>
    <path class="fil2 str0" d="M110.87 181.15c0.69,3.01 1.72,8.18 -7.5,19.24 -3.14,3.77 -22.29,23.34 -12.8,4.21 0.22,-0.44 18.69,-30.41 20.3,-23.45z"/>
    <path class="fil5 str0" d="M88.8 213.17c1.74,10.17 48.3,60.8 51.28,45.4 2.77,-14.25 -20.27,-64.93 -29.07,-78 -0.43,-0.64 2.97,9.39 -9.6,21.89 -4.79,4.77 -10.94,10.63 -12.61,10.71l0 0z"/>
    <g>
     <path class="fil2 str0" d="M85.14 194.56c1.97,2.85 8.04,12.29 10.7,13.22"/>
     <path class="fil1 str0" d="M82.59 199.3c-0.93,2.98 -5.02,-16.87 -4.14,-16.01 0.07,0.07 3.78,2.81 4.5,3.35 0.71,0.53 6.62,5.2 6.54,5.38 -2.96,1.1 -5.95,4.27 -6.9,7.28z"/>
    </g>
    <g>
     <path class="fil2 str0" d="M99.62 173.47c1.97,2.85 8.04,12.3 10.7,13.22"/>
     <path class="fil1 str0" d="M97.07 178.21c-0.93,2.99 -5.02,-16.87 -4.14,-16.01 0.07,0.07 3.77,2.81 4.5,3.35 0.71,0.54 6.61,5.2 6.54,5.38 -2.96,1.1 -5.95,4.27 -6.9,7.28z"/>
    </g>
    <g>
     <path class="fil2 str0" d="M94.77 186.35c1.97,2.85 8.04,12.3 10.7,13.22"/>
     <path class="fil1 str0" d="M92.22 191.09c-0.93,2.99 -5.02,-16.87 -4.14,-16.01 0.07,0.07 3.77,2.81 4.5,3.35 0.71,0.54 6.61,5.2 6.54,5.38 -2.96,1.1 -5.95,4.27 -6.9,7.28z"/>
    </g>
   </g>
   <path class="fil5 str0" d="M175.56 247.17c-2.11,-5.47 -13.83,-32.99 -13.55,-36.22 0.41,-4.77 9.32,-10.71 11.97,-2.2 5.82,18.64 26.34,107.53 25.84,120.26 -0.16,4.33 -1.52,8.52 -3.52,3.59 -3.06,-7.52 -11.37,-61.1 -20.74,-85.43z"/>
   <path class="fil4 str0" d="M198.58 326.24c-6.59,2.46 -8.06,19.01 -8.06,25.34 0,9.32 3.51,10.32 11.41,2.41 -2.68,-0.8 -2.22,-1.52 -3.37,-2.26 -2.92,1.17 -4.29,4.1 -4.24,0.71 0.07,-4.17 0.98,-9.95 2.62,-15.29 0.91,-2.95 1.46,-7.94 5.88,-8.14 4.86,-0.22 10.04,2.98 13.33,8.71 1.31,2.28 -1.38,3.35 -4.36,3.51 1.88,1.36 2.34,2.31 2.29,3.75 5.15,0.06 14.4,-6.52 -3.58,-17.16 -1.37,-0.81 -6.66,-3.53 -11.92,-1.58z"/>
   <path class="fil4 str0" d="M183.68 263.09c-0.09,0.52 3.09,8.73 3.54,9.53 1.36,2.43 0.89,2.35 3.26,0.56 1.41,-1.06 -1.4,-10.49 -3.1,-10.49 -0.97,0 -2.79,-0.37 -3.03,0.12 -0.09,0.18 -0.67,0.26 -0.67,0.28z"/>
   <path class="fil5 str0" d="M128.83 329.84c7.92,-2.74 36,-3.19 43.59,0.47 15.34,7.4 36.64,-8.37 43.33,-17.28 6.66,-8.86 21.92,-18.7 33.3,-17.86 1.58,0.11 7.94,7.04 -6.92,4.3 -6,-1.11 -22.22,10.37 -23.92,15.26 -5.35,15.46 -29.04,27.57 -45.32,20.47 -6.11,-2.67 -40.57,-8.48 -43.59,-2.37 -7.4,14.95 -16.44,2.55 -0.47,-2.99z"/>
   <path class="fil2 str0" d="M133.51 329.97c20.17,-26.48 44.27,-47.64 55.19,-61.45 18.55,11.06 28.6,13.98 53.24,29.83"/>
   <g>
    <path class="fil1" d="M162.97 205c0.67,0.11 -18.74,3.26 -18.24,3.48 8.92,3.9 -7.06,24.25 10.52,29.56 2.12,0.64 17.38,2.23 18.72,7.24 0.88,3.26 1.98,6.45 4.23,7.12 3.62,1.07 8.2,-2.13 4.53,-5.17 -0.37,-0.31 4.73,-0.36 5.91,-1.92 1.54,-2.04 0.3,-7.03 -4.27,-6.76 -2.12,0.12 -2.36,-0.95 0.76,-1.29 6.7,-0.72 1.67,-7.44 -1.46,-8.01 -5.26,-0.96 -9,5.06 -14.98,4.41 -5.44,-0.61 -12.81,-3.28 -12.81,-8.68 0,-6.21 0.98,-16.36 7.09,-19.98z"/>
    <path class="fil2 str0" d="M142.98 207.98c12.58,2.06 -6.31,24.45 12.27,30.06 2.12,0.64 17.38,2.23 18.72,7.24 0.88,3.26 1.98,6.45 4.23,7.12 3.62,1.07 8.2,-2.13 4.53,-5.17 -0.37,-0.31 4.73,-0.36 5.91,-1.92 1.54,-2.04 0.3,-7.03 -4.27,-6.76 -2.12,0.12 -2.36,-0.95 0.76,-1.29 6.7,-0.72 1.67,-7.44 -1.46,-8.01 -5.26,-0.96 -9,5.06 -14.98,4.41 -5.44,-0.61 -12.81,-3.28 -12.81,-8.68 0,-6.21 0.98,-16.36 7.09,-19.98"/>
   </g>
   <path class="fil2 str1" d="M139.67 211.82c2.38,-0.39 5.35,-0.88 5.35,2.51"/>
   <path class="fil2 str1" d="M139.99 216.22c2.19,-0.99 1.82,0.28 2.83,0.63"/>
   <path class="fil2 str1" d="M158.2 205.94c-3.38,3.6 -6.61,20.11 -3.41,23.39 4.94,5.07 11.95,7.4 19.18,5.15 1.04,-0.32 11.5,-6.4 11.73,-0.71 0.09,2.54 -8.55,3.71 -1.18,6.09 1.68,0.55 2.28,0.75 2.38,2.67 0.07,1.37 -1.33,2.61 -3.27,2.45 -1.64,-0.14 -3.31,-0.8 -2.9,0.99 0.13,0.56 0.96,1.16 1.43,2.36 0.5,1.3 -2,4.66 -5.59,0.55"/>
   <path class="fil2 str1" d="M176.02 208.2c3.6,4.69 18.37,13.97 22.82,13.77"/>
   <path class="fil2 str1" d="M198.52 231.65c0,2.28 3.09,4.14 3.54,-0.79"/>
   <path class="fil2 str1" d="M205.6 229.29c-0.1,2.28 6.69,3.74 4.1,-0.87"/>
   <path class="fil2 str1" d="M208.82 220.54c2.36,-0.35 5.42,-0.22 4.44,3.19 -0.38,1.33 -3.46,0.05 -3.88,0.05"/>
   <path class="fil2 str1" d="M183.1 153.91c-3.53,0 -10.38,0.35 -10.74,3.46 -0.45,3.81 6.24,5.58 9.17,5.51"/>
   <path class="fil2 str1" d="M147.22 156.75c1.1,2.44 -0.04,4.28 -0.63,5.98"/>
   <path class="fil2 str1" d="M118.58 84.99c1.08,2.09 7.92,8.02 11.14,11.97 6.88,8.41 11.89,12.05 15.29,22.94 1.74,5.58 4.81,16.87 11.17,16.87 4.49,0 11.89,-4.25 19.4,0.28 2.87,1.73 6.18,5.91 7.36,9.32"/>
   <path class="fil2 str1" d="M120.78 91.61c3.94,8.68 -1.3,16.11 8.21,22.26 0.39,0.25 0.32,0.22 0.29,0.71"/>
   <path class="fil2 str1" d="M167.43 242.77c-0.99,4.61 -1.85,8.65 -6.11,12.29"/>
   <path class="fil2 str1" d="M150.04 249.61c9.88,14.28 14.17,32.36 -6.29,53.97 -6.42,6.79 -11.96,13.8 -8.5,21.56"/>
   <path class="fil2 str1" d="M142.33 341.19c2.85,4.77 8.8,2.49 9.56,3.03 0.06,0.04 3.08,-0.2 1.47,3.44 -0.62,1.42 -5.45,-0.67 -5.75,0.22 -0.56,1.61 2.84,6.19 -1.97,5.6 -1.94,-0.24 -4.61,-5.83 -5.14,2 -0.18,2.68 -3.26,3.11 -4.3,0.74 -0.35,-0.8 0.22,-3.81 1.26,-4.17"/>
   <path class="fil2 str1" d="M200.09 337.42c2.84,0.37 5.02,-1.16 6.64,-2.4 1.76,-1.35 4.88,0.17 2.6,2.76 -1.16,1.33 -4.25,1.42 -0.34,3.59 1.44,0.8 2.32,3.6 -3.12,3.6 -2.04,0 -5.24,-1.25 -3.41,1.09 3.7,4.71 -2.14,5.75 -2.14,3.39"/>
   <path class="fil2 str1" d="M163.89 260.63c0,3.31 13.96,8.48 12.91,22.97 -1.89,25.93 -0.46,30.95 8.81,46.27"/>
   <path class="fil2 str1" d="M138.4 269.44c-0.81,1.79 -2.87,6.49 -5.35,6.3"/>
   <path class="fil2 str1" d="M140.29 274.48c-1.63,2.73 -1.68,2.85 -4.72,4.13"/>
   <path class="fil2 str1" d="M140.92 280.3c-0.2,1.62 -1.07,2.28 -2.6,2.28"/>
   <path class="fil2 str1" d="M106.76 279.52c4.2,3.27 11.44,-3.07 12.03,-7.64 1.75,-13.48 4.36,-11.72 5.2,-15.33"/>
   <path class="fil2 str1" d="M132.96 189.98c0,6.22 -5.26,12.59 -6.29,17"/>
   <path class="fil2 str1" d="M152.16 162.76c-0.19,2 -3.19,2.9 -0.28,7.83l0.12 0.2"/>
   <path class="fil2 str1" d="M158.14 165.91c-2.09,0.81 -1.42,4.99 -0.52,6.49l0.2 0.27"/>
   <path class="fil2 str1" d="M162.86 168.27c-1.4,0.14 0,5.91 2.04,6.61"/>
  </g>
  <g id="_2825771900752">
   <path class="fil6 str2" d="M87.93 484.18c0,-5.85 2.76,-4.77 6.83,-1.42 38.17,31.33 13.42,47.52 28.63,64.37 4.27,4.72 -2.52,11.31 -6.8,8.25 -5.05,-3.61 -6.19,-7.17 -8.56,-13.19 -8.48,-21.58 -20.1,-31.88 -20.1,-58.01z"/>
   <path class="fil6 str2" d="M112.23 579.76c-2.5,5.57 -9.41,5.07 -14.07,7.23 -6.05,2.81 -8.31,13.29 -22.91,15.56 -17.48,2.73 -6.7,-11.59 -16.78,-10.85 -4.81,0.34 -1.88,5.81 -4.7,6.11 -12.64,1.37 -6.26,9.82 -2.41,9.67 5.56,-0.21 -2.71,4.19 1.33,7.64 6.47,5.52 8.47,-3.36 9.43,-3.56 1.05,-0.21 24.09,9.07 30.01,2.13 2.41,-2.82 -1.51,12.1 -1.51,15.04 0,7.48 -0.39,23.48 -3.27,30.11 -6.78,15.62 -6.34,15.64 -12.52,15.51 -12,-0.25 4.81,19.55 12.52,4.55 0.57,-1.1 -1.34,2.75 -1.96,7.8 -1.75,14.29 -8.79,8.34 -7.86,31.89 0.24,6.09 -7.74,13.34 2.85,20.29 7.36,4.83 0.82,21.75 11.42,19.59 4.52,-0.92 -3.01,-11.03 2.66,-5.03 5.56,5.9 8.38,-1.02 5.76,-4.15 -0.9,-1.07 -1.38,-1.43 0.86,-0.9 2.25,0.52 6.28,0.92 5.02,-3.53 -0.3,-1.05 -3.07,-3.6 -7.37,-5.93 -10.53,-5.72 -17.87,-19.97 -3.51,-28.68 5.77,-3.51 12.41,-10.42 12.47,-10.44 0,16.58 9.59,19.07 10.24,34.43 0.16,3.64 -6,6.69 3.93,8.53 2.95,0.55 10.85,8.82 11.46,11.2 3.35,13.19 12.64,6.83 9.55,0.56 -0.64,-1.98 4.21,3.43 7.14,0.59 3.94,-3.82 0.01,-6.23 -3.33,-6.38 -0.68,-0.03 -0.01,-0.66 0.27,-0.71 3.35,-0.6 5.4,-6.75 -5.48,-6.33 -2.56,0.1 -10.84,-7.18 -12.16,-12.3 -1.09,-4.24 -6.79,-17.88 -2.99,-21.2 7.25,-6.33 9.14,-25.25 8.06,-34 -1.09,-8.94 -3.47,-13.25 -3.42,-16.49 3.18,-4.66 8.64,-19.95 7.99,-30.96 1.44,-0.37 5.79,1.59 17.82,1.93 8.82,0.25 13.11,-8.13 23.23,-10.19 4.3,-0.88 4.44,-19.74 -7.3,-7.3 -6.18,6.56 -23.49,7.94 -26.89,-5.27 -1.33,-5.18 -11.85,-12.39 -10.08,-18.75 1.79,-6.42 5.17,-5.18 12.21,-9.14 3.71,-2.08 6.82,-7.61 3.7,-8.67 -2.17,-0.75 -5.41,-1.54 -6.35,-2.02 -0.92,-0.47 1.13,0.79 7.92,-0.68 4.66,-1.01 6.66,-6.16 -0.14,-10.53 -10.56,-6.8 -16.43,-11.01 -27.03,-8.11 -3.67,1 -11.82,6.93 -14.94,-3.56 -2.53,-8.5 -7.39,-24.12 -12.8,-32.57 -6.81,-10.65 -28.53,-23.6 -28.88,-23.09 -7.58,11.07 11.3,57.01 37.98,66.81 4.97,1.83 -0.01,14.65 4.83,24.15z"/>
   <path class="fil2 str2" d="M114.8 663.11c1.21,2.67 2.67,7.92 2.56,10.81 -0.23,5.82 -0.55,18.43 -10.24,26.46"/>
   <path class="fil2 str2" d="M93.75 668.23c-0.48,3.36 -1.83,7.49 -4.48,9.49 -0.37,0.28 -1.73,1.52 -2.09,1.51"/>
   <path class="fil2 str2" d="M131.15 657.42c-3.86,8.28 -4.67,9.98 -13.51,14.09"/>
   <path class="fil2 str2" d="M92.73 613.38c1.37,-3.47 7.1,-16.57 14.25,-18.98"/>
   <path class="fil2 str2" d="M138.95 626.75c0.39,-4.45 0.25,-16.66 -5.37,-21.96"/>
   <path class="fil2 str2" d="M107.82 546.94c-1.66,-1.31 -2.45,-0.86 -2.24,3.17 -11.32,-4.76 -24.54,-28.84 -27.91,-43.79 -0.54,-2.4 0.71,-3.2 2.97,-1.9 14.52,8.31 30.3,41.43 27.18,42.52z"/>
   <g>
    <path class="fil3 str2" d="M137.74 558c0.02,1.55 5.69,1.77 0.9,2.75 -0.9,0.18 -4.84,8.09 -10.06,0.88 -4.46,-6.15 9.08,-12.19 9.16,-3.63z"/>
    <path class="fil2 str2" d="M134.05 556.91c1.5,0.21 -1.03,2.56 -1.46,0.3 -0.06,-0.36 0.36,-0.46 1.46,-0.3z"/>
   </g>
   <path class="fil7" d="M155.07 558.82c-7.97,-0.88 -7.4,2.65 -1.97,2.43 2.02,-0.07 0.92,4.25 3.39,3.74 0.09,-0.25 1.19,-5.6 0.09,-5.84 -0.25,-0.05 -1.3,-0.3 -1.51,-0.33z"/>
   <path class="fil2 str2" d="M116.34 577.35c0,2.6 -1.11,5.83 -3.87,6.78"/>
   <path class="fil2 str2" d="M121.98 580.9c-1.45,1.82 -3.63,5.35 -0.89,7.18"/>
   <path class="fil2 str2" d="M127.3 584.45c-2.53,1.05 -1.62,5.23 0.29,5.89"/>
   <path class="fil2 str2" d="M131.82 584.77c-0.61,1.58 -0.89,5.7 1.29,6.45"/>
   <path class="fil5 str2" d="M191.5 520.86c4.32,-7.36 8.65,-2.01 4.78,3.16 -16.05,21.42 -12.34,78.46 -10.36,110.36 0.78,12.44 -4.79,8.17 -5,-3.54 -0.65,-35.47 -8.02,-78.26 10.58,-109.98z"/>
   <path class="fil8 str2" d="M183.4 530.98c4.84,4.49 12.91,7.47 18.6,5.99 11.74,-3.05 16.22,-17.25 16.1,-14.34 -0.57,14.72 -4.15,33.47 -11.72,45.96 -2.3,3.79 -13.37,15.74 -9.72,9.35 6.59,-11.56 -3.38,-31.2 -14.34,-33.38 -7.19,-1.43 -5.98,-7.11 -3.6,-11.05 1.22,-2.03 3.23,-3.87 4.68,-2.53z"/>
   <path class="fil6 str2" d="M177.51 604.68c-1.64,2.79 2.52,4.98 4.81,5.27 0.75,0.09 -6.25,1.66 -3.85,5.78 1.07,1.84 4.67,-0.16 5.69,-0.1 0.96,0.06 -4.23,2.98 0.64,4.76 2.53,0.92 6.7,-0.23 7.36,-3.48 0.76,-3.75 -3.94,-12.84 -7.18,-14.15 -1.42,-0.58 -6.26,-0.12 -7.47,1.92z"/>
   <path class="fil2 str3" d="M131.28 606.89c4.96,7.64 5.85,18.62 4.72,27.9 -1.44,11.96 -7.59,23.53 -14.69,31.75"/>
   <path class="fil2 str3" d="M118.01 578.74c0,2.17 -0.07,5.22 -2.38,6.6"/>
   <path class="fil2 str3" d="M123.89 583.55c-1.55,0.56 -2.23,2.95 -1.17,4.56"/>
   <path class="fil2 str3" d="M129.4 586c-1.12,0.74 -0.87,3.36 0.04,4.28"/>
   <path class="fil2 str3" d="M82 513.76c-1.75,-4.07 -1.97,-7.67 -1.3,-7.21 8.53,5.83 22.85,30.03 24.47,37.29"/>
   <path class="fil2 str3" d="M90.38 483.33c33.79,20.34 20.38,55.88 29.4,63.78"/>
   <path class="fil2 str1" d="M81.13 727.95c-4.7,0.19 -4.09,4.4 -1.12,6.67"/>
   <path class="fil2 str1" d="M84.37 670.6c-2,9.45 -12.25,4.49 -12.1,6.84 0.01,1.21 2.77,5.44 9.43,4.41"/>
   <path class="fil2 str3" d="M144.33 565.16c3.09,1.07 6.7,0.34 9.89,-0.82"/>
   <path class="fil2 str3" d="M105.3 592.97c-3.7,0 -7.26,4.96 -8.1,6.91"/>
   <path class="fil2 str3" d="M138.66 608.26c2.27,3.9 2.96,5.88 2.7,12.47"/>
   <path class="fil2 str3" d="M144.16 616.17c1,1.32 0.34,3.93 -0.43,4.9"/>
   <path class="fil2 str3" d="M181.7 604.46c-1.22,0.21 -2.43,2.36 -0.19,2.99 0.39,0.11 2.64,0.42 3.01,1.76 0.49,1.81 -4.98,3.76 -1.65,4.79 1.86,0.59 3.25,-0.04 2.77,2.45 -0.24,1.3 0.42,2.45 1.45,2.39"/>
   <path class="fil2 str1" d="M141.21 755.37c1.22,1.66 -1.77,5.66 -4.6,1.81"/>
   <path class="fil2 str1" d="M101.84 742.92c1.66,0.34 2.2,3.8 -1.65,3.01"/>
   <path class="fil2 str1" d="M145.79 743.54c1.34,0.33 1.48,3.24 -1.63,2.49"/>
   <path class="fil2 str1" d="M91.01 753.29c0.93,1.83 -1.76,5.17 -3.93,0.92"/>
   <path class="fil2 str1" d="M99.06 750.22c1.35,1.55 -0.46,5.44 -3.59,1.84"/>
   <path class="fil2 str1" d="M147.48 750.21c1.86,0.89 1.73,5.18 -2.57,3.11"/>
   <path class="fil2 str3" d="M130.32 667.68c1.38,7.18 1.55,15.2 0.69,22.35 -1.65,13.73 -9.76,12.65 -8.23,23.37 1.55,10.82 5.14,25.11 16.66,29.15"/>
   <path class="fil2 str3" d="M60.46 610.91c-0.9,1.02 -2.75,3.6 -5.06,1.73 -0.91,-0.74 -0.24,-2.57 0.1,-4.2 0.47,-2.27 0.34,-2.71 -2.09,-3.1 -2.03,-0.33 -3.66,-0.74 -3.65,-2.23 0,-4.28 7.22,-1.02 7.22,-4.43 0,-6.78 6.05,-3.11 4.87,0.09"/>
  </g>
  <g id="_2825771908576">
   <path class="fil6 str2" d="M561.39 256.77c-1.87,0.15 -5.79,4.9 -10.91,1.26 -2.31,-1.65 -7.63,-2.82 -11.21,-5.49 -4.09,-3.03 -5.13,-6.56 -8,-8.72 -0.95,-0.71 -7.72,-8 -8.57,-9.13 -1.78,-2.37 -1.35,-2.57 1.68,-3.82 1.46,-0.6 9.95,4.99 11.12,6.12 4.36,4.22 14.75,8.99 20.31,11.92 2.99,1.56 9.57,4.04 6.26,7.93 -0.17,0.19 -0.45,-0.09 -0.68,-0.07z"/>
   <path class="fil6 str2" d="M523.75 178.51c-1.65,-8.88 -28.98,0.43 -40.81,3.19 -4.53,1.06 -19.04,3.24 -23.93,3.05 -2.55,-0.1 22.62,15.13 52.23,7.05 4.78,-1.31 11.14,-1.85 12.74,-6.47 2.32,-0.48 -0.14,-6.38 -0.23,-6.82z"/>
   <path class="fil3 str4" d="M533.82 226.54c-1.18,-2.61 -1.53,-5.45 -2.93,-6.24 -2.15,-1.21 -5.52,-0.69 -3.76,2.85 0.81,1.65 -0.55,1.64 -1.95,-0.13 -1.79,-2.27 -4.97,-0.48 -5.88,2.01 -1.25,3.4 7.88,4.43 1.86,4.51 -5.03,0.06 -7.28,5.78 -0.41,5.14 7.57,-0.7 2.02,-0.2 2.8,3.04 0.3,1.23 3.95,3.19 6.11,1.46 1.02,-0.82 1.22,-2.25 1.81,-3.44 1.27,-2.57 3.97,-1.07 3.97,-3.27 0,-1.72 -1.02,-4.58 -1.62,-5.93z"/>
   <path class="fil6 str2" d="M564 169.06c-0.2,0.59 1.1,0.31 1.25,0.3 6.54,-0.13 -6.49,12.32 4.92,22.1 17.21,14.75 21.19,13.16 33.87,36.53 9.12,16.82 13.32,30.75 16.89,46.88 1.89,8.57 1.21,13.89 10.66,15.48 4.85,0.82 -9.15,14.9 -12.14,2.89 -2.12,-8.57 -2.29,-4.34 -2.29,0.92 0,6.98 4.32,19.45 11.28,20.86 9.74,1.99 -3.16,22.69 5.84,30.37 5.23,4.46 -7.78,6.68 -6.25,9.41 2.43,4.34 -6.75,8.76 -6.75,-1.46 0,9.44 -9.61,8.64 -7.87,0.52 -2.16,0.9 -6.9,6.12 -7.57,-1.75 -0.8,-9.5 14.18,-3 17.74,-9.26 0.85,-1.5 -2.09,-3.44 -2.45,-6.84 -0.18,-1.68 0.17,-5.33 -1.13,-7.09 -5.65,-7.64 -22.11,-12.57 -25.23,-18.85 -4.39,-8.86 0.29,17.11 -4.12,22.02 -5.5,6.12 -8.23,-0.01 -8.39,11.97 -0.06,4.29 -5.57,5.75 -8,1.01 -0.27,-0.52 -2.51,2.54 -5.38,3.38 -2.87,0.84 -6.37,-0.54 -4.21,-5.47 0.27,-0.62 -8.76,3.96 -7.91,-4.55 0.35,-3.46 5.19,-4.66 10.53,-5.57 3.15,-0.53 7.96,-0.05 9.12,-2.97 2.64,-6.65 5.92,-14.09 -0.01,-20.15 -7,-7.17 -6.57,-31.65 -4.35,-37.1 -3.75,-4.3 -4.93,-7.86 -4.93,-16.28 -2.21,-0.32 -6.86,2.66 -13.3,-5.11 -0.88,-1.06 -2.61,3.31 -4.85,1.85 -0.73,-0.48 -0.59,-4.04 -1.66,-4.23 -1.86,-0.41 -3.78,4.4 -5,-3.76 -0.22,-1.51 -4.83,5.37 -4.86,-4.17 0,-0.54 -0.88,-1.77 -1.34,-2 -1.38,-0.7 -4.81,-1.59 -6.64,-3.8 -1.77,-2.14 -1.83,-5.09 1.64,-5 1.39,0.03 2.57,-0.44 1.45,-0.86 -1.1,-0.42 -1.96,-1.64 -2.47,-3.06 -0.71,-1.98 0.24,-4.28 2.54,-4.06 6.27,0.6 -3.26,-2.78 3.04,-6 0.28,-0.14 3.57,0.13 3.88,1.86 2.32,0.87 3.96,1.13 3.53,-4.31 4.59,-0.95 -5.89,-25.29 -17.17,-14.76 -24.56,22.96 -56.73,15.33 -54.7,12.56 1.83,-2.5 17.85,-14.77 29.79,-20.51 9,-4.33 18.63,-3.5 21.97,-3.84 4.84,-0.49 -11.64,-30.58 32.99,-30.58 5.72,0 7.87,0.71 8.73,2.55 0.86,1.85 0.44,4.85 -0.69,9.93z"/>
   <path class="fil2 str2" d="M522.07 194.4c-4.62,-4.05 -27.04,7.64 -32.19,10.76 -3.42,2.08 -2.79,2.45 -0.91,2.34 7.88,-0.47 30.37,-5.49 33.3,-11.38 0.13,-0.27 -0.12,-1.64 -0.2,-1.72z"/>
   <path class="fil7 str2" d="M562.2 162.12c0.22,-0.05 2.08,1.15 2.57,-2 0.19,-1.24 -3.2,-3.72 -4.51,-1.05 -0.12,0.24 -1.13,7.47 -0.03,6.32 0.38,-0.4 1.28,-3.27 1.97,-3.27z"/>
   <path class="fil2 str2" d="M564 169.06c-1.64,1.61 -2.58,1.95 -3.6,5.9 -0.28,1.12 0.29,4.76 1.07,1.97 0.58,-2.06 1.61,-6.81 3.78,-7.57"/>
   <path class="fil2 str2" d="M589.55 269.24c4.85,6.33 -2.51,11.47 -3.21,18.7 -0.66,6.78 2.36,15.72 7.28,20.39"/>
   <path class="fil2 str2" d="M572.05 272.64c5.17,6.68 13.05,10.76 15.49,10.07"/>
   <path class="fil2 str2" d="M574 344.84c-1.94,-2.7 -0.72,-6.61 2.98,-8.87"/>
   <path class="fil2 str2" d="M564.67 342.98c0.42,-3.87 4.29,-6.75 5.42,-6.66"/>
   <path class="fil2 str2" d="M621.28 353.59c-0.81,-2.7 1.59,-3.92 2.67,-4.29"/>
   <path class="fil2 str2" d="M613.41 353.86c0.66,-3.6 2.95,-4.89 4.26,-5.32"/>
   <path class="fil5 str2" d="M537.02 85.57c0.56,3.97 16.75,66.6 13.85,67.66 -23.74,8.72 -65.98,2.79 -87.7,-10.54 -1.17,-0.72 -0.86,-1.94 -0.5,-2.82 8.65,-20.98 29.45,-43.04 50.59,-51.28 4.21,-1.64 23.52,-9.44 23.76,-3.02z"/>
   <g>
    <path class="fil2 str5" d="M530.36 126.85c-0.76,-0.2 0,0.93 2.42,-1.07 1.31,-1.09 -0.71,-3.19 -4.63,-1.9 -1.97,0.65 -4.56,-7.85 -2.41,-7.65 2.1,0.2 6.03,-4.02 1.43,-4.3 -0.81,-0.05 -2.21,2.07 0.12,1.71"/>
    <path class="fil2 str5" d="M533.14 118.51c7.64,2.04 4.55,-4.73 1.21,-2.8 -1.75,1.01 2.2,2.04 -7.67,4.03 -1.39,0.28 -6.33,2.06 -7.52,1.74"/>
    <path class="fil2 str5" d="M520.99 118.6c0.17,0.98 1.41,5.1 1.41,5.23"/>
   </g>
   <g>
    <path class="fil2 str5" d="M539.49 153.95c-0.76,-0.21 -0.01,0.92 2.41,-1.08 1.32,-1.08 -0.71,-3.19 -4.62,-1.9 -1.97,0.65 -4.56,-7.84 -2.41,-7.64 2.1,0.19 6.03,-4.02 1.43,-4.3 -0.81,-0.05 -2.21,2.07 0.11,1.7"/>
    <path class="fil2 str5" d="M542.27 145.61c7.63,2.04 4.55,-4.74 1.2,-2.8 -1.74,1 2.21,2.03 -7.66,4.03 -1.39,0.28 -6.33,2.05 -7.52,1.73"/>
    <path class="fil2 str5" d="M530.12 145.7c0.16,0.98 1.41,5.1 1.41,5.23"/>
   </g>
   <g>
    <path class="fil2 str5" d="M528.53 100.62c-0.76,-0.21 0,0.92 2.42,-1.08 1.31,-1.08 -0.71,-3.19 -4.63,-1.9 -1.97,0.65 -4.56,-7.84 -2.41,-7.64 2.1,0.2 6.03,-4.02 1.43,-4.3 -0.81,-0.05 -2.21,2.07 0.12,1.7"/>
    <path class="fil2 str5" d="M531.31 92.28c7.64,2.04 4.55,-4.74 1.21,-2.8 -1.75,1 2.2,2.03 -7.67,4.03 -1.39,0.28 -6.33,2.05 -7.52,1.73"/>
    <path class="fil2 str5" d="M519.17 92.37c0.16,0.98 1.4,5.1 1.4,5.23"/>
   </g>
   <g>
    <path class="fil2 str5" d="M513.73 148.13c-0.76,-0.2 0,0.92 2.42,-1.08 1.32,-1.08 -0.71,-3.19 -4.63,-1.9 -1.97,0.65 -4.55,-7.84 -2.4,-7.64 2.1,0.2 6.03,-4.02 1.42,-4.3 -0.8,-0.05 -2.21,2.07 0.12,1.71"/>
    <path class="fil2 str5" d="M516.51 139.79c7.64,2.04 4.56,-4.73 1.21,-2.8 -1.74,1.01 2.21,2.03 -7.66,4.03 -1.4,0.28 -6.34,2.05 -7.53,1.73"/>
    <path class="fil2 str5" d="M504.37 139.88c0.16,0.98 1.41,5.1 1.41,5.23"/>
   </g>
   <g>
    <path class="fil2 str5" d="M505.44 117.32c-0.76,-0.2 0,0.92 2.42,-1.08 1.31,-1.08 -0.72,-3.18 -4.63,-1.89 -1.97,0.65 -4.56,-7.85 -2.41,-7.65 2.1,0.2 6.03,-4.02 1.43,-4.3 -0.81,-0.05 -2.21,2.07 0.11,1.71"/>
    <path class="fil2 str5" d="M508.22 108.98c7.63,2.04 4.55,-4.73 1.21,-2.8 -1.75,1.01 2.2,2.04 -7.67,4.03 -1.39,0.28 -6.33,2.06 -7.52,1.74"/>
    <path class="fil2 str5" d="M496.07 109.07c0.16,0.98 1.41,5.1 1.41,5.23"/>
   </g>
   <g>
    <path class="fil2 str5" d="M485.64 141.54c-0.76,-0.2 0,0.93 2.42,-1.07 1.31,-1.09 -0.71,-3.19 -4.63,-1.9 -1.97,0.65 -4.56,-7.85 -2.41,-7.65 2.11,0.2 6.03,-4.02 1.43,-4.3 -0.81,-0.05 -2.21,2.07 0.12,1.71"/>
    <path class="fil2 str5" d="M488.42 133.2c7.64,2.04 4.55,-4.73 1.21,-2.8 -1.75,1.01 2.2,2.04 -7.66,4.03 -1.4,0.28 -6.34,2.06 -7.53,1.74"/>
    <path class="fil2 str5" d="M476.28 133.29c0.16,0.98 1.41,5.1 1.41,5.23"/>
   </g>
   <path class="fil3 str2" d="M542.08 221.77c7.19,-3.83 17.47,-6.54 20.42,-14.48 3.31,-8.91 1.48,-14.88 4.12,-22.53 2.35,-6.78 9.76,-8.44 4.03,-13.99 -2.65,-2.56 -8.45,-18.23 -8.45,-21.42 -7.32,-2.53 -4.56,-2.53 -7.35,-3.92 -2.63,-1.3 -6.59,6.8 -8.85,2.42 -0.57,-1.12 -5.11,4.54 -5.89,-1.75 -0.14,-1.12 -4.19,3.79 -4.83,-1.21 -0.24,-1.83 -7.04,4.18 -6.78,-2.58 0.14,-3.39 -7.99,1 -11.93,-3.15 -0.15,-0.16 -7.06,-5.38 0.17,-5.09 4.12,0.16 -8.73,-4.79 -2.71,-8.35 4.77,-2.82 10.89,6.47 6.73,2.31 -6.26,-6.26 2.03,-8 6.94,1.91 1.15,2.3 25.29,5.39 21.76,2.38 -1.22,-1.04 -6.44,-15.04 -6.27,-22.9 0.05,-2.33 1.96,-10.23 -2.9,-13.28 -6.3,-3.96 -2.89,-6.59 -11.72,-9.44 -3.74,-1.21 -7.15,-8.07 -2.61,-8.99 1.67,-0.34 5.87,4.1 8.98,4.49 2.91,0.36 6.83,-3.37 2.35,-3.99 -0.62,-0.08 -6.32,-3.26 -9.02,-5.96 -8.16,-8.16 1.3,-14.31 1.41,-13.75 5.19,-2.22 8.83,3.22 13.49,2.94 1.93,-0.12 0.92,-2.87 2.56,-3.55 6.34,-2.62 11.57,-0.15 20.4,6.67 5.96,4.59 6.75,5.69 5.35,17.14 -0.65,5.23 -4.15,4.56 2.02,12.17 8.44,10.42 13.85,15.86 21.15,31.95 7.77,17.12 16.42,36.32 15.99,57.33 -0.57,27.91 -0.08,66.01 42.14,61.61 35.65,-3.71 33,22.96 31.52,23.48 -1.18,0.4 -12.03,-13.52 -34.77,-13.05 -29.4,0.6 -47.43,-28.9 -49.08,-55.69 -0.23,-3.72 0.38,-5.79 0.57,-10.35 0.11,-2.44 -5.67,8.41 -8.75,10.59 -9.93,7.01 -25.43,9.05 -18.17,20.85 2.15,3.49 -9.99,2.53 -13.71,3.19 -5.26,0.93 -13.51,7.58 -17.37,10.33 -1.73,0.47 -2.69,-4.98 -0.94,-12.34z"/>
   <path class="fil2 str2" d="M572.73 175.13c4.61,-5.71 11.47,-3.83 14.01,-13.7"/>
   <path class="fil2 str2" d="M562.2 149.35c3.31,0 3.52,-2.54 3.44,-6.04 -0.05,-2.06 -1.15,-2.29 1.26,-4.34 0.82,-0.71 2.34,-3.94 2.34,-5.5 0,-3.97 -0.39,-5.2 -1.81,-8.86"/>
   <path class="fil2 str2" d="M549.66 133.13c1.87,-4.6 -0.53,-18.69 6.3,-24.2"/>
   <path class="fil2 str2" d="M563.31 77.04c-0.42,3.4 -6.41,9.3 -8.28,11.62 -3.77,4.68 -1.28,18.11 6.57,20.01 2.63,0.64 5.61,-2.08 6.05,-4.65 1.14,-6.72 -4.12,-7.93 -0.77,-15.83"/>
   <path class="fil2 str2" d="M543.05 99.86c5.75,1.65 9.14,-3.4 11.11,-8.23"/>
   <path class="fil2 str2" d="M543.39 107.36c10.08,0.78 11.1,-2.53 12.17,-4.55"/>
   <path class="fil2 str2" d="M550.64 76.04c-2.72,-7 -6.27,-0.35 -5.94,-8.15 0.06,-1.34 -3.74,-3.85 2.4,-2.6 2.12,0.44 3.52,-1.52 6.6,1.26 0.35,0.31 5.38,5.29 2.41,3.4 -0.39,-0.24 -2.64,-2.86 -3.77,-2.46"/>
   <path class="fil3 str2" d="M552.34 67.49c1.03,2 0.12,3.74 -2.71,4.87 -1,0.41 -6.99,-1.04 -3.39,-5.74 1.63,-2.13 5,-1.29 6.1,0.87z"/>
   <path class="fil7 str2" d="M549.93 67.49c0,0.76 -1.93,1.76 -2.19,0.18 -0.22,-1.28 2.19,-1.77 2.19,-0.18z"/>
   <path class="fil7 str2" d="M529.68 58.5c0.71,1.86 4.49,3.95 0.99,6.02 -0.56,0.33 -7.35,0.23 -4.47,-2.96 0.01,-0.01 3.42,-3.22 3.48,-3.06z"/>
   <path class="fil7 str2" d="M541.7 166.87c0.17,3.45 5.06,1.21 5.26,7.23 0.24,7.25 -12.21,7.33 -12.57,1.36 -0.41,-6.82 3.52,-4.59 5.58,-8.75 0.05,-0.09 1.23,-1.28 1.73,0.16z"/>
   <path class="fil3 str2" d="M546.14 175.74c-1.23,3.76 -8,5.22 -10.46,1.83 -1.51,-2.08 -1.63,-6.32 2.43,-8.67 2.54,-1.46 10.01,0.81 8.03,6.84z"/>
   <path class="fil7 str2" d="M538.99 171.93c1.46,-1.17 2.25,0.94 1.56,1.61 -1.23,1.19 -3.44,-0.19 -1.56,-1.61z"/>
   <path class="fil2 str2" d="M557.58 227.01c-5.44,0 -2.48,11.41 -3.98,12.32 -2.09,1.27 -6.38,-3.2 -8.9,-4.07 -1.28,-0.45 -3.22,-2.5 -3.22,-3.83"/>
   <path class="fil2 str2" d="M574.87 237.27c-0.01,0.03 -1.05,7.71 -1.76,8.7 -0.52,0.74 -1.02,5.29 -4.4,8.66 -1.68,1.68 -2.68,1.19 -2.96,1.47l-0.14 0.34"/>
   <path class="fil2 str2" d="M558.58 192.01c1.58,2.22 2.06,4.63 0.04,6.84"/>
   <path class="fil2 str2" d="M554.56 194.42c1,3.08 -0.3,5.04 -1.52,6.51"/>
   <path class="fil2 str2" d="M549.73 196.03c1.91,4.21 0.18,4.34 -0.4,6.04"/>
   <path class="fil2 str2" d="M546.11 197.64c0.82,0.89 0.9,4.38 -1.17,4.83"/>
   <path class="fil2 str2" d="M534.92 191.1c1.77,2.99 -0.78,3.64 -1.43,3.79"/>
   <path class="fil2 str2" d="M530.92 191.71c-3.79,1.59 -0.92,3.18 -3.52,6.05"/>
   <path class="fil2 str5" d="M538.44 192.85c0.79,3.18 0.05,3.71 -0.99,4.33"/>
   <path class="fil2 str2" d="M541.22 195.93c0.89,1.08 0.32,3.28 -0.87,3.75"/>
   <path class="fil2 str5" d="M543.49 198.45c0.32,0.7 0.13,2.51 -1.04,2.55"/>
   <path class="fil2 str2" d="M570.45 212.53c-3.24,-0.13 -3.33,3.79 -2.27,5.28 1.53,2.15 -4.65,0.38 -6.43,1.51 -0.15,0.09 -3.08,1.43 -3.17,1.46"/>
   <path class="fil2 str2" d="M541.66 223.77c0.07,-0.48 -1.33,-6.24 -2.67,-5.95"/>
   <path class="fil2 str2" d="M755.2 157.1c-6.91,0 -118.26,-11.56 -122.02,-11.99l-65.37 -7.43m-52.37 -5.76l-188.68 -21.63c-10,-1.15 -0.2,9.95 -9.87,4.22 -7.93,-4.7 -2.41,-5.04 -13.52,-7.3 -12.2,-2.49 14.42,-0.27 19.62,-3.99 2.86,-2.05 0.24,3.6 0.24,5.89"/>
   <path class="fil2 str3" d="M556.87 194.09c0.26,1.45 0.2,4.36 -0.73,5.42"/>
   <path class="fil2 str3" d="M548.45 197.32c0,1.67 0.33,3.31 -0.5,4.7 -0.02,0.05 -0.01,0.16 -0.01,0.22"/>
   <path class="fil2 str3" d="M532.83 190.99c0,0.95 -0.05,1.82 -0.75,2.44"/>
   <path class="fil2 str3" d="M522.22 189.76c-13.2,-2.53 -35.21,11.69 -45.93,19.74 -2.87,2.15 -2.59,2.85 0.95,2.47"/>
   <path class="fil2 str4" d="M559.42 249.86c0.92,2.21 5.24,3.29 6.98,1.25 0.8,-0.93 1.49,-1.88 1.49,-3.25"/>
   <path class="fil2 str3" d="M568.8 257.06c0.28,2.49 1.17,8.89 3.49,11.99 6.67,8.87 13.38,13.49 16.41,8.86"/>
   <path class="fil2 str3" d="M584.74 207.33c18.62,19.45 28.39,39.08 34.89,76.09 0.78,4.43 4.72,8.27 9.99,8.27"/>
   <path class="fil2 str3" d="M573.91 278.1c-1.06,5.89 -1.96,22.82 5.31,30.46 4.06,4.27 3.22,11.89 0.76,17.28 -1.86,4.06 -1.65,8.36 -8.07,8.36"/>
   <path class="fil2 str3" d="M589.12 289.03c-0.91,5.03 3.71,15.24 7.04,19.01 5.9,6.66 19.74,12.32 25.2,18.76 3.09,3.65 0.46,10.71 5.68,15.01"/>
   <path class="fil2 str3" d="M627.46 318.54c1,-0.35 3.14,3 1.24,5.91"/>
   <path class="fil2 str1" d="M570.99 344.23c-0.06,2.1 -4.36,3.21 -4.21,-1.65"/>
   <path class="fil2 str1" d="M563.09 340.24c-1.07,1.68 -5.84,0.88 -3.36,-3"/>
   <path class="fil2 str1" d="M580.72 343.43c-0.25,2.98 -5.49,4.13 -4.89,-2.78"/>
   <path class="fil2 str1" d="M611.97 351.79c-0.06,2.1 -4.36,3.21 -4.21,-1.65"/>
   <path class="fil2 str1" d="M619.17 355.7c-0.07,2.1 -4.37,3.21 -4.21,-1.65"/>
   <path class="fil2 str1" d="M626.59 355.56c-0.07,2.11 -3.41,3.88 -3.26,-0.99"/>
  </g>
  <g id="_2825771919376">
   <g>
    <g>
     <path class="fil5 str2" d="M462.2 496.61c-3.16,5.38 -6.56,14.64 -5.01,22.26 0.48,2.39 4.63,-3.53 5.86,-5.48 4.3,-6.88 12.11,-16.59 19.31,-13.03 1.6,0.79 2.59,5.44 -4.79,5.44 -4.23,0 -8.1,-2.26 -10.6,2.81 -1.09,2.21 -3.38,2.97 3.04,3.33 3.85,0.21 8.79,2.73 9.42,6.47 2.41,14.31 12.64,-15.67 12.64,-24.39 0,-6.77 -1.72,-13.89 -10.19,-11.89 -6.62,1.57 -15.68,7.67 -19.68,14.48z"/>
     <path class="fil2 str2" d="M477.89 491.17c-4.97,9.08 -9.77,2.68 -4.96,1.65 0.17,0.41 0.08,0.79 0.08,1.27"/>
    </g>
    <g>
     <path class="fil6" d="M414.17 521.62c-0.2,0.58 -11.85,5.52 -3.39,9.73 4.65,2.32 4.91,13.37 9.16,18.07 2.44,2.7 2.7,12.47 5.72,8.92 2.76,-3.24 10.86,1.11 15.44,11.88 5.25,12.33 15.25,24.04 31.38,32.77 -0.7,-4.26 -7.92,-24.32 -4.5,-31.5 -14.05,-14.2 -35.48,-34.27 -53.81,-49.87z"/>
     <path class="fil2 str2" d="M468.47 572.22c-3.61,-6.24 -59.35,-56.13 -65.46,-59.47"/>
     <path class="fil2 str2" d="M426.8 554.59c-5.66,3.42 1.49,10.77 2.6,13.66"/>
     <path class="fil2 str2" d="M427.99 556.46c11.72,1.65 15.99,26.87 27.14,34.68 2.87,2.01 15.58,12.96 18.21,12.75 -8.14,-20.28 -5.41,-26.8 -4.87,-31.67"/>
     <path class="fil2 str2" d="M424.88 552.48c-3.44,0 -5.32,2.8 -5.06,6.06 0.1,1.22 1.38,2.44 1.48,2.72"/>
     <path class="fil2 str2" d="M430.07 559.97c-2.58,-0.12 0.18,3.66 1.3,3.57"/>
    </g>
    <g>
     <path class="fil6" d="M479.11 482.71c0.48,-2.52 1.08,-3.72 2.26,-4.35 5.13,-2.74 9.88,0.77 15.89,-3.85 10.25,-7.86 20.61,-4.27 27.37,-1.98 6.28,-6.14 17.99,-1.06 28.42,-3.42 4.94,-1.12 6.69,-3.2 8.54,-9.17 2.33,-7.45 15.37,-19.21 23.07,-17.81 11.57,2.1 6.81,6.78 14.68,8.41 -4.23,3.53 -21.29,-5.31 -26.15,16.74 -2.24,10.16 -10.2,6.35 -16.53,13.77 -2.33,2.73 -21.27,-3.05 -23.58,1.34 -1.62,3.1 -1.97,24.46 18.99,19.85 4.12,-0.9 9.48,-12.07 15.99,-15.92 11.69,-6.93 33.26,-1.73 36.43,-8.14 1.73,-3.49 7.63,12.67 -15.35,15.49 -15.83,1.95 -15.86,4.94 -17.45,9.79 -1.55,4.75 -4.74,11.33 -13.62,15.74 -7.22,3.58 -19.09,1.35 -24.7,-6.4 -6.14,0 8.36,57.27 8.36,61.04 0,3.57 0.99,10.02 -0.05,13.03 -0.83,0.17 -9.91,13.2 -10.21,15.07 -2.08,12.73 -1.53,17.77 -17.72,38.21 -13.61,17.18 -27.2,-5.21 -32.53,-16.53 -11.97,-25.37 -19.03,-50.2 -8.55,-79.08 1.39,-3.82 19.45,-42.51 19.8,-50.83 0.42,-10.13 -7.08,-11.41 -13.36,-11z"/>
     <g>
      <path class="fil2 str2" d="M481.72 483.01c16.75,0 8.54,20.95 5.9,27.37 -6.67,16.27 -28.89,52.18 -17.77,82.03 0.14,0.38 3.18,15.36 4.44,17.95 5,10.27 20.34,47.05 36.26,33.47 3.47,-2.96 19.51,-26.02 19.28,-31.43 -0.84,-19.58 15.91,-16.56 9.05,-50.19 -1.48,-7.28 -5.44,-23.83 -5.96,-33.85 -0.26,-4.92 -2.33,-22.12 3.19,-12.78 6.72,11.37 33.53,5.2 36.8,-14.09 1.52,-9.03 36.9,-5.97 36.9,-23.68"/>
      <path class="fil2 str2" d="M535.05 506.12c15.11,8.26 25.95,9.23 30.18,-6.61 1.83,-6.86 9.34,-11.55 24.14,-11.55 8.54,0 16.35,-5.33 11.68,-11.54"/>
      <path class="fil2 str2" d="M479.12 483.34c-0.45,-9.82 11.62,-2.68 18.05,-9.44 2.89,-3.03 11.78,-5.32 15.73,-4.52 25.5,5.2 12.93,18.19 24.7,29.83 4.8,4.75 14.01,6.32 19.65,-1.16 5.02,-6.65 4.92,-11.49 15.2,-14.71 9.9,-3.11 14.64,-0.42 20.48,-1.6 5.77,-1.18 -1.84,-8.43 -3.28,-4.26"/>
      <path class="fil2 str2" d="M524.8 473.91c3.07,-6.62 9.99,-4.7 17.24,-4.7 5.93,0 15.71,2.36 18.77,-7.11 2.83,-8.76 9.65,-16.6 19.09,-19.97 9.77,-3.49 13.9,7.36 20.24,4.23 2.01,-1 -3.49,-4.21 -4.66,-4.02"/>
      <path class="fil2 str2" d="M529.51 479.11c0,-7.4 10.14,-4.31 15.65,-3.26 18.04,3.46 20.16,-13.49 32.5,-25.54 7.59,-7.4 19.9,3.44 24.82,-0.79"/>
      <path class="fil2 str2" d="M531.03 484.05c0.2,-0.01 4.85,-3.1 9.86,-2.34 22.13,3.33 12.45,-1.92 25.06,-5.85 5.64,-1.76 7.23,-3.33 7.91,-8.85 1.94,-15.68 18.68,-17.87 18.09,-13.88 -0.12,0.83 -1.5,2.73 -2.1,2.73"/>
      <path class="fil2 str2" d="M485.15 516.54c0.38,2.89 1.22,10.6 4.44,10.96 6.19,0.68 6.74,-7.6 6.76,-12.81 0.01,-2.4 0.05,-3.64 0.52,-0.18 0.45,3.35 1.79,11.08 5.54,11.76 7.58,1.38 8.42,-5.27 8.57,-11.36 0.05,-2.22 1.52,-5.57 1.52,0.63 0,3.57 2.22,13.49 8.04,10.24 3.09,-1.72 3.76,-8.39 3.8,-12.66 0.06,-6.42 1.71,1.44 1.83,2.1 0.27,1.41 0.85,13.09 5.2,6.5 1.24,-1.87 0.91,-6.06 1.79,-8.38"/>
      <path class="fil2 str2" d="M477.96 532.69c-0.58,1.74 -3.21,8.71 4.08,11.7 5.72,2.35 7.84,-3.02 8.83,-7.86 0.72,-3.55 1.86,-3.93 2.14,-0.01 0.35,4.7 1.02,9.94 6.91,9.58 6.29,-0.38 5.01,-19.93 7.16,-7.83 2.2,12.44 12.68,6.87 12.32,-3.55 -0.07,-2.09 0.93,-1.09 1.48,1.02 0.85,3.26 2.42,8.42 7.28,8.65 4.66,0.22 5,-8.84 5,-12.97"/>
      <path class="fil2 str2" d="M469.38 555.32c1.92,12.24 11.46,12.79 14.35,0.36 1.48,-6.35 1.84,-7.66 1.64,-1.06 -0.13,4.19 0.46,8.83 5.77,9.04 5.16,0.2 5.89,-5.05 6.28,-9.39 0.33,-3.62 0.68,-3.18 1.64,-0.02 4.46,14.78 12.97,9.21 13.63,-1.56 0.2,-3.21 -0.02,-5.3 1.24,0.86 2.6,12.72 10.96,1.79 10.96,-4.83"/>
      <path class="fil2 str2" d="M467.8 582.92c1.57,7.01 6.02,14.59 8.9,14.51 6.28,-0.18 4.37,-11.97 1.62,-18.42 -1.44,-3.36 -0.38,-5.56 0.94,-1.52 1.98,6.04 7.35,15.95 13.03,12.35 3.88,-2.45 -0.38,-13.53 -1.98,-17.67 -2.27,-5.87 0.36,-2.4 1.89,1.48 6.81,17.22 15.84,9.76 16.28,5.89 0.43,-3.71 -0.82,-7.27 -1.32,-12.47 -0.06,-0.71 0.7,-0.82 0.97,0.35 0.63,2.81 2.29,5.47 3.46,5.75"/>
      <path class="fil2 str2" d="M478.88 619.96c13.95,6.49 12.35,-5.11 7,-14.13 -1.41,-2.38 -0.92,-4.33 1.18,-0.82 8.94,14.9 18.41,7.54 10.2,-4.94 -2.66,-4.03 -0.27,-2.62 1.71,-0.49 4.52,4.84 11.02,9.88 11.95,0.38"/>
      <path class="fil2 str2" d="M487.1 634.32c1.82,1.08 9.04,3.83 10.22,-1.41 0.64,-2.85 -1.94,-5.97 -3.3,-8.19 -1.17,-1.92 -1.33,-3.2 0.37,-1.62 12.94,12.06 16.15,0.2 11.29,-6.26 -0.22,-0.29 -3.82,-6.49 -0.58,-2.66 1.44,1.69 7.59,8.23 7.98,2.13"/>
      <path class="fil2 str2" d="M494.64 635.62c2.66,6.34 13.8,12.5 15.69,7.04 2.55,-7.38 -5.21,-17.58 -2.91,-15.47 1.17,1.06 4.28,1.58 5.56,1.58"/>
     </g>
    </g>
    <g>
     <g>
      <path class="fil9 str2" d="M379.15 560.88c-10.56,0.75 -14.85,6.12 -16.57,8.73 -2.4,3.62 -12.08,22.62 -11.65,27.85 0.51,6.16 -19.57,16.2 -11.01,7.64 3.05,-3.05 1.93,-2.98 -0.14,-1.41 -2.31,1.76 -5.62,4.33 -5.36,2.02 0.08,-0.72 2.76,-2.59 3.92,-3.32 1.46,-0.91 0.64,-1.34 -0.22,-0.65 -0.56,0.45 -4.17,2.42 -4.74,2.19 -0.37,-0.15 1.31,-1.68 3.43,-3.77 1.07,-1.05 1.98,-2.58 1.98,-4.65 0,-12.51 8.38,-8.1 10.16,-17.48 1.98,-10.52 7.1,-17.49 8.78,-22.34 1.72,-4.99 25.06,-8.45 25.78,-4.9 0.59,2.88 -4.36,10.07 -4.36,10.09z"/>
      <path class="fil2 str2" d="M348.74 587.74c-3.31,5.59 -0.38,4.88 -2,8.76 -0.78,1.87 -2.06,5.45 0.85,3.93 0.98,-0.51 1.93,-3.8 1.88,-4.43"/>
      <path class="fil2 str2" d="M345.34 590.9c-0.61,4 -1.95,5.06 -5.12,5.12"/>
     </g>
     <path class="fil10" d="M310.53 635.8c4.22,3.27 -3.36,0.84 -0.5,3.29 2.64,2.25 -2.82,0.19 -1.6,1.92 1,1.4 -1.56,4.94 -5.33,-2.63 -1.14,-2.28 -4.3,-3.24 -4.5,-8.34 -0.15,-4.03 -11.4,-3.52 -4.71,-8.29 3.49,-2.49 6.11,-12.18 8.04,-17.64 2.62,-7.41 9.49,-12.82 13.08,-17.28 0.38,-0.47 3.66,-21.79 2.05,-24.33 -5.19,-8.16 -10.11,-19.49 -7.03,-28.53 3.68,-10.8 11.35,-13.14 16.75,-17.1 9.14,-6.7 38.1,-11.83 58.85,-10.81 6.5,0.33 7.59,3.71 12.68,5.19 7.5,2.19 17.64,6.52 16.87,11.69 -0.09,0.65 -8.3,6.13 -0.33,6.78 2.02,0.16 -0.56,3.77 -2.3,4.81 -5.22,3.14 0.36,7.73 -11.38,11.79 -7.21,2.5 -3.71,4.01 -7.39,9.19 -1.6,2.26 0.13,12.06 1.18,14.63 3.5,8.63 5.04,17.88 11.35,21.71 5.13,3.11 4.46,6.56 7.46,11.04 0.03,0.06 3.46,6.09 0.81,3.53 -6.42,-6.21 -2.9,-1.94 -2.9,4.69 0,2.64 -2.26,-0.31 -2.13,-1.96 0.03,-0.46 -2.68,-8.08 -3.2,-9.07 1.76,8.23 -1.47,11.92 -2.99,3.46 -0.57,-3.21 -1.53,-5.86 -1.53,-0.7 0,0.96 -0.68,7.09 -1.75,5.28 -0.94,-1.62 0.18,-7.69 -3.05,-12.79 -1.48,-2.35 -0.84,-5.08 -3.98,-10.32 -0.51,-0.85 -13.42,-18.47 -13.42,-22.59 0,-7.9 5.41,-10.81 3.04,-11.03 -4.68,1.83 -14.66,3.86 -23.43,1.67 -5.08,-1.26 -11.28,-2.39 -15.37,-5.03 0.44,9.54 -0.26,17.89 0.82,20.16 3.33,7.02 1.88,11.14 1.12,13.14 -1.3,3.4 -7.96,5.29 -9.98,10.27 -2.62,6.42 -9.75,17.1 -12.29,23.25 -1.48,3.57 -1.12,5.36 -0.71,7.23 0.78,3.54 2.83,8.43 5.09,13.02 2.02,0.42 -1.52,2.35 -3.69,-1.11 -1.36,-2.19 -0.39,4.77 -3.12,0.52 -3.05,-4.77 -0.35,1.44 -3.08,-0.17 -1.62,-0.95 -0.71,-5.27 -2.09,-1.27 -2.61,0.9 -1.28,-6.76 -2.62,-8.64 -0.86,-1.21 -5.19,-7.61 -4.18,-8.56 1.16,-1.1 3.39,-1.62 5.53,-3.31 4.18,-3.32 9.84,-8.14 8.38,-13.62 -0.92,0.45 -2.3,5.13 -5.88,8.29 -6.03,5.31 -11.62,11.59 -12.66,13.24 -1.67,2.63 0.34,10.93 6.02,15.33z"/>
     <path class="fil11" d="M416.28 528.57c-5.45,2.78 -3.87,5.96 -6.08,9.06 -0.51,0.71 -1.49,5.54 -4.96,6.74 -2.37,0.82 -6.48,3.27 -7.56,5.44 -0.29,0.57 -6.86,8.23 -2.17,7.27 0.59,-0.12 5.74,-5.21 5.5,0.95 -0.12,3.03 4.95,1.27 5.23,2.9 0.25,1.48 0.87,4.33 3.17,3.54 2.02,-9.84 3.92,2.75 5.58,-2.57 0.57,-1.83 3.05,-8.32 4.55,-3.52 0.26,0.82 2.79,3.55 2.6,-1.33 -0.11,-2.84 3.42,0.24 2.25,-5.5 -0.88,-4.3 1.65,-0.79 1.65,-5.23 0,-5.03 7.2,-1.31 1.52,-8.04 -0.03,-0.04 -1.82,-8.4 -4.12,-9.19 -0.21,-1.04 -6.39,-0.86 -7.29,-0.03l0.13 -0.49z"/>
     <path class="fil2 str2" d="M312.54 543.07c-3.64,8.04 6.05,13.6 13.12,13.6 0,12.07 0.71,11.44 7.84,18.57 2.43,2.42 -5.51,5.68 -6.34,10.62 -0.31,1.79 -4.28,17.53 -5.03,18.77 -3.61,5.96 -4.46,5.72 -11.76,8.64 -6.64,2.64 3.68,6.97 3.34,16.86 -0.07,2.11 2.23,4.78 2.19,1.78 -0.03,-2.26 2.67,5.07 3.14,1.23 0.07,-0.64 0.31,-1.49 0.69,-0.55 0.58,1.49 1.45,2.46 2.34,2.76 0.63,0.22 1.59,0.41 1.02,-1.27 -0.4,-1.2 0.31,-1.01 0.71,-0.12 1.07,2.36 7.2,3.73 3.47,-0.5 -0.53,-0.61 -5.01,-11.57 -5.01,-14.13 0,-7.96 22.83,-34.72 24.77,-40.31 2.55,-7.37 -2.81,-5.65 -2.56,-13.96 0.42,-13.44 -3.09,-37.01 -19.17,-37.01"/>
     <path class="fil2 str2" d="M392.67 524.29c1.01,21.77 -16.64,29.91 -12.45,40.51 1.12,2.84 15.68,24.55 15.43,27.47 -0.38,4.31 2.96,3.29 4.07,15.08 0.43,4.55 2.39,-1.73 1.81,-6.84 -0.25,-2.24 0.87,-1.69 1.25,0.5 1.55,8.9 4.2,11.26 3.1,0.55 -0.03,-0.27 -0.11,-2.75 0.66,-0.48 0.64,1.86 2.32,7.57 3.31,9.55 3.45,6.91 1.29,-2.73 0.6,-7.19 -0.39,-2.52 -0.21,-1.66 0.86,-0.33 2.52,3.11 8.12,9.9 0.31,-4.87 -5.49,-10.4 -6.7,-1.02 -11.48,-15.33 -1.85,-5.54 -7.44,-14.34 -7.19,-24.76 0.6,-0.57 11.37,-23.34 11.87,-24.79 1.06,-3.05 2.43,-2.67 2.43,-6.8"/>
     <path class="fil2 str2" d="M385.34 540.48c-0.87,4.82 -2.08,11.09 -7.81,12.26 -11.67,2.38 -23.66,1.42 -34.47,-4"/>
     <path class="fil2 str2" d="M393.66 582.26c0.93,1.77 1.25,0.98 1.13,4.28 -0.03,0.8 1.7,2.61 2.26,2.92"/>
     <path class="fil2 str2" d="M323.88 596.98c-4.77,12.29 -12.61,12.69 -18.58,22.53 -4.27,7.05 2.73,13.73 5.23,16.29 1.21,1.22 0.55,2.46 -0.32,2.13 -3.15,-1.22 2.52,3.95 -2.21,2.23 -0.78,-0.28 -0.61,-0.26 -0.44,0.71 0.29,1.53 0.55,4.44 -2.95,1.45 -2.1,-1.79 1.29,-3.06 -4.57,-6.12 -3.3,-1.72 1.21,-7.59 -5.99,-9.06 -2.36,-0.48 -4.4,-3.86 0.88,-6.48 0.6,-0.3 7.31,-18.36 9.72,-22.34 2.93,-4.83 10.14,-10.41 10.36,-11.49 1.36,-6.66 0.55,-11.62 1.86,-18.05 1.85,-9.05 -1.75,-6.48 -4.45,-15.02 -2.95,-9.32 -7.41,-19.51 0.93,-27.85 11.38,-11.38 25.81,-15.07 40.84,-17.8 10.34,-1.89 31.44,-4.93 40.56,0.84 6.1,3.87 19.31,3.67 19.79,15.67 0.1,2.74 -7.94,4.35 3.88,3.88 7.42,-0.29 6.26,8.54 9.55,11.83 5.07,5.07 -1.78,1.47 -1.78,4.69 0,9.23 -3.03,-1.28 -1.5,7.81 1.3,7.67 -1.56,-2.77 -3.4,6.23 -0.91,4.5 -0.84,-6.52 -4.49,-0.48 -3.73,6.15 0.23,8.06 -4.52,2.79 -2.38,-2.65 -5.84,8.96 -5.51,0.65 0.16,-4.19 -6.32,1.89 -6.32,-3.89 0,-6.66 -2.73,-0.51 -8.21,-0.48"/>
    </g>
    <g>
     <path class="fil6 str2" d="M399.69 510.65c-0.95,-2.6 -4.23,-10.17 -13.92,-13.19 -3.34,-1.04 -5.5,-2.25 -9.25,-2.87 -4.5,-0.73 -8.65,-3.22 -13,-4.69 -5.54,-1.87 -6.54,-0.82 -7.25,3.8 -0.8,5.25 -6.7,8.5 -5.81,15.67 0.37,2.95 -4.37,10.62 -0.4,12.84 4.19,2.34 4.9,0.3 8.69,3 2.98,2.11 8.04,5.44 8.71,-0.43 0.44,-3.88 0.21,-5.47 -4.2,-5.66 -1.39,-0.05 -4.35,3.2 -7.46,-2.07 -1.83,-3.11 2.62,-4.86 3.08,-8.6 0.73,-5.89 -1.46,-10.48 5.63,-6.98 1.82,0.91 4.79,6.01 5.81,6.22 4.54,3.6 11.29,1.63 13.35,0.16 3.73,-2.66 12.09,1.93 16.02,2.8z"/>
     <path class="fil5 str2" d="M363.55 525.01c1.19,4.01 10.66,3.21 11.3,-0.56 0.1,-0.58 -0.34,-1.15 -1.13,-0.27 -0.6,0.68 -3.14,1.19 -4.22,-1.02 -0.44,-0.88 -1.77,-2.01 -3.16,-1.95 -0.8,0.04 -3.66,0.84 -2.79,3.8z"/>
     <path class="fil5" d="M373.84 527.93c-2.06,0.8 -1.95,5.15 -3.04,6.07 -0.55,0.46 -2.05,4.22 0.68,3.28 1.49,-0.52 0.02,-4.23 1.69,-1.61 0.36,0.57 0.82,1.95 0.29,2.6 -1.05,1.3 -2.75,4.84 -0.82,5.98 1,0.59 3.43,0.32 3.16,-1.93 -0.13,-1.05 -0.62,-1.96 -0.73,-3.42 -0.15,-1.81 -0.48,-2.37 0.29,-4.23 1.61,-3.84 -3.38,-6.02 -1.52,-6.74z"/>
    </g>
    <g>
     <path class="fil5" d="M603.27 643.77c-0.57,5.67 10.45,16.69 15.97,18.6 1.09,0.38 12.76,5.95 13.07,6.58 3.69,7.43 2.37,0.03 2.37,9.91 0,7.36 -9.6,14.14 -9.13,25.27 0.12,2.74 -2.57,9 -4.82,10.96 -1.12,0.98 -5.64,7.19 -6.02,9.07 -1.35,6.6 -0.01,4.78 -0.35,9.44 -0.11,1.42 -3.8,1.45 -4.22,3.89 -1.39,8.18 0.17,7.74 7.69,8.04 1.97,0.08 4.15,-2.92 4.53,-0.67 0.45,2.66 11.28,5.24 12.73,-1.73 0.46,-0.16 2.68,2.75 6.95,2.75 9.68,0 7.37,2.54 7.37,-5.61 0,-6.02 -7.17,-19.25 3.51,-17.93 0.74,0.09 3.16,2.61 2.84,-1.72 -0.02,-0.26 -8.45,-8.42 -1.43,-8.42 2.26,0 1.78,0.07 0.61,-3.51 -0.26,-0.78 -5.47,-10 1.23,-5.71 2.04,1.31 2.27,-5.86 0.7,-8.07 -1.55,-2.18 1.85,-0.67 3.54,1.03 9.49,9.51 1.45,-9.09 7.34,-4.89 2.72,1.94 0.87,-13.23 -0.32,-14.42 -3.34,-3.33 -8.39,-10.92 -8.19,-16.02 0.19,-4.91 -2.38,-4.96 4.56,-7.36 1.95,-0.68 3.3,-9.43 1.05,-10.41 -11.03,-4.82 -28.95,-7.63 -41.05,-5.99 -7.06,0.95 -14.85,-2.16 -16.2,4.4 -1.08,0.23 -3.65,1.1 -3.77,1.85 -0.04,0.24 -0.54,0.51 -0.56,0.67z"/>
     <g>
      <path class="fil2 str2" d="M604.83 647.44c1.43,11.16 20.07,18.08 23.55,19.29 12.88,4.45 2.67,20.14 -1.78,27.47 -2.32,3.84 -1.22,13.99 -6.24,19.29 -11.89,12.53 -4.03,12.63 -6.39,19.44 -3.38,0.7 -8.94,13.12 3.36,13.12 8.28,0 4.48,-7.55 5.8,1.36 0.04,0.3 10.17,8.88 12.35,-4.02 0.7,-4.1 -0.06,2.41 7.27,3.9 11.44,2.34 6.08,-5.79 6.44,-14.89 0,-0.06 -6.17,-10.81 1.95,-9.81 2.51,0.3 3.03,3.48 5.2,3.3"/>
      <path class="fil2 str2" d="M650.49 715.49c4.61,0 5.79,2.56 7.15,6.5"/>
      <path class="fil2 str2" d="M652.44 705.74c-1.47,3.72 4.62,-1.75 6.45,7.21 0.21,1.04 0.7,-0.37 0.7,2.54"/>
      <path class="fil2 str2" d="M654.39 699.24c5.52,0 6.22,3.87 7.81,8.45"/>
      <path class="fil2 str2" d="M658.29 691.43c8.9,-1.09 3.62,-2.89 5.15,4.61 0.35,1.73 6.86,5.16 6.56,1.24"/>
      <path class="fil2 str2" d="M664.15 682.98c2.84,4.54 9.06,11.3 11.7,2.87"/>
      <path class="fil2 str2" d="M664.97 652.83c-14.46,6.56 5.68,22.26 5.68,28.85 0,3.07 3.9,-0.16 3.9,-2.6"/>
      <path class="fil2 str2" d="M630.33 659.58c3.04,10.79 18.77,5.16 6.94,27.31 -2.31,4.32 -6.49,17.08 -8.24,22.11"/>
      <path class="fil2 str2" d="M622.83 743.41c7.87,-14.67 1.07,-13.73 2.25,-19.51 0.1,-0.52 2.62,-2.96 3.3,-3.2"/>
      <path class="fil2 str2" d="M638.12 745.06c0.05,-9.09 2.25,-6.19 -1.77,-12.82 -3.25,-5.38 -1.99,-11.79 3.74,-13.49"/>
      <path class="fil3 str2" d="M618.63 744.44c-4.28,-6.2 -13.47,-0.11 -7.45,9.84 5.68,9.4 2.46,-2.12 3.76,-3.42 2.49,-2.5 7.33,-0.29 3.69,-6.42z"/>
      <path class="fil3 str2" d="M630.8 744.89c-6.63,-3.59 -12.06,6 -2.19,12.14 9.32,5.81 1.23,-3 1.8,-4.75 1.1,-3.35 6.41,-3.58 0.39,-7.39z"/>
      <path class="fil3 str2" d="M648.33 744.66c-5.04,-5.61 -13.38,1.6 -6.15,10.7 6.82,8.61 2.17,-2.41 3.3,-3.87 2.16,-2.79 7.23,-1.21 2.85,-6.83z"/>
     </g>
    </g>
    <g>
     <path class="fil5" d="M666.7 506.1c-0.68,-23.29 9.84,5.42 9.25,-9.65 -0.15,-3.74 1.56,-18.11 4.91,-8.42 1.34,3.87 4.91,2.45 4.91,-4.91 0,-16.83 6.67,7.55 10.35,-2.81 0.57,-1.6 1.06,-12.24 5.33,-7.96 6.03,6.02 -2.15,-5.84 3.98,-6.08 1.85,-0.07 -0.85,1.44 1.92,5.27 6.14,8.45 5.13,15.98 2.65,19.43 -2.87,3.99 -6.56,3.56 -13.63,11.51 -4.99,5.6 -13.33,21.76 -8.37,30.06 6.03,10.09 11.17,5.76 34.72,5.81 19.79,0.04 45.43,16.69 44.48,43.71 -1.24,35.42 -45.55,42.48 -67.3,34.45 -1.5,-0.55 -5.15,-4.08 -5.53,-3.72 -1.5,1.4 6.33,9.73 8.75,17.03 6.74,20.38 30.94,16.08 39.32,30.24 7.52,12.71 -5.65,-0.03 -4.09,10.49 0.27,1.85 8.04,2.74 1.4,4.09 -7.98,1.63 13.65,8.99 0.76,8.49 -7.75,-0.31 13.69,13.7 4.21,13.33 -7.88,-0.31 4.2,12.04 0.91,14.84 -0.32,0.28 -3.19,3.73 -2.48,8.18 0.36,2.33 3.79,5.29 4.6,7.43 3.87,10.2 -9.84,10.46 -9.8,4.5 -1.62,0.32 0.36,2.12 -0.59,4.23 -1.56,3.49 -5.8,7.84 -8.16,7.84 -5.64,0 -1.57,1.11 -7.28,-0.5 -0.44,9.03 -13.62,3.39 -9.86,-2.72 2.63,-4.28 3.51,-9.48 3.19,-17.83 -0.1,-2.68 3.27,-6.82 4.32,-12 2.4,-11.77 -1.65,-25.77 -10.54,-34.93 -2.96,-3.05 -7.43,-3.54 -10.68,-5.47 -11.91,-7.05 -25,-11.26 -37.84,-19.71 -5.82,-3.83 -14.48,-9.64 -21.04,-13.6 -10.27,-6.19 -64.17,26.93 -106.5,9.3 -16.28,-6.78 -14.42,-3.56 -1.59,-16.93 14.8,-15.42 24.64,-27.67 32.28,-48.43 4.53,-12.28 8.51,-11.66 19.5,-9.77 11.36,1.96 29.85,5.34 42.44,1.53 23.1,-6.98 35.6,2.47 47.48,12.6 14.93,12.73 30.96,21.99 51.49,24.07 14.77,1.5 25.66,-3.24 30.36,-20.79 10.07,-37.56 -34.34,-39.72 -57.23,-37.69 -16.38,1.45 -31.76,-11.25 -32.6,-23.34 -0.62,-8.79 1.77,-15.2 1.6,-21.17z"/>
     <path class="fil2 str2" d="M572.33 569.23c19.06,2.35 39.04,9.12 58.64,1.43 16.39,-6.43 34.55,5.89 40.35,11.69 16.22,16.22 60.19,40.45 77.43,17.43 20.68,-27.63 -2.75,-52.04 -40.2,-49.22 -21.18,1.59 -46.27,-5.2 -43.33,-29.59 0.27,-2.24 4.22,-36.67 -5.73,-25.64 -10.85,12.04 -19.23,-8.22 -10.57,-10.57 3.52,-0.96 2.36,-5.2 -2.65,-5.2"/>
     <path class="fil2 str2" d="M675.65 507.28c0.36,-3.88 1.71,-19.92 -5.33,-19.92 -11.11,0 -13.76,3.97 -15.6,3.9 -3.52,-0.14 -0.13,-6.12 0,-6.5"/>
     <path class="fil2 str2" d="M682.07 501.62c2.63,-12.29 1.61,-28.97 -12.73,-22.4"/>
     <path class="fil2 str2" d="M665.12 480.21c-3.96,1.79 -8.45,1.57 -8.45,-3.9 0,-8.16 9.81,-5.71 2.01,-14.05 -1.2,-1.28 -4.75,-2.38 -4.61,-4.16"/>
     <path class="fil2 str2" d="M680.08 475.01c0,-14.16 -15.39,2.26 -13.06,-9.16 0.01,-0.04 3.98,-6.86 -1.25,-6.45"/>
     <path class="fil2 str2" d="M689.83 500.36c-2.68,-6.81 9.24,-5.44 -1.28,-17.51"/>
     <path class="fil2 str2" d="M699.58 490.61c0,-7.8 -4.89,-13.48 -14.03,-15.34"/>
     <path class="fil2 str2" d="M710.64 447.05c8.79,21.65 -12.76,4.99 0.16,31.04 7.82,15.75 -13.88,18.34 -17.72,29.43 -2.36,6.8 -12.86,22.69 0.06,30.33 10.64,6.3 23.5,-5.03 46.11,4.29 18.16,7.5 23.54,15.51 27.25,33.7 3.5,17.19 -6.06,34.3 -23.35,39.78 -14.09,4.46 -24.36,4.98 -39.07,2.49 -7.08,-1.2 -15.79,-12.52 -5.57,1.07 7.29,9.7 3.41,18.33 21.88,27.05 5.57,2.63 25.27,10.92 24.71,17.98"/>
     <path class="fil2 str2" d="M730.79 664.86c5.63,-8.14 9.11,4.48 14.96,1.95"/>
     <path class="fil2 str2" d="M734.69 673.32c7.33,-5.06 7.17,0 10.41,0"/>
     <path class="fil2 str2" d="M735.35 680.47c2.53,-3.67 10.4,-5.83 10.4,1.95"/>
     <path class="fil2 str2" d="M737.29 686.97c5.58,-8.76 5.05,3.9 12.36,3.9"/>
     <path class="fil2 str2" d="M739.25 694.77c7.89,-8.26 0.74,3.26 11.7,3.26"/>
     <path class="fil2 str2" d="M739.9 701.93c3.65,-6.07 8.09,5.43 11.05,5.2"/>
     <path class="fil2 str2" d="M740.55 710.38c6.84,0.64 3.35,10.4 13,10.4"/>
     <path class="fil2 str2" d="M522.08 641.46c64,30.68 102.8,-18.99 122.81,-1.27 15.09,13.38 60.01,32.28 62.72,34.86 10.06,9.53 16.61,31.73 7.81,44.08 -2.33,3.27 2.29,12.15 -3.31,20.03 -1.18,1.65 -0.78,7.16 4.43,8.22 8.24,1.68 3.65,-9.03 6.62,-4.01 0.49,0.83 10.41,4.74 10.24,0.17 -0.33,-8.32 4.55,-2.85 4.55,-12.13 0,6.77 15.12,5.91 8.93,-6.56 -0.93,-1.87 -3.73,-1.98 -3.73,-5.37"/>
     <path class="fil2 str2" d="M723.16 743.37c-1.1,-12.53 10.51,-3.21 2.6,-16.24 -3.91,-6.45 0.86,-8.94 1.78,-10.89"/>
     <path class="fil2 str2" d="M737.95 731.41c1.13,-2.01 -5.96,-2.54 -1.47,-8.83 1.44,-2.03 -5.59,-5.57 -2.6,-9.76l0.16 -1.13"/>
     <path class="fil2 str2" d="M700.23 667.81c14.49,6.71 22.53,-6.54 29.26,15.01 3.72,11.9 1.95,4.86 1.95,16.2"/>
     <path class="fil2 str2" d="M615.71 628.14c21.67,0 19.83,4.65 33.24,15.29"/>
     <path class="fil3 str2" d="M716.49 740.47c-7.14,-2.95 -10.09,9.66 -0.71,15.56 1.7,1.06 -3.31,-6.62 1.66,-7.55 3.21,-0.59 2.35,-6.64 -0.95,-8.01z"/>
     <path class="fil3 str2" d="M729.82 740.63c-4.2,0 -7.6,8.63 -4.31,13.74 2.07,3.21 -1.28,-4.63 5.91,-5.81 4.97,-0.82 2.3,-8.5 -1.6,-7.93z"/>
     <path class="fil3 str2" d="M741.74 747.9c1.77,2.08 -0.98,-7.49 4.66,-7.27 5.53,0.22 2.85,-11.63 -2.96,-9.67 -5.81,1.65 -5.65,12.31 -1.7,16.94z"/>
     <path class="fil2 str2" d="M696.8 452.3c4.02,7.35 4.71,3.4 -0.82,8.65 -3.13,2.97 2.31,8.85 4.65,10.56 5.93,4.32 3.19,8.71 3.19,13.07"/>
     <path class="fil2 str2" d="M679.61 453.7c2.53,3.98 12.04,4.31 6.19,10.79 -2.35,2.61 6.35,7.29 7.84,7.81"/>
    </g>
    <g>
     <path class="fil3 str2" d="M506.51 481.98c-5.49,1.32 -7.04,-0.59 -7.86,4.57 -0.8,5.13 14.36,8.74 14.36,-1.04 0,-3.53 -1.56,-5.15 -6.5,-3.53z"/>
     <path class="fil7 str2" d="M504.86 483.97c-0.59,-0.24 -3.62,1.35 -0.82,3.05 1.44,0.88 2.8,-2.27 0.82,-3.05z"/>
    </g>
    <g>
     <path class="fil6" d="M486.5 734.31c-2.53,-0.96 -12.64,-0.89 -6.35,10.23 1.94,3.41 14.13,-5.15 19.8,-4.93 12.72,0.48 -2.03,-0.55 -4.98,5.26 -1.01,2 -12.66,0.18 -10.93,8.75 0.87,4.31 10.86,1.61 14.39,-2.53 4.16,-4.89 16.21,-3.07 20.36,-6.03 5,-3.55 17.15,8.15 21.12,2.75 1.44,-1.97 -1.33,3.06 6.31,4.02 11.98,1.51 12.7,-8.79 6.42,-9.83 -1.79,-0.3 -7.62,-2.48 -15.35,-1.89 -17.41,1.35 -10.03,-73.19 -10.03,-86.11 3.86,3.69 12.08,-0.73 5.55,-13.94 -1.59,-3.23 18.61,7.19 7.47,-13.88 -1.07,-0.22 24.13,5.46 10.81,-9.95 -4.1,-4.75 -5.85,-6.61 -2.74,-5.38 3.96,1.57 14.03,4.52 15.52,0.58 3.22,-8.53 -24.11,-17.29 -1.68,-11 7.25,2.03 7.66,-8.12 0.46,-11.98 -2.25,-1.2 -2.03,-2.2 2.68,-1.54 6.73,0.96 14.35,0.6 10.25,-6.26 -2.45,-4.11 -20.8,-7.31 -1.74,-5.14 16.95,1.93 21.36,-9.11 1.48,-12.71 -6.09,-1.1 4.28,-1.81 10.28,-1.79 14.55,0.04 20.98,-7.22 7.86,-8.03 -4.09,-0.25 -9.4,-1.18 -0.7,-1.77 14.33,-0.97 39.06,-13.87 26.89,-14.22 -0.05,-0.01 -14.75,2.22 -19.78,2.22 -15.33,0 8.47,-4.02 17.16,-8.97 19.69,-11.21 -0.34,-9.46 -13.82,-8.29 -4.49,0.39 -6.4,0.97 -2.34,-1.2 18.69,-9.94 37.06,-20.57 48.85,-38.58 7.04,-10.75 -5.52,-2.75 -10.02,0.68 -5.55,4.24 -4.07,1.48 0.48,-2.12 17.17,-13.56 3.09,-43.19 -0.38,-21.96 -3.48,21.28 -64.5,61.96 -87.83,69.35 -22.02,6.97 -13.17,15.43 -21.95,21.19 -3.52,2.32 -22.09,25.27 -21.62,30.99 0.01,0.04 -1.95,6.46 -1.95,11.05 0,9.23 3.9,22.32 3.9,35.11 0,16.72 8.3,103.84 0.65,104.05 -11.07,0.3 -18.34,6.16 -24.5,3.8z"/>
     <path class="fil2 str2" d="M508.04 601.46c0.16,0.37 14.5,8.03 13.99,-1.45 -0.19,-3.45 -4.86,-8.42 -6.69,-10 -0.06,-0.05 -9.43,-7.98 -2.11,-3.24 4.47,2.9 13.99,8.17 17.08,1.7 1.98,-4.16 -5.43,-10.02 -10.14,-13.51 -4.04,-2.99 -4.91,-3.06 0.63,-1.1 3.87,1.37 9.12,3.28 12.87,1.15 1.99,-1.13 2.25,-6.45 -1.68,-8.77 -8.02,-4.75 -5.74,-2.65 0.16,-1.92 10.59,1.3 13.79,-7.5 10.17,-11.42 -1.09,-1.17 -0.87,-1.02 1.01,-0.62 9.69,2.02 20.15,-1.44 13.96,-14.85"/>
     <path class="fil2 str2" d="M534.41 546.17c14.07,-1.31 90.57,-46.59 103.11,-62.48"/>
     <path class="fil2 str2" d="M565.48 540.94c15.78,-2.58 26.81,-15.89 34.81,-19.07"/>
     <path class="fil2 str2" d="M571.98 553.29c3.98,0 12.09,-0.25 18.12,-1.7"/>
     <path class="fil2 str2" d="M575.13 542.84c4.44,-0.54 15.99,-2.38 21.27,-4.37"/>
     <path class="fil2 str2" d="M544.91 627.11c-6.21,0 -8.34,-3.59 -13.57,-7.26 -0.3,-0.21 -0.62,-0.85 -0.73,-1.19"/>
     <path class="fil2 str2" d="M532.04 639.66c-0.81,-1.88 -5.41,-2.98 -7.25,-8.29 -0.26,-0.76 -1.57,-2.76 -1.63,-2.92"/>
     <path class="fil2 str2" d="M527.1 652.77c-1.01,2.3 -6.78,-4.28 -7.96,-7.49 -0.24,-0.65 -0.56,-1.6 -0.56,-2.27"/>
     <path class="fil2 str2" d="M513.21 614.37c3.38,2.16 11.95,7.4 15.86,5.47 4.2,-2.08 -1.02,-11.17 -2.75,-13.94 -1.87,-3 -3.69,-3.65 0.91,-2.08 22.49,7.7 13.67,-5.58 6.47,-12.58 -1.38,-1.34 0.27,-0.92 1.77,-0.22 2.41,1.12 9.87,3.74 12.13,2.03 5.03,-3.82 -2.14,-10.54 -5.9,-13.94 -3.66,-3.32 -1.47,-2.23 1.49,-0.85 5.46,2.54 17.05,5.4 14.56,-1.8 -1.17,-3.38 -6.27,-9.41 -10.88,-11.76 -2.62,-1.34 -5.2,-2.68 1.27,-1.05 17.04,4.29 19.53,-1.75 16.75,-6.77 -1.72,-3.11 -6.29,-5.4 -8.22,-5.88"/>
     <path class="fil2 str2" d="M524.45 684c4.37,1.86 7.76,2.08 10.08,7.72 0.23,0.54 0.1,2.78 0.1,3.51"/>
     <path class="fil2 str2" d="M524.8 689.97c4.24,0 5.27,2.26 5.27,6.32"/>
     <path class="fil2 str2" d="M530.78 547.98c-18.47,17.89 -28.47,36.29 -22.31,60.01 0.86,3.3 1.89,27 2.29,38.73 1.17,34.04 6.76,80.33 1.81,82.84 -6.34,3.22 -20.34,5.06 -26.07,4.75 -3.74,-0.2 -8.81,-1.48 -7.58,6.65 1.18,7.84 12.39,-1.57 18.94,-2.1 17.12,-1.41 -0.54,5.03 -7.82,8.3 -5.66,2.53 -7.22,2.94 -2.12,8.05 1.17,1.18 4.46,0.51 7.14,-1.51 3.07,-2.3 5.89,-5.22 11.8,-6.1 9.61,-1.43 9.84,-5.68 23.28,-1.02 9.45,3.27 3.3,2.89 10.94,1.25 3.89,11.69 30.68,-6.63 -1.81,-6.87 -22.84,-0.17 -11.37,-69.88 -12.01,-86.31 0.87,1.22 13.15,0.59 5.87,-12.82 -2.12,-3.91 3.67,0 8.74,-2.52 4.12,-2.04 -2.53,-10.67 0.03,-12.22 3.37,-2.04 9.2,1.33 11.61,-1.86 4.6,-6.1 -13.99,-15.83 -2.91,-13.58 2.96,0.61 23.33,5.54 6.91,-9.64 -4.18,-3.87 -5.09,-4.03 -1.05,-3.14 4.96,1.1 8.26,2.27 9.47,1.02 6.75,-7.02 -6.66,-11.48 -4.57,-13.17 0.86,-0.69 7.64,1.09 12.24,0.27 2.99,-0.54 3.79,-4.1 2.16,-6.03 -2.81,-3.34 -10.65,-5.59 -10.82,-5.97 -0.32,-0.72 3.16,-0.8 11,0.16 6.04,0.74 13.75,0.01 11.61,-6.69 -1.53,-4.78 -26.32,-7.64 -7.49,-7.81 9.33,-0.09 25.81,-2.15 18.96,-6.19 -1.4,-0.82 -4.45,-1.23 -8,-2.27 -2.17,-0.64 -4.07,-0.29 3.7,-1.18 20.74,-2.36 45.76,-19.28 8.56,-11.98 -4.75,0.93 -15.9,0.31 -7.28,-2.03 4.82,-1.3 44.07,-14.7 21.22,-15.23 -6.96,-0.17 -14.18,-0.07 -16.93,0.1 -4.7,0.3 2.35,-0.16 18.28,-11.15 17.06,-11.78 18.55,-11.26 29.47,-26.1 2.88,-3.9 4.4,-7.52 3.21,-7.81 -2.23,-0.55 -10.86,6.41 -13.27,7.29 -1.5,0.55 0.24,-2.81 5.04,-7.18 2.53,-2.31 5.66,-9.36 5.46,-15.69 -0.24,-7.16 -4.13,-13.3 -6.53,-8.82 -1.01,1.88 -2.82,16.82 -16.16,28.04 -16.9,14.21 -49.1,40.6 -74.54,47.9 -15.92,4.56 -13.5,12.87 -20.47,19.63z"/>
     <path class="fil3 str2" d="M487.36 756.55c4.91,0 4.85,-8.48 0.46,-7.18 -2.8,0.83 -7.54,2.55 -7.54,9.18 0,3.87 0.8,4.66 2.55,-0.37 0.4,-1.18 3.63,-1.63 4.53,-1.63z"/>
     <path class="fil3 str2" d="M477.68 745.03c-2.04,0.87 -5.1,8.06 -2.95,-1.21 1.84,-7.97 10.7,-8.6 9.34,-1.47 -0.52,2.75 -4.2,1.75 -6.39,2.68z"/>
     <path class="fil3 str2" d="M552.3 749c1.93,5.42 7.04,1.73 9.42,4.52 7.31,8.54 -0.5,-8.78 -5.33,-8.6 -1.21,0.05 -5.77,-0.63 -4.09,4.08z"/>
    </g>
   </g>
   <path class="fil2 str1" d="M528.22 474.42c4.92,-7.12 17.61,2.26 30.08,-3.95 6.74,-3.35 14.69,-20.38 20.44,-22.37 5.46,-1.88 4.91,-2.13 11.45,-2.06l2.36 -0.52"/>
   <path class="fil2 str1" d="M533.83 480.04c2.16,-3.13 8.65,-1.06 12.98,-1.06 4.28,0 3.51,-0.34 6.67,-0.73 7.4,-0.91 9.26,-6.44 14.42,-7.31 2.45,-0.41 2.18,-6.92 4.65,-9.03 2.38,-2.04 3.29,-4.46 7.63,-7.02 1.05,-0.62 2.27,-2.2 3.99,-2.34"/>
   <path class="fil2 str1" d="M537.69 504.25c7.82,0 15.62,6.96 22.23,-4.18 1.77,-2.99 5.63,-11.97 9.29,-12.73 0.37,-1.78 14.67,-3.09 16.9,-3.09"/>
   <path class="fil2 str1" d="M536.64 512.32c0.66,4.75 13.61,7.11 16.58,5 1.66,-1.18 8.73,-1.65 11.93,-8.07 2.61,-5.25 3.44,-2.28 5.14,-10.65 1.49,-7.29 20.91,-7.14 26.61,-10.59 1,-0.6 5.51,-2.58 5.71,-3.41"/>
   <path class="fil2 str1" d="M487.86 515.13c0,12.8 7.47,8.54 6.54,-0.51"/>
   <path class="fil2 str1" d="M500.23 511.44c-3.04,10 8.25,18.72 8.25,3.86"/>
   <path class="fil2 str1" d="M514.62 512.76c0,11.33 7.54,14.02 7.54,1.14"/>
   <path class="fil2 str1" d="M480.85 532.67c-3.16,9.52 6.26,13.26 6.66,1.4"/>
   <path class="fil2 str1" d="M494.88 534.77c0,12.33 8.46,10.25 8.16,-1.05"/>
   <path class="fil2 str1" d="M508.21 533.02c0,12.95 8.78,13.01 8.78,-0.18"/>
   <path class="fil2 str1" d="M521.92 533.62c2.31,6.31 8.93,14.65 8.93,-1.83"/>
   <path class="fil2 str1" d="M472.07 552.32c0,8.58 6.92,8.58 6.67,2.81 -0.03,-0.78 0.77,-3.41 1.05,-4.21"/>
   <path class="fil2 str1" d="M487.51 551.62c0,17.9 9.16,5.47 7.02,0.26"/>
   <path class="fil2 str1" d="M501.55 550.57c0,6.72 7.72,11.94 7.72,0.7l0 -0.7"/>
   <path class="fil2 str1" d="M516.64 547.41c-3.77,8.31 4.56,10.92 4.56,3.16"/>
   <path class="fil2 str1" d="M469.61 581.44c6.46,22.7 11.67,8.75 6.41,-0.22"/>
   <path class="fil2 str1" d="M481.54 575.13c3.16,14.74 12.96,15.45 8.25,1.84"/>
   <path class="fil2 str1" d="M495.58 570.92c0.32,2.64 2.76,12.21 7.14,7.84 1.4,-1.41 1.63,-6.22 1.63,-8.19"/>
   <path class="fil2 str1" d="M478.03 613.37c6.97,9.51 9.9,1.68 6.44,-5.97"/>
   <path class="fil2 str1" d="M487.86 602.5c0.95,1.6 6.09,11.27 8.64,6.14 1.73,-3.47 -0.35,-5.9 -1.71,-8.69"/>
   <path class="fil2 str1" d="M499.4 596.34c0.8,1.46 3.94,5.04 6.13,2.56"/>
   <path class="fil2 str1" d="M485.75 628.46c5.27,7.62 11.45,4.88 6.02,-2.95"/>
   <path class="fil2 str1" d="M494.88 619.69c2.59,4.3 15.18,9.91 7.54,-3.33"/>
   <path class="fil2 str1" d="M499.09 635.83c2.62,5.55 15.5,7.94 5.96,-4.73"/>
   <path class="fil2 str1" d="M510.92 599.96c3.37,2.17 16.96,3.07 1.09,-8.96"/>
   <path class="fil2 str1" d="M513.12 582.85c5.73,5.26 10.7,7.12 13.24,4.59 2.11,-2.13 -0.55,-7.32 -8.32,-9.68"/>
   <path class="fil2 str1" d="M518.74 570.21c22.36,9.77 11.86,-3.61 7.98,-4.38"/>
   <path class="fil2 str1" d="M526.89 560.13c17.1,6.1 12.05,-7.42 9.13,-8.25"/>
   <path class="fil2 str1" d="M542.6 548.11c6.9,3.31 14.12,1.21 12.28,-7.46"/>
   <path class="fil2 str1" d="M515.58 612.67c4.16,3.78 18.11,10.24 9.12,-4.64"/>
   <path class="fil2 str1" d="M525.8 600.32c5.19,4.67 22.72,5.87 5.39,-6.59"/>
   <path class="fil2 str1" d="M534.88 588.46c19.75,7.69 9.9,-5.42 5.17,-7.46"/>
   <path class="fil2 str1" d="M541.01 574.19c9.35,5.66 14.55,5.1 14.34,2.55 -0.19,-2.32 -5.2,-6.23 -9.51,-9.77"/>
   <path class="fil2 str1" d="M547.51 560.74c7.66,2.51 13.43,2.49 15.16,0.08 1.75,-2.43 -1.75,-5.66 -5.68,-7.01"/>
   <path class="fil2 str1" d="M520.32 640.4c-0.88,3.46 4.61,9.48 7.19,11.05 9.03,5.48 4.66,-9.72 -2.19,-15.27"/>
   <path class="fil2 str1" d="M526.72 628.9c0.16,0.69 3.9,6.46 7.82,8.14 5.02,2.16 9.61,-0.77 -0.53,-12.34"/>
   <path class="fil2 str1" d="M534.7 618.46c17.56,12.88 18.31,-0.3 10.97,-3.77"/>
   <path class="fil2 str1" d="M548.92 607.93c6.73,3.69 11.99,2.91 11.18,0.52 -0.53,-1.58 -5.22,-5.02 -7.15,-5.72"/>
   <path class="fil2 str1" d="M554.79 595.66c2.21,0.98 8.08,4.21 9.92,1.24 1.44,-2.33 -2.86,-5.78 -5.88,-7.85"/>
   <path class="fil2 str1" d="M561.92 583.94c16.42,4.16 13.84,-2.98 3.75,-6.45"/>
   <path class="fil2 str1" d="M571.8 570.98c5.8,3.35 11.06,1.36 11.02,-1.1 -0.06,-4.01 -6.32,-4.5 -9.61,-5.63"/>
   <path class="fil2 str1" d="M578.39 557.58c4.95,2.19 24.37,0.8 10.79,-3.9"/>
   <path class="fil2 str1" d="M600.14 524.95c1.36,0 22.59,-2.81 15.35,2.36 -2.73,1.95 -17.08,6.14 -18.86,6.76"/>
   <path class="fil2 str1" d="M595.93 542.49c2.35,0.1 24,-5.94 21.67,-2.2 -3.44,5.53 -30.16,10.27 -35.18,10.27"/>
   <path class="fil2 str1" d="M487.93 734.71c3.04,1.42 3.08,0.33 3.08,3.93"/>
   <path class="fil2 str1" d="M495.62 733.79c0.07,2.29 2.06,0.45 2.06,3.09"/>
   <path class="fil2 str1" d="M501.38 732.89c2.16,1.93 1.34,-0.29 4.02,3.64"/>
   <path class="fil2 str1" d="M493.47 747.76c1.31,-2.17 3.22,0.9 3.16,1.75"/>
   <path class="fil2 str1" d="M498.73 744.07c1.64,0 2.55,0.09 3.47,1.63 0.11,0.19 0.04,0.21 0.04,0.48"/>
   <path class="fil2 str1" d="M503.82 741.97c0.72,-1.19 2.74,0.18 3.16,1.4"/>
   <path class="fil2 str1" d="M543.47 742.15c-1.82,0 -3.68,0.18 -3.68,2.45"/>
   <path class="fil2 str1" d="M536.98 741.44c-1.56,0 -2.98,0.05 -2.98,1.93"/>
   <path class="fil2 str1" d="M483.47 480.73c4.76,-4.32 7.86,2.56 13.45,-3.04 4.92,-4.94 8.66,-4.57 16.02,-3.66 8.42,1.04 14.01,7.21 15.41,15.5 0.6,3.53 3.94,7.57 4.59,9.44"/>
   <path class="fil2 str1" d="M435.03 540.04c0.24,1.47 2.39,7.56 -1.04,8.76"/>
   <path class="fil2 str1" d="M442.5 546.91c0.03,1.93 1.28,7.02 -1.15,7.85"/>
   <path class="fil2 str1" d="M449.4 553.38c0.17,5.07 0.16,2.85 -1.03,6.29"/>
   <path class="fil2 str1" d="M349.82 512.91c2.28,0.38 2.39,0.83 4.51,0.09"/>
   <path class="fil2 str1" d="M350.48 506.39c0.62,-0.12 3.15,1.27 4.19,0.44l-0.48 1.28"/>
   <path class="fil2 str1" d="M352.46 501.26c2.6,-0.48 2.25,-0.19 4.33,-0.19"/>
   <path class="fil2 str1" d="M372.32 493.45c-0.06,0.71 -0.05,4.47 -0.44,4.82"/>
   <path class="fil2 str1" d="M379.41 495.25c0.6,4.3 -0.46,2.95 -1.22,5.12"/>
   <path class="fil2 str1" d="M513.3 689.48c1.89,1.57 4.38,0.56 5.95,0.02"/>
   <path class="fil2 str1" d="M514.03 696.88c3.18,2.84 4.09,0.97 5.92,0.34"/>
   <path class="fil2 str1" d="M512.71 680.69c1.07,1.11 4.85,2.45 5.84,0.39"/>
   <path class="fil2 str1" d="M512.8 670.54c-1.02,3.69 4.74,4.66 5.75,1.76"/>
   <path class="fil2 str1" d="M538.62 643.18c32.7,19.75 78.61,-15.34 89.79,-9.25"/>
   <path class="fil2 str1" d="M610.13 647.74c0,7.8 9.13,9.51 14.3,14.16 6.56,5.91 13.91,2.55 11.7,16.05 -0.73,4.47 -6.39,13.81 -7.78,22.05 -0.67,3.93 -2.51,13.21 -7.66,18.27 -5.98,5.89 -2.28,13.88 -5.86,17.68 -4.34,4.59 5.17,7.67 7.11,1.92"/>
   <path class="fil2 str1" d="M629.43 723.54c-2.54,5.61 3.05,6.09 -1.17,13.45 -1.58,2.75 4.22,9.76 6.26,0.58"/>
   <path class="fil2 str1" d="M641.01 722.31c-5.79,3.44 0.97,8.33 -0.07,14.77 -0.6,3.67 6.74,6.54 6.74,-1.61"/>
   <path class="fil2 str1" d="M711.54 673.71c14.13,0 14.55,11.21 14.71,27.34"/>
   <path class="fil2 str1" d="M684.52 614.06c14.58,0.52 11.2,17.34 25.72,30.09 9.34,8.2 26.51,11.72 29.63,16.25"/>
   <path class="fil2 str1" d="M588.43 574.83c22.2,12.27 50.88,-8.81 70.1,4.04 29.45,19.67 23.86,20.34 55.99,30.45 32.21,10.13 48.83,-14.01 44.74,-34.62 -1.9,-9.56 -9.51,-17.67 -19.85,-22.48 -20.84,-9.68 -54.61,4.2 -67.65,-15.85 -4.28,-6.6 -3.86,-17.04 -3.38,-32.5"/>
   <path class="fil2 str1" d="M589.08 589.48c5.33,2.79 9.33,16.11 2.13,21.5 -0.61,0.45 -0.53,0.41 -1.08,0.96"/>
   <path class="fil2 str1" d="M600.66 592.99c3.98,3.81 4.2,8.39 2.54,13.33 -0.21,0.63 -0.39,0.83 -0.79,1.41"/>
   <path class="fil2 str1" d="M609.43 595.8c4.4,0.54 5.17,7.63 2.1,9.82"/>
   <path class="fil2 str1" d="M619.25 596.85c2.38,0.67 4.04,5.44 1.06,8.42"/>
   <path class="fil2 str1" d="M576.38 584.6c9.57,7.29 12.79,22.28 3.57,29.97 -1.32,1.1 -0.57,1.4 -2.1,1.93"/>
   <path class="fil2 str1" d="M459.95 512.8c1.91,-2.77 2.88,-5.19 5.67,-8.01 1.28,-1.29 2.69,-3.34 4.28,-4.14 1.85,-0.93 5.7,-4.46 8.64,-4.34 4.07,0.17 5.34,0.26 7.68,3.56 0.91,1.27 0.28,6.06 -2.19,7.51 -3.37,1.97 -6.7,1.4 -10.22,0.11 -0.59,-0.21 -1.7,-0.65 -2.28,-0.65"/>
   <path class="fil2 str1" d="M721.01 717.19c-5.95,0.97 -2.66,14.43 -3.77,17.29 -1.54,3.94 5.7,7.63 5.7,-0.45"/>
   <path class="fil2 str1" d="M730.83 717.19c-7.55,4.8 2.48,13.98 -0.2,16.67 -5.29,5.3 2.88,7.08 4.06,0.52"/>
   <path class="fil2 str1" d="M736.8 711.93c0,6.53 2.94,7.95 2.48,10.2 -2.37,11.76 7.67,6.53 4.54,3.13"/>
  </g>
 </g>
</svg>
