<?xml version="1.0" encoding="UTF-8"?>
<!DOCTYPE svg PUBLIC "-//W3C//DTD SVG 1.1//EN" "http://www.w3.org/Graphics/SVG/1.1/DTD/svg11.dtd">
<!-- Creator: CorelDRAW 2020 (64-Bit) -->
<svg xmlns="http://www.w3.org/2000/svg" xml:space="preserve" width="800px" height="800px" version="1.1" style="shape-rendering:geometricPrecision; text-rendering:geometricPrecision; image-rendering:optimizeQuality; fill-rule:evenodd; clip-rule:evenodd"
viewBox="0 0 788.18 788.18"
 xmlns:xlink="http://www.w3.org/1999/xlink"
 xmlns:xodm="http://www.corel.com/coreldraw/odm/2003">
 <defs>
  <style type="text/css">
   <![CDATA[
    .str2 {stroke:#FEFEFE;stroke-width:1.23;stroke-miterlimit:22.9256}
    .str0 {stroke:#2B2A29;stroke-width:1.23;stroke-miterlimit:22.9256}
    .str3 {stroke:black;stroke-width:1.23;stroke-miterlimit:22.9256}
    .str1 {stroke:#FEFEFE;stroke-width:2.05;stroke-miterlimit:22.9256}
    .fil4 {fill:none}
    .fil6 {fill:#FEFEFE}
    .fil7 {fill:#2B2A29}
    .fil10 {fill:#FECC00}
    .fil9 {fill:#F5B2B6}
    .fil2 {fill:#E31E24}
    .fil8 {fill:#00A2D9}
    .fil1 {fill:#008DD2}
    .fil5 {fill:black}
    .fil0 {fill:#DBBD93}
    .fil3 {fill:#EDCA3D}
   ]]>
  </style>
 </defs>
 <g id="Layer_x0020_1">
  <metadata id="CorelCorpID_0Corel-Layer"/>
  <rect class="fil0" width="788.18" height="788.18"/>
  <g id="_2824352240832">
   <path class="fil1 str0" d="M527.28 643.67c1.63,6.54 -4.85,31.6 -6.26,38.58 -0.44,2.19 4.44,11.84 6.39,11.77 12.63,-0.45 3.29,6.28 23.79,1.83 7.89,-1.72 15.92,3.86 17.84,4.94 0.26,0.15 8.4,6.96 -4.37,4.38 -8,-1.62 1.97,9.05 -8.95,7.46 -2.12,-0.31 -9.26,-12 -22.05,-8.4 -0.91,0.26 -0.94,3.44 -4.22,3.63 -1.62,0.1 -7.78,0.29 -8.6,-5.3 -0.45,-3.09 -4.41,-4.57 -6.61,-1.1 -1.54,2.43 -2.26,2.72 -0.56,11 1.6,7.78 -4.07,9.82 -5.44,5.44 -1.47,-4.73 -1.13,15.5 -5.32,16.2 -8.15,1.38 -5.44,-4.37 -5.44,-0.73 -2.21,0.46 1.65,19.54 -15.07,9.19 -4.57,-2.83 1.96,-13.27 7.28,-18.33 4.04,-3.84 5.66,-2.57 7.85,-12.77 -8.28,3.45 -8.79,-6.52 -11.44,6.5 -0.68,3.38 -4.34,5.57 -5.98,4.32 -1.97,-1.52 -1.05,-3.16 -2.29,1.48 -1.51,5.65 -6.11,12.17 -7.2,3.5 -0.01,-0.07 -21.42,-6.01 0.93,-13.04 5.44,-1.72 8.28,-11.66 15.16,-11.12 -0.6,-2.9 -4.71,2.4 -4.71,-7.4 -0.5,0.17 -13.58,14.31 -15.42,2.64 -0.24,-1.58 -4.89,8.09 -11.55,4.32 -0.13,-0.08 -1.36,-9.87 -0.11,-10.49 16.9,-8.38 33.22,4.3 39.76,-0.35 8.59,-6.12 22.84,15.98 17.51,-10.21 -2.68,-13.21 1.33,-68.34 -2.57,-73.93 -2.82,-4.04 -1.62,-6.14 -7.57,-12.72 -1.74,-1.92 -8.94,-9.91 -8.75,-12.17 -3.82,-1.98 -2.69,-26.97 -2.69,-31.62 4.79,1 -9.7,23.18 -15.64,8.8 -0.78,0.17 -7.23,4.66 -7.23,-2.74 1.5,-0.52 5.75,-7.32 15.97,-6.73 0.03,0 7.73,-1.2 4.38,-2.86 -8.27,-4.11 7.96,-8.74 2.69,-16.15 -3.17,-4.47 4.54,-6.45 4.54,-9.24 0,-6.7 0.22,-7.36 -7.34,-10.94 -0.82,-3.15 6.07,-2.92 -0.9,-7.05 -4.92,-2.91 -21.6,3.94 -12.38,-10.09 0.06,-0.1 5.02,-2.85 -4.1,-3.6 -18.8,-1.53 -9.95,-15.27 -8.97,-15.47 9.22,-1.88 12.09,8.38 22.93,11.5 0.67,0.19 15.98,26.82 12.84,11.37 -0.9,-4.41 -7.01,-3.14 0.44,-6.84 1.78,-0.88 2.18,-5.95 -4.54,-6.49 -9.91,-0.8 -0.13,-10.52 -10.09,-14.19 -10.21,-3.76 -4.9,-18.7 4.1,-16.87 4.43,0.9 2.01,9.78 7.16,12.33 5.47,2.72 3.05,15.15 8.48,19.78 2.55,2.18 5.14,14.7 3.75,9.04 -1.23,-5.03 18.48,6.64 0.5,-14.69 -8.37,-9.92 13.82,4.35 -4.48,-12.11 -2.49,-2.24 -3.15,-9.98 6.73,-9.59 2.92,0.12 4.85,-6.13 6.66,2.75 1.08,5.29 3.4,20.77 5.94,24.33 1.96,2.75 1.26,10.76 -2.07,14.46 -4.37,4.84 2.3,19.02 -4.25,24.62 -2.13,1.81 -6.03,48.3 -2.31,54.37 16.39,26.7 14.93,30.76 16.21,60.48 0.1,2.39 -2.67,3.07 -2.36,4.32z"/>
   <path class="fil1 str0" d="M560.92 644.68c12.55,0.48 49.86,1.99 58.12,12.11 8.56,10.46 16.43,14.74 10.83,30.94 -4.11,11.87 -21.1,8.73 -31.56,10.82 -6.76,1.35 -12.75,-1.95 -19.96,5.26 -5.78,5.77 -8.82,14.86 2.41,15.53 6.78,0.41 2.02,-1.2 2.02,8.08 0,8.88 14.8,5.79 14.8,0.23 0,8.8 4.21,14.89 12.35,9.44 4.9,-3.28 0.32,-7.25 5.7,-0.09 2.08,2.77 14.02,6.78 17.36,-2.87 1.58,-4.57 16.62,0 18.18,-12.15 0,-0.05 24.06,1.23 12.9,-18.65 3.78,0.96 11.26,-0.25 13.37,-6.77 1.52,-4.69 0.67,-15.22 -8.22,-15.22 0.14,-0.63 14.91,-0.02 15.82,-14.03 0.99,-15.21 -11.85,-14.67 -10.35,-15.41 17.51,-8.77 8.19,-25.58 -5.05,-24.69 18.27,-34.67 -26.98,-23.76 -27.22,-24.01 -15.65,-15.64 -37.79,3.4 -49.72,-17.05 -4.07,-6.96 -16.58,-18.87 -25.83,-13.39 -20.33,12.02 -29.58,5.07 -36.39,36.5 -1.64,7.58 -4.68,14.96 -1.69,22.64 1.76,4.52 -2.36,17.29 -2.1,19.27 10.03,5.51 21.63,-6.98 34.23,-6.49z"/>
   <path class="fil2 str0" d="M615.12 488.67c36.59,-6.19 68.5,7.88 111.61,2.57 3.69,-0.45 23.73,-2.21 9.42,2.75 -14.43,5 -13.07,34.44 -2.46,43.5 0.04,0.03 5.79,7.89 0.94,4.44 -5.38,-3.83 -16.28,6.54 -19.11,11.32 -8.62,14.57 11.18,28.82 -1.75,19.62 -4.89,-3.49 -35.14,-1.22 -35.14,17.82 0,16.39 5.78,23.39 -2.08,15.53 -11.23,-11.23 -32.85,-2.89 -39.45,7.51 -6.05,9.55 -0.25,8.07 -8.02,-1.74 -5.79,-7.31 -26.56,-9.4 -30.7,1.78 -1.11,3.01 -2.73,4.64 -2.87,0.73 -0.29,-7.8 -2.2,-13.75 -12.79,-11.59 -1.4,0.28 -9.3,8.06 -3.48,-0.12 2.39,-3.35 -4.32,-17.08 -9.92,-16.64 -0.82,0.06 -12.03,-0.86 -6.72,-2.69 3.86,-11.17 25.35,-24.58 30.27,-75.34 0.8,-8.28 13.23,-17.93 22.25,-19.45z"/>
   <path class="fil1 str0" d="M578.91 688.57c-6.96,0.45 -7.47,-20.35 11.27,-16.99 -2.75,-5.83 -7.27,-6.63 -2.6,-11.68 14.39,-15.57 22.11,-0.92 22.11,0.25 0.44,-0.09 7.49,-12.75 18.66,-5.21 6.4,4.33 3.4,16.99 5.99,14.4 0.56,-0.56 14.7,-6.87 17.72,5.61 3.01,12.4 -7.27,10.3 3.43,12.05 6.26,1.02 9.76,13.99 -0.91,16.64 -13.46,3.35 9.49,-0.31 5.61,13.07 -1.33,4.62 -6.84,-1.51 -2.92,8.69 3.09,8.02 -9.43,5.25 -9.91,5.72 -5.05,4.98 -6.97,7.17 -14.37,3.01 4.6,-7.03 14.2,-19.01 5.52,-28.41 -1.64,-1.78 -3.24,-0.43 -7.8,-5.38 -1.3,-1.42 -2.07,-5.8 -2.15,-8.84 -0.15,-5.88 -0.67,-10.22 -17.53,-3.27 -17.79,7.34 -26.28,-0.04 -32.12,0.34z"/>
   <path class="fil1 str0" d="M637.4 705.02c2.09,9.93 -20.74,12.04 -30.05,5.41 -10.97,-7.81 -36.97,-4.86 -46.76,3.97 -7.05,6.36 -32.09,10.72 -39.02,5.79 -1.14,-0.81 -10.96,-0.58 -14.12,1.67 -6.84,4.87 4.98,-14.32 16.98,-6.55 4.82,3.13 3.1,1.85 4.99,-1.24 4.44,-7.28 8.14,7.95 7.8,-0.78 -0.26,-6.54 7.24,-2.31 7.32,-2.28 -1.21,-9.75 4.55,-8.22 9.32,-7.19 1.34,-3.25 0.96,-13.67 11.11,-7.52 2.8,1.7 -2.09,-5.51 5.02,-9.73 5.76,-3.4 7.21,6.55 10.95,-2.2 1.15,-2.7 10.07,-7.4 15.14,1.95 1.12,0 3.46,-7.09 7.56,-7.17 1.83,-0.03 10.26,-1.02 10.26,7.91 4.59,-0.73 12.34,-7.21 14.98,0.83 0.8,2.45 -3.76,11.55 8.52,17.13z"/>
   <path class="fil3 str0" d="M545.45 448.6c5.02,-6.65 15.45,-8.04 23.26,-6.45 19.67,4.01 34.23,32.95 34.23,52.13 0,35.58 -30.76,80.04 -28.57,98.05 0.97,7.95 4.02,16.5 -1.51,30.16 -4.71,11.64 4.54,22.58 -3.87,29.77 -4.04,3.45 -0.33,1.91 -0.84,-7.66 -0.34,-6.21 -5.01,-4.3 -3.49,-13.41 0.66,-3.9 -6.71,2.42 -5.42,17.53 0.55,6.49 -6.61,17.44 -4.13,6.56 0.72,-3.14 -2.34,-12.34 -3.23,-13.64 -0.49,-0.72 -2.22,0.77 -2.45,3.18 -0.68,7.2 0.66,6.46 -3.72,10.97 -2.41,2.48 -2.45,1.39 -0.55,-2.13 2.05,-3.78 -0.53,-10.32 -2.57,-13.18 -1.5,-2.11 -1.34,-2.54 -2.18,-0.08 -0.8,2.33 -1.93,9.28 -1.07,12.35 0.73,2.6 -0.67,0.86 -1.27,-0.24 -2.58,-4.77 -4.56,-17.95 -4.56,-4.88 0,7.06 -0.11,8.59 -1.07,10.59 -0.81,1.72 -1.68,0.63 -1.79,-1.28 -0.2,-3.57 -0.39,-11.35 -3.92,-15.26 -1.88,-2.08 2.84,11.56 -5.84,15.35 -4.76,2.07 2.07,-3.19 0.51,-12.34 -0.85,-4.93 -4.52,-7.25 0.08,-13.71 3.55,-4.99 -8.13,0.65 -3.79,14.38 1.49,4.72 -1.79,6.92 -3.82,6.68 -2.44,-0.29 1.48,-1.64 1.3,-4.49 -0.19,-3.06 -4.77,-4.48 -4.37,-14.97 0.25,-6.31 -6.48,0.76 -2.81,5.55 3.23,4.2 -2.41,3.33 -3.87,-1.06 -1.43,-4.28 -0.47,-4.52 0.33,-9.99 0.31,-2.11 -0.02,-3.35 -1.16,0.13 -1.59,4.86 -4.96,5.36 -4.93,7.72 0.05,3.92 1.28,4.46 0.65,4.9 -1.86,1.29 -6.74,-6.47 -3.34,-12.38 3.78,-6.58 3.26,-6.28 0.8,-4.19 -1.82,1.54 -5.5,3.64 -12.37,3.25 -3.04,-0.17 -5.64,-1.99 -2.64,-2.06 8.9,-0.17 15.72,-16.67 15.16,-19.39 -0.82,0 -19.53,5.4 -9.8,0.17 0.56,-0.3 6.91,-2.7 8.84,-10.35 1.65,-6.55 -4,-14.73 -6.55,-1.14 -0.96,5.16 -5.5,-18.18 13.85,-35.6 1.8,-1.61 3.88,-12.61 15.23,-14.96 0.92,-2.09 -3.7,-2.58 -7.27,-0.14 -2.31,1.57 -4,1.63 -0.91,-2.31 2.37,-3.02 7.89,-5.97 14.92,-5.69 4.04,0.16 0.76,-11.85 12.84,-13.39 1.01,-0.13 8.69,-16.84 8.69,-22.26 0,-8.05 1.54,-18.35 -6.56,-22.37 -6.2,-3.08 -9.09,-6.83 -17.05,-7.84 -3.79,-0.49 4.87,-5.39 20.07,-2.14 1.01,-3.6 -14.48,-6.45 -20.18,-3.47 -8.7,4.53 1.47,-8.22 10.26,-11.27 3.68,-1.27 10.8,-1.51 12.45,-3.7z"/>
   <path class="fil2 str0" d="M545.45 477.53c3.19,1.85 15.03,35.31 -5.05,35.31 -10.1,0 -2.1,-15.77 -6.49,-7.34 -3.39,6.5 -13.49,-5.84 -1.75,-11.66 5.86,-2.91 12.94,-16.51 13.29,-16.31z"/>
   <path class="fil2 str0" d="M541.41 446.92c-5.68,-4.57 1.68,-2.66 1.68,-6.06 0,-8.69 8.17,-4.15 8.07,-6.72 -0.22,-5.65 5.12,-4 6.23,-0.06 1.4,0 5.89,-19.35 11.44,-8.19 3.37,6.8 15.3,-18.58 15.3,-5.21 0,12.4 0.57,4.81 9.24,0.51 3.26,-1.62 6.23,-11.29 6.23,8.91 0,5.91 4.37,-1.86 8.8,-4.48 3.01,-1.78 6,-10.5 6,7.17 0,17.62 -18.37,33.72 -29.1,20.18 -5.77,-7.28 -30.63,-5.09 -35.65,-1.51 -0.2,0.13 -6.05,-2.78 -8.24,-4.54z"/>
   <path class="fil4 str0" d="M542.97 466.76c10.78,2.59 8.86,11.82 3.48,7.66 -2.54,-1.97 -19.11,-5.11 -23.6,-5.24"/>
   <path class="fil4 str0" d="M534.72 503.95c-0.23,-2.45 5.39,-5.51 6.92,-8.76 2.38,-5.06 2.13,-3.36 2.13,-9.59 0,-0.57 0.53,-6.29 0.63,-6.58"/>
   <path class="fil4 str0" d="M511.48 519.92c0,-9.78 -0.71,-10.87 -3.7,-19.5 -0.57,-1.65 -1.96,-4.05 -1.07,-5.69"/>
   <path class="fil4 str0" d="M502.39 520.6c-0.24,-1.67 -3.56,-9.33 -4.34,-13.15 -0.26,-1.28 -3.09,-5.59 -2.99,-6.07"/>
   <path class="fil4 str0" d="M497.54 711.46c1.08,-4.14 6.38,-7.64 8.59,-8.02"/>
   <path class="fil3 str0" d="M490.62 744.96c-2.4,1.43 -10.72,7.87 -10.96,12.88 -0.03,0.59 -1.6,0.34 -1.96,-1.48 -0.54,-2.62 0.81,-8.87 2.87,-12.64 5.02,-9.19 15.24,-1.85 10.05,1.24z"/>
   <path class="fil3 str0" d="M470.39 726.66c0,5.8 -11,5.51 -15.93,14.17 -0.55,0.96 -0.78,2.52 -1.1,3.3 -6.31,-0.01 -0.47,-13.56 6.51,-19.66 4.48,-3.91 10.52,-4.12 10.52,2.19z"/>
   <path class="fil3 str0" d="M453.08 694.25c2.6,-0.48 5.14,1.34 5.54,3 0.44,1.87 0.5,4.46 -6.13,5.57 -1.3,0.22 -10.73,-0.62 -12.81,4.6 -0.22,0.57 -3.8,-8.33 13.4,-13.17z"/>
   <path class="fil3 str0" d="M496.49 439.65c-3.98,-0.95 -3.42,2.48 0.2,5.15 3.03,2.23 6.62,4.03 6.22,14.45 -0.24,6.11 7.78,4.63 9.53,0.39 3.45,-8.34 -9.61,-18.47 -15.95,-19.99z"/>
   <path class="fil3 str0" d="M479.74 460.25c7.63,-9.44 -2.63,-17.78 -14.12,-19.14 -3.86,-0.46 -4.49,1.01 -1.3,2.53 4.64,2.22 10.4,6.04 10.17,12.08 -0.12,3.03 3.59,6.59 5.25,4.53z"/>
   <path class="fil3 str0" d="M464 477.8c-0.96,-4.44 -20.46,-7.19 -20.46,0.11 0,7.42 2.12,-2.21 10.62,3.18 7,4.44 11.86,6.07 9.84,-3.29z"/>
   <path class="fil3 str0" d="M477.12 563.38c1.8,2.5 -8.24,9.31 -17.93,4.5 -4.45,-2.21 -7.13,-9.31 -0.67,-4.71 3.74,2.67 8.2,-3.5 9.24,-3.86 9.86,-3.42 8.12,1.16 8.69,4.15l0.67 -0.08z"/>
   <path class="fil4 str0" d="M543.12 450.33c7.1,3.26 10,12.5 5.41,18.48"/>
   <path class="fil4 str0" d="M539.73 454.03c4.07,0 2.74,5.17 -1.09,2.44 -0.68,-0.48 -4.21,-0.01 -4.96,0.25"/>
   <path class="fil2 str0" d="M555.71 464.29c-2.82,-9.65 15.2,-10.04 12.92,1.15 -0.67,3.31 -10.58,6.86 -12.92,-1.15z"/>
   <path class="fil5 str0" d="M560.59 460.09c3.66,-1.75 1.78,7.51 -0.92,2.94 -0.58,-0.98 0.23,-2.62 0.92,-2.94z"/>
   <path class="fil4 str0" d="M608.34 499.79c0.11,-3.22 6.36,-6 18.84,-0.85 19.31,7.97 97.09,34.78 102.15,41.94 -28.48,-5.8 -70.74,-25.83 -100.81,-36.56 -7.02,-2.5 -24.63,-10.04 -8.91,2.42 1.22,0.97 91.74,60.61 92.66,63 -30.32,-13.71 -71.84,-44.54 -75.95,-46.98 -0.13,-0.07 -37.13,-29.89 -21.13,-10.98 21.15,24.99 46.99,63.94 61.89,91.87 -16.97,-16.98 -46.15,-67.5 -62.12,-88.28 -5.06,-6.58 -2.36,-3.24 0.62,7.01 5.07,17.49 18.92,78.16 17.82,92.2 -4.77,-15.32 -19.41,-87.81 -24.89,-103.59 -0.03,0.06 -12,97.97 -11.7,101.16 -2.41,-2.81 2.43,-60.82 4.84,-80.83 0.76,-6.41 1.07,-7.06 -1.08,0 -5.18,17.05 -19.52,68.62 -21.33,71.47 2.8,-27.8 9.1,-46.58 18.17,-72.34 4.26,-12.1 3.92,-16.31 10.93,-30.66z"/>
   <path class="fil4 str0" d="M511.41 546.53c2.39,15.29 -15.24,14.25 -12,32.47 0.69,3.91 1.51,1.3 1.95,-1.79 1.12,-7.75 4.1,-6.92 8.18,-9.2 4.42,-2.46 9.1,-6.82 9.3,-9.89 0.28,-4.13 2.39,-1.36 1.82,2.19 -0.95,5.81 -3.63,12.15 -6.84,13.4 -3.1,1.2 -1.67,2.35 2.35,1.28 4.01,-1.06 6.51,-5.43 9.76,-12.34 1.32,-2.81 7.96,-5.96 5.17,-3.58 -6.94,5.92 0.3,7.2 -10.24,20.04 -0.97,1.19 -4.38,7.29 -7.25,7.44 -3.59,0.18 -4.51,1.11 -2.19,1.92 7.94,2.78 11.96,-5.11 16.53,-9.68 17.23,-17.23 -0.62,1.99 -0.22,12.11 0.27,6.79 -1.33,12.33 -7.85,14.16 -0.87,0.24 2.6,1.59 4.6,1.21 14.67,-2.78 10.18,-15.79 13.62,-19.04 2.51,-2.37 3.47,1.11 3.65,3.12 0.71,7.86 -5.36,20.89 -0.09,28.3 3.1,4.37 8.77,4.04 6.59,1.89 -7.32,-7.21 -4.29,-10.76 1.46,-18.47 2.73,-3.68 4.42,-7.86 3.89,-11.65 -0.72,-5.07 1.31,-6.41 2.77,0.77 2.49,12.24 6.95,1.6 3.93,20.29 -1.78,10.97 2.85,14.94 3.22,13.69 0.42,-1.47 -0.47,-6.54 0.75,-8.37 10.81,-16.33 -4.23,-22.51 9.99,-26.05"/>
   <path class="fil4 str0" d="M602.75 500.67c0.57,9.92 -11.61,12.25 -13.3,20.56 -0.95,4.65 0.62,9.46 -1.29,13.31 -1.81,3.62 -8.35,6.57 -9.11,6.22 -1.83,-0.84 4.45,-3.44 4.45,-10 0,-6.93 -2.4,-9.27 0.51,-16.31 1.88,-4.57 1.11,-7.9 -1.72,-4.96 -1.14,1.19 -6.47,6.27 -7.7,9.83 -5.62,16.24 7.82,13.01 -5.63,32.78 -3.58,5.26 -1.53,8.42 -2.39,9.42 -0.6,0.72 -2.49,-4.12 -1.59,-7.6 1.06,-4.14 3.02,-11.52 -0.31,-19.47 -2.55,-6.1 -0.88,-18.48 4.59,-23.8 1.58,-1.55 2.57,-3.9 0.13,-2.8 -3.09,1.4 -8.64,5.42 -10.3,20.05 -0.82,7.24 -5.47,10.05 -8.97,11.04 -2.09,0.6 -4.37,0.83 -3.62,0.06 3.07,-3.17 5.44,-6.61 6.15,-9.48 1.76,-7.19 -1.56,-12.93 2.6,-19.79 2.58,-4.25 0.09,-14.78 -0.78,-4.7 -0.36,4.07 -9.15,13.34 -10.82,18.16 -3.03,8.76 -2.61,8.32 -3.42,-1.29 -0.15,-1.71 0.43,-7.46 0.88,-9.07"/>
   <path class="fil4 str0" d="M590.14 544.3c-14.42,3.98 -10.76,13.1 -16.89,17.13 -3.65,2.39 -11.29,5.51 -12.66,16.73 -0.43,3.54 -1.13,6.51 -2.94,1.26 -1.37,-4 -2.17,-11.27 0.51,-16.83 3.13,-6.47 1.53,-17.19 0.62,-13.39 -1.32,5.54 -7.12,8.84 -10.7,11.45 -5.21,3.81 -8.35,5.91 -5.72,13.56 2.14,6.19 -0.15,3.42 -1.01,2.59 -4.4,-4.29 -5.97,-14.34 -0.39,-22.25 1.34,-1.9 6.3,-6.51 7.51,-10.28 0.89,-2.78 -0.11,-4.02 -6,-0.79 -3.5,1.92 -4.6,7.63 -7.08,9.65 -3.51,2.86 -10.28,2.33 -12.61,2.19 -1.77,-0.11 -1.58,-1.67 1.35,-1.76 1.38,-0.04 8.79,-2.01 9.07,-8.03 0.3,-6.38 4.24,-4.7 5.92,-10.05 1.39,-4.41 2.11,-7.16 0.8,-5.65 -4.06,4.67 -16.38,13.15 -21.73,13.35"/>
   <path class="fil4 str0" d="M512.3 588.74c-3.5,7.75 -6.69,13.25 -15.68,16.32"/>
   <path class="fil4 str0" d="M498.03 621.77c3.22,-14.57 20.14,-30.07 30.55,-35.82"/>
   <path class="fil4 str0" d="M564.48 630.6c-2.39,-2.61 -1.16,-4.32 -1.63,-5.67"/>
   <path class="fil4 str0" d="M551.37 641.6c0.78,-3.61 -5.19,-11.33 9.37,-33.04"/>
   <path class="fil4 str0" d="M522.57 629.21c7.85,-4.74 11.06,-16.46 12.41,-30.74"/>
   <path class="fil4 str0" d="M510.64 630.93c-0.32,-7.17 4.23,-21.38 11.9,-24.7"/>
   <path class="fil4 str0" d="M534.53 642.65c-4.8,-10.15 0.66,-22.79 5.49,-27.58"/>
   <path class="fil4 str0" d="M541.78 639.06c-3.27,-6.22 3.87,-13.21 2.6,-17.43"/>
   <path class="fil4 str1" d="M583.19 633.76c7.07,6.12 20.92,1.47 8.75,-6.73"/>
   <path class="fil4 str1" d="M604.72 627.03c8.97,0.43 12.76,-8.34 3.36,-10.76"/>
   <path class="fil4 str1" d="M616.96 637.88c5.4,3.2 10.09,1.46 5.39,-7.74"/>
   <path class="fil4 str1" d="M637.68 625.02c11.64,6.91 9.95,-8.07 6.05,-9.42"/>
   <path class="fil4 str1" d="M633.19 648.83c1.41,2.7 12.11,13.75 12.11,-3.37"/>
   <path class="fil4 str1" d="M661.89 639.82c0,8.99 7.4,8.99 7.4,0"/>
   <path class="fil4 str1" d="M657.18 660.67c2.82,9.98 12.47,9.11 11.78,0.34"/>
   <path class="fil4 str1" d="M657.86 677.49c0,4.72 6.73,7.55 6.73,-1.35"/>
   <path class="fil4 str1" d="M606.73 666.05c-13.02,0 -3.58,9.08 0.68,8.75"/>
   <path class="fil4 str1" d="M624.23 672.1c-4.86,-4.64 -7.06,-10.09 4.03,-10.09"/>
   <path class="fil4 str1" d="M643.55 689.44c-9.01,-3.66 -8.74,-9.42 1.35,-9.42"/>
   <path class="fil4 str1" d="M577.84 695.78c-4.41,-0.2 -4.51,6.72 4.71,6.72"/>
   <path class="fil4 str1" d="M606.05 689.77c-9.97,0 -4.26,7.79 0.67,7.4"/>
   <path class="fil4 str1" d="M625.58 702.22c-17.61,0 -6.54,8.75 -1.34,8.75"/>
   <path class="fil4 str1" d="M624.23 718.52c-4.99,12.83 4.41,12.12 6.05,7.4"/>
   <path class="fil4 str1" d="M606.46 723.84c-9.11,6.32 -2.83,12.25 3.22,5.91"/>
   <path class="fil4 str1" d="M592.61 720.2c-6.71,-2.09 -8.59,-7.74 -1.35,-7.74"/>
   <path class="fil4 str1" d="M650.46 718.52c-12.68,-5.15 -0.29,-10.92 0.67,-6.73"/>
   <path class="fil4 str2" d="M479.6 485.77c0.31,1.87 0.71,2.32 0,4.37"/>
   <path class="fil4 str2" d="M487.2 490.47c-0.57,0.76 -2.23,3.48 -2.89,3.71"/>
   <path class="fil4 str2" d="M491.82 497.32c-2.95,0.68 -1.64,1.49 -3.81,2.24"/>
   <path class="fil4 str2" d="M495.41 467.95c-0.14,0.96 -1.89,3.59 -2.36,3.7"/>
   <path class="fil4 str2" d="M498.56 474.18c-0.32,0.14 -6.12,2.8 -6.18,2.85"/>
   <path class="fil4 str2" d="M499.76 479.87c-1.33,1.57 -2.18,1.2 -3.34,1.87"/>
   <path class="fil4 str2" d="M515.59 463.91c0.9,1.98 -0.84,3.72 -2.69,4.37"/>
   <path class="fil4 str2" d="M518 471.17c-0.72,0.67 -2.07,2.24 -3.09,2.16"/>
   <path class="fil4 str2" d="M519.14 476.65c-1.49,1.61 -2.12,1.85 -4.23,2.4"/>
   <path class="fil4 str2" d="M468.91 715.12c1.39,0.53 5.63,0.08 6.32,2.05"/>
   <path class="fil4 str2" d="M475.99 710.9c5.12,-0.6 3.28,0.65 4.95,1.23"/>
   <path class="fil4 str2" d="M480.77 705.52c1.41,0.58 5.12,0.23 4.88,3.24"/>
   <path class="fil4 str2" d="M463.82 689.48c2.95,0.89 3.03,2.42 2.32,5.16"/>
   <path class="fil4 str2" d="M471.52 690.26c0.96,1.06 1.43,3.96 0.68,5.39"/>
   <path class="fil4 str2" d="M477.92 691.61c0.9,1.32 1.18,2.9 0.67,4.37"/>
   <path class="fil4 str2" d="M482.36 734.2c1.28,-0.45 6.91,-2.77 6.66,0.46"/>
   <path class="fil4 str2" d="M486.66 729.28c1.49,-2.15 5.16,-3.26 6.05,-0.67"/>
   <path class="fil4 str2" d="M491.15 722.95c2,-0.39 5.31,-1.84 6.27,0.95"/>
  </g>
  <g id="_2824352252256">
   <path class="fil1 str0" d="M163.86 655.44c13.81,17.07 5.13,48.84 -6.48,53.44 -5.89,2.33 5.77,13.51 8.8,13.38 7.99,-0.33 15.94,-3.49 16.41,5.07 0.1,1.84 -1.71,3.23 -2.64,1.81 -0.77,-1.16 -1.82,-0.22 0.48,0.97 0.82,0.43 -0.97,1.83 -2.29,2.32 -4.21,1.58 -15.85,1.14 -19.21,-2.52 -6.64,-7.21 -12.2,-2.87 -10.23,-18.64 0.6,-4.84 5.26,-10.78 2.73,-20.71 -0.16,-0.63 -2.46,-22.78 -2.2,-23.37 4.26,-9.83 5.76,-3.91 14.56,-10.89l0.07 -0.86z"/>
   <path class="fil1 str0" d="M192.46 598.98c0.19,1.17 1.57,6.11 2.72,12.08 0.88,4.58 3.58,7.64 2.13,10.14 -1.72,2.97 -5.81,1.18 -11.2,0.95 -1.95,-0.08 -7.65,-1.22 -6.95,-3.31 0.48,-1.45 -9.91,-7.52 -13.69,-12.42 -2.8,-3.61 -1.53,-5.22 1.57,-5.49 5.16,-0.45 14.72,8.23 18.59,9.27 4.34,1.17 5.88,-12.79 6.83,-11.22z"/>
   <path class="fil1 str0" d="M151.22 579.23c-0.83,-2.53 -2.74,-4.83 -1.5,-7.12 1.33,-2.46 10.98,0.77 11.65,3.42 0.23,0.88 -5.23,6.23 -6.49,5.49 -0.94,-0.55 -3.24,-0.53 -3.66,-1.79z"/>
   <g>
    <path class="fil2 str0" d="M214.28 507.08c0,-7.37 -4.13,-27.37 -15.2,-28.92 -10.06,-1.41 -18.83,0.22 -25.48,28.97 -3.88,16.8 8.49,54.19 28.3,37.67 9.15,-7.62 14.54,-23.77 12.38,-37.72z"/>
    <path class="fil2 str0" d="M189.04 571.39c-0.97,13.89 -1.53,19.89 -4.06,32.68 -2.3,11.62 1.55,12.81 10.22,12.92 10.38,0.14 -2.85,-43.62 2.49,-45.47 2.45,-0.85 9,-4.75 2.74,-6.11 -4.35,-0.95 -9.49,-1.36 -14.36,-0.81 -5.7,0.63 -2.92,2.63 2.97,6.79z"/>
    <path class="fil2 str0" d="M189.66 564.05c-0.34,-5.81 0.08,-10.6 0.08,-16.05 4.99,2.58 9.43,0.88 9.43,0.88 -0.03,3.94 -0.61,8.01 -2.08,15.2 -1.68,0.13 -5.45,-1.26 -7.43,-0.03z"/>
    <path class="fil1 str0" d="M214.35 507.08c0,-7.37 -3.42,-29.3 -12.91,-28.92 -10.09,0.39 -19.74,19.59 -21.65,28.97 -3.42,16.77 7.2,54.19 24.04,37.67 7.77,-7.62 12.36,-23.77 10.52,-37.72z"/>
    <path class="fil4 str2" d="M203.41 479.86c5.24,1.94 8.91,24.12 8.76,28.07 -0.48,12.25 0.72,15.52 -4.63,28.67 -1.18,2.92 -5.61,9.35 -8.92,10.5"/>
   </g>
   <path class="fil1 str0" d="M163.57 740.8c-8.3,0.17 -11.47,-0.44 -12.42,-1.99 -2.04,-3.31 6.19,-9.03 -3.82,-6.49 -7.78,1.98 -0.9,-10.91 -10.82,-16.29 -9.35,-5.07 9.68,-7.72 0.58,-17.39 -6.97,-7.42 -7.14,-6.28 -11.23,-15.67 -6.8,-15.63 5.63,-11.27 -12.85,-11.11 -15.67,0.13 -32.47,-33.22 -27.37,-60.41 1.44,-7.68 -0.09,-30.26 -23.06,-42.99 -0.68,-5.48 23.11,-0.24 17.69,-4.03 -6.68,-4.65 18.67,3.26 10.82,-1 -9.78,-5.3 16.43,-0.21 17.98,0.33 23.34,8.15 11.67,49.74 4.39,65.21 -8.33,17.69 5.77,38.62 9.27,34.88 1.27,-1.36 -1.47,-12.08 -0.22,-26.93 0.74,-8.88 7.4,-26.52 11.99,-28.53 0.56,-4.49 -6.05,-0.6 1.4,-3.38 5.75,-2.14 -8.89,-4.29 8.68,-4.44 5.54,-0.05 7.72,-8.43 2.67,-9.06 -3.75,-0.47 -9.6,-10.94 -5.12,-11.89 3.27,-0.7 11.32,-3.62 13.09,-0.25 0.85,-0.38 0.36,-3.39 6.45,-5.8 11.27,-4.46 8.07,2.89 16.68,2.18 0.3,-0.02 7.21,6.12 -3.25,12.43 -0.98,0.6 -6.56,10.35 4.02,9.48 2.23,-0.19 1.16,3.75 -6.77,3.82 -3.35,0.03 -12.04,3.1 -4.11,3.03 2.83,-0.02 16.75,15.27 18.47,3.25 1.27,-8.9 -1.22,-6.36 -1.24,-9.99 0,-1.1 4.89,-5.47 2.26,-0.47 -0.6,1.15 3.53,1.88 8.09,-1.76 2.35,-1.87 2.47,-5.01 3.33,-3.11 0.86,1.9 0.63,1.77 0.49,4 -0.17,2.56 -1.85,3.65 -5.09,4.67 -3.71,1.65 -1.33,8.99 -0.85,15.86 0.35,4.98 -4.52,11.88 -8.68,9.52 -6.22,-3.52 -19.38,0 -18.9,1.9 2.54,10.01 4.77,26.01 -6.76,35.67 -0.09,0.08 4.77,10.05 4.16,19.25 -0.77,11.65 -9.92,23.25 -11.35,27.01 -0.04,0.08 -2.65,17.33 10.79,16.15 8.88,-0.78 21.2,9.97 12.21,11.63 -2.57,0.47 -0.86,6.45 -7.18,5.18 -0.74,-0.16 -2.87,-2.5 -4.42,-2.47z"/>
   <path class="fil4 str0" d="M154.55 583.3c-0.01,-0.54 -6.5,-1.32 -6.77,-0.55 -0.65,1.87 4.64,5.24 4.96,4.98 1.27,-1 1.87,-2.01 1.81,-4.43z"/>
   <path class="fil6 str0" d="M164.19 585.43c2.65,-1.86 0.68,-1.26 1.04,-4.21 0.2,-1.58 2.66,-3.08 4.57,-1.36 0.46,0.41 2.04,1.05 2.64,-0.09 0.15,-0.28 0.67,0.45 -0.66,1.37 -1.68,1.16 1.72,4.74 -4.39,3.98 -1.7,-0.21 -1.18,-0.1 -3.13,0.84 -0.28,0.13 -0.1,-0.51 -0.07,-0.53z"/>
   <path class="fil7 str0" d="M168.1 580.42c-1.77,0.3 -0.26,3.2 1.21,1.33 0.33,-0.42 -0.35,-1.85 -1.21,-1.33z"/>
   <path class="fil7 str0" d="M179.08 575.75c-0.93,-0.95 -3.62,4.24 -0.78,3.01 1.16,-0.51 -0.12,-1.51 1.42,0.45 1.29,1.63 -0.16,-1.22 -0.3,-2.43 -0.02,-0.23 -0.32,-1.01 -0.34,-1.03z"/>
   <path class="fil4 str0" d="M148.67 644.76c-1.26,3.57 -0.05,7.79 3.39,10.23 3.02,2.14 7,4.29 7.38,9.31"/>
   <path class="fil4 str0" d="M63.21 567.17c18.47,-3.24 29.12,30.33 26.84,42.65"/>
   <path class="fil4 str0" d="M80.7 565.43c1.22,-0.41 16.12,8.36 19.97,51.24"/>
   <path class="fil4 str0" d="M87.97 564.44c11.74,6.03 15.73,21.32 18.13,32.77 4.05,19.26 -6.2,41.27 3.41,50.35"/>
   <path class="fil4 str0" d="M92.59 564.61c5.78,1.58 11.58,6.99 13.76,9.69 6.1,7.53 8.11,20.74 7.87,30.16"/>
   <path class="fil4 str0" d="M99.01 561.85c6.14,1.76 17.25,9.89 17.88,21.2"/>
   <path class="fil4 str0" d="M165.97 734.54c3.34,-0.15 8.79,0.95 8.72,3.73"/>
   <path class="fil4 str0" d="M173.84 726.54c2.99,-0.63 3.85,-0.31 5.37,2.15"/>
   <path class="fil4 str0" d="M141.94 703.96c1.34,6.28 -8.09,4.88 -1.85,11.51 0.01,0.01 0.56,0.75 0.57,0.76"/>
   <path class="fil4 str2" d="M151 645.08c-0.43,3.48 0.01,3.88 2.84,5.72"/>
   <path class="fil4 str2" d="M153.95 645.3c0.08,1.1 0.1,2.07 1.59,2.58"/>
   <path class="fil4 str0" d="M159.09 620.56c1.12,1.52 0.56,5.47 2.47,6.51 2.1,1.14 2.05,1.02 5.1,0.38"/>
   <path class="fil4 str0" d="M181.56 621.51c1.5,-0.32 5.9,3.42 6.26,-2.63"/>
   <path class="fil4 str0" d="M147.77 591.61c2.18,1.45 4.33,0.43 5.99,0.07l0.16 -0.03"/>
   <path class="fil4 str0" d="M150.61 593.65c1.41,-0.1 1.31,0.04 2.86,-0.29"/>
   <path class="fil4 str0" d="M150.82 595.39c1.03,-0.07 1.04,-0.06 2.05,-0.28"/>
   <path class="fil4 str0" d="M149.72 596.76c0.62,0.33 1.11,0.41 1.78,0.27"/>
   <path class="fil4 str2" d="M80.15 568.43c14.64,9.32 15.98,33.67 16.98,45.26"/>
   <path class="fil4 str2" d="M96.24 568.51c7.32,5.89 12.56,16.29 13.91,23.21 2.54,13.1 -3.83,38.27 -1.14,49.46"/>
   <path class="fil4 str2" d="M84.85 564.84c15.13,13.93 21.13,39.92 17.25,58.99 -2.61,12.79 3.93,50.07 22.12,41.81"/>
   <path class="fil4 str2" d="M144.79 644.46c0,14.73 10.16,13.29 14.07,29.76 2.78,11.76 -3.21,26 -6.82,29.07 -3.67,3.13 -9.34,23.59 7.06,25.61 2.61,0.32 12.72,1.58 14.52,2.78 4.55,3.01 2,4.11 1.9,4.78"/>
   <path class="fil4 str2" d="M164.17 737.48c6.13,-2.01 10.74,1.32 5.61,4.31"/>
   <path class="fil4 str2" d="M173.42 723.48c7.72,-1.2 7.62,3.91 7.38,4.89"/>
   <path class="fil4 str2" d="M160.13 658.76c5.35,-8.14 6.08,-18 3.99,-28.27"/>
   <path class="fil4 str2" d="M139.12 602.7c1.24,-0.55 6,-0.14 6.56,1.5"/>
   <path class="fil4 str2" d="M133.46 610.46c1.04,-2.07 4.86,-0.9 6.56,-0.9"/>
   <path class="fil4 str2" d="M152.87 580.4c-2.22,0.77 -9.16,-1.02 -8.11,4.14 0.27,1.31 5.63,4.84 8.08,4.75 0.83,-0.04 0.21,0.06 0.9,0.29"/>
   <path class="fil4 str2" d="M171.48 576.16c-15.44,0 -10.77,12.83 -6.86,12.83 3.49,0 8.86,-2.01 9.72,-6.24l-0.03 -0.32"/>
   <path class="fil4 str2" d="M178.49 599.43c-12.05,0 -6.96,-9.54 -6.05,-9.86"/>
   <path class="fil4 str2" d="M161.64 621.2c0.58,8.64 6.72,1.27 12.52,1.19 6.25,-0.09 11,3.33 14.88,1.27"/>
   <path class="fil4 str2" d="M134.95 616.72c-2.61,0.43 -6.56,1.73 -6.56,4.18"/>
   <path class="fil4 str2" d="M131.96 626.86c-3.66,-0.17 -7.15,1.06 -7.15,3.87"/>
   <path class="fil4 str2" d="M128.39 635.51c-2.74,1.62 -4.47,0.8 -4.47,4.17"/>
   <path class="fil4 str2" d="M127.79 656.38c-2,-0.09 -2.43,2.29 -2.98,3.88"/>
   <path class="fil4 str2" d="M127.06 671.91c-4.02,11.02 9.86,22.84 12.36,25.62 3.72,4.15 7.16,-3.74 6.56,-11.63"/>
   <path class="fil4 str2" d="M166.49 664.65c4.21,8.5 2.07,36.38 -9.46,42.12"/>
   <path class="fil4 str3" d="M199.69 595.68c-0.22,0.03 -2.71,1.91 -4.34,2.25l-0.16 -0.01"/>
  </g>
  <g id="_2824352272896">
   <path class="fil8" d="M278.07 47.02c-2.11,10.13 0.19,8.93 2.91,15.58 3.39,8.28 14.04,18.12 13.55,30.5 -0.01,0.39 1.22,22.93 0.73,24.74 0.52,0.1 2.81,0.59 6.94,1.97 4.53,1.52 11.69,5.33 14.96,10.93 1.53,2.62 6.35,5.01 8.32,8.33 2.12,3.56 1.01,6.53 0.25,7.6 -3.07,4.32 -7.04,2.86 -8.74,3.64 -0.97,0.45 -0.31,1.43 -1.74,3.05 -4.37,5 -11.45,2.56 -17.59,4.68 -2.81,0.96 -4.54,3.69 -6.28,6.17 3.24,2.6 0.82,4.33 1.88,9.51 1.23,6.09 8.32,12.99 10.51,21.68 1.86,7.4 2.61,23.93 -0.34,37.06 -1.57,6.98 -4.2,13.38 -7.65,17.66 1.14,6.71 6.52,16.54 -5.97,32.04 -4.8,5.96 -6.21,9.78 -4.09,18.84 1.5,6.41 4.17,16.22 9.69,21.75 2.6,2.6 3.01,2.37 8.19,3.66 5.44,1.34 4.78,4.21 4.42,6.52 -0.28,1.8 -2.78,4.79 -6.1,1.62 -4.94,-4.71 -0.16,5.88 -8.48,5.54 -7.52,-0.31 -3.61,-5.37 -4.47,-5.97 -0.29,-0.2 -0.78,0.32 -3.15,1.13 -2.18,0.74 -6.91,-0.69 -6,-5.05 0.45,-2.14 1.25,-1.09 2.35,-2.56 0.47,-7.32 -2.32,-13.34 -4.87,-18.89 -1.84,-3.97 -4.18,-7.16 -5.84,-10.58 -5.51,-1.07 -5.11,-5.56 -1.59,-10.59 1.69,-2.43 4.68,-4.82 0.79,-17 -2.43,7.83 -4.81,14.08 -13.26,22.53 -4.21,4.21 -7.74,5.39 -8.93,8.12 -2.5,5.74 1.9,10.82 5.22,17.97 1.24,2.66 1.37,5.64 2.5,8.89 4.13,0.31 8.41,0.64 9.92,1.99 3.09,2.76 1.19,6.69 -2.71,7.24 -0.82,0.11 0.22,2.83 -0.14,4.9 -0.43,2.52 -4.39,5.77 -8.63,3.81 -3.82,-1.76 -2.36,-3.6 -4.25,-5.46 -0.91,1.23 -4.57,3.43 -7.62,1.4 -3.63,-2.43 -2.41,-6.43 0.33,-9.17 1.06,-1.06 3.01,-1.95 3.32,-3.31 0.3,-1.34 -0.29,-3.38 -3.58,-9.83 -1.94,-3.81 -3.82,-8.16 -5.18,-12.61 -1.32,-4.31 -2.18,-8.73 -0.84,-13.2 0.68,-2.28 3.51,1.6 7.33,-5.33 4.25,-7.72 3.83,-8.78 3.55,-18.41 -0.15,-5.22 -4.13,-2.86 -2.1,-6.91 -3.07,2.81 -3.39,-1.17 -2.36,-3.46 0.63,-1.37 -3.32,1.3 -8.71,1.12 -5.08,-0.17 -10.53,-8.67 -6.58,-9.33 0.85,-0.15 2.18,0.79 4.1,1.35 9.66,2.84 14.37,-6.34 16.19,-12.17 2.55,-8.16 2.77,-20.42 3.73,-32.97 0.92,-12.01 2.86,-23.04 5.1,-33.08 0.73,-3.31 0.01,-6.83 0.79,-9.92 2.16,-8.68 5.52,-16.32 10.36,-25.4 2.58,-4.82 7.63,-10.71 10.9,-15.5 0.8,-1.18 1.95,-4.97 -8.09,-7.78 -17.53,-4.19 -25.25,-19.04 -28.31,-24.34 -0.88,-0.81 -0.95,-1.62 -1.94,-1.87 -7.21,-1.85 4.92,-3.39 -4.5,-5.57 -1.32,-3.2 4.69,-1.58 -0.24,-5.89 -4.79,-4.19 2.06,-0.93 -2.4,-7.14 -0.12,-0.15 -8.22,-21.97 2.95,-8.44 6.01,7.28 15.09,6.93 26.83,19.73 0.92,1 9.28,10.97 13.2,13.63 -1.03,-3.1 -7.13,-16.5 -4.78,-23.58 0.76,-2.3 -1.77,-4.41 -0.69,-4.45 2.07,-0.09 3.08,-0.26 -0.21,-3.22 -2.28,-2.05 3.76,-0.91 -0.25,-7.12 -2.18,-3.38 1.98,-8 4.62,-11.11 1.49,-1.75 3.3,-2.26 2.77,0.33z"/>
   <path class="fil4 str0" d="M294.86 117.83c6.46,0 19.73,6.38 23.31,13.6 0.5,1.01 6.96,4.74 8.55,9.74 1.24,3.92 -0.75,9.53 -9.33,9.2 -1.92,-0.08 0.77,7.53 -15.65,6.88 -2.48,-0.1 -8.72,3.07 -10.01,6.88"/>
   <path class="fil4 str0" d="M288.92 161c-1.08,2.79 -0.94,1.38 -0.94,4.7"/>
   <path class="fil4 str0" d="M283.6 159.44c1.31,2.9 -2.29,6.95 -3.13,6.88"/>
   <path class="fil4 str0" d="M278.28 156.94c0,2 -0.72,4.25 -3.13,4.06"/>
   <path class="fil4 str0" d="M272.96 152.24c-0.1,0.9 -1.64,1.58 -2.5,1.88"/>
   <path class="fil4 str0" d="M291.73 164.13c4.32,4.57 -1,5.26 3.6,14.55 4.69,9.43 8.62,11.83 10.01,26.51 2.72,28.71 -8.81,56.49 -34.62,65.62 -0.54,0.19 -1.28,12.33 -14.44,23.37 -12.86,10.79 -8.82,9.96 -2.09,25.59 0.97,2.26 1.44,8.08 2.63,8.31 3.46,0.66 10.69,-1.06 11.06,5.46 0.25,4.47 -6.44,2.43 -4.54,6.03 2.83,5.38 -8.6,11.91 -12.52,2.27 -1.36,-3.37 0.45,1.99 -6.71,0.87 -3.97,-0.61 -4.87,-5.45 -2.75,-8.39 3.72,-5.13 8.53,-2.13 0.62,-15.17 -1.45,-2.4 -10.42,-26.96 -3.75,-26.44 7.85,0.62 11.58,-19.46 8.03,-26.43"/>
   <path class="fil4 str0" d="M290.17 117.52c0,-5.9 -12.42,-20.12 -16.48,-24.19 -14.27,-14.26 -11.33,-16 -31.54,-26.03 -6.92,-3.43 -13.81,-17.41 -10.8,-2.97 1.34,6.42 2.6,7.3 3.44,8.76"/>
   <path class="fil4 str0" d="M231.98 73.72c2.53,0.36 4.38,2.5 4.38,5.01"/>
   <path class="fil4 str0" d="M235.58 87.33c3.33,2.3 2.87,3.08 6.93,4.02 6.7,12.88 16.33,23.17 30.04,25.49 2.83,0.48 9.44,4.27 5.94,7.77 -7.72,7.73 -21.9,34.18 -21.48,44.84 0.28,7.27 -5.64,29.41 -5.64,42.55 0,9.55 -0.78,29.44 -6.82,36.14 -4.53,5.02 -8.65,6.44 -15.8,3 -1.26,-0.61 -1.64,0.62 -2.02,2.3 -0.64,2.8 4.03,6.85 7.28,7.21"/>
   <path class="fil4 str0" d="M240.58 256.89c-1.52,2.91 -2.57,4.7 -5.79,4.7"/>
   <path class="fil4 str0" d="M246.37 256.42c-1.89,4.18 -1.03,3.26 -5.63,4.85"/>
   <path class="fil4 str0" d="M250.44 259.24c-1.66,3.18 -3.01,4.07 -6.73,4.07"/>
   <path class="fil4 str0" d="M295.78 250.12c9.86,25.4 -11.38,31.72 -11.09,42.29 0.2,7.28 1.55,12 5.63,21.59 6.3,14.83 11.99,10.2 16.8,13.39 3.02,2 1.39,13.77 -6.37,6.37 -1.92,-1.83 0.46,8.39 -10.01,6.25 -3.39,-0.69 -1.34,-6.17 -1.99,-5.84 -9.09,4.67 -11.59,-5.22 -6.83,-6.21 1.58,-4.54 -6.34,-25.39 -10.99,-28.89 -0.9,-0.68 -1.31,-1.19 -2.66,-1.66"/>
   <path class="fil4 str0" d="M270.46 296.31c-1.15,-1.79 -4.17,-2.81 -5.95,-2.81"/>
   <path class="fil4 str0" d="M272.33 288.65c-1.27,2.15 -2.83,2.5 -5.32,2.5l-0.31 0"/>
   <path class="fil4 str0" d="M268.74 287.87c5.78,-5.11 3.04,-11.83 1.98,-17.06"/>
   <path class="fil4 str0" d="M272.32 61.91c-0.3,-2.85 -2.22,-3.17 -2.21,-7.55 0.02,-3.52 10.16,-14.6 7.93,-6.34 -1.83,6.83 0.74,10.51 3.6,15.78 7.12,13.13 13.93,18.53 13.22,35.27 -0.08,1.88 1.3,17.2 0.78,17.94l-0.78 0.82"/>
   <path class="fil4 str0" d="M268.89 57.46c-2.65,3.85 2.31,9.69 5.95,10.95"/>
   <path class="fil4 str0" d="M267.95 66.53c0.42,3.38 3.25,5.53 6.26,6.57"/>
   <path class="fil4 str0" d="M271.71 74.66c-2.31,5.09 2.16,16.13 4.63,20.74l-0.23 0.49"/>
   <g>
    <path class="fil4 str0" d="M317.48 150.34c-1.94,-2.35 -7.77,-2.46 -9.9,1.34"/>
    <path class="fil7 str0" d="M323.59 139.23c-1.61,-0.33 -4.41,0.05 -3.94,2.37 0.34,1.67 4.93,0.7 5.33,3.61 0.16,1.23 -0.43,3.39 0.98,1.43 1.35,-1.87 3.47,-6.22 -2.37,-7.41z"/>
    <path class="fil6 str0" d="M309.69 133.49c-1.06,-2.99 -2.83,-3.97 -5.91,-4.35 -3.32,-0.41 -7.99,2.56 -7.19,6 1.64,7.07 14.05,4.94 16.46,1.56 0.64,-0.9 -2.38,-0.46 -3.36,-3.21z"/>
    <path class="fil7 str0" d="M303.94 132.28c2.24,-1.73 2.91,-2.25 3.05,1.33 0.05,1.14 -1.94,3.45 -2.98,-1.09l-0.07 -0.24z"/>
   </g>
   <g>
    <g>
     <path class="fil6 str0" d="M259.24 140.36c-13.02,-8.53 -76.49,-6.65 -87.64,9.08 -3.76,5.32 15.2,7.3 18.47,7.3 14.39,0 57.67,-0.29 68.62,-8.03 2.39,-1.69 7.53,-3.78 0.55,-8.35z"/>
     <g>
      <path class="fil9 str0" d="M242.09 125.08c8.33,0 7.63,3.88 10.91,10.42 2.85,5.67 0.52,17.76 -4.41,20.46 -4.43,2.43 -5.39,1.71 -10.17,0.39 -7.61,-2.09 -10.22,-7.22 -11.64,-11.71 -4.8,-15.16 0.69,-19.56 15.31,-19.56z"/>
      <path class="fil8 str0" d="M250.07 125.26c1.09,0.88 1.13,1.94 3.25,2.99 1.17,0.58 3.9,1.33 0.04,1.81 -2.03,0.25 -5.54,0.15 -7.15,-2.41 -0.59,-0.95 -1.93,-1.26 -1.93,-0.26 0,5.08 -3.48,-2.52 -3.12,-0.16 0.76,5.03 -6.98,10.39 -5.42,6.86 1.16,-2.59 -0.96,-5.32 -1.15,-4.98 -4.14,7.01 -8.66,8.97 -8.28,8.13 0.69,-1.55 0.31,-5.75 0.12,-5.13 -0.95,3.03 -7.97,6.11 -7.33,5.13 1.51,-2.3 0.67,-6.36 4.05,-8.33 3.12,-1.95 3.71,-5.16 7.02,-5.16 1.74,0 1.73,0.3 1.54,-2.16 -0.08,-1.07 6.85,1.5 8.59,1.5 5.14,0 5.93,-3.82 10.57,-1.08 3.2,1.9 4.51,0.77 0.92,2.25 -0.4,0.16 -1.17,0.52 -1.72,0.34 -1.02,-0.36 -1.1,-0.24 0,0.66z"/>
      <path class="fil4 str0" d="M250.7 136.3c0,2.2 -4.11,3.84 -6.1,2.66"/>
      <path class="fil4 str0" d="M240.45 137.32c0.2,1.78 1.46,2.88 1.72,4.44 0.33,1.9 4.15,4.01 -2.34,4.23 -0.34,0.01 -1.03,-0.05 -0.79,-0.77"/>
      <path class="fil4 str0" d="M237.09 139.62c-1.31,2.96 -4.46,4.39 -7.67,3.57"/>
      <path class="fil4 str0" d="M246.94 148.97c-2.4,-0.81 -5.18,-0.45 -6.02,2.23"/>
      <path class="fil4 str0" d="M245.38 151.16c-1.45,0.07 -0.42,-0.72 -1.67,0.53l-0.21 0.1"/>
     </g>
     <g>
      <path class="fil9 str0" d="M194.82 122.81c3.37,1.33 7.82,9.75 9.24,13.07 2.92,6.82 0.45,12.75 -1.17,15.78 -6.92,12.94 -20.02,8 -28.01,-0.16 -4,-4.08 -8.66,-14.08 -4.45,-19.25 5.36,-6.6 15.41,-14.17 24.39,-9.44z"/>
      <path class="fil10 str0" d="M189.69 118.89c0.39,0.05 3.81,-1.61 5.99,-1.06 1.34,0.34 2.07,1.44 4.16,1.33 0.51,-0.03 1.02,0.13 0.23,0.62 -1.22,0.78 -3.04,2.57 -5.92,2.08 -4.77,-0.83 -5.63,0.72 -2.98,2.04 0.84,0.42 3.46,0.96 -1.44,1.36 -2.42,0.2 -6.76,-1.2 -6.76,-0.51 0,3.2 1.57,5.99 -0.98,9.22 -0.4,0.5 -0.14,-1.29 -1.38,-2.03 -2.6,-1.54 -2.3,-4.67 -3.94,-0.21 -1.21,3.31 -2.93,10.92 -4.96,4.43 -0.36,-1.15 -1.26,1.22 -1.26,2.51 0,5.75 0.32,4.2 -3.52,9.08 -0.54,0.68 0.49,-5.29 -0.25,-4.68 -2.16,1.76 -1.12,9.34 -1.53,7.32 -0.44,-2.18 -3.02,-6.83 -1.63,-10.07 1.32,-3.11 3.17,-4.18 4.38,-7.36 1.67,-4.39 -1.15,-9.02 4.55,-11.07 1.67,-0.59 5.14,-2.37 6.41,-0.41 0.73,1.13 2.66,-5.21 7.24,-5.02 0.53,0.02 2.9,0.13 4.71,-0.78 1.62,-0.81 1.25,-0.07 0.27,0.85 -0.96,0.9 -2.02,2.26 -1.39,2.36z"/>
      <path class="fil4 str0" d="M195.95 124.75c-7.54,0 -7.34,7.87 -1.7,11.21 6.26,3.71 0.5,3.81 -0.96,8.03"/>
      <path class="fil4 str0" d="M199.71 146.96c-2.4,-1.08 -4.6,2.91 -5.02,5 -0.13,0.62 0.08,-0.03 -0.15,0.63"/>
      <path class="fil4 str0" d="M199.24 150.4c-1.16,0 -2.02,-0.32 -2.35,0.63"/>
      <path class="fil4 str0" d="M187.04 139.92c0.41,2.4 1.18,4.12 -0.58,6.46 -0.67,0.9 -1.77,1.77 -2.87,2.15"/>
      <path class="fil4 str0" d="M199.08 130.38c0,1.3 -0.02,5.46 -1.71,5.8l-0.17 -0.01"/>
      <path class="fil4 str0" d="M185.94 136.01c-1.16,0.54 -6.56,3.46 -6.88,4.38 -0.56,0.12 -0.95,3.01 -0.63,3.6"/>
      <path class="fil4 str0" d="M177.02 147.43c-1.01,-0.41 -2.08,-0.67 -3.12,-0.31 -1.25,3.58 1.35,2.75 3.24,5.49 0.54,0.77 2.79,3.63 3.63,3.9 1.59,0.49 4.99,0.52 4.19,-1.73 -0.16,-0.44 -0.77,-0.74 -0.9,-1.09"/>
      <path class="fil4 str0" d="M178.9 148.53c-1.92,1.32 -1.15,2.66 1.57,2.66 2.11,0 1.06,2.51 0.19,1.05l-0.04 -0.27"/>
     </g>
     <g>
      <path class="fil9 str0" d="M216.07 138.59c-7.07,0 -12.66,3.93 -15,10.75 -5.96,17.42 21.71,10.05 25.55,5.95 1.59,-1.7 -0.09,-2.94 -0.37,-6.1 -0.53,-6.01 -5.7,-8.08 -9.67,-10.48 -0.5,-0.3 -0.23,-0.12 -0.51,-0.12z"/>
      <path class="fil10 str0" d="M228.04 155.1c-0.81,0.76 -4.62,2.16 -4.89,1.21 -0.17,-0.61 0.02,-2.4 2.49,-4.9 2.17,-2.21 0.98,-1.51 -2.84,-2.26 -7.61,-1.48 1.67,-3.75 -0.94,-3.75 -1.51,0 -7.72,-0.31 -10.05,-1.61 -1.8,-1.01 -1.18,-0.86 -0.14,-1.16 0.83,-0.24 2.07,-0.66 2.86,-1.59 0.42,-0.5 -0.86,0.08 -2.14,-0.05 -1.18,-0.12 -2.92,-1.19 -1.15,-1.08 3.58,0.23 -2.45,-0.93 -4.41,-2.71 -1.53,-1.39 0.04,-0.83 3.7,-0.51 2.84,0.25 3.56,-2.01 6.95,-1.54 3.3,0.46 7.59,1.09 8.15,5.93 0.44,3.71 3.3,1.15 4.24,4.16 1.26,3.99 1.19,6.97 -1.83,9.86z"/>
      <path class="fil4 str0" d="M215.37 151.26c-0.75,1.66 -0.42,3.37 1.95,4.54"/>
      <path class="fil4 str0" d="M207.31 143.29c0,3.43 2.05,4.45 4.21,4.77"/>
      <path class="fil4 str0" d="M213.57 150.01c-0.91,0.54 -7.86,1.5 -8.02,2.7 0,0.91 2.31,1.5 1.76,2.93"/>
     </g>
    </g>
    <g>
     <g>
      <path class="fil2 str0" d="M261.56 147.53c-9.74,8.32 -29.11,8.02 -41.91,9.02 -11.22,0.88 -41.98,2.46 -48.19,-5.04 -0.25,-0.29 13.97,54.6 27.11,83.95 2.27,5.08 4.59,8.03 12.71,8.75 3.79,0.33 13.56,-1.55 17.01,-0.38 5.38,1.82 19.3,-0.52 21.59,-7.11 1.18,-0.25 0.22,-19.83 1.17,-23.07 0.02,-0.09 3.21,-21.58 3.21,-21.67 0,-7.91 11.43,-47.97 7.3,-44.45z"/>
      <path class="fil4 str0" d="M248.92 162.33c-0.73,3.57 -12.1,5.33 -13.72,0.73"/>
      <path class="fil4 str0" d="M223.89 163.58c0,4.47 -12.63,4.37 -13.76,1.09"/>
      <path class="fil4 str0" d="M201.06 166.24c-1.92,3.99 -13.47,4.19 -14.55,1.09"/>
      <path class="fil4 str0" d="M237.82 171.71c-0.89,3.59 -9.99,5.63 -12.52,1.41"/>
      <path class="fil4 str0" d="M211.38 175c-2.12,1.79 -3.77,1.87 -6.26,2.17 -2.46,0.31 -6.33,-0.29 -8.18,-1.96l-0.11 -0.21"/>
      <path class="fil4 str0" d="M225.61 182.82c-1.31,2.18 -6.83,4.71 -10.46,1.04"/>
      <path class="fil4 str0" d="M247.51 179.85c0.59,4.37 -11.15,5.71 -12.5,1.9"/>
      <path class="fil4 str0" d="M198.87 184.07c-1.18,4 -10.3,4.58 -11.84,0.89"/>
      <path class="fil4 str0" d="M240.63 192.05c-2.55,2.65 -8.76,2.82 -11.81,1.01"/>
      <path class="fil4 str0" d="M212.01 191.58c-2.34,1.56 -4.86,5.12 -13.77,0.78"/>
      <path class="fil4 str0" d="M224.83 198.78c-0.08,2.61 -6.43,3.98 -9.7,2.03"/>
      <path class="fil4 str0" d="M244.54 204.09c-0.33,2.07 -7.13,4.36 -10.11,1.2"/>
      <path class="fil4 str0" d="M209.82 204.72c-0.24,3.02 -8.69,4.17 -10.8,2.85 -0.21,-0.13 -1.24,-0.76 -1.4,-0.82"/>
      <path class="fil4 str0" d="M226.4 210.82c-0.67,2.54 -8.23,3.54 -9.82,-0.04"/>
      <path class="fil4 str0" d="M243.76 215.36c0.24,5.23 -10.85,3.77 -11.89,1.09"/>
      <path class="fil4 str0" d="M211.22 216.14c-0.29,2.37 -5.7,5.63 -10.99,2.55"/>
      <path class="fil4 str0" d="M226.55 221.61c-0.67,3.96 -9.82,3.28 -10.63,0.32"/>
      <path class="fil4 str0" d="M242.66 227.87c-1.78,2.9 -8.87,4.11 -11.73,0.63"/>
      <path class="fil4 str0" d="M212.16 230.84c0.15,3.16 -9.23,3.91 -10.32,0.79"/>
     </g>
     <path class="fil4 str2" d="M247.62 160.36c0.09,2.17 -6.18,3.94 -8.97,0.68 -0.11,-0.12 -0.21,-0.2 -0.26,-0.36"/>
     <path class="fil4 str2" d="M222.28 162.71c-2.6,4.06 -7.59,3.95 -8.61,0.31"/>
     <path class="fil4 str2" d="M196.78 165.05c-0.24,3.14 -4.75,5.05 -7.54,0.5"/>
     <path class="fil4 str2" d="M234.32 169.75c-1.33,2.77 -4.68,3.59 -6.99,0.88l-0.21 -0.1"/>
     <path class="fil4 str2" d="M209.45 172.56c-1.7,3.76 -7.72,3.78 -9.23,0.78"/>
     <path class="fil4 str2" d="M223.06 181.48c-1.18,2.84 -4.71,3.84 -6.28,0.18"/>
     <path class="fil4 str2" d="M196.31 182.89c-1.89,4.15 -6.84,2.89 -8.18,0.19"/>
     <path class="fil4 str2" d="M208.98 190.4c-1.43,2.6 -6.13,2.1 -7.56,-0.79l-0.11 -0.31"/>
     <path class="fil4 str2" d="M238.86 189.14c-0.17,5.26 -7.84,4.57 -8.45,0"/>
     <path class="fil4 str2" d="M223.37 198.06c-0.58,0.06 -3.65,3.89 -6.36,0.73l-0.21 -0.1"/>
     <path class="fil4 str2" d="M245.58 178.66c-2.11,4.42 -6.58,5.41 -8.39,-0.05"/>
     <path class="fil4 str2" d="M242.77 201.97c-2.82,5.15 -5.65,2.02 -7.67,0.16"/>
     <path class="fil4 str2" d="M225.33 209.09c-0.71,2.09 -3.74,4.88 -7.22,-0.43"/>
     <path class="fil4 str2" d="M206.79 202.28c-0.76,2.24 -1.17,4.85 -3.77,4.85 -1.89,0 -4.15,-1.83 -4.05,-2.97"/>
     <path class="fil4 str2" d="M242.45 214.02c-1.08,3.59 -7.56,3.12 -8.6,-0.94"/>
     <path class="fil4 str2" d="M224.93 219.8c0.13,2.58 -4.66,5.96 -6.72,0"/>
     <path class="fil4 str2" d="M208.2 214.02c-1.64,4 -3.59,6.4 -6.61,1.29l-0.12 -0.2"/>
     <path class="fil4 str2" d="M240.11 226.22c-4.04,6.8 -7.97,0.3 -7.67,-1.41"/>
     <path class="fil4 str2" d="M209.92 229.03c0,3.12 -4.08,4.37 -5.83,0.83"/>
     <path class="fil4 str2" d="M225.59 232.76c0,3.12 -4.07,4.36 -5.82,0.82"/>
    </g>
   </g>
   <g>
    <path class="fil8" d="M285.78 179.64c-4.67,0.59 -4.36,4.1 -4.42,5.22 -0.07,1.32 1.76,8.18 2.34,10.25 0.39,1.41 3.63,10.28 7.4,5 1.78,-2.49 3.37,-6.21 5.06,-8.79 2.61,-3.97 -2.51,-2.65 -3.91,-4.28 -1.16,-1.36 -1.57,-3.57 -0.56,-5.12 1.58,-2.43 3.13,-0.31 5.98,-0.31 0,-2.87 -1.59,-3.84 1.45,-6.58 1.85,-1.67 6.44,-0.1 6.83,2.22 0.71,4.21 -2.91,5.05 2.99,4.52 3.26,-0.29 6.75,5.76 0.24,6.83 -1.63,0.26 -4.89,6.69 -5.56,8.11 -2.45,5.19 -6.32,12.7 -9.66,16.43 -2.64,2.96 -7.65,8.9 -12.91,9.34 -1.29,0.11 -2.73,-0.83 -3.61,-1.92 -0.67,-0.83 7.06,-0.66 2.01,-2.19 -0.62,-0.19 -2.99,-1.5 -0.55,-1.41 2.91,0.12 -2.93,-3.22 -1.1,-3.53 3.02,-0.51 -0.69,0.39 -2.76,-2.76 -1.65,-2.5 -4.45,-10.84 -5.07,-14.31 -0.51,-2.79 -2.34,-14.34 -4.08,-15.58 -2.1,-1.52 -7.74,-1.13 1.01,-3.51 1.88,-0.51 12.71,-0.05 14.15,1.11 1.89,1.53 5,1.23 4.73,1.26z"/>
    <g>
     <path class="fil4 str0" d="M285.71 180.43c-6.61,0 -2.73,10.67 -1.56,14.42 3.87,12.39 7.59,4.67 11.18,-1.67 5.38,-9.51 -5.15,-0.36 -4.22,-10.25 0.19,-2.11 1.98,-3.66 5.97,-1.35 1.75,1.01 -2.2,-5.69 3.02,-7.09 4.17,-1.12 6.97,1.78 5.91,6.01 -0.34,1.4 -0.69,1.12 0.56,1.04 1.25,-0.09 3.52,-0.08 4.9,0.93 2.29,1.66 2.52,5.46 -2.01,6.38 -2.52,0.52 -6.37,10.17 -7.77,12.88 -4.8,9.31 -16.83,26.19 -25.05,19.37"/>
     <path class="fil4 str0" d="M281.33 219.23c-1.54,0.69 -3.12,-0.64 -3.44,-1.57"/>
     <path class="fil4 str0" d="M281.33 215.16c-1.51,0.89 -4.02,1.01 -4.69,-0.94"/>
     <path class="fil4 str0" d="M258.81 182.78c-0.17,-3.65 6.57,-4.47 7.97,0.03 1.44,4.6 4.58,28.45 10.9,29.9"/>
    </g>
   </g>
   <g>
    <path class="fil2 str0" d="M259.97 148.35c6.65,1.46 31,37.74 34.78,45.73 0.69,-1.24 0.98,-1.79 1.51,-2.96 -0.05,-0.26 -0.64,-1.31 -1.61,-2.89 -0.91,-0.09 -2.71,-0.24 -3.21,-1.35 -1.1,-2.43 -0.76,-3.58 -0.44,-4.48 -6.82,-10.67 -17.9,-27.35 -18.59,-28.11 -1.44,-1.6 -6.98,-12.15 -9.26,-9.49 -0.08,0.1 -6.46,2.83 -3.18,3.55z"/>
    <path class="fil2 str0" d="M302.83 200.1c2.17,2.75 2.6,5.03 2.88,7.35 0.29,2.39 0.69,5.49 -1.39,1.04 -0.65,-1.39 -1.39,-3.65 -3.24,-5.69 0.33,-0.47 1.4,-3.14 1.75,-2.7z"/>
   </g>
   <path class="fil4 str2" d="M276.97 46.55c-9.05,11.32 12.63,25.7 15.72,45.7 1.59,10.33 0.45,15.66 1.35,25.58 0.23,2.51 5.2,0.92 10.95,3.83 3.45,1.74 9.49,6.19 12.33,10.82 0.55,0.9 8.78,5.76 4.75,5.76 -4.85,0 -6.11,4.33 0.71,6.31 1.25,0.37 1,2.4 0.52,3.56"/>
   <path class="fil4 str2" d="M313.52 138.4c-16.44,9.7 -21.82,-6.31 -15.41,-8.53"/>
   <path class="fil4 str2" d="M290.21 160.92c-0.96,0.62 -2.57,4.34 -1.15,5.69 0.15,0.14 0.16,0 0.37,0.41"/>
   <path class="fil4 str2" d="M285.21 160.3c0,3.14 0.01,3.78 -2.14,6.31l-0.21 0.1"/>
   <path class="fil4 str2" d="M280.52 157.33c0.71,1.58 -0.16,4.01 -1.41,4.22"/>
   <path class="fil4 str2" d="M315.55 151.46c-1.41,-2.7 -6.36,-0.61 -6.8,1.33"/>
   <path class="fil4 str2" d="M236.01 71.53c-0.03,-0.19 -5.5,-14.05 -3.05,-10.71 3.72,5.07 3.6,5.37 17.95,13.27 12.19,6.71 29.75,30.45 37.32,43.61"/>
   <path class="fil4 str0" d="M284.89 117.26c-17.75,-14.79 -20.62,-27.15 -38.56,-40.68 -2.66,-2.02 -4.98,-4.66 -4.55,0.31 0.32,3.55 5.04,12.45 6.95,15.48 9.8,15.55 27.08,17.88 33.7,28.16 0.49,0.77 1.54,-1.04 2.46,-2.05 0.53,-0.58 0.59,-0.73 0,-1.22z"/>
   <path class="fil4 str2" d="M286.07 182.59c-1.47,0 -2.55,1.59 -2.98,2.82"/>
   <path class="fil4 str2" d="M261.19 182.44c2.59,0 3.31,1.78 4.19,3.91 0.08,0.19 0.04,0.41 0.04,0.62"/>
   <path class="fil4 str2" d="M261.04 185.72c1.33,0.22 1.81,1.42 2.19,2.5"/>
   <path class="fil4 str2" d="M295.14 182.44c-3.2,-1.9 -4.41,4.61 -0.47,4.06"/>
   <path class="fil4 str2" d="M304.06 180.09c0.17,-1.1 1.09,-4.38 -2.27,-4.38 -1.95,0 -3.37,1.85 -2.58,3.6"/>
   <path class="fil4 str2" d="M309.06 183.06c1.77,0 3.1,4.5 -1,4.5"/>
   <path class="fil4 str2" d="M304.99 190.65c-0.41,5.65 -13.79,31.79 -26.92,30.58"/>
   <path class="fil4 str2" d="M283.25 217.16c-3.44,2.01 -5.1,-0.78 -6.53,-0.7"/>
   <path class="fil4 str2" d="M249.7 239.22c-2.09,11.85 -10.33,15.9 -15.47,15.18 -3.18,-0.45 -5.85,-2.87 -6.26,-1.8 -0.41,0.95 0.27,5.25 5.86,6.78"/>
   <path class="fil4 str2" d="M247.96 258.51c-0.14,1.68 -1.53,3.54 -5.07,3.16"/>
   <path class="fil4 str2" d="M242.73 256.43c0.06,1.29 -0.05,2.97 -2.66,3.18"/>
   <path class="fil4 str2" d="M295.55 252.96c3.88,20.07 -0.81,18.84 -10.74,34.21 -2.97,4.61 -2.27,9.99 -0.55,14.68 2.62,7.1 2.87,9.61 7.04,18.02 2.16,4.34 6.06,6.81 12.18,7.69 5.1,0.73 4.68,7.5 1.45,7.41 -1.41,-0.04 -3.14,-1.98 -4.76,-2.62 -2.84,-1.12 -0.57,7.26 -6.91,6.6 -6.03,-0.63 -0.05,-9.57 -5.85,-5.54 -2.85,2 -10.57,-0.39 -4.61,-4.55"/>
   <path class="fil4 str2" d="M304.05 210.84c-2.02,30.35 -5.44,41.27 -29.64,56.32 -5.92,3.68 -4.65,-0.51 -7.43,9.04 -2.5,8.56 -9.48,15.72 -15.69,20.6 -8.32,6.53 -5.94,9.26 -0.27,20.09 2.02,3.86 2.92,11.95 5.48,12.83 0.71,0.25 4.47,-0.76 7.34,0.44 3.45,1.43 3.63,4.75 0.55,5.53 -1.85,0.47 -5.61,0.21 -2.89,3.73 1.82,2.36 -1.83,8.71 -7.53,4.54 -2.85,-2.09 -0.7,-7.89 -6.21,-3.89 -3.65,2.64 -10.27,-3.06 -2.68,-6.91"/>
   <path class="fil4 str2" d="M241.95 295.31c-3.69,-1.67 -4.84,1.8 -3.44,4.69"/>
  </g>
  <g id="_2824687622096">
   <g>
    <path class="fil8 str0" d="M557.34 191.82c-9.65,3.21 -22.98,16.1 -35.04,16.1 -4.69,0 -15.81,3.23 -16.53,-1.67 -0.7,-4.68 -6.07,-7.29 -9.32,-3.57 -1.37,1.57 -0.2,4.53 1.55,6.02 0.7,0.6 -4.15,-0.2 -5.96,1.87 -0.86,0.98 -1.59,3.48 0.34,5.48 3.22,3.35 7.33,-1.44 6.34,0.6 -3.01,6.17 6.51,10.91 8.21,0.91 0.79,-4.66 16.96,0.02 20.7,0.02 5.03,0 1.86,-2.19 7.82,-3.2 4.22,-0.71 19.91,-3.25 19.91,-8.44 0,-6.59 -0.25,-8.66 1.98,-14.12z"/>
    <path class="fil8 str0" d="M568.71 250.16c-2.75,4.11 -4.07,15.62 4.51,23.2 4.79,4.23 8,18.47 8,24.84 0,11.99 -5.81,9.9 -10.6,19.76 -2.19,4.49 -6.72,2.87 -8.34,5.82 -1.36,2.47 -1.12,5.6 2.25,5.74 4.44,0.18 3.49,-7.65 5.44,-2.32 1.05,2.85 6.11,2.98 7.1,-0.46 0.54,-1.86 -0.99,-5.48 2.46,-2.88 3.09,2.33 7.19,0.31 5.47,-3.87 -1.5,-3.63 -4.63,-1.7 -1.62,-7.25 3.91,-7.19 6.02,-8.18 7.77,-16.75 0.85,-4.19 3.34,-4.67 0.29,-9.49 -2.5,-3.94 2.14,-9.7 2.9,-13.74 1.13,-5.98 0.97,-9.67 -4.95,-13.46 -6.42,-4.12 -11.86,-4.44 -18.32,-7.49 -0.39,-0.19 -2.3,-1.74 -2.36,-1.65z"/>
    <g>
     <path class="fil8" d="M550.97 137.58c-0.16,-2.07 -1.91,-2.86 -2.84,-4.63 -0.99,-1.89 -1.18,-4.73 -2.01,-5.99 -5.41,-8.21 -13.92,-8.8 -12.65,-28.25 0.09,-1.37 0.35,-11.78 -0.47,-20.11 -0.36,-3.7 -0.31,-4.77 -1.11,-6.21 -0.65,-1.19 2.62,-2.36 6.67,4.03 3.12,4.93 1.99,13.13 8.36,20.96 2.77,3.39 7.22,12.23 8.34,20.27 1.14,8.19 1.39,16.92 -0.94,19.44 4.65,-0.72 3.23,-5.31 3.96,-15.91 0.61,-8.99 6.88,-19.95 11.15,-26.94 4.69,-7.66 6.94,-6.71 12.29,-14.13 2.84,-3.93 4.71,-9.11 6.05,-10.45 3.54,-3.54 1.43,11.45 -2.64,27.79 -1.73,6.94 -3.18,13.26 -9.65,22.98 -2.26,3.39 -5.63,7.3 -6.52,11.47 -1.09,5.07 2.29,6.59 4.36,9.54 1.98,2.81 5.49,6.8 8.56,12.58 4.79,9.03 11.77,21.59 16.03,32.62 4.72,12.2 6.49,22.7 6.24,28.45 -0.05,1.39 3.35,23.92 5.43,36.29 2.27,13.48 15.65,8.96 17.16,9.99 2.55,1.73 1.02,5.7 -7.61,5.22 -1.65,-0.09 2.34,0.91 0.13,2.08 -4.25,2.23 -4.63,0.23 -7.35,1.09 -0.7,2.02 -1.79,12.41 -0.93,16.04 1.08,4.59 4.94,6.38 5.75,8.99 0.77,2.49 -2.31,7.4 -4.65,10.97 -2.07,3.16 -1.61,6.5 -3.89,13.18 -1.59,4.66 -3.83,8.98 -4.65,14.89 -0.46,3.29 0.75,6.87 0.48,7.65 -1.56,2.57 -4.32,6.1 -9.54,-0.52 -0.54,1.36 -1.24,4.62 -2.16,5.15 -1.46,0.83 -3.37,0.49 -4.18,-0.32 -2.81,-2.8 -0.36,-6.23 -0.66,-7.17 -2.07,0.56 -5.28,4.52 -7.31,-0.42 -0.58,-1.39 1.81,-4.47 2.8,-5.05 2.53,-1.5 3.66,-0.22 5.45,-0.72 3.01,-0.84 5.97,-4.69 7.75,-9.07 5.12,-12.61 5.9,-21.25 2.31,-34.62 -1.74,-6.46 -10.66,-25.5 -12.49,-26.25 -19.2,-5.48 -27.7,-28.76 -28.94,-36.31 -2.81,-17.24 -4.39,-38 2.38,-52.92 2.93,-6.46 -3.99,-2.82 -10.35,-0.57 -1.96,0.69 -8.66,2.15 -10.06,0.33 -0.68,-0.88 1.83,-2.24 4.5,-4.52 0.14,-0.12 2.97,-4.5 0.3,-5.31 -0.99,-0.3 -0.45,1.28 -3.67,3.22 -2.86,1.72 -6.33,1.71 -7.88,0.84 -1.35,-0.75 -3.56,-2.01 -3.48,-3.64 0.06,-1.07 1.82,-4.33 2.65,-6.44 2.02,-5.13 4.9,-10.4 9.15,-14.61 3.56,-3.53 7.29,-4.63 10.38,-4.98z"/>
     <path class="fil4 str0" d="M550.97 137.58c-0.46,-1.18 -3.77,-5.22 -3.99,-7.68 -0.32,-3.7 -10.5,-12.42 -12.34,-17.6 -2.83,-7.99 0.06,-32.7 -2.06,-37.8 -0.7,-1.68 -1.66,-6.36 4.11,-0.89 2.39,2.26 3.67,7.5 2.64,10.48"/>
     <path class="fil4 str0" d="M542.79 81.12c0,2.53 1.28,6.13 -2.47,7.43"/>
     <path class="fil4 str0" d="M545.77 85.83c0,6.43 -3.53,5.75 -3.97,6.93"/>
     <path class="fil4 str0" d="M547.25 90.78c0,2.15 -0.09,4.62 -2.47,5.45"/>
     <path class="fil4 str0" d="M549.23 96.47c0,3.6 -1.42,2.32 1.42,7 5.3,8.73 5.12,19.2 5.52,29.16 0.05,1.27 -0.86,3.26 -1.19,3.97"/>
     <path class="fil4 str0" d="M591.23 81.57c-2.78,1.92 -0.62,1.43 -3.96,2.97"/>
     <path class="fil4 str0" d="M590.24 86.77c0,0 -3.03,1.14 -3.46,1.48"/>
     <path class="fil4 str0" d="M588.26 90.98c-2.14,1.12 -2.23,5.63 -2.74,8.15 -0.95,4.63 -4.09,12.03 -6.6,16.18 -1.72,2.83 -8.56,12.17 -8.96,14.57 -0.56,3.29 -3.12,6.66 2.7,6.66"/>
     <path class="fil4 str0" d="M569.69 137.78c2.47,1.46 3.02,0.61 4.93,0.22l0.27 0.03"/>
     <path class="fil4 str0" d="M564 172.45c-4.96,-7.17 -21.16,5.94 -25.13,0.37 -1.26,-1.77 6.78,-3.48 5.75,-8.34 -0.21,-1 -0.53,-1.8 -1.17,-0.96 -6.17,7.97 -18.08,3.24 -13.75,-2.84 0.27,-0.39 2.7,-8.63 6.64,-13.41 5.5,-6.67 5.21,-8.31 18.64,-10.67 5.34,-0.94 1.35,-14.74 4.69,-22.84 3.44,-8.34 5.8,-14.9 14.1,-25.43 0.92,-1.16 7.92,-8.26 9.99,-12.75 0.02,-0.04 5.99,-11.97 5.99,-2.93 0,8.42 -0.34,3.68 -1.98,8.42"/>
     <path class="fil4 str0" d="M558.55 171.95c1.75,0.18 1.48,2.47 1.48,3.96"/>
     <path class="fil4 str0" d="M572.11 141.08c5.07,-0.38 18.06,28.92 18.75,30.01 14.18,22.38 12.25,39.63 17.01,62.97 1.39,6.86 0.34,23.44 7.88,26.05 6.18,2.13 14.18,-1.39 11.01,3.95 -1.4,2.37 -3.17,3.23 -5.69,3.23"/>
     <path class="fil4 str0" d="M616 266.54c0.85,3.04 5.51,1.99 7.42,1.99"/>
     <path class="fil4 str0" d="M613.03 270.01c1.49,0.72 2.4,1.28 3.96,0.74"/>
     <path class="fil4 str0" d="M611.79 273.23c-1.74,7.8 -0.9,14.55 4.04,19.49 4.92,4.92 -4.42,10.78 -6,20.11 -1.45,8.59 -7.34,16.73 -5.72,25.77 0.87,4.87 -4.41,8.97 -8.66,3.9 -0.84,-1 -0.96,-2.62 -1.37,0.06 -1.12,7.31 -9.14,4.08 -7.19,-1.87 0.58,-1.78 0.87,-2.03 -0.54,-1.14 -1.27,0.79 -3.8,2.31 -6.01,-0.32 -1.38,-1.65 0.73,-7.04 5.94,-6.82 8.9,0.38 14.3,-19.85 13.87,-28.72 -0.48,-9.99 -1.08,-19.47 -14.16,-41.2 -33.2,-9.16 -36.35,-64.99 -27.44,-88.31"/>
     <path class="fil4 str0" d="M566.84 112.82c3.46,-6.47 2.75,-13.01 9.58,-19.57 2.6,-2.5 4.99,-7.71 4.23,-1.48 -0.6,4.87 -10.16,31.41 -12.65,34.42 -1.51,1.82 -2.32,5.02 -2.23,7.45 0.25,6.15 -7.84,-4.16 1.07,-20.82z"/>
    </g>
    <g>
     <path class="fil8" d="M583.14 195.42c-4.81,-0.87 -8.09,14.06 -9.66,18.6 -0.49,1.44 -23.91,-0.71 -23.64,-4.95 0.11,-1.78 -1.01,-4.76 -3.1,-4.94 -3.75,-0.33 -4.89,1.07 -4.34,4.21 0.23,1.3 0.79,2.03 -1.61,1.83 -3.12,-0.26 -4.77,5.08 -2.59,6.58 2.06,1.41 3.76,0.43 4.19,1.02 0.81,1.11 -1.43,1.27 -0.86,4.06 0.49,2.39 4.85,4.46 7.45,1.86 1.95,-1.95 -1.13,-5.67 7.03,-4.51 6.22,0.88 11.66,1.95 19.01,5.04 2.01,0.84 3.14,1.53 5.52,1.44 3.29,-0.13 2.61,-9 3.31,-12.9 0.56,-3.07 2.57,-17.03 -0.71,-17.34z"/>
     <path class="fil4 str0" d="M569.27 190.37c8.07,0 5.78,19.11 4.21,23.65 -0.49,1.44 -23.91,-0.71 -23.64,-4.95 0.11,-1.78 -1.01,-4.76 -3.1,-4.94 -3.75,-0.33 -4.89,1.07 -4.34,4.21 0.23,1.3 0.79,2.03 -1.61,1.83 -3.12,-0.26 -4.77,5.08 -2.59,6.58 2.06,1.41 3.76,0.43 4.19,1.02 0.81,1.11 -1.43,1.27 -0.86,4.06 0.49,2.39 4.85,4.46 7.45,1.86 1.95,-1.95 -1.13,-5.67 7.03,-4.51 6.22,0.88 11.66,1.95 19.01,5.04 2.01,0.84 3.14,1.53 5.52,1.44 3.29,-0.13 2.61,-9 3.31,-12.9 0.56,-3.07 4.06,-14.05 7.59,-15.11 0.97,-0.3 1.74,-0.09 2.59,0.31 0.03,0.27 0.38,0.98 0.38,1.45"/>
     <path class="fil4 str0" d="M588.84 202.14c0.09,-1.04 3.44,-2.21 3.34,-0.99"/>
     <path class="fil4 str0" d="M590.32 203.87c0.07,-0.61 1.44,-0.87 1.98,-0.87"/>
    </g>
    <g>
     <g>
      <path class="fil9 str0" d="M628.28 89.85c0,0 0.25,-0.47 -0.18,-0.72 -0.68,-0.4 -0.23,-1.28 0.48,-0.64 0.84,0.75 -0.37,-1.16 0.68,-1.03 1.06,0.14 0.13,0.14 0.5,-0.92 0.11,-0.3 2.29,-0.15 1.48,1.13 -0.36,0.57 -0.57,2.98 -2.05,2.73 -0.05,-0.01 -0.91,-0.5 -0.91,-0.55z"/>
      <path class="fil9 str0" d="M622.53 98.44c-3.3,-0.73 -2.53,-5.12 1.69,-4.99 0.87,0.03 7.82,-5.32 6.48,-7.2 -0.71,-1 1.04,-2.8 1.66,0.22 0.04,0.17 -0.21,0.52 -0.19,0.68 0.82,4.95 -2.16,7.09 -4.29,8.41 -1.44,0.89 -0.96,3.5 0.22,6.35 1.55,3.76 0.87,3.83 3.03,7.24 2.67,4.21 1.79,6.25 0.39,9.69 -0.58,1.41 -1.9,4.4 -2.87,6.1 -1.65,2.9 -3.08,5.4 -1.85,6.77 2.62,2.89 -0.79,5.64 1.54,11.3 0.08,0.2 4.53,20.82 4.53,21.05 0,3.47 -0.52,13.26 -3.45,14.86 -1.75,0.96 -15.95,3.35 -17.11,0 -3.36,-9.7 2.42,-11.38 0.68,-15.6 -1.89,-4.59 -2.78,-12.45 0.89,-16.53 2.78,-3.07 -9.37,-3.5 -4.23,-13.86 1.61,-3.25 6.98,-3.28 3.72,-9.23 -3.1,-5.64 -0.36,-7.57 0.74,-9.1 2.74,-3.82 0.58,-2.67 -0.89,-4.06 -2.6,-2.47 -1.22,-9.97 -0.35,-13.07 0.04,0.01 -1.86,2.9 -3.96,1.28 -0.73,-0.55 -1.01,-1.61 -0.89,-4.52 0.22,-5.31 -1.82,-2.26 -3.44,-6.68 -0.5,-1.35 -0.6,-2.63 0.78,-1.28 1.16,1.13 -0.5,-1.7 0.7,-2 0.45,-0.12 0.47,0.41 0.76,0.76 0.54,0.65 0.83,1.09 0.57,-0.63 -0.29,-1.95 1.77,-0.12 2,-0.17 0.1,-0.03 -0.47,-1.59 -0.1,-2.4 0.41,-0.91 1.76,-0.95 2.12,1.94 0.06,0.53 1.37,1.45 0.9,2.79 -3.26,9.41 2.94,6.65 3.94,14.85 0.3,2.4 1.85,5.62 4.09,6.95 1.64,0.97 -1.09,8.68 -1.09,12.62 0,1.73 -1.4,7.47 1.44,6.89 -0.25,-1.97 0.09,-10.03 6.66,-13.4 1.67,-2.81 -5.29,-2.45 -4.04,-8.62 0.08,-0.4 1.33,-6.94 -0.78,-7.41z"/>
      <path class="fil4 str0" d="M608.38 138.07c0.34,2.75 3.91,6.73 7.15,4.63"/>
      <path class="fil4 str0" d="M620.69 127.87c-6.44,2.22 -8.27,12.01 -0.39,13.35"/>
      <path class="fil4 str0" d="M618.63 147.35c3.39,0.73 2.22,14.18 1.14,17.09"/>
      <path class="fil4 str0" d="M613.55 166.17c1.75,-1.83 2.53,1.37 3.59,1.74"/>
      <path class="fil4 str0" d="M621.6 169.76c0,-3.18 0.87,-5.25 5.2,-4.32"/>
      <path class="fil4 str0" d="M613.3 144.46c0.63,0.07 0.42,0.19 1.36,0.19 0.48,0 0.95,0 1.43,0"/>
      <path class="fil4 str0" d="M614.26 146.17c0.52,0.04 0.99,0.15 1.51,0.15l0.07 0"/>
      <path class="fil4 str0" d="M611.07 87.82c-2.35,0.79 -2.88,2.59 -0.59,6.6"/>
      <path class="fil9 str0" d="M618.62 201.03c0.03,0.04 6.5,13.59 6.56,13.76 0.25,0.72 -0.33,2.23 -0.28,4.21 0.07,2.06 1.14,3.01 2.13,5.65 0.57,1.53 2.02,2.16 1.62,0.64 -0.32,-1.25 -1.01,-3.69 -0.37,-2.39 0.27,0.55 1.11,2.15 1.11,0.44 0,-0.79 -1.96,-6 -1.28,-5.41 0.86,0.73 1.37,3.86 1.9,2.31 0.17,-0.49 -0.2,-2.03 -0.33,-3.5 -0.16,-1.75 -0.17,-3.49 -1.36,-4.34 -3.74,-2.7 -3.84,-9.59 -5.75,-13.94 -1.16,-2.67 1.79,-12.17 1.13,-14.74 -0.07,-0.02 -2.39,0.5 -3.11,0.29 -6.79,-2.08 -1.92,4.71 -2.72,9.23 -0.29,1.64 -0.08,6.47 0.75,7.79z"/>
      <path class="fil9 str0" d="M634.61 192.6c0.38,1.16 -0.18,4.54 0.67,6.9 0.13,0.37 1.55,3.18 1.37,4.28 -0.5,2.93 -1.76,2.6 -0.25,6.12 0.2,0.47 -0.09,2.67 1.03,2.06 0.47,-0.25 -0.1,-2.37 0.09,-3.23 0.14,-0.64 -0.08,-1.45 1.66,-0.07 1.05,0.83 1.75,4 2.71,5.08 0.88,0.99 1.89,0.4 1.34,-0.22 -1.31,-1.5 -0.77,-2.26 -1.35,-3.11 -0.77,-1.13 0.41,-0.38 0.82,0.88 0.13,0.41 0.73,1.59 1.39,1.99 0.65,0.39 1.63,-0.18 0.87,-0.74 -0.96,-0.71 -1.53,-3.66 -1.12,-2.85 0.46,0.91 0.99,0.75 0.78,-0.4 -0.36,-1.97 -1.4,-2.57 -2.94,-3.99 -2.59,-2.38 -3,-5.77 -3,-9.25 0,-4.23 0.6,-4.39 -2.51,-8.57 -0.41,-0.55 -3.4,-4.75 -4.22,-4.75 -1.36,0 -4.13,3.33 -2.65,4.62 1.41,1.22 4.99,4.3 5.31,5.25z"/>
      <path class="fil10 str0" d="M616.03 192.84c-0.54,0.26 -3.74,0.45 -4.47,0.1 -0.63,-0.3 0.96,-0.33 1.3,-0.62 0.39,-0.32 2.32,-0.41 2.32,-2.38 0,-0.79 -4.81,-1.67 -2.02,-2.22 1.85,-0.36 -3.24,-2.16 -3.53,-3.82 -0.31,-0.08 3.58,0.38 3.71,0.07 0.85,-2 -0.75,-4.43 0.17,-4.77 0.1,-0.04 0.96,1.46 1.88,1.09 0.17,-0.56 1.02,-3.35 1.77,-2.43 0.61,0.74 3.36,2.37 3.23,0.57 -0.08,-1.25 1.74,-4.56 1.71,-3.71 -0.1,2.92 2.05,6.01 4.07,2.11 0.21,-0.4 1.97,-1.91 1.65,-0.87 -1,3.25 1.36,3.28 3.22,4.17 0.79,0.38 4.65,-1.65 1.81,1.16 -0.28,0.27 -3.54,1.82 -1.68,3.05 1,0.65 4.63,-0.37 2.43,1.31 -1.17,0.89 -1.72,0.14 -3.77,2.51 -0.48,0.56 -0.88,2.39 0.11,3.14 2.01,1.52 1.25,1.14 -0.71,1.23 -1.19,0.06 -3.23,-2.35 -1.84,1.98 0.15,0.45 -0.11,4.25 -0.96,0.76 -0.75,-3.14 -4.55,-3.91 -4.55,1.59 0,1.79 -1.27,-2.98 -1.3,-3.06 -0.42,-0.99 -1.84,-1.01 -2.77,-0.2 -0.26,0.24 -2.21,2.11 -2.21,1.41 0,-0.41 0.19,-2.05 0.43,-2.17z"/>
      <path class="fil4 str0" d="M628.28 222.9c-0.51,-0.6 -1.27,-1.97 -1.48,-2.82"/>
      <path class="fil4 str0" d="M643.72 209.56c-0.16,-0.55 -0.64,-1.42 -1.21,-1.84"/>
      <path class="fil4 str0" d="M620.78 185.33c-3.08,1.56 -1.64,5.76 -4.75,7.51"/>
      <path class="fil4 str0" d="M621.95 185.92c1.28,0.99 2.03,6.06 0.78,7.57"/>
      <path class="fil4 str0" d="M622.95 185.07c1.98,-0.53 1.55,6.1 4.75,6.87"/>
      <path class="fil4 str0" d="M624.62 184.34c1.13,2.08 4.59,3.1 6.8,2.34"/>
     </g>
     <path class="fil2" d="M613.19 151.54c1.42,2.05 1.69,-0.94 2.6,-0.86 0.23,-1.09 0.01,1.78 1.24,1.73 0.94,-0.04 3.3,2.39 0.01,1.72 -1.81,-0.37 1.9,2.74 -1.12,2.74 -1.53,0 -0.28,-2.64 -2.64,-1.15 -1.24,0.79 -2.03,-1.16 0.04,-1.08 0.87,0.03 -0.6,-1.29 -0.13,-3.1z"/>
     <path class="fil2" d="M616.91 159.47c-0.26,0.63 -2,3.03 -0.37,3.09 1.28,0.05 0.37,-3.08 0.37,-3.09z"/>
     <path class="fil2" d="M619.01 166.83c2.19,0.82 -0.37,6.62 -0.37,2.29 0,-0.35 0.74,-2.15 0.37,-2.29z"/>
     <path class="fil2" d="M618.02 170.11c-0.24,0.63 -2.63,2.93 -0.25,3.81 1.91,0.71 0.25,-2.92 0.25,-3.81z"/>
    </g>
    <g>
     <path class="fil6" d="M547.42 147.97c-0.13,0.15 0.02,0.62 0.02,0.63 0.21,0.05 0.47,0.66 2.1,0.44 1.3,-0.18 4.34,1.82 6.12,1.94 2.52,0.18 3.47,-0.7 4.31,-2.9 0.67,-1.76 0.19,-5.31 -1.76,-6.01 -2.95,-1.05 -5.7,-1.54 -7.58,1.28 -0.55,0.82 -2.39,4.12 -2.82,4.44 -0.09,0.07 -0.36,0.14 -0.39,0.18z"/>
     <path class="fil4 str0" d="M546.07 149.5c-0.15,-1.37 2.06,-1.73 2.7,-3.01 1.16,-2.33 2.1,-5.36 5.57,-5.38 4.08,-0.03 6.67,2.18 5.95,6.29 -0.31,1.82 -1.67,3.88 -3.75,3.92 -3.04,0.06 -6.61,-3.88 -8.92,-1.24"/>
     <path class="fil7 str0" d="M554.93 147.11c-1.76,0 -2.02,-0.66 -2.37,-2.34 -0.29,-1.42 3.76,-1.76 3.85,0.49 0.03,0.76 -1.48,0.29 -1.48,1.85z"/>
     <path class="fil7 str0" d="M534.03 158.95c1.48,0.28 2.59,2.77 0.53,3.73 -1.63,0.76 -2.12,-0.21 -3.48,0.58 -0.51,0.56 2.27,5.79 -0.38,3.16 -1.02,-1.02 -2.14,-3.51 -1.93,-4.85 0.26,-1.62 3.63,-2.92 5.26,-2.62z"/>
    </g>
    <path class="fil7 str0" d="M618.05 87.68c-2.75,2.22 -3.59,11.12 -11.14,17.29 -8.68,7.09 -10.76,23.13 -12.83,24.48 -2.88,1.88 -4.22,-1.15 -4.01,4.29 0.12,2.95 -21.81,32.73 -23.23,41.15 -0.42,2.45 -14.54,33 -16.8,34.93 0.91,0.77 1.2,1.48 3.46,2.07 1.18,-2.37 14.36,-26.6 14.66,-26.77 0.97,-0.6 4.87,-1.17 1.2,-2.44 -1.38,-3.97 14.9,-36.59 19.89,-40.85 0.09,-0.07 11.66,-20.81 14.36,-23.81 0.09,-0.1 3.77,-6.48 3.8,-6.57 1.72,-4.99 21.1,-29.88 17.95,-34.3 -1.73,-2.43 2.6,-8.69 -5.2,-3.96 -2.65,1.6 0.53,12.37 -2.11,14.49z"/>
    <path class="fil7 str0" d="M541.49 221.63c-3.04,5.73 -10.62,21.6 -14.08,25.07 -2.65,2.65 -1.55,7.86 -5.29,11.05 -1.9,1.62 -11.2,27.7 -10.64,29.31 0.07,0.02 6.41,1.12 6.35,-0.41 -0.57,-14.33 3.06,-13.09 6.93,-24.27 1.17,-3.37 11.46,-25.91 13.87,-26.75 6.42,-2.22 4.47,-9.57 6.72,-10.6 -2.17,0.09 -3.57,-1.65 -3.86,-3.4z"/>
    <path class="fil4 str0" d="M611.65 99.68c0.14,-0.13 3.63,0.99 4.39,0.1 0.43,-0.5 1.76,-0.34 1.12,-2.43 -0.08,-0.27 -0.69,-0.72 -0.69,-0.82l0.15 0.06"/>
    <path class="fil4 str0" d="M614.19 95.05c2.09,1.68 2.49,2.75 5.37,3.69 1.23,0.41 9.62,3.59 9.03,0.7 -0.04,-0.23 -0.93,-1.04 -1.37,-1.22"/>
    <path class="fil4 str0" d="M613.85 99.08c1.39,1.26 7.88,1.28 8.96,-0.37l0.07 -0.11"/>
    <path class="fil4 str0" d="M612.98 101.19c1.81,0 3.26,0.13 4.95,-0.26 0.89,-0.21 2.67,-0.06 3.88,-0.82 0.19,-0.13 1.29,-0.43 1.48,-1.05"/>
    <path class="fil4 str0" d="M622.88 98.6c0.94,-0.81 3.38,-0.36 4.18,-1.75"/>
   </g>
   <path class="fil4 str2" d="M532.51 166.32c2.98,0.74 5.76,0.01 8.2,-1.59 1.48,-0.98 3.01,-4.66 4.71,-1.54 3.4,6.25 -8.35,9.14 -5,9.84 5.38,1.12 12.34,-4.57 21.18,-3.48 1.23,0.15 2.61,0.58 3.19,1.75"/>
   <path class="fil4 str2" d="M545.63 147.62c2.73,-0.38 3.95,-8.56 10.28,-7.69 3.81,0.53 6.45,3.73 5.51,7.02 -2.79,9.7 -10.45,2.76 -12.8,3.53"/>
   <path class="fil4 str2" d="M533.13 72.59c3.34,8.77 1.4,20.48 1.63,28.57 0.55,19.41 13.09,17.66 16.69,35.57"/>
   <path class="fil4 str2" d="M564.21 131.16c0,-1.04 0.51,-3.02 1.73,-3.47"/>
   <path class="fil4 str2" d="M563.46 128c0.15,-1.22 1.43,-1.86 2.54,-1.86"/>
   <path class="fil4 str2" d="M563.77 125.15c-0.03,-0.9 1.1,-1.9 2.04,-1.86 0.49,0.02 0.36,-0.2 1.12,0.07"/>
   <path class="fil4 str2" d="M588.1 70.68c-2.34,5.75 -5.2,11.1 -9.72,15.28 -8.26,7.66 -18.74,20.75 -19.12,40.97 -0.01,0.21 -0.31,8.78 -2.24,9.92 -2.87,2.14 -11.13,-0.55 -17.58,8.05 -2.28,3.04 -7.69,11.95 -7.64,13.49"/>
   <path class="fil4 str2" d="M560.99 171.95c1.08,1.04 0.99,1.14 0.99,2.48"/>
   <path class="fil4 str2" d="M563.09 166.26c1.79,0.23 3.9,1.76 3.9,3.59"/>
   <path class="fil4 str2" d="M567.24 163.04c0.94,0.15 2.55,1.81 2.23,3.16"/>
   <path class="fil4 str2" d="M503.29 204.33c-2.29,-5.37 -9.55,-1.37 -4.82,2.97"/>
   <path class="fil4 str2" d="M496.36 210.09c-6.47,1.48 -3.78,7.81 1.11,5.51"/>
   <path class="fil4 str2" d="M499.21 217.52c-1.22,2.68 3.77,8.96 7.3,-0.93 1.6,-4.47 17.19,-0.16 20.99,-0.31 4.01,-0.16 5.11,-3.78 9.76,-4.17"/>
   <path class="fil4 str2" d="M572.87 189.54c5.26,4.31 3.68,17.39 2.23,23.27 -1.24,5.08 -5.69,3.16 -12.81,2.22 -7.11,-0.94 -14.23,-2.89 -13.37,-6.55 0.65,-2.78 -5.33,-5.45 -5.33,-0.19 0,2.16 -0.6,2.87 -3.27,2.87 -1.75,0 -4,5.5 1.73,5.5 1.41,0 2.23,0.73 0.99,2.47 -1.24,1.74 1.36,6.86 4.97,3.24 1.58,-1.58 0.51,-4.36 4.31,-4.36"/>
   <path class="fil4 str2" d="M589.96 200c1.83,-2.14 4.38,0.67 4.58,1.27"/>
   <path class="fil4 str2" d="M589.78 202.94c0.04,-0.48 1.1,-0.93 1.61,-0.93 0.56,0 2.4,-0.05 2.6,0.53"/>
   <path class="fil4 str2" d="M591.11 205.29c-0.04,-1.02 1.68,-1.21 1.95,-0.51"/>
   <path class="fil4 str2" d="M569.35 192.73c1.36,0 3.01,1.56 2.6,3.46"/>
   <path class="fil4 str2" d="M568.73 194.71c0.81,-0.07 1.73,1.2 1.42,2.04"/>
   <path class="fil4 str2" d="M569.07 255.36c-4.09,7.8 7.08,14.55 9.69,22.93 4.13,13.23 5.09,24 1.03,29.5 -1.14,1.53 -3.36,3.43 -5.47,6.16 -2.84,3.68 -3.79,7.81 -8.34,8.57 -5.06,0.85 -4.2,8.99 1.19,4.47"/>
   <path class="fil4 str2" d="M570.52 326.26c2.93,3.71 6.13,1.01 5.64,-1.36"/>
   <path class="fil4 str2" d="M582.84 319.57c4.35,2.82 -0.88,5.26 -3.09,3.22"/>
   <path class="fil4 str2" d="M590.15 246.9c-10.43,14.33 10.24,29.55 11,47.75 0.62,14.91 -1.39,29.18 -10.51,37.89 -2.51,2.41 -3.97,-0.04 -7.13,1.43 -2.28,1.06 -4.35,7.41 2.03,5.21"/>
   <path class="fil4 str2" d="M587.98 340.93c-1.23,2.84 1.63,7.08 4.64,3.22 1.08,-1.38 0.46,-3.02 0.85,-3.96 0.7,-1.72 2.24,0.58 2.84,1.49 2.78,4.2 8.24,-0.03 6.38,-3.78"/>
   <path class="fil4 str2" d="M611.75 295.43c0.48,-0.9 3.28,-2.39 2.86,0.99 -0.04,0.35 -0.81,1.6 -1.12,1.74"/>
   <path class="fil4 str2" d="M615.96 264.36c2.16,1.95 7.8,2.23 9.74,-0.04l0.17 -0.08"/>
   <path class="fil4 str2" d="M611.51 266.84c1.3,1.14 2.91,1.48 4.58,1.48"/>
   <path class="fil4 str2" d="M571.28 141.37c4.35,3.93 5.27,5.37 7.42,9.7"/>
   <path class="fil4 str2" d="M581.6 156.24c10.27,20.41 17.06,28.42 21.53,55.71 1.01,6.18 2.14,41.19 9.81,47.12"/>
   <path class="fil4 str2" d="M578.82 264.49c1.7,-0.77 5.1,1.96 5.45,2.97"/>
   <path class="fil4 str2" d="M579.69 268.51c0.91,-0.41 1.52,0.69 2.3,1.23 0.01,0 0.49,0.73 0.55,0.82"/>
   <path class="fil4 str2" d="M580.43 271.61c0.73,0 1.26,0.09 1.43,0.92l0 0.07"/>
   <path class="fil4 str2" d="M577.34 222.65c0.13,0.59 3.66,1.31 3.77,-1.61 0.01,-0.2 -0.07,-0.06 -0.06,-0.25"/>
   <path class="fil4 str0" d="M585.99 262.49c-3.71,-3.41 -6.28,-9.61 -4.61,-14.2"/>
  </g>
 </g>
</svg>
