<?xml version="1.0" encoding="UTF-8"?>
<!DOCTYPE svg PUBLIC "-//W3C//DTD SVG 1.1//EN" "http://www.w3.org/Graphics/SVG/1.1/DTD/svg11.dtd">
<!-- Creator: CorelDRAW 2020 (64-Bit) -->
<svg xmlns="http://www.w3.org/2000/svg" xml:space="preserve" width="800px" height="800px" version="1.1" style="shape-rendering:geometricPrecision; text-rendering:geometricPrecision; image-rendering:optimizeQuality; fill-rule:evenodd; clip-rule:evenodd"
viewBox="0 0 788.18 788.18"
 xmlns:xlink="http://www.w3.org/1999/xlink"
 xmlns:xodm="http://www.corel.com/coreldraw/odm/2003">
 <defs>
  <style type="text/css">
   <![CDATA[
    .str4 {stroke:#FEFEFE;stroke-width:1.23;stroke-miterlimit:22.9256}
    .str3 {stroke:#2B2A29;stroke-width:1.23;stroke-miterlimit:22.9256}
    .str6 {stroke:#E31E24;stroke-width:1.23;stroke-miterlimit:22.9256}
    .str5 {stroke:black;stroke-width:1.23;stroke-miterlimit:22.9256}
    .str0 {stroke:#2B2A29;stroke-width:2.33;stroke-miterlimit:22.9256}
    .str2 {stroke:#FEFEFE;stroke-width:2.05;stroke-miterlimit:22.9256}
    .str1 {stroke:#2B2A29;stroke-width:2.05;stroke-miterlimit:22.9256}
    .fil2 {fill:none}
    .fil6 {fill:#FEFEFE}
    .fil8 {fill:#2B2A29}
    .fil9 {fill:#E31E24}
    .fil10 {fill:#00A2D9}
    .fil7 {fill:#008DD2}
    .fil11 {fill:black}
    .fil0 {fill:#DBBD93}
    .fil3 {fill:#EDCA3D}
    .fil4 {fill:#EDCA3D}
    .fil5 {fill:white}
    .fil1 {fill:white}
   ]]>
  </style>
 </defs>
 <g id="Layer_x0020_1">
  <metadata id="CorelCorpID_0Corel-Layer"/>
  <rect class="fil0" width="788.18" height="788.18"/>
  <path class="fil1" d="M247.15 645.35c-17.96,0.29 -21.95,-2.72 -27.37,-5.9 -5.09,-2.99 -10.91,2.62 -10.48,-6.7 0.28,-5.95 -11.45,-12.23 -11.09,-1.77 0.14,4.14 5.07,6.66 -5.42,1.3 -6.01,-3.06 -9.53,11.65 -2.49,8.81 3.54,-1.42 12.49,-2.36 2.13,1.82 -4.97,2.01 -1.29,7.89 4.29,8.63 4.04,0.54 6.38,-2.55 7.31,-3.04 1.98,-1.04 2.46,2.87 10.88,3.6 20.48,1.77 24.72,10.75 39.55,18.98 0.73,0.41 -8.11,-26.14 -7.31,-25.73z"/>
  <path class="fil1" d="M217.29 596.96c-2.55,3.78 -9.57,4.5 -11.64,4.73 -3.64,0.39 -8.62,-2.42 -7.84,0.46 0.11,0.41 2.29,1.89 4.25,2.92 0.34,0.17 4.53,1.63 8.91,1.01 2.48,-0.36 5.5,-2 7.4,-3.09 1.06,-0.61 2.01,-3.97 -1.08,-6.03z"/>
  <path class="fil1" d="M280.13 560.82c0.12,-1.05 -4.89,-22.15 -9.03,-21.46 -8.57,1.41 -14.28,10.54 -17.77,17.86 -0.25,0.53 4,10.54 5.61,14.95 0.42,1.13 20.16,-9.3 21.19,-11.35z"/>
  <path class="fil1" d="M571.91 734.92c0.07,0 -24.05,-44.6 -27.99,-45.18 -13.99,-2.03 -46.11,-7.05 -45.56,-10.23 1.58,-9.24 3.83,-24.16 5.6,-22.84 3.96,2.96 8.46,8.28 11.36,8.95 8.21,1.9 20.03,9.73 31.05,6.87 5.93,-1.53 11.52,-4.62 12.97,2.17 1.25,5.82 2.77,17.06 3.16,18.63 2,8.11 11.81,19.61 15.41,24.35 7.15,9.42 2.51,10.49 -0.74,13.44 -0.64,0.59 -4.83,3.03 -5.26,3.84z"/>
  <path class="fil1" d="M551.89 750.36c-5.75,-0.76 -3.27,-11.83 0.55,-14.05 0.63,-0.37 5.12,-3.29 5.1,-3.33 -1.48,-2.1 0.62,-4.67 0.52,-7.33 -0.31,-8.88 -2.3,-3.56 -8.44,-11.2 -2.09,-2.59 -7.43,-11.01 -10.69,-11.45 -1.91,-0.26 -12.22,-6.59 -14.77,-4.37 -4.96,4.31 -23.3,7.78 -39.35,4.73 -11.75,-2.22 -14.01,-11.57 -17.34,-13.74 -3.11,-2.02 -14.38,-6.22 -24.71,-10.29 -4.91,-1.94 -8.08,-6.11 -13.39,-4.12 -21.21,14.89 -34.08,17.06 -60.33,16.46 -28.06,-0.64 -30.26,-4.13 -55.99,-9.65 -7.18,-1.54 -15.95,-4.19 -23.35,-2.3 -0.48,5.52 4.32,7.86 4.62,12.34 0.42,6.44 -5.4,9.81 -11.38,9.29 -6.53,-0.56 -69.59,-20.56 -84,-18.5 -0.19,2.26 -0.18,2.93 -1.69,4.47 -6.3,6.39 -18.07,-4.06 -8.99,-8.18 5.15,-2.34 2.72,-1.64 -0.3,-2 -8.93,-1.06 -7.43,-17.2 5.29,-10.26 6.15,3.37 3.49,1.22 0.69,-1.13 -6.7,-5.64 3.94,-17.86 10.29,-6.96 3.8,6.53 4.99,5.65 4.08,12.68 -0.37,2.79 33.74,-2.77 53.67,6.49 8.21,3.82 -0.39,-2.18 -1.68,-2.71 -12.85,-5.25 -12.81,-10.04 -15.92,-20.7 -1.72,-5.88 1.43,-10.53 1.21,-16.68 -0.27,-7.44 -4.16,-9.72 -7.73,-15.27 -9.17,-14.25 -26.09,-8.71 -32.72,-11.65 -3.15,-2.65 -4.5,-4.62 -1.95,-4.86 1.56,-0.14 4.41,1.38 8.4,0.28 6.81,-1.86 5.03,-3.78 4.61,-7.48 -0.58,-5.01 -10.03,-4.73 -12.3,-10.16 -5.49,-13.17 1.45,-12.16 11.9,-11.26 1.23,-14.23 4.46,-14.25 17.51,-18.07 7.37,-2.15 21.07,-1.25 24.38,5.93 0.15,0.31 3.79,6.07 3.9,6.42 0.99,-11.54 12,-9.03 21.92,-10.85 2.78,-0.51 14.34,-0.28 15.08,2.08 2.21,7.03 -0.85,20.9 -5.76,26.28 -10.24,11.21 -18.64,12.05 -22.85,11.23 7.49,5.64 30.56,3.09 38.99,1.27 36.53,-7.89 36.55,9.15 60.99,11.26 37.72,3.26 53.44,-10.18 93.55,0.62 20.54,5.53 30.44,19.46 62.61,25.67 47.72,9.22 75.78,6.32 116.45,9.83 16.77,1.45 30.6,4.06 53.82,9.77 28.32,12.59 -31.92,2.29 -47.06,3.04 -34.57,1.7 -55.48,5.55 -89.61,0.22 -13.92,-2.16 -62.15,-16.45 -72.51,-24.62 3.09,3.09 13.63,11.09 15.03,16.35 3.61,13.52 -0.24,11.25 8.02,23.39 3.31,4.87 17.56,6.24 23.11,5.04 3.73,-0.81 5.71,-0.98 9.64,-1.98 5.43,-1.38 8.36,-5.14 10.7,3.59 1.72,6.4 -2.12,7.22 4.82,17.68 2.88,4.36 3.99,6.48 7.5,10.98 4.64,5.95 18.97,12.73 9.54,18.2 -0.53,0.31 0.06,5.42 0,6.18 9.26,3.09 2.97,14.49 -6,12.79 -0.64,0.2 -2.1,0.9 -3.84,2.4 -3.45,2.97 -12.48,0.23 -13.84,-1.81z"/>
  <g id="_2824352245152">
   <path class="fil2 str0" d="M263.34 571.39c1,-11.54 12.01,-9.02 21.92,-10.85 2.79,-0.51 14.35,-0.27 15.09,2.09 2.2,7.03 -0.79,20.95 -5.76,26.28 -10.38,11.1 -21.83,9.94 -23.47,11.07"/>
   <path class="fil2 str0" d="M266.22 584.18c2.86,-16.6 23.84,-17.55 23.65,-15.34 -0.28,3.19 -2.39,16.27 -4.26,18.87"/>
   <path class="fil2 str0" d="M273.97 585.56c-0.75,2.97 -4.66,6.24 -5.46,1.4"/>
   <path class="fil2 str0" d="M279.67 561.23c0.12,-1.04 -4.59,-22.36 -8.73,-21.68 -9.37,1.55 -15.31,12.3 -18.68,19.84"/>
   <path class="fil2 str0" d="M259.82 565.96c-2.46,-8.08 -17.05,-9.16 -24.75,-6.91 -13.05,3.82 -16.28,3.84 -17.52,18.07 -10.44,-0.91 -18.34,-2.1 -12.84,11.06 2.27,5.44 12.66,5.34 13.24,10.36 0.43,3.69 2.2,5.61 -4.6,7.48 -4,1.1 -6.84,-0.42 -8.4,-0.28 -2.55,0.24 -1.21,2.21 1.95,4.85 6.63,2.95 23.55,-2.6 32.72,11.66 3.57,5.55 7.45,7.83 7.72,15.27 0.22,6.15 -2.92,10.8 -1.21,16.68 3.11,10.65 3.08,15.45 15.92,20.7 1.3,0.52 9.89,6.53 1.69,2.71 -19.93,-9.27 -54.04,-3.7 -53.68,-6.5 0.91,-7.02 -0.28,-6.15 -4.07,-12.67 -6.35,-10.9 -17,1.32 -10.29,6.95 2.8,2.35 5.46,4.5 -0.69,1.14 -12.72,-6.94 -14.23,9.2 -5.29,10.26 3.01,0.36 5.44,-0.34 0.3,1.99 -9.08,4.12 2.69,14.58 8.99,8.18 1.51,-1.53 0.98,-2.27 1.17,-4.52"/>
   <path class="fil2 str0" d="M214.85 570.54c0.42,-4.8 -1.67,-18.87 -7.87,-19.41"/>
   <path class="fil2 str0" d="M209.23 571.27c-8.28,-12.43 -5.04,-16.96 -25.72,-18.75"/>
   <path class="fil2 str0" d="M202.72 574.12c-17.85,-8.25 -18.75,-9.9 -31.68,-5.87"/>
   <path class="fil2 str0" d="M199.88 583.85c-9.17,-0.24 -16.6,11.2 -36.33,5.38"/>
   <path class="fil2 str0" d="M174.23 600.43c19.87,6.84 16.01,-3.47 26.93,-11.63"/>
   <path class="fil2 str0" d="M207.65 579.68c2.63,1.4 2.99,1.5 -1.44,3.83"/>
   <path class="fil2 str0" d="M243.03 585.59c-8.85,-1.33 -3.78,-6.41 -8.88,-8.8 -4.45,-2.08 -7.45,5.5 -11.19,3.64"/>
   <polyline class="fil2 str0" points="233.22,580.39 232.75,582.6 231.06,580.85 "/>
   <path class="fil2 str0" d="M246.2 645.86c-17.96,0.28 -21.23,-3.14 -26.65,-6.32 -5.09,-3 -10.91,2.62 -10.47,-6.7 0.27,-5.95 -11.46,-12.23 -11.1,-1.77 0.15,4.14 5.07,6.66 -5.42,1.3 -6.01,-3.07 -9.53,11.65 -2.48,8.81 3.54,-1.42 12.48,-2.36 2.12,1.82 -4.96,2.01 -1.29,7.89 4.3,8.63 4.03,0.53 6.37,-2.55 7.31,-3.04 1.98,-1.04 2.45,2.87 10.87,3.6 21.49,1.85 21.95,9.27 38.99,18.04"/>
   <path class="fil2 str0" d="M430.43 674.87c-21.21,14.89 -33.39,17.04 -59.63,16.45 -28.07,-0.64 -30.26,-4.13 -55.99,-9.65 -7.18,-1.54 -15.95,-4.19 -23.35,-2.31 -0.48,5.53 4.32,7.87 4.61,12.34 0.43,6.44 -5.39,9.82 -11.37,9.3 -6.53,-0.57 -12.09,-11.8 -23.38,-2.84"/>
   <path class="fil2 str0" d="M265.84 690.68c-3.32,-1.29 -9.38,4.57 -10.5,7.78"/>
   <path class="fil2 str0" d="M254.43 685.85c-5.37,1.12 -8.46,0.33 -11.07,5.8 -0.19,0.39 -0.9,2.5 -0.92,2.84"/>
   <path class="fil2 str0" d="M241.84 684.9c-2.33,0.81 -6.32,5.69 -6.6,8.95"/>
   <path class="fil2 str0" d="M233.11 685.43c-0.32,3.62 -5.56,8.41 -9.35,8.08"/>
   <path class="fil2 str0" d="M228.55 685.46c-4.76,1.18 -7.4,-0.16 -11.12,4.72"/>
   <path class="fil2 str0" d="M211.02 681.64c3.13,0.46 3.31,9.24 1.79,12.85"/>
   <path class="fil2 str0" d="M203.83 683.03c2.51,0.95 6.11,4.39 5.17,7.72"/>
   <path class="fil2 str0" d="M254.28 689.25c-2.43,3.32 -4.62,2.16 -8.29,7.29"/>
   <path class="fil2 str0" d="M427.15 668.31c1.06,0.95 5.97,3.7 6.24,9.2"/>
   <path class="fil2 str0" d="M436 669.79c0.69,2.65 -0.01,7.79 5.21,12.02"/>
   <path class="fil2 str0" d="M503.91 656.87c2.84,0.24 7.08,7.73 11.86,8.83 8.21,1.9 20.03,9.74 31.06,6.88 5.93,-1.54 11.51,-4.62 12.96,2.17 1.25,5.82 2.78,17.05 3.16,18.62 2.01,8.12 11.81,19.62 15.41,24.36 8.56,11.27 0.23,10.58 -2.4,15.48"/>
   <path class="fil2 str0" d="M488.26 637c5.88,1.03 14.33,11.29 15.74,16.55 3.61,13.51 -0.25,11.24 8.02,23.39 3.3,4.86 17.56,6.24 23.11,5.04 3.73,-0.81 5.7,-0.98 9.64,-1.98 5.42,-1.38 8.36,-5.14 10.69,3.58 1.72,6.41 -2.11,7.23 4.82,17.69 2.89,4.35 4,6.48 7.51,10.97 4.64,5.96 14.91,12.51 5.47,17.99 -0.53,0.31 -1.64,4.69 -1.7,5.45"/>
   <path class="fil2 str0" d="M575.93 734.88c5.91,6.21 4.74,16.1 -4.23,14.4"/>
   <path class="fil2 str0" d="M572.54 742.71c-0.64,0.86 -0.37,5.06 -5.06,9.1 -0.74,0.64 -5.04,2.45 -5.67,1.46 -1.27,-2.03 -2.38,-5.88 -0.85,-8.86 1.22,-2.34 3.05,-1.84 3.16,-3.14"/>
   <path class="fil2 str0" d="M558.22 752.16c-2.03,-0.06 -4.16,-1.34 -3.77,-4.46 0.95,-7.5 0.48,-4.89 6.13,-9.4 0.23,-0.17 1.17,-1.88 1.43,-2.2"/>
   <path class="fil2 str0" d="M551.94 749.6c-5.75,-0.77 -1.57,-11.42 2.26,-13.64 0.63,-0.37 5.12,-3.3 5.09,-3.34 -1.47,-2.1 -2.35,-4.86 -2.45,-7.51 -0.31,-8.88 0.68,-3.37 -5.47,-11.01 -2.08,-2.6 -7.43,-11.01 -10.68,-11.45 -1.91,-0.26 -12.22,-6.59 -14.77,-4.38 -4.96,4.32 -23.3,7.78 -39.36,4.74 -11.74,-2.22 -14.79,-9.3 -17.9,-11.79 -4.36,-3.49 -6.31,-4.71 -11.52,-6.56"/>
   <path class="fil2 str0" d="M454.11 687.6c-1.3,-0.84 -9.24,-3.24 -10.29,-8.7"/>
   <path class="fil2 str0" d="M503.38 644.85c10.36,8.17 44.18,14.8 58.09,16.97 34.14,5.32 55.05,1.47 89.62,-0.22 15.14,-0.75 75.37,9.54 47.05,-3.05 -23.22,-5.7 -37.04,-8.31 -53.81,-9.76 -40.67,-3.52 -68.74,-0.61 -116.46,-9.83 -32.16,-6.21 -42.06,-20.15 -62.61,-25.68 -40.11,-10.79 -55.82,2.65 -93.55,-0.61 -24.43,-2.12 -24.45,-19.16 -60.98,-11.26 -8.43,1.82 -32.12,4.22 -39.61,-1.43"/>
   <path class="fil2 str0" d="M216.94 597.02c-2.55,3.77 -9.2,4.68 -11.26,4.9 -3.64,0.4 -8.63,-2.41 -7.84,0.47 0.14,0.54 3.89,2.95 6.01,3.71"/>
   <path class="fil2 str0" d="M332.99 586.2c-5.23,0 -13.47,9.25 -13.3,13.56"/>
   <path class="fil2 str0" d="M342.2 590.8c-3.2,0.4 -6.99,1.64 -9.7,3.42 -2.24,1.47 -3.28,2.8 -4.63,5.11"/>
   <path class="fil2 str0" d="M348.85 594.64c-3.33,0 -11.02,2.16 -12.06,5.58"/>
   <path class="fil2 str0" d="M352.18 599.76c-1.97,0 -3.7,0.51 -4.86,0.51 -0.05,0.25 -1.58,0.6 -2.46,1.85l-0.5 0.54"/>
   <path class="fil2 str0" d="M313.81 594.64c-1.37,2.31 -2.21,3.59 -1.68,6.47"/>
   <path class="fil2 str0" d="M307.67 596.94c-0.31,2.2 -1.16,1.8 -0.69,5.15"/>
   <path class="fil2 str0" d="M487.5 621.76c4.77,1.93 10.19,1.92 13.64,-1.71 0.66,-0.7 1.48,-0.39 1.71,-1.36"/>
   <path class="fil2 str0" d="M480.28 619.31c4.13,-0.39 6.4,0.16 7.73,-3.69"/>
   <path class="fil2 str0" d="M473.23 616c2.64,0.32 5.83,-0.65 5.57,-3.96"/>
   <path class="fil2 str0" d="M291.46 679.36c0.07,-7.44 3.71,-6.44 10.32,-6.44"/>
   <path class="fil2 str0" d="M291.03 669.85c4.87,-2.89 4.04,-3.07 9.72,-3.07"/>
   <path class="fil2 str0" d="M296.66 661.67c4.8,-2.86 12.58,-1.28 12.28,2.55"/>
   <path class="fil2 str0" d="M201.02 625.51c-1.29,-0.73 -3.85,-4.73 -7.43,-1.67 -0.14,0.11 -0.18,0.4 -0.43,0.6"/>
   <path class="fil2 str0" d="M186.34 637.05c-3.28,-3.82 -5.25,-0.37 -5.2,0.18"/>
   <path class="fil2 str0" d="M190.06 647.05c-1.22,-1.91 -3.77,-0.39 -4.06,0.67l-0.26 0.25"/>
   <path class="fil2 str0" d="M194.11 658.32c0.05,-0.75 -2.99,-2.55 -4.7,-0.54l-0.34 0.17"/>
   <path class="fil2 str0" d="M184.09 669.48c-2.27,-3.52 -6.33,-2.59 -7.04,-0.53"/>
   <path class="fil2 str0" d="M186.73 683.31c-0.04,-1.84 -5.72,-0.41 -5.59,1.25"/>
  </g>
  <path class="fil3 str0" d="M361.63 590.11c-4.45,-8.99 -11.64,-28.97 -14.98,-40.14 -0.74,-2.49 -5.02,-27.25 -5.76,-36.86 -0.69,-9.03 1.01,-3.42 3.06,0.26 2.29,4.1 13.61,26.59 15.34,32.58 3.73,12.94 7.68,28.84 8.68,42.27 -2.21,1.22 -6.34,1.89 -6.34,1.89z"/>
  <path class="fil4 str0" d="M354.72 594.35c-3.23,0.81 -6.88,-1.15 -0.42,-3.48 5.11,-1.85 12.26,-4.24 17.31,-4.25 4.25,-0.01 11.79,0.49 4.19,3.1 -3.25,1.12 -6.17,2.62 -10.23,3.5 -2.15,0.47 -9.2,0.71 -10.85,1.13z"/>
  <path class="fil5 str0" d="M457.19 458.27c-12.9,4.48 -26.89,25.08 -34.48,51.19 -0.68,2.37 0.95,4.03 6.14,3.71 3.48,-0.21 23.28,-30.21 24.94,-34.35 0.85,-2.12 9.22,-22.58 3.4,-20.55z"/>
  <path class="fil6 str0" d="M448.58 610.72c1.69,-0.64 -2.35,12.63 3.86,19.94 0.75,0.88 -4.71,3.84 -8.92,0.83 -3.45,-2.47 -2.27,-5.72 -4.3,-8.67 -0.87,-1.27 0.58,3.13 -0.66,5.46 -3.18,5.98 -16.2,12.03 -8.7,24.53 4.47,7.44 -3.3,8.38 -6.72,16.73 -3.01,7.35 -7,4.28 -8.7,4.77 -0.63,0.18 1.33,0.98 2.22,2.63 2.88,5.39 -5.08,9.34 -6.17,2.8 -0.32,-1.93 0.29,-1.86 -1.04,-0.5 -0.85,0.88 -2.18,1.97 -3.65,2.37 -4.54,1.24 -4.93,-4.67 -3.52,-5.73 2.13,-1.6 4.37,-0.99 4.55,-1.12 0.89,-0.67 -6.57,-0.13 -4.95,-5.13 0.34,-1.05 2.35,-2.38 3.79,-2.12 1.91,0.35 3.44,2.45 5.79,1.54 2.08,-0.8 2.44,-3.96 4.81,-7.56 4.88,-7.42 -9.16,-4.95 -9.19,-27.54 -0.02,-16.48 5.4,-17.09 11.44,-29.34 -1.74,1.4 -2.83,4.73 -4.14,4.5 -4.67,-0.84 -8.87,-12.28 -4.91,-20.45 -5.49,5.4 -13.93,13.17 -23.22,13.58 -7.3,0.32 -9.54,9.74 -11.26,4.17 -0.13,-0.41 -0.22,-0.65 -0.43,-0.05 -0.31,0.89 -0.99,2.51 -2.26,3.54 -2.26,1.84 -8.55,1.74 -7.5,-3.25 0.31,-1.5 0.93,-1.88 -0.73,-1.08 -1.11,0.53 -4.32,-0.25 -5.29,-2.19 -1.12,-2.25 -0.77,-5.39 3.17,-5.68 1.66,-0.11 1.24,0.47 1.13,-1.12 -0.08,-1.24 0,-3.21 1.15,-4.3 1.21,-1.15 4.2,-1.6 7.12,2 5.55,6.85 27.15,-14.37 29.55,-20.96 3.69,-10.16 5.68,-14.22 5.16,-27.43 -0.07,-1.93 4.05,-3.91 -0.55,-1.51 -3.05,-0.73 -1.47,-4.71 -10.44,-8.9 -5.26,-2.46 10.04,-4.08 7.23,-4.08 -2.54,0 -6.62,0.58 -8.33,-0.56 -2,-1.33 -2.53,-4.46 0.19,-5.16 -3.95,-3.68 0.34,-8.16 6.07,-12.52 5.33,-4.06 11.77,-8.2 17.4,-6.78 6.04,1.53 10.95,12.86 15.31,1.12 9.8,-26.35 37.24,-43.89 39.16,-40.98 2.64,4.01 -8.5,28.23 -14.75,36.21 -11.13,14.22 -22.45,16.6 -24.57,20.35 -1.62,2.87 6.35,10.07 7.34,13 2.48,7.31 -7.12,20.09 1.7,39.36 3.92,8.58 -4.01,24.54 4.36,32.92l2.4 2.36z"/>
  <path class="fil7 str1" d="M389.38 557.79c0.75,-1.87 41.38,-16.06 46.17,-18.05 0.86,-0.35 18.09,-9.14 18.14,-9.2 0.31,-0.34 2.56,-1.67 3.35,0 1.94,4.15 3.45,5.25 4.26,10.62 1.74,11.37 4.81,38.15 -0.66,48.52 -2.14,4.05 -2.93,17.19 -7.45,18.45 -10.82,3.01 -11.46,-2.98 -21.56,-6.26 -8.69,-2.81 -12.32,-7.45 -19.97,-11.5 -5.23,-2.78 -11.98,-17.31 -17.08,-23.16 -0.29,-0.33 -5.6,-8.8 -5.2,-9.42z"/>
  <path class="fil2 str2" d="M399.33 561.66c-2.44,-2.22 -2.62,0.68 -2.25,1.14 3.02,3.64 11.16,7.05 14.48,5.35 0.92,-0.48 8.71,-4.12 9.12,-4.22 3.95,-1 6.86,-5.7 11.17,-4.99 6.59,1.09 12.41,-5.3 17.73,-8.49 1.84,-1.1 3.97,-2.72 5,-4.42 0.69,-1.13 1.16,-5.18 -0.51,-5.7 -2.58,-0.8 -1.68,1.98 -0.24,2.19"/>
  <path class="fil2 str2" d="M402.06 566.6c1.65,6.08 5.49,4.72 5.49,14.92"/>
  <path class="fil2 str2" d="M409.51 569.62c0.43,3.31 4.56,10.59 5.24,15.11 0.24,1.64 0.24,1.73 0.24,3.44"/>
  <path class="fil2 str2" d="M415.45 566.3c-0.22,8.46 9.56,19.65 7.13,25.71"/>
  <path class="fil2 str2" d="M421.63 563.32c0.94,8.19 9.51,20.15 7.49,31.15"/>
  <path class="fil2 str2" d="M438.71 558.01c0.48,6.89 8.98,25.83 17.1,25.83"/>
  <path class="fil2 str2" d="M444.26 554.19c0,8.35 6.37,16.78 11.44,22.32"/>
  <path class="fil2 str2" d="M449.58 550.45c0.76,5.64 3.04,15.38 9.01,17.44"/>
  <path class="fil2 str2" d="M453.4 547.52c0,6.79 3.38,7.56 6.75,12.12"/>
  <path class="fil2 str2" d="M424.31 552.08c1.64,0 5.22,1.22 5.63,-2.34 0.2,-1.83 0.41,-2.16 -1.35,-3.2 -2.45,-1.46 -5.85,1 -4.76,4.36 -1.09,-1.71 -4.77,-1.42 -4.04,1.98"/>
  <path class="fil2 str2" d="M426.3 553.22c0.09,0.32 2.53,5.29 2.53,5.42"/>
  <path class="fil2 str2" d="M429.94 561.63c0,9.86 4.49,29.2 5.51,29.37 1.86,-0.14 1.54,-2.87 1.46,-4.7 -0.02,-0.51 -0.08,-1.78 0.37,-0.96 1.59,2.93 6.85,12.69 2.92,1.82 -1.22,-3.39 -0.81,-3.34 2.04,-1.12 0.41,0.32 3.79,4.62 4.64,2.68 1.15,-0.54 -2.76,-5.43 -3.9,-7.03 -4.08,-5.75 -13.04,-23.42 -13.04,-20.06z"/>
  <path class="fil2 str2" d="M441.08 598.34c2.14,1.93 2.78,-2.13 4.74,3.15 0.64,1.74 -1.69,3.63 2.44,4.46 1.97,0.41 -0.61,-3.96 -1.22,-4.48 -1.18,-1.02 -1.2,-3.41 0.19,-4.63 1.02,-0.89 0.74,-3.37 -4.33,-1.56 -1.25,0.45 -3.26,1.77 -1.82,3.06z"/>
  <path class="fil2 str0" d="M437.93 511.36c1,-4.88 6.73,-15.8 9.96,-19.49 3.66,-4.16 13.48,-13.51 14.23,-13.08 0.93,-0.07 -4.08,11.43 -8.33,18.42 -3.41,5.61 -16.52,17.37 -15.86,14.15z"/>
  <path class="fil2 str1" d="M411.75 541.41c2.64,-0.82 4.39,3.07 4.39,5.09"/>
  <path class="fil2 str1" d="M420.99 538.99c0.47,1.15 1.72,1.21 1.95,3.13 0.09,0.65 0.09,0.73 0.09,1.41"/>
  <path class="fil2 str1" d="M418.25 540.87c0,1.43 1.98,2.08 1.86,4.57"/>
  <path class="fil2 str1" d="M428.51 534.99c0.87,3.03 0.09,6.71 0.25,7.29"/>
  <path class="fil2 str1" d="M433.05 534.84c-0.01,0.38 1.03,3.43 1.09,5.07l0.1 0.35"/>
  <path class="fil2 str0" d="M411.23 514.96c-2.13,1.81 -4.38,8.77 1.99,10.85 6.23,2.03 9.62,-1.65 8.82,-8.39 -0.39,-3.25 -6.84,-6.23 -10.81,-2.46z"/>
  <path class="fil8 str0" d="M415.4 517.69c-2.85,0.51 0.87,4.81 1.85,2.84 0.84,-1.69 0.26,-3.22 -1.85,-2.84z"/>
  <path class="fil4 str0" d="M370.27 623.26c2.23,2.49 7.72,0.43 8.32,-2.15 2.29,-9.73 -15.57,-5.96 -8.32,2.15z"/>
  <path class="fil4 str0" d="M370.03 615.8c0.14,-2.96 -5.14,-7.26 2.71,-7.25 1.31,0 2.25,0.15 3.76,5.53 0.41,0.46 -5.83,1.21 -6.47,1.72z"/>
  <path class="fil2 str0" d="M364.49 586.67c-4.66,-13.88 -12.16,-43.25 -16.45,-55.03"/>
  <g id="_2824352276016">
   <path class="fil9 str3" d="M562.8 184.68c0,-6.01 -3.36,-22.31 -12.38,-23.57 -8.21,-1.15 -15.35,0.17 -20.77,23.61 -3.16,13.7 6.92,44.17 23.07,30.7 7.45,-6.21 11.85,-19.37 10.08,-30.74z"/>
   <path class="fil9 str3" d="M542.23 237.1c-0.78,11.31 -1.24,16.2 -3.31,26.63 -1.87,9.46 1.27,10.44 8.34,10.53 8.45,0.11 -2.33,-35.55 2.02,-37.06 2,-0.69 7.34,-3.87 2.24,-4.98 -3.55,-0.78 -7.74,-1.11 -11.7,-0.66 -4.65,0.51 -2.39,2.14 2.41,5.54z"/>
   <path class="fil6 str3" d="M541.91 241.51c-1.7,0.28 -8.59,3.62 -5.1,5.76 0.96,0.59 -2.47,2.58 0.42,4.2 1.46,0.81 -2.8,2.02 0.45,3.86 0.49,0.28 0.23,0.26 -0.13,0.77 -2.27,3.19 9.15,2.76 2.31,-0.63 -1.31,-0.65 2.32,1.17 3.16,-1.32 0.31,-0.92 -1.74,-1.35 -1.74,-3.79 0,-2.33 0.04,-2.81 2.92,-3.4 0.1,-0.49 -4,-0.87 -2.74,-1.95 0.72,-0.61 1.68,-3.12 0.45,-3.5z"/>
   <path class="fil6 str3" d="M586.65 259.2c-0.02,-0.02 -26.8,-4.59 -27.34,-4.48 -1.37,0.28 -5.32,2.73 -9.04,2.29 -0.06,-1.14 -0.2,-1.98 -0.72,-4.76 -0.95,-5.1 -10.59,2.72 -9.88,-3.19 0.43,-3.53 8.88,-0.99 8.88,-5.02 0,-1.75 -0.93,-6.16 3.57,-4.58 8.05,2.83 1.63,4.61 14.07,7.14 3.97,0.81 17.69,2.4 20.53,-1.02 0.46,-0.56 3.35,8.52 0.25,12.88 -0.34,0.48 -0.22,0.79 -0.32,0.74z"/>
   <path class="fil9 str3" d="M542.74 231.11c-0.28,-4.74 0.07,-8.64 0.07,-13.08 4.06,2.1 7.68,0.72 7.68,0.72 -0.03,3.2 -0.5,6.52 -1.7,12.38 -1.37,0.11 -4.44,-1.03 -6.05,-0.02z"/>
   <path class="fil7 str3" d="M562.86 184.68c0,-6.01 -2.78,-23.88 -10.52,-23.57 -8.23,0.32 -16.09,15.96 -17.65,23.61 -2.78,13.67 5.88,44.17 19.6,30.7 6.33,-6.21 10.07,-19.37 8.57,-30.74z"/>
   <path class="fil7 str3" d="M631.27 283.09c13.81,10.58 3.42,-7.2 19.37,-7.47 3.47,-0.06 4.59,1.65 4.92,1.42 0.28,-0.2 -0.33,-2.16 3.25,-4.51 3.3,-2.17 7.29,1.43 8.91,2.92 0.96,0.87 0.51,0.63 1.1,-0.14 1.08,-1.42 2.77,-3.39 5.28,-3.56 2.99,-0.19 6.77,1.7 6.92,3.45 0.37,4.32 13.65,-3.89 14.73,7.61 0.17,1.72 15.28,-4.14 12.71,7.85 5.59,1.58 9.08,2.01 7.57,9.41 -1.06,5.24 -8.25,0.92 1.27,6.56 1.64,0.97 2.99,7.96 -2.57,9.93 -2.32,0.83 2.33,1.34 2.11,4.1 -0.25,3.15 2.22,7.06 -5.9,6.74 -2.2,-0.09 3.68,9.22 -2.94,11.68 -1.89,0.7 -7.69,-3.42 -3.9,1.9 1.59,2.22 -0.49,4.52 -3.68,4.52 -9.87,0 -1.35,-4.26 -2.91,3.41 -0.18,0.86 -4.39,4.62 -7.05,1.5 -1.45,-1.7 0.24,1.99 -2.81,5.05 -1.4,1.39 -8.17,1.79 -10.01,-0.29 -0.69,-0.78 -0.63,-1.61 -0.88,0 -0.8,5.12 -7.1,7.79 -10.9,4.4 1.51,7.03 -7.69,6.39 -7.54,4.45 -2.17,0.45 2.56,2.06 -3.26,5.59 -7.33,4.44 -0.14,-3.95 -0.11,4.94 0.02,4.66 -3.27,1.26 3.37,1.26 4.36,0 0.96,5.18 3.48,0.53 0.95,-1.75 3.97,-2.88 5.05,-0.88 0.91,1.7 -2.05,-4.7 3.68,-4.7 3.1,0 -2.99,-3.33 -0.35,-4.8 0.95,-0.53 2.97,-0.98 1.75,-1.72 -2.82,-1.7 -0.08,-3.01 1.47,-4.16 1.32,-0.98 3.21,-2.86 3.74,-4.75 0.98,0.58 2.36,1.35 3.06,1.11 0,-0.01 2.64,20.27 -9.67,26.64 -19.66,10.17 -33.8,-7.04 -27,-19.56 4.3,-7.93 13.97,-13.14 22.58,-14.19 5.83,-0.72 22.52,-9.27 22.52,-17.72 0,-4.73 0.46,-11.42 -15.08,-6.06 -4.27,1.47 -31.95,12.29 -32.6,12.69 -5.85,3.55 -9.71,8.38 -9.99,15.68 -0.11,2.73 7.38,3.17 1.4,9.79 -2.45,2.72 -0.24,8.31 3.12,8.31 2.2,0 6.67,-1.02 4.63,2.42 -2.66,4.5 -9.97,2.75 -10.38,5.2 -0.34,2 -1.92,5.22 -4.97,6.34 -2.57,0.95 -6.72,-0.64 -4.73,-4.97 0.96,-2.09 1.69,-4.39 -1.23,-0.2 -2.43,3.5 -8.95,4.44 -8.02,-0.25 0.18,-0.89 1.65,-2.28 2.89,-2.95 0.57,-0.31 0.11,-1 -0.75,-0.72 -0.81,0.26 -4.3,1.48 -5.84,0.17 -3.71,-3.16 1.04,-7.01 7.88,-6.72 4.76,0.2 6.74,-7.82 3.93,-12.85 -2.66,-4.77 -0.94,-10.1 -2.56,-13.89 -3.07,-7.2 -0.44,-1.7 -3.79,-3.68 -4.19,-2.48 -0.82,-11.59 -2.95,-14.31 -1.87,-2.39 2.14,-24.2 4.49,-28.17 2.11,-3.57 8.99,-20.64 17.19,-14.35z"/>
   <path class="fil7 str3" d="M600.23 355.18c1.39,0.06 9.97,-7 12.62,-0.42 0.11,0.25 1.5,3.06 -2.15,3.06 -2.65,-0.01 -0.24,5.83 -12.16,5.36 -6.21,-0.24 -12.92,9.03 -15.63,10.63 -4.03,2.39 -6.9,-3.64 -4.95,-5.87 0.43,-0.5 1.37,-1.18 0.11,-0.76 -4.07,1.36 -5.84,3.41 -7.93,-0.42 -0.71,-1.3 0.74,-3.14 1.77,-3.93 0.97,-0.74 1.32,-1.11 -1.77,-1.4 -2.05,-0.19 -3.99,-2.06 -3.12,-5.03 1.6,-5.4 12.13,0.34 15.42,-3.32 5.94,-6.61 5.65,4.29 11.47,-14.35 2.25,-7.19 2.07,-5.55 9.68,-2.91 2.15,0.74 1.35,2.05 2.45,3.58 1.45,10.11 -12.06,15.54 -5.81,15.78z"/>
   <path class="fil9 str3" d="M612.22 145.95c0.96,-7.75 6,-17.34 12.42,-21.89 1.02,-0.72 5.01,-0.61 3.02,2.75 -1.18,2 -5.05,7.41 -2.73,9.39 2.32,1.98 4.28,2.92 7.5,4.28 4.23,1.78 6.08,4.45 8.98,-0.44 0.89,-1.51 5.01,-8.58 5.98,-3.79 0.74,3.61 -5.98,12.56 -8.36,14.83 -0.81,0.76 -6.52,7.96 -7.03,8.46 -2.9,2.86 -7.32,2.44 -1.52,-3.86 1.21,-1.32 2.9,-2.53 2.9,-4.91 0,-2.17 -9.23,-8.38 -11.42,-9.72 -5.2,-3.15 -4.38,7.64 -8.05,7.64 -2.18,0 -1.43,-0.85 -1.69,-2.74z"/>
   <path class="fil6 str3" d="M635.06 155.63c-1.82,8.03 7.97,7.74 8.63,20.21 0.59,11.1 8.45,14.16 1.41,21.19 -5.28,5.29 -10.08,16.79 -19.62,10.53 -5.91,-3.88 -3.24,-11.95 -2.33,-20.77 0.73,-6.97 -0.36,-14.49 -2.72,-20.21 -4.17,-10.1 -3.34,-12.47 -13.47,-19.68 -1.14,-0.81 -12.45,-4.09 -13.37,-0.11 -0.22,0.98 -6.61,5.5 -7.54,10.98 -0.66,3.9 -2.14,6.58 -2.14,11.76 0,7.09 -3.86,12.41 1.05,20.52 2.15,3.54 3.92,19.19 15.76,21.19 5.03,0.85 0.93,6.31 -4.81,6.07 -13.46,-0.58 -24.36,13.16 -15.89,21.32 5.79,5.59 11.65,-0.27 8.32,4.99 -1.32,2.07 -0.81,17.52 -2.95,23.36 -7.94,21.61 -15.2,45.1 5.4,63.64 7.88,7.09 13.22,9.69 23.33,9.69 -1.72,-1.72 -6.28,-6.77 -2.39,-7.4 6.55,-1.07 1.58,-8.17 2.42,-8.6 3.3,-1.71 9.41,-0.73 6.39,-10.42 -0.76,-2.43 -8.83,-2.9 3.37,-7.12 3.81,-1.32 -2.18,-9.24 -0.11,-12.25 1.85,-2.68 6.55,-0.81 8.54,-3.33 3.77,-4.77 0.26,-5.04 -1.07,-8.1 -0.87,-9.51 1.72,-17.84 3.51,-27.24 1.55,-8.2 2.02,-17.5 5.23,-25.28 3.95,-9.56 7.09,-14.46 12.98,-22.56 3.67,-5.05 10.71,-12.35 8.38,-19.79 -3.05,-9.78 -11.88,-19.35 -11.36,-32.59 0.14,-3.74 -2.13,-9.02 -5.2,-11.64 -1.99,-0.1 -0.01,3.97 -5.64,3.75 -0.86,-0.03 -7.27,-5.38 -5.47,-0.32 1.09,3.07 3.96,0.52 3.58,5.6 -0.03,0.39 -2.19,2.49 -2.22,2.61z"/>
   <path class="fil3 str3" d="M591.55 217.62c1.17,0.07 12.2,-0.58 11.26,-5.23 -0.18,-0.88 -0.31,-2.8 -4.9,-3.4 -3.67,-0.48 -11.89,-13.65 -11.89,-18.84 0,-2.84 -4.19,-7.93 -2.71,-13.84 1.88,-7.56 -1.64,-7.62 1.8,-14.55 2.27,-4.58 10.08,-11.8 14.1,-14.69 0.02,-0.02 -1.81,6.8 1.08,9.09 2.9,2.3 13.89,7.47 16.46,7.47 1.12,3.24 -2.4,7.45 3.51,12.49 2.41,2.05 -1.87,7.43 1.16,9.05 1.25,0.67 0.77,0.91 -0.21,1.9 -2.33,2.34 0.39,6.52 -0.53,7.44 -2.58,2.58 2.73,3.39 0.13,5.6 -2.85,2.44 -2.64,11.54 8.57,11.09 4.73,-0.18 -1.78,4.83 0.98,7.89 4.57,5.07 -2.19,5.55 1.4,10.33 0.35,0.46 2.82,5.69 1.42,7.06 -2.7,2.63 -0.05,8.27 0.18,9.9 0.18,1.33 -1.14,1.99 -0.89,2.07 0.22,0.07 2.02,-0.16 2.19,-1.98 0.27,-2.73 -1.33,-6.56 0.5,-8.01 3.48,-2.74 2.42,-5.77 -0.15,-9.05 -2.77,-3.53 3.76,-6.3 -1.14,-10.48 -3.18,-2.71 5.39,-5.21 -0.85,-10.53 -3.09,-2.64 1.37,0.8 2.75,-0.85 1.33,-1.6 3.97,-4.19 4.35,-4.46 0.5,-0.35 -1.48,-0.26 -5.27,-1.57 -6.36,-2.2 4.77,-12.86 -3.71,-16.07 -1.6,-7.71 5.78,-4.63 -0.39,-13.3 -3.77,-5.29 1.04,-16.43 -13.54,-24.34 -7.44,-4.03 -10.32,-6.26 -19.02,-3.54 -5.29,1.65 -2.63,-2.07 -8.49,3.22 -6.91,6.23 -7.69,10.77 -9.75,18.79 -1.83,7.17 0.52,3.42 1.6,15.46 0.53,5.9 7.98,21.08 8.25,21.89 2.13,6.16 3.02,10.91 1.75,13.99z"/>
   <path class="fil7 str3" d="M669.27 310.14c13.35,-38.59 33.29,-29.87 50.62,-36.74 10.34,-4.1 7.03,-19.63 -1.72,-21.92 -2.77,-0.73 -0.54,0.64 1.16,3.44 0.82,1.35 3.42,8.36 1.48,9.61 -0.99,0.64 -2.31,-0.91 -2.71,3.51 -0.12,1.41 -3.33,-1.53 -4.48,1.48 -0.29,0.74 -0.76,1.51 -1.2,0.87 -0.37,-0.52 -4.53,-2.98 -5.56,0.09 -0.23,0.69 -0.84,-0.07 -1.23,-0.59 -0.75,-1.03 -2.67,-2.38 -6.53,0.87 -0.98,0.82 -1.51,-4.23 -5.77,0.03 -0.94,0.94 -4.42,-1.97 -5.65,0.51 -2.64,5.33 -7.97,-0.26 -7.95,5.93 0,1.87 0.75,1.47 -3.06,2.3 -2.9,0.64 -0.9,5.31 -1.47,5.39 -3.92,0.49 -6.06,2.95 -4.67,6.33 0.89,2.15 0.21,1.1 -0.79,1.25 -6.53,1.02 -1.41,7.2 -4.99,8.24 -5.65,1.62 -0.85,6.01 -1.76,6.49 -7.27,3.77 -1.42,8.06 -2,8.7 -5.99,6.64 0.75,7.22 0.77,7.26 -2.99,1.67 -4.85,5.46 -0.85,8.78 0.89,0.73 -3.4,6.43 2.5,7.18 2.56,0.33 -3.97,5.88 2.95,6.74 1.58,0.19 -3.88,3.84 6.28,4.24 0.04,0 5.5,-3.02 5.47,-3.89 -0.33,-8.37 -15.98,-15.48 -8.84,-36.1z"/>
   <path class="fil2 str3" d="M614.96 229.52c-5.04,1.68 -7.12,12.51 4.35,15.54 4.96,1.32 17.16,-2.27 9.4,-12.66 -0.29,-0.39 0.22,-0.25 -0.7,-0.57"/>
   <path class="fil2 str3" d="M588.78 241.21c7.26,-1.08 8.79,-6.21 5.95,-10.83"/>
   <path class="fil2 str3" d="M582.12 229.73c-5.25,-0.16 0.81,3.97 1.76,1.68 -0.29,-0.5 -1.21,-1.66 -1.76,-1.68z"/>
   <path class="fil2 str3" d="M620.43 235.41c-2.25,3.49 10.02,2.27 0,0z"/>
   <path class="fil2 str3" d="M595.7 296.25c-7.35,0 2.43,4.7 0.94,0.42 -0.19,-0.56 -0.47,-0.42 -0.94,-0.42z"/>
   <path class="fil2 str3" d="M549.14 251.01c2.04,0.41 3.32,0.2 4.86,2"/>
   <path class="fil2 str3" d="M548.47 245.36c1.29,-0.72 2.2,-2.18 3.71,-1.1 0.4,0.29 0.7,0.64 1.52,-0.06"/>
   <path class="fil2 str3" d="M604.85 217.1c3.45,2.38 7.4,2.34 8.2,-2.54 0.05,-0.33 0.22,0.12 0.22,-0.83"/>
   <path class="fil2 str3" d="M606.12 221.1c1.68,1.68 2.31,1.71 4.21,1.05"/>
   <path class="fil2 str3" d="M584.65 174.79c2.24,-1.02 7.57,-0.08 7.57,4.21 0,3.99 0.84,6.37 -0.78,10.32 -0.47,1.13 0.03,2.84 0.36,3.78 6.82,2.36 4.9,-0.73 7.79,-1.89"/>
   <path class="fil2 str3" d="M596.64 186.79c-0.05,-1.26 1.75,-4.1 1.69,-4.84"/>
   <path class="fil2 str3" d="M599.38 178.79c0,-4.54 3.84,-7.05 7.9,-5.31 0.93,0.39 5.87,1.29 7.31,2.31 0.18,0.13 0.3,0.05 0.58,0.05"/>
   <path class="fil2 str3" d="M593.49 200.47c4.21,-2.9 5.19,1.66 7.92,-1.54 0.23,-0.27 4.33,0.07 5.13,0.07"/>
   <path class="fil2 str3" d="M598.12 203.63c3.12,-1.41 5.05,0.97 1.68,0.84l-0.42 0.21"/>
   <path class="fil2 str3" d="M600.63 209.54c1.89,-0.61 13.21,1.47 12.03,-5.72 -0.05,-0.32 -0.23,0.13 -0.23,-0.82"/>
   <path class="fil2 str3" d="M584.16 179.61c0.59,-1.72 4.81,-1.5 6.73,0.52 0.02,0.02 0.48,0.34 0.49,0.34"/>
   <path class="fil2 str3" d="M600.64 180.69c2.09,-2.13 2.3,-3.08 6.44,-2.23 1.02,0.2 1.99,1.17 3.46,1.17"/>
   <path class="fil2 str3" d="M584.8 183.23c5.42,-0.91 2.97,1.24 6.33,-2.93"/>
   <path class="fil2 str3" d="M601.07 181.74c1.03,1.49 5.55,1.64 6.66,0.35 0.09,-0.11 1.22,-0.94 1.33,-0.98"/>
   <path class="fil2 str3" d="M602.04 180.29c-0.12,0.63 1.24,1.88 1.97,1.97 1.15,0.14 2.8,-0.06 2.74,-1.52 -0.03,-0.6 0.22,-1.71 -0.9,-1.85 -1.62,-0.2 -2.58,-0.19 -3.65,0.99 -0.08,0.1 -0.14,0.29 -0.16,0.41z"/>
   <path class="fil2 str3" d="M586.17 178.69c0.62,0 2.27,0.95 2.27,1.78 0,1.09 0.04,0.93 -0.46,1.86 -0.64,1.16 -3.37,0.51 -4.19,-0.36 -0.69,-0.72 -0.34,-3.2 1.01,-3.13 0.11,0.01 1.61,-0.05 1.63,-0.1"/>
   <path class="fil2 str3" d="M585.8 179.69c-0.4,0 -1.01,-0.14 -1.16,0.57 -0.19,0.94 1.41,1.62 1.69,0.74 0.15,-0.47 0.05,-1.03 -0.33,-1.3 -0.07,-0.05 -0.14,-0.01 -0.2,-0.01z"/>
   <path class="fil2 str3" d="M603.01 179.63c-0.09,0.6 -0.27,0.59 0.52,1.07 1.17,0.72 2.03,-0.41 1.36,-1.16 -0.39,-0.43 -0.41,-0.4 -1.15,-0.28 -0.01,0 -0.72,0.33 -0.73,0.37z"/>
   <path class="fil2 str3" d="M595.75 195.26c0,2.49 2.93,2.03 1.92,-0.42l-0.03 -0.21"/>
   <path class="fil2 str3" d="M637.03 150.43c2.31,1.22 4.85,4.02 4.13,6.32 -0.88,2.82 0.89,6.45 3.95,6.57 0.38,0.02 1.59,-0.47 1.79,-0.73"/>
   <path class="fil2 str3" d="M642.8 164.32c0,0.58 0.2,1.78 -0.75,1.59 -0.11,-0.02 -0.88,-0.63 -1.04,-0.75"/>
   <path class="fil2 str3" d="M645.43 166.85c0.38,0.56 1.36,1.45 1.58,2.1"/>
   <path class="fil2 str3" d="M646.9 170.85c0.43,1.19 1.88,4.31 1.79,5.36"/>
   <path class="fil3 str3" d="M645.57 224.96c-1.48,3.26 -0.2,4.78 3.57,4.63 1.59,-0.06 -1.52,2.02 -3.15,1.9 -1.75,-0.14 -2.24,2.98 0.44,4.34 1.83,0.94 -6.73,-0.2 -3.13,4.86 1.35,1.9 -2.37,-0.07 -2.37,1.53 0,3.39 3.71,3.53 3.13,5.23 -3.31,1.14 -4.64,-2.24 -4.39,4.03 0.04,1.09 -4.77,2.76 0.4,4.9 0,0.6 -2.47,1.05 -2.92,-0.27 -0.39,-1.12 -1.42,1.15 1.12,5.04 1.86,2.83 -5.65,3.28 -3.09,7.61 2.39,4.05 -3.49,1.55 -2.38,-2.05 0.79,-2.57 2.24,-16.92 4.61,-27.17 2.34,-10.09 6.18,-15.71 6.84,-18.08 1.41,-0.97 0.87,2.67 1.32,3.5z"/>
   <path class="fil2 str3" d="M571.96 361.69c1.14,-0.36 3.71,-0.23 4.65,-0.77 0.45,-0.27 3.22,-0.8 4.04,-1.54 0.15,-0.14 1.34,-0.55 1.61,-0.7"/>
   <path class="fil2 str3" d="M578.59 367.29c0.75,-1.12 3.91,-2 5.14,-3.37 0.25,-0.29 2.2,-1.61 2.21,-1.66"/>
   <path class="fil2 str3" d="M566.94 358.83c-0.19,-0.49 -1.57,-0.67 -1.93,-0.55 -0.01,0.06 -0.96,0.55 -0.96,1.45"/>
   <path class="fil2 str3" d="M570.6 367.53c-0.75,0.2 -3.96,-0.54 -2.97,2.31"/>
   <path class="fil2 str3" d="M578.57 373.1c-1.35,-0.47 -3.29,-0.56 -3.37,1.26 0,0.19 0.03,0.25 0.22,0.32"/>
   <path class="fil2 str3" d="M606.22 376.1c-0.95,-0.69 -3.23,0.59 -3.12,1.95"/>
   <path class="fil2 str3" d="M611.31 383.09c-1.83,-0.82 -3.4,-0.36 -2.53,1.69"/>
   <path class="fil2 str3" d="M621.39 385.88c-2.31,-0.22 -2.51,1.07 -2.51,2.9"/>
   <path class="fil2 str3" d="M612.78 354.58c0.44,-0.69 2.04,-0.07 2.49,0.45 0.18,0.21 0.69,1.01 0.67,1.28"/>
   <path class="fil2 str4" d="M553.94 162.49c4.28,1.59 7.27,19.66 7.14,22.88 -0.39,9.99 0.59,12.65 -3.76,23.37 -0.97,2.38 -4.58,7.62 -7.28,8.55"/>
   <path class="fil2 str3" d="M620.88 140.57c-0.98,1.22 -6.08,11.21 -1.49,5.49 0.79,-0.98 1.96,-3.5 2.42,-4.7l0.15 -0.31"/>
   <path class="fil2 str3" d="M623.29 141.94c-0.57,1 -1.04,2.52 -1.87,3.44 -1.16,1.29 -3.39,6.77 0.89,1.92 0.75,-0.86 1.84,-2.82 1.98,-3.91l0.12 -0.09"/>
   <path class="fil2 str3" d="M626.15 144.14c0,0.82 -6.17,8.8 -2.1,6.56 0.51,-0.28 3.62,-4.76 3.57,-5.4"/>
   <path class="fil2 str3" d="M629.34 146.29c0,1.67 -2.94,4.02 -3.56,5.8 -1.5,4.33 3.76,-2.55 4,-3.26 0.14,-0.41 0.51,-0.71 0.63,-1.05"/>
   <path class="fil2 str3" d="M632.21 149.29c-0.06,0.1 -7.4,7.66 -4.52,7.08 0.81,-0.17 4.76,-5 5.04,-5.8"/>
   <path class="fil2 str3" d="M638.76 142.24c0.4,-0.87 2.86,-5.46 2.96,-7.26 0.22,-3.84 -4.01,3.88 -4.45,7.48"/>
   <path class="fil2 str3" d="M635.84 141.71c0.56,-2.04 3.05,-7.77 3.14,-8.63 0.52,-4.83 -4.34,4.06 -5.18,7.86"/>
   <path class="fil2 str3" d="M632.43 140.48c-0.2,-0.8 5.68,-12.56 2.27,-9.4 -0.43,0.39 -4.19,7.69 -4.41,8.53"/>
   <path class="fil2 str3" d="M628.91 138.91c-0.41,-1.62 3.82,-7.4 3.98,-9.28 0.4,-4.56 -5.76,7.28 -5.82,8.03"/>
   <path class="fil2 str3" d="M625.65 136.54c0.04,-0.11 6.9,-11.44 4.25,-10.18 -0.75,0.36 -5.49,8.12 -5.56,8.97"/>
   <path class="fil2 str4" d="M629.73 315.38c3.46,2.2 6.1,8 -3.36,8l-0.43 0"/>
   <path class="fil2 str4" d="M625.94 330.12c2.02,1.39 6.9,3.6 2.11,5.58 -0.18,0.07 -6.66,1.16 -6.74,1.15"/>
   <path class="fil2 str4" d="M643.63 322.96c2.99,0 6.05,-0.47 5.08,4.25 -0.36,1.79 -5.3,2.07 -6.77,2.07l-0.42 0"/>
   <path class="fil2 str4" d="M636.89 302.33c2.84,-0.11 11.21,4.75 5.47,6.74 -2.38,0.82 -1.82,0.02 -4.21,0.84"/>
   <path class="fil2 str4" d="M646.57 286.34c8.2,0 8.64,7.15 -4.21,7.15"/>
   <path class="fil2 str4" d="M659.62 284.65c5.27,0 5.01,1.49 8,2.53 0,3.83 -2.01,4.27 -5.47,5.47"/>
   <path class="fil2 str4" d="M656.26 301.91c4.94,0 3.71,5.47 -2.11,5.47"/>
   <path class="fil2 str4" d="M671.83 312.44c8.73,0 6.16,5.47 -1.26,5.47"/>
   <path class="fil2 str4" d="M681.94 294.33c6.82,0 11.78,7.58 -2.53,7.58"/>
   <path class="fil2 str4" d="M699.62 305.7c2.7,6.97 -6.8,5.65 -7.44,4.91 -0.01,-0.02 -1.33,-0.67 -1.4,-0.7"/>
   <path class="fil2 str4" d="M693.72 321.7c0,7.47 5.48,9.3 5.48,-0.84"/>
   <path class="fil2 str4" d="M702.14 290.97c4.01,0.37 9.97,9.82 -0.87,7.61 -0.59,-0.12 -0.16,-0.54 -1.23,-0.46"/>
   <path class="fil2 str4" d="M690.36 337.7c0,6.18 4.71,5.68 8.1,-1.16 0.3,-0.6 0.83,-0.18 0.74,-1.37"/>
   <path class="fil2 str3" d="M655.56 277.04c0.72,-0.98 1.75,2.11 1.75,3.61l0 0.21"/>
   <path class="fil2 str3" d="M668.36 276c-0.03,0.03 0.32,3.21 0.32,3.81"/>
   <path class="fil2 str3" d="M666.36 345.89c0.95,-0.11 1.1,-2.3 3.58,-2.3"/>
   <path class="fil2 str3" d="M664.04 339.8c0.19,-1.1 3.63,-2.1 4.64,-2.1"/>
   <path class="fil2 str3" d="M661.01 332.6c2.13,-2.07 1.07,-1.85 4.51,-1.85"/>
   <path class="fil2 str3" d="M661.76 323.19c0.93,-0.49 2.8,-0.35 3.76,-0.02 0.32,0.11 0.1,0.1 0.42,0.21"/>
   <path class="fil2 str3" d="M660.99 315.93c1.14,-1.27 1.96,-1.18 3.48,-1.18"/>
   <path class="fil2 str3" d="M662.99 307.23c0.57,0.21 1.76,-0.48 4,0.15"/>
   <path class="fil2 str3" d="M665.57 300.29c1.85,-0.23 1.43,-0.36 3.11,0.15"/>
   <path class="fil2 str3" d="M670.94 292.48c1.01,-0.15 2.14,0.79 2.37,1.43"/>
   <path class="fil2 str3" d="M675.2 284.92c0.23,-0.27 2.48,-0.14 2.95,1.2"/>
   <path class="fil2 str3" d="M679.65 278.76c1.69,0 2.92,-0.14 3.55,1.68"/>
   <path class="fil2 str3" d="M686.55 272.86c1.06,0.26 2.16,1.59 2.35,2.51l-0.02 0.23"/>
   <path class="fil2 str3" d="M692.66 270.98c1.41,0.16 1.91,1.99 1.91,3.15"/>
   <path class="fil2 str3" d="M699.1 270.76c1.1,0.56 1.15,1.83 1.15,2.94"/>
   <path class="fil2 str3" d="M706.86 270.48c-0.02,0.3 0.55,1.14 0.55,2.59"/>
   <path class="fil2 str3" d="M713.18 270.36c0.28,1.3 0.75,0.25 0.75,2.5"/>
   <path class="fil2 str3" d="M717.72 268.45c0.87,0.07 1.9,1.05 1.9,1.89"/>
   <path class="fil2 str3" d="M720.81 264.53c0.56,0.35 2.67,0.62 2.59,1.6"/>
   <path class="fil2 str3" d="M695.75 282.81c0.86,0.71 0.65,2.75 -0.13,2.68"/>
   <path class="fil2 str3" d="M712.58 303.68c-0.47,-0.54 -2.23,-0.71 -3.07,-0.93"/>
   <path class="fil2 str3" d="M714.73 316.56c-0.66,0.48 -2.57,1.02 -2.48,-0.12"/>
   <path class="fil2 str3" d="M710.94 327.4c-0.97,1.75 -2.14,-0.51 -2.48,-1.49"/>
   <path class="fil2 str3" d="M704.01 338.32c-1.83,-0.37 -2.08,-1.28 -2.08,-2.94"/>
   <path class="fil2 str3" d="M590.43 348.04c2.15,-0.22 1.85,1.21 6.05,-0.24"/>
   <path class="fil2 str3" d="M592.78 342.22c1.91,1.75 3.29,0.95 4.96,0.95"/>
   <path class="fil2 str3" d="M620.12 363.99c1.37,0.04 3.41,0.04 3.93,-1.67"/>
   <path class="fil2 str3" d="M618.89 357.49c0.74,0.19 4.02,1.12 3.9,-0.43"/>
   <path class="fil2 str3" d="M617.24 350.63c0.6,0.36 3.11,1.08 3.44,0.12"/>
  </g>
  <g id="_2860512418832">
   <path class="fil9 str5" d="M318.97 183.85c1.18,0.06 4.35,2.35 9.73,-1.82 4.04,-3.12 8.62,-7.9 15.53,-6.4 3.52,0.77 9.42,7.48 14.47,8.49 1.27,0.26 2.7,0.13 3.54,-0.48 0.56,-0.41 1.79,-2.46 0.51,0.78 -0.45,1.14 -1.08,2.25 -2.78,2.19 -7.26,-0.27 -13.25,-8.42 -18.81,-8.42 -10.1,0 -6.97,9.31 -15.88,8.22 -1.25,-0.16 -5.54,-1.29 -6.31,-2.56z"/>
   <path class="fil6" d="M406.89 202.68c8.17,-0.46 14.35,-5.54 43.55,-4.14 1.85,0.09 6.8,7.68 6.25,10.13 -0.01,0.07 -1.79,1.89 -2.57,2.85 2.33,4.56 0.03,19.97 9.19,52.36 5.95,21.06 14.92,42.82 20.56,56.41 -0.63,-0.02 -13.07,-5.13 -26.21,-8.51 -17.29,-4.44 -29.86,-4.31 -31.21,-5.39 -2.49,-2 -5.57,-8.01 -16.33,-25.68 -3.46,-5.69 -15.84,-35.89 -16.69,-41.85 -1.42,-9.91 -7.15,-35.02 13.46,-36.18z"/>
   <g>
    <path class="fil2 str5" d="M411.85 213.4c-14.09,-6.38 -12.85,12.67 4.58,9.12 5.18,-1.06 -1.02,-31.49 -19.47,-14.6 -19.16,17.53 16.42,83.82 29.21,98.64 10.13,0 50.58,8.8 57.51,13.74 1.32,0.94 -24.87,-46.51 -29.49,-108.69"/>
    <path class="fil2 str5" d="M405.11 203.03c7.1,-2.35 44.71,-6.27 46.82,-3.59 7.88,9.94 4.06,10.24 0.06,13.03 -4.74,3.29 -24.58,9.3 -36.07,9.66"/>
   </g>
   <path class="fil10 str5" d="M315.68 205.26c0.84,1.89 7.02,1.81 10.55,3.7 13.43,7.18 9.54,16.17 21.82,20.01 5.45,1.7 4.22,0.98 8.71,1.89 4.36,0.89 12.79,9.02 20.11,11.58 4.56,1.59 4.46,-3.16 10.96,-4.28 0.42,-0.07 0.43,-3.78 4.09,-4.45 0.1,3.55 1.38,3.45 2.25,9.84 0.36,2.62 4,4.46 8.09,5.08 2.28,0.34 4.69,-0.64 5.87,0.24 1.24,0.92 2.5,3.09 -0.6,4.66 -2.68,1.36 -6.11,-1.7 -14.04,-0.69 -7.92,1.01 -5.71,-4.91 -12.26,-4.07 -3.46,0.45 -27.82,4.3 -40.12,-5.6 -4.55,-3.66 -17.65,-12.21 -23.02,-13.32 -9.36,-9.19 -1.81,-23.24 -2.41,-24.59z"/>
   <path class="fil3" d="M170.24 136.91c-0.97,-0.29 -1.94,-0.57 -2.92,-0.85 -17.12,-4.89 -76.48,-16.17 -89.71,-7.06 8.53,-3.43 29.47,-1.39 37.99,0.68 11.45,2.78 22.08,14.63 11.99,26.48 -3.09,3.64 -3.49,2.24 0.94,3.08 14.53,2.76 30.24,20.82 17.36,25.94 -17.94,7.14 -29.83,11.15 -36.7,19.68 11.92,-7.16 24.21,-12.73 37.55,-15.45 9.91,-2.01 25.12,-3.07 25.12,10.61 0,3.46 -0.8,6.1 0.85,5.53 9.8,-3.39 13,3.24 4.71,8.99 -5.08,3.53 -11.6,8.64 -10.64,15.48 1.86,-7.16 17.4,-20.98 24.15,-18.87 11.41,3.56 11.92,10.29 8.27,20.85 -0.04,0.13 37.96,-23.54 55.65,6.25 8.26,9.62 29.3,-18.77 24.09,-29.83 -2.36,-5.02 -13.67,-16.86 -13.87,-17.25 -0.49,-0.96 -0.86,-2.55 -1.63,-4.57 -10.85,-28.56 -13.6,-43.72 -29.81,-74.05 -8.72,-16.32 -31.87,-40.29 -53.99,-51.86 -7.27,-3.81 -13.74,-6.88 -20.89,-5.72 6.12,0.48 9.2,2.25 12.96,3.94 20.08,9.05 32.09,19.7 32.09,30.9 0,12.4 -12.5,20.58 -22.75,15.24 -9.01,-4.69 -18.91,-7.81 -27.47,-10.13 -10.99,-2.99 -28.98,-7.55 -36.17,-5.15 6.31,0.16 8.27,0.33 14.3,1.9 18.66,4.87 47.72,13.29 49.34,17.98 5.24,15.13 -6.58,8.39 -17.86,10.69 -7.01,1.43 0.68,-0.72 3.95,5.88 1.33,2.68 2.33,4.43 3.1,10.69z"/>
   <path class="fil2 str5" d="M233.63 112.81c-8.72,-16.32 -31.87,-40.29 -53.99,-51.87 -7.27,-3.8 -13.74,-6.88 -20.89,-5.72 6.12,0.49 9.2,2.25 12.96,3.95 20.08,9.05 32.09,19.7 32.09,30.9 0,12.4 -12.5,20.58 -22.75,15.24 -9.01,-4.69 -18.91,-7.82 -27.47,-10.14 -10.99,-2.98 -28.98,-7.55 -36.17,-5.14 6.31,0.16 8.27,0.33 14.3,1.9 18.66,4.86 47.72,13.29 49.34,17.98 5.24,15.13 -6.58,8.39 -17.86,10.69 -7.01,1.42 0.68,-0.72 3.95,5.88 1.33,2.68 2.14,4.37 2.91,10.63 56.27,18.17 68.7,33.23 95.37,55.99 0.25,0.16 -0.31,-1.86 -1.98,-6.25 -10.85,-28.55 -13.6,-43.71 -29.81,-74.04z"/>
   <path class="fil10" d="M179.58 354.5c-18.54,8.74 -36.71,-4.33 -44.47,-15.34 -7.14,-10.13 -23.27,-36.43 -34.68,-39.36 -8.42,-2.17 -4.11,9.29 -11.33,14.9 -6.41,4.97 -20.48,3.18 -18.36,-0.78 3.17,-5.92 0.98,-4.67 -5.81,-8.04 -2.14,-1.06 3.39,-3.52 5.58,-5.28 8.35,-6.72 3.33,-4.2 -1.7,-7.78 -1.65,-1.17 -8.36,-1.92 -1.52,-7.68 3.65,-3.07 8.81,-6.85 14.52,-7.8 2.8,-0.47 9.13,1.68 13.25,3.06 3.31,1.1 4.14,-13.84 20.18,15.37 2.14,3.89 22.1,29.87 25.19,33.25 8.6,9.4 19.5,23.41 32.32,18.28 17.67,-7.07 20.7,-20.1 25.1,-47.14 0.74,-4.54 1.92,-30.43 3.68,-34.14 5.92,-12.44 9.1,-12.85 14.42,-20.21 6.19,-8.55 6.38,-13.58 10.28,-17.37 3.91,-3.79 15.65,-7.24 28.62,10.07 8.55,2.95 -0.99,-9.62 3.3,-11.03 22.74,-7.43 1.81,-9.44 4.92,-18.43 4.11,-0.85 1.98,-1.05 8.18,-1.05 3.38,0 5.93,0.32 7.43,-1.81 -0.01,0.1 1.95,-2.13 0.88,-3.63 -0.99,-1.41 1.12,-2.26 -0.68,-4.27 -0.75,-0.83 -2.8,-3.51 -5.46,-3.97 -8.9,-1.54 -5.81,-6.3 -9.39,-9.88 -2.56,-2.56 -5.78,-3.05 -7.15,-5.95 -7.41,-15.74 14.36,-16.61 20.62,-11.74 -13.74,-5.15 4.85,-25.77 25.04,-23.35 9.38,1.12 19.06,-0.78 25.29,5.86 2.74,2.93 2.5,5.69 1.5,7.75 0.06,0.41 7.42,3.25 8.6,3.8 3.8,1.76 5.35,4.36 4.97,6.03 -0.41,1.84 -3.8,3.62 -5.28,4.49 -1.56,0.92 -2.15,0.31 -0.91,1.79 0.07,0.08 2.43,0.35 2.86,1.53 0.6,1.62 -2.42,4.68 -3.4,2.03 -0.68,-1.85 -4.3,-0.11 -7.91,1 -5.7,1.75 -11.91,4.16 -9.43,6.46 0.87,0.82 2.84,2.42 6.3,2.87 11.59,1.51 9.26,-7.29 15.44,-8 6.25,4.26 -5.2,6.48 -2.66,9.66 0.91,1.14 5.13,0.51 5.13,4.81 -0.99,0 -11.18,-6.94 -6.78,-1.16 4.16,5.48 -9.36,-5.69 -5.65,-0.16 0.6,0.89 -0.54,1.11 -1.61,0.36 -1.2,-0.86 -2.49,-2.72 -4.2,-1.94 -5.52,2.55 -11.91,4.17 -10.81,9.2 0.56,2.58 6.09,7.36 7.92,18.58 0.61,3.77 -0.74,7.92 0.63,12.15 0.84,2.6 6.32,7.29 6.87,11.01 0.86,5.77 7.26,20.06 12.14,22.7 10.23,5.55 18.63,13.95 26.66,18.8 2.69,1.62 2.57,3.06 6.16,3.57 6.17,0.88 8.16,-4.46 12.67,-8.73 1.08,-1.03 0.39,-6.94 2.68,-7.95 0.87,-0.39 2.54,1.27 4.45,1.85 3.92,1.21 -12.95,12.46 -4.3,15.3 1.9,0.63 7.69,4.44 10.36,1.43 0.84,-0.94 4.19,-2.76 5.59,-2.05 3.02,1.55 -0.16,7.88 -5.03,7.88 -3.25,0 -19.24,-2.93 -10.17,2.24 1.74,0.98 4.84,2.03 8.11,2.14 2.6,0.09 5.75,-3.05 7.5,-2.95 0.77,0.05 2.09,3.02 2.42,3.32 2.6,2.46 -6.38,2.98 -14.76,3.13 -5.92,0.1 -11.66,0.27 -12.27,-0.27 -2.12,-1.88 -1.95,-3.98 -10.13,-6.37 -19.62,-5.76 -23.91,-7.84 -41,-21.46 -5.34,-4.25 -3.1,-4.73 -10.44,-4.44 -2.55,0.1 -3.38,-16.54 -10.21,-21.74 -9.44,-7.18 -5.13,-4.6 -6.9,-5.74 -3.52,-2.27 6.82,16.01 -0.87,20.27 -4.25,2.35 -4.63,2.07 -5.03,2.68 -0.55,0.83 -0.46,1.21 -1.86,2.98 -1.21,1.54 0.27,-2.4 -4.31,-5.1 -7.75,-4.57 -3.1,-14.48 -3.88,-15.2 -0.33,-0.31 -1.26,-0.08 -5.35,4.38 -1.23,1.35 -6.14,3.39 -10.8,3.7 3.97,2.96 2.85,15.09 -1.93,23.04 3.99,3.43 6.87,1.46 18.94,10.25 12.89,9.38 10.8,11.78 21.71,22.24 3.8,3.64 10.77,9.96 5.65,19.42 -3.01,5.56 -8.39,3.81 -10.24,7.1 -0.72,1.29 -3.7,4.56 -6.95,5.52 -5.81,1.73 -14.24,5.2 -17.46,7.38 -5.97,4.05 -17.19,11.07 -6.68,16.93 3.66,2.03 17.69,9.13 17.68,13.59 -2.53,1.17 -4.26,0.3 -3.32,5.75 -1.1,1.37 -3.69,1.2 -8.11,1.53 -5.36,0.39 -3.89,-8.47 -11.34,-7.39 -2.01,0.29 -4.17,-0.07 -4.45,-0.64 -0.78,-1.56 3.92,-5.47 -0.41,-7.34 -1.68,-0.72 -7.31,-1.77 -9.66,-4.05 -1.68,-1.64 -1.2,-4.03 1.46,-6.84 4.65,-4.92 -4.94,0.58 -0.97,-3.39 3.78,-3.79 -8.11,-3.39 -0.13,-4.71 8.89,-1.47 -0.32,-0.75 2.11,-3.88 2.76,-3.56 1.83,5.74 7.96,-6.25 1.34,-2.6 10.54,-9.17 15.68,-9.52 16.04,-1.1 4.14,-18.26 3.78,-13.7 -0.56,7.17 -2.49,-4.92 -7.25,-1.51 -0.59,0.42 -9.34,-0.94 -7.23,-7.65 -2.11,1.26 -2.83,2.85 -8.95,3.56 2.48,9.46 5.15,12.74 -8.43,21.28 -3.52,2.21 -14.7,9.06 -20.23,17.27 -1.2,1.79 1.3,4.59 2.6,6.52 11.07,16.45 4.29,10.09 2.41,12.48 -0.64,0.81 -0.15,2.94 -0.52,4.72 -0.54,2.68 -14.6,3.65 -11.49,-7.71 0.8,-2.92 -1.09,-7.27 -2.75,-8.11 -0.82,-0.41 -0.54,-0.03 -1.92,1.97 -5.68,8.19 1.96,-10.41 -5.45,-2.02 -5.22,5.92 -2.33,-11.26 3.5,-14.02 4.78,-2.25 4.23,-5.26 9.9,-6.94 2.69,-0.8 8.4,-2.41 12.1,-5.95 6.94,-6.64 0.27,-15.28 -8.34,-20.14 -12.99,-7.33 -13.47,-4.49 -18.39,-19.22 -4.14,10.5 -8.36,46.91 -34.14,59.04z"/>
   <path class="fil2 str5" d="M229.17 312.83c6.64,3.95 20.34,13.59 11.28,21.99 -4.31,3.99 -14.8,5.21 -16.94,8.31 -4.44,6.45 -8.47,2.63 -12.1,17.06 -1.08,4.31 -2.74,8.07 -0.96,11.65l0.61 0.85"/>
   <path class="fil2 str5" d="M235.86 225.55c-15.15,0 -11.73,11.5 -20.93,21.43 -23.96,25.88 -10.3,26.11 -19.6,66.53 -6.69,29.07 -17.59,33.05 -26.84,34.19 -15.39,1.9 -30.5,-22.4 -45.39,-40.66 -10.67,-13.07 -19.8,-35.86 -25.77,-28.29 -2.68,3.39 -15.35,-11 -31.13,7.63"/>
   <path class="fil2 str5" d="M96.27 303.28c14.15,-15 36.4,55.37 70.29,54.23 27.49,-0.92 42.18,-31.88 47.16,-62.05 1.97,17.05 24.81,25.9 33.43,7.62 0.8,-1.7 1.14,-0.44 0.24,1.56 -3.86,8.58 14.65,13.64 21.25,7.57 3.96,-3.64 -4.95,5.36 8.07,7.03 0.05,0 5.88,5.05 -1.77,9.04 -0.89,0.47 -0.91,0.8 -1.21,1.69"/>
   <path class="fil2 str5" d="M285.34 325.13c-2.87,4.83 -9.05,12.11 -15.49,6.77"/>
   <path class="fil2 str5" d="M277.6 353.2c-22.28,15.38 11.76,16.74 13.96,28.16 -4.62,0.7 -2.52,4.16 -3,5.55 -4.04,2.71 -8.1,1.66 -8.43,1.73 -4.56,0.97 -4.59,-7.75 -11.62,-7.39 -10.01,0.5 1.06,-4.94 -3.72,-7.21 -7.71,-3.66 -15.84,-2.89 -9.45,-12.13"/>
   <path class="fil2 str5" d="M284.37 359c0,-6.54 -1.74,-9.67 3.87,-11.61"/>
   <path class="fil2 str5" d="M292.12 354.16c0.27,-6.17 -3.4,-8.47 6.33,-10.12 2.13,-0.36 8.01,-7.24 8.18,-7.3 2.41,-0.83 10.17,-4.1 10.17,-8.71 0,-9.65 -0.23,-11.58 -5.81,-15.5 -6.84,-4.82 -10.72,-14.65 -22.57,-23.6 -10.21,-7.73 -35.29,-11.95 -30.18,-26.71"/>
   <path class="fil2 str5" d="M268.91 278.93c5.94,-10.87 5.33,-15.6 3.37,-23.18"/>
   <path class="fil2 str5" d="M260.18 253.99c12.94,5.26 21.71,-1.5 25.26,-4.78 2.41,-2.23 1.71,-1.67 0.89,0.37 -1.38,3.44 -1.16,10.06 2.27,12.32 8.28,5.43 4.15,3.93 5.05,6.53 4.83,1 0.35,-3.33 4.8,-4.23 12.31,-2.51 4.24,-16.1 4.49,-22.61"/>
   <path class="fil2 str5" d="M295.02 223.26c0,17.87 9.99,15.64 18.75,31.7 2.85,5.2 2.41,16.47 9.24,14.97 3.22,-0.71 19.42,17.13 38.13,23.36 4.51,1.5 18.1,4.3 19.19,8.17 0.69,2.44 11.85,0.89 22.97,0.93 10.47,0.03 6.77,-11.59 -2.42,-4.89 -2.64,1.92 -12.44,-2.11 -12.6,-2.91 -0.32,-1.61 10.66,1.42 15.48,-1.15 2.02,-1.08 9.41,-8.21 -0.45,-7.9 -1.41,0.05 -2.1,3.03 -4.56,3.81 -2.48,0.79 -6.33,-0.7 -10.74,-3.52 -4.31,-2.75 13.33,-15.76 4.2,-16.45 -5.66,-0.44 -2.92,3.25 -4.95,7.2 -1.78,3.48 -5.12,7.08 -6.58,7.9 -1.67,0.94 -6.18,3.12 -8.36,1.58 -5.28,-3.77 -22.45,-17.27 -29.02,-20.38 -8.89,-4.21 -10.38,-23.21 -19.89,-33.3 -2.49,-2.63 -0.36,-14.47 -2.54,-20.69 -1.67,-4.74 -11.45,-11.78 -4.43,-17.06 1.62,-1.22 9.46,-5.2 10.03,-3.55 1.35,3.88 10.83,4.9 5.16,10l-0.32 0.65"/>
   <path class="fil2 str5" d="M335.95 193.98c0.64,3.94 2.81,1.24 -0.77,7.26"/>
   <path class="fil2 str5" d="M340.51 199.31c6.64,-9.6 -1.73,-7.78 -2.91,-11.62"/>
   <path class="fil2 str5" d="M254.85 238.51c-17.68,-29.79 -55.69,-6.12 -55.65,-6.25 3.65,-10.57 3.14,-17.29 -8.27,-20.85 -6.75,-2.11 -22.29,11.71 -24.15,18.87 -0.96,-6.84 5.56,-11.96 10.64,-15.48 8.29,-5.76 5.09,-12.39 -4.71,-9 -1.65,0.58 -0.85,-2.06 -0.85,-5.52 0,-13.69 -15.21,-12.63 -25.12,-10.61 -13.34,2.72 -25.63,8.29 -37.55,15.45 6.87,-8.53 18.76,-12.54 36.7,-19.68 12.88,-5.12 -2.83,-23.18 -17.36,-25.94 -4.43,-0.85 -4.03,0.56 -0.94,-3.08 10.09,-11.85 -0.54,-23.7 -11.99,-26.48 -8.52,-2.07 -29.46,-4.11 -37.99,-0.68 13.23,-9.12 72.59,2.16 89.71,7.05 41.31,11.81 76.45,33.46 111.73,70.26"/>
   <path class="fil3 str5" d="M292.84 158.42c6.59,3.33 -2.73,14.26 -14.15,3.94 -6.33,-5.72 -9.98,-14.89 -10.66,-23.88 -0.73,-9.81 5.13,11.57 12.03,15.66 7.51,4.44 9.23,2.48 12.78,4.28z"/>
   <path class="fil3 str5" d="M296.12 146.5c-17.46,0 -13.47,-32.16 -11.14,-20.75 2.5,12.25 5.16,9.04 11.66,13.38 2.36,1.58 3.27,6.06 -0.52,7.37z"/>
   <path class="fil2 str5" d="M302.88 144.99c3.92,-2.37 0.75,-10.15 -4.47,-11.5"/>
   <path class="fil2 str5" d="M308.57 145.59c7.66,-2.15 2.16,-9.02 -0.24,-9.56"/>
   <path class="fil2 str5" d="M313.41 146.32c8.66,-0.66 2.18,-6.45 2.66,-9.32"/>
   <path class="fil2 str5" d="M322.24 145.47c5.36,0.5 18.72,17.77 -8.07,11.82 -8.34,-1.86 -14.39,6.92 -5.72,12.5"/>
   <path class="fil9 str5" d="M310.47 160.31c-0.89,0.12 -2.58,2.23 1.08,5.89 4.94,4.94 15.17,0.19 7.66,-6.19 -2.29,-1.94 -6.1,-0.07 -8.74,0.3z"/>
   <path class="fil11 str5" d="M311.84 161.81c-1.61,1.06 -1.63,4.39 2.53,4.71 1.51,0.12 2.52,-3.3 1.74,-4.36 -0.45,-0.62 -2.23,-1.68 -4.27,-0.35z"/>
   <path class="fil2 str5" d="M329.24 157.34c1.28,0.33 10.68,4.08 11.59,4.99 2.61,2.6 3.47,5.6 -1.31,8.19 -2.52,1.36 -5.18,1.1 -0.62,3.18 2.05,0.94 -0.68,7.2 -2.93,2.68 -1.03,-2.07 -14.49,3.99 -16.29,5.06 -3.37,1.99 1.62,4.66 4.13,4.96 13.9,1.71 8.05,-2.24 15.07,-7.23 0.75,-0.53 3.9,-0.71 3.8,1.63 -0.19,4.52 -2.56,3.37 -5.08,6.89"/>
   <path class="fil11 str5" d="M339.3 166.04c1.33,-2.62 -8.48,2.94 -3.15,3.14 1.22,0.05 2.58,-2.01 3.15,-3.14z"/>
   <path class="fil2 str5" d="M317.28 179.83c-5.78,0 -4.49,9.2 1.45,9.2"/>
   <path class="fil2 str5" d="M310.99 179.35c-8.81,0 -0.89,11.13 1.93,10.89"/>
   <path class="fil2 str5" d="M303 177.41c-5.8,3.46 -2.09,11.95 3.87,14.85 1.26,0.61 3.33,0.88 4.6,0.88"/>
   <path class="fil2 str5" d="M296.47 186.85c-5.1,3.08 5,10.34 9.68,9.92"/>
   <path class="fil2 str5" d="M296.47 180.56c-1.78,6.06 -9.63,2.89 -11.03,11.47 -1.05,6.46 -4.11,8.76 -9.56,4.44 -3.5,-2.78 -6.58,-2.37 -8.29,-4.58 -2.11,-2.71 -0.87,-4.78 -4.03,-7.94 -4.17,-4.17 -10.11,-5.17 -7.68,-12.59 2.66,-8.11 12.04,-8.82 18.63,-5.38 4.99,2.6 7,7.3 14.12,3.95"/>
   <path class="fil2 str5" d="M282.44 176.2c-1.51,2.88 -9.58,3.84 -12.14,1.13 -3.76,-3.97 -1.43,-5.46 -4.02,-6.99 -1.33,-0.79 -9.28,1.05 -5.1,-2.33 3.79,-3.05 10.35,-1.37 11.98,0.53 2.96,3.48 7.3,3.97 8.19,4.34 1.19,0.49 1.43,2.32 1.09,3.32z"/>
   <path class="fil2 str5" d="M289.45 173.78c-3.44,-2.85 -5.19,8.47 -12.1,8.47 -12.05,0 -10.57,-7.92 -13.55,-8.95 -4.36,-1.51 -4.11,4.82 -2.11,6.13 2.23,1.47 8.15,6.21 8.16,8.99 0.02,2.73 12.69,10.61 12.34,2.54 -0.21,-5.1 7.26,-9.62 10.1,-12.18 3.45,-3.1 -1.61,-3.98 -2.84,-5z"/>
   <path class="fil2 str5" d="M323.81 160.48c4.16,4.83 -1.21,10.16 -6.53,10.16"/>
   <path class="fil2 str5" d="M326.71 160.96c2.23,1.41 3.87,8.21 -1.69,9.68"/>
   <path class="fil2 str5" d="M288.48 145.96c-5.7,0 -7.77,2.24 -10.79,6.51"/>
   <path class="fil2 str5" d="M272.27 159.02c-2.43,0 -4.52,-1.08 -5.32,-3.38"/>
   <path class="fil2 str5" d="M272.03 162.41c-2.1,0 -5.49,-0.11 -5.79,-2.44l-0.26 -0.22"/>
   <path class="fil2 str5" d="M217.83 360.59c-3.44,0.56 -6.99,12.59 -3.22,15.8 0.02,0.02 0.77,1.54 0.8,1.62"/>
   <path class="fil2 str5" d="M223.15 361.07c-3.8,6.96 -2.11,5.73 -2.42,13.55l0.49 0.97"/>
   <path class="fil2 str5" d="M260.66 314.87c0.27,2.92 5.92,13.73 -2.71,18.45 -1.63,0.9 -17.98,12.23 -18.74,13.36 -1.87,2.75 -8.53,6.47 -6.34,9.26 3.74,4.75 7.78,12.19 7.7,16.45 -0.02,1.49 -3.8,-2.3 -3.5,3.33 0.25,4.68 -8.28,4.39 -11.83,1.38 -2.31,-1.96 0.16,-7.44 0.33,-9.49 0.18,-2.06 -3.93,-5.59 -2.42,-6.54"/>
   <path class="fil2 str5" d="M179.68 108.32c14.51,8.47 42.43,27.63 56.21,60.68"/>
   <path class="fil2 str5" d="M197.38 75.93c34.92,26.31 43.53,61.42 58.5,95.43"/>
   <path class="fil2 str5" d="M110.4 128.93c102.08,8.9 153.35,65.36 165.26,77.54"/>
   <path class="fil2 str5" d="M256.06 204.29c-40.19,-22.66 -95.96,-22.72 -118.43,-12.19"/>
   <path class="fil2 str5" d="M261.39 224.14c-11.34,-16.14 -56.17,-18.36 -72.39,-12.94"/>
   <path class="fil2 str5" d="M282.8 348.66c-2.44,6.3 -7.15,11.86 0.97,16.54l0.48 -0.57"/>
   <path class="fil2 str5" d="M285.7 321.56c2.91,0.3 7.1,13.56 -5.32,13.07 -5.04,-0.2 -15.49,7 -17.42,12.58 -1.53,4.42 -12.12,-1.91 -14.08,7.7 -0.36,1.79 -0.41,6.79 -3.83,5.85 -0.69,-0.19 -0.35,0.15 -0.97,-0.97"/>
   <path class="fil2 str5" d="M261.02 354.47c-10.98,-7.59 -1.99,10.65 -16.45,10.65"/>
   <path class="fil9 str5" d="M403.75 287.64c-0.88,4.83 8.65,1.12 9.46,-8.94 0.2,-2.37 -0.53,-4.11 -1.05,-2.02 -3.43,13.61 -7.43,5.59 -8.41,10.96z"/>
   <path class="fil9 str5" d="M406.97 296.42c-1.98,3.58 2.45,3.23 4.88,1.13 2.63,-2.28 4.76,-4.75 4.94,-9.74 0.09,-2.25 -1.81,5.13 -4.52,6.72 -1.32,0.78 -4.57,0.58 -5.3,1.89z"/>
   <path class="fil9 str5" d="M389.85 268.99c0.77,-4.55 5.28,-8.47 10.3,-7.55 0.03,0.01 2.15,0.82 1.07,0.89 -13.07,0.83 -3.81,9.02 -8.83,10.04 -2.7,0.56 -2.97,-0.84 -2.54,-3.38z"/>
   <path class="fil2 str5" d="M245.66 242.94c0,6.44 6.85,12.96 16.45,15.25"/>
   <path class="fil2 str5" d="M235.74 241.49c0,5.95 8.58,16.95 17.66,18.01"/>
   <path class="fil2 str5" d="M233.56 254.56c4.46,4.84 7.06,7.55 16.7,7.98"/>
   <path class="fil2 str5" d="M243.22 330.92c1.2,-3.39 3.66,-7.71 10.3,-4.92"/>
   <path class="fil2 str5" d="M243.08 323.81c0.18,-1.89 2.89,-3.77 5.57,-2.66"/>
   <path class="fil2 str5" d="M281.47 318.92c1.86,0.3 5.39,8.49 -3.87,10.53"/>
   <path class="fil2 str5" d="M220.01 361.99c-2.04,2.25 -1.94,5.3 -1.94,8.22"/>
   <path class="fil2 str5" d="M232.11 363.92c2.72,1.49 5.19,7.54 5.08,10.41 -0.02,0.54 -0.07,0 0.11,0.5l-0.24 -0.03"/>
   <path class="fil2 str5" d="M288.57 385.45c-0.94,-5.68 -3.25,-5.11 -6.8,-8.3 -0.06,-0.06 -2.27,-0.9 -2.48,-0.89"/>
   <path class="fil6 str5" d="M322.97 180.28c0,1.03 0,1.49 0.13,2.51 0.04,0.36 0.02,0.65 0.22,0.98 0.07,0.13 -0.01,0.53 0.74,0.53 0.25,0 1.88,-0.4 1.93,-0.58 0.15,-0.57 -0.06,-0.88 -0.06,-1.66 0,-0.46 0.27,-3.24 -0.1,-3.18 -0.89,0.14 -2.2,0.6 -2.85,1.2 -0.04,0.05 -0.01,0.12 -0.01,0.2z"/>
   <path class="fil6 str5" d="M330.31 185.92c0.18,-1.01 0.27,-1.47 0.33,-2.49 0.02,-0.37 0.1,-0.65 -0.04,-1.01 -0.05,-0.14 0.1,-0.52 -0.63,-0.65 -0.25,-0.05 -1.92,0.05 -2,0.22 -0.26,0.53 -0.11,0.87 -0.25,1.63 -0.09,0.46 -0.85,3.14 -0.49,3.15 0.9,0.03 2.28,-0.18 3.02,-0.66 0.06,-0.03 0.04,-0.11 0.06,-0.19z"/>
   <path class="fil6 str5" d="M331.17 178.65c0,0.4 0.01,2.13 0.36,2.21 0.26,0.05 2.08,-0.45 2.2,-0.8 0.2,-0.57 0.06,-2.33 0.06,-3.09 0,-1.53 0.09,-1.02 -1.33,-0.58 -0.16,0.05 -1.23,0.45 -1.55,0.55 -0.04,0.02 0.26,1.38 0.26,1.71z"/>
   <path class="fil2 str5" d="M260.91 346.18c-2.5,0.11 -4.77,-2.71 -10.82,0.3 -0.43,0.21 -2.57,3.1 -2.73,3.57"/>
   <path class="fil2 str5" d="M107.99 294.16c0,-11.66 -25.87,-17.85 -39.03,-4.68 -22.92,22.92 -26.42,-4.83 -15.61,-2.62 0.52,0.1 1.48,1.08 1.41,1.97"/>
   <path class="fil2 str5" d="M113.8 308.19c-0.68,-4.77 -17.55,-21.16 -24.2,-1.94 -1.44,4.17 -13.05,14.79 -18.39,15.45"/>
   <path class="fil2 str5" d="M103.39 292.46c-8.39,-5.8 -27.81,-6.71 -34.04,2.78 -0.28,0.43 -0.75,0.91 -1.28,1.09"/>
   <path class="fil2 str5" d="M93.72 294.88c-6.84,-3.09 -21.34,7.83 -25.33,13.91 -1.87,2.85 -9.12,7.59 -12.74,3.35 -0.3,-0.36 -1.68,-0.84 -2.1,-0.81"/>
   <path class="fil2 str5" d="M82.59 304.07c-1.4,2.04 -9.88,5.8 -12.23,10.53 -0.16,0.32 -3.58,4.56 -4.71,4.48"/>
   <g>
    <path class="fil9 str6" d="M451.98 288.34c-0.85,2.06 1.27,3.89 4.1,2.51 3.4,-1.65 -0.07,-5.44 1.95,-2.56 1.5,2.13 2.03,3.19 1.65,6.27 -0.46,3.75 -1.63,4.42 1.35,6.55 0.85,0.6 3.35,-1.71 3.35,-3.16 0,-5.04 -1.23,-5.06 -2.58,-9.49 -1.07,-3.54 -5.92,-6.98 -5.72,-12 0,-0.02 -0.94,-4.71 -0.94,-2.64 0,3.35 -1.86,11.36 -3.16,14.52z"/>
    <g>
     <path class="fil2 str6" d="M404.99 231.4c-1.81,-2.75 -5.48,2.83 -0.76,2.83 2.57,0 -0.45,-7.54 3.59,-7.54 0.43,0 0.87,0 1.31,0"/>
     <path class="fil2 str6" d="M407.82 231.59c-1.45,-3.64 2.14,-1.14 2.26,-1.13 0.67,0.02 2.36,-2.64 4.95,-0.81 1.06,0.76 3.81,-1.41 4.47,-1.64"/>
     <path class="fil2 str6" d="M426.1 226.88c-2.56,-1.17 -2.67,0.58 -2.32,0.99 1.81,2.15 5.34,2.78 5.34,-1.94 0,-1.63 1.17,-2.07 2.64,-1.69"/>
     <path class="fil2 str6" d="M431.4 225.69c-2.29,-0.1 -0.24,0.95 2.15,0.95 1.98,0 1.42,-0.68 1.9,-2.07 1.32,-0.45 -0.07,0.6 2.07,-0.75 1.69,-1.06 1.23,2.88 1.33,1.68 0.03,-0.35 4.03,-6.81 4.03,2.87 0,0.07 0,1.77 0,0.76"/>
     <path class="fil2 str6" d="M445.14 221.79c-0.38,-0.04 -1.16,-2.12 0.76,-2.08 2.72,0.06 3.11,-0.6 3.82,1.12 0.26,0 -0.02,-0.14 0.33,-0.55"/>
     <path class="fil2 str6" d="M406.49 241.58c-1.44,2.09 -2.49,-2.05 2.88,1.89 1.48,1.08 6.38,8.56 -0.42,7.74 -2.94,-0.35 -0.17,-5.52 5.09,-5.29 1.48,0.06 2.64,-0.77 2.64,-2.26"/>
     <path class="fil2 str6" d="M414.04 243.28c0.39,-0.33 2.85,-4.36 4.59,-1.71 0.79,1.2 -5.36,1.81 -1.34,-0.88 1.01,-0.68 4.23,-0.51 5.17,0.58l0.25 0.12"/>
     <path class="fil2 str6" d="M426.29 242.15c0.05,-0.49 1.57,-3.55 2.95,-2.01 1.2,1.33 3.65,0.37 3.65,-2.45 0,1.8 0.88,2.83 2.83,2.59 0.37,-0.05 0.56,-0.3 0.75,-0.58"/>
     <path class="fil2 str6" d="M438.36 236.49c1.06,0.1 9.23,9.81 0.56,9.81 -0.98,0 -2.07,-0.3 -2.07,-1.32"/>
     <path class="fil2 str6" d="M440.06 242.9c-1.75,-1.03 -0.77,-1.98 -1.32,-3.58"/>
     <path class="fil2 str6" d="M441.37 235.74c2.55,-1.51 2.43,3.32 4.59,0.01 0.77,-1.16 -0.84,-1.33 3.52,-1.14 1.64,0.07 1.51,-2.24 2.66,-2.09l0.17 0.2"/>
     <path class="fil2 str6" d="M411.4 261.75c-2.63,-1.37 0.18,-5.95 2.46,-4.68 0.02,0.01 0.45,2.86 0.35,4.43 -0.09,1.33 -0.82,1.04 1,0.69 2.36,-0.45 5.74,-0.99 2.02,-3.4 -1.42,-0.92 2.43,-0.43 2.43,2.18 -0.78,0.12 -0.07,-6.76 4.06,-3.24 0.01,0.01 1.25,2.61 3.14,1.73 2.11,-0.99 -2.68,-2.23 0.19,-2.23 0.12,-0.58 3.85,-0.17 4.52,0 -0.03,-0.37 0.41,-0.97 0.75,-0.94"/>
     <path class="fil2 str6" d="M436.66 256.29c-1.38,-0.72 -3.47,-1.83 -0.7,-2.9 4.53,-1.74 3.36,4.74 6.23,2.02 0.78,-0.73 0.34,-2.87 -0.63,-3.84 -1.99,-1.99 -0.95,-1.51 1.72,-1.51 0.42,0 1.22,0.09 1.3,0.57"/>
     <path class="fil2 str6" d="M447.22 250.63c0.98,1.11 9.87,12.26 3.39,9.49 -3.67,-1.57 -1.13,-1.53 -1.13,-3.08"/>
     <path class="fil2 str6" d="M450.8 251.57c1.69,-2.83 3.91,-4.4 1.44,-7.68"/>
     <path class="fil2 str6" d="M454.57 250.63c-0.78,0.07 -2.37,2.16 1.13,1.9 0.68,-0.05 0.87,-1.82 0.24,-2.14 -0.17,-0.08 -0.18,-0.16 -0.24,-0.33"/>
     <path class="fil2 str6" d="M418.94 276.84c-1.2,-0.7 -2.52,-2.55 -2.04,-3.93 0.14,-0.03 2.44,-3.08 7.52,-0.41 1.55,0.81 2.07,4.63 6.36,3.53 1.36,-0.34 4.02,-5.46 -2.76,-4.06 -0.26,0.77 0.02,1.23 0.72,1.47"/>
     <path class="fil2 str6" d="M420.63 274.01c3.2,0 3.83,1.42 3.6,4.52 0,0.1 -1.86,2.03 -2.1,-0.56 -0.07,-0.73 -0.18,-0.58 -0.18,-1.51"/>
     <path class="fil2 str6" d="M434.21 273.07c2.46,-4.1 5.69,-0.69 8.67,-1.51 0.3,-0.08 1.24,-2.25 -1.19,-3.26 -3.45,-1.42 -1.24,0.05 -0.69,0.05"/>
     <path class="fil2 str6" d="M445.71 269.3c-0.23,-0.61 -1.85,-2.31 0.57,-0.9 1.14,0.67 6.28,7.27 5.29,-1.2 -0.52,-4.46 1.36,5.39 3.9,-0.73 0.44,-1.07 -0.59,-2.98 1.74,0.5 1.09,1.63 3.75,6.45 3.58,8.36"/>
     <path class="fil9 str5" d="M408.59 253.17c3.7,-0.77 6.77,-4.58 5.85,-8.68 0,-0.02 -0.73,-1.73 -0.76,-0.84 -0.27,10.74 -7.26,3.4 -7.95,7.55 -0.37,2.22 0.78,2.41 2.86,1.97z"/>
    </g>
    <path class="fil9" d="M439.16 325.14c0.05,1.13 -13.81,22.27 0.09,19.44 6.26,-1.28 1.03,-17.78 -0.09,-19.44z"/>
    <path class="fil9" d="M465.3 353.2c0,4.17 -4.65,17.33 3.95,15.57 7.37,-1.5 -3.95,-15.53 -3.95,-15.57z"/>
   </g>
   <path class="fil2 str5" d="M250.92 297.06c4.47,0.56 7.77,3.53 10.16,4.36"/>
   <path class="fil2 str5" d="M263.5 291.74c4.88,0 3.09,1.16 5.32,1.94"/>
   <path class="fil2 str5" d="M270.27 302.87c3.63,0 2.57,2.27 5.81,3.39"/>
   <path class="fil2 str5" d="M279.95 297.55c3.17,-0.14 2.37,2.21 4.36,2.9"/>
   <path class="fil2 str5" d="M275.11 287.87c3.26,0.46 3.75,2.84 5.33,3.39"/>
   <path class="fil2 str5" d="M287.18 308.19c0.01,0.01 5.59,4.76 5.84,4.84"/>
   <path class="fil2 str5" d="M296.4 307.71c1.46,0.21 5.46,2.19 5.33,3.87"/>
   <path class="fil2 str5" d="M300.28 323.2c-0.08,0.17 -1.94,5.82 -2.42,6.29"/>
   <path class="fil2 str5" d="M308.5 325.62c0,3.48 -1.87,6.14 -5.8,5.8"/>
   <path class="fil2 str5" d="M282.85 339.65c-1.77,-0.08 -9,1.01 -9.23,2.9l0.04 0.97"/>
   <path class="fil2 str5" d="M293.5 342.07c-1.49,0 -5.03,-0.48 -4.84,1.94"/>
   <path class="fil2 str5" d="M295.44 333.84c-3.56,0.5 -3.8,3.66 -5.81,4.36"/>
   <path class="fil2 str5" d="M273.18 349.81c-2.71,0.38 -4.84,2.55 -4.84,5.33"/>
   <path class="fil2 str5" d="M231.07 345.46c-2.97,0.28 -6.29,4.51 -6.29,7.26"/>
   <path class="fil2 str5" d="M220.43 352.72c-2.91,2.01 -2.42,2.92 -2.42,6.29"/>
   <path class="fil2 str5" d="M229.14 358.04c0,1.03 -0.38,3.56 0.97,3.87"/>
   <path class="fil2 str5" d="M237.85 342.07c1.96,-2.83 5.2,-2.42 7.74,-3.87"/>
   <path class="fil2 str5" d="M257.69 283.51c0.27,2.86 3.04,3.39 5.32,3.39"/>
   <path class="fil2 str5" d="M241.72 285.93c4.65,0 5.77,0.91 8.23,3.88"/>
   <path class="fil2 str5" d="M264.47 281.1c2.34,1.61 3.65,3.06 6.77,3.87"/>
   <path class="fil2 str5" d="M252.37 273.84c-1.5,0.9 -1.48,4.81 0,5.32"/>
   <path class="fil2 str5" d="M292.05 225.2c-0.83,1.83 0.23,5.86 2.18,6.53"/>
   <path class="fil2 str5" d="M287.21 228.34c0,4.03 4.7,4.84 7.98,4.84"/>
   <path class="fil2 str5" d="M287.21 234.39c1.62,0.2 1.28,0.49 3.14,0.49"/>
   <path class="fil2 str5" d="M371.29 289.2c0.27,-1.87 3.19,-2.18 4.72,-2.18"/>
   <path class="fil2 str5" d="M367.66 287.14c1.12,-0.66 3.7,-1.27 4.84,-0.6"/>
   <path class="fil2 str5" d="M323.01 269.93c0.97,-0.66 3.03,0.05 1.94,-4.21 -0.22,-0.88 -1.07,-2.48 -1.21,-2.66"/>
   <path class="fil2 str5" d="M334.36 253.1c0.84,1.96 -1.51,3.45 -3.6,1.98 -1.73,-1.22 -4.67,-6.62 -4.48,-8.84"/>
   <path class="fil2 str5" d="M346.83 228.55c0.95,0.76 6.63,4.63 1.11,4.51 -2.78,-0.06 -4.5,-0.86 -5.99,-1.27"/>
   <path class="fil2 str5" d="M344.96 245.66c-1.7,-3.21 0.68,-4.55 4.19,-3.65"/>
   <path class="fil2 str5" d="M213.89 293.79c0.13,-2.95 -0.75,-6.78 -4.35,-6.78"/>
   <path class="fil2 str5" d="M211.47 283.44c2.85,-0.37 3.87,2.5 3.87,4.3"/>
   <path class="fil2 str5" d="M214.5 280.53c1.05,0 2.68,1.23 2.96,2.31"/>
   <path class="fil2 str5" d="M273.32 383.39c0.63,-0.12 1.91,-3.55 2.45,-4.28 0.86,-1.15 1.36,-1.84 2.9,-2.39 1.82,-0.64 1.33,0.45 1.21,-2.57 -0.02,-0.63 0.73,-1.83 0.85,-2.18"/>
   <path class="fil2 str5" d="M225.57 367.61c0.22,0.08 5.76,-2.97 6.91,-3.21 0.35,-1.55 1.09,-4.66 2.61,-5.38"/>
   <path class="fil2 str4" d="M322.34 147.51c12.06,10.03 2.04,9.36 -2.31,8.86 -2.54,-0.3 -5.91,-1.72 -10.84,-1.07 -8.81,1.17 -10.46,7.39 -3.43,14.88"/>
   <path class="fil2 str4" d="M337.95 175.52c-2.75,-3.27 -7.13,-2.36 -15.89,2.93 -1.85,1.11 -4.47,2.11 -5.37,3.89 -0.83,1.65 0.41,3.91 4.03,5.04 5.83,1.81 11.63,2.31 15.98,-2.04 0.25,-0.25 2.9,-4.02 3.36,-5.34"/>
   <path class="fil2 str4" d="M307.33 178.48c-7.16,4.94 -2.17,10.82 3.27,12.7"/>
   <path class="fil2 str4" d="M298.87 187.92c-0.17,3.45 5.64,6.77 8.46,6.77"/>
   <path class="fil2 str4" d="M261.36 251.79c7.36,4.12 21.92,0.47 24.22,-6.93"/>
   <path class="fil2 str4" d="M288.76 224.45c-1.09,2.77 1.29,6.67 3.11,6.68"/>
   <path class="fil2 str4" d="M318.22 260.5c0,2.58 -0.11,7.86 3.89,7.04 0.57,-0.11 0.71,-1.04 0.71,-1.47"/>
   <path class="fil2 str4" d="M378.71 247.44c-4.45,0.62 -4.89,1.21 -10.16,1.21 -3.51,0 -5.8,0.18 -9.17,-0.51 -2.77,-0.56 -6.11,-0.77 -8.73,-1.85 -0.04,-0.01 -5.12,-0.97 -3.17,-2.08 0.22,-0.13 1.42,-0.4 1.71,-0.4"/>
   <path class="fil2 str4" d="M386.94 247.68c0,3.35 2.46,4.64 5.56,4.11 0.73,-0.12 1.95,-1.49 2.18,-2.18"/>
   <path class="fil2 str4" d="M384.76 291.48c2.61,-1.55 6.6,0.59 9.44,0.48 2.38,-0.1 5.93,0.77 8.67,0.2 0.06,-0.31 0.97,-2.99 -0.69,-2.86"/>
   <path class="fil2 str4" d="M377.17 297.79c2.42,-3.46 3.85,3.35 9.77,3.12 2.7,-0.1 17.77,0.56 17.66,-2.18 -0.01,-0.3 0,-0.66 0,-0.96"/>
   <path class="fil2 str4" d="M244.13 325.96c0.88,-2.54 5.32,-4.73 9.27,-2.25"/>
   <path class="fil2 str4" d="M241.88 321.24c0.28,-1.68 2.84,-2.42 4.36,-2.42"/>
   <path class="fil2 str4" d="M280.11 378.22c1.45,0.13 6.12,3.43 6.41,5.09 0.15,0.89 1.9,3.37 -0.84,3.26 -0.37,-0.02 -3.85,0.71 -4.11,0.87l0 -0.15"/>
   <path class="fil2 str4" d="M282.78 374.83c1.14,0.14 6.05,3.46 6.73,4.61 0.57,0.97 0.18,0.94 -0.56,1.44"/>
   <path class="fil2 str4" d="M232.57 366.36c1.55,3.84 2.12,4.03 2.65,8.35 0.51,4.15 -3.44,2.53 -6.4,2.17 -0.61,-0.08 -2.55,-0.53 -2.79,-1.2"/>
   <path class="fil2 str4" d="M234.5 362.25c1.23,0.74 2.66,3.73 2.77,5.2 0.02,0.19 1.05,3.56 1.11,3.63"/>
   <path class="fil2 str4" d="M99.49 294.98c-4.32,0 -10.35,5.37 -11.92,9.14 -1.35,3.24 -7.31,9.74 -11.07,9.74"/>
   <path class="fil2 str4" d="M102.39 290.14c0,-4.23 -18.69,-6.18 -23.78,-2.96 -1.93,1.22 -5.93,1.97 -9.13,4.11 -1.58,1.06 -2.53,1.51 -3.87,2.97"/>
   <path class="fil2 str4" d="M118.12 311.92c9.24,13.46 20.1,30.73 35.43,39.62 20.33,11.79 42.48,-7.54 48.79,-26.15 1.62,-4.77 14.56,-33.2 7.48,-36.34"/>
   <path class="fil2 str4" d="M209.82 285.24c2.4,-0.89 4.45,2.56 4.84,3.69"/>
   <path class="fil2 str4" d="M215.39 278.77c0.83,0 2.09,0.01 2.42,0.97"/>
   <path class="fil2 str4" d="M213.69 282.16c1.34,0 2.91,1.04 2.91,2.66"/>
   <path class="fil2 str4" d="M241.46 242.41c-0.22,4.68 9.32,16.13 19.72,17.85"/>
   <path class="fil2 str4" d="M234.75 245.62c-0.34,7.65 11.65,15.99 19.11,15.73"/>
   <path class="fil2 str4" d="M233.54 258.69c3.87,4.04 12.97,7.47 17.66,5.62"/>
   <path class="fil2 str4" d="M270.32 256.5c4.22,5.18 -0.68,18.75 -3,20.97"/>
   <path class="fil2 str4" d="M215.4 294.13c0,16.1 23.73,24.3 29.28,8.35"/>
   <path class="fil2 str4" d="M250.24 303.93c-4.53,12.52 17.12,9.45 18.63,5.8"/>
   <path class="fil2 str4" d="M271.53 312.4c-1.74,3.83 5.4,5.64 7.81,3.93"/>
   <path class="fil2 str4" d="M296.1 262.55c14.5,-1.33 2.56,-16.11 5.5,-21.05"/>
   <path class="fil2 str4" d="M311.95 198.06c-1.33,8.63 6.73,8.82 7.62,19 0.44,5.02 -0.31,9.8 1.71,14.66 2.89,6.95 8.41,10.36 11.63,21.86"/>
   <path class="fil2 str4" d="M320.42 208.83c6.37,0 13.9,9.92 17.26,14.7 0.92,1.31 8.46,7.44 10.22,7.18"/>
   <path class="fil2 str4" d="M231.13 348.69c-1.26,0.8 -1.93,1.93 -1.93,3.39"/>
   <path class="fil2 str4" d="M270.76 352.47c1.3,4.8 -1.79,4.02 -3.28,7.09"/>
   <path class="fil2 str4" d="M273.66 343.52c4.32,1.92 2.65,-0.16 7.8,-0.16"/>
   <path class="fil2 str4" d="M304.21 324.49c-2.68,-0.12 -4.86,4.52 -3.88,6.29"/>
   <path class="fil2 str4" d="M272.87 301.04c4.04,-0.95 3.47,0.57 6.34,3.97"/>
   <path class="fil2 str4" d="M254.84 293.52c2.05,1.06 6.66,2.5 7.26,4.84"/>
   <path class="fil2 str4" d="M257.75 280.45c2.55,4.67 3.94,3.45 6.78,5.36"/>
   <path class="fil2 str4" d="M285.81 295.45c3.13,0.44 3.96,3.67 4.84,3.87"/>
   <path class="fil2 str4" d="M290.46 308.55c5.04,-1.84 2.89,3.08 6.49,4.33"/>
   <path class="fil2 str4" d="M288.24 318.68c0.83,0.58 2.14,2.1 2.41,2.91"/>
   <path class="fil2 str4" d="M224.48 346.27c-3.5,2.42 -4.55,4.04 -2.24,5.48"/>
   <path class="fil2 str4" d="M248.79 334.17c-1.42,0.64 -8.9,0.67 -7.44,3.98"/>
   <path class="fil2 str4" d="M240.57 289.41c1.99,-0.79 2.9,-0.59 4.6,0"/>
   <path class="fil2 str4" d="M250.49 272.95c-1.86,-0.08 -1.94,1.59 -1.94,2.91"/>
   <path class="fil2 str4" d="M273.14 176.8c0.9,1.49 9.49,0.29 5.67,-2.02 -3.1,-1.87 -3.86,-1.11 -6.88,-4.27 -2.3,-2.41 -4.2,-2.45 -7.42,-2.19 -0.06,0 -1.05,0.22 -1.17,0.25"/>
   <path class="fil2 str4" d="M287.53 175.71c1.28,0 4.05,0.07 3.64,2.07 -0.28,1.4 -4.29,2.21 -5.8,3.73 -3.99,3.99 -3.8,7.14 -5.35,8.96 -1.8,2.12 -6.22,0.53 -7.65,-2.42 -0.67,-1.37 -2.22,-3.84 -3.32,-4.87 -0.85,-0.81 -5.67,-5.18 -5.83,-5.66 -0.62,-0.13 -0.11,-1.64 0,-1.93"/>
  </g>
 </g>
</svg>
