<?xml version="1.0" encoding="UTF-8"?>
<!DOCTYPE svg PUBLIC "-//W3C//DTD SVG 1.1//EN" "http://www.w3.org/Graphics/SVG/1.1/DTD/svg11.dtd">
<!-- Creator: CorelDRAW 2020 (64-Bit) -->
<svg xmlns="http://www.w3.org/2000/svg" xml:space="preserve" width="800px" height="800px" version="1.1" style="shape-rendering:geometricPrecision; text-rendering:geometricPrecision; image-rendering:optimizeQuality; fill-rule:evenodd; clip-rule:evenodd"
viewBox="0 0 788.18 788.18"
 xmlns:xlink="http://www.w3.org/1999/xlink"
 xmlns:xodm="http://www.corel.com/coreldraw/odm/2003">
 <defs>
  <style type="text/css">
   <![CDATA[
    .str1 {stroke:#FEFEFE;stroke-width:1.23;stroke-miterlimit:22.9256}
    .str0 {stroke:#2B2A29;stroke-width:1.23;stroke-miterlimit:22.9256}
    .str2 {stroke:black;stroke-width:1.23;stroke-miterlimit:22.9256}
    .fil2 {fill:none}
    .fil5 {fill:#FEFEFE}
    .fil4 {fill:#2B2A29}
    .fil9 {fill:#F5B2B6}
    .fil1 {fill:#E31E24}
    .fil8 {fill:#00ACDF}
    .fil3 {fill:#008DD2}
    .fil7 {fill:black}
    .fil0 {fill:#DBBD93}
    .fil6 {fill:#EDCA3D}
   ]]>
  </style>
 </defs>
 <g id="Layer_x0020_1">
  <metadata id="CorelCorpID_0Corel-Layer"/>
  <rect class="fil0" width="788.18" height="788.18"/>
  <g id="_2825802090512">
   <g>
    <path class="fil1 str0" d="M210.25 569.28c-9.35,7.9 -12.16,16.68 -27.07,16.68 -7.09,0 -26.53,-16.15 -29.54,-24.84 -2.06,-5.96 -12.3,-17.36 -7.55,-28.87 2.75,-6.69 1.34,-7.79 8.45,-14.54 8.77,-8.31 20.49,-29.3 32.73,-33.13 12.96,-4.04 8.98,1.1 14.54,8.91 0.12,0.16 9,46 9.51,50.18 1.41,11.41 11.06,11.38 -1.07,25.61z"/>
    <path class="fil2 str0" d="M170.77 576.57c-6.6,-13.76 -10.51,-42.37 -20.38,-50.79 -0.62,-0.54 -0.27,-1.67 -1.33,-1.54"/>
    <path class="fil2 str0" d="M188.72 584.97c-0.44,-4.35 -12.85,-25.93 -13.87,-38.61 -0.5,-6.23 -11.53,-29.11 -16.24,-33.06"/>
    <path class="fil2 str0" d="M202.97 576.51c-5.54,-9.53 -13.88,-24.98 -16.03,-35.58 -2.51,-12.27 -7.27,-23.72 -15.94,-32.4 -0.85,-0.85 -4.2,-4.47 -4.88,-4.7"/>
    <path class="fil2 str0" d="M215.41 557.48c-7.6,0.4 -14.26,-32.74 -20.03,-39.15 -4.69,-5.19 -13.73,-21.31 -21.37,-23.95"/>
    <path class="fil2 str0" d="M204.47 506.98c1.15,-6.07 -18.17,-19.59 -22.09,-19.62"/>
    <path class="fil2 str0" d="M211.32 543.67c-8.88,21.85 -36.48,27.8 -42.29,34.87"/>
    <path class="fil2 str0" d="M207.26 521.47c-1.04,9.79 -20.36,21.59 -28.61,26.06 -5.31,2.88 -20.41,13.14 -25.49,12.41"/>
    <path class="fil2 str0" d="M203.98 504.46c-2.01,3.32 -26.07,23.13 -29.86,24.44 -5.9,2.05 -24.68,9.45 -29.27,9.38"/>
    <path class="fil2 str0" d="M198.73 487.51c-9.09,14 -41.11,27.73 -40.99,27.71"/>
   </g>
   <g>
    <path class="fil1 str0" d="M202.25 466c2.14,8.63 1.75,6.47 3.18,17.64 0.01,0.06 7.14,1.64 5.49,9.74 -1.26,6.19 -2.73,2.97 -0.06,10.68 2.17,6.29 6.19,8.2 9.4,17.46 2.35,6.78 0.91,22.06 10.74,28.61 4.88,3.25 7.36,6.37 6.13,12.01 -1.97,9.02 6.24,13.5 10.09,17.35 1.33,1.32 18.27,18.74 14.49,16.05 -4.65,-3.31 -29.87,3.18 -36.25,7.05 -3.29,1.99 -3.35,1.81 -3.35,-4.53 0,-3.27 -2.4,-29.49 -5.15,-30.21 -6.21,-1.65 -5.73,-9.75 -4.36,-18.39 0.98,-6.22 -7.78,-27.68 -7.78,-34.65 0,-17.34 -12.34,-15.41 -9.79,-27.92 1.73,-8.52 2.12,-12.7 1.06,-19.75 2.7,0 6.01,-1.73 6.16,-1.14z"/>
    <path class="fil2 str0" d="M261.71 595.54c4.47,1.89 -3.53,6.7 -5.53,7.72 -4.81,2.45 -27.02,12.4 -32.94,3.25 -3.89,-6.01 29.81,-14.53 38.47,-10.97z"/>
    <path class="fil2 str0" d="M211.17 491.03c-4.02,-3.59 -14.02,0.18 -15.37,3.73"/>
    <path class="fil2 str0" d="M233.88 554.12c-1.05,6.41 -17.35,10.53 -21.24,5.46"/>
    <path class="fil2 str1" d="M231 550.13c-3.04,4.35 -14.26,9.21 -18.5,6.21l-0.7 -0.11"/>
    <path class="fil2 str1" d="M237.13 562.14c-2.84,0.28 -7.93,4.23 -12.5,5.16 -2.27,0.47 -5.01,1.11 -7.67,0.55"/>
    <path class="fil2 str1" d="M208.89 494.82c-1.93,-0.78 -4.89,-0.89 -6.66,-0.27 -0.17,0.78 -2.39,-0.54 -4.16,2.63l-0.37 0.35"/>
    <path class="fil2 str1" d="M205.43 483.64c-1.43,1.47 -8.87,0.09 -9.97,4.13"/>
    <path class="fil2 str0" d="M259.91 597.88c-2.58,0 -23.12,3.76 -25.18,4.61 -1.85,0.77 -6.27,1.28 -7.94,3.23l-0.45 0.22"/>
   </g>
   <path class="fil3 str0" d="M184.09 425.49c-0.07,-10.5 -0.84,-17.34 -2.09,-27.47 -2.43,-19.79 -28.85,-41.96 -30.82,-47.67 -1.97,-5.68 -8.43,-7.27 -5.32,8 3.27,16.04 6.26,27.94 14.55,43.2 4.84,8.92 11.6,36.07 23.55,31.94 0.42,-1.22 0.15,-6.23 0.13,-8z"/>
   <path class="fil3" d="M126.38 370.67c-0.59,-1.96 -15.56,-18.56 -6.22,-13.93 2.98,1.48 9.06,4.58 15.18,8.97 5.44,3.9 27.56,20.75 31.82,28.63 4.14,7.66 6.47,32.04 12.85,32.04 17.55,0 28.02,9.04 35.73,22.78 1.93,3.46 0.82,10.3 -0.4,13.83 -3.56,10.29 -40.09,-2.15 -28.71,16.62 5.69,9.38 -6.94,-2.83 -3.13,15.88 1.34,6.58 -1.53,22.22 5.32,22.22 19.79,0 16.15,-0.48 36.29,-0.02 9.66,0.22 16.88,-3.41 16.58,4.21 -0.01,0.24 -2.02,1.74 -0.77,2.42 3.89,2.12 4.91,8.72 -3.88,6.93 -4.33,-0.88 1.66,12.37 -11.45,-1.44 -6.56,-6.92 -31.13,-7.67 -41.43,-3.02 -8.79,3.96 -13.48,3.53 -16.16,11.12 -1.65,4.67 -10.09,22.71 -17.36,27.88 -3.21,2.29 -5.3,15.11 -0.73,19.8 4.01,4.13 4.04,15.59 6.94,23.7 3.69,10.3 -6.94,33.88 10.86,66.28 5.85,10.66 14.78,4.15 23.43,8.95 10.67,5.92 -7.5,6.95 -2.95,10.84 0.48,0.41 1.38,7.33 -6.09,4.29 -0.29,-0.12 -1.25,4.02 -3.47,5.95 -2.89,2.53 -7.18,2.38 -7.18,-5.03 0,-16.25 -20.72,-12.79 -20.15,-27.34 0.07,-1.83 0.04,-14.24 -4.12,-23.84 -3.64,-8.43 -6.77,-13.98 -10.52,-15.27 0,18.93 -2.75,43.26 0.29,57.82 0.46,2.19 2.45,3.14 3.48,5.45 1.59,3.58 6.04,5.75 11.95,8.14 2.8,1.14 9.85,12.81 -3.59,10.6 -0.77,-0.1 -2.97,8.59 -6.3,7.55 -1.38,-0.42 -2.86,-1.5 -4.33,-2.88 -9.53,9.62 -12,1.47 -12,0.81 -0.01,-7.94 -7.34,-23.93 -6.83,-35.89 0.18,-4.24 -4.46,-22.87 -3.07,-36.6 1.34,-13.14 -9.76,-19.38 -10.46,-28 -0.18,-2.24 -5.77,-16.16 -7.18,-4.78 -1.52,12.38 -13.3,12.47 -20.4,3.48 -4.98,-6.33 -10.23,-17.64 -8.09,-21.06 0.94,-1.5 5.54,0.94 9.37,2.99 6.05,3.23 13.19,0.1 15.32,-8.18 2.37,-9.21 -2.69,-22.78 21.2,-56.15 5.94,-8.3 8.88,-41.02 18.36,-48.96 5.69,-4.76 11.75,-17.97 11.47,-25.14 -0.1,-2.61 14.41,-13.38 19.02,-19.97 5.03,-7.16 5.01,-6.99 -3.08,-12.75 -2.28,-1.63 -11.44,-6.86 -15.38,-11.48 -8.56,-10.04 -6,-7.55 -12.21,-23.85 -0.05,-0.12 -3.6,-10.56 -7.82,-24.6z"/>
   <path class="fil2 str0" d="M121.64 700.14c0,5.8 4.03,10.65 4.03,17.46 0,6.97 3.36,8.23 5.98,8 3.19,-0.28 5.18,-1.24 5.72,-4.11 0.67,-3.51 0.9,1.88 3.74,2.21 4.82,0.56 7.19,-4.68 6.75,-7.8 -0.26,-1.89 0.88,-1.87 1.58,-0.69 3.87,6.45 13.93,-4.75 2.41,-9.93 -16.22,-7.29 -5.29,-2.4 -13.66,-11.68 -3.47,-3.84 -1.78,-40.21 -1.78,-48.34 0,-8.92 1.57,-12.13 2.07,-18.3 0.95,-11.79 11.35,-25.39 11.35,-30.88 0,-11.6 -7.2,-25.64 3.19,-32.46 5.74,-3.77 12.89,-18.09 14.94,-24.67 4.85,-15.53 48.35,-19.26 56.63,-9.57 13.99,16.37 10.92,-0.3 12.31,1.03 5.37,5.12 8.95,-1.53 6.95,-4.54 -1,-1.49 -3.45,-0.89 -3.85,-1.66 -0.85,-1.6 4.56,0.07 1.87,-5.4 -0.24,-0.5 -1.17,-1.63 -3.04,-1.73 -6.29,-0.35 -19.54,1.79 -21.69,0.27 -3.69,-2.61 -30.94,2.24 -32.33,-3.03 -0.21,-0.81 -7.24,-29.41 2.62,-29.02 6.55,0.25 0.03,-10.67 -1.11,-11.64 -7.76,-6.62 23.38,-2.84 28.87,-8.94 9.72,-10.81 -1.46,-17.26 -5.43,-25.25 -3.9,-7.86 -25.98,-17.66 -29.04,-12.58 -7.42,-4.99 -6.07,-15.83 -9.23,-23.5 -8.07,-19.57 -9.89,-17.64 -27.2,-30.65 -1.92,-1.45 -30.52,-25.54 -28.08,-13.6 0.35,1.7 13.33,9.64 12.81,22.77 -0.1,2.48 5.9,10.66 8.06,11.41"/>
   <path class="fil2 str0" d="M132.38 397.35c3.31,-0.15 5.53,3.9 10.07,5.37"/>
   <path class="fil2 str0" d="M167.29 440.32c0,-10.98 -18.59,-15.47 -22.16,-21.49"/>
   <path class="fil2 str0" d="M147.82 414.13c-2.18,-0.84 -8.05,-4.7 -8.06,-4.7"/>
   <path class="fil2 str0" d="M174.62 531.25c-9.09,-4.19 -5.93,-14.34 -13.37,-16.41"/>
   <path class="fil2 str0" d="M148.28 583.58c6.18,4.28 10.83,32.41 8.88,41.98 -2.73,13.43 3.56,36.07 9.23,47.73 7.46,15.33 25.73,3.4 27.92,14.85 0.35,1.81 -3.18,4.4 -5.66,3.57 -3.15,-1.05 -3.35,-0.18 -2.39,0.76 0.03,0.03 5.02,4.79 2.43,7.15 -2.04,1.86 -5.39,1.53 -7.53,0.25 -0.94,-0.56 -1.88,-0.84 -1.22,0.47 0.4,0.81 1.22,2.54 0.3,4.5 -1.73,3.67 -8.15,3.5 -8.86,-0.73 -0.97,-5.73 -2.07,-17.4 -10.13,-17.4"/>
   <path class="fil2 str0" d="M155.88 690.74c0,-11.74 3.27,-6.52 4.7,-12.08"/>
   <path class="fil2 str0" d="M150.51 682.01c-2.04,-4.48 4.3,-8.32 5.37,-11.41"/>
   <path class="fil2 str0" d="M150.51 669.93c0,-18.17 -3.53,-21.21 -12.86,-36.59"/>
   <path class="fil2 str0" d="M124.32 690.74c-6.16,2.79 -8.06,3.35 -8.06,10.74"/>
   <path class="fil2 str0" d="M120.96 678.66c-2.35,3.41 -4.02,6.52 -4.02,10.74"/>
   <path class="fil2 str0" d="M122.98 668.59c-6.74,0 -6.04,3.91 -6.04,9.4"/>
   <path class="fil2 str0" d="M118.28 659.19c-5.06,3.5 -3.75,8.21 -5.37,11.41"/>
   <path class="fil2 str0" d="M103.51 603.46c1.01,11.03 -0.37,18.42 11.64,35.41 2.28,3.22 0.68,18.84 3.13,20.32"/>
   <path class="fil2 str0" d="M97.47 610.18c2.43,6.12 -0.94,14.45 -7.39,16.11"/>
   <path class="fil2 str0" d="M90.08 613.53c2.12,4.68 -4.31,9.4 -8.73,9.4"/>
   <path class="fil2 str0" d="M82.7 612.19c-0.5,5.3 -11.28,7.48 -10.75,0.67"/>
   <path class="fil2 str0" d="M91.42 598.76c-9.31,14.18 -27.45,-14.41 -20.14,6.72 0.49,1.42 2.5,2.5 4.03,3.35"/>
   <path class="fil2 str0" d="M167.29 440.32c-9.43,-0.3 -14.04,22.58 -23.5,18.79"/>
   <path class="fil2 str0" d="M157.89 461.8c-1.08,2.08 -5.54,6.91 -8.06,6.71"/>
   <path class="fil2 str0" d="M163.26 464.49c-0.91,6.5 -1.34,4.78 -1.34,12.75"/>
   <path class="fil2 str0" d="M170.65 466.5c-1.27,2.66 -2.24,9.73 -0.67,12.76"/>
   <path class="fil2 str0" d="M178.03 471.2c0,10.71 0.64,4.82 2.69,10.74"/>
   <path class="fil2 str0" d="M145.13 468.51c0,9.6 -14.89,26.02 -21.65,29.37l-1.17 0.85"/>
   <path class="fil2 str0" d="M129.69 502.08c-4.05,0.5 -5.59,2.02 -10.74,2.02"/>
   <path class="fil2 str0" d="M129.69 506.78c-11.77,1.66 -8.53,17.52 -11.41,25.85 -2.33,6.75 -16.64,27.39 -18.46,33.57 -3.49,11.8 -4.53,27.72 -8.4,32.56"/>
   <path class="fil3 str0" d="M214.84 503.76c4.07,-1.69 11.26,0.22 14.44,3.08 3.19,2.87 6.43,-1 8.29,3.46 0.99,2.35 0.54,5.81 -2.81,4.94 -2.05,-0.53 -0.99,-0.09 -0.18,0.58 2.1,1.75 1.92,6.97 -3.34,5.9 -2.59,-0.52 -2.6,-4.26 -3.83,-0.83 -0.58,1.65 -8.76,2.82 -7.19,-4.87 0.97,-4.82 -4.65,-3.56 -5.34,-4.87 -1.47,-2.81 -5.34,-5.18 -0.04,-7.39z"/>
   <path class="fil4 str0" d="M209.25 456.8c6.7,0.82 4.95,-0.94 3.33,5.65 -0.78,3.18 7.83,-4.85 7.83,-5.34 0,-11.45 -18.72,-1.24 -11.16,-0.31z"/>
   <path class="fil5 str0" d="M194.48 445.7c0.02,2.24 8.29,2.57 1.32,3.99 -1.33,0.27 -7.06,11.78 -14.66,1.29 -6.48,-8.95 13.22,-17.75 13.34,-5.28z"/>
   <path class="fil2 str0" d="M189.11 444.1c2.18,0.31 -1.5,3.73 -2.12,0.44 -0.1,-0.52 0.51,-0.67 2.12,-0.44z"/>
   <path class="fil2 str1" d="M206.94 444.22c-4.06,-6.82 -10.97,-11.5 -18.46,-14.1 -0.33,-0.11 -1.01,-0.55 -1.35,-0.67"/>
   <path class="fil2 str1" d="M210.63 449.59c-5.43,0 -7.63,6.38 -3.81,10.19 3.58,3.56 -1.13,4.37 -4.86,5.28 -1.86,0.46 -11.31,1.19 -12.9,0.06 -0.1,-0.07 -7.07,-2.94 -6.96,-0.08 0.22,5.66 -2.79,8.72 0.45,14.77l0.22 0.67"/>
   <path class="fil2 str1" d="M161.96 461.68c-0.65,4.57 -2.69,4.75 -2.69,11.41"/>
   <path class="fil2 str1" d="M166.32 466.04c0,4.54 -1.03,3.48 -0.31,9.4l-0.03 0.67"/>
   <path class="fil2 str1" d="M168.72 405.57c-2.05,-5.15 -5.41,-16.68 -16.89,-22.88 -9.24,-4.99 -21.48,-17.27 -30.6,-23.07"/>
   <path class="fil2 str1" d="M147.86 408.98c0.9,6.42 19.67,16.31 21.15,22.15"/>
   <path class="fil2 str1" d="M127.31 585.12c14.99,6.23 15.55,19.37 11.42,29.41 -5.96,14.5 -8.36,33.97 -5.91,50.85"/>
   <path class="fil2 str1" d="M138.34 698.29c0.04,3.7 2.02,5.98 3.49,6.65 4.78,2.2 10.83,2.37 11.72,4.82 2.3,6.31 -9.06,-0.52 -8.88,4.1 0.11,2.77 1.03,5.7 -2.66,5.55 -4.57,-0.19 -4.38,-5.41 -7.08,-1.24 -2.01,3.1 -7.65,5.09 -5.73,-2.7 0.24,-0.96 1.26,-4.96 -1.47,-7.8"/>
   <path class="fil2 str1" d="M167.46 678.95c5.22,9.13 21.06,3.98 21.45,7.12 0.35,2.9 -2.21,2.81 -4.55,2.42 -4.01,-0.68 -1.17,2.45 -0.17,6 0.98,3.5 -0.61,3.09 -3.61,2.85 -1.78,-0.14 -2.4,-0.57 -4.07,3.73 -1.4,3.57 -4.01,-0.78 -4.01,-2.64"/>
   <path class="fil2 str1" d="M93.48 609.74c2.21,2.43 -1.24,13.39 -5.03,13.09"/>
   <path class="fil2 str1" d="M86.43 612.09c0,5.21 -1.03,5.76 -5.7,7.38"/>
   <path class="fil2 str1" d="M81.06 608.39c-3.48,3.32 -1.66,3.02 -7.05,3.02"/>
   <path class="fil2 str1" d="M150.89 603.36c2.43,3.54 3.55,16.95 2.9,20.18 -1.28,6.29 -0.38,19.48 1.58,25.88"/>
   <path class="fil2 str1" d="M161.96 501.31c6.57,0 8.77,14.54 9.71,19.17 0.95,4.67 5.51,4.55 9.11,3.81 15.92,-3.25 18.62,-3.68 29.86,-2.5"/>
   <path class="fil2 str1" d="M156.93 519.44c8.66,0 6.4,10.88 11.08,12.09"/>
   <path class="fil2 str1" d="M158.94 525.48c3.33,0 3.54,3.32 4.37,5.71"/>
   <path class="fil2 str1" d="M161.11 538.29c1.54,19.94 -19.19,24.2 -16.78,35.96"/>
   <path class="fil2 str1" d="M144.34 600.35c0,-3.57 -0.9,-4.75 -3.3,-7.44l-0.22 -0.11"/>
   <path class="fil2 str1" d="M145.52 594.14c0,-3.37 -2.08,-3.76 -2.86,-5.37"/>
   <path class="fil2 str1" d="M138.14 493.45c-2.63,1.81 -6.22,4.93 -9.48,4.06"/>
   <path class="fil2 str1" d="M133.78 502.18c-1.56,2.43 -3.87,1.91 -5.38,2.68"/>
   <path class="fil2 str0" d="M172.22 424.48c-2.51,-7.4 -6.7,-13.3 -8.9,-20.34 -1.42,-4.56 -5.46,-11.02 -8.61,-14.19 -2.41,-2.41 -10.53,-7.2 -13.88,-6.93 -0.08,0 -6.78,-2.61 -4,-0.79 2.54,1.66 12.97,12.05 14.07,15.22 0.64,1.85 7.94,9.54 9.4,13.77 0.45,1.31 11.75,21.43 11.75,15.44 0,-0.91 0.41,-1.47 0.17,-2.18z"/>
  </g>
  <g id="_2825802101984">
   <path class="fil6 str2" d="M298.55 265.65c-2.16,0.33 1.28,8.36 4.49,11.1 3.7,3.15 3.37,6.25 11.9,10.4 9.84,4.8 23.67,7.65 34.21,2.02 9.67,-5.18 19.11,-16.87 19.11,-27.84 0,-7.01 2.17,-8.79 0.96,-18.61 -1.18,-9.61 -1.71,-14.15 -5.49,-1.51 -3.88,13 -15.96,10.34 -27.84,13.5 -6.68,1.78 -23.71,1.95 -33.54,5.52 -0.03,0.01 -2.72,5.26 -3.8,5.42z"/>
   <path class="fil3 str2" d="M265.19 136.93c-30.8,6.29 -42.87,38.58 -54.62,69.32 -23.15,60.53 14.52,25.66 50.55,43.76 6.32,3.17 12.63,1.5 13.19,-4.1 0.12,-1.19 -1.19,-3.91 -3.19,-3.91 -2.1,0 -1.06,-1.44 1,-1.79 2,-0.33 4.52,-0.25 5.01,-3.15 0.39,-2.37 -2.43,-4.94 -4.97,-5.23 -1.03,-0.12 -1.98,-0.32 -0.01,-1.25 1.52,-0.71 4.16,-1.39 3.04,-4.92 -0.66,-2.07 -4.35,-2.73 -6.3,-2.88 -4.44,-0.35 -10.69,0.87 -11.84,7.35 -9.75,2.27 -20.35,0.97 -27.74,-3.78 -3.26,-2.1 -2.28,-1.41 -0.2,-4.88 6.09,-10.15 22,-34.87 23.63,-38.52 7.14,-4.25 3.81,14.54 18.71,32.49 16.22,2.75 30.25,-31.02 43.33,-28.88 11.23,1.83 38.37,37.86 22.04,39.28 -13.07,1.13 -20.42,13.67 -38.08,13.67 -0.26,0 -18.04,-6.93 -16.58,2.92 0.65,4.41 20.02,5.38 -2.73,6.16 -8.39,0.28 -9.7,8.74 -2.82,9.3 1.09,0.09 1.33,1.22 0.06,0.83 -7.51,-2.31 -11.56,12.65 3.94,7.35 2.18,-0.74 -2.17,0.65 -2.53,1.69 -0.73,2.15 18.6,4.41 22.78,-6.18 2.37,-6 54.32,-6.66 58.29,-12.8 4.04,-0.65 8.41,-16.14 7.73,-14.48 6.19,9.35 2.84,39.94 -12.58,51.48 -15.48,11.58 -35.02,5.23 -42.24,0.59 -8.46,11.87 12.45,42.3 12.27,43.2 -2.57,0.53 -15.69,9.12 -27.27,14.67 -5.3,2.55 -11.13,1.25 -14.71,3.51 -3.07,1.94 -0.71,13.96 5.52,9.43 3.07,-2.24 3.97,-1.4 2.44,-0.36 -1.28,0.87 -3.77,2.12 -3.12,7.21 0.17,1.31 10.79,4.8 12.42,-1 0.14,0 2.83,17.81 13.48,-0.18 8.96,-15.14 48.63,-5.77 48.63,-23.05 0,-7.12 -1.79,-13.17 8.13,-11.15 12.84,2.62 19.63,20.99 1.72,19.58 -6.2,-0.49 -13.7,4.26 -17.9,5.65 -7.94,2.64 -13.07,3.84 -13.87,8.65 -0.67,4.06 4.54,6.9 4.07,7.71 -2.45,4.22 0.69,9.55 10.63,5.43 1.02,-0.42 -9.58,6.19 4.08,7.39 6.21,0.54 14.39,-8.07 24.57,-14.36 12.99,-8.03 27.23,-9.69 26.86,-17.83 -0.31,-6.5 -1.03,-23.23 -4.2,-28.08 0.72,-2.28 9.44,-10.55 11.37,-3.87 3.25,11.21 -7.39,44.9 21.19,57.63 10.63,4.73 31.7,7.11 43.05,-20.4 7.26,-17.61 -1.86,-36.77 -24.36,-35.12 -10.28,0.75 -13.38,7.59 -5.72,6.61 6.07,-0.77 0.03,0.79 -1.83,3.67 -1.62,2.51 -1.2,5.4 3.97,2.8 2.31,-1.15 7.95,-7.19 3.21,1.33 -3.11,5.59 23.53,-6.76 9.64,21.2 -5.77,11.62 -22.63,8.85 -30.38,-0.5 -4.71,-5.68 -9.45,-42.59 -4.32,-43.74 9.08,7.57 -5.54,-10.37 4.28,-7.56 0.03,0.01 8.77,-44.14 -6.66,-90.38 -10.59,-31.72 -29.34,-64.95 -82.83,-83.46 -21.37,-7.4 -25.59,6.6 -49.08,5.6 -12.6,-0.54 -19.74,-2.36 -32.15,0.33z"/>
   <path class="fil3 str2" d="M269.52 158.51c-19.08,-2.68 -15.69,-34.32 -7.14,-46.32 4.53,-6.38 -16,-19.76 -3.16,-31.43 0.96,-0.87 2.42,-2.62 3.89,-3.12 6.33,-2.18 6.24,4.15 10.99,4.9 8.72,-11.76 46.36,-13.2 51.08,9.61 0.15,0.06 28.99,-4.8 16.67,20.04 -2.42,4.87 -6.88,3.77 -11.25,7.14 -4.61,11.75 -4.57,42.57 -24.71,47.19 -8.89,2.03 -33.68,-0.24 -36.37,-8.01z"/>
   <path class="fil1 str2" d="M277.4 154.76c-1.54,-1.24 -2.01,14.38 3.36,13.29 10.09,-2.05 4.13,-19.26 1.99,-17.94 -2.52,1.55 -2.26,2.01 -5.35,4.65z"/>
   <path class="fil6 str2" d="M286.42 158.86c1.18,4.67 5,26.01 3.03,27.68 -2.39,2.04 -25.09,34.03 -17.76,36.56 8.27,2.87 0.92,7.87 1.22,8.14 1.31,1.15 2.32,1.67 2.98,2.58 2.7,3.71 0.28,5.91 -2.15,6.5 -2.94,0.72 -5.62,0.01 -1.31,2.16 1.5,0.74 3.19,4.96 0.45,7.02 -1.36,1.02 -4.76,3.95 -11.76,0.51 -2.31,4.65 -6.62,11.09 -14.24,18.71 -6.74,6.73 -13.09,11.03 -13.5,14.94 -1.2,11.17 41.85,20.93 42.95,15.86 1.87,-8.65 -2.5,-15.64 -1.88,-31.53 0.01,-0.24 -5.55,-0.18 -4.9,-5.65 0.4,-3.39 5.42,-4.4 5.42,-4.44 -3.53,-0.82 -5.74,-8.35 4.46,-9.31 0.12,-0.01 3.75,-11.74 4.33,-13.41 9.2,-26.6 29.39,-21.95 15.51,4.33 3.73,15.88 23.99,-7.73 43.4,-7.8 22.95,-0.08 1.68,-49.37 -8.47,-53.79 2.11,-11.6 23.87,-87.52 26.33,-89.98 3.18,-0.16 4.98,-7.56 1.61,-10.12 -0.06,-1.69 0.55,-4.1 2.84,-7.88 8.42,-13.88 36.94,-17.59 9.56,-31.17 -10.41,-5.17 -25.53,-10.41 -28.49,-3.01 -0.94,2.34 -0.37,14.78 6.4,25.46 2.19,3.45 2.48,11.31 -2.64,15.67 -0.51,0.44 -4.21,3.28 -1.76,7.67 -5.4,27 -19.4,59.12 -28.25,90.08 -2.8,0.97 -8.69,-0.6 -16.18,3.94 -5.65,3.43 -6.09,-14.03 -10.27,-18.39 -1.02,-0.17 -8.68,-8.3 -6.93,-1.33z"/>
   <path class="fil7 str2" d="M327.14 105.41c-0.68,-2.59 11.94,-6.56 11.94,-2.52 0,7.29 -9.45,12.26 -10.58,5.56 -0.02,-0.12 -1.34,-2.96 -1.36,-3.04z"/>
   <path class="fil2 str2" d="M261.76 105.75c-0.42,-7.88 6.4,-19.96 12.34,-23.21"/>
   <path class="fil2 str2" d="M266.65 102.89c5.04,-5.23 20.87,-2.55 22.66,6.27 0.98,4.86 -1.9,13.97 -5.25,17.67 -1.91,2.11 -8.13,3.99 -7.53,10.36 0.09,0.94 3.26,5.09 5.05,6.61 1.49,1.28 1.51,2.1 4.44,2.1 3.25,0 5.01,-2.08 9.64,-3.88 2.94,-1.13 2.31,-6.38 1.46,-9.76 -1.94,-7.73 0.6,-21.59 9.29,-22.05 7.74,-0.41 10.04,-7.7 18.02,5.76"/>
   <path class="fil5 str2" d="M286.77 113.96c0.26,-2.24 -7.11,-5.87 -9.07,-6.27 -3.58,-0.73 -12.89,0.33 -10.29,4.63 2.59,4.28 4.57,6.83 7.42,7.55 5.51,1.41 11.58,-2.77 11.94,-5.91z"/>
   <path class="fil5 str2" d="M302.36 117.48c0.43,-4.85 10.53,-4.25 14.44,-1.88 6.22,3.77 6.27,3.9 0.46,8.35 -1.72,1.32 -3.95,1.82 -6.03,1.82 -4.46,0 -9.21,-4.41 -8.87,-8.29z"/>
   <path class="fil1 str2" d="M308.47 124.46c5.21,3.72 11.94,-4.31 8.22,-8.13 -0.98,-1.01 -2.85,-1.53 -5.77,-1.99 -8.77,-1.38 -6.01,7.58 -2.45,10.12z"/>
   <path class="fil1 str2" d="M272 116.79c4.26,6.57 18.5,-3.44 7.1,-8.11 -3.1,-1.27 -5.68,-1.02 -6.9,-0.19 -2.03,1.37 -2.53,4.7 -0.2,8.3z"/>
   <path class="fil7 str2" d="M278.41 113.64c1.54,0.06 2.58,-3.37 -0.13,-3.87 -4.59,-0.84 -3.41,3.73 0.13,3.87z"/>
   <path class="fil7 str2" d="M311.35 115.86c-2.01,-0.19 -3.84,3.97 1.06,4.09 2.24,0.05 0.74,-3.92 -1.06,-4.09z"/>
   <path class="fil1 str2" d="M277.78 138.33c-3.37,-5.88 19.07,-2.41 17.16,3.66 -0.04,0.1 -5.15,3.26 -5.15,1.14 0,-3.89 -1.83,-2.64 -1.51,0.25 0.23,2.07 -3.82,3.64 -5.25,1.26 -0.47,-0.79 0.22,-2.02 0.22,-4.02 0,-2.85 -1.77,2.88 -2.86,1.1 -0.01,0 -1.8,-2.24 -2.61,-3.39z"/>
   <path class="fil2 str2" d="M284.01 148.92c-5.18,4.94 -10.75,10.08 -18.87,5.66 -6.71,-3.66 -12.74,-19.12 12.77,-14.4"/>
   <path class="fil2 str2" d="M285.06 145.86c-1.55,6.37 -0.18,7.12 2.91,10.12 7.33,7.14 19.71,8.85 23.2,-2.31 1.97,-6.31 -10.99,-11.65 -15.51,-11.65"/>
   <path class="fil2 str2" d="M285.7 146.28c4.36,0 23.11,2.52 25.47,7.39"/>
   <path class="fil2 str2" d="M284.89 148.79c4.8,0.99 21.31,5.59 23.61,8.97l0.33 0.56"/>
   <path class="fil2 str2" d="M282.75 146.9c-12.83,0 -14.68,0.47 -21.44,3.73"/>
   <path class="fil2 str2" d="M282.6 144.78c-4.94,-1.64 -13.5,-3.37 -23.29,0.66"/>
   <path class="fil2 str2" d="M238.99 276.93c5.51,7.75 25.92,17.41 37.42,13.15"/>
   <path class="fil2 str2" d="M256.03 281.02c1.02,1.5 5.38,1.82 6.09,-0.21 2.91,-8.28 -10.2,-5.81 -6.09,0.21z"/>
   <path class="fil2 str2" d="M261.89 263.12c-2.58,0.85 -3.61,4.02 -1.17,5.4 7.09,4.01 7.04,-7.32 1.17,-5.4z"/>
   <path class="fil2 str2" d="M256.97 268.32c0.69,2.13 8.08,6.4 11.31,-0.13"/>
   <path class="fil2 str2" d="M253.82 281.51c1.25,3.8 10.25,5.07 10.25,-2.07"/>
   <path class="fil3 str2" d="M371.06 51.65c6.38,1.16 12.77,0.6 12.66,-1.94 -0.28,-6.61 -22.76,-15.22 -31.05,-15.04 -6.26,0.14 -5.04,4.55 -0.59,8.2 5.21,4.28 10.22,7.2 18.98,8.78z"/>
   <path class="fil2 str2" d="M351.55 75.54c3.42,-0.93 10.59,2.28 11.05,2.7"/>
   <path class="fil2 str2" d="M348.09 84.34c1.73,2.34 9.44,3.6 12.44,3.6"/>
   <path class="fil2 str2" d="M290.51 355.78c1.38,-2.94 9.82,-5.69 10.47,-6.02"/>
   <path class="fil2 str2" d="M299.61 363.03c1.54,-3.35 -2.08,-4.19 5.14,-8.12 0.46,-0.25 1.84,-0.42 2.39,-0.37"/>
   <path class="fil2 str2" d="M343.87 370.24c1.57,-2.54 8.89,-9.04 12.18,-8.91"/>
   <path class="fil2 str2" d="M354.5 375.67c1.27,-1.6 8.64,-7.37 10.86,-7.18"/>
   <path class="fil2 str2" d="M381.47 345.09c-3.51,4.99 0.62,12.46 7.41,12.46"/>
   <path class="fil2 str2" d="M382.32 343.18c0.41,5.71 11.42,8.84 15.36,6.07"/>
   <path class="fil2 str2" d="M382.25 339.97c2.05,4.75 12.17,5.64 16.62,2.93 0.55,-0.33 2.45,-1.63 2.58,-2.2"/>
   <path class="fil2 str2" d="M381.22 337.18c2.6,3.37 18.85,0.88 17.97,-2.51"/>
   <path class="fil2 str2" d="M353.05 286.72c-7.07,10.64 5.16,35.66 21.1,43.4"/>
   <path class="fil2 str2" d="M323.84 328.54c5.43,6.87 9.92,6.81 18.51,6.38"/>
   <path class="fil5 str2" d="M282.49 354.03c-3.85,0 -4.47,2.78 -5.32,5.24 -0.7,0.15 -0.64,-4.23 2.49,-6.58 2.16,-1.62 2.29,-1.47 4.52,-2.23 2.26,-0.76 6.63,3.57 -1.69,3.57z"/>
   <path class="fil5 str2" d="M293.4 362.63c0.45,1.48 -2.26,1.9 -4.46,4.28 -1.53,1.66 -3.79,7.11 -4.33,6.89 -1.76,-0.72 1.9,-8.43 4.34,-10.86 3.39,-3.38 4.05,-1.08 4.45,-0.31z"/>
   <path class="fil5 str2" d="M305.4 367.45c-0.05,2.71 -7.6,0.42 -6.31,8.97 0.19,1.26 -3.7,-4.06 1.49,-9.52 1.73,-1.83 4.91,-3.82 4.82,0.55z"/>
   <path class="fil5 str2" d="M333.08 370.67c-1.66,4.86 -4.53,-6.67 10.6,-7.3 2.17,-0.09 1.69,2.8 0.02,2.72 -7.53,-0.36 -10.05,2.93 -10.62,4.58z"/>
   <path class="fil5 str2" d="M347.69 372.71c0.87,2.93 -4.18,2.85 -6.76,4.42 -3.91,2.37 -4.26,6.78 -4.65,4.66 -1.04,-5.62 10.63,-11.75 11.41,-9.08z"/>
   <path class="fil5 str2" d="M357.56 379.18c1.01,4.42 -5.57,1.78 -7.92,8.55 -1.44,4.19 -1.69,-1.5 0.42,-3.6 0.77,-0.77 6.97,-7.31 7.5,-4.95z"/>
   <path class="fil2 str2" d="M323.74 334.43c0.63,3.2 5.39,5.28 9.81,3.01"/>
   <path class="fil2 str2" d="M349.7 291.76c-4.71,2.84 -2.65,11.84 1.96,16.51"/>
   <path class="fil2 str2" d="M344.61 293.43c-3.81,0.34 -3.86,9.85 2.49,15.3"/>
   <path class="fil2 str2" d="M337.89 296.89c-2.33,2.69 -0.41,9.05 2.32,9.99"/>
   <path class="fil2 str2" d="M382.34 181.02c5.41,6.44 -11.11,47.01 -15.28,52.46"/>
   <path class="fil2 str2" d="M413.69 316.42c13.64,-5.25 18.19,-27.17 14.92,-40.09"/>
   <path class="fil2 str2" d="M398.18 194.85c0.13,2.64 -16.65,43.8 -29.76,41.91"/>
   <path class="fil2 str2" d="M401.95 221.51c-5.45,5.92 -24.59,26.46 -32.29,22.73"/>
   <path class="fil2 str2" d="M408.01 235.62c-3.21,7.97 -36.43,22 -38.67,16.43"/>
   <path class="fil2 str2" d="M367.71 267.44c9.61,-12.97 36.01,-14.99 44.55,0.84"/>
   <path class="fil2 str2" d="M404.72 253.96c4.37,-0.2 9.79,4.04 10.87,9.04"/>
   <path class="fil2 str2" d="M411.01 250.05c4.93,0.36 6.62,3.04 8.05,7.17"/>
   <path class="fil2 str2" d="M274.13 209.64c-1.87,9.05 13.08,13.65 18.6,10.63"/>
   <path class="fil2 str2" d="M281.75 227.8c3.14,-0.51 4.3,-6.77 -2.34,-5.41 -3.15,0.79 -2.75,6.23 2.34,5.41z"/>
   <path class="fil2 str1" d="M353.07 39.75c4.05,-1.83 17.07,2.78 20.94,5.22 1.3,0.83 4.64,2.17 5.21,3.84"/>
   <path class="fil2 str1" d="M288.43 97.1c2.16,-11.4 7.16,-13.94 8.68,-18.48"/>
   <path class="fil2 str1" d="M305.28 81.89c-5.26,5 -5.28,12.22 -9.43,16.47"/>
   <path class="fil2 str1" d="M311.69 85.53c-4.48,1.38 -3.75,12.67 -8.03,15.47"/>
   <path class="fil2 str1" d="M393.3 191.17c0,9.6 -14.73,43.05 -24.53,43.76"/>
   <path class="fil2 str1" d="M401.34 214.18c-6.02,10.14 -22.47,29.81 -30.68,27.79"/>
   <path class="fil2 str1" d="M405.74 232.67c-4.29,8.69 -23.79,17.98 -34.83,18.1"/>
   <path class="fil2 str1" d="M404.61 257c6.04,-1.45 8.38,5.65 8.3,6.6"/>
   <path class="fil2 str1" d="M409.45 252.35c6.57,0 7.8,3.91 8.41,7.45"/>
   <path class="fil2 str1" d="M324.89 332.51c0.69,1.49 2.98,3.87 6.66,3.78"/>
   <path class="fil2 str1" d="M314.83 289.01c-4.42,12.52 5.68,43.44 27.91,43.44"/>
   <path class="fil2 str1" d="M355.32 288.75c-8.86,20.89 29.39,53.84 43.26,44.27"/>
   <path class="fil2 str1" d="M386.5 341.06c4.52,0 7.69,0.49 12.05,-2.09 0.55,-0.33 1.05,-0.84 1.28,-0.92"/>
   <path class="fil2 str1" d="M386.5 346.09c2.52,0.21 7.2,3.81 12.14,0.09 0.41,-0.31 1,-0.54 1.19,-1.09"/>
   <path class="fil2 str1" d="M382.73 347.6c0,5.53 10.61,5.97 12.89,4.34l0.44 -0.06"/>
   <path class="fil2 str1" d="M299.36 348.49c-5.56,0.89 -12.59,10.7 -15.72,6.54"/>
   <path class="fil2 str1" d="M305.02 353.39c-3.73,0 -5.89,1.36 -6.64,5.05 -0.33,1.62 0.44,6.12 -4.05,5.64"/>
   <path class="fil2 str1" d="M315.21 358.3c-4.68,2.08 -6.32,9.12 -8.93,10.31"/>
   <path class="fil2 str1" d="M363.11 367.22c-5.12,0 -5.95,1.52 -8.63,5.09 -1.04,1.38 -2.08,2.71 -4.95,2.71"/>
   <path class="fil2 str1" d="M372.99 372.82c-1.08,0.11 -4.79,2.35 -6.03,4.15 -1.96,2.86 -4.8,4.5 -8.12,4.22"/>
   <path class="fil2 str1" d="M354.25 360c-2.57,0.32 -5.21,3.3 -7,5.07 -0.6,0.6 -2.58,2.98 -3.88,2.41"/>
   <path class="fil2 str1" d="M423.16 342.9c4.42,0.38 5.42,1.43 7.09,-2.66"/>
   <path class="fil2 str1" d="M426.81 354.1c3.99,1.44 4.84,1.51 6.41,-2.39"/>
   <path class="fil2 str1" d="M435.74 365.54c2.48,0.33 4.7,-2.12 3.42,-5.11"/>
   <path class="fil2 str1" d="M444.79 369.56c1.86,-0.43 4.53,-2.27 2.2,-5.34"/>
   <path class="fil2 str1" d="M454.85 370.07c1.63,-1.26 1.8,-3.77 0.52,-4.93"/>
   <path class="fil2 str1" d="M464.91 367.05c2.64,-3.01 -0.07,-4.78 -1.99,-4.84"/>
   <path class="fil2 str1" d="M471.95 360.01c0.65,-2.1 -1.92,-3.23 -4.74,-2.96"/>
   <path class="fil2 str1" d="M474.97 354.72c-0.13,-2.89 -3.59,-4.05 -5.28,-3.08"/>
   <path class="fil2 str1" d="M477.23 347.93c0.79,-2.43 -4.62,-3.58 -5.91,-1.26"/>
   <path class="fil2 str1" d="M479.25 341.9c-1.06,-2.19 -5.12,-4.84 -8.18,-0.81"/>
   <path class="fil2 str1" d="M422.91 333.35c1.2,1.88 5.53,1.19 6.29,-1.51"/>
   <path class="fil2 str1" d="M423.66 325.05c0.2,3.09 4.47,1.63 4.91,0.38"/>
   <path class="fil2 str1" d="M467.18 336.84c1.01,-6.05 8.45,-3.96 8.29,-1.98"/>
   <path class="fil2 str1" d="M453.91 330.65c3.58,-5.5 17.39,-3.03 17.79,-1.32"/>
   <path class="fil2 str1" d="M449.51 326.12c4.34,-3.13 8.92,-3.81 15.4,-1.57"/>
   <path class="fil2 str1" d="M254.67 245.08c12.51,7.27 21.77,2.39 16.09,-0.62"/>
   <path class="fil2 str1" d="M264.22 237.54c3.13,1.23 7.57,1.63 9.72,0.66 1.89,-0.85 2.01,-2.9 -1.82,-4.41"/>
   <path class="fil2 str1" d="M259.45 231c-1.2,-5.49 14.29,-9.81 13.53,-3.06"/>
   <path class="fil2 str1" d="M298.93 244.33c0,-5.92 -16.25,-5.45 -11.74,-1.59l0.17 0.33"/>
   <path class="fil2 str1" d="M277.3 251.37c-5.04,0 -1.65,9.32 9.81,4.28"/>
   <path class="fil2 str1" d="M275.29 260.93c-5.88,2.38 -1.88,4.4 1.07,4.4 2.03,0 10.08,-2.21 10.75,-4.15"/>
   <path class="fil2 str1" d="M283.08 267.47c5.67,0 13.88,-0.3 16.1,-6.67"/>
   <path class="fil2 str1" d="M336.53 234.15c12.6,-2.97 13.66,3.13 16.97,4.28"/>
   <path class="fil2 str1" d="M350.11 231.51c2.8,-0.13 6.13,2.28 5.03,4.4"/>
   <path class="fil2 str1" d="M353.38 228.74c1.77,0 4.19,-0.14 4.02,2.02"/>
   <path class="fil2 str1" d="M225.24 225.98c-1.33,-0.06 -6.14,2.71 -6.04,4.03"/>
   <path class="fil2 str1" d="M226.87 227.62c-0.81,0.67 -2.89,1.29 -2.89,2.26"/>
   <path class="fil2 str1" d="M229.26 228.75c-0.4,0.18 -1.79,0.54 -1.76,1.38"/>
   <path class="fil2 str1" d="M267.49 105.02c5.41,-5.03 17.67,-1.71 20.37,6.29"/>
   <path class="fil2 str1" d="M302.83 113.2c12.67,-5.32 19.36,1.56 21.6,4.41"/>
   <path class="fil2 str1" d="M324.08 104.52c6.17,-10.65 21.63,-5.18 16.81,2.79 -1.51,2.5 -6.81,7.2 -10.65,8.32 -1.68,-0.7 -6.57,-10.41 -6.16,-11.11z"/>
   <path class="fil2 str1" d="M286.36 117.85c-1.34,4.91 -0.92,6.41 -6.92,10.41 -3.79,2.52 -5.1,4.11 -4.9,9.84"/>
   <path class="fil2 str1" d="M300.94 116.97c-5.5,7.95 0.97,15.23 -1.22,22.54 -0.04,0.12 -0.71,1.7 -1.17,1.86"/>
   <path class="fil2 str1" d="M425.43 279.44c4.14,10.17 -3.45,30.79 -12.07,33.07"/>
   <path class="fil5 str1" d="M380.92 303.59c0.81,2.93 9.1,2.61 7.78,-2.64 -1.02,-5.27 -9.33,-2.9 -7.78,2.64z"/>
   <path class="fil5 str1" d="M369.63 275.19c-2.17,1.31 -1.97,3.89 -0.41,5.05 6.63,4.92 6.36,-8.63 0.41,-5.05z"/>
   <path class="fil5 str1" d="M408.77 280.96c-5.3,1.96 -2.02,9.94 4.04,7 2.15,-1.3 0.06,-8.52 -4.04,-7z"/>
   <path class="fil5 str1" d="M334.14 315.91c-2.53,3.66 5.04,6.92 6.16,4.66 3.21,-6.45 -4.85,-6.56 -6.16,-4.66z"/>
   <path class="fil5 str1" d="M318.04 296.93c-3.65,7.36 4.49,7.09 3.93,2.31 -0.27,-2.29 -2.85,-4.49 -3.93,-2.31z"/>
   <path class="fil5 str1" d="M370.48 356.91c-2.93,0.38 -2.32,6.27 3.67,5.05 0.34,-0.07 3.83,-6.02 -3.67,-5.05z"/>
   <path class="fil5 str1" d="M322.82 345.09c-4.91,3.39 5.51,8.53 4.8,2.76 -0.24,-1.93 -2.95,-4.04 -4.8,-2.76z"/>
   <path class="fil5 str1" d="M421.91 236.01c-2.57,1.07 -2.9,8.68 3.29,7.23 3.43,-0.8 2.45,-9.62 -3.29,-7.23z"/>
   <path class="fil5 str1" d="M408.44 208.16c-4.1,-0.84 -5.86,5.13 -1.07,7.08 5.67,2.29 9.35,-5.37 1.07,-7.08z"/>
   <path class="fil5 str1" d="M402.29 174.33c-3.05,0.5 -4.42,9.26 4.04,7.57 2.55,-0.51 5.29,-7.57 -4.04,-7.57z"/>
   <path class="fil5 str1" d="M364.31 206.98c10.95,0.95 0.2,-13.18 -3.37,-7.25 -2.08,3.44 -0.57,6.91 3.37,7.25z"/>
   <path class="fil5 str1" d="M235.04 193.44c0.29,-2.63 -4.55,-5.86 -8.1,-3.7 -8.4,5.1 7.15,12.41 8.1,3.7z"/>
   <path class="fil5 str1" d="M264.47 175.78c5.32,0.26 8.61,-11.89 -2.77,-10.5 -2.48,0.3 -9.27,9.91 2.77,10.5z"/>
   <path class="fil5 str1" d="M350.23 148.18c-1.59,1.01 -4.68,8.55 4.27,8.55 2.93,0 5.07,-4.29 2.71,-7.27 -1.85,-2.33 -4.19,-2.24 -6.98,-1.28z"/>
   <path class="fil5 str1" d="M316.9 245.51c0.6,2.97 2.67,3.45 4.88,3.77 6.71,0.97 6.65,-3.31 4.44,-5.26 -3.06,-2.68 -10.22,-3.07 -9.32,1.49z"/>
   <path class="fil5 str1" d="M374.12 171.96c0.45,2.24 2.01,2.6 3.67,2.84 5.05,0.73 5,-2.49 3.34,-3.95 -2.3,-2.02 -7.69,-2.31 -7.01,1.11z"/>
   <path class="fil5 str1" d="M279.45 189.67c3.79,0.19 6.14,-8.47 -1.97,-7.48 -1.77,0.21 -6.62,7.07 1.97,7.48z"/>
   <path class="fil5 str1" d="M231.99 241.24c3.79,0.19 6.14,-8.47 -1.98,-7.48 -1.77,0.21 -6.61,7.06 1.98,7.48z"/>
   <path class="fil5 str1" d="M389.69 261.57c0.49,2.48 2.22,2.88 4.07,3.14 5.6,0.82 5.55,-2.76 3.71,-4.38 -2.56,-2.24 -8.54,-2.57 -7.78,1.24z"/>
   <path class="fil5 str1" d="M397.15 326.02c0.22,2.1 1.63,2.56 3.15,2.92 4.59,1.1 4.82,-1.88 3.41,-3.36 -1.96,-2.06 -6.9,-2.78 -6.56,0.44z"/>
   <path class="fil2 str1" d="M278.53 145.18c-5.81,-1.63 -24.73,2.02 -28.79,7.3"/>
   <path class="fil2 str1" d="M277.03 141.66c-7.03,-2.78 -21.16,0.51 -27.44,5.2"/>
   <path class="fil2 str1" d="M293.63 145.18c10.03,-0.86 20.81,6.54 23.29,9.02"/>
   <path class="fil2 str1" d="M289.6 148.45c4.68,0.58 19.16,4.16 24.06,10.4"/>
   <path class="fil2 str1" d="M287.09 151.72c4.88,0.63 20.91,6.79 22.63,11.95"/>
   <path class="fil2 str1" d="M278.03 149.21c-10.56,0 -25.87,5.81 -26.91,9.3"/>
   <path class="fil5 str1" d="M345.07 180.38c-2.16,1.31 -1.96,3.9 -0.41,5.05 6.64,4.92 6.36,-8.63 0.41,-5.05z"/>
   <path class="fil5 str1" d="M356.19 241.23c-3.66,7.37 4.48,7.1 3.92,2.31 -0.27,-2.28 -2.84,-4.48 -3.92,-2.31z"/>
   <path class="fil2 str1" d="M269.92 83.59c0,-1.49 -2.01,-2.52 -3.62,-2.52 -2.86,0 -6.49,1.99 -7.07,4.76 -1.05,4.99 -0.14,6.4 1.47,11.09l0.04 0.12"/>
  </g>
  <g id="_2825746846672">
   <g>
    <path class="fil8 str0" d="M683.8 405.27c4.22,-2.96 11.49,-7.69 12.96,-12.17 1.52,-4.62 11.63,-19.76 17.5,-19.24 4.63,0.42 20.44,-6.32 15.89,-0.28 -3.41,4.53 -22.68,6.1 -16.24,14.22 4.65,5.87 20.68,3.87 27.95,4.18 2.21,0.1 5.82,-2.21 7.93,-3.95 2.66,-2.18 7.41,-7.84 8.49,-8.06 2.8,-0.57 0.59,4.51 -1.27,7.37 -1.68,2.57 -8.86,8.02 -10.44,8.47 -4.49,1.31 -10.34,0.41 -14.19,1.75 0.35,1.71 14.05,2.61 20.2,-2.72 0.26,-0.23 11.66,-10.63 9.07,-3.14 -1.18,3.44 -7.08,7.88 -11.29,9.76 -2.56,1.15 -28.01,3.58 -8.15,3.07 2.97,-0.08 10.38,0.66 14.69,-0.66 9.76,-3.01 1.48,5.09 -3.76,5.13 -5.67,0.05 -9.58,-0.32 -16.37,-0.87 -3.46,-0.28 3.57,1.93 9.39,2.54 1.35,0.14 6.81,0.44 9.62,0.99 2.74,0.53 1.96,2.23 0.12,2.99 -4.21,1.75 -14.48,-0.49 -17.44,-0.92 -6.34,-0.94 -10.32,-3.66 -18.81,0.21 -3.68,1.67 -14.39,-2.59 -17.38,0.04 -22.09,19.47 -36.32,43.93 -53.53,59.41 0.36,-9.2 -0.33,-13.41 1.02,-22.3 1.09,-7.21 3.06,-21.66 9.57,-25.41 5.81,-7.8 17.79,-15.75 24.47,-20.41z"/>
    <path class="fil1 str0" d="M607.08 742.25c7.05,2.56 17.57,-0.05 14.62,-2.89 -0.66,-0.63 -7.47,-4.98 -2.78,-3.86 5.48,1.3 6.43,1.98 7.52,-1.82 1.05,-3.62 -5.36,-8.37 -10.37,-9.73 -3.4,-0.92 -6.51,5.91 -8.46,9.18 -0.93,1.55 -4.15,3.49 -5.8,4.32 -2.82,1.41 3.94,4.32 5.27,4.8z"/>
    <path class="fil8 str0" d="M624.67 383.99c2.52,11.47 -2.79,22.71 -3.42,33.81 -0.56,9.99 3.67,19.76 3.52,31.33 -0.33,24.9 -14.29,33.14 -13.39,56.03 0.57,14.4 -12.95,36.33 -9.76,54.65 1.71,9.84 17.75,73.81 0.22,85.97 -4.52,3.13 -10.13,47.4 -3.29,65.98 1.95,5.3 23.43,9.94 15.35,13.94 -2.43,1.2 -6.46,10.06 -11.25,11.05 -1.69,8.19 -9.48,-11.04 -11.34,-10.22 -18.73,8.19 -4.02,-12.56 -12.81,-29.28 -8.22,-15.64 -11.35,-39.33 -3.25,-40.32 7.65,-0.93 8.79,-17.32 -5.13,-33 -6.17,-6.95 -12.31,-24.6 -14.45,-30.45 -1.22,-3.34 -2.66,0.98 0.33,12.64 1.67,6.51 7.34,19.75 7.34,31.48 0,40.05 -22.32,74.99 -64.24,55.23 -21.13,-9.96 -38.42,-27.44 -70.61,-11.2 -6.41,3.24 -26.59,22.56 -42.53,23.33 -18,0.86 -21.57,-8.23 -19.37,-8.67 1.9,-0.37 12.38,13.33 38.11,-6.95 18.69,-14.73 35.4,-23.3 59.02,-23.03 24.81,0.27 48.32,30.01 68.3,17.65 17.22,-10.66 19.29,-42.71 15.81,-60.32 -2.78,-14.04 -8.19,-33.04 -14.22,-47.66 -0.25,-0.62 -4.75,-54.55 -4.75,-60.22 0,-35.92 -1.99,-57.15 22.4,-85.87 15.09,-17.77 11.53,-16.92 34.19,-28.17 18.93,-9.39 -4.18,-23.71 -4.18,-29.82 0,-9.72 5.81,-19.5 12.68,-25.62 14.85,9.61 26.39,18 30.72,37.71z"/>
    <path class="fil8" d="M594.31 553.6c7.14,2.62 8.89,2.11 14.77,2.84 6.43,0.79 9.78,1.6 16.64,0.8 3.3,-0.38 15.74,1.12 18.4,2.73 8.24,4.98 10.17,10.21 17.05,17.1 2.45,2.44 11.58,5.58 14.72,6.98 9.64,4.3 19,9.74 28.13,15.56 5.77,3.68 21.44,8.58 26.78,8.58 10.6,0 8.7,-1.65 10.18,10.37 0.52,4.28 0.63,9.17 -2.35,12.48 -8.25,9.16 -13.39,-13.59 -15.17,-7.67 -0.85,2.82 -3.27,6.19 -6.12,5.11 -5.32,-2.03 -7.64,-3.17 -11.92,-8.64 -6.78,-8.65 -17.05,-11.81 -27.75,-11.59 -4.69,0.09 -14.26,-2.49 -20.36,-2.23 -12.94,0.55 -22.68,-14.5 -30.11,-13.76 -5.59,0.56 -16.17,4.01 -22.57,6.64 -2.9,1.19 -14.48,1.5 -17.76,1.29 -4.04,-0.27 -7.15,-16.22 -5.39,-21.47 2.21,-6.59 1.05,-8.62 4.67,-16.27 1.26,-2.66 4.55,-10.17 8.16,-8.85z"/>
    <path class="fil2 str0" d="M553.95 532.49c0,16.54 26.76,8.05 31.37,13.94 11.62,14.82 39.64,8.19 56.36,12.68 12.37,3.32 12.31,17.44 30.24,23.04 20.21,6.31 35.15,26.17 62.69,26.17 5.2,0 4.84,-0.04 6.09,7.3 0.8,4.74 3.83,8.36 -2,15.19 -8.61,10.11 -13.88,-13.76 -15.24,-7.44 -2.64,12.27 -14.92,0.15 -20.77,-6.5 -12.9,-14.63 -47.81,-3.85 -62.26,-16.96 -1.6,-1.45 -9.69,-7.2 -12.88,-7.2 -13.3,0 -49.63,22.55 -65.42,1.53 -4.03,-5.35 -8.56,-4.31 -8.74,-4.32"/>
    <path class="fil8" d="M642.6 363.92c-1.44,-0.36 -0.76,1.71 -1.25,4.14 -0.79,3.86 0.31,9.85 -2.24,14.08 -1.64,2.71 -2.33,7.59 -0.82,10.42 1.59,2.96 1.77,4.76 5.03,9.33 2.24,3.13 0.46,11.92 -0.03,15.96 -1.03,8.33 -5.84,18.42 -10.14,25.72 -2.77,4.69 -9.01,12.34 -14.29,12.34 -5.54,0 -15.19,-8.01 -11.73,8.94 1.02,5.01 3.02,7.64 6.62,11.22 1.43,1.43 4.62,1.76 7.85,4.8 4.02,3.78 15.85,8.33 17.85,6.64 4.08,-3.46 9.6,-9.71 10.61,-17.94 0.51,-4.09 3.93,-9.62 4.46,-17.29 0.17,-2.38 1.56,-5.7 1.68,-9.73 0.11,-4.14 3.62,-22.85 4.58,-27.09 1.61,-7.05 2.75,-11.73 3.78,-17.01 1.61,-8.26 7.35,-7.92 7.35,-18.37 0,-4.97 -0.66,-3.77 1.08,-8.01 0.53,-1.28 0.36,-3.79 -0.39,-4.8 -2.23,-2.98 -0.49,-7.13 -1.81,-10.34 -0.17,-0.4 -1.19,-5.83 -3.3,-3.29 -0.43,0.52 1.04,2.24 -0.23,7.47 -0.52,2.15 -3.06,7.51 -4.59,10.38 -0.02,0.05 -4.77,7.27 -4.47,2.94 0.52,-7.31 5.97,-7.88 6.66,-21.2 0.06,-1.1 -0.37,-9.74 -2.37,-8.56 -0.63,0.38 -5.29,20.2 -8.25,23.72 -1.56,1.86 -6.25,23.19 -8.08,15.33 -1.37,-5.87 0.84,-6.44 -0.17,-15.66 -0.81,-1.37 -2.11,-3.81 -3.39,-4.14z"/>
    <path class="fil2 str0" d="M563.43 428.78c19.27,0 13.21,0.46 21.33,10.59 2.95,3.68 13.79,-1.92 25.32,10.23 2.88,3.04 10.27,8.51 13.76,5.02 14.44,-14.44 19.9,-28.8 20.72,-49.82 0.1,-2.64 -11.77,-13.68 -4.88,-23.56 3.51,-5.03 -1.72,-26.86 6.13,-13.51 3.57,6.06 -3.53,20.63 2.71,16.63 0.89,-0.58 3.02,-12.76 7.66,-20.4 5.59,-9.18 4.2,-27.93 8.59,-16.59 0.99,2.57 0.29,13.86 -2.5,18.54 -7.33,12.27 -3.63,12.62 0.84,3.63 3.25,-6.55 4.66,-6.36 4.31,-15.2 -0.12,-3.14 4.65,-1.86 4.21,9.34 -0.15,3.83 4.13,2.42 0.54,10.46 -1.42,3.17 2.46,8.14 -5.44,19.24 -1.47,2.07 -7.39,26.9 -7.39,30.38 0,12.82 -6.14,42.48 -11.52,52.97 -6.28,12.25 -10.14,15.34 -23.75,5.77 -12.14,-8.54 -15.06,-3.89 -28.71,-7.58 -20.69,-5.6 -9.54,-13.79 -28.53,-10.96 -5.45,0.8 -15.03,-1.77 -14.55,-7.86"/>
    <path class="fil1 str0" d="M739.84 608.78c0.56,-0.49 12.15,-2.53 13.68,-2.31 6.24,0.86 -3.29,6.67 -3.3,6.81 -0.08,1.18 7.18,-2.81 6.76,4.38 -0.25,4.43 -6.25,14.96 -10.39,16.31 -3.78,1.23 -4.7,-0.24 -7.12,-1.4 -3.23,-1.56 0.52,-1.53 1.43,-5.36 1.72,-7.22 -0.05,-6.9 -0.08,-12.41 0,-0.73 -1.37,-5.67 -0.98,-6.02z"/>
    <path class="fil2 str0" d="M566.07 532.66c-0.04,-1.44 5.02,-15.47 5.02,-21.68 0,-6.3 -1.39,-9.67 -1.39,-16.52 0,-4.1 2.17,-7 5.22,-9.29 0.88,-0.66 14.01,-6.62 14.64,-6.6 9.56,0.3 0.32,12.94 9.76,19.14 6.25,4.11 4.39,14.29 4.39,21.01"/>
    <path class="fil2 str1" d="M552.37 593.74c0,19.37 7.27,23.81 8.27,41.21 1.45,25.27 -10.38,55.52 -32.88,60.53 -7.15,1.59 -15.37,0.64 -24.59,-3.83 -13.8,-6.69 -23.7,-13.2 -33.49,-16.36 -17.56,-5.67 -32.34,-3.09 -51.1,10.87 -17.06,12.69 -26.43,22.16 -48.82,14.64"/>
    <path class="fil2 str1" d="M618.96 725.04c0.41,2.06 -0.99,4.55 -3.03,5.19 -0.23,0.07 -0.4,0.3 -0.68,0.28"/>
    <path class="fil2 str1" d="M621.66 727.3c0.54,4.42 -1.72,3.8 -2.09,4.88"/>
    <path class="fil2 str1" d="M624.93 729.36c-0.73,1.89 -0.65,2.69 -2.4,3.56 -0.12,0.06 -0.13,0.12 -0.17,0.24"/>
    <path class="fil2 str1" d="M743.85 626.94c0.06,1.34 -2.55,4.94 -4.18,5.49 -0.29,0.09 -0.38,0.24 -0.56,0.23"/>
    <path class="fil2 str1" d="M746.5 627.85c0.05,1.5 -1.76,4.15 -2.86,5.08 -0.69,0.59 -1.23,1.05 -2.23,1.05"/>
    <path class="fil2 str1" d="M749.22 629.31c0,1.49 -1.36,4.32 -2.86,4.74"/>
    <path class="fil2 str1" d="M601.95 510.84c0,-12.26 -10.46,-11.32 -10.03,-22.03 0.09,-2.43 -1.96,-5.02 -5.02,-5.02 -6.31,0 -6.37,3.02 -11.08,5.37 -3.66,1.82 -3.43,9.92 -2.38,13.52 1.26,4.31 -0.89,19.47 -3.48,23.56 -0.06,0.11 -0.64,2.03 -0.63,2.16"/>
    <path class="fil2 str1" d="M555.95 544.86c11.06,0.91 24.27,8.06 36.8,12 13.11,4.11 27.36,3.19 32.58,3.19 7.59,0 23.9,-0.54 22.63,11.85 -0.35,3.34 -5.91,1.39 -7.11,1.39"/>
    <path class="fil2 str1" d="M647.4 591.97c-9.83,0 -1.2,11.71 15.47,11.71 12.07,0 28.05,-1.71 37.78,7.06 3.19,2.88 15.64,16.5 19.04,10.74 7.94,-13.41 9.28,16.56 18.31,1.99 1.78,-2.86 0.45,-11.51 -1.94,-11.98"/>
    <path class="fil2 str1" d="M629.56 479.63c0.34,3.66 8.84,7.92 11.66,1.67 0.32,-0.7 0.82,-2.53 0.33,-3.34"/>
    <path class="fil2 str1" d="M555.96 454.4c1.33,5.18 6.1,5.71 12.82,5.71 7.9,0 10.38,0.93 15.59,5.95 5.81,5.61 12.65,7.34 17.33,8.09 11.02,1.78 15.81,-5.58 8.06,-7.62"/>
    <path class="fil2 str1" d="M605.59 600.49c0,13.78 4.12,25.67 -2.79,39.59 -1.3,2.64 -8.36,10.37 -8.36,1.26"/>
    <path class="fil2 str1" d="M583.56 663.92c0.13,-2.75 -10.03,-7.7 -10.03,5.02 0,13.81 2.44,15.53 9.33,26.9 6.03,9.96 -2.1,25.51 6.28,25.51 9.5,0 10.12,19.58 18.77,4.97 2.35,-3.98 5.43,-3.13 -1.49,-5.53"/>
    <path class="fil2 str1" d="M560.28 599.52c2.61,1.57 2.9,2.64 6.65,3.2 0.35,0.06 2.92,0.71 2.97,0.7"/>
    <path class="fil2 str1" d="M562.09 604.4c3.58,3.73 5.23,1.87 7.53,2.79"/>
    <path class="fil2 str1" d="M565.02 610.25c1.32,1.63 2.85,1.4 4.74,1.4"/>
    <path class="fil2 str1" d="M555.4 527.18c-0.07,1.82 1.96,8.62 3.4,9.85l0.09 0.18"/>
    <path class="fil2 str1" d="M559.17 528.57c0,3.47 -0.62,1.81 1.25,5.3"/>
    <path class="fil2 str1" d="M595.02 349.77c11.63,7.04 23.62,19.66 25.65,34.85 2.01,15.01 -1.31,20.24 -2.78,32.45 -1.27,10.46 4.17,25.86 4.17,36.97"/>
    <path class="fil2 str0" d="M671.48 364.39c-0.45,0.83 -1.08,4.26 -1.91,5.57 -1.14,1.78 -1.76,4.85 -3.82,6.91 -0.32,0.32 -0.31,0.55 -0.61,0.65"/>
    <path class="fil2 str0" d="M671.79 375.97c-0.99,0.92 -4.98,8.93 -6.23,9.35"/>
    <path class="fil2 str0" d="M713.07 386.53c2.96,3.52 1.5,7.85 -1.54,10.89 -1.86,1.86 -4.84,2.27 -7.36,2.27"/>
    <path class="fil2 str0" d="M705.99 407.5c0.32,-3.43 10.92,-3.94 14.22,-2.58 0.26,0.1 3.54,1.19 3.62,1.18"/>
    <path class="fil2 str0" d="M587.22 372.38c2,1.45 3.17,4.56 3.91,6.69"/>
    <path class="fil2 str0" d="M593.64 369.31c1.33,2.22 2.99,2.88 3.6,5.88 0.09,0.45 0.3,-0.16 0.3,1.09"/>
    <path class="fil2 str0" d="M605.9 373.77c2.15,1.58 2.56,3.88 3.35,6.13"/>
    <path class="fil2 str0" d="M602.28 387.71c2.82,4.63 3.62,1.26 3.62,8.37"/>
    <path class="fil2 str0" d="M613.43 393.29c1.09,2.4 -0.68,5.47 -1.39,7.53"/>
    <path class="fil2 str0" d="M597.82 402.49c0.1,2.36 -2.56,6.12 -5.02,6.97"/>
    <path class="fil2 str0" d="M608.13 415.31c-0.06,0.46 -4.96,7.01 0.56,8.92"/>
    <path class="fil2 str0" d="M598.38 420.05c-1.89,5.51 -1.96,2.04 -1.96,9.2"/>
    <path class="fil2 str0" d="M581.65 422.56c-0.15,1.6 -2.91,2.23 -4.18,2.23"/>
    <path class="fil2 str0" d="M608.13 435.66c0.41,0.99 1.73,6.61 4.19,6.42"/>
    <path class="fil2 str0" d="M593.08 356.76c0,2.6 1.18,5.49 3.55,6.7 0.71,0.36 0.55,0.6 1.19,0.55"/>
    <path class="fil2 str0" d="M648.84 413.38c-0.1,0.2 -1.69,6.19 -1.67,6.41"/>
    <path class="fil2 str0" d="M653.86 418.12c0,1.39 0,2.78 0,4.18"/>
    <path class="fil2 str0" d="M646.05 428.99c0,0.89 -0.86,4.1 -1.39,5.02"/>
    <path class="fil2 str0" d="M651.63 431.5c0,1.67 0,3.34 0,5.02"/>
    <path class="fil2 str0" d="M649.68 424.25c-0.33,0.96 -0.59,1.83 -0.84,2.79"/>
    <path class="fil2 str0" d="M645.77 439.58c-0.25,2.32 -0.28,3.01 -0.28,5.3"/>
    <path class="fil2 str0" d="M650.3 447.59c1.49,2.1 -0.92,5.07 -1.21,6.47l0.03 0.3"/>
    <path class="fil2 str0" d="M637.13 448.51c0,3.35 -0.83,2.86 -1.67,5.29"/>
    <path class="fil2 str0" d="M642.15 456.31c-0.25,1.78 -2.4,4.17 -2.79,5.3"/>
    <path class="fil2 str0" d="M646.61 464.12c0,2.72 -1.39,3.53 -1.39,5.85"/>
    <path class="fil2 str0" d="M633.79 468.58c-0.21,2.15 -4.56,3.45 -5.86,3.34"/>
    <path class="fil2 str0" d="M629.88 461.61c-2.43,1.16 -4.28,3.06 -7.16,2.46"/>
    <path class="fil2 str0" d="M637.97 472.48c-0.7,1.18 -2.34,3.71 -2.23,5.02"/>
    <path class="fil2 str0" d="M622.91 473.6c-1.64,0.89 -4.07,1.01 -4.34,1.14l0.32 0.15"/>
    <path class="fil2 str0" d="M687.87 407.8c-1.59,0.13 -4.68,2.44 -5.37,3.83 -0.19,0.4 -0.54,0.12 -0.48,0.91"/>
    <path class="fil2 str0" d="M685.64 416.16c-1.3,0.98 -3.57,2.23 -4.18,3.91"/>
    <path class="fil2 str0" d="M691.77 416.44c0.67,1.77 -2.89,2.85 -2.78,4.19"/>
    <path class="fil2 str0" d="M675.32 420.35c-0.89,0.78 -3.18,2.25 -3.06,3.62"/>
    <path class="fil2 str0" d="M680.07 427.32c-0.62,0.7 -2.79,3.08 -3.07,3.9"/>
    <path class="fil2 str0" d="M672.54 431.5c-0.15,0.88 -1.12,1.5 -1.12,3.34"/>
    <path class="fil2 str0" d="M668.91 441.26c0.09,2.02 -1.44,3.58 -1.39,4.18"/>
    <path class="fil2 str0" d="M665.85 432.89c-2.61,0.25 -3.35,2.57 -3.35,4.74"/>
    <path class="fil2 str0" d="M661.94 444.6c0,2.22 -1.04,3.35 -3.34,4.46"/>
    <path class="fil2 str0" d="M661.66 452.96c-0.64,0.76 -2.95,3.49 -3.9,3.91"/>
    <path class="fil2 str0" d="M540.67 458.27c-1.72,1.64 -3.58,4.96 -2.79,7.25"/>
    <path class="fil2 str0" d="M547.92 467.19c0,1.17 -0.28,2.51 -0.28,4.18"/>
    <path class="fil2 str0" d="M540.67 473.05c-1.79,3.27 -3.07,3.48 -1.68,7.52"/>
    <path class="fil2 str0" d="M532.02 485.59c2.55,3.38 2.51,4.2 2.51,8.09"/>
    <path class="fil2 str0" d="M545.96 487.82c2.59,0.27 -0.93,5.34 -1.11,5.86"/>
    <path class="fil2 str0" d="M547.92 478.06c2.04,1.95 2.23,2.36 2.23,5.02l0 0.28"/>
    <path class="fil2 str0" d="M561.58 473.32c-1.97,1.97 -3.04,6.14 -1.12,6.14"/>
    <path class="fil2 str0" d="M571.61 473.05c2.29,0.32 2.23,3.14 2.23,5.01"/>
    <path class="fil2 str0" d="M561.3 490.05c0,1.95 0.43,7.37 2.51,8.09"/>
    <path class="fil2 str0" d="M555.72 501.48c1.78,4.48 -0.2,5.41 -0.84,7.25"/>
    <path class="fil2 str0" d="M545.96 503.71c-0.39,2.78 -0.99,1.66 -0.25,5.28l-0.02 0.3"/>
    <path class="fil2 str0" d="M549.59 512.91c1.15,1.95 1.39,6.21 0,8.09"/>
    <path class="fil2 str0" d="M536.76 509.57c-0.68,5.58 0.26,3.43 1.4,6.69"/>
    <path class="fil2 str0" d="M537.04 527.13c0.96,2.37 2.71,6.42 5.58,6.42"/>
    <path class="fil2 str0" d="M547.36 533.27c1.23,2.07 0.83,2.59 0.83,5.01"/>
    <path class="fil2 str0" d="M563.25 514.59c1,2.21 0,4.22 -0.56,5.85"/>
    <path class="fil2 str0" d="M539.55 543.86c0,3.26 0.1,5.21 2,8.01l0.51 0.35"/>
    <path class="fil2 str0" d="M550.98 551.67c2.16,1.37 3.9,4.52 3.9,7.25"/>
    <path class="fil2 str0" d="M540.39 560.87c0.39,1.02 1.96,4.84 3.06,5.01"/>
    <path class="fil2 str0" d="M547.64 562.54c0.63,0.07 0.89,1 3.11,1.72l0.51 0.23"/>
    <path class="fil2 str0" d="M569.66 557.8c1.4,0.77 3.43,2.39 5.3,2.23"/>
    <path class="fil2 str0" d="M563.53 561.43c1.48,1.02 5.49,4.63 7.52,4.45"/>
    <path class="fil2 str0" d="M549.31 579.83c2.55,0 6.97,0.72 6.97,3.91 0,0.27 0,0.55 0,0.83"/>
    <path class="fil2 str0" d="M557.96 577.6c1.99,3.3 5.39,2.79 8.64,2.79"/>
    <path class="fil2 str0" d="M558.23 569.52c1.66,1.65 2.42,2.23 4.74,2.23"/>
    <path class="fil2 str0" d="M569.94 575.37c1.38,0 5.1,-0.49 5.02,1.4 -0.03,0.77 0.06,0.19 0.28,0.83"/>
    <path class="fil2 str0" d="M579.98 567.84c0.18,1.67 6,2.58 7.88,1.47l0.49 -0.07"/>
    <path class="fil2 str0" d="M582.26 576.08c1.57,-0.85 5.53,-0.26 5.53,3.47"/>
    <path class="fil2 str0" d="M572.17 589.31c0.78,0.09 5.15,3.93 7.16,1.58l0.37 -0.19"/>
    <path class="fil2 str0" d="M583.56 596.34c-0.06,-0.85 5.95,-3.39 6.74,-0.34"/>
    <path class="fil2 str0" d="M585 584.57c1.83,1.09 4.83,1.83 6.69,0.56"/>
    <path class="fil2 str0" d="M596.15 567.84c2.16,-1.12 5.8,-2.04 7.43,0.31l0.21 0.29 -0.39 0.08"/>
    <path class="fil2 str0" d="M596.99 574.81c5.52,-0.77 3.8,-0.11 7.82,0.73"/>
    <path class="fil2 str0" d="M600.61 586.52c1.33,0.19 8.03,0.62 8.37,-0.83"/>
    <path class="fil2 str0" d="M600.89 595.44c1.07,0.15 5.96,1.03 5.86,-0.27"/>
    <path class="fil2 str0" d="M615.11 590.43c0.89,-0.07 5.81,-0.97 6.41,-2.23"/>
    <path class="fil2 str0" d="M616.5 575.93c3.03,-1.64 3.45,-0.73 5.58,0"/>
    <path class="fil2 str0" d="M624.03 581.5c2.8,-1.66 2.32,-0.54 5.3,0.36 0.42,0.12 0.48,0.14 0.55,0.48"/>
    <path class="fil2 str0" d="M627.38 568.96c1.8,-0.72 4.39,-0.22 5.29,1.67"/>
    <path class="fil2 str0" d="M639.64 582.34c0.62,0.08 5.38,1.41 6.41,1.67"/>
    <path class="fil2 str0" d="M634.35 589.03c1.36,0 4.93,1.2 5.85,1.12"/>
    <path class="fil2 str0" d="M655.81 591.83c0.25,2.63 6.55,3.62 8.65,3.62"/>
    <path class="fil2 str0" d="M656.65 582.35c4.06,-1.61 4.98,2.43 5.3,2.51"/>
    <path class="fil2 str0" d="M669.75 589.87c1.68,2.63 4.35,3.23 6.97,3.91"/>
    <path class="fil2 str0" d="M685.93 597.12c2.06,0 4.56,0.41 5.29,2.51"/>
    <path class="fil2 str0" d="M702.65 606.04c1.42,2.65 1.95,2.79 4.46,2.79"/>
    <path class="fil2 str0" d="M716.31 611.06c1.32,-0.52 4.72,-1.68 5.3,0"/>
    <path class="fil2 str0" d="M713.25 613.85c1.62,0.97 2.97,1.77 4.74,2.79"/>
    <path class="fil2 str0" d="M592.53 608.28c4.62,0.91 4.46,6.38 4.46,10.04"/>
    <path class="fil2 str0" d="M579.15 619.99c0,3.34 1.88,6.72 5.01,7.81"/>
    <path class="fil2 str0" d="M594.2 626.68c0,1.68 0,3.35 0,5.02"/>
    <path class="fil2 str0" d="M587.51 645.64c0,8.41 3.54,7.08 3.35,9.48"/>
    <path class="fil2 str0" d="M589.74 664.04c0.1,2.18 -0.96,5.19 -1.67,7.25"/>
    <path class="fil2 str0" d="M580.82 676.86c0.48,0.7 4.61,5.44 5.02,5.58"/>
    <path class="fil2 str0" d="M590.72 680.21c0,0.82 0.39,2.67 -0.28,3.49"/>
    <path class="fil2 str0" d="M587.93 688.16c0,0.6 0.29,3.05 0.97,3.2"/>
    <path class="fil2 str0" d="M583.05 668.64c-0.99,0.74 -0.74,1.97 -0.28,2.93"/>
    <path class="fil2 str0" d="M589.05 700.29c-1.03,0.66 -1.26,3.45 -0.09,4.55 0.13,0.13 0.18,0.3 0.23,0.47"/>
    <path class="fil2 str0" d="M592.53 697.64c0.26,1.85 0.28,1.68 0.28,3.63"/>
    <path class="fil2 str0" d="M592.25 709.21c-0.21,1.72 0,2.47 0,4.18"/>
    <path class="fil2 str0" d="M596.99 718.69c-0.45,1.25 2.44,1.4 3.21,1.4"/>
    <path class="fil2 str0" d="M589.05 716.04c0.12,0.78 0.9,1.54 1.81,1.54"/>
    <path class="fil2 str0" d="M583.9 607.32c-1.49,0.9 -1.51,2.93 -1.12,4.46"/>
    <path class="fil2 str0" d="M578.05 527.88c1.15,1.93 1.25,3.7 0,5.85"/>
    <path class="fil2 str0" d="M588.64 526.48c-0.89,1.7 -1.43,5.2 0.84,5.02"/>
    <path class="fil2 str0" d="M586.97 510.04c-1.92,1.32 -1.67,3.15 -1.67,5.29"/>
    <path class="fil2 str0" d="M598.12 525.37c0,3.67 0.31,2.79 -0.84,6.13"/>
    <path class="fil2 str0" d="M594.22 542.65c0.23,0.74 2.52,5.38 2.51,5.58"/>
    <path class="fil2 str0" d="M588.92 497.77c0.25,2.86 1.39,1.63 1.39,6.69l0 0.28"/>
    <path class="fil2 str0" d="M570.52 439.79c2.06,0.16 3.83,2.49 3.91,2.51"/>
    <path class="fil2 str0" d="M561.32 446.48c0.16,1.71 1.6,2.23 3.07,2.23"/>
    <path class="fil2 str0" d="M572.47 448.99c2.02,-0.8 4.27,-0.2 5.3,1.95"/>
    <path class="fil2 str0" d="M582.79 456.51c0.48,0.04 5.1,1.27 5.58,0.84"/>
    <path class="fil2 str0" d="M588.92 450.38c1.95,0 4.57,0.13 5.3,2.23"/>
    <path class="fil2 str0" d="M597.29 462.93c2.53,0 4.36,0.28 6.97,0.28"/>
    <path class="fil2 str0" d="M607.32 457.91c2.58,-1.17 2.78,0.98 3.35,1.11"/>
    <path class="fil2 str0" d="M589.2 465.99c0.53,0.46 2.95,2.29 3.63,2.23"/>
    <path class="fil2 str0" d="M600.63 448.71c1.02,-0.46 2.39,-0.33 2.79,0.83"/>
    <path class="fil2 str1" d="M703.24 406.77c1.48,-1.42 2.18,-3.31 5.02,-4.05 4.47,-1.15 5.3,-1.7 10.31,-1.1 2.15,0.26 4.74,0.17 6.59,1.35 0.13,0.07 1.09,0.46 1.22,0.45"/>
   </g>
   <g>
    <path class="fil9" d="M612.58 262.58c-0.87,1.06 -4.68,2.5 -6.93,5.73 -1.67,2.37 -5.44,5.34 -7.62,9.01 -2.17,3.67 -3.29,5.23 -7.23,13.08 -1.95,3.89 -7.03,16.39 -9.25,20.84 -0.71,1.44 -6.8,8.88 -7.54,11.72 -0.82,3.13 -15.24,-1.16 -22.75,6.35 -4.06,4.06 -5.17,7.7 -9.28,11.19 -0.2,0.17 -0.51,4.34 -1.38,6.57 -2.31,5.93 -0.33,12.71 -2.12,16.31 -1.84,3.71 -2.43,3.83 1,7.8 7.61,8.79 7.81,9.94 18.92,9.74 11.28,-0.21 14.87,-5.01 22.36,-9.07 4.05,-2.18 8.56,-1.81 8.26,-5.61 -0.23,-2.86 2.67,0.54 2.5,-3.63 -0.09,-2.28 5.02,0.08 5.02,-2.79 0,-4.49 2.06,-2.55 2.26,-3.88 0.33,-2.25 -5.72,2.58 -4.51,-3.35 0.57,-2.78 16.4,-16.6 20.37,-22.69 2.99,-4.58 6.81,-8.37 9.11,-13.29 1.83,-3.91 0.56,-16.61 1.7,-20.07 0.95,-2.92 -0.06,-9.09 2.02,-15.34 0.38,-1.14 7.92,-17.25 6.13,-17.03 -1.45,0.18 -8.77,11.25 -10.87,13.13 -5.51,4.91 -5.65,13.24 -7.78,19.17 -3.62,10.07 -2.87,11.11 -8.53,20.98 -1.57,2.73 -4.21,5.1 -7.41,7.31 -1.02,0.7 -9.05,7.51 -9.2,7.49 -3.29,-0.42 3.85,-7.39 4.04,-9.71 0.11,-1.42 3.68,-15.89 4.37,-22.38 1.1,-10.38 0.06,-9.56 4.7,-17.89 0.44,-0.79 5.5,-10.14 6.1,-10.19 0.88,-1.47 6.78,-9.61 5.35,-9.56 -1.55,0.06 -1.59,-0.2 -1.81,0.06z"/>
    <path class="fil5 str1" d="M567.21 354.55c0.18,-1.14 3.84,-2.93 5.61,-0.71 0.57,0.73 2.49,1.99 2.88,4.33 0.24,1.45 -1.31,1.76 -2.86,2.07 -2.21,0.45 -5.13,-0.14 -5.55,-2.65 -0.18,-1.04 -0.3,-1.72 -0.08,-3.04z"/>
    <path class="fil5 str1" d="M547.52 345.16c0.34,0.69 4.46,4.5 -0.18,4.5 -1.92,0 -2.98,0.8 -4.41,-0.89 -1.23,-1.45 -3.18,-0.71 -0.5,-5.14 0.68,-1.14 4.53,0.4 5.09,1.53z"/>
    <path class="fil2 str0" d="M588.94 332.11c-0.16,-1.49 -7.88,-7.03 -10.31,-7.22 -2.52,-0.21 -4.32,-1.14 -8.09,-1.14 -5.94,0 -10.86,0.39 -16.1,3.14 -1.64,0.86 -7.56,6.04 -7.85,7.75 -0.53,3.11 -5.69,2.12 -5.32,11.41 0.05,1.23 -2.79,3.03 -2.79,9.48 0,4.53 0.94,5.81 -1.32,8.99 -1.55,2.17 2.04,7.42 3.83,9.13 4.21,4.04 4.58,5.52 10.85,7 10.31,2.42 16.39,-1.18 24.79,-5.91 3.79,-2.13 6.41,-5.83 12.03,-5.83"/>
    <path class="fil2 str0" d="M584.76 367.52c2.68,-1.85 4.55,-0.84 6.97,-0.84"/>
    <path class="fil2 str0" d="M587.27 363.06c4.58,0 4.07,0.34 8.36,-0.84"/>
    <path class="fil2 str0" d="M589.22 358.32c8.16,0 4.73,0.92 12.27,-2.79"/>
    <path class="fil2 str0" d="M634.66 266.87c-1.78,4.41 -4.85,9.43 -6.62,13.48 -3.51,8.07 -3.69,8.59 -3.69,17.75 0,11.36 2.4,14.71 -4.56,25.34 -3.7,5.66 -3.01,6.03 -8.36,11.36 -0.92,0.92 -22.57,20.42 -16.91,20.17 2.32,-0.1 6.41,-0.48 6.41,-3.62"/>
    <path class="fil2 str0" d="M632.99 262.41c-3,2.07 -15.27,21.15 -15.64,25.37 -0.29,3.34 -4.91,16.58 -6.85,19.54 -2.68,4.09 -3.23,10.24 -8.99,14.55 -3.83,2.86 -11,9.54 -13.61,13.33 -4.02,5.82 -2.58,3.68 -2.58,10.29"/>
    <path class="fil2 str0" d="M619.33 305.62c-0.95,7.71 -1.29,15.14 -7.15,21.01 -6.63,6.63 -13.51,3.08 -20.1,16.43 -5.32,10.76 -4.78,-2.27 -1.74,-3.14 1.81,-0.53 3.2,-3.88 3.06,-5.58"/>
    <path class="fil2 str0" d="M595.35 333.5c0.92,-0.14 3.16,-2.03 2.51,-3.9"/>
    <path class="fil2 str0" d="M600.93 330.72c0.19,-1.19 1.05,-1.14 0.56,-3.07"/>
    <path class="fil2 str0" d="M605.11 328.49c-0.03,-0.67 0.84,-2.78 0.84,-4.19"/>
    <path class="fil2 str0" d="M608.46 327.09c0.26,-1.89 1.67,-2.84 1.67,-5.02"/>
    <path class="fil2 str0" d="M612.92 321.79c1.01,-2.59 1.29,-2.91 0.28,-5.85"/>
    <path class="fil2 str0" d="M614.31 261.58c-14.52,7.93 -23.36,25.37 -29.62,42.18 -3.83,10.27 -10.94,15.19 -10.88,19.79"/>
    <path class="fil2 str0" d="M614.87 267.43c-5.03,-0.23 -15.25,19.41 -15.89,25.93 -0.19,1.96 -0.97,12.84 -1.19,14.42 -2.28,16.14 -8.33,21.86 -8.85,24.33"/>
    <path class="fil2 str0" d="M592.84 296.15c0,18.14 -10.75,35.3 -10.03,27.88 0.57,-5.89 7.11,-6.25 7.11,-15.62"/>
    <path class="fil2 str0" d="M545.42 336.49c0.23,6.89 -1.87,4.4 5.86,6.49 2.29,0.62 6.36,4.63 2.61,6.49 -2.03,1 -3.31,5.72 -6.98,7.53 -2.18,1.08 -3.31,6.53 1.63,7.15 5.39,0.68 2.69,-2.86 5.5,-1.88 1.09,0.4 2.93,3.26 -0.86,3.26"/>
    <path class="fil2 str0" d="M555.76 359.99c4.35,0 3.45,6.94 0.28,6.69"/>
    <path class="fil2 str0" d="M565.24 349.67c10.45,-4.72 9.84,8.58 18.13,11.44"/>
    <path class="fil4 str0" d="M562.7 372.19c-4.44,2.97 -11.22,-1.77 -14.59,-4.43 -0.72,-0.56 -3.58,-3.33 -5.18,-3.04 -0.95,0.17 -2.15,3.4 -0.5,4.98 5.78,5.52 15.21,10.57 22.21,3.62 1.31,-1.29 1.98,-2.67 2.27,-3.7 -0.88,-0.64 -2.86,1.66 -4.21,2.57z"/>
    <path class="fil2 str0" d="M564.34 354.83c3.98,0.28 5.49,-6.05 9.78,0.18 0.66,0.96 0.86,2.57 2.64,3.33"/>
    <path class="fil2 str0" d="M566.78 354.83c1.46,5.7 0.37,6.42 7.66,6.42"/>
    <path class="fil1 str0" d="M570.23 353.51c1.3,-0.07 1.78,0.68 1.44,2.73 -0.36,2.11 -4.19,2.47 -2.94,-1.13 0.19,-0.55 0.85,-1.57 1.5,-1.6z"/>
    <path class="fil2 str0" d="M541.58 342.88c1.87,0.26 2.98,-0.17 5.26,0.38 0.85,0.21 2.61,3.96 3.86,5.21 1.84,1.84 -0.64,0.83 -2.43,1.45 -1.4,0.48 -4.09,1.17 -4.93,0.13 -1.13,-1.39 -1.93,-1.85 -2.49,-1.98"/>
    <path class="fil1 str0" d="M544.61 344.1c-2.09,-0.28 -3.52,3.76 -0.97,3.76 1.71,0 2.56,-2.83 0.97,-3.76z"/>
    <path class="fil2 str0" d="M539.17 371.77c-3.01,3.03 -4.06,5.12 -4.58,9.41 -0.79,6.38 -4.98,6.17 -9.35,6.55"/>
    <path class="fil2 str0" d="M542.52 376.16c-3.65,0 -4.7,3.73 -3.66,6.68 1.03,2.93 4.33,8.7 0.04,10.19"/>
    <path class="fil2 str0" d="M545.76 378.2c-1.78,1.41 -0.75,4.06 0.14,5.62 0.87,1.49 2.97,8.67 0.25,9.28"/>
    <path class="fil2 str0" d="M551.64 380.91c3.4,0 2.22,4.41 1.37,5.6 -1.1,1.55 -1.21,3.87 1.22,3.87"/>
    <path class="fil2 str0" d="M556.75 381.39c5.18,2.37 -0.97,6.9 3.61,6.9"/>
    <path class="fil2 str0" d="M561.07 381.36c1.62,1.05 2.5,2.15 2.5,4.14"/>
    <path class="fil5 str1" d="M544.34 365.16c-0.05,0.45 -2.12,3.08 1.27,4.17 0.9,0.29 1.56,0.88 1.56,-1.99 0,-1.39 -2.36,-1.87 -2.83,-2.18z"/>
    <path class="fil5 str1" d="M555.91 376.64c0,-1.26 -0.03,-1.61 0.29,-1.77 0.35,-0.17 1.25,0.05 2.39,0.24 0.19,0.03 1.04,1.57 -0.05,1.57 -0.52,0 -2.12,-0.03 -2.63,-0.04z"/>
    <path class="fil2 str0" d="M560.92 327.93c8.46,0.83 -0.36,8.64 13.7,8.64 1.25,0 6.7,0.18 6.93,1.54"/>
    <path class="fil2 str0" d="M561.62 335.32c4.41,2.84 0.61,7.12 7.48,5.68 2.99,-0.63 2.5,-0.63 5.34,0.45"/>
    <path class="fil2 str0" d="M548.03 336.71c4.25,3.18 10.17,3.74 10.17,10.67"/>
    <path class="fil2 str0" d="M549.77 361.8c-2.11,0.12 -1.75,-1.77 -1.44,-2.31 1.63,-2.89 6.06,-1.52 8.72,-6.43 2.09,-3.87 9.06,-9.75 13.77,-7.24 3.3,1.76 5.14,1.01 7.49,5.29 1.27,2.31 4.39,6.4 7,7.07"/>
   </g>
  </g>
 </g>
</svg>
