<?xml version="1.0" encoding="UTF-8"?>
<!DOCTYPE svg PUBLIC "-//W3C//DTD SVG 1.1//EN" "http://www.w3.org/Graphics/SVG/1.1/DTD/svg11.dtd">
<!-- Creator: CorelDRAW 2020 (64-Bit) -->
<svg xmlns="http://www.w3.org/2000/svg" xml:space="preserve" width="740px" height="567px" version="1.1" style="shape-rendering:geometricPrecision; text-rendering:geometricPrecision; image-rendering:optimizeQuality; fill-rule:evenodd; clip-rule:evenodd"
viewBox="0 0 2698.08 2065.61"
 xmlns:xlink="http://www.w3.org/1999/xlink"
 xmlns:xodm="http://www.corel.com/coreldraw/odm/2003">
 <defs>
  <style type="text/css">
   <![CDATA[
    .str2 {stroke:#FEFEFE;stroke-width:4.55;stroke-miterlimit:22.9256}
    .str1 {stroke:#E31E24;stroke-width:4.55;stroke-miterlimit:22.9256}
    .str0 {stroke:black;stroke-width:4.55;stroke-miterlimit:22.9256}
    .fil2 {fill:none}
    .fil1 {fill:#FEFEFE}
    .fil0 {fill:#E31E24}
    .fil3 {fill:#00A2D9}
    .fil5 {fill:black}
    .fil4 {fill:#EDCA3D}
   ]]>
  </style>
 </defs>
 <g id="Layer_x0020_1">
  <metadata id="CorelCorpID_0Corel-Layer"/>
  <g id="_2698834830512">
   <path class="fil0 str0" d="M1678.55 797.99c7.3,0.4 26.87,14.52 60.1,-11.23 24.9,-19.29 53.21,-48.81 95.86,-39.52 21.72,4.73 58.19,46.17 89.38,52.45 7.79,1.56 16.63,0.76 21.81,-2.99 3.5,-2.52 11.07,-15.22 3.15,4.81 -2.79,7.06 -6.67,13.88 -17.12,13.51 -44.83,-1.62 -81.86,-51.98 -116.14,-51.98 -62.42,0 -43.03,57.48 -98.06,50.74 -7.76,-0.95 -34.22,-7.92 -38.98,-15.79z"/>
   <path class="fil1" d="M2221.39 914.26c50.47,-2.84 88.63,-34.23 268.94,-25.57 11.42,0.54 41.98,47.42 38.58,62.53 -0.1,0.47 -11.1,11.69 -15.89,17.64 14.42,28.14 0.22,123.26 56.73,323.24 36.75,130.06 92.12,264.41 126.93,348.35 -3.86,-0.14 -80.7,-31.72 -161.8,-52.55 -106.78,-27.41 -184.39,-26.6 -192.73,-33.32 -15.32,-12.34 -34.39,-49.41 -100.81,-158.56 -21.36,-35.1 -97.79,-221.56 -103.04,-258.36 -8.74,-61.23 -44.14,-216.22 83.09,-223.4z"/>
   <g>
    <path class="fil2 str0" d="M2252 980.46c-86.96,-39.4 -79.33,78.22 28.34,56.28 31.95,-6.5 -6.34,-194.42 -120.26,-90.14 -118.25,108.24 101.4,517.53 180.38,609.07 62.56,0 312.3,54.32 355.1,84.8 8.14,5.8 -153.59,-287.16 -182.1,-671.06"/>
    <path class="fil2 str0" d="M2210.42 916.4c43.84,-14.52 276.03,-38.69 289.1,-22.18 48.67,61.4 25.06,63.26 0.33,80.46 -29.27,20.37 -151.74,57.47 -222.7,59.67"/>
   </g>
   <path class="fil3 str0" d="M1658.24 930.16c5.18,11.72 43.32,11.2 65.16,22.87 82.91,44.32 58.9,99.85 134.71,123.53 33.65,10.51 26.06,6.05 53.79,11.7 26.88,5.46 78.99,55.69 124.18,71.48 28.16,9.83 27.51,-19.52 67.66,-26.43 2.59,-0.44 2.67,-23.34 25.25,-27.43 0.58,21.9 8.5,21.3 13.91,60.75 2.21,16.15 24.65,27.51 49.91,31.34 14.09,2.12 28.99,-3.95 36.24,1.46 7.68,5.73 15.43,19.08 -3.67,28.79 -16.55,8.4 -37.75,-10.52 -86.73,-4.27 -48.88,6.24 -35.23,-30.32 -75.7,-25.1 -21.33,2.75 -171.73,26.52 -247.69,-34.61 -28.07,-22.58 -108.98,-75.35 -142.14,-82.22 -57.8,-56.74 -11.2,-143.51 -14.88,-151.86z"/>
   <path class="fil4" d="M760.24 508.18c-5.99,-1.78 -12,-3.55 -18.04,-5.28 -105.7,-30.2 -472.23,-99.84 -553.92,-43.55 52.72,-21.2 182.01,-8.59 234.61,4.2 70.66,17.17 136.31,90.32 74.02,163.5 -19.09,22.44 -21.57,13.79 5.78,18.99 89.72,17.06 186.7,128.56 107.21,160.19 -110.79,44.07 -184.22,68.84 -226.62,121.49 73.61,-44.21 149.47,-78.6 231.83,-95.36 61.19,-12.47 155.11,-19.02 155.11,65.47 0,21.36 -4.93,37.66 5.25,34.13 60.52,-20.93 80.27,20 29.12,55.52 -31.38,21.79 -71.65,53.38 -65.74,95.61 11.49,-44.24 107.44,-129.56 149.14,-116.53 70.43,22 73.58,63.52 51.05,128.74 -0.27,0.79 234.41,-145.36 343.62,38.58 51.02,59.42 180.89,-115.87 148.73,-184.18 -14.59,-31.01 -84.42,-104.12 -85.64,-106.5 -3.03,-5.93 -5.31,-15.77 -10.04,-28.25 -67.01,-176.32 -84.01,-269.92 -184.06,-457.17 -53.84,-100.78 -196.8,-248.79 -333.35,-320.26 -44.89,-23.48 -84.84,-42.46 -129.03,-35.31 37.78,3.02 56.8,13.89 80.03,24.35 124.02,55.89 198.12,121.65 198.12,190.8 0,76.58 -77.14,127.05 -140.43,94.11 -55.61,-28.95 -116.79,-48.27 -169.6,-62.59 -67.91,-18.43 -178.95,-46.61 -223.33,-31.78 38.93,0.98 51.02,2.05 88.28,11.76 115.23,30.03 294.62,82.05 304.65,111 32.33,93.43 -40.61,51.8 -110.3,65.99 -43.25,8.82 4.2,-4.42 24.41,36.33 8.21,16.56 14.39,27.33 19.14,66z"/>
   <path class="fil2 str0" d="M1151.65 359.37c-53.84,-100.78 -196.8,-248.8 -333.35,-320.26 -44.89,-23.49 -84.84,-42.47 -129.03,-35.31 37.78,3.01 56.8,13.89 80.03,24.35 124.02,55.89 198.12,121.65 198.12,190.79 0,76.59 -77.14,127.06 -140.43,94.12 -55.61,-28.96 -116.79,-48.27 -169.6,-62.6 -67.91,-18.43 -178.95,-46.61 -223.33,-31.77 38.93,0.98 51.02,2.05 88.28,11.76 115.23,30.02 294.62,82.05 304.65,111 32.33,93.42 -40.61,51.79 -110.3,65.99 -43.25,8.81 4.2,-4.43 24.41,36.32 8.22,16.57 13.21,26.98 17.96,65.66 347.42,112.16 424.17,205.17 588.86,345.71 1.51,0.95 -1.92,-11.52 -12.22,-38.59 -67,-176.33 -84,-269.93 -184.05,-457.17z"/>
   <path class="fil3" d="M817.93 1851.67c-114.49,53.92 -226.71,-26.75 -274.62,-94.73 -44.09,-62.57 -143.65,-224.92 -214.1,-243.03 -52.02,-13.37 -25.36,57.39 -69.98,92.01 -39.55,30.7 -126.41,19.66 -113.34,-4.81 19.54,-36.56 6.07,-28.83 -35.86,-49.64 -13.22,-6.56 20.91,-21.74 34.4,-32.61 51.59,-41.52 20.6,-25.92 -10.49,-48.06 -10.14,-7.23 -51.56,-11.84 -9.36,-47.4 22.52,-18.99 54.43,-42.31 89.63,-48.18 17.28,-2.87 56.39,10.39 81.85,18.9 20.42,6.83 25.51,-85.47 124.58,94.9 13.21,24.05 136.45,184.44 155.54,205.3 53.09,58.03 120.38,144.54 199.53,112.87 109.13,-43.67 127.83,-124.09 155,-291.03 4.56,-28.05 11.84,-187.91 22.74,-210.84 36.52,-76.78 56.18,-79.32 89.04,-124.73 38.2,-52.83 39.35,-83.86 63.46,-107.26 24.13,-23.4 96.64,-44.7 176.71,62.14 52.77,18.26 -6.13,-59.4 20.35,-68.05 140.42,-45.93 11.18,-58.33 30.39,-113.8 25.36,-5.25 12.26,-6.49 50.54,-6.49 20.82,0 36.59,1.93 45.87,-11.21 -0.09,0.65 12.04,-13.15 5.43,-22.43 -6.16,-8.65 6.88,-13.96 -4.23,-26.33 -4.61,-5.15 -17.29,-21.67 -33.72,-24.51 -54.94,-9.51 -35.83,-38.92 -57.98,-61.04 -15.79,-15.77 -35.65,-18.79 -44.1,-36.73 -45.79,-97.17 88.64,-102.52 127.32,-72.48 -84.89,-31.77 29.9,-159.1 154.6,-144.17 57.91,6.93 117.69,-4.81 156.14,36.21 16.93,18.06 15.41,35.12 9.27,47.83 0.33,2.54 45.82,20.06 53.11,23.44 23.43,10.9 33,26.95 30.67,37.28 -2.56,11.35 -23.46,22.32 -32.63,27.72 -9.64,5.66 -13.28,1.9 -5.61,11.02 0.43,0.5 15,2.16 17.69,9.45 3.68,10.01 -14.96,28.93 -20.99,12.56 -4.22,-11.41 -26.57,-0.68 -48.88,6.16 -35.18,10.79 -73.5,25.66 -58.21,39.9 5.4,5.04 17.54,14.93 38.89,17.71 71.57,9.33 57.21,-45 95.36,-49.41 38.59,26.34 -32.16,40.04 -16.42,59.69 5.6,6.99 31.67,3.13 31.67,29.69 -6.12,0 -69.05,-42.89 -41.9,-7.18 25.72,33.83 -57.8,-35.11 -34.85,-1.01 3.69,5.5 -3.34,6.88 -9.94,2.21 -7.44,-5.26 -15.37,-16.8 -25.92,-11.94 -34.11,15.72 -73.54,25.72 -66.78,56.78 3.47,15.93 37.58,45.45 48.88,114.76 3.79,23.27 -4.51,48.86 3.93,75.02 5.17,16.03 39.02,44.98 42.44,67.98 5.27,35.56 44.77,123.82 74.91,140.15 63.2,34.25 115.01,86.13 164.62,116.05 16.59,10 15.85,18.92 38.04,22.08 38.13,5.43 50.36,-27.54 78.21,-53.96 6.66,-6.31 2.45,-42.79 16.58,-49.06 5.34,-2.37 15.65,7.82 27.43,11.46 24.22,7.46 -79.9,76.92 -26.53,94.46 11.75,3.86 47.48,27.41 63.99,8.83 5.17,-5.83 25.85,-17.04 34.48,-12.65 18.7,9.5 -0.99,48.63 -31.01,48.63 -20.08,0 -118.84,-18.1 -62.81,13.79 10.74,6.11 29.87,12.55 50.05,13.26 16.04,0.55 35.54,-18.85 46.33,-18.22 4.73,0.28 12.93,18.62 14.92,20.51 16.08,15.15 -39.39,18.38 -91.11,19.29 -36.54,0.65 -72.01,1.66 -75.74,-1.64 -13.1,-11.63 -12.08,-24.56 -62.55,-39.36 -121.17,-35.54 -147.63,-48.38 -253.16,-132.47 -32.96,-26.27 -19.15,-29.23 -64.47,-27.45 -15.77,0.62 -20.85,-102.11 -63.03,-134.21 -58.29,-44.34 -31.67,-28.42 -42.61,-35.46 -21.75,-14.01 42.1,98.85 -5.39,125.17 -26.24,14.54 -28.59,12.8 -31.05,16.56 -3.37,5.13 -2.83,7.46 -11.47,18.38 -7.52,9.52 1.67,-14.8 -26.62,-31.48 -47.89,-28.23 -19.18,-89.4 -23.97,-93.83 -2.06,-1.91 -7.8,-0.54 -33.04,27.04 -7.59,8.3 -37.91,20.88 -66.67,22.81 24.5,18.29 17.59,93.18 -11.95,142.27 24.67,21.2 42.46,9.05 116.96,63.3 79.58,57.94 66.71,72.73 134.09,137.3 23.45,22.47 66.46,61.48 34.83,119.95 -18.53,34.27 -51.77,23.49 -63.2,43.83 -4.46,7.95 -22.86,28.12 -42.89,34.08 -35.91,10.69 -87.94,32.11 -107.8,45.55 -36.86,24.97 -106.18,68.36 -41.26,104.5 22.61,12.58 109.2,56.39 109.13,83.94 -15.62,7.21 -26.29,1.84 -20.45,35.52 -6.83,8.46 -22.83,7.41 -50.09,9.4 -33.13,2.43 -24.03,-52.24 -70.01,-45.59 -12.4,1.8 -25.74,-0.43 -27.49,-3.96 -4.8,-9.64 24.22,-33.76 -2.56,-45.29 -10.36,-4.47 -45.12,-10.97 -59.6,-25.05 -10.38,-10.11 -7.43,-24.87 8.98,-42.23 28.7,-30.38 -30.51,3.61 -5.98,-20.92 23.37,-23.38 -50.08,-20.95 -0.77,-29.1 54.84,-9.07 -2,-4.62 12.98,-23.91 17.09,-21.99 11.31,35.44 49.19,-38.62 8.23,-16.08 65.08,-56.61 96.79,-58.78 99.06,-6.79 25.56,-112.77 23.36,-84.61 -3.45,44.29 -15.38,-30.38 -44.76,-9.33 -3.67,2.64 -57.7,-5.77 -44.66,-47.19 -13.01,7.8 -17.5,17.57 -55.27,21.97 15.31,58.38 31.82,78.68 -52.03,131.37 -21.75,13.68 -90.77,55.98 -124.91,106.68 -7.41,11 7.99,28.29 16.03,40.23 68.38,101.56 26.48,62.32 14.88,77.04 -3.97,5.04 -0.94,18.18 -3.17,29.17 -3.36,16.56 -90.2,22.53 -70.98,-47.65 4.93,-17.99 -6.72,-44.88 -16.96,-50.02 -5.07,-2.56 -3.31,-0.22 -11.87,12.12 -35.08,50.59 12.14,-64.29 -33.63,-12.46 -32.27,36.53 -14.38,-69.52 21.63,-86.54 29.5,-13.94 26.07,-32.52 61.07,-42.89 16.62,-4.92 51.91,-14.88 74.73,-36.73 42.82,-40.97 1.68,-94.32 -51.49,-124.32 -80.22,-45.26 -83.19,-27.74 -113.56,-118.72 -25.57,64.86 -51.64,289.65 -210.76,364.58z"/>
   <path class="fil2 str0" d="M1124.08 1594.38c41.02,24.35 125.61,83.9 69.66,135.75 -26.6,24.66 -91.4,32.17 -104.57,51.31 -27.42,39.83 -52.34,16.26 -74.7,105.35 -6.68,26.59 -16.97,49.83 -5.98,71.96l3.75 5.21"/>
   <path class="fil2 str0" d="M1165.37 1055.49c-93.53,0 -72.42,71 -129.17,132.29 -147.98,159.83 -63.65,161.22 -121.05,410.81 -41.28,179.48 -108.62,204.03 -165.69,211.08 -95.06,11.74 -188.36,-138.32 -280.31,-251.05 -65.84,-80.72 -122.21,-221.44 -159.07,-174.7 -16.56,20.99 -94.78,-67.88 -192.21,47.11"/>
   <path class="fil2 str0" d="M303.51 1535.41c87.38,-92.6 224.75,341.86 434.02,334.85 169.74,-5.69 260.43,-196.84 291.16,-383.17 12.17,105.31 153.22,159.95 206.4,47.07 4.95,-10.49 7.04,-2.68 1.51,9.62 -23.82,53.01 90.47,84.22 131.18,46.79 24.49,-22.51 -30.53,33.08 49.86,43.36 0.28,0.04 36.29,31.22 -10.92,55.84 -5.51,2.86 -5.63,4.96 -7.52,10.41"/>
   <path class="fil2 str0" d="M1470.91 1670.3c-17.71,29.81 -55.88,74.76 -95.61,41.83"/>
   <path class="fil2 str0" d="M1423.11 1843.61c-137.56,94.95 72.65,103.38 86.18,173.89 -28.48,4.35 -15.52,25.68 -18.49,34.25 -24.96,16.78 -50.04,10.25 -52.05,10.67 -28.16,6 -28.34,-47.82 -71.74,-45.62 -61.84,3.13 6.55,-30.49 -22.96,-44.49 -47.66,-22.62 -97.83,-17.84 -58.39,-74.93"/>
   <path class="fil2 str0" d="M1464.93 1879.46c0,-40.42 -10.76,-59.71 23.91,-71.71"/>
   <path class="fil2 str0" d="M1512.74 1849.58c1.71,-38.13 -20.95,-52.34 39.1,-62.49 13.2,-2.23 49.49,-44.72 50.54,-45.07 14.88,-5.15 62.75,-25.33 62.75,-53.79 0,-59.58 -1.38,-71.5 -35.83,-95.73 -42.26,-29.73 -66.23,-90.41 -139.38,-145.73 -63.03,-47.67 -217.88,-73.75 -186.33,-164.9"/>
   <path class="fil2 str0" d="M1369.43 1385.05c36.72,-67.13 32.92,-96.3 20.86,-143.13"/>
   <path class="fil2 str0" d="M1315.53 1231.08c79.93,32.47 134.05,-9.3 155.97,-29.53 14.94,-13.78 10.59,-10.32 5.54,2.31 -8.52,21.24 -7.19,62.12 14.02,76.05 51.08,33.52 25.6,24.24 31.16,40.29 29.82,6.18 2.13,-20.52 29.62,-26.12 76.02,-15.49 26.17,-99.37 27.76,-139.58"/>
   <path class="fil2 str0" d="M1530.67 1041.34c0,110.32 61.68,96.57 115.81,195.72 17.54,32.13 14.84,101.72 57,92.42 19.87,-4.38 119.95,105.75 235.48,144.24 27.8,9.25 111.72,26.57 118.48,50.44 4.26,15.04 73.12,5.52 141.8,5.72 64.64,0.19 41.83,-71.53 -14.95,-30.15 -16.28,11.87 -76.81,-13.01 -77.78,-17.99 -1.95,-9.96 65.79,8.78 95.59,-7.12 12.45,-6.63 58.09,-50.66 -2.82,-48.74 -8.67,0.27 -12.95,18.7 -28.12,23.51 -15.31,4.86 -39.12,-4.31 -66.34,-21.72 -26.59,-17.02 82.33,-97.3 25.93,-101.6 -34.91,-2.67 -18.01,20.09 -30.53,44.48 -11.02,21.49 -31.6,43.69 -40.68,48.79 -10.28,5.79 -38.14,19.26 -51.56,9.71 -32.62,-23.23 -138.66,-106.59 -179.23,-125.82 -54.84,-26 -64.07,-143.3 -122.81,-205.59 -15.33,-16.24 -2.2,-89.32 -15.69,-127.74 -10.28,-29.31 -70.65,-72.77 -27.34,-105.32 10.03,-7.54 58.46,-32.12 61.98,-21.94 8.28,23.93 66.82,30.25 31.85,61.72l-1.96 4.01"/>
   <path class="fil2 str0" d="M1783.39 860.57c3.97,24.29 17.36,7.65 -4.72,44.81"/>
   <path class="fil2 str0" d="M1811.54 893.43c41,-59.27 -10.66,-48.05 -17.93,-71.71"/>
   <path class="fil2 str0" d="M1282.66 1135.47c-109.2,-183.94 -343.89,-37.79 -343.61,-38.59 22.52,-65.22 19.37,-106.74 -51.06,-128.74 -41.7,-13.02 -137.65,72.29 -149.14,116.53 -5.91,-42.23 34.36,-73.82 65.74,-95.61 51.15,-35.52 31.4,-76.45 -29.12,-55.51 -10.18,3.52 -5.25,-12.77 -5.25,-34.14 0,-84.49 -93.91,-77.93 -155.11,-65.47 -82.36,16.77 -158.22,51.16 -231.83,95.36 42.4,-52.64 115.83,-77.42 226.62,-121.49 79.49,-31.62 -17.49,-143.13 -107.21,-160.18 -27.35,-5.21 -24.87,3.45 -5.78,-18.99 62.29,-73.18 -3.36,-146.33 -74.02,-163.51 -52.6,-12.78 -181.89,-25.39 -234.61,-4.19 81.69,-56.29 448.22,13.34 553.92,43.55 255.1,72.9 472.03,206.57 689.86,433.77"/>
   <path class="fil4 str0" d="M1517.23 640.96c40.66,20.56 -16.87,88.07 -87.39,24.37 -39.09,-35.32 -61.6,-91.98 -65.78,-147.47 -4.57,-60.58 31.63,71.46 74.23,96.68 46.4,27.45 56.98,15.31 78.94,26.42z"/>
   <path class="fil4 str0" d="M1537.5 567.35c-107.83,0 -83.18,-198.51 -68.82,-128.09 15.42,75.63 31.89,55.83 71.98,82.64 14.57,9.75 20.19,37.37 -3.16,45.45z"/>
   <path class="fil2 str0" d="M1579.22 558.04c24.19,-14.6 4.64,-62.67 -27.64,-70.97"/>
   <path class="fil2 str0" d="M1614.33 561.77c47.33,-13.31 13.33,-55.69 -1.49,-59.01"/>
   <path class="fil2 str0" d="M1644.2 566.24c53.5,-4.04 13.48,-39.79 16.44,-57.51"/>
   <path class="fil2 str0" d="M1698.73 561.03c33.11,3.11 115.59,109.74 -49.79,72.96 -51.54,-11.46 -88.9,42.77 -35.34,77.18"/>
   <path class="fil0 str0" d="M1626.07 652.62c-5.49,0.76 -15.9,13.79 6.7,36.39 30.5,30.5 93.62,1.15 47.29,-38.2 -14.14,-12.01 -37.7,-0.48 -53.99,1.81z"/>
   <path class="fil5 str0" d="M1634.55 661.92c-9.94,6.53 -10.07,27.1 15.63,29.09 9.32,0.72 15.55,-20.38 10.74,-26.96 -2.8,-3.84 -13.8,-10.38 -26.37,-2.13z"/>
   <path class="fil2 str0" d="M1742 634.3c7.87,2.07 65.93,25.19 71.54,30.81 16.09,16.07 21.42,34.6 -8.11,50.56 -15.53,8.39 -31.97,6.79 -3.84,19.65 12.66,5.79 -4.17,44.46 -18.06,16.56 -6.38,-12.79 -89.46,24.65 -100.61,31.25 -20.78,12.27 10.05,28.74 25.53,30.64 85.81,10.51 49.67,-13.86 93.02,-44.68 4.64,-3.29 24.12,-4.38 23.51,10.07 -1.19,27.88 -15.86,20.84 -31.37,42.56"/>
   <path class="fil5 str0" d="M1804.07 688.03c8.21,-16.17 -52.32,18.12 -19.43,19.41 7.54,0.31 15.9,-12.46 19.43,-19.41z"/>
   <path class="fil2 str0" d="M1668.11 773.19c-35.66,0 -27.68,56.77 8.96,56.77"/>
   <path class="fil2 str0" d="M1629.26 770.2c-54.35,0 -5.48,68.71 11.96,67.23"/>
   <path class="fil2 str0" d="M1579.96 758.25c-35.85,21.32 -12.91,73.76 23.91,91.64 7.76,3.78 20.56,5.47 28.38,5.47"/>
   <path class="fil2 str0" d="M1539.63 816.51c-31.47,19.01 30.87,63.84 59.75,61.26"/>
   <path class="fil2 str0" d="M1539.63 777.67c-10.98,37.41 -59.48,17.88 -68.1,70.83 -6.49,39.86 -25.35,54.1 -59.02,27.41 -21.61,-17.14 -40.63,-14.64 -51.19,-28.26 -13,-16.77 -5.36,-29.55 -24.88,-49.07 -25.74,-25.74 -62.44,-31.9 -47.42,-77.68 16.42,-50.1 74.34,-54.49 115.04,-33.26 30.81,16.08 43.22,45.06 87.14,24.42"/>
   <path class="fil2 str0" d="M1452.98 750.78c-9.3,17.76 -59.11,23.7 -74.94,6.96 -23.19,-24.55 -8.81,-33.69 -24.8,-43.18 -8.2,-4.87 -57.33,6.47 -31.5,-14.35 23.42,-18.88 63.93,-8.47 73.95,3.27 18.28,21.45 45.12,24.52 50.56,26.77 7.4,3.05 8.87,14.31 6.73,20.53z"/>
   <path class="fil2 str0" d="M1496.3 735.84c-21.28,-17.65 -32.08,52.29 -74.7,52.29 -74.45,0 -65.32,-48.93 -83.67,-55.28 -26.92,-9.32 -25.41,29.75 -13.07,37.86 13.79,9.06 50.33,38.32 50.44,55.51 0.1,16.85 78.3,65.52 76.18,15.69 -1.34,-31.5 44.81,-59.41 62.36,-75.21 21.27,-19.15 -9.98,-24.59 -17.54,-30.86z"/>
   <path class="fil2 str0" d="M1708.45 653.67c25.66,29.85 -7.5,62.74 -40.34,62.74"/>
   <path class="fil2 str0" d="M1726.37 656.66c13.75,8.73 23.87,50.67 -10.45,59.75"/>
   <path class="fil2 str0" d="M1490.32 564.02c-35.2,0 -47.99,13.86 -66.63,40.21"/>
   <path class="fil2 str0" d="M1390.22 644.7c-15,0 -27.94,-6.66 -32.86,-20.91"/>
   <path class="fil2 str0" d="M1388.74 665.62c-13,0 -33.91,-0.71 -35.74,-15.07l-1.61 -1.37"/>
   <path class="fil2 str0" d="M1054.07 1889.26c-21.22,3.48 -43.13,77.75 -19.89,97.58 0.11,0.1 4.77,9.48 4.95,9.99"/>
   <path class="fil2 str0" d="M1086.94 1892.25c-23.48,42.94 -13.03,35.33 -14.94,83.66l2.99 5.98"/>
   <path class="fil2 str0" d="M1318.51 1606.97c1.68,18.02 36.54,84.78 -16.69,113.94 -10.08,5.52 -111.04,75.49 -115.76,82.47 -11.5,16.94 -52.66,39.92 -39.1,57.17 23.05,29.34 48.01,75.26 47.54,101.59 -0.16,9.19 -23.49,-14.23 -21.64,20.52 1.54,28.94 -51.1,27.12 -73.03,8.53 -14.25,-12.08 0.98,-45.9 2.05,-58.59 1.07,-12.69 -24.25,-34.54 -14.94,-40.35"/>
   <path class="fil2 str0" d="M818.55 331.66c89.59,52.28 261.92,170.6 347.01,374.63"/>
   <path class="fil2 str0" d="M927.8 131.65c215.62,162.48 268.75,379.26 361.22,589.25"/>
   <path class="fil2 str0" d="M390.74 458.89c630.33,54.94 946.89,403.56 1020.42,478.79"/>
   <path class="fil2 str0" d="M1290.14 924.23c-248.17,-139.92 -592.53,-140.32 -731.27,-75.3"/>
   <path class="fil2 str0" d="M1323.01 1046.74c-69.99,-99.65 -346.8,-113.32 -446.96,-79.86"/>
   <path class="fil2 str0" d="M1455.22 1815.62c-15.09,38.87 -44.13,73.19 5.97,102.1l2.99 -3.5"/>
   <path class="fil2 str0" d="M1473.15 1648.29c17.92,1.86 43.81,83.7 -32.87,80.68 -31.09,-1.23 -95.64,43.22 -107.57,77.68 -9.43,27.26 -74.81,-11.8 -86.91,47.55 -2.25,11.05 -2.56,41.93 -23.65,36.12 -4.28,-1.18 -2.18,0.91 -5.97,-5.98"/>
   <path class="fil2 str0" d="M1320.76 1851.47c-67.82,-46.84 -12.3,65.74 -101.59,65.74"/>
   <path class="fil0 str0" d="M2202.02 1438.86c-5.42,29.81 53.38,6.88 58.44,-55.23 1.18,-14.62 -3.29,-25.35 -6.54,-12.47 -21.17,84.06 -45.87,34.52 -51.9,67.7z"/>
   <path class="fil0 str0" d="M2221.94 1493.06c-12.24,22.12 15.11,19.94 30.11,6.96 16.23,-14.06 29.38,-29.3 30.52,-60.13 0.51,-13.92 -11.23,31.7 -27.93,41.5 -8.2,4.82 -28.23,3.57 -32.7,11.67z"/>
   <path class="fil0 str0" d="M2116.2 1323.66c4.74,-28.08 32.58,-52.28 63.63,-46.57 0.15,0.02 13.24,5.06 6.59,5.48 -80.72,5.14 -23.52,55.66 -54.53,62.01 -16.65,3.4 -18.34,-5.2 -15.69,-20.92z"/>
   <path class="fil2 str0" d="M1225.9 1162.85c0,39.75 42.28,80.04 101.59,94.12"/>
   <path class="fil2 str0" d="M1164.65 1153.88c0,36.72 53.01,104.64 109.06,111.18"/>
   <path class="fil2 str0" d="M1151.2 1234.56c27.55,29.94 43.57,46.66 103.09,49.3"/>
   <path class="fil2 str0" d="M1210.84 1706.07c7.43,-20.95 22.62,-47.6 63.61,-30.41"/>
   <path class="fil2 str0" d="M1210 1662.18c1.1,-11.68 17.84,-23.31 34.37,-16.43"/>
   <path class="fil2 str0" d="M1447.01 1631.95c11.48,1.88 33.27,52.46 -23.9,65.04"/>
   <path class="fil2 str0" d="M1067.53 1897.89c-12.59,13.89 -11.95,32.74 -11.95,50.79"/>
   <path class="fil2 str0" d="M1142.23 1909.85c16.79,9.17 32.08,46.51 31.38,64.24 -0.13,3.31 -0.41,0 0.71,3.1l-1.53 -0.19"/>
   <path class="fil2 str0" d="M1490.86 2042.75c-5.79,-35.07 -20.06,-31.52 -41.97,-51.26 -0.39,-0.34 -14.03,-5.56 -15.33,-5.45"/>
   <path class="fil1 str0" d="M1703.24 775.94c0,6.34 0,9.21 0.79,15.5 0.28,2.26 0.15,4.02 1.36,6.07 0.47,0.79 -0.04,3.27 4.58,3.27 1.55,0 11.6,-2.48 11.91,-3.61 0.96,-3.49 -0.34,-5.44 -0.34,-10.22 0,-2.85 1.63,-19.99 -0.61,-19.64 -5.49,0.86 -13.63,3.7 -17.59,7.41 -0.3,0.28 -0.1,0.72 -0.1,1.22z"/>
   <path class="fil1 str0" d="M1748.55 810.78c1.15,-6.24 1.68,-9.05 2.06,-15.39 0.13,-2.27 0.58,-3.97 -0.23,-6.22 -0.32,-0.85 0.63,-3.2 -3.91,-4.04 -1.53,-0.29 -11.85,0.31 -12.36,1.36 -1.59,3.27 -0.67,5.41 -1.55,10.11 -0.52,2.81 -5.25,19.36 -2.98,19.43 5.55,0.15 14.07,-1.14 18.65,-4.08 0.34,-0.22 0.23,-0.68 0.32,-1.17z"/>
   <path class="fil1 str0" d="M1753.86 765.89c0,2.46 0.06,13.17 2.23,13.62 1.63,0.33 12.86,-2.74 13.62,-4.88 1.24,-3.56 0.32,-14.42 0.32,-19.09 0,-9.5 0.59,-6.34 -8.18,-3.6 -1.01,0.31 -7.6,2.76 -9.55,3.41 -0.28,0.1 1.56,8.48 1.56,10.54z"/>
   <path class="fil2 str0" d="M1320.07 1800.29c-15.47,0.69 -29.45,-16.75 -66.84,1.87 -2.6,1.3 -15.82,19.13 -16.82,22.03"/>
   <path class="fil2 str0" d="M375.87 1479.06c0,-71.97 -159.7,-110.15 -241,-28.85 -141.49,141.5 -163.1,-29.81 -96.39,-16.22 3.22,0.66 9.15,6.71 8.71,12.21"/>
   <path class="fil2 str0" d="M411.73 1565.72c-4.15,-29.47 -108.32,-130.62 -149.4,-11.95 -8.9,25.7 -80.57,91.3 -113.55,95.35"/>
   <path class="fil2 str0" d="M347.5 1468.59c-51.84,-35.82 -171.7,-41.46 -210.18,17.17 -1.76,2.67 -4.65,5.6 -7.94,6.74"/>
   <path class="fil2 str0" d="M287.74 1483.53c-42.17,-19.1 -131.73,48.33 -156.39,85.9 -11.55,17.57 -56.27,46.86 -78.64,20.65 -1.86,-2.19 -10.34,-5.17 -12.97,-4.95"/>
   <path class="fil2 str0" d="M219.02 1540.31c-8.63,12.55 -60.97,35.76 -75.47,64.97 -0.98,1.96 -22.13,28.21 -29.11,27.66"/>
   <g>
    <path class="fil0 str1" d="M2499.82 1443.14c-5.23,12.74 7.81,24.04 25.32,15.54 20.98,-10.2 -0.46,-33.63 12.03,-15.84 9.26,13.18 12.52,19.73 10.19,38.72 -2.86,23.13 -10.1,27.27 8.35,40.44 5.24,3.74 20.64,-10.53 20.64,-19.49 0,-31.11 -7.58,-31.26 -15.89,-58.6 -6.64,-21.84 -36.55,-43.13 -35.32,-74.11 0,-0.12 -5.82,-29.1 -5.82,-16.3 0,20.68 -11.48,70.15 -19.5,89.64z"/>
    <g>
     <path class="fil2 str1" d="M2209.66 1091.59c-11.13,-16.96 -33.83,17.46 -4.66,17.46 15.84,0 -2.79,-46.56 22.12,-46.56 2.71,0 5.43,0 8.15,0"/>
     <path class="fil2 str1" d="M2227.12 1092.76c-8.95,-22.49 13.27,-7.02 13.96,-6.99 4.19,0.16 14.61,-16.29 30.57,-4.96 6.53,4.64 23.55,-8.76 27.64,-10.17"/>
     <path class="fil2 str1" d="M2340.04 1063.65c-15.8,-7.16 -16.49,3.61 -14.38,6.12 11.21,13.31 33,17.16 33,-11.94 0,-10.07 7.23,-12.81 16.3,-10.47"/>
     <path class="fil2 str1" d="M2372.72 1056.32c-14.14,-0.63 -1.45,5.9 13.31,5.9 12.22,0 8.76,-4.24 11.72,-12.79 8.16,-2.81 -0.45,3.69 12.79,-4.63 10.42,-6.53 7.57,17.74 8.18,10.33 0.18,-2.11 24.92,-42.04 24.92,17.73 0,0.46 0,10.94 0,4.74"/>
     <path class="fil2 str1" d="M2457.61 1032.23c-2.35,-0.25 -7.21,-13.06 4.66,-12.81 16.81,0.34 19.21,-3.7 23.58,6.88 1.64,0 -0.11,-0.81 2.03,-3.39"/>
     <path class="fil2 str1" d="M2218.97 1154.45c-8.9,12.89 -15.43,-12.66 17.77,11.65 9.14,6.69 39.37,52.84 -2.63,47.82 -18.13,-2.16 -1,-34.07 31.42,-32.69 9.14,0.39 16.3,-4.77 16.3,-13.97"/>
     <path class="fil2 str1" d="M2265.53 1164.93c2.41,-2.05 17.62,-26.93 28.34,-10.58 4.88,7.45 -33.07,11.19 -8.25,-5.41 6.27,-4.19 26.13,-3.16 31.9,3.58l1.56 0.77"/>
     <path class="fil2 str1" d="M2341.2 1157.94c0.27,-3.03 9.7,-21.91 18.22,-12.4 7.4,8.25 22.52,2.29 22.52,-15.14 0,11.13 5.45,17.48 17.47,16.01 2.31,-0.29 3.44,-1.83 4.65,-3.6"/>
     <path class="fil2 str1" d="M2415.71 1123.03c6.55,0.58 57.01,60.53 3.49,60.53 -6.09,0 -12.81,-1.81 -12.81,-8.15"/>
     <path class="fil2 str1" d="M2426.18 1162.6c-10.76,-6.38 -4.74,-12.23 -8.15,-22.12"/>
     <path class="fil2 str1" d="M2434.33 1118.37c15.71,-9.34 14.94,20.51 28.34,0.1 4.7,-7.17 -5.24,-8.24 21.71,-7.09 10.15,0.44 9.31,-13.82 16.4,-12.91l1.07 1.27"/>
     <path class="fil2 str1" d="M2249.24 1279.01c-16.23,-8.49 1.11,-36.8 15.23,-28.91 0.09,0.06 2.76,17.63 2.12,27.33 -0.54,8.22 -5.05,6.41 6.17,4.26 14.6,-2.79 35.48,-6.09 12.46,-21.01 -8.74,-5.66 15.04,-2.64 15.04,13.47 -4.8,0.72 -0.44,-41.73 25.05,-20 0.07,0.07 7.73,16.14 19.38,10.69 13.08,-6.12 -16.53,-13.77 1.17,-13.77 0.73,-3.57 23.77,-1.07 27.94,0 -0.18,-2.29 2.52,-5.99 4.65,-5.83"/>
     <path class="fil2 str1" d="M2405.22 1245.24c-8.55,-4.44 -21.45,-11.28 -4.35,-17.85 27.99,-10.76 20.78,29.26 38.52,12.43 4.77,-4.52 2.05,-17.73 -3.9,-23.68 -12.32,-12.33 -5.89,-9.31 10.58,-9.31 2.61,0 7.58,0.56 8.05,3.5"/>
     <path class="fil2 str1" d="M2470.42 1210.33c6.08,6.83 60.91,75.69 20.95,58.6 -22.7,-9.71 -6.98,-9.44 -6.98,-19.03"/>
     <path class="fil2 str1" d="M2492.53 1216.14c10.4,-17.51 24.16,-27.18 8.92,-47.43"/>
     <path class="fil2 str1" d="M2515.82 1210.33c-4.85,0.43 -14.65,13.34 6.98,11.73 4.15,-0.3 5.37,-11.27 1.47,-13.2 -1.06,-0.52 -1.12,-1.01 -1.47,-2.03"/>
     <path class="fil2 str1" d="M2295.8 1372.13c-7.38,-4.32 -15.55,-15.72 -12.61,-24.24 0.89,-0.19 15.1,-19.02 46.47,-2.53 9.54,5.02 12.8,28.59 39.28,21.81 8.35,-2.14 24.76,-33.74 -17.06,-25.1 -1.64,4.75 0.11,7.61 4.45,9.1"/>
     <path class="fil2 str1" d="M2306.28 1354.67c19.74,0 23.63,8.78 22.22,27.94 -0.05,0.61 -11.49,12.5 -13.01,-3.5 -0.43,-4.48 -1.07,-3.57 -1.07,-9.31"/>
     <path class="fil2 str1" d="M2390.09 1348.85c15.22,-25.28 35.16,-4.25 53.55,-9.31 1.83,-0.5 7.63,-13.89 -7.38,-20.09 -21.26,-8.79 -7.66,0.3 -4.26,0.3"/>
     <path class="fil2 str1" d="M2461.1 1325.57c-1.44,-3.72 -11.44,-14.25 3.5,-5.52 7.03,4.1 38.79,44.89 32.69,-7.39 -3.21,-27.55 8.42,33.25 24.04,-4.56 2.72,-6.57 -3.59,-18.38 10.78,3.1 6.73,10.05 23.13,39.84 22.12,51.62"/>
     <path class="fil0 str0" d="M2231.87 1226.03c22.87,-4.76 41.83,-28.33 36.19,-53.6 -0.03,-0.12 -4.57,-10.69 -4.7,-5.24 -1.7,66.33 -44.88,21.02 -49.12,46.64 -2.27,13.75 4.83,14.86 17.63,12.2z"/>
    </g>
    <path class="fil0" d="M2420.68 1670.35c0.31,7.02 -85.3,137.53 0.51,120.03 38.66,-7.88 6.36,-109.74 -0.51,-120.03z"/>
    <path class="fil0" d="M2582.03 1843.66c0,25.74 -28.69,106.95 24.42,96.12 45.49,-9.27 -24.42,-95.89 -24.42,-96.12z"/>
   </g>
   <path class="fil2 str0" d="M1258.36 1497.02c27.64,3.41 47.98,21.79 62.74,26.9"/>
   <path class="fil2 str0" d="M1336.04 1464.16c30.16,0 19.09,7.18 32.87,11.95"/>
   <path class="fil2 str0" d="M1377.88 1532.89c22.39,0 15.84,13.99 35.85,20.91"/>
   <path class="fil2 str0" d="M1437.63 1500.02c19.57,-0.88 14.63,13.68 26.9,17.92"/>
   <path class="fil2 str0" d="M1407.75 1440.26c20.1,2.82 23.16,17.55 32.87,20.91"/>
   <path class="fil2 str0" d="M1482.26 1565.72c0.09,0.09 34.52,29.38 36.05,29.91"/>
   <path class="fil2 str0" d="M1539.23 1562.77c8.96,1.25 33.69,13.5 32.87,23.9"/>
   <path class="fil2 str0" d="M1563.13 1658.38c-0.48,1.06 -11.96,35.93 -14.94,38.85"/>
   <path class="fil2 str0" d="M1613.92 1673.32c0,21.48 -11.57,37.93 -35.85,35.85"/>
   <path class="fil2 str0" d="M1455.56 1759.97c-10.95,-0.49 -55.59,6.26 -57.03,17.93l0.26 5.98"/>
   <path class="fil2 str0" d="M1521.3 1774.91c-9.23,0 -31.05,-2.96 -29.88,11.96"/>
   <path class="fil2 str0" d="M1533.25 1724.11c-21.97,3.09 -23.45,22.6 -35.86,26.9"/>
   <path class="fil2 str0" d="M1395.8 1822.72c-16.73,2.35 -29.87,15.72 -29.87,32.87"/>
   <path class="fil2 str0" d="M1135.85 1795.83c-18.33,1.72 -38.85,27.87 -38.85,44.82"/>
   <path class="fil2 str0" d="M1070.11 1840.65c-17.97,12.41 -14.94,18.07 -14.94,38.84"/>
   <path class="fil2 str0" d="M1123.9 1873.52c0,6.36 -2.33,21.98 5.97,23.9"/>
   <path class="fil2 str0" d="M1177.68 1774.91c12.09,-17.5 32.1,-14.96 47.81,-23.9"/>
   <path class="fil2 str0" d="M1300.19 1413.37c1.65,17.61 18.77,20.91 32.87,20.91"/>
   <path class="fil2 str0" d="M1201.58 1428.31c28.7,0 35.62,5.58 50.8,23.9"/>
   <path class="fil2 str0" d="M1342.02 1398.42c14.47,10 22.58,18.95 41.83,23.91"/>
   <path class="fil2 str0" d="M1267.32 1353.6c-9.25,5.58 -9.12,29.71 0,32.87"/>
   <path class="fil2 str0" d="M1512.33 1053.3c-5.12,11.32 1.4,36.17 13.44,40.34"/>
   <path class="fil2 str0" d="M1482.45 1072.72c0,24.86 29.02,29.88 49.3,29.88"/>
   <path class="fil2 str0" d="M1482.45 1110.07c10.03,1.23 7.93,2.99 19.42,2.99"/>
   <path class="fil2 str0" d="M2001.61 1448.45c1.63,-11.53 19.66,-13.45 29.13,-13.45"/>
   <path class="fil2 str0" d="M1979.2 1435.75c6.9,-4.08 22.83,-7.84 29.88,-3.73"/>
   <path class="fil2 str0" d="M1703.48 1329.48c6,-4.05 18.76,0.33 12.02,-25.97 -1.4,-5.47 -6.64,-15.3 -7.47,-16.43"/>
   <path class="fil2 str0" d="M1773.58 1225.59c5.21,12.08 -9.33,21.26 -22.22,12.19 -10.72,-7.54 -28.83,-40.85 -27.65,-54.54"/>
   <path class="fil2 str0" d="M1850.59 1073.99c5.85,4.69 40.89,28.56 6.84,27.83 -17.18,-0.37 -27.78,-5.3 -36.97,-7.85"/>
   <path class="fil2 str0" d="M1839.05 1179.61c-10.54,-19.82 4.2,-28.09 25.84,-22.51"/>
   <path class="fil2 str0" d="M1029.75 1476.81c0.82,-18.22 -4.66,-41.84 -26.89,-41.84"/>
   <path class="fil2 str0" d="M1014.81 1412.93c17.58,-2.29 23.91,15.4 23.91,26.52"/>
   <path class="fil2 str0" d="M1033.5 1394.91c6.51,0 16.58,7.63 18.28,14.29"/>
   <path class="fil2 str0" d="M1396.7 2030.06c3.86,-0.73 11.78,-21.95 15.12,-26.45 5.3,-7.13 8.39,-11.37 17.93,-14.75 11.19,-3.96 8.2,2.78 7.47,-15.88 -0.15,-3.87 4.49,-11.3 5.23,-13.45"/>
   <path class="fil2 str0" d="M1101.88 1932.6c1.34,0.48 35.56,-18.35 42.64,-19.82 2.2,-9.57 6.73,-28.76 16.1,-33.21"/>
   <path class="fil2 str2" d="M1699.34 573.63c74.5,61.9 12.6,57.76 -14.22,54.67 -15.7,-1.82 -36.52,-10.59 -66.95,-6.57 -54.37,7.19 -64.61,45.59 -21.16,91.85"/>
   <path class="fil2 str2" d="M1795.71 746.56c-16.95,-20.18 -44.01,-14.6 -98.1,18.07 -11.38,6.87 -27.56,13.04 -33.13,24.06 -5.15,10.16 2.53,24.12 24.91,31.09 35.98,11.2 71.77,14.27 98.61,-12.56 1.59,-1.59 17.92,-24.86 20.78,-33.02"/>
   <path class="fil2 str2" d="M1606.71 764.84c-44.24,30.52 -13.41,66.81 20.17,78.43"/>
   <path class="fil2 str2" d="M1554.42 823.1c-1.01,21.34 34.86,41.83 52.29,41.83"/>
   <path class="fil2 str2" d="M1322.85 1217.5c45.45,25.45 135.33,2.87 149.57,-42.78"/>
   <path class="fil2 str2" d="M1492.04 1048.68c-6.72,17.08 7.97,41.18 19.17,41.22"/>
   <path class="fil2 str2" d="M1673.93 1271.28c0,15.9 -0.71,48.51 24.03,43.46 3.49,-0.71 4.36,-6.46 4.36,-9.09"/>
   <path class="fil2 str2" d="M2047.43 1190.61c-27.47,3.85 -30.21,7.46 -62.75,7.46 -21.66,0 -35.82,1.14 -56.64,-3.11 -17.1,-3.49 -37.68,-4.76 -53.91,-11.43 -0.2,-0.09 -31.62,-6 -19.55,-12.86 1.36,-0.77 8.79,-2.47 10.58,-2.47"/>
   <path class="fil2 str2" d="M2098.23 1192.1c0,20.72 15.16,28.65 34.36,25.4 4.49,-0.76 11.99,-9.24 13.44,-13.45"/>
   <path class="fil2 str2" d="M2084.78 1462.52c16.09,-9.54 40.76,3.68 58.26,2.99 14.72,-0.59 36.61,4.75 53.53,1.24 0.41,-1.94 6,-18.48 -4.22,-17.68"/>
   <path class="fil2 str2" d="M2037.93 1501.53c14.93,-21.36 23.73,20.69 60.3,19.25 16.67,-0.65 109.72,3.44 109.06,-13.44 -0.08,-1.86 0,-4.08 0,-5.98"/>
   <path class="fil2 str2" d="M1216.44 1675.46c5.44,-15.73 32.88,-29.2 57.29,-13.94"/>
   <path class="fil2 str2" d="M1202.59 1646.28c1.69,-10.38 17.51,-14.94 26.89,-14.94"/>
   <path class="fil2 str2" d="M1438.65 1998.11c8.92,0.79 37.78,21.19 39.52,31.44 0.93,5.48 11.76,20.83 -5.16,20.11 -2.26,-0.09 -23.8,4.43 -25.4,5.35l0 -0.87"/>
   <path class="fil2 str2" d="M1455.08 1977.2c7.06,0.87 37.38,21.36 41.57,28.44 3.55,5.99 1.09,5.79 -3.47,8.91"/>
   <path class="fil2 str2" d="M1145.07 1924.91c9.62,23.69 13.09,24.83 16.37,51.54 3.14,25.59 -21.25,15.62 -39.53,13.39 -3.77,-0.47 -15.75,-3.28 -17.17,-7.41"/>
   <path class="fil2 str2" d="M1157.03 1899.51c7.59,4.59 16.37,23 17.1,32.12 0.1,1.16 6.44,21.98 6.8,22.41"/>
   <path class="fil2 str2" d="M323.37 1484.17c-26.67,0 -63.91,33.11 -73.6,56.39 -8.33,20.05 -45.13,60.14 -68.33,60.14"/>
   <path class="fil2 str2" d="M341.3 1454.29c0,-26.15 -115.38,-38.17 -146.8,-18.31 -11.95,7.55 -36.63,12.17 -56.38,25.4 -9.74,6.52 -15.66,9.34 -23.91,18.31"/>
   <path class="fil2 str2" d="M438.41 1588.75c57.04,83.13 124.13,189.71 218.77,244.62 125.54,72.83 262.27,-46.53 301.27,-161.47 9.99,-29.45 89.86,-204.95 46.18,-224.33"/>
   <path class="fil2 str2" d="M1004.63 1424.04c14.82,-5.55 27.46,15.76 29.88,22.79"/>
   <path class="fil2 str2" d="M1039 1384.07c5.11,0 12.88,0.07 14.94,5.98"/>
   <path class="fil2 str2" d="M1028.53 1404.99c8.26,0 17.94,6.44 17.94,16.43"/>
   <path class="fil2 str2" d="M1199.99 1159.59c-1.35,28.88 57.54,99.6 121.76,110.18"/>
   <path class="fil2 str2" d="M1158.53 1179.38c-2.11,47.24 71.92,98.76 118.02,97.12"/>
   <path class="fil2 str2" d="M1151.06 1260.06c23.93,24.96 80.09,46.15 109.05,34.74"/>
   <path class="fil2 str2" d="M1378.15 1246.6c26.07,31.97 -4.16,115.73 -18.48,129.42"/>
   <path class="fil2 str2" d="M1039.06 1478.89c0,99.4 146.51,150.07 180.78,51.55"/>
   <path class="fil2 str2" d="M1254.2 1539.4c-28.01,77.34 105.72,58.34 115.04,35.85"/>
   <path class="fil2 str2" d="M1385.67 1591.69c-10.77,23.7 33.34,34.84 48.19,24.29"/>
   <path class="fil2 str2" d="M1537.33 1283.92c89.56,-8.21 15.81,-99.5 33.97,-129.99"/>
   <path class="fil2 str2" d="M1635.19 885.76c-8.22,53.26 41.59,54.42 47.06,117.28 2.71,31 -1.91,60.54 10.56,90.51 17.84,42.9 51.91,64.01 71.83,134.98"/>
   <path class="fil2 str2" d="M1687.48 952.25c39.39,0 85.84,61.2 106.59,90.74 5.69,8.1 52.27,45.93 63.11,44.34"/>
   <path class="fil2 str2" d="M1136.2 1815.76c-7.79,4.96 -11.95,11.93 -11.95,20.92"/>
   <path class="fil2 str2" d="M1380.87 1839.15c8.07,29.63 -11.05,24.8 -20.24,43.76"/>
   <path class="fil2 str2" d="M1398.79 1783.88c26.7,11.83 16.34,-0.99 48.16,-0.99"/>
   <path class="fil2 str2" d="M1587.39 1666.36c-16.49,-0.74 -29.99,27.93 -23.91,38.85"/>
   <path class="fil2 str2" d="M1393.9 1521.54c24.98,-5.85 21.44,3.54 39.13,24.54"/>
   <path class="fil2 str2" d="M1282.62 1475.13c12.62,6.57 41.1,15.45 44.81,29.88"/>
   <path class="fil2 str2" d="M1300.54 1394.45c15.75,28.8 24.33,21.29 41.85,33.11"/>
   <path class="fil2 str2" d="M1473.84 1487.09c19.31,2.71 24.44,22.63 29.89,23.89"/>
   <path class="fil2 str2" d="M1502.53 1567.97c31.09,-11.39 17.82,18.99 40.04,26.69"/>
   <path class="fil2 str2" d="M1488.79 1630.5c5.16,3.57 13.22,12.98 14.94,17.93"/>
   <path class="fil2 str2" d="M1095.13 1800.83c-21.62,14.93 -28.12,24.93 -13.81,33.84"/>
   <path class="fil2 str2" d="M1245.26 1726.12c-8.78,3.98 -54.95,4.14 -45.96,24.59"/>
   <path class="fil2 str2" d="M1194.48 1449.74c12.29,-4.87 17.92,-3.63 28.38,0"/>
   <path class="fil2 str2" d="M1255.73 1348.15c-11.46,-0.52 -11.95,9.79 -11.95,17.93"/>
   <path class="fil2 str2" d="M1395.56 754.45c5.57,9.21 58.61,1.83 35.05,-12.44 -19.14,-11.59 -23.85,-6.89 -42.52,-26.4 -14.21,-14.85 -25.9,-15.13 -45.77,-13.51 -0.42,0.03 -6.48,1.35 -7.27,1.56"/>
   <path class="fil2 str2" d="M1484.45 747.73c7.87,0 25,0.42 22.47,12.76 -1.76,8.68 -26.49,13.67 -35.85,23.03 -24.63,24.66 -23.45,44.14 -33,55.35 -11.14,13.06 -38.39,3.28 -47.25,-14.94 -4.12,-8.49 -13.69,-23.7 -20.47,-30.08 -5.29,-4.98 -35.02,-31.97 -36.05,-34.91 -3.81,-0.81 -0.62,-10.17 0,-11.96"/>
  </g>
 </g>
</svg>
