<?xml version="1.0" encoding="UTF-8"?>
<!DOCTYPE svg PUBLIC "-//W3C//DTD SVG 1.1//EN" "http://www.w3.org/Graphics/SVG/1.1/DTD/svg11.dtd">
<!-- Creator: CorelDRAW 2020 (64-Bit) -->
<svg xmlns="http://www.w3.org/2000/svg" xml:space="preserve" width="542px" height="624px" version="1.1" style="shape-rendering:geometricPrecision; text-rendering:geometricPrecision; image-rendering:optimizeQuality; fill-rule:evenodd; clip-rule:evenodd"
viewBox="0 0 828.09 953.69"
 xmlns:xlink="http://www.w3.org/1999/xlink"
 xmlns:xodm="http://www.corel.com/coreldraw/odm/2003">
 <defs>
  <style type="text/css">
   <![CDATA[
    .fil1 {fill:#96B9FF}
    .fil0 {fill:#B5CEFF}
    .fil2 {fill:white}
   ]]>
  </style>
 </defs>
 <g id="Layer_x0020_1">
  <metadata id="CorelCorpID_0Corel-Layer"/>
  <g id="_2824360862608">
   <g>
    <path class="fil0" d="M377.93 450.84c2.62,-5.96 7.33,-33.52 2.39,-33.81 1.85,-0.38 -8.08,-0.89 -15.41,-5.51 -4.1,-2.58 -1.32,-12.35 2.82,-24.88 0.85,-2.58 2.99,-12.05 -0.29,-12.85 -13.46,-3.25 -15.39,-6 -28.45,-16.25 -7.75,-6.07 7.35,-13.19 -6.46,-17.47 -4.19,-1.31 -5.5,-8.29 -4.83,-11.14 0.22,-0.91 4.7,-6.82 10.49,-4.76 10.11,3.62 0.53,-12.16 24.05,-0.81 10.96,5.3 2.02,-5.15 6.54,-15.56 7.25,-16.71 -23.67,-5.44 -26.98,-26.9 -1.68,-10.87 -5.34,-11.66 10.73,-19.18 7.27,-3.4 24.69,22.15 28.37,8.74 5.14,-18.73 1.23,-15.86 -10.82,-24.83 -5.91,-4.4 -12.5,-5.35 -16.1,-11 -1.48,-2.32 0.56,-15.94 1.35,-19.85 1.31,-6.45 15.01,2.73 24.42,10.36 5.47,4.44 6.35,-4.71 7.39,-11.38 0.34,-2.2 -1.86,-6.99 -4.45,-8.89 -3.04,-2.23 -16.56,-7.58 -20.1,1 -0.57,1.39 -2.36,1.15 -3.48,-0.2 -2.5,-3.02 3.29,-5.08 -1.37,-8.73 -0.76,-0.59 -1.83,1.19 -4.24,2.6 -0.29,0.17 -2.76,0.97 -3.02,-1.27 -0.37,-3.25 4.06,-7.65 2.47,-5.89 -0.69,0.76 -4.17,-5.09 -7.06,0.77 -2.42,4.9 -11.08,-3.06 -10.02,-7.13 2.39,-9.25 -0.8,-12.26 0.22,-13.99 2.37,-4.03 2.91,-2.63 14.77,-4.63 11.47,-1.93 22.69,10.34 22.75,10.38 7.66,6.42 17.36,11.48 17.36,9.66 0,-10.63 5.19,-11.76 -5.61,-14.31 -6.93,-1.64 -4.12,-13.87 6.1,-7.96 3.64,-2.11 -3.03,-13.25 -14.19,-13.25 -6.07,0 -9.79,3.3 -10.03,-6.33 -0.06,-2.27 7.55,-1.08 -1.75,-6.72 -4.85,-2.94 -16.01,8.72 -16.9,-4.3 -0.37,-4.53 13.63,-12.09 0.98,-9.96 -16.76,2.83 -6.41,-1.54 -24.43,-10.15 -2.92,-1.4 -1.46,-15.12 0.97,-19.96 1.03,-2.06 6.63,-2.74 20.49,-2.94 2.61,-0.04 11,6.7 13.93,9.16 4.21,3.54 6.26,3.15 4.35,14.99 -1.01,6.27 3.65,5.54 7.76,-1.69 1.31,-2.31 7.5,3.37 6.67,4.91 -5.01,9.37 1.93,8.49 12.02,15.07 5.2,3.39 6.6,-8.1 -1.14,-10.2 -3.7,-1 -3.79,-3.88 -3.25,-7.03 0.71,-4.2 3.36,-4.48 7.61,-2.8 5.06,2 8.18,-5.78 -6.83,-11.83 -10.19,-4.1 -18.33,-8.17 -21.38,-12.96 -2.57,-4.03 3.26,-18.25 9.92,-14 10.23,6.54 24.63,21.8 24.36,9.75 -0.05,-2.46 -9.64,-4 -9.4,-5.83 0.36,-2.77 1.43,-5.74 2.59,-5.39 11.8,3.62 12.13,-0.56 4.96,-5.22 -0.48,-0.31 -23.45,-11.63 -23.7,-15.45 -0.21,-3.07 -0.15,-6.66 5.09,-11.32 2.9,-2.57 21.98,14.44 24.78,12.92 0.93,-0.5 -6.15,-5.12 -9.99,-11.09 -0.06,-0.09 1.41,-3.91 2.72,-3.91 1.99,0 11.87,2.83 6.99,-0.28 -2.18,-1.39 -2.42,-29.43 0.31,-32.23 2.97,-3.05 4.69,-5.1 6.34,-6.54 0.11,-0.51 1.08,-1.06 1.56,0.09 2.02,1.93 3.63,3.88 6.41,6.93 2.63,2.89 2.43,30.36 0.24,31.75 -4.88,3.11 5.01,0.28 6.99,0.28 1.32,0 2.78,3.82 2.73,3.91 -3.84,5.97 -10.92,10.59 -9.99,11.09 2.8,1.52 21.87,-15.49 24.77,-12.92 5.25,4.66 5.31,8.25 5.1,11.32 -0.25,3.82 -23.22,15.14 -23.7,15.45 -7.17,4.66 -6.85,8.84 4.96,5.22 1.15,-0.35 2.23,2.62 2.59,5.39 0.24,1.83 -9.35,3.37 -9.41,5.83 -0.26,12.05 14.14,-3.21 24.37,-9.75 6.65,-4.25 12.49,9.97 9.92,14 -3.06,4.79 -11.19,8.86 -21.38,12.96 -15.01,6.05 -11.89,13.83 -6.83,11.83 4.25,-1.68 6.9,-1.4 7.61,2.8 0.53,3.15 0.45,6.03 -3.26,7.03 -7.74,2.1 -6.33,13.59 -1.14,10.2 10.1,-6.58 17.03,-5.7 12.03,-15.07 -0.83,-1.54 5.35,-7.22 6.66,-4.91 4.12,7.23 8.77,7.96 7.77,1.69 -1.91,-11.84 0.13,-11.45 4.35,-14.99 2.92,-2.46 11.32,-9.2 13.93,-9.16 13.86,0.2 19.45,0.88 20.49,2.94 2.42,4.84 3.88,18.56 0.97,19.96 -18.03,8.61 -7.67,12.98 -24.43,10.15 -12.65,-2.13 1.34,5.43 0.98,9.96 -0.89,13.02 -12.06,1.36 -16.91,4.3 -9.29,5.64 -1.68,4.45 -1.74,6.72 -0.24,9.63 -3.96,6.33 -10.04,6.33 -11.15,0 -17.83,11.14 -14.18,13.25 10.22,-5.91 13.03,6.32 6.1,7.96 -10.8,2.55 -5.61,3.68 -5.61,14.31 0,1.82 1.9,7.25 9.56,0.83 8.35,-6.99 33.68,-33.87 46.54,-19.65 1.35,1.49 0.95,9.88 0.95,16.42 0,6.25 -18.1,15.22 -19.71,16.82 -1.87,1.86 -5.47,5.87 -10.35,2.83 -8,-4.98 -10.91,0.99 -14.81,3.84 -2.59,1.9 -6.99,10.83 -6.65,13.04 1.04,6.66 0.21,8.01 5.69,3.57 9.41,-7.63 23.1,-16.81 24.42,-10.36 0.79,3.91 2.83,17.53 1.35,19.85 -3.6,5.65 -10.19,6.6 -16.1,11 -12.06,8.97 -15.96,6.1 -10.82,24.83 3.68,13.41 21.1,-12.14 28.36,-8.74 16.08,7.52 12.41,8.31 10.74,19.18 -3.31,21.46 -34.23,10.19 -26.98,26.9 4.51,10.41 -4.42,20.86 6.54,15.56 23.51,-11.35 13.94,4.43 24.05,0.81 5.78,-2.06 10.27,3.85 10.48,4.76 0.67,2.85 -0.63,9.84 -4.83,11.14 -13.8,4.28 -4.8,9.94 -12.55,16.01 -4.79,3.76 -6.01,-0.94 -11.15,3.24 -0.69,0.56 -0.57,3.55 -1.15,4.68 -0.85,1.64 -4.96,3.19 -7.4,-2.12 -0.41,-0.88 -3.03,0.42 -3.34,2.8 -0.41,3.16 1.39,7.86 -0.29,8.26 -3.27,0.79 -0.17,11.12 0.69,13.7 4.14,12.53 6.91,22.3 2.81,24.88 -7.32,4.62 -8.35,4.89 -12.85,7.71 -3.35,4.3 -4.49,28.8 -2.6,35.02 5.21,17.13 0.24,13.55 -5.77,18.71 -5.52,4.73 -14.96,16.66 -15.19,0.35 -1.7,-115.24 -1.35,-242.14 -4.76,-343.33 -0.74,-22.07 -3.9,-43.87 -3.9,-64.41 0,-1.45 -0.83,-2.71 -2.11,-3.89 -1.27,1.18 -2.1,2.44 -2.1,3.89 0,20.54 -3.91,42.33 -3.91,64.41 0,104.36 -1.71,237 -1.34,351.01 0.04,10.15 -37.78,-5.2 -26.81,-30.15z"/>
    <path class="fil0" d="M450.16 502.85c-2.62,5.96 -7.34,33.53 -2.4,33.81 -1.84,0.38 8.09,0.9 15.41,5.51 4.1,2.58 1.33,12.35 -2.81,24.88 -0.86,2.59 -2.99,12.06 0.29,12.85 13.46,3.25 15.38,6.01 28.45,16.25 7.75,6.08 -7.35,13.2 6.46,17.48 4.19,1.3 5.5,8.28 4.83,11.13 -0.22,0.92 -4.7,6.83 -10.49,4.76 -10.11,-3.61 -0.54,12.17 -24.05,0.81 -10.96,-5.29 -2.03,5.16 -6.54,15.56 -7.25,16.71 23.67,5.44 26.98,26.9 1.68,10.87 5.34,11.66 -10.73,19.18 -7.27,3.4 -24.69,-22.14 -28.37,-8.73 -5.14,18.73 -1.24,15.85 10.82,24.83 5.91,4.39 12.5,5.34 16.1,11 1.48,2.32 -0.56,15.94 -1.35,19.84 -1.32,6.46 -15.01,-2.73 -24.42,-10.36 -5.47,-4.44 -6.36,4.71 -7.39,11.38 -0.35,2.2 1.86,6.99 4.45,8.89 3.04,2.23 16.56,7.58 20.1,-1 0.57,-1.38 2.36,-1.15 3.48,0.21 2.5,3.01 -3.3,5.08 1.37,8.72 0.76,0.59 1.82,-1.18 4.23,-2.6 0.3,-0.17 2.77,-0.97 3.03,1.27 0.37,3.25 -4.06,7.66 -2.47,5.89 0.68,-0.75 4.17,5.1 7.06,-0.77 2.41,-4.9 11.08,3.06 10.02,7.14 -2.4,9.24 0.8,12.25 -0.22,13.98 -2.38,4.04 -2.92,2.63 -14.77,4.63 -11.47,1.94 -22.69,-10.34 -22.75,-10.38 -7.66,-6.42 -17.36,-11.47 -17.36,-9.65 0,10.62 -5.19,11.76 5.61,14.3 6.93,1.64 4.12,13.87 -6.1,7.96 -3.65,2.11 3.03,13.25 14.18,13.25 6.08,0 9.8,-3.3 10.04,6.34 0.06,2.27 -7.55,1.08 1.74,6.71 4.85,2.94 16.02,-8.72 16.91,4.3 0.37,4.53 -13.63,12.09 -0.98,9.96 16.76,-2.83 6.4,1.54 24.43,10.16 2.91,1.39 1.45,15.11 -0.97,19.95 -1.03,2.06 -6.63,2.74 -20.49,2.95 -2.61,0.03 -11.01,-6.71 -13.93,-9.17 -4.22,-3.54 -6.26,-3.14 -4.35,-14.99 1,-6.27 -3.65,-5.53 -7.76,1.7 -1.32,2.31 -7.5,-3.37 -6.67,-4.92 5.01,-9.37 -1.93,-8.48 -12.02,-15.07 -5.2,-3.39 -6.6,8.11 1.14,10.2 3.7,1 3.78,3.89 3.25,7.03 -0.71,4.21 -3.36,4.48 -7.61,2.8 -5.06,-1.99 -8.18,5.79 6.83,11.83 10.19,4.1 18.33,8.17 21.38,12.96 2.57,4.04 -3.26,18.26 -9.92,14 -10.23,-6.53 -24.63,-21.79 -24.37,-9.75 0.06,2.46 9.65,4 9.41,5.83 -0.36,2.78 -1.43,5.74 -2.59,5.39 -11.81,-3.62 -12.13,0.56 -4.96,5.22 0.48,0.31 23.45,11.64 23.7,15.45 0.21,3.08 0.15,6.67 -5.1,11.32 -2.9,2.58 -21.97,-14.43 -24.77,-12.92 -0.93,0.5 6.15,5.12 9.99,11.1 0.06,0.09 -1.41,3.9 -2.73,3.9 -1.98,0 -11.86,-2.82 -6.99,0.28 2.19,1.39 2.42,29.43 -0.3,32.23 -2.97,3.06 -4.69,5.1 -6.34,6.54 -0.11,0.51 -1.08,1.06 -1.57,-0.09 -2.01,-1.92 -3.62,-3.88 -6.4,-6.93 -2.64,-2.88 -2.43,-30.36 -0.24,-31.75 4.87,-3.1 -5.01,-0.28 -6.99,-0.28 -1.32,0 -2.79,-3.81 -2.73,-3.9 3.84,-5.98 10.92,-10.6 9.99,-11.1 -2.8,-1.51 -21.87,15.5 -24.77,12.92 -5.25,-4.65 -5.31,-8.24 -5.1,-11.32 0.25,-3.81 23.22,-15.14 23.7,-15.45 7.17,-4.66 6.85,-8.84 -4.96,-5.22 -1.16,0.35 -2.23,-2.61 -2.59,-5.39 -0.24,-1.83 9.35,-3.37 9.4,-5.83 0.27,-12.04 -14.13,3.22 -24.36,9.75 -6.66,4.26 -12.49,-9.96 -9.92,-14 3.06,-4.79 11.19,-8.86 21.38,-12.96 15.01,-6.04 11.89,-13.82 6.83,-11.83 -4.25,1.68 -6.9,1.41 -7.61,-2.8 -0.53,-3.14 -0.45,-6.03 3.26,-7.03 7.73,-2.09 6.33,-13.59 1.13,-10.2 -10.09,6.59 -17.03,5.7 -12.02,15.07 0.83,1.55 -5.35,7.23 -6.67,4.92 -4.11,-7.23 -8.77,-7.97 -7.76,-1.7 1.91,11.85 -0.13,11.45 -4.35,14.99 -2.92,2.46 -11.32,9.2 -13.93,9.17 -13.86,-0.21 -19.46,-0.89 -20.49,-2.95 -2.42,-4.84 -3.89,-18.56 -0.97,-19.95 18.03,-8.62 7.67,-12.99 24.43,-10.16 12.65,2.13 -1.35,-5.43 -0.98,-9.96 0.89,-13.02 12.06,-1.36 16.91,-4.3 9.29,-5.63 1.68,-4.44 1.74,-6.71 0.24,-9.64 3.96,-6.34 10.04,-6.34 11.15,0 17.82,-11.14 14.18,-13.25 -10.22,5.91 -13.03,-6.32 -6.1,-7.96 10.8,-2.54 5.61,-3.68 5.61,-14.3 0,-1.82 -1.9,-7.25 -9.56,-0.84 -8.35,7 -33.68,33.87 -46.54,19.66 -1.35,-1.5 -0.95,-9.88 -0.95,-16.43 0,-6.25 18.1,-15.21 19.71,-16.81 1.87,-1.87 5.47,-5.88 10.35,-2.84 8,4.98 10.91,-0.98 14.81,-3.83 2.59,-1.9 6.99,-10.84 6.65,-13.04 -1.04,-6.67 -0.21,-8.02 -5.69,-3.58 -9.41,7.64 -23.1,16.82 -24.42,10.36 -0.79,-3.9 -2.83,-17.52 -1.35,-19.84 3.6,-5.66 10.19,-6.61 16.1,-11 12.05,-8.98 15.96,-6.1 10.82,-24.83 -3.68,-13.41 -21.1,12.13 -28.37,8.73 -16.07,-7.52 -12.41,-8.31 -10.73,-19.18 3.31,-21.46 34.23,-10.19 26.98,-26.9 -4.51,-10.4 4.42,-20.85 -6.54,-15.56 -23.51,11.36 -13.94,-4.42 -24.05,-0.81 -5.79,2.07 -10.27,-3.84 -10.49,-4.76 -0.67,-2.85 0.64,-9.83 4.83,-11.13 13.81,-4.28 4.81,-9.94 12.56,-16.02 4.79,-3.75 6,0.95 11.15,-3.24 0.69,-0.56 0.57,-3.55 1.15,-4.67 0.84,-1.65 4.96,-3.19 7.4,2.11 0.41,0.88 3.03,-0.42 3.34,-2.8 0.41,-3.16 -1.39,-7.85 0.28,-8.26 3.28,-0.79 0.17,-11.11 -0.68,-13.7 -4.14,-12.53 -6.91,-22.3 -2.81,-24.88 7.32,-4.61 8.35,-4.88 12.85,-7.7 3.35,-4.31 4.49,-28.8 2.59,-35.03 -5.21,-17.13 -0.23,-13.55 5.78,-18.71 5.51,-4.73 14.95,-16.66 15.19,-0.35 1.7,115.25 1.34,242.15 4.76,343.34 0.74,22.06 3.9,43.86 3.9,64.4 0,1.45 0.83,2.72 2.11,3.89 1.27,-1.17 2.1,-2.44 2.1,-3.89 0,-20.54 3.9,-42.33 3.9,-64.4 0,-104.36 1.72,-237 1.34,-351.02 -0.03,-10.15 37.79,5.2 26.82,30.15z"/>
   </g>
   <g>
    <path class="fil0" d="M373.46 495.12c-3.85,-5.25 -25.36,-23.12 -28.08,-18.98 0.6,-1.79 -4.82,6.56 -12.47,10.59 -4.29,2.26 -11.36,-5.02 -20.14,-14.88 -1.82,-2.03 -8.95,-8.61 -11.28,-6.17 -9.54,10.03 -12.89,10.32 -28.29,16.51 -9.14,3.67 -7.76,-12.96 -18.37,-3.14 -3.22,2.98 -9.92,0.62 -12.06,-1.39 -0.68,-0.64 -3.56,-7.48 1.13,-11.45 8.18,-6.95 -10.27,-6.56 11.32,-21.24 10.07,-6.85 -3.45,-4.33 -10.21,-13.45 -10.84,-14.63 -16.54,17.78 -36.78,9.92 -10.25,-3.98 -12.77,-1.21 -11.24,-18.88 0.69,-8 31.51,-10.31 21.74,-20.2 -13.65,-13.82 -13.11,-9 -26.91,-3.05 -6.76,2.92 -10.88,8.16 -17.58,8.45 -2.75,0.11 -13.52,-8.46 -16.5,-11.1 -4.94,-4.37 9.86,-11.63 21.18,-15.97 6.58,-2.52 -0.91,-7.85 -6.16,-12.09 -1.74,-1.39 -6.99,-1.88 -9.93,-0.58 -3.45,1.52 -14.85,10.55 -9.19,17.9 0.92,1.19 -0.18,2.62 -1.91,2.92 -3.86,0.65 -2.75,-5.4 -8.24,-3.18 -0.89,0.35 0.11,2.17 0.13,4.96 0,0.35 -0.54,2.88 -2.61,1.98 -3,-1.29 -4.6,-7.33 -3.87,-5.07 0.32,0.97 -6.5,1.06 -2.86,6.49 3.04,4.54 -8.19,8.07 -11.19,5.11 -6.81,-6.69 -11.01,-5.43 -12,-7.18 -2.31,-4.07 -0.82,-3.84 3.38,-15.11 4.06,-10.9 20.29,-14.48 20.36,-14.5 9.39,-3.43 18.62,-9.31 17.04,-10.22 -9.2,-5.31 -7.59,-10.37 -15.19,-2.29 -4.89,5.18 -14.07,-3.36 -3.85,-9.26 0,-4.21 -12.99,-4 -18.56,5.66 -3.04,5.26 -2.04,10.13 -10.51,5.52 -1.99,-1.08 2.84,-7.08 -6.68,-1.85 -4.98,2.74 -0.46,18.24 -12.18,12.5 -4.11,-1.95 -3.66,-17.85 -8.14,-5.83 -5.93,15.92 -4.53,4.77 -21.01,16.07 -2.66,1.83 -13.81,-6.29 -16.79,-10.82 -1.27,-1.92 0.94,-7.1 7.69,-19.21 1.27,-2.28 11.31,-6.18 14.9,-7.48 5.18,-1.88 5.86,-3.85 15.16,3.73 4.93,4 6.62,-0.4 2.41,-7.57 -1.34,-2.3 6.67,-4.81 7.59,-3.32 5.61,9.02 8.32,2.57 19.07,-2.87 5.53,-2.81 -3.72,-9.77 -9.4,-4.12 -2.73,2.71 -5.27,1.34 -7.73,-0.7 -3.28,-2.71 -2.19,-5.15 1.39,-7.99 4.26,-3.38 -0.92,-9.97 -13.66,0 -8.65,6.78 -16.24,11.79 -21.92,12.04 -4.78,0.21 -14.17,-11.96 -7.16,-15.6 10.77,-5.59 31.19,-10.43 20.62,-16.22 -2.15,-1.18 -8.28,6.35 -9.75,5.23 -2.22,-1.7 -4.25,-4.11 -3.37,-4.94 9.04,-8.41 5.58,-10.78 -2.04,-6.9 -0.51,0.26 -21.8,14.49 -25.23,12.8 -2.77,-1.36 -5.85,-3.21 -7.26,-10.08 -0.78,-3.79 23.49,-11.81 23.58,-14.99 0.03,-1.06 -7.51,2.77 -14.6,3.1 -0.11,0 -2.68,-3.17 -2.02,-4.31 0.99,-1.72 8.38,-8.87 3.25,-6.19 -2.3,1.2 -26.7,-12.62 -27.76,-16.38 -1.16,-4.1 -2.07,-6.62 -2.49,-8.77 -0.39,-0.34 -0.38,-1.46 0.86,-1.3 2.67,-0.79 5.17,-1.2 9.21,-2.09 3.81,-0.83 27.5,13.08 27.61,15.67 0.25,5.78 2.75,-4.19 3.74,-5.91 0.66,-1.14 4.69,-0.51 4.74,-0.41 3.26,6.31 3.72,14.75 4.61,14.2 2.72,-1.67 -2.48,-26.69 1.2,-27.92 6.66,-2.21 9.8,-0.47 12.36,1.25 3.18,2.13 1.5,27.68 1.53,28.25 0.44,8.54 4.23,10.35 7,-1.69 0.27,-1.17 3.38,-0.62 5.96,0.45 1.7,0.71 -1.76,9.79 0.34,11.06 10.31,6.26 4.29,-13.84 3.74,-25.97 -0.35,-7.89 14.88,-5.84 17.09,-1.59 2.62,5.04 2.07,14.12 0.53,24.99 -2.27,16.02 6.03,17.21 6.83,11.83 0.67,-4.52 2.23,-6.68 6.23,-5.19 2.99,1.11 5.45,2.63 4.47,6.34 -2.06,7.75 8.6,12.28 8.26,6.08 -0.66,-12.03 3.58,-17.6 -7.05,-17.94 -1.74,-0.06 -3.57,-8.25 -0.92,-8.23 8.32,0.05 11.29,-3.62 5.36,-5.88 -11.22,-4.27 -9.85,-5.84 -10.82,-11.26 -0.66,-3.77 -2.3,-14.41 -0.96,-16.65 7.1,-11.9 10.49,-16.41 12.79,-16.27 5.4,0.32 18.02,5.92 17.77,9.14 -1.55,19.91 7.41,13.13 -3.42,26.23 -8.17,9.89 5.37,1.55 9.11,4.13 10.84,7.28 -4.85,11.12 -4.73,16.79 0.24,10.87 3.01,3.68 4.95,4.87 8.22,5.03 3.5,6.6 0.46,11.86 -5.57,9.66 0.74,21.01 4.39,18.91 -0.01,-11.81 11.99,-8.13 9.94,-1.3 -3.19,10.62 0.38,6.7 9.58,12.01 1.58,0.91 7.23,1.97 5.51,-7.87 -1.88,-10.72 -12.49,-46.1 6.25,-50.13 1.96,-0.42 9.03,4.12 14.69,7.39 5.42,3.12 4.13,23.28 4.71,25.48 0.68,2.55 2.36,7.67 -2.72,10.38 -8.31,4.44 -4.6,9.94 -4.08,14.74 0.35,3.2 5.89,11.47 7.97,12.28 6.29,2.43 7.05,3.82 5.94,-3.14 -1.91,-11.97 -3.01,-28.42 3.24,-26.32 3.78,1.26 16.59,6.31 17.86,8.74 3.1,5.95 0.62,12.14 1.47,19.45 1.75,14.92 -2.69,16.87 16.1,21.78 13.45,3.52 0.04,-24.33 6.62,-28.93 14.55,-10.16 13.4,-6.59 21.97,0.3 16.93,13.59 -8.28,34.73 9.81,36.81 11.27,1.29 15.85,14.26 16.75,2.12 1.92,-26.04 10.8,-9.86 12.72,-20.43 1.11,-6.04 8.47,-6.97 9.37,-6.7 2.8,0.85 8.2,5.47 7.22,9.75 -3.19,14.1 6.21,9.14 7.59,18.88 0.86,6.03 -3.81,4.73 -2.76,11.28 0.14,0.88 2.78,2.27 3.47,3.33 1.01,1.56 0.28,5.9 -5.53,5.36 -0.96,-0.09 -1.15,2.83 0.75,4.29 2.53,1.93 7.5,2.72 7.01,4.37 -0.95,3.24 9.55,5.71 12.21,6.26 12.93,2.68 22.77,5.16 22.96,10.01 0.33,8.64 0.05,9.67 0.24,14.98 2.06,5.05 22.7,18.29 29.04,19.76 17.44,4.05 11.85,6.57 13.31,14.35 1.34,7.15 6.95,21.29 -7.29,13.34 -100.66,-56.15 -210.38,-119.91 -299.71,-167.55 -19.48,-10.39 -39.94,-18.56 -57.73,-28.83 -1.26,-0.72 -2.77,-0.64 -4.42,-0.12 0.37,1.7 1.05,3.05 2.31,3.77 17.79,10.27 34.71,24.54 53.83,35.58 90.38,52.19 204.38,119.99 303.31,176.67 8.81,5.05 -23.39,30.13 -39.52,8.15z"/>
    <path class="fil0" d="M454.63 458.57c3.85,5.25 25.36,23.12 28.07,18.98 -0.59,1.79 4.83,-6.55 12.48,-10.59 4.29,-2.26 11.36,5.03 20.14,14.88 1.81,2.03 8.95,8.61 11.28,6.17 9.54,-10.03 12.89,-10.32 28.29,-16.51 9.14,-3.67 7.76,12.96 18.37,3.15 3.22,-2.99 9.92,-0.62 12.05,1.38 0.69,0.64 3.57,7.48 -1.12,11.46 -8.18,6.95 10.27,6.55 -11.32,21.23 -10.07,6.85 3.45,4.34 10.21,13.45 10.84,14.63 16.54,-17.78 36.78,-9.92 10.25,3.98 12.77,1.21 11.24,18.89 -0.69,7.99 -31.52,10.3 -21.74,20.19 13.65,13.82 13.11,9 26.91,3.05 6.76,-2.92 10.88,-8.15 17.58,-8.44 2.75,-0.12 13.52,8.45 16.5,11.09 4.94,4.37 -9.86,11.64 -21.18,15.97 -6.58,2.52 0.91,7.86 6.16,12.09 1.74,1.4 6.99,1.89 9.93,0.59 3.45,-1.52 14.85,-10.55 9.19,-17.91 -0.92,-1.19 0.17,-2.62 1.91,-2.91 3.86,-0.65 2.75,5.39 8.24,3.18 0.89,-0.36 -0.11,-2.18 -0.13,-4.97 0,-0.34 0.54,-2.88 2.61,-1.98 3,1.3 4.6,7.34 3.87,5.08 -0.32,-0.97 6.49,-1.07 2.86,-6.5 -3.04,-4.54 8.19,-8.06 11.19,-5.11 6.81,6.7 11.01,5.43 12,7.18 2.31,4.08 0.82,3.84 -3.38,15.11 -4.06,10.9 -20.29,14.48 -20.36,14.51 -9.39,3.42 -18.62,9.3 -17.04,10.21 9.2,5.31 7.59,10.37 15.19,2.3 4.89,-5.19 14.07,3.36 3.85,9.25 0,4.21 12.99,4 18.56,-5.65 3.04,-5.26 2.04,-10.14 10.51,-5.53 1.99,1.08 -2.84,7.08 6.68,1.85 4.97,-2.73 0.46,-18.24 12.18,-12.49 4.11,1.94 3.66,17.85 8.14,5.82 5.93,-15.92 4.53,-4.77 21.01,-16.07 2.66,-1.83 13.81,6.3 16.79,10.82 1.27,1.92 -0.94,7.11 -7.69,19.21 -1.27,2.28 -11.31,6.18 -14.9,7.49 -5.18,1.87 -5.86,3.84 -15.16,-3.73 -4.93,-4.01 -6.62,0.39 -2.41,7.57 1.34,2.29 -6.67,4.8 -7.59,3.32 -5.61,-9.03 -8.31,-2.58 -19.07,2.87 -5.53,2.8 3.72,9.77 9.4,4.11 2.72,-2.71 5.27,-1.33 7.73,0.7 3.28,2.72 2.19,5.15 -1.39,7.99 -4.26,3.39 0.92,9.98 13.66,0 8.65,-6.77 16.24,-11.78 21.92,-12.03 4.78,-0.21 14.17,11.95 7.16,15.59 -10.77,5.59 -31.19,10.43 -20.62,16.22 2.15,1.18 8.28,-6.35 9.75,-5.23 2.22,1.7 4.25,4.11 3.37,4.94 -9.04,8.41 -5.58,10.78 2.03,6.91 0.52,-0.27 21.81,-14.5 25.24,-12.81 2.77,1.36 5.85,3.21 7.25,10.08 0.78,3.8 -23.48,11.81 -23.57,14.99 -0.03,1.06 7.51,-2.76 14.6,-3.1 0.11,0 2.67,3.17 2.02,4.31 -0.99,1.72 -8.38,8.87 -3.25,6.19 2.3,-1.19 26.7,12.63 27.76,16.38 1.16,4.1 2.07,6.62 2.49,8.77 0.39,0.35 0.38,1.46 -0.86,1.31 -2.68,0.78 -5.17,1.19 -9.21,2.08 -3.81,0.84 -27.5,-13.08 -27.61,-15.67 -0.25,-5.77 -2.75,4.2 -3.74,5.92 -0.66,1.13 -4.69,0.5 -4.74,0.4 -3.26,-6.31 -3.72,-14.75 -4.62,-14.2 -2.71,1.67 2.49,26.7 -1.19,27.92 -6.66,2.22 -9.8,0.47 -12.36,-1.25 -3.18,-2.12 -1.5,-27.67 -1.53,-28.25 -0.45,-8.53 -4.23,-10.35 -7,1.69 -0.27,1.18 -3.38,0.62 -5.96,-0.45 -1.71,-0.71 1.75,-9.79 -0.34,-11.06 -10.31,-6.26 -4.29,13.85 -3.74,25.97 0.35,7.9 -14.88,5.84 -17.09,1.6 -2.62,-5.05 -2.07,-14.13 -0.53,-25 2.27,-16.02 -6.03,-17.21 -6.83,-11.83 -0.67,4.52 -2.24,6.68 -6.23,5.19 -2.99,-1.11 -5.45,-2.62 -4.47,-6.34 2.06,-7.74 -8.6,-12.27 -8.26,-6.08 0.66,12.04 -3.58,17.6 7.05,17.95 1.74,0.05 3.57,8.25 0.91,8.23 -8.31,-0.06 -11.28,3.61 -5.35,5.87 11.22,4.27 9.85,5.84 10.81,11.26 0.67,3.77 2.31,14.41 0.97,16.65 -7.1,11.9 -10.49,16.41 -12.79,16.27 -5.4,-0.32 -18.02,-5.91 -17.77,-9.13 1.55,-19.92 -7.41,-13.14 3.42,-26.24 8.17,-9.89 -5.38,-1.55 -9.11,-4.13 -10.84,-7.28 4.85,-11.12 4.72,-16.79 -0.23,-10.86 -3,-3.68 -4.94,-4.87 -8.22,-5.02 -3.5,-6.6 -0.47,-11.86 5.58,-9.65 -0.73,-21.01 -4.38,-18.9 0.01,11.8 -11.99,8.12 -9.94,1.3 3.19,-10.63 -0.39,-6.7 -9.59,-12.02 -1.57,-0.91 -7.22,-1.97 -5.5,7.87 1.88,10.72 12.49,46.1 -6.25,50.13 -1.97,0.43 -9.03,-4.12 -14.7,-7.38 -5.41,-3.13 -4.12,-23.29 -4.71,-25.48 -0.68,-2.56 -2.35,-7.68 2.73,-10.39 8.31,-4.43 4.6,-9.94 4.08,-14.74 -0.35,-3.2 -5.89,-11.47 -7.97,-12.28 -6.29,-2.43 -7.05,-3.82 -5.94,3.14 1.91,11.97 3.01,28.42 -3.24,26.33 -3.78,-1.27 -16.59,-6.31 -17.86,-8.75 -3.1,-5.95 -0.62,-12.13 -1.48,-19.45 -1.74,-14.92 2.7,-16.87 -16.09,-21.78 -13.45,-3.52 -0.04,24.34 -6.62,28.93 -14.55,10.16 -13.4,6.59 -21.97,-0.29 -16.93,-13.6 8.28,-34.74 -9.81,-36.82 -11.27,-1.29 -15.85,-14.26 -16.75,-2.12 -1.92,26.04 -10.8,9.87 -12.72,20.43 -1.11,6.04 -8.47,6.97 -9.37,6.7 -2.8,-0.84 -8.2,-5.47 -7.22,-9.75 3.19,-14.09 -6.21,-9.14 -7.6,-18.88 -0.86,-6.03 3.82,-4.73 2.77,-11.28 -0.14,-0.87 -2.78,-2.27 -3.47,-3.33 -1,-1.56 -0.28,-5.89 5.53,-5.36 0.96,0.09 1.15,-2.83 -0.75,-4.29 -2.54,-1.93 -7.5,-2.72 -7.01,-4.37 0.95,-3.23 -9.55,-5.71 -12.21,-6.26 -12.93,-2.68 -22.77,-5.16 -22.96,-10 -0.33,-8.65 -0.05,-9.68 -0.24,-14.98 -2.06,-5.06 -22.7,-18.29 -29.04,-19.77 -17.44,-4.05 -11.85,-6.57 -13.31,-14.35 -1.34,-7.15 -6.95,-21.28 7.29,-13.34 100.65,56.16 210.37,119.92 299.71,167.56 19.48,10.38 39.94,18.55 57.73,28.82 1.26,0.72 2.77,0.64 4.42,0.12 -0.37,-1.69 -1.05,-3.04 -2.31,-3.77 -17.79,-10.27 -34.71,-24.54 -53.83,-35.58 -90.38,-52.18 -204.38,-119.99 -303.32,-176.67 -8.8,-5.04 23.4,-30.13 39.53,-8.15z"/>
   </g>
   <g>
    <path class="fil0" d="M409.58 521.13c-6.47,0.71 -32.7,10.4 -30.48,14.82 -1.25,-1.4 3.27,7.46 2.94,16.11 -0.19,4.84 -10.03,7.32 -22.96,10 -2.66,0.55 -11.93,3.44 -10.98,6.68 3.91,13.27 2.49,16.32 0.15,32.76 -1.39,9.75 -15.1,0.23 -11.91,14.33 0.98,4.28 -4.42,8.9 -7.22,9.75 -0.9,0.27 -8.26,-0.66 -9.37,-6.7 -1.92,-10.56 -10.8,5.61 -12.72,-20.43 -0.9,-12.14 -5.48,0.83 -16.75,2.12 -18.09,2.08 7.12,23.22 -9.81,36.81 -8.57,6.89 -7.42,10.46 -21.97,0.3 -6.58,-4.59 6.83,-32.45 -6.62,-28.93 -18.79,4.91 -14.35,6.86 -16.1,21.78 -0.85,7.32 1.63,13.5 -1.47,19.45 -1.27,2.43 -14.08,7.48 -17.86,8.74 -6.25,2.1 -5.15,-14.35 -3.24,-26.32 1.11,-6.96 -7.26,-3.15 -13.55,-0.71 -2.08,0.8 -5.13,5.1 -5.47,8.3 -0.41,3.75 1.71,18.13 10.91,16.91 1.49,-0.2 2.18,1.46 1.57,3.11 -1.37,3.67 -6.05,-0.31 -6.88,5.55 -0.13,0.95 1.94,0.99 4.37,2.37 0.3,0.17 2.22,1.91 0.41,3.25 -2.62,1.95 -8.65,0.31 -6.33,0.81 1,0.21 -2.33,6.16 4.2,5.73 5.44,-0.36 2.88,11.12 -1.17,12.25 -9.21,2.54 -10.21,6.81 -12.23,6.8 -4.68,-0.05 -3.73,-1.22 -11.39,-10.48 -7.41,-8.97 -2.39,-24.82 -2.38,-24.89 1.73,-9.85 1.25,-20.78 -0.32,-19.87 -9.21,5.32 -12.78,1.39 -9.59,12.01 2.05,6.83 -9.95,10.51 -9.94,-1.3 -3.65,-2.1 -9.96,9.26 -4.39,18.91 3.04,5.26 7.76,6.83 -0.46,11.86 -1.94,1.19 -4.71,-6 -4.94,4.87 -0.13,5.67 15.56,9.51 4.72,16.79 -3.73,2.58 -17.28,-5.76 -9.11,4.13 10.83,13.1 1.87,6.32 3.42,26.24 0.25,3.22 -12.37,8.81 -17.77,9.13 -2.3,0.14 -5.69,-4.37 -12.79,-16.27 -1.34,-2.24 0.3,-12.88 0.96,-16.65 0.97,-5.42 -0.4,-6.99 10.82,-11.26 5.93,-2.26 2.96,-5.93 -5.36,-5.87 -2.65,0.01 -0.82,-8.18 0.92,-8.24 10.63,-0.34 6.39,-5.91 7.05,-17.94 0.34,-6.2 -10.32,-1.67 -8.26,6.08 0.98,3.71 -1.48,5.23 -4.47,6.34 -4,1.49 -5.56,-0.67 -6.23,-5.19 -0.8,-5.38 -9.1,-4.19 -6.83,11.83 1.55,10.87 2.09,19.95 -0.53,24.99 -2.21,4.25 -17.44,6.3 -17.09,-1.59 0.55,-12.12 6.57,-32.23 -3.73,-25.97 -2.11,1.27 1.36,10.35 -0.35,11.06 -2.58,1.07 -5.69,1.63 -5.96,0.45 -2.77,-12.04 -6.55,-10.22 -7,-1.69 -0.03,0.57 1.65,26.13 -1.53,28.25 -2.56,1.72 -5.7,3.46 -12.36,1.25 -3.68,-1.22 1.52,-26.25 -1.19,-27.92 -0.9,-0.55 -1.36,7.89 -4.62,14.2 -0.05,0.1 -4.08,0.73 -4.74,-0.41 -0.99,-1.71 -3.49,-11.68 -3.74,-5.91 -0.11,2.59 -24.28,16.82 -28.06,15.86 -4.13,-1.05 -6.77,-1.52 -8.84,-2.23 -0.49,0.16 -1.46,-0.4 -0.7,-1.4 0.66,-2.71 1.55,-5.08 2.8,-9.02 1.18,-3.72 25.07,-17.27 27.37,-16.08 5.13,2.68 -2.26,-4.47 -3.25,-6.19 -0.65,-1.14 1.91,-4.31 2.02,-4.31 7.09,0.34 14.63,4.16 14.6,3.1 -0.09,-3.18 -24.36,-11.19 -23.57,-14.99 1.4,-6.87 4.48,-8.72 7.25,-10.08 3.43,-1.69 24.72,12.54 25.23,12.8 7.62,3.88 11.08,1.51 2.04,-6.9 -0.88,-0.83 1.15,-3.24 3.37,-4.94 1.47,-1.12 7.6,6.41 9.75,5.23 10.57,-5.79 -9.85,-10.63 -20.62,-16.22 -7.01,-3.64 2.38,-15.8 7.16,-15.6 5.68,0.25 13.27,5.27 21.92,12.04 12.74,9.97 17.92,3.39 13.66,0 -3.58,-2.84 -4.67,-5.27 -1.38,-7.99 2.45,-2.04 4.99,-3.41 7.72,-0.7 5.68,5.66 14.93,-1.31 9.4,-4.11 -10.75,-5.45 -13.46,-11.9 -19.07,-2.88 -0.92,1.49 -8.93,-1.02 -7.59,-3.32 4.21,-7.17 2.52,-11.57 -2.41,-7.57 -9.3,7.58 -9.98,5.61 -15.16,3.73 -3.59,-1.3 -13.63,-5.2 -14.9,-7.48 -6.75,-12.11 -8.96,-17.29 -7.69,-19.21 2.98,-4.52 14.13,-12.65 16.79,-10.82 16.48,11.3 15.08,0.15 21.01,16.07 4.48,12.02 4.03,-3.88 8.14,-5.83 11.72,-5.74 7.21,9.77 12.18,12.5 9.52,5.23 4.69,-0.77 6.68,-1.85 8.47,-4.61 7.47,0.26 10.51,5.52 5.57,9.66 18.56,9.87 18.56,5.66 -10.22,-5.9 -1.04,-14.44 3.85,-9.26 7.6,8.08 5.99,3.02 15.19,-2.29 1.58,-0.91 5.33,-5.27 -4.06,-8.7 -10.22,-3.73 -46.17,-12.24 -40.29,-30.48 0.62,-1.92 8.08,-5.76 13.75,-9.03 5.41,-3.13 22.22,8.06 24.42,8.66 2.55,0.69 7.82,1.79 7.63,7.55 -0.31,9.41 6.31,8.95 10.73,10.9 2.94,1.3 12.88,0.64 14.61,-0.76 5.25,-4.23 6.84,-4.19 0.26,-6.71 -11.32,-4.34 -26.12,-11.6 -21.18,-15.97 2.98,-2.64 13.75,-11.21 16.5,-11.09 6.7,0.29 10.82,5.52 17.58,8.44 13.8,5.95 13.26,10.77 26.91,-3.05 9.77,-9.89 -21.05,-12.2 -21.74,-20.19 -1.53,-17.68 0.99,-14.91 11.24,-18.89 20.24,-7.86 25.94,24.55 36.78,9.92 6.76,-9.12 20.28,-6.6 10.22,-13.45 -21.6,-14.68 -3.15,-14.28 -11.33,-21.23 -4.69,-3.98 -1.81,-10.82 -1.12,-11.46 2.13,-2 8.83,-4.37 12.06,-1.39 10.6,9.82 11.01,-0.8 20.14,2.87 5.65,2.27 2.19,5.67 8.38,8.03 0.83,0.32 3.36,-1.27 4.63,-1.33 1.85,-0.1 5.24,2.7 1.87,7.46 -0.56,0.79 1.87,2.42 4.09,1.49 2.94,-1.22 6.11,-5.13 7.29,-3.88 2.33,2.44 9.72,-5.41 11.53,-7.44 8.78,-9.86 15.85,-17.14 20.14,-14.88 7.65,4.03 8.41,4.79 13.1,7.27 5.4,0.76 27.18,-10.5 31.63,-15.26 12.23,-13.08 11.62,-6.98 19.08,-4.35 6.86,2.41 21.91,4.62 7.91,12.98 -98.96,59.1 -209.04,122.24 -294.96,175.79 -18.74,11.67 -36.04,25.31 -53.83,35.58 -1.25,0.72 -1.94,2.07 -2.31,3.77 1.65,0.52 3.16,0.6 4.42,-0.12 17.79,-10.27 38.61,-17.79 57.73,-28.83 90.37,-52.18 206.1,-117.01 304.65,-174.34 8.78,-5.11 14.4,35.32 -12.7,38.3z"/>
    <path class="fil0" d="M418.51 432.56c6.47,-0.71 32.7,-10.4 30.48,-14.82 1.25,1.4 -3.27,-7.46 -2.94,-16.1 0.19,-4.85 10.03,-7.33 22.96,-10.01 2.66,-0.55 11.93,-3.44 10.98,-6.67 -3.91,-13.28 -2.49,-16.33 -0.15,-32.76 1.39,-9.75 15.1,-0.24 11.9,-14.34 -0.97,-4.28 4.43,-8.9 7.23,-9.75 0.9,-0.27 8.26,0.66 9.36,6.7 1.93,10.57 10.81,-5.61 12.73,20.43 0.9,12.14 5.48,-0.82 16.75,-2.12 18.09,-2.08 -7.12,-23.22 9.81,-36.81 8.57,-6.89 7.42,-10.46 21.97,-0.3 6.58,4.6 -6.83,32.45 6.62,28.93 18.79,-4.91 14.35,-6.85 16.09,-21.78 0.86,-7.31 -1.62,-13.5 1.48,-19.45 1.27,-2.43 14.08,-7.48 17.86,-8.74 6.25,-2.1 5.15,14.36 3.24,26.33 -1.11,6.95 7.26,3.14 13.55,0.7 2.08,-0.8 5.13,-5.1 5.47,-8.3 0.41,-3.75 -1.71,-18.13 -10.91,-16.91 -1.49,0.2 -2.18,-1.46 -1.57,-3.11 1.37,-3.67 6.05,0.32 6.88,-5.55 0.13,-0.95 -1.94,-0.99 -4.37,-2.37 -0.3,-0.17 -2.22,-1.91 -0.41,-3.25 2.62,-1.95 8.65,-0.31 6.33,-0.81 -1,-0.21 2.33,-6.16 -4.2,-5.73 -5.44,0.36 -2.88,-11.12 1.17,-12.24 9.21,-2.55 10.21,-6.82 12.22,-6.81 4.69,0.05 3.74,1.22 11.4,10.49 7.41,8.96 2.39,24.81 2.38,24.88 -1.73,9.85 -1.25,20.78 0.32,19.87 9.2,-5.31 12.78,-1.39 9.59,-12.01 -2.05,-6.83 9.95,-10.51 9.94,1.3 3.65,2.1 9.96,-9.25 4.38,-18.91 -3.03,-5.26 -7.75,-6.83 0.47,-11.86 1.94,-1.19 4.71,6 4.94,-4.87 0.12,-5.67 -15.56,-9.51 -4.73,-16.79 3.74,-2.58 17.29,5.76 9.12,-4.13 -10.83,-13.1 -1.87,-6.32 -3.42,-26.23 -0.25,-3.23 12.36,-8.82 17.77,-9.14 2.3,-0.14 5.69,4.37 12.79,16.27 1.34,2.24 -0.3,12.88 -0.97,16.65 -0.96,5.42 0.41,6.99 -10.81,11.26 -5.93,2.27 -2.97,5.93 5.35,5.88 2.66,-0.02 0.83,8.17 -0.92,8.23 -10.62,0.35 -6.38,5.91 -7.04,17.94 -0.34,6.2 10.32,1.67 8.26,-6.08 -0.98,-3.71 1.48,-5.23 4.47,-6.34 3.99,-1.48 5.56,0.68 6.23,5.19 0.8,5.39 9.1,4.19 6.83,-11.83 -1.55,-10.87 -2.09,-19.95 0.53,-24.99 2.21,-4.24 17.44,-6.3 17.09,1.59 -0.55,12.13 -6.57,32.23 3.73,25.97 2.1,-1.27 -1.36,-10.35 0.35,-11.06 2.58,-1.07 5.69,-1.62 5.96,-0.44 2.77,12.03 6.55,10.22 7,1.68 0.03,-0.57 -1.65,-26.12 1.53,-28.25 2.56,-1.72 5.7,-3.46 12.36,-1.25 3.68,1.23 -1.52,26.25 1.19,27.92 0.9,0.55 1.36,-7.89 4.62,-14.2 0.05,-0.1 4.08,-0.73 4.74,0.41 0.99,1.72 3.49,11.69 3.74,5.91 0.11,-2.59 24.28,-16.81 28.06,-15.86 4.13,1.05 6.77,1.52 8.84,2.23 0.5,-0.16 1.45,0.4 0.7,1.4 -0.66,2.71 -1.55,5.08 -2.8,9.02 -1.18,3.72 -25.07,17.28 -27.37,16.08 -5.13,-2.67 2.25,4.47 3.25,6.19 0.65,1.14 -1.91,4.32 -2.02,4.31 -7.09,-0.33 -14.63,-4.16 -14.6,-3.1 0.08,3.18 24.35,11.2 23.57,14.99 -1.41,6.87 -4.48,8.72 -7.25,10.08 -3.43,1.69 -24.72,-12.54 -25.24,-12.8 -7.61,-3.88 -11.07,-1.51 -2.04,6.9 0.89,0.83 -1.14,3.25 -3.36,4.94 -1.47,1.12 -7.6,-6.41 -9.76,-5.23 -10.56,5.79 9.86,10.64 20.63,16.23 7.01,3.63 -2.38,15.8 -7.16,15.59 -5.68,-0.25 -13.27,-5.26 -21.92,-12.04 -12.74,-9.97 -17.92,-3.38 -13.66,0 3.58,2.84 4.67,5.28 1.38,7.99 -2.45,2.04 -5,3.41 -7.72,0.7 -5.68,-5.65 -14.93,1.31 -9.4,4.12 10.75,5.44 13.46,11.89 19.07,2.87 0.92,-1.49 8.93,1.03 7.58,3.32 -4.2,7.18 -2.51,11.58 2.42,7.57 9.3,-7.58 9.98,-5.61 15.16,-3.73 3.59,1.3 13.62,5.2 14.9,7.48 6.75,12.11 8.96,17.29 7.69,19.21 -2.98,4.53 -14.13,12.65 -16.8,10.83 -16.47,-11.31 -15.07,-0.15 -21,-16.08 -4.48,-12.02 -4.03,3.88 -8.14,5.83 -11.72,5.74 -7.21,-9.76 -12.18,-12.49 -9.52,-5.24 -4.69,0.76 -6.68,1.84 -8.47,4.61 -7.47,-0.26 -10.51,-5.52 -5.57,-9.66 -18.56,-9.87 -18.56,-5.66 10.22,5.9 1.04,14.45 -3.85,9.26 -7.6,-8.08 -5.99,-3.02 -15.19,2.3 -1.58,0.9 -5.33,5.26 4.06,8.69 10.22,3.73 46.17,12.24 40.29,30.48 -0.62,1.92 -8.08,5.77 -13.75,9.04 -5.41,3.12 -22.23,-8.07 -24.42,-8.66 -2.55,-0.69 -7.82,-1.8 -7.63,-7.56 0.31,-9.41 -6.31,-8.95 -10.73,-10.9 -2.94,-1.3 -12.88,-0.63 -14.61,0.76 -5.25,4.24 -6.84,4.19 -0.26,6.71 11.32,4.34 26.12,11.6 21.18,15.97 -2.98,2.64 -13.76,11.22 -16.5,11.1 -6.7,-0.29 -10.82,-5.53 -17.58,-8.45 -13.8,-5.95 -13.26,-10.77 -26.91,3.05 -9.78,9.89 21.05,12.2 21.74,20.2 1.53,17.67 -0.99,14.9 -11.24,18.88 -20.24,7.86 -25.94,-24.54 -36.78,-9.91 -6.76,9.11 -20.28,6.6 -10.21,13.44 21.59,14.68 3.14,14.29 11.32,21.23 4.69,3.98 1.81,10.82 1.12,11.46 -2.13,2.01 -8.83,4.37 -12.06,1.39 -10.6,-9.82 -11.01,0.8 -20.14,-2.87 -5.65,-2.27 -2.19,-5.67 -8.39,-8.03 -0.82,-0.32 -3.35,1.27 -4.62,1.34 -1.85,0.09 -5.24,-2.7 -1.87,-7.47 0.56,-0.79 -1.88,-2.41 -4.09,-1.49 -2.94,1.22 -6.11,5.13 -7.29,3.88 -2.33,-2.44 -9.72,5.41 -11.53,7.44 -8.78,9.86 -15.85,17.14 -20.14,14.88 -7.66,-4.03 -8.41,-4.79 -13.1,-7.27 -5.4,-0.76 -27.18,10.5 -31.63,15.26 -12.23,13.08 -11.62,6.98 -19.08,4.35 -6.86,-2.41 -21.91,-4.62 -7.91,-12.98 98.95,-59.09 209.03,-122.24 294.96,-175.78 18.74,-11.68 36.04,-25.32 53.83,-35.59 1.26,-0.72 1.93,-2.07 2.31,-3.76 -1.65,-0.52 -3.16,-0.61 -4.42,0.11 -17.79,10.27 -38.61,17.79 -57.73,28.83 -90.38,52.18 -206.1,117.01 -304.66,174.35 -8.77,5.1 -14.39,-35.33 12.71,-38.31z"/>
   </g>
   <g>
    <g>
     <path class="fil1" d="M369.99 463.82c-0.4,-4.62 -6.87,-23.45 -10.06,-21.94 1.03,-0.87 -5.35,2.2 -11.5,1.82 -3.45,-0.21 -5.05,-7.26 -6.74,-16.5 -0.36,-1.9 -2.26,-8.55 -4.58,-7.92 -9.51,2.56 -11.66,1.5 -23.32,-0.43 -6.91,-1.15 0.08,-10.76 -10,-8.71 -3.07,0.62 -6.27,-3.3 -6.82,-5.31 -0.18,-0.64 0.6,-5.87 4.92,-6.55 7.55,-1.2 -3.82,-7.78 14.75,-8.72 8.65,-0.44 -0.5,-3.92 -1.24,-11.96 -1.18,-12.91 -16.64,4.69 -26.04,-7.58 -4.76,-6.22 -7.32,-5.46 0.15,-15.65 3.38,-4.6 22.99,5.4 20.7,-4.23 -3.19,-13.46 -4.64,-10.33 -15.24,-11.82 -5.19,-0.72 -9.63,0.94 -13.81,-1.37 -1.72,-0.94 -5.1,-10.14 -5.94,-12.85 -1.38,-4.48 10.31,-3.43 18.79,-1.87 4.94,0.9 2.36,-5.12 0.73,-9.64 -0.54,-1.49 -3.55,-3.73 -5.82,-4.03 -2.66,-0.35 -12.93,0.92 -12.21,7.49 0.12,1.06 -1.08,1.53 -2.24,1.07 -2.59,-1.04 0.32,-4.31 -3.84,-4.99 -0.67,-0.11 -0.73,1.37 -1.76,3.07 -0.12,0.21 -1.39,1.55 -2.32,0.24 -1.34,-1.9 -0.08,-6.17 -0.47,-4.52 -0.17,0.71 -4.35,-1.76 -4.15,2.89 0.17,3.89 -7.96,1.88 -8.69,-1.03 -1.67,-6.59 -4.69,-7.38 -4.64,-8.81 0.1,-3.33 0.92,-2.64 7.64,-7.94 6.51,-5.13 17.71,-1.29 17.76,-1.28 6.97,1.39 14.76,1.23 14.14,0.09 -3.63,-6.63 -0.78,-9.12 -8.39,-7.02 -4.89,1.35 -7.32,-7.25 1.09,-7.05 1.55,-2.56 -6.42,-7.24 -13.39,-3.43 -3.79,2.07 -4.99,5.41 -8.43,-0.53 -0.82,-1.4 4.34,-3.25 -3.39,-3.6 -4.03,-0.18 -7.02,10.92 -12.03,3.09 -1.77,-2.7 4.39,-12.21 -2.79,-6.55 -9.5,7.49 -4.52,1.22 -18.72,2 -2.3,0.13 -6.08,-8.94 -6.21,-12.8 -0.06,-1.63 3.2,-3.97 11.78,-8.83 1.62,-0.92 9.17,0.42 11.84,0.96 3.84,0.77 4.98,-0.17 7.84,7.88 1.51,4.26 4.17,2.21 4.27,-3.71 0.03,-1.89 5.83,-0.46 5.84,0.79 0.07,7.56 4.1,4.64 12.66,5.3 4.4,0.35 1.35,-7.31 -4.2,-5.98 -2.65,0.64 -3.69,-1.13 -4.44,-3.28 -0.99,-2.87 0.57,-3.94 3.8,-4.35 3.85,-0.48 3.13,-6.4 -8.31,-5.05 -7.76,0.92 -14.23,1.16 -17.78,-0.79 -2.98,-1.64 -4.2,-12.52 1.42,-12.14 8.62,0.59 22.83,5.2 18.54,-2.23 -0.87,-1.52 -7.38,0.8 -7.86,-0.43 -0.72,-1.85 -1.07,-4.07 -0.22,-4.25 8.61,-1.77 7.38,-4.49 1.31,-4.95 -0.41,-0.04 -18.62,0.74 -20.08,-1.55 -1.18,-1.86 -2.37,-4.12 -0.69,-8.82 0.93,-2.6 18.66,1.51 19.89,-0.39 0.41,-0.63 -5.59,-1.1 -10.03,-3.52 -0.07,-0.04 -0.45,-2.92 0.37,-3.37 1.24,-0.68 8.38,-2.29 4.27,-2.56 -1.84,-0.12 -11.57,-17.56 -10.82,-20.24 0.81,-2.92 1.18,-4.79 1.72,-6.25 -0.1,-0.36 0.31,-1.03 1.01,-0.48 1.92,0.52 3.59,1.19 6.37,2.15 2.63,0.9 11.89,18.12 11,19.74 -1.99,3.61 3.22,-1.53 4.46,-2.21 0.82,-0.45 3.04,1.43 3.04,1.5 -0.36,5.05 -3.2,10.35 -2.45,10.35 2.27,-0.01 8.37,-17.15 11.06,-16.54 4.86,1.12 6.13,3.34 7.05,5.33 1.15,2.47 -9.33,17.39 -9.53,17.75 -2.88,5.36 -1.25,7.86 4.89,1.57 0.6,-0.62 2.28,0.87 3.46,2.48 0.77,1.06 -4.69,5.3 -3.89,6.85 3.95,7.62 7.73,-6.84 11.89,-14.41 2.7,-4.93 11.2,1.95 10.98,5.35 -0.27,4.04 -3.96,9.36 -8.93,15.4 -7.31,8.91 -2.7,12.7 -0.22,9.72 2.08,-2.5 3.83,-3.23 5.71,-0.85 1.41,1.79 2.34,3.61 0.37,5.51 -4.12,3.95 0.69,10.65 2.77,6.76 4.06,-7.57 8.69,-9.38 2.36,-13.53 -1.04,-0.68 0.88,-6.34 2.49,-5.34 5.04,3.11 8.2,1.98 5.42,-1.59 -5.23,-6.75 -3.82,-7.2 -2.4,-10.86 0.99,-2.53 3.93,-9.61 5.57,-10.48 8.73,-4.61 12.45,-6.09 13.8,-5.16 3.17,2.2 8.77,10.27 7.43,12.13 -8.32,11.54 -0.36,10.73 -11.79,14.69 -8.63,2.99 2.7,2.93 4.02,5.89 3.89,8.43 -7.07,4.97 -9.1,8.46 -3.88,6.69 0.47,3.35 1.21,4.79 3.14,6.1 -0.31,5.31 -4.1,7.39 -6.97,3.8 -7.33,13.05 -4.34,13.12 4.37,-7.19 10.3,-0.51 6.53,2.89 -5.87,5.27 -2.24,4.21 1.39,10.85 0.62,1.13 3.66,3.87 6.25,-2.75 2.83,-7.22 9.47,-32.66 22.36,-28.18 1.35,0.47 3.97,5.85 6.2,9.94 2.14,3.9 -6.11,15.68 -6.56,17.24 -0.54,1.8 -1.41,5.53 -5.5,5.3 -6.7,-0.38 -6.48,4.35 -7.94,7.46 -0.97,2.07 -0.66,9.15 0.3,10.41 2.93,3.81 2.88,4.94 4.78,0.29 3.26,-7.98 8.68,-18.39 11.71,-14.81 1.83,2.17 7.75,9.98 7.62,11.93 -0.31,4.76 -4.11,7.61 -6.29,12.37 -4.47,9.73 -7.89,9.27 1.72,19.21 6.88,7.12 9.04,-14.79 14.73,-15.15 12.61,-0.79 10.6,0.95 13.26,8.31 5.26,14.54 -17.89,18.06 -7.66,26.02 6.38,4.96 4.36,14.54 9.4,7.49 10.81,-15.13 10.22,-2 15.3,-7.71 2.91,-3.27 7.73,-1.11 8.18,-0.61 1.39,1.54 2.96,6.35 0.78,8.6 -7.15,7.39 0.4,7.85 -2.37,14.29 -1.71,3.99 -4.07,1.47 -5.85,5.84 -0.24,0.58 0.85,2.41 0.88,3.31 0.03,1.32 -2.01,3.69 -5.35,1.21 -0.55,-0.41 -1.75,1.29 -1.13,2.89 0.82,2.11 3.55,4.43 2.65,5.25 -1.78,1.62 3.69,7 5.1,8.33 6.87,6.41 11.94,11.56 10.26,14.58 -2.99,5.38 -3.55,5.9 -5.39,9.2 -0.62,3.83 7.03,19.52 10.34,22.76 9.11,8.92 4.78,8.39 2.79,13.66 -1.83,4.84 -3.65,15.51 -9.37,5.41 -40.44,-71.4 -83.57,-150.78 -120.28,-212.82 -8,-13.52 -17.42,-26.06 -24.44,-38.89 -0.5,-0.91 -1.44,-1.41 -2.64,-1.71 -0.4,1.17 -0.49,2.24 0.01,3.15 7.02,12.83 12.02,27.77 19.57,41.56 35.65,65.18 79.9,148.61 119.09,219.69 3.49,6.33 -25.38,9.67 -27.05,-9.66z"/>
     <path class="fil2" d="M390.9 452.63c4.4,6.1 -14.66,5.61 -10.41,2.65 0.22,-0.16 0.32,-0.79 2.62,-2.05 0.72,-0.39 1.01,-3.44 -1.17,-2.13 -0.81,0.49 -8.77,-3.71 -4.79,-5.88 1.43,-0.79 2.62,-0.89 0.58,-3.31 -0.91,-1.07 -2.57,2.57 -4.8,-1.51 2.14,-1.17 3.96,-0.89 1.5,-3.8 -0.4,-0.47 -6.98,4.32 -5.48,-0.82 0.55,-1.89 4.56,-0.2 0.43,-5.09 -2.33,-2.76 -0.89,-4.75 -8.8,-4.34 -6.4,0.33 -5.72,-7.56 -1.04,-4.33 0.07,0.05 5.12,1.46 1.9,-4.42 -4.53,-8.29 -2.08,-11.61 -15.38,-11.72 -1.62,-0.01 -23.36,-0.51 -23.55,-2 -0.79,-6.34 14.03,-0.28 18.28,-1.71 3.78,-1.27 14.11,2.1 9.24,-3.67 -3.46,-4.09 -4.75,-4.38 -9.52,-5.92 -2.98,-0.96 -7.14,-2.12 -10.43,-4 -0.46,-0.27 -3.94,-0.94 -1.89,-4.38 1.55,-2.61 18.57,5.96 12.61,-2.86 -2.02,-2.99 -2.05,-4.62 -6.39,-4.12 -4.48,0.52 -15.74,-3.23 -9.11,-6.52 1.2,-0.6 14.62,6.31 7.62,-3 -2.83,-3.78 1.5,-2.7 -7.78,-3.12 -5.96,-0.26 -4.56,-3.12 0.62,-2.9 6.78,0.3 3.39,-5.05 -0.01,-3.87 -0.06,0.02 -10.87,0 -11.79,-1.69 -2.05,-3.75 1.89,-2.45 4.05,-2.36 3.77,0.16 12.81,3 6.5,-6.57 -0.41,-0.62 0.73,-2.28 -4.34,-1.24 -3.03,0.62 -5.68,-3.29 1.71,-4.1 2.73,-0.3 1.39,-3.86 -0.2,-7.06 -0.22,-0.45 -6.62,0.91 -7.29,1.08 -0.94,-1.11 -3.25,-2.9 0.7,-4.12 1.81,-0.56 5.79,1.84 2.79,-5.15 -1.69,-3.93 -2.13,-1.8 -8.22,-0.77 -1.62,0.27 -3.95,-1.53 4.07,-4.44 0.08,-0.02 0.36,-3.73 -0.89,-4.45 -1.37,-0.8 -2.33,0.37 -3.41,0.54 -1.27,0.2 -5.31,-0.05 -3.23,-3.06 2.16,-3.13 4.72,-0.13 4.6,-1.25 -0.06,-0.62 -1.33,-2.97 -3,-7.2 1.16,-1.27 -6.14,4.18 -7.03,-1.16 0.47,-0.53 3.54,-2.07 4.33,-2.5 -1.28,-2.35 -2.49,-8.06 -4.52,-7.72 -1.99,0.34 -5.51,1.14 -6.94,-0.15 -3.81,-3.44 5.86,-3.99 5.43,-4.79 -3.46,-6.33 -2.28,-6.6 -9.32,-4.16 -0.02,0.01 -3.45,-1.68 1.59,-3.24 2.39,-0.74 -1.33,-8.03 -2.48,-7.81 -3.06,0.57 -16.19,-32.72 -9.07,-27.39 9.93,7.43 107.98,199.6 111.11,205.58z"/>
     <path class="fil2" d="M398.16 456.24c4.73,1.37 9.95,-15.47 5.16,-13.49 -0.25,0.1 -0.84,-0.16 -3.14,1.1 -0.71,0.39 -3.44,-1 -1.16,-2.13 0.85,-0.43 1.61,-9.39 -2.37,-7.22 -1.43,0.79 -2.16,1.74 -3.09,-1.28 -0.42,-1.35 3.54,-0.79 1.31,-4.86 -2.13,1.17 -2.88,2.85 -4.01,-0.79 -0.18,-0.59 7.41,-3.54 2.27,-5.05 -1.89,-0.56 -2.63,3.73 -4.52,-2.39 -1.07,-3.45 -3.52,-3.31 1.09,-9.75 3.73,-5.21 -3.28,-8.89 -3.09,-3.21 0.01,0.08 -1.52,5.1 -4.74,-0.78 -4.54,-8.29 -8.66,-8.02 -1.57,-19.27 0.86,-1.37 12.16,-19.96 11.01,-20.92 -4.91,-4.08 -7.8,11.66 -11.29,14.47 -3.11,2.5 -5.85,13.02 -8.07,5.8 -1.59,-5.12 -1.14,-6.36 0.14,-11.21 0.8,-3.02 4.01,-9.01 4.2,-12.79 0.03,-0.54 1.3,-2.81 -2.7,-2.95 -3.04,-0.1 -6.91,19.7 -11.12,9.93 -1.43,-3.31 -2.79,-4.22 -0.02,-7.61 2.85,-3.49 5.77,-14.99 -0.59,-11.19 -1.15,0.69 -2.56,15.72 -6.63,4.81 -1.65,-4.43 -3.08,-0.2 1.57,-8.24 2.99,-5.16 -0.17,-5.52 -2.77,-1.04 -3.41,5.87 -6.09,0.13 -3.26,-2.1 0.05,-0.04 5.86,-9.15 4.94,-10.83 -2.05,-3.75 -3.09,0.26 -4.18,2.13 -1.9,3.26 -4.38,12.41 -9.03,1.93 -0.31,-0.68 -2.31,-0.61 1.29,-4.32 2.16,-2.22 0.3,-6.56 -4.38,-0.77 -1.72,2.13 -3.99,-0.91 -5.83,-3.98 -0.26,-0.43 4.34,-5.08 4.84,-5.55 -0.43,-1.4 -0.68,-4.31 -3.85,-1.64 -1.44,1.22 -1.57,5.87 -5.84,-0.43 -2.4,-3.55 -0.36,-2.76 3.79,-7.33 1.1,-1.22 0.84,-4.16 -5.93,1.03 -0.07,0.05 -3.34,-1.71 -3.27,-3.16 0.06,-1.58 1.56,-1.75 2.29,-2.57 0.86,-0.96 2.82,-4.5 -0.84,-4.37 -3.79,0.13 -2.64,3.9 -3.53,3.2 -0.49,-0.38 -1.78,-2.72 -4.44,-6.41 -1.7,0.29 6.83,-2.92 2.82,-6.55 -0.71,0.12 -3.66,1.86 -4.45,2.3 -1.29,-2.35 -5.45,-6.45 -4.06,-7.97 1.36,-1.5 3.93,-4.03 3.62,-5.92 -0.84,-5.07 -6.53,2.78 -6.97,1.98 -3.46,-6.33 -5.48,-5.78 -1.86,-8.13 0.02,-0.01 0.78,-7.46 -3.25,-4.06 -1.91,1.61 -2.1,1.12 -4.54,-2.93 -1.98,-3.28 -13.01,-18.04 -11.79,-13.73 3.3,11.63 108.48,194.38 111.84,200.24z"/>
    </g>
    <g>
     <path class="fil1" d="M370.04 504.24c-4.2,-1.96 -23.74,-5.77 -24.02,-2.26 -0.24,-1.32 -0.77,5.74 -4.18,10.88 -1.9,2.88 -8.81,0.74 -17.66,-2.41 -1.82,-0.65 -8.53,-2.32 -9.15,0 -2.53,9.52 -4.53,10.85 -12.03,19.98 -4.45,5.41 -9.27,-5.45 -12.55,4.31 -0.99,2.96 -5.98,3.77 -8,3.25 -0.65,-0.17 -4.78,-3.46 -3.21,-7.54 2.73,-7.13 -8.66,-0.58 -0.18,-17.13 3.94,-7.72 -3.64,-1.53 -10.98,-4.91 -11.77,-5.43 -4.26,16.76 -19.58,18.76 -7.77,1.01 -8.39,3.61 -13.48,-7.95 -2.3,-5.23 16.17,-17.21 6.68,-20.05 -13.24,-3.96 -11.26,-1.14 -17.85,7.3 -3.22,4.13 -4,8.8 -8.09,11.27 -1.67,1.02 -11.33,-0.65 -14.1,-1.28 -4.58,-1.05 2.18,-10.64 7.77,-17.22 3.25,-3.82 -3.25,-4.59 -7.97,-5.44 -1.57,-0.28 -5.01,1.21 -6.41,3.02 -1.63,2.13 -5.66,11.66 0.38,14.32 0.98,0.43 0.79,1.7 -0.2,2.48 -2.18,1.73 -3.56,-2.43 -6.23,0.83 -0.43,0.53 0.82,1.32 1.78,3.05 0.12,0.22 0.65,1.99 -0.95,2.14 -2.32,0.21 -5.38,-3.02 -4.15,-1.86 0.52,0.5 -3.7,2.89 0.43,5.04 3.45,1.8 -2.36,7.84 -5.24,7.02 -6.54,-1.86 -8.74,0.37 -9.95,-0.39 -2.84,-1.76 -1.82,-2.12 -3.05,-10.59 -1.2,-8.2 7.72,-15.98 7.76,-16.02 4.69,-5.35 8.45,-12.17 7.15,-12.2 -7.56,-0.17 -8.28,-3.88 -10.27,3.76 -1.28,4.91 -9.94,2.71 -5.57,-4.47 -1.44,-2.63 -9.48,1.94 -9.66,9.88 -0.1,4.32 2.19,7.02 -4.68,7.04 -1.61,0 -0.64,-5.4 -4.8,1.13 -2.17,3.4 5.94,11.54 -3.34,11.96 -3.23,0.19 -8.38,-9.9 -7.07,-0.86 1.74,11.97 -1.21,4.53 -7.63,17.22 -1.04,2.05 -10.78,0.79 -14.19,-1.02 -1.45,-0.77 -1.84,-4.76 -1.76,-14.63 0.02,-1.86 4.95,-7.72 6.75,-9.77 2.59,-2.94 2.34,-4.4 10.74,-2.85 4.45,0.82 4,-2.5 -1.08,-5.55 -1.62,-0.97 2.53,-5.28 3.61,-4.66 6.59,3.71 6.07,-1.24 10.93,-8.31 2.49,-3.64 -5.67,-4.83 -7.28,0.64 -0.78,2.62 -2.83,2.63 -5.06,2.2 -2.98,-0.57 -3.13,-2.46 -1.87,-5.46 1.5,-3.57 -3.98,-5.92 -8.53,4.67 -3.09,7.18 -6.12,12.91 -9.58,15 -2.91,1.76 -12.93,-2.62 -9.8,-7.29 4.82,-7.17 15.92,-17.17 7.34,-17.18 -1.75,0 -3,6.8 -4.3,6.6 -1.97,-0.3 -4.07,-1.12 -3.79,-1.93 2.77,-8.35 -0.21,-8.65 -3.64,-3.62 -0.23,0.34 -8.66,16.5 -11.38,16.62 -2.2,0.09 -4.75,-0.01 -7.98,-3.82 -1.78,-2.1 10.64,-15.4 9.6,-17.42 -0.34,-0.67 -3.74,4.29 -8.06,6.93 -0.06,0.04 -2.75,-1.07 -2.73,-2 0.03,-1.42 2.2,-8.41 -0.09,-4.98 -1.02,1.53 -20.98,1.24 -22.93,-0.75 -2.13,-2.16 -3.56,-3.42 -4.55,-4.62 -0.36,-0.09 -0.74,-0.78 0.09,-1.11 1.4,-1.41 2.82,-2.52 5.04,-4.45 2.09,-1.83 21.64,-1.23 22.6,0.35 2.13,3.52 0.28,-3.56 0.31,-4.97 0.03,-0.93 2.76,-1.92 2.82,-1.88 4.2,2.84 7.37,7.95 7.74,7.3 1.12,-1.97 -10.67,-15.83 -8.79,-17.85 3.4,-3.65 5.95,-3.64 8.14,-3.44 2.71,0.24 10.39,16.77 10.61,17.12 3.2,5.18 6.18,5.02 3.8,-3.44 -0.24,-0.83 1.89,-1.55 3.87,-1.76 1.31,-0.14 2.25,6.71 4,6.79 8.57,0.39 -2.06,-10.11 -6.54,-17.5 -2.92,-4.81 7.29,-8.72 10.12,-6.83 3.36,2.25 6.13,8.11 8.88,15.43 4.05,10.78 9.64,8.69 8.31,5.06 -1.13,-3.06 -0.89,-4.94 2.11,-5.38 2.25,-0.32 4.3,-0.22 4.96,2.44 1.36,5.54 9.57,4.73 7.24,0.97 -4.53,-7.29 -3.78,-12.21 -10.54,-8.8 -1.11,0.56 -5.05,-3.93 -3.38,-4.83 5.21,-2.81 5.81,-6.11 1.33,-5.49 -8.46,1.16 -8.14,-0.29 -10.6,-3.34 -1.7,-2.13 -6.36,-8.21 -6.29,-10.07 0.37,-9.86 0.95,-13.83 2.43,-14.54 3.49,-1.64 13.28,-2.46 14.22,-0.36 5.84,12.97 9.12,5.67 6.83,17.55 -1.73,8.97 3.88,-0.86 7.1,-0.53 9.25,0.84 0.77,8.6 2.79,12.1 3.85,6.71 3.13,1.27 4.74,1.35 6.86,0.33 4.45,2.93 4.35,7.25 -0.18,7.94 7.64,12.87 9.2,10.31 -4.04,-7.37 4.71,-9.17 5.76,-4.2 1.64,7.72 2.53,4.05 10.09,4.22 1.3,0.03 5.19,-1.23 0.75,-6.79 -4.84,-6.06 -23.55,-24.53 -13.22,-33.45 1.08,-0.93 7.05,-0.51 11.7,-0.4 4.45,0.1 10.53,13.13 11.65,14.3 1.3,1.36 4.09,3.99 1.85,7.42 -3.68,5.61 0.52,7.78 2.49,10.6 1.31,1.87 7.59,5.15 9.17,4.94 4.76,-0.63 5.71,-0.02 2.63,-3.99 -5.28,-6.82 -11.59,-16.72 -6.97,-17.55 2.79,-0.5 12.52,-1.72 14.15,-0.63 3.96,2.65 4.53,7.36 7.56,11.64 6.19,8.72 4.08,11.46 17.5,8.1 9.6,-2.4 -8.29,-15.21 -5.75,-20.33 5.61,-11.31 6.11,-8.69 13.82,-7.32 15.22,2.71 6.7,24.53 18.7,19.64 7.49,-3.04 14.78,3.49 11.19,-4.4 -7.7,-16.92 3.38,-9.85 0.97,-17.1 -1.38,-4.15 2.9,-7.25 3.56,-7.39 2.04,-0.43 6.99,0.61 7.84,3.62 2.82,9.9 7,3.59 11.2,9.2 2.59,3.47 -0.77,4.26 2.12,7.99 0.39,0.5 2.52,0.47 3.31,0.9 1.16,0.62 2.19,3.58 -1.63,5.23 -0.63,0.27 0.25,2.16 1.94,2.42 2.24,0.35 5.61,-0.86 5.87,0.34 0.51,2.34 7.91,0.3 9.77,-0.26 8.98,-2.75 15.98,-4.56 17.75,-1.6 3.16,5.29 3.34,6.03 5.27,9.27 3.01,2.46 20.43,3.67 24.89,2.43 12.28,-3.43 9.65,0.05 13.22,4.41 3.28,4.01 11.61,10.92 0,10.83 -82.05,-0.69 -172.37,-3.02 -244.44,-2.25 -15.72,0.16 -31.28,2.06 -45.91,1.72 -1.03,-0.03 -1.94,0.55 -2.79,1.43 0.81,0.93 1.69,1.54 2.72,1.57 14.63,0.33 30.07,3.47 45.78,3.83 74.28,1.71 168.65,5.11 249.81,6.71 7.23,0.14 -4.32,26.81 -21.9,18.59z"/>
     <path class="fil2" d="M370.81 480.55c7.48,-0.77 -2.47,15.49 -2.91,10.33 -0.03,-0.27 -0.52,-0.67 -0.46,-3.29 0.02,-0.82 -2.47,-2.6 -2.43,-0.06 0.01,0.96 -7.6,5.75 -7.5,1.22 0.04,-1.64 0.55,-2.72 -2.57,-2.16 -1.38,0.25 0.94,3.51 -3.71,3.4 0.06,-2.43 1.21,-3.87 -2.54,-3.2 -0.61,0.11 0.26,8.21 -3.44,4.34 -1.37,-1.43 2.1,-4.05 -4.2,-2.92 -3.56,0.64 -4.56,-1.61 -8.16,5.45 -2.91,5.71 -9.4,1.17 -4.27,-1.27 0.07,-0.03 3.83,-3.7 -2.87,-3.85 -9.45,-0.22 -11.1,-4.01 -17.84,7.46 -0.82,1.39 -12.13,19.97 -13.51,19.39 -5.89,-2.48 6.77,-12.29 7.66,-16.68 0.79,-3.91 8.87,-11.17 1.44,-9.83 -5.28,0.94 -6.17,1.91 -9.89,5.28 -2.32,2.1 -5.4,5.11 -8.68,7.02 -0.46,0.27 -2.78,2.95 -4.73,-0.54 -1.49,-2.66 14.44,-13.11 3.82,-12.36 -3.59,0.26 -5.03,-0.53 -6.76,3.48 -1.79,4.14 -10.67,12.02 -10.21,4.63 0.09,-1.34 12.78,-9.51 1.22,-8.11 -4.69,0.57 -1.59,-2.64 -6.59,5.19 -3.21,5.02 -4.98,2.38 -2.2,-1.99 3.65,-5.73 -2.68,-5.46 -3.37,-1.93 -0.01,0.07 -5.43,9.41 -7.35,9.37 -4.27,-0.1 -1.18,-2.86 -0.02,-4.69 2.03,-3.19 9.01,-9.59 -2.44,-8.91 -0.74,0.04 -1.61,-1.77 -3.24,3.13 -0.98,2.94 -5.69,3.28 -2.7,-3.53 1.1,-2.51 -2.64,-3.13 -6.22,-3.35 -0.5,-0.04 -2.51,6.19 -2.7,6.85 -1.44,0.26 -4.14,1.37 -3.22,-2.67 0.42,-1.84 4.49,-4.09 -3.07,-4.99 -4.25,-0.5 -2.62,0.95 -4.77,6.74 -0.57,1.54 -3.31,2.65 -1.81,-5.75 0.02,-0.08 -3.05,-2.17 -4.31,-1.45 -1.37,0.79 -0.83,2.2 -1.23,3.22 -0.46,1.2 -2.7,4.57 -4.26,1.27 -1.63,-3.44 2.25,-4.15 1.22,-4.61 -0.57,-0.26 -3.24,-0.33 -7.74,-1 -0.52,-1.64 0.55,7.4 -4.52,5.51 -0.22,-0.68 -0.02,-4.1 0,-5.01 -2.68,-0.06 -8.23,-1.87 -8.95,0.06 -0.7,1.9 -1.76,5.34 -3.59,5.93 -4.89,1.59 -0.53,-7.07 -1.44,-7.09 -7.21,-0.16 -6.85,-1.32 -8.26,5.99 0,0.02 -3.18,2.15 -2.01,-3 0.55,-2.44 -7.62,-2.86 -8.01,-1.76 -1.03,2.94 -36.43,-2.33 -28.25,-5.83 11.4,-4.89 226.85,6.28 233.59,6.57z"/>
     <path class="fil2" d="M377.56 476.06c3.56,-3.41 -8.42,-16.36 -9.1,-11.22 -0.03,0.27 -0.55,0.65 -0.61,3.27 -0.02,0.82 -2.59,2.48 -2.43,-0.06 0.06,-0.95 -7.32,-6.09 -7.43,-1.56 -0.04,1.64 0.42,2.74 -2.66,2.04 -1.38,-0.31 1.09,-3.46 -3.55,-3.57 -0.06,2.44 1.02,3.93 -2.7,3.08 -0.59,-0.14 0.64,-8.18 -3.24,-4.49 -1.42,1.36 1.92,4.15 -4.32,2.72 -3.52,-0.8 -4.62,1.4 -7.9,-5.82 -2.65,-5.83 -9.34,-1.6 -4.32,1.07 0.07,0.04 3.65,3.88 -3.05,3.72 -9.45,-0.21 -11.27,3.49 -17.48,-8.27 -0.75,-1.44 -11.2,-20.52 -12.6,-20 -6,2.21 6.19,12.59 6.88,17.02 0.61,3.94 8.35,11.56 0.99,9.89 -5.23,-1.19 -6.08,-2.2 -9.64,-5.74 -2.22,-2.2 -5.79,-7.97 -8.98,-10.03 -0.45,-0.29 -1.78,-2.53 -3.9,0.87 -1.6,2.58 13.61,15.83 3.04,14.59 -3.58,-0.42 -5.05,0.3 -6.6,-3.78 -1.6,-4.22 -10.1,-12.5 -9.98,-5.09 0.02,1.34 12.33,10.08 0.84,8.15 -4.66,-0.78 -1.71,2.56 -6.35,-5.49 -2.97,-5.16 -4.86,-2.61 -2.28,1.89 3.38,5.89 -2.93,5.34 -3.46,1.77 0,-0.06 -4.99,-9.65 -6.91,-9.69 -4.27,-0.1 -1.31,2.8 -0.23,4.68 1.87,3.28 8.55,9.99 -2.85,8.79 -0.74,-0.08 -1.69,1.69 -3.1,-3.28 -0.84,-2.98 -5.53,-3.54 -2.86,3.4 0.99,2.56 -2.78,3.01 -6.36,3.07 -0.5,0.01 -2.23,-6.3 -2.38,-6.97 -1.43,-0.33 -4.08,-1.56 -3.35,2.51 0.34,1.86 4.3,4.3 -3.29,4.84 -4.27,0.31 -2.57,-1.06 -4.46,-6.94 -0.5,-1.57 -3.18,-2.81 -2.07,5.65 0.01,0.09 -3.14,2.04 -4.37,1.26 -1.33,-0.85 -0.73,-2.24 -1.08,-3.28 -0.4,-1.22 -2.48,-4.69 -4.2,-1.46 -1.79,3.36 2.05,4.25 1.01,4.66 -0.58,0.23 -3.25,0.18 -7.78,0.64 -0.6,1.62 0.89,-7.37 -4.26,-5.71 -0.25,0.67 -0.21,4.1 -0.23,5 -2.68,-0.06 -8.31,1.49 -8.94,-0.47 -0.61,-1.92 -1.51,-5.42 -3.31,-6.09 -4.81,-1.81 -0.86,7.04 -1.77,7.02 -7.21,-0.17 -7.75,1.86 -7.97,-2.46 0,-0.02 -6.07,-4.4 -5.14,0.8 0.44,2.46 -0.09,2.37 -4.81,2.46 -3.83,0.08 -22.13,2.24 -17.78,3.34 11.71,2.96 222.57,3.25 229.32,3.27z"/>
    </g>
    <g>
     <path class="fil1" d="M454.47 506.44c4.29,-1.76 23.98,-4.67 24.11,-1.15 0.3,-1.3 0.5,5.77 3.66,11.06 1.78,2.96 8.77,1.15 17.76,-1.6 1.85,-0.56 8.63,-1.93 9.14,0.42 2.09,9.63 4.02,11.05 11.1,20.52 4.2,5.61 9.51,-5.02 12.33,4.88 0.86,3.01 5.81,4.05 7.85,3.62 0.65,-0.14 4.93,-3.23 3.56,-7.39 -2.41,-7.25 8.67,-0.18 0.97,-17.1 -3.59,-7.89 3.7,-1.36 11.18,-4.4 12.01,-4.88 3.48,16.93 18.7,19.64 7.71,1.37 8.22,3.99 13.83,-7.32 2.54,-5.12 -15.36,-17.93 -5.75,-20.33 13.41,-3.36 11.31,-0.62 17.49,8.1 3.04,4.28 3.6,8.99 7.57,11.65 1.63,1.08 11.35,-0.14 14.14,-0.64 4.62,-0.83 -1.69,-10.73 -6.97,-17.55 -3.07,-3.97 3.46,-4.45 8.22,-5.08 1.57,-0.21 4.95,1.44 6.26,3.32 1.53,2.2 5.12,11.91 -1.04,14.29 -1,0.38 -0.86,1.66 0.08,2.48 2.11,1.82 3.67,-2.27 6.19,1.11 0.41,0.55 -0.87,1.28 -1.92,2.98 -0.13,0.21 -0.73,1.95 0.86,2.17 2.3,0.32 5.51,-2.76 4.23,-1.66 -0.55,0.47 3.56,3.05 -0.66,5.01 -3.53,1.64 1.99,7.94 4.91,7.25 6.62,-1.55 8.71,0.77 9.96,0.07 2.91,-1.62 1.91,-2.03 3.53,-10.44 1.57,-8.13 -6.98,-16.32 -7.01,-16.35 -4.44,-5.56 -7.88,-12.55 -6.59,-12.52 7.56,0.17 8.46,-3.5 10.09,4.22 1.06,4.97 9.81,3.17 5.77,-4.2 1.56,-2.56 9.38,2.37 9.2,10.31 -0.1,4.32 -2.51,6.92 4.34,7.25 1.61,0.08 0.89,-5.36 4.75,1.35 2.01,3.5 -6.47,11.26 2.78,12.1 3.22,0.33 8.83,-9.5 7.11,-0.53 -2.29,11.88 0.99,4.58 6.83,17.55 0.94,2.1 10.73,1.28 14.22,-0.36 1.48,-0.71 2.06,-4.68 2.43,-14.54 0.07,-1.86 -4.59,-7.94 -6.3,-10.07 -2.45,-3.05 -2.13,-4.5 -10.6,-3.34 -4.48,0.62 -3.88,-2.68 1.34,-5.49 1.66,-0.9 -2.28,-5.39 -3.39,-4.83 -6.75,3.41 -6.01,-1.51 -10.53,-8.8 -2.33,-3.76 5.88,-4.57 7.24,0.97 0.65,2.66 2.71,2.76 4.95,2.44 3.01,-0.44 3.24,-2.32 2.12,-5.38 -1.34,-3.63 4.25,-5.72 8.31,5.06 2.75,7.32 5.51,13.18 8.87,15.43 2.83,1.9 13.05,-2.02 10.13,-6.83 -4.48,-7.39 -15.11,-17.89 -6.54,-17.5 1.75,0.08 2.69,6.93 3.99,6.79 1.98,-0.21 4.11,-0.93 3.88,-1.76 -2.38,-8.46 0.6,-8.62 3.8,-3.44 0.21,0.35 7.89,16.88 10.6,17.12 2.19,0.2 4.75,0.21 8.15,-3.44 1.88,-2.02 -9.92,-15.88 -8.79,-17.85 0.37,-0.65 3.54,4.46 7.73,7.3 0.06,0.04 2.8,-0.95 2.82,-1.88 0.04,-1.41 -1.81,-8.49 0.32,-4.97 0.95,1.58 20.91,2.2 22.94,0.31 2.23,-2.06 3.71,-3.25 4.76,-4.41 0.37,-0.06 0.77,-0.74 -0.04,-1.11 -1.33,-1.47 -2.7,-2.64 -4.83,-4.67 -2.01,-1.93 -21.56,-2.23 -22.59,-0.7 -2.29,3.43 -0.12,-3.56 -0.08,-4.98 0.02,-0.93 -2.67,-2.04 -2.74,-2 -4.31,2.64 -7.72,7.6 -8.06,6.93 -1.03,-2.02 11.39,-15.32 9.61,-17.42 -3.23,-3.81 -5.79,-3.91 -7.98,-3.82 -2.72,0.12 -11.16,16.28 -11.39,16.62 -3.43,5.03 -6.4,4.73 -3.63,-3.61 0.27,-0.82 -1.82,-1.64 -3.79,-1.94 -1.3,-0.2 -2.55,6.6 -4.3,6.6 -8.59,-0.01 2.52,-10.01 7.33,-17.18 3.14,-4.67 -6.88,-9.05 -9.8,-7.29 -3.46,2.1 -6.49,7.82 -9.57,15 -4.55,10.59 -10.04,8.24 -8.53,4.67 1.26,-2.99 1.11,-4.89 -1.87,-5.46 -2.23,-0.43 -4.29,-0.42 -5.06,2.2 -1.62,5.47 -9.78,4.28 -7.28,0.64 4.85,-7.07 4.34,-12.02 10.93,-8.31 1.08,0.62 5.22,-3.69 3.6,-4.66 -5.08,-3.05 -5.52,-6.37 -1.08,-5.55 8.4,1.55 8.15,0.09 10.75,-2.85 1.79,-2.05 6.73,-7.91 6.74,-9.77 0.09,-9.87 -0.3,-13.86 -1.75,-14.63 -3.41,-1.81 -13.15,-3.07 -14.19,-1.02 -6.43,12.69 -9.37,5.25 -7.63,17.22 1.31,9.04 -3.84,-1.05 -7.07,-0.86 -9.29,0.42 -1.17,8.56 -3.34,11.96 -4.16,6.53 -3.19,1.13 -4.81,1.13 -6.86,0.02 -4.57,2.72 -4.67,7.04 -0.19,7.94 -8.22,12.51 -9.67,9.88 4.38,-7.18 -4.28,-9.38 -5.56,-4.47 -1.99,7.65 -2.71,3.93 -10.28,3.76 -1.29,-0.03 -5.12,-1.47 -0.43,-6.82 5.11,-5.82 24.65,-23.42 14.75,-32.8 -1.04,-0.99 -7.02,-0.84 -11.67,-0.95 -4.45,-0.1 -11.13,12.63 -12.3,13.75 -1.35,1.31 -4.27,3.8 -2.18,7.33 3.41,5.77 -0.88,7.75 -2.98,10.47 -1.39,1.82 -7.82,4.8 -9.39,4.52 -4.72,-0.85 -5.7,-0.28 -2.45,-4.1 5.59,-6.58 12.35,-16.17 7.78,-17.22 -2.77,-0.62 -12.43,-2.3 -14.1,-1.28 -4.09,2.47 -4.87,7.14 -8.1,11.27 -6.58,8.44 -4.6,11.26 -17.85,7.3 -9.48,-2.84 8.98,-14.82 6.68,-20.04 -5.08,-11.57 -5.71,-8.97 -13.47,-7.96 -15.33,2.01 -7.82,24.19 -19.59,18.76 -7.33,-3.38 -14.92,2.81 -10.97,-4.91 8.47,-16.55 -2.92,-9.99 -0.18,-17.13 1.57,-4.08 -2.57,-7.37 -3.21,-7.54 -2.02,-0.52 -7.01,0.29 -8.01,3.25 -3.27,9.76 -7.15,3.26 -11.6,8.68 -2.76,3.35 0.57,4.29 -2.49,7.88 -0.41,0.48 -2.54,0.35 -3.35,0.74 -1.19,0.58 -2.35,3.48 1.39,5.31 0.61,0.3 -0.35,2.14 -2.05,2.33 -2.26,0.24 -5.57,-1.12 -5.88,0.06 -0.62,2.32 -7.92,-0.06 -9.74,-0.71 -8.86,-3.15 -15.76,-5.28 -17.67,-2.41 -3.4,5.14 -3.61,5.87 -5.69,9.02 -3.12,2.32 -20.57,2.73 -24.98,1.28 -12.1,-3.99 -9.63,-0.4 -13.4,3.8 -3.46,3.85 -12.11,10.37 -0.5,10.81 81.99,3.1 172.32,4.92 244.28,9.01 15.7,0.89 31.16,3.5 45.78,3.83 1.03,0.03 1.92,0.64 2.73,1.57 -0.85,0.89 -1.77,1.46 -2.8,1.43 -14.62,-0.34 -30.19,2.08 -45.9,1.72 -74.28,-1.71 -168.71,-2.66 -249.86,-4.8 -7.22,-0.19 3.08,26.98 21.02,19.58z"/>
     <path class="fil2" d="M454.8 482.74c-7.44,-1.11 1.75,15.59 2.43,10.46 0.04,-0.28 0.55,-0.66 0.61,-3.28 0.02,-0.81 2.59,-2.47 2.43,0.06 -0.06,0.95 7.33,6.09 7.43,1.56 0.04,-1.64 -0.42,-2.74 2.67,-2.04 1.37,0.32 -1.1,3.47 3.55,3.57 0.05,-2.43 -1.03,-3.92 2.69,-3.08 0.6,0.14 -0.64,8.19 3.24,4.49 1.42,-1.36 -1.92,-4.14 4.33,-2.72 3.52,0.8 4.62,-1.4 7.89,5.82 2.65,5.83 9.34,1.6 4.32,-1.07 -0.06,-0.03 -3.65,-3.87 3.06,-3.72 9.44,0.22 11.27,-3.49 17.47,8.28 0.76,1.43 11.2,20.51 12.61,19.99 5.99,-2.21 -6.2,-12.58 -6.89,-17.01 -0.61,-3.95 -8.35,-11.57 -0.99,-9.89 5.23,1.19 6.08,2.19 9.64,5.73 2.22,2.2 5.16,5.36 8.35,7.41 0.45,0.3 2.64,3.08 4.75,-0.32 1.61,-2.59 -13.83,-13.76 -3.25,-12.52 3.58,0.42 5.04,-0.3 6.59,3.79 1.6,4.21 10.11,12.49 9.99,5.09 -0.03,-1.35 -12.33,-10.09 -0.84,-8.15 4.65,0.78 1.71,-2.57 6.34,5.48 2.97,5.17 4.87,2.61 2.29,-1.89 -3.38,-5.88 2.93,-5.33 3.45,-1.77 0.01,0.07 4.99,9.65 6.91,9.7 4.27,0.1 1.31,-2.81 0.24,-4.68 -1.88,-3.28 -8.56,-10 2.85,-8.8 0.73,0.08 1.68,-1.69 3.09,3.29 0.85,2.98 5.53,3.54 2.86,-3.41 -0.99,-2.55 2.78,-3.01 6.36,-3.06 0.5,-0.01 2.23,6.3 2.39,6.97 1.42,0.33 4.07,1.56 3.34,-2.52 -0.33,-1.86 -4.3,-4.3 3.29,-4.84 4.27,-0.3 2.57,1.06 4.46,6.95 0.5,1.56 3.18,2.8 2.07,-5.66 -0.01,-0.08 3.14,-2.03 4.37,-1.25 1.33,0.85 0.73,2.23 1.08,3.28 0.4,1.21 2.48,4.69 4.2,1.45 1.79,-3.35 -2.05,-4.24 -1.01,-4.66 0.58,-0.23 3.26,-0.18 7.78,-0.64 0.6,-1.61 -0.89,7.37 4.26,5.71 0.25,-0.66 0.22,-4.09 0.24,-5 2.67,0.07 8.3,-1.49 8.93,0.47 0.62,1.93 1.52,5.42 3.32,6.1 4.81,1.8 0.85,-7.04 1.76,-7.02 7.21,0.16 6.91,-1.01 7.97,6.36 0.01,0.02 3.08,2.3 2.15,-2.9 -0.44,-2.47 7.75,-2.51 8.08,-1.39 0.9,2.98 36.5,-0.65 28.49,-4.53 -11.16,-5.41 -226.89,-4.17 -233.64,-4.19z"/>
     <path class="fil2" d="M448.26 477.95c-3.39,-3.58 9.16,-15.96 9.61,-10.79 0.02,0.27 0.52,0.67 0.46,3.29 -0.02,0.82 2.47,2.6 2.43,0.06 -0.02,-0.96 7.59,-5.75 7.49,-1.22 -0.04,1.64 -0.55,2.72 2.57,2.16 1.39,-0.25 -0.94,-3.51 3.71,-3.4 -0.06,2.43 -1.21,3.87 2.54,3.19 0.61,-0.1 -0.25,-8.2 3.45,-4.33 1.36,1.42 -2.1,4.05 4.2,2.92 3.55,-0.64 4.55,1.61 8.15,-5.45 2.92,-5.71 9.41,-1.17 4.27,1.26 -0.07,0.04 -3.83,3.71 2.88,3.86 9.45,0.22 11.09,4 17.84,-7.46 0.82,-1.4 12.13,-19.98 13.51,-19.39 5.88,2.48 -6.77,12.28 -7.66,16.68 -0.8,3.91 -8.88,11.16 -1.44,9.83 5.27,-0.95 6.17,-1.91 9.88,-5.28 2.32,-2.1 6.16,-7.7 9.44,-9.61 0.46,-0.27 1.9,-2.45 3.85,1.04 1.49,2.66 -14.32,15.19 -3.7,14.44 3.6,-0.25 5.03,0.54 6.76,-3.47 1.8,-4.14 10.67,-12.02 10.21,-4.63 -0.08,1.34 -12.78,9.5 -1.21,8.1 4.68,-0.56 1.59,2.65 6.59,-5.18 3.2,-5.02 4.98,-2.39 2.19,1.99 -3.64,5.72 2.69,5.46 3.37,1.93 0.01,-0.07 5.43,-9.41 7.35,-9.37 4.27,0.1 1.18,2.86 0.02,4.69 -2.02,3.18 -9,9.59 2.44,8.91 0.74,-0.04 1.61,1.77 3.25,-3.14 0.98,-2.93 5.69,-3.28 2.69,3.54 -1.1,2.5 2.65,3.13 6.22,3.35 0.5,0.03 2.51,-6.19 2.71,-6.85 1.43,-0.26 4.13,-1.37 3.22,2.66 -0.42,1.85 -4.49,4.1 3.06,4.99 4.25,0.5 2.62,-0.94 4.77,-6.73 0.58,-1.54 3.31,-2.65 1.81,5.74 -0.01,0.09 3.05,2.18 4.31,1.46 1.37,-0.79 0.84,-2.2 1.23,-3.23 0.46,-1.19 2.7,-4.57 4.27,-1.26 1.62,3.43 -2.25,4.15 -1.23,4.61 0.57,0.26 3.25,0.33 7.74,1 0.53,1.64 -0.55,-7.41 4.53,-5.51 0.21,0.67 0.02,4.1 0,5 2.67,0.07 8.22,1.88 8.94,-0.05 0.7,-1.9 1.77,-5.35 3.59,-5.94 4.89,-1.58 0.54,7.08 1.45,7.1 7.21,0.16 7.65,2.21 8.07,-2.09 0.01,-0.02 6.27,-4.12 5.1,1.03 -0.55,2.44 -0.02,2.37 4.69,2.68 3.82,0.26 22,3.26 17.61,4.16 -11.84,2.42 -222.49,-7.01 -229.23,-7.29z"/>
    </g>
    <g>
     <path class="fil1" d="M459.03 465.7c0.61,-4.6 7.94,-23.11 11.05,-21.45 -0.98,-0.91 5.25,2.45 11.41,2.35 3.45,-0.05 5.38,-7.02 7.5,-16.17 0.44,-1.89 2.65,-8.44 4.93,-7.71 9.39,3 11.58,2.04 23.32,0.64 6.96,-0.82 0.41,-10.74 10.39,-8.23 3.04,0.76 6.42,-3.01 7.06,-4.99 0.21,-0.63 -0.33,-5.89 -4.61,-6.77 -7.49,-1.55 4.17,-7.6 -14.33,-9.4 -8.63,-0.83 0.67,-3.88 1.78,-11.88 1.77,-12.84 16.41,5.45 26.36,-6.38 5.04,-5.99 7.56,-5.11 0.57,-15.63 -3.16,-4.76 -23.2,4.33 -20.48,-5.19 3.8,-13.29 5.11,-10.1 15.77,-11.1 5.22,-0.48 9.58,1.38 13.86,-0.73 1.76,-0.86 5.56,-9.9 6.52,-12.56 1.59,-4.42 -10.14,-3.9 -18.68,-2.74 -4.98,0.67 -2.12,-5.22 -0.29,-9.66 0.61,-1.46 3.72,-3.56 6,-3.76 2.68,-0.23 12.88,1.52 11.86,8.05 -0.17,1.05 1,1.57 2.19,1.16 2.63,-0.91 -0.13,-4.31 4.06,-4.8 0.68,-0.08 0.67,1.4 1.61,3.15 0.12,0.22 1.32,1.61 2.31,0.35 1.43,-1.84 0.37,-6.16 0.68,-4.5 0.14,0.71 4.42,-1.55 4.01,3.08 -0.35,3.87 7.87,2.24 8.74,-0.63 1.96,-6.51 5.02,-7.15 5.04,-8.59 0.04,-3.33 -0.81,-2.67 -7.28,-8.28 -6.26,-5.42 -17.62,-2.11 -17.67,-2.1 -7.04,1.07 -14.81,0.55 -14.14,-0.56 3.94,-6.46 1.2,-9.07 8.71,-6.62 4.82,1.57 7.64,-6.91 -0.76,-7.1 -1.44,-2.63 6.75,-6.94 13.53,-2.81 3.69,2.25 4.73,5.63 8.45,-0.14 0.87,-1.36 -4.19,-3.45 3.54,-3.43 4.04,0 6.52,11.23 11.88,3.64 1.89,-2.62 -3.82,-12.4 3.09,-6.42 9.14,7.92 4.46,1.43 18.61,2.86 2.29,0.23 6.48,-8.65 6.79,-12.5 0.14,-1.63 -3.01,-4.12 -11.36,-9.37 -1.58,-0.99 -9.18,0 -11.87,0.42 -3.87,0.59 -4.97,-0.4 -8.19,7.51 -1.71,4.18 -4.27,2.01 -4.1,-3.91 0.06,-1.89 -5.8,-0.72 -5.87,0.52 -0.42,7.56 -4.31,4.45 -12.89,4.72 -4.41,0.14 -1.01,-7.37 4.47,-5.78 2.62,0.76 3.74,-0.96 4.58,-3.07 1.12,-2.82 -0.39,-3.97 -3.59,-4.52 -3.82,-0.66 -2.84,-6.55 8.53,-4.67 7.72,1.28 14.17,1.81 17.8,0.03 3.06,-1.5 4.77,-12.31 -0.86,-12.19 -8.63,0.19 -23.04,4.15 -18.42,-3.08 0.94,-1.48 7.35,1.13 7.88,-0.07 0.8,-1.82 1.25,-4.02 0.41,-4.23 -8.52,-2.17 -7.16,-4.83 -1.08,-5.01 0.41,-0.01 18.57,1.6 20.13,-0.63 1.27,-1.79 2.56,-4 1.09,-8.77 -0.81,-2.64 -18.71,0.65 -19.85,-1.31 -0.38,-0.65 5.64,-0.84 10.18,-3.05 0.07,-0.04 0.59,-2.9 -0.21,-3.38 -1.21,-0.74 -8.26,-2.68 -4.14,-2.76 1.84,-0.04 12.36,-17.01 11.74,-19.72 -0.68,-2.95 -0.97,-4.84 -1.44,-6.32 0.12,-0.35 -0.26,-1.04 -0.98,-0.53 -1.94,0.43 -3.64,1.03 -6.47,1.85 -2.66,0.78 -12.71,17.56 -11.89,19.22 1.82,3.69 -3.15,-1.68 -4.36,-2.42 -0.8,-0.48 -3.1,1.29 -3.1,1.37 0.13,5.05 2.72,10.48 1.97,10.45 -2.26,-0.12 -7.57,-17.52 -10.28,-17.03 -4.92,0.89 -6.28,3.05 -7.3,5 -1.25,2.41 8.53,17.8 8.7,18.17 2.64,5.48 0.9,7.91 -4.95,1.33 -0.57,-0.64 -2.32,0.77 -3.57,2.32 -0.82,1.03 4.44,5.51 3.57,7.03 -4.3,7.43 -7.41,-7.19 -11.21,-14.95 -2.48,-5.05 -11.29,1.44 -11.22,4.85 0.09,4.04 3.53,9.52 8.21,15.79 6.89,9.23 2.12,12.81 -0.22,9.72 -1.97,-2.59 -3.68,-3.41 -5.67,-1.11 -1.49,1.71 -2.51,3.5 -0.62,5.48 3.93,4.14 -1.18,10.61 -3.08,6.63 -3.71,-7.75 -8.25,-9.78 -1.74,-13.62 1.07,-0.63 -0.58,-6.38 -2.23,-5.46 -5.18,2.88 -8.29,1.61 -5.35,-1.84 5.54,-6.5 4.15,-7.01 2.9,-10.73 -0.87,-2.58 -3.48,-9.78 -5.08,-10.73 -8.51,-5 -12.16,-6.66 -13.55,-5.79 -3.27,2.05 -9.24,9.86 -7.98,11.78 7.78,11.91 -0.14,10.74 11.1,15.22 8.48,3.38 -2.83,2.8 -4.28,5.69 -4.28,8.25 6.83,5.29 8.69,8.87 3.57,6.87 -0.62,3.33 -1.43,4.73 -3.41,5.95 0.07,5.32 3.77,7.57 6.78,4.13 6.72,13.38 3.72,13.31 -4.03,-7.38 -10.27,-0.98 -6.65,2.58 5.62,5.55 2.04,4.32 -1.89,10.78 -0.67,1.11 -3.84,3.7 -6.12,-3.03 -2.49,-7.34 -7.95,-33.07 -21.03,-29.18 -1.38,0.41 -4.24,5.66 -6.66,9.64 -2.31,3.8 5.38,15.95 5.76,17.52 0.45,1.83 1.16,5.6 5.25,5.56 6.71,-0.07 6.27,4.63 7.59,7.81 0.87,2.11 0.24,9.17 -0.79,10.39 -3.09,3.67 -3.09,4.8 -4.78,0.07 -2.89,-8.13 -7.82,-18.78 -11.01,-15.34 -1.93,2.08 -8.21,9.61 -8.17,11.57 0.1,4.77 3.75,7.79 5.72,12.65 4.01,9.92 7.45,9.61 -2.61,19.1 -7.2,6.8 -8.34,-15.18 -14.02,-15.81 -12.55,-1.37 -10.62,0.47 -13.62,7.7 -5.93,14.27 17.04,18.86 6.45,26.34 -6.59,4.66 -5.03,14.32 -9.73,7.05 -10.1,-15.61 -10.12,-2.48 -14.93,-8.41 -2.75,-3.4 -7.67,-1.47 -8.14,-0.99 -1.46,1.48 -3.25,6.22 -1.18,8.56 6.81,7.71 -0.76,7.82 1.71,14.39 1.52,4.05 4,1.64 5.58,6.1 0.21,0.59 -0.97,2.36 -1.03,3.26 -0.1,1.32 1.84,3.78 5.28,1.45 0.57,-0.38 1.69,1.38 1,2.94 -0.92,2.08 -3.76,4.27 -2.89,5.13 1.7,1.7 -4.01,6.83 -5.48,8.08 -7.16,6.09 -12.46,11.01 -10.92,14.09 2.74,5.52 3.27,6.07 4.96,9.44 0.45,3.86 -7.92,19.18 -11.38,22.27 -9.51,8.49 -5.16,8.15 -3.41,13.51 1.6,4.92 2.93,15.67 9.11,5.84 43.68,-69.46 90.43,-146.78 129.95,-207.05 8.62,-13.15 18.6,-25.24 26.21,-37.73 0.53,-0.88 1.51,-1.34 2.72,-1.58 0.34,1.18 0.38,2.26 -0.16,3.14 -7.6,12.49 -13.29,27.19 -21.46,40.61 -38.62,63.47 -86.66,144.78 -129.09,213.98 -3.77,6.16 24.91,10.83 27.47,-8.41z"/>
     <path class="fil2" d="M438.66 453.57c-4.68,5.89 14.38,6.27 10.28,3.12 -0.22,-0.17 -0.29,-0.81 -2.53,-2.17 -0.7,-0.42 -0.85,-3.48 1.26,-2.07 0.8,0.52 8.94,-3.3 5.07,-5.66 -1.4,-0.85 -2.58,-1 -0.43,-3.33 0.95,-1.03 2.45,2.69 4.86,-1.28 -2.08,-1.27 -3.91,-1.08 -1.32,-3.87 0.42,-0.45 6.77,4.64 5.51,-0.56 -0.46,-1.92 -4.55,-0.42 -0.19,-5.11 2.45,-2.65 1.1,-4.71 8.99,-3.93 6.37,0.62 6.05,-7.29 1.23,-4.28 -0.07,0.04 -5.18,1.22 -1.7,-4.5 4.92,-8.07 2.62,-11.51 15.91,-11 1.62,0.06 23.36,0.56 23.62,-0.92 1.08,-6.29 -14,-0.92 -18.18,-2.54 -3.72,-1.45 -14.19,1.45 -9.06,-4.09 3.65,-3.93 4.94,-4.17 9.78,-5.48 3.02,-0.82 7.22,-1.79 10.6,-3.52 0.48,-0.25 3.98,-0.75 2.09,-4.28 -1.43,-2.69 -18.82,5.09 -12.46,-3.44 2.15,-2.9 2.26,-4.53 6.57,-3.82 4.45,0.72 15.88,-2.51 9.4,-6.1 -1.17,-0.66 -14.89,5.63 -7.48,-3.35 3.01,-3.64 -1.36,-2.77 7.92,-2.75 5.96,0 4.7,-2.91 -0.49,-2.93 -6.78,-0.01 -3.15,-5.2 0.2,-3.87 0.06,0.02 10.85,0.5 11.85,-1.14 2.22,-3.65 -1.78,-2.54 -3.94,-2.55 -3.77,-0.01 -12.93,2.42 -6.19,-6.86 0.44,-0.6 -0.62,-2.31 4.39,-1.04 3,0.76 5.83,-3.02 -1.52,-4.18 -2.7,-0.42 -1.21,-3.91 0.53,-7.04 0.24,-0.44 6.57,1.22 7.23,1.42 1,-1.07 3.39,-2.75 -0.51,-4.15 -1.78,-0.64 -5.87,1.57 -2.54,-5.28 1.87,-3.84 2.2,-1.69 8.24,-0.38 1.61,0.35 4.02,-1.35 -3.86,-4.62 -0.08,-0.03 -0.19,-3.74 1.1,-4.41 1.4,-0.73 2.3,0.48 3.38,0.7 1.25,0.26 5.3,0.19 3.36,-2.91 -2.01,-3.22 -4.71,-0.34 -4.54,-1.46 0.09,-0.61 1.47,-2.91 3.33,-7.05 -1.1,-1.33 5.94,4.45 7.08,-0.84 -0.45,-0.55 -3.44,-2.23 -4.21,-2.7 1.39,-2.29 2.86,-7.94 4.87,-7.5 1.97,0.43 5.45,1.39 6.93,0.17 3.98,-3.26 -5.66,-4.26 -5.19,-5.04 3.75,-6.16 2.58,-6.48 9.49,-3.72 0.02,0.01 3.53,-1.52 -1.43,-3.31 -2.36,-0.85 1.7,-7.96 2.83,-7.7 3.04,0.72 17.69,-31.93 10.33,-26.93 -10.27,6.96 -117.06,194.41 -120.46,200.25z"/>
     <path class="fil2" d="M431.24 456.83c-4.79,1.16 -9.23,-15.91 -4.54,-13.71 0.25,0.11 0.85,-0.12 3.09,1.25 0.69,0.42 3.48,-0.85 1.26,-2.08 -0.83,-0.46 -1.18,-9.46 2.69,-7.1 1.4,0.85 2.08,1.83 3.16,-1.15 0.47,-1.32 -3.51,-0.94 -1.09,-4.91 2.08,1.27 2.75,2.98 4.04,-0.6 0.21,-0.58 -7.23,-3.88 -2.04,-5.15 1.92,-0.47 2.46,3.84 4.63,-2.18 1.23,-3.4 3.67,-3.14 -0.64,-9.79 -3.48,-5.37 3.69,-8.73 3.23,-3.06 0,0.08 1.29,5.16 4.78,-0.57 4.91,-8.07 9.02,-7.6 2.46,-19.17 -0.8,-1.41 -11.24,-20.5 -10.04,-21.4 5.09,-3.86 7.26,12 10.61,14.97 2.99,2.65 5.24,13.27 7.8,6.17 1.82,-5.05 1.43,-6.3 0.37,-11.21 -0.66,-3.05 -3.59,-9.18 -3.61,-12.97 0,-0.54 -1.17,-2.87 2.84,-2.82 3.04,0.04 5.99,20 10.65,10.43 1.58,-3.24 2.98,-4.09 0.37,-7.6 -2.69,-3.62 -5.07,-15.25 1.1,-11.15 1.12,0.74 1.84,15.82 6.41,5.1 1.85,-4.34 3.08,-0.05 -1.2,-8.3 -2.74,-5.29 0.43,-5.5 2.82,-0.9 3.14,6.02 6.08,0.4 3.36,-1.96 -0.05,-0.04 -5.44,-9.4 -4.44,-11.04 2.22,-3.65 3.07,0.41 4.07,2.32 1.75,3.35 3.8,12.6 8.94,2.34 0.33,-0.66 2.34,-0.5 -1.09,-4.37 -2.06,-2.32 0,-6.57 4.41,-0.57 1.62,2.2 4.03,-0.73 6.01,-3.71 0.28,-0.42 -4.11,-5.27 -4.58,-5.77 0.49,-1.37 0.88,-4.27 3.92,-1.46 1.38,1.29 1.3,5.94 5.85,-0.16 2.56,-3.43 0.49,-2.73 -3.45,-7.5 -1.04,-1.26 -0.64,-4.18 5.88,1.31 0.07,0.05 3.41,-1.55 3.41,-3 0.01,-1.59 -1.48,-1.83 -2.17,-2.68 -0.81,-1 -2.61,-4.62 1.04,-4.33 3.78,0.31 2.46,4.02 3.38,3.37 0.5,-0.37 1.9,-2.64 4.73,-6.21 1.68,0.37 -6.69,-3.22 -2.51,-6.67 0.7,0.15 3.57,2.03 4.34,2.5 1.39,-2.28 5.73,-6.18 4.42,-7.77 -1.29,-1.56 -3.75,-4.2 -3.34,-6.08 1.07,-5.03 6.39,3.07 6.86,2.3 3.75,-6.16 5.74,-5.53 2.23,-8.04 -0.01,-0.01 -0.43,-7.49 3.44,-3.9 1.84,1.7 2.04,1.21 4.67,-2.72 2.13,-3.18 13.83,-17.42 12.41,-13.17 -3.83,11.46 -117.31,189.18 -120.94,194.87z"/>
    </g>
    <g>
     <path class="fil1" d="M369.33 492.2c-0.61,4.59 -7.94,23.1 -11.05,21.44 0.98,0.92 -5.25,-2.44 -11.41,-2.35 -3.45,0.06 -5.38,7.02 -7.5,16.18 -0.43,1.89 -2.64,8.43 -4.93,7.7 -9.38,-3 -11.58,-2.04 -23.31,-0.64 -6.96,0.83 -0.42,10.74 -10.4,8.24 -3.03,-0.76 -6.41,3 -7.06,4.98 -0.2,0.64 0.34,5.89 4.62,6.78 7.49,1.54 -4.17,7.6 14.33,9.39 8.62,0.84 -0.68,3.89 -1.78,11.89 -1.78,12.84 -16.41,-5.45 -26.37,6.37 -5.04,5.99 -7.56,5.12 -0.57,15.64 3.17,4.75 23.21,-4.33 20.49,5.18 -3.81,13.3 -5.12,10.1 -15.77,11.1 -5.22,0.49 -9.58,-1.38 -13.87,0.73 -1.75,0.87 -5.55,9.9 -6.52,12.57 -1.59,4.41 10.14,3.9 18.69,2.74 4.97,-0.68 2.12,5.21 0.28,9.65 -0.6,1.47 -3.71,3.57 -6,3.76 -2.67,0.23 -12.87,-1.51 -11.85,-8.04 0.17,-1.06 -1.01,-1.58 -2.19,-1.17 -2.64,0.91 0.12,4.31 -4.06,4.8 -0.68,0.08 -0.67,-1.39 -1.62,-3.14 -0.11,-0.22 -1.32,-1.62 -2.31,-0.35 -1.42,1.84 -0.36,6.15 -0.67,4.49 -0.14,-0.71 -4.43,1.56 -4.01,-3.08 0.34,-3.87 -7.87,-2.23 -8.74,0.63 -1.96,6.51 -5.02,7.16 -5.04,8.59 -0.05,3.33 0.8,2.68 7.27,8.28 6.26,5.43 17.63,2.11 17.68,2.11 7.03,-1.07 14.8,-0.56 14.13,0.55 -3.93,6.46 -1.2,9.07 -8.71,6.63 -4.82,-1.57 -7.64,6.9 0.77,7.09 1.43,2.64 -6.75,6.94 -13.53,2.81 -3.7,-2.24 -4.74,-5.63 -8.45,0.14 -0.88,1.36 4.19,3.45 -3.55,3.44 -4.03,-0.01 -6.51,-11.23 -11.87,-3.64 -1.9,2.62 3.81,12.4 -3.09,6.42 -9.15,-7.92 -4.47,-1.43 -18.61,-2.86 -2.29,-0.24 -6.48,8.65 -6.8,12.49 -0.13,1.64 3.02,4.12 11.37,9.37 1.58,0.99 9.18,0 11.87,-0.41 3.87,-0.6 4.97,0.4 8.19,-7.51 1.71,-4.19 4.27,-2.02 4.09,3.9 -0.05,1.89 5.81,0.73 5.88,-0.52 0.42,-7.55 4.31,-4.45 12.89,-4.72 4.41,-0.14 1.01,7.38 -4.47,5.78 -2.63,-0.76 -3.74,0.97 -4.58,3.08 -1.13,2.82 0.38,3.96 3.59,4.52 3.82,0.66 2.83,6.54 -8.53,4.66 -7.72,-1.27 -14.17,-1.81 -17.8,-0.02 -3.06,1.5 -4.77,12.3 0.85,12.18 8.64,-0.19 23.05,-4.14 18.43,3.09 -0.95,1.47 -7.35,-1.14 -7.88,0.06 -0.81,1.82 -1.25,4.02 -0.42,4.24 8.52,2.16 7.17,4.83 1.09,5.01 -0.41,0.01 -18.57,-1.6 -20.14,0.62 -1.26,1.8 -2.55,4 -1.09,8.78 0.81,2.63 18.71,-0.65 19.85,1.3 0.38,0.66 -5.63,0.84 -10.18,3.06 -0.07,0.03 -0.58,2.89 0.21,3.38 1.21,0.73 8.27,2.67 4.15,2.76 -1.84,0.03 -12.36,17 -11.74,19.71 0.67,2.96 0.96,4.84 1.44,6.33 -0.13,0.35 0.26,1.04 0.98,0.52 1.94,-0.42 3.64,-1.02 6.46,-1.85 2.67,-0.78 12.71,-17.56 11.9,-19.22 -1.82,-3.69 3.15,1.69 4.35,2.42 0.8,0.49 3.11,-1.29 3.1,-1.36 -0.12,-5.06 -2.72,-10.49 -1.97,-10.45 2.27,0.11 7.57,17.52 10.29,17.03 4.91,-0.89 6.28,-3.05 7.29,-5 1.26,-2.42 -8.52,-17.8 -8.7,-18.17 -2.63,-5.48 -0.89,-7.91 4.95,-1.34 0.58,0.64 2.33,-0.76 3.57,-2.32 0.82,-1.02 -4.44,-5.51 -3.56,-7.02 4.3,-7.43 7.41,7.18 11.21,14.94 2.47,5.05 11.28,-1.44 11.21,-4.84 -0.08,-4.04 -3.52,-9.53 -8.2,-15.8 -6.89,-9.22 -2.12,-12.8 0.22,-9.72 1.96,2.6 3.68,3.41 5.66,1.12 1.49,-1.72 2.51,-3.51 0.63,-5.49 -3.93,-4.13 1.18,-10.6 3.08,-6.62 3.7,7.74 8.25,9.77 1.73,13.62 -1.07,0.63 0.59,6.37 2.24,5.45 5.18,-2.87 8.28,-1.6 5.35,1.84 -5.54,6.5 -4.16,7.02 -2.91,10.73 0.88,2.58 3.49,9.79 5.09,10.73 8.5,5.01 12.16,6.66 13.55,5.79 3.26,-2.04 9.23,-9.85 7.97,-11.78 -7.77,-11.9 0.14,-10.73 -11.09,-15.21 -8.49,-3.39 2.82,-2.81 4.28,-5.7 4.28,-8.25 -6.83,-5.29 -8.69,-8.87 -3.57,-6.86 0.62,-3.33 1.42,-4.73 3.42,-5.95 -0.07,-5.32 -3.76,-7.57 -6.78,-4.12 -6.72,-13.37 -3.72,-13.3 4.03,7.37 10.26,0.98 6.65,-2.59 -5.62,-5.54 -2.05,-4.31 1.88,-10.78 0.68,-1.1 3.84,-3.7 6.13,3.04 2.49,7.34 7.95,33.06 21.03,29.17 1.37,-0.4 4.24,-5.65 6.66,-9.63 2.31,-3.8 -5.38,-15.95 -5.77,-17.53 -0.45,-1.82 -1.15,-5.59 -5.25,-5.55 -6.7,0.07 -6.27,-4.64 -7.58,-7.81 -0.88,-2.12 -0.24,-9.18 0.78,-10.39 3.1,-3.67 3.1,-4.8 4.78,-0.07 2.9,8.12 7.83,18.77 11.02,15.33 1.93,-2.08 8.21,-9.61 8.17,-11.56 -0.1,-4.78 -3.76,-7.79 -5.72,-12.65 -4.02,-9.92 -7.46,-9.62 2.61,-19.11 7.19,-6.79 8.34,15.19 14.01,15.81 12.56,1.38 10.63,-0.46 13.63,-7.69 5.93,-14.28 -17.05,-18.87 -6.46,-26.35 6.6,-4.65 5.03,-14.32 9.74,-7.04 10.1,15.61 10.12,2.47 14.93,8.41 2.75,3.4 7.67,1.46 8.14,0.99 1.46,-1.49 3.25,-6.22 1.18,-8.57 -6.81,-7.71 0.75,-7.82 -1.71,-14.38 -1.52,-4.06 -4,-1.65 -5.58,-6.1 -0.21,-0.59 0.96,-2.37 1.03,-3.27 0.09,-1.31 -1.84,-3.77 -5.29,-1.45 -0.57,0.38 -1.68,-1.38 -0.99,-2.94 0.92,-2.07 3.75,-4.26 2.88,-5.13 -1.7,-1.69 4.01,-6.82 5.49,-8.08 7.16,-6.09 12.46,-11 10.92,-14.09 -2.75,-5.51 -3.27,-6.06 -4.97,-9.44 -0.44,-3.86 7.93,-19.18 11.39,-22.26 9.51,-8.49 5.15,-8.16 3.41,-13.52 -1.61,-4.92 -2.93,-15.66 -9.11,-5.83 -43.69,69.46 -90.43,146.77 -129.95,207.05 -8.62,13.14 -18.61,25.23 -26.21,37.73 -0.54,0.88 -1.51,1.34 -2.72,1.58 -0.34,-1.18 -0.38,-2.26 0.16,-3.14 7.6,-12.5 13.29,-27.19 21.46,-40.62 38.62,-63.47 86.66,-144.77 129.08,-213.98 3.78,-6.16 -24.9,-10.82 -27.47,8.42z"/>
     <path class="fil2" d="M389.71 504.33c4.67,-5.89 -14.39,-6.28 -10.28,-3.12 0.22,0.16 0.29,0.8 2.53,2.16 0.69,0.43 0.85,3.48 -1.27,2.08 -0.79,-0.53 -8.94,3.3 -5.06,5.65 1.4,0.86 2.58,1.01 0.43,3.33 -0.96,1.03 -2.45,-2.68 -4.87,1.29 2.09,1.27 3.91,1.07 1.32,3.87 -0.41,0.45 -6.76,-4.64 -5.51,0.56 0.47,1.92 4.55,0.41 0.2,5.11 -2.46,2.65 -1.1,4.7 -8.99,3.93 -6.37,-0.63 -6.06,7.28 -1.24,4.28 0.07,-0.05 5.19,-1.23 1.7,4.5 -4.91,8.07 -2.61,11.5 -15.9,10.99 -1.62,-0.06 -23.37,-0.56 -23.62,0.92 -1.09,6.3 14,0.93 18.18,2.55 3.72,1.44 14.19,-1.45 9.05,4.09 -3.64,3.93 -4.93,4.16 -9.78,5.48 -3.01,0.82 -7.22,1.79 -10.59,3.52 -0.48,0.24 -3.98,0.75 -2.1,4.28 1.44,2.68 18.83,-5.1 12.47,3.44 -2.15,2.89 -2.26,4.52 -6.57,3.82 -4.46,-0.73 -15.88,2.5 -9.41,6.1 1.18,0.65 14.9,-5.64 7.48,3.35 -3,3.64 1.37,2.76 -7.92,2.75 -5.96,-0.01 -4.69,2.91 0.49,2.92 6.79,0.02 3.16,5.21 -0.19,3.88 -0.06,-0.03 -10.85,-0.5 -11.85,1.14 -2.22,3.65 1.77,2.53 3.94,2.54 3.77,0.02 12.93,-2.41 6.18,6.87 -0.43,0.59 0.63,2.3 -4.39,1.04 -3,-0.76 -5.83,3.01 1.52,4.17 2.71,0.43 1.22,3.92 -0.52,7.04 -0.25,0.44 -6.57,-1.22 -7.23,-1.41 -1,1.06 -3.39,2.74 0.5,4.15 1.78,0.64 5.87,-1.57 2.55,5.27 -1.87,3.85 -2.21,1.7 -8.25,0.39 -1.6,-0.35 -4.01,1.35 3.87,4.62 0.07,0.03 0.19,3.74 -1.1,4.41 -1.41,0.73 -2.3,-0.48 -3.38,-0.7 -1.26,-0.26 -5.3,-0.2 -3.36,2.91 2.01,3.22 4.7,0.34 4.54,1.45 -0.09,0.62 -1.47,2.91 -3.34,7.06 1.1,1.32 -5.93,-4.46 -7.08,0.83 0.46,0.55 3.45,2.24 4.22,2.71 -1.39,2.28 -2.86,7.93 -4.87,7.5 -1.98,-0.43 -5.45,-1.4 -6.94,-0.18 -3.97,3.26 5.67,4.27 5.2,5.04 -3.75,6.16 -2.58,6.49 -9.5,3.72 -0.02,0 -3.53,1.52 1.44,3.32 2.35,0.85 -1.7,7.96 -2.83,7.69 -3.04,-0.72 -17.69,31.93 -10.33,26.94 10.26,-6.96 117.06,-194.41 120.46,-200.25z"/>
     <path class="fil2" d="M397.12 501.06c4.79,-1.15 9.23,15.92 4.54,13.72 -0.24,-0.12 -0.84,0.11 -3.08,-1.25 -0.7,-0.43 -3.48,0.84 -1.26,2.07 0.83,0.47 1.18,9.46 -2.7,7.1 -1.4,-0.85 -2.08,-1.83 -3.15,1.15 -0.48,1.32 3.51,0.94 1.09,4.91 -2.08,-1.26 -2.75,-2.98 -4.04,0.61 -0.21,0.58 7.23,3.88 2.03,5.15 -1.91,0.47 -2.46,-3.85 -4.63,2.18 -1.22,3.39 -3.67,3.13 0.65,9.78 3.48,5.38 -3.69,8.73 -3.24,3.07 0.01,-0.08 -1.29,-5.17 -4.77,0.56 -4.91,8.07 -9.02,7.61 -2.46,19.18 0.8,1.41 11.23,20.49 10.04,21.4 -5.09,3.85 -7.26,-12.01 -10.62,-14.98 -2.99,-2.64 -5.23,-13.27 -7.79,-6.16 -1.82,5.04 -1.43,6.3 -0.37,11.2 0.66,3.06 3.59,9.19 3.6,12.98 0.01,0.54 1.17,2.86 -2.83,2.81 -3.04,-0.04 -5.99,-19.99 -10.65,-10.42 -1.58,3.24 -2.98,4.09 -0.38,7.59 2.7,3.62 5.08,15.25 -1.09,11.15 -1.12,-0.74 -1.84,-15.81 -6.41,-5.1 -1.85,4.34 -3.09,0.06 1.19,8.3 2.75,5.29 -0.42,5.51 -2.82,0.91 -3.13,-6.02 -6.07,-0.41 -3.35,1.95 0.05,0.04 5.43,9.41 4.43,11.05 -2.22,3.65 -3.06,-0.41 -4.07,-2.33 -1.74,-3.34 -3.8,-12.59 -8.94,-2.34 -0.33,0.66 -2.33,0.51 1.1,4.38 2.05,2.32 0,6.57 -4.41,0.57 -1.62,-2.21 -4.03,0.72 -6.01,3.7 -0.28,0.42 4.1,5.28 4.58,5.77 -0.49,1.38 -0.88,4.27 -3.92,1.46 -1.39,-1.28 -1.3,-5.94 -5.85,0.16 -2.56,3.43 -0.5,2.74 3.44,7.5 1.05,1.27 0.65,4.19 -5.87,-1.31 -0.07,-0.05 -3.41,1.56 -3.42,3.01 0,1.58 1.49,1.82 2.18,2.67 0.81,1 2.61,4.63 -1.04,4.33 -3.79,-0.3 -2.47,-4.02 -3.38,-3.36 -0.51,0.36 -1.91,2.64 -4.73,6.2 -1.69,-0.37 6.68,3.23 2.5,6.67 -0.69,-0.15 -3.56,-2.03 -4.33,-2.5 -1.39,2.28 -5.74,6.19 -4.43,7.77 1.3,1.56 3.75,4.21 3.35,6.09 -1.07,5.02 -6.39,-3.08 -6.87,-2.3 -3.74,6.16 -5.74,5.52 -2.23,8.04 0.02,0.01 0.44,7.48 -3.44,3.9 -1.83,-1.7 -2.04,-1.21 -4.67,2.71 -2.13,3.19 -13.82,17.43 -12.4,13.18 3.82,-11.46 117.31,-189.18 120.93,-194.88z"/>
    </g>
    <g>
     <path class="fil1" d="M458.38 494.08c0.4,4.62 6.87,23.44 10.05,21.93 -1.02,0.87 5.36,-2.2 11.51,-1.82 3.44,0.21 5.05,7.26 6.74,16.51 0.35,1.9 2.25,8.54 4.57,7.92 9.52,-2.57 11.66,-1.51 23.32,0.43 6.92,1.15 -0.08,10.75 10.01,8.71 3.06,-0.62 6.27,3.29 6.82,5.3 0.18,0.64 -0.6,5.87 -4.92,6.56 -7.55,1.19 3.82,7.78 -14.75,8.72 -8.66,0.44 0.5,3.91 1.23,11.95 1.19,12.92 16.64,-4.69 26.05,7.59 4.75,6.21 7.31,5.46 -0.16,15.64 -3.37,4.61 -22.98,-5.39 -20.7,4.24 3.19,13.45 4.65,10.33 15.25,11.81 5.19,0.73 9.63,-0.93 13.81,1.37 1.71,0.95 5.1,10.15 5.93,12.86 1.39,4.48 -10.3,3.42 -18.79,1.87 -4.93,-0.9 -2.36,5.11 -0.73,9.63 0.54,1.49 3.55,3.73 5.82,4.03 2.66,0.35 12.94,-0.92 12.22,-7.49 -0.12,-1.06 1.07,-1.52 2.24,-1.06 2.59,1.03 -0.32,4.3 3.84,4.98 0.67,0.11 0.73,-1.36 1.75,-3.07 0.13,-0.21 1.4,-1.55 2.32,-0.24 1.35,1.9 0.09,6.17 0.48,4.52 0.17,-0.7 4.34,1.76 4.14,-2.89 -0.17,-3.88 7.97,-1.87 8.7,1.03 1.66,6.6 4.69,7.38 4.64,8.81 -0.11,3.33 -0.92,2.64 -7.65,7.94 -6.5,5.13 -17.7,1.3 -17.75,1.29 -6.98,-1.39 -14.77,-1.23 -14.14,-0.1 3.63,6.64 0.77,9.12 8.39,7.02 4.89,-1.34 7.31,7.25 -1.09,7.06 -1.56,2.56 6.42,7.24 13.39,3.43 3.79,-2.08 4.99,-5.41 8.43,0.52 0.81,1.4 -4.35,3.26 3.38,3.6 4.04,0.18 7.03,-10.92 12.03,-3.09 1.78,2.7 -4.38,12.21 2.79,6.56 9.5,-7.5 4.53,-1.23 18.73,-2.01 2.3,-0.12 6.07,8.95 6.21,12.8 0.06,1.64 -3.2,3.97 -11.79,8.84 -1.62,0.91 -9.16,-0.43 -11.83,-0.96 -3.84,-0.78 -4.98,0.17 -7.84,-7.88 -1.52,-4.26 -4.17,-2.21 -4.27,3.71 -0.03,1.89 -5.83,0.45 -5.84,-0.79 -0.08,-7.57 -4.11,-4.64 -12.66,-5.31 -4.41,-0.34 -1.36,7.32 4.19,5.98 2.66,-0.64 3.7,1.14 4.44,3.28 0.99,2.87 -0.57,3.95 -3.8,4.35 -3.84,0.49 -3.13,6.41 8.31,5.06 7.77,-0.92 14.24,-1.16 17.78,0.79 2.99,1.64 4.2,12.51 -1.41,12.13 -8.62,-0.59 -22.83,-5.2 -18.55,2.24 0.88,1.51 7.39,-0.8 7.87,0.42 0.72,1.86 1.06,4.08 0.22,4.25 -8.61,1.78 -7.38,4.5 -1.32,4.96 0.41,0.03 18.63,-0.75 20.09,1.55 1.18,1.85 2.37,4.11 0.68,8.81 -0.93,2.6 -18.65,-1.51 -19.89,0.4 -0.4,0.63 5.6,1.09 10.03,3.52 0.07,0.03 0.46,2.91 -0.36,3.36 -1.24,0.68 -8.38,2.3 -4.27,2.57 1.84,0.12 11.57,17.55 10.82,20.23 -0.81,2.92 -1.19,4.79 -1.73,6.26 0.11,0.35 -0.31,1.03 -1,0.47 -1.92,-0.51 -3.59,-1.19 -6.38,-2.14 -2.63,-0.9 -11.88,-18.13 -10.99,-19.74 1.98,-3.61 -3.23,1.53 -4.47,2.21 -0.82,0.44 -3.03,-1.43 -3.03,-1.51 0.36,-5.04 3.2,-10.35 2.45,-10.34 -2.27,0.01 -8.37,17.15 -11.06,16.53 -4.87,-1.11 -6.13,-3.34 -7.06,-5.33 -1.14,-2.47 9.34,-17.39 9.53,-17.75 2.89,-5.35 1.26,-7.86 -4.88,-1.56 -0.6,0.61 -2.29,-0.87 -3.46,-2.48 -0.77,-1.06 4.69,-5.3 3.88,-6.86 -3.95,-7.61 -7.73,6.84 -11.88,14.42 -2.71,4.93 -11.21,-1.96 -10.98,-5.36 0.27,-4.03 3.96,-9.35 8.92,-15.4 7.31,-8.9 2.71,-12.69 0.23,-9.72 -2.08,2.5 -3.83,3.24 -5.71,0.85 -1.41,-1.78 -2.35,-3.61 -0.37,-5.5 4.11,-3.95 -0.69,-10.65 -2.78,-6.76 -4.05,7.56 -8.69,9.38 -2.35,13.52 1.04,0.68 -0.88,6.34 -2.49,5.35 -5.04,-3.11 -8.2,-1.98 -5.43,1.59 5.24,6.75 3.83,7.2 2.41,10.85 -0.99,2.54 -3.93,9.61 -5.58,10.48 -8.72,4.61 -12.45,6.1 -13.79,5.16 -3.17,-2.19 -8.78,-10.26 -7.43,-12.13 8.31,-11.54 0.35,-10.73 11.79,-14.69 8.63,-2.99 -2.7,-2.93 -4.02,-5.88 -3.89,-8.44 7.07,-4.97 9.09,-8.47 3.88,-6.69 -0.47,-3.35 -1.2,-4.78 -3.14,-6.11 0.31,-5.32 4.1,-7.39 6.97,-3.81 7.33,-13.05 4.33,-13.12 -4.36,7.18 -10.3,0.5 -6.52,-2.89 5.87,-5.28 2.24,-4.22 -1.39,-10.85 -0.62,-1.14 -3.66,-3.88 -6.26,2.74 -2.82,7.22 -9.46,32.67 -22.35,28.18 -1.35,-0.47 -3.97,-5.85 -6.2,-9.93 -2.14,-3.91 6.1,-15.69 6.56,-17.24 0.53,-1.81 1.41,-5.54 5.5,-5.31 6.69,0.38 6.47,-4.34 7.93,-7.45 0.98,-2.08 0.67,-9.16 -0.3,-10.42 -2.92,-3.81 -2.87,-4.93 -4.77,-0.29 -3.27,7.99 -8.69,18.4 -11.71,14.81 -1.83,-2.16 -7.76,-9.97 -7.63,-11.92 0.32,-4.77 4.11,-7.61 6.3,-12.38 4.46,-9.72 7.89,-9.26 -1.73,-19.2 -6.88,-7.12 -9.03,14.78 -14.73,15.14 -12.61,0.8 -10.59,-0.95 -13.25,-8.31 -5.27,-14.53 17.89,-18.06 7.66,-26.02 -6.38,-4.95 -4.37,-14.54 -9.41,-7.48 -10.8,15.12 -10.22,2 -15.3,7.71 -2.9,3.27 -7.72,1.11 -8.17,0.61 -1.39,-1.55 -2.96,-6.36 -0.79,-8.61 7.16,-7.38 -0.39,-7.85 2.37,-14.29 1.71,-3.98 4.07,-1.46 5.86,-5.83 0.24,-0.59 -0.85,-2.41 -0.88,-3.31 -0.03,-1.32 2.01,-3.69 5.35,-1.21 0.55,0.41 1.75,-1.3 1.12,-2.89 -0.82,-2.11 -3.55,-4.43 -2.64,-5.26 1.78,-1.61 -3.69,-7 -5.11,-8.32 -6.87,-6.41 -11.94,-11.57 -10.26,-14.58 3,-5.38 3.55,-5.91 5.4,-9.2 0.62,-3.84 -7.04,-19.52 -10.35,-22.77 -9.11,-8.92 -4.77,-8.38 -2.78,-13.65 1.83,-4.84 3.65,-15.52 9.37,-5.41 40.43,71.39 83.57,150.78 120.27,212.81 8.01,13.53 17.43,26.07 24.45,38.9 0.49,0.9 1.44,1.41 2.64,1.7 0.4,-1.16 0.48,-2.24 -0.01,-3.14 -7.02,-12.83 -12.03,-27.77 -19.57,-41.56 -35.66,-65.18 -79.9,-148.62 -119.1,-219.7 -3.48,-6.33 25.38,-9.67 27.06,9.67z"/>
     <path class="fil2" d="M437.47 505.26c-4.4,-6.1 14.66,-5.61 10.41,-2.64 -0.23,0.15 -0.33,0.79 -2.63,2.04 -0.71,0.39 -1.01,3.44 1.17,2.14 0.82,-0.5 8.78,3.7 4.8,5.88 -1.44,0.78 -2.63,0.88 -0.58,3.3 0.91,1.08 2.57,-2.56 4.8,1.51 -2.14,1.17 -3.96,0.89 -1.5,3.81 0.4,0.47 6.97,-4.33 5.48,0.81 -0.56,1.89 -4.56,0.2 -0.43,5.1 2.33,2.76 0.88,4.74 8.8,4.33 6.39,-0.32 5.71,7.56 1.03,4.34 -0.06,-0.05 -5.12,-1.47 -1.9,4.41 4.54,8.29 2.08,11.62 15.38,11.72 1.62,0.01 23.37,0.52 23.55,2.01 0.8,6.34 -14.02,0.28 -18.27,1.7 -3.79,1.27 -14.11,-2.1 -9.24,3.67 3.46,4.1 4.74,4.39 9.52,5.92 2.98,0.96 7.13,2.13 10.42,4.01 0.47,0.27 3.94,0.93 1.9,4.37 -1.56,2.62 -18.58,-5.96 -12.61,2.86 2.01,2.99 2.05,4.63 6.39,4.12 4.48,-0.52 15.74,3.23 9.11,6.53 -1.21,0.6 -14.62,-6.32 -7.63,3 2.84,3.77 -1.49,2.7 7.79,3.11 5.95,0.27 4.56,3.12 -0.63,2.9 -6.78,-0.3 -3.39,5.06 0.02,3.88 0.06,-0.02 10.86,0 11.78,1.68 2.05,3.75 -1.88,2.46 -4.05,2.36 -3.77,-0.15 -12.8,-3 -6.49,6.58 0.41,0.61 -0.73,2.27 4.33,1.24 3.04,-0.62 5.69,3.28 -1.71,4.1 -2.72,0.3 -1.39,3.85 0.21,7.06 0.22,0.45 6.62,-0.92 7.28,-1.08 0.95,1.11 3.26,2.89 -0.69,4.12 -1.81,0.56 -5.8,-1.84 -2.79,5.15 1.69,3.93 2.12,1.79 8.22,0.76 1.62,-0.27 3.95,1.54 -4.08,4.44 -0.07,0.03 -0.36,3.73 0.9,4.46 1.37,0.79 2.32,-0.37 3.41,-0.55 1.26,-0.2 5.31,0.05 3.22,3.07 -2.16,3.12 -4.71,0.12 -4.6,1.24 0.06,0.62 1.34,2.97 3.01,7.2 -1.17,1.28 6.13,-4.18 7.03,1.16 -0.48,0.53 -3.54,2.08 -4.34,2.51 1.29,2.34 2.5,8.06 4.52,7.72 2,-0.34 5.52,-1.15 6.94,0.14 3.82,3.44 -5.86,4 -5.42,4.8 3.46,6.32 2.28,6.59 9.31,4.15 0.02,-0.01 3.46,1.68 -1.59,3.25 -2.39,0.74 1.34,8.03 2.48,7.81 3.07,-0.58 16.2,32.71 9.08,27.38 -9.93,-7.42 -107.99,-199.59 -111.11,-205.58z"/>
     <path class="fil2" d="M430.21 501.66c-4.73,-1.37 -9.95,15.47 -5.17,13.49 0.26,-0.11 0.84,0.15 3.14,-1.11 0.72,-0.39 3.44,1 1.17,2.14 -0.86,0.42 -1.62,9.39 2.36,7.21 1.44,-0.79 2.16,-1.73 3.1,1.29 0.41,1.35 -3.55,0.78 -1.32,4.86 2.14,-1.17 2.89,-2.85 4.01,0.79 0.18,0.59 -7.4,3.54 -2.27,5.05 1.9,0.56 2.64,-3.73 4.53,2.39 1.06,3.45 3.52,3.3 -1.1,9.75 -3.72,5.2 3.29,8.88 3.09,3.2 0,-0.07 1.53,-5.09 4.75,0.79 4.53,8.29 8.65,8.01 1.57,19.27 -0.86,1.37 -12.17,19.95 -11.01,20.91 4.91,4.09 7.8,-11.66 11.29,-14.47 3.11,-2.5 5.84,-13.01 8.07,-5.8 1.58,5.12 1.14,6.36 -0.15,11.21 -0.8,3.03 -4.01,9.01 -4.2,12.8 -0.02,0.54 -1.29,2.81 2.71,2.94 3.04,0.1 6.9,-19.7 11.12,-9.92 1.43,3.31 2.78,4.22 0.02,7.6 -2.85,3.5 -5.77,15 0.58,11.19 1.15,-0.69 2.57,-15.72 6.64,-4.8 1.65,4.42 3.08,0.2 -1.58,8.23 -2.99,5.16 0.17,5.53 2.78,1.04 3.41,-5.87 6.09,-0.13 3.26,2.11 -0.05,0.04 -5.86,9.15 -4.94,10.83 2.05,3.75 3.08,-0.27 4.17,-2.14 1.9,-3.26 4.38,-12.4 9.04,-1.92 0.3,0.67 2.31,0.61 -1.29,4.32 -2.16,2.22 -0.3,6.56 4.37,0.77 1.73,-2.13 4,0.91 5.84,3.98 0.26,0.43 -4.34,5.08 -4.84,5.55 0.42,1.4 0.68,4.31 3.84,1.64 1.45,-1.22 1.58,-5.87 5.84,0.43 2.4,3.54 0.37,2.75 -3.78,7.33 -1.11,1.22 -0.84,4.15 5.93,-1.04 0.06,-0.05 3.33,1.71 3.27,3.16 -0.07,1.59 -1.57,1.76 -2.3,2.58 -0.85,0.95 -2.82,4.49 0.84,4.37 3.8,-0.14 2.65,-3.91 3.53,-3.21 0.49,0.39 1.79,2.73 4.44,6.42 1.71,-0.29 -6.82,2.91 -2.81,6.55 0.7,-0.12 3.66,-1.87 4.45,-2.3 1.28,2.34 5.44,6.44 4.06,7.96 -1.36,1.5 -3.93,4.03 -3.62,5.92 0.84,5.08 6.53,-2.77 6.96,-1.97 3.46,6.32 5.48,5.78 1.86,8.13 -0.01,0.01 -0.78,7.46 3.26,4.05 1.91,-1.61 2.09,-1.11 4.54,2.93 1.98,3.28 13,18.05 11.78,13.74 -3.29,-11.63 -108.47,-194.39 -111.83,-200.24z"/>
    </g>
   </g>
  </g>
 </g>
</svg>
