<?xml version="1.0" encoding="UTF-8"?>
<!DOCTYPE svg PUBLIC "-//W3C//DTD SVG 1.1//EN" "http://www.w3.org/Graphics/SVG/1.1/DTD/svg11.dtd">
<!-- Creator: CorelDRAW 2020 (64-Bit) -->
<svg xmlns="http://www.w3.org/2000/svg" xml:space="preserve" width="79.5867mm" height="79.5867mm" version="1.1" style="shape-rendering:geometricPrecision; text-rendering:geometricPrecision; image-rendering:optimizeQuality; fill-rule:evenodd; clip-rule:evenodd"
viewBox="0 0 7161.74 7161.74"
 xmlns:xlink="http://www.w3.org/1999/xlink"
 xmlns:xodm="http://www.corel.com/coreldraw/odm/2003">
 <defs>
  <style type="text/css">
   <![CDATA[
    .fil2 {fill:none}
    .fil1 {fill:fuchsia}
    .fil0 {fill:white}
   ]]>
  </style>
 </defs>
 <g id="Layer_x0020_1">
  <metadata id="CorelCorpID_0Corel-Layer"/>
  <path class="fil0" d="M5811.22 2323.46c125.61,-150.8 222.7,-288.29 256.43,-373.08 41.06,-103.23 -0.55,-223.87 -81.56,-69.68 -66.49,126.58 -129.08,282.59 -174.86,442.76zm-5477.12 591.26c283.13,-191.76 695.76,-471.9 1097.57,-669.59 29.86,-88.57 61.42,-174.95 93.33,-255.83 19.52,-49.49 118.54,-301.63 155.29,-325.39 32.53,-21.05 80.31,-19.35 73.81,30.4 -7.68,59.27 -92.92,256.31 -118.52,326.5 -18.72,51.3 -37.29,103.03 -55.52,155.05 175.02,-77 344.53,-133.87 496.56,-155.97 81.72,-11.9 79.19,14.08 13,32.19 -194.52,53.22 -369.13,117.68 -532.88,191.13 -99.15,289.69 -184.84,587.79 -220.76,877.43 -10.11,81.59 -0.4,100.89 89.73,83.7 171.72,-32.77 614.34,-435.63 957.15,-777.48 16.67,-100.66 40.27,-199.08 75.88,-294.1 40.93,-109.21 93.63,-217.79 151.48,-301.62 194.58,-281.95 464.6,-99.9 197.03,208.03 -64.85,74.63 -166.91,185.12 -291.33,313.08 -29.32,139.67 -52.44,312 -63.17,409.22 -5.81,52.77 11.72,70.46 46.63,34.73 58.49,-59.85 145.9,-170.2 233.64,-210.09 130.41,-59.31 160.37,0.98 141.33,126.41 -18.06,118.66 -53.14,315.86 -47.49,398.39 2.72,39.48 10.71,44.71 46.68,32.85 113.84,-37.49 394.81,-371.28 516.83,-487.9 93.29,-89.14 187.81,-165.96 275.98,-204.2 140.17,-60.79 219.42,31.99 238.33,64.39 6.36,10.91 2.4,20.68 -13.84,16.59 -23.38,-5.9 -84.38,-33.83 -142.75,-19.91 -31.63,7.53 -157.76,94.28 -224.03,204.44 -45.16,75.07 -182.01,360.95 36.27,217.73 42.34,-27.78 182.02,-136.28 249.01,-205.92 36.62,-38.06 26.79,-73.52 31.32,-94.85 14.39,-67.58 61.38,-48.95 84.62,-21.88 21.79,25.38 21.48,96.6 26.35,129.97 13.04,89.34 26.22,246.83 42.54,316.67 9,38.51 42.06,39.93 75.6,5.49 91.83,-94.25 270.41,-398.43 279.66,-416.82 73.68,-146.44 131.02,-90.21 149.71,-34.41 12.37,36.92 26.72,191.62 40.71,234.15 11.87,36.07 34.55,13.18 47.34,-2.49 36.87,-45.1 69.01,-94.07 101.33,-143.37 58.3,-88.9 117.35,-178.99 206.15,-249.8 108.77,-86.75 221.88,-90.45 186.79,148.67 -21.41,145.92 -112.25,342.36 -133.49,436.74 -16.01,71.16 35.81,57.92 107.11,13.28 206.74,-129.41 464.12,-397.59 631.1,-582.87 35.51,-223.24 87.69,-412.89 239.81,-626.72 142.21,-199.92 253.46,-56.93 171.6,123.22 -48.3,106.27 -163.42,262.01 -304.45,426.24 -29.89,117.21 -49.49,233.15 -53.93,338.82 -2.78,66.44 6.14,70.06 49.53,7.52 72.21,-104.06 201.5,-258.47 306.8,-332.63 261.6,-184.18 372.54,150.4 130.85,285.56 -57.27,32.03 -157.16,74.55 -204.67,88.2 -24.23,6.96 -25.97,12.06 -11.52,33.97 132.55,200.98 477.89,391.21 832.32,111.12 50.04,-39.54 84.45,-57.35 12.18,13.41 -378.8,370.84 -904.95,22.01 -954.81,-170.93 -0.48,-1.86 -7.26,-25.73 27.96,-39.02 68.92,-26.02 188.16,-69.29 252.58,-113.31 112.3,-76.67 56.34,-261 -65.71,-185.54 -98.19,60.75 -230.56,233.68 -298.14,325.58 -36.35,49.42 -65.3,104.84 -80.67,142.32 -26.02,63.46 -94.67,58.16 -101.61,-1.64 -2.27,-19.58 4.73,-85.11 15.58,-165.67 9.94,-73.74 18.59,-141.82 28.34,-208.19 -163.84,179 -404.13,428.98 -607.54,557.55 -123.79,78.26 -232.26,109.61 -206.41,-44.62 19.92,-118.9 89.04,-311.96 112.29,-438.06 25.69,-139.33 -10.06,-158.53 -64.25,-119 -71.24,51.99 -138.17,149.61 -201.07,241.31 -36.21,52.8 -69.96,104.46 -99.96,145.94 -48.82,67.56 -149.22,195.57 -174.25,28.15 -8.25,-55.24 -22.42,-187.49 -27.57,-215.6 -5.43,-29.56 -12.91,-41.33 -31.22,-1.67 -27.03,58.62 -181.62,310.57 -288.32,416.61 -60.7,60.35 -118.04,76.49 -153.43,-10.63 -43.26,-106.52 -76.37,-281.56 -83.97,-310.05 -3.76,-14.15 -16.18,-6.73 -18.63,-4.7 -69.41,57.67 -175.28,152.55 -259.9,202.68 -313.62,185.84 -285.82,-76.93 -150.84,-281.42 7.86,-11.89 11.06,-20.59 -6.12,-4.97 -144.87,131.81 -350.66,407.39 -526.7,496.31 -80.22,40.53 -153.25,56.95 -162.68,-58.54 -9.7,-118.82 33.99,-313.22 44.77,-414.82 7.12,-67.01 4.88,-100.29 -68.01,-58.4 -58.17,33.42 -123.15,119.98 -178.34,179.04 -117.69,125.93 -186.45,178.33 -176.41,-66.85 3.15,-76.92 8.99,-163.34 22.42,-260.36 -333.37,332.2 -740.2,699.87 -930.84,757.22 -118.91,35.76 -203.35,-0.76 -201.3,-138.92 3.09,-206.47 75.32,-511.92 169.31,-802.94 -358.79,178.84 -675.82,400.47 -1056.97,638.34 -96.88,60.47 -186.09,77.08 -18.19,-36.67zm2464 1397.5c-50.89,32.5 -96.03,62.22 -139.8,90.88 -165.56,108.43 -1898.64,1187.26 -792.12,1092.82 474.45,-40.49 716.68,-213.8 837.28,-673.4 33.34,-127.1 68.79,-325.38 94.64,-510.3zm1224.58 -310.58c58.04,-127.91 41.34,-260.44 -173.22,-268.94 -263.6,-10.46 -239.79,179.51 -30.78,243.33 73.06,22.32 140.44,29.53 203.99,25.61zm-11.91 24.22c-60.71,1.91 -126.98,-4.72 -202.09,-22.93 -304.98,-74 -397.34,-336.83 41,-310.41 238.11,14.34 269.63,161.87 209.78,305.62 77.7,-10.11 149.31,-36.57 218.1,-71.49 111.59,-56.66 214.54,-137.61 328.3,-191.16 66.14,-31.14 186.27,-42.25 220.67,43.67 29.42,73.48 54.25,252.75 78.6,364.53 16.45,75.56 41.05,81.07 113.62,36.84 99.68,-60.72 236.88,-207.84 274.31,-240.74 12.96,-11.39 24.81,-54.14 40.63,-67.72 38.42,-32.95 88.75,-25.66 94.63,8.05 6.54,37.64 -4.74,161.94 17.17,221.59 9.04,24.62 37.91,61.93 80.17,74.62 452.9,136.03 1131.44,-190.48 1454.25,-487.23 24.79,-22.78 25.86,-5.39 8.84,11.93 -337.76,343.57 -986.28,606.42 -1476.76,535.72 -85.63,-12.35 -149.4,-56.06 -168.15,-98.23 -16.83,-37.86 -22.09,-84.74 -24.1,-122.13 -1.13,-21.13 7.1,-49.2 -32.78,-17.18 -46.8,37.6 -143.9,144.98 -246.42,211.02 -93.67,60.31 -197.11,96.7 -229.6,-35.72 -23.87,-97.1 -59.06,-305.73 -78.34,-371.45 -14.83,-50.55 -71.16,-56.84 -112.92,-41.4 -110.95,41.02 -207.88,125.06 -327.94,187.45 -70.78,36.79 -149.33,66.01 -243.82,74.51 -49.47,100.76 -140.95,195.39 -234.16,236.11 -149.33,65.23 -316.17,17.28 -332.48,-201.38 -3.85,-51.53 2.71,-57.52 -30.06,-52.08 -169.62,28.19 -364.32,128.98 -540.15,235.49 -27.53,208.21 -65.84,428.17 -103.42,594.26 -123.24,544.58 -387.02,683.37 -935.17,715.9 -1253.41,74.41 566.36,-1047.91 768.25,-1176.96 47.78,-30.55 101.62,-64.75 162.82,-102.13 12.62,-93.4 21.92,-177.6 27.16,-246.8 2.25,-29.69 -2.91,-58.69 -40.85,-21.85 -49.46,48 -183.19,148.08 -297.11,205.34 -132.69,66.69 -227.86,36.1 -267.48,-76.51 -20.62,-58.64 -47.46,-179.67 -67.78,-270.62 -18.65,-83.48 -92.76,-42.51 -140.69,-17.42 -263.62,138.02 -472.44,260.07 -666.31,390.58 -255.41,171.94 -464.74,378.6 -761.85,622.97 -35.5,29.2 -47.14,17.48 -13.09,-16.98 232.97,-235.81 479.43,-450.55 752.47,-636.12 216,-146.8 442.83,-278.27 677.69,-395.01 83.53,-41.52 237.2,-149.96 266.88,4.72 14.65,76.26 29.3,176.4 53.59,267.28 21.08,78.89 56.43,140.65 150.8,92.09 89.12,-45.87 199.48,-127.07 288.73,-202.84 29.13,-24.72 53.95,-55.16 77.78,-75.33 41.74,-35.32 105.05,-28.35 100.07,40.97 -5.8,81.01 -15.23,171.15 -27.7,268.51 186.3,-108.37 394.94,-213.92 554.6,-243.01 17.5,-3.19 20.97,-43.03 51.41,-36.1 22.71,5.18 52.12,29.22 68.01,42.44 13.94,11.58 13.53,39.23 12.56,70.78 -2.87,93.23 40.94,253.92 200.16,193.76 72.87,-27.54 158.77,-113.9 208.2,-207.82zm-1476.77 -1752.07c107.1,-110.28 188.65,-198.64 240.26,-258.25 208.52,-240.83 41.21,-380.62 -83.74,-140.87 -44.34,85.06 -85.02,198.29 -131.87,318.56 -9.04,23.24 -16.04,45.98 -24.66,80.57z"/>
  <path class="fil1" d="M5771.96 2301.03c125.61,-150.8 222.7,-288.29 256.43,-373.08 41.06,-103.22 -0.55,-223.87 -81.56,-69.68 -66.49,126.58 -129.08,282.59 -174.86,442.76zm-5477.11 591.26c283.12,-191.76 695.75,-471.9 1097.56,-669.59 29.86,-88.57 61.42,-174.95 93.33,-255.82 19.52,-49.5 118.54,-301.64 155.29,-325.4 32.53,-21.05 80.31,-19.35 73.81,30.4 -7.68,59.27 -92.92,256.31 -118.52,326.5 -18.72,51.3 -37.29,103.03 -55.52,155.06 175.02,-77.01 344.54,-133.88 496.56,-155.98 81.72,-11.89 79.19,14.08 13,32.19 -194.52,53.22 -369.12,117.68 -532.87,191.13 -99.16,289.69 -184.85,587.79 -220.76,877.43 -10.11,81.59 -0.4,100.89 89.73,83.7 171.72,-32.77 614.34,-435.63 957.16,-777.48 16.67,-100.65 40.26,-199.08 75.87,-294.1 40.93,-109.21 93.63,-217.79 151.48,-301.62 194.58,-281.94 464.6,-99.9 197.03,208.03 -64.85,74.64 -166.91,185.12 -291.33,313.08 -29.32,139.67 -52.44,312 -63.16,409.22 -5.82,52.77 11.71,70.46 46.62,34.73 58.49,-59.85 145.9,-170.2 233.64,-210.09 130.41,-59.31 160.37,0.98 141.33,126.41 -18.05,118.66 -53.14,315.86 -47.49,398.39 2.72,39.48 10.71,44.71 46.69,32.85 113.83,-37.49 394.8,-371.28 516.82,-487.9 93.29,-89.14 187.81,-165.96 275.98,-204.2 140.17,-60.78 219.42,31.99 238.33,64.39 6.36,10.91 2.4,20.68 -13.84,16.59 -23.38,-5.9 -84.38,-33.83 -142.75,-19.91 -31.63,7.54 -157.75,94.28 -224.03,204.44 -45.16,75.07 -182.01,360.95 36.27,217.74 42.34,-27.79 182.02,-136.28 249.01,-205.93 36.62,-38.06 26.79,-73.52 31.32,-94.85 14.39,-67.58 61.38,-48.95 84.62,-21.88 21.8,25.38 21.48,96.6 26.35,129.97 13.04,89.34 26.22,246.83 42.55,316.67 8.99,38.51 42.05,39.93 75.59,5.49 91.83,-94.25 270.41,-398.43 279.66,-416.82 73.68,-146.44 131.02,-90.21 149.71,-34.41 12.37,36.92 26.72,191.62 40.71,234.15 11.87,36.07 34.55,13.18 47.35,-2.49 36.86,-45.1 69,-94.07 101.33,-143.37 58.3,-88.9 117.34,-178.98 206.14,-249.8 108.78,-86.75 221.88,-90.45 186.79,148.67 -21.41,145.92 -112.25,342.36 -133.49,436.74 -16.01,71.16 35.81,57.92 107.11,13.28 206.74,-129.41 464.12,-397.59 631.1,-582.87 35.51,-223.24 87.7,-412.89 239.81,-626.72 142.21,-199.92 253.47,-56.93 171.6,123.22 -48.29,106.27 -163.41,262.02 -304.45,426.24 -29.89,117.21 -49.49,233.15 -53.92,338.82 -2.79,66.44 6.13,70.06 49.53,7.52 72.21,-104.06 201.49,-258.47 306.79,-332.63 261.6,-184.18 372.54,150.4 130.85,285.56 -57.27,32.03 -157.15,74.56 -204.66,88.2 -24.24,6.96 -25.98,12.06 -11.52,33.97 132.55,200.98 477.88,391.21 832.31,111.13 50.04,-39.55 84.46,-57.35 12.18,13.4 -378.8,370.84 -904.94,22.01 -954.81,-170.93 -0.48,-1.86 -7.26,-25.73 27.97,-39.02 68.91,-26.02 188.15,-69.29 252.57,-113.3 112.3,-76.68 56.34,-261.01 -65.71,-185.55 -98.18,60.75 -230.56,233.68 -298.14,325.58 -36.35,49.42 -65.3,104.84 -80.67,142.32 -26.02,63.46 -94.67,58.16 -101.6,-1.64 -2.27,-19.58 4.72,-85.11 15.58,-165.67 9.93,-73.74 18.58,-141.82 28.33,-208.19 -163.84,179 -404.12,428.98 -607.54,557.55 -123.79,78.26 -232.26,109.61 -206.41,-44.62 19.92,-118.89 89.04,-311.95 112.29,-438.06 25.69,-139.33 -10.06,-158.53 -64.25,-119 -71.23,51.99 -138.17,149.61 -201.07,241.31 -36.21,52.8 -69.96,104.46 -99.96,145.94 -48.82,67.56 -149.22,195.57 -174.25,28.15 -8.25,-55.24 -22.42,-187.49 -27.57,-215.6 -5.43,-29.56 -12.91,-41.33 -31.22,-1.67 -27.03,58.63 -181.62,310.57 -288.32,416.61 -60.7,60.35 -118.04,76.49 -153.43,-10.63 -43.26,-106.52 -76.37,-281.56 -83.97,-310.05 -3.76,-14.15 -16.18,-6.73 -18.63,-4.7 -69.41,57.68 -175.28,152.55 -259.9,202.68 -313.62,185.84 -285.82,-76.93 -150.83,-281.42 7.85,-11.9 11.05,-20.59 -6.13,-4.98 -144.86,131.81 -350.66,407.39 -526.7,496.31 -80.22,40.53 -153.25,56.95 -162.68,-58.54 -9.7,-118.82 33.99,-313.21 44.78,-414.82 7.11,-67.01 4.87,-100.29 -68.02,-58.4 -58.17,33.42 -123.15,119.98 -178.34,179.04 -117.69,125.94 -186.45,178.34 -176.41,-66.85 3.15,-76.92 8.99,-163.34 22.42,-260.35 -333.37,332.19 -740.2,699.86 -930.84,757.21 -118.91,35.76 -203.35,-0.76 -201.3,-138.92 3.09,-206.47 75.32,-511.92 169.31,-802.93 -358.79,178.83 -675.82,400.46 -1056.97,638.33 -96.88,60.47 -186.09,77.09 -18.18,-36.67zm2464 1397.5c-50.9,32.5 -96.04,62.22 -139.81,90.89 -165.56,108.43 -1898.64,1187.25 -792.12,1092.81 474.45,-40.49 716.68,-213.8 837.28,-673.39 33.34,-127.11 68.79,-325.39 94.65,-510.31zm1224.57 -310.57c58.04,-127.92 41.34,-260.45 -173.22,-268.95 -263.6,-10.46 -239.79,179.51 -30.78,243.33 73.06,22.32 140.45,29.53 203.99,25.62zm-11.91 24.22c-60.71,1.91 -126.98,-4.72 -202.09,-22.93 -304.98,-74 -397.34,-336.83 41,-310.41 238.11,14.34 269.63,161.87 209.79,305.62 77.7,-10.11 149.31,-36.57 218.09,-71.49 111.59,-56.66 214.54,-137.61 328.3,-191.16 66.15,-31.14 186.28,-42.25 220.67,43.67 29.42,73.48 54.25,252.75 78.6,364.53 16.45,75.56 41.05,81.07 113.62,36.84 99.68,-60.72 236.88,-207.83 274.31,-240.74 12.97,-11.39 24.81,-54.14 40.63,-67.72 38.42,-32.95 88.75,-25.66 94.63,8.05 6.55,37.64 -4.74,161.94 17.18,221.6 9.03,24.61 37.9,61.92 80.16,74.61 452.9,136.03 1131.44,-190.48 1454.25,-487.22 24.8,-22.78 25.87,-5.4 8.84,11.92 -337.75,343.58 -986.27,606.42 -1476.76,535.72 -85.63,-12.35 -149.4,-56.06 -168.15,-98.23 -16.83,-37.86 -22.09,-84.74 -24.1,-122.13 -1.13,-21.13 7.1,-49.2 -32.78,-17.18 -46.8,37.6 -143.9,144.98 -246.42,211.02 -93.67,60.31 -197.11,96.7 -229.59,-35.72 -23.87,-97.1 -59.07,-305.73 -78.35,-371.45 -14.83,-50.55 -71.16,-56.84 -112.92,-41.4 -110.96,41.02 -207.89,125.06 -327.95,187.45 -70.78,36.79 -149.33,66.02 -243.82,74.51 -49.47,100.76 -140.95,195.39 -234.16,236.11 -149.33,65.23 -316.17,17.28 -332.48,-201.38 -3.85,-51.53 2.71,-57.52 -30.06,-52.08 -169.62,28.2 -364.31,128.98 -540.15,235.49 -27.53,208.21 -65.84,428.17 -103.42,594.26 -123.24,544.58 -387.02,683.37 -935.17,715.9 -1253.41,74.41 566.36,-1047.91 768.25,-1176.96 47.78,-30.55 101.62,-64.75 162.83,-102.13 12.61,-93.4 21.91,-177.6 27.16,-246.8 2.24,-29.69 -2.92,-58.69 -40.86,-21.85 -49.46,48 -183.19,148.09 -297.1,205.34 -132.7,66.69 -227.86,36.1 -267.48,-76.51 -20.63,-58.64 -47.47,-179.67 -67.79,-270.62 -18.65,-83.47 -92.76,-42.51 -140.69,-17.42 -263.62,138.02 -472.44,260.07 -666.31,390.58 -255.41,171.94 -464.74,378.6 -761.85,622.97 -35.5,29.2 -47.14,17.48 -13.09,-16.98 232.98,-235.81 479.43,-450.55 752.48,-636.12 215.99,-146.8 442.82,-278.27 677.68,-395.01 83.53,-41.51 237.2,-149.96 266.88,4.72 14.65,76.26 29.3,176.4 53.59,267.28 21.09,78.89 56.43,140.65 150.8,92.09 89.13,-45.86 199.48,-127.07 288.73,-202.84 29.13,-24.72 53.95,-55.16 77.78,-75.33 41.74,-35.32 105.04,-28.35 100.07,40.98 -5.8,81.01 -15.23,171.15 -27.7,268.5 186.3,-108.37 394.94,-213.92 554.6,-243.01 17.5,-3.19 20.97,-43.03 51.41,-36.1 22.72,5.18 52.12,29.23 68.02,42.44 13.93,11.58 13.52,39.23 12.55,70.78 -2.87,93.23 40.94,253.92 200.16,193.76 72.87,-27.54 158.78,-113.9 208.2,-207.82zm-1476.77 -1752.07c107.1,-110.28 188.65,-198.64 240.26,-258.25 208.52,-240.83 41.21,-380.61 -83.74,-140.87 -44.34,85.06 -85.02,198.3 -131.87,318.56 -9.04,23.24 -16.04,45.98 -24.66,80.57z"/>
  <rect class="fil2" x="-0" y="-0" width="7161.74" height="7161.74"/>
 </g>
</svg>
