<?xml version="1.0" encoding="UTF-8"?>
<!DOCTYPE svg PUBLIC "-//W3C//DTD SVG 1.1//EN" "http://www.w3.org/Graphics/SVG/1.1/DTD/svg11.dtd">
<!-- Creator: CorelDRAW 2020 (64-Bit) -->
<svg xmlns="http://www.w3.org/2000/svg" xml:space="preserve" width="398px" height="378px" version="1.1" style="shape-rendering:geometricPrecision; text-rendering:geometricPrecision; image-rendering:optimizeQuality; fill-rule:evenodd; clip-rule:evenodd"
viewBox="0 0 218.07 207.12"
 xmlns:xlink="http://www.w3.org/1999/xlink"
 xmlns:xodm="http://www.corel.com/coreldraw/odm/2003">
 <defs>
  <style type="text/css">
   <![CDATA[
    .str0 {stroke:#A82AC7;stroke-width:0.49;stroke-miterlimit:22.9256}
    .fil18 {fill:none}
    .fil17 {fill:#5B281B}
    .fil28 {fill:#0CA23B}
    .fil1 {fill:#2E98F5}
    .fil21 {fill:#427FD4}
    .fil23 {fill:#4D4D4D}
    .fil4 {fill:#5FD5F5}
    .fil5 {fill:#666666}
    .fil0 {fill:#8AFCE9}
    .fil31 {fill:#8C4340}
    .fil10 {fill:#910731}
    .fil33 {fill:#996633}
    .fil8 {fill:#999999}
    .fil27 {fill:#99FF99}
    .fil13 {fill:#9C6149}
    .fil26 {fill:#ABB4DB}
    .fil7 {fill:#B51C0B}
    .fil19 {fill:#C68A70}
    .fil2 {fill:#CC4C1D}
    .fil29 {fill:#CC9933}
    .fil30 {fill:#CCCCCC}
    .fil22 {fill:#CCFFCC}
    .fil34 {fill:#D6BA94}
    .fil15 {fill:#E0A167}
    .fil20 {fill:#F5C5A4}
    .fil14 {fill:#F5CB82}
    .fil9 {fill:#F7694A}
    .fil24 {fill:#FAF02F}
    .fil16 {fill:#FCD99C}
    .fil11 {fill:#FCE3CA}
    .fil3 {fill:#FF6633}
    .fil6 {fill:#FF8C40}
    .fil32 {fill:#FFCC00}
    .fil12 {fill:#FFFFCC}
    .fil25 {fill:white}
   ]]>
  </style>
    <mask id="id0">
  <linearGradient id="id1" gradientUnits="userSpaceOnUse" x1="9.19" y1="76.54" x2="91.04" y2="45.25">
   <stop offset="0" style="stop-opacity:1; stop-color:white"/>
   <stop offset="1" style="stop-opacity:0; stop-color:white"/>
  </linearGradient>
     <rect style="fill:url(#id1)" x="7.35" y="33.3" width="91.41" height="53.45"/>
    </mask>
    <mask id="id2">
  <linearGradient id="id3" gradientUnits="userSpaceOnUse" x1="8.45" y1="189.51" x2="90.3" y2="158.23">
   <stop offset="0" style="stop-opacity:1; stop-color:white"/>
   <stop offset="1" style="stop-opacity:0; stop-color:white"/>
  </linearGradient>
     <rect style="fill:url(#id3)" x="6.61" y="146.27" width="91.41" height="53.45"/>
    </mask>
    <mask id="id4">
  <linearGradient id="id5" gradientUnits="userSpaceOnUse" x1="128.01" y1="76.54" x2="209.86" y2="45.25">
   <stop offset="0" style="stop-opacity:1; stop-color:white"/>
   <stop offset="1" style="stop-opacity:0; stop-color:white"/>
  </linearGradient>
     <rect style="fill:url(#id5)" x="126.16" y="33.3" width="91.42" height="53.45"/>
    </mask>
    <mask id="id6">
  <linearGradient id="id7" gradientUnits="userSpaceOnUse" x1="126.69" y1="189.42" x2="208.55" y2="158.14">
   <stop offset="0" style="stop-opacity:1; stop-color:white"/>
   <stop offset="1" style="stop-opacity:0; stop-color:white"/>
  </linearGradient>
     <rect style="fill:url(#id7)" x="124.85" y="146.19" width="91.41" height="53.45"/>
    </mask>
 </defs>
 <g id="Layer_x0020_1">
  <metadata id="CorelCorpID_0Corel-Layer"/>
  <g id="_2261554801040">
   <rect class="fil0" width="99.96" height="93.8" rx="1.94" ry="1.84"/>
   <path class="fil1" style="mask:url(#id0)" d="M45.69 39.23c-24.54,8.68 -41.15,25.03 -37.08,36.52 4.06,11.49 27.26,13.76 51.8,5.07 24.55,-8.68 41.15,-25.03 37.09,-36.52 -4.07,-11.49 -27.26,-13.76 -51.81,-5.07z"/>
   <g>
    <g>
     <path class="fil2" d="M28.6 49.88l12.03 -9.93c0.1,-0.09 0.26,-0.11 0.4,-0.06 0.14,0.05 0.22,0.15 0.22,0.28l0.04 13.47 0 0 0 0.15 0 24c0,0.34 -0.33,0.62 -0.74,0.62l-10.04 0c-0.41,0 -0.74,-0.28 -0.74,-0.62l0 -24 -0.65 0c-0.41,0 -0.74,-0.28 -0.74,-0.62l0 -2.85c0,-0.17 0.07,-0.32 0.22,-0.44z"/>
     <path class="fil3" d="M35.1 56.77l0.71 0c2.21,0 4.02,1.52 4.02,3.38l0 9.19c0,0.17 -0.17,0.31 -0.37,0.31l-8.01 0c-0.2,0 -0.36,-0.14 -0.36,-0.31l0 -9.19c0,-1.86 1.8,-3.38 4.01,-3.38z"/>
     <path class="fil4" d="M35.41 59.51l0.09 0c1.23,0 2.23,0.84 2.23,1.88l0 7.5c0,0.17 -0.16,0.31 -0.37,0.31l-3.81 0c-0.2,0 -0.37,-0.14 -0.37,-0.31l0 -7.5c0,-1.04 1.01,-1.88 2.23,-1.88z"/>
     <rect class="fil5" x="30.14" y="53.72" width="10.6" height="0.6" rx="1.79" ry="1.5"/>
     <rect class="fil5" x="30.15" y="69.78" width="10.6" height="0.6" rx="1.79" ry="1.5"/>
     <path class="fil3" d="M29.28 50.2l10.94 -8.88c0.06,-0.05 0.15,-0.07 0.24,-0.04 0.08,0.03 0.13,0.09 0.13,0.17l0.11 4.92c0,0.05 -0.02,0.1 -0.07,0.14 -0.04,0.03 -0.09,0.05 -0.15,0.05l-0.16 0c-0.06,0 -0.11,-0.01 -0.16,-0.05 -0.04,-0.04 -0.06,-0.08 -0.06,-0.13l0 -0.42c0,-0.4 -0.46,-0.74 -1.02,-0.74l0 0c-0.56,0 -1.02,0.34 -1.02,0.74l0 1.87c0,0.1 -0.09,0.18 -0.21,0.19l-0.05 0c-0.06,0 -0.11,-0.02 -0.16,-0.06 -0.04,-0.03 -0.06,-0.08 -0.06,-0.13l-0.01 -0.32c0,-0.41 -0.45,-0.74 -1.01,-0.74l0 0c-0.56,0 -1.02,0.33 -1.02,0.74l0 1.79c0,0.1 -0.1,0.19 -0.22,0.19l-0.04 0c-0.07,0 -0.12,-0.01 -0.16,-0.05 -0.05,-0.04 -0.07,-0.08 -0.07,-0.14l0 -0.25c0,-0.4 -0.46,-0.74 -1.02,-0.74l0 0c-0.56,0 -1.02,0.34 -1.02,0.74l0 1.87c0,0.1 -0.1,0.18 -0.22,0.18l-0.04 0c-0.06,0.01 -0.12,-0.01 -0.16,-0.05 -0.05,-0.04 -0.07,-0.08 -0.07,-0.13l0 -0.32c0,-0.41 -0.46,-0.74 -1.02,-0.74l0 0c-0.56,0 -1.01,0.33 -1.01,0.74l-0.01 1.35c0,0.05 -0.02,0.1 -0.06,0.13 -0.05,0.04 -0.1,0.06 -0.16,0.06l-0.87 -0.02c-0.06,0 -0.11,-0.02 -0.16,-0.05 -0.04,-0.04 -0.06,-0.08 -0.06,-0.14l0.04 -1.6c0,-0.05 0.03,-0.09 0.07,-0.13z"/>
    </g>
    <g>
     <path class="fil2" d="M69.69 49.88l-12.02 -9.93c-0.11,-0.09 -0.26,-0.11 -0.4,-0.06 -0.14,0.05 -0.23,0.15 -0.23,0.28l-0.04 13.47 0 0 0 0.15 0 24c0,0.34 0.34,0.62 0.74,0.62l10.04 0c0.41,0 0.74,-0.28 0.74,-0.62l0 -24 0.65 0c0.41,0 0.74,-0.28 0.74,-0.62l0 -2.85c0,-0.17 -0.07,-0.32 -0.22,-0.44z"/>
     <path class="fil3" d="M63.19 56.77l-0.71 0c-2.21,0 -4.02,1.52 -4.02,3.38l0 9.19c0,0.17 0.17,0.31 0.37,0.31l8.01 0c0.2,0 0.37,-0.14 0.37,-0.31l0 -9.19c0,-1.86 -1.81,-3.38 -4.02,-3.38z"/>
     <path class="fil4" d="M62.88 59.51l-0.09 0c-1.23,0 -2.23,0.84 -2.23,1.88l0 7.5c0,0.17 0.17,0.31 0.37,0.31l3.81 0c0.2,0 0.37,-0.14 0.37,-0.31l0 -7.5c0,-1.04 -1,-1.88 -2.23,-1.88z"/>
     <rect class="fil5" x="57.55" y="53.72" width="10.6" height="0.6" rx="1.79" ry="1.5"/>
     <rect class="fil5" x="57.53" y="69.78" width="10.6" height="0.6" rx="1.79" ry="1.5"/>
     <path class="fil3" d="M69.01 50.2l-10.94 -8.88c-0.06,-0.05 -0.15,-0.07 -0.23,-0.04 -0.09,0.03 -0.14,0.09 -0.14,0.17l-0.1 4.92c0,0.05 0.02,0.1 0.06,0.14 0.04,0.03 0.1,0.05 0.16,0.05l0.15 0c0.06,0 0.11,-0.01 0.16,-0.05 0.04,-0.04 0.06,-0.08 0.06,-0.13l0 -0.42c0,-0.4 0.46,-0.74 1.02,-0.74l0 0c0.56,0 1.02,0.34 1.02,0.74l0 1.87c0,0.1 0.1,0.18 0.22,0.19l0.04 0c0.06,0 0.12,-0.02 0.16,-0.06 0.04,-0.03 0.07,-0.08 0.07,-0.13l0 -0.32c0,-0.41 0.46,-0.74 1.02,-0.74l0 0c0.56,0 1.01,0.33 1.01,0.74l0 1.79c0,0.1 0.1,0.19 0.22,0.19l0.05 0c0.06,0 0.11,-0.01 0.16,-0.05 0.04,-0.04 0.06,-0.08 0.06,-0.14l0 -0.25c0,-0.4 0.46,-0.74 1.02,-0.74l0 0c0.56,0 1.02,0.34 1.02,0.74l0 1.87c0,0.1 0.1,0.18 0.22,0.18l0.04 0c0.06,0.01 0.12,-0.01 0.16,-0.05 0.05,-0.04 0.07,-0.08 0.07,-0.13l0 -0.32c0,-0.41 0.46,-0.74 1.02,-0.74l0 0c0.56,0 1.01,0.33 1.01,0.74l0.01 1.35c0,0.05 0.02,0.1 0.07,0.13 0.04,0.04 0.09,0.06 0.16,0.06l0.86 -0.02c0.06,0 0.12,-0.02 0.16,-0.05 0.04,-0.04 0.06,-0.08 0.06,-0.14l-0.04 -1.6c0,-0.05 -0.03,-0.09 -0.07,-0.13z"/>
    </g>
    <path class="fil5" d="M49.17 10.79l0 0c0.34,0 0.61,0.23 0.61,0.51l0 1.11 1.06 0c0.39,0 0.7,0.27 0.7,0.59l0 0c0,0.32 -0.31,0.58 -0.7,0.58l-1.06 0 0 3.04c0,0.28 -0.27,0.51 -0.61,0.51l0 0c-0.33,0 -0.6,-0.23 -0.6,-0.51l0 -3.04 -1.07 0c-0.38,0 -0.69,-0.26 -0.69,-0.58l0 0c0,-0.32 0.31,-0.59 0.69,-0.59l1.07 0 0 -1.11c0,-0.28 0.27,-0.51 0.6,-0.51z"/>
    <path class="fil6" d="M57.37 37.38l0 0.37 0 31.95 -16.39 0 0 -31.95 0 -0.37 0 -10.71c0,-0.12 0.04,-0.23 0.12,-0.34l6.86 -8.7c0.29,-0.36 0.73,-0.56 1.24,-0.56 0.51,0 0.95,0.2 1.23,0.56l6.82 8.7c0.08,0.11 0.12,0.22 0.12,0.34l0 10.71z"/>
    <path class="fil2" d="M41.69 37.62l14.92 0c0.12,0 0.22,0.08 0.22,0.18l0 2.66c0,0.1 -0.1,0.18 -0.22,0.18l-0.32 0c-0.13,0 -0.23,-0.08 -0.23,-0.18l0 -0.85c0,-0.46 -0.52,-0.84 -1.15,-0.84l0 0c-0.64,0 -1.16,0.38 -1.16,0.84l0 0.85c0,0.1 -0.1,0.18 -0.23,0.18l-0.11 0c-0.12,0 -0.22,-0.08 -0.22,-0.18l0 -0.85c0,-0.46 -0.52,-0.84 -1.16,-0.84l0 0c-0.64,0 -1.16,0.38 -1.16,0.84l0 0.85c0,0.1 -0.1,0.18 -0.22,0.18l-0.12 0c-0.12,0 -0.22,-0.08 -0.22,-0.18l0 -0.85c0,-0.46 -0.52,-0.84 -1.16,-0.84l0 0c-0.64,0 -1.16,0.38 -1.16,0.84l0 0.85c0,0.1 -0.1,0.18 -0.22,0.18l-0.12 0c-0.12,0 -0.22,-0.08 -0.22,-0.18l0 -0.85c0,-0.46 -0.52,-0.84 -1.16,-0.84l0 0c-0.64,0 -1.16,0.38 -1.16,0.84l0 0.85c0,0.1 -0.1,0.18 -0.22,0.18l-0.11 0c-0.13,0 -0.23,-0.08 -0.23,-0.18l0 -0.85c0,-0.46 -0.52,-0.84 -1.16,-0.84l0 0c-0.63,0 -1.16,0.38 -1.16,0.84l0 0.85c0,0.1 -0.1,0.18 -0.22,0.18l-0.32 0c-0.12,0 -0.22,-0.08 -0.22,-0.18l0 -2.66c0,-0.1 0.1,-0.18 0.22,-0.18z"/>
    <path class="fil3" d="M41.72 80.44l14.91 0c0.41,0 0.74,-0.28 0.74,-0.62l0 -10.27c0,-0.34 -0.33,-0.62 -0.74,-0.62l-1.38 0c-0.21,0 -0.4,-0.07 -0.54,-0.21l-2.44 -2.25 -2 -1.87c-0.29,-0.27 -0.67,-0.41 -1.1,-0.41 -0.43,0 -0.8,0.14 -1.09,0.41l-2.01 1.87 -2.43 2.25c-0.15,0.14 -0.33,0.21 -0.55,0.21l-1.37 0c-0.41,0 -0.74,0.28 -0.74,0.62l0 10.27c0,0.34 0.33,0.62 0.74,0.62z"/>
    <path class="fil7" d="M45.7 80.35l6.95 0 0 -6.31c0,-1.52 -1.47,-2.75 -3.27,-2.75l-0.41 0c-1.8,0 -3.27,1.23 -3.27,2.75l0 6.31z"/>
    <ellipse class="fil4" cx="49.17" cy="60.05" rx="2.63" ry="2.21"/>
    <path class="fil4" d="M49.17 25.33l0 0c1.48,0 2.69,1.02 2.69,2.27l0 7.86c0,0.17 -0.17,0.31 -0.37,0.31l-4.64 0c-0.2,0 -0.37,-0.14 -0.37,-0.31l0 -7.86c0,-1.25 1.21,-2.27 2.69,-2.27z"/>
    <path class="fil2" d="M49.09 20.45c0.47,0 0.85,0.32 0.85,0.72 0,0.2 -0.1,0.39 -0.27,0.52 0.33,0.14 0.56,0.41 0.59,0.74 0.22,-0.06 0.47,-0.05 0.69,0.06 0.41,0.2 0.55,0.63 0.32,0.97 -0.24,0.34 -0.76,0.46 -1.16,0.26 -0.2,-0.09 -0.33,-0.24 -0.39,-0.41 -0.16,0.08 -0.35,0.12 -0.55,0.12 -0.19,0 -0.37,-0.04 -0.52,-0.11 -0.05,0.2 -0.19,0.37 -0.41,0.48 -0.41,0.2 -0.93,0.08 -1.16,-0.26 -0.23,-0.34 -0.09,-0.78 0.31,-0.98 0.22,-0.1 0.47,-0.12 0.69,-0.06 0,-0.32 0.2,-0.6 0.5,-0.77 -0.2,-0.13 -0.33,-0.33 -0.33,-0.56 0,-0.4 0.38,-0.72 0.84,-0.72z"/>
    <path class="fil4" d="M47.32 44.83l0.04 0c0.74,0 1.34,0.5 1.34,1.12l0 7.07c0,0.17 -0.17,0.31 -0.37,0.31l-1.98 0c-0.2,0 -0.37,-0.14 -0.37,-0.31l0 -7.07c0,-0.62 0.6,-1.12 1.34,-1.12z"/>
    <path class="fil4" d="M50.98 44.83l0.04 0c0.74,0 1.34,0.5 1.34,1.12l0 7.07c0,0.17 -0.16,0.31 -0.37,0.31l-1.97 0c-0.21,0 -0.37,-0.14 -0.37,-0.31l0 -7.07c0,-0.62 0.6,-1.12 1.33,-1.12z"/>
    <rect class="fil5" x="41.66" y="53.72" width="15.03" height="0.6" rx="2.53" ry="1.5"/>
    <rect class="fil5" x="40.22" y="36.56" width="17.9" height="0.6" rx="3.01" ry="1.5"/>
    <rect class="fil5" x="40.22" y="36.56" width="17.9" height="0.6" rx="3.01" ry="1.5"/>
    <rect class="fil5" x="45.53" y="78.74" width="7.25" height="0.63" rx="3.17" ry="2.49"/>
    <rect class="fil8" x="44.84" y="79.28" width="8.62" height="0.63" rx="3.76" ry="2.49"/>
    <rect class="fil5" x="43.93" y="79.81" width="10.46" height="0.63" rx="4.56" ry="2.49"/>
    <path class="fil5" d="M49.17 58.6l0 0c0.24,0 0.43,0.2 0.43,0.43l0 1.17 0.99 0c0.21,0 0.38,0.17 0.38,0.39l0 0c0,0.21 -0.17,0.38 -0.38,0.38l-0.99 0 0 2.87c0,0.24 -0.19,0.43 -0.43,0.43l0 0c-0.23,0 -0.43,-0.19 -0.43,-0.43l0 -2.87 -0.98 0c-0.21,0 -0.38,-0.17 -0.38,-0.38l0 0c0,-0.22 0.17,-0.39 0.38,-0.39l0.98 0 0 -1.17c0,-0.23 0.2,-0.43 0.43,-0.43z"/>
   </g>
  </g>
  <g id="_2261554813712">
   <rect class="fil9" y="113.32" width="99.96" height="93.8" rx="1.94" ry="1.84"/>
   <path class="fil10" style="mask:url(#id2)" d="M44.95 152.2c-24.54,8.68 -41.15,25.04 -37.08,36.52 4.06,11.49 27.26,13.76 51.8,5.08 24.55,-8.69 41.15,-25.04 37.09,-36.53 -4.07,-11.49 -27.26,-13.76 -51.81,-5.07z"/>
   <g>
    <rect class="fil11" x="23.28" y="168.4" width="53.35" height="25.02"/>
    <rect class="fil12" x="42.78" y="178.74" width="14.39" height="13.14"/>
    <path class="fil13" d="M53.02 185.72l0 5.72 -6.12 0 0 -5.72c0,-1.96 1.16,-2.23 2.37,-3.14l0.69 -0.51 0.69 0.51c1.21,0.9 2.37,1.18 2.37,3.14z"/>
    <path class="fil14" d="M42.74 178.78c0.12,-3.06 3.16,-3.85 5.35,-5.01l1.87 -0.98 1.87 0.98c2.34,1.23 5.24,1.72 5.34,5.01l-14.43 0z"/>
    <rect class="fil15" x="29.43" y="172.63" width="0.61" height="2.26"/>
    <rect class="fil15" x="69.92" y="172.63" width="0.61" height="2.26"/>
    <rect class="fil15" x="33.33" y="172.63" width="0.61" height="2.26"/>
    <rect class="fil15" x="66.03" y="172.63" width="0.61" height="2.26"/>
    <rect class="fil15" x="37.22" y="172.63" width="0.61" height="2.26"/>
    <rect class="fil15" x="62.14" y="172.63" width="0.61" height="2.26"/>
    <rect class="fil15" x="41.12" y="172.63" width="0.61" height="2.26"/>
    <rect class="fil15" x="58.24" y="172.63" width="0.61" height="2.26"/>
    <path class="fil12" d="M49.83 154.11c1.25,0.79 2.88,1.98 4.18,2.57 3.29,1.5 5.57,4.2 5.57,8.68 0,0.56 -0.07,1.12 -0.19,1.68l-19.16 0c-0.1,-0.55 -0.15,-1.11 -0.15,-1.68 0,-3.84 2.29,-7.16 5.6,-8.69 1.3,-0.6 2.9,-1.77 4.15,-2.56z"/>
    <rect class="fil16" x="49.25" y="153.98" width="1.15" height="0.5"/>
    <polygon class="fil11" points="49.72,151.45 49.62,152.27 49.42,153.97 49.83,153.97 50.24,153.97 50.03,152.27 49.94,151.45 "/>
    <path class="fil12" d="M52.32 150.49c-0.28,0.89 -1.14,1.54 -2.15,1.54 -1.24,0 -2.25,-0.98 -2.25,-2.2 0,-1.17 0.92,-2.12 2.1,-2.2 -0.63,0.3 -1.06,0.93 -1.06,1.66 0,1.02 0.85,1.85 1.91,1.85 0.58,0 1.1,-0.25 1.45,-0.65z"/>
    <path class="fil17" d="M49.96 184.61l0 0c0.88,0 1.6,0.72 1.6,1.6l0 3.94 -3.2 0 0 -3.94c0,-0.88 0.72,-1.6 1.6,-1.6z"/>
    <g>
     <rect class="fil15" x="27.87" y="185.99" width="14.87" height="1.66"/>
     <rect class="fil13" x="29.49" y="185.85" width="1.12" height="1.95" rx="0.19" ry="0.21"/>
     <rect class="fil13" x="33.02" y="185.85" width="1.12" height="1.95" rx="0.19" ry="0.21"/>
     <rect class="fil13" x="36.55" y="185.85" width="1.12" height="1.95" rx="0.19" ry="0.21"/>
     <rect class="fil13" x="40.08" y="185.85" width="1.12" height="1.95" rx="0.19" ry="0.21"/>
    </g>
    <g>
     <rect class="fil15" x="57.23" y="185.99" width="14.87" height="1.66"/>
     <rect class="fil13" x="69.35" y="185.85" width="1.12" height="1.95" rx="0.19" ry="0.21"/>
     <rect class="fil13" x="65.83" y="185.85" width="1.12" height="1.95" rx="0.19" ry="0.21"/>
     <rect class="fil13" x="62.3" y="185.85" width="1.12" height="1.95" rx="0.19" ry="0.21"/>
     <rect class="fil13" x="58.77" y="185.85" width="1.12" height="1.95" rx="0.19" ry="0.21"/>
    </g>
    <rect class="fil14" x="42.76" y="191.06" width="14.4" height="0.83" rx="0.1" ry="0.19"/>
    <rect class="fil15" x="42.05" y="191.77" width="15.82" height="0.83" rx="0.11" ry="0.19"/>
    <rect class="fil14" x="41.21" y="192.59" width="17.5" height="0.83" rx="0.13" ry="0.19"/>
    <rect class="fil15" x="25.15" y="167" width="51.49" height="2.14"/>
    <rect class="fil16" x="40.09" y="165.69" width="19.48" height="1.32"/>
    <g>
     <path class="fil14" d="M17.57 136.65l8.76 0 -1.27 1.55c-0.08,0.1 -0.18,0.15 -0.3,0.15l-5.62 0c-0.12,0 -0.22,-0.05 -0.29,-0.15l-1.28 -1.55z"/>
     <polygon class="fil11" points="21.95,121.68 21.82,122.98 21.69,124.28 21.95,124.28 22.22,124.28 22.09,122.98 "/>
     <path class="fil12" d="M19.18 138.34l5.55 0c0.32,0 0.59,0.27 0.59,0.59l0 31.31c0,0.32 -0.27,0.58 -0.59,0.58l-5.55 0c-0.32,0 -0.59,-0.26 -0.59,-0.58l0 -31.31c0,-0.33 0.27,-0.59 0.59,-0.59z"/>
     <rect class="fil18 str0" x="21.38" y="176.53" width="1.14" height="2.59"/>
     <g>
      <rect class="fil19" x="19.63" y="146.56" width="0.42" height="2.46" rx="2.82" ry="2.82"/>
      <rect class="fil19" x="21.04" y="146.56" width="0.42" height="2.46" rx="2.82" ry="2.82"/>
      <rect class="fil19" x="22.45" y="146.56" width="0.42" height="2.46" rx="2.82" ry="2.82"/>
      <rect class="fil19" x="23.86" y="146.56" width="0.42" height="2.46" rx="2.82" ry="2.82"/>
     </g>
     <rect class="fil12" x="16.05" y="174.68" width="11.81" height="18.84" rx="0.97" ry="0.99"/>
     <path class="fil14" d="M18.3 170.82l7.31 0c0.08,0 0.16,0.05 0.19,0.13l1.26 3.46c0.03,0.06 0.02,0.13 -0.02,0.18 -0.04,0.05 -0.1,0.08 -0.16,0.08l-9.85 0c-0.07,0 -0.12,-0.03 -0.16,-0.08 -0.04,-0.05 -0.05,-0.12 -0.03,-0.18l1.27 -3.46c0.03,-0.08 0.1,-0.13 0.19,-0.13z"/>
     <path class="fil11" d="M20.31 170.82l3.29 0c0.06,0 0.11,0.02 0.15,0.07l3.27 3.46c0.06,0.05 0.07,0.13 0.04,0.21 -0.03,0.07 -0.1,0.11 -0.19,0.11l-9.84 0c-0.08,0 -0.15,-0.04 -0.18,-0.11 -0.03,-0.08 -0.02,-0.16 0.04,-0.21l3.27 -3.46c0.04,-0.05 0.09,-0.07 0.15,-0.07z"/>
     <rect class="fil11" x="17.5" y="134.53" width="8.91" height="2.18" rx="0.18" ry="0.19"/>
     <rect class="fil12" x="19.19" y="126.83" width="5.53" height="7.7" rx="0.19" ry="0.19"/>
     <path class="fil16" d="M21.95 124.59c1.24,0 2.24,1 2.28,2.25l-4.55 0c0.03,-1.25 1.04,-2.25 2.27,-2.25z"/>
     <rect class="fil20" x="21.52" y="124.26" width="0.86" height="0.38" rx="0.23" ry="0.19"/>
     <ellipse class="fil11" cx="21.95" cy="122.15" rx="0.23" ry="0.38"/>
     <g>
      <path class="fil15" d="M20.2 128.26l0 0c0.32,0 0.58,0.26 0.58,0.58l0 5.08c0,0.06 -0.04,0.1 -0.1,0.1l-0.96 0c-0.05,0 -0.1,-0.04 -0.1,-0.1l0 -5.08c0,-0.32 0.26,-0.58 0.58,-0.58z"/>
      <path class="fil15" d="M21.95 128.26l0 0c0.32,0 0.58,0.26 0.58,0.58l0 5.08c0,0.06 -0.04,0.1 -0.1,0.1l-0.96 0c-0.05,0 -0.09,-0.04 -0.09,-0.1l0 -5.08c0,-0.32 0.26,-0.58 0.57,-0.58z"/>
      <path class="fil15" d="M23.71 128.26l0 0c0.31,0 0.57,0.26 0.57,0.58l0 5.08c0,0.06 -0.04,0.1 -0.09,0.1l-0.96 0c-0.06,0 -0.1,-0.04 -0.1,-0.1l0 -5.08c0,-0.32 0.26,-0.58 0.58,-0.58z"/>
     </g>
     <rect class="fil16" x="18.63" y="140.13" width="6.65" height="0.82"/>
     <rect class="fil16" x="18.63" y="143.8" width="6.65" height="0.82"/>
     <path class="fil13" d="M24.66 186.04l0 4.56c0,0.27 -0.22,0.49 -0.49,0.49l-4.43 0c-0.27,0 -0.49,-0.22 -0.49,-0.49l0 -4.56c0,-1.74 1.02,-1.98 2.1,-2.78l0.6 -0.45 0.61 0.45c1.08,0.8 2.1,1.04 2.1,2.78z"/>
    </g>
    <g>
     <path class="fil14" d="M82.39 136.65l-8.76 0 1.27 1.55c0.08,0.1 0.18,0.15 0.3,0.15l5.62 0c0.12,0 0.22,-0.05 0.3,-0.15l1.27 -1.55z"/>
     <polygon class="fil11" points="78.01,121.68 78.14,122.98 78.28,124.28 78.01,124.28 77.75,124.28 77.88,122.98 "/>
     <path class="fil12" d="M80.79 138.34l-5.56 0c-0.32,0 -0.58,0.27 -0.58,0.59l0 31.31c0,0.32 0.26,0.58 0.58,0.58l5.56 0c0.32,0 0.58,-0.26 0.58,-0.58l0 -31.31c0,-0.33 -0.26,-0.59 -0.58,-0.59z"/>
     <rect class="fil18 str0" x="77.44" y="176.53" width="1.14" height="2.59"/>
     <g>
      <rect class="fil19" x="79.92" y="146.56" width="0.42" height="2.46" rx="2.82" ry="2.82"/>
      <rect class="fil19" x="78.51" y="146.56" width="0.42" height="2.46" rx="2.82" ry="2.82"/>
      <rect class="fil19" x="77.1" y="146.56" width="0.42" height="2.46" rx="2.82" ry="2.82"/>
      <rect class="fil19" x="75.68" y="146.56" width="0.42" height="2.46" rx="2.82" ry="2.82"/>
     </g>
     <rect class="fil12" x="72.11" y="174.68" width="11.81" height="18.84" rx="0.97" ry="0.99"/>
     <path class="fil14" d="M81.67 170.82l-7.32 0c-0.08,0 -0.15,0.05 -0.18,0.13l-1.27 3.46c-0.02,0.06 -0.01,0.13 0.03,0.18 0.03,0.05 0.09,0.08 0.16,0.08l9.85 0c0.06,0 0.12,-0.03 0.16,-0.08 0.03,-0.05 0.04,-0.12 0.02,-0.18l-1.27 -3.46c-0.03,-0.08 -0.1,-0.13 -0.18,-0.13z"/>
     <path class="fil11" d="M79.65 170.82l-3.28 0c-0.06,0 -0.11,0.02 -0.15,0.07l-3.28 3.46c-0.05,0.05 -0.07,0.13 -0.03,0.21 0.03,0.07 0.1,0.11 0.18,0.11l9.84 0c0.08,0 0.15,-0.04 0.19,-0.11 0.03,-0.08 0.01,-0.16 -0.04,-0.21l-3.28 -3.46c-0.04,-0.05 -0.09,-0.07 -0.15,-0.07z"/>
     <rect class="fil11" x="73.56" y="134.53" width="8.91" height="2.18" rx="0.18" ry="0.19"/>
     <rect class="fil12" x="75.24" y="126.83" width="5.53" height="7.7" rx="0.19" ry="0.19"/>
     <path class="fil16" d="M78.01 124.59c-1.23,0 -2.24,1 -2.27,2.25l4.55 0c-0.04,-1.25 -1.05,-2.25 -2.28,-2.25z"/>
     <rect class="fil20" x="77.58" y="124.26" width="0.86" height="0.38" rx="0.23" ry="0.19"/>
     <ellipse class="fil11" cx="78.01" cy="122.15" rx="0.23" ry="0.38"/>
     <g>
      <path class="fil15" d="M79.76 128.26l0 0c-0.31,0 -0.57,0.26 -0.57,0.58l0 5.08c0,0.06 0.04,0.1 0.09,0.1l0.96 0c0.06,0 0.1,-0.04 0.1,-0.1l0 -5.08c0,-0.32 -0.26,-0.58 -0.58,-0.58z"/>
      <path class="fil15" d="M78.01 128.26l0 0c-0.32,0 -0.58,0.26 -0.58,0.58l0 5.08c0,0.06 0.05,0.1 0.1,0.1l0.96 0c0.05,0 0.1,-0.04 0.1,-0.1l0 -5.08c0,-0.32 -0.26,-0.58 -0.58,-0.58z"/>
      <path class="fil15" d="M76.26 128.26l0 0c-0.32,0 -0.58,0.26 -0.58,0.58l0 5.08c0,0.06 0.04,0.1 0.1,0.1l0.96 0c0.05,0 0.1,-0.04 0.1,-0.1l0 -5.08c0,-0.32 -0.26,-0.58 -0.58,-0.58z"/>
     </g>
     <rect class="fil16" x="74.69" y="140.13" width="6.65" height="0.82"/>
     <rect class="fil16" x="74.69" y="143.8" width="6.65" height="0.82"/>
     <path class="fil13" d="M75.31 186.04l0 4.56c0,0.27 0.22,0.49 0.49,0.49l4.43 0c0.26,0 0.48,-0.22 0.48,-0.49l0 -4.56c0,-1.74 -1.02,-1.98 -2.09,-2.78l-0.61 -0.45 -0.61 0.45c-1.07,0.8 -2.09,1.04 -2.09,2.78z"/>
    </g>
   </g>
  </g>
  <g id="_2261554791968">
   <rect class="fil21" x="118.11" width="99.96" height="93.8" rx="1.94" ry="1.84"/>
   <path class="fil22" style="mask:url(#id4)" d="M164.51 39.23c-24.55,8.68 -41.15,25.03 -37.09,36.52 4.07,11.49 27.26,13.76 51.81,5.07 24.54,-8.68 41.15,-25.03 37.08,-36.52 -4.06,-11.49 -27.25,-13.76 -51.8,-5.07z"/>
   <g>
    <rect class="fil16" x="152.79" y="48.4" width="30.6" height="32.01" rx="0.65" ry="0.65"/>
    <rect class="fil23" x="153.78" y="46.33" width="28.63" height="1.1" rx="0.74" ry="0.74"/>
    <rect class="fil12" x="161.54" y="44.73" width="13.11" height="2.91" rx="0.55" ry="0.55"/>
    <rect class="fil11" x="152.02" y="47.43" width="32.15" height="1.04" rx="0.74" ry="0.74"/>
    <g>
     <path class="fil17" d="M175.3 28.68c0,3.82 -3.23,6.91 -7.21,6.91 -3.98,0 -7.21,-3.09 -7.21,-6.91 0,-6.19 5.2,-3.58 7.21,-12.36 2.02,8.78 7.21,6.17 7.21,12.36z"/>
     <path class="fil24" d="M168.09 9.42l0 0c0.16,0 0.3,0.13 0.3,0.29l0 0.65 0.8 0c0.12,0 0.22,0.1 0.22,0.22l0 0c0,0.12 -0.1,0.22 -0.22,0.22l-0.8 0 0 0.44 1.45 0c0.14,0 0.26,0.12 0.26,0.26l0 0c0,0.14 -0.12,0.26 -0.26,0.26l-1.45 0 0 2.29 0.52 0.24c0.11,0.05 0.16,0.19 0.11,0.3l0 0c-0.05,0.11 -0.19,0.16 -0.3,0.11l-0.33 -0.16 0 1.16c0,0.16 -0.14,0.29 -0.3,0.29l0 0c-0.16,0 -0.29,-0.13 -0.29,-0.29l0 -1.44 -0.53 -0.24c-0.11,-0.05 -0.15,-0.18 -0.1,-0.3l0 0c0.05,-0.11 0.18,-0.16 0.29,-0.1l0.34 0.15 0 -2.01 -1.45 0c-0.14,0 -0.26,-0.12 -0.26,-0.26l0 0c0,-0.14 0.12,-0.26 0.26,-0.26l1.45 0 0 -0.44 -0.81 0c-0.12,0 -0.22,-0.1 -0.22,-0.22l0 0c0,-0.12 0.1,-0.22 0.22,-0.22l0.81 0 0 -0.65c0,-0.16 0.13,-0.29 0.29,-0.29z"/>
     <circle class="fil24" cx="168.09" cy="16.39" r="0.98"/>
    </g>
    <rect class="fil25" x="161.95" y="32.46" width="12.29" height="12.25" rx="0.37" ry="0.37"/>
    <path class="fil17" d="M168.09 36.15l0 0c0.47,0 0.85,0.38 0.85,0.85l0 7.33c0,0.15 -0.13,0.28 -0.28,0.28l-1.13 0c-0.16,0 -0.28,-0.13 -0.28,-0.28l0 -7.33c0,-0.47 0.38,-0.85 0.84,-0.85z"/>
    <path class="fil17" d="M172.1 36.13l0 0c0.46,0 0.84,0.38 0.84,0.85l0 7.33c0,0.15 -0.12,0.28 -0.27,0.28l-1.14 0c-0.15,0 -0.28,-0.13 -0.28,-0.28l0 -7.33c0,-0.47 0.38,-0.85 0.85,-0.85z"/>
    <path class="fil17" d="M164.09 36.13l0 0c0.46,0 0.84,0.38 0.84,0.85l0 7.33c0,0.15 -0.12,0.28 -0.28,0.28l-1.13 0c-0.15,0 -0.28,-0.13 -0.28,-0.28l0 -7.33c0,-0.47 0.38,-0.85 0.85,-0.85z"/>
    <path class="fil25" d="M168.09 44.56l0 0c2.73,0 4.96,2.25 4.96,4.98l0 30.88 -9.92 0 0 -30.88c0,-2.74 2.23,-4.98 4.96,-4.98z"/>
    <path class="fil26" d="M168.09 69.64l0 0c2.04,0 3.71,1.68 3.71,3.73l0 6.46c0,0.19 -0.02,0.37 -0.04,0.55l-7.33 0c-0.03,-0.18 -0.04,-0.36 -0.04,-0.55l0 -6.46c0,-2.05 1.66,-3.73 3.7,-3.73z"/>
    <path class="fil17" d="M165.77 80.4l0 -6.25c0,-1.3 1.05,-2.36 2.32,-2.36l0 0c1.28,0 2.32,1.06 2.32,2.36l0 6.25 -4.64 0z"/>
    <path class="fil17" d="M168.76 60.73l0 -6.55c0,-0.36 -0.3,-0.66 -0.67,-0.66l0 0c-0.36,0 -0.66,0.3 -0.66,0.66l0 6.55c0,0.15 0.12,0.28 0.28,0.28l0.77 0c0.15,0 0.28,-0.13 0.28,-0.28z"/>
    <rect class="fil26" x="164.82" y="61.89" width="6.55" height="0.68" rx="2.73" ry="2.58"/>
    <g>
     <path class="fil26" d="M166.09 68.14l0 -4.21c0,-0.4 -0.17,-0.73 -0.38,-0.73l0 0c-0.21,0 -0.38,0.33 -0.38,0.73l0 4.21 0.76 0z"/>
     <path class="fil26" d="M167.72 68.14l0 -4.21c0,-0.4 -0.17,-0.73 -0.38,-0.73l0 0c-0.21,0 -0.38,0.33 -0.38,0.73l0 4.21 0.76 0z"/>
     <path class="fil26" d="M169.33 68.14l0 -4.21c0,-0.4 -0.17,-0.73 -0.38,-0.73l0 0c-0.21,0 -0.38,0.33 -0.38,0.73l0 4.21 0.76 0z"/>
     <path class="fil26" d="M170.85 68.14l0 -4.21c0,-0.4 -0.17,-0.73 -0.38,-0.73l0 0c-0.21,0 -0.38,0.33 -0.38,0.73l0 4.21 0.76 0z"/>
    </g>
    <path class="fil12" d="M157.91 46.37l0 0c2.47,0 4.49,1.9 4.49,4.22l0 29.82 -8.98 0 0 -29.82c0,-2.32 2.02,-4.22 4.49,-4.22z"/>
    <path class="fil17" d="M158.57 60.73l0 -6.55c0,-0.36 -0.29,-0.66 -0.66,-0.66l0 0c-0.36,0 -0.66,0.3 -0.66,0.66l0 6.55c0,0.15 0.12,0.28 0.28,0.28l0.77 0c0.15,0 0.27,-0.13 0.27,-0.28z"/>
    <path class="fil17" d="M158.57 73.62l0 -3.52c0,-0.36 -0.29,-0.66 -0.66,-0.66l0 0c-0.36,0 -0.66,0.3 -0.66,0.66l0 3.52c0,0.15 0.12,0.27 0.28,0.27l0.77 0c0.15,0 0.27,-0.12 0.27,-0.27z"/>
    <rect class="fil26" x="154.64" y="61.89" width="6.55" height="0.68" rx="2.73" ry="2.58"/>
    <g>
     <path class="fil26" d="M155.91 68.14l0 -4.21c0,-0.4 -0.17,-0.73 -0.38,-0.73l0 0c-0.21,0 -0.38,0.33 -0.38,0.73l0 4.21 0.76 0z"/>
     <path class="fil26" d="M157.54 68.14l0 -4.21c0,-0.4 -0.17,-0.73 -0.38,-0.73l0 0c-0.21,0 -0.38,0.33 -0.38,0.73l0 4.21 0.76 0z"/>
     <path class="fil26" d="M159.15 68.14l0 -4.21c0,-0.4 -0.17,-0.73 -0.38,-0.73l0 0c-0.21,0 -0.38,0.33 -0.38,0.73l0 4.21 0.76 0z"/>
     <path class="fil26" d="M160.67 68.14l0 -4.21c0,-0.4 -0.17,-0.73 -0.38,-0.73l0 0c-0.21,0 -0.38,0.33 -0.38,0.73l0 4.21 0.76 0z"/>
    </g>
    <path class="fil12" d="M178.27 46.37l0 0c2.47,0 4.49,1.9 4.49,4.22l0 29.81 -8.97 0 0 -29.81c0,-2.32 2.01,-4.22 4.48,-4.22z"/>
    <path class="fil17" d="M178.94 60.76l0 -6.57c0,-0.36 -0.3,-0.66 -0.67,-0.66l0 0c-0.36,0 -0.66,0.3 -0.66,0.66l0 6.57c0,0.15 0.12,0.27 0.28,0.27l0.77 0c0.15,0 0.28,-0.12 0.28,-0.27z"/>
    <path class="fil17" d="M178.94 73.67l0 -3.53c0,-0.36 -0.3,-0.66 -0.67,-0.66l0 0c-0.36,0 -0.66,0.3 -0.66,0.66l0 3.53c0,0.15 0.12,0.27 0.28,0.27l0.77 0c0.15,0 0.28,-0.12 0.28,-0.27z"/>
    <rect class="fil26" x="175" y="61.92" width="6.55" height="0.68" rx="2.73" ry="2.58"/>
    <g>
     <path class="fil26" d="M176.27 68.17l0 -4.21c0,-0.4 -0.17,-0.74 -0.38,-0.74l0 0c-0.21,0 -0.38,0.34 -0.38,0.74l0 4.21 0.76 0z"/>
     <path class="fil26" d="M177.9 68.17l0 -4.21c0,-0.4 -0.17,-0.74 -0.38,-0.74l0 0c-0.21,0 -0.38,0.34 -0.38,0.74l0 4.21 0.76 0z"/>
     <path class="fil26" d="M179.51 68.17l0 -4.21c0,-0.4 -0.17,-0.74 -0.38,-0.74l0 0c-0.21,0 -0.38,0.34 -0.38,0.74l0 4.21 0.76 0z"/>
     <path class="fil26" d="M181.03 68.17l0 -4.21c0,-0.4 -0.17,-0.74 -0.38,-0.74l0 0c-0.21,0 -0.38,0.34 -0.38,0.74l0 4.21 0.76 0z"/>
    </g>
   </g>
  </g>
  <g id="_2261548494672">
   <rect class="fil27" x="118.11" y="113.32" width="99.96" height="93.8" rx="1.94" ry="1.84"/>
   <path class="fil28" style="mask:url(#id6)" d="M163.2 152.11c-24.55,8.69 -41.15,25.04 -37.09,36.53 4.07,11.49 27.26,13.76 51.81,5.07 24.54,-8.68 41.15,-25.04 37.08,-36.52 -4.06,-11.49 -27.26,-13.76 -51.8,-5.08z"/>
   <rect class="fil17" x="179.17" y="189.33" width="9.78" height="4.03"/>
   <rect class="fil29" x="147.3" y="170.15" width="41.64" height="19.26"/>
   <path class="fil29" d="M153.95 173.99l28.82 0c0.46,0 0.84,0.38 0.84,0.84l0 14.59 -30.5 0 0 -14.59c0,-0.46 0.38,-0.84 0.84,-0.84z"/>
   <rect class="fil30" x="155.48" y="157.69" width="25.87" height="5.42"/>
   <rect class="fil17" x="147.29" y="189.33" width="9.78" height="4.03"/>
   <rect class="fil30" x="147.3" y="162.97" width="41.65" height="7.19"/>
   <path class="fil17" d="M157.4 180.52l21.44 0c0.19,0 0.34,0.15 0.34,0.33l0 12.51 -22.11 0 0 -12.51c0,-0.18 0.15,-0.33 0.33,-0.33z"/>
   <path class="fil7" d="M165.94 183.09l4.51 0c0.09,0 0.17,0.03 0.24,0.1 0.06,0.06 0.09,0.14 0.09,0.23l-0.01 9.39 -5.18 0 0.02 -9.39c0,-0.18 0.15,-0.33 0.33,-0.33z"/>
   <rect class="fil31" x="166.93" y="182.75" width="2.51" height="2.39" rx="0.22" ry="0.22"/>
   <circle class="fil29" cx="168.18" cy="183.93" r="0.75"/>
   <path class="fil29" d="M166.78 186.34l2.8 0c0.19,0 0.34,0.15 0.34,0.34l0 6.13 -3.48 0 0 -6.13c0,-0.19 0.15,-0.34 0.34,-0.34z"/>
   <path class="fil7" d="M159.57 183.1l4.51 0c0.18,0 0.33,0.15 0.33,0.34l0 9.37 -5.18 0 0 -9.37c0,-0.19 0.15,-0.34 0.34,-0.34z"/>
   <rect class="fil31" x="160.57" y="182.75" width="2.51" height="2.39" rx="0.22" ry="0.22"/>
   <circle class="fil29" cx="161.82" cy="183.93" r="0.75"/>
   <rect class="fil29" x="160.39" y="186.34" width="2.88" height="4.49" rx="0.22" ry="0.22"/>
   <rect class="fil7" x="171.95" y="183.1" width="5.18" height="9.71"/>
   <rect class="fil31" x="173.28" y="182.75" width="2.51" height="2.39" rx="0.22" ry="0.22"/>
   <circle class="fil29" cx="174.54" cy="183.93" r="0.75"/>
   <rect class="fil29" x="173.1" y="186.34" width="2.88" height="4.49" rx="0.22" ry="0.22"/>
   <path class="fil32" d="M168.83 171.16c0.54,0.12 1.02,0.38 1.42,0.73l0.23 -0.08 0.31 -0.11 -0.11 0.31 -0.08 0.24c0.31,0.37 0.53,0.82 0.64,1.31l0.26 0.33 0.3 0.37 -0.3 0.37 -0.25 0.32c-0.12,0.54 -0.37,1.02 -0.72,1.42l0.08 0.23 0.1 0.3 -0.3 -0.1 -0.24 -0.09c-0.37,0.31 -0.82,0.54 -1.31,0.65l-0.32 0.26 -0.37 0.3 -0.38 -0.3 -0.3 -0.24c-0.55,-0.12 -1.04,-0.37 -1.44,-0.72l-0.23 0.08 -0.31 0.1 0.11 -0.3 0.08 -0.24c-0.31,-0.37 -0.54,-0.81 -0.65,-1.3l-0.26 -0.33 -0.3 -0.37 0.3 -0.37 0.24 -0.31c0.11,-0.55 0.37,-1.05 0.73,-1.46l-0.08 -0.23 -0.11 -0.3 0.31 0.1 0.24 0.09c0.37,-0.31 0.81,-0.53 1.29,-0.65l0.35 -0.27 0.37 -0.29 0.37 0.29 0.33 0.26zm-0.53 2.66c0.02,0.01 0.05,0.02 0.07,0.03l1.47 -1.46c-0.42,-0.38 -0.95,-0.61 -1.54,-0.65l0 2.08zm1.74 -1.23l-1.47 1.47c0.01,0.02 0.02,0.04 0.03,0.07l2.07 0c-0.03,-0.59 -0.27,-1.13 -0.63,-1.54zm0.63 1.82l-2.08 0c-0.01,0.03 -0.01,0.05 -0.03,0.07l1.47 1.47c0.37,-0.41 0.6,-0.95 0.64,-1.54zm-0.84 1.74l-1.47 -1.46c-0.02,0.01 -0.04,0.02 -0.06,0.03l0 2.07c0.58,-0.03 1.12,-0.27 1.53,-0.64zm-1.82 0.64l0 -2.07c-0.03,-0.01 -0.05,-0.01 -0.08,-0.03l-1.47 1.47c0.42,0.37 0.96,0.6 1.55,0.63zm-1.75 -0.83l1.47 -1.46c-0.02,-0.03 -0.03,-0.06 -0.04,-0.09l-2.08 0c0.04,0.6 0.28,1.14 0.65,1.55zm-0.65 -1.83l2.08 0c0.01,-0.03 0.02,-0.06 0.03,-0.09l-1.46 -1.46c-0.38,0.41 -0.61,0.95 -0.65,1.55zm0.85 -1.75l1.47 1.46c0.02,-0.01 0.05,-0.02 0.08,-0.03l0 -2.07c-0.59,0.03 -1.13,0.26 -1.55,0.64z"/>
   <rect class="fil30" x="162.54" y="143.79" width="11.75" height="7.08" rx="0.72" ry="0.72"/>
   <rect class="fil29" x="160.64" y="149.3" width="15.55" height="1.5" rx="0.72" ry="0.72"/>
   <rect class="fil8" x="155.44" y="150.73" width="25.95" height="1.84" rx="0.96" ry="0.96"/>
   <rect class="fil17" x="152.74" y="152.89" width="31.37" height="2.01" rx="0.61" ry="1.2"/>
   <rect class="fil29" x="153.74" y="154.87" width="29.35" height="2.81" rx="0.28" ry="0.77"/>
   <g>
    <rect class="fil29" x="164.02" y="146.22" width="2.1" height="3.62" rx="0.48" ry="0.48"/>
    <rect class="fil29" x="167.37" y="146.22" width="2.1" height="3.62" rx="0.48" ry="0.48"/>
    <rect class="fil29" x="170.72" y="146.22" width="2.1" height="3.62" rx="0.48" ry="0.48"/>
   </g>
   <rect class="fil17" x="161.35" y="142.19" width="14.14" height="1.76" rx="0.96" ry="1.4"/>
   <rect class="fil32" x="167.45" y="136.58" width="2.06" height="3.09"/>
   <path class="fil29" d="M167.51 139.34l1.97 0c0.47,0 0.89,0.2 1.18,0.58l2.16 2.85 -8.68 0 2.19 -2.85c0.29,-0.38 0.7,-0.58 1.18,-0.58z"/>
   <path class="fil17" d="M187.02 150.53c-3.64,2.52 -15.33,1.56 -18.12,1.61 -0.32,0.01 -0.59,0.01 -0.91,0 -2.7,-0.06 -14.51,0.93 -18.17,-1.61 -0.46,-0.32 -0.94,0.13 -0.52,0.56 4.08,4.24 33.26,5.09 38.24,0 0.42,-0.42 -0.07,-0.88 -0.52,-0.56z"/>
   <path class="fil17" d="M177.69 140.37c0.49,-0.26 0.66,0.35 0.37,0.53 -2.61,1.59 -6.63,2.9 -9.67,2.86 -3.04,0.04 -7,-1.27 -9.61,-2.86 -0.29,-0.18 -0.12,-0.79 0.37,-0.53 3.11,1.71 5.86,1.63 9.27,1.64 3.41,-0.01 6.15,0.07 9.27,-1.64z"/>
   <path class="fil33" d="M157.18 146.1c0.29,0.11 0.5,0.33 0.5,0.57l0 3.35c0,0.36 -0.42,0.65 -0.94,0.65l0 0c-0.51,0 -0.93,-0.29 -0.93,-0.65l0 -3.35c0,-0.24 0.2,-0.46 0.5,-0.57 -0.03,-0.09 -0.04,-0.2 -0.04,-0.31 0,-0.43 0.21,-0.78 0.47,-0.78 0.26,0 0.48,0.35 0.48,0.78 0,0.11 -0.02,0.22 -0.04,0.31z"/>
   <polygon class="fil32" points="143.4,151.07 143.66,152.44 144.07,154.61 143.25,154.61 142.42,154.61 142.83,152.44 143.09,151.07 "/>
   <polygon class="fil30" points="141.23,160.09 145.26,160.09 146.46,162.32 140.03,162.32 "/>
   <path class="fil8" d="M141.23 160.2l4.03 0c0.87,-2.22 2.65,-5.79 -2.01,-5.79 -4.67,0 -2.89,3.57 -2.02,5.79z"/>
   <path class="fil32" d="M142.28 160.15l1.93 0c0.32,-0.83 0.91,-2.04 0.12,-2.54 -0.02,-0.6 -0.5,-1.08 -1.08,-1.08 -0.59,0 -1.07,0.48 -1.09,1.08 -0.79,0.5 -0.2,1.71 0.12,2.54z"/>
   <rect class="fil29" x="142.43" y="150.54" width="1.63" height="0.78" rx="0.48" ry="0.48"/>
   <ellipse class="fil32" cx="143.25" cy="149.97" rx="0.42" ry="0.71"/>
   <path class="fil8" d="M139.78 162.18l6.93 0c0.33,0 0.6,0.27 0.6,0.6l0 7.47 -8.13 0 0 -7.47c0,-0.33 0.27,-0.6 0.6,-0.6z"/>
   <rect class="fil33" x="141.84" y="164.34" width="2.8" height="4.49" rx="0.33" ry="0.53"/>
   <path class="fil30" d="M138.34 170.13l8.97 0.02 0.02 19.21 -11.22 0 1.63 -18.68c0.03,-0.31 0.29,-0.55 0.6,-0.55z"/>
   <polygon class="fil17" points="137.09,178.16 147.33,178.16 147.33,180.51 136.89,180.51 "/>
   <path class="fil33" d="M136.11 189.33l11.21 0 0 4.03 -11.02 0c-0.18,0 -0.33,-0.07 -0.45,-0.2 -0.11,-0.13 -0.16,-0.29 -0.14,-0.47l0.4 -3.36z"/>
   <g>
    <polygon class="fil32" points="192.79,151.07 192.53,152.44 192.12,154.61 192.94,154.61 193.76,154.61 193.35,152.44 193.09,151.07 "/>
    <polygon class="fil30" points="194.95,160.09 190.92,160.09 189.73,162.32 196.15,162.32 "/>
    <path class="fil8" d="M194.95 160.2l-4.03 0c-0.86,-2.22 -2.65,-5.79 2.02,-5.79 4.67,0 2.88,3.57 2.01,5.79z"/>
    <path class="fil32" d="M193.9 160.15l-1.93 0c-0.32,-0.83 -0.9,-2.04 -0.11,-2.54 0.02,-0.6 0.49,-1.08 1.08,-1.08 0.58,0 1.06,0.48 1.08,1.08 0.79,0.5 0.21,1.71 -0.12,2.54z"/>
    <rect class="fil29" x="192.12" y="150.54" width="1.63" height="0.78" rx="0.48" ry="0.48"/>
    <ellipse class="fil32" cx="192.94" cy="149.97" rx="0.42" ry="0.71"/>
    <path class="fil8" d="M196.41 162.18l-6.94 0c-0.33,0 -0.6,0.27 -0.6,0.6l0 7.47 8.13 0 0 -7.47c0,-0.33 -0.27,-0.6 -0.59,-0.6z"/>
    <rect class="fil33" x="191.54" y="164.34" width="2.8" height="4.49" rx="0.33" ry="0.53"/>
    <path class="fil30" d="M197.85 170.13l-8.98 0.02 -0.01 19.21 11.21 0 -1.63 -18.68c-0.02,-0.31 -0.28,-0.55 -0.59,-0.55z"/>
    <polygon class="fil17" points="199.09,178.16 188.85,178.16 188.85,180.51 199.3,180.51 "/>
    <path class="fil33" d="M200.07 189.33l-11.21 0 0 4.03 11.02 0c0.18,0 0.33,-0.07 0.45,-0.2 0.12,-0.13 0.17,-0.29 0.15,-0.47l-0.41 -3.36z"/>
   </g>
   <rect class="fil33" x="148.81" y="164.86" width="4.12" height="3.48"/>
   <circle class="fil32" cx="150.87" cy="166.6" r="1.22"/>
   <rect class="fil33" x="150.68" y="163.98" width="0.44" height="1.05"/>
   <path class="fil33" d="M151.22 161.4c0.22,0.07 0.37,0.22 0.37,0.38l0 2.2c0,0.23 -0.31,0.42 -0.68,0.42l0 0c-0.38,0 -0.69,-0.19 -0.69,-0.42l0 -2.2c0,-0.16 0.15,-0.31 0.36,-0.38 -0.01,-0.06 -0.02,-0.13 -0.02,-0.2 0,-0.29 0.15,-0.51 0.35,-0.51 0.19,0 0.34,0.22 0.34,0.51 0,0.07 -0.01,0.14 -0.03,0.2z"/>
   <rect class="fil33" x="153.74" y="164.86" width="4.12" height="3.48"/>
   <circle class="fil32" cx="155.8" cy="166.6" r="1.22"/>
   <rect class="fil33" x="155.61" y="163.98" width="0.44" height="1.05"/>
   <path class="fil33" d="M156.15 161.4c0.22,0.07 0.37,0.22 0.37,0.38l0 2.2c0,0.23 -0.31,0.42 -0.69,0.42l0 0c-0.37,0 -0.68,-0.19 -0.68,-0.42l0 -2.2c0,-0.16 0.15,-0.31 0.36,-0.38 -0.01,-0.06 -0.02,-0.13 -0.02,-0.2 0,-0.29 0.15,-0.51 0.34,-0.51 0.2,0 0.35,0.22 0.35,0.51 0,0.07 -0.01,0.14 -0.03,0.2z"/>
   <rect class="fil33" x="158.67" y="164.86" width="4.12" height="3.48"/>
   <circle class="fil32" cx="160.73" cy="166.6" r="1.22"/>
   <rect class="fil33" x="160.54" y="163.98" width="0.44" height="1.05"/>
   <path class="fil33" d="M161.08 161.4c0.22,0.07 0.37,0.22 0.37,0.38l0 2.2c0,0.23 -0.31,0.42 -0.69,0.42l0 0c-0.37,0 -0.68,-0.19 -0.68,-0.42l0 -2.2c0,-0.16 0.15,-0.31 0.36,-0.38 -0.01,-0.06 -0.02,-0.13 -0.02,-0.2 0,-0.29 0.15,-0.51 0.34,-0.51 0.2,0 0.35,0.22 0.35,0.51 0,0.07 -0.01,0.14 -0.03,0.2z"/>
   <rect class="fil33" x="163.6" y="164.86" width="4.12" height="3.48"/>
   <circle class="fil32" cx="165.66" cy="166.6" r="1.22"/>
   <rect class="fil33" x="165.47" y="163.98" width="0.44" height="1.05"/>
   <path class="fil33" d="M166.01 161.4c0.22,0.07 0.37,0.22 0.37,0.38l0 2.2c0,0.23 -0.31,0.42 -0.69,0.42l0 0c-0.37,0 -0.68,-0.19 -0.68,-0.42l0 -2.2c0,-0.16 0.15,-0.31 0.36,-0.38 -0.01,-0.06 -0.02,-0.13 -0.02,-0.2 0,-0.29 0.15,-0.51 0.34,-0.51 0.2,0 0.35,0.22 0.35,0.51 0,0.07 -0.01,0.14 -0.03,0.2z"/>
   <rect class="fil33" x="168.53" y="164.86" width="4.12" height="3.48"/>
   <circle class="fil32" cx="170.59" cy="166.6" r="1.22"/>
   <rect class="fil33" x="170.4" y="163.98" width="0.44" height="1.05"/>
   <path class="fil33" d="M170.94 161.4c0.22,0.07 0.37,0.22 0.37,0.38l0 2.2c0,0.23 -0.31,0.42 -0.69,0.42l0 0c-0.37,0 -0.68,-0.19 -0.68,-0.42l0 -2.2c0,-0.16 0.15,-0.31 0.36,-0.38 -0.01,-0.06 -0.02,-0.13 -0.02,-0.2 0,-0.29 0.15,-0.51 0.34,-0.51 0.2,0 0.35,0.22 0.35,0.51 0,0.07 -0.01,0.14 -0.03,0.2z"/>
   <rect class="fil33" x="173.46" y="164.86" width="4.12" height="3.48"/>
   <circle class="fil32" cx="175.52" cy="166.6" r="1.22"/>
   <rect class="fil33" x="175.33" y="163.98" width="0.44" height="1.05"/>
   <path class="fil33" d="M175.87 161.4c0.22,0.07 0.37,0.22 0.37,0.38l0 2.2c0,0.23 -0.31,0.42 -0.69,0.42l0 0c-0.37,0 -0.68,-0.19 -0.68,-0.42l0 -2.2c0,-0.16 0.15,-0.31 0.36,-0.38 -0.01,-0.06 -0.02,-0.13 -0.02,-0.2 0,-0.29 0.15,-0.51 0.34,-0.51 0.2,0 0.35,0.22 0.35,0.51 0,0.07 -0.01,0.14 -0.03,0.2z"/>
   <rect class="fil33" x="178.39" y="164.86" width="4.12" height="3.48"/>
   <circle class="fil32" cx="180.45" cy="166.6" r="1.22"/>
   <rect class="fil33" x="180.26" y="163.98" width="0.44" height="1.05"/>
   <path class="fil33" d="M180.8 161.4c0.22,0.07 0.37,0.22 0.37,0.38l0 2.2c0,0.23 -0.31,0.42 -0.69,0.42l0 0c-0.37,0 -0.68,-0.19 -0.68,-0.42l0 -2.2c0,-0.16 0.15,-0.31 0.36,-0.38 -0.01,-0.06 -0.03,-0.13 -0.03,-0.2 0,-0.29 0.16,-0.51 0.35,-0.51 0.2,0 0.35,0.22 0.35,0.51 0,0.07 -0.01,0.14 -0.03,0.2z"/>
   <rect class="fil33" x="183.32" y="164.86" width="4.12" height="3.48"/>
   <circle class="fil32" cx="185.38" cy="166.6" r="1.22"/>
   <rect class="fil33" x="185.19" y="163.98" width="0.44" height="1.05"/>
   <path class="fil33" d="M185.73 161.4c0.22,0.07 0.37,0.22 0.37,0.38l0 2.2c0,0.23 -0.31,0.42 -0.69,0.42l0 0c-0.38,0 -0.68,-0.19 -0.68,-0.42l0 -2.2c0,-0.16 0.14,-0.31 0.36,-0.38 -0.01,-0.06 -0.03,-0.13 -0.03,-0.2 0,-0.29 0.16,-0.51 0.35,-0.51 0.19,0 0.35,0.22 0.35,0.51 0,0.07 -0.01,0.14 -0.03,0.2z"/>
   <path class="fil33" d="M180.75 146.1c0.3,0.11 0.5,0.33 0.5,0.57l0 3.35c0,0.36 -0.42,0.65 -0.93,0.65l0 0c-0.52,0 -0.94,-0.29 -0.94,-0.65l0 -3.35c0,-0.24 0.21,-0.46 0.5,-0.57 -0.02,-0.09 -0.04,-0.2 -0.04,-0.31 0,-0.43 0.21,-0.78 0.48,-0.78 0.26,0 0.47,0.35 0.47,0.78 0,0.11 -0.02,0.22 -0.04,0.31z"/>
   <rect class="fil33" x="166.41" y="155.44" width="4.02" height="4.02" rx="0.59" ry="0.59"/>
   <circle class="fil32" cx="168.42" cy="157.45" r="1.18"/>
   <rect class="fil32" x="167.97" y="134.05" width="1.03" height="1.88"/>
   <rect class="fil34" x="166.92" y="135.84" width="3.12" height="1.17" rx="0.56" ry="0.72"/>
   <rect class="fil29" x="167.73" y="133.57" width="1.5" height="0.49" rx="0.35" ry="0.35"/>
   <ellipse class="fil32" cx="168.48" cy="132.84" rx="0.43" ry="0.78"/>
   <g>
    <circle class="fil33" cx="161.73" cy="179.33" r="0.92"/>
    <circle class="fil33" cx="168.19" cy="179.33" r="0.92"/>
    <circle class="fil33" cx="174.48" cy="179.33" r="0.92"/>
   </g>
   <rect class="fil30" x="152.23" y="169.91" width="2.44" height="19.43"/>
   <rect class="fil30" x="181.64" y="169.91" width="2.44" height="19.43"/>
  </g>
 </g>
</svg>
