<?xml version="1.0" encoding="UTF-8"?>
<!DOCTYPE svg PUBLIC "-//W3C//DTD SVG 1.1//EN" "http://www.w3.org/Graphics/SVG/1.1/DTD/svg11.dtd">
<!-- Creator: CorelDRAW 2020 (64-Bit) -->
<svg xmlns="http://www.w3.org/2000/svg" xml:space="preserve" width="401px" height="378px" version="1.1" style="shape-rendering:geometricPrecision; text-rendering:geometricPrecision; image-rendering:optimizeQuality; fill-rule:evenodd; clip-rule:evenodd"
viewBox="0 0 71.62 67.6"
 xmlns:xlink="http://www.w3.org/1999/xlink"
 xmlns:xodm="http://www.corel.com/coreldraw/odm/2003">
 <defs>
  <style type="text/css">
   <![CDATA[
    .str1 {stroke:#333333;stroke-width:0.18;stroke-miterlimit:22.9256}
    .str2 {stroke:#009933;stroke-width:0.16;stroke-miterlimit:22.9256}
    .str0 {stroke:#A82AC7;stroke-width:0.16;stroke-miterlimit:22.9256}
    .fil10 {fill:none}
    .fil8 {fill:#5B281B}
    .fil19 {fill:#009933}
    .fil15 {fill:#306E0E}
    .fil3 {fill:#333333}
    .fil9 {fill:#4D4D4D}
    .fil21 {fill:#5FD5F5}
    .fil5 {fill:#6666CC}
    .fil22 {fill:#66FFCC}
    .fil12 {fill:#910731}
    .fil11 {fill:#999999}
    .fil16 {fill:#99FF99}
    .fil18 {fill:#99FFFF}
    .fil25 {fill:#9C6149}
    .fil2 {fill:#AA71F0}
    .fil4 {fill:#ABB4DB}
    .fil0 {fill:#CCFFCC}
    .fil23 {fill:#D4362A}
    .fil24 {fill:#E0A167}
    .fil1 {fill:#F7694A}
    .fil13 {fill:#FAB889}
    .fil6 {fill:#FCD99C}
    .fil20 {fill:#FCDA1C}
    .fil17 {fill:#FF9E30}
    .fil7 {fill:#FFFFCC}
    .fil14 {fill:white}
   ]]>
  </style>
    <mask id="id0">
  <linearGradient id="id1" gradientUnits="userSpaceOnUse" x1="42.45" y1="26.76" x2="69.16" y2="16.55">
   <stop offset="0" style="stop-opacity:1; stop-color:white"/>
   <stop offset="1" style="stop-opacity:0; stop-color:white"/>
  </linearGradient>
     <rect style="fill:url(#id1)" x="41.85" y="12.65" width="29.83" height="17.44"/>
    </mask>
    <mask id="id2">
  <linearGradient id="id3" gradientUnits="userSpaceOnUse" x1="42.39" y1="25.05" x2="69.11" y2="14.84">
   <stop offset="0" style="stop-opacity:1; stop-color:white"/>
   <stop offset="1" style="stop-opacity:0; stop-color:white"/>
  </linearGradient>
     <rect style="fill:url(#id3)" x="41.79" y="10.94" width="29.83" height="17.45"/>
    </mask>
    <mask id="id4">
  <linearGradient id="id5" gradientUnits="userSpaceOnUse" x1="42.24" y1="61.74" x2="68.96" y2="51.53">
   <stop offset="0" style="stop-opacity:1; stop-color:white"/>
   <stop offset="1" style="stop-opacity:0; stop-color:white"/>
  </linearGradient>
     <rect style="fill:url(#id5)" x="41.64" y="47.63" width="29.83" height="17.44"/>
    </mask>
    <mask id="id6">
  <linearGradient id="id7" gradientUnits="userSpaceOnUse" x1="2.84" y1="62.43" x2="29.55" y2="52.22">
   <stop offset="0" style="stop-opacity:1; stop-color:white"/>
   <stop offset="1" style="stop-opacity:0; stop-color:white"/>
  </linearGradient>
     <rect style="fill:url(#id7)" x="2.24" y="48.32" width="29.83" height="17.44"/>
    </mask>
    <mask id="id8">
  <linearGradient id="id9" gradientUnits="userSpaceOnUse" x1="3.24" y1="25.33" x2="29.95" y2="15.12">
   <stop offset="0" style="stop-opacity:1; stop-color:white"/>
   <stop offset="1" style="stop-opacity:0; stop-color:white"/>
  </linearGradient>
     <rect style="fill:url(#id9)" x="2.64" y="11.22" width="29.83" height="17.44"/>
    </mask>
 </defs>
 <g id="Layer_x0020_1">
  <metadata id="CorelCorpID_0Corel-Layer"/>
  <g id="_2261554052992">
   <rect class="fil0" x="38.99" width="32.63" height="30.61" rx="0.63" ry="0.6"/>
   <path class="fil1" style="mask:url(#id0)" d="M54.36 14.58c-8.01,2.84 -13.43,8.18 -12.1,11.92 1.32,3.75 8.89,4.49 16.91,1.66 8.01,-2.83 13.43,-8.17 12.1,-11.92 -1.33,-3.75 -8.9,-4.49 -16.91,-1.66z"/>
   <rect class="fil2" x="38.99" width="32.63" height="30.61" rx="0.63" ry="0.6"/>
   <path class="fil1" style="mask:url(#id2)" d="M54.31 12.88c-8.02,2.83 -13.43,8.17 -12.11,11.92 1.33,3.75 8.9,4.49 16.91,1.65 8.01,-2.83 13.43,-8.17 12.1,-11.92 -1.32,-3.75 -8.89,-4.49 -16.9,-1.65z"/>
   <g>
    <path class="fil3" d="M45.55 12.97l2.43 0 0 2.72 -2.43 0 0 -2.72zm1.68 0.28l0 2.16c0,0.05 0.04,0.1 0.09,0.1l0.4 0c0.05,0 0.09,-0.05 0.09,-0.1l0 -2.16c0,-0.05 -0.04,-0.1 -0.09,-0.1l-0.4 0c-0.05,0 -0.09,0.05 -0.09,0.1zm-0.16 2.16l0 -2.16c0,-0.05 -0.04,-0.1 -0.09,-0.1l-0.42 0c-0.05,0 -0.09,0.05 -0.09,0.1l0 2.16c0,0.05 0.04,0.1 0.09,0.1l0.42 0c0.05,0 0.09,-0.05 0.09,-0.1zm-1.26 -2.26l0.4 0c0.05,0 0.09,0.05 0.09,0.1l0 2.16c0,0.05 -0.04,0.1 -0.09,0.1l-0.4 0c-0.05,0 -0.09,-0.05 -0.09,-0.1l0 -2.16c0,-0.05 0.04,-0.1 0.09,-0.1z"/>
    <rect class="fil3" x="45.15" y="15.38" width="3.2" height="0.56" rx="0.12" ry="0.13"/>
    <rect class="fil4" x="47.81" y="8.15" width="15.13" height="15.27"/>
    <rect class="fil5" x="49.63" y="7.99" width="11.5" height="15.4"/>
    <path class="fil3" d="M60.05 23.32l0 -5.12c0,-1.05 -0.8,-1.91 -1.79,-1.91l-0.28 0c-0.99,0 -1.8,0.86 -1.8,1.91l0 5.12 3.87 0z"/>
    <path class="fil6 str0" d="M54.55 13.6l0 -2.09c0,-0.99 -0.75,-1.8 -1.68,-1.8l-0.26 0c-0.93,0 -1.69,0.81 -1.69,1.8l0 2.09 3.63 0z"/>
    <path class="fil7" d="M54.67 13.7l0 -2.22c0,-1.05 -0.81,-1.91 -1.79,-1.91l-0.28 0c-0.99,0 -1.8,0.86 -1.8,1.91l0 2.22 3.87 0zm-3.52 -1.46l1.35 0c0.05,0 0.09,-0.04 0.09,-0.09l0 -0.8c0,-0.05 -0.04,-0.09 -0.09,-0.09l-1.34 0c-0.05,0 -0.09,0.04 -0.09,0.08 0,0.06 0,0.11 0,0.16l-0.01 0.65c0,0.03 0.01,0.05 0.03,0.07 0.02,0.02 0.04,0.02 0.06,0.02zm1.82 0l1.35 0c0.05,0 0.09,-0.04 0.09,-0.08l0 -0.66c0,-0.05 0,-0.11 -0.01,-0.16 0,-0.05 -0.04,-0.08 -0.09,-0.08l-1.34 0c-0.05,0 -0.09,0.04 -0.09,0.09l0 0.8c0,0.05 0.04,0.09 0.09,0.09zm1.35 0.24l-1.35 -0.01c-0.02,0 -0.04,0.01 -0.06,0.03 -0.02,0.02 -0.03,0.04 -0.03,0.06l0 0.78c0,0.04 0.04,0.09 0.09,0.09l1.35 0c0.02,0 0.04,-0.01 0.06,-0.03 0.02,-0.02 0.03,-0.04 0.03,-0.06l0 -0.77c0,-0.05 -0.04,-0.09 -0.09,-0.09zm-1.82 0l-1.35 0c-0.05,0 -0.09,0.04 -0.09,0.08l0 0.78c0,0.02 0.01,0.04 0.02,0.06 0.02,0.02 0.04,0.03 0.07,0.03l1.35 0c0.05,0 0.09,-0.04 0.09,-0.09l0 -0.77c0,-0.05 -0.04,-0.09 -0.09,-0.09zm-1.25 -1.45l1.25 0c0.05,0 0.09,-0.04 0.09,-0.09l0 -0.99c0,-0.03 -0.01,-0.05 -0.03,-0.07 -0.02,-0.02 -0.04,-0.02 -0.07,-0.02 -0.6,0.05 -1.11,0.47 -1.32,1.05 -0.01,0.02 -0.01,0.05 0.01,0.08 0.02,0.02 0.04,0.04 0.07,0.04zm1.72 0l1.25 0c0.03,0 0.06,-0.02 0.07,-0.04 0.02,-0.03 0.03,-0.06 0.01,-0.08 -0.21,-0.58 -0.72,-1 -1.32,-1.05 -0.03,0 -0.05,0 -0.07,0.02 -0.02,0.02 -0.03,0.04 -0.03,0.07l0 0.99c0,0.05 0.04,0.09 0.09,0.09z"/>
    <rect class="fil8" x="48.08" y="5.59" width="14.54" height="1.16" rx="0.36" ry="0.36"/>
    <rect class="fil9" x="46.8" y="6.57" width="17.15" height="1.77" rx="0.54" ry="0.44"/>
    <rect class="fil3" x="50.41" y="13.69" width="4.66" height="0.56" rx="0.18" ry="0.13"/>
    <circle class="fil6" cx="56.97" cy="20.04" r="0.43"/>
    <path class="fil10 str1" d="M45.61 13.04l-0.31 0c-0.24,0 -0.49,0.05 -0.61,0.3 -0.18,0.36 0.4,0.75 0.62,0.37 0.09,-0.15 -0.03,-0.34 -0.19,-0.34 -0.09,-0.01 -0.22,0.08 -0.16,0.22"/>
    <rect class="fil11" x="56.91" y="19.96" width="1.32" height="0.25" rx="0.54" ry="0.54"/>
    <path class="fil6 str0" d="M60.02 13.6l0 -2.09c0,-0.99 -0.76,-1.8 -1.69,-1.8l-0.26 0c-0.93,0 -1.69,0.81 -1.69,1.8l0 2.09 3.64 0z"/>
    <path class="fil7" d="M60.14 13.7l0 -2.22c0,-1.05 -0.81,-1.91 -1.8,-1.91l-0.28 0c-0.99,0 -1.8,0.86 -1.8,1.91l0 2.22 3.88 0zm-3.52 -1.46l1.34 0c0.05,0 0.09,-0.04 0.09,-0.09l0 -0.8c0,-0.05 -0.04,-0.09 -0.09,-0.09l-1.34 0c-0.04,0 -0.08,0.04 -0.08,0.08 -0.01,0.06 -0.01,0.11 -0.01,0.16l0 0.65c0,0.03 0.01,0.05 0.02,0.07 0.02,0.02 0.04,0.02 0.07,0.02zm1.81 0l1.35 0c0.05,0 0.09,-0.04 0.09,-0.08l0 -0.66c0.01,-0.05 0,-0.11 -0.01,-0.16 0,-0.05 -0.04,-0.08 -0.08,-0.08l-1.35 0c-0.05,0 -0.09,0.04 -0.09,0.09l0 0.8c0,0.05 0.04,0.09 0.09,0.09zm1.35 0.24l-1.34 -0.01c-0.03,0 -0.05,0.01 -0.07,0.03 -0.02,0.02 -0.02,0.04 -0.02,0.06l0 0.78c0,0.04 0.04,0.09 0.09,0.09l1.34 0c0.02,0 0.05,-0.01 0.06,-0.03 0.02,-0.02 0.03,-0.04 0.03,-0.06l0 -0.77c0,-0.05 -0.04,-0.09 -0.09,-0.09zm-1.81 0l-1.35 0c-0.05,0 -0.09,0.04 -0.09,0.08l-0.01 0.78c0,0.02 0.01,0.04 0.03,0.06 0.01,0.02 0.04,0.03 0.06,0.03l1.36 0c0.04,0 0.08,-0.04 0.08,-0.09l0 -0.77c0,-0.05 -0.04,-0.09 -0.08,-0.09zm-1.25 -1.45l1.25 0c0.04,0 0.08,-0.04 0.08,-0.09l0 -0.99c0,-0.03 0,-0.05 -0.02,-0.07 -0.02,-0.02 -0.05,-0.02 -0.07,-0.02 -0.6,0.05 -1.11,0.47 -1.33,1.05 -0.01,0.02 0,0.05 0.01,0.08 0.02,0.02 0.05,0.04 0.08,0.04zm1.72 0l1.24 0c0.03,0 0.06,-0.02 0.08,-0.04 0.02,-0.03 0.02,-0.06 0.01,-0.08 -0.21,-0.58 -0.72,-1 -1.33,-1.05 -0.02,0 -0.05,0 -0.06,0.02 -0.02,0.02 -0.03,0.04 -0.03,0.07l0 0.99c0,0.05 0.04,0.09 0.09,0.09z"/>
    <rect class="fil3" x="55.87" y="13.69" width="4.66" height="0.56" rx="0.18" ry="0.13"/>
    <path class="fil6 str0" d="M54.55 20.31l0 -2.09c0,-0.99 -0.75,-1.8 -1.68,-1.8l-0.26 0c-0.93,0 -1.69,0.81 -1.69,1.8l0 2.09 3.63 0z"/>
    <path class="fil7" d="M54.67 20.41l0 -2.22c0,-1.05 -0.81,-1.91 -1.79,-1.91l-0.28 0c-0.99,0 -1.8,0.86 -1.8,1.91l0 2.22 3.87 0zm-3.52 -1.46l1.35 0c0.05,0 0.09,-0.04 0.09,-0.09l0 -0.81c0,-0.04 -0.04,-0.09 -0.09,-0.09l-1.34 0c-0.05,0 -0.09,0.04 -0.09,0.09 0,0.05 0,0.11 0,0.16l-0.01 0.65c0,0.02 0.01,0.05 0.03,0.06 0.02,0.02 0.04,0.03 0.06,0.03zm1.82 0l1.35 0c0.05,0 0.09,-0.04 0.09,-0.09l0 -0.65c0,-0.06 0,-0.11 -0.01,-0.17 0,-0.04 -0.04,-0.08 -0.09,-0.08l-1.34 0c-0.05,0 -0.09,0.05 -0.09,0.09l0 0.81c0,0.05 0.04,0.09 0.09,0.09zm1.35 0.23l-1.35 0c-0.02,0 -0.04,0.01 -0.06,0.02 -0.02,0.02 -0.03,0.04 -0.03,0.07l0 0.77c0,0.05 0.04,0.09 0.09,0.09l1.35 0c0.02,0 0.04,0 0.06,-0.02 0.02,-0.02 0.03,-0.04 0.03,-0.07l0 -0.77c0,-0.05 -0.04,-0.09 -0.09,-0.09zm-1.82 0l-1.35 0c-0.05,0 -0.09,0.04 -0.09,0.09l0 0.77c0,0.03 0.01,0.05 0.02,0.07 0.02,0.02 0.04,0.02 0.07,0.02l1.35 0c0.05,0 0.09,-0.04 0.09,-0.09l0 -0.77c0,-0.05 -0.04,-0.09 -0.09,-0.09zm-1.25 -1.45l1.25 0c0.05,0 0.09,-0.04 0.09,-0.09l0 -0.99c0,-0.02 -0.01,-0.04 -0.03,-0.06 -0.02,-0.02 -0.04,-0.03 -0.07,-0.02 -0.6,0.05 -1.11,0.47 -1.32,1.04 -0.01,0.03 -0.01,0.06 0.01,0.08 0.02,0.03 0.04,0.04 0.07,0.04zm1.72 0l1.25 0c0.03,0 0.06,-0.01 0.07,-0.04 0.02,-0.02 0.03,-0.05 0.01,-0.08 -0.21,-0.57 -0.72,-0.99 -1.32,-1.04 -0.03,-0.01 -0.05,0 -0.07,0.02 -0.02,0.02 -0.03,0.04 -0.03,0.06l0 0.99c0,0.05 0.04,0.09 0.09,0.09z"/>
    <rect class="fil3" x="50.41" y="20.4" width="4.66" height="0.56" rx="0.18" ry="0.13"/>
    <path class="fil12" d="M62.29 23.39l1.25 0c0.01,0 0.01,-0.02 0.02,-0.05l0.17 -1.25c0,-0.05 0,-0.12 0,-0.18 -0.01,-0.06 -0.02,-0.09 -0.03,-0.09l-1.56 0c-0.02,0 -0.03,0.03 -0.04,0.09 0,0.06 0,0.13 0.01,0.18l0.16 1.25c0.01,0.03 0.02,0.05 0.02,0.05z"/>
    <rect class="fil8" x="46.13" y="23.25" width="18.65" height="0.63" rx="0.46" ry="0.2"/>
    <path class="fil3" d="M45.55 12.97l2.43 0 0 2.72 -2.43 0 0 -2.72zm1.68 0.28l0 2.16c0,0.05 0.04,0.1 0.09,0.1l0.4 0c0.05,0 0.09,-0.05 0.09,-0.1l0 -2.16c0,-0.05 -0.04,-0.1 -0.09,-0.1l-0.4 0c-0.05,0 -0.09,0.05 -0.09,0.1zm-0.16 2.16l0 -2.16c0,-0.05 -0.04,-0.1 -0.09,-0.1l-0.42 0c-0.05,0 -0.09,0.05 -0.09,0.1l0 2.16c0,0.05 0.04,0.1 0.09,0.1l0.42 0c0.05,0 0.09,-0.05 0.09,-0.1zm-1.26 -2.26l0.4 0c0.05,0 0.09,0.05 0.09,0.1l0 2.16c0,0.05 -0.04,0.1 -0.09,0.1l-0.4 0c-0.05,0 -0.09,-0.05 -0.09,-0.1l0 -2.16c0,-0.05 0.04,-0.1 0.09,-0.1z"/>
    <rect class="fil3" x="45.15" y="15.38" width="3.2" height="0.56" rx="0.12" ry="0.13"/>
    <rect class="fil4" x="47.81" y="8.15" width="15.13" height="15.27"/>
    <rect class="fil5" x="49.63" y="7.99" width="11.5" height="15.4"/>
    <path class="fil3" d="M60.05 23.32l0 -5.12c0,-1.05 -0.8,-1.91 -1.79,-1.91l-0.28 0c-0.99,0 -1.8,0.86 -1.8,1.91l0 5.12 3.87 0z"/>
    <path class="fil13 str0" d="M54.55 13.6l0 -2.09c0,-0.99 -0.75,-1.8 -1.68,-1.8l-0.26 0c-0.93,0 -1.69,0.81 -1.69,1.8l0 2.09 3.63 0z"/>
    <path class="fil14" d="M54.67 13.7l0 -2.22c0,-1.05 -0.81,-1.91 -1.79,-1.91l-0.28 0c-0.99,0 -1.8,0.86 -1.8,1.91l0 2.22 3.87 0zm-3.52 -1.46l1.35 0c0.05,0 0.09,-0.04 0.09,-0.09l0 -0.8c0,-0.05 -0.04,-0.09 -0.09,-0.09l-1.34 0c-0.05,0 -0.09,0.04 -0.09,0.08 0,0.06 0,0.11 0,0.16l-0.01 0.65c0,0.03 0.01,0.05 0.03,0.07 0.02,0.02 0.04,0.02 0.06,0.02zm1.82 0l1.35 0c0.05,0 0.09,-0.04 0.09,-0.08l0 -0.66c0,-0.05 0,-0.11 -0.01,-0.16 0,-0.05 -0.04,-0.08 -0.09,-0.08l-1.34 0c-0.05,0 -0.09,0.04 -0.09,0.09l0 0.8c0,0.05 0.04,0.09 0.09,0.09zm1.35 0.24l-1.35 -0.01c-0.02,0 -0.04,0.01 -0.06,0.03 -0.02,0.02 -0.03,0.04 -0.03,0.06l0 0.78c0,0.04 0.04,0.09 0.09,0.09l1.35 0c0.02,0 0.04,-0.01 0.06,-0.03 0.02,-0.02 0.03,-0.04 0.03,-0.06l0 -0.77c0,-0.05 -0.04,-0.09 -0.09,-0.09zm-1.82 0l-1.35 0c-0.05,0 -0.09,0.04 -0.09,0.08l0 0.78c0,0.02 0.01,0.04 0.02,0.06 0.02,0.02 0.04,0.03 0.07,0.03l1.35 0c0.05,0 0.09,-0.04 0.09,-0.09l0 -0.77c0,-0.05 -0.04,-0.09 -0.09,-0.09zm-1.25 -1.45l1.25 0c0.05,0 0.09,-0.04 0.09,-0.09l0 -0.99c0,-0.03 -0.01,-0.05 -0.03,-0.07 -0.02,-0.02 -0.04,-0.02 -0.07,-0.02 -0.6,0.05 -1.11,0.47 -1.32,1.05 -0.01,0.02 -0.01,0.05 0.01,0.08 0.02,0.02 0.04,0.04 0.07,0.04zm1.72 0l1.25 0c0.03,0 0.06,-0.02 0.07,-0.04 0.02,-0.03 0.03,-0.06 0.01,-0.08 -0.21,-0.58 -0.72,-1 -1.32,-1.05 -0.03,0 -0.05,0 -0.07,0.02 -0.02,0.02 -0.03,0.04 -0.03,0.07l0 0.99c0,0.05 0.04,0.09 0.09,0.09z"/>
    <rect class="fil4" x="47.69" y="5.39" width="15.36" height="1.57" rx="0.38" ry="0.49"/>
    <rect class="fil9" x="46.8" y="6.57" width="17.15" height="1.77" rx="0.54" ry="0.44"/>
    <rect class="fil3" x="50.41" y="13.69" width="4.66" height="0.56" rx="0.18" ry="0.13"/>
    <circle class="fil6" cx="56.97" cy="20.04" r="0.43"/>
    <path class="fil10 str1" d="M45.61 13.04l-0.31 0c-0.24,0 -0.49,0.05 -0.61,0.3 -0.18,0.36 0.4,0.75 0.62,0.37 0.09,-0.15 -0.03,-0.34 -0.19,-0.34 -0.09,-0.01 -0.22,0.08 -0.16,0.22"/>
    <rect class="fil11" x="56.91" y="19.96" width="1.32" height="0.25" rx="0.54" ry="0.54"/>
    <path class="fil13 str0" d="M60.02 13.6l0 -2.09c0,-0.99 -0.76,-1.8 -1.69,-1.8l-0.26 0c-0.93,0 -1.69,0.81 -1.69,1.8l0 2.09 3.64 0z"/>
    <path class="fil14" d="M60.14 13.7l0 -2.22c0,-1.05 -0.81,-1.91 -1.8,-1.91l-0.28 0c-0.99,0 -1.8,0.86 -1.8,1.91l0 2.22 3.88 0zm-3.52 -1.46l1.34 0c0.05,0 0.09,-0.04 0.09,-0.09l0 -0.8c0,-0.05 -0.04,-0.09 -0.09,-0.09l-1.34 0c-0.04,0 -0.08,0.04 -0.08,0.08 -0.01,0.06 -0.01,0.11 -0.01,0.16l0 0.65c0,0.03 0.01,0.05 0.02,0.07 0.02,0.02 0.04,0.02 0.07,0.02zm1.81 0l1.35 0c0.05,0 0.09,-0.04 0.09,-0.08l0 -0.66c0.01,-0.05 0,-0.11 -0.01,-0.16 0,-0.05 -0.04,-0.08 -0.08,-0.08l-1.35 0c-0.05,0 -0.09,0.04 -0.09,0.09l0 0.8c0,0.05 0.04,0.09 0.09,0.09zm1.35 0.24l-1.34 -0.01c-0.03,0 -0.05,0.01 -0.07,0.03 -0.02,0.02 -0.02,0.04 -0.02,0.06l0 0.78c0,0.04 0.04,0.09 0.09,0.09l1.34 0c0.02,0 0.05,-0.01 0.06,-0.03 0.02,-0.02 0.03,-0.04 0.03,-0.06l0 -0.77c0,-0.05 -0.04,-0.09 -0.09,-0.09zm-1.81 0l-1.35 0c-0.05,0 -0.09,0.04 -0.09,0.08l-0.01 0.78c0,0.02 0.01,0.04 0.03,0.06 0.01,0.02 0.04,0.03 0.06,0.03l1.36 0c0.04,0 0.08,-0.04 0.08,-0.09l0 -0.77c0,-0.05 -0.04,-0.09 -0.08,-0.09zm-1.25 -1.45l1.25 0c0.04,0 0.08,-0.04 0.08,-0.09l0 -0.99c0,-0.03 0,-0.05 -0.02,-0.07 -0.02,-0.02 -0.05,-0.02 -0.07,-0.02 -0.6,0.05 -1.11,0.47 -1.33,1.05 -0.01,0.02 0,0.05 0.01,0.08 0.02,0.02 0.05,0.04 0.08,0.04zm1.72 0l1.24 0c0.03,0 0.06,-0.02 0.08,-0.04 0.02,-0.03 0.02,-0.06 0.01,-0.08 -0.21,-0.58 -0.72,-1 -1.33,-1.05 -0.02,0 -0.05,0 -0.06,0.02 -0.02,0.02 -0.03,0.04 -0.03,0.07l0 0.99c0,0.05 0.04,0.09 0.09,0.09z"/>
    <rect class="fil3" x="55.87" y="13.69" width="4.66" height="0.56" rx="0.18" ry="0.13"/>
    <path class="fil13 str0" d="M54.55 20.31l0 -2.09c0,-0.99 -0.75,-1.8 -1.68,-1.8l-0.26 0c-0.93,0 -1.69,0.81 -1.69,1.8l0 2.09 3.63 0z"/>
    <path class="fil14" d="M54.67 20.41l0 -2.22c0,-1.05 -0.81,-1.91 -1.79,-1.91l-0.28 0c-0.99,0 -1.8,0.86 -1.8,1.91l0 2.22 3.87 0zm-3.52 -1.46l1.35 0c0.05,0 0.09,-0.04 0.09,-0.09l0 -0.81c0,-0.04 -0.04,-0.09 -0.09,-0.09l-1.34 0c-0.05,0 -0.09,0.04 -0.09,0.09 0,0.05 0,0.11 0,0.16l-0.01 0.65c0,0.02 0.01,0.05 0.03,0.06 0.02,0.02 0.04,0.03 0.06,0.03zm1.82 0l1.35 0c0.05,0 0.09,-0.04 0.09,-0.09l0 -0.65c0,-0.06 0,-0.11 -0.01,-0.17 0,-0.04 -0.04,-0.08 -0.09,-0.08l-1.34 0c-0.05,0 -0.09,0.05 -0.09,0.09l0 0.81c0,0.05 0.04,0.09 0.09,0.09zm1.35 0.23l-1.35 0c-0.02,0 -0.04,0.01 -0.06,0.02 -0.02,0.02 -0.03,0.04 -0.03,0.07l0 0.77c0,0.05 0.04,0.09 0.09,0.09l1.35 0c0.02,0 0.04,0 0.06,-0.02 0.02,-0.02 0.03,-0.04 0.03,-0.07l0 -0.77c0,-0.05 -0.04,-0.09 -0.09,-0.09zm-1.82 0l-1.35 0c-0.05,0 -0.09,0.04 -0.09,0.09l0 0.77c0,0.03 0.01,0.05 0.02,0.07 0.02,0.02 0.04,0.02 0.07,0.02l1.35 0c0.05,0 0.09,-0.04 0.09,-0.09l0 -0.77c0,-0.05 -0.04,-0.09 -0.09,-0.09zm-1.25 -1.45l1.25 0c0.05,0 0.09,-0.04 0.09,-0.09l0 -0.99c0,-0.02 -0.01,-0.04 -0.03,-0.06 -0.02,-0.02 -0.04,-0.03 -0.07,-0.02 -0.6,0.05 -1.11,0.47 -1.32,1.04 -0.01,0.03 -0.01,0.06 0.01,0.08 0.02,0.03 0.04,0.04 0.07,0.04zm1.72 0l1.25 0c0.03,0 0.06,-0.01 0.07,-0.04 0.02,-0.02 0.03,-0.05 0.01,-0.08 -0.21,-0.57 -0.72,-0.99 -1.32,-1.04 -0.03,-0.01 -0.05,0 -0.07,0.02 -0.02,0.02 -0.03,0.04 -0.03,0.06l0 0.99c0,0.05 0.04,0.09 0.09,0.09z"/>
    <rect class="fil3" x="50.41" y="20.4" width="4.66" height="0.56" rx="0.18" ry="0.13"/>
    <path class="fil15" d="M62.21 21.31c0.15,0.19 0.41,0.28 0.71,0.31 0.29,-0.03 0.55,-0.12 0.7,-0.31 1.05,-1.34 0.33,-3.63 -0.26,-5.22 -0.15,-0.41 -0.3,-0.7 -0.44,-0.72 -0.15,0.02 -0.3,0.31 -0.45,0.72 -0.59,1.59 -1.31,3.88 -0.26,5.22z"/>
    <path class="fil12" d="M62.19 23.3l1.45 0c0.01,0 0.01,-0.02 0.02,-0.06l0.19 -1.44c0.01,-0.06 0.01,-0.14 0.01,-0.21 -0.01,-0.07 -0.03,-0.11 -0.04,-0.11l-1.81 0c-0.01,0 -0.03,0.04 -0.03,0.11 -0.01,0.07 -0.01,0.15 0,0.21l0.19 1.44c0.01,0.04 0.02,0.06 0.02,0.06z"/>
    <rect class="fil8" x="46.13" y="23.25" width="18.65" height="0.63" rx="0.46" ry="0.2"/>
   </g>
  </g>
  <g id="_2261521719424">
   <rect class="fil5" x="38.99" y="36.98" width="32.63" height="30.61" rx="0.63" ry="0.6"/>
   <path class="fil16" style="mask:url(#id4)" d="M54.16 49.56c-8.01,2.84 -13.43,8.17 -12.11,11.92 1.33,3.75 8.9,4.49 16.91,1.66 8.01,-2.84 13.43,-8.17 12.1,-11.92 -1.32,-3.75 -8.89,-4.49 -16.9,-1.66z"/>
   <g>
    <rect class="fil17" x="47.73" y="45.87" width="14.79" height="14.76"/>
    <path class="fil12" d="M54.89 40.85l-4.5 2.59 -3.72 2.15c-0.14,0.08 -0.2,0.23 -0.15,0.36 0.06,0.14 0.21,0.22 0.38,0.22l8.22 0 8.21 0c0.18,0 0.33,-0.08 0.38,-0.22 0.06,-0.13 0,-0.28 -0.14,-0.36l-3.72 -2.15 -4.5 -2.59c-0.14,-0.08 -0.32,-0.08 -0.46,0z"/>
    <path class="fil8" d="M54.2 56.77l1.84 0c0.2,0 0.36,0.16 0.36,0.36l0 3.5 -2.56 0 0 -3.5c0,-0.2 0.16,-0.36 0.36,-0.36z"/>
    <path class="fil18" d="M49.95 52.14l0.75 0 0 1.28 -1.12 0 0.01 -0.92c0,-0.2 0.16,-0.36 0.36,-0.36zm1.01 0l0.76 0c0.1,0 0.19,0.03 0.26,0.1 0.07,0.08 0.1,0.16 0.1,0.26l0 0.92 -1.12 0 0 -1.28zm1.12 1.53l0 0.92c0,0.2 -0.16,0.36 -0.36,0.36l-0.76 0 0 -1.28 1.12 0zm-1.38 1.28l-0.75 0c-0.2,0 -0.36,-0.16 -0.36,-0.36l-0.01 -0.92 1.12 0 0 1.28z"/>
    <path class="fil18" d="M54.24 52.14l0.75 0 0 1.28 -1.11 0 0 -0.92c0,-0.2 0.16,-0.36 0.36,-0.36zm1.01 0l0.77 0c0.1,0 0.18,0.03 0.25,0.1 0.07,0.08 0.11,0.16 0.11,0.26l-0.01 0.92 -1.12 0 0 -1.28zm1.12 1.53l0 0.92c0,0.2 -0.16,0.36 -0.36,0.36l-0.76 0 0 -1.28 1.12 0zm-1.38 1.28l-0.75 0c-0.2,0 -0.36,-0.16 -0.36,-0.36l0 -0.92 1.11 0 0 1.28z"/>
    <path class="fil18" d="M58.54 52.14l0.75 0 0 1.28 -1.12 0 0.01 -0.92c0,-0.2 0.16,-0.36 0.36,-0.36zm1.01 0l0.76 0c0.1,0 0.19,0.03 0.26,0.1 0.07,0.08 0.1,0.16 0.1,0.26l0 0.92 -1.12 0 0 -1.28zm1.12 1.53l0 0.92c0,0.2 -0.17,0.36 -0.37,0.36l-0.75 0 0 -1.28 1.12 0zm-1.38 1.28l-0.75 0c-0.2,0 -0.36,-0.16 -0.36,-0.36l-0.01 -0.92 1.12 0 0 1.28z"/>
    <path class="fil19" d="M45.52 58.01c-0.02,-0.64 0.95,-1.05 1.62,-0.78 0.15,0.06 0.19,0.09 0.14,-0.31 -0.08,-0.54 0.37,-1.3 1.09,-1.32 0.76,-0.02 1.56,0.37 1.27,1.32 -0.09,0.3 -0.32,0.59 0.11,0.44 0.38,-0.14 1.38,-0.49 1.6,0.2 0.1,0.28 -0.07,0.65 -0.2,0.87 -0.14,0.26 -0.19,0.2 0.14,0.2 1.12,0.01 1.11,0.85 0.44,1.17 -0.62,0.29 -4.49,0.66 -5,-0.19 -0.08,-0.12 -0.08,-0.23 0.01,-0.33 0.18,-0.18 -1.2,-0.19 -1.22,-1.27z"/>
    <path class="fil19" d="M64.73 57.87c0.02,-0.64 -0.95,-1.05 -1.62,-0.78 -0.15,0.06 -0.19,0.08 -0.13,-0.31 0.07,-0.55 -0.37,-1.31 -1.1,-1.33 -0.76,-0.02 -1.56,0.38 -1.27,1.33 0.09,0.29 0.32,0.58 -0.1,0.43 -0.39,-0.13 -1.38,-0.48 -1.61,0.21 -0.1,0.28 0.07,0.64 0.2,0.86 0.15,0.27 0.19,0.21 -0.14,0.21 -1.12,0 -1.11,0.84 -0.44,1.16 0.62,0.29 4.49,0.66 5,-0.19 0.08,-0.12 0.09,-0.23 -0.01,-0.32 -0.18,-0.19 1.2,-0.2 1.22,-1.27z"/>
    <rect class="fil12" x="46.62" y="59.41" width="6.36" height="1.46" rx="0.2" ry="0.2"/>
    <rect class="fil12" x="57.24" y="59.41" width="6.36" height="1.46" rx="0.2" ry="0.2"/>
    <path class="fil18" d="M49.95 48.08l0.75 0 0 1.27 -1.12 0 0.01 -0.91c0,-0.2 0.16,-0.36 0.36,-0.36zm1.01 0l0.76 0c0.1,0 0.19,0.03 0.26,0.1 0.07,0.07 0.1,0.16 0.1,0.26l0 0.91 -1.12 0 0 -1.27zm1.12 1.53l0 0.92c0,0.2 -0.16,0.36 -0.36,0.36l-0.76 0 0 -1.28 1.12 0zm-1.38 1.28l-0.75 0c-0.2,0 -0.36,-0.16 -0.36,-0.36l-0.01 -0.92 1.12 0 0 1.28z"/>
    <path class="fil18" d="M54.24 48.08l0.75 0 0 1.27 -1.11 0 0 -0.91c0,-0.2 0.16,-0.36 0.36,-0.36zm1.01 0l0.77 0c0.1,0 0.18,0.03 0.25,0.1 0.07,0.07 0.11,0.16 0.11,0.26l-0.01 0.91 -1.12 0 0 -1.27zm1.12 1.53l0 0.92c0,0.2 -0.16,0.36 -0.36,0.36l-0.76 0 0 -1.28 1.12 0zm-1.38 1.28l-0.75 0c-0.2,0 -0.36,-0.16 -0.36,-0.36l0 -0.92 1.11 0 0 1.28z"/>
    <path class="fil18" d="M58.54 48.08l0.75 0 0 1.27 -1.12 0 0.01 -0.91c0,-0.2 0.16,-0.36 0.36,-0.36zm1.01 0l0.76 0c0.1,0 0.19,0.03 0.26,0.1 0.07,0.07 0.1,0.16 0.1,0.26l0 0.91 -1.12 0 0 -1.27zm1.12 1.53l0 0.92c0,0.2 -0.17,0.36 -0.37,0.36l-0.75 0 0 -1.28 1.12 0zm-1.38 1.28l-0.75 0c-0.2,0 -0.36,-0.16 -0.36,-0.36l-0.01 -0.92 1.12 0 0 1.28z"/>
    <g>
     <rect class="fil3" transform="matrix(0.710331 0.369928 -0.467185 0.897081 61.9706 40.162)" width="0.28" height="5.18" rx="0.42" ry="0.42"/>
     <path class="fil3" d="M60.16 41.74l1.75 0.91c0.19,0.1 0.28,0.33 0.19,0.5l0 0c-0.1,0.18 -0.33,0.24 -0.52,0.14l-1.75 -0.91c-0.19,-0.1 -0.28,-0.33 -0.18,-0.5l0 0c0.09,-0.18 0.32,-0.24 0.51,-0.14zm-0.05 0.13l1.73 0.9c0.12,0.06 0.17,0.2 0.11,0.31l0 0c-0.05,0.11 -0.2,0.14 -0.32,0.08l-1.73 -0.9c-0.12,-0.06 -0.17,-0.2 -0.11,-0.31l0 0c0.06,-0.11 0.2,-0.14 0.32,-0.08z"/>
     <rect class="fil3" transform="matrix(0.772259 0.402179 -0.299811 0.575693 60.3253 41.194)" width="2.51" height="0.26" rx="0.84" ry="0.84"/>
     <rect class="fil3" transform="matrix(0.772259 0.402179 -0.299811 0.575693 60.6276 40.6136)" width="2.51" height="0.26" rx="0.84" ry="0.84"/>
    </g>
   </g>
  </g>
  <g id="_2261521722112">
   <rect class="fil20" y="36.98" width="32.63" height="30.61" rx="0.63" ry="0.6"/>
   <path class="fil19" style="mask:url(#id6)" d="M14.75 50.25c-8.01,2.84 -13.43,8.17 -12.1,11.92 1.33,3.75 8.9,4.49 16.91,1.66 8.01,-2.84 13.43,-8.17 12.1,-11.92 -1.33,-3.75 -8.9,-4.49 -16.91,-1.66z"/>
   <g>
    <rect class="fil1" x="5.4" y="51.63" width="17.38" height="8.82"/>
    <path class="fil12" d="M6.35 47.48l15.35 0c0.25,0 0.47,0.13 0.61,0.34l1.73 2.71c0.15,0.24 0.16,0.52 0.03,0.78 -0.13,0.25 -0.37,0.4 -0.64,0.4l-18.81 0c-0.27,0 -0.51,-0.15 -0.64,-0.4 -0.13,-0.26 -0.12,-0.54 0.03,-0.78l1.73 -2.71c0.14,-0.21 0.36,-0.34 0.61,-0.34z"/>
    <path class="fil9" d="M20.8 46.79l0 1.37c0,0.08 -0.07,0.15 -0.15,0.15l-1.6 0c-0.09,0 -0.16,-0.07 -0.16,-0.15l0 -1.37c0,-0.08 -0.06,-0.15 -0.15,-0.15l-0.18 0c-0.08,0 -0.15,-0.07 -0.15,-0.16l0 -0.22c0,-0.19 0.15,-0.35 0.34,-0.35l2.19 0c0.19,0 0.35,0.16 0.35,0.35l0 0.22c0,0.09 -0.07,0.16 -0.15,0.16l-0.19 0c-0.08,0 -0.15,0.07 -0.15,0.15z"/>
    <path class="fil12" d="M19.1 56.35l1.45 0c0.41,0 0.73,0.32 0.73,0.72l0 3.16 -2.91 0 0 -3.16c0,-0.4 0.33,-0.72 0.73,-0.72z"/>
    <rect class="fil9" x="4.41" y="60.23" width="19.34" height="0.96" rx="0.58" ry="0.38"/>
    <rect class="fil21" x="6.78" y="52.55" width="2.53" height="2.36" rx="0.25" ry="0.38"/>
    <rect class="fil21" x="9.79" y="56.19" width="4.79" height="2.81" rx="0.48" ry="0.46"/>
    <rect class="fil21" x="15.11" y="52.55" width="2.53" height="2.36" rx="0.25" ry="0.38"/>
    <g>
     <path class="fil19" d="M24.44 55.42l0 4.47 -0.86 0 0 -4.47c-0.02,-0.02 0.35,-0.64 0.4,-0.72 0.01,-0.01 0.02,-0.02 0.03,-0.02 0.01,0 0.02,0.01 0.03,0.02 0.05,0.08 0.42,0.7 0.4,0.72z"/>
     <path class="fil19" d="M26.6 55.42l0 4.47 -0.87 0 0 -4.47c-0.02,-0.02 0.36,-0.64 0.41,-0.72 0,-0.01 0.01,-0.02 0.02,-0.02 0.02,0 0.03,0.01 0.03,0.02 0.05,0.08 0.42,0.7 0.41,0.72z"/>
     <path class="fil19" d="M28.75 55.42l0 4.47 -0.87 0 0 -4.47c-0.01,-0.02 0.36,-0.64 0.41,-0.72 0,-0.01 0.02,-0.02 0.03,-0.02 0.01,0 0.02,0.01 0.02,0.02 0.05,0.08 0.43,0.7 0.41,0.72z"/>
     <rect class="fil19" x="23.03" y="56.02" width="6.23" height="0.68" rx="0.04" ry="0.21"/>
     <rect class="fil19" x="23.03" y="58.28" width="6.23" height="0.68" rx="0.04" ry="0.21"/>
    </g>
    <g>
     <path class="fil10 str2" d="M7.88 57.34c-1.24,0.72 -0.54,1.26 -0.62,2.12"/>
     <path class="fil12" d="M6.57 60.54l1.47 0c0.01,0 0.01,-0.01 0.02,-0.04l0.2 -1.19c0.01,-0.05 0.01,-0.12 0,-0.17 -0.01,-0.06 -0.02,-0.09 -0.04,-0.09l-1.83 0c-0.02,0 -0.03,0.03 -0.04,0.09 -0.01,0.05 -0.01,0.12 0,0.17l0.2 1.19c0.01,0.03 0.01,0.04 0.02,0.04z"/>
     <path class="fil20" d="M8.25 55.89c0.1,0 0.17,0.27 0.17,0.59l0 0.07 0.04 -0.05c0.2,-0.27 0.41,-0.44 0.49,-0.38 0.08,0.05 -0.02,0.31 -0.21,0.58l-0.05 0.06 0.08 -0.03c0.31,-0.1 0.59,-0.11 0.61,-0.02 0.03,0.09 -0.2,0.25 -0.51,0.35l-0.07 0.02 0.07 0.02c0.31,0.1 0.54,0.26 0.51,0.34 -0.03,0.09 -0.3,0.08 -0.62,-0.02l-0.07 -0.02 0.05 0.06c0.19,0.27 0.29,0.53 0.21,0.58 -0.07,0.06 -0.29,-0.11 -0.48,-0.38l-0.05 -0.07 0 0.08c0,0.33 -0.07,0.6 -0.17,0.6 -0.09,0 -0.17,-0.27 -0.17,-0.6l0 -0.07 -0.04 0.06c-0.19,0.27 -0.41,0.44 -0.49,0.38 -0.07,-0.05 0.02,-0.31 0.22,-0.58l0.05 -0.06 -0.08 0.02c-0.31,0.1 -0.59,0.11 -0.62,0.02 -0.03,-0.08 0.2,-0.24 0.51,-0.34l0.07 -0.02 -0.06 -0.02c-0.32,-0.1 -0.55,-0.26 -0.52,-0.35 0.03,-0.09 0.31,-0.08 0.62,0.02l0.07 0.03 -0.05 -0.06c-0.19,-0.27 -0.28,-0.53 -0.21,-0.58 0.08,-0.06 0.3,0.11 0.49,0.38l0.05 0.06 -0.01 -0.08c0,-0.32 0.08,-0.59 0.17,-0.59z"/>
     <circle class="fil21" cx="8.24" cy="57.04" r="0.3"/>
     <path class="fil19" d="M7.12 58.16c0.06,0.01 -0.35,-1.18 -1.36,-0.7 -0.04,0.02 -0.06,0.04 -0.02,0.06 0.47,0.25 0.83,0.6 1.38,0.64z"/>
    </g>
    <rect class="fil1" x="10.92" y="55.84" width="0.34" height="3.65"/>
   </g>
  </g>
  <g id="_2261521660624">
   <rect class="fil22" width="32.63" height="30.61" rx="0.63" ry="0.6"/>
   <path class="fil5" style="mask:url(#id8)" d="M15.15 13.15c-8.01,2.83 -13.43,8.17 -12.1,11.92 1.32,3.75 8.89,4.49 16.9,1.66 8.01,-2.84 13.43,-8.18 12.11,-11.93 -1.33,-3.74 -8.9,-4.49 -16.91,-1.65z"/>
   <g>
    <path class="fil23" d="M22.87 9.33l0 4.34c0,0.09 -0.07,0.16 -0.15,0.16l-1.61 0c-0.08,0 -0.15,-0.07 -0.15,-0.16l0 -4.34c0,-0.09 -0.07,-0.16 -0.16,-0.16l-0.18 0c-0.08,0 -0.15,-0.07 -0.15,-0.15l0 -0.23c0,-0.19 0.15,-0.35 0.34,-0.35l2.21 0c0.19,0 0.34,0.16 0.34,0.35l0 0.23c0,0.08 -0.07,0.15 -0.15,0.15l-0.18 0c-0.09,0 -0.16,0.07 -0.16,0.16z"/>
    <polygon class="fil24" points="25.56,17.75 25.56,23.98 7.06,23.98 7.06,17.75 11.57,12.82 16.24,7.89 20.91,12.82 "/>
    <rect class="fil0" x="10.96" y="15.08" width="3.09" height="4.96"/>
    <path class="fil8" d="M11.01 14.77l2.83 0c0.23,0 0.42,0.19 0.42,0.42l0 4.74c0,0.23 -0.19,0.42 -0.42,0.42l-2.83 0c-0.23,0 -0.43,-0.19 -0.43,-0.42l0 -4.74c0,-0.23 0.2,-0.42 0.43,-0.42zm1.24 4.91l0 -2.89c0,-0.05 -0.04,-0.1 -0.1,-0.1l-0.89 0c-0.05,0 -0.1,0.05 -0.1,0.1l0 2.71c0,0.16 0.13,0.29 0.29,0.29l0.7 0c0.06,0 0.1,-0.05 0.1,-0.11zm0 -3.41l0 -0.84c0,-0.05 -0.04,-0.1 -0.1,-0.1l-0.7 0c-0.16,0 -0.29,0.13 -0.29,0.29l0 0.65c0,0.05 0.05,0.1 0.1,0.1l0.89 0c0.06,0 0.1,-0.05 0.1,-0.1zm0.32 -0.84l0 0.84c0,0.05 0.05,0.1 0.11,0.1l0.93 0c0.06,0 0.11,-0.05 0.11,-0.1l0 -0.65c0,-0.16 -0.13,-0.29 -0.3,-0.29l-0.74 0c-0.06,0 -0.11,0.05 -0.11,0.1zm0 1.36l0 2.89c0,0.06 0.05,0.11 0.11,0.11l0.74 0c0.17,0 0.3,-0.13 0.3,-0.29l0 -2.71c0,-0.05 -0.05,-0.1 -0.11,-0.1l-0.93 0c-0.06,0 -0.11,0.05 -0.11,0.1z"/>
    <rect class="fil8" x="7.05" y="23.25" width="18.49" height="1.04"/>
    <g>
     <path class="fil25" d="M9.32 23.25l5.82 0c0.04,0 0.07,-0.02 0.09,-0.05l0.79 -1.19c0.03,-0.05 0.03,-0.12 0,-0.17 -0.03,-0.06 -0.08,-0.09 -0.14,-0.09l-7.3 0c-0.06,0 -0.12,0.03 -0.15,0.09 -0.03,0.05 -0.02,0.12 0.01,0.17l0.79 1.19c0.02,0.03 0.05,0.05 0.09,0.05z"/>
     <g>
      <path class="fil23" d="M9.3 19.85c0.1,0 0.17,0.27 0.17,0.6l0 0.07 0.04 -0.06c0.2,-0.27 0.42,-0.44 0.49,-0.38 0.08,0.05 -0.02,0.31 -0.21,0.58l-0.05 0.06 0.08 -0.02c0.31,-0.1 0.59,-0.11 0.62,-0.03 0.03,0.09 -0.2,0.25 -0.52,0.35l-0.07 0.02 0.07 0.02c0.31,0.11 0.55,0.26 0.52,0.35 -0.03,0.09 -0.31,0.08 -0.63,-0.02l-0.06 -0.02 0.04 0.06c0.2,0.26 0.29,0.53 0.21,0.58 -0.07,0.06 -0.29,-0.11 -0.48,-0.38l-0.05 -0.07 0 0.08c0,0.33 -0.08,0.6 -0.17,0.6 -0.09,0 -0.17,-0.27 -0.17,-0.6l0 -0.07 -0.04 0.06c-0.19,0.27 -0.41,0.44 -0.49,0.38 -0.08,-0.05 0.02,-0.32 0.21,-0.58l0.05 -0.07 -0.08 0.03c-0.31,0.1 -0.59,0.11 -0.62,0.02 -0.03,-0.09 0.2,-0.24 0.52,-0.35l0.07 -0.02 -0.07 -0.02c-0.31,-0.1 -0.54,-0.26 -0.51,-0.35 0.02,-0.08 0.3,-0.07 0.62,0.03l0.07 0.02 -0.05 -0.06c-0.19,-0.27 -0.29,-0.53 -0.21,-0.58 0.07,-0.06 0.29,0.11 0.49,0.38l0.04 0.06 0 -0.07c0,-0.33 0.08,-0.6 0.17,-0.6z"/>
      <circle class="fil22" cx="9.3" cy="21.04" r="0.3"/>
     </g>
     <path class="fil22" d="M11.09 20.71c0.09,0 0.17,0.27 0.17,0.6l0 0.07 0.04 -0.06c0.19,-0.27 0.41,-0.44 0.49,-0.38 0.07,0.05 -0.02,0.32 -0.22,0.58l-0.05 0.07 0.08 -0.03c0.32,-0.1 0.59,-0.11 0.62,-0.02 0.03,0.09 -0.2,0.24 -0.51,0.35l-0.07 0.02 0.07 0.02c0.31,0.1 0.54,0.26 0.51,0.35 -0.03,0.09 -0.31,0.08 -0.62,-0.03l-0.07 -0.02 0.05 0.06c0.19,0.27 0.29,0.53 0.21,0.59 -0.08,0.05 -0.3,-0.12 -0.49,-0.39l-0.05 -0.07 0.01 0.08c0,0.33 -0.08,0.6 -0.18,0.6 -0.09,0 -0.17,-0.27 -0.17,-0.6l0 -0.06 -0.04 0.05c-0.19,0.27 -0.41,0.44 -0.49,0.39 -0.07,-0.06 0.02,-0.32 0.22,-0.59l0.05 -0.06 -0.08 0.02c-0.32,0.11 -0.59,0.12 -0.62,0.03 -0.03,-0.09 0.2,-0.25 0.51,-0.35l0.07 -0.02 -0.06 -0.02c-0.32,-0.11 -0.55,-0.26 -0.52,-0.35 0.03,-0.09 0.31,-0.08 0.62,0.02l0.07 0.02 -0.05 -0.06c-0.19,-0.26 -0.28,-0.53 -0.21,-0.58 0.08,-0.06 0.3,0.11 0.49,0.38l0.05 0.07 0 -0.08c0,-0.33 0.07,-0.6 0.17,-0.6z"/>
     <circle class="fil23" cx="11.05" cy="21.91" r="0.3"/>
     <g>
      <path class="fil23" d="M12.88 19.85c0.09,0 0.17,0.27 0.17,0.6l0 0.07 0.04 -0.06c0.19,-0.27 0.41,-0.44 0.49,-0.38 0.08,0.05 -0.02,0.31 -0.21,0.58l-0.05 0.06 0.07 -0.02c0.32,-0.1 0.6,-0.11 0.63,-0.03 0.02,0.09 -0.21,0.25 -0.52,0.35l-0.07 0.02 0.07 0.02c0.31,0.11 0.54,0.26 0.51,0.35 -0.03,0.09 -0.3,0.08 -0.62,-0.02l-0.07 -0.02 0.05 0.06c0.19,0.26 0.29,0.53 0.21,0.58 -0.08,0.06 -0.29,-0.11 -0.49,-0.38l-0.04 -0.07 0 0.08c0,0.33 -0.08,0.6 -0.17,0.6 -0.1,0 -0.18,-0.27 -0.18,-0.6l0.01 -0.07 -0.04 0.06c-0.2,0.27 -0.42,0.44 -0.49,0.38 -0.08,-0.05 0.01,-0.32 0.21,-0.58l0.05 -0.07 -0.08 0.03c-0.31,0.1 -0.59,0.11 -0.62,0.02 -0.03,-0.09 0.2,-0.24 0.51,-0.35l0.08 -0.02 -0.07 -0.02c-0.32,-0.1 -0.55,-0.26 -0.52,-0.35 0.03,-0.08 0.31,-0.07 0.62,0.03l0.07 0.02 -0.04 -0.06c-0.2,-0.27 -0.29,-0.53 -0.22,-0.58 0.08,-0.06 0.3,0.11 0.49,0.38l0.05 0.06 0 -0.07c0,-0.33 0.07,-0.6 0.17,-0.6z"/>
      <circle class="fil22" cx="12.88" cy="21.04" r="0.3"/>
     </g>
     <path class="fil22" d="M14.65 20.71c0.09,0 0.17,0.27 0.17,0.6l0 0.07 0.04 -0.06c0.19,-0.27 0.41,-0.44 0.49,-0.38 0.07,0.05 -0.02,0.32 -0.22,0.58l-0.04 0.07 0.07 -0.03c0.32,-0.1 0.6,-0.11 0.62,-0.02 0.03,0.09 -0.2,0.24 -0.51,0.35l-0.07 0.02 0.07 0.02c0.31,0.1 0.54,0.26 0.51,0.35 -0.03,0.09 -0.31,0.08 -0.62,-0.03l-0.07 -0.02 0.05 0.06c0.19,0.27 0.29,0.53 0.21,0.58 -0.08,0.06 -0.3,-0.11 -0.49,-0.38l-0.05 -0.07 0.01 0.08c0,0.33 -0.08,0.6 -0.18,0.6 -0.09,0 -0.17,-0.27 -0.17,-0.6l0 -0.06 -0.04 0.05c-0.19,0.27 -0.41,0.44 -0.48,0.38 -0.08,-0.05 0.01,-0.31 0.21,-0.58l0.05 -0.06 -0.08 0.02c-0.31,0.11 -0.59,0.12 -0.62,0.03 -0.03,-0.09 0.2,-0.25 0.51,-0.35l0.07 -0.02 -0.06 -0.02c-0.32,-0.11 -0.55,-0.26 -0.52,-0.35 0.03,-0.09 0.31,-0.08 0.62,0.02l0.07 0.02 -0.04 -0.06c-0.2,-0.26 -0.29,-0.53 -0.22,-0.58 0.08,-0.06 0.3,0.11 0.49,0.38l0.05 0.07 0 -0.08c0,-0.33 0.07,-0.6 0.17,-0.6z"/>
     <circle class="fil23" cx="14.63" cy="21.87" r="0.3"/>
    </g>
    <path class="fil8" d="M27.03 17.77l-10.47 -10.7c-0.07,-0.07 -0.16,-0.1 -0.24,-0.1l-0.01 0c-0.09,0 -0.18,0.03 -0.24,0.1l-10.47 10.7c-0.13,0.13 -0.13,0.34 0,0.47l0.3 0.29c0.13,0.13 0.34,0.13 0.47,-0.01l9.94 -10.16 9.94 10.16c0.13,0.14 0.34,0.14 0.47,0.01l0.3 -0.29c0.13,-0.13 0.13,-0.34 0.01,-0.47z"/>
    <rect class="fil0" x="18.05" y="15.07" width="3.09" height="4.96"/>
    <path class="fil8" d="M18.16 14.77l2.82 0c0.24,0 0.43,0.19 0.43,0.42l0 4.74c0,0.23 -0.19,0.42 -0.43,0.42l-2.82 0c-0.24,0 -0.43,-0.19 -0.43,-0.42l0 -4.74c0,-0.23 0.19,-0.42 0.43,-0.42zm1.24 4.91l0 -2.89c0,-0.05 -0.05,-0.1 -0.11,-0.1l-0.88 0c-0.06,0 -0.11,0.05 -0.11,0.1l0 2.71c0,0.16 0.14,0.29 0.3,0.29l0.69 0c0.06,0 0.11,-0.05 0.11,-0.11zm0 -3.41l0 -0.84c0,-0.05 -0.05,-0.1 -0.11,-0.1l-0.69 0c-0.16,0 -0.3,0.13 -0.3,0.29l0 0.65c0,0.05 0.05,0.1 0.11,0.1l0.88 0c0.06,0 0.11,-0.05 0.11,-0.1zm0.32 -0.84l0 0.84c0,0.05 0.04,0.1 0.1,0.1l0.94 0c0.06,0 0.11,-0.05 0.11,-0.1l0 -0.65c0,-0.16 -0.14,-0.29 -0.3,-0.29l-0.75 0c-0.06,0 -0.1,0.05 -0.1,0.1zm0 1.36l0 2.89c0,0.06 0.04,0.11 0.1,0.11l0.75 0c0.16,0 0.3,-0.13 0.3,-0.29l0 -2.71c0,-0.05 -0.05,-0.1 -0.11,-0.1l-0.94 0c-0.06,0 -0.1,0.05 -0.1,0.1z"/>
    <g>
     <path class="fil25" d="M17.38 23.25l5.82 0c0.04,0 0.07,-0.02 0.09,-0.05l0.79 -1.19c0.03,-0.05 0.03,-0.12 0,-0.17 -0.03,-0.06 -0.08,-0.09 -0.15,-0.09l-7.29 0c-0.06,0 -0.12,0.03 -0.15,0.09 -0.03,0.05 -0.03,0.12 0.01,0.17l0.79 1.19c0.02,0.03 0.05,0.05 0.09,0.05z"/>
     <g>
      <path class="fil23" d="M17.36 19.85c0.1,0 0.17,0.27 0.17,0.6l0 0.07 0.04 -0.06c0.2,-0.27 0.41,-0.44 0.49,-0.38 0.08,0.05 -0.02,0.31 -0.21,0.58l-0.05 0.06 0.08 -0.02c0.31,-0.1 0.59,-0.11 0.62,-0.03 0.03,0.09 -0.2,0.25 -0.52,0.35l-0.07 0.02 0.07 0.02c0.31,0.11 0.54,0.26 0.52,0.35 -0.03,0.09 -0.31,0.08 -0.63,-0.02l-0.07 -0.02 0.05 0.06c0.19,0.26 0.29,0.53 0.21,0.58 -0.07,0.06 -0.29,-0.11 -0.49,-0.38l-0.04 -0.07 0 0.08c0,0.33 -0.08,0.6 -0.17,0.6 -0.1,0 -0.17,-0.27 -0.17,-0.6l0 -0.07 -0.04 0.06c-0.2,0.27 -0.41,0.44 -0.49,0.38 -0.08,-0.05 0.02,-0.32 0.21,-0.58l0.05 -0.07 -0.08 0.03c-0.31,0.1 -0.59,0.11 -0.62,0.02 -0.03,-0.09 0.2,-0.24 0.52,-0.35l0.07 -0.02 -0.07 -0.02c-0.31,-0.1 -0.54,-0.26 -0.52,-0.35 0.03,-0.08 0.31,-0.07 0.63,0.03l0.06 0.02 -0.04 -0.06c-0.2,-0.27 -0.29,-0.53 -0.21,-0.58 0.07,-0.06 0.29,0.11 0.48,0.38l0.05 0.06 0 -0.07c0,-0.33 0.08,-0.6 0.17,-0.6z"/>
      <circle class="fil22" cx="17.36" cy="21.04" r="0.3"/>
     </g>
     <path class="fil22" d="M19.15 20.71c0.09,0 0.17,0.27 0.17,0.6l0 0.07 0.04 -0.06c0.19,-0.27 0.41,-0.44 0.49,-0.38 0.07,0.05 -0.02,0.32 -0.22,0.58l-0.05 0.07 0.08 -0.03c0.32,-0.1 0.59,-0.11 0.62,-0.02 0.03,0.09 -0.2,0.24 -0.51,0.35l-0.07 0.02 0.06 0.02c0.32,0.1 0.55,0.26 0.52,0.35 -0.03,0.09 -0.31,0.08 -0.62,-0.03l-0.07 -0.02 0.05 0.06c0.19,0.27 0.28,0.53 0.21,0.59 -0.08,0.05 -0.3,-0.12 -0.49,-0.39l-0.05 -0.07 0 0.08c0,0.33 -0.07,0.6 -0.17,0.6 -0.09,0 -0.17,-0.27 -0.17,-0.6l0 -0.06 -0.04 0.05c-0.19,0.27 -0.41,0.44 -0.49,0.39 -0.07,-0.06 0.02,-0.32 0.22,-0.59l0.05 -0.06 -0.08 0.02c-0.32,0.11 -0.59,0.12 -0.62,0.03 -0.03,-0.09 0.2,-0.25 0.51,-0.35l0.07 -0.02 -0.07 -0.02c-0.31,-0.11 -0.54,-0.26 -0.51,-0.35 0.03,-0.09 0.31,-0.08 0.62,0.02l0.07 0.02 -0.05 -0.06c-0.19,-0.26 -0.29,-0.53 -0.21,-0.58 0.08,-0.06 0.3,0.11 0.49,0.38l0.05 0.07 0 -0.08c0,-0.33 0.07,-0.6 0.17,-0.6z"/>
     <circle class="fil23" cx="19.11" cy="21.91" r="0.3"/>
     <g>
      <path class="fil23" d="M20.94 19.85c0.09,0 0.17,0.27 0.17,0.6l0 0.07 0.04 -0.06c0.19,-0.27 0.41,-0.44 0.49,-0.38 0.07,0.05 -0.02,0.31 -0.22,0.58l-0.05 0.06 0.08 -0.02c0.32,-0.1 0.59,-0.11 0.62,-0.03 0.03,0.09 -0.2,0.25 -0.51,0.35l-0.07 0.02 0.07 0.02c0.31,0.11 0.54,0.26 0.51,0.35 -0.03,0.09 -0.31,0.08 -0.62,-0.02l-0.07 -0.02 0.05 0.06c0.19,0.26 0.29,0.53 0.21,0.58 -0.08,0.06 -0.3,-0.11 -0.49,-0.38l-0.05 -0.07 0.01 0.08c0,0.33 -0.08,0.6 -0.18,0.6 -0.09,0 -0.17,-0.27 -0.17,-0.6l0 -0.07 -0.04 0.06c-0.19,0.27 -0.41,0.44 -0.49,0.38 -0.07,-0.05 0.02,-0.32 0.22,-0.58l0.05 -0.07 -0.08 0.03c-0.32,0.1 -0.59,0.11 -0.62,0.02 -0.03,-0.09 0.2,-0.24 0.51,-0.35l0.07 -0.02 -0.06 -0.02c-0.32,-0.1 -0.55,-0.26 -0.52,-0.35 0.03,-0.08 0.31,-0.07 0.62,0.03l0.07 0.02 -0.05 -0.06c-0.19,-0.27 -0.28,-0.53 -0.21,-0.58 0.08,-0.06 0.3,0.11 0.49,0.38l0.05 0.06 0 -0.07c0,-0.33 0.07,-0.6 0.17,-0.6z"/>
      <circle class="fil22" cx="20.94" cy="21.04" r="0.3"/>
     </g>
     <path class="fil22" d="M22.71 20.71c0.09,0 0.17,0.27 0.17,0.6l0 0.07 0.04 -0.06c0.19,-0.27 0.41,-0.44 0.49,-0.38 0.07,0.05 -0.02,0.32 -0.22,0.58l-0.05 0.07 0.08 -0.03c0.32,-0.1 0.59,-0.11 0.62,-0.02 0.03,0.09 -0.2,0.24 -0.51,0.35l-0.07 0.02 0.06 0.02c0.32,0.1 0.55,0.26 0.52,0.35 -0.03,0.09 -0.31,0.08 -0.62,-0.03l-0.07 -0.02 0.05 0.06c0.19,0.27 0.29,0.53 0.21,0.58 -0.08,0.06 -0.3,-0.11 -0.49,-0.38l-0.05 -0.07 0 0.08c0,0.33 -0.07,0.6 -0.17,0.6 -0.09,0 -0.17,-0.27 -0.17,-0.6l0 -0.06 -0.04 0.05c-0.19,0.27 -0.41,0.44 -0.49,0.38 -0.07,-0.05 0.02,-0.31 0.22,-0.58l0.05 -0.06 -0.08 0.02c-0.32,0.11 -0.59,0.12 -0.62,0.03 -0.03,-0.09 0.2,-0.25 0.51,-0.35l0.07 -0.02 -0.06 -0.02c-0.32,-0.11 -0.55,-0.26 -0.52,-0.35 0.03,-0.09 0.31,-0.08 0.62,0.02l0.07 0.02 -0.05 -0.06c-0.19,-0.26 -0.29,-0.53 -0.21,-0.58 0.08,-0.06 0.3,0.11 0.49,0.38l0.05 0.07 0 -0.08c0,-0.33 0.07,-0.6 0.17,-0.6z"/>
     <circle class="fil23" cx="22.69" cy="21.87" r="0.3"/>
    </g>
    <path class="fil0" d="M16.29 11.2c0.66,0 1.21,0.51 1.29,1.17l-2.57 0c0.08,-0.66 0.62,-1.17 1.28,-1.17z"/>
    <path class="fil8" d="M16.3 11.08c0.76,0 1.37,0.53 1.42,1.21 0.01,0.05 -0.01,0.1 -0.05,0.14 -0.04,0.04 -0.08,0.07 -0.14,0.07l-2.46 0c-0.06,0 -0.11,-0.03 -0.14,-0.07 -0.04,-0.04 -0.06,-0.09 -0.05,-0.14 0.04,-0.68 0.66,-1.21 1.42,-1.21zm0.13 0.32l0 0.79c0,0.05 0.04,0.1 0.09,0.1l0.83 0c0.02,0 0.05,-0.01 0.07,-0.04 0.02,-0.02 0.03,-0.04 0.02,-0.07 -0.05,-0.45 -0.44,-0.78 -0.9,-0.87 -0.03,-0.01 -0.06,0 -0.08,0.02 -0.02,0.02 -0.03,0.04 -0.03,0.07zm-0.26 0.79l0 -0.79c0,-0.03 -0.01,-0.05 -0.03,-0.07 -0.03,-0.02 -0.05,-0.03 -0.08,-0.02 -0.46,0.09 -0.85,0.42 -0.9,0.87 -0.01,0.03 0,0.05 0.02,0.07 0.02,0.03 0.04,0.04 0.07,0.04l0.82 0c0.06,0 0.1,-0.05 0.1,-0.1z"/>
   </g>
  </g>
 </g>
</svg>
