<?xml version="1.0" encoding="UTF-8"?>
<!DOCTYPE svg PUBLIC "-//W3C//DTD SVG 1.1//EN" "http://www.w3.org/Graphics/SVG/1.1/DTD/svg11.dtd">
<!-- Creator: CorelDRAW 2020 (64-Bit) -->
<svg xmlns="http://www.w3.org/2000/svg" xml:space="preserve" width="120.58mm" height="130.044mm" version="1.1" style="shape-rendering:geometricPrecision; text-rendering:geometricPrecision; image-rendering:optimizeQuality; fill-rule:evenodd; clip-rule:evenodd"
viewBox="0 0 5156.48 5561.18"
 xmlns:xlink="http://www.w3.org/1999/xlink"
 xmlns:xodm="http://www.corel.com/coreldraw/odm/2003">
 <defs>
  <style type="text/css">
   <![CDATA[
    .fil2 {fill:#FEFEFE}
    .fil15 {fill:#009933}
    .fil29 {fill:#CCCC33}
    .fil28 {fill:#E6E6E6}
    .fil27 {fill:#FFFF66}
    .fil26 {fill:white}
    .fil8 {fill:#F2ED82}
    .fil16 {fill:#F5ED59}
    .fil1 {fill:#F7DB17}
    .fil9 {fill:#FAE042}
    .fil7 {fill:#FCC917}
    .fil13 {fill:#F5E39E}
    .fil18 {fill:#F7B512}
    .fil19 {fill:#BF940D}
    .fil24 {fill:#FF803B}
    .fil25 {fill:#BA5700}
    .fil14 {fill:#FA8F6B}
    .fil12 {fill:#FA633B}
    .fil10 {fill:#F54029}
    .fil11 {fill:#D12421}
    .fil21 {fill:#CF142B}
    .fil22 {fill:#7D212B}
    .fil23 {fill:#87212E}
    .fil5 {fill:#B5ABD4}
    .fil32 {fill:#AB9ED9}
    .fil6 {fill:#8F7DCF}
    .fil3 {fill:#704FBF}
    .fil0 {fill:#4F008A}
    .fil4 {fill:#3D0073}
    .fil30 {fill:#141F78}
    .fil31 {fill:#171796}
    .fil17 {fill:#007336}
    .fil20 {fill:#D6BF91}
   ]]>
  </style>
 </defs>
 <g id="Layer_x0020_1">
  <metadata id="CorelCorpID_0Corel-Layer"/>
  <g id="_2482572601600">
   <path class="fil0" d="M1452.92 2711.93c62.91,72.33 150.35,177.11 222.09,298.26 -116.63,-76.86 -355.55,88.73 -416.49,-1.01 -10.68,-15.72 19.69,-35.47 53.5,-75.96 11.33,-13.57 -9.13,-58.84 -4.62,-72.91 7.78,-24.28 61.24,-59.86 61.11,-70.15 -1.24,-96.85 44.92,-123.63 84.41,-78.23z"/>
   <path class="fil0" d="M1306.21 3053.92c94.1,-18.32 228.55,-41.65 369.35,-43.2 -124.87,62.57 -100.94,352.28 -209.12,360.19 -18.96,1.39 -20.87,-34.79 -39.03,-84.31 -6.09,-16.6 -55.52,-21.51 -65.45,-32.45 -17.14,-18.88 -21.22,-82.97 -30.19,-88 -84.5,-47.35 -84.61,-100.73 -25.55,-112.22z"/>
   <path class="fil0" d="M1529.03 3351.97c31.18,-90.65 78.21,-218.75 147.26,-341.47 -8.24,139.43 254.62,263.55 207.37,361.2 -8.28,17.11 -40.57,0.68 -92.53,-8.35 -17.42,-3.03 -46.39,37.32 -60.84,40.45 -24.91,5.41 -82.46,-23.11 -91.3,-17.85 -83.26,49.5 -129.54,22.91 -109.96,-33.98z"/>
   <path class="fil0" d="M1898.56 3308.03c-62.91,-72.33 -150.34,-177.11 -222.09,-298.26 116.63,76.86 355.55,-88.73 416.49,1.01 10.68,15.72 -19.69,35.47 -53.5,75.96 -11.33,13.57 9.13,58.84 4.62,72.91 -7.78,24.28 -61.24,59.86 -61.11,70.15 1.24,96.85 -44.92,123.63 -84.42,78.23z"/>
   <path class="fil0" d="M2045.27 2966.04c-94.09,18.32 -228.55,41.65 -369.35,43.2 124.87,-62.58 100.93,-352.28 209.12,-360.19 18.96,-1.39 20.87,34.79 39.03,84.31 6.09,16.6 55.52,21.51 65.46,32.45 17.13,18.88 21.22,82.97 30.19,88 84.5,47.35 84.61,100.72 25.54,112.22z"/>
   <path class="fil0" d="M1822.45 2667.98c-31.19,90.65 -78.21,218.75 -147.26,341.47 8.24,-139.43 -254.62,-263.55 -207.37,-361.2 8.27,-17.11 40.56,-0.68 92.53,8.35 17.42,3.03 46.39,-37.32 60.84,-40.46 24.91,-5.4 82.46,23.11 91.3,17.85 83.26,-49.5 129.54,-22.91 109.96,33.99z"/>
   <path class="fil0" d="M1452.92 2711.93c62.91,72.33 150.35,177.11 222.09,298.26 -116.63,-76.86 -355.55,88.73 -416.49,-1.01 -10.68,-15.72 19.69,-35.47 53.5,-75.96 11.33,-13.57 -9.13,-58.84 -4.62,-72.91 7.78,-24.28 61.24,-59.86 61.11,-70.15 -1.24,-96.85 44.92,-123.63 84.41,-78.23z"/>
   <path class="fil1" d="M1486.76 2812.12c44.47,51.14 92.83,80.43 143.55,166.1 -82.46,-54.34 -235.21,22.63 -243.37,2.23 -22.52,-56.26 48.43,-66.49 41.12,-96.99 -21.97,-91.77 30.78,-103.43 58.7,-71.33z"/>
   <path class="fil1" d="M1409.89 3074.71c66.53,-12.94 116.07,-40.17 215.62,-41.27 -88.29,44.24 -98.01,215.01 -119.76,211.88 -59.98,-8.63 -33.37,-75.18 -63.44,-84.11 -90.46,-26.86 -74.18,-78.37 -32.43,-86.5z"/>
   <path class="fil1" d="M1598.87 3272.57c22.05,-64.09 23.24,-120.61 72.07,-207.37 -5.83,98.58 137.2,192.38 123.62,209.65 -37.46,47.63 -81.79,-8.69 -104.56,12.88 -68.49,64.92 -104.97,25.06 -91.13,-15.16z"/>
   <path class="fil1" d="M1864.72 3207.84c-44.47,-51.14 -92.83,-80.43 -143.55,-166.1 82.46,54.34 235.21,-22.63 243.37,-2.23 22.52,56.26 -48.43,66.49 -41.12,96.99 21.97,91.77 -30.78,103.43 -58.7,71.33z"/>
   <path class="fil1" d="M1941.58 2945.24c-66.53,12.95 -116.07,40.18 -215.62,41.28 88.29,-44.24 98.01,-215.01 119.76,-211.88 59.98,8.63 33.37,75.18 63.43,84.11 90.46,26.86 74.19,78.37 32.43,86.5z"/>
   <path class="fil1" d="M1752.6 2747.38c-22.05,64.09 -23.25,120.61 -72.07,207.37 5.83,-98.58 -137.2,-192.38 -123.62,-209.65 37.46,-47.63 81.79,8.69 104.56,-12.88 68.49,-64.91 104.96,-25.06 91.13,15.17z"/>
   <path class="fil1" d="M1486.76 2812.12c44.47,51.14 92.83,80.43 143.55,166.1 -82.46,-54.34 -235.21,22.63 -243.37,2.23 -22.52,-56.26 48.43,-66.49 41.12,-96.99 -21.97,-91.77 30.78,-103.43 58.7,-71.33z"/>
   <path class="fil2" d="M1506.94 2869.62c25.5,29.32 47.98,49.71 92.11,92.95 -55.9,-22.94 -136.78,2.74 -149.34,3.56 -38.6,2.51 30.79,-34.01 92.67,-28.22 -66.56,-81.21 -53.54,-89.11 -35.44,-68.29z"/>
   <path class="fil2" d="M1469.79 3085.98c38.15,-7.42 67.04,-16.7 126.56,-33.29 -47.82,36.94 -66.02,119.82 -71.59,131.11 -17.12,34.69 -14.06,-43.67 21.89,-94.36 -103.61,17.04 -103.94,1.81 -76.86,-3.46z"/>
   <path class="fil2" d="M1638.58 3226.34c12.65,-36.75 19.06,-66.41 34.45,-126.25 8.08,59.88 70.76,117.08 77.75,127.56 21.48,32.17 -44.85,-9.66 -70.78,-66.14 -37.05,98.25 -50.4,90.92 -41.42,64.83z"/>
   <path class="fil2" d="M1844.53 3150.34c-25.5,-29.32 -47.98,-49.71 -92.1,-92.95 55.9,22.94 136.78,-2.74 149.34,-3.56 38.6,-2.52 -30.79,34.01 -92.67,28.22 66.56,81.21 53.54,89.1 35.43,68.29z"/>
   <path class="fil2" d="M1881.68 2933.98c-38.15,7.42 -67.04,16.7 -126.55,33.29 47.81,-36.94 66.01,-119.82 71.59,-131.11 17.12,-34.69 14.06,43.67 -21.89,94.37 103.61,-17.04 103.93,-1.81 76.85,3.46z"/>
   <path class="fil2" d="M1712.9 2793.62c-12.65,36.75 -19.06,66.41 -34.45,126.24 -8.09,-59.88 -70.76,-117.08 -77.75,-127.55 -21.48,-32.17 44.85,9.66 70.78,66.14 37.05,-98.25 50.39,-90.92 41.42,-64.83z"/>
   <path class="fil2" d="M1506.94 2869.62c25.5,29.32 47.98,49.71 92.11,92.95 -55.9,-22.94 -136.78,2.74 -149.34,3.56 -38.6,2.51 30.79,-34.01 92.67,-28.22 -66.56,-81.21 -53.54,-89.11 -35.44,-68.29z"/>
   <path class="fil3" d="M1644.4 2923.29c10.1,25.1 21.29,43.63 29.24,82.57 -0.44,3.46 2.16,3.48 -3.51,4.09 -19.08,2.07 -85.02,-28.69 -85.38,-36.2 -1.15,-24.16 26.95,-18.76 28.18,-31.22 3.69,-37.49 25.13,-35 31.46,-19.24z"/>
   <path class="fil3" d="M1585 2993.78c26.79,3.81 48.43,3.38 86.13,15.96 2.78,2.12 4.1,-0.14 1.8,5.08 -7.75,17.56 -67.35,59.28 -74.04,55.84 -21.49,-11.09 -2.77,-32.72 -12.94,-40.02 -30.62,-21.94 -17.75,-39.26 -0.94,-36.87z"/>
   <path class="fil3" d="M1616.34 3080.46c16.69,-21.29 27.14,-40.25 56.89,-66.6 3.22,-1.35 1.93,-3.62 5.3,0.99 11.33,15.49 17.67,87.97 11.34,92.04 -20.35,13.07 -29.72,-13.96 -41.13,-8.8 -34.31,15.55 -42.87,-4.26 -32.39,-17.62z"/>
   <path class="fil3" d="M1707.08 3096.66c-10.1,-25.1 -21.29,-43.63 -29.24,-82.57 0.44,-3.46 -2.16,-3.48 3.51,-4.09 19.08,-2.07 85.02,28.69 85.38,36.2 1.15,24.16 -26.95,18.76 -28.19,31.22 -3.69,37.49 -25.12,35 -31.46,19.25z"/>
   <path class="fil3" d="M1766.48 3026.18c-26.79,-3.81 -48.43,-3.38 -86.13,-15.96 -2.78,-2.12 -4.1,0.14 -1.79,-5.08 7.75,-17.56 67.35,-59.28 74.04,-55.84 21.49,11.08 2.77,32.72 12.94,40.01 30.62,21.95 17.75,39.26 0.94,36.87z"/>
   <path class="fil3" d="M1735.14 2939.5c-16.69,21.29 -27.14,40.25 -56.89,66.6 -3.22,1.35 -1.93,3.62 -5.3,-0.99 -11.33,-15.49 -17.67,-87.97 -11.34,-92.04 20.35,-13.07 29.72,13.96 41.13,8.8 34.31,-15.54 42.88,4.26 32.4,17.63z"/>
   <path class="fil3" d="M1644.4 2923.29c10.1,25.1 21.29,43.63 29.24,82.57 -0.44,3.46 2.16,3.48 -3.51,4.09 -19.08,2.07 -85.02,-28.69 -85.38,-36.2 -1.15,-24.16 26.95,-18.76 28.18,-31.22 3.69,-37.49 25.13,-35 31.46,-19.24z"/>
   <path class="fil2" d="M1628 2947.89c3.97,10.17 7.98,17.69 15.56,33.3 -12.61,-11.36 -36.43,-12.23 -39.83,-13.2 -10.45,-2.99 11.36,-6.08 27.18,1.31 -9.91,-27.78 -5.72,-28.64 -2.91,-21.42z"/>
   <path class="fil2" d="M1598.1 3020.27c10.79,1.65 19.31,1.93 36.62,3.18 -16.14,5.24 -28.81,25.44 -31.35,27.89 -7.81,7.55 0.42,-12.88 14.73,-22.88 -29.02,-5.31 -27.66,-9.37 -20,-8.19z"/>
   <path class="fil2" d="M1645.84 3082.36c6.83,-8.52 11.33,-15.76 21.07,-30.13 -3.53,16.6 7.62,37.67 8.48,41.1 2.63,10.55 -10.95,-6.8 -12.46,-24.2 -19.1,22.48 -21.94,19.27 -17.09,13.23z"/>
   <path class="fil2" d="M1723.47 3072.07c-3.96,-10.17 -7.98,-17.69 -15.56,-33.31 12.62,11.36 36.43,12.23 39.83,13.21 10.45,2.99 -11.36,6.08 -27.18,-1.31 9.91,27.78 5.72,28.63 2.9,21.42z"/>
   <path class="fil2" d="M1753.38 2999.68c-10.79,-1.65 -19.31,-1.93 -36.62,-3.18 16.14,-5.24 28.81,-25.44 31.35,-27.89 7.81,-7.55 -0.41,12.88 -14.72,22.88 29.02,5.31 27.66,9.36 20,8.19z"/>
   <path class="fil2" d="M1705.64 2937.59c-6.83,8.52 -11.33,15.76 -21.07,30.13 3.53,-16.61 -7.62,-37.67 -8.48,-41.1 -2.63,-10.55 10.95,6.8 12.46,24.19 19.1,-22.47 21.94,-19.27 17.09,-13.22z"/>
   <path class="fil2" d="M1628 2947.89c3.97,10.17 7.98,17.69 15.56,33.3 -12.61,-11.36 -36.43,-12.23 -39.83,-13.2 -10.45,-2.99 11.36,-6.08 27.18,1.31 -9.91,-27.78 -5.72,-28.64 -2.91,-21.42z"/>
  </g>
  <g id="_2482572588304">
   <path class="fil0" d="M3239.33 1711.93c-372.06,-200.03 -380.32,-318.47 20.02,-371.51 156.19,-20.69 -12.24,-185.56 150.61,-253.39 195.47,-81.42 208.62,55.07 374.89,-49.18 268.69,-168.46 448.5,-69.57 288.32,116.3 -278.05,322.65 -155.03,1041.11 -696.3,1288.34 318.45,-417.43 33,-638.87 -137.55,-730.56z"/>
   <path class="fil2" d="M3965.93 1107.67c-171.01,-141.57 -187.38,208.79 -252.23,182.77 -209.04,-83.86 -168.75,232.92 -300.03,210.83 -117.03,-19.7 -273.77,-73.55 -369.21,-23.8 139.32,-95.13 280.98,-78.82 352.44,-65.95 139.92,25.19 -62.12,-299.37 271.34,-220.32 83.95,19.9 217.02,-315.2 297.68,-83.53z"/>
   <path class="fil3" d="M3831.76 1102.58c-135.43,-263.3 40.58,-464.34 259.35,-172.08 57.05,76.21 136.58,-83.82 262.07,-13.05 113.6,64.07 54.55,278.73 196.21,299.84 295.75,44.08 425.28,288.32 183.54,350.69 -379.62,97.94 -1021.31,825.59 -1304.53,898.46 35.99,-49.72 72.91,-113.53 109.2,-186.4 193.17,-387.85 368.72,-1032.5 294.15,-1177.47z"/>
   <path class="fil2" d="M4625.08 1463.61c-116.63,-198.63 -211.98,-91.39 -251.21,-152.35 -168.88,-262.46 -236.67,11.47 -284.39,-118.14 -100.89,-274.04 -206.92,-230.09 -288.25,-228.74 126.34,-133.35 203.54,-92.77 283.97,77.6 94.75,200.71 168.07,-128.89 327.59,192.21 39.83,80.18 215.68,-25.08 212.29,229.41z"/>
   <path class="fil4" d="M4795.94 2177.32c865.35,461.02 -88.94,-1557.88 -165.79,-904.26 -49.75,423.05 -1061.77,1000.21 -1159.52,1275.83 333.36,-198.75 1154.38,-462.63 1325.31,-371.58z"/>
   <path class="fil5" d="M3717.04 2146.91c235.06,-352.19 610.01,-448.89 489.8,-809.37 206.48,315.54 -155,424.01 -489.8,809.37z"/>
   <path class="fil2" d="M5043.01 2146.08c-58.3,-349.16 -122.87,-153.84 -130.72,-231.52 -26.63,-263.73 -94.11,-64.77 -114.66,-212.62 -15.73,-113.13 -45.08,-259.56 -121.03,-305.84 190.62,11.67 141.24,97.15 157.38,177.91 8.5,42.52 113.39,-46.78 107.29,192.9 -2.42,95.17 135.36,-33.56 101.75,379.17z"/>
   <path class="fil5" d="M3582.09 2070.42c-74.06,-325.63 -9.28,-403.9 -203.29,-529.09 208.37,64.32 185.25,176.65 203.29,529.09z"/>
   <path class="fil5" d="M3870.13 2256.64c586.54,-303.11 784.81,-482.54 837.56,-774.92 31.36,286.91 -235.8,464.12 -837.56,774.92z"/>
   <path class="fil6" d="M4683.75 2115.38c268.66,-164.26 440.6,73.89 186.33,357.36 -52.57,58.6 63.62,140.87 -28.82,293.3 -23.81,39.26 -134.76,39.73 -123.92,82.98 52.84,210.79 -522.46,472.16 -371.16,235.31 290.65,-455.01 -338.03,-760.23 -862.68,-564.12 728.12,-500.35 1035.04,-303.82 1200.25,-404.83z"/>
   <path class="fil2" d="M4511.01 2991.45c167.63,-145.56 31.02,-168.18 81.39,-216.62 171.02,-164.48 -7.19,-231.95 100.2,-310.66 108.33,-79.4 111.31,-219.99 95.68,-296.82 113.76,134.75 42.86,239.22 -4.39,294.96 -24.88,29.34 81.86,158.43 -92.96,287.52 -69.41,51.26 61.83,199.93 -179.91,241.63z"/>
   <path class="fil5" d="M4013.68 2309.73c431.83,55.02 508.15,268.61 739.82,28.2 -211.87,299.69 -338.63,35.71 -739.82,-28.2z"/>
  </g>
  <g id="_2482572593104">
   <path class="fil7" d="M1904.45 1572.81c357.34,-234.21 355.27,-354.29 -52.78,-372.58 -159.2,-7.14 -3.96,-188.05 -174.01,-242.11 -204.11,-64.88 -205.37,73.8 -382.07,-16.65 -285.53,-146.16 -458.02,-30.73 -280.31,142.49 308.49,300.71 247.6,1035.44 814.7,1237.05 -357.53,-392.66 -89.33,-640.84 74.46,-748.21z"/>
   <path class="fil2" d="M1119.26 1027.72c159.89,-157.66 207.14,193.93 270.2,162.02 203.27,-102.85 190.48,219.89 320.82,186.1 116.19,-30.12 269.4,-98.14 369.93,-56.39 -148.74,-83.63 -290.04,-54.75 -360.92,-35.52 -138.78,37.66 36.32,-307.1 -292.75,-198.18 -82.85,27.42 -246.34,-298.55 -307.28,-58.03z"/>
   <path class="fil8" d="M1254 1010.81c113.35,-277.2 -81.65,-464.32 -276.43,-150.63 -50.79,81.79 -144.99,-72.47 -265.22,9.86 -108.84,74.52 -30.5,285.65 -171.39,319.35 -294.14,70.38 -403.22,327.85 -154.15,369.48 391.11,65.36 1101.58,742.23 1393.35,790.8 -256.92,-296.81 -600.29,-1157.58 -526.15,-1338.87z"/>
   <path class="fil2" d="M486.33 1444.23c100.08,-210.38 205.57,-110.69 239.75,-175.56 147.12,-279.29 239.48,-9.22 276.19,-144 77.6,-284.99 188.3,-250.01 270.37,-255.78 -139.01,-123.28 -213.24,-75.61 -279.32,103.13 -77.85,210.56 -180.66,-115.12 -313.22,222.43 -33.1,84.29 -219.53,-6.34 -193.77,249.79z"/>
   <path class="fil9" d="M376.81 2178.39c-831.49,540.5 -47.14,-1577.57 87.67,-925.71 87.26,421.9 1157.67,914.63 1280.36,1183.77 -353.35,-171 -1203.8,-364.83 -1368.03,-258.07z"/>
   <path class="fil10" d="M1461.27 2053.04c-267.77,-334.24 -654.07,-398.77 -564.59,-772.55 -180.35,336.07 193.4,413.64 564.59,772.55z"/>
   <path class="fil2" d="M125.12 2168.59c28.1,-356.94 110.31,-165.8 111.4,-244.76 3.68,-268.08 89.14,-73.53 96.87,-224.31 5.92,-115.38 22.63,-265.5 95.11,-318.8 -191.06,28.5 -133.79,110.29 -142.96,193.08 -4.83,43.6 -118.36,-37.18 -91.17,203.8 10.79,95.68 -139.34,-21.94 -69.24,390.99z"/>
   <path class="fil11" d="M1590.54 1964.12c46.04,-334.62 -26.1,-407.79 158.39,-550.97 -204.31,83.1 -171.16,194.26 -158.39,550.97z"/>
   <path class="fil12" d="M1316.65 2177.04c-617.62,-253.93 -833.15,-417.32 -911.97,-707.31 -6.41,291.85 278.34,446.96 911.97,707.31z"/>
   <path class="fil13" d="M484.42 2106.13c-285.13,-141.94 -437.47,113.13 -156.38,376.44 58.12,54.43 -51.74,147.53 54.79,293.01 27.43,37.47 139.28,28.2 132.14,72.74 -34.75,217.04 567.89,429.91 394.65,204.52 -332.81,-432.96 273.87,-795.7 819.74,-644.15 -777.6,-440.25 -1069.61,-215.28 -1244.95,-302.56z"/>
   <path class="fil2" d="M735.38 2973.72c-181.68,-131.96 -46.02,-166.74 -101.03,-211.13 -186.77,-150.72 -13.12,-234.35 -128.23,-304.24 -116.12,-70.5 -131.47,-211.9 -122.46,-290.69 -102.8,145.77 -22.19,244.81 30.31,296.82 27.64,27.39 -68.58,166.83 118.91,281.55 74.44,45.56 -44.75,206.89 202.49,227.68z"/>
   <path class="fil14" d="M1176.67 2243.13c-430.29,93.35 -488.45,315.26 -742.99,93.36 239.79,283.38 344.35,6.25 742.99,-93.36z"/>
  </g>
  <path class="fil15" d="M2946.08 4581.16c-177.25,-861.62 -476.74,-1578.98 -958.6,-1995.25 -39.71,-34.29 -133.17,-93.42 -203.03,-114.51 -87.81,-26.51 -180.96,-67.81 -351.07,-52.82 75.76,-63.04 114.61,-77.62 214.44,-75.5 -77.74,-41.02 -110.54,-71.07 -146.27,-128.09 108.42,7.92 149.03,18.16 231.69,63.28 -53.95,-66.13 -45.56,-129.14 -23.82,-216.1 56.28,141.82 138.82,195.38 196.83,279.71 34.13,49.61 153.58,150.1 193.15,189.56 331.79,330.92 705.7,776.34 967.57,2012.35l-120.89 37.36z"/>
  <path class="fil15" d="M2743.33 4708.39c21.84,-768.75 87.82,-1487.37 524.34,-1967.03 52.94,-58.17 106.42,-121.68 179.2,-155.37 80.61,-37.32 133.9,-7.03 317.15,-77.31 -49.62,-21.21 -153.51,-64.09 -228.49,-46.85 78.88,-58.96 53.94,-102.52 101.84,-173.01 -88.38,8.4 -136.26,62.88 -175.34,88.27 32.29,-49.4 4.37,-115.33 -10.92,-201.9 -92.62,137.77 -77.97,159.37 -123.53,250.44 -26.5,52.97 -78.89,132.45 -161.92,221.42 -358.79,384.45 -541.81,1257.09 -551.17,2009.74l128.84 51.6z"/>
  <g id="_2482572595600">
   <path class="fil8" d="M2915.79 2309.81c-79.5,-196.47 9,-460.01 -84.36,-280.45 -162,311.55 2.11,821.09 215.21,1087.65 -38.53,-629.77 38.35,-389.04 -130.85,-807.19z"/>
   <path class="fil16" d="M3386.48 2505.96c479.73,-720.8 -922.9,-948.23 -523.21,-521.95 269.98,287.94 34.62,920.19 183.37,1133 41.04,-293.66 302.83,-555.44 339.84,-611.04z"/>
   <path class="fil1" d="M2949.17 2101.03c-164.35,-451.89 -32.54,393.15 -10.63,478.49 48.37,188.47 -37.19,277.82 86.05,461.91 -37.84,-138.35 77.41,-520.2 -75.42,-940.4z"/>
   <path class="fil17" d="M2981.34 3964.24c211.9,-567.08 -3.78,-874.87 -95.51,-1106.82 106.88,100.38 114.05,176.9 156.89,243.3 2.42,-131.74 69.85,-268.69 143.36,-393.43 -18.09,133.98 -69.49,274.27 -46.79,479.93 25.41,230.18 13.18,513.38 -91.96,858.68l-66 -81.65z"/>
   <path class="fil18" d="M3249.74 2488.36c71.54,-287.63 143.63,-335.86 -4.33,-529.93 180.94,117.78 90.98,250.79 4.33,529.93z"/>
   <path class="fil18" d="M3083.18 2768.69c68.68,-571.72 170.12,-648.09 -57.03,-860.83 270.43,175.45 144.68,227.94 57.03,860.83z"/>
   <path class="fil18" d="M3143.09 2654.96c82.38,-424.01 194.96,-530.97 -13.97,-741.25 261.93,193.85 117.03,310.44 13.97,741.25z"/>
   <path class="fil18" d="M3033.62 2827.7c86.81,-475.55 94.7,-739.45 -88.27,-893.11 222.75,101.36 177.45,405.29 88.27,893.11z"/>
   <path class="fil19" d="M2984.58 2689.68c-3.75,103.51 -14.21,163.47 30.4,280.7 -38.07,-284.19 118.01,-383.43 84.86,-469.23 -26.59,-68.83 -112.91,123.55 -115.26,188.53z"/>
  </g>
  <g id="_2482580212624">
   <path class="fil20" d="M1010.79 3809.09l432.45 -187.52 149.4 194.01 -49.03 2.98c-25.85,-35.96 -74.08,-50.37 -116.36,-32.03 -20.36,8.83 -36.12,23.85 -46.04,41.9l-158.91 9.66c-15.41,-25.83 -47.96,-36.82 -76.29,-24.54 -14.56,6.31 -25.38,17.64 -31.35,31.09l-1.31 0.08 0.83 1.03c-6.19,14.74 -6.59,31.88 0.27,47.69 11.52,26.55 39.72,40.72 67.02,35.53l191.48 236.82 -174.66 75.73 -187.51 -432.45z"/>
   <path class="fil21" d="M475.53 3904.23c-5.16,-31.96 -167.48,-22.66 -173.89,-59.47 -12.11,-69.58 653.48,22.9 749.73,204.69 -263.63,-74.63 -453.58,65.38 -578.06,130.11 -68.27,35.5 -132.38,11.68 -142.83,-3 -12.3,-17.28 40.51,-39.21 84.35,-48.94 28.31,-6.28 88.64,-37.06 74.87,-61.96 -6,-10.86 -56.47,12.99 -106.33,23.02 -46.58,9.37 -93.49,2.28 -104.38,-26.91 -3.34,-8.95 30.8,-17.98 78.36,-32.81 55.73,-17.37 117.37,-21.66 107,-58.83 -3.19,-11.43 -187.73,25.89 -189.14,-2.42 -2.61,-52.33 202.81,-48.03 200.31,-63.47z"/>
   <path class="fil21" d="M480.06 4211.61c-20.44,-25.1 -156.37,64.12 -180.32,35.44 -45.27,-54.2 577.38,-306.9 751.64,-197.59 -265.62,67.19 -360.12,283.41 -435.55,401.71 -41.38,64.88 -108.8,76.31 -125.2,68.82 -19.29,-8.81 15.48,-54.22 48.58,-84.56 21.38,-19.59 58.23,-76.41 33.85,-91.1 -10.63,-6.4 -42.4,39.48 -80.58,73.1 -35.66,31.4 -79.83,48.72 -103.85,28.89 -7.37,-6.09 17.68,-30.97 51.45,-67.6 39.58,-42.91 90.81,-77.44 63.25,-104.46 -8.48,-8.3 -149.64,116.29 -165.02,92.47 -28.43,-44.01 151.62,-143 141.74,-155.12z"/>
   <path class="fil21" d="M637.68 4475.54c-30.25,-11.51 -103.36,133.71 -138.44,120.86 -66.31,-24.31 346.58,-554.48 552.14,-546.94 -196.44,191 -170.17,425.5 -176.35,565.67 -3.39,76.88 -56.07,120.48 -74.01,122.19 -21.12,2.01 -13.71,-54.7 -0.21,-97.52 8.72,-27.66 12.22,-95.29 -16.23,-95.82 -12.4,-0.23 -16.98,55.4 -33.23,103.6 -15.18,45.02 -44.77,82.1 -75.49,76.94 -9.43,-1.58 -0.18,-35.67 10.76,-84.27 12.82,-56.95 39.92,-112.47 2.55,-122.09 -11.49,-2.95 -71.44,175.53 -96.67,162.59 -46.62,-23.91 59.81,-199.65 45.19,-205.21z"/>
   <path class="fil21" d="M906.15 4625.3c-31.96,5.16 -22.66,167.48 -59.47,173.89 -69.58,12.11 22.9,-653.48 204.69,-749.73 -74.63,263.63 65.38,453.58 130.11,578.06 35.5,68.27 11.68,132.38 -3,142.83 -17.28,12.3 -39.21,-40.51 -48.94,-84.35 -6.28,-28.31 -37.06,-88.64 -61.97,-74.87 -10.85,6 12.99,56.47 23.02,106.33 9.37,46.58 2.28,93.49 -26.91,104.38 -8.96,3.34 -17.98,-30.8 -32.81,-78.36 -17.37,-55.73 -21.66,-117.36 -58.83,-107 -11.43,3.19 25.89,187.74 -2.43,189.14 -52.33,2.61 -48.03,-202.81 -63.47,-200.31z"/>
   <path class="fil21" d="M1213.52 4620.77c-25.1,20.45 64.12,156.37 35.44,180.33 -54.21,45.27 -306.9,-577.38 -197.59,-751.64 67.19,265.62 283.41,360.12 401.71,435.56 64.88,41.37 76.31,108.8 68.82,125.19 -8.81,19.29 -54.22,-15.48 -84.56,-48.58 -19.59,-21.38 -76.41,-58.23 -91.1,-33.86 -6.4,10.63 39.48,42.41 73.1,80.58 31.4,35.66 48.72,79.83 28.89,103.85 -6.09,7.38 -30.97,-17.68 -67.59,-51.45 -42.91,-39.57 -77.45,-90.81 -104.46,-63.25 -8.3,8.47 116.3,149.64 92.47,165.02 -44.01,28.42 -143,-151.62 -155.12,-141.75z"/>
   <path class="fil21" d="M1477.45 4463.15c-11.51,30.25 133.71,103.36 120.86,138.44 -24.31,66.31 -554.48,-346.58 -546.94,-552.14 191,196.44 425.5,170.17 565.67,176.35 76.87,3.4 120.48,56.08 122.19,74.02 2.01,21.11 -54.7,13.71 -97.52,0.21 -27.66,-8.72 -95.3,-12.22 -95.82,16.23 -0.23,12.41 55.4,16.99 103.6,33.23 45.02,15.18 82.1,44.77 76.94,75.49 -1.59,9.43 -35.67,0.17 -84.27,-10.76 -56.95,-12.82 -112.47,-39.92 -122.09,-2.55 -2.95,11.49 175.53,71.45 162.59,96.68 -23.91,46.62 -199.65,-59.81 -205.21,-45.19z"/>
   <path class="fil21" d="M1627.22 4194.69c5.16,31.95 167.48,22.65 173.89,59.47 12.11,69.58 -653.48,-22.9 -749.73,-204.7 263.63,74.63 453.58,-65.38 578.06,-130.11 68.27,-35.5 132.38,-11.68 142.83,3 12.3,17.28 -40.51,39.22 -84.35,48.94 -28.31,6.28 -88.64,37.06 -74.87,61.96 6,10.86 56.47,-12.99 106.33,-23.02 46.58,-9.36 93.49,-2.28 104.38,26.91 3.34,8.96 -30.8,17.98 -78.36,32.81 -55.73,17.37 -117.36,21.66 -107,58.84 3.19,11.43 187.74,-25.9 189.14,2.42 2.61,52.33 -202.81,48.03 -200.31,63.47z"/>
   <path class="fil21" d="M1622.69 3887.31c20.45,25.09 156.37,-64.12 180.33,-35.45 45.27,54.21 -577.38,306.9 -751.64,197.59 265.62,-67.19 360.12,-283.41 435.55,-401.71 41.38,-64.88 108.8,-76.3 125.2,-68.82 19.29,8.81 -15.48,54.22 -48.58,84.56 -21.38,19.59 -58.23,76.41 -33.86,91.1 10.63,6.4 42.41,-39.48 80.58,-73.1 35.66,-31.4 79.83,-48.71 103.85,-28.89 7.38,6.09 -17.68,30.97 -51.45,67.6 -39.57,42.91 -90.81,77.44 -63.25,104.46 8.48,8.3 149.64,-116.29 165.02,-92.47 28.42,44.01 -151.62,143 -141.75,155.13z"/>
   <path class="fil21" d="M1465.07 3623.38c30.25,11.51 103.36,-133.71 138.44,-120.86 66.31,24.31 -346.58,554.48 -552.14,546.94 196.44,-191 170.17,-425.5 176.35,-565.67 3.4,-76.88 56.08,-120.48 74.02,-122.19 21.11,-2.01 13.71,54.69 0.21,97.52 -8.72,27.66 -12.22,95.29 16.23,95.82 12.41,0.23 16.99,-55.4 33.23,-103.59 15.18,-45.02 44.77,-82.1 75.49,-76.94 9.43,1.58 0.17,35.66 -10.76,84.27 -12.82,56.95 -39.92,112.47 -2.55,122.09 11.49,2.95 71.45,-175.53 96.68,-162.59 46.62,23.91 -59.81,199.66 -45.19,205.21z"/>
   <path class="fil21" d="M1196.61 3473.61c31.95,-5.15 22.65,-167.48 59.47,-173.89 69.58,-12.11 -22.9,653.48 -204.7,749.74 74.63,-263.63 -65.38,-453.58 -130.11,-578.06 -35.5,-68.27 -11.68,-132.38 3,-142.83 17.28,-12.3 39.22,40.51 48.94,84.35 6.28,28.31 37.06,88.64 61.97,74.87 10.86,-6 -12.99,-56.47 -23.02,-106.33 -9.37,-46.58 -2.28,-93.49 26.91,-104.38 8.96,-3.34 17.98,30.8 32.81,78.36 17.37,55.73 21.66,117.37 58.84,107 11.43,-3.19 -25.9,-187.73 2.42,-189.14 52.33,-2.61 48.03,202.81 63.47,200.31z"/>
   <path class="fil21" d="M889.23 3478.15c25.09,-20.44 -64.12,-156.37 -35.45,-180.32 54.21,-45.27 306.9,577.38 197.59,751.64 -67.19,-265.62 -283.41,-360.12 -401.71,-435.55 -64.88,-41.37 -76.3,-108.8 -68.82,-125.2 8.81,-19.29 54.22,15.48 84.56,48.58 19.59,21.38 76.41,58.23 91.1,33.85 6.4,-10.63 -39.48,-42.4 -73.1,-80.58 -31.4,-35.66 -48.72,-79.83 -28.89,-103.85 6.09,-7.37 30.97,17.68 67.6,51.45 42.91,39.58 77.44,90.81 104.46,63.25 8.3,-8.48 -116.29,-149.64 -92.47,-165.02 44.01,-28.43 143,151.62 155.13,141.74z"/>
   <path class="fil21" d="M625.29 3635.76c11.51,-30.25 -133.71,-103.36 -120.86,-138.44 24.31,-66.31 554.48,346.58 546.94,552.14 -191,-196.44 -425.5,-170.17 -565.66,-176.35 -76.88,-3.39 -120.48,-56.07 -122.2,-74.01 -2.01,-21.12 54.7,-13.71 97.52,-0.21 27.66,8.72 95.29,12.22 95.82,-16.23 0.23,-12.4 -55.4,-16.98 -103.59,-33.23 -45.02,-15.18 -82.1,-44.77 -76.94,-75.49 1.58,-9.43 35.66,-0.18 84.27,10.76 56.95,12.82 112.47,39.92 122.09,2.55 2.95,-11.49 -175.53,-71.44 -162.59,-96.67 23.91,-46.62 199.65,59.81 205.21,45.19z"/>
   <path class="fil21" d="M475.53 3904.23c-5.16,-31.96 -167.48,-22.66 -173.89,-59.47 -12.11,-69.58 653.48,22.9 749.73,204.69 -263.63,-74.63 -453.58,65.38 -578.06,130.11 -68.27,35.5 -132.38,11.68 -142.83,-3 -12.3,-17.28 40.51,-39.21 84.35,-48.94 28.31,-6.28 88.64,-37.06 74.87,-61.96 -6,-10.86 -56.47,12.99 -106.33,23.02 -46.58,9.37 -93.49,2.28 -104.38,-26.91 -3.34,-8.95 30.8,-17.98 78.36,-32.81 55.73,-17.37 117.37,-21.66 107,-58.83 -3.19,-11.43 -187.73,25.89 -189.14,-2.42 -2.61,-52.33 202.81,-48.03 200.31,-63.47z"/>
   <path class="fil2" d="M394.15 3936.62c59.93,-13.71 405.95,7.03 367.44,-9.13 -75.11,-31.53 -416.05,-85.27 -333.1,-80.85 82.5,4.39 561.87,87.6 622.88,202.82 -336.04,-106.84 -726.95,53.32 -688.43,7.33 16.85,-20.13 246.39,-52.07 338.59,-80.18 85.83,-26.17 -440.03,-9.63 -307.38,-39.98z"/>
   <path class="fil2" d="M425.79 4280.35c45.04,-41.84 355.08,-196.89 313.65,-191.63 -80.81,10.24 -402.94,134.18 -328.91,96.53 73.64,-37.45 530.39,-205.07 640.84,-135.79 -344.44,75.5 -602.9,409.66 -592.54,350.56 4.53,-25.86 187.35,-168.29 253.14,-238.73 61.24,-65.57 -385.89,211.67 -286.19,119.07z"/>
   <path class="fil2" d="M625.05 4562.21c18.09,-58.75 209.06,-348.05 175.81,-322.79 -64.86,49.28 -281.87,317.67 -236.57,248.05 45.05,-69.25 356.79,-442.79 487.09,-438.02 -260.54,237.6 -317.3,656.23 -337.87,599.86 -9.01,-24.66 78.1,-239.42 99.85,-333.32 20.25,-87.41 -228.36,376.26 -188.31,246.21z"/>
   <path class="fil2" d="M938.54 4706.68c-13.71,-59.93 7.03,-405.96 -9.13,-367.45 -31.53,75.11 -85.27,416.05 -80.85,333.11 4.39,-82.5 87.6,-561.87 202.82,-622.88 -106.84,336.04 53.33,726.95 7.33,688.43 -20.13,-16.85 -52.07,-246.4 -80.18,-338.59 -26.17,-85.82 -9.63,440.03 -39.98,307.38z"/>
   <path class="fil2" d="M1282.27 4675.05c-41.84,-45.04 -196.89,-355.09 -191.63,-313.65 10.24,80.81 134.18,402.94 96.53,328.9 -37.45,-73.64 -205.07,-530.39 -135.79,-640.84 75.5,344.44 409.66,602.9 350.56,592.54 -25.86,-4.53 -168.29,-187.35 -238.73,-253.14 -65.57,-61.24 211.67,385.89 119.07,286.19z"/>
   <path class="fil2" d="M1564.13 4475.79c-58.75,-18.09 -348.06,-209.07 -322.79,-175.82 49.28,64.86 317.67,281.87 248.05,236.57 -69.25,-45.06 -442.79,-356.8 -438.02,-487.09 237.6,260.54 656.22,317.3 599.86,337.87 -24.66,9.01 -239.42,-78.1 -333.32,-99.85 -87.41,-20.25 376.26,228.36 246.21,188.32z"/>
   <path class="fil2" d="M1708.6 4162.3c-59.93,13.71 -405.96,-7.03 -367.45,9.13 75.11,31.53 416.05,85.27 333.11,80.85 -82.5,-4.39 -561.87,-87.59 -622.88,-202.82 336.04,106.84 726.95,-53.33 688.43,-7.33 -16.85,20.13 -246.4,52.07 -338.59,80.18 -85.82,26.17 440.03,9.63 307.38,39.98z"/>
   <path class="fil2" d="M1676.97 3818.57c-45.04,41.84 -355.09,196.89 -313.65,191.63 80.81,-10.25 402.94,-134.18 328.9,-96.53 -73.64,37.44 -530.39,205.07 -640.84,135.79 344.44,-75.5 602.9,-409.66 592.54,-350.56 -4.53,25.86 -187.35,168.3 -253.14,238.74 -61.24,65.57 385.89,-211.67 286.19,-119.07z"/>
   <path class="fil2" d="M1477.71 3536.71c-18.09,58.75 -209.07,348.05 -175.82,322.79 64.86,-49.28 281.87,-317.68 236.57,-248.05 -45.06,69.25 -356.8,442.79 -487.09,438.02 260.54,-237.6 317.3,-656.22 337.87,-599.86 9.01,24.66 -78.1,239.42 -99.85,333.32 -20.25,87.41 228.36,-376.26 188.32,-246.21z"/>
   <path class="fil2" d="M1164.21 3392.24c13.71,59.93 -7.03,405.95 9.13,367.45 31.53,-75.11 85.27,-416.05 80.85,-333.11 -4.39,82.5 -87.59,561.87 -202.82,622.88 106.84,-336.04 -53.33,-726.95 -7.33,-688.43 20.13,16.85 52.07,246.4 80.18,338.59 26.17,85.83 9.63,-440.03 39.98,-307.38z"/>
   <path class="fil2" d="M820.49 3423.87c41.84,45.04 196.89,355.08 191.63,313.65 -10.25,-80.81 -134.18,-402.94 -96.53,-328.91 37.44,73.64 205.07,530.39 135.79,640.84 -75.5,-344.44 -409.66,-602.9 -350.56,-592.54 25.86,4.53 168.3,187.35 238.74,253.14 65.57,61.24 -211.67,-385.89 -119.07,-286.19z"/>
   <path class="fil2" d="M538.62 3623.13c58.75,18.09 348.05,209.06 322.79,175.81 -49.28,-64.86 -317.68,-281.87 -248.05,-236.57 69.25,45.05 442.79,356.8 438.02,487.09 -237.6,-260.54 -656.22,-317.3 -599.86,-337.87 24.66,-9.01 239.42,78.1 333.32,99.86 87.41,20.25 -376.26,-228.36 -246.21,-188.32z"/>
   <path class="fil2" d="M394.15 3936.62c59.93,-13.71 405.95,7.03 367.44,-9.13 -75.11,-31.53 -416.05,-85.27 -333.1,-80.85 82.5,4.39 561.87,87.6 622.88,202.82 -336.04,-106.84 -726.95,53.32 -688.43,7.33 16.85,-20.13 246.39,-52.07 338.59,-80.18 85.83,-26.17 -440.03,-9.63 -307.38,-39.98z"/>
   <path class="fil22" d="M809.27 3920.93c32.68,-0.97 116.45,31.58 103.43,16.51 -20.08,-23.24 -69.19,-51.03 -30.34,-39.02 62.74,19.39 139.35,95.04 169.01,151.05 -140.05,-115.69 -270.61,-35.42 -324.4,-55.68 -24.29,-9.16 76.94,-33.05 125.28,-33.63 63.66,-0.77 -94.64,-37.69 -42.98,-39.21z"/>
   <path class="fil22" d="M777.44 4059.2c27.81,-17.17 116.64,-30.88 97.83,-37.42 -29.02,-10.09 -85.43,-9.6 -45.78,-18.63 64.03,-14.58 168.2,12.63 221.88,46.3 -179.13,-30.16 -252.07,104.64 -308.78,113.98 -25.62,4.22 50.11,-67.09 91.68,-91.77 54.74,-32.49 -100.81,14.68 -56.83,-12.47z"/>
   <path class="fil22" d="M819.01 4194.86c15.5,-28.78 85.57,-85.06 66.01,-81.32 -30.17,5.77 -78.78,34.4 -48.96,6.76 48.16,-44.64 151.98,-73.16 215.31,-70.84 -170.21,63.45 -165.98,216.65 -210.42,253.1 -20.07,16.46 9.85,-83.16 33.51,-125.31 31.16,-55.52 -79.96,63.12 -55.45,17.61z"/>
   <path class="fil22" d="M922.85 4291.56c-0.97,-32.67 31.58,-116.45 16.51,-103.43 -23.24,20.08 -51.03,69.19 -39.02,30.34 19.39,-62.74 95.04,-139.35 151.05,-169.01 -115.69,140.06 -35.42,270.62 -55.68,324.4 -9.16,24.29 -33.05,-76.94 -33.63,-125.28 -0.77,-63.66 -37.69,94.64 -39.21,42.98z"/>
   <path class="fil22" d="M1061.11 4323.39c-17.17,-27.82 -30.88,-116.65 -37.42,-97.83 -10.09,29.01 -9.6,85.43 -18.63,45.78 -14.58,-64.03 12.63,-168.2 46.3,-221.89 -30.16,179.13 104.64,252.07 113.98,308.79 4.22,25.62 -67.09,-50.11 -91.77,-91.68 -32.49,-54.75 14.68,100.81 -12.47,56.83z"/>
   <path class="fil22" d="M1196.78 4281.82c-28.78,-15.5 -85.07,-85.58 -81.32,-66.01 5.77,30.17 34.4,78.78 6.76,48.96 -44.65,-48.16 -73.16,-151.98 -70.84,-215.31 63.45,170.21 216.65,165.98 253.1,210.42 16.46,20.08 -83.16,-9.84 -125.31,-33.51 -55.52,-31.16 63.12,79.96 17.61,55.45z"/>
   <path class="fil22" d="M1293.48 4177.99c-32.67,0.96 -116.45,-31.58 -103.43,-16.51 20.08,23.25 69.19,51.03 30.34,39.02 -62.74,-19.38 -139.35,-95.03 -169.01,-151.04 140.06,115.68 270.62,35.42 324.4,55.68 24.29,9.15 -76.94,33.05 -125.28,33.63 -63.66,0.77 94.64,37.69 42.98,39.21z"/>
   <path class="fil22" d="M1325.31 4039.72c-27.82,17.17 -116.65,30.88 -97.83,37.42 29.01,10.09 85.43,9.6 45.78,18.62 -64.03,14.58 -168.2,-12.63 -221.89,-46.3 179.13,30.16 252.07,-104.63 308.78,-113.98 25.62,-4.22 -50.1,67.09 -91.67,91.77 -54.75,32.5 100.8,-14.68 56.83,12.47z"/>
   <path class="fil22" d="M1283.74 3904.06c-15.5,28.78 -85.58,85.06 -66.01,81.32 30.17,-5.77 78.78,-34.4 48.96,-6.76 -48.16,44.65 -151.98,73.16 -215.31,70.84 170.21,-63.45 165.98,-216.65 210.42,-253.1 20.08,-16.46 -9.84,83.15 -33.51,125.31 -31.16,55.51 79.96,-63.12 55.45,-17.61z"/>
   <path class="fil22" d="M1179.91 3807.36c0.96,32.68 -31.59,116.45 -16.51,103.43 23.25,-20.08 51.03,-69.18 39.02,-30.34 -19.38,62.74 -95.03,139.35 -151.04,169.01 115.68,-140.05 35.42,-270.61 55.68,-324.4 9.15,-24.29 33.05,76.94 33.63,125.28 0.77,63.65 37.69,-94.64 39.21,-42.98z"/>
   <path class="fil22" d="M1041.63 3775.53c17.17,27.81 30.88,116.64 37.42,97.83 10.09,-29.02 9.6,-85.43 18.63,-45.78 14.58,64.03 -12.63,168.2 -46.3,221.88 30.16,-179.13 -104.63,-252.07 -113.98,-308.78 -4.22,-25.62 67.09,50.11 91.77,91.68 32.5,54.74 -14.68,-100.81 12.47,-56.83z"/>
   <path class="fil22" d="M905.97 3817.1c28.78,15.5 85.06,85.57 81.32,66.01 -5.77,-30.17 -34.4,-78.79 -6.76,-48.96 44.65,48.16 73.16,151.98 70.84,215.31 -63.45,-170.21 -216.65,-165.98 -253.1,-210.42 -16.46,-20.07 83.15,9.85 125.31,33.51 55.51,31.16 -63.12,-79.96 -17.61,-55.45z"/>
   <path class="fil22" d="M809.27 3920.93c32.68,-0.97 116.45,31.58 103.43,16.51 -20.08,-23.24 -69.19,-51.03 -30.34,-39.02 62.74,19.39 139.35,95.04 169.01,151.05 -140.05,-115.69 -270.61,-35.42 -324.4,-55.68 -24.29,-9.16 76.94,-33.05 125.28,-33.63 63.66,-0.77 -94.64,-37.69 -42.98,-39.21z"/>
   <path class="fil23" d="M809.27 3920.93c32.68,-0.97 116.45,31.58 103.43,16.51 -20.08,-23.24 -69.19,-51.03 -30.34,-39.02 62.74,19.39 139.35,95.04 169.01,151.05 -140.05,-115.69 -270.61,-35.42 -324.4,-55.68 -24.29,-9.16 76.94,-33.05 125.28,-33.63 63.66,-0.77 -94.64,-37.69 -42.98,-39.21z"/>
   <path class="fil23" d="M777.44 4059.2c27.81,-17.17 116.64,-30.88 97.83,-37.42 -29.02,-10.09 -85.43,-9.6 -45.78,-18.63 64.03,-14.58 168.2,12.63 221.88,46.3 -179.13,-30.16 -252.07,104.64 -308.78,113.98 -25.62,4.22 50.11,-67.09 91.68,-91.77 54.74,-32.49 -100.81,14.68 -56.83,-12.47z"/>
   <path class="fil23" d="M819.01 4194.86c15.5,-28.78 85.57,-85.06 66.01,-81.32 -30.17,5.77 -78.78,34.4 -48.96,6.76 48.16,-44.64 151.98,-73.16 215.31,-70.84 -170.21,63.45 -165.98,216.65 -210.42,253.1 -20.07,16.46 9.85,-83.16 33.51,-125.31 31.16,-55.52 -79.96,63.12 -55.45,17.61z"/>
   <path class="fil23" d="M922.85 4291.56c-0.97,-32.67 31.58,-116.45 16.51,-103.43 -23.24,20.08 -51.03,69.19 -39.02,30.34 19.39,-62.74 95.04,-139.35 151.05,-169.01 -115.69,140.06 -35.42,270.62 -55.68,324.4 -9.16,24.29 -33.05,-76.94 -33.63,-125.28 -0.77,-63.66 -37.69,94.64 -39.21,42.98z"/>
   <path class="fil23" d="M1061.11 4323.39c-17.17,-27.82 -30.88,-116.65 -37.42,-97.83 -10.09,29.01 -9.6,85.43 -18.63,45.78 -14.58,-64.03 12.63,-168.2 46.3,-221.89 -30.16,179.13 104.64,252.07 113.98,308.79 4.22,25.62 -67.09,-50.11 -91.77,-91.68 -32.49,-54.75 14.68,100.81 -12.47,56.83z"/>
   <path class="fil23" d="M1196.78 4281.82c-28.78,-15.5 -85.07,-85.58 -81.32,-66.01 5.77,30.17 34.4,78.78 6.76,48.96 -44.65,-48.16 -73.16,-151.98 -70.84,-215.31 63.45,170.21 216.65,165.98 253.1,210.42 16.46,20.08 -83.16,-9.84 -125.31,-33.51 -55.52,-31.16 63.12,79.96 17.61,55.45z"/>
   <path class="fil23" d="M1293.48 4177.99c-32.67,0.96 -116.45,-31.58 -103.43,-16.51 20.08,23.25 69.19,51.03 30.34,39.02 -62.74,-19.38 -139.35,-95.03 -169.01,-151.04 140.06,115.68 270.62,35.42 324.4,55.68 24.29,9.15 -76.94,33.05 -125.28,33.63 -63.66,0.77 94.64,37.69 42.98,39.21z"/>
   <path class="fil23" d="M1325.31 4039.72c-27.82,17.17 -116.65,30.88 -97.83,37.42 29.01,10.09 85.43,9.6 45.78,18.62 -64.03,14.58 -168.2,-12.63 -221.89,-46.3 179.13,30.16 252.07,-104.63 308.78,-113.98 25.62,-4.22 -50.1,67.09 -91.67,91.77 -54.75,32.5 100.8,-14.68 56.83,12.47z"/>
   <path class="fil23" d="M1283.74 3904.06c-15.5,28.78 -85.58,85.06 -66.01,81.32 30.17,-5.77 78.78,-34.4 48.96,-6.76 -48.16,44.65 -151.98,73.16 -215.31,70.84 170.21,-63.45 165.98,-216.65 210.42,-253.1 20.08,-16.46 -9.84,83.15 -33.51,125.31 -31.16,55.51 79.96,-63.12 55.45,-17.61z"/>
   <path class="fil23" d="M1179.91 3807.36c0.96,32.68 -31.59,116.45 -16.51,103.43 23.25,-20.08 51.03,-69.18 39.02,-30.34 -19.38,62.74 -95.03,139.35 -151.04,169.01 115.68,-140.05 35.42,-270.61 55.68,-324.4 9.15,-24.29 33.05,76.94 33.63,125.28 0.77,63.65 37.69,-94.64 39.21,-42.98z"/>
   <path class="fil23" d="M1041.63 3775.53c17.17,27.81 30.88,116.64 37.42,97.83 10.09,-29.02 9.6,-85.43 18.63,-45.78 14.58,64.03 -12.63,168.2 -46.3,221.88 30.16,-179.13 -104.63,-252.07 -113.98,-308.78 -4.22,-25.62 67.09,50.11 91.77,91.68 32.5,54.74 -14.68,-100.81 12.47,-56.83z"/>
   <path class="fil23" d="M905.97 3817.1c28.78,15.5 85.06,85.57 81.32,66.01 -5.77,-30.17 -34.4,-78.79 -6.76,-48.96 44.65,48.16 73.16,151.98 70.84,215.31 -63.45,-170.21 -216.65,-165.98 -253.1,-210.42 -16.46,-20.07 83.15,9.85 125.31,33.51 55.51,31.16 -63.12,-79.96 -17.61,-55.45z"/>
   <path class="fil23" d="M809.27 3920.93c32.68,-0.97 116.45,31.58 103.43,16.51 -20.08,-23.24 -69.19,-51.03 -30.34,-39.02 62.74,19.39 139.35,95.04 169.01,151.05 -140.05,-115.69 -270.61,-35.42 -324.4,-55.68 -24.29,-9.16 76.94,-33.05 125.28,-33.63 63.66,-0.77 -94.64,-37.69 -42.98,-39.21z"/>
  </g>
  <g id="_2482580158336">
   <path class="fil20" d="M4555.93 3951.06l-334.67 95.81 -90.35 -154.89 56.78 3.72c15.53,28.67 49.38,43.75 82.02,34.41 15.88,-4.55 28.93,-14.15 37.94,-26.56l98.78 6.47 0.09 0.33c6.82,23.82 31.65,37.6 55.47,30.78 23.82,-6.82 37.6,-31.65 30.78,-55.47 -5.96,-20.8 -25.66,-33.95 -46.42,-32.4l-121.4 -198.17 135.17 -38.7 95.81 334.67z"/>
   <path class="fil24" d="M4055 3203.85c29.97,112.37 107.15,261.83 142.88,439.88 -108.59,-115.4 -469.55,117.01 -502.81,-15.83 -17.43,-69.6 38.71,-50.72 96.6,-108.23 19.4,-19.27 15.36,-84.74 25.09,-105.82 56.91,-123.3 91.54,-56.94 103.34,-99.54 37.55,-135.54 115.7,-182.47 134.91,-110.46z"/>
   <path class="fil24" d="M3739.26 3647.03c116.13,6.22 282.13,-21 462.5,0.05 -143.31,67.61 -33.82,482.73 -170.43,473.31 -71.58,-4.93 -36.28,-52.49 -73.08,-125.32 -12.34,-24.4 -75.85,-40.79 -92.89,-56.56 -99.67,-92.22 -25.86,-104.65 -62.73,-129.04 -117.31,-77.6 -137.79,-166.42 -63.37,-162.44z"/>
   <path class="fil24" d="M4063.19 4084.27c41.8,-108.52 67.21,-274.81 142.96,-439.85 20.02,157.19 448.65,181.34 397.48,308.35 -26.81,66.55 -61.13,18.28 -141.77,30.78 -27.02,4.19 -62.23,59.53 -82.49,70.86 -118.51,66.3 -107.53,-7.74 -142.12,19.79 -110.05,87.58 -200.86,79.61 -174.07,10.07z"/>
   <path class="fil24" d="M4579.12 3911.31c-90.3,-73.29 -240.59,-148.84 -374.15,-271.89 155.68,29.53 311.1,-370.66 416.09,-282.74 55.01,46.07 -1.51,63.79 -14.53,144.34 -4.37,26.99 37.38,77.58 41.9,100.35 26.43,133.2 -40.59,99.87 -25.1,141.27 49.29,131.73 13.65,215.63 -44.21,168.66z"/>
   <path class="fil24" d="M4574.06 3367.18c-97.6,63.23 -215.91,182.82 -374.2,271.81 76.2,-138.94 -256.38,-410.41 -140.33,-483.09 60.81,-38.09 60.2,21.14 132.79,58.42 24.32,12.49 85.34,-11.58 108.39,-8.84 134.85,16.02 82.44,69.47 126.6,67.53 140.52,-6.18 209.3,53.65 146.75,94.17z"/>
   <path class="fil24" d="M4055 3203.85c29.97,112.37 107.15,261.83 142.88,439.88 -108.59,-115.4 -469.55,117.01 -502.81,-15.83 -17.43,-69.6 38.71,-50.72 96.6,-108.23 19.4,-19.27 15.36,-84.74 25.09,-105.82 56.91,-123.3 91.54,-56.94 103.34,-99.54 37.55,-135.54 115.7,-182.47 134.91,-110.46z"/>
   <path class="fil1" d="M4032.1 3349.11c57.86,50.5 58.44,161.07 115.92,258.14 -93.44,-61.58 -217.78,11.07 -267.06,-17.42 -59.44,-34.37 63.79,-52.64 55.51,-87.19 -11.65,-48.63 16.93,-67.56 54.71,-68.59 60.93,-1.65 5.01,-116.29 40.92,-84.95z"/>
   <path class="fil1" d="M3870.34 3713.7c65.91,-39.42 171.25,-5.81 281.33,-30.48 -87.44,69.84 -56.76,210.54 -99.1,248.61 -51.06,45.91 -30.36,-76.93 -65.77,-79.73 -49.85,-3.95 -59.02,-36.99 -48.32,-73.23 17.26,-58.45 -109.05,-40.7 -68.14,-65.17z"/>
   <path class="fil1" d="M4167.09 3980.21c-17.12,-74.87 47.4,-164.66 57.95,-276.98 39.4,104.74 182.7,119.05 205.82,171.07 27.88,62.74 -82.55,5.1 -96.15,37.91 -19.16,46.19 -53.42,44.71 -84.58,23.33 -50.26,-34.48 -72.41,91.13 -83.04,44.67z"/>
   <path class="fil1" d="M4512.26 3780.33c-76.49,-6.85 -141.95,-95.96 -245.52,-140.71 111.79,-5.11 169.68,-136.96 226.3,-142.88 68.29,-7.13 -20.66,80.08 6.34,103.17 38.01,32.49 26.01,64.61 -3.95,87.64 -48.32,37.15 64.3,97.03 16.82,92.78z"/>
   <path class="fil1" d="M4428.83 3390.3c-30.15,70.63 -135.13,105.35 -209.69,190.02 29.69,-107.89 -77.83,-203.7 -65.96,-259.38 14.32,-67.15 69.78,44.4 100.08,25.85 42.65,-26.11 69.49,-4.77 82.14,30.84 20.39,57.44 112.14,-31.17 93.43,12.67z"/>
   <path class="fil1" d="M4032.1 3349.11c57.86,50.5 58.44,161.07 115.92,258.14 -93.44,-61.58 -217.78,11.07 -267.06,-17.42 -59.44,-34.37 63.79,-52.64 55.51,-87.19 -11.65,-48.63 16.93,-67.56 54.71,-68.59 60.93,-1.65 5.01,-116.29 40.92,-84.95z"/>
   <path class="fil2" d="M4060.01 3454.94c28.89,33.23 14.98,78.44 64.99,127.44 -63.35,-25.99 -167.4,-10.8 -181.64,-9.87 -43.73,2.86 52.76,-53.88 127.42,-37.8 -50.96,-94.82 -31.28,-103.37 -10.77,-79.78z"/>
   <path class="fil2" d="M3979.61 3719.86c40.53,-17.21 79.22,9.99 141.29,-22.42 -44.3,52.21 -62.01,155.87 -65.51,169.69 -10.8,42.48 -34.94,-66.83 3.43,-132.85 -105.93,19.17 -107.97,-2.2 -79.2,-14.42z"/>
   <path class="fil2" d="M4206.72 3878.19c-3.84,-43.86 33.98,-72.26 22.33,-141.3 35.97,58.27 129.09,107.14 141.15,114.74 37.06,23.4 -74.35,12.58 -125.29,-44.31 -14.51,106.67 -35.46,102.01 -38.18,70.87z"/>
   <path class="fil2" d="M4427.48 3711.12c-42.91,-9.9 -58.22,-54.65 -127.48,-64.9 66.53,-16.21 141.78,-89.66 152.74,-98.78 33.7,-28.01 -11.01,74.61 -80.86,105.47 96.96,46.76 86.06,65.24 55.6,58.21z"/>
   <path class="fil2" d="M4336.8 3449.54c-22.67,37.74 -69.97,38.49 -101.12,101.19 5.15,-68.28 -41.46,-162.55 -46.74,-175.79 -16.23,-40.71 67.55,33.53 75.32,109.5 74.43,-77.77 88.65,-61.69 72.54,-34.89z"/>
   <path class="fil2" d="M4060.01 3454.94c28.89,33.23 14.98,78.44 64.99,127.44 -63.35,-25.99 -167.4,-10.8 -181.64,-9.87 -43.73,2.86 52.76,-53.88 127.42,-37.8 -50.96,-94.82 -31.28,-103.37 -10.77,-79.78z"/>
   <path class="fil25" d="M4199.13 3638.02c-0.5,3.93 -0.33,8.36 -5.97,5.21 -43.36,-24.21 -96.64,-2.05 -96.75,-41.02 -0.03,-9.72 11.59,-4.56 15.3,-10.66 3.71,-6.1 -1.56,-23.44 4.61,-27.77 5.02,-3.52 20.33,2.37 21.19,-1.63 22.31,-104.72 59.5,65.45 61.63,75.87z"/>
   <path class="fil25" d="M4196.73 3644.13c3.58,1.69 7.85,2.9 3.11,7.29 -36.42,33.76 -31.82,91.28 -68.91,79.34 -9.25,-2.98 -0.75,-12.44 -5.41,-17.84 -4.66,-5.41 -22.78,-5.76 -24.99,-12.96 -1.8,-5.87 8.54,-18.61 4.99,-20.65 -92.7,-53.58 80.63,-36.37 91.21,-35.17z"/>
   <path class="fil25" d="M4201.79 3648.3c2.72,-2.88 5.18,-6.58 7.89,-0.71 20.85,45.07 76.98,58.47 54.16,90.06 -5.69,7.88 -12.06,-3.13 -18.64,-0.37 -6.59,2.76 -12.51,19.88 -20.05,19.76 -6.14,-0.1 -15.06,-13.87 -18.1,-11.13 -79.6,71.6 -9.67,-87.92 -5.26,-97.61z"/>
   <path class="fil25" d="M4207.32 3644.77c-1.9,-3.47 -4.65,-6.96 1.77,-7.73 49.31,-5.9 79.39,-55.14 102.39,-23.68 5.73,7.85 -6.7,10.5 -6.11,17.61 0.59,7.12 15.04,18.05 12.6,25.18 -2,5.8 -17.85,10.03 -16.18,13.78 43.5,97.83 -86.6,-17.97 -94.46,-25.16z"/>
   <path class="fil25" d="M4205.67 3638.42c-3.89,0.74 -8.06,2.28 -6.8,-4.07 9.63,-48.72 -27.91,-92.55 9.12,-104.69 9.23,-3.03 7.92,9.62 14.86,11.26 6.95,1.64 21.81,-8.73 27.84,-4.2 4.9,3.69 4.02,20.07 8.1,19.64 106.48,-11.14 -43.86,76.81 -53.12,82.06z"/>
   <path class="fil25" d="M4199.13 3638.02c-0.5,3.93 -0.33,8.36 -5.97,5.21 -43.36,-24.21 -96.64,-2.05 -96.75,-41.02 -0.03,-9.72 11.59,-4.56 15.3,-10.66 3.71,-6.1 -1.56,-23.44 4.61,-27.77 5.02,-3.52 20.33,2.37 21.19,-1.63 22.31,-104.72 59.5,65.45 61.63,75.87z"/>
   <path class="fil2" d="M4145.41 3572.9c4.49,11.52 9.04,20.05 17.63,37.74 -14.29,-12.87 -41.28,-13.86 -45.14,-14.96 -11.84,-3.39 12.88,-6.89 30.8,1.48 -11.23,-31.48 -6.49,-32.45 -3.29,-24.27z"/>
   <path class="fil2" d="M4118.19 3675.09c12.35,-0.71 21.86,-2.41 41.34,-5.1 -16.66,9.61 -25.94,34.98 -28.18,38.31 -6.88,10.21 -2.57,-14.38 10.93,-28.84 -33.42,0.95 -32.87,-3.86 -24.1,-4.37z"/>
   <path class="fil2" d="M4206.96 3732.56c3.13,-11.97 4.46,-21.54 7.92,-40.9 3.99,18.82 25.26,35.48 27.73,38.64 7.59,9.7 -14.47,-2 -24.05,-19.31 -9.42,32.07 -13.83,30.07 -11.6,21.57z"/>
   <path class="fil2" d="M4289.05 3665.89c-10.41,-6.68 -19.1,-10.9 -36.45,-20.17 19.13,2.01 41.55,-13.06 45.31,-14.43 11.57,-4.22 -6.37,13.15 -25.8,16.9 27.6,18.87 24.32,22.44 16.93,17.7z"/>
   <path class="fil2" d="M4251.01 3567.22c-9.57,7.83 -16.27,14.8 -30.45,28.43 7.83,-17.57 0.42,-43.55 0.28,-47.55 -0.44,-12.31 10.53,10.12 8.1,29.75 26.47,-20.41 28.86,-16.19 22.06,-10.63z"/>
   <path class="fil2" d="M4145.41 3572.9c4.49,11.52 9.04,20.05 17.63,37.74 -14.29,-12.87 -41.28,-13.86 -45.14,-14.96 -11.84,-3.39 12.88,-6.89 30.8,1.48 -11.23,-31.48 -6.49,-32.45 -3.29,-24.27z"/>
   <path class="fil2" d="M4145.41 3572.9c4.49,11.52 32.69,25.91 36.55,49.17 -14.29,-12.88 -60.2,-25.29 -64.05,-26.39 -11.84,-3.39 16.81,-8.92 34.73,-0.54 -11.23,-31.48 -10.41,-30.42 -7.22,-22.25z"/>
   <path class="fil2" d="M4118.19 3675.09c12.35,-0.71 34.75,-23.08 58.06,-19.56 -16.66,9.61 -42.65,49.44 -44.89,52.76 -6.88,10.21 -3.29,-18.74 10.22,-33.2 -33.42,0.96 -32.15,0.5 -23.39,-0z"/>
   <path class="fil2" d="M4206.96 3732.56c3.14,-11.97 -11.21,-40.17 -0.67,-61.26 3.99,18.82 33.85,55.85 36.31,59 7.59,9.69 -18.84,-2.67 -28.41,-19.98 -9.42,32.08 -9.46,30.73 -7.23,22.24z"/>
   <path class="fil2" d="M4289.05 3665.89c-10.41,-6.68 -41.67,-1.75 -58.47,-18.3 19.13,2.01 63.57,-14.93 67.33,-16.3 11.57,-4.22 -8.36,17.09 -27.78,20.85 27.6,18.87 26.3,18.5 18.92,13.75z"/>
   <path class="fil2" d="M4251.01 3567.21c-9.57,7.83 -14.54,39.09 -35.47,49.95 7.83,-17.57 5.44,-65.07 5.3,-69.07 -0.44,-12.3 13.67,13.23 11.24,32.86 26.47,-20.42 25.72,-19.3 18.92,-13.74z"/>
   <path class="fil2" d="M4145.41 3572.9c4.49,11.52 32.69,25.91 36.55,49.17 -14.29,-12.88 -60.2,-25.29 -64.05,-26.39 -11.84,-3.39 16.81,-8.92 34.73,-0.54 -11.23,-31.48 -10.41,-30.42 -7.22,-22.25z"/>
  </g>
  <g id="_2482580179120">
   <path class="fil26" d="M2372.69 540.21c-79.5,-196.47 9,-460.01 -84.36,-280.45 -162,311.55 2.11,821.09 215.21,1087.65 -38.53,-629.77 38.35,-389.04 -130.85,-807.19z"/>
   <path class="fil26" d="M2843.39 736.36c479.73,-720.8 -922.9,-948.23 -523.21,-521.95 269.98,287.94 34.62,920.19 183.37,1133 41.04,-293.66 302.83,-555.44 339.84,-611.04z"/>
   <path class="fil27" d="M2406.07 331.42c-164.35,-451.89 -32.54,393.15 -10.63,478.49 48.37,188.47 -37.19,277.82 86.05,461.91 -37.84,-138.35 77.41,-520.2 -75.42,-940.4z"/>
   <path class="fil17" d="M2438.24 2194.64c211.9,-567.08 -3.78,-874.87 -95.51,-1106.82 106.88,100.38 114.05,176.9 156.89,243.3 2.42,-131.74 69.85,-268.69 143.36,-393.43 -18.09,133.98 -69.49,274.27 -46.79,479.93 25.41,230.18 13.18,513.38 -91.96,858.68l-66 -81.65z"/>
   <path class="fil28" d="M2706.64 718.75c71.54,-287.63 143.63,-335.86 -4.33,-529.93 180.94,117.78 90.98,250.79 4.33,529.93z"/>
   <path class="fil28" d="M2540.08 999.09c68.68,-571.72 170.12,-648.09 -57.03,-860.83 270.43,175.45 144.68,227.94 57.03,860.83z"/>
   <path class="fil28" d="M2599.99 885.35c82.38,-424.01 194.96,-530.97 -13.97,-741.25 261.93,193.85 117.03,310.44 13.97,741.25z"/>
   <path class="fil28" d="M2490.53 1058.09c86.81,-475.55 94.7,-739.45 -88.27,-893.11 222.75,101.36 177.45,405.29 88.27,893.11z"/>
   <path class="fil29" d="M2441.49 920.08c-3.75,103.51 -14.21,163.47 30.4,280.7 -38.07,-284.19 118.01,-383.43 84.86,-469.23 -26.59,-68.83 -112.91,123.55 -115.26,188.53z"/>
  </g>
  <g id="_2482580184976">
   <path class="fil30" d="M2539.48 1987.68c92.2,-217.67 11.94,-404.91 112.82,-203 175.04,350.36 -30.83,807.39 -273.3,1100.81 54.33,-701.62 -35.75,-434.55 160.48,-897.81z"/>
   <path class="fil31" d="M1930 2261.33c-521.99,-812.48 1134.24,-966.7 680.82,-498.53 -306.26,316.23 -62.11,888.05 -231.83,1122.69 -40.48,-328.23 -408.74,-561.49 -448.99,-624.16z"/>
   <path class="fil32" d="M2449.16 1931.75c313.86,-586.62 100.74,178.8 60.09,356.28 -48.46,211.54 14.48,320.22 -102.38,529.8 44.69,-153.6 -192.96,-446.36 42.29,-886.08z"/>
   <path class="fil17" d="M2670.52 3992.39c-429.59,-766.47 -150.14,-1085.9 -69.96,-1438.95 -124.07,148.91 -142.79,190.98 -189.53,295.72 -32.66,-188.43 -143.77,-270.85 -307.77,-411.3 55.64,188.16 193.78,344.78 206.79,644.8 14.56,335.8 56.57,569.46 283.89,1041.47l76.58 -131.75z"/>
   <path class="fil5" d="M2160.01 2317.76c-42.56,-267.02 -234.38,-423.05 -68.56,-600.21 -203.91,128.1 -23.04,287.36 68.56,600.21z"/>
   <path class="fil5" d="M2344.54 2496.39c-66.28,-638.82 -172.92,-663.7 84.23,-896.86 -304.74,190.78 -170.57,189.48 -84.23,896.86z"/>
   <path class="fil5" d="M2037.75 2223.48c-75.87,-224.25 -144.01,-247.56 -73.13,-395.1 -102.12,116.06 -46.54,175.4 73.13,395.1z"/>
   <path class="fil5" d="M2279.77 2368.47c-56.87,-427.31 -268.8,-501.71 -32.02,-732.45 -295.6,211.46 -33.48,335.53 32.02,732.45z"/>
   <path class="fil5" d="M2398.73 2563.08c-88.23,-531.89 -55.72,-746.59 151.1,-914.66 -250.24,109.02 -241.76,369.04 -151.1,914.66z"/>
   <path class="fil1" d="M2433.93 2306.8c2.31,115.5 2.93,278.93 -18,437.22 -50.82,-226.77 -199.29,-388.91 -85.16,-546.28 49.88,-68.78 101.71,36.56 103.16,109.06z"/>
  </g>
  <g id="_2482580183296">
   <path class="fil23" d="M1757.24 4450.42c108.65,-98.87 556.27,-120.26 398.59,-168.9 -155.61,-48.01 -203.48,-95.74 -20.35,-126.9 308.8,-52.53 561.57,13.38 714.37,286.83 -610.17,-128.69 -776.15,539.45 -973.87,259.25 -77.69,-110.11 128.96,19.07 180.92,-195.46 17,-70.21 -464.05,94.79 -299.66,-54.81z"/>
   <path class="fil23" d="M2007.09 3746c146.79,-5.9 503.43,265.44 413.9,126.82 -88.34,-136.8 -94.34,-204.14 65.98,-110.29 270.32,158.25 421.59,371.21 362.87,678.91 -384.7,-490.79 -941.32,-85.65 -912.66,-427.4 11.26,-134.29 86.53,97.5 264.23,-33.43 58.15,-42.85 -416.41,-225.68 -194.32,-234.61z"/>
   <path class="fil23" d="M2651.28 3366.99c116.24,89.83 215.03,526.94 235.55,363.2 20.26,-161.57 58.95,-217.01 121.44,-42.08 105.36,294.99 84.34,555.36 -158.42,753.32 20.77,-623.25 -666.04,-670.68 -424.42,-914.05 94.95,-95.63 3.61,130.31 223.9,144.23 72.09,4.55 -173.93,-440.54 1.95,-304.63z"/>
   <path class="fil23" d="M3388.38 3490.73c31.3,143.53 -173.99,541.87 -53.02,429.64 119.38,-110.76 184.65,-128.36 120.07,45.83 -108.9,293.69 -292.36,479.64 -605.58,475.25 416.53,-464.08 -79.11,-941.89 262.42,-973.02 134.21,-12.23 -80.99,102.15 78.81,254.4 52.3,49.82 149.94,-449.27 197.3,-232.11z"/>
   <path class="fil23" d="M3873.5 4059.31c-68.29,130.07 -481.6,303.26 -316.79,295.05 162.64,-8.11 223.96,20.37 62.53,112.28 -272.21,154.98 -532.27,179.5 -769.39,-25.2 617.39,-87.76 544.84,-772.38 826.47,-576.69 110.67,76.9 -127.7,26.19 -103.16,245.54 8.04,71.79 403.65,-247.78 300.34,-50.98z"/>
   <path class="fil23" d="M3879.63 4806.7c-135.92,55.75 -563.85,-77.25 -432.32,22.39 129.8,98.33 158.47,159.56 -24.28,126.2 -308.14,-56.25 -523.12,-204.63 -573.19,-513.86 529.36,329.62 913.85,-241.46 1003.8,89.47 35.35,130.04 -114.66,-62.02 -236.85,121.79 -39.99,60.16 468.48,69.65 262.84,154z"/>
   <path class="fil23" d="M3403.92 5383.19c-139.95,-44.66 -382.28,-421.62 -345.57,-260.74 36.23,158.76 18.83,224.09 -99.72,81.07 -199.9,-241.16 -269.2,-493.02 -108.79,-762.07 193.64,592.77 855.26,402.43 711.45,713.77 -56.51,122.34 -47.96,-121.21 -259.73,-58.95 -69.3,20.38 314.11,354.49 102.36,286.92z"/>
   <path class="fil23" d="M2668.96 5519.01c-78.51,-124.17 -21.83,-568.71 -97.12,-421.86 -74.3,144.91 -129.62,183.77 -128.51,-2 1.89,-313.23 110.69,-550.71 406.52,-653.71 -232.69,578.55 396.48,858.03 86.19,1004.09 -121.93,57.39 41.17,-123.69 -161.07,-212.11 -66.19,-28.93 12.76,473.46 -106.02,285.59z"/>
   <path class="fil23" d="M2018.63 5150.64c19.68,-145.59 348.83,-449.69 196.77,-385.6 -150.06,63.25 -217.42,57.46 -97.16,-84.13 202.78,-238.73 438.78,-350.72 731.6,-239.47 -550.14,293.63 -247.81,912.15 -579.38,824.58 -130.3,-34.41 111.05,-68.29 12.95,-266.02 -32.1,-64.71 -294.56,370.9 -264.79,150.63z"/>
   <path class="fil21" d="M1949.14 4405.14c78.97,-45.18 523.14,-97.45 465.26,-117.87 -112.87,-39.84 -247.56,-117.43 -127.96,-88.97 193.14,45.95 466.55,69.82 563.41,243.15 -439.74,-336.92 -856.66,400.77 -791.32,239.8 54.18,-133.45 121.34,-154.93 218.34,-249.75 139.1,-135.97 -505.6,75.43 -327.73,-26.35z"/>
   <path class="fil21" d="M2183.2 3834.68c89.53,16.14 463.39,261.61 432.18,208.76 -60.85,-103.07 -114.17,-249.09 -40.84,-150.41 118.42,159.36 312.52,353.38 275.3,548.41 -120.29,-540.75 -913.85,-243.65 -760.32,-324.95 127.28,-67.41 192.54,-40.69 327.8,-50.97 193.96,-14.74 -435.8,-267.22 -234.12,-230.84z"/>
   <path class="fil21" d="M2729.19 3548.12c58.21,69.92 186.81,498.26 196.88,437.72 19.63,-118.07 72.65,-264.2 65.4,-141.47 -11.72,198.19 12.25,471.59 -141.62,597.07 255.44,-491.56 -543.44,-774.05 -373.56,-737.65 140.83,30.18 173.65,92.59 283.87,171.66 158.06,113.38 -162.08,-484.83 -30.97,-327.33z"/>
   <path class="fil21" d="M3331.63 3679.57c-0.35,90.98 -177.17,501.77 -130.55,461.86 90.93,-77.83 225.48,-155.69 141.04,-66.34 -136.37,144.29 -293.75,369.13 -492.28,366.35 511.65,-212.37 81.26,-942.28 187.99,-805.2 88.49,113.65 73.51,182.55 107.12,313.97 48.19,188.45 187.48,-475.58 186.68,-270.65z"/>
   <path class="fil21" d="M3708.64 4167.5c-58.75,69.47 -458.25,270.5 -396.88,269.9 119.68,-1.17 272.8,25.67 150.67,39.84 -197.21,22.87 -462.3,93.96 -612.59,-35.79 528.45,166.21 667.93,-669.59 661.58,-495.98 -5.26,143.93 -61.03,187.09 -119.76,309.37 -84.21,175.34 449.32,-243.81 316.97,-87.33z"/>
   <path class="fil21" d="M3683.81 4783.61c-89.66,15.45 -524.91,-87.35 -477.51,-48.36 92.43,76.04 192.47,195.02 89.82,127.37 -165.78,-109.24 -414.54,-225.19 -446.27,-421.18 297.98,467 942.07,-83.6 825.61,45.31 -96.55,106.88 -167.01,104.09 -290.6,160.01 -177.22,80.19 500.91,102.05 298.95,136.85z"/>
   <path class="fil21" d="M3268.76 5239.62c-78.61,-45.8 -345.96,-404.32 -334.71,-343.99 21.93,117.66 22.09,273.11 -13.07,155.31 -56.77,-190.25 -172.8,-438.96 -71.13,-609.5 -71.91,549.28 775.41,541.51 603.33,565.4 -142.66,19.81 -194.85,-27.62 -325.46,-64.21 -187.3,-52.48 318.12,400.15 141.04,297z"/>
   <path class="fil21" d="M2657.69 5322.16c-30.79,-85.61 -5.13,-532.11 -35.3,-478.66 -58.83,104.24 -158.63,223.42 -109.84,110.57 78.8,-182.23 149.78,-447.34 337.29,-512.62 -408.16,374.55 245.92,913.24 98.75,820.93 -122.02,-76.53 -131.51,-146.4 -208.04,-258.4 -109.75,-160.6 -13.52,511.02 -82.86,318.18z"/>
   <path class="fil21" d="M2136.54 4992.59c31.45,-85.37 338.1,-410.91 280.64,-389.36 -112.07,42.03 -265.13,69.18 -155.22,14.1 177.5,-88.95 402.28,-246.41 587.89,-175.89 -553.42,24.56 -398.63,857.66 -452.04,692.34 -44.28,-137.06 -6.64,-196.68 6.73,-331.67 19.16,-193.57 -338.84,382.78 -267.99,190.47z"/>
   <path class="fil21" d="M1949.14 4405.14c78.97,-45.18 523.14,-97.45 465.26,-117.87 -112.87,-39.84 -247.56,-117.43 -127.96,-88.97 193.14,45.95 466.55,69.82 563.41,243.15 -439.74,-336.92 -856.66,400.77 -791.32,239.8 54.18,-133.45 121.34,-154.93 218.34,-249.75 139.1,-135.97 -505.6,75.43 -327.73,-26.35z"/>
   <path class="fil22" d="M2484.5 4270.75c48.25,-5.76 173.99,34.53 153.87,12.52 -31.03,-33.95 -105.23,-71.27 -47.1,-57.44 93.88,22.34 211.51,131.38 258.58,215.62 -213.73,-163.76 -402.12,-20.52 -482.8,-45.4 -36.44,-11.24 111.84,-62 183.26,-69.2 94.06,-9.49 -142.09,-46.98 -65.81,-56.1z"/>
   <path class="fil22" d="M2679.7 4075.84c40.67,26.6 111.09,138.29 109.83,108.5 -1.95,-45.96 -34.8,-122.24 0.83,-74.28 57.56,77.45 77.58,236.59 59.49,331.39 -58.47,-262.84 -294.85,-274.19 -340.67,-345.12 -20.69,-32.03 125.52,24.4 184.87,64.79 78.16,53.19 -78.65,-127.32 -14.35,-85.27z"/>
   <path class="fil22" d="M2954.51 4052.01c14.06,46.51 -3.79,177.34 14.39,153.7 28.04,-36.46 51.91,-116.01 48.38,-56.36 -5.69,96.33 -92.65,231.1 -167.44,292.09 124.16,-238.92 -49.62,-399.57 -39.13,-483.35 4.74,-37.84 80.47,99.37 99.97,168.46 25.68,90.98 21.59,-148.09 43.82,-74.55z"/>
   <path class="fil22" d="M3180.35 4210.39c-19.13,44.67 -116.9,133.41 -87.78,127 44.92,-9.9 114.34,-55.5 73.3,-12.08 -66.28,70.13 -219.52,117.49 -316.02,116.13 248.69,-103.22 218.83,-337.99 280.72,-395.43 27.96,-25.94 -2.22,127.85 -31.7,193.31 -38.81,86.21 111.73,-99.57 81.49,-28.94z"/>
   <path class="fil22" d="M3251.54 4476.89c-43.36,21.92 -175.31,27.06 -148.87,40.87 40.77,21.29 123.26,30.98 63.91,37.86 -95.86,11.12 -243.68,-51.11 -316.74,-114.18 256.86,80.79 384.88,-118.25 469.22,-122.47 38.09,-1.9 -83.89,96.51 -148.54,127.71 -85.14,41.09 149.59,-4.45 81.02,30.2z"/>
   <path class="fil22" d="M3134.77 4726.8c-47.31,-11.08 -151.68,-91.96 -140.31,-64.39 17.55,42.52 74.51,102.96 24.62,70.09 -80.58,-53.1 -153.82,-195.79 -169.24,-291.06 144.84,226.99 370.85,156.81 438.16,207.79 30.4,23.03 -126.29,20.01 -195.88,2.35 -91.64,-23.25 117.45,92.75 42.65,75.22z"/>
   <path class="fil22" d="M2884.69 4843.19c-29.12,-38.9 -57.09,-167.95 -66.1,-139.51 -13.89,43.85 -9.1,126.77 -26.19,69.51 -27.6,-92.47 8.02,-248.85 57.44,-331.75 -34.95,266.98 183.29,358.5 202.09,440.82 8.48,37.18 -109.61,-65.85 -151.56,-124.11 -55.25,-76.72 30.36,146.54 -15.68,85.04z"/>
   <path class="fil22" d="M2618.3 4771.6c2.7,-48.52 64.22,-165.35 39.04,-149.36 -38.82,24.66 -88.46,91.26 -64.74,36.41 38.3,-88.57 166.1,-185.48 257.25,-217.21 -198.39,182.05 -90.04,392.44 -128.55,467.58 -17.4,33.94 -41.63,-120.9 -36.33,-192.5 6.99,-94.28 -70.94,131.78 -66.67,55.07z"/>
   <path class="fil22" d="M2460.25 4545.52c33.25,-35.43 155.48,-85.39 125.91,-89.32 -45.59,-6.06 -126.42,13.05 -73,-13.72 86.27,-43.23 246.47,-35.31 336.68,-1.04 -269,11.94 -321.23,242.76 -399.03,275.56 -35.14,14.81 45.82,-119.38 95.91,-170.81 65.95,-67.73 -139.05,55.35 -86.47,-0.67z"/>
   <path class="fil22" d="M2484.5 4270.75c48.25,-5.76 173.99,34.53 153.87,12.52 -31.03,-33.95 -105.23,-71.27 -47.1,-57.44 93.88,22.34 211.51,131.38 258.58,215.62 -213.73,-163.76 -402.12,-20.52 -482.8,-45.4 -36.44,-11.24 111.84,-62 183.26,-69.2 94.06,-9.49 -142.09,-46.98 -65.81,-56.1z"/>
  </g>
 </g>
</svg>
