<?xml version="1.0" encoding="UTF-8"?>
<!DOCTYPE svg PUBLIC "-//W3C//DTD SVG 1.1//EN" "http://www.w3.org/Graphics/SVG/1.1/DTD/svg11.dtd">
<!-- Creator: CorelDRAW 2020 (64-Bit) -->
<svg xmlns="http://www.w3.org/2000/svg" xml:space="preserve" width="176.053mm" height="181.554mm" version="1.1" style="shape-rendering:geometricPrecision; text-rendering:geometricPrecision; image-rendering:optimizeQuality; fill-rule:evenodd; clip-rule:evenodd"
viewBox="0 0 11135.66 11483.65"
 xmlns:xlink="http://www.w3.org/1999/xlink"
 xmlns:xodm="http://www.corel.com/coreldraw/odm/2003">
 <defs>
  <style type="text/css">
   <![CDATA[
    .str2 {stroke:#898989;stroke-width:53.56;stroke-miterlimit:22.9256}
    .str0 {stroke:#B9A11C;stroke-width:53.56;stroke-miterlimit:22.9256}
    .str4 {stroke:#2B2A29;stroke-width:21.42;stroke-miterlimit:22.9256}
    .str3 {stroke:#2B2A29;stroke-width:26.77;stroke-miterlimit:22.9256}
    .str1 {stroke:#F08219;stroke-width:16.06;stroke-miterlimit:22.9256}
    .fil10 {fill:none}
    .fil6 {fill:#FEFEFE}
    .fil8 {fill:#2B2A29}
    .fil2 {fill:#2B2A29}
    .fil5 {fill:#FFED00}
    .fil3 {fill:#FECD27}
    .fil9 {fill:#E31E24}
    .fil4 {fill:#E31E24}
    .fil1 {fill:#00A2D9}
    .fil0 {fill:#E6E6E6}
    .fil7 {fill:#B9A11C;fill-rule:nonzero}
    .fil11 {fill:white;fill-rule:nonzero}
   ]]>
  </style>
 </defs>
 <g id="Layer_x0020_1">
  <metadata id="CorelCorpID_0Corel-Layer"/>
  <rect class="fil0" x="-0.01" y="0" width="11135.67" height="11483.65"/>
  <g id="_2482662913680">
   <g>
    <path class="fil1" d="M4270.57 4547.82c599.25,-953.68 2013.96,-953.68 2613.21,0 599.25,953.67 599.25,3205.13 0,4158.81 -599.25,953.68 -2013.96,953.68 -2613.21,0 -599.25,-953.67 -599.25,-3205.13 0,-4158.81z"/>
    <path id="1" class="fil2" d="M4270.57 4547.82c599.25,-953.68 2013.96,-953.68 2613.21,0 599.25,953.67 599.25,3205.13 0,4158.81 -599.25,953.68 -2013.96,953.68 -2613.21,0 -599.25,-953.67 -599.25,-3205.13 0,-4158.81zm505.64 -433.81c-178.93,112.42 -337.46,266.52 -460.45,462.26 -294.04,467.95 -441.07,1258.56 -441.07,2050.96 0,792.39 147.03,1583 441.07,2050.95 122.99,195.74 281.53,349.83 460.45,462.26 241.78,151.92 521.26,227.9 800.97,227.9 279.71,0 559.18,-75.97 800.96,-227.9 178.93,-112.42 337.46,-266.52 460.45,-462.26 294.04,-467.95 441.07,-1258.56 441.07,-2050.95 0,-792.39 -147.03,-1583.01 -441.07,-2050.96 -122.99,-195.74 -281.53,-349.83 -460.45,-462.26 -241.78,-151.92 -521.25,-227.9 -800.97,-227.9 -279.71,0 -559.18,75.97 -800.96,227.9z"/>
   </g>
   <g>
    <path class="fil1" d="M5600.89 9966.62c628.46,0 1878.91,99.28 1632.03,-594.44 63.14,267.75 345.37,243.46 312.26,483.66 -130.76,948.01 -881.33,954.55 -1944.28,954.55 -1062.95,0 -1813.52,-6.55 -1944.28,-954.55 -33.12,-240.21 249.11,-215.91 312.26,-483.66 -246.88,693.72 1003.57,594.44 1632.03,594.44z"/>
    <path id="1" class="fil2" d="M7248.8 9423.24c-4.36,-16.52 -9.64,-33.53 -15.88,-51.05 4.32,18.32 9.67,35.28 15.88,51.05zm0 0c84.42,214.61 327.23,208.85 296.38,432.61 -130.76,948.01 -881.33,954.55 -1944.28,954.55 -1062.95,0 -1813.52,-6.55 -1944.28,-954.55 -30.85,-223.77 211.96,-218 296.38,-432.61 -168.25,637.71 1035.31,543.38 1647.9,543.38 612.59,0 1816.15,94.33 1647.9,-543.38zm-3295.8 0c6.21,-15.77 11.56,-32.73 15.88,-51.05 -6.24,17.52 -11.51,34.53 -15.88,51.05zm1862.36 598.96c-69.68,-1.04 -135.26,-2.02 -214.46,-2.02 -79.05,0 -144.76,0.99 -214.46,2.03 -377.14,5.64 -858.41,12.85 -1169.52,-97.88 -179.47,-63.87 -304.69,-164.04 -330.18,-319.9 -22.01,19.52 -44.69,36.96 -66.67,53.87 -65.87,50.66 -123.66,95.1 -110.52,190.43 62.08,450.12 269.92,676.25 587.42,789.48 328.17,117.04 777.32,118.64 1303.93,118.64 526.6,0 975.76,-1.6 1303.93,-118.64 317.49,-113.23 525.33,-339.36 587.42,-789.48 13.14,-95.33 -44.65,-139.77 -110.52,-190.43 -21.99,-16.91 -44.66,-34.35 -66.67,-53.87 -25.49,155.86 -150.7,256.02 -330.18,319.9 -311.11,110.72 -792.38,103.52 -1169.52,97.87z"/>
   </g>
   <g>
    <path class="fil3" d="M7138.95 8998.02c27.19,-111.32 -250.82,93.23 -179.24,328.87 40.42,133.05 537.28,292.33 574.18,516.81 22,-112.39 18.22,-271.36 -147.89,-448.2 -136.12,-144.92 -293.33,-208.03 -247.05,-397.48z"/>
    <path id="1" class="fil2" d="M7138.95 8998.02c27.19,-111.32 -250.82,93.23 -179.24,328.87 40.42,133.05 537.28,292.33 574.18,516.81 22,-112.39 18.22,-271.36 -147.89,-448.2 -136.12,-144.92 -293.33,-208.03 -247.05,-397.48zm-62.45 65.31c-49.39,55.57 -95.78,149.22 -65.74,248.08 11.21,36.89 101.77,92.84 203.65,155.78 91.27,56.38 190.39,117.62 263.8,188.02 -17.17,-67.59 -55.76,-142.85 -131.13,-223.09 -32.48,-34.59 -66.19,-64.32 -97.84,-92.25 -94.95,-83.77 -174.37,-153.87 -172.75,-276.54z"/>
   </g>
   <g>
    <path class="fil3" d="M8392.99 10637.71c198.6,218.65 318.79,-316.58 695.66,-528.99 311.69,-175.66 852.39,100.49 839.6,-608.58 41.86,335.45 146.71,485.22 146.71,736.42 5.35,299.02 -479.51,142.07 -771.84,362.12 -241.86,182.05 -322.78,643.14 -556.11,420.68 -108.34,-103.27 -291,-88.31 -354.01,-381.64z"/>
    <path id="1" class="fil2" d="M8392.99 10637.71c198.6,218.65 318.79,-316.58 695.66,-528.99 311.69,-175.66 852.39,100.49 839.6,-608.58 41.86,335.45 146.71,485.22 146.71,736.42 5.35,299.02 -479.51,142.07 -771.84,362.12 -241.86,182.05 -322.78,643.14 -556.11,420.68 -108.34,-103.27 -291,-88.31 -354.01,-381.64zm222.7 45.11c-43.4,39.42 -85.5,63.14 -128.6,63.88 46.05,86.93 111.61,121.17 173.28,153.36 43.8,22.86 86.02,44.91 123.46,80.58 62.83,59.91 108.46,47.35 150.67,3.07 34.68,-36.37 70.05,-91.2 107.93,-149.91 63.04,-97.71 132.53,-205.44 228.69,-277.81 137.85,-103.76 307.89,-129.32 457.55,-151.8 161.93,-24.33 295.15,-44.35 292.96,-166.8l-0.21 -0.83c0,-127.25 -29.11,-229.3 -62.37,-345.86 -6.82,-23.92 -13.81,-48.41 -20.77,-73.84 -87.79,231.31 -295.84,249.85 -508.57,268.74 -112.66,10 -226.85,20.15 -314.9,69.77 -154.93,87.33 -266.75,236.54 -358.21,358.58 -50.92,67.95 -95.97,128.05 -140.9,168.87z"/>
   </g>
   <g>
    <path class="fil1" d="M6966.94 9331.95c-10.51,-68.77 -7.86,-154.34 45.32,-211.94 59.81,-64.75 192.61,-82.26 385.05,30.65 415.44,243.68 1032.08,693.59 1338.27,783.96 570.54,168.43 1200.5,-347.85 1314.76,303.32 63.14,-347.73 372.39,-533.89 299.97,-778.21 -137.79,-464.72 -980.82,-33.61 -1535.8,-208.05 -287.95,-90.49 -719.36,-485.65 -1067.29,-659.25 -154.95,-77.29 -323.65,-69.84 -404.85,-28.09 -66.66,237.18 -510.51,495.34 -375.44,767.63z"/>
    <path id="1" class="fil2" d="M6966.94 9331.95c-10.51,-68.77 -7.86,-154.34 45.32,-211.94 59.81,-64.75 192.61,-82.26 385.05,30.65 415.44,243.68 1032.08,693.59 1338.27,783.96 570.54,168.43 1200.5,-347.85 1314.76,303.32 63.14,-347.73 372.39,-533.89 299.97,-778.21 -137.79,-464.72 -980.82,-33.61 -1535.8,-208.05 -287.95,-90.49 -719.36,-485.65 -1067.29,-659.25 -154.95,-77.29 -323.65,-69.84 -404.85,-28.09 -66.66,237.18 -510.51,495.34 -375.44,767.63zm112.53 -308.99c28.5,-6.97 60.6,-9.56 96.08,-6.74 69.17,5.5 152.75,32.09 248.75,88.41 137.51,80.66 292.85,181.01 451.86,283.74 329.54,212.89 675.09,436.13 874.48,494.98 207.37,61.21 428.57,26.11 626.73,-5.33 301.3,-47.81 554.98,-88.03 674.27,174.56 38.09,-88.62 87.42,-165.92 133.49,-238.11 78.64,-123.22 146.55,-229.62 113.93,-339.7 -68.2,-230.05 -371.88,-196.12 -714.81,-157.81 -262.52,29.33 -546.17,61.01 -785.64,-14.26 -168.09,-52.83 -375.73,-199.54 -588.8,-350.09 -165.9,-117.21 -335.2,-236.85 -486.43,-312.3 -64.42,-32.14 -131.33,-48.1 -191.89,-52.3 -58.35,-4.04 -109.55,2.47 -145.76,15.64 -33.96,92.06 -110.22,181.4 -188.46,273.05 -41.2,48.25 -83.02,97.25 -117.8,146.26z"/>
   </g>
   <path class="fil2" d="M5682.97 2687.31c-6.91,-146.19 0.89,-301.47 11.73,-459.68 22.95,-335.7 -2.68,-739.88 21.91,-1040.58 8.23,-101.39 48.53,-173.78 132.9,-230.12 85.47,-57.36 117.58,-169.25 40.19,-238.46 -35.89,-32.46 -167.05,-53.35 -207.11,5.52 -32.1,51 -15.8,141.53 -48.31,133.09 -38.74,-10.08 8.01,-86.35 6.67,-140.68 -5.68,-221.67 -364.73,-100.96 -290.89,31.26 26.74,47.9 82.77,87.78 59.32,103.39 -22.18,14.81 -41.3,-33.44 -87.87,-90.49 -56.59,-69.42 -195.28,-84.66 -234.29,14.16 -101.67,256.95 241.02,281.93 240.29,437.77 -1.34,272.98 -11.71,603.42 -119.03,941.86 -58.1,182.63 -73.6,361.23 -75.3,532.97l44.74 0c20.42,-29.17 48.96,-55.12 88.45,-69.25 92.68,-33.13 215.73,9.62 238.55,69.25l178.02 0zm-231.95 0c-44.49,-22.65 -109.07,-50.15 -172.8,-24.78 -14.24,5.67 -27.29,14.23 -39.15,24.78l211.96 0z"/>
   <path class="fil4" d="M5827.54 794.04c40.82,-47.88 73.74,-118.09 76.57,-192.1 2.54,-65.5 -19.47,-124.38 -43.19,-133.82 -1.36,-0.52 -6.46,7.77 -5.26,21.37 9.82,110.48 -22.65,146.36 -99.35,234.7 -56.33,64.88 17.59,132.77 71.23,69.85z"/>
   <path class="fil4" d="M5521.98 677.21c5.69,-59.98 -12.43,-132.87 -62.82,-191.9 -44.58,-52.25 -108.49,-85.64 -138.57,-79.7 -1.7,0.35 -0.76,9.65 10.19,19.52 89.03,80.26 82.9,126.26 71.06,237.7 -8.72,81.86 112.67,93.21 120.15,14.38z"/>
   <path class="fil4" d="M5181.1 766.11c-32.95,-44.16 -87.86,-83.55 -153.54,-95.1 -58.12,-10.24 -116.29,3.38 -130.56,24.57 -0.8,1.21 5.38,7 17.86,7.51 101.49,4.02 125.72,38.89 186.19,121.65 44.4,60.79 123.36,-0.6 80.05,-58.63z"/>
   <g>
    <path class="fil3" d="M2798.97 10627.89c-198.59,218.64 -318.79,-316.59 -695.66,-529 -311.68,-175.66 -852.39,100.49 -839.59,-608.58 -41.87,335.45 -146.72,485.22 -146.72,736.42 -5.34,299.02 479.51,142.08 771.85,362.12 241.86,182.05 322.78,643.15 556.1,420.68 108.34,-103.26 291,-88.3 354.01,-381.63z"/>
    <path id="1" class="fil2" d="M2704.89 10736.87c-43.11,-0.73 -85.21,-24.45 -128.6,-63.87 -44.93,-40.82 -89.98,-100.92 -140.9,-168.87 -91.46,-122.04 -203.28,-271.26 -358.21,-358.59 -88.05,-49.62 -202.24,-59.77 -314.9,-69.77 -212.74,-18.9 -420.77,-37.43 -508.56,-268.74 -6.96,25.43 -13.95,49.92 -20.77,73.83 -33.26,116.57 -62.37,218.6 -62.37,345.86l-0.21 0.83c-2.18,122.45 131.03,142.47 292.97,166.81 149.65,22.48 319.69,48.04 457.54,151.8 96.14,72.37 165.65,180.1 228.68,277.81 37.88,58.72 73.25,113.55 107.93,149.92 42.21,44.28 87.84,56.83 150.67,-3.08 37.43,-35.67 79.65,-57.72 123.46,-80.58 61.67,-32.19 127.24,-66.43 173.29,-153.37zm94.09 -108.98c-198.59,218.64 -318.79,-316.59 -695.66,-529 -311.68,-175.66 -852.39,100.49 -839.59,-608.58 -41.87,335.45 -146.72,485.22 -146.72,736.42 -5.34,299.02 479.51,142.08 771.85,362.12 241.86,182.05 322.78,643.15 556.1,420.68 108.34,-103.26 291,-88.3 354.01,-381.63z"/>
   </g>
   <g>
    <path class="fil3" d="M4051.38 9014.39c-27.19,-111.32 244.27,116.14 172.69,351.78 -40.42,133.06 -530.73,269.41 -567.63,493.9 -22,-112.39 -18.22,-271.36 147.89,-448.2 136.12,-144.91 293.34,-208.02 247.05,-397.48z"/>
    <path id="1" class="fil2" d="M4051.38 9014.39c-27.19,-111.32 244.27,116.14 172.69,351.78 -40.42,133.06 -530.73,269.41 -567.63,493.9 -22,-112.39 -18.22,-271.36 147.89,-448.2 136.12,-144.91 293.34,-208.02 247.05,-397.48zm121.65 336.3c29.44,-96.91 -12.42,-193.88 -59.41,-255.87 -4.84,113.43 -81.56,181.15 -172.53,261.41 -31.66,27.93 -65.36,57.66 -97.84,92.24 -75.94,80.84 -114.54,156.64 -131.52,224.63 -0.12,0.47 -0.23,0.94 -0.35,1.41 72.7,-67.61 170.74,-124.7 261.13,-177.33 100.27,-58.38 189.55,-110.36 200.52,-146.5z"/>
   </g>
   <g>
    <path class="fil1" d="M4211.93 9335.23c10.51,-68.77 7.85,-154.33 -45.32,-211.94 -59.82,-64.75 -192.61,-82.26 -385.06,30.65 -415.43,243.68 -1032.08,693.59 -1338.27,783.96 -570.54,168.43 -1200.51,-347.85 -1314.76,303.33 -63.14,-347.73 -372.39,-533.9 -299.97,-778.22 137.78,-464.72 980.82,-33.61 1535.8,-208.05 287.94,-90.49 719.36,-485.65 1067.28,-659.25 154.95,-77.29 323.65,-69.84 404.85,-28.09 66.67,237.19 510.51,495.34 375.44,767.63z"/>
    <path id="1" class="fil2" d="M4211.93 9335.23c10.51,-68.77 7.85,-154.33 -45.32,-211.94 -59.82,-64.75 -192.61,-82.26 -385.06,30.65 -415.43,243.68 -1032.08,693.59 -1338.27,783.96 -570.54,168.43 -1200.51,-347.85 -1314.76,303.33 -63.14,-347.73 -372.39,-533.9 -299.97,-778.22 137.78,-464.72 980.82,-33.61 1535.8,-208.05 287.94,-90.49 719.36,-485.65 1067.28,-659.25 154.95,-77.29 323.65,-69.84 404.85,-28.09 66.67,237.19 510.51,495.34 375.44,767.63zm-208.62 -315.73c35.48,-2.82 67.58,-0.23 96.09,6.74 -34.79,-49.01 -76.61,-98.01 -117.81,-146.26 -78.24,-91.65 -154.51,-180.98 -188.47,-273.04 -36.2,-13.18 -87.4,-19.68 -145.75,-15.64 -60.56,4.2 -127.48,20.16 -191.9,52.3 -151.22,75.45 -320.53,195.08 -486.43,312.3 -213.07,150.55 -420.71,297.26 -588.8,350.09 -239.48,75.27 -523.12,43.59 -785.65,14.26 -342.93,-38.31 -646.61,-72.23 -714.8,157.81 -32.63,110.08 35.28,216.49 113.93,339.71 46.07,72.18 95.4,149.48 133.49,238.11 119.27,-262.59 372.97,-222.37 674.27,-174.56 198.16,31.44 419.37,66.53 626.73,5.33 199.39,-58.84 544.96,-282.1 874.5,-495 159.02,-102.73 314.32,-203.07 451.84,-283.73 96,-56.32 179.58,-82.9 248.75,-88.41z"/>
   </g>
   <g>
    <path class="fil5 str0" d="M5988.72 6961.17l0 61.7 0 183.91 -3.79 1.95c-58.25,-62.83 -155.03,-109.14 -269.36,-125.45 16.32,114.33 62.64,211.1 125.47,269.35l-1.95 3.79 -183.91 0 -61.7 0 -183.91 0 -1.95 -3.79c62.83,-58.25 109.14,-155.03 125.45,-269.36 -114.33,16.31 -211.11,62.63 -269.35,125.46l-3.79 -1.95 0 -183.91 0 -61.7 0 -183.91 3.79 -1.95c58.25,62.83 155.03,109.14 269.36,125.45 -16.31,-114.33 -62.63,-211.1 -125.46,-269.35l1.95 -3.79 183.91 0 61.7 0 183.91 0 1.95 3.79c-62.83,58.25 -109.14,155.03 -125.45,269.36 114.33,-16.32 211.1,-62.64 269.35,-125.47l3.79 1.95 0 183.91z"/>
    <path class="fil4 str1" d="M5631.12 6304.7c-29.79,37.39 -46.6,158.02 -62.85,222.91 -13.42,53.54 -4.78,59.09 17.93,76.12 -0.52,0.25 -11.47,-1.9 -21.06,2.58 -3.45,10.54 -13.3,29.95 -26.26,27.89 9.7,41.58 -9.8,46.65 -28.36,53.76 3.12,18.5 -16.05,25.47 -25.81,22.75 -12.28,19.6 -14.74,36.48 -14.95,45.64 -15.45,-10.26 -17.67,-38.86 -13.68,-54.94 -10.44,-8.45 -10.61,-19.8 1.97,-25.26 1.47,-7.46 9.8,-13 25.66,-12.74 -5.84,-11.92 4.6,-25.91 0.13,-24.26 -15.28,3.49 -31.67,8.55 -46.56,15.82 0.79,17.6 -7.55,17.81 -20.7,17.58 -0.42,15.11 -0.63,34.17 -36.71,25.87 -18.55,11.23 -0.85,45.37 -12.47,45.59 -16.69,-10.58 -18.05,-25.45 -16.53,-45.53 -15.15,-25.21 -6.95,-50.53 22.12,-52.44 -2.66,-11.78 3.19,-21.67 10.63,-25.34l15.75 -13.93 -13.41 -3.91c-12.04,8.13 -18.17,14.82 -29.42,15.94 -5.06,22.7 -17.07,27.98 -29.87,25.91 -6.24,19.19 -12.66,39.63 -46.01,28.84 -29.53,24.02 -1.8,51.71 -15.6,75.48 -47.03,-48.78 -21.72,-69.57 -13.68,-82.8 -16.87,-29.55 -10.34,-53.26 17.12,-56.56 4.59,-18.91 22.99,-34.15 46.33,-24.14 12,-25.25 81.2,-25.11 139.76,-11.52 28.57,6.64 48.22,-23.5 52.2,-35.1 20.13,-58.72 42.27,-203.01 60.59,-245.66l63.75 11.44z"/>
    <path class="fil4 str1" d="M5919.78 6329.87c-24.41,46.19 -34.14,91.18 -48.09,167.4 -11.79,64.43 18.25,92.59 40.39,113.84 -0.46,0.3 -10.66,-2.42 -19.1,3.07 -2.35,13.06 -27.46,10.94 -33.59,20.43 14.07,20.43 16.92,37.19 1.87,43.99 7.46,23.16 -10.53,37.16 -23.9,34.97 -9.73,24.23 5.68,36.45 6.46,48.01 -23,4.22 -40.37,-28.89 -31.93,-54.43 -15.74,-15.96 -11.41,-42.58 10.04,-48.73 -12.73,-12.24 -6,-30.73 8.39,-33.43 -6.27,-14.82 0.34,-23.42 -3.64,-21.39 -13.73,4.22 -25.26,24.12 -38.35,33.04 9.63,23.93 -6.98,23.72 -26.98,28.47 7.8,18.19 -4.21,39.94 -23.9,37.34 -12.18,13.5 -7.52,30.98 -8.83,49.34 -25.67,-14.26 -22.02,-31.39 -22.18,-56.28 -15.08,-25.11 -0.17,-45.04 19.98,-40.91 -3.35,-14.62 3.16,-21.61 17.2,-19.51l5.21 -17.23 -4.45 -4.88c-10.4,10.01 -19.77,12.32 -30.01,13.64 0.11,27.43 -43.76,34.71 -59.92,23.85 -4.23,23.76 -15.92,52.35 -47.32,38.78 -5.12,11.42 -6.53,25.24 9.6,53.44 -24.83,0 -49.27,-35.53 -40.07,-64.7 -19.21,-42.04 23.99,-72.18 59.7,-57.17 3.12,-30.63 34.26,-47.94 64.21,-29.71 22.04,-10.21 36.19,-16.74 67.81,-19.79 26.62,-2.57 41.06,-47.53 46.07,-60.25 20.96,-53.14 32.52,-142.99 46,-195.77l59.32 14.57z"/>
    <path class="fil4 str1" d="M4802.2 5354.22c-20.06,-5.96 -40.97,-5.82 -57.74,1.78 -14.13,6.39 -43.49,10.59 -103.23,16.76 -74.25,7.67 -137.44,43.33 -120.8,92.34l7.08 1.53c109.58,-59.96 286.11,16.6 387.03,65.76 -32.01,-64.02 -101.48,-127.48 -99.89,-173.61l-12.45 -4.57zm127.08 247.93c-121.39,-19.25 -233.63,-10.43 -373.1,-99.05 -14.97,-9.51 -8.24,-17.84 10.61,-12.3 149.38,43.93 215.47,44.56 314.2,43.6 11.57,-0.11 25.4,5.58 40.22,12.77 7.41,18.53 10.97,36.98 8.07,54.98z"/>
    <path class="fil2" d="M6075.83 5930.95c32.68,4.26 66.93,4.05 98.89,-0.77l-2.46 -9.26c-29.89,3.21 -70.37,3.97 -118.73,-8.42l-4.19 -1.09c-57.76,-42.02 -111.54,-77.46 -154.63,-104.53 -39.18,5.74 -47.19,19.61 -106.73,47.14 50.85,-76.86 312.73,-130.5 387.04,-156.17 -43.12,-34.4 -97.36,-37.76 -133.06,-44.88 25.79,-18.82 57.25,-35.79 101.11,-56.1 16.03,-5.71 38.08,-4.88 54,-3.35 78.79,7.65 150.28,-34.26 191.57,-11.33l3.54 -10.14c-30.56,-30.21 -117.41,12.44 -181.22,3.98 -6.15,-0.82 -12.3,-1.52 -18.43,-1.93 93.11,-40.83 188.08,-72.54 246.56,-89 -46.94,-43.15 -127.72,-10.27 -184.91,-31.61 42.33,-11.76 92.82,-32.28 140.29,-56.92 75.63,-7.02 153.2,-31.3 189.88,-11.18l2.71 -10.71c-40.15,-23.22 -95.86,-8.25 -153.53,-0.64 70.84,-40.1 116.43,-79.5 122.18,-118.34 -43.27,6.86 -97.75,13.24 -181.25,18.05 9.12,-10.16 18.2,-20.79 27.19,-31.8 12.55,-6.52 25.31,-13.08 38.3,-19.49 48.82,-24.08 91.59,-66.51 125.23,-54.83l-0.4 -11.48c-43.79,-16.41 -84.11,30.41 -125.11,47.37 -4.04,1.66 -8.03,3.38 -11.99,5.12 39.37,-51.34 70.06,-100.6 100.62,-156.69 7.77,-4.6 15.62,-9.19 23.57,-13.73 48,-27.42 89.98,-73.09 123.16,-63.28l-0.65 -10.64c-43.2,-13.98 -82.67,32.51 -122.99,52.23 -1.93,0.94 -3.85,1.9 -5.77,2.87 53.04,-102.12 76.76,-184.55 58.38,-221.91 -31.82,56.21 -137,139.15 -175.44,158.95 17.67,-75.31 29.69,-150.48 34.19,-221.79 12.01,-25.22 32.16,-101.71 59.25,-107.09l-3.27 -9.01c-31.68,5.34 -41.7,36.77 -55.25,70.46 3.59,-103.66 -9.2,-177.03 -45.02,-219.45 -0.23,54.38 -6.61,101.73 -21.64,149.67 -4.31,-44.95 -17.27,-82.03 -34.87,-125.78l-9.85 0.63c18.99,56.26 27.69,106.99 30.28,162.91 -21.44,57.53 -42.83,94.23 -80.79,146.78 2.25,-11.66 4.44,-23.47 6.1,-35.55 4.76,-34.59 0.01,-64.97 -5.91,-103.06l-10.6 0.64c2.62,28.76 8.55,67.7 -0.25,109.66 -4.52,21.59 -11.69,45.84 -16.43,66.21 -30.42,39.63 -56.9,69.58 -93.65,108.98 1.34,-4.57 2.64,-9.17 3.86,-13.81 9.25,-34.98 10.79,-70.01 9.94,-108.54l-10.52 1.06c-1.18,29.09 -0.08,67.59 -14.29,110.02 -4.09,12.21 -8.36,24.24 -12.61,36.08 -42.02,44.23 -73.49,74.54 -119.84,121.42 1.18,-2.69 2.33,-5.41 3.46,-8.13 13.52,-32.68 11.77,-56.38 15.4,-93.71l-12.47 0.7c-4.6,27.96 -6.36,64.35 -25.81,103.63 -6.35,12.83 -12.92,25.41 -19.39,37.76 -18.65,19 -37.46,38.36 -56.34,58.15 -24.52,25.72 -35.24,36.34 -54.66,59.08 16.76,-37.45 16.6,-63.9 20.64,-105.55l-12.36 1.11c-10.08,61.18 -23.58,103.51 -51.29,156.47 -98.56,118.34 -164.24,200.61 -434.26,299.59 -1.99,-10.16 45.97,-36.13 64.04,-49.28 -54.57,-22.88 -120.25,-63.5 -187.84,-109.38 25.12,-2.54 50.27,-10.19 60.8,-24.3l-4.8 -4.07c-18.4,11.82 -47.87,17.03 -75,14.99 -16.98,-11.56 -24.86,-16.22 -41.64,-27.63 22.56,-1.68 42.14,-3.64 59.52,-13.07l-2.11 -4.67c-25.04,5.9 -49.84,8.86 -74.87,4.92 -14.42,-9.77 -20.62,-13.75 -34.6,-22.88 22.19,-1.2 51.58,-7.91 65.88,-18.73l-3.16 -5.23c-22.6,8.44 -56.89,14.86 -79.14,13.63 -18.16,-11.74 -27.93,-16.92 -44.81,-26.65 26.51,-2.99 38.95,-6.66 60.6,-15.67l-2.83 -4.82c-32.21,8.08 -48.12,12.42 -76.89,9.14 -5.35,-2.93 -7.44,-4.05 -12.61,-6.67 -8.49,-4.31 -15.35,-7.76 -23.61,-11.35 19.31,-4.11 50.6,-13.04 62.32,-24.84l-4.11 -3.04c-19.53,11.59 -55.26,18.68 -75.61,21.15 -68.93,-27.12 -193.75,20.85 -205.15,60.84 -3.47,64.52 134.75,163.48 113.42,250.29 7.74,3.28 15.24,6.68 22.51,10.21 -3.33,32.87 -12.52,58.7 -22.82,78.96l7.12 5.05c15.59,-21.92 24.09,-49.72 28.37,-77.62 10.86,5.71 21.21,11.7 31.11,17.98l0.02 0.15c5.69,46.39 -1.23,83.49 -9.13,110.48l9.35 3.69c11.3,-32.68 16.74,-69.02 15.69,-103.72 14.37,10.01 27.81,20.66 40.6,31.89 5.04,30 4.47,55.75 2.45,76.25l9.7 2.31c3.08,-21.17 3.8,-43.39 2.25,-65.43 63.49,60.06 112.49,135 184.18,217.85 20.8,49.52 21.11,100.93 12.08,120.43l11.37 6.41c13.33,-19.09 12.31,-58.44 3.35,-96.75 15.8,17.22 32.72,34.74 51.08,52.49 14.97,40.72 16.83,79.69 10.58,96.59l11.71 5.74c10.02,-17.06 8.67,-48.24 0.83,-80.58 30.37,27.82 64.5,56.14 103.58,84.74 18.86,13.8 31.95,32.25 40.51,52.62 -27.23,1.67 -50.16,-3.72 -71.67,-17.82l-6.14 9.2c24.28,18.01 54.33,23.31 82.93,22.73 2.92,9.4 4.98,19.05 6.31,28.72 -30.39,13.27 -55.72,23.31 -85.64,8.31l-4.13 6.21c22.32,21.45 58.8,10.3 91.11,-1.71 0.51,6.99 0.63,13.92 0.44,20.72 -25.35,35.9 -64.96,49.25 -91.47,43.89l-1.21 7.34c28.6,11.05 65.95,-5.61 90.68,-27.7 -6.72,46.89 -28.63,80.17 -49.36,62.54 26.03,63.35 43.77,-16.83 100.18,-15.48 24.09,0.58 48.77,18.7 73.5,32.99 16.52,24.54 36.6,48.09 60.32,65.65l4.51 -6c-14.05,-12.99 -28.91,-28.92 -43.07,-48.6 12.6,5.21 25.17,7.79 37.65,4.91 11.31,8.6 23.19,16.24 35.53,22.44l2.98 -6.87c-11.52,-7.41 -23.75,-16.25 -36.24,-26.88 -2.5,-11.14 -4.2,-22.18 -4.78,-32.76 10.39,5.99 21.08,11.2 31.95,15.33l2.01 -7.25c-10.78,-5.48 -22.23,-11.99 -34.12,-19.86 0.35,-11.46 2.28,-22.18 6.2,-31.67 9.56,7.08 19.53,13.43 29.84,18.77l3.09 -6.81c-9.1,-6.02 -18.63,-12.94 -28.37,-20.95 5.36,-8.74 12.93,-16.04 23.17,-21.41 11.2,-5.87 23.82,3.08 34.89,19.23 -8.24,18.24 -17.97,33.14 -27.74,45.43l6.23 5.99c11.68,-10.97 21.27,-24.28 29.13,-38.72 3.98,7.51 7.62,15.84 10.73,24.55 -13.61,25.81 -29.94,44.9 -45.64,59.36l5.4 6.6c18.31,-12.61 33.31,-29.96 45.52,-48.9 3.83,14.55 5.97,29.31 5.67,42.3 -6.72,11.89 -13.99,22.11 -21.26,30.94l6.14 6.07c8.38,-7.62 15.74,-16.41 22.2,-25.96 10.63,-2.08 24.84,-4.13 40.81,-5.76 -4.14,18.31 -10.08,33.9 -16.53,47.14l7.2 4.97c10.67,-15.58 17.81,-34.02 22.42,-53.3 15.93,-1.3 33.02,-2.11 49.75,-2.11 3.54,4.61 7.15,9.19 10.88,13.71 26.07,31.65 59.56,64.35 97.43,83.35l2.98 -6.87c-28.12,-18.11 -60.48,-44.62 -90.6,-85.23l-3.45 -4.64c22.02,0.85 42.39,3.41 57.34,8.54 13.47,10.95 27.82,20.65 42.86,28.2l2.97 -6.86c-14.13,-9.1 -29.33,-20.33 -44.78,-34.39 -2.48,-16.45 -4.17,-32.92 -4.39,-48.69 30.04,22.69 65.04,43.62 100.53,53.29l1.07 -7.52c-29.56,-11.61 -64.67,-30.03 -101.29,-61.35 0.83,-14.85 3.31,-28.81 8.06,-41.23 19.77,11.67 40.65,21.37 61.7,27.1l1.07 -7.52c-17.73,-6.96 -37.44,-16.36 -58.27,-29.53 11.1,-21.07 30.42,-36.37 61.96,-41.88 -0.02,8.29 -0.01,16.81 0.15,25.67 0.65,37.12 5.45,72.98 25.02,108.11l5.15 -1.57c-11.77,-28.88 -17.86,-61.27 -16.21,-103.25 0.42,-10.64 0.67,-19.9 1.35,-30.78l1.51 -0.11c12.49,-0.73 25.48,1.11 38.84,5.13 44.46,47.03 99.44,132.62 97.64,189.29l6.54 2.44c8.21,-45.9 -25.53,-122.23 -68.98,-176.73 19.79,10.7 40.1,25.17 60.56,42.36 14.23,21.09 29.63,42.97 43.51,65.29 26.38,42.44 62.57,140.86 60.35,182.13l7.16 0.89c9.02,-39.99 -37.28,-152.3 -56.55,-187.28 -4.67,-8.48 -9.77,-16.78 -15.05,-24.97 53.06,52.31 105.51,118.1 150.86,178.67 9.32,35.64 18.76,72.41 29.08,110.87 17.81,66.3 20.9,119.62 18.98,160.81l8.43 4.83c7.64,-49.82 -0.49,-110.51 -12.63,-164.24 -6.29,-27.86 -14.21,-55.32 -21.71,-82.37 4.74,6.46 9.37,12.81 13.91,19.03 12.34,33.14 24.9,67.34 38.52,103.08 23.57,61.78 29.84,112.12 29.8,151.25l9.78 4.08c6.04,-47.64 -6.3,-104.67 -22.81,-154.87 -6.14,-18.66 -13.21,-37.07 -20.35,-55.28 13.05,18 24.57,33.74 34.21,46.21l0.01 -0.03c3.38,7.28 6.75,14.6 10.09,21.97 26.99,59.48 33.01,109.24 36.4,148.96l10.37 2.25c1.4,-49.17 -12.33,-105.95 -31.85,-154.64 -6.14,-15.3 -13.07,-30.29 -20.22,-45.09 21.82,-155.77 -73.45,-312.16 -201.19,-446.93l0.49 0.1 1.92 0.36 0 0 1.91 0.35 0 0.01 1.92 0.34 1.92 0.33 1.92 0.32 1.93 0.31 1.93 0.3 1.93 0.29 1.94 0.28 0 0 1.93 0.27 1.94 0.25 1.94 0.25 1.94 0.23 1.94 0.22 1.94 0.21 0 0 1.94 0.19 0 0.01 1.94 0.18 1.94 0.17 1.94 0.15 1.93 0.14 1.94 0.12 1.93 0.11 1.92 0.09 1.92 0.08 1.92 0.06 1.92 0.05 1.92 0.04 1.91 0.02 1.9 0 1.9 -0.01 1.9 -0.03 1.89 -0.05 1.89 -0.06 1.88 -0.08 1.88 -0.09 1.87 -0.12 1.87 -0.13 1.85 -0.15 1.85 -0.17 1.84 -0.19 1.84 -0.21 1.83 -0.23 1.82 -0.25 1.81 -0.27 1.81 -0.28 1.8 -0.31 1.78 -0.33 1.78 -0.35 1.76 -0.37 1.76 -0.39 -3.01 -7.86 -0.01 0 -1.44 0.13 -0.01 0 -1.45 0.13 -0.01 0 -1.46 0.12 0 0 -1.48 0.11 0 0 -1.49 0.11 -0.01 0 -1.5 0.09 -0.01 0 -1.51 0.09 -0.01 0 -1.52 0.08 0 0 -1.54 0.07 0 0 -1.56 0.07 0 0 -1.56 0.06 -0.01 0 -1.57 0.05 -0.01 0 -1.59 0.04 0 0 -1.61 0.03 0 0 -1.62 0.02 0 0 -1.63 0.01 0 0 -1.64 0 -0.01 0 -1.65 -0.01 -0.01 0 -1.66 -0.02 -0.01 0 -1.68 -0.03 -1.7 -0.04 -1.71 -0.05 -1.72 -0.06 0 0 -1.73 -0.07 0 -0.01 -1.75 -0.08 -1.75 -0.09 -1.77 -0.11 0 -0.01 -1.78 -0.11 0 -0.01 -1.8 -0.13 -1.81 -0.15 -1.82 -0.16 -0.01 0 -1.83 -0.17 -1.85 -0.18 -1.86 -0.2 -1.87 -0.21 0 0 -1.88 -0.22 0 -0.01 -1.9 -0.24 -1.9 -0.25 -1.92 -0.27 0 0c-1.28,-0.18 -2.58,-0.37 -3.88,-0.58l0 0 -1.96 -0.31 -1.97 -0.33 -1.98 -0.35 -2 -0.35 -2.01 -0.38 -2.02 -0.39 0 0c-2.03,-0.4 -4.07,-0.82 -6.14,-1.27l-0.01 0c-2.06,-0.46 -4.15,-0.92 -6.26,-1.43l0 0 -2.11 -0.51 -0.01 0 -2.12 -0.53 -0.01 0c-3.4,-0.86 -6.84,-1.79 -10.34,-2.78 -11.77,-12.01 -23.77,-23.85 -35.95,-35.47 17.7,0.89 35.09,-0.08 51.18,-3.78l-3.01 -7.87c-17.69,1.7 -38.27,1.91 -61.73,-1.13 -15.65,-14.6 -31.56,-28.85 -47.58,-42.75 30.96,1.49 62.82,-1.7 89.79,-11.51l-3.66 -8.64c-27.02,5.9 -60.56,11.86 -103.15,5.54 -11.52,-9.78 -23.09,-19.34 -34.64,-28.7 8.68,-0.57 17.17,-1.66 25.34,-3.33l-2.49 -8.93c-11.13,0.81 -23.29,1.49 -36.54,1.25 -19.42,-15.49 -38.74,-30.37 -57.76,-44.6zm167.57 -152.59l-4.19 0.9c-12.66,-18.01 -34.84,-24.66 -60.4,-27.67 -70.54,-8.29 -157.83,25.74 -200.1,38.67 29.75,16.52 42.44,30.65 75.24,46.62 46.97,22.87 80.07,34.93 112.53,38.05l0.69 3.97c-40.6,0.77 -78.82,-11.63 -117.47,-28.22 -42.79,-18.37 -79.16,-48.74 -120.29,-62.34 46.98,-11.75 170.12,-57.75 249.01,-49.53 30.75,3.2 54.79,14.64 64.98,39.55zm-826.32 -269.23c4.34,-25.26 4.5,-52.03 2.1,-79.89 -15.51,-65.64 -43.38,-121.31 -94.03,-194.59l2.76 -11.75c28,33.99 53.01,64.21 77.81,120.06 -12.27,-69.67 -27.41,-115.5 -34.67,-188.66 -14.99,-30.4 -33.17,-62.02 -54.49,-96.23l4.43 -8.66c15,20.99 31.39,42.97 48.01,73.98 -3.14,-45.59 -0.18,-72.87 13.9,-115.82 0.16,-0.47 -37.57,-65.8 -40.22,-104.04l9.44 -5.2c4.41,31.3 17.66,50.41 38.35,87.17 10.82,-33.74 17.81,-62.64 27.06,-98.08 0.45,-64.26 -11.23,-141.92 -35.26,-183.27l9.85 -3.76c24.89,36.27 36.66,77.67 41.4,131.22 11.44,-47.86 14.29,-73.41 21.49,-122.34 -10.82,-51.64 -31.24,-106.4 -54.26,-135.4l8.51 -6.57c22.73,26.41 40.63,60.2 51.94,101.66 4.43,-34.43 4.97,-55 6.64,-89.08 -15.98,-61.21 -43.71,-135.17 -72.1,-175.09l7.7 -4.21c28.36,34.92 49.25,83.44 66.92,135.13 1.08,-49.72 -2.39,-90.24 -8.74,-137.21 41.08,34.89 67.12,66.4 107.3,144.57 -6.39,-38.32 -16.79,-75.96 6.88,-95.74l6.97 5.12c-18.83,16.83 7.07,105.77 11.06,136.13 15.42,31.99 27.86,58.29 46.07,102 -8.89,19.89 -20.4,38.55 -30.03,58.81 -18.5,38.9 -23.76,89.98 -38.73,104.97l4.41 1.33c19.97,-22.38 30.59,-65.74 47.65,-95.93 10.42,-18.46 19.17,-36.98 28.52,-54.72 10.9,-18.7 18.01,-28.81 27.47,-46.26 -0.36,-46.65 -3.85,-84.09 -19.17,-123.23l8.56 -1.04c15.56,26.6 22.23,57.07 25.59,95.76 8.86,-19.94 14.11,-40.16 15.74,-66.41 20.63,46.31 39.03,103.57 33.35,191.79 8.1,-26.27 19.98,-40.1 39.41,-52.48l4.28 9.37c-21.7,15.91 -30.12,65.99 -47,105.67 -4.7,10.8 -10.1,41.04 -14.81,56.79 -14.52,14.72 -34.28,40.64 -49.46,55.26 -33.08,31.87 -67.5,64.42 -77.85,82.74l4.14 2.59c16.25,-22.47 55.2,-53.23 83.69,-77.16 13.15,-11.05 30.12,-33 42.2,-44.05 43.4,-24 84.77,-53.56 112.8,-77.7 1.61,40.61 -11.56,98.99 -38.66,165.67 26.84,-27.66 55.1,-58.53 84.63,-66.29l4.02 13.62c-30.16,11.4 -69.78,59.51 -103.17,93.4 -4.62,4.7 -34.36,53.89 -43.93,68.21 -21.23,13.97 -43.44,32.86 -72.35,46.41 -38.15,17.88 -69.5,53.13 -81.08,64.87l2.84 3.14c13.72,-12.09 57.26,-40.91 87.98,-54.44 27.54,-12.13 51.46,-31.37 76.16,-44.04 19.15,-7.19 38.2,-10.3 61.34,-13.19 -57.96,65.19 -29.07,178.12 -59.52,268.07 -31.04,38.71 -99.07,111.48 -262.41,183.44 -28.4,-9.96 -57.3,-22.9 -79.41,-36.43z"/>
    <ellipse class="fil6" cx="5021.7" cy="5412.67" rx="67.01" ry="59.81"/>
    <ellipse class="fil2" cx="4993.04" cy="5405.64" rx="27.35" ry="27.03"/>
    <path class="fil2" d="M5068 5411.55c8.15,29.68 -2.35,56.82 -23.81,66.07 12.13,-12.86 16.81,-34.07 10.57,-56.76 -9.42,-34.3 -40.17,-59.01 -68.7,-55.19 -3.84,0.52 -7.44,1.52 -10.77,2.96 6.21,-6.58 14.36,-10.97 24.02,-12.27 28.53,-3.82 59.28,20.89 68.7,55.19z"/>
    <path class="fil6 str2" d="M5623.66 7326.5c336.11,0 608.59,304.65 608.59,680.44 0,247.87 -58.11,474.03 -153.73,645.73l-110.85 -44.07c52.07,-126.52 82.85,-282.77 82.85,-451.92 0,-295.1 -191.12,-534.33 -426.86,-534.33 -235.75,0 -426.86,239.23 -426.86,534.33 0,169.14 30.78,325.4 82.85,451.92l-110.86 44.07c-95.62,-171.7 -153.73,-397.86 -153.73,-645.73 0,-375.79 272.47,-680.44 608.58,-680.44zm373.74 303.83l-38.61 25.9 61.22 91.25 38.61 -25.9 -61.22 -91.25zm-756.54 0l38.6 25.9 -61.22 91.25 -38.6 -25.9 61.22 -91.25zm905.37 311.37l-46.46 1.63 3.85 109.82 46.46 -1.63 -3.86 -109.82zm-1054.21 0l46.46 1.63 -3.86 109.82 -46.46 -1.63 3.85 -109.82zm1049.66 341.41l-45.57 -9.2 -21.76 107.71 45.57 9.21 21.75 -107.71zm-1045.11 0l45.57 -9.2 21.76 107.71 -45.57 9.21 -21.76 -107.71z"/>
    <g>
     <path class="fil7" d="M4777.74 6073.97l-48.29 -149.44 10.82 -3.49 48.29 149.44 -8.24 6.67 -2.57 -3.18zm10.82 -3.49c0.96,2.99 -0.68,6.19 -3.66,7.15 -2.99,0.96 -6.19,-0.68 -7.15,-3.66l10.82 -3.49zm-89.25 -52.99l86.68 49.81 -5.67 9.85 -86.68 -49.81 -1.92 -8.05 7.58 -1.8zm-5.67 9.85c-2.72,-1.56 -3.66,-5.04 -2.09,-7.76 1.56,-2.72 5.04,-3.66 7.76,-2.09l-5.67 9.85zm-43.16 54.68l41.25 -62.73 9.5 6.25 -41.25 62.73 -9.5 0 0 -6.25zm9.5 6.25c-1.72,2.62 -5.26,3.35 -7.87,1.63 -2.62,-1.72 -3.35,-5.26 -1.63,-7.87l9.5 6.25zm-41.25 -68.98l41.25 62.73 -9.5 6.25 -41.25 -62.73 1.92 -8.05 7.58 1.8zm-9.5 6.25c-1.72,-2.62 -0.99,-6.15 1.63,-7.87 2.62,-1.72 6.15,-0.99 7.87,1.63l-9.5 6.25zm-84.76 41.76l86.68 -49.81 5.67 9.85 -86.68 49.81 -8.24 -6.67 2.57 -3.18zm5.67 9.85c-2.72,1.56 -6.2,0.63 -7.76,-2.09 -1.56,-2.72 -0.63,-6.2 2.09,-7.76l5.67 9.85zm51.41 -154.3l-48.84 151.12 -10.82 -3.49 48.84 -151.12 8.65 -2.92 2.16 6.41zm-10.82 -3.49c0.96,-2.99 4.17,-4.62 7.15,-3.66 2.99,0.96 4.62,4.17 3.66,7.15l-10.82 -3.49zm-97.09 -213.58l11.37 0 0 0 0.11 8.62 0.34 8.54 0.55 8.46 0.77 8.37 0.98 8.27 1.19 8.17 1.39 8.07 1.59 7.96 1.79 7.84 1.97 7.72 2.16 7.6 2.35 7.46 2.53 7.32 2.7 7.19 2.87 7.04 3.04 6.88 3.21 6.73 3.37 6.56 3.52 6.4 3.67 6.22 3.82 6.05 3.95 5.85 4.1 5.67 4.23 5.48 4.36 5.27 4.49 5.07 4.6 4.86 4.73 4.65 4.83 4.43 4.95 4.2 5.05 3.97 5.15 3.74 -6.49 9.34 -5.52 -4 -5.4 -4.24 -5.27 -4.48 -5.15 -4.71 -5.01 -4.93 -4.88 -5.15 -4.74 -5.36 -4.6 -5.56 -4.46 -5.77 -4.31 -5.96 -4.16 -6.15 -4 -6.34 -3.85 -6.51 -3.68 -6.69 -3.52 -6.86 -3.35 -7.02 -3.17 -7.19 -3 -7.33 -2.81 -7.48 -2.63 -7.63 -2.44 -7.75 -2.25 -7.9 -2.05 -8.01 -1.85 -8.13 -1.65 -8.26 -1.44 -8.36 -1.23 -8.48 -1.02 -8.56 -0.8 -8.66 -0.58 -8.76 -0.35 -8.84 -0.11 -8.91 0 0zm81.96 -200.58l-5.86 9.75 6.93 -0.83 -4 4.07 -3.92 4.24 -3.82 4.38 -3.73 4.54 -3.64 4.69 -3.54 4.82 -3.43 4.96 -3.33 5.1 -3.23 5.23 -3.11 5.36 -3 5.5 -2.9 5.61 -2.77 5.73 -2.66 5.86 -2.54 5.97 -2.41 6.07 -2.28 6.19 -2.16 6.29 -2.02 6.39 -1.89 6.49 -1.75 6.58 -1.61 6.67 -1.47 6.76 -1.32 6.84 -1.18 6.93 -1.03 7 -0.88 7.07 -0.73 7.15 -0.56 7.2 -0.41 7.28 -0.25 7.32 -0.08 7.39 -11.37 0 0.08 -7.65 0.26 -7.59 0.42 -7.52 0.59 -7.47 0.75 -7.4 0.9 -7.32 1.07 -7.25 1.23 -7.18 1.37 -7.09 1.52 -7.01 1.68 -6.92 1.82 -6.83 1.97 -6.74 2.1 -6.64 2.25 -6.54 2.38 -6.44 2.51 -6.33 2.64 -6.22 2.77 -6.1 2.9 -6 3.02 -5.86 3.14 -5.74 3.26 -5.62 3.38 -5.48 3.49 -5.34 3.61 -5.22 3.73 -5.07 3.83 -4.93 3.93 -4.79 4.04 -4.63 4.14 -4.48 4.24 -4.31 6.93 -0.83zm-6.93 0.83c2.23,-2.21 5.83,-2.18 8.04,0.04 2.21,2.23 2.18,5.83 -0.04,8.04l-8 -8.08zm36.46 30.17l-35.4 -21.25 5.86 -9.75 35.4 21.25 0.8 9.17 -6.66 0.59zm5.86 -9.75c2.69,1.61 3.56,5.12 1.95,7.81 -1.61,2.69 -5.12,3.56 -7.81,1.95l5.86 -9.75zm-60.1 164.04l-11.37 0 0 0 0.08 -6.42 0.22 -6.37 0.37 -6.31 0.51 -6.26 0.66 -6.19 0.79 -6.13 0.93 -6.06 1.06 -5.99 1.2 -5.91 1.33 -5.83 1.45 -5.76 1.57 -5.67 1.71 -5.58 1.82 -5.49 1.94 -5.4 2.06 -5.29 2.18 -5.2 2.29 -5.09 2.39 -4.99 2.5 -4.88 2.61 -4.76 2.72 -4.65 2.81 -4.52 2.92 -4.4 3.01 -4.28 3.11 -4.14 3.21 -4 3.3 -3.86 3.38 -3.73 3.48 -3.59 3.56 -3.43 3.64 -3.28 7.46 8.58 -3.35 3.02 -3.28 3.17 -3.21 3.32 -3.14 3.45 -3.07 3.6 -2.99 3.74 -2.9 3.86 -2.82 4 -2.74 4.13 -2.65 4.25 -2.56 4.37 -2.46 4.49 -2.37 4.6 -2.26 4.71 -2.16 4.83 -2.06 4.92 -1.95 5.03 -1.85 5.13 -1.73 5.22 -1.62 5.31 -1.5 5.4 -1.39 5.49 -1.27 5.57 -1.14 5.65 -1.01 5.72 -0.89 5.79 -0.75 5.86 -0.63 5.93 -0.49 5.99 -0.35 6.05 -0.21 6.1 -0.08 6.15 0 0zm125.85 180.91l0 11.37 0 0 -7.17 -0.25 -7.08 -0.77 -6.98 -1.26 -6.86 -1.74 -6.73 -2.21 -6.59 -2.65 -6.43 -3.09 -6.27 -3.51 -6.11 -3.92 -5.94 -4.31 -5.75 -4.69 -5.55 -5.05 -5.36 -5.41 -5.15 -5.74 -4.95 -6.08 -4.72 -6.38 -4.5 -6.69 -4.26 -6.98 -4.02 -7.26 -3.77 -7.52 -3.51 -7.77 -3.25 -8.03 -2.98 -8.25 -2.7 -8.46 -2.41 -8.68 -2.12 -8.87 -1.81 -9.06 -1.51 -9.23 -1.18 -9.39 -0.86 -9.54 -0.51 -9.68 -0.18 -9.8 11.37 0 0.16 9.4 0.5 9.27 0.82 9.13 1.13 8.99 1.43 8.82 1.73 8.65 2.02 8.47 2.3 8.27 2.57 8.06 2.83 7.84 3.09 7.61 3.33 7.37 3.55 7.1 3.8 6.84 4 6.56 4.22 6.27 4.41 5.96 4.6 5.66 4.78 5.33 4.96 5 5.11 4.65 5.27 4.29 5.41 3.93 5.54 3.55 5.67 3.17 5.79 2.78 5.9 2.37 6 1.97 6.1 1.54 6.19 1.12 6.27 0.68 6.36 0.23 0 0zm125.85 -180.91l11.37 0 0 0 -0.18 9.8 -0.51 9.68 -0.86 9.54 -1.18 9.39 -1.51 9.23 -1.81 9.06 -2.12 8.87 -2.41 8.68 -2.7 8.46 -2.98 8.25 -3.25 8.03 -3.52 7.78 -3.77 7.51 -4.02 7.26 -4.26 6.98 -4.49 6.69 -4.72 6.38 -4.95 6.08 -5.16 5.74 -5.36 5.41 -5.56 5.05 -5.75 4.69 -5.93 4.31 -6.12 3.92 -6.28 3.51 -6.43 3.09 -6.59 2.65 -6.73 2.21 -6.86 1.74 -6.98 1.26 -7.08 0.77 -7.17 0.25 0 -11.37 6.36 -0.23 6.27 -0.68 6.19 -1.12 6.1 -1.54 6 -1.97 5.9 -2.37 5.79 -2.78 5.67 -3.17 5.53 -3.55 5.41 -3.93 5.27 -4.29 5.12 -4.65 4.95 -5 4.79 -5.33 4.6 -5.66 4.41 -5.96 4.21 -6.27 4.01 -6.56 3.79 -6.84 3.57 -7.11 3.33 -7.36 3.09 -7.61 2.83 -7.84 2.57 -8.06 2.3 -8.27 2.02 -8.47 1.73 -8.65 1.43 -8.82 1.13 -8.99 0.82 -9.13 0.5 -9.27 0.16 -9.4 0 0zm-125.85 -180.91l0 -11.37 0 0 7.17 0.25 7.08 0.77 6.98 1.26 6.86 1.74 6.73 2.21 6.59 2.65 6.43 3.09 6.28 3.51 6.11 3.92 5.93 4.31 5.75 4.69 5.56 5.05 5.36 5.4 5.16 5.75 4.95 6.07 4.72 6.39 4.49 6.69 4.26 6.98 4.02 7.25 3.78 7.53 3.51 7.77 3.25 8.02 2.98 8.25 2.7 8.47 2.41 8.68 2.12 8.87 1.81 9.06 1.51 9.23 1.18 9.39 0.86 9.54 0.51 9.68 0.18 9.8 -11.37 0 -0.16 -9.4 -0.5 -9.27 -0.82 -9.14 -1.13 -8.98 -1.43 -8.83 -1.73 -8.65 -2.02 -8.46 -2.3 -8.27 -2.57 -8.06 -2.83 -7.84 -3.09 -7.6 -3.33 -7.37 -3.56 -7.11 -3.79 -6.84 -4.01 -6.56 -4.21 -6.27 -4.41 -5.97 -4.6 -5.65 -4.79 -5.33 -4.95 -5 -5.12 -4.65 -5.27 -4.3 -5.4 -3.93 -5.54 -3.55 -5.67 -3.17 -5.79 -2.78 -5.9 -2.37 -6 -1.97 -6.1 -1.54 -6.19 -1.12 -6.27 -0.68 -6.36 -0.23 0 0zm-14.23 0.65l3.09 -10.94 -2.31 -0.16 0.43 -0.05 0.39 -0.05 0.39 -0.05 0.44 -0.06 0.44 -0.05 0.39 -0.04 0.44 -0.05 0.4 -0.04 0.39 -0.04 0.49 -0.04 0.4 -0.03 0.39 -0.04 0.44 -0.04 0.39 -0.03 0.45 -0.04 0.44 -0.03 0.39 -0.03 0.4 -0.03 0.44 -0.03 0.4 -0.02 0.44 -0.03 0.44 -0.01 0.4 -0.02 0.44 -0.01 0.4 -0.01 0.4 -0.01 0.45 -0.02 0.45 -0.01 0.44 -0.01 0.4 0 0.4 -0.01 0.44 0 0 11.37 -0.35 0 -0.4 0.01 -0.4 0 -0.35 0.01 -0.36 0.01 -0.35 0.01 -0.4 0.01 -0.4 0.01 -0.35 0.01 -0.4 0.02 -0.35 0.01 -0.35 0.02 -0.4 0.02 -0.35 0.03 -0.4 0.03 -0.39 0.03 -0.35 0.03 -0.35 0.03 -0.39 0.03 -0.35 0.03 -0.39 0.04 -0.4 0.03 -0.3 0.03 -0.4 0.04 -0.4 0.04 -0.34 0.04 -0.39 0.04 -0.35 0.04 -0.35 0.04 -0.39 0.05 -0.39 0.05 -0.35 0.05 -2.31 -0.16zm2.31 0.16c-3.11,0.42 -5.98,-1.76 -6.4,-4.87 -0.42,-3.11 1.76,-5.98 4.87,-6.4l1.53 11.27zm-62.03 -28.82l62.81 17.71 -3.09 10.94 -62.81 -17.71 -1.52 -10.26 4.61 -0.68zm-3.09 10.94c-3.02,-0.85 -4.78,-4 -3.93,-7.01 0.85,-3.02 4,-4.78 7.01,-3.93l-3.09 10.94zm77.04 -34.09l0 11.37 0 0 -2.42 0.03 -2.42 0.06 -2.4 0.11 -2.4 0.16 -2.38 0.21 -2.37 0.25 -2.37 0.3 -2.36 0.34 -2.35 0.38 -2.33 0.42 -2.33 0.47 -2.32 0.51 -2.31 0.56 -2.3 0.59 -2.29 0.64 -2.27 0.68 -2.27 0.72 -2.25 0.77 -2.25 0.8 -2.23 0.84 -2.22 0.89 -2.21 0.92 -2.2 0.97 -2.18 1.01 -2.17 1.04 -2.16 1.08 -2.15 1.13 -2.13 1.15 -2.13 1.2 -2.11 1.23 -2.08 1.27 -2.09 1.32 -6.14 -9.58 2.23 -1.4 2.26 -1.37 2.26 -1.32 2.28 -1.29 2.3 -1.25 2.32 -1.2 2.33 -1.17 2.35 -1.13 2.36 -1.08 2.38 -1.04 2.38 -1 2.41 -0.96 2.42 -0.92 2.42 -0.87 2.45 -0.83 2.46 -0.78 2.47 -0.74 2.49 -0.69 2.49 -0.65 2.51 -0.61 2.53 -0.56 2.53 -0.51 2.55 -0.46 2.56 -0.42 2.56 -0.37 2.58 -0.32 2.59 -0.27 2.6 -0.22 2.61 -0.17 2.61 -0.13 2.63 -0.08 2.63 -0.03 0 0zm183.1 247.34l-11.37 0 0 0 -0.22 -12.23 -0.68 -12.06 -1.11 -11.89 -1.54 -11.7 -1.94 -11.47 -2.35 -11.26 -2.74 -11.02 -3.11 -10.76 -3.49 -10.49 -3.84 -10.22 -4.19 -9.91 -4.51 -9.6 -4.84 -9.26 -5.15 -8.92 -5.44 -8.56 -5.73 -8.18 -6 -7.79 -6.27 -7.39 -6.5 -6.96 -6.76 -6.54 -6.97 -6.08 -7.19 -5.63 -7.38 -5.16 -7.58 -4.67 -7.75 -4.16 -7.93 -3.65 -8.08 -3.13 -8.23 -2.59 -8.37 -2.04 -8.5 -1.47 -8.63 -0.89 -8.74 -0.3 0 -11.37 9.52 0.33 9.4 0.97 9.26 1.6 9.1 2.21 8.94 2.81 8.75 3.38 8.57 3.94 8.36 4.49 8.14 5.01 7.91 5.52 7.67 6.01 7.43 6.49 7.16 6.93 6.89 7.38 6.61 7.8 6.33 8.21 6.02 8.6 5.71 8.98 5.39 9.34 5.05 9.69 4.71 10.01 4.36 10.33 3.99 10.63 3.62 10.91 3.24 11.19 2.84 11.44 2.44 11.68 2.02 11.9 1.59 12.11 1.14 12.3 0.7 12.49 0.23 12.64 0 0zm-99.57 215.26l-10.82 3.49 2.25 -6.47 5.28 -3.69 5.17 -3.92 5.06 -4.16 4.95 -4.4 4.84 -4.62 4.72 -4.85 4.6 -5.06 4.47 -5.28 4.35 -5.49 4.19 -5.68 4.06 -5.89 3.92 -6.07 3.76 -6.26 3.61 -6.45 3.45 -6.61 3.3 -6.79 3.12 -6.95 2.95 -7.11 2.78 -7.25 2.6 -7.41 2.4 -7.55 2.23 -7.69 2.03 -7.81 1.84 -7.94 1.63 -8.06 1.43 -8.17 1.22 -8.28 1.01 -8.39 0.79 -8.48 0.57 -8.58 0.34 -8.66 0.12 -8.74 11.37 0 -0.12 9.05 -0.35 8.96 -0.59 8.88 -0.82 8.77 -1.04 8.69 -1.27 8.58 -1.48 8.48 -1.7 8.36 -1.9 8.24 -2.11 8.12 -2.32 7.99 -2.5 7.84 -2.7 7.71 -2.89 7.56 -3.07 7.4 -3.26 7.25 -3.43 7.09 -3.61 6.91 -3.78 6.74 -3.94 6.56 -4.11 6.38 -4.26 6.18 -4.42 5.98 -4.57 5.78 -4.72 5.57 -4.86 5.36 -5 5.14 -5.14 4.9 -5.27 4.68 -5.4 4.44 -5.53 4.2 -5.64 3.94 2.25 -6.47zm-2.25 6.47c-2.61,1.75 -6.14,1.04 -7.89,-1.56 -1.75,-2.61 -1.04,-6.14 1.56,-7.89l6.33 9.45z"/>
     <path id="1" class="fil5" d="M4734.86 5922.78l48.29 149.44 -86.68 -49.81 -41.25 62.73 -41.25 -62.73 -86.68 49.81 48.84 -151.12c-57.46,-39.99 -96.81,-121.4 -96.81,-215.33 0,-80.49 28.91,-151.79 73.34,-195.7l35.4 21.25c-37.7,32.81 -62.85,91.82 -62.85,159.16 0,103.05 58.89,186.59 131.53,186.59 72.64,0 131.54,-83.54 131.54,-186.59 0,-103.06 -58.89,-186.59 -131.54,-186.59 -4.28,0 -8.51,0.3 -12.69,0.87l-62.81 -17.71c22.91,-14.69 48.5,-22.93 75.5,-22.93 97.99,0 177.42,108.19 177.42,241.65 0,95.27 -40.48,177.66 -99.29,217z"/>
    </g>
   </g>
   <g>
    <path class="fil8" d="M3215.28 6059.5c-87.02,-45.18 -221.48,-84.4 -318.77,-194.98 -86.06,-97.59 -129.43,-272.6 -133.27,-360.45 -23.43,-20.18 -1.59,276.27 101.11,379.86 86.14,86.78 210.45,151.32 341.26,213.94 157.36,75.35 333.24,190.1 475.22,255.78 47.86,22.18 90.82,22.47 137.79,-1.23 47.71,-23.93 106.41,-9.85 117.88,42.75 5.48,24.48 -18.58,89.01 -55.37,92.06 -31.21,1.46 -67.91,-29.01 -72.4,-12.18 -5.34,20.05 41.02,18.43 65.19,32.9 98.6,59.16 -47.55,190.38 -88.38,123.3 -14.79,-24.3 -18.48,-59.77 -31.51,-53.17 -12.35,6.23 4.55,27.17 18.41,62.76 16.89,43.26 -11.64,109.74 -66.2,102.12 -141.92,-19.72 -65.71,-180.75 -136.23,-220.21 -123.54,-69.09 -275.32,-148.77 -455.46,-186.74 -106.9,-22.43 -198.47,-66.85 -282.76,-115.03 -8.63,-4.93 -4.97,-9.06 6.14,-7.72 25.75,3.11 56.93,0 82.13,-21.76 41.61,-35.95 52.46,-110.3 24.18,-130.5 -18.66,-13.33 9.24,73.23 -41.23,113.81 -36.29,29.17 -106.74,14.71 -132.79,1.32 -38.44,-19.75 -71.68,-54.35 -106.18,-87.98 -156.96,-153.08 -216.83,-372.95 -219.89,-363.78 -14.4,44.57 58.32,225.06 196.87,376.05 116.49,126.91 282.13,227.31 459.56,266.42 -53.04,77.03 -128.86,291.78 -243.43,480.94 -0.58,-45.78 -13.67,-74.02 -23.8,-67.33 -2.82,1.86 9.44,22.63 11.09,59.9 0.4,8.98 -2.95,30.13 -10.08,43.87 -12.06,23.23 -29.01,42.72 -44.41,63.45 -2.18,-70.84 -30.29,-118.91 -43.94,-109.87 -3.82,2.52 27.16,53.54 25.61,111.85 -0.29,10.63 0.06,22.76 -9.91,35.08 -21.49,26.58 -40.53,47.47 -64.44,69.84 -6.3,-67.07 -42.57,-159.07 -61.3,-146.69 -4.72,3.12 27.98,52.28 34.24,124.23 1.52,17.46 -7.34,52.54 -21.51,64.07 -22.11,17.98 -46.36,32.24 -71.04,44.51 -22.55,-49.25 -47.94,-181.43 -80.26,-171.33 163.73,388.04 109.22,809.55 -222.53,1302.2 -51.18,76 -110.29,96.81 -162.7,99.31 -52.66,2.5 -55.98,-44.55 -70.17,-35.88 -14.35,8.77 13.77,61.8 63.67,63.45 28.93,0.96 53.01,-2.44 84.39,-18.82 4.68,-2.44 10.41,1.73 6.04,8.01 -111.37,159.76 -168.78,280.42 -213.16,482.94 -43.4,198.02 150.94,58.24 270.33,134.98 44.3,28.49 21.06,160.27 -11.41,133.28 -48.53,-40.19 -127.53,-25.14 -123.9,-7.04 0.84,4.61 29.18,-3.82 58.44,-0.46 44.31,5.01 99.62,44.88 64.55,129.74 -37.78,91.49 -150.93,64.07 -166.21,2.08 -8.6,-34.66 -51.65,-64.46 -65.28,-49.49 -14.81,16.42 41.79,8.79 51.57,56.47 25.48,124.9 -247.15,158.36 -249.86,-1.17 -164.56,96.65 -177.21,-124.16 -149.43,-198.64 86.57,-231.62 247.17,-761.25 224.69,-1186.63 56.02,-107.1 145.73,-138.45 120.68,-141.18 -41.92,-4.55 -87.45,28.93 -125.67,76.13 -1.61,-15.88 -3.52,-31.58 -5.72,-47.07 24.69,-119.9 106.52,-172.22 80.7,-169.06 -38.65,4.72 -71.51,40.37 -95.66,87.63 -6.54,-28.62 -14.35,-56.27 -23.52,-82.83 28.54,-118.7 101.28,-167.98 78.03,-165.75 -40.54,3.9 -75.64,50.21 -100.32,109.21 -27.93,-61.84 -64.78,-116.04 -112.27,-159.92 -146.76,-135.57 -863.01,8.17 -1126.45,-344.81 -277.23,-371.58 -168.91,-931.85 302.89,-776.09 25.96,8.56 40.73,55.56 -27.61,65.36 -449.01,64.4 -227.99,816.2 377.06,773.88 199.51,-13.88 405.71,33.52 579.31,-78.51 -80.13,7.25 -156.88,-5.26 -175.98,-50.13 -10.55,-24.74 85.51,48.16 248.4,-8.39 12.32,-12.21 24.42,-25.52 36.29,-40.01l3.71 -4.54c-61.37,7.93 -117.65,-0.67 -141.41,-36.85 -13.93,-21.21 68.07,24.31 185.26,-16.64 16.45,-20.13 30.59,-37.58 43,-53.37 -49.26,12 -94.73,10.58 -121.34,-13.8 -17.46,-16 63.47,6.28 163.49,-43.37 47.46,-70.82 65.4,-130.5 143.3,-335.93 136.71,-360.52 -130.55,-1147.74 291.14,-1533.85 -130.27,18.69 -487.44,-30.64 -452.7,-134.1 58.44,-5.16 227.43,20.74 311.5,31.78 -107.11,-77.62 -308.96,-31.26 -387.15,-105.71 -45.48,-43.49 -88.25,-107.69 -83.82,-160.7 6.87,-84.32 79.86,-119.31 146.82,-154.58 28.5,-15.02 55.25,-26.97 80.15,-36.5 11.15,117.83 112.25,145.41 164.71,107.03 79.7,-58.31 47.58,-174.47 -4.37,-88.98 -11.13,18.32 -22.49,28.99 -33.79,34.09 -0.93,-107.92 -36.74,-97.03 -42.3,1.56 -28.29,-7.83 -41.97,-29.51 -52.95,-63.94 132.07,-44.04 198.87,-17.54 188.34,-31.42 -39.17,-51.62 -187.14,-17.22 -294.19,38.22 2.69,-93.7 44.12,-203.39 125.11,-276.78 215.2,-194.65 453.51,-114.51 592.93,-14.51 -33.12,81.6 -32.56,142.54 -31.56,192.87 49.39,-154.63 99.35,-407.83 304.68,-494.33 18.86,151.35 2.28,452.74 -198.98,686.65 20.89,-5.1 34.35,-12.42 45.95,-22.2 1.14,-2.07 3.02,-3.78 5.62,-5.05 6.75,-6.41 13.15,-13.73 20.44,-22.01 15.53,9.74 30.67,20.48 45.43,32.15 6.79,2.73 14.05,5.93 21.8,9.66 179.72,86.54 310.19,-22.62 295.04,7.24 -30.49,60.07 -140.31,76.43 -232.34,64.67 9.85,11.39 19.5,23.23 28.91,35.5 114.64,79.12 223.27,39.99 202.8,60.15 -33.13,32.66 -92.48,31.72 -152.15,13.37 12.92,20.86 25.26,42.65 37.08,65.19 79.75,60.26 150.71,56.72 132.25,68.36 -26.17,16.51 -62.76,11.92 -101.33,-5 172.11,380.07 203.4,940.41 49.58,1332.99zm-954.19 -1402.88c133.08,27.46 336.87,109.31 327.59,158.05 -3.48,18.3 -76.87,-82.39 -343.6,-129.96 -176.84,-31.54 -139.39,-60.15 16.01,-28.08zm-51.23 -129.22c133.9,-17.93 365.23,-12.06 389.34,31.59 9.06,16.39 -121.27,-45.33 -384.72,-3.16 -174.67,27.96 -161,-7.5 -4.62,-28.43zm36.79 61.75c135.89,3.07 355.71,42.95 361.15,87.51 2.04,16.72 -98.08,-60.57 -368.26,-60.14 -179.13,0.28 -151.6,-30.96 7.11,-27.37zm413.8 -639.45c-9.93,-116.42 -40.41,-230.92 -137.73,-283.6 -21.27,58.14 -43.54,138.43 -56.19,228.54 70.38,4.57 136.59,26.17 193.92,55.05zm-801.6 5186.66c-80.98,82.86 -150.69,-5.82 -129.36,-63.54 5.83,-15.78 16.29,-11.85 18.62,0.95 5.81,31.94 34.42,79.07 87.29,32.96 54.93,-47.93 62.43,-10.25 23.45,29.63zm1494.66 -3971.45c118.72,14.27 236.59,-127.93 309.09,-201.96 121.27,-123.82 177,-203.59 284.29,-316.08 93.52,-98.05 121.22,-207 238.62,-223.15 95.18,-13.1 121.08,99.26 52.66,104.47 -57.96,4.41 -103.31,38.51 -95.38,46.28 14.72,14.43 33.97,-29.03 98.56,-30.94 136.1,-4.04 107.31,182.2 -32.16,120.9 -30.01,-13.19 -84.9,7.94 -82.99,22.61 1.8,13.89 37.36,-21.46 77.19,-11.06 43.85,11.44 72.92,57.38 49.65,95.63 -46.6,76.6 -119.26,-11.85 -191.51,24.09 -67.55,33.59 -144.7,156.46 -267.08,292.63 -55.75,62.04 -159.22,169.11 -250.6,244.92 -4.79,3.97 -11.82,-1.53 -11.34,-7.48 2.13,-26.25 -8.56,-40.34 -22.09,-48.84 -22.42,-14.12 -54.13,-10.29 -58.57,-2.07 -4.54,8.41 31.28,5.83 45.86,17.69 26.72,21.71 14.2,67.48 -3.38,86.33 -34.34,36.84 -104.11,107.21 -103.92,70.84 0.73,-133.4 -5.41,-193.34 -36.9,-284.81zm-740.59 2175.1c121.23,126.9 206.41,313.63 193.4,733.93 -5.68,183.49 -15.08,291.59 1.49,505.21 15.36,198 121.14,173.84 193.15,175.37 75.64,1.61 97.88,68.77 84.18,118.96 -14.11,51.72 -69.43,73.91 -74.33,49.41 -6.1,-30.45 -52.99,-58.63 -70.62,-62.82 -38.73,-9.23 -64.04,-5.96 -61.29,1.48 1.76,4.8 30.93,4.83 54.41,11.46 23.78,6.73 54.49,23.91 60.54,57.9 4.83,27.13 9.74,57.45 -9.5,92.37 -28.87,52.42 -150.34,62.29 -136.44,6.88 10.85,-43.26 -2.46,-64.37 -11.47,-80.96 -18.84,-34.65 -63.55,-64.47 -72.68,-49.48 -9.98,16.39 35.73,10.78 59.61,58.46 14.04,28.01 11.66,52.26 6.26,70.91 -10.39,35.98 -46.46,52.94 -99.18,48.6 -73.52,-6.05 -51.29,-103.87 -110.05,-84.91 -107.52,34.69 -123.75,-30.1 -106.05,-108.58 13.27,-58.86 49.4,-120.48 52.51,-180.79 9.66,-187 -23.67,-389.59 -147.74,-608.74 143.16,-266.35 207.08,-524.46 193.8,-754.65z"/>
    <path class="fil8" d="M2138.42 4162.6c-22.76,-108.07 -91.49,-281.9 -132.98,-284.98 -15.57,-1.17 69.73,76.37 109.02,291.4 0.65,3.55 1.3,6.98 1.94,10.33l-3.22 -6.17c-49.21,-93.16 -163.8,-234.84 -210.33,-227.09 -17.46,2.91 94.02,52.18 185.28,239.07 29.46,60.32 49.78,84.83 56.26,81.59 7.82,2.64 8.51,-35.41 -5.98,-104.15z"/>
    <path class="fil4" d="M4228.95 4449.94c26.43,-19.57 64.45,-34.61 103.68,-34.3 34.72,0.26 65.27,12.8 69.63,25.05 0.24,0.7 -4.28,3.09 -11.44,2.16 -58.19,-7.58 -78.04,8.04 -126.83,44.85 -35.83,27.03 -69.77,-12.05 -35.04,-37.76z"/>
    <path class="fil4" d="M4276.82 4573.68c26.46,-15.17 64.54,-22.63 103.85,-13.01 34.78,8.51 65.4,29.47 69.77,43.91 0.24,0.82 -4.29,2.37 -11.46,-0.34 -58.3,-22.07 -78.17,-9.67 -127.03,19.08 -35.88,21.12 -69.9,-29.7 -35.13,-49.63z"/>
    <path class="fil4" d="M4241.31 4713.53c29.11,1.26 62.23,13.09 85.86,37.38 20.91,21.49 31.1,49.8 25.57,61.83 -0.32,0.68 -4.67,-0.27 -8.39,-5.36 -30.28,-41.47 -52.76,-41.71 -106.95,-43.52 -39.8,-1.32 -34.33,-51.97 3.92,-50.32z"/>
    <path class="fil9" d="M3894.11 6390.51c32.04,-6.2 72.12,-3.13 106.24,14.49 30.21,15.58 51.16,40.54 49.37,53.66 -0.11,0.74 -5.16,0.93 -10.99,-3.09 -47.36,-32.64 -71.84,-27.14 -131.29,-15.08 -43.66,8.86 -55.43,-41.83 -13.34,-49.98z"/>
    <path class="fil9" d="M3868.82 6558.24c28.53,12.75 56.8,39.53 70.57,77.34 12.2,33.46 10.96,70.83 0.59,82.89 -0.59,0.68 -4.54,-2.12 -6.21,-9.58 -13.49,-60.68 -35.82,-69.65 -89.14,-92.76 -39.17,-16.96 -13.3,-74.65 24.18,-57.89z"/>
    <path class="fil9" d="M3741.67 6689.38c11.51,26.15 15.28,60.99 3.72,93.57 -10.22,28.85 -31.21,51.63 -44.42,52.65 -0.75,0.05 -1.78,-4.22 1.18,-9.98 24.09,-46.83 14.54,-66.66 -7.37,-115.08 -16.1,-35.56 31.77,-55.52 46.89,-21.16z"/>
    <path class="fil9" d="M3063.32 8812.02c27.15,11.71 54.12,37.78 67.34,75.74 11.72,33.59 10.68,71.76 0.87,84.52 -0.56,0.72 -4.33,-1.97 -5.94,-9.49 -13.04,-61.28 -42.14,-55.3 -92.9,-76.48 -37.28,-15.55 -5.07,-89.7 30.62,-74.29z"/>
    <path class="fil9" d="M2960.63 8950.5c32.49,23.96 61.08,66.74 68.67,120.89 6.73,47.92 -4.4,97.88 -20.47,111.63 -0.92,0.77 -5.16,-3.93 -5.33,-14.36 -1.38,-84.83 -27.07,-102.25 -88,-146.05 -44.76,-32.17 2.44,-103.58 45.14,-72.09z"/>
    <path class="fil9" d="M2799.45 9004.43c20.03,30.47 31.04,72.84 20.89,114.76 -8.98,37.1 -33.6,68.36 -51.33,71.63 -1.01,0.18 -3.14,-4.95 -0.1,-12.49 24.74,-61.37 -0.18,-74.38 -38.09,-130.74 -27.84,-41.39 42.3,-83.22 68.63,-43.18z"/>
    <path class="fil9" d="M2266.23 9028.54c28.29,6.76 58.13,27.75 75.84,62.94 15.68,31.13 19.29,69.06 11.14,83.44 -0.47,0.81 -4.53,-1.18 -7.03,-8.34 -20.36,-58.29 -48.42,-47.2 -101.21,-59.12 -38.77,-8.76 -15.93,-87.81 21.25,-78.91z"/>
    <path class="fil9" d="M2208.71 9208.6c32.49,23.96 61.08,66.74 68.67,120.89 6.73,47.92 -4.4,97.88 -20.47,111.63 -0.92,0.77 -5.16,-3.93 -5.33,-14.36 -1.39,-84.83 -27.07,-102.25 -88,-146.05 -44.76,-32.17 2.44,-103.58 45.14,-72.09z"/>
    <path class="fil9" d="M2018.25 9295.82c20.03,30.48 31.04,72.85 20.89,114.77 -8.97,37.1 -33.6,68.36 -51.33,71.63 -1.01,0.18 -3.14,-4.94 -0.1,-12.48 24.74,-61.37 -0.18,-74.38 -38.09,-130.74 -27.84,-41.39 42.3,-83.23 68.63,-43.18z"/>
   </g>
   <path class="fil1 str3" d="M3890.58 2411.62c-58.05,-121.06 -238.62,-493.66 49.27,-456.05 -86.16,-176.23 -262.32,-109.22 -289.57,-101.97 -112.51,29.94 110.84,-282.87 -204.23,-468.89 50.72,125.12 8.79,400.22 -54.43,332.64 -38.87,-41.57 -216.44,-218.38 -327.94,-151.77 428.61,291.66 328.8,568.46 349.23,984.73 20.21,411.55 422.48,790.29 1131.71,821.67 -882.59,96.69 -1406.01,-305.27 -1842.41,-749.48 -163.89,84.62 -138.15,193.66 -150.69,598.98 748.09,968.13 2178.77,850.76 2792.49,405.27 26.95,-217.33 49.3,-523.11 89.34,-717.28 3.98,-19.24 -729.33,53.09 -993.42,-15.55 -225.92,-58.67 -432.06,-237.67 -549.35,-482.31z"/>
   <path class="fil3 str3" d="M2592.37 3266.06c-213.81,-192.89 -333.47,-698.77 -648.05,-901.24 -115.47,-74.35 -359.99,-212.8 -501.33,-64.59 23.14,-186.53 115.48,-208.27 267.35,-194.31 45.28,4.14 60.06,-58.08 -130.75,-134.71 397.08,-71.58 641.76,149.1 605.33,321.21 153.39,10.68 61.25,-520.41 -176.09,-655.95 633.83,129.91 440.19,466.45 574.06,733.22 90.93,-84.57 158.79,-92.35 272.69,-166.43 15.04,45.21 -242.54,245.04 44.73,247.86 120.71,1.2 216.9,42.28 240.46,214.88 -290.49,-264.2 -715.08,64.98 -548.39,600.06z"/>
   <path class="fil1 str3" d="M2448.81 1878.16c-115.51,-337.49 -499,-272.05 -730.32,-672.29 11.65,168.74 -25.41,274.24 125.55,366.49 -56.11,16.79 -76.41,147.38 -7.44,208.88 107.09,-332.69 555.34,25.23 612.21,96.91z"/>
   <path class="fil1 str3" d="M7772.6 2454.53c58.34,-117.48 179.96,-465.59 -109.54,-425.69 105.11,-212.42 323.82,-122.24 351.19,-115.62 113.15,27.47 17.81,-330.42 334.64,-513.82 -50.99,121.34 -4.14,452.19 59.41,386.26 39.01,-40.52 208.42,-163.92 412.87,-90.7 -498.55,295.94 -122.22,1425.05 -1424.21,1641.04 959.34,121.71 1154.46,-143.54 1593.31,-577.53 164.81,79.56 138.93,185.08 151.54,575.9 -848.88,963.44 -2432.5,582.39 -2840.34,240.93 -27.1,-209.33 -11.28,-493.66 -51.56,-680.46 -4,-18.51 530.98,124.15 796.59,54.65 227.19,-59.48 608.15,-257.49 726.1,-494.96z"/>
   <path class="fil3 str3" d="M9100.73 3377.89c215.01,-188.76 381.5,-582.46 660.91,-829.56 106.89,-94.54 352.77,-257.77 494.91,-116.57 -23.26,-179.64 -116.12,-199.42 -268.85,-184.07 -45.5,4.56 -88.09,-17.65 103.78,-93.97 -339.31,-68.81 -539.16,187.79 -567.19,327.47 -38.82,-227.17 61.49,-490.96 350.92,-628.73 -587.57,-78.81 -528.77,358.14 -764.96,660.63 -91.44,-80.42 -159.67,-87.08 -274.21,-157.11 -15.12,43.8 243.9,233.32 -44.97,239.65 -121.39,2.68 -218.12,43.52 -241.81,210.31 292.11,-258.52 719.09,53.68 551.46,571.94z"/>
   <path class="fil1 str3" d="M9363.33 2029.92c207.53,-385.89 432.37,-195.87 630.51,-505.19 -9.97,135.22 21.76,222.24 -107.54,288.06 48.07,16.67 65.46,122.95 6.37,168.6 -148.07,-189.35 -412.88,-94.44 -529.34,48.52z"/>
   <path class="fil2" d="M5620.22 2704.48c-105.91,0 -865.47,56.44 -1082.74,70.18 38.01,-225.44 311.9,-458.18 364.15,-487.5 109.05,-61.19 822.1,-142.6 1046.09,21.21 506.25,370.22 382.43,1309.68 433.74,1704.63 4.68,35.95 -631.89,-7.22 -686.51,-26.1 -46.98,-227.08 -236.57,-1174.26 -74.73,-1282.42z"/>
   <path class="fil6" d="M4459.48 2882.47c500.85,661.49 701.94,1217.35 712.03,1226.21 18.22,15.98 868.58,-116.67 955.47,-116.67 -51.9,-489.4 -238.98,-997.58 -408.52,-1321.76 -70.41,-9.54 -122.73,-7.74 -190.58,1.51 6.93,38.14 9.49,47.19 14.66,103.73 -66.69,6.34 -748.61,65.09 -1083.06,106.98z"/>
   <path class="fil3 str3" d="M5989.34 2997.01c133.41,-61.66 94.13,-257.19 154.16,-198.47 455.86,446.05 1010.68,223.56 1349.78,-56.07 -928.84,392.93 -995.95,-383.62 -1497.7,-455.35 -82.08,-11.71 -359.85,-132.51 -412.02,11.66 -154.21,432.28 511.54,229.01 405.77,698.23z"/>
   <g>
    <path class="fil3 str4" d="M5459.91 2273.6c199.76,0.44 389.44,18.6 588.71,31.88 21.71,11.95 91.45,-23.17 26.25,-61.92 -36.28,-43.83 -38.29,-153.54 -7.75,-152.37 50.94,1.95 46.8,-67.84 5.89,-73.02 -30.96,-43.96 20.65,-139.72 41.46,-186.59 50.03,-112.63 87.47,-130.92 119.98,-175.21 56.67,-77.22 -146.56,-55.92 -132.08,24.15 25.71,142.22 -51.22,-73.09 -145.56,29.9 -89.37,97.56 29.95,171.89 76.63,143.06 46.26,-28.58 -5.22,119.06 -106.4,117.07 -102.03,-2.01 -113.75,-145.47 -89.43,-142.32 57.12,7.39 45.04,-33.93 26.45,-37.22 -21.27,-3.78 -21.33,-9.46 -11.32,-12.28 86.89,-24.54 41.81,-141.21 -43.94,-142.03 -83.4,-0.8 -149.14,74.47 -48.25,143.34 17.87,12.21 -31.85,0.77 -31.7,25.28 0.27,41.09 51.53,11.24 48.34,23.76 -14.5,57.07 -31.92,106.86 -102.66,131.99 -150.32,53.39 -197.95,-131.2 -169.79,-132.12 46.89,29.11 196.54,-5.69 154.4,-117.21 -31.77,-84.1 -132.15,-64.57 -171.61,-20.97 -49.3,-24.62 50.66,-59.69 68.39,-90.67 23.57,-41.14 8.72,-103.79 -107.6,-119.32l-1.64 -0.16 -1.63 0.16c-116.12,15.21 -130.18,77.82 -106.09,119.02 18.13,31.03 118.54,66.36 69.55,90.86 -40.02,-43.7 -140.65,-63.51 -171.35,20.51 -40.72,111.41 109.38,146.62 155.9,117.64 28.17,0.99 -17.11,185.46 -168.11,131.66 -71.06,-25.33 -89.1,-75.17 -104.35,-132.27 -3.35,-12.55 40.72,27.25 40.39,-25.17 -0.16,-24.52 -52.71,-13.44 -24.37,-23.83 107.76,-39.55 33.31,-144.04 -50.08,-143.47 -86.2,0.59 -135.16,115.78 -44.66,140.55 12.25,3.35 14.47,9.57 -8.63,13.62 -18.53,3.24 -30.1,44.54 26.93,37.3 24.28,-3.08 14.4,140.36 -87.62,142.08 -101.15,1.71 -154.52,-146.07 -107.9,-117.36 47.05,28.96 165.42,-45.04 74.81,-142.85 -95.66,-103.24 -169.84,111.85 -145.93,-30.29 13.46,-80.03 -190.05,-101.89 -132.39,-24.51 33.07,44.38 70.75,62.78 122.22,175.54 21.41,46.93 74.24,142.84 43.84,186.71 -40.85,5.07 -44.1,74.85 6.82,73.04 30.53,-1.09 29.92,108.63 -5.81,152.36 -64.71,38.57 5.48,73.89 27.03,61.99 199.11,-12.73 404.89,-30.35 604.66,-30.25z"/>
    <path class="fil10 str4" d="M4828.21 2241.86c172.48,-50.7 1129.81,-48.81 1246.66,1.7"/>
    <path class="fil10 str4" d="M4834.02 2089.5c128.4,-36.27 1005.88,-38.74 1224.75,4.62"/>
    <path class="fil10 str4" d="M4827.2 2016.46c46.88,-7.6 527.36,-23.79 633.47,-21.35 101.23,2.33 570.37,11.21 612.34,23.04"/>
    <path class="fil10 str4" d="M4818.63 1907.73c35.98,67.19 112.26,93.42 151.12,92.44 63.45,-1.59 109.7,-50.25 134.76,-103.04 23.49,27.48 52.87,96.34 165.15,100.86 118.1,4.75 168,-124.01 178.6,-150.6 12.95,43.09 63.16,147.27 182.52,149.97 100.51,2.28 151.45,-76.36 169.45,-99.25 21.2,34.65 44.2,91.71 120.88,100.15 64.1,7.06 126.93,-36.6 157.94,-85.73"/>
    <path class="fil10 str4" d="M4874.79 2095.96c0.4,64.09 13.54,50.26 -12.33,116"/>
    <path class="fil10 str4" d="M4907.49 2101.67c4.09,24.26 31.09,73.52 -0.46,103.97 -2.82,2.71 -2.47,2.75 -2.11,6.38"/>
    <path class="fil10 str4" d="M4953.37 2124.36c10.04,16.54 6.76,34.52 6.88,53.78"/>
    <path class="fil10 str4" d="M4995.88 2132.91c7.59,15.24 4.91,19.22 9.96,25.48"/>
    <path class="fil10 str4" d="M6027.82 2103.2c-10.13,12.78 -22.71,23.55 -22.59,42.4 -14.64,2.61 7,64.57 6.95,65.1"/>
    <path class="fil10 str4" d="M5978.84 2105.95c-19.72,8.93 -42.77,59.61 -26.44,82.75l4.14 4.94"/>
    <path class="fil10 str4" d="M5916.93 2128.5c-9.43,18.25 -6.36,27.8 -6.23,48.1"/>
    <path class="fil10 str4" d="M5868.01 2139.76c0.03,5.02 -0.93,20.94 3.43,25.47"/>
   </g>
   <path class="fil2" d="M4459.48 2882.16c29.92,39.81 58.74,79.24 86.52,118.19 110.36,-16.21 223.61,-28.96 335.25,-23.49 -112.25,40.35 -218.1,59.7 -300.17,73.2 12.68,18.16 25.13,36.2 37.34,54.12 105.06,-13.35 212.51,-22.87 318.51,-15.98 -105.32,36.18 -205.01,53.97 -284.71,66.09 13.93,20.89 27.54,41.58 40.84,62.07 99.01,-10.49 199.91,-16.91 299.54,-8.85 -97.76,32.02 -190.68,48.28 -267.25,59.13 13.97,22 27.58,43.73 40.82,65.19 91,-8.44 183.38,-12.72 274.68,-4.85 -88.22,28.44 -172.5,44.04 -244.38,54.49 14.78,24.47 29.05,48.53 42.87,72.16 83.52,-5.26 168.02,-6.45 251.62,2.54 -79.71,23.99 -156.19,37.58 -223.22,46.57 14.95,26.14 29.27,51.66 43,76.57 68.04,-1.69 136.49,0.07 204.35,8.53 -62.83,17.84 -123.66,29.25 -179.44,37.13 11.68,21.63 22.87,42.7 33.61,63.21 60.37,-0.19 120.96,2.62 181.09,10.69 -55.12,15.12 -108.7,25.33 -158.68,32.56 14.46,28.22 27.98,55.19 40.58,80.82 48.7,1.37 97.48,4.98 145.95,11.99 -43.75,11.54 -86.53,19.99 -127.31,26.33 16.18,33.61 30.63,64.52 43.4,92.47 40.41,2.87 80.82,7.42 121.02,14.3 -36.02,8.55 -71.39,15.01 -105.52,19.96 39.06,87.23 69.29,158.98 72.27,161.61 18.22,16.1 832.32,-123.06 913.19,-136.02 -51.9,-493.18 -228.76,-977.39 -398.3,-1304.08 -70.42,-9.62 -97.06,-10.42 -164.91,-1.09 6.94,38.42 5.3,19.65 10.47,76.63 -66.69,6.39 -748.61,65.6 -1083.06,107.81z"/>
   <ellipse class="fil6" cx="5636.31" cy="2789.14" rx="55.87" ry="64.45"/>
   <path class="fil11" d="M4332.48 10378.07l-2.25 0.51c-14.41,-10.18 -24.47,-17.13 -30.15,-20.83 -5.07,-3.31 -13.19,-8.21 -24.49,-14.78 0.87,-5.88 0.4,-15.26 -1.45,-28.17l-10.33 -72.04c-2.26,-15.6 -5.75,-30.84 -10.47,-45.68l-20.97 32.17c-13.98,21.46 -22.47,35.79 -25.55,43.05 -1.26,2.93 -0.82,5.59 1.37,8 1.09,1.25 6.05,5.13 14.93,11.7l0.47 2.21 -5.9 9.04 -2.09 0.61c-8.7,-6.45 -22.41,-15.78 -41.15,-27.99 -19.39,-12.64 -33.46,-21.42 -42.18,-26.31l-0.53 -2.12 5.99 -9.18 2.21 -0.47c9.54,5.43 15.11,8.41 16.74,8.94 3.03,0.99 5.64,0.32 7.81,-2.01 5.45,-5.72 15.08,-19.3 29.07,-40.77l46.62 -71.54c13.98,-21.46 22.55,-35.81 25.55,-43.05 1.26,-2.93 0.82,-5.59 -1.28,-8.01 -1.18,-1.23 -6.14,-5.12 -14.96,-11.66l-0.47 -2.21 5.99 -9.18 2.16 -0.38c8.27,6.19 21.98,15.52 41.09,27.97 19.57,12.75 33.64,21.53 42.23,26.33l0.39 2.03 -6.08 9.32 -2.11 0.32c-9.6,-5.46 -15.16,-8.43 -16.7,-8.98 -3.11,-0.98 -5.72,-0.31 -7.89,2.02 -5.37,5.71 -15.08,19.3 -29.07,40.77l-21.87 33.56c27.08,-4.71 46.76,-8.46 58.98,-11.28l32.16 -7.38c11.06,-2.53 25.59,-6.47 43.62,-11.63l6.07 -9.32 2.38 -0.42c6.61,5.1 13.21,9.8 19.91,14.16 7.84,5.12 17.21,10.82 28.1,17.12l0.49 2.29 -5.45 8.36 -2.25 0.43c-10.43,-6.8 -19.3,-10.15 -26.55,-10.13 -10.45,0.09 -32.18,3.16 -65.11,9.19l-44.23 8.13c0.45,7.79 1.74,19.61 3.85,35.45l7.4 54.94c5.44,40.7 9.41,62.94 11.84,66.89 1.54,2.38 4.73,5.26 9.65,8.6l0.38 2.35 -5.9 9.05zm372.34 -101.18l-2.09 0.96c-11.96,-4.17 -19.85,-3.31 -23.59,2.56 -2.07,3.24 -5.38,10.73 -9.9,22.51 -3.4,8.74 -8,21.43 -13.81,38.08l-16.39 46.97c-10.53,30.16 -23.97,49.63 -40.39,58.38 -21.72,11.56 -47.11,12.27 -76.29,2.09 -26.64,-9.3 -45.85,-20.96 -57.69,-35.02 -9.97,-11.89 -14.47,-25.41 -13.54,-40.61 0.64,-9.69 7.48,-33.15 20.5,-70.45l13.72 -39.32c8.44,-24.19 13.27,-40.18 14.51,-47.92 0.51,-3.14 -0.55,-5.62 -3.23,-7.49 -1.38,-0.89 -7.13,-3.48 -17.26,-7.72l-1.04 -2.05 3.56 -10.2 2.1 -1.02c9.52,4.02 25.06,9.8 46.6,17.31 21.95,7.66 37.67,12.8 47.09,15.38l1.01 2.11 -3.55 10.2 -2.09 0.96c-10.56,-2.99 -16.68,-4.54 -18.32,-4.7 -3.25,-0.2 -5.63,1.08 -7.18,3.86 -3.84,6.82 -10.02,22.35 -18.46,46.54l-10.97 31.42c-13.39,38.39 -19.88,62.5 -19.46,72.33 0.96,19.48 15,33.95 42.14,43.42 17.79,6.21 33.16,6.67 46.19,1.41 6.14,-2.53 10.83,-5.62 14.14,-9.25 3.31,-3.63 7.07,-9.72 11.18,-18.33 3.85,-8 7.25,-16.26 10.23,-24.78l11.08 -31.73c9.27,-26.58 15.52,-44.83 18.7,-54.62 2.99,-9.23 4.44,-15.38 4.41,-18.48 -0.13,-2.32 -1.33,-4.54 -3.7,-6.6 -2.02,-1.75 -8.01,-4.66 -17.93,-8.82l-1.04 -2.05 3.56 -10.2 2.11 -1.02c8.63,3.71 17.57,7.19 26.93,10.45 7.03,2.45 20.6,6.84 40.7,13.15l1.02 2.11 -3.56 10.2zm236.85 257.25l-1.86 1.35c-17.26,-3.72 -29.24,-6.18 -35.9,-7.36 -5.97,-1.06 -15.36,-2.38 -28.33,-4 -1.51,-5.75 -5.6,-14.19 -12.36,-25.35l-37.72 -62.24c-8.18,-13.47 -17.36,-26.12 -27.52,-37.93l-6.69 37.81c-4.47,25.22 -6.66,41.73 -6.66,49.62 -0.01,3.19 1.44,5.46 4.39,6.82 1.5,0.72 7.58,2.35 18.32,4.92l1.3 1.85 -1.88 10.63 -1.7 1.38c-10.53,-2.53 -26.79,-5.75 -48.82,-9.65 -22.78,-4.04 -39.17,-6.6 -49.11,-7.69l-1.32 -1.75 1.91 -10.8 1.86 -1.3c10.91,1.27 17.19,1.82 18.89,1.67 3.18,-0.27 5.32,-1.91 6.41,-4.91 2.76,-7.4 6.31,-23.67 10.78,-48.89l14.89 -84.08c4.47,-25.23 6.72,-41.78 6.65,-49.63 0.01,-3.19 -1.44,-5.46 -4.33,-6.87 -1.56,-0.66 -7.65,-2.3 -18.32,-4.86l-1.3 -1.85 1.91 -10.8 1.83 -1.18c10.03,2.45 26.3,5.67 48.75,9.64 23,4.07 39.39,6.64 49.17,7.69l1.14 1.71 -1.94 10.96 -1.82 1.13c-10.97,-1.27 -17.24,-1.82 -18.88,-1.71 -3.26,0.32 -5.39,1.95 -6.48,4.95 -2.7,7.36 -6.32,23.67 -10.78,48.9l-6.98 39.44c23.06,-14.94 39.7,-26.1 49.84,-33.47l26.7 -19.39c9.18,-6.65 21.01,-15.98 35.58,-27.78l1.94 -10.96 2.02 -1.32c8.08,2.1 16,3.84 23.86,5.24 9.22,1.63 20.08,3.21 32.56,4.75l1.34 1.92 -1.74 9.82 -1.9 1.28c-12.26,-2.16 -21.73,-1.78 -28.39,1.08 -9.58,4.18 -28.37,15.52 -56.31,33.95l-37.51 24.81c3.47,6.99 9.29,17.36 17.44,31.11l28.32 47.65c20.94,35.32 33.31,54.24 37.08,56.92 2.35,1.59 6.41,2.98 12.25,4.13l1.27 2.01 -1.88 10.64zm282.69 26.34l-1.73 1.52c-0.77,-0.06 -2.8,-0.28 -6.08,-0.65 -14.67,-1.74 -23.82,-2.75 -27.45,-3.05 -5.5,-0.44 -14.19,-0.81 -26.16,-1.12 -0.23,-2.62 -1.92,-7.06 -5.06,-13.39l-34.54 -69.84 -15.65 -28.63c-1.99,-3.47 -4.91,-7.02 -8.71,-10.59l2.2 -5.29c2.46,0.31 4.27,0.51 5.48,0.61 10.49,0.85 18.92,-0.18 25.17,-2.99 5.74,-2.58 11.21,-7.39 16.43,-14.54 5.17,-7.15 8.19,-15.92 9.03,-26.3 1.46,-18.12 -4.31,-30.91 -17.31,-38.31 -6.18,-3.54 -15.45,-5.79 -27.75,-6.78 -5.38,-0.44 -10.57,-0.46 -15.58,0.01 -1.9,10.41 -3.9,28.32 -5.94,53.63l-6.79 84.13c-2.07,25.53 -2.69,42.18 -1.94,50.03 0.3,3.18 1.94,5.31 5.02,6.38 1.55,0.58 7.76,1.63 18.69,3.17l1.47 1.73 -0.87 10.76 -1.56 1.53c-10.71,-1.52 -27.22,-3.19 -49.51,-4.99 -23.07,-1.86 -39.63,-2.87 -49.62,-3.01l-1.47 -1.61 0.89 -10.93 1.72 -1.47c10.98,0.23 17.29,0.18 18.97,-0.13 3.14,-0.57 5.11,-2.4 5.91,-5.49 2.06,-7.63 4.05,-24.16 6.12,-49.69l6.87 -85.12c2.06,-25.54 2.75,-42.23 1.94,-50.03 -0.3,-3.18 -1.95,-5.3 -4.96,-6.42 -1.61,-0.52 -7.82,-1.57 -18.7,-3.12l-1.47 -1.71 0.89 -10.92 1.71 -1.36c10.44,1.51 26.94,3.18 49.45,4.99 13.07,1.06 23.74,1.75 31.89,2.07 16.25,0.65 28.41,1.3 36.43,1.95 18.56,1.5 32.04,4.3 40.46,8.29 11.33,5.45 18.56,13.72 21.66,24.75 1.49,5.42 1.99,11.71 1.4,18.9 -2.35,29.16 -20.45,48.53 -54.22,58.14 4.6,9.43 9.58,19.01 14.81,28.72l21.69 40.11c12.79,23.7 21.47,37.33 26,40.85 2.35,1.79 5.74,2.83 10.13,3.19l1.46 1.78 -0.83 10.27zm300.04 6.02l-1.45 1.63c-23.91,-1 -38.27,-1.54 -43.23,-1.61 -19.78,-0.28 -38.19,-0.22 -55.22,0.19l-1.4 -1.68 0.15 -10.13 1.63 -1.8 14.06 -0.56c5.9,-0.25 8.91,-2.3 8.96,-6.15 0.03,-2.26 -1.39,-7.34 -4.3,-15.27l-12.57 -34.23c-14.86,-0.44 -30.01,-0.77 -45.55,-0.99 -8.36,-0.12 -20.82,-0.19 -37.4,-0.21l-7.39 19.56c-5.62,14.9 -8.45,24.23 -8.5,27.97 -0.06,4.08 2.44,6.54 7.5,7.38 2.8,0.49 8.25,1 16.45,1.51l1.57 1.68 -0.15 10.3 -1.63 1.63c-19.87,-0.95 -32.7,-1.47 -38.38,-1.54 -4.4,-0.07 -15.37,0.11 -32.79,0.51l-1.57 -1.51 0.16 -10.47 1.78 -1.63c11.08,-0.44 17.94,-2.55 20.48,-6.31 2.59,-3.71 12.44,-26 29.51,-66.85l43.61 -104.76c3.26,-8.17 8.18,-20.39 14.76,-36.76l22.92 0.33 82.63 202.47c3.19,7.71 6.16,12.05 8.85,13.02 3.5,1.38 8.62,2.11 15.29,2.21l1.4 1.78 -0.15 10.3zm-101.04 -88.29l-33.31 -85.06 -34.28 84.08c8.81,0.46 20.27,0.79 34.36,1 13.66,0.19 24.74,0.18 33.23,-0.02zm316.88 -145.37l-1.29 18.48c-0.27,4.09 -0.52,9.45 -0.73,16.19l-0.44 12.92 -1.52 1.83 -9.36 0.4 -1.66 -1.52c-0.85,-14.53 -2.09,-22.74 -3.67,-24.71 -2.62,-3.25 -17.72,-4.25 -45.24,-3.06 -4.4,0.19 -11.33,0.83 -20.77,1.84 -0.68,11.06 -0.42,30.73 0.8,59.13l0.95 21.75 18.24 -0.3c5.51,-0.13 15.62,-0.79 30.46,-1.99 2.92,-0.24 4.81,-1.09 5.68,-2.68 1.54,-2.66 2.17,-9.75 1.99,-21.37l1.53 -1.72 10.01 -0.44 1.67 1.58c0.13,12.01 0.39,23.09 0.82,33.06 0.47,10.89 1.21,22.72 2.16,35.64l-1.53 1.5 -10.78 0.47 -1.73 -1.52c-0.49,-11.28 -1.21,-17.87 -2.29,-19.81 -1.98,-3.66 -7.64,-5.68 -16.92,-6.05 -6.35,-0.22 -12.58,-0.23 -18.75,0.04 -7.38,0.32 -13.97,0.77 -19.79,1.35l1.67 38.36c1.11,25.48 2.54,42.08 4.26,49.89 0.68,3.12 2.59,5.02 5.76,5.71 0.72,0.2 8.46,0.4 23.13,0.65l1.67 1.53 0.47 10.78 -1.69 1.73 -64.89 1.83c-9.25,0.3 -22,1.18 -38.32,2.66l-1.66 -1.42 -0.48 -10.96 1.53 -1.66c10.92,-1.13 17.17,-1.95 18.8,-2.47 3.05,-0.96 4.78,-3.01 5.19,-6.18 1.09,-7.93 1.02,-24.58 -0.08,-50.06l-3.71 -85.31c-1.11,-25.48 -2.49,-42.13 -4.26,-49.89 -0.68,-3.11 -2.59,-5.02 -5.72,-5.76 -1.66,-0.32 -7.96,-0.59 -18.94,-0.78l-1.66 -1.52 -0.48 -10.96 1.54 -1.56c10.32,0.22 26.9,-0.17 49.69,-1.16 14.75,-0.64 50.95,-2.55 108.67,-5.72l1.65 1.25zm269.34 -13.05c-0.9,8 -1.11,16.28 -0.77,24.76l1.11 26.92 -1.51 1.74 -10.18 0.54 -1.84 -1.39c-1.29,-13.72 -2.33,-21.72 -3.06,-24.05 -1.55,-4.23 -5.1,-6.57 -10.75,-7.04 -2.16,-0.21 -12.3,0.16 -30.34,1.13l-21.57 1.16c-0.01,3.81 0.68,18.72 2.08,44.86l4.91 91.54c1.38,25.59 2.99,42.16 4.78,49.84 0.73,3.11 2.64,5 5.83,5.65 1.62,0.35 7.92,0.57 18.9,0.64l1.73 1.51 0.58 10.77 -1.56 1.75c-10.66,-0.09 -27.23,0.47 -49.67,1.68 -23,1.23 -39.54,2.45 -49.57,3.66l-1.57 -1.41 -0.58 -10.95 1.56 -1.68c10.91,-1.25 17.15,-2.13 18.72,-2.66 3.09,-0.99 4.8,-3.07 5.18,-6.24 0.96,-7.82 0.78,-24.48 -0.59,-50.06l-4.91 -91.54c-1.43,-26.57 -2.4,-41.47 -2.91,-44.81l-23.05 1.24c-19.2,1.03 -30.39,2.24 -33.57,3.62 -1.67,0.7 -2.83,1.59 -3.39,2.56 -0.9,1.82 -1.53,5.27 -1.87,10.47 -0.46,5.71 -0.65,11.62 -0.54,17.63l-1.51 1.74 -10.18 0.54 -1.85 -1.56 -1.81 -27.55c-0.52,-7.69 -1.57,-15.69 -3.21,-23.88l1.4 -1.73c6.38,0.76 29.51,0.07 69.35,-2.07l65.3 -3.51c36.75,-1.97 59.82,-3.76 69.22,-5.38l1.69 1.57zm90.06 171.59c6.86,-0.55 12.94,1.39 18.27,5.88 5.33,4.48 8.29,10.38 8.88,17.69 0.57,7.08 -1.42,13.26 -5.96,18.6 -4.55,5.34 -10.22,8.29 -17.09,8.84 -6.86,0.54 -12.99,-1.51 -18.39,-6.04 -5.4,-4.6 -8.36,-10.39 -8.91,-17.36 -0.57,-7.09 1.41,-13.33 5.95,-18.72 4.54,-5.4 10.27,-8.34 17.25,-8.9zm313.74 -17.17l-5.25 17.29c-20.9,15.33 -45.27,24.78 -73.14,28.41 -55.72,7.26 -96.41,-7.82 -122.13,-45.31 -11.91,-17.28 -19.29,-36.83 -22.11,-58.46 -4.55,-35.02 3.45,-64.4 24,-88.24 21.03,-24.57 52.08,-39.51 93.28,-44.87 26.17,-3.41 52.35,-1.99 78.57,4.26l2.37 2.08c-1.73,15.22 -1.73,32.73 0.03,52.61l-1.27 1.78 -9.45 1.23 -1.81 -1.54c-2.01,-12.85 -3.73,-21.8 -5.26,-26.65 -15.29,-13.34 -35.55,-18.32 -60.74,-15.03 -25.89,3.38 -45.14,14.21 -57.75,32.58 -12.56,18.36 -17.03,41.61 -13.37,69.75 4.97,38.13 21.89,65.65 50.77,82.61 15.41,9.06 34.86,12.07 58.34,9.01 21.31,-2.77 41.46,-11.01 60.41,-24.64l4.52 3.14zm283.06 -155.28c9.18,38.65 5.12,71.61 -12.18,98.93 -16.79,26.58 -44.18,44.35 -82.07,53.35 -35.8,8.5 -66.28,5.09 -91.49,-10.22 -25.21,-15.31 -42.11,-40.91 -50.63,-76.83 -11.95,-50.33 -0.99,-89.79 32.85,-118.27 15.39,-12.94 35.84,-22.44 61.4,-28.5 36.51,-8.67 67.23,-5.89 92.11,8.48 25.2,14.57 41.91,38.92 50.01,73.06zm-46.46 19.65c-7.2,-30.34 -18.99,-53.02 -35.45,-67.98 -16.46,-14.95 -36.42,-19.61 -59.95,-14.02 -31.15,7.39 -48.43,26.22 -51.96,56.62 -1.8,15.54 -0.61,32.25 3.61,50.04 7.69,32.38 19.7,56.48 36.11,72.4 16.92,16.43 37.71,21.74 62.32,15.9 29.85,-7.09 46.42,-26.53 49.67,-58.39 1.76,-16.89 0.28,-35.05 -4.35,-54.57zm414.79 -79.74l-0.54 2.23c-9.56,4.84 -23.98,12.9 -43.42,24.3 -19.87,11.64 -33.96,20.28 -42.37,25.97l-1.99 -0.55 -5.54 -9.46 0.58 -2.19c9.12,-6.11 14.26,-9.75 15.47,-10.98 2.25,-2.27 2.86,-4.93 1.7,-7.89 -2.69,-7.43 -10.49,-22.14 -23.43,-44.24l-55.18 -94.16 6.21 81.86c0.3,4.55 1.9,21.11 4.76,49.64l7.14 70.59 -9.32 5.46c-11.59,-8.67 -26.6,-19.35 -45.17,-32.09l-43.72 -29.93 -80.96 -54.47 56.63 96.63c12.95,22.11 21.98,36.1 27.1,42.1 2.06,2.44 4.64,3.23 7.76,2.35 1.6,-0.43 7.3,-3.12 17.14,-8.13l2.19 0.57 5.54 9.46 -0.63 2.09c-11.03,5.71 -21.13,11.24 -30.3,16.62 -10.7,6.27 -21.27,12.85 -31.68,19.71l-2.13 -0.47 -5.55 -9.46 0.57 -2.19c9.13,-6.11 14.27,-9.77 15.47,-10.98 2.25,-2.27 2.81,-4.9 1.7,-7.89 -2.69,-7.43 -10.54,-22.11 -23.49,-44.21l-43.18 -73.68c-12.95,-22.11 -21.96,-36.17 -27.09,-42.11 -2.07,-2.42 -4.64,-3.22 -7.74,-2.42 -1.63,0.5 -7.32,3.21 -17.12,8.18l-2.18 -0.57 -5.55 -9.46 0.63 -2.09c9.99,-5.09 22.37,-11.95 37.1,-20.59 11.36,-6.66 21.08,-12.75 29.16,-18.24 7.24,5.28 17.44,12.64 30.58,22.12l20.15 13.99 98.58 66.68 -4.02 -55.69 -8.43 -90.65c-1.03,-10.7 -2.57,-22.06 -4.54,-34 10.8,-5.55 18.04,-9.42 21.66,-11.54 18.2,-10.67 31.97,-19.11 41.28,-25.35l2.13 0.47 5.62 9.61 -0.65 2.04c-9.13,6.12 -14.31,9.79 -15.5,10.93 -2.26,2.35 -2.83,4.98 -1.71,7.96 2.71,7.36 10.53,22.12 23.49,44.22l43.18 73.68c12.95,22.11 21.98,36.1 27.1,42.11 2.06,2.44 4.63,3.23 7.76,2.34 1.6,-0.42 7.34,-3.14 17.13,-8.12l2.19 0.57 5.46 9.32z"/>
   <g>
    <path class="fil8" d="M7920.37 6059.5c87.02,-45.18 221.48,-84.4 318.77,-194.98 86.06,-97.59 129.43,-272.6 133.27,-360.45 23.42,-20.18 1.59,276.27 -101.11,379.86 -86.14,86.78 -210.45,151.32 -341.26,213.94 -157.36,75.35 -333.23,190.1 -475.21,255.78 -47.86,22.18 -90.82,22.47 -137.79,-1.23 -47.71,-23.93 -106.41,-9.85 -117.88,42.75 -5.48,24.48 18.57,89.01 55.36,92.06 31.21,1.46 67.91,-29.01 72.4,-12.18 5.34,20.05 -41.02,18.43 -65.19,32.9 -98.6,59.16 47.55,190.38 88.38,123.3 14.79,-24.3 18.48,-59.77 31.51,-53.17 12.35,6.23 -4.55,27.17 -18.41,62.76 -16.89,43.26 11.64,109.74 66.2,102.12 141.92,-19.72 65.71,-180.75 136.23,-220.21 123.54,-69.09 275.32,-148.77 455.46,-186.74 106.91,-22.43 198.47,-66.85 282.77,-115.03 8.63,-4.93 4.96,-9.06 -6.14,-7.72 -25.75,3.11 -56.93,0 -82.13,-21.76 -41.61,-35.95 -52.46,-110.3 -24.18,-130.5 18.65,-13.33 -9.24,73.23 41.23,113.81 36.28,29.17 106.74,14.71 132.79,1.32 38.44,-19.75 71.68,-54.35 106.17,-87.98 156.97,-153.08 216.84,-372.95 219.9,-363.78 14.4,44.57 -58.32,225.06 -196.88,376.05 -116.48,126.91 -282.13,227.31 -459.56,266.42 53.04,77.03 128.86,291.78 243.43,480.94 0.58,-45.78 13.67,-74.02 23.8,-67.33 2.82,1.86 -9.44,22.63 -11.09,59.9 -0.4,8.98 2.94,30.13 10.08,43.87 12.06,23.23 29.01,42.72 44.41,63.45 2.18,-70.84 30.29,-118.91 43.94,-109.87 3.82,2.52 -27.16,53.54 -25.61,111.85 0.29,10.63 -0.06,22.76 9.91,35.08 21.49,26.58 40.53,47.47 64.44,69.84 6.3,-67.07 42.57,-159.07 61.29,-146.69 4.72,3.12 -27.98,52.28 -34.24,124.23 -1.52,17.46 7.34,52.54 21.51,64.07 22.11,17.98 46.36,32.24 71.04,44.51 22.55,-49.25 47.94,-181.43 80.26,-171.33 -163.73,388.04 -109.22,809.55 222.53,1302.2 51.18,76 110.29,96.81 162.7,99.31 52.66,2.5 55.98,-44.55 70.17,-35.88 14.35,8.77 -13.77,61.8 -63.67,63.45 -28.93,0.96 -53.01,-2.44 -84.39,-18.82 -4.68,-2.44 -10.41,1.73 -6.04,8.01 111.37,159.76 168.78,280.42 213.16,482.94 43.4,198.02 -150.95,58.24 -270.33,134.98 -44.31,28.49 -21.06,160.27 11.41,133.28 48.53,-40.19 127.53,-25.14 123.9,-7.04 -0.84,4.61 -29.18,-3.82 -58.44,-0.46 -44.31,5.01 -99.62,44.88 -64.55,129.74 37.77,91.49 150.93,64.07 166.21,2.08 8.61,-34.66 51.65,-64.46 65.28,-49.49 14.8,16.42 -41.79,8.79 -51.57,56.47 -25.48,124.9 247.15,158.36 249.86,-1.17 164.56,96.65 177.21,-124.16 149.43,-198.64 -86.57,-231.62 -247.18,-761.25 -224.69,-1186.63 -56.02,-107.1 -145.73,-138.45 -120.68,-141.18 41.92,-4.55 87.45,28.93 125.67,76.13 1.61,-15.88 3.52,-31.58 5.72,-47.07 -24.69,-119.9 -106.52,-172.22 -80.7,-169.06 38.65,4.72 71.51,40.37 95.66,87.63 6.54,-28.62 14.35,-56.27 23.52,-82.83 -28.54,-118.7 -101.28,-167.98 -78.03,-165.75 40.54,3.9 75.64,50.21 100.32,109.21 27.93,-61.84 64.78,-116.04 112.27,-159.92 146.76,-135.57 863.01,8.17 1126.45,-344.81 277.23,-371.58 168.91,-931.85 -302.89,-776.09 -25.96,8.56 -40.73,55.56 27.61,65.36 449.01,64.4 227.98,816.2 -377.06,773.88 -199.51,-13.88 -405.71,33.52 -579.31,-78.51 80.13,7.25 156.88,-5.26 175.98,-50.13 10.55,-24.74 -85.51,48.16 -248.4,-8.39 -12.32,-12.21 -24.42,-25.52 -36.29,-40.01l-3.71 -4.54c61.37,7.93 117.65,-0.67 141.41,-36.85 13.93,-21.21 -68.07,24.31 -185.26,-16.64 -16.45,-20.13 -30.59,-37.58 -43,-53.37 49.26,12 94.73,10.58 121.34,-13.8 17.46,-16 -63.47,6.28 -163.49,-43.37 -47.46,-70.82 -65.41,-130.5 -143.3,-335.93 -136.71,-360.52 130.55,-1147.74 -291.14,-1533.85 130.27,18.69 487.44,-30.64 452.69,-134.1 -58.44,-5.16 -227.43,20.74 -311.49,31.78 107.11,-77.62 308.96,-31.26 387.15,-105.71 45.48,-43.49 88.25,-107.69 83.82,-160.7 -6.87,-84.32 -79.85,-119.31 -146.81,-154.58 -28.5,-15.02 -55.25,-26.97 -80.15,-36.5 -11.15,117.83 -112.25,145.41 -164.71,107.03 -79.71,-58.31 -47.58,-174.47 4.37,-88.98 11.13,18.32 22.49,28.99 33.79,34.09 0.93,-107.92 36.73,-97.03 42.3,1.56 28.29,-7.83 41.97,-29.51 52.95,-63.94 -132.07,-44.04 -198.87,-17.54 -188.34,-31.42 39.17,-51.62 187.14,-17.22 294.19,38.22 -2.69,-93.7 -44.12,-203.39 -125.11,-276.78 -215.2,-194.65 -453.51,-114.51 -592.93,-14.51 33.11,81.6 32.56,142.54 31.56,192.87 -49.39,-154.63 -99.35,-407.83 -304.68,-494.33 -18.86,151.35 -2.29,452.74 198.98,686.65 -20.89,-5.1 -34.35,-12.42 -45.95,-22.2 -1.14,-2.07 -3.02,-3.78 -5.62,-5.05 -6.75,-6.41 -13.15,-13.73 -20.44,-22.01 -15.53,9.74 -30.67,20.48 -45.43,32.15 -6.79,2.73 -14.05,5.93 -21.8,9.66 -179.72,86.54 -310.19,-22.62 -295.04,7.24 30.49,60.07 140.31,76.43 232.34,64.67 -9.86,11.39 -19.5,23.23 -28.91,35.5 -114.64,79.12 -223.27,39.99 -202.8,60.15 33.13,32.66 92.48,31.72 152.15,13.37 -12.92,20.86 -25.26,42.65 -37.08,65.19 -79.75,60.26 -150.72,56.72 -132.25,68.36 26.17,16.51 62.76,11.92 101.33,-5 -172.11,380.07 -203.4,940.41 -49.58,1332.99zm954.19 -1402.88c-133.08,27.46 -336.87,109.31 -327.59,158.05 3.48,18.3 76.87,-82.39 343.6,-129.96 176.83,-31.54 139.39,-60.15 -16.01,-28.08zm51.23 -129.22c-133.9,-17.93 -365.23,-12.06 -389.34,31.59 -9.06,16.39 121.27,-45.33 384.72,-3.16 174.67,27.96 161,-7.5 4.62,-28.43zm-36.79 61.75c-135.89,3.07 -355.71,42.95 -361.15,87.51 -2.04,16.72 98.08,-60.57 368.26,-60.14 179.13,0.28 151.6,-30.96 -7.11,-27.37zm-413.8 -639.45c9.93,-116.42 40.41,-230.92 137.73,-283.6 21.27,58.14 43.54,138.43 56.19,228.54 -70.38,4.57 -136.59,26.17 -193.92,55.05zm801.6 5186.66c80.98,82.86 150.69,-5.82 129.36,-63.54 -5.83,-15.78 -16.29,-11.85 -18.62,0.95 -5.81,31.94 -34.43,79.07 -87.29,32.96 -54.93,-47.93 -62.43,-10.25 -23.45,29.63zm-1494.66 -3971.45c-118.72,14.27 -236.59,-127.93 -309.09,-201.96 -121.27,-123.82 -177,-203.59 -284.29,-316.08 -93.52,-98.05 -121.22,-207 -238.62,-223.15 -95.18,-13.1 -121.08,99.26 -52.66,104.47 57.96,4.41 103.31,38.51 95.38,46.28 -14.72,14.43 -33.97,-29.03 -98.57,-30.94 -136.09,-4.04 -107.31,182.2 32.17,120.9 30.01,-13.19 84.9,7.94 82.99,22.61 -1.81,13.89 -37.36,-21.46 -77.19,-11.06 -43.85,11.44 -72.92,57.38 -49.65,95.63 46.6,76.6 119.26,-11.85 191.51,24.09 67.55,33.59 144.7,156.46 267.08,292.63 55.75,62.04 159.22,169.11 250.6,244.92 4.79,3.97 11.82,-1.53 11.34,-7.48 -2.13,-26.25 8.55,-40.34 22.09,-48.84 22.42,-14.12 54.13,-10.29 58.57,-2.07 4.54,8.41 -31.28,5.83 -45.86,17.69 -26.72,21.71 -14.2,67.48 3.38,86.33 34.34,36.84 104.11,107.21 103.92,70.84 -0.73,-133.4 5.41,-193.34 36.9,-284.81zm740.59 2175.1c-121.23,126.9 -206.41,313.63 -193.4,733.93 5.68,183.49 15.08,291.59 -1.49,505.21 -15.36,198 -121.14,173.84 -193.15,175.37 -75.64,1.61 -97.88,68.77 -84.18,118.96 14.11,51.72 69.43,73.91 74.33,49.41 6.1,-30.45 52.99,-58.63 70.62,-62.82 38.73,-9.23 64.04,-5.96 61.28,1.48 -1.76,4.8 -30.92,4.83 -54.4,11.46 -23.78,6.73 -54.5,23.91 -60.54,57.9 -4.83,27.13 -9.74,57.45 9.5,92.37 28.87,52.42 150.34,62.29 136.44,6.88 -10.85,-43.26 2.46,-64.37 11.47,-80.96 18.84,-34.65 63.55,-64.47 72.68,-49.48 9.98,16.39 -35.74,10.78 -59.61,58.46 -14.04,28.01 -11.66,52.26 -6.27,70.91 10.39,35.98 46.47,52.94 99.19,48.6 73.52,-6.05 51.29,-103.87 110.05,-84.91 107.52,34.69 123.76,-30.1 106.05,-108.58 -13.28,-58.86 -49.4,-120.48 -52.51,-180.79 -9.66,-187 23.67,-389.59 147.74,-608.74 -143.16,-266.35 -207.07,-524.46 -193.8,-754.65z"/>
    <path class="fil8" d="M8997.24 4162.6c22.76,-108.07 91.49,-281.9 132.98,-284.98 15.57,-1.17 -69.73,76.37 -109.02,291.4 -0.65,3.55 -1.3,6.98 -1.95,10.33l3.23 -6.17c49.21,-93.16 163.8,-234.84 210.33,-227.09 17.46,2.91 -94.02,52.18 -185.29,239.07 -29.45,60.32 -49.77,84.83 -56.26,81.59 -7.82,2.64 -8.51,-35.41 5.98,-104.15z"/>
    <path class="fil4" d="M6906.71 4449.94c-26.43,-19.57 -64.45,-34.61 -103.68,-34.3 -34.72,0.26 -65.27,12.8 -69.63,25.05 -0.24,0.7 4.28,3.09 11.44,2.16 58.19,-7.58 78.03,8.04 126.83,44.85 35.83,27.03 69.77,-12.05 35.04,-37.76z"/>
    <path class="fil4" d="M6858.84 4573.68c-26.46,-15.17 -64.54,-22.63 -103.85,-13.01 -34.78,8.51 -65.4,29.47 -69.77,43.91 -0.24,0.82 4.29,2.37 11.46,-0.34 58.3,-22.07 78.17,-9.67 127.03,19.08 35.88,21.12 69.9,-29.7 35.13,-49.63z"/>
    <path class="fil4" d="M6894.34 4713.53c-29.1,1.26 -62.23,13.09 -85.85,37.38 -20.91,21.49 -31.1,49.8 -25.57,61.83 0.32,0.68 4.67,-0.27 8.39,-5.36 30.28,-41.47 52.76,-41.71 106.95,-43.52 39.8,-1.32 34.33,-51.97 -3.92,-50.32z"/>
    <path class="fil9" d="M7241.54 6390.51c-32.03,-6.2 -72.11,-3.13 -106.24,14.49 -30.2,15.58 -51.16,40.54 -49.36,53.66 0.11,0.74 5.16,0.93 10.99,-3.09 47.36,-32.64 71.84,-27.14 131.29,-15.08 43.66,8.86 55.43,-41.83 13.33,-49.98z"/>
    <path class="fil9" d="M7266.84 6558.24c-28.53,12.75 -56.8,39.53 -70.57,77.34 -12.2,33.46 -10.96,70.83 -0.59,82.89 0.59,0.68 4.54,-2.12 6.21,-9.58 13.49,-60.68 35.82,-69.65 89.14,-92.76 39.17,-16.96 13.3,-74.65 -24.18,-57.89z"/>
    <path class="fil9" d="M7393.98 6689.38c-11.51,26.15 -15.28,60.99 -3.72,93.57 10.22,28.85 31.21,51.63 44.42,52.65 0.75,0.05 1.78,-4.22 -1.18,-9.98 -24.09,-46.83 -14.54,-66.66 7.37,-115.08 16.1,-35.56 -31.77,-55.52 -46.89,-21.16z"/>
    <path class="fil9" d="M8072.34 8812.02c-27.15,11.71 -54.12,37.78 -67.35,75.74 -11.71,33.59 -10.67,71.76 -0.87,84.52 0.56,0.72 4.33,-1.97 5.93,-9.49 13.05,-61.28 42.14,-55.3 92.9,-76.48 37.28,-15.55 5.07,-89.7 -30.62,-74.29z"/>
    <path class="fil9" d="M8175.03 8950.5c-32.5,23.96 -61.08,66.74 -68.67,120.89 -6.73,47.92 4.4,97.88 20.47,111.63 0.92,0.77 5.16,-3.93 5.33,-14.36 1.39,-84.83 27.07,-102.25 88,-146.05 44.76,-32.17 -2.44,-103.58 -45.14,-72.09z"/>
    <path class="fil9" d="M8336.2 9004.43c-20.03,30.47 -31.04,72.84 -20.89,114.76 8.97,37.1 33.6,68.36 51.33,71.63 1.01,0.18 3.14,-4.95 0.1,-12.49 -24.74,-61.37 0.18,-74.38 38.09,-130.74 27.84,-41.39 -42.3,-83.22 -68.63,-43.18z"/>
    <path class="fil9" d="M8869.43 9028.54c-28.29,6.76 -58.14,27.75 -75.84,62.94 -15.68,31.13 -19.29,69.06 -11.14,83.44 0.47,0.81 4.52,-1.18 7.03,-8.34 20.36,-58.29 48.42,-47.2 101.21,-59.12 38.77,-8.76 15.93,-87.81 -21.25,-78.91z"/>
    <path class="fil9" d="M8926.95 9208.6c-32.5,23.96 -61.08,66.74 -68.67,120.89 -6.73,47.92 4.4,97.88 20.47,111.63 0.92,0.77 5.16,-3.93 5.33,-14.36 1.39,-84.83 27.07,-102.25 88,-146.05 44.75,-32.17 -2.44,-103.58 -45.14,-72.09z"/>
    <path class="fil9" d="M9117.41 9295.82c-20.03,30.48 -31.04,72.85 -20.89,114.77 8.97,37.1 33.6,68.36 51.33,71.63 1.01,0.18 3.14,-4.94 0.09,-12.48 -24.73,-61.37 0.18,-74.38 38.1,-130.74 27.84,-41.39 -42.3,-83.23 -68.63,-43.18z"/>
   </g>
  </g>
 </g>
</svg>
