<?xml version="1.0" encoding="UTF-8"?>
<!DOCTYPE svg PUBLIC "-//W3C//DTD SVG 1.1//EN" "http://www.w3.org/Graphics/SVG/1.1/DTD/svg11.dtd">
<!-- Creator: CorelDRAW 2020 (64-Bit) -->
<svg xmlns="http://www.w3.org/2000/svg" xml:space="preserve" width="119.236mm" height="123.753mm" version="1.1" style="shape-rendering:geometricPrecision; text-rendering:geometricPrecision; image-rendering:optimizeQuality; fill-rule:evenodd; clip-rule:evenodd"
viewBox="0 0 92201.24 95694.01"
 xmlns:xlink="http://www.w3.org/1999/xlink"
 xmlns:xodm="http://www.corel.com/coreldraw/odm/2003">
 <defs>
  <style type="text/css">
   <![CDATA[
    .str2 {stroke:#898989;stroke-width:654.72;stroke-miterlimit:22.9256}
    .str0 {stroke:#B9A11C;stroke-width:654.72;stroke-miterlimit:22.9256}
    .str5 {stroke:#B9A11C;stroke-width:261.83;stroke-miterlimit:22.9256}
    .str4 {stroke:#FECD27;stroke-width:327.32;stroke-miterlimit:22.9256}
    .str3 {stroke:white;stroke-width:327.32;stroke-miterlimit:22.9256}
    .str1 {stroke:#F08219;stroke-width:196.33;stroke-miterlimit:22.9256}
    .fil13 {fill:none}
    .fil8 {fill:#FEFEFE}
    .fil10 {fill:#2B2A29}
    .fil7 {fill:#2B2A29}
    .fil6 {fill:#FFED00}
    .fil2 {fill:#FECD27}
    .fil11 {fill:#E31E24}
    .fil5 {fill:#E31E24}
    .fil0 {fill:#00A2D9}
    .fil1 {fill:#00A2D9}
    .fil12 {fill:black}
    .fil4 {fill:white}
    .fil3 {fill:white}
    .fil9 {fill:#B9A11C;fill-rule:nonzero}
    .fil14 {fill:white;fill-rule:nonzero}
   ]]>
  </style>
 </defs>
 <g id="Layer_x0020_1">
  <metadata id="CorelCorpID_0Corel-Layer"/>
  <g>
   <path class="fil0" d="M34470.35 37142.37c5372.42,-8550.08 18055.77,-8550.08 23428.19,0 5372.42,8550 5372.42,28734.96 0,37284.96 -5372.42,8550 -18055.77,8550 -23428.19,0 -5372.42,-8550 -5372.42,-28734.96 0,-37284.96z"/>
   <path id="1" class="fil1" d="M34470.35 37142.37c5372.42,-8550.08 18055.77,-8550.08 23428.19,0 5372.42,8550 5372.42,28734.96 0,37284.96 -5372.42,8550 -18055.77,8550 -23428.19,0 -5372.42,-8550 -5372.42,-28734.96 0,-37284.96zm4626.06 -3741.99c-1582.8,994.5 -2985.43,2357.92 -4073.64,4089.8 -2617.89,4166.36 -3927.03,11219.63 -3927.03,18294.63 0,7075.08 1309.14,14128.35 3927.03,18294.7 1088.22,1731.88 2490.77,3095.15 4073.49,4089.73 2141.48,1345.48 4614.62,2018.46 7088.14,2018.46l0 -2.55c2476.23,0 4949.52,-672.05 7088.22,-2015.9 1582.72,-994.57 2985.27,-2357.84 4073.49,-4089.73 2617.97,-4166.36 3927.03,-11219.63 3927.03,-18294.7 0,-7075 -1309.06,-14128.27 -3927.03,-18294.63 -1088.29,-1731.96 -2490.85,-3095.31 -4073.64,-4089.88 -2141.48,-1345.48 -4614.54,-2018.3 -7087.99,-2018.3l0 2.55c-2476.23,0 -4949.44,671.97 -7088.07,2015.83z"/>
  </g>
  <g>
   <path class="fil0" d="M46397.05 85723.59c5634.33,0 16844.99,890.03 14631.59,-5329.27 566.11,2400.45 3096.39,2182.62 2799.46,4336.09 -1172.27,8499.2 -7901.39,8557.89 -17431.04,8557.89 -9529.66,0 -16258.77,-58.69 -17431.04,-8557.89 -297.01,-2153.47 2233.35,-1935.64 2799.46,-4336.09 -2213.4,6219.3 8997.26,5329.27 14631.59,5329.27z"/>
   <path id="1" class="fil1" d="M61170.92 80852.02c-39.05,-148.16 -86.37,-300.65 -142.28,-457.7 38.74,164.32 86.68,316.34 142.28,457.7zm0 0c756.95,1924.04 2933.77,1872.31 2657.17,3878.39 -1172.27,8499.2 -7901.39,8557.89 -17431.04,8557.89 -9529.66,0 -16258.77,-58.69 -17431.04,-8557.89 -276.67,-2006.08 1900.22,-1954.35 2657.17,-3878.39 -1508.49,5717.22 9281.82,4871.58 14773.87,4871.58 5492.05,0 16282.36,845.64 14773.87,-4871.58zm-29547.74 0c55.6,-141.35 103.54,-293.38 142.28,-457.7 -55.91,157.05 -103.23,309.54 -142.28,457.7zm16694.51 5543.78c-601.45,-8.97 -1167.4,-17.48 -1920.64,-17.48 -753.16,0 -1319.27,8.51 -1920.64,17.48 -3395.18,50.8 -7727.87,115.6 -10545.19,-887.01 -1562.69,-556.13 -2684.47,-1408.27 -3020.22,-2704.03 -124.96,101.45 -250.23,197.8 -373.26,292.37 -548.01,421.43 -1028.83,791.21 -924.67,1546.3 545.85,3957.58 2368.59,5944.1 5151.81,6936.74 2913.9,1039.19 6927,1053.42 11632.17,1053.42 4705.25,0 8718.27,-14.23 11632.17,-1053.42 2783.37,-992.64 4605.96,-2979.16 5151.81,-6936.74 104.08,-755.09 -376.74,-1124.95 -924.67,-1546.3 -123.03,-94.57 -248.37,-190.92 -373.26,-292.37 -335.83,1295.76 -1457.53,2147.9 -3020.22,2704.03 -2817.32,1002.62 -7150.08,937.82 -10545.19,887.01z"/>
  </g>
  <g>
   <path class="fil2" d="M60186.17 77039.74c243.73,-997.98 -2248.66,835.82 -1606.92,2948.39 362.35,1192.84 4816.83,2620.83 5147.71,4633.33 197.18,-1007.57 163.31,-2432.7 -1325.92,-4018.12 -1220.45,-1299.24 -2629.8,-1865.12 -2214.87,-3563.6z"/>
   <path id="1" class="fil3" d="M60186.17 77039.74c243.73,-997.98 -2248.66,835.82 -1606.92,2948.39 362.35,1192.84 4816.83,2620.83 5147.71,4633.33 197.18,-1007.57 163.31,-2432.7 -1325.92,-4018.12 -1220.45,-1299.24 -2629.8,-1865.12 -2214.87,-3563.6zm-699.88 1062.62c-285.95,457.93 -474.48,1066.18 -283.02,1696.55 81.35,267.78 866.99,753.16 1750.83,1299.09 632.3,390.58 1305.74,806.59 1887.93,1268.93 -190.84,-414.01 -483.45,-854.77 -916.71,-1316.02 -287.42,-305.98 -585.52,-569.05 -865.52,-816.11 -760.12,-670.58 -1413.92,-1247.59 -1573.52,-2132.44z"/>
  </g>
  <g>
   <path class="fil2" d="M71429.07 91740.07c1780.45,1960.23 2858.07,-2838.27 6236.78,-4742.6 2794.27,-1574.83 7641.88,900.93 7527.21,-5456.09 375.34,3007.39 1315.4,4350.16 1315.4,6602.22 47.94,2680.76 -4298.97,1273.72 -6919.88,3246.48 -2168.32,1632.06 -2893.79,5765.94 -4985.71,3771.45 -971.22,-925.75 -2608.85,-791.67 -3173.79,-3421.47z"/>
   <path id="1" class="fil3" d="M71429.07 91740.07c1780.45,1960.23 2858.07,-2838.27 6236.78,-4742.6 2794.27,-1574.83 7641.88,900.93 7527.21,-5456.09 375.34,3007.39 1315.4,4350.16 1315.4,6602.22 47.94,2680.76 -4298.97,1273.72 -6919.88,3246.48 -2168.32,1632.06 -2893.79,5765.94 -4985.71,3771.45 -971.22,-925.75 -2608.85,-791.67 -3173.79,-3421.47zm2113.8 533.32c-329.88,299.64 -652.33,507.42 -977.56,590.7 380.14,572.06 873.79,829.87 1341.31,1073.91 404.26,211.02 793.84,414.32 1146.37,750.38 465.04,443.39 798.55,354.77 1104.77,33.64 299.33,-313.95 612.19,-798.86 947.1,-1318.03 572.91,-888.17 1204.59,-1867.36 2092.46,-2535.62 1271.79,-957.23 2818.86,-1189.82 4180.43,-1394.35 1369.15,-205.69 2495.41,-374.96 2478.55,-1320.2l-2.55 -10.21c0,-1117.06 -257.88,-2020.78 -552.34,-3053.09 -17.01,-59.62 -34.18,-119.7 -51.34,-180.17 -898.07,1731.5 -2686.17,1890.95 -4511.62,2053.02 -990.71,88 -1994.95,177.31 -2752.9,604.46 -1357.7,765.22 -2347.79,2086.43 -3157.56,3167.07 -462.41,616.91 -871.55,1162.84 -1285.09,1538.49z"/>
  </g>
  <g>
   <path class="fil0" d="M58644.04 80033.51c-94.18,-616.45 -70.37,-1383.68 406.27,-1900.15 536.26,-580.49 1726.86,-737.46 3452.17,274.74 3724.51,2184.71 9252.9,6218.3 11998,7028.45 5115,1509.96 10762.86,-3118.66 11787.21,2719.42 566.11,-3117.5 3338.58,-4786.52 2689.34,-6976.95 -1235.29,-4166.36 -8793.35,-301.26 -13768.93,-1865.27 -2581.47,-811.31 -6449.27,-4353.95 -9568.47,-5910.31 -1389.25,-693.08 -2901.68,-626.27 -3629.63,-251.93 -597.66,2126.48 -4576.89,4440.87 -3365.95,6881.99z"/>
   <path id="1" class="fil1" d="M58644.04 80033.51c-94.18,-616.45 -70.37,-1383.68 406.27,-1900.15 536.26,-580.49 1726.86,-737.46 3452.17,274.74 3724.51,2184.71 9252.9,6218.3 11998,7028.45 5115,1509.96 10762.86,-3118.66 11787.21,2719.42 566.11,-3117.5 3338.58,-4786.52 2689.34,-6976.95 -1235.29,-4166.36 -8793.35,-301.26 -13768.93,-1865.27 -2581.47,-811.31 -6449.27,-4353.95 -9568.47,-5910.31 -1389.25,-693.08 -2901.68,-626.27 -3629.63,-251.93 -597.66,2126.48 -4576.89,4440.87 -3365.95,6881.99zm1402.32 -3007.15c152.64,-11.14 313.25,-10.67 481.59,2.71 643.82,51.19 1418.56,296.7 2304.49,816.41 1242.02,728.49 2632.89,1627.11 4056.79,2546.98 2944.52,1902.31 6032.25,3897.18 7795.37,4417.52 1821.74,537.73 3784.36,226.34 5542.39,-52.58 2653.93,-421.12 4907.53,-778.14 6068.83,1324.22 318.59,-663.62 696.94,-1256.4 1053.73,-1815.4 682.02,-1068.65 1271.02,-1991.62 1000.92,-2903.07 -569.82,-1922.03 -3224.44,-1625.56 -6222.24,-1290.66 -2371.07,264.84 -4932.9,551.03 -7114.51,-134.7 -1533.31,-481.9 -3405.77,-1804.96 -5327.19,-3162.5 -1481.5,-1046.77 -2993.62,-2115.19 -4338.41,-2786.16 -555.98,-277.29 -1132.6,-415.09 -1654.25,-451.28 -460.71,-31.94 -865.21,11.44 -1161.52,104.55 -327.48,825.77 -1000.92,1614.58 -1691.06,2422.95 -271.42,317.89 -545.93,639.49 -794.92,961.02z"/>
  </g>
  <path class="fil4" d="M47132.89 20462.32c-61.94,-1310.61 7.96,-2702.72 105.16,-4121.12 205.77,-3009.63 -23.97,-6633.31 196.41,-9329.07 73.77,-909.05 435.19,-1558.05 1191.53,-2063.07 766.23,-514.3 1054.12,-1517.46 360.26,-2137.93 -321.76,-290.98 -1497.66,-478.27 -1856.77,49.41 -287.73,457.31 -141.59,1268.93 -433.11,1193.23 -347.27,-90.39 71.84,-774.12 59.85,-1261.27 -50.96,-1987.29 -3269.91,-905.03 -2607.92,280.31 239.71,429.47 742.1,786.95 531.78,926.91 -198.81,132.77 -370.16,-299.8 -787.73,-811.31 -507.26,-622.4 -1750.75,-759.04 -2100.5,126.97 -911.45,2303.64 2160.82,2527.5 2154.32,3924.71 -11.99,2447.31 -104.93,5409.77 -1067.11,8443.99 -520.87,1637.31 -659.83,3238.59 -675.06,4778.24l401.09 0c183.03,-261.52 438.98,-494.19 792.98,-620.78 830.95,-297.09 1934.17,86.3 2138.78,620.78l1596.02 0zm-2079.54 0c-398.85,-203.06 -977.8,-449.58 -1549.24,-222.16 -127.67,50.88 -244.66,127.51 -350.99,222.16l1900.22 0z"/>
  <path class="fil5" d="M48428.97 3488.59c365.99,-429.32 661.14,-1058.68 686.43,-1722.22 22.73,-587.3 -174.53,-1115.13 -387.17,-1199.72 -12.14,-4.72 -57.92,69.67 -47.17,191.54 88.08,990.48 -203.06,1312.16 -890.65,2104.21 -505.1,581.57 157.67,1190.21 638.56,626.19z"/>
  <path class="fil5" d="M45689.59 2441.12c50.96,-537.73 -111.5,-1191.22 -563.25,-1720.44 -399.7,-468.44 -972.61,-767.85 -1242.33,-714.58 -15.31,3.17 -6.8,86.45 91.32,174.99 798.17,719.6 743.26,1131.98 637.09,2131.12 -78.25,733.83 1010.12,835.67 1077.16,128.9z"/>
  <path class="fil5" d="M42633.41 3238.21c-295.39,-395.83 -787.65,-749.06 -1376.49,-852.6 -521.03,-91.79 -1042.59,30.31 -1170.49,220.3 -7.19,10.83 48.33,62.79 160.14,67.27 909.82,36.11 1127.11,348.67 1669.25,1090.61 398.08,545.08 1105.93,-5.34 717.59,-525.59z"/>
  <g>
   <path class="fil2" d="M21276.96 91651.99c-1780.45,1960.23 -2858.07,-2838.27 -6236.78,-4742.6 -2794.27,-1574.83 -7641.88,900.86 -7527.21,-5456.17 -375.27,3007.46 -1315.33,4350.24 -1315.33,6602.3 -47.94,2680.76 4298.97,1273.65 6919.8,3246.48 2168.32,1632.06 2893.87,5765.94 4985.71,3771.45 971.3,-925.75 2608.85,-791.67 3173.79,-3421.47z"/>
   <path id="1" class="fil3" d="M20140.72 92776.01c-325.24,-83.28 -647.69,-291.06 -977.56,-590.7 -413.54,-375.65 -822.68,-921.58 -1285.09,-1538.49 -809.76,-1080.64 -1799.85,-2401.84 -3157.56,-3167.07 -757.96,-427.15 -1762.2,-516.46 -2752.9,-604.46 -1825.45,-162.15 -3613.47,-321.6 -4511.54,-2052.94 -17.17,60.55 -34.33,120.55 -51.34,180.25 -294.54,1032.23 -552.34,1935.87 -552.34,3052.93l-2.55 10.21c-16.86,945.24 1109.41,1114.51 2478.47,1320.12 1361.57,204.53 2908.64,437.05 4180.43,1394.43 887.86,668.26 1519.55,1647.44 2092.46,2535.62 334.9,519.09 647.84,1004.16 947.17,1318.11 306.14,321.06 639.72,409.6 1104.69,-33.71 352.53,-336.06 742.18,-539.35 1146.37,-750.38 467.52,-244.04 961.17,-501.85 1341.31,-1073.91zm1136.24 -1124.02c-1780.45,1960.23 -2858.07,-2838.27 -6236.78,-4742.6 -2794.27,-1574.83 -7641.88,900.86 -7527.21,-5456.17 -375.27,3007.46 -1315.33,4350.24 -1315.33,6602.3 -47.94,2680.76 4298.97,1273.65 6919.8,3246.48 2168.32,1632.06 2893.87,5765.94 4985.71,3771.45 971.3,-925.75 2608.85,-791.67 3173.79,-3421.47z"/>
  </g>
  <g>
   <path class="fil2" d="M32505.17 77186.5c-243.81,-998.05 2189.97,1041.28 1548.23,3153.84 -362.35,1192.84 -4758.14,2415.37 -5088.94,4427.88 -197.26,-1007.57 -163.39,-2432.77 1325.84,-4018.12 1220.45,-1299.24 2629.88,-1865.04 2214.87,-3563.6z"/>
   <path id="1" class="fil3" d="M32505.17 77186.5c-243.81,-998.05 2189.97,1041.28 1548.23,3153.84 -362.35,1192.84 -4758.14,2415.37 -5088.94,4427.88 -197.26,-1007.57 -163.39,-2432.77 1325.84,-4018.12 1220.45,-1299.24 2629.88,-1865.04 2214.87,-3563.6zm924.21 2964.63c190.69,-627.81 17.48,-1260.27 -255.95,-1755.47 -201.9,803.5 -824.46,1353.06 -1541.82,1985.9 -280,247.06 -578.17,510.12 -865.59,816.11 -452.75,481.98 -751.85,941.61 -941.84,1371.7 580.57,-444.63 1253.93,-836.75 1886.54,-1205.06 867.76,-505.25 1640.33,-955.06 1718.66,-1213.18z"/>
  </g>
  <g>
   <path class="fil0" d="M33944.61 80062.9c94.18,-616.45 70.37,-1383.68 -406.35,-1900.15 -536.26,-580.49 -1726.78,-737.46 -3452.09,274.74 -3724.51,2184.63 -9252.9,6218.3 -11998,7028.45 -5115.08,1509.96 -10762.94,-3118.66 -11787.28,2719.42 -566.03,-3117.5 -3338.58,-4786.52 -2689.27,-6976.95 1235.22,-4166.36 8793.27,-301.26 13768.86,-1865.27 2581.55,-811.31 6449.27,-4353.95 9568.55,-5910.38 1389.17,-693 2901.6,-626.19 3629.63,-251.85 597.66,2126.48 4576.89,4440.87 3365.95,6881.99z"/>
   <path id="1" class="fil1" d="M30578.66 73180.91c597.66,2126.48 4576.89,4440.87 3365.95,6881.99 94.18,-616.45 70.37,-1383.68 -406.35,-1900.15 -536.26,-580.49 -1726.78,-737.46 -3452.09,274.74 -3724.51,2184.63 -9252.9,6218.3 -11998,7028.45 -5115.08,1509.96 -10762.94,-3118.66 -11787.28,2719.42 -566.03,-3117.5 -3338.58,-4786.52 -2689.27,-6976.95 1235.22,-4166.36 8793.27,-301.26 13768.86,-1865.27 2581.55,-811.31 6449.27,-4353.95 9568.55,-5910.38 1389.17,-693 2901.6,-626.19 3629.63,-251.85zm1482.04 3877.54c168.34,-13.38 328.95,-13.84 481.59,-2.71 -248.99,-321.52 -523.5,-643.13 -794.92,-961.02 -690.14,-808.37 -1363.58,-1597.18 -1691.06,-2422.95 -296.32,-93.1 -700.81,-136.48 -1161.52,-104.55 -521.65,36.19 -1098.35,173.91 -1654.25,451.2 -1344.79,671.04 -2856.83,1739.31 -4338.33,2786.16 -1921.41,1357.7 -3794.03,2680.76 -5327.34,3162.58 -2181.62,685.73 -4743.45,399.55 -7114.51,134.7 -2997.72,-334.9 -5652.34,-631.37 -6222.16,1290.66 -270.18,911.37 318.82,1834.42 1000.92,2903 356.79,558.99 735.07,1151.86 1053.65,1815.47 1161.29,-2102.28 3414.9,-1745.34 6068.83,-1324.22 1758.02,278.92 3720.65,590.31 5542.46,52.58 1763.05,-520.33 4850.54,-2514.97 7794.91,-4417.21 1424.05,-920.03 2815.15,-1818.72 4057.25,-2547.29 885.93,-519.71 1660.59,-765.22 2304.49,-816.41z"/>
  </g>
  <g>
   <path class="fil6 str0" d="M49874.05 58778.75l0 553.19 0 1648.84 -33.95 17.48c-522.19,-563.25 -1389.95,-978.41 -2414.91,-1124.64 146.22,1024.96 561.55,1892.57 1124.79,2414.76l-17.48 33.95 -1648.84 0 -553.19 0 -1648.84 0 -17.48 -33.95c563.25,-522.19 978.41,-1389.87 1124.64,-2414.91 -1024.96,146.3 -1892.57,561.55 -2414.76,1124.79l-33.95 -17.48 0 -1648.84 0 -553.19 0 -1648.84 33.95 -17.48c522.19,563.25 1389.87,978.49 2414.91,1124.72 -146.3,-1024.96 -561.55,-1892.65 -1124.79,-2414.83l17.48 -33.95 1648.84 0 553.19 0 1648.84 0 17.48 33.95c-563.25,522.19 -978.49,1389.95 -1124.72,2414.91 1024.96,-146.22 1892.65,-561.55 2414.83,-1124.79l33.95 17.48 0 1648.84z"/>
   <path class="fil5 str1" d="M46668.08 52893.34c-267.09,335.21 -417.8,1416.62 -563.56,1998.43 -120.32,479.97 -42.84,529.76 160.76,682.41 -4.64,2.24 -102.84,-17.01 -188.75,23.12 -31.01,94.57 -119.24,268.56 -235.46,250 86.92,372.79 -87.92,418.26 -254.25,482.05 27.91,165.87 -143.9,228.27 -231.36,203.99 -110.04,175.76 -132.15,327.01 -134.01,409.14 -138.49,-92.02 -158.36,-348.36 -122.56,-492.49 -93.72,-75.78 -95.19,-177.54 17.63,-226.49 13.15,-66.81 87.84,-116.61 230.05,-114.21 -52.35,-106.87 41.22,-232.29 1.08,-217.44 -136.95,31.24 -283.87,76.63 -417.41,141.82 7.11,157.82 -67.66,159.6 -185.58,157.51 -3.79,135.55 -5.64,306.37 -329.1,231.98 -166.25,100.6 -7.58,406.82 -111.74,408.75 -149.63,-94.8 -161.84,-228.19 -148.16,-408.21 -135.86,-226.03 -62.33,-452.9 198.27,-470.07 -23.82,-105.63 28.69,-194.32 95.27,-227.19l141.2 -124.88 -120.24 -35.03c-107.95,72.92 -162.85,132.92 -263.76,142.9 -45.39,203.52 -153.11,250.85 -267.86,232.29 -55.91,172.05 -113.52,355.32 -412.46,258.58 -264.69,215.28 -16.08,463.57 -139.88,676.69 -421.66,-437.36 -194.71,-623.72 -122.64,-742.34 -151.17,-264.92 -92.64,-477.49 153.49,-507.11 41.22,-169.5 206.15,-306.14 415.32,-216.44 107.56,-226.41 728.03,-225.1 1253,-103.31 256.11,59.46 432.26,-210.72 467.9,-314.72 180.56,-526.36 379.06,-1820.04 543.22,-2202.34l571.6 102.61z"/>
   <path class="fil5 str1" d="M49255.97 53118.98c-218.91,414.16 -306.14,817.5 -431.17,1500.83 -105.71,577.71 163.7,830.1 362.12,1020.63 -4.1,2.63 -95.58,-21.73 -171.2,27.53 -21.11,117.07 -246.21,98.05 -301.19,183.19 126.12,183.19 151.71,333.36 16.7,394.37 66.81,207.62 -94.34,333.12 -214.19,313.48 -87.3,217.29 50.88,326.78 57.84,430.4 -206.23,37.81 -361.97,-258.97 -286.26,-488.01 -141.12,-143.05 -102.3,-381.68 90.09,-436.82 -114.13,-109.73 -53.82,-275.51 75.16,-299.8 -56.22,-132.85 3.02,-210.02 -32.63,-191.69 -123.1,37.81 -226.41,216.21 -343.79,296.16 86.37,214.58 -62.63,212.65 -241.88,255.26 69.98,163.08 -37.66,358.02 -214.27,334.75 -109.19,121.02 -67.43,277.76 -79.18,442.31 -230.2,-127.82 -197.41,-281.39 -198.88,-504.56 -135.17,-225.18 -1.47,-403.8 179.17,-366.68 -30,-131.15 28.38,-193.78 154.27,-174.99l46.71 -154.5 -39.82 -43.69c-93.33,89.78 -177.31,110.42 -269.1,122.25 1.01,245.98 -392.28,311.16 -537.19,213.89 -37.97,212.96 -142.74,469.3 -424.29,347.66 -45.85,102.3 -58.54,226.34 86.06,479.04 -222.55,0 -441.69,-318.43 -359.18,-579.95 -172.28,-376.89 214.97,-647.22 535.18,-512.6 27.99,-274.59 307.14,-429.78 575.62,-266.31 197.57,-91.55 324.46,-150.09 607.94,-177.39 238.63,-23.04 368.07,-426.07 413.08,-540.2 187.98,-476.41 291.6,-1281.92 412.46,-1755.16l531.85 130.6z"/>
   <path class="fil5 str1" d="M39236.53 44371.95c-179.86,-53.36 -367.38,-52.2 -517.62,16.01 -126.74,57.3 -389.96,95.03 -925.44,150.25 -665.7,68.74 -1232.28,388.41 -1083.04,827.86l63.49 13.76c982.36,-537.65 2565,148.78 3469.8,589.62 -287.04,-574 -909.82,-1142.89 -895.6,-1556.51l-111.58 -40.98zm1139.33 2222.83c-1088.29,-172.59 -2094.62,-93.49 -3344.99,-888.02 -134.24,-85.21 -73.85,-159.99 95.03,-110.27 1339.3,393.82 1931.7,399.47 2816.93,390.89 103.77,-1.01 227.73,50.03 360.65,114.52 66.42,166.1 98.36,331.58 72.38,492.88z"/>
   <path class="fil7" d="M50654.97 49542.55c292.99,38.12 600.05,36.34 886.63,-6.88l-22.12 -82.97c-267.86,28.77 -630.83,35.57 -1064.4,-75.55l-37.5 -9.74c-517.86,-376.74 -999.99,-694.47 -1386.39,-937.12 -351.29,51.5 -423.05,175.84 -956.84,422.59 455.92,-689.06 2803.71,-1169.95 3469.88,-1400.08 -386.56,-308.46 -872.86,-338.54 -1192.84,-402.41 231.21,-168.65 513.22,-320.83 906.42,-502.93 143.67,-51.19 341.4,-43.84 484.22,-30 706.3,68.51 1347.26,-307.14 1717.5,-101.68l31.7 -90.86c-274.05,-270.8 -1052.65,111.5 -1624.63,35.65 -55.21,-7.27 -110.35,-13.61 -165.25,-17.32 834.74,-365.99 1686.18,-650.39 2210.38,-797.86 -420.73,-386.87 -1144.98,-92.1 -1657.73,-283.4 379.52,-105.47 832.19,-289.36 1257.72,-510.36 678.08,-62.87 1373.48,-280.62 1702.27,-100.22l24.28 -95.96c-359.88,-208.16 -859.41,-74 -1376.41,-5.72 635.08,-359.49 1043.83,-712.72 1095.33,-1061 -387.87,61.47 -876.34,118.7 -1624.86,161.77 81.73,-91.09 163.08,-186.36 243.66,-285.03 112.51,-58.54 226.95,-117.3 343.41,-174.76 437.67,-215.82 821.13,-596.27 1122.71,-491.49l-3.56 -102.92c-392.59,-147.08 -754.01,272.65 -1121.62,424.68 -36.11,14.92 -71.99,30.31 -107.48,45.85 353,-460.25 628.12,-901.94 902.09,-1404.79 69.67,-41.29 140.12,-82.43 211.26,-123.1 430.4,-245.82 806.75,-655.34 1104.22,-567.42l-5.8 -95.34c-387.33,-125.27 -741.18,291.52 -1102.68,468.29 -17.32,8.43 -34.56,17.01 -51.73,25.67 475.56,-915.47 688.21,-1654.48 523.42,-1989.38 -285.26,503.86 -1228.26,1247.43 -1572.9,1425.05 158.44,-675.22 266.16,-1349.12 306.52,-1988.45 107.72,-226.1 288.35,-911.84 531.23,-960.01l-29.38 -80.81c-283.94,47.87 -373.8,329.64 -495.28,631.68 32.25,-929.31 -82.51,-1587.13 -403.64,-1967.42 -2.01,487.54 -59.23,912.14 -194.01,1341.93 -38.74,-403.03 -154.89,-735.45 -312.63,-1127.73l-88.31 5.72c170.27,504.32 248.3,959.16 271.49,1460.55 -192.23,515.77 -384.08,844.72 -724.24,1315.94 20.1,-104.55 39.82,-210.41 54.67,-318.74 42.68,-310 0.08,-582.42 -52.97,-923.9l-95.11 5.72c23.51,257.81 76.63,606.94 -2.24,983.13 -40.52,193.55 -104.78,410.99 -147.31,593.64 -272.73,355.32 -510.05,623.79 -839.54,977.02 11.99,-40.98 23.66,-82.2 34.64,-123.72 82.89,-313.64 96.74,-627.74 89,-973.16l-94.18 9.51c-10.67,260.75 -0.77,605.93 -128.21,986.38 -36.58,109.42 -74.85,217.29 -112.97,323.46 -376.66,396.45 -658.9,668.26 -1074.38,1088.53 10.52,-24.13 20.88,-48.48 31.01,-72.92 121.17,-292.99 105.55,-505.41 138.11,-840.15l-111.81 6.26c-41.29,250.69 -57.07,576.93 -231.44,929 -56.91,114.98 -115.76,227.88 -173.83,338.54 -167.18,170.27 -335.91,343.87 -505.17,521.34 -219.84,230.59 -315.96,325.85 -490.02,529.61 150.32,-335.75 148.78,-572.91 185.04,-946.25l-110.81 9.98c-90.39,548.48 -211.41,928 -459.86,1402.78 -883.61,1060.92 -1472.45,1798.54 -3893.32,2685.86 -17.79,-91.09 412.15,-323.84 574.15,-441.84 -489.25,-204.99 -1078.17,-569.28 -1684.02,-980.58 225.25,-22.73 450.66,-91.32 545.08,-217.83l-42.99 -36.5c-165.02,105.94 -429.16,152.64 -672.35,134.39 -152.33,-103.69 -222.86,-145.45 -373.33,-247.68 202.29,-15.08 377.82,-32.71 533.63,-117.23l-18.95 -41.91c-224.48,52.89 -446.79,79.41 -671.2,44.08 -129.29,-87.53 -184.89,-123.26 -310.23,-205.07 198.96,-10.75 462.41,-70.99 590.7,-167.95l-28.38 -46.86c-202.6,75.7 -510.05,133.23 -709.55,122.25 -162.77,-105.24 -250.31,-151.71 -401.71,-239.02 237.7,-26.83 349.21,-59.7 543.3,-140.43l-25.36 -43.23c-288.81,72.46 -431.41,111.35 -689.29,81.97 -48.02,-26.29 -66.73,-36.34 -113.05,-59.85 -76.09,-38.66 -137.64,-69.59 -211.72,-101.76 173.13,-36.81 453.6,-116.84 558.76,-222.7l-36.81 -27.22c-175.14,103.93 -495.51,167.49 -677.92,189.6 -617.92,-243.19 -1737.07,186.9 -1839.21,545.46 -31.16,578.48 1208,1465.65 1016.77,2243.94 69.44,29.38 136.64,59.93 201.75,91.55 -29.77,294.61 -112.2,526.28 -204.61,707.85l63.87 45.31c139.81,-196.56 216.05,-445.71 254.33,-695.78 97.43,51.11 190.15,104.85 278.99,161.15l0.15 1.31c51.04,415.86 -11.06,748.52 -81.89,990.48l83.9 33.1c101.3,-292.99 150.09,-618.84 140.66,-929.93 128.83,89.78 249.38,185.27 363.98,285.95 45.16,269.02 39.98,499.84 22.04,683.57l86.84 20.72c27.68,-189.84 34.1,-389.03 20.18,-586.6 569.2,538.43 1008.49,1210.39 1651.16,1953.12 186.51,444.01 189.3,904.95 108.33,1079.71l101.92 57.45c119.55,-171.12 110.35,-523.89 30,-867.37 141.66,154.42 293.3,311.39 457.93,470.53 134.16,365.14 150.86,714.5 94.8,865.9l104.93 51.58c89.85,-152.95 77.71,-432.57 7.42,-722.46 272.34,249.3 578.33,503.24 928.62,759.66 169.04,123.8 286.5,289.2 363.13,471.77 -244.12,14.92 -449.65,-33.41 -642.51,-159.76l-54.98 82.43c217.6,161.46 487.08,209.01 743.42,203.76 26.21,84.29 44.69,170.81 56.6,257.5 -272.5,118.93 -499.61,208.94 -767.85,74.47l-37.04 55.68c200.2,192.31 527.21,92.41 816.96,-15.31 4.48,62.63 5.64,124.81 3.94,185.74 -227.26,321.83 -582.42,441.61 -820.05,393.52l-10.9 65.8c256.42,99.13 591.32,-50.34 813.09,-248.3 -60.31,420.42 -256.72,718.67 -442.62,560.7 233.37,568.04 392.43,-150.79 898.15,-138.8 215.97,5.18 437.2,167.64 658.9,295.77 148.08,219.99 328.17,431.17 540.82,588.53l40.44 -53.66c-126.04,-116.53 -259.2,-259.35 -386.17,-435.81 112.97,46.71 225.72,69.83 337.61,44.08 101.38,77.09 207.85,145.61 318.51,201.13l26.68 -61.55c-103.23,-66.5 -212.88,-145.68 -324.93,-240.95 -22.42,-99.91 -37.66,-198.81 -42.84,-293.69 93.26,53.66 189.06,100.45 286.5,137.41l18.02 -65.03c-96.58,-49.1 -199.35,-107.48 -305.83,-178.08 3.09,-102.69 20.34,-198.81 55.52,-283.94 85.76,63.49 175.07,120.47 267.55,168.34l27.68 -61.09c-81.5,-53.97 -166.95,-115.99 -254.33,-187.83 48.1,-78.25 115.91,-143.83 207.7,-191.92 100.45,-52.66 213.58,27.61 312.86,172.36 -73.85,163.47 -161.07,297.09 -248.68,407.2l55.83 53.82c104.78,-98.36 190.69,-217.75 261.21,-347.2 35.72,67.35 68.28,142.05 96.12,220.07 -121.94,231.44 -268.4,402.64 -409.14,532.24l48.48 59.23c164.09,-113.13 298.64,-268.63 408.05,-438.44 34.26,130.53 53.51,262.76 50.8,379.29 -60.16,106.56 -125.42,198.19 -190.61,277.37l55.13 54.44c75.16,-68.36 141.12,-147.15 198.96,-232.75 95.42,-18.64 222.78,-37.04 365.99,-51.65 -37.12,164.16 -90.39,303.89 -148.24,422.67l64.57 44.54c95.65,-139.73 159.6,-304.98 200.97,-477.88 142.82,-11.68 296.08,-18.95 446.1,-18.87 31.7,41.29 64.1,82.35 97.51,122.87 233.68,283.87 534.02,577.01 873.48,747.28l26.68 -61.55c-252.08,-162.31 -542.21,-400.09 -812.16,-764.14l-30.93 -41.52c197.41,7.58 380.06,30.54 514.07,76.55 120.78,98.13 249.46,185.12 384.24,252.78l26.68 -61.55c-126.66,-81.58 -262.91,-182.18 -401.48,-308.3 -22.27,-147.46 -37.43,-295.08 -39.36,-436.51 269.33,203.37 583.12,391.12 901.32,477.72l9.59 -67.35c-265.08,-104.08 -579.72,-269.25 -908.05,-550.02 7.5,-133.16 29.69,-258.35 72.3,-369.7 177.23,104.62 364.36,191.62 553.12,242.96l9.59 -67.43c-158.91,-62.4 -335.67,-146.69 -522.5,-264.77 99.6,-188.91 272.81,-326.09 555.51,-375.5 -0.23,74.31 -0.08,150.71 1.31,230.12 5.88,332.81 48.87,654.34 224.32,969.29l46.16 -14.15c-105.55,-258.89 -160.22,-549.33 -145.37,-925.6 3.79,-95.42 6.03,-178.47 12.14,-276.06l13.45 -1.01c111.97,-6.57 228.42,9.98 348.2,46.01 398.54,421.66 891.5,1188.97 875.26,1697.01l58.69 21.81c73.61,-411.45 -228.89,-1095.8 -618.46,-1584.42 177.46,95.89 359.57,225.64 542.99,379.75 127.51,189.14 265.69,385.24 390.04,585.36 236.46,380.45 560.93,1262.82 541.05,1632.83l64.26 8.04c80.81,-358.56 -334.28,-1365.36 -507.03,-1679.07 -41.91,-76.09 -87.61,-150.48 -134.93,-223.78 475.71,468.99 945.94,1058.83 1352.52,1601.82 83.51,319.51 168.19,649.23 260.75,994.03 159.6,594.33 187.44,1072.37 170.2,1441.6l75.55 43.38c68.43,-446.64 -4.48,-990.79 -113.28,-1472.53 -56.45,-249.69 -127.36,-495.9 -194.63,-738.39 42.53,57.84 84.05,114.83 124.73,170.66 110.65,297.09 223.16,603.69 345.34,924.05 211.26,553.89 267.47,1005.17 267.16,1356.08l87.69 36.58c54.21,-427.15 -56.45,-938.44 -204.45,-1388.48 -55.06,-167.26 -118.39,-332.35 -182.41,-495.59 117,161.38 220.23,302.5 306.68,414.32l0 -0.31c30.31,65.26 60.47,130.91 90.47,196.95 241.95,533.32 295.93,979.34 326.32,1335.43l92.95 20.1c12.6,-440.76 -110.5,-949.8 -285.49,-1386.39 -54.98,-137.18 -117.15,-271.49 -181.25,-404.19 195.64,-1396.52 -658.59,-2798.6 -1803.72,-4006.91l4.41 0.93 17.17 3.17 0 0.08 17.17 3.09 0 0 17.17 3.09 17.24 3.02 17.24 2.86 17.32 2.78 17.24 2.71 17.32 2.63 17.32 2.47 0 0 17.32 2.4 17.4 2.32 17.32 2.17 17.32 2.09 17.4 1.93 17.4 1.86 0 0 17.32 1.7 0 0.08 17.4 1.55 17.32 1.55 17.32 1.39 17.32 1.24 17.32 1.08 17.32 1.01 17.24 0.85 17.24 0.7 17.24 0.62 17.17 0.46 17.17 0.31 17.17 0.15 17.01 0.08 17.09 -0.15 17.01 -0.23 16.93 -0.46 16.93 -0.54 16.93 -0.77 16.78 -0.85 16.78 -1.01 16.78 -1.24 16.63 -1.39 16.55 -1.55 16.55 -1.62 16.47 -1.93 16.39 -2.01 16.32 -2.24 16.24 -2.4 16.24 -2.55 16.08 -2.78 16.01 -2.94 15.93 -3.17 15.85 -3.33 15.7 -3.48 -26.99 -70.52 0 0 -12.91 1.24 0 0 -12.99 1.08 -0.08 0 -13.07 1.08 -0.08 0 -13.22 1.01 0 0 -13.38 1.01 0 0 -13.45 0.85 -0.08 0 -13.53 0.85 0 0 -13.76 0.7 0 0 -13.76 0.7 -0.08 0 -13.92 0.54 0 0 -14 0.54 -0.08 0 -14.07 0.46 -0.08 0 -14.23 0.31 0 0 -14.38 0.31 -0.08 0 -14.46 0.15 0 0 -14.61 0.08 0 0 -14.77 0.08 0 0 -14.85 -0.08 0 0 -14.92 -0.15 -0.08 0 -15 -0.31 -15.23 -0.39 -15.31 -0.39 -15.39 -0.62 0 0 -15.54 -0.62 0 0 -15.62 -0.77 -15.77 -0.85 -15.85 -1.01 0 0 -16.01 -1.08 0 0 -16.08 -1.16 -16.24 -1.31 -16.24 -1.39 -0.08 0 -16.39 -1.55 -16.55 -1.7 -16.7 -1.78 -16.78 -1.86 0 -0.08 -16.86 -1.93 0 -0.08 -17.01 -2.09 -17.09 -2.32 -17.24 -2.4 0 0c-11.52,-1.62 -23.12,-3.33 -34.8,-5.18l0 0 -17.55 -2.86 -17.71 -2.94 -17.79 -3.02 -17.94 -3.25 -18.02 -3.4 -18.09 -3.48 0 0c-18.25,-3.63 -36.58,-7.42 -55.13,-11.44l0 0c-18.48,-4.02 -37.27,-8.27 -56.06,-12.76l-0.08 0 -18.87 -4.56 0 0 -19.02 -4.79 -0.08 0c-30.39,-7.66 -61.32,-16.01 -92.64,-24.9 -105.55,-107.64 -213.11,-213.81 -322.37,-317.97 158.67,7.96 314.64,-0.77 458.93,-33.87l-26.99 -70.52c-158.6,15.23 -343.1,17.09 -553.43,-10.21 -140.43,-130.84 -283.02,-258.66 -426.61,-383.15 277.6,13.3 563.17,-15.23 805.05,-103.23l-32.86 -77.4c-242.26,52.89 -542.99,106.32 -924.75,49.64 -103.39,-87.61 -207.08,-173.37 -310.62,-257.34 77.87,-5.1 153.96,-14.85 227.11,-29.93l-22.27 -79.96c-99.75,7.19 -208.78,13.22 -327.56,11.14 -174.06,-138.8 -347.35,-272.27 -517.86,-399.78zm1502.3 -1367.99l-37.58 8.04c-113.52,-161.46 -312.32,-221.08 -541.44,-248.06 -632.45,-74.23 -1415,230.74 -1793.98,346.73 266.7,148.08 380.45,274.82 674.52,418.03 421.04,204.99 717.82,313.1 1008.88,341.09l6.19 35.49c-363.98,6.96 -706.69,-104.24 -1053.19,-252.94 -383.62,-164.71 -709.63,-436.97 -1078.4,-558.92 421.2,-105.4 1525.11,-517.78 2232.42,-444.09 275.75,28.69 491.18,131.22 582.58,354.62zm-7408.2 -2413.75c38.9,-226.41 40.36,-466.43 18.79,-716.28 -138.96,-588.53 -388.8,-1087.6 -842.94,-1744.57l24.67 -105.32c251,304.74 475.33,575.62 697.56,1076.46 -110.04,-624.64 -245.74,-1035.48 -310.85,-1691.37 -134.39,-272.58 -297.32,-556.13 -488.55,-862.73l39.75 -77.64c134.55,188.14 281.39,385.24 430.48,663.23 -28.15,-408.67 -1.62,-653.18 124.57,-1038.34 1.39,-4.25 -336.91,-589.92 -360.57,-932.71l84.6 -46.71c39.59,280.7 158.36,451.97 343.79,781.54 97.04,-302.58 159.68,-561.62 242.65,-879.36 4.02,-576.16 -100.68,-1272.33 -316.19,-1643.11l88.38 -33.71c223.16,325.16 328.72,696.25 371.17,1176.45 102.54,-429.09 128.13,-658.13 192.62,-1096.8 -97.04,-462.95 -280.08,-953.9 -486.46,-1213.87l76.32 -58.85c203.83,236.77 364.21,539.66 465.66,911.37 39.67,-308.61 44.54,-493.03 59.46,-798.55 -143.21,-548.79 -391.89,-1211.86 -646.45,-1569.81l69.13 -37.81c254.25,313.1 441.53,748.14 599.98,1211.48 9.67,-445.71 -21.5,-808.91 -78.41,-1230.11 368.38,312.86 601.68,595.34 961.94,1296.15 -57.3,-343.56 -150.48,-681.02 61.71,-858.4l62.56 46.01c-168.88,150.86 63.33,948.26 99.13,1220.45 138.26,286.73 249.76,522.5 413.08,914.39 -79.8,178.39 -182.95,345.73 -269.33,527.29 -165.79,348.74 -213.03,806.67 -347.2,941.06l39.59 11.91c179.09,-200.59 274.28,-589.38 427.15,-860.03 93.49,-165.48 171.82,-331.58 255.72,-490.64 97.74,-167.57 161.46,-258.27 246.29,-414.7 -3.25,-418.26 -34.49,-753.93 -171.82,-1104.84l76.71 -9.28c139.5,238.48 199.35,511.59 229.43,858.56 79.49,-178.78 126.51,-360.03 141.2,-595.49 184.97,415.17 349.9,928.54 299.02,1719.51 72.53,-235.46 179.09,-359.57 353.23,-470.46l38.35 83.98c-194.55,142.67 -270.02,591.63 -421.35,947.41 -42.07,96.89 -90.55,368 -132.85,509.12 -130.14,131.92 -307.22,364.36 -443.31,495.43 -296.62,285.8 -605.24,577.55 -698.03,741.79l37.19 23.2c145.68,-201.44 494.89,-477.18 750.3,-691.76 117.85,-99.06 270.02,-295.85 378.36,-394.91 389.11,-215.2 759.97,-480.28 1011.2,-696.64 14.54,364.13 -103.54,887.48 -346.58,1485.29 240.64,-247.99 493.96,-524.82 758.73,-594.33l36.03 122.18c-270.41,102.23 -625.57,533.55 -924.98,837.37 -41.37,42.14 -307.99,483.21 -393.82,611.58 -190.38,125.19 -389.42,294.54 -648.62,416.02 -342.09,160.3 -623.1,476.25 -726.95,581.65l25.44 28.15c123.03,-108.33 513.37,-366.76 788.73,-488.09 246.9,-108.8 461.41,-281.24 682.79,-394.83 171.67,-64.41 342.56,-92.33 549.87,-118.23 -519.63,584.51 -260.59,1596.95 -533.55,2403.39 -278.3,346.96 -888.17,999.37 -2352.51,1644.58 -254.64,-89.31 -513.76,-205.38 -712.02,-326.7z"/>
   <ellipse class="fil8" cx="41204.44" cy="44895.99" rx="600.81" ry="536.17"/>
   <ellipse class="fil7" cx="40947.46" cy="44832.92" rx="245.22" ry="242.31"/>
   <path class="fil7" d="M41619.51 44885.94c73.07,266.08 -21.03,509.43 -213.5,592.32 108.8,-115.29 150.63,-305.44 94.8,-508.81 -84.44,-307.53 -360.19,-529.07 -615.98,-494.81 -34.33,4.64 -66.66,13.69 -96.58,26.52 55.68,-58.92 128.83,-98.36 215.35,-109.96 255.72,-34.26 531.47,187.21 615.91,494.74z"/>
   <path class="fil8 str2" d="M46601.12 62054.07c3013.42,0 5456.24,2731.25 5456.24,6100.3 0,2222.29 -521.03,4249.87 -1378.27,5789.13l-993.88 -395.06c466.9,-1134.3 742.88,-2535.23 742.88,-4051.61 0,-2645.65 -1713.4,-4790.46 -3826.97,-4790.46 -2113.49,0 -3826.89,2144.81 -3826.89,4790.46 0,1516.37 275.98,2917.3 742.8,4051.61l-993.8 395.06c-857.32,-1539.26 -1378.27,-3566.84 -1378.27,-5789.13 0,-3369.04 2442.83,-6100.3 5456.17,-6100.3zm3350.72 2723.91l-346.11 232.21 548.86 818.12 346.11 -232.21 -548.86 -818.12zm-6782.55 0l346.11 232.21 -548.94 818.12 -346.04 -232.21 548.86 -818.12zm8116.9 2791.57l-416.56 14.61 34.56 984.52 416.56 -14.61 -34.56 -984.52zm-9451.25 0l416.48 14.61 -34.56 984.52 -416.48 -14.61 34.56 -984.52zm9410.49 3060.82l-408.52 -82.51 -195.1 965.65 408.52 82.51 195.1 -965.65zm-9369.74 0l408.52 -82.51 195.1 965.65 -408.59 82.51 -195.02 -965.65z"/>
   <g>
    <path class="fil9" d="M39017.23 50824.78l-432.95 -1339.76 96.97 -31.39 432.95 1339.76 -73.85 59.93 -23.12 -28.53zm96.97 -31.39c8.66,26.76 -6.03,55.52 -32.79,64.18 -26.76,8.66 -55.52,-6.03 -64.18,-32.79l96.97 -31.39zm-800.25 -475.09l777.13 446.56 -50.73 88.46 -777.13 -446.56 -17.24 -72.22 67.97 -16.24zm-50.73 88.46c-24.36,-14 -32.86,-45.24 -18.87,-69.59 14,-24.36 45.24,-32.86 69.59,-18.87l-50.73 88.46zm-387.02 490.17l369.78 -562.4 85.21 55.98 -369.78 562.4 -85.21 0 0 -55.98zm85.21 55.98c-15.39,23.51 -47.09,30 -70.6,14.61 -23.51,-15.39 -30,-47.09 -14.61,-70.6l85.21 55.98zm-369.78 -618.38l369.78 562.4 -85.21 55.98 -369.78 -562.4 17.24 -72.22 67.97 16.24zm-85.21 55.98c-15.39,-23.51 -8.89,-55.21 14.61,-70.6 23.51,-15.39 55.21,-8.89 70.6,14.61l-85.21 55.98zm-759.89 374.34l777.13 -446.56 50.73 88.46 -777.13 446.56 -73.85 -59.93 23.12 -28.53zm50.73 88.46c-24.36,14 -55.6,5.49 -69.59,-18.87 -14,-24.36 -5.49,-55.6 18.87,-69.59l50.73 88.46zm460.94 -1383.37l-437.82 1354.84 -96.97 -31.39 437.82 -1354.84 77.64 -26.14 19.33 57.53zm-96.97 -31.39c8.66,-26.76 37.43,-41.45 64.18,-32.79 26.76,8.66 41.45,37.43 32.79,64.18l-96.97 -31.39zm-870.39 -1914.76l101.92 0 0 0 1.01 77.33 3.02 76.55 4.95 75.78 6.96 75.01 8.82 74.23 10.59 73.23 12.45 72.3 14.31 71.37 16.01 70.37 17.63 69.21 19.41 68.12 21.11 66.81 22.66 65.8 24.2 64.34 25.83 63.1 27.22 61.78 28.69 60.31 30.16 58.85 31.63 57.38 32.86 55.75 34.18 54.13 35.49 52.5 36.73 50.8 37.97 49.1 39.05 47.32 40.21 45.47 41.29 43.53 42.37 41.68 43.46 39.59 44.31 37.74 45.31 35.57 46.24 33.56 -58.3 83.67 -49.33 -35.88 -48.41 -38.04 -47.25 -40.06 -46.09 -42.22 -45 -44.15 -43.77 -46.16 -42.53 -48.1 -41.22 -49.8 -39.98 -51.73 -38.59 -53.43 -37.35 -55.13 -35.88 -56.91 -34.41 -58.38 -33.02 -60.01 -31.55 -61.47 -29.93 -62.94 -28.46 -64.41 -26.91 -65.73 -25.13 -67.12 -23.58 -68.28 -21.88 -69.59 -20.18 -70.75 -18.4 -71.84 -16.63 -73 -14.77 -74 -12.91 -75.08 -11.06 -75.86 -9.12 -76.86 -7.11 -77.64 -5.1 -78.56 -3.17 -79.18 -1.01 -79.96 0 0zm734.68 -1798.15l-52.43 87.38 62.02 -7.42 -35.88 36.58 -35.03 37.81 -34.26 39.36 -33.48 40.67 -32.55 41.91 -31.7 43.23 -30.78 44.54 -29.93 45.7 -28.84 46.94 -27.99 48.1 -26.99 49.18 -25.83 50.34 -24.9 51.42 -23.82 52.43 -22.73 53.51 -21.57 54.52 -20.57 55.44 -19.33 56.29 -18.09 57.3 -16.93 58.15 -15.7 59 -14.54 59.77 -13.07 60.62 -11.91 61.32 -10.59 62.02 -9.28 62.71 -7.81 63.49 -6.5 64.03 -5.1 64.57 -3.63 65.19 -2.24 65.8 -0.77 66.27 -101.92 0 0.77 -68.59 2.24 -67.97 3.79 -67.51 5.26 -66.89 6.8 -66.35 8.12 -65.65 9.59 -65.03 10.9 -64.34 12.37 -63.64 13.69 -62.79 15 -62.09 16.32 -61.32 17.55 -60.31 18.87 -59.62 20.1 -58.61 21.34 -57.76 22.5 -56.68 23.66 -55.83 24.9 -54.75 25.98 -53.59 27.06 -52.66 28.22 -51.5 29.23 -50.42 30.39 -49.1 31.32 -48.02 32.32 -46.71 33.41 -45.55 34.26 -44.23 35.34 -42.84 36.11 -41.52 37.19 -40.13 38.04 -38.74 62.02 -7.42zm-62.02 7.42c20.03,-19.72 52.35,-19.56 72.07,0.46 19.72,20.03 19.56,52.35 -0.46,72.07l-71.6 -72.53zm326.86 270.49l-317.27 -190.53 52.43 -87.38 317.27 190.53 7.27 82.12 -59.7 5.26zm52.43 -87.38c24.13,14.46 31.94,45.78 17.48,69.9 -14.46,24.13 -45.78,31.94 -69.9,17.48l52.43 -87.38zm-538.73 1470.6l-101.92 0 0 0 0.62 -57.53 2.09 -57.14 3.25 -56.6 4.64 -56.06 5.8 -55.52 7.11 -54.9 8.35 -54.44 9.51 -53.59 10.75 -52.97 11.91 -52.43 12.99 -51.5 14.15 -50.88 15.31 -49.95 16.32 -49.26 17.48 -48.33 18.4 -47.48 19.49 -46.63 20.49 -45.7 21.5 -44.62 22.42 -43.69 23.43 -42.76 24.36 -41.6 25.21 -40.52 26.14 -39.44 27.06 -38.28 27.84 -37.19 28.77 -35.88 29.54 -34.64 30.31 -33.48 31.16 -32.17 31.94 -30.78 32.63 -29.38 66.96 76.86 -30 27.06 -29.46 28.46 -28.84 29.69 -28.15 31.01 -27.53 32.32 -26.76 33.41 -25.98 34.72 -25.36 35.8 -24.44 36.96 -23.82 38.2 -22.81 39.13 -22.19 40.29 -21.19 41.22 -20.26 42.3 -19.41 43.23 -18.56 44.15 -17.48 45.16 -16.55 46.01 -15.54 46.78 -14.54 47.63 -13.53 48.41 -12.37 49.18 -11.44 49.95 -10.13 50.65 -9.2 51.27 -7.89 51.96 -6.8 52.58 -5.64 53.05 -4.33 53.74 -3.25 54.28 -1.93 54.67 -0.62 55.21 0 0zm1128.27 1621.85l0 101.92 0 0 -64.34 -2.32 -63.49 -6.88 -62.56 -11.21 -61.47 -15.62 -60.31 -19.72 -59.08 -23.82 -57.69 -27.68 -56.29 -31.47 -54.75 -35.11 -53.2 -38.66 -51.58 -42.07 -49.8 -45.31 -48.1 -48.48 -46.16 -51.5 -44.39 -54.44 -42.3 -57.22 -40.29 -60.01 -38.28 -62.63 -35.96 -65.03 -33.79 -67.43 -31.55 -69.67 -29.15 -71.91 -26.68 -73.92 -24.28 -76.01 -21.57 -77.79 -18.95 -79.49 -16.32 -81.19 -13.38 -82.74 -10.59 -84.29 -7.73 -85.45 -4.64 -86.76 -1.55 -87.92 101.92 0 1.55 84.21 4.48 83.2 7.27 81.89 10.13 80.57 12.91 79.03 15.54 77.64 18.02 75.93 20.65 74.08 23.04 72.3 25.44 70.21 27.61 68.2 29.85 66.11 31.94 63.72 33.95 61.32 35.96 58.77 37.81 56.29 39.51 53.51 41.29 50.73 42.92 47.79 44.39 44.77 45.78 41.76 47.25 38.51 48.56 35.26 49.64 31.86 50.88 28.38 51.81 24.9 52.89 21.34 53.82 17.55 54.67 13.92 55.44 9.98 56.22 6.11 57.07 2.01 0 0zm1128.35 -1621.85l101.92 0 0 0 -1.55 87.92 -4.64 86.76 -7.73 85.45 -10.59 84.29 -13.38 82.74 -16.32 81.19 -18.95 79.49 -21.57 77.79 -24.28 76.01 -26.68 73.92 -29.15 71.91 -31.55 69.67 -33.79 67.43 -36.03 65.03 -38.2 62.56 -40.29 60.08 -42.37 57.22 -44.31 54.44 -46.16 51.5 -48.1 48.48 -49.88 45.31 -51.5 42.07 -53.2 38.66 -54.82 35.11 -56.22 31.47 -57.76 27.68 -59.08 23.82 -60.24 19.72 -61.55 15.62 -62.56 11.21 -63.49 6.88 -64.34 2.32 0 -101.92 57.07 -2.01 56.22 -6.11 55.6 -9.98 54.59 -13.92 53.74 -17.55 52.89 -21.34 51.89 -24.9 50.8 -28.38 49.72 -31.86 48.56 -35.26 47.17 -38.51 45.85 -41.76 44.39 -44.77 42.92 -47.79 41.22 -50.73 39.59 -53.51 37.81 -56.22 35.88 -58.85 34.02 -61.32 31.94 -63.72 29.85 -66.11 27.61 -68.2 25.44 -70.21 23.04 -72.3 20.65 -74.08 18.02 -75.93 15.54 -77.64 12.91 -79.03 10.13 -80.57 7.27 -81.89 4.48 -83.2 1.55 -84.21 0 0zm-1128.35 -1621.93l0 -101.92 0 0 64.34 2.32 63.49 6.88 62.56 11.21 61.55 15.54 60.24 19.8 59.08 23.82 57.76 27.68 56.22 31.47 54.82 35.11 53.2 38.66 51.5 42.07 49.88 45.31 48.1 48.48 46.16 51.5 44.31 54.44 42.37 57.22 40.29 59.93 38.2 62.63 36.03 65.11 33.79 67.43 31.55 69.67 29.15 71.91 26.68 73.92 24.28 76.01 21.57 77.79 18.95 79.49 16.32 81.19 13.38 82.82 10.59 84.21 7.73 85.52 4.64 86.76 1.55 87.92 -101.92 0 -1.55 -84.21 -4.48 -83.2 -7.27 -81.97 -10.13 -80.5 -12.91 -79.11 -15.54 -77.64 -18.02 -75.93 -20.65 -74.08 -23.04 -72.3 -25.44 -70.21 -27.61 -68.2 -29.85 -66.11 -31.94 -63.72 -34.02 -61.4 -35.88 -58.77 -37.81 -56.22 -39.59 -53.51 -41.22 -50.73 -42.92 -47.79 -44.39 -44.77 -45.85 -41.76 -47.17 -38.51 -48.56 -35.26 -49.72 -31.86 -50.8 -28.38 -51.89 -24.9 -52.89 -21.34 -53.74 -17.63 -54.59 -13.84 -55.6 -9.98 -56.22 -6.11 -57.07 -2.01 0 0zm-127.59 5.8l27.68 -98.05 -20.65 -1.47 3.63 -0.54 4.1 -0.46 3.48 -0.39 3.56 -0.46 4.02 -0.46 3.63 -0.39 3.48 -0.39 3.48 -0.39 4.18 -0.46 4.1 -0.39 3.48 -0.31 3.48 -0.31 3.63 -0.31 4.1 -0.31 4.1 -0.31 3.56 -0.23 3.56 -0.23 3.56 -0.23 4.1 -0.23 3.56 -0.15 3.63 -0.23 4.18 -0.23 3.48 -0.15 4.18 -0.15 4.1 -0.08 3.63 -0.08 3.56 -0.08 3.56 -0.08 3.63 -0.08 4.1 -0.08 4.18 0 3.56 0 0 101.92 -3.56 0 -3.09 0 -3.02 0.08 -3.63 0.08 -3.56 0.08 -3.56 0.08 -3.63 0.08 -3.02 0.08 -2.94 0.15 -3.63 0.15 -3.09 0.08 -3.48 0.23 -3.56 0.15 -3.02 0.23 -3.56 0.23 -3.56 0.23 -3.56 0.23 -3.02 0.15 -3.02 0.31 -3.48 0.31 -3.48 0.31 -3.63 0.31 -3.02 0.23 -2.94 0.31 -3.48 0.39 -3.63 0.39 -3.48 0.39 -2.94 0.31 -3.56 0.46 -3.48 0.39 -3.02 0.46 -3.33 0.39 -20.65 -1.47zm20.65 1.47c-27.84,3.71 -53.59,-15.85 -57.3,-43.69 -3.71,-27.84 15.85,-53.59 43.69,-57.3l13.61 100.99zm-556.06 -258.27l563.09 158.75 -27.68 98.05 -563.09 -158.75 -13.69 -91.94 41.37 -6.11zm-27.68 98.05c-27.06,-7.58 -42.76,-35.8 -35.18,-62.87 7.58,-27.06 35.8,-42.76 62.87,-35.18l-27.68 98.05zm690.68 -305.52l0 101.92 0 0 -21.73 0.23 -21.57 0.62 -21.57 1.01 -21.42 1.39 -21.34 1.86 -21.26 2.24 -21.19 2.63 -21.26 3.09 -21.03 3.4 -20.88 3.71 -20.88 4.25 -20.8 4.56 -20.65 5.03 -20.65 5.34 -20.57 5.64 -20.34 6.11 -20.34 6.42 -20.26 6.88 -20.03 7.19 -20.03 7.5 -19.95 7.96 -19.72 8.27 -19.72 8.66 -19.64 9.05 -19.49 9.36 -19.33 9.67 -19.25 10.05 -19.1 10.36 -19.1 10.75 -18.87 11.06 -18.71 11.37 -18.64 11.83 -55.06 -85.83 20.03 -12.6 20.26 -12.29 20.26 -11.83 20.34 -11.52 20.65 -11.29 20.8 -10.83 20.88 -10.44 21.03 -10.13 21.19 -9.67 21.26 -9.43 21.42 -8.89 21.5 -8.58 21.73 -8.27 21.88 -7.81 21.96 -7.35 22.04 -7.04 22.19 -6.57 22.27 -6.26 22.35 -5.8 22.5 -5.34 22.66 -5.03 22.73 -4.56 22.89 -4.18 22.89 -3.71 22.97 -3.25 23.2 -2.94 23.12 -2.4 23.35 -2.01 23.43 -1.55 23.43 -1.16 23.58 -0.62 23.58 -0.23 0 0zm1641.57 2217.42l-101.92 0 0 0 -2.09 -109.65 -5.95 -108.1 -9.98 -106.56 -13.76 -104.7 -17.48 -103 -21.03 -100.83 -24.51 -98.82 -27.91 -96.5 -31.16 -94.03 -34.49 -91.55 -37.5 -88.93 -40.52 -85.91 -43.3 -83.13 -46.16 -79.88 -48.79 -76.79 -51.34 -73.38 -53.82 -69.9 -56.14 -66.19 -58.3 -62.48 -60.55 -58.61 -62.48 -54.59 -64.49 -50.42 -66.27 -46.24 -67.89 -41.83 -69.52 -37.35 -71.06 -32.71 -72.46 -28.07 -73.77 -23.2 -75.01 -18.25 -76.24 -13.15 -77.25 -8.04 -78.41 -2.71 0 -101.92 85.37 2.86 84.21 8.82 83.05 14.38 81.66 19.8 80.11 25.21 78.49 30.39 76.79 35.34 74.93 40.29 73 44.93 70.91 49.49 68.82 53.82 66.5 58.15 64.26 62.17 61.86 66.19 59.23 69.9 56.6 73.61 53.97 77.09 51.27 80.5 48.33 83.74 45.31 86.84 42.22 89.78 39.05 92.64 35.88 95.27 32.55 97.9 29 100.22 25.44 102.54 21.81 104.7 18.09 106.71 14.23 108.57 10.28 110.27 6.26 111.97 2.09 113.36 0 0zm-892.66 1929.84l-96.97 31.39 20.1 -58.07 47.32 -33.02 46.32 -35.18 45.47 -37.35 44.31 -39.44 43.46 -41.52 42.37 -43.3 41.14 -45.47 40.13 -47.32 38.82 -49.18 37.74 -50.96 36.27 -52.74 35.11 -54.44 33.79 -56.14 32.32 -57.69 30.93 -59.39 29.54 -60.86 27.99 -62.17 26.45 -63.79 24.9 -65.11 23.28 -66.35 21.57 -67.66 19.87 -68.9 18.25 -70.06 16.47 -71.22 14.61 -72.22 12.84 -73.31 10.98 -74.23 9.05 -75.24 7.04 -76.09 5.18 -76.79 3.02 -77.64 1.08 -78.41 101.92 0 -1.08 81.04 -3.17 80.42 -5.34 79.57 -7.35 78.72 -9.36 77.87 -11.29 77.02 -13.3 75.93 -15.23 75.01 -17.09 73.85 -18.87 72.69 -20.65 71.68 -22.5 70.29 -24.2 69.13 -25.98 67.74 -27.53 66.42 -29.23 64.95 -30.78 63.49 -32.32 62.02 -33.87 60.47 -35.34 58.77 -36.81 57.22 -38.28 55.37 -39.59 53.59 -40.98 51.81 -42.3 49.95 -43.61 48.1 -44.85 46.09 -46.09 44 -47.25 41.91 -48.41 39.82 -49.57 37.66 -50.57 35.34 20.1 -58.07zm-20.1 58.07c-23.35,15.62 -55.13,9.36 -70.75,-14 -15.62,-23.35 -9.36,-55.13 14,-70.75l56.76 84.75z"/>
    <path id="1" class="fil6" d="M38632.77 49469.32l432.95 1339.76 -777.13 -446.56 -369.78 562.4 -369.78 -562.4 -777.13 446.56 437.82 -1354.84c-515.15,-358.49 -867.91,-1088.37 -867.91,-1930.46 0,-721.61 259.12,-1360.79 657.51,-1754.46l317.27 190.53c-337.99,294.15 -563.48,823.14 -563.48,1426.91 0,923.82 527.99,1672.81 1179.23,1672.81 651.32,0 1179.31,-748.99 1179.31,-1672.81 0,-923.98 -527.99,-1672.88 -1179.31,-1672.88 -38.35,0 -76.32,2.71 -113.75,7.73l-563.09 -158.75c205.38,-131.76 434.81,-205.53 676.84,-205.53 878.51,0 1590.61,969.99 1590.61,2166.46 0,854.15 -362.89,1592.77 -890.18,1945.54z"/>
   </g>
  </g>
  <g>
   <path class="fil4" d="M25009.36 50694.94c-780.15,-405.04 -1985.67,-756.56 -2857.91,-1748.05 -771.49,-874.87 -1160.36,-2443.91 -1194.85,-3231.56 -209.94,-180.87 -14.23,2476.85 906.58,3405.62 772.26,777.91 1886.69,1356.62 3059.51,1917.93 1410.82,675.53 2987.51,1704.36 4260.39,2293.12 429.16,198.81 814.33,201.44 1235.37,-10.98 427.77,-214.5 953.98,-88.31 1056.82,383.23 49.18,219.53 -166.48,798.01 -496.36,825.38 -279.85,13.07 -608.79,-260.05 -649.08,-109.19 -47.87,179.78 367.69,165.25 584.43,295 884,530.38 -426.3,1706.83 -792.29,1105.46 -132.54,-217.91 -165.71,-535.87 -282.55,-476.72 -110.65,55.83 40.83,243.66 165.02,562.71 151.41,387.79 -104.39,983.83 -593.48,915.55 -1272.41,-176.77 -589.07,-1620.53 -1221.3,-1974.3 -1107.55,-619.39 -2468.34,-1333.81 -4083.31,-1674.2 -958.46,-201.13 -1779.36,-599.36 -2535.15,-1031.31 -77.33,-44.23 -44.46,-81.19 55.06,-69.21 230.9,27.84 510.36,0 736.3,-195.17 372.95,-322.3 470.3,-988.85 216.75,-1169.95 -167.26,-119.55 82.89,656.5 -369.62,1020.32 -325.24,261.52 -956.99,131.84 -1190.52,11.83 -344.57,-177 -642.58,-487.24 -951.89,-788.81 -1407.19,-1372.39 -1943.99,-3343.53 -1971.36,-3261.33 -129.14,399.55 522.88,2017.68 1765.06,3371.36 1044.3,1137.78 2529.35,2037.94 4120.04,2388.54 -475.48,690.53 -1155.34,2615.88 -2182.39,4311.81 -5.18,-410.45 -122.56,-663.69 -213.34,-603.69 -25.29,16.7 84.6,202.98 99.44,537.11 3.56,80.42 -26.37,270.02 -90.39,393.28 -108.03,208.24 -260.13,383 -398.08,568.81 -19.56,-635.01 -271.65,-1066.02 -393.98,-984.99 -34.33,22.58 243.5,479.97 229.58,1002.77 -2.63,95.27 0.54,203.99 -88.77,314.49 -192.7,238.32 -363.44,425.61 -577.78,626.11 -56.45,-601.29 -381.68,-1426.13 -549.48,-1315.09 -42.3,28.07 250.77,468.68 306.99,1113.74 13.61,156.51 -65.8,471.15 -192.85,574.38 -198.19,161.23 -415.55,289.05 -636.86,399.08 -202.13,-441.53 -429.78,-1626.64 -719.52,-1536.02 1467.81,3478.92 979.19,7257.8 -1995.03,11674.62 -458.93,681.4 -988.78,867.91 -1458.69,890.34 -472.16,22.5 -501.85,-399.39 -629.13,-321.68 -128.59,78.56 123.41,554.05 570.83,568.81 259.35,8.58 475.25,-21.88 756.64,-168.73 41.91,-21.81 93.33,15.62 54.13,71.84 -998.44,1432.24 -1513.13,2514.12 -1911.05,4329.75 -389.11,1775.34 1353.29,522.19 2423.57,1210.16 397.23,255.33 188.83,1436.88 -102.23,1194.85 -435.12,-360.34 -1143.43,-225.33 -1110.87,-63.1 7.5,41.29 261.6,-34.26 523.97,-4.1 397.3,44.85 893.05,402.41 578.79,1163.15 -338.69,820.2 -1353.22,574.38 -1490.16,18.71 -77.17,-310.7 -463.03,-577.94 -585.21,-443.78 -132.77,147.31 374.65,78.87 462.34,506.33 228.42,1119.77 -2215.79,1419.79 -2240.07,-10.52 -1475.31,866.52 -1588.83,-1113.12 -1339.68,-1780.75 776.13,-2076.61 2216.03,-6824.92 2014.44,-10638.6 502.24,-960.24 1306.51,-1241.17 1081.88,-1265.68 -375.81,-40.83 -783.94,259.35 -1126.65,682.48 -14.46,-142.36 -31.47,-283.09 -51.27,-421.89 221.39,-1074.99 955.06,-1543.98 723.55,-1515.68 -346.5,42.37 -641.11,361.89 -857.71,785.64 -58.61,-256.57 -128.67,-504.48 -210.79,-742.57 255.87,-1064.25 907.97,-1506.01 699.57,-1485.99 -363.51,34.95 -678.15,450.2 -899.46,979.11 -250.38,-554.43 -580.72,-1040.28 -1006.56,-1433.71 -1315.71,-1215.42 -7737.07,73.15 -10098.93,-3091.36 -2485.51,-3331.31 -1514.36,-8354.37 2715.48,-6957.93 232.75,76.79 365.21,498.14 -247.52,586.06 -4025.47,577.32 -2043.9,7317.5 3380.49,6938.05 1788.72,-124.42 3637.37,300.57 5193.72,-703.9 -718.36,65.03 -1406.49,-47.17 -1577.77,-449.42 -94.57,-221.77 766.69,431.79 2227.01,-75.16 110.42,-109.49 218.91,-228.81 325.31,-358.72l33.25 -40.6c-550.18,70.99 -1054.81,-6.03 -1267.77,-330.42 -124.88,-190.15 610.18,217.98 1660.9,-149.16 147.46,-180.48 274.28,-336.99 385.55,-478.5 -441.69,107.56 -849.28,94.88 -1087.83,-123.65 -156.59,-143.44 569.05,56.29 1465.73,-388.88 425.45,-634.85 586.37,-1170.03 1284.7,-3011.72 1225.7,-3232.18 -1170.34,-10289.85 2610.16,-13751.46 -1167.86,167.57 -4370.04,-274.66 -4058.56,-1202.2 523.97,-46.32 2039.03,185.89 2792.65,284.87 -960.32,-695.86 -2769.92,-280.23 -3470.96,-947.72 -407.74,-389.88 -791.13,-965.5 -751.46,-1440.67 61.63,-756.02 715.89,-1069.58 1316.25,-1385.92 255.56,-134.55 495.35,-241.72 718.52,-327.17 99.98,1056.44 1006.41,1303.65 1476.71,959.62 714.65,-522.73 426.61,-1564.24 -39.13,-797.78 -99.75,164.24 -201.67,259.89 -302.97,305.67 -8.27,-967.51 -329.33,-870 -379.21,14 -253.71,-70.21 -376.27,-264.53 -474.71,-573.22 1184.03,-394.83 1782.92,-157.28 1688.5,-281.7 -351.22,-462.88 -1677.76,-154.42 -2637.53,342.63 24.13,-840.08 395.6,-1823.52 1121.62,-2481.41 1929.38,-1745.03 4065.91,-1026.67 5315.82,-130.06 -296.93,731.59 -291.91,1277.9 -283.02,1729.1 442.85,-1386.31 890.73,-3656.31 2731.64,-4431.82 169.11,1356.85 20.49,4058.95 -1784,6155.97 187.29,-45.7 307.99,-111.35 412,-198.96 10.28,-18.56 27.06,-33.87 50.42,-45.31 60.47,-57.45 117.85,-123.03 183.19,-197.26 139.19,87.3 274.97,183.57 407.28,288.2 60.93,24.51 126.04,53.2 195.4,86.61 1611.33,775.9 2780.97,-202.75 2645.11,64.95 -273.27,538.5 -1257.87,685.19 -2083.02,579.72 88.46,102.07 174.84,208.24 259.2,318.28 1027.83,709.32 2001.75,358.49 1818.26,539.35 -296.93,292.76 -829.1,284.33 -1364.04,119.78 115.76,187.05 226.49,382.38 332.5,584.36 714.96,540.28 1351.13,508.58 1185.65,612.97 -234.69,148 -562.71,106.79 -908.43,-44.85 1542.98,3407.4 1823.52,8431.08 444.55,11950.6zm-8554.57 -12577.17c1193.07,246.21 3020.07,979.96 2936.86,1416.93 -31.16,164.01 -689.13,-738.62 -3080.38,-1165.16 -1585.43,-282.78 -1249.75,-539.28 143.52,-251.78zm-459.32 -1158.51c1200.42,-160.68 3274.4,-108.1 3490.6,283.25 81.19,146.92 -1087.29,-406.43 -3449.23,-28.3 -1565.94,250.69 -1443.3,-67.27 -41.37,-254.95zm329.88 553.66c1218.28,27.53 3189.1,385.09 3237.82,784.56 18.33,149.86 -879.36,-543.06 -3301.54,-539.2 -1606,2.55 -1359.09,-277.53 63.72,-245.36zm3709.9 -5732.76c-89.08,-1043.75 -362.28,-2070.34 -1234.83,-2542.58 -190.69,521.26 -390.34,1241.09 -503.78,2048.92 630.99,40.98 1224.54,234.61 1738.61,493.65zm-7186.66 46499.9c-726.02,742.88 -1350.97,-52.2 -1159.74,-569.67 52.27,-141.43 146.07,-106.17 166.87,8.58 52.12,286.34 308.69,708.85 782.7,295.47 492.49,-429.7 559.61,-91.86 210.17,265.62zm13400.08 -35605.27c1064.4,127.9 2121.07,-1146.99 2771.15,-1810.68 1087.21,-1110.02 1586.82,-1825.22 2548.69,-2833.63 838.38,-879.13 1086.75,-1855.84 2139.32,-2000.67 853.3,-117.38 1085.59,889.87 472.16,936.66 -519.71,39.59 -926.22,345.19 -855.16,414.93 132,129.37 304.59,-260.28 883.69,-277.45 1220.14,-36.11 962.02,1633.45 -288.35,1083.89 -269.02,-118.16 -761.2,71.14 -744.11,202.67 16.24,124.57 334.98,-192.31 692.15,-99.21 393.05,102.61 653.64,514.45 445.01,857.4 -417.8,686.74 -1069.12,-106.17 -1716.96,215.97 -605.62,301.19 -1297.31,1402.7 -2394.5,2623.46 -499.76,556.21 -1427.37,1516.14 -2246.72,2195.84 -42.99,35.65 -105.94,-13.69 -101.68,-67.04 19.1,-235.3 -76.71,-361.66 -197.96,-437.9 -201.13,-126.51 -485.38,-92.25 -525.13,-18.48 -40.67,75.39 280.39,52.27 411.15,158.52 239.56,194.63 127.28,604.93 -30.23,773.96 -307.91,330.26 -933.41,961.17 -931.71,635.16 6.5,-1196.01 -48.48,-1733.35 -330.8,-2553.4zm-6639.65 19500.38c1086.9,1137.71 1850.5,2811.83 1733.89,6579.95 -50.88,1645.05 -135.17,2614.1 13.38,4529.33 137.64,1775.19 1085.98,1558.6 1731.65,1572.28 678.15,14.38 877.5,616.6 754.71,1066.57 -126.51,463.73 -622.48,662.61 -666.4,443 -54.67,-272.96 -475.09,-525.67 -633.15,-563.25 -347.27,-82.74 -574.15,-53.36 -549.48,13.3 15.77,43.07 277.29,43.3 487.78,102.77 213.19,60.31 488.55,214.35 542.76,519.09 43.23,243.19 87.3,515.07 -85.21,828.17 -258.89,469.91 -1347.88,558.38 -1223.23,61.63 97.28,-387.87 -22.04,-577.09 -102.84,-725.86 -168.96,-310.7 -569.74,-578.02 -651.55,-443.62 -89.47,146.92 320.36,96.66 534.48,524.12 125.81,251.08 104.47,468.52 56.14,635.7 -93.1,322.53 -416.56,474.63 -889.18,435.74 -659.21,-54.36 -459.86,-931.24 -986.69,-761.28 -963.95,311.01 -1109.48,-269.79 -950.73,-973.54 119.01,-527.6 442.93,-1080.1 470.76,-1620.77 86.68,-1676.6 -212.18,-3492.84 -1324.53,-5457.64 1283.47,-2387.92 1856.53,-4701.92 1737.45,-6765.69z"/>
   <path class="fil10" d="M15354.9 33688.73c-204.06,-968.83 -820.2,-2527.34 -1192.22,-2555.03 -139.57,-10.44 625.19,684.73 977.41,2612.56 5.88,31.86 11.68,62.56 17.48,92.64l-28.84 -55.37c-441.23,-835.2 -1468.59,-2105.45 -1885.69,-2036.01 -156.66,26.06 842.94,467.83 1661.13,2143.42 264.07,540.75 446.25,760.58 504.32,731.51 70.21,23.66 76.24,-317.5 -53.59,-933.72z"/>
   <path class="fil5" d="M34097.1 36264.79c236.93,-175.45 577.86,-310.23 929.54,-307.45 311.32,2.32 585.21,114.75 624.26,224.56 2.17,6.26 -38.43,27.76 -102.54,19.41 -521.72,-67.97 -699.65,72.07 -1137.09,402.02 -321.29,242.42 -625.5,-108.03 -314.18,-338.54z"/>
   <path class="fil5" d="M34526.34 37374.2c237.24,-136.02 578.64,-202.91 931.01,-116.61 311.86,76.24 586.37,264.15 625.57,393.67 2.17,7.35 -38.43,21.26 -102.77,-3.09 -522.65,-197.88 -700.81,-86.68 -1138.87,171.05 -321.68,189.37 -626.65,-266.31 -314.95,-445.01z"/>
   <path class="fil5" d="M34207.98 38627.97c260.98,11.29 557.91,117.3 769.71,335.06 187.44,192.7 278.84,446.48 229.27,554.35 -2.86,6.11 -41.83,-2.4 -75.24,-48.1 -271.49,-371.79 -473.01,-373.95 -958.85,-390.11 -356.86,-11.91 -307.84,-466.05 35.11,-451.2z"/>
   <path class="fil11" d="M31095.28 53662.66c287.11,-55.6 646.53,-28.07 952.51,129.91 270.8,139.65 458.62,363.44 442.54,481.05 -1.01,6.65 -46.24,8.35 -98.51,-27.68 -424.52,-292.6 -644.05,-243.35 -1176.99,-135.24 -391.5,79.49 -496.98,-375.03 -119.55,-448.03z"/>
   <path class="fil11" d="M30868.55 55166.36c255.72,114.29 509.2,354.47 632.61,693.47 109.42,299.95 98.28,635.01 5.41,743.11 -5.34,6.11 -40.75,-19.02 -55.68,-85.91 -121.02,-543.92 -321.14,-624.41 -799.17,-831.57 -351.14,-152.1 -119.24,-669.26 216.82,-519.09z"/>
   <path class="fil11" d="M29728.61 56342.11c103.15,234.45 136.87,546.78 33.33,838.99 -91.63,258.58 -279.85,462.8 -398.23,472 -6.73,0.46 -16.08,-37.89 10.52,-89.54 215.97,-419.81 130.37,-597.66 -66.11,-1031.69 -144.29,-318.82 284.87,-497.75 420.5,-189.76z"/>
   <path class="fil11" d="M23646.87 75372.11c243.42,105.09 485.22,338.77 603.84,679.08 105.01,301.11 95.65,643.28 7.73,757.8 -5.03,6.42 -38.82,-17.63 -53.2,-85.14 -116.92,-549.48 -377.82,-495.82 -832.89,-685.66 -334.21,-139.5 -45.39,-804.2 274.51,-666.09z"/>
   <path class="fil11" d="M22726.29 76613.67c291.29,214.81 547.55,598.35 615.52,1083.81 60.39,429.63 -39.36,877.58 -183.5,1000.84 -8.27,6.88 -46.24,-35.34 -47.79,-128.83 -12.37,-760.58 -242.65,-916.63 -788.96,-1309.45 -401.25,-288.43 21.88,-928.62 404.73,-646.37z"/>
   <path class="fil11" d="M21281.29 77097.19c179.55,273.27 278.22,653.1 187.21,1028.91 -80.42,332.66 -301.19,612.81 -460.17,642.2 -9.05,1.55 -28.07,-44.31 -0.85,-111.89 221.77,-550.26 -1.62,-666.86 -341.47,-1172.12 -249.69,-371.01 379.21,-746.12 615.29,-387.1z"/>
   <path class="fil11" d="M16500.73 77313.4c253.63,60.62 521.26,248.76 679.93,564.18 140.58,279.15 172.9,619.23 99.91,748.06 -4.18,7.27 -40.52,-10.52 -62.94,-74.77 -182.57,-522.57 -434.11,-423.13 -907.43,-530 -347.58,-78.56 -142.74,-787.26 190.53,-707.46z"/>
   <path class="fil11" d="M15985.11 78927.67c291.29,214.74 547.55,598.28 615.52,1083.81 60.39,429.55 -39.36,877.5 -183.5,1000.76 -8.27,6.88 -46.24,-35.26 -47.79,-128.83 -12.37,-760.51 -242.65,-916.63 -788.96,-1309.45 -401.25,-288.35 21.88,-928.62 404.73,-646.3z"/>
   <path class="fil11" d="M14277.59 79709.67c179.55,273.27 278.22,653.1 187.21,1028.91 -80.42,332.66 -301.19,612.89 -460.17,642.2 -9.05,1.55 -28.15,-44.31 -0.85,-111.89 221.7,-550.18 -1.62,-666.86 -341.55,-1172.12 -249.61,-371.01 379.29,-746.12 615.37,-387.1z"/>
  </g>
  <path class="fil0 str3" d="M31063.57 17990.66c-520.41,-1085.36 -2139.32,-4425.79 441.69,-4088.57 -772.42,-1580.01 -2351.73,-979.19 -2596.01,-914.23 -1008.8,268.48 993.65,-2536 -1831.02,-4203.71 454.6,1121.85 78.72,3588.19 -488.01,2982.26 -348.43,-372.71 -1940.51,-1957.83 -2940.04,-1360.64 3842.51,2614.8 2947.69,5096.37 3130.88,8828.38 181.18,3689.64 3787.77,7085.21 10146.1,7366.44 -7912.6,866.83 -12605.24,-2736.82 -16517.74,-6719.3 -1469.28,758.65 -1238.54,1736.29 -1350.97,5370.1 6706.85,8679.6 19533.32,7627.27 25035.5,3633.42 241.65,-1948.48 442,-4689.86 801.03,-6430.71 35.72,-172.44 -6538.58,476.02 -8906.33,-139.34 -2025.42,-526.05 -3873.52,-2130.73 -4925.09,-4324.1z"/>
  <path class="fil2 str4" d="M19424.68 25651.02c-1916.85,-1729.33 -2989.6,-6264.69 -5809.94,-8079.86 -1035.25,-666.63 -3227.38,-1907.88 -4494.61,-579.02 207.47,-1672.34 1035.33,-1867.21 2396.89,-1742.09 405.96,37.12 538.5,-520.72 -1172.19,-1207.76 3559.96,-641.73 5753.56,1336.75 5426.94,2879.72 1375.18,95.73 549.1,-4665.58 -1578.7,-5880.84 5682.42,1164.77 3946.44,4181.9 5146.63,6573.54 815.18,-758.11 1423.58,-827.86 2444.68,-1492.02 134.86,405.35 -2174.42,2196.85 400.94,2222.14 1082.26,10.67 1944.61,379.06 2155.87,1926.44 -2604.28,-2368.67 -6410.84,582.58 -4916.5,5379.77z"/>
  <path class="fil0 str3" d="M18137.65 13208.08c-1035.64,-3025.71 -4473.65,-2438.96 -6547.48,-6027.3 104.39,1512.82 -227.8,2458.6 1125.57,3285.69 -503.09,150.55 -685.11,1321.36 -66.73,1872.7 960.09,-2982.64 4978.83,226.26 5488.64,868.92z"/>
  <path class="fil0 str3" d="M65867.12 18375.36c523.04,-1053.27 1613.42,-4174.17 -982.05,-3816.38 942.3,-1904.4 2903.07,-1095.95 3148.43,-1036.56 1014.45,246.29 159.68,-2962.31 3000.2,-4606.58 -457.23,1087.91 -37.12,4054 532.55,3463 349.83,-363.28 1868.6,-1469.59 3701.55,-813.24 -4469.71,2653.15 -1095.72,12775.98 -12768.48,14712.47 8600.81,1091.08 10350.09,-1286.87 14284.55,-5177.71 1477.56,713.34 1245.5,1659.2 1358.55,5163.1 -7610.41,8637.54 -21808.04,5221.33 -25464.43,2160.04 -243.04,-1876.79 -101.22,-4425.87 -462.26,-6100.61 -35.88,-165.94 4760.38,1113.04 7141.65,489.94 2036.78,-533.24 5452.3,-2308.43 6509.74,-4437.47z"/>
  <path class="fil2 str4" d="M77774.19 26653.56c1927.6,-1692.22 3420.23,-5221.87 5925.23,-7437.2 958.31,-847.58 3162.74,-2311.06 4437,-1045.15 -208.55,-1610.48 -1041.13,-1787.87 -2410.35,-1650.23 -407.9,40.91 -789.74,-158.21 930.47,-842.47 -3042.03,-616.91 -4833.69,1683.56 -5085,2935.86 -348.05,-2036.63 551.26,-4401.59 3146.11,-5636.72 -5267.8,-706.53 -4740.59,3210.83 -6858.02,5922.76 -819.82,-721.07 -1431.55,-780.69 -2458.45,-1408.5 -135.55,392.66 2186.64,2091.76 -403.18,2148.6 -1088.22,23.97 -1955.51,390.11 -2167.93,1885.45 2618.9,-2317.71 6446.8,481.28 4944.11,5127.61z"/>
  <path class="fil0 str3" d="M80128.39 14568.57c1860.56,-3459.59 3876.31,-1756.01 5652.73,-4529.1 -89.47,1212.25 195.1,1992.4 -964.19,2582.55 430.94,149.4 586.83,1102.29 57.14,1511.58 -1327.54,-1697.63 -3701.63,-846.65 -4745.69,434.96z"/>
  <path class="fil4" d="M46570.34 20616.28c-949.49,0 -7759.18,506.03 -9707.12,629.13 340.86,-2021.09 2796.29,-4107.67 3264.73,-4370.58 977.64,-548.63 7370.39,-1278.52 9378.48,190.15 4538.76,3319.09 3428.66,11741.66 3888.68,15282.52 41.91,322.3 -5665.18,-64.72 -6154.81,-233.99 -421.2,-2035.78 -2120.99,-10527.56 -669.96,-11497.23z"/>
  <path class="fil12" d="M36163.88 22211.99c4490.36,5930.41 6293.15,10913.88 6383.62,10993.37 163.39,143.29 7787.1,-1046.07 8566.09,-1046.07 -465.35,-4387.59 -2142.57,-8943.52 -3662.5,-11849.92 -631.29,-85.6 -1100.44,-69.44 -1708.69,13.45 62.17,341.94 85.14,423.05 131.38,930.01 -597.89,56.84 -6711.41,583.58 -9709.9,959.16z"/>
  <path class="fil2 str4" d="M49879.61 23238.89c1196.09,-552.81 843.87,-2305.8 1382.14,-1779.36 4086.94,3998.95 9061.06,2004.31 12101.15,-502.62 -8327.3,3522.77 -8928.9,-3439.33 -13427.3,-4082.38 -735.92,-105.01 -3226.22,-1187.97 -3693.82,104.55 -1382.6,3875.46 4586.01,2053.1 3637.83,6259.82z"/>
  <g>
   <path class="fil2 str5" d="M45133 16753.28c1790.96,4.02 3491.45,166.79 5278.01,285.8 194.63,107.25 819.89,-207.7 235.38,-555.13 -325.31,-392.9 -343.33,-1376.57 -69.52,-1366.05 456.69,17.48 419.57,-608.25 52.81,-654.72 -277.53,-394.06 185.12,-1252.61 371.71,-1672.88 448.57,-1009.65 784.17,-1173.66 1075.61,-1570.81 508.11,-692.31 -1313.93,-501.31 -1184.1,216.51 230.51,1274.96 -459.09,-655.27 -1304.96,268.01 -801.18,874.72 268.56,1541.12 687.05,1282.62 414.7,-256.26 -46.86,1067.34 -953.9,1049.55 -914.77,-17.94 -1019.78,-1304.11 -801.72,-1275.97 512.06,66.35 403.72,-304.13 237.08,-333.74 -190.69,-33.87 -191.23,-84.75 -101.53,-110.11 778.99,-219.99 374.88,-1265.99 -393.9,-1273.26 -747.75,-7.19 -1337.13,667.64 -432.57,1285.01 160.14,109.42 -285.57,6.88 -284.18,226.64 2.32,368.46 461.95,100.76 433.34,213.11 -129.99,511.59 -286.19,958 -920.34,1183.33 -1347.73,478.65 -1774.65,-1176.29 -1522.25,-1184.49 420.35,260.98 1761.96,-50.96 1384.22,-1050.87 -284.87,-754.01 -1184.8,-578.87 -1538.57,-188.06 -442,-220.77 454.22,-535.18 613.2,-812.86 211.26,-368.77 78.18,-930.47 -964.73,-1069.66l-14.69 -1.47 -14.61 1.39c-1041.13,136.4 -1167.09,697.72 -951.12,1067.11 162.54,278.14 1062.78,594.95 623.56,814.56 -358.8,-391.81 -1260.97,-569.36 -1536.17,183.81 -365.06,998.91 980.58,1314.48 1397.6,1054.66 252.55,8.97 -153.34,1662.75 -1507.17,1180.31 -637.02,-226.95 -798.78,-673.82 -935.42,-1185.8 -30,-112.51 365.06,244.27 362.12,-225.64 -1.39,-219.76 -472.54,-120.47 -218.53,-213.73 966.12,-354.47 298.71,-1291.28 -448.96,-1286.25 -772.8,5.34 -1211.79,1038.03 -400.47,1260.04 109.88,30.08 129.68,85.76 -77.4,122.1 -166.1,29.07 -269.79,399.31 241.41,334.36 217.67,-27.61 129.06,1258.34 -785.48,1273.8 -906.89,15.31 -1385.31,-1309.6 -967.28,-1052.18 421.74,259.66 1482.97,-403.88 670.65,-1280.68 -857.63,-925.6 -1522.64,1002.77 -1308.37,-271.65 120.71,-717.51 -1703.81,-913.46 -1186.89,-219.76 296.47,397.92 634.23,562.86 1095.64,1573.83 191.92,420.73 665.55,1280.53 393.05,1673.89 -366.22,45.47 -395.37,671.12 61.09,654.88 273.74,-9.74 268.25,973.85 -52.04,1365.9 -580.1,345.8 49.18,662.46 242.42,555.82 1785.09,-114.21 3630.02,-272.11 5420.91,-271.26z"/>
   <path class="fil13 str5" d="M39469.67 16468.71c1546.3,-454.53 10129.09,-437.59 11176.71,15.23"/>
   <path class="fil13 str5" d="M39521.71 15102.82c1151.16,-325.16 9018.06,-347.27 10980.3,41.37"/>
   <path class="fil13 str5" d="M39460.62 14447.94c420.27,-68.05 4727.98,-213.19 5679.18,-191.31 907.66,20.88 5113.61,100.45 5489.88,206.54"/>
   <path class="fil13 str5" d="M39383.76 13473.24c322.61,602.37 1006.48,837.45 1354.76,828.71 568.89,-14.31 983.52,-450.5 1208.23,-923.74 210.56,246.36 474.01,863.66 1480.57,904.18 1058.83,42.53 1506.25,-1111.88 1601.28,-1350.2 116.14,386.32 566.19,1320.35 1636.31,1344.56 901.16,20.41 1357.86,-684.65 1519.16,-889.87 189.99,310.7 396.3,822.21 1083.73,897.92 574.61,63.25 1138.02,-328.1 1415.93,-768.63"/>
   <path class="fil13 str5" d="M39887.31 15160.73c3.71,574.54 121.4,450.5 -110.5,1039.97"/>
   <path class="fil13 str5" d="M40180.54 15211.85c36.65,217.52 278.69,659.13 -4.1,932.1 -25.29,24.36 -22.12,24.74 -18.95,57.22"/>
   <path class="fil13 str5" d="M40591.76 15415.29c90.01,148.31 60.55,309.54 61.63,482.13"/>
   <path class="fil13 str5" d="M40972.9 15491.92c67.97,136.64 44,172.28 89.31,228.5"/>
   <path class="fil13 str5" d="M50224.57 15225.53c-90.78,114.68 -203.68,211.18 -202.6,380.21 -131.15,23.35 62.71,578.79 62.33,583.58"/>
   <path class="fil13 str5" d="M49785.43 15250.28c-176.69,80.11 -383.39,534.4 -236.93,741.87l37.04 44.31"/>
   <path class="fil13 str5" d="M49230.38 15452.49c-84.52,163.55 -56.99,249.15 -55.83,431.17"/>
   <path class="fil13 str5" d="M48791.78 15553.32c0.31,45 -8.27,187.75 30.7,228.42"/>
  </g>
  <path class="fil4" d="M36163.88 22209.13c268.25,356.94 526.59,710.4 775.74,1059.61 989.39,-145.3 2004.69,-259.66 3005.61,-210.56 -1006.33,361.81 -1955.36,535.33 -2691.12,656.27 113.67,162.77 225.25,324.54 334.75,485.15 941.92,-119.55 1905.25,-204.99 2855.52,-143.21 -944.24,324.39 -1837.98,483.83 -2552.47,592.48 124.96,187.29 246.9,372.79 366.14,556.52 887.63,-94.03 1792.35,-151.64 2685.55,-79.34 -876.5,287.11 -1709.46,432.87 -2396.04,530.15 125.35,197.18 247.29,392.05 366.06,584.36 815.8,-75.55 1644.04,-113.98 2462.62,-43.38 -790.97,254.95 -1546.53,394.83 -2190.97,488.55 132.54,219.38 260.51,435.04 384.39,646.91 748.75,-47.17 1506.32,-57.76 2255.85,22.81 -714.65,215.12 -1400.31,336.99 -2001.29,417.49 134.01,234.38 262.37,463.19 385.55,686.43 610.03,-15.16 1223.69,0.7 1832.1,76.4 -563.32,159.99 -1108.63,262.29 -1608.7,332.97 104.7,193.86 205.07,382.77 301.26,566.65 541.21,-1.7 1084.51,23.51 1623.55,95.81 -494.19,135.63 -974.55,227.11 -1422.66,291.83 129.68,253.01 250.85,494.81 363.82,724.71 436.66,12.29 873.87,44.62 1308.44,107.48 -392.28,103.46 -775.74,179.17 -1141.34,236 145.06,301.26 274.59,578.48 389.11,829.1 362.35,25.67 724.55,66.42 1084.97,128.21 -322.92,76.63 -639.96,134.55 -946.01,178.93 350.29,782.08 621.24,1425.36 647.92,1448.95 163.31,144.37 7462.02,-1103.3 8187.03,-1219.52 -465.27,-4421.46 -2050.86,-8762.65 -3570.87,-11691.4 -631.37,-86.3 -870.16,-93.57 -1478.48,-9.9 62.25,344.41 47.63,176.15 93.95,687.05 -597.89,57.22 -6711.49,588.07 -9709.98,966.51zm10550.68 -1411.67c276.6,0 500.92,258.66 500.92,577.86 0,319.13 -224.32,577.78 -500.92,577.78 -276.44,0 -500.92,-258.66 -500.92,-577.78 0,-319.2 224.48,-577.86 500.92,-577.86z"/>
  <path class="fil14" d="M35025.32 89412.31l-20.1 4.56c-129.14,-91.25 -219.38,-153.57 -270.26,-186.74 -45.55,-29.69 -118.31,-73.54 -219.61,-132.54 7.73,-52.66 3.56,-136.71 -12.99,-252.47l-92.64 -645.83c-20.18,-139.88 -51.5,-276.44 -93.8,-409.52l-187.98 288.43c-125.42,192.39 -201.44,320.83 -229.12,385.94 -11.29,26.29 -7.35,50.11 12.22,71.6 9.82,11.21 54.28,46.09 133.85,104.93l4.18 19.87 -52.89 81.04 -18.79 5.41c-77.95,-57.76 -200.89,-141.43 -368.85,-250.92 -173.83,-113.28 -300.03,-192 -378.13,-235.85l-4.72 -18.95 53.66 -82.35 19.87 -4.18c85.52,48.72 135.4,75.32 150.01,80.11 27.22,8.89 50.57,2.86 70.06,-18.02 48.79,-51.34 135.17,-173.06 260.59,-365.52l417.95 -641.35c125.42,-192.47 202.21,-321.06 229.2,-386.01 11.21,-26.29 7.27,-50.03 -11.6,-71.84 -10.52,-10.9 -54.98,-45.78 -134.08,-104.47l-4.25 -19.8 53.74 -82.35 19.33 -3.4c74.08,55.44 197.03,139.11 368.31,250.77 175.53,114.29 301.65,193.01 378.59,236.08l3.48 18.17 -54.52 83.59 -19.02 2.86c-85.99,-48.95 -135.86,-75.55 -149.7,-80.5 -27.91,-8.74 -51.34,-2.71 -70.83,18.17 -48.1,51.19 -135.17,173.06 -260.59,365.52l-196.02 300.8c242.65,-42.22 419.11,-75.86 528.68,-101.14l288.35 -66.19c99.13,-22.66 229.43,-57.99 391.04,-104.24l54.52 -83.59 21.34 -3.79c59.23,45.78 118.39,87.92 178.39,126.97 70.37,45.85 154.34,97.04 251.93,153.49l4.33 20.57 -48.87 74.93 -20.18 3.87c-93.49,-60.93 -173.06,-90.94 -237.93,-90.78 -93.72,0.85 -288.51,28.3 -583.74,82.35l-396.53 72.92c4.02,69.83 15.62,175.84 34.56,317.89l66.35 492.49c48.79,364.9 84.36,564.41 106.17,599.75 13.76,21.42 42.37,47.17 86.53,77.09l3.4 21.03 -52.89 81.12zm3338.19 -907.2l-18.71 8.66c-107.25,-37.5 -178.01,-29.69 -211.57,22.89 -18.48,29.15 -48.17,96.27 -88.69,201.9 -30.47,78.33 -71.76,192.08 -123.8,341.32l-147 421.12c-94.42,270.49 -214.89,444.94 -362.12,523.35 -194.63,103.69 -422.36,110.04 -683.88,18.71 -238.78,-83.36 -411.07,-187.9 -517.24,-313.87 -89.39,-106.56 -129.75,-227.88 -121.4,-364.21 5.72,-86.84 67.04,-297.17 183.73,-631.6l123.03 -352.53c75.7,-216.82 119.01,-360.26 130.06,-429.63 4.64,-28.15 -4.87,-50.34 -28.84,-67.12 -12.37,-7.96 -63.95,-31.16 -154.81,-69.13l-9.28 -18.4 31.94 -91.4 18.87 -9.2c85.29,36.11 224.63,87.92 417.72,155.27 196.8,68.67 337.69,114.68 422.13,137.87l9.12 18.87 -31.86 91.4 -18.71 8.66c-94.73,-26.76 -149.55,-40.67 -164.24,-42.14 -29.15,-1.78 -50.42,9.67 -64.34,34.56 -34.41,61.24 -89.85,200.43 -165.48,417.25l-98.36 281.7c-120.09,344.1 -178.24,560.31 -174.45,648.46 8.58,174.6 134.39,304.28 377.82,389.26 159.52,55.68 297.24,59.77 414.16,12.68 54.98,-22.66 97.04,-50.34 126.74,-82.89 29.62,-32.55 63.33,-87.22 100.22,-164.4 34.49,-71.6 65.03,-145.68 91.71,-222.16l99.29 -284.48c83.13,-238.32 139.11,-401.94 167.72,-489.71 26.76,-82.82 39.75,-137.87 39.51,-165.71 -1.16,-20.72 -11.99,-40.75 -33.25,-59.15 -18.09,-15.7 -71.76,-41.83 -160.68,-79.11l-9.28 -18.4 31.86 -91.4 18.95 -9.12c77.33,33.25 157.44,64.34 241.34,93.64 63.02,22.04 184.73,61.32 364.9,117.92l9.05 18.87 -31.86 91.4zm2123.47 2306.34l-16.7 12.06c-154.65,-33.33 -262.06,-55.44 -321.91,-65.96 -53.51,-9.51 -137.72,-21.34 -253.94,-35.96 -13.45,-51.5 -50.18,-127.28 -110.81,-227.26l-338.15 -557.99c-73.38,-120.78 -155.66,-234.15 -246.75,-340.08l-60.01 339c-39.98,226.18 -59.7,374.18 -59.7,444.86 0,28.61 12.91,48.95 39.36,61.17 13.45,6.42 67.97,21.11 164.24,44.08l11.6 16.63 -16.86 95.34 -15.23 12.29c-94.34,-22.66 -240.18,-51.5 -437.67,-86.45 -204.3,-36.11 -351.14,-59.15 -440.22,-68.9l-11.83 -15.62 17.17 -96.81 16.63 -11.6c97.82,11.29 154.11,16.32 169.42,14.92 28.53,-2.4 47.63,-17.09 57.38,-44 24.82,-66.27 56.68,-212.18 96.66,-438.29l133.47 -753.86c40.06,-226.18 60.31,-374.65 59.7,-444.94 0.08,-28.53 -12.91,-48.95 -38.82,-61.55 -13.92,-5.95 -68.51,-20.65 -164.24,-43.61l-11.68 -16.63 17.17 -96.74 16.39 -10.67c89.93,21.96 235.85,50.8 437.2,86.45 206.23,36.5 353.07,59.46 440.76,68.98l10.28 15.31 -17.4 98.28 -16.32 10.13c-98.36,-11.37 -154.65,-16.32 -169.35,-15.39 -29.15,2.86 -48.25,17.48 -57.99,44.39 -24.2,65.96 -56.68,212.18 -96.66,438.36l-62.63 353.61c206.77,-134.01 355.93,-233.99 446.87,-300.1l239.48 -173.83c82.28,-59.7 188.29,-143.29 318.97,-249.07l17.32 -98.28 18.17 -11.83c72.46,18.87 143.44,34.49 213.96,46.94 82.66,14.61 179.94,28.84 291.91,42.61l11.99 17.24 -15.62 88 -17.01 11.52c-109.96,-19.49 -194.86,-15.93 -254.56,9.59 -85.91,37.5 -254.4,139.11 -504.87,304.43l-336.29 222.39c31.09,62.63 83.28,155.66 156.35,278.92l253.94 427.23c187.67,316.58 298.64,486.23 332.5,510.28 21.03,14.23 57.45,26.76 109.8,37.04l11.37 18.02 -16.86 95.34zm2534.38 236.16l-15.47 13.61c-6.88,-0.54 -25.05,-2.47 -54.52,-5.8 -131.53,-15.62 -213.58,-24.74 -246.05,-27.3 -49.26,-4.02 -127.2,-7.35 -234.53,-10.05 -2.09,-23.51 -17.24,-63.33 -45.39,-120.09l-309.69 -626.11 -140.27 -256.65c-17.86,-31.16 -44,-62.94 -78.1,-94.96l19.72 -47.48c22.12,2.71 38.28,4.56 49.1,5.41 94.03,7.66 169.58,-1.62 225.64,-26.83 51.42,-23.12 100.45,-66.27 147.31,-130.3 46.32,-64.18 73.46,-142.74 80.96,-235.85 13.15,-162.39 -38.59,-277.06 -155.12,-343.48 -55.37,-31.7 -138.49,-51.81 -248.84,-60.78 -48.17,-3.87 -94.73,-4.18 -139.65,0.15 -17.01,93.26 -34.87,253.86 -53.2,480.82l-60.93 754.24c-18.48,228.89 -24.13,378.13 -17.4,448.49 2.71,28.53 17.48,47.56 45,57.14 13.92,5.18 69.59,14.61 167.57,28.46l13.15 15.47 -7.73 96.43 -14 13.76c-96.04,-13.69 -244.04,-28.61 -443.85,-44.77 -206.85,-16.7 -355.24,-25.67 -444.86,-26.99l-13.22 -14.38 7.96 -98.05 15.39 -13.15c98.51,2.09 155.04,1.7 170.12,-1.08 28.15,-5.1 45.78,-21.57 52.97,-49.26 18.48,-68.36 36.42,-216.59 54.82,-445.48l61.63 -763.06c18.48,-229.04 24.67,-378.67 17.4,-448.65 -2.71,-28.46 -17.48,-47.48 -44.46,-57.53 -14.38,-4.64 -70.14,-14.15 -167.64,-27.99l-13.15 -15.39 7.89 -97.97 15.39 -12.14c93.57,13.53 241.49,28.46 443.39,44.77 117.15,9.43 212.8,15.62 285.88,18.56 145.68,5.8 254.71,11.68 326.63,17.48 166.41,13.45 287.27,38.51 362.66,74.39 101.61,48.87 166.48,122.95 194.17,221.85 13.45,48.64 17.79,105.01 12.6,169.5 -21.11,261.36 -183.34,435.04 -486.08,521.18 41.22,84.52 85.83,170.43 132.85,257.42l194.4 359.65c114.68,212.42 192.54,334.67 233.06,366.22 21.03,16.08 51.5,25.44 90.86,28.61l13.15 15.93 -7.5 92.02zm2689.96 54.05l-13.07 14.61c-214.27,-9.05 -343.1,-13.84 -387.56,-14.46 -177.31,-2.55 -342.32,-2.01 -495.05,1.7l-12.6 -15 1.31 -90.86 14.61 -16.16 126.04 -5.03c52.89,-2.24 79.8,-20.57 80.34,-55.13 0.31,-20.26 -12.45,-65.88 -38.51,-136.95l-112.74 -306.91c-133.23,-3.87 -269.02,-6.88 -408.36,-8.89 -75.01,-1.08 -186.67,-1.7 -335.37,-1.86l-66.27 175.38c-50.34,133.62 -75.7,217.21 -76.24,250.77 -0.54,36.58 21.88,58.69 67.2,66.19 25.13,4.33 74,8.97 147.46,13.53l14.15 15 -1.31 92.33 -14.54 14.61c-178.16,-8.43 -293.22,-13.15 -344.1,-13.84 -39.51,-0.54 -137.87,1.01 -294,4.64l-14.07 -13.53 1.31 -93.87 16.01 -14.54c99.36,-4.02 160.92,-22.89 183.65,-56.68 23.2,-33.17 111.5,-232.99 264.53,-599.28l390.96 -939.29c29.23,-73.23 73.31,-182.72 132.23,-329.57l205.53 3.02 740.79 1815.17c28.61,69.13 55.21,108.03 79.34,116.76 31.39,12.37 77.25,18.95 137.02,19.8l12.6 16.01 -1.31 92.33zm-905.88 -791.59l-298.64 -762.67 -307.37 753.86c79.03,4.1 181.72,7.04 308.15,8.97 122.49,1.7 221.77,1.62 297.86,-0.15zm2840.9 -1303.26l-11.6 165.63c-2.32,36.65 -4.64,84.75 -6.5,145.14l-3.87 115.84 -13.61 16.39 -83.9 3.63 -14.92 -13.69c-7.66,-130.14 -18.79,-203.83 -32.86,-221.54 -23.58,-29.15 -158.91,-38.04 -405.66,-27.37 -39.44,1.78 -101.53,7.42 -186.13,16.55 -6.11,99.13 -3.87,275.51 7.19,530.15l8.51 194.94 163.55 -2.71c49.41,-1.16 140.04,-7.04 273.04,-17.79 26.14,-2.09 43.07,-9.74 50.96,-23.97 13.76,-23.82 19.41,-87.38 17.86,-191.62l13.69 -15.39 89.78 -3.94 14.92 14.15c1.24,107.72 3.56,207 7.42,296.39 4.25,97.66 10.9,203.68 19.33,319.51l-13.76 13.45 -96.66 4.18 -15.47 -13.61c-4.41,-101.14 -10.9,-160.22 -20.57,-177.62 -17.71,-32.79 -68.43,-50.96 -151.71,-54.21 -56.84,-2.01 -112.74,-2.01 -168.03,0.39 -66.11,2.86 -125.27,6.88 -177.46,12.14l15 343.95c9.9,228.42 22.81,377.2 38.2,447.18 6.19,27.99 23.2,45.08 51.65,51.19 6.5,1.7 75.86,3.63 207.39,5.8l14.92 13.76 4.25 96.66 -15.16 15.54 -581.73 16.32c-82.97,2.71 -197.26,10.59 -343.56,23.89l-14.85 -12.76 -4.33 -98.2 13.76 -14.92c97.9,-10.13 153.96,-17.48 168.57,-22.19 27.37,-8.51 42.84,-26.99 46.55,-55.37 9.74,-71.14 9.2,-220.38 -0.7,-448.88l-33.25 -764.84c-9.98,-228.42 -22.35,-377.74 -38.28,-447.26 -6.11,-27.91 -23.12,-44.93 -51.19,-51.65 -14.92,-2.86 -71.37,-5.26 -169.89,-6.96l-14.92 -13.69 -4.25 -98.2 13.76 -13.92c92.56,1.86 241.18,-1.55 445.48,-10.52 132.23,-5.72 456.77,-22.81 974.24,-51.27l14.77 11.29zm2414.76 -117c-8.04,71.68 -10.05,145.92 -6.88,222l9.98 241.34 -13.53 15.54 -91.25 4.87 -16.47 -12.45c-11.52,-123.03 -20.8,-194.79 -27.45,-215.66 -13.92,-37.89 -45.7,-58.92 -96.35,-63.1 -19.41,-1.93 -110.27,1.47 -272.04,10.13l-193.32 10.36c-0.08,34.18 6.03,167.88 18.64,402.18l44.08 820.67c12.29,229.43 26.76,377.97 42.84,446.87 6.42,27.84 23.66,44.77 52.2,50.65 14.46,3.17 70.99,5.1 169.42,5.72l15.54 13.53 5.18 96.58 -14 15.62c-95.5,-0.77 -244.12,4.25 -445.32,15.08 -206.15,11.06 -354.47,21.96 -444.4,32.71l-14.07 -12.6 -5.18 -98.13 14 -15.08c97.82,-11.21 153.8,-19.18 167.88,-23.89 27.68,-8.82 42.99,-27.53 46.47,-55.91 8.58,-70.21 6.96,-219.45 -5.34,-448.8l-44.08 -820.74c-12.76,-238.24 -21.5,-371.79 -26.06,-401.79l-206.62 11.14c-172.21,9.28 -272.5,20.1 -301.03,32.55 -15,6.26 -25.44,14.15 -30.39,22.89 -8.04,16.24 -13.76,47.17 -16.7,93.87 -4.18,51.19 -5.8,104.16 -4.87,158.06l-13.53 15.54 -91.25 4.95 -16.55 -14 -16.24 -246.98c-4.72,-68.9 -14,-140.66 -28.84,-214.04l12.53 -15.54c57.3,6.8 264.69,0.62 621.78,-18.48l585.44 -31.47c329.49,-17.71 536.34,-33.79 620.62,-48.25l15.16 14.07zm807.44 1538.34c61.47,-4.95 115.99,12.45 163.78,52.74 47.79,40.21 74.39,93.1 79.65,158.6 5.1,63.49 -12.76,118.93 -53.51,166.79 -40.75,47.87 -91.63,74.31 -153.18,79.26 -61.47,4.95 -116.53,-13.45 -164.86,-54.13 -48.41,-41.22 -74.85,-93.1 -79.88,-155.58 -5.1,-63.56 12.6,-119.47 53.36,-167.88 40.75,-48.41 92.1,-74.77 154.65,-79.8zm2812.68 -153.96l-47.01 155.04c-187.36,137.49 -405.89,222.24 -655.73,254.71 -499.53,65.11 -864.36,-70.14 -1094.94,-406.2 -106.79,-154.96 -172.9,-330.18 -198.19,-524.12 -40.91,-313.95 30.85,-577.32 215.2,-791.13 188.52,-220.3 466.9,-354.16 836.21,-402.25 234.61,-30.54 469.37,-17.86 704.37,38.2l21.26 18.64c-15.54,136.56 -15.54,293.45 0.23,471.69l-11.44 15.93 -84.67 11.06 -16.24 -13.84c-18.02,-115.14 -33.41,-195.4 -47.09,-238.94 -137.1,-119.62 -318.74,-164.24 -544.53,-134.78 -232.13,30.23 -404.8,127.43 -517.78,292.06 -112.59,164.63 -152.72,373.1 -119.86,625.34 44.54,341.86 196.18,588.53 455.14,740.63 138.11,81.12 312.48,108.26 523.04,80.81 191,-24.9 371.63,-98.75 541.6,-221l40.44 28.15zm2537.86 -1392.11c82.28,346.5 45.85,641.97 -109.26,887.01 -150.55,238.24 -396.07,397.54 -735.76,478.27 -320.98,76.17 -594.26,45.62 -820.28,-91.63 -226.03,-137.18 -377.43,-366.76 -453.91,-688.75 -107.1,-451.2 -8.89,-805.05 294.46,-1060.38 138.03,-115.99 321.37,-201.13 550.57,-255.49 327.32,-77.71 602.76,-52.81 825.77,76.01 225.95,130.6 375.73,348.9 448.42,654.96zm-416.64 176.15c-64.57,-272.04 -170.27,-475.4 -317.81,-609.41 -147.54,-134.01 -326.47,-175.76 -537.42,-125.66 -279.23,66.27 -434.11,235 -465.89,507.57 -16.16,139.34 -5.49,289.12 32.4,448.65 68.9,290.28 176.61,506.33 323.69,649.08 151.71,147.31 338.15,194.86 558.76,142.51 267.63,-63.56 416.17,-237.86 445.25,-523.5 15.85,-151.48 2.55,-314.33 -38.97,-489.25zm3718.71 -714.88l-4.87 20.03c-85.6,43.3 -214.97,115.68 -389.26,217.83 -178.08,104.39 -304.43,181.87 -379.91,232.91l-17.79 -5.03 -49.72 -84.83 5.1 -19.56c81.81,-54.82 127.9,-87.46 138.65,-98.44 20.18,-20.41 25.67,-44.23 15.23,-70.75 -24.13,-66.58 -93.95,-198.5 -210.1,-396.69l-494.66 -844.17 55.68 733.91c2.71,40.75 17.01,189.3 42.61,445.01l64.03 632.92 -83.51 48.95c-103.93,-77.71 -238.48,-173.44 -405.04,-287.73l-391.97 -268.32 -725.86 -488.32 507.73 866.37c116.14,198.11 197.11,323.61 242.96,377.35 18.48,21.88 41.52,29 69.59,21.11 14.31,-3.79 65.42,-27.99 153.65,-72.84l19.64 5.1 49.64 84.75 -5.64 18.79c-98.82,51.11 -189.45,100.68 -271.65,148.93 -95.89,56.14 -190.69,115.14 -284.02,176.69l-19.1 -4.25 -49.64 -84.83 5.03 -19.56c81.81,-54.82 127.98,-87.53 138.72,-98.44 20.1,-20.34 25.21,-44 15.23,-70.75 -24.13,-66.58 -94.49,-198.27 -210.56,-396.45l-387.1 -660.52c-116.14,-198.19 -196.87,-324.31 -242.88,-377.43 -18.56,-21.81 -41.6,-28.92 -69.44,-21.73 -14.54,4.48 -65.65,28.69 -153.49,73.31l-19.49 -5.18 -49.72 -84.75 5.57 -18.79c89.54,-45.55 200.59,-107.17 332.66,-184.58 101.84,-59.7 188.99,-114.21 261.44,-163.55 64.88,47.32 156.28,113.44 274.12,198.34l180.63 125.42 883.84 597.81 -36.03 -499.22 -75.55 -812.7c-9.28,-95.96 -23.12,-197.72 -40.6,-304.82 96.74,-49.8 161.69,-84.44 194.09,-103.46 163.24,-95.65 286.57,-171.36 370.09,-227.19l19.1 4.25 50.42 86.06 -5.8 18.4c-81.89,54.75 -128.36,87.77 -138.96,97.97 -20.34,21.03 -25.36,44.62 -15.39,71.37 24.28,65.96 94.42,198.34 210.56,396.45l387.1 660.52c116.07,198.19 197.03,323.61 242.88,377.43 18.48,21.88 41.6,29 69.59,21.03 14.38,-3.71 65.8,-28.22 153.65,-72.76l19.64 5.1 48.87 83.51z"/>
  <g>
   <path class="fil4" d="M67191.88 50694.94c780.07,-405.04 1985.67,-756.56 2857.91,-1748.05 771.49,-874.87 1160.36,-2443.91 1194.77,-3231.56 210.02,-180.87 14.31,2476.85 -906.5,3405.62 -772.34,777.91 -1886.69,1356.62 -3059.51,1917.93 -1410.82,675.53 -2987.51,1704.36 -4260.46,2293.12 -429.09,198.81 -814.25,201.44 -1235.29,-10.98 -427.77,-214.5 -953.98,-88.31 -1056.82,383.23 -49.26,219.53 166.48,798.01 496.36,825.38 279.85,13.07 608.79,-260.05 649.08,-109.19 47.87,179.78 -367.69,165.25 -584.51,295 -883.92,530.38 426.38,1706.83 792.37,1105.46 132.54,-217.91 165.63,-535.87 282.55,-476.72 110.65,55.83 -40.83,243.66 -165.02,562.71 -151.41,387.79 104.39,983.83 593.48,915.55 1272.33,-176.77 589.07,-1620.53 1221.3,-1974.3 1107.55,-619.39 2468.27,-1333.81 4083.31,-1674.2 958.46,-201.13 1779.36,-599.36 2535.08,-1031.31 77.33,-44.23 44.46,-81.19 -54.98,-69.21 -230.9,27.84 -510.43,0 -736.3,-195.17 -373.02,-322.3 -470.3,-988.85 -216.75,-1169.95 167.18,-119.55 -82.89,656.5 369.54,1020.32 325.31,261.52 956.99,131.84 1190.52,11.83 344.64,-177 642.66,-487.24 951.97,-788.81 1407.19,-1372.39 1943.99,-3343.53 1971.36,-3261.33 129.06,399.55 -522.88,2017.68 -1765.06,3371.36 -1044.3,1137.78 -2529.35,2037.94 -4120.04,2388.54 475.48,690.53 1155.26,2615.88 2182.39,4311.81 5.18,-410.45 122.56,-663.69 213.34,-603.69 25.29,16.7 -84.6,202.98 -99.44,537.11 -3.56,80.42 26.37,270.02 90.32,393.28 108.1,208.24 260.2,383 398.15,568.81 19.56,-635.01 271.57,-1066.02 393.98,-984.99 34.26,22.58 -243.5,479.97 -229.58,1002.77 2.55,95.27 -0.54,203.99 88.77,314.49 192.7,238.32 363.36,425.61 577.71,626.11 56.53,-601.29 381.68,-1426.13 549.56,-1315.09 42.3,28.07 -250.85,468.68 -306.99,1113.74 -13.61,156.51 65.8,471.15 192.78,574.38 198.27,161.23 415.63,289.05 636.86,399.08 202.21,-441.53 429.86,-1626.64 719.6,-1536.02 -1467.89,3478.92 -979.26,7257.8 1995.03,11674.62 458.86,681.4 988.78,867.91 1458.61,890.34 472.16,22.5 501.93,-399.39 629.13,-321.68 128.67,78.56 -123.41,554.05 -570.75,568.81 -259.43,8.58 -475.25,-21.88 -756.64,-168.73 -41.91,-21.81 -93.33,15.62 -54.13,71.84 998.44,1432.24 1513.13,2514.12 1911.05,4329.75 389.03,1775.34 -1353.29,522.19 -2423.65,1210.16 -397.15,255.33 -188.75,1436.88 102.3,1194.85 435.04,-360.34 1143.43,-225.33 1110.87,-63.1 -7.58,41.29 -261.67,-34.26 -524.04,-4.1 -397.23,44.85 -893.05,402.41 -578.71,1163.15 338.69,820.2 1353.14,574.38 1490.16,18.71 77.17,-310.7 462.95,-577.94 585.21,-443.78 132.69,147.31 -374.65,78.87 -462.34,506.33 -228.42,1119.77 2215.79,1419.79 2240.07,-10.52 1475.31,866.52 1588.75,-1113.12 1339.68,-1780.75 -776.2,-2076.61 -2216.03,-6824.92 -2014.51,-10638.6 -502.16,-960.24 -1306.43,-1241.17 -1081.88,-1265.68 375.88,-40.83 784.01,259.35 1126.73,682.48 14.46,-142.36 31.47,-283.09 51.19,-421.89 -221.31,-1074.99 -954.98,-1543.98 -723.47,-1515.68 346.5,42.37 641.11,361.89 857.63,785.64 58.69,-256.57 128.67,-504.48 210.87,-742.57 -255.87,-1064.25 -907.97,-1506.01 -699.57,-1485.99 363.51,34.95 678.15,450.2 899.39,979.11 250.38,-554.43 580.8,-1040.28 1006.56,-1433.71 1315.79,-1215.42 7737.15,73.15 10099.01,-3091.36 2485.43,-3331.31 1514.36,-8354.37 -2715.56,-6957.93 -232.75,76.79 -365.21,498.14 247.52,586.06 4025.47,577.32 2043.97,7317.5 -3380.49,6938.05 -1788.64,-124.42 -3637.29,300.57 -5193.64,-703.9 718.36,65.03 1406.42,-47.17 1577.77,-449.42 94.49,-221.77 -766.69,431.79 -2227.01,-75.16 -110.42,-109.49 -218.91,-228.81 -325.31,-358.72l-33.33 -40.6c550.26,70.99 1054.81,-6.03 1267.85,-330.42 124.88,-190.15 -610.26,217.98 -1660.9,-149.16 -147.46,-180.48 -274.35,-336.99 -385.55,-478.5 441.61,107.56 849.2,94.88 1087.83,-123.65 156.51,-143.44 -569.12,56.29 -1465.73,-388.88 -425.53,-634.85 -586.37,-1170.03 -1284.78,-3011.72 -1225.7,-3232.18 1170.42,-10289.85 -2610.08,-13751.46 1167.86,167.57 4369.96,-274.66 4058.56,-1202.2 -524.04,-46.32 -2039.03,185.89 -2792.73,284.87 960.32,-695.86 2769.99,-280.23 3471.04,-947.72 407.74,-389.88 791.13,-965.5 751.38,-1440.67 -61.55,-756.02 -715.81,-1069.58 -1316.25,-1385.92 -255.49,-134.55 -495.28,-241.72 -718.52,-327.17 -99.98,1056.44 -1006.41,1303.65 -1476.71,959.62 -714.58,-522.73 -426.53,-1564.24 39.2,-797.78 99.75,164.24 201.67,259.89 302.97,305.67 8.27,-967.51 329.26,-870 379.21,14 253.63,-70.21 376.27,-264.53 474.71,-573.22 -1184.1,-394.83 -1783,-157.28 -1688.58,-281.7 351.22,-462.88 1677.83,-154.42 2637.61,342.63 -24.2,-840.08 -395.68,-1823.52 -1121.7,-2481.41 -1929.3,-1745.03 -4065.83,-1026.67 -5315.74,-130.06 296.86,731.59 291.83,1277.9 282.94,1729.1 -442.77,-1386.31 -890.65,-3656.31 -2731.56,-4431.82 -169.11,1356.85 -20.49,4058.95 1783.93,6155.97 -187.21,-45.7 -307.91,-111.35 -411.92,-198.96 -10.28,-18.56 -27.06,-33.87 -50.42,-45.31 -60.55,-57.45 -117.85,-123.03 -183.19,-197.26 -139.27,87.3 -274.97,183.57 -407.28,288.2 -60.93,24.51 -126.04,53.2 -195.48,86.61 -1611.25,775.9 -2780.9,-202.75 -2645.11,64.95 273.35,538.5 1257.95,685.19 2083.02,579.72 -88.38,102.07 -174.84,208.24 -259.2,318.28 -1027.75,709.32 -2001.68,358.49 -1818.18,539.35 296.93,292.76 829.1,284.33 1364.04,119.78 -115.84,187.05 -226.49,382.38 -332.5,584.36 -714.96,540.28 -1351.21,508.58 -1185.65,612.97 234.61,148 562.63,106.79 908.43,-44.85 -1542.98,3407.4 -1823.52,8431.08 -444.55,11950.6zm8554.57 -12577.17c-1193.07,246.21 -3020.07,979.96 -2936.94,1416.93 31.24,164.01 689.21,-738.62 3080.46,-1165.16 1585.43,-282.78 1249.75,-539.28 -143.52,-251.78zm459.32 -1158.51c-1200.5,-160.68 -3274.47,-108.1 -3490.6,283.25 -81.19,146.92 1087.21,-406.43 3449.15,-28.3 1566.02,250.69 1443.38,-67.27 41.45,-254.95zm-329.95 553.66c-1218.28,27.53 -3189.03,385.09 -3237.74,784.56 -18.33,149.86 879.28,-543.06 3301.54,-539.2 1605.92,2.55 1359.09,-277.53 -63.79,-245.36zm-3709.82 -5732.76c89,-1043.75 362.28,-2070.34 1234.83,-2542.58 190.61,521.26 390.34,1241.09 503.78,2048.92 -630.99,40.98 -1224.62,234.61 -1738.61,493.65zm7186.66 46499.9c726.02,742.88 1350.9,-52.2 1159.74,-569.67 -52.27,-141.43 -146.07,-106.17 -166.95,8.58 -52.04,286.34 -308.61,708.85 -782.62,295.47 -492.49,-429.7 -559.69,-91.86 -210.17,265.62zm-13400.08 -35605.27c-1064.4,127.9 -2121.07,-1146.99 -2771.15,-1810.68 -1087.29,-1110.02 -1586.9,-1825.22 -2548.69,-2833.63 -838.45,-879.13 -1086.75,-1855.84 -2139.32,-2000.67 -853.3,-117.38 -1085.59,889.87 -472.16,936.66 519.63,39.59 926.14,345.19 855.08,414.93 -131.92,129.37 -304.51,-260.28 -883.61,-277.45 -1220.14,-36.11 -962.1,1633.45 288.35,1083.89 269.02,-118.16 761.13,71.14 744.04,202.67 -16.16,124.57 -334.98,-192.31 -692.07,-99.21 -393.05,102.61 -653.72,514.45 -445.01,857.4 417.8,686.74 1069.12,-106.17 1716.96,215.97 605.62,301.19 1297.31,1402.7 2394.42,2623.46 499.84,556.21 1427.45,1516.14 2246.72,2195.84 42.99,35.65 105.94,-13.69 101.68,-67.04 -19.02,-235.3 76.71,-361.66 198.03,-437.9 201.05,-126.51 485.3,-92.25 525.13,-18.48 40.67,75.39 -280.39,52.27 -411.22,158.52 -239.56,194.63 -127.28,604.93 30.31,773.96 307.84,330.26 933.41,961.17 931.63,635.16 -6.5,-1196.01 48.48,-1733.35 330.88,-2553.4zm6639.65 19500.38c-1086.98,1137.71 -1850.58,2811.83 -1733.97,6579.95 50.96,1645.05 135.24,2614.1 -13.3,4529.33 -137.64,1775.19 -1086.05,1558.6 -1731.65,1572.28 -678.15,14.38 -877.5,616.6 -754.71,1066.57 126.43,463.73 622.4,662.61 666.4,443 54.67,-272.96 475.09,-525.67 633.15,-563.25 347.2,-82.74 574.15,-53.36 549.48,13.3 -15.85,43.07 -277.29,43.3 -487.78,102.77 -213.19,60.31 -488.55,214.35 -542.76,519.09 -43.3,243.19 -87.3,515.07 85.21,828.17 258.81,469.91 1347.88,558.38 1223.15,61.63 -97.2,-387.87 22.04,-577.09 102.92,-725.86 168.96,-310.7 569.74,-578.02 651.55,-443.62 89.47,146.92 -320.36,96.66 -534.48,524.12 -125.81,251.08 -104.47,468.52 -56.14,635.7 93.1,322.53 416.56,474.63 889.18,435.74 659.13,-54.36 459.86,-931.24 986.61,-761.28 963.95,311.01 1109.56,-269.79 950.81,-973.54 -119.01,-527.6 -442.93,-1080.1 -470.76,-1620.77 -86.68,-1676.6 212.18,-3492.84 1324.53,-5457.64 -1283.54,-2387.92 -1856.53,-4701.92 -1737.45,-6765.69z"/>
   <path class="fil10" d="M76846.27 33688.73c204.14,-968.83 820.2,-2527.34 1192.22,-2555.03 139.65,-10.44 -625.11,684.73 -977.41,2612.56 -5.8,31.86 -11.68,62.56 -17.4,92.64l28.84 -55.37c441.23,-835.2 1468.59,-2105.45 1885.69,-2036.01 156.59,26.06 -842.94,467.83 -1661.13,2143.42 -264.07,540.75 -446.25,760.58 -504.4,731.51 -70.14,23.66 -76.24,-317.5 53.59,-933.72z"/>
   <path class="fil5" d="M58104.07 36264.79c-236.93,-175.45 -577.78,-310.23 -929.54,-307.45 -311.24,2.32 -585.13,114.75 -624.26,224.56 -2.09,6.26 38.43,27.76 102.61,19.41 521.65,-67.97 699.65,72.07 1137.09,402.02 321.29,242.42 625.5,-108.03 314.1,-338.54z"/>
   <path class="fil5" d="M57674.83 37374.2c-237.24,-136.02 -578.64,-202.91 -931.01,-116.61 -311.78,76.24 -586.29,264.15 -625.5,393.67 -2.17,7.35 38.43,21.26 102.77,-3.09 522.65,-197.88 700.81,-86.68 1138.87,171.05 321.6,189.37 626.65,-266.31 314.87,-445.01z"/>
   <path class="fil5" d="M57993.26 38627.97c-260.98,11.29 -557.91,117.3 -769.71,335.06 -187.52,192.7 -278.84,446.48 -229.27,554.35 2.86,6.11 41.83,-2.4 75.24,-48.1 271.49,-371.79 473.01,-373.95 958.85,-390.11 356.86,-11.91 307.84,-466.05 -35.11,-451.2z"/>
   <path class="fil11" d="M61105.97 53662.66c-287.19,-55.6 -646.53,-28.07 -952.51,129.91 -270.8,139.65 -458.7,363.44 -442.54,481.05 1.01,6.65 46.24,8.35 98.44,-27.68 424.6,-292.6 644.05,-243.35 1177.07,-135.24 391.43,79.49 496.9,-375.03 119.55,-448.03z"/>
   <path class="fil11" d="M61332.69 55166.36c-255.72,114.29 -509.2,354.47 -632.69,693.47 -109.34,299.95 -98.2,635.01 -5.34,743.11 5.34,6.11 40.75,-19.02 55.68,-85.91 120.94,-543.92 321.14,-624.41 799.17,-831.57 351.14,-152.1 119.24,-669.26 -216.82,-519.09z"/>
   <path class="fil11" d="M62472.64 56342.11c-103.23,234.45 -136.95,546.78 -33.33,838.99 91.55,258.58 279.85,462.8 398.23,472 6.73,0.46 16.01,-37.89 -10.52,-89.54 -215.97,-419.81 -130.37,-597.66 66.04,-1031.69 144.37,-318.82 -284.79,-497.75 -420.42,-189.76z"/>
   <path class="fil11" d="M68554.3 75372.11c-243.42,105.09 -485.15,338.77 -603.77,679.08 -105.01,301.11 -95.65,643.28 -7.81,757.8 5.03,6.42 38.9,-17.63 53.2,-85.14 117,-549.48 377.9,-495.82 832.89,-685.66 334.28,-139.5 45.47,-804.2 -274.51,-666.09z"/>
   <path class="fil11" d="M69474.95 76613.67c-291.29,214.81 -547.55,598.35 -615.6,1083.81 -60.31,429.63 39.44,877.58 183.57,1000.84 8.2,6.88 46.24,-35.34 47.79,-128.83 12.37,-760.58 242.65,-916.63 788.89,-1309.45 401.25,-288.43 -21.81,-928.62 -404.65,-646.37z"/>
   <path class="fil11" d="M70919.95 77097.19c-179.63,273.27 -278.3,653.1 -187.29,1028.91 80.42,332.66 301.26,612.81 460.17,642.2 9.05,1.55 28.15,-44.31 0.93,-111.89 -221.77,-550.26 1.55,-666.86 341.47,-1172.12 249.61,-371.01 -379.21,-746.12 -615.29,-387.1z"/>
   <path class="fil11" d="M75700.44 77313.4c-253.55,60.62 -521.18,248.76 -679.93,564.18 -140.5,279.15 -172.9,619.23 -99.91,748.06 4.25,7.27 40.6,-10.52 63.02,-74.77 182.57,-522.57 434.11,-423.13 907.35,-530 347.66,-78.56 142.82,-787.26 -190.53,-707.46z"/>
   <path class="fil11" d="M76216.13 78927.67c-291.29,214.74 -547.55,598.28 -615.6,1083.81 -60.31,429.55 39.44,877.5 183.57,1000.76 8.2,6.88 46.24,-35.26 47.79,-128.83 12.37,-760.51 242.65,-916.63 788.89,-1309.45 401.25,-288.35 -21.81,-928.62 -404.65,-646.3z"/>
   <path class="fil11" d="M77923.66 79709.67c-179.55,273.27 -278.22,653.1 -187.21,1028.91 80.42,332.66 301.19,612.89 460.17,642.2 9.05,1.55 28.07,-44.31 0.85,-111.89 -221.77,-550.18 1.62,-666.86 341.47,-1172.12 249.69,-371.01 -379.21,-746.12 -615.29,-387.1z"/>
  </g>
 </g>
</svg>
