<?xml version="1.0" encoding="UTF-8"?>
<!DOCTYPE svg PUBLIC "-//W3C//DTD SVG 1.1//EN" "http://www.w3.org/Graphics/SVG/1.1/DTD/svg11.dtd">
<!-- Creator: CorelDRAW 2020 (64-Bit) -->
<svg xmlns="http://www.w3.org/2000/svg" xml:space="preserve" width="139.425mm" height="198.268mm" version="1.1" style="shape-rendering:geometricPrecision; text-rendering:geometricPrecision; image-rendering:optimizeQuality; fill-rule:evenodd; clip-rule:evenodd"
viewBox="0 0 15363.79 21847.98"
 xmlns:xlink="http://www.w3.org/1999/xlink"
 xmlns:xodm="http://www.corel.com/coreldraw/odm/2003">
 <defs>
  <style type="text/css">
   <![CDATA[
    .fil0 {fill:#E6E6E6}
    .fil1 {fill:#005EC4}
    .fil2 {fill:#0057A6}
   ]]>
  </style>
 </defs>
 <g id="Layer_x0020_1">
  <metadata id="CorelCorpID_0Corel-Layer"/>
  <rect class="fil0" x="-0" y="-0" width="15363.78" height="21847.98"/>
  <g>
   <path class="fil1" d="M549.67 509.45l14264.46 0 0 20829.08 -14264.46 0 0 -20829.08zm142.65 142.64l13979.16 0 0 20543.8 -13979.16 0 0 -20543.8zm2149.28 20425.69c-36.14,-5.59 -68.85,-43.25 -93.65,-101.86l-453.82 0 0 33.93 -1126.66 0 0 67.93 1674.13 0zm-104.4 -130.01c-10.31,-29.95 -18.82,-64.01 -25.03,-101.06l-423.61 14.8 1.18 33.92 -1122.28 39.19 0 67.97 1569.74 -54.81zm-29.11 -128.3c-1.3,-9.73 -2.41,-19.63 -3.39,-29.7 -1.59,-3.09 -2.5,-6.89 -2.5,-11.1l0 -20.54c-0.82,-13.2 -1.36,-26.62 -1.62,-40.23l-421.55 29.48 2.37 33.84 -1113.93 77.91 0 68.08 1540.62 -107.74zm-7.65 -129.1c0.15,-16.75 0.77,-33.22 1.75,-49.38l0 -19.12 -1534.73 161.3 0 68.31 1532.98 -161.11zm800.22 387.41c-39.34,-5.5 -75.32,-42.79 -103.9,-101.86l-339.67 0c-15.2,42.7 -33.8,77.57 -54.76,101.86l461.78 0 36.55 0zm-124.7 -152.32c-10.64,-30.33 -19.7,-64.27 -26.84,-100.98l-154.06 5.38 -35.57 103.17 216.48 -7.57zm315.58 152.32c15.58,-18.02 30.06,-40.93 43.15,-67.93l4307.46 0 0 -75.46 756.53 0c73.19,85.47 158.62,137.08 250.22,143.4l-5357.36 0zm692.12 -255.12c6.07,23.23 11.89,41.14 20.9,66.82l-633.43 22.18c6.1,-21.62 11.56,-44.54 16.26,-68.52l596.26 -20.49zm608.54 -21.59l380.26 -13.28 21.62 67.03 -444.19 15.56 -538.73 18.88 581.04 -88.19zm1191.33 -41.61l1850.76 -64.63 -2.63 -75.42 593.66 -20.73c15.55,50.25 33.41,97.64 53.36,141.6l-2489.48 86.93 -5.66 -67.76zm1145.52 -331.19l686.38 -48 -5.26 -75.27 550.09 -38.47 0 63.44 8.53 -0.76c3.28,27 7.15,53.55 11.6,79.64l-1262.1 88.25 10.75 -68.83zm42.53 -297.19l1187.44 -124.79c-1.33,22.63 -2.25,45.52 -2.71,68.6l-1174.71 123.46 -10.02 -67.26zm2210.15 946.46c43.98,-37.99 84.95,-86.25 122.04,-143.15l1406.21 0c86.15,86.17 183.65,137.31 287.18,143.4l-1815.43 -0.24zm2496.84 -0.28l545.57 0.52 0 -67.93 -477.34 0c-22.04,24.64 -44.8,47.16 -68.23,67.42zm-1152.53 -415.45c-20.96,-44.41 -40.21,-91.68 -57.64,-141.45l-927.03 32.36 -6.58 18.41c-19.14,53.68 -64.71,103.59 -116.6,129.36l1107.85 -38.69zm1448.32 -50.58c8.32,-22.46 16.28,-45.39 23.88,-68.79l225.9 -7.89 0 67.97 -249.78 8.72zm249.78 -9482.07l0 -130.86 -5099.38 3704.92 -110.32 -151.81 -4239.75 3080.35 4066.74 -3293.19 5382.7 -4358.81 0 -136.23 -5449.33 4412.77 -118.09 -145.83 -4072.84 3298.11 3610.66 -3251.04 5933.76 -5342.79 -158.21 0 -5568.12 5013.58 -125.58 -139.48 -3894.67 3506.77 3435.58 -3435.58 264.8 -264.76 5204.88 -5204.92 -74.84 -74.84 -5204.91 5204.88 -132.71 -132.7 -3705.71 3705.68 3501.54 -3888.83 4942.08 -5488.73 -74.95 -74.97 -4945.8 5492.85 -139.47 -125.58 -3506.65 3894.54 3057.53 -3775.76 228.32 -281.93 7.34 -9.08 4693.9 -5799.87 -75.25 -75.26 -4700.92 5808.51 -145.85 -118.09 -3298.01 4072.68 3075.82 -4233.49 -0.02 -0.01 4460.9 -6137.67 -75.79 -75.79 -4470.73 6151.23 -151.84 -110.3 -3080.45 4239.89 2850.16 -4388.85 4230.46 -6514.36 -76.53 -76.53 -4242.71 6533.23 -157.4 -102.2 -2854.3 4395.26 2616.51 -4531.96 4001.49 -6930.74 -77.5 -77.5 -4015.68 6955.32 -162.51 -93.83 -2620.32 4538.55 2375.7 -4662.62 3545.23 -6957.91c-31.55,-15.5 -62.65,-32.23 -93.26,-50.14l-3546.28 6959.98 -167.22 -85.2 -2308.92 4531.5 0 3552.52 2664.83 -1936.91 195.32 65.63 3.96 -210.44 3555.41 -2581.62 5037.17 -3659.73zm0 -331.95l0 -132.22 -923.25 690.93 -49.46 -65.63 79.35 -59.88 -50.13 -66.6 943.48 -732.1 0 -133.97 -1168.2 906.46 49.91 63.33 -4021.19 3034.5 63.65 84.57 2829.17 -2134.95 113.18 150.19 1274.59 -960.48 -0.65 -0.89 859.55 -643.25zm0 -1176.31l0 -137.82 -1454.11 1211.93 -52.82 -62.95 76.11 -63.95 -53.52 -63.89 1484.34 -1281.68 0 -139.85 -1706.63 1473.6 53.14 60.64 -3856.86 3240.8 67.98 81.14 2713.55 -2280.1 120.88 144.06 1222.59 -1025.87 -0.71 -0.84 1386.05 -1155.21zm105.46 -629.27l0 139.85 1.31 -1.12 0 -139.85 -1.31 1.12zm0 403.57l0 137.82 1.31 -1.1 0 -137.82 -1.31 1.1zm0 362.92l0 136.22 1.31 -1.05 0 -136.23 -1.31 1.06zm0 457.78l0 133.97 1.31 -1.01 0 -133.97 -1.31 1.01zm0 370.17l0 132.22 1.31 -0.99 0 -132.21 -1.31 0.98zm0 335.62l0 130.84 1.31 -0.96 0 -130.84 -1.31 0.96zm871.37 10169.21l214.37 0 0 -11438.79 -2.79 -6.91c-80.02,-15.44 -152.54,-51.91 -211.58,-103.45l0 11549.15zm398.58 0l195.72 0 0 -11547.85c-55.19,47.79 -122.04,82.44 -195.72,99.15l0 11448.7zm1.22 -12332.24c32.06,7.37 62.79,18.14 91.85,31.92l101.97 -82.58 0 -136.22 -211.03 170.89 17.21 15.99zm-161.82 -150.26l-78.2 -72.64 433.85 -361.59 0 137.83 -355.64 296.4zm-242.64 -225.31l-68.11 -63.25 0 -17.8 666.39 -575.4 0 139.85 -598.28 516.6zm-6705.26 -6205.52c17.04,-17.02 34.38,-33.52 52.02,-49.54l406.79 -949.54 -115.14 0 -517.66 1208.33c50.57,-73.66 108.53,-143.78 173.99,-209.25zm384.57 -277.26c46.96,-23.41 94.91,-44.14 143.6,-62.25l293.67 -659.58 -115.89 0 -321.38 721.83zm540.11 -149.78c39.66,-3.16 79.43,-4.79 119.22,-4.76l266.82 -567.29 -116.98 0 -269.06 572.05zm391.85 20.84c35.63,6.71 71.01,14.71 106.15,24.06l303.44 -616.94 -117.98 0 -291.61 592.89zm319.02 98.55c32.21,14.14 64.02,29.47 95.36,46.03l375.75 -737.46 -118.8 0 -352.31 691.43zm370.05 233.88c27.14,23.45 53.63,48.01 79.39,73.77l0.76 0.77 535.92 -999.86 -120.12 0 -495.95 925.31zm256.16 287.13c22.83,33.51 44.18,67.74 63.96,102.63l702.95 -1258.28 -92.81 -50.95 -674.1 1206.6zm175.53 350.7c15.93,46.58 29.45,93.78 40.6,141.42l984.13 -1704.57 -122.25 0 -902.48 1563.15zm-1340.5 1951.65c-40.33,1.48 -80.7,1.37 -121,-0.44l-1268.19 2270.01 -71.87 -39.85 48.13 -86.99 -72.86 -40.44 1141.59 -2129.9c-35.74,-7.13 -71.25,-15.63 -106.48,-25.41l-1223.97 2283.57 71.35 37.58 -2439.3 4407.72 92.54 51.41 1716.21 -3101.14 164.48 91.16 773.74 -1395.86 -0.95 -0.53 1296.59 -2320.9zm-950.63 -302.54c-28.6,-21.93 -56.54,-45.12 -83.82,-69.43l-1108.48 2253.68 -73.89 -36.02 43.53 -89.39 -74.89 -36.57 1059.13 -2251.73c-25.58,-30.78 -49.8,-62.35 -72.47,-94.63l-1168.54 2484.35 73.21 33.77 -2205.28 4529.35 95.12 46.46 1551.55 -3186.66 169 82.43 699.64 -1434.46 -0.98 -0.46 1097.16 -2230.67zm-474.82 -628.17c-19.27,-48.78 -35.86,-98.39 -49.73,-148.6l-3383.75 7600.06 -171.46 -76.33 -1789.99 4020.41 0 721.67 2058.15 -4622.68 3336.79 -7494.53zm-102.7 -506.18c-2.83,-114.79 7.77,-229.81 31.61,-342.6l-1419.43 3313.33 -75.65 -32.11 38.77 -91.54 -76.68 -32.63 1995.58 -4892.35 -114.33 0 -2055.68 5039.68 74.88 29.9 -1965.2 4638.56 97.41 41.42 1382.65 -3263.51 173.1 73.48 623.6 -1469.12 -1.01 -0.42 1290.38 -3012.09zm2970.17 143.14l77.1 77.1 1390.58 -2298.15 -123.74 0 -1343.95 2221.05zm252.87 252.88l76.77 76.77 1605.03 -2550.71 -125.09 0 -1556.71 2473.93zm228.82 228.82l76.55 76.54 1804.88 -2779.29 -126.24 0 -1755.19 2702.75zm299.09 299.08l76.19 76.19 2091.99 -3078.02 -127.98 0 -2040.2 3001.83zm245.82 245.82l75.97 75.97 2342.71 -3323.62 -129.52 0 -2289.16 3247.65zm225.6 225.61l75.78 75.77 2579.46 -3549.03 -130.87 0 -2524.37 3473.26zm289.26 289.25l75.62 75.62 2907.24 -3838.13 -132.81 0 -2850.05 3762.51zm242.91 242.91l75.39 75.41 2904.97 -3699.39 0 -171.38 -2980.36 3795.37zm221.24 221.24l75.26 75.26 2683.86 -3316.25 0 -168.23 -2759.13 3409.22zm286.47 286.48l75.25 75.24 2397.4 -2847 0 -164.39 -2472.66 2936.14zm245.16 245.16l75.01 75 2152.49 -2458.73 0 -160.7 -2227.5 2544.42zm218.23 218.22l74.94 74.94 1934.32 -2148.3 0 -158.17 -2009.27 2231.53zm286.84 286.85l74.89 74.89 1647.54 -1755.03 0 -154.69 -1722.43 1834.83zm238.92 238.91l74.85 74.87 1408.65 -1449.04 0 -151.88 -1483.51 1526.06zm217.89 217.89l74.85 74.87 1190.77 -1190.79 0 -149.69 -1265.62 1265.61zm286.28 286.3l74.88 74.87 904.46 -867.63 0 -146.69 -979.34 939.46zm238.92 238.91l74.03 74.03 0 1.7 666.39 -617.29 0 -144.3 -740.42 685.86zm74.03 348.11l0 142.44 666.39 -600.02 0 -142.45 -666.39 600.03zm-1366.32 993.26l-74.91 -74.9 -1481.64 1372.46 -56.06 -60.11 72.66 -67.86 -56.78 -60.98 1380.76 -1324.55 -74.87 -74.88 -1525.17 1463.08 56.27 57.75 -3681.99 3438.22 72.16 77.49 2590.5 -2419.01 128.23 137.52 1167.24 -1088.44 -0.75 -0.82 1484.35 -1374.97zm-674.17 -674.17l-74.87 -74.85 -1404.52 1444.78 -59.12 -57.09 68.98 -71.55 -59.88 -57.95 1313.51 -1399.22 -74.89 -74.89 -1454.26 1549.15 59.19 54.74 -3496.98 3626.2 76.09 73.58 2460.36 -2551.25 135.27 130.62 1108.66 -1148.05 -0.79 -0.76 1403.24 -1443.47zm-674.98 -674.97l-75.02 -75.02 -1357.08 1550.18 -62.03 -53.9 65.16 -75.09 -62.84 -54.73 1272.33 -1510.94 -75.31 -75.3 -1408.45 1672.46 62 51.57 -3302.42 3804.25 79.84 69.5 2323.45 -2676.54 141.93 123.38 1047.05 -1204.52 -0.83 -0.71 1352.21 -1544.61zm-681.54 -681.55l-75.41 -75.39 -1331.82 1696 -64.77 -50.59 61.18 -78.37 -65.65 -51.36 1257.1 -1659.63 -75.66 -75.66 -1388.05 1832.44 64.6 48.26 -3098.8 3971.87 83.38 65.22 2180.19 -2794.42 148.19 115.74 982.58 -1257.63 -0.85 -0.67 1323.78 -1685.79zm-687.64 -687.64l-75.97 -75.96 -1327.42 1883.21 -67.33 -47.13 56.97 -81.48 -68.23 -47.86 1259.55 -1853.21 -76.18 -76.17 -1384.61 2037.23 67.03 44.8 -2886.69 4128.62 86.68 60.75 2030.98 -2904.72 154.02 107.86 915.44 -1307.35 -0.91 -0.65 1316.68 -1867.95zm-701.23 -701.23l-76.77 -76.76 -1334.47 2120.74 -69.69 -43.57 52.63 -84.33 -70.67 -44.22 1270.75 -2100.07 -77.1 -77.11 -1388.95 2295.41 69.29 41.23 -2666.64 4274.02 89.73 56.15 1876.13 -3007.03 159.49 99.65 845.74 -1353.46 -0.93 -0.6 1321.46 -2100.06zm-7574.87 291.98l706.27 -4459.16 107.16 0 -813.43 5135.83 0 -676.67zm0 3951.48l1787.73 -8410.64 108.23 0 -1895.97 8919.8 0 -509.16zm0 1662.1l170.94 -637.98 181.28 48.57 2541.04 -9483.33 109.6 0 -2548.38 9510.73 -454.48 1696.15 0 -1134.14zm0 1723.02l719.55 -2214.53 178.49 58 3131.97 -9639.23 111.3 0 -3142.6 9671.93 -998.7 3073.67 0 -949.84zm0 1242.11l1259.72 -3281.66 175.21 67.27 3770.85 -9823.48 113.41 0 -3919.62 10210.99 -1399.56 3645.99 0 -819.12zm50.66 -13037.86l-50.66 401.5 0 845.63 157.34 -1247.13 -106.68 0zm-50.66 3472.21l499.77 -3472.21 -106.95 0 -392.82 2729.15 0 743.06zm1120.72 -3472.21l-741.58 4125.41 79.47 13.69 -458.61 2367.94 0 556.66 278.55 -1438.21 184.61 35.87 304.52 -1566.65 -1.06 -0.2 810.01 -4094.5 -107.9 0 -806.05 4074.29 -80.67 -15.69 18.88 -97.6 -81.78 -15.95 709.14 -3945.06 -107.54 0zm1090.06 0l-1005.45 4290.05 78.63 17.83 -1215.39 4888.87 102.69 25.7 855.09 -3439.65 182.46 45.5 386.11 -1548.57 -1.06 -0.28 1082.12 -4279.45 -109.19 0 -1075.64 4253.83 -79.76 -19.87 23.99 -96.49 -80.85 -20.21 964.97 -4117.27 -108.73 0zm1116.85 0l-1305.9 4497.71 77.6 21.92 -1469.57 4818.55 101.21 31.03 1033.94 -3390.16 179.84 54.98 466.62 -1526.24 -1.06 -0.33 1394.48 -4507.46 -110.81 0 -1384.89 4476.52 -78.61 -24.02 29.01 -95.11 -79.68 -24.42 1258.05 -4332.97 -110.24 0zm1151.04 0l-1652.49 4747.83 76.34 25.93 -1719.75 4735.05 99.45 36.26 1209.95 -3331.4 176.71 64.31 545.86 -1499.73 -1.02 -0.37 1757.02 -4777.88 -112.78 0 -1743.7 4741.68 -77.25 -28.12 33.94 -93.42 -78.28 -28.57 1598.09 -4591.57 -112.08 0z"/>
  </g>
  <path class="fil2" d="M4668.51 20378.42l53.97 -11.8c-7.85,-11.34 -12.44,-25.03 -12.44,-39.76 0,-22.07 10.17,-41.55 27.11,-55.28l-87.85 19.2c-24.11,5.27 -39.5,29.3 -34.23,53.41 5.29,24.1 29.34,39.49 53.43,34.24zm-53.43 -34.24l0 0zm988.84 536.04c107.8,0 195.19,-206.66 195.19,-461.61 0,-254.93 -87.38,-461.6 -195.19,-461.6 -22.56,0 -44.21,9.08 -64.39,25.74l25.37 1.06c24.85,1.04 45.1,27.34 45.19,58.51l0.54 201.35 -3.94 8.19 4.56 151.08 9.56 -19.8 3.88 -124.28c29.83,18.08 49.43,82.52 49.43,159.76 0,85.97 -27.39,156.07 -62.58,165.06l0 0.06 -0.23 0.02c-2.42,0.6 -4.9,0.9 -7.39,0.9 -2.12,0 -4.23,-0.23 -6.29,-0.67l-175.5 3.11c28.46,171.63 99.13,293.14 181.79,293.14zm-996.25 44.06c12.26,0 24.21,-3.46 35.64,-9.96 -22.84,24.74 -48.24,38.52 -75.01,38.52 -78.9,0 -145.96,-119.81 -170.44,-286.7 23.99,-2.85 47.99,-5.77 71.99,-8.54 13.42,-1.56 24.52,-16.8 24.58,-33.86 0.31,-89.52 0.68,-179.05 1.07,-268.59 0.09,-17.32 -11.01,-29.75 -24.55,-27.44 -36.65,6.18 -73.27,12.51 -109.93,18.68l2.44 -15.66 123.62 -20.03 12.8 1.64 68.88 8.83c11.86,1.51 21.3,8.42 21.3,23.42l0 284.04c0,9.77 -6.05,24.62 -17.25,25.23l-111.62 6.24c17.59,152.26 76.51,264.19 146.47,264.19zm-115.69 -784.6c23.17,-25.65 49.05,-39.98 76.32,-39.98 17.09,0 33.64,5.64 49.3,16.15l-125.62 23.82zm277.03 513.97l135.85 -29.7c24.82,-5.39 48.75,10.4 54.28,34.79 5.37,25.04 -10.5,48.78 -34.74,54.24l-128.76 28.14 -7.1 1.55c-24.52,5.26 -49.07,-10.51 -54.28,-34.79 -5.71,-25.06 11.29,-48.9 34.76,-54.24zm0 -122.82l135.85 -29.7c25.05,-5.45 48.69,10.53 54.28,34.77 5.38,24.5 -10.26,48.89 -34.74,54.25l-0.1 0.02 0 0.01 -135.76 29.68c-24.8,4.9 -48.71,-9.88 -54.28,-34.8 -5.41,-27.06 10.94,-48.06 34.76,-54.23zm-34.9 -68.61c-5.2,-23.5 9.92,-48.94 34.9,-54.22l135.85 -29.7c24.77,-5.42 48.69,10.35 54.28,34.78 5.43,25.39 -10.07,47.84 -34.74,54.24l-110.87 24.23 -24.99 5.47c-25.05,5.22 -48.46,-10.06 -54.42,-34.8zm-316.6 165.85c28.68,0 51.96,-59.42 51.96,-132.74 0,-73.3 -23.27,-132.74 -51.96,-132.74 -12.32,0 -23.98,11.38 -32.55,29.27 3.21,-4.11 8.56,-13.31 23.18,-13.31 17.63,0 43.31,54.82 43.31,123.47 0,68.65 -16.46,124.39 -43.31,123.47l-0.95 -0.02c3.34,1.71 6.78,2.6 10.31,2.6zm197.58 80.84l0 0c5.34,24.21 29.32,39.45 53.43,34.24l49.91 -10.9c-5.34,-10.57 -8.36,-22.58 -8.36,-35.32 0,-25.03 11.61,-47.23 29.57,-61.17l-90.32 19.75c-23.9,5.54 -39.68,28.89 -34.23,53.4zm173.45 -336.69l15.79 -3.46 120.07 -26.25c23.86,-5.47 40.3,-28.96 34.74,-54.25l0 0c-5.59,-25.57 -30.07,-39.57 -54.28,-34.78l-8.97 1.97 -126.88 27.74c-24.49,5.34 -40.11,29.74 -34.76,54.23 5.38,24.5 29.81,40.14 54.28,34.8zm-54.28 -34.8l0 0zm224.88 75.66l0 0zm0 122.81l0 0zm-224.88 49.16l0 0zm224.88 73.69l0 0zm-224.88 49.15l0 0zm-65.73 -85.65l50.76 -11.1c-8.21,-11.55 -13,-25.47 -13,-40.43 0,-21.56 9.95,-40.94 25.74,-54.2l-82.7 18.07c-24.11,5.28 -39.5,29.32 -34.23,53.41 5.29,24.1 29.34,39.52 53.43,34.25zm-53.43 -34.25l0 0zm53.43 -86.69l53.16 -11.6c-7.36,-11.02 -11.66,-24.1 -11.66,-38.15 0.25,-24.06 12.11,-45.04 31.66,-58.07 -30.81,6.58 -61.59,13.47 -92.36,20.19 -24.11,5.28 -39.5,29.31 -34.23,53.41 5.29,24.1 29.34,39.5 53.43,34.23zm-53.43 -34.23l0 0zm23.28 -197.08c96.24,-15.39 192.48,-30.77 288.73,-46.14l0 -33.84c-96.29,16.73 -192.51,34.24 -288.73,51.34l0 28.64zm315.82 -49.92l88.01 3.52 0 -78.26 -88.01 -11.42 0 86.16zm141.76 365.49c33.88,0 61.37,-70.19 61.37,-156.82 0,-86.6 -27.48,-156.78 -61.37,-156.78 -14.57,0 -28.32,13.43 -38.45,34.56 3.79,-4.85 10.09,-15.72 27.37,-15.72 20.8,0 51.15,64.76 51.15,145.85 0,81.1 -19.45,146.94 -51.15,145.86l-1.11 -0.03c3.93,2.03 8.01,3.09 12.19,3.09zm7633.67 -9000.21l-0.01 0.02 0 347.22 0.01 -0.01 0 -347.23zm1216.06 9499.85l-74.95 0 0 -11593.21c-148.64,-14.17 -264.9,-139.34 -264.9,-291.67 0,-22.77 2.6,-44.93 7.5,-66.19l-202.92 -202.93 0 12154.01 -332.18 0 0 -12446.77 -249.04 0 0 12446.77 -98.27 0 0 -12446.77 -442.68 0.02 -0.03 0 0.02 -0.02 -4142.25 -4142.24c-397.75,65.87 -820.33,-54.57 -1127.14,-361.39 -505.17,-505.17 -505.17,-1324.26 0,-1829.44 505.18,-505.17 1324.27,-505.17 1829.44,0 306.81,306.81 427.27,729.4 361.39,1127.15l4142.25 4142.25 -0.01 0.02 0.01 859.16 480.84 480.83c21.25,-4.9 43.38,-7.48 66.11,-7.48 161.83,0 293.02,131.19 293.02,293.03 0,145.9 -106.65,266.88 -246.21,289.28l0 11595.6zm-6799.21 -18652.21c434.69,-434.69 1139.48,-434.69 1574.18,0 287.8,287.82 384.98,694.02 291.66,1061.84l4151.29 4151.27 0 804.01 -804.01 0 -4151.27 -4151.27c-367.82,93.31 -774.04,-3.87 -1061.84,-291.68 -434.69,-434.68 -434.69,-1139.47 0,-1574.17zm2176.59 2761.71l-361.63 -361.63 0 -1170.23 361.63 361.63 0 1170.23zm804 804l-361.63 -361.63 0 -1170.23 361.63 361.63 0 1170.23zm804 804l-361.63 -361.63 0 -1170.23 361.63 361.63 0 1170.23zm804.01 804l-361.63 -361.63 0 -1170.23 361.63 361.63 0 1170.23zm804 804.01l-361.63 -361.63 0 -1170.23 361.63 361.63 0 1170.23zm-5204.82 -5786.25c328.96,-328.97 862.32,-328.97 1191.27,0 328.96,328.95 328.96,862.29 0,1191.26 -328.95,328.95 -862.31,328.95 -1191.27,0 -328.95,-328.97 -328.95,-862.31 0,-1191.26zm-3823.47 18318c69.5,0 125.84,-141.82 125.84,-316.75 0,-174.94 -56.34,-316.76 -125.84,-316.76 -14.55,0 -28.51,6.25 -41.51,17.68l16.34 0.73c16.02,0.69 29.09,18.76 29.15,40.13l0.34 138.17 -2.53 5.62 2.94 103.67 6.16 -13.59 2.51 -85.28c19.23,12.42 31.86,56.62 31.86,109.63 0,59 -17.65,107.09 -40.35,113.26l0 0.03 -0.14 0.02c-16.14,4.08 -98.91,1.85 -121.95,2.29 18.36,117.75 63.9,201.15 117.19,201.15zm-601.43 -344.72l33.17 -7.71c-5.07,-7.79 -8.03,-17.18 -8.03,-27.27 0,-15.34 6.8,-29.01 17.47,-37.94l-55 12.79c-16.45,3.82 -27.1,20.46 -23.68,37.01l0 0.01c3.4,16.55 19.63,26.93 36.08,23.11zm77.41 -4.26l84.25 -19.6c16.69,-3.89 27.54,-20.8 24.07,-37.6l0 -0.02c-3.46,-16.79 -19.96,-27.35 -36.66,-23.46l-84.25 19.59c-16.71,3.89 -27.53,20.79 -24.07,37.6l0 0.02c3.47,16.8 19.96,27.35 36.66,23.47zm0 85.64l84.25 -19.61c16.69,-3.88 27.54,-20.79 24.07,-37.58l0 -0.03c-3.46,-16.79 -19.96,-27.35 -36.66,-23.47l-84.25 19.6c-16.71,3.9 -27.53,20.79 -24.07,37.6l0 0.01c3.47,16.8 19.96,27.37 36.66,23.48zm0 84.28l84.25 -19.59c16.69,-3.9 27.54,-20.8 24.07,-37.61l0 -0.01c-3.46,-16.8 -19.96,-27.36 -36.66,-23.48l-84.25 19.61c-16.71,3.88 -27.53,20.79 -24.07,37.59l0 0.03c3.47,16.78 19.96,27.34 36.66,23.46zm0 84.29l84.25 -19.61c16.69,-3.88 27.54,-20.79 24.07,-37.59l0 -0.02c-3.46,-16.79 -19.96,-27.35 -36.66,-23.47l-84.25 19.6c-16.71,3.89 -27.53,20.82 -24.07,37.6l0 0.03c3.47,16.79 19.96,27.34 36.66,23.46zm-77.41 0.33l30.52 -7.1c-3.44,-7.25 -5.38,-15.5 -5.38,-24.24 0,-17.16 7.47,-32.4 19.06,-41.96l-56.61 13.16c-16.45,3.85 -27.1,20.49 -23.68,37.04l0 0.01c3.4,16.55 19.63,26.93 36.08,23.1zm0 -82.98l31.1 -7.23c-5.29,-7.93 -8.4,-17.48 -8.4,-27.75 0,-14.8 6.4,-28.09 16.58,-37.19l-51.68 12.02c-16.45,3.82 -27.1,20.47 -23.68,37.03l0 0.01c3.4,16.54 19.63,26.93 36.08,23.11zm0 -82.98l32.62 -7.59c-4.76,-7.56 -7.5,-16.53 -7.5,-26.17 0,-16.49 8.08,-31.06 20.43,-39.86l-57.94 13.49c-16.45,3.81 -27.1,20.46 -23.68,37.01l0 0.01c3.4,16.54 19.63,26.93 36.08,23.11zm-163.46 87.37c18.5,0 33.5,-40.78 33.5,-91.09 0,-50.3 -15,-91.09 -33.5,-91.09 -7.94,0 -15.46,7.81 -20.98,20.08 2.07,-2.81 5.52,-9.12 14.93,-9.12 11.37,0 27.93,37.62 27.93,84.72 0,47.12 -10.61,85.36 -27.93,84.73l-0.6 -0.02c2.16,1.18 4.36,1.8 6.64,1.8zm437.39 -29.18c21.85,0 39.57,-48.17 39.57,-107.59 0,-59.44 -17.72,-107.62 -39.57,-107.62 -9.39,0 -18.26,9.23 -24.79,23.72 2.46,-3.32 6.52,-10.78 17.65,-10.78 13.41,0 32.99,44.43 32.99,100.09 0,55.65 -12.54,100.82 -32.99,100.08l-0.72 -0.02c2.53,1.39 5.16,2.12 7.86,2.12zm-389.36 -305.96l80.97 -16.35c-10.09,-7.22 -20.76,-11.06 -31.79,-11.06 -17.58,0 -34.25,9.83 -49.18,27.42zm297.96 55.17l56.73 2.41 0 -53.71 -56.73 -7.83 0 59.13zm5575.05 -754.54c78.85,-10.75 157.71,-21.58 236.59,-32.22 32.85,-4.46 59.76,19.6 59.56,53.08 -0.91,173.11 -1.86,346.23 -2.61,519.34 -0.14,30.64 -23.39,58.27 -52.83,64.43l139.47 -6.2c23.2,-1.02 41.82,-25.34 41.82,-48.79l0 -549.22c0,-29.03 -23.45,-39.88 -51.69,-45.27l-88.43 -16.94 -302.13 43.93c-13.32,1.95 -24.22,14.64 -24.22,28.28l0 17.7c10.52,-14.87 26.55,-25.7 44.47,-28.12zm106.97 548.59c69.59,0 126.02,-114.91 126.02,-256.68 0,-141.75 -56.43,-256.68 -126.02,-256.68 -29.9,0 -58.15,21.99 -78.94,56.57 7.8,-7.91 20.75,-25.72 56.21,-25.72 42.76,0 105.03,106.01 105.03,238.75 0,132.74 -39.9,240.51 -105.03,238.75l-2.27 -0.06c8.08,3.32 16.44,5.06 25,5.06zm2644.11 422.12c254.29,0 460.45,-388.69 460.45,-868.14 0,-479.44 -206.15,-868.12 -460.45,-868.12 -53.21,0 -104.31,17.07 -151.87,48.4l59.81 1.99c58.62,1.96 106.4,51.43 106.61,110.05l1.27 378.66 -9.31 15.38 10.75 284.14 22.59 -37.25 9.16 -233.71c70.34,34.03 116.6,155.19 116.6,300.46 0,161.68 -64.63,293.5 -147.64,310.41l0 0.12 -0.54 0.01c-5.72,1.12 -11.55,1.71 -17.43,1.71 -5,0 -9.97,-0.43 -14.84,-1.26l-413.96 5.86c67.13,322.74 233.81,551.29 428.8,551.29zm-2141.63 -178.83c-45.32,9.92 -90.52,-19.02 -100.45,-64.36 -9.93,-45.36 19.04,-90.55 64.36,-100.46 67.73,-14.83 266.01,-79.55 319.13,-40.14l-2.18 -0.03c-70.48,0 -127.6,54.69 -127.6,122.12 0,16.72 3.5,32.64 9.87,47.16l-163.13 35.72zm-100.45 -64.36l0 0zm100.45 -163.05c-45.32,9.91 -90.52,-19.03 -100.45,-64.39 -9.93,-45.34 19.04,-90.51 64.36,-100.44l250.81 -54.92c17.29,-3.78 34.56,-1.92 49.86,4.36 -61.73,9.11 -111.33,58.91 -111.33,123.32 0,19.97 4.62,37.74 13.62,55.52l-166.88 36.55zm-100.45 -64.39l0 0zm100.45 -163.04c-45.32,9.94 -90.52,-19.01 -100.45,-64.35 -9.93,-45.34 19.04,-90.54 64.36,-100.46l250.81 -54.92c17.54,-3.83 35.06,-1.87 50.52,4.64 -62.48,9.21 -115.13,58.42 -115.13,125.91 0,20.67 4.56,36.65 12.51,53.6l-162.62 35.59zm-100.45 -64.35l0 0zm100.45 -166.72c-45.32,9.93 -90.52,-19.01 -100.45,-64.38 -9.93,-45.34 19.04,-90.52 64.36,-100.45l250.81 -54.92c17.64,-4.01 37.05,-1.7 53.5,5.96 -11.33,0.33 -22.3,2.09 -32.69,5.09 -53.86,15.97 -87.96,60.95 -88.56,113.68 0,21.55 6.06,41.77 16.62,59.21l-163.58 35.81zm-100.45 -64.38l0 0zm7.78 -139.29l0 -53.85c226.02,-40.72 452.04,-81.44 678.07,-122.14l0 63.67c-226.03,37.43 -452.05,74.89 -678.07,112.32zm399.8 888.94l254.76 -55.77c44.78,-10.15 75.81,-54.45 65.37,-102.05l0 0c-10.04,-45.75 -55.77,-75.49 -102.03,-65.37l-254.75 55.78c-46.04,10.08 -75.46,56 -65.38,102.04 10.26,45.44 55.13,75.71 102.03,65.37zm0 -231l254.76 -55.77c46.03,-10.08 75.45,-56.02 65.37,-102.05 -10.59,-45.83 -55.55,-75.75 -102.03,-65.38l-254.75 55.79c-46.04,10.08 -75.46,56.01 -65.38,102.04 10.77,46.11 55.41,75.54 102.03,65.37zm0 -230.98l254.76 -55.78c46.03,-10.08 75.45,-56.01 65.37,-102.05 -10.91,-46.78 -54.9,-74.73 -102.03,-65.37l-254.75 55.79c-46.04,10.08 -75.46,56 -65.38,102.03 11.16,48.12 55.63,74.2 102.03,65.38zm0 -234.71l254.76 -55.79c44.75,-10.23 75.87,-54.05 65.37,-102.03l0 0c-10.36,-47.23 -57.18,-75.12 -102.03,-65.37l-254.75 55.77c-46.7,10.24 -75.1,56.33 -65.38,102.03 10.38,45.76 55.48,75.68 102.03,65.39zm328.54 -300.29l156.5 6.6 0 -147.16 -156.5 -21.49 0 162.05zm427.86 636.46c79.97,0 144.79,-132.01 144.79,-294.88 0,-162.88 -64.83,-294.91 -144.79,-294.91 -34.34,0 -66.8,25.28 -90.69,65 8.96,-9.1 23.83,-29.53 64.57,-29.53 49.12,0 120.67,121.76 120.67,274.28 0,152.51 -45.86,276.33 -120.67,274.31l-2.6 -0.08c9.28,3.81 18.89,5.81 28.72,5.81zm-436.28 -259.29l0 0zm0 230.99l0 0zm-422.15 323.45l0 0zm0 -231l0 0zm0 -230.99l0 0zm0 -234.72l0 0zm-6403.01 1178.76c-3.77,1.66 -6.88,2.74 -11,3.13 -4.5,0.29 -9.12,0 -13.66,-0.18 -36.25,1.5 -72.31,3.02 -108.6,4.41 -10.85,0.42 -21.55,-3.49 -31.01,-10.57l-1.21 20.2 47.82 -1.2c-17.74,46.99 -54.05,119.86 -109.82,119.9l-0.03 0.01 65.42 -0.39c2.23,-0.01 4.46,0.37 6.71,0.37 2.23,0 4.43,-0.13 6.62,-0.37l-0.19 0c30.18,-3.2 58.08,-28.77 81.12,-70.31 8.97,-15.46 16.75,-34.23 22.98,-51.03l0.01 0 30.11 -0.76 105.51 -2.66c21.39,-0.54 46.9,-31.14 54.23,-59.98l14.41 -56.77 3.2 -1.37 110.23 0.09c-6.02,-28.95 -10.83,-59.71 -14.27,-91.92l-20.89 1.73 0 -237.09c0,-12.15 -7.2,-18.03 -16.25,-19.06l-64.52 -7.28 -84.99 14.59c-2.74,0.47 -3.6,6.48 -3.68,12.19 1.21,-0.57 2.47,-1 3.75,-1.23 24.51,-4.43 49.01,-8.88 73.52,-13.37 10.21,-1.84 18.57,8.13 18.51,22.03 -0.29,71.82 -0.58,143.66 -0.82,215.48 -0.06,13.68 -8.41,25.9 -18.53,27.15 -15.93,1.96 -62.66,10.17 -75.22,9.25l-31.86 123.46c-5.63,20.68 -18.13,41.98 -37.6,51.56zm523.37 73.44c-20.71,30.58 -51.6,62.22 -91.01,62.25l-0.03 0.01c27.6,-0.17 68.07,2.5 94.16,-0.46l-0.29 0c23.34,-2.45 43.35,-15.89 59.48,-32.21 87.2,-88.12 112.72,-294.23 112.72,-420.15 0,-216.31 -60.25,-397.19 -140.83,-442.11 -12.57,-7 -25.64,-10.69 -39.05,-10.69l-0.46 0.01 0 -1.26 -38.91 -4.4c7.82,-4.99 19.52,-12.96 42.66,-20.64 52.8,-17.49 92.33,16.83 105.17,34.71 61.43,85.61 102.56,250.49 102.56,439.37 0,36.36 -1.53,71.8 -4.45,105.97l52.56 0.03c18.03,173.27 88.06,310.52 177.54,349.41l103.82 0c89.42,-38.88 159.43,-176 177.5,-349.15l47.93 0.02c-3.7,-22.41 -6.81,-45.52 -9.26,-69.25 -2.48,-4.47 -3.9,-10.04 -3.9,-16.19l0 -29.95c-1.83,-27.81 -2.78,-56.31 -2.78,-85.33 0,-29.01 0.95,-57.5 2.78,-85.32l0 -61.68c0,-9.64 3.47,-18.94 8.86,-25.54 30.64,-220.48 118.38,-379.68 221.86,-379.68 55.24,0 105.97,45.37 145.96,121.17l101.15 -19.18c-24.98,-42.04 -53.61,-72.74 -84.53,-88.93 -16.31,-8.55 -33.28,-13.06 -50.7,-13.06l-0.6 0.02 0 -1.54 -50.51 -5.33c10.17,-6.09 25.33,-15.83 55.37,-25.18 68.57,-21.33 119.87,20.5 136.53,42.31 17.4,22.79 33.57,50.2 48.17,81.53 148.34,-28.1 296.69,-56.21 445.01,-84.45 21.88,-4.15 39.77,17.22 39.77,47.32l0 44.74 0.19 -0.72 1.31 515.32 18.45 -0.33c29.5,198.37 109.4,340.6 203.36,340.6 119.04,0 215.54,-228.21 215.54,-509.72 0,-281.5 -96.5,-509.72 -215.54,-509.72 -40.19,0 -77.8,26.05 -110.01,71.34l-82.69 -3.47c51.06,-133.85 124.98,-218.02 207.23,-218.02 154.11,0 279.01,295.45 279.01,659.88 0,131.89 -43.9,659.81 -278.97,659.89l-0.06 0.02 121.26 -0.67c4.13,-0.03 8.28,0.65 12.44,0.65 4.14,0 8.26,-0.23 12.36,-0.65l-0.44 0c64.97,-6.46 124.21,-65.46 170.28,-159.48l0.1 -0.2c59.24,-120.98 96.73,-299.9 96.73,-499.55 0,-315.23 -93.48,-578.85 -218.45,-644.26 -19.49,-10.21 -39.77,-15.61 -60.58,-15.61l-0.73 0.03 0 -1.84 -60.33 -6.39c12.14,-7.27 30.25,-18.91 66.15,-30.08 81.94,-25.49 143.24,24.5 163.14,50.57 95.28,124.77 159.07,365.05 159.07,640.3 0,224.84 -42.83,425.99 -110.24,560.4 44.49,60.25 98.05,95.44 155.72,95.44 100.44,0 188.45,-106.68 237.68,-266.75l418.2 -11.33 39.32 -9.74c53.7,172.83 130.34,287.82 257.83,287.82 127.49,0 268.33,-200.29 297.33,-477.16l104.61 -13.47 0.04 -438.48 1092.57 -111.48c0.63,-13.29 1.39,-26.48 2.3,-39.6l0 -443.18c0,-54.62 51.59,-115.16 105.2,-125.59l52.89 -10.28c91.51,-161.29 214.39,-260.06 349.55,-260.06 97.41,0 188.46,51.33 265.98,140.38l206.69 -40.19c-36.47,-34.14 -75.43,-60.34 -116.19,-77.37 -35.78,-14.93 -72.98,-22.82 -111.15,-22.82l-1.34 0.03 0 -2.68 -110.72 -9.34c22.29,-10.67 55.54,-27.68 121.41,-44.01 150.32,-37.29 262.8,35.84 299.34,73.96 16.73,17.48 32.93,36.49 48.55,56.96l1086.76 -211.32c54.94,-10.68 99.88,27.26 99.88,84.22l0 92.24 0.31 -0.96 3.09 969.19 43.49 -0.61c69.58,373.06 258.06,640.54 479.72,640.54 280.8,0 508.45,-429.18 508.45,-958.61 0,-529.43 -227.65,-958.61 -508.45,-958.61 -94.8,0 -183.51,48.97 -259.47,134.15l-195.07 -6.5c120.46,-251.74 294.84,-410.02 488.83,-410.02 363.5,0 658.2,555.62 658.2,1240.98 0,350.41 -100.61,944.45 -438.42,1170.02l-0.54 0.35c-68.52,45.69 -142.28,70.58 -219.11,70.61l-0.14 0.06 286 -1.27c9.76,-0.04 19.55,1.21 29.39,1.21 9.73,0 19.39,-0.42 29.01,-1.2l-0.9 0c497.29,-39.44 630.09,-904.41 630.09,-1239.78 0,-592.84 -220.5,-1088.61 -515.3,-1211.64 -46.01,-19.2 -93.81,-29.34 -142.9,-29.34l-1.71 0.04 0 -3.45 -142.36 -12.01c28.65,-13.7 71.38,-35.57 156.08,-56.57 193.27,-47.95 337.87,46.06 384.84,95.09 224.72,234.66 375.21,686.53 375.21,1204.18 0,277.34 -43.45,535.49 -118.23,751.64l236.94 -6.93 0 -2604.43 -95.99 19.99 -1.96 -446.29 -1876.08 491.34 0 -51.06 1922.2 -520.18 -0.18 432.89 52.61 58.66 0 -5600.72 -53.83 34.03 0 5004.31 -1920.8 523.99 0 -4579.93 1974.03 -1327.57 0 -344.93 -2196.77 1525.22 0 37.62 0 264.31 0 4974.2 3.52 0.24 -0.39 3.74 -215.22 46.49 0 -4725.2 -29.81 108.98 -18.87 4144.32 -1178.73 321.72 0 -3915.91 1209.3 -815.04 0 -288.58 -1430.43 995.33 0 24.68 0 4483.33 -117.56 26.73 0 -4060.1 -25.6 93.68 -16.21 3558.73 -907.29 246.01 3.57 -3418.18 912.16 -597.34 0 -254.6 -1086.99 757.56 0 3913.64 -0.48 19.61 -116.67 27.55 0 -3491.83 -23.74 86.88 -15.04 3045.41 -669.16 181.88 3.55 -3020.74 683.83 -459.59 0 -213.08 -836.02 578.3 0 3482.44 1.62 0.3 -0.03 5.27 -99.8 22.4 0 -3181.08 -21.73 79.53 -13.77 2783.23 -595.4 160.49 3.13 -2672.07 604.4 -415.65 0 -188.33 -738.91 520.58 0 3078 1.86 0.47 -0.09 11.29 -96.21 23.71 0 -2726.44 -19.12 69.98 -12.13 2369.23 -519.85 137.78 2.77 -2372.87 537.39 -361.16 0 -167.46 -656.99 454.46 0 2732.96 2.66 0.98 0.1 13.56 -53.82 12.56 0 -2331.43 -16.3 59.65 -10.34 2012.25 -424.82 115.05 2.4 -2135.77 438.02 -293.59 0 -149.08 -541.79 378.32 0 2465.32 0.41 0.13 -0.07 50.34 -238.53 20.49 0 -2592.3 -18.82 14.6 0.2 292.22 -275.76 -87.93 0 2441.37 -210.42 87.43 0.33 -206.33 -379.89 99.45 0.03 -19.82 394.4 -105.31 0.03 184.38 22.25 29.3 0 -1978.59 -17.54 52.31 -9.7 1681.46 -389.39 106.57 2.03 -1656.68 392.22 -263.62 0 -122.22 -479.52 331.71 0 1912.58 1.83 0.66 -0.26 15.44 -41.26 8.61 0 -1567.66 -11.33 41.46 -11.09 1335.32 -350.71 95.97 1.71 -1460.77 358.31 -241.93 0 -103.42 -432.16 299.55 0 1687.32 0.78 0.35 -0.02 15.82 -68.22 17.3 0.11 -128.81 -320.76 82.68 0.01 -14.08 338.7 -90.45 0.02 100.2 17.2 22.66 0 -1444.05 -10.66 39 -10.41 1253.74 -334.81 91.63 1.65 -1274.13 343.21 -233.07 0 -101.06 -415.39 289.37 0 1494.43 -63.44 14.36 0.26 -114.09 -264.71 68.24 0.01 -12.66 281.92 -75.28 0.02 91.22 15.66 20.63 0 -1314.54 -9.7 35.5 -9.47 1141.3 -278.41 76.17 1.45 -1120.24 292.65 -198.75 0 -86.17 -354.2 246.75 0 1211.55 -0.11 0.03 -0.12 102.28 -40.29 9.71 0.09 -101.6 -246.25 63.48 0.01 -9.66 253.09 -67.58 0.01 80.5 13.82 18.2 0 -1159.94 -8.56 31.33 -8.35 1007.07 -249.98 68.4 1.29 -984.8 258.36 -175.45 0 -76.09 -312.7 217.84 0 1134.03 0.77 0.06 0 17.19 -32.32 7.67 0.37 -87.05 -211.59 54.47 0.01 -8.55 218.13 -58.24 0.02 72.32 12.41 16.34 0 -1042.16 -7.68 28.14 -7.53 904.83 -215.32 58.92 1.13 -874.97 224.06 -152.17 0 -65.97 -271.18 188.93 0 983.43 10.99 0.85 0 291.34 1529.13 -170.66c0.31,-9.6 0.75,-19.09 1.32,-28.47l0 -42.3c0,-6.62 2.21,-12.99 5.71,-17.53 19.77,-151.29 76.33,-260.52 143.04,-260.52 35.6,0 68.31,31.12 94.09,83.14l65.22 -13.16c-16.1,-28.84 -34.56,-49.92 -54.5,-61.04 -10.51,-5.86 -21.45,-8.95 -32.68,-8.95l-0.4 0.01 0 -1.06 -32.55 -3.67c6.55,-4.18 16.33,-10.87 35.69,-17.27 44.2,-14.63 77.28,14.06 88.02,29.03 11.23,15.65 21.64,34.47 31.07,55.96l9.75 -1.97c94.35,-18.99 186.7,-37.65 277.13,-55.98 14.12,-2.85 25.63,11.81 25.63,32.46l0.97 383.83 11.88 -0.23c19.03,136.12 70.55,233.73 131.13,233.73 76.74,0 138.94,-156.6 138.94,-349.78 0,-193.18 -62.2,-349.77 -138.94,-349.77 -25.91,0 -50.17,17.87 -70.93,48.95l-53.3 -2.38c32.93,-91.85 80.57,-149.6 133.6,-149.6 99.35,0 179.89,202.72 179.89,452.8 0,120.06 -20.87,289.57 -88.85,390.56zm978.7 62.24l-0.06 0.02 101.47 -0.57c3.45,-0.01 6.94,0.55 10.41,0.55 3.43,0 6.83,-0.19 10.23,-0.54l-0.24 0c82.72,-8.22 138.48,-112.99 167.14,-191.88 -47.6,1.82 -95.21,3.65 -142.82,5.42 -16.86,0.35 -30.46,-4.29 -44.68,-13.1l-3.88 4.98 -1.41 22.14 74.2 -1.75c-42.59,107.49 -103.15,174.7 -170.36,174.73zm329.99 -178.5l163.67 -3.86c33.18,-0.77 72.73,-45.38 84.1,-87.41l37.31 -138.01 149.28 -6.62c-4.07,-23.98 -7.56,-48.65 -10.42,-73.93l-32.42 2.52 0 -345.52c0,-17.7 -11.14,-26.28 -25.21,-27.76l-100.07 -10.64 -131.84 21.28c-4.24,0.69 -5.55,9.43 -5.71,17.75 1.87,-0.84 3.82,-1.44 5.81,-1.79 38.02,-6.46 76.02,-13.02 114.04,-19.47 15.83,-2.7 28.8,11.86 28.72,32.1 -0.44,104.66 -0.9,209.34 -1.26,314 -0.09,19.95 -13.05,37.76 -28.75,39.58 -28.2,3.27 -92.4,14.66 -116.67,13.48 -2.89,10.45 -37.88,163.64 -59.53,205.56l-0.18 0.32c-13.3,25.05 -37.38,52.11 -66.14,53.82 -1.55,4.93 -3.13,9.8 -4.74,14.6zm-2173.53 -104.9l7.13 58.06c20.47,83.49 57.16,139.12 99,139.12 17.25,0 33.61,-9.45 48.33,-26.4 -7.36,4.47 -15.05,6.81 -22.95,6.81 -45.12,0 -83.08,-76.79 -94.41,-181.29l71.95 -4.28c6.18,-0.35 11.11,-9 11.11,-17.32l0 -194.89c0,-10.28 -6.07,-15.04 -13.72,-16.08l-52.66 -7.17 -77.55 13.25c-2.53,0.44 1.83,5.27 4.65,9.77 20.84,-3.77 41.66,-7.56 62.5,-11.35 8.75,-1.59 15.89,6.95 15.83,18.82 -0.23,61.44 -0.51,122.88 -0.68,184.31 -0.04,11.71 -7.2,22.17 -15.86,23.24 -14.23,1.79 -28.44,3.57 -42.66,5.4zm6595.35 144.77c-77.12,87.91 -167.57,138.58 -264.32,138.61l-0.1 0.04 222.47 -0.99c7.58,-0.02 15.21,0.95 22.87,0.95 138.94,0 249.09,-103.35 322.37,-215.44 24.89,-38.06 45.81,-77.49 64.98,-118.7l467.8 -8.8c78.25,-1.48 171.57,-85.35 198.38,-164.39l92.27 -272.08 24.34 17.66 -90.52 289.37 507.93 -1.17c-54.4,-130.18 -95.27,-281.38 -118.63,-446.1l-76.29 5.8 0 -649.56c0,-33.38 -26.92,-46.49 -59.48,-52.2l-93.6 -16.47 -355.54 50.66c-15.33,2.18 -27.88,16.74 -27.88,32.41l0 26.98c11.68,-15.34 28.93,-26.45 48.12,-29.06 89.63,-12.17 179.26,-24.44 268.91,-36.58 38.56,-5.22 70.35,21.36 70.13,58.83 -1.1,196.73 -2.14,393.46 -3.15,590.18 -0.19,38.02 -32.58,69.89 -71.49,70.67 -90.33,1.76 -180.64,4.12 -270.97,5.9 -15.98,0.33 -30.5,-5.38 -41.54,-15.06l0 4.04 -106.92 8.12 -127.63 357.68c-27.58,75.35 -107.15,147.91 -190.93,147.63l-31.7 -0.61 -7.17 -0.13 -393.01 11.77c-28.69,0.55 -54.73,-3.87 -81.95,-14.37 -48.67,46.69 -103.77,73.03 -162.13,73.03 -152.31,0 -282.41,-179.32 -334.19,-432.05l-65.29 6.09c54.4,289.22 200.76,496.33 372.8,496.33 74.34,0 143.87,-38.68 203.26,-105.92l208.6 -3.92c-31.88,68.64 -70.99,133.62 -120.77,190.88zm-6262.77 -781.85l-26.1 5.45 0.77 -141.42 -336.48 87.76 0.03 -22.79 354.84 -94.74 0.02 156.65 6.92 9.09zm1360.1 -499.92l0.02 -25.65 425.14 -113.21 0.04 213.71 7.67 10.12 -27.42 6.39 -0.66 -198.01 -404.8 106.66zm2953.27 -493.97l-36.77 8.68 -0.36 -280.72 -642.13 170.14 0.04 -39.68 669.62 -174.12 0.04 303.1 9.56 12.6zm-961.12 218.74l-26.59 5.96 0.61 -243.86 -569.91 147.9 0.04 -31.77 595.81 -158.91 0.04 280.68zm-849.23 199.09l-24.85 6.12 0.74 -226.26 -499.47 133.59 0.02 -27.12 520.25 -138.29 0.03 247.66 3.27 4.31zm2127.44 -780.04l0.04 -39.37 907.77 -242.15 0.06 317.87 27.16 35.77 -63.11 14.35 -1.01 -313.55 -870.91 227.09zm2499.27 -288.05l-58.94 12.73 -2.57 -365.81 -1149.88 303.28 0 -44.85 1179.23 -313.88 0.06 366.31 32.1 42.23z"/>
 </g>
</svg>
