<?xml version="1.0" encoding="UTF-8"?>
<!DOCTYPE svg PUBLIC "-//W3C//DTD SVG 1.1//EN" "http://www.w3.org/Graphics/SVG/1.1/DTD/svg11.dtd">
<!-- Creator: CorelDRAW 2020 (64-Bit) -->
<svg xmlns="http://www.w3.org/2000/svg" xml:space="preserve" width="151.291mm" height="151.291mm" version="1.1" style="shape-rendering:geometricPrecision; text-rendering:geometricPrecision; image-rendering:optimizeQuality; fill-rule:evenodd; clip-rule:evenodd"
viewBox="0 0 23013.45 23013.45"
 xmlns:xlink="http://www.w3.org/1999/xlink"
 xmlns:xodm="http://www.corel.com/coreldraw/odm/2003">
 <defs>
  <style type="text/css">
   <![CDATA[
    .fil0 {fill:none}
    .fil1 {fill:#CCCCCC}
    .fil2 {fill:white}
   ]]>
  </style>
 </defs>
 <g id="Layer_x0020_1">
  <metadata id="CorelCorpID_0Corel-Layer"/>
  <rect class="fil0" x="-0" y="-0" width="23013.45" height="23013.45"/>
  <g id="_2518695327968">
   <g>
    <path class="fil1" d="M6037.28 22751.24c-40.87,-6.31 -77.87,-48.9 -105.92,-115.2l-513.23 0 0 38.38 -1274.11 0 0 76.82 1893.26 0zm-118.07 -147.02c-11.67,-33.86 -21.28,-72.39 -28.29,-114.28l-479.05 16.73 1.34 38.36 -1269.18 44.31 0 76.86 1775.19 -61.99zm-32.92 -145.09c-1.48,-11.01 -2.72,-22.21 -3.85,-33.59 -1.78,-3.48 -2.81,-7.8 -2.81,-12.55l0 -23.23c-0.93,-14.92 -1.54,-30.1 -1.84,-45.5l-476.73 33.33 2.68 38.27 -1259.72 88.1 0 76.98 1742.27 -121.83zm-8.66 -146.01c0.18,-18.94 0.88,-37.57 1.99,-55.83l0 -21.63 -1735.61 182.42 0 77.24 1733.61 -182.2zm904.97 438.12c-44.49,-6.21 -85.18,-48.37 -117.51,-115.2l-384.13 0c-17.19,48.3 -38.23,87.72 -61.91,115.2l522.21 0 41.34 0zm-141.02 -172.25c-12.03,-34.3 -22.28,-72.66 -30.36,-114.19l-174.22 6.08 -40.23 116.67 244.81 -8.56zm356.89 172.25c17.61,-20.37 34,-46.29 48.8,-76.82l4871.27 0 0 -85.34 855.57 0c82.77,96.64 179.37,155.02 282.96,162.15l-6058.6 0zm782.7 -288.51c6.88,26.29 13.46,46.53 23.65,75.57l-716.34 25.1c6.91,-24.46 13.07,-50.38 18.39,-77.5l674.29 -23.17zm688.19 -24.4l430.03 -15.03 24.46 75.81 -502.34 17.6 -609.23 21.34 657.09 -99.73zm1347.27 -47.06l2093 -73.09 -2.97 -85.29 671.36 -23.44c17.58,56.83 37.79,110.42 60.34,160.15l-2815.33 98.3 -6.4 -76.62zm1295.45 -374.54l776.22 -54.29 -5.95 -85.12 622.09 -43.5 0 71.75 9.66 -0.87c3.71,30.53 8.08,60.57 13.11,90.05l-1427.29 99.82 12.15 -77.84zm48.11 -336.1l1342.85 -141.13c-1.49,25.6 -2.53,51.48 -3.06,77.58l-1328.47 139.63 -11.32 -76.07zm2499.43 1070.34c49.74,-42.96 96.06,-97.54 138.01,-161.88l1590.28 0c97.41,97.44 207.68,155.28 324.76,162.15l-2053.05 -0.27zm2823.65 -0.3l616.99 0.58 0 -76.82 -539.81 0c-24.93,27.85 -50.67,53.33 -77.18,76.24zm-1303.37 -469.83c-23.7,-50.21 -45.48,-103.68 -65.2,-159.96l-1048.37 36.6 -7.44 20.84c-21.65,60.69 -73.17,117.14 -131.85,146.27l1252.86 -43.75zm1637.9 -57.19c9.4,-25.4 18.41,-51.34 27,-77.81l255.46 -8.93 0 76.88 -282.46 9.86zm282.46 -10723.19l0 -147.98 -5766.86 4189.86 -124.73 -171.69 -4794.71 3483.55 4599.05 -3724.24 6087.25 -4929.35 0 -154.06 -6162.6 4990.36 -133.54 -164.94 -4605.95 3729.81 4083.27 -3676.57 6710.43 -6042.12 -178.92 0 -6296.93 5669.81 -142.01 -157.74 -4404.45 3965.78 3885.27 -3885.27 299.45 -299.41 5886.16 -5886.19 -84.65 -84.65 -5886.17 5886.16 -150.06 -150.08 -4190.76 4190.74 3959.86 -4397.85 5588.94 -6207.17 -84.77 -84.77 -5593.14 6211.82 -157.73 -142.01 -3965.63 4404.31 3457.72 -4269.96 258.2 -318.85 8.32 -10.25 5308.29 -6559.02 -85.12 -85.11 -5316.22 6568.77 -164.95 -133.56 -3729.67 4605.77 3478.41 -4787.62 -0.02 -0.02 5044.79 -6941.02 -85.72 -85.7 -5055.91 6956.36 -171.71 -124.73 -3483.65 4794.85 3223.21 -4963.31 4784.2 -7367.04 -86.54 -86.54 -4798.06 7388.36 -178 -115.58 -3227.89 4970.54 2958.98 -5125.15 4525.24 -7837.9 -87.65 -87.65 -4541.29 7865.71 -183.78 -106.11 -2963.3 5132.6 2686.67 -5272.91 4009.27 -7868.63c-35.69,-17.54 -70.85,-36.46 -105.48,-56.69l-4010.44 7870.96 -189.11 -96.35 -2611.13 5124.63 0 4017.51 3013.62 -2190.44 220.88 74.22 4.47 -237.97 4020.78 -2919.54 5696.49 -4138.75zm0 -375.4l0 -149.51 -1044.1 781.36 -55.93 -74.23 89.73 -67.72 -56.68 -75.31 1066.97 -827.93 0 -151.51 -1321.11 1025.1 56.43 71.63 -4547.53 3431.69 71.98 95.63 3199.49 -2414.4 127.97 169.85 1441.43 -1086.2 -0.73 -1 972.05 -727.45zm0 -1330.27l0 -155.86 -1644.44 1370.55 -59.74 -71.19 86.08 -72.32 -60.53 -72.25 1678.62 -1449.43 0 -158.15 -1930.01 1666.49 60.09 68.57 -4361.67 3664.99 76.86 91.76 3068.73 -2578.55 136.69 162.91 1382.63 -1160.16 -0.79 -0.94 1567.47 -1306.42zm119.26 -711.64l0 158.15 1.48 -1.28 0 -158.15 -1.48 1.28zm0 456.39l0 155.86 1.48 -1.23 0 -155.87 -1.48 1.25zm0 410.43l0 154.06 1.48 -1.2 0 -154.05 -1.48 1.19zm0 517.69l0 151.51 1.48 -1.14 0 -151.51 -1.48 1.14zm0 418.63l0 149.53 1.48 -1.11 0 -149.53 -1.48 1.11zm0 379.54l0 147.98 1.48 -1.08 0 -147.98 -1.48 1.08zm985.43 11500.28l242.42 0 0 -12936.04 -3.15 -7.8c-90.49,-17.45 -172.51,-58.7 -239.28,-116.99l0 13060.83zm450.74 0l221.34 0 0 -13059.36c-62.41,54.05 -138.01,93.23 -221.34,112.12l0 12947.23zm1.38 -13946.41c36.25,8.34 71.02,20.52 103.88,36.1l115.32 -93.38 0 -154.06 -238.67 193.26 19.47 18.09zm-182.99 -169.93l-88.44 -82.14 490.63 -408.93 0 155.87 -402.19 335.2zm-274.4 -254.81l-77.03 -71.52 0 -20.14 753.62 -650.71 0 158.15 -676.59 584.22zm-7582.92 -7017.77c19.26,-19.26 38.88,-37.91 58.84,-56.02l460.04 -1073.83 -130.22 0 -585.41 1366.49c57.19,-83.3 122.73,-162.59 196.76,-236.63zm434.91 -313.55c53.1,-26.47 107.32,-49.92 162.4,-70.4l332.1 -745.91 -131.05 0 -363.45 816.3zm610.78 -169.38c44.86,-3.57 89.84,-5.42 134.83,-5.38l301.75 -641.54 -132.29 0 -304.29 646.93zm443.15 23.58c40.28,7.58 80.3,16.63 120.03,27.2l343.17 -697.7 -133.43 0 -329.77 670.5zm360.78 111.42c36.42,15.99 72.39,33.33 107.83,52.07l424.95 -834 -134.36 0 -398.42 781.93zm418.48 264.5c30.7,26.53 60.65,54.3 89.79,83.43l0.85 0.87 606.05 -1130.72 -135.84 0 -560.86 1046.42zm289.69 324.72c25.81,37.89 49.97,76.6 72.32,116.06l794.96 -1422.98 -104.94 -57.62 -762.33 1364.54zm198.51 396.61c18.01,52.66 33.3,106.05 45.91,159.93l1112.94 -1927.68 -138.24 0 -1020.61 1767.75zm-1515.97 2207.1c-45.6,1.66 -91.25,1.55 -136.84,-0.5l-1434.18 2567.12 -81.29 -45.06 54.44 -98.36 -82.4 -45.74 1291.01 -2408.68c-40.4,-8.06 -80.57,-17.68 -120.41,-28.75l-1384.16 2582.49 80.68 42.49 -2758.59 4984.66 104.65 58.14 1940.84 -3507.05 186.02 103.1 875.01 -1578.58 -1.06 -0.59 1466.29 -2624.68zm-1075.05 -342.13c-32.34,-24.81 -63.95,-51.03 -94.81,-78.52l-1253.56 2548.67 -83.56 -40.75 49.22 -101.08 -84.7 -41.36 1197.78 -2546.47c-28.93,-34.8 -56.31,-70.5 -81.97,-107.01l-1321.49 2809.52 82.81 38.2 -2493.94 5122.2 107.56 52.54 1754.65 -3603.76 191.12 93.22 791.22 -1622.22 -1.11 -0.53 1240.78 -2522.63zm-536.98 -710.4c-21.78,-55.17 -40.55,-111.27 -56.24,-168.04l-3826.66 8594.84 -193.9 -86.32 -2024.27 4546.64 0 816.12 2327.53 -5227.73 3773.54 -8475.51zm-116.14 -572.42c-3.19,-129.81 8.79,-259.9 35.76,-387.45l-1605.23 3746.99 -85.55 -36.31 43.84 -103.51 -86.72 -36.89 2256.78 -5532.72 -129.28 0 -2324.76 5699.33 84.68 33.8 -2222.43 5245.71 110.16 46.84 1563.64 -3690.67 195.76 83.1 705.22 -1661.4 -1.14 -0.49 1459.28 -3406.34zm3358.94 161.88l87.19 87.19 1572.6 -2598.96 -139.93 0 -1519.86 2511.77zm285.97 285.97l86.83 86.83 1815.1 -2884.57 -141.45 0 -1760.48 2797.74zm258.78 258.78l86.55 86.55 2041.13 -3143.07 -142.76 0 -1984.92 3056.52zm338.23 338.23l86.16 86.16 2365.81 -3480.9 -144.72 0 -2307.25 3394.74zm277.99 277.99l85.93 85.91 2649.34 -3758.65 -146.47 0 -2588.8 3672.73zm255.14 255.14l85.69 85.69 2917.09 -4013.56 -147.99 0 -2854.79 3927.87zm327.12 327.12l85.5 85.5 3287.78 -4340.5 -150.18 0 -3223.1 4254.99zm274.7 274.7l85.28 85.26 3285.19 -4183.59 0 -193.82 -3370.47 4292.16zm250.2 250.2l85.11 85.11 3035.16 -3750.31 0 -190.25 -3120.27 3855.45zm323.97 323.97l85.09 85.09 2711.2 -3219.65 0 -185.9 -2796.3 3320.45zm277.24 277.24l84.83 84.82 2434.22 -2780.55 0 -181.73 -2519.05 2877.47zm246.79 246.79l84.76 84.74 2187.51 -2429.49 0 -178.87 -2272.26 2523.62zm324.38 324.38l84.7 84.7 1863.18 -1984.75 0 -174.93 -1947.88 2074.99zm270.18 270.18l84.67 84.67 1593.03 -1638.71 0 -171.75 -1677.7 1725.79zm246.41 246.41l84.67 84.67 1346.62 -1346.65 0 -169.29 -1431.29 1431.27zm323.76 323.76l84.68 84.68 1022.85 -981.21 0 -165.9 -1107.53 1062.43zm270.2 270.18l83.71 83.72 0 1.92 753.62 -698.08 0 -163.19 -837.33 775.63zm83.71 393.69l0 161.09 753.62 -678.57 0 -161.09 -753.62 678.57zm-1545.16 1123.27l-84.7 -84.71 -1675.57 1552.1 -63.4 -67.98 82.17 -76.74 -64.22 -68.95 1561.51 -1497.93 -84.68 -84.68 -1724.79 1654.59 63.61 65.32 -4163.92 3888.25 81.59 87.62 2929.58 -2735.63 145.01 155.52 1320.03 -1230.91 -0.85 -0.93 1678.62 -1554.92zm-762.4 -762.41l-84.67 -84.67 -1588.36 1633.89 -66.87 -64.56 78.02 -80.92 -67.72 -65.53 1485.44 -1582.37 -84.68 -84.68 -1644.61 1751.91 66.93 61.91 -3954.71 4100.83 86.05 83.21 2782.39 -2885.16 152.98 147.7 1253.77 -1298.31 -0.88 -0.85 1586.91 -1632.4zm-763.34 -763.34l-84.83 -84.83 -1534.72 1753.08 -70.14 -60.95 73.7 -84.91 -71.08 -61.9 1438.88 -1708.7 -85.17 -85.17 -1592.79 1891.39 70.09 58.31 -3734.67 4302.21 90.29 78.58 2627.57 -3026.87 160.5 139.53 1184.12 -1362.18 -0.94 -0.81 1529.2 -1746.79zm-770.75 -770.75l-85.28 -85.28 -1506.13 1918.01 -73.26 -57.23 69.18 -88.62 -74.25 -58.08 1421.66 -1876.87 -85.56 -85.56 -1569.73 2072.3 73.05 54.59 -3504.4 4491.75 94.3 73.74 2465.56 -3160.18 167.58 130.89 1111.19 -1422.25 -0.96 -0.76 1497.05 -1906.45zm-777.65 -777.65l-85.9 -85.9 -1501.17 2129.7 -76.15 -53.3 64.44 -92.14 -77.17 -54.12 1424.41 -2095.78 -86.14 -86.14 -1565.85 2303.89 75.81 50.67 -3264.53 4669.02 98.02 68.69 2296.8 -3284.9 174.2 121.97 1035.26 -1478.47 -1.03 -0.73 1489 -2112.45zm-793 -793l-86.83 -86.83 -1509.14 2398.32 -78.83 -49.27 59.54 -95.36 -79.92 -50.02 1437.08 -2374.94 -87.21 -87.21 -1570.74 2595.86 78.35 46.64 -3015.69 4833.44 101.49 63.51 2121.7 -3400.63 180.36 112.7 956.45 -1530.62 -1.05 -0.67 1494.43 -2374.93zm-8566.35 330.19l798.71 -5042.82 121.19 0 -919.89 5808.05 0 -765.22zm0 4468.68l2021.73 -9511.51 122.39 0 -2144.12 10087.31 0 -575.8zm0 1879.66l193.32 -721.49 204.99 54.93 2873.65 -10724.6 123.96 0 -2881.95 10755.59 -513.96 1918.16 0 -1282.58zm0 1948.54l813.72 -2504.39 201.86 65.59 3541.91 -10900.9 125.86 0 -3553.93 10937.9 -1129.42 3475.97 0 -1074.17zm0 1404.7l1424.59 -3711.2 198.14 76.09 4264.41 -11109.28 128.26 0 -4432.66 11547.51 -1582.75 4123.22 0 -926.33zm57.27 -14744.4l-57.27 454.06 0 956.31 177.93 -1410.37 -120.66 0zm-57.27 3926.7l565.18 -3926.7 -120.96 0 -444.22 3086.38 0 840.32zm1267.4 -3926.7l-838.65 4665.38 89.87 15.47 -518.62 2677.89 0 629.52 315 -1626.46 208.78 40.57 344.37 -1771.72 -1.19 -0.23 916.03 -4630.43 -122.03 0 -911.54 4607.58 -91.24 -17.75 21.36 -110.37 -92.49 -18.03 801.96 -4461.43 -121.62 0zm1232.75 0l-1137.07 4851.59 88.93 20.16 -1374.47 5528.78 116.14 29.05 967.02 -3889.86 206.34 51.44 436.64 -1751.26 -1.19 -0.3 1223.74 -4839.6 -123.49 0 -1216.43 4810.62 -90.19 -22.47 27.14 -109.11 -91.44 -22.86 1091.27 -4656.18 -122.95 0zm1263.03 0l-1476.83 5086.42 87.75 24.78 -1661.92 5449.27 114.45 35.08 1169.29 -3833.9 203.36 62.17 527.7 -1726.01 -1.19 -0.37 1577 -5097.45 -125.31 0 -1566.17 5062.45 -88.9 -27.15 32.81 -107.56 -90.11 -27.61 1422.72 -4900.13 -124.66 0zm1301.7 0l-1868.8 5369.28 86.34 29.33 -1944.85 5354.81 112.47 41.03 1368.33 -3767.45 199.83 72.74 617.31 -1696.04 -1.16 -0.43 1986.99 -5403.26 -127.55 0 -1971.93 5362.32 -87.36 -31.79 38.38 -105.67 -88.53 -32.31 1807.27 -5192.55 -126.74 0z"/>
   </g>
   <path class="fil2" d="M8103.33 21960.34l61.04 -13.34c-8.88,-12.82 -14.09,-28.29 -14.09,-44.95 0,-24.98 11.52,-47 30.67,-62.53l-99.35 21.72c-27.26,5.95 -44.68,33.13 -38.71,60.39 5.99,27.26 33.19,44.66 60.43,38.71zm-60.43 -38.71l0 0zm1118.28 606.2c121.9,0 220.72,-233.71 220.72,-522.02 0,-288.3 -98.81,-522.04 -220.72,-522.04 -25.52,0 -50.02,10.28 -72.82,29.13l28.67 1.19c28.11,1.17 51,30.92 51.11,66.17l0.61 227.7 -4.46 9.26 5.16 170.84 10.83 -22.39 4.38 -140.54c33.72,20.46 55.9,93.32 55.9,180.68 0,97.22 -30.99,176.5 -70.78,186.64l0 0.08 -0.26 0.02c-2.74,0.68 -5.55,1.03 -8.35,1.03 -2.4,0 -4.79,-0.26 -7.13,-0.76l-198.45 3.51c32.19,194.08 112.09,331.5 205.58,331.5zm-1126.66 49.82c13.87,0 27.38,-3.91 40.3,-11.26 -25.83,27.97 -54.55,43.57 -84.82,43.57 -89.23,0 -165.07,-135.5 -192.76,-324.23 27.14,-3.22 54.27,-6.53 81.43,-9.66 15.17,-1.76 27.73,-19 27.81,-38.29 0.33,-101.25 0.76,-202.51 1.2,-303.74 0.11,-19.59 -12.44,-33.66 -27.78,-31.05 -41.44,7 -82.86,14.16 -124.31,21.13l2.75 -17.71 139.81 -22.65 14.47 1.86 77.9 9.98c13.42,1.7 24.09,9.52 24.09,26.48l0 321.2c0,11.06 -6.85,27.85 -19.52,28.54l-126.21 7.06c19.9,172.18 86.51,298.77 165.64,298.77zm-130.83 -887.3c26.21,-29.01 55.48,-45.21 86.31,-45.21 19.32,0 38.04,6.37 55.75,18.27l-142.06 26.94zm313.28 581.24l153.64 -33.59c28.07,-6.08 55.13,11.76 61.38,39.34 6.07,28.31 -11.86,55.17 -39.29,61.35l-145.6 31.82 -8.03 1.76c-27.72,5.95 -55.49,-11.9 -61.38,-39.34 -6.46,-28.35 12.76,-55.31 39.29,-61.35zm0 -138.9l153.64 -33.59c28.32,-6.18 55.07,11.91 61.38,39.32 6.08,27.7 -11.59,55.28 -39.29,61.35l-0.11 0.02 0 0.02 -153.53 33.56c-28.05,5.54 -55.08,-11.18 -61.38,-39.35 -6.13,-30.61 12.37,-54.35 39.29,-61.32zm-39.46 -77.59c-5.89,-26.57 11.21,-55.34 39.46,-61.3l153.64 -33.59c28,-6.15 55.07,11.7 61.38,39.32 6.16,28.72 -11.38,54.11 -39.29,61.33l-125.37 27.41 -28.26 6.18c-28.32,5.92 -54.81,-11.38 -61.55,-39.35zm-358.03 187.57c32.43,0 58.75,-67.2 58.75,-150.12 0,-82.9 -26.32,-150.12 -58.75,-150.12 -13.95,0 -27.12,12.88 -36.81,33.1 3.62,-4.64 9.67,-15.04 26.21,-15.04 19.94,0 48.98,61.99 48.98,139.64 0,77.62 -18.62,140.66 -48.98,139.63l-1.06 -0.03c3.77,1.93 7.67,2.95 11.67,2.95zm223.43 91.42l0 0c6.05,27.38 33.16,44.6 60.43,38.71l56.43 -12.32c-6.04,-11.96 -9.46,-25.54 -9.46,-39.95 0,-28.29 13.13,-53.41 33.45,-69.17l-102.14 22.32c-27.03,6.27 -44.87,32.67 -38.71,60.4zm196.15 -380.77l17.86 -3.91 135.78 -29.68c26.99,-6.18 45.59,-32.75 39.29,-61.35l0 0c-6.31,-28.92 -34,-44.75 -61.38,-39.34l-10.15 2.24 -143.49 31.37c-27.68,6.04 -45.36,33.63 -39.29,61.32 6.08,27.7 33.69,45.41 61.38,39.35zm-61.38 -39.35l0 0zm254.3 85.56l0 0zm0 138.9l0 0zm-254.3 55.58l0 0zm254.3 83.33l0 0zm-254.3 55.6l0 0zm-74.34 -96.88l57.39 -12.55c-9.28,-13.05 -14.71,-28.8 -14.71,-45.71 0,-24.4 11.26,-46.3 29.11,-61.3l-93.52 20.43c-27.26,5.98 -44.68,33.16 -38.71,60.4 5.99,27.26 33.19,44.69 60.43,38.73zm-60.43 -38.73l0 0zm60.43 -98.04l60.1 -13.13c-8.32,-12.44 -13.17,-27.24 -13.17,-43.12 0.29,-27.21 13.69,-50.94 35.79,-65.68 -34.83,7.44 -69.64,15.23 -104.44,22.83 -27.26,5.96 -44.68,33.15 -38.71,60.39 5.99,27.26 33.19,44.69 60.43,38.71zm-60.43 -38.71l0 0zm26.33 -222.88c108.84,-17.4 217.68,-34.79 326.53,-52.16l0 -38.29c-108.88,18.92 -217.71,38.73 -326.53,58.06l0 32.39zm357.16 -56.43l99.53 3.97 0 -88.5 -99.53 -12.93 0 97.46zm160.31 413.32c38.33,0 69.41,-79.39 69.41,-177.33 0,-97.95 -31.08,-177.32 -69.41,-177.32 -16.47,0 -32.02,15.2 -43.47,39.08 4.29,-5.48 11.42,-17.78 30.96,-17.78 23.53,0 57.83,73.24 57.83,164.95 0,91.71 -21.98,166.17 -57.83,164.95l-1.26 -0.05c4.46,2.3 9.07,3.5 13.78,3.5zm8632.85 -10178.25l-0.02 0.02 0 392.68 0.02 -0.02 0 -392.68zm1375.23 10743.3l-84.77 0 0 -13110.66c-168.09,-16.02 -299.56,-157.57 -299.56,-329.83 0,-25.75 2.92,-50.82 8.47,-74.87l-229.48 -229.49 0 13744.86 -375.66 0 0 -14075.93 -281.64 0 0 14075.93 -111.13 0 0 -14075.93 -500.62 0.02 -0.03 0 0.02 -0.02 -4684.43 -4684.43c-449.8,74.51 -927.7,-61.71 -1274.67,-408.68 -571.29,-571.29 -571.29,-1497.59 0,-2068.9 571.31,-571.31 1497.59,-571.31 2068.9,0 346.97,346.97 483.19,824.87 408.68,1274.69l4684.44 4684.43 -0.02 0.02 0.02 971.63 543.78 543.78c24.02,-5.55 49.06,-8.47 74.75,-8.47 183.01,0 331.38,148.36 331.38,331.4 0,164.98 -120.61,301.79 -278.43,327.14l0 13113.36zm-7689.17 -21093.61c491.6,-491.59 1288.63,-491.59 1780.24,0 325.46,325.49 435.37,784.86 329.83,1200.83l4694.63 4694.63 0 909.23 -909.23 0 -4694.63 -4694.62c-415.97,105.52 -875.36,-4.38 -1200.83,-329.86 -491.59,-491.59 -491.59,-1288.63 0,-1780.22zm2461.48 3123.19l-408.96 -408.97 0 -1323.41 408.96 408.97 0 1323.41zm909.25 909.23l-408.97 -408.97 0 -1323.39 408.97 408.96 0 1323.41zm909.23 909.23l-408.97 -408.96 0 -1323.41 408.97 408.97 0 1323.39zm909.23 909.25l-408.96 -408.97 0 -1323.41 408.96 408.97 0 1323.41zm909.25 909.23l-408.97 -408.96 0 -1323.41 408.97 408.96 0 1323.41zm-5886.08 -6543.61c372.01,-372.03 975.19,-372.03 1347.2,0 372.03,372.01 372.03,975.16 0,1347.2 -372.01,371.99 -975.19,371.99 -1347.2,0 -372.01,-372.04 -372.01,-975.19 0,-1347.2zm-4323.92 20715.65c78.58,0 142.3,-160.37 142.3,-358.21 0,-197.84 -63.72,-358.21 -142.3,-358.21 -16.46,0 -32.25,7.06 -46.94,19.99l18.48 0.82c18.12,0.79 32.89,21.2 32.95,45.39l0.4 156.25 -2.87 6.36 3.33 117.23 6.97 -15.36 2.84 -96.44c21.74,14.04 36.02,64.02 36.02,123.97 0,66.72 -19.96,121.11 -45.62,128.08l0 0.05 -0.17 0.03c-18.27,4.61 -111.86,2.08 -137.92,2.59 20.75,133.18 72.25,227.47 132.54,227.47zm-680.16 -389.84l37.51 -8.72c-5.73,-8.81 -9.08,-19.42 -9.08,-30.85 0,-17.34 7.7,-32.81 19.76,-42.91l-62.2 14.47c-18.6,4.34 -30.64,23.15 -26.79,41.86l0 0.02c3.86,18.73 22.19,30.47 40.8,26.13zm87.56 -4.82l95.28 -22.18c18.88,-4.4 31.12,-23.52 27.21,-42.5l0 -0.05c-3.92,-18.98 -22.57,-30.92 -41.47,-26.53l-95.28 22.16c-18.89,4.41 -31.14,23.52 -27.21,42.52l0 0.03c3.92,19 22.57,30.94 41.47,26.54zm0 96.85l95.28 -22.18c18.88,-4.38 31.12,-23.52 27.21,-42.5l0 -0.03c-3.92,-19 -22.57,-30.92 -41.47,-26.54l-95.28 22.16c-18.89,4.41 -31.14,23.53 -27.21,42.53l0 0.02c3.92,19 22.57,30.94 41.47,26.54zm0 95.31l95.28 -22.16c18.88,-4.41 31.12,-23.52 27.21,-42.53l0 -0.02c-3.92,-19 -22.57,-30.94 -41.47,-26.54l-95.28 22.18c-18.89,4.38 -31.14,23.52 -27.21,42.5l0 0.03c3.92,18.98 22.57,30.92 41.47,26.54zm0 95.31l95.28 -22.18c18.88,-4.4 31.12,-23.52 27.21,-42.5l0 -0.05c-3.92,-18.98 -22.57,-30.92 -41.47,-26.53l-95.28 22.16c-18.89,4.41 -31.14,23.53 -27.21,42.52l0 0.05c3.92,18.98 22.57,30.92 41.47,26.53zm-87.56 0.37l34.53 -8.02c-3.89,-8.2 -6.08,-17.52 -6.08,-27.41 0,-19.41 8.46,-36.64 21.55,-47.46l-64.01 14.88c-18.6,4.35 -30.64,23.17 -26.79,41.89l0 0c3.86,18.73 22.19,30.47 40.8,26.12zm0 -93.82l35.17 -8.18c-5.98,-8.96 -9.49,-19.76 -9.49,-31.38 0,-16.72 7.24,-31.75 18.76,-42.04l-58.44 13.6c-18.6,4.32 -30.64,23.15 -26.79,41.86l0 0.02c3.86,18.71 22.19,30.45 40.8,26.13zm0 -93.84l36.9 -8.58c-5.4,-8.56 -8.49,-18.71 -8.49,-29.6 0,-18.65 9.13,-35.14 23.09,-45.07l-65.52 15.24c-18.6,4.32 -30.64,23.15 -26.79,41.86l0 0.02c3.86,18.71 22.19,30.45 40.8,26.13zm-184.85 98.8c20.93,0 37.88,-46.12 37.88,-103 0,-56.89 -16.95,-103.01 -37.88,-103.01 -8.99,0 -17.49,8.84 -23.73,22.71 2.34,-3.18 6.24,-10.33 16.88,-10.33 12.87,0 31.59,42.55 31.59,95.8 0,53.3 -12,96.55 -31.59,95.83l-0.67 -0.03c2.43,1.34 4.93,2.02 7.51,2.02zm494.64 -32.98c24.7,0 44.75,-54.49 44.75,-121.69 0,-67.22 -20.05,-121.69 -44.75,-121.69 -10.62,0 -20.64,10.44 -28.03,26.83 2.77,-3.76 7.36,-12.2 19.96,-12.2 15.17,0 37.3,50.26 37.3,113.19 0,62.94 -14.18,114.02 -37.3,113.19l-0.82 -0.03c2.87,1.58 5.84,2.4 8.9,2.4zm-440.32 -346.03l91.57 -18.48c-11.42,-8.17 -23.49,-12.52 -35.96,-12.52 -19.87,0 -38.73,11.1 -55.61,31zm336.96 62.4l64.16 2.72 0 -60.74 -64.16 -8.84 0 66.85zm6304.78 -853.31c89.17,-12.14 178.35,-24.38 267.54,-36.42 37.15,-5.05 67.58,22.16 67.37,60.02 -1.05,195.77 -2.11,391.54 -2.95,587.31 -0.17,34.67 -26.47,65.9 -59.75,72.88l157.73 -7.03c26.22,-1.16 47.29,-28.66 47.29,-55.19l0 -621.1c0,-32.83 -26.51,-45.1 -58.46,-51.2l-100 -19.14 -341.68 49.68c-15.07,2.21 -27.4,16.57 -27.4,31.97l0 20.02c11.91,-16.81 30.03,-29.07 50.3,-31.82zm120.95 620.41c78.7,0 142.53,-129.97 142.53,-290.28 0,-160.31 -63.83,-290.26 -142.53,-290.26 -33.78,0 -65.74,24.87 -89.28,63.98 8.84,-8.96 23.49,-29.08 63.58,-29.08 48.34,0 118.77,119.87 118.77,269.99 0,150.12 -45.13,272 -118.77,270l-2.57 -0.08c9.14,3.77 18.59,5.73 28.26,5.73zm2990.21 477.36c287.57,0 520.72,-439.56 520.72,-981.77 0,-542.2 -233.15,-981.74 -520.72,-981.74 -60.19,0 -117.98,19.3 -171.75,54.73l67.65 2.27c66.29,2.21 120.34,58.15 120.57,124.44l1.43 428.22 -10.53 17.4 12.15 321.33 25.56 -42.12 10.36 -264.3c79.54,38.48 131.85,175.49 131.85,339.78 0,182.84 -73.09,331.93 -166.96,351.05l0 0.12 -0.61 0.02c-6.48,1.28 -13.07,1.95 -19.71,1.95 -5.66,0 -11.27,-0.49 -16.79,-1.43l-468.13 6.63c75.9,364.98 264.4,623.44 484.92,623.44zm-2421.96 -202.24c-51.25,11.21 -102.37,-21.51 -113.6,-72.8 -11.23,-51.28 21.54,-102.39 72.79,-113.61 76.59,-16.76 300.82,-89.95 360.91,-45.39l-2.46 -0.03c-79.71,0 -144.31,61.85 -144.31,138.1 0,18.91 3.97,36.9 11.17,53.33l-184.48 40.4zm-113.6 -72.8l0 0zm113.6 -184.39c-51.25,11.21 -102.37,-21.52 -113.6,-72.8 -11.23,-51.28 21.54,-102.37 72.79,-113.6l283.65 -62.11c19.55,-4.27 39.08,-2.16 56.39,4.94 -69.81,10.3 -125.9,66.61 -125.9,139.44 0,22.59 5.23,42.7 15.41,62.79l-188.73 41.33zm-113.6 -72.8l0 0zm113.6 -184.38c-51.25,11.23 -102.37,-21.51 -113.6,-72.79 -11.23,-51.29 21.54,-102.39 72.79,-113.61l283.65 -62.11c19.84,-4.35 39.64,-2.11 57.13,5.25 -70.66,10.42 -130.19,66.08 -130.19,142.39 0,23.36 5.16,41.44 14.15,60.6l-183.92 40.26zm-113.6 -72.79l0 0zm113.6 -188.55c-51.25,11.23 -102.37,-21.51 -113.6,-72.8 -11.23,-51.29 21.54,-102.37 72.79,-113.6l283.65 -62.11c19.96,-4.53 41.89,-1.93 60.51,6.74 -12.82,0.38 -25.24,2.36 -36.98,5.77 -60.92,18.04 -99.47,68.92 -100.17,128.55 0,24.37 6.86,47.23 18.8,66.95l-185 40.51zm-113.6 -72.8l0 0zm8.79 -157.51l0 -60.91c255.61,-46.04 511.21,-92.11 766.84,-138.12l0 72c-255.63,42.33 -511.22,84.7 -766.84,127.03zm452.14 1005.29l288.09 -63.08c50.64,-11.48 85.75,-61.56 73.93,-115.41l0 0c-11.35,-51.73 -63.07,-85.37 -115.39,-73.93l-288.09 63.1c-52.05,11.41 -85.34,63.33 -73.93,115.39 11.61,51.4 62.34,85.62 115.39,73.93zm0 -261.24l288.09 -63.08c52.05,-11.39 85.34,-63.34 73.93,-115.39 -11.99,-51.83 -62.82,-85.67 -115.39,-73.93l-288.09 63.08c-52.05,11.41 -85.34,63.34 -73.93,115.39 12.18,52.14 62.66,85.43 115.39,73.93zm0 -261.21l288.09 -63.08c52.05,-11.41 85.34,-63.36 73.93,-115.41 -12.34,-52.89 -62.08,-84.51 -115.39,-73.93l-288.09 63.1c-52.05,11.39 -85.34,63.33 -73.93,115.38 12.63,54.43 62.9,83.92 115.39,73.94zm0 -265.44l288.09 -63.08c50.61,-11.58 85.81,-61.13 73.93,-115.39l0 0c-11.73,-53.41 -64.66,-84.96 -115.39,-73.93l-288.09 63.07c-52.81,11.58 -84.91,63.72 -73.93,115.39 11.73,51.75 62.75,85.58 115.39,73.94zm371.54 -339.59l176.97 7.47 0 -166.43 -176.97 -24.29 0 183.25zm483.86 719.77c90.43,0 163.75,-149.3 163.75,-333.49 0,-184.18 -73.32,-333.49 -163.75,-333.49 -38.83,0 -75.54,28.58 -102.56,73.5 10.12,-10.28 26.95,-33.4 73.03,-33.4 55.55,0 136.46,137.71 136.46,310.19 0,172.48 -51.86,312.5 -136.46,310.22l-2.95 -0.09c10.5,4.3 21.36,6.57 32.48,6.57zm-493.38 -293.23l0 0zm0 261.23l0 0zm-477.41 365.79l0 0zm0 -261.24l0 0zm0 -261.23l0 0zm0 -265.44l0 0zm-7241.12 1333.05c-4.26,1.87 -7.77,3.09 -12.43,3.53 -5.1,0.32 -10.31,0 -15.45,-0.2 -40.99,1.7 -81.78,3.41 -122.82,4.99 -12.28,0.46 -24.37,-3.95 -35.06,-11.96l-1.37 22.85 54.08 -1.35c-20.06,53.13 -61.12,135.53 -124.19,135.58l-0.03 0.02 73.97 -0.44c2.53,0 5.05,0.43 7.59,0.43 2.53,0 5,-0.14 7.5,-0.43l-0.21 0c34.13,-3.61 65.68,-32.54 91.74,-79.51 10.15,-17.48 18.94,-38.71 25.98,-57.71l0.02 0 34.04 -0.85 119.32 -3c24.19,-0.62 53.04,-35.23 61.32,-67.84l16.31 -64.19 3.62 -1.57 124.64 0.11c-6.8,-32.73 -12.25,-67.52 -16.12,-103.95l-23.64 1.96 0 -268.13c0,-13.75 -8.12,-20.38 -18.38,-21.55l-72.95 -8.24 -96.14 16.5c-3.09,0.53 -4.06,7.33 -4.15,13.78 1.37,-0.65 2.78,-1.14 4.23,-1.38 27.72,-5.02 55.43,-10.05 83.16,-15.12 11.55,-2.08 20.99,9.2 20.93,24.9 -0.32,81.23 -0.67,162.46 -0.93,243.69 -0.06,15.47 -9.51,29.3 -20.96,30.71 -18.03,2.22 -70.85,11.5 -85.06,10.45l-36.02 139.63c-6.37,23.4 -20.5,47.47 -42.53,58.32zm591.88 83.04c-23.41,34.59 -58.35,70.37 -102.92,70.4l-0.03 0.02c31.21,-0.18 76.97,2.83 106.48,-0.52l-0.32 0c26.39,-2.77 49.03,-17.96 67.26,-36.43 98.6,-99.67 127.47,-332.73 127.47,-475.14 0,-244.61 -68.15,-449.18 -159.26,-499.97 -14.22,-7.93 -28.99,-12.09 -44.17,-12.09l-0.52 0.02 0 -1.41 -44.01 -4.97c8.85,-5.64 22.07,-14.66 48.25,-23.35 59.72,-19.77 104.41,19.03 118.94,39.26 69.46,96.82 115.97,283.28 115.97,496.88 0,41.12 -1.72,81.18 -5.03,119.84l59.45 0.03c20.38,195.95 99.57,351.17 200.79,395.16l117.4 0c101.13,-43.98 180.3,-199.06 200.74,-394.86l54.2 0.03c-4.18,-25.34 -7.7,-51.49 -10.47,-78.31 -2.8,-5.07 -4.41,-11.36 -4.41,-18.31l0 -33.88c-2.05,-31.44 -3.13,-63.67 -3.13,-96.5 0,-32.81 1.08,-65.03 3.13,-96.49l0 -69.74c0,-10.91 3.92,-21.43 10.02,-28.9 34.65,-249.33 133.88,-429.37 250.91,-429.37 62.46,0 119.84,51.31 165.06,137.02l114.37 -21.69c-28.23,-47.54 -60.62,-82.26 -95.59,-100.56 -18.44,-9.67 -37.63,-14.77 -57.33,-14.77l-0.67 0.03 0 -1.75 -57.13 -6.04c11.5,-6.88 28.66,-17.9 62.63,-28.46 77.55,-24.14 135.56,23.17 154.4,47.84 19.68,25.78 37.97,56.78 54.49,92.21 167.75,-31.78 335.52,-63.57 503.24,-95.5 24.76,-4.72 44.98,19.47 44.98,53.51l0 50.58 0.21 -0.81 1.49 582.76 20.85 -0.37c33.36,224.34 123.73,385.18 229.98,385.18 134.62,0 243.75,-258.09 243.75,-576.44 0,-318.36 -109.13,-576.45 -243.75,-576.45 -45.45,0 -87.98,29.46 -124.41,80.68l-93.5 -3.92c57.74,-151.37 141.34,-246.56 234.36,-246.56 174.26,0 315.53,334.12 315.53,746.26 0,149.15 -49.65,746.17 -315.5,746.24l-0.05 0.03 137.12 -0.76c4.67,-0.03 9.37,0.73 14.09,0.73 4.69,0 9.34,-0.24 13.98,-0.73l-0.5 0c73.47,-7.3 140.46,-74.02 192.56,-180.36l0.12 -0.21c66.99,-136.83 109.39,-339.17 109.39,-564.94 0,-356.49 -105.7,-654.62 -247.05,-728.6 -22.04,-11.55 -44.96,-17.66 -68.5,-17.66l-0.82 0.05 0 -2.08 -68.24 -7.23c13.72,-8.23 34.21,-21.39 74.81,-34.03 92.67,-28.83 161.99,27.7 184.5,57.19 107.74,141.09 179.89,412.84 179.89,724.11 0,254.26 -48.45,481.75 -124.69,633.75 50.32,68.13 110.89,107.92 176.1,107.92 113.6,0 213.13,-120.63 268.79,-301.66l472.95 -12.81 44.46 -11.01c60.71,195.44 147.38,325.48 291.57,325.48 144.17,0 303.45,-226.5 336.25,-539.61l118.28 -15.23 0.06 -495.88 1235.58 -126.09c0.7,-15.01 1.57,-29.94 2.6,-44.78l0 -501.19c0,-61.77 58.35,-130.22 118.97,-142.03l59.83 -11.62c103.48,-182.4 242.45,-294.1 395.3,-294.1 110.16,0 213.13,58.05 300.79,158.75l233.74 -45.45c-41.24,-38.61 -85.29,-68.24 -131.4,-87.48 -40.46,-16.88 -82.52,-25.81 -125.69,-25.81l-1.52 0.03 0 -3.03 -125.22 -10.57c25.21,-12.05 62.81,-31.29 137.3,-49.76 169.99,-42.17 297.22,40.51 338.53,83.63 18.91,19.76 37.24,41.27 54.9,64.42l1229.01 -238.97c62.14,-12.09 112.94,30.82 112.94,95.24l0 104.32 0.37 -1.1 3.48 1096.06 49.18 -0.7c78.69,421.9 291.86,724.4 542.51,724.4 317.55,0 575.01,-485.38 575.01,-1084.1 0,-598.72 -257.45,-1084.09 -575.01,-1084.09 -107.19,0 -207.53,55.38 -293.44,151.72l-220.58 -7.36c136.23,-284.68 333.42,-463.67 552.81,-463.67 411.07,0 744.34,628.34 744.34,1403.4 0,396.27 -113.78,1068.08 -495.79,1323.16l-0.61 0.4c-77.5,51.67 -160.92,79.83 -247.81,79.86l-0.15 0.06 323.44 -1.43c11.03,-0.05 22.09,1.37 33.22,1.37 11.01,0 21.93,-0.47 32.81,-1.35l-1.02 0c562.4,-44.6 712.56,-1022.78 712.56,-1402.07 0,-670.44 -249.36,-1231.09 -582.75,-1370.21 -52.02,-21.72 -106.08,-33.19 -161.61,-33.19l-1.93 0.05 0 -3.89 -161 -13.6c32.42,-15.49 80.74,-40.22 176.51,-63.98 218.57,-54.21 382.1,52.1 435.21,107.54 254.14,265.36 424.32,776.39 424.32,1361.79 0,313.63 -49.13,605.58 -133.69,850.04l267.93 -7.85 0 -2945.32 -108.53 22.6 -2.24 -504.7 -2121.63 555.66 0 -57.76 2173.8 -588.27 -0.2 489.56 59.49 66.34 0 -6333.8 -60.88 38.47 0 5659.33 -2172.22 592.58 0 -5179.41 2232.4 -1501.32 0 -390.08 -2484.3 1724.85 0 42.55 0 298.9 0 5625.28 3.97 0.27 -0.44 4.23 -243.38 52.57 0 -5343.69 -33.71 123.24 -21.34 4686.79 -1333.01 363.83 0 -4428.47 1367.58 -921.72 0 -326.35 -1617.66 1125.61 0 27.91 0 5070.16 -132.95 30.23 0 -4591.52 -28.95 105.93 -18.33 4024.53 -1026.04 278.2 4.03 -3865.58 1031.56 -675.52 0 -287.92 -1229.28 856.72 0 4425.89 -0.53 22.18 -131.94 31.15 0 -3948.87 -26.85 98.24 -17.02 3444.04 -756.74 205.67 4.02 -3416.13 773.33 -519.74 0 -240.96 -945.45 653.98 0 3938.26 1.83 0.33 -0.03 5.96 -112.87 25.33 0 -3597.45 -24.57 89.95 -15.59 3147.51 -673.33 181.5 3.56 -3021.84 683.51 -470.05 0 -212.99 -835.64 588.73 0 3480.87 2.11 0.53 -0.09 12.78 -108.81 26.82 0 -3083.31 -21.62 79.14 -13.74 2679.34 -587.89 155.81 3.13 -2683.46 607.73 -408.44 0 -189.38 -742.97 513.95 0 3090.68 3 1.11 0.11 15.33 -60.86 14.19 0 -2636.58 -18.42 67.45 -11.7 2275.64 -480.42 130.12 2.72 -2415.33 495.34 -332.02 0 -168.59 -612.7 427.84 0 2788.01 0.47 0.14 -0.09 56.92 -269.74 23.17 0 -2931.6 -21.28 16.5 0.23 330.47 -311.86 -99.42 0 2760.92 -237.95 98.86 0.37 -233.33 -429.62 112.47 0.05 -22.42 446.01 -119.11 0.03 208.52 25.17 33.13 0 -2237.57 -19.85 59.16 -10.97 1901.55 -440.35 120.52 2.28 -1873.51 443.58 -298.13 0 -138.21 -542.3 375.11 0 2162.92 2.08 0.76 -0.3 17.45 -46.65 9.74 0 -1772.86 -12.81 46.88 -12.53 1510.1 -396.64 108.53 1.95 -1651.97 405.2 -273.59 0 -116.95 -488.73 338.74 0 1908.19 0.88 0.4 -0.02 17.89 -77.15 19.58 0.12 -145.66 -362.75 93.49 0.02 -15.93 383.02 -102.28 0.03 113.31 19.46 25.63 0 -1633.07 -12.05 44.1 -11.77 1417.85 -378.64 103.62 1.87 -1440.9 388.12 -263.58 0 -114.28 -469.74 327.24 0 1690.03 -71.74 16.25 0.29 -129.04 -299.35 77.17 0 -14.3 318.82 -85.14 0.03 103.15 17.71 23.33 0 -1486.61 -10.97 40.16 -10.71 1290.69 -314.83 86.14 1.64 -1266.88 330.95 -224.76 0 -97.44 -400.56 279.04 0 1370.14 -0.12 0.03 -0.14 115.68 -45.56 10.97 0.09 -114.89 -278.48 71.78 0.02 -10.92 286.22 -76.42 0.02 91.03 15.62 20.58 0 -1311.76 -9.67 35.44 -9.45 1138.88 -282.7 77.35 1.46 -1113.7 292.18 -198.42 0 -86.05 -353.63 246.36 0 1282.46 0.88 0.06 0 19.44 -36.55 8.69 0.43 -98.46 -239.29 61.61 0.02 -9.67 246.67 -65.87 0.03 81.79 14.04 18.48 0 -1178.56 -8.7 31.82 -8.5 1023.26 -243.5 66.64 1.29 -989.5 253.38 -172.09 0 -74.61 -306.68 213.66 0 1112.15 12.44 0.96 0 329.48 1729.26 -192.99c0.35,-10.86 0.85,-21.6 1.51,-32.2l0 -47.86c0,-7.48 2.49,-14.69 6.45,-19.82 22.36,-171.1 86.32,-294.63 161.77,-294.63 40.25,0 77.24,35.2 106.4,94.04l73.76 -14.89c-18.21,-32.6 -39.08,-56.43 -61.64,-69.01 -11.88,-6.63 -24.26,-10.13 -36.96,-10.13l-0.44 0.02 0 -1.19 -36.81 -4.15c7.39,-4.73 18.47,-12.29 40.36,-19.53 49.98,-16.55 87.4,15.91 99.54,32.83 12.7,17.69 24.48,38.97 35.14,63.28l11.03 -2.22c106.71,-21.48 211.15,-42.58 313.4,-63.31 15.97,-3.22 28.99,13.36 28.99,36.71l1.11 434.07 13.43 -0.26c21.51,153.94 79.77,264.31 148.28,264.31 86.78,0 157.13,-177.09 157.13,-395.56 0,-218.45 -70.35,-395.54 -157.13,-395.54 -29.3,0 -56.74,20.2 -80.21,55.35l-60.28 -2.69c37.24,-103.88 91.13,-169.18 151.09,-169.18 112.35,0 203.42,229.25 203.42,512.06 0,135.78 -23.59,327.47 -100.47,441.68zm1106.8 70.38l-0.05 0.03 114.74 -0.64c3.91,-0.02 7.85,0.61 11.77,0.61 3.88,0 7.73,-0.21 11.56,-0.59l-0.27 0c93.55,-9.29 156.6,-127.79 189.02,-217.01 -53.83,2.05 -107.67,4.12 -161.51,6.13 -19.06,0.41 -34.44,-4.84 -50.53,-14.82l-4.38 5.63 -1.6 25.05 83.92 -1.99c-48.16,121.55 -116.66,197.57 -192.67,197.6zm373.18 -201.86l185.09 -4.37c37.53,-0.88 82.26,-51.32 95.12,-98.84l42.2 -156.07 168.82 -7.48c-4.59,-27.12 -8.55,-55.03 -11.79,-83.62l-36.67 2.86 0 -390.75c0,-20.02 -12.6,-29.72 -28.49,-31.4l-113.17 -12.03 -149.1 24.06c-4.79,0.78 -6.27,10.66 -6.45,20.06 2.11,-0.94 4.32,-1.63 6.57,-2.01 42.99,-7.3 85.97,-14.72 128.96,-22.03 17.9,-3.04 32.57,13.42 32.48,36.29 -0.5,118.38 -1.02,236.75 -1.43,355.11 -0.09,22.56 -14.76,42.7 -32.51,44.77 -31.88,3.7 -104.49,16.57 -131.94,15.23 -3.26,11.82 -42.84,185.06 -67.33,232.46l-0.18 0.37c-15.04,28.32 -42.27,58.93 -74.81,60.86 -1.75,5.58 -3.53,11.07 -5.35,16.52zm-2458.03 -118.65l8.06 65.67c23.15,94.42 64.65,157.33 111.96,157.33 19.5,0 38.01,-10.69 54.65,-29.86 -8.32,5.05 -17.02,7.7 -25.95,7.7 -51.03,0 -93.96,-86.84 -106.77,-205.02l81.37 -4.84c6.98,-0.4 12.56,-10.18 12.56,-19.58l0 -220.4c0,-11.64 -6.88,-17.01 -15.53,-18.19l-59.55 -8.11 -87.71 14.98c-2.86,0.5 2.07,5.95 5.26,11.04 23.56,-4.24 47.12,-8.55 70.69,-12.82 9.89,-1.79 17.96,7.86 17.9,21.28 -0.26,69.49 -0.58,138.96 -0.78,208.44 -0.05,13.23 -8.14,25.07 -17.93,26.27 -16.08,2.02 -32.16,4.05 -48.24,6.1zm7458.61 163.74c-87.22,99.42 -189.49,156.72 -298.9,156.75l-0.12 0.05 251.6 -1.11c8.58,-0.03 17.19,1.06 25.86,1.06 157.13,0 281.7,-116.88 364.57,-243.64 28.14,-43.05 51.79,-87.63 73.47,-134.24l529.04 -9.95c88.48,-1.67 194.02,-96.52 224.34,-185.91l104.35 -307.68 27.53 19.97 -102.37 327.24 574.41 -1.32c-61.53,-147.22 -107.76,-318.22 -134.16,-504.49l-86.28 6.56 0 -734.59c0,-37.74 -30.44,-52.57 -67.26,-59.02l-105.86 -18.63 -402.08 57.29c-17.33,2.46 -31.52,18.94 -31.52,36.64l0 30.5c13.2,-17.33 32.7,-29.91 54.41,-32.86 101.37,-13.75 202.74,-27.64 304.11,-41.38 43.61,-5.9 79.56,24.16 79.31,66.55 -1.25,222.47 -2.42,444.95 -3.57,667.42 -0.2,42.99 -36.84,79.04 -80.85,79.92 -102.14,1.99 -204.29,4.67 -306.43,6.66 -18.07,0.38 -34.48,-6.08 -46.97,-17.04l0 4.58 -120.93 9.19 -144.33 404.49c-31.2,85.23 -121.17,167.28 -215.93,166.96l-35.85 -0.68 -8.11 -0.17 -444.45 13.31c-32.45,0.64 -61.9,-4.37 -92.67,-16.25 -55.05,52.8 -117.37,82.58 -183.36,82.58 -172.25,0 -319.36,-202.78 -377.93,-488.59l-73.84 6.89c61.53,327.06 227.03,561.29 421.6,561.29 84.06,0 162.69,-43.75 229.86,-119.79l235.91 -4.43c-36.07,77.62 -80.29,151.11 -136.6,215.87zm-7082.49 -884.18l-29.53 6.16 0.87 -159.93 -380.51 99.24 0.03 -25.77 401.28 -107.15 0.03 177.15 7.83 10.3zm1538.12 -565.36l0.03 -29.01 480.79 -128.03 0.06 241.68 8.67 11.44 -31.02 7.23 -0.75 -223.91 -457.79 120.61zm3339.83 -558.62l-41.59 9.83 -0.43 -317.48 -726.18 192.42 0.06 -44.87 757.25 -196.93 0.05 342.79 10.83 14.24zm-1086.93 247.37l-30.07 6.74 0.68 -275.77 -644.51 167.25 0.05 -35.93 673.8 -179.71 0.05 317.42zm-960.39 225.14l-28.1 6.92 0.82 -255.89 -564.85 151.08 0.05 -30.67 588.33 -156.4 0.05 280.07 3.7 4.88zm2405.9 -882.14l0.06 -44.52 1026.57 -273.85 0.06 359.48 30.71 40.45 -71.36 16.23 -1.16 -354.59 -984.89 256.81zm2826.4 -325.75l-66.66 14.41 -2.91 -413.7 -1300.38 342.97 0 -50.71 1333.57 -354.96 0.08 414.24 36.29 47.76z"/>
  </g>
 </g>
</svg>
