<?xml version="1.0" encoding="UTF-8"?>
<!DOCTYPE svg PUBLIC "-//W3C//DTD SVG 1.1//EN" "http://www.w3.org/Graphics/SVG/1.1/DTD/svg11.dtd">
<!-- Creator: CorelDRAW 2020 (64-Bit) -->
<svg xmlns="http://www.w3.org/2000/svg" xml:space="preserve" width="1820px" height="1795px" version="1.1" style="shape-rendering:geometricPrecision; text-rendering:geometricPrecision; image-rendering:optimizeQuality; fill-rule:evenodd; clip-rule:evenodd"
viewBox="0 0 1431.2 1412.04"
 xmlns:xlink="http://www.w3.org/1999/xlink"
 xmlns:xodm="http://www.corel.com/coreldraw/odm/2003">
 <defs>
  <style type="text/css">
   <![CDATA[
    .str12 {stroke:white;stroke-width:1.2;stroke-miterlimit:22.9256}
    .str16 {stroke:black;stroke-width:1.2;stroke-miterlimit:22.9256}
    .str13 {stroke:white;stroke-width:1.2;stroke-miterlimit:22.9256}
    .str15 {stroke:black;stroke-width:1.2;stroke-miterlimit:22.9256}
    .str14 {stroke:black;stroke-width:1.2;stroke-miterlimit:22.9256}
    .str33 {stroke:black;stroke-width:1.2;stroke-miterlimit:22.9256}
    .str11 {stroke:#CC6633;stroke-width:1.2;stroke-miterlimit:22.9256}
    .str27 {stroke:black;stroke-width:1.2;stroke-miterlimit:22.9256}
    .str29 {stroke:black;stroke-width:1.2;stroke-miterlimit:22.9256}
    .str30 {stroke:black;stroke-width:1.2;stroke-miterlimit:22.9256}
    .str25 {stroke:#BA5B41;stroke-width:1.2;stroke-miterlimit:22.9256}
    .str31 {stroke:#CC6633;stroke-width:1.2;stroke-miterlimit:22.9256}
    .str26 {stroke:white;stroke-width:1.2;stroke-miterlimit:22.9256}
    .str28 {stroke:black;stroke-width:1.2;stroke-miterlimit:22.9256}
    .str32 {stroke:black;stroke-width:1.2;stroke-miterlimit:22.9256}
    .str17 {stroke:white;stroke-width:0.98;stroke-miterlimit:22.9256}
    .str21 {stroke:#CC6633;stroke-width:1.26;stroke-miterlimit:22.9256}
    .str24 {stroke:#CC6633;stroke-width:1.26;stroke-miterlimit:22.9256}
    .str1 {stroke:#CC6633;stroke-width:1.28;stroke-miterlimit:22.9256}
    .str2 {stroke:black;stroke-width:1.28;stroke-miterlimit:22.9256}
    .str5 {stroke:black;stroke-width:1.28;stroke-miterlimit:22.9256}
    .str3 {stroke:white;stroke-width:1.28;stroke-miterlimit:22.9256}
    .str4 {stroke:#CC6633;stroke-width:1.28;stroke-miterlimit:22.9256}
    .str6 {stroke:black;stroke-width:1.28;stroke-miterlimit:22.9256}
    .str0 {stroke:white;stroke-width:1.29;stroke-miterlimit:22.9256}
    .str18 {stroke:#CC6633;stroke-width:0.84;stroke-miterlimit:22.9256}
    .str19 {stroke:#CC6633;stroke-width:0.84;stroke-miterlimit:22.9256}
    .str20 {stroke:#CC6633;stroke-width:0.85;stroke-miterlimit:22.9256}
    .str23 {stroke:white;stroke-width:1.36;stroke-miterlimit:22.9256}
    .str9 {stroke:#CC6633;stroke-width:3.75;stroke-miterlimit:22.9256}
    .str10 {stroke:#CC6633;stroke-width:3.75;stroke-miterlimit:22.9256}
    .str8 {stroke:#CC6633;stroke-width:1.14;stroke-miterlimit:22.9256}
    .str7 {stroke:white;stroke-width:1.14;stroke-miterlimit:22.9256}
    .str22 {stroke:white;stroke-width:0.45;stroke-miterlimit:22.9256}
    .fil3 {fill:none}
    .fil11 {fill:#F5B2B6}
    .fil2 {fill:black}
    .fil7 {fill:#006633}
    .fil8 {fill:#009933}
    .fil9 {fill:#99CC33}
    .fil10 {fill:#BA4100}
    .fil1 {fill:#CC6633}
    .fil5 {fill:#FFCCCC}
    .fil4 {fill:white}
    .fil0 {fill:white}
    .fil6 {fill:#CC6633;fill-rule:nonzero}
   ]]>
  </style>
 </defs>
 <g id="Layer_x0020_1">
  <metadata id="CorelCorpID_0Corel-Layer"/>
  <rect class="fil0" width="1431.2" height="1412.04"/>
  <g id="_2824349741648">
   <path class="fil1" d="M552.25 1281.18c-9.14,6.18 -26.94,-5.28 -36.52,-10.55 -42.08,-23.17 -52.9,-92.43 -18.25,-119.04 18.98,-14.56 45.7,-20.58 46.75,-24.28 6.59,-23.19 -157.96,-37.33 -129.22,106.64 11.36,56.92 77.97,95.29 140.49,72.9 0.55,-0.2 -3.39,-25.68 -3.25,-25.67z"/>
   <path class="fil1" d="M668.7 1285.99c-2.97,11.11 -19.19,30.94 -32.17,35.35 -5.68,1.93 -36.81,4.33 -41.84,6.88 -13.73,8.61 -35.62,8.09 -46.7,-23.2 -19.09,-53.91 52.42,-74.83 71.56,-91.11 26.91,-22.91 39.83,-63.86 15.59,-59.23 -3.97,0.76 -18.37,2.08 -17.43,0.4 6.27,-11.27 10.71,-24.3 11.44,-26.29 2.81,-7.62 -1.47,-12.96 0.11,-20.63 1.65,-8.02 6.52,-10.02 6.52,-18.09 0,-5.09 1.01,-14.44 1.82,-19.32 0.21,-1.24 5.79,-3.71 6.87,-3.31 3.81,1.41 11.25,14.14 16.07,20.16 1.6,2 4.56,-0.35 5.5,-1.86 1.84,-2.93 7.65,-14.98 8.28,-15.66 1.32,-1.46 5.32,-0.85 6.51,0.32 4.88,4.8 1.73,20.19 2.58,27.52 0.28,2.42 4.25,7.99 5.81,9.64 25.39,26.86 27.3,53.25 32.52,84.68 2.67,16.16 -1.48,31.9 -1.48,47.99 0,17.93 12.69,68.19 27.59,79.55 1.81,1.37 10.98,2.97 15.15,3.2 5.49,0.32 7.65,3.19 8.35,4.98 1.98,5.1 -1.33,7.81 -4.68,6.15 -2.91,-1.43 -3.55,-3.85 -3.46,-1.88 0.18,4.35 -6.32,3.12 -7.09,0.62 -1.3,-4.21 -3.12,-1.06 -3.68,0.03 -1.4,2.68 -8.59,0.97 -12.88,-2.11 -20.74,-14.88 -30.42,-62.38 -38.66,-66.51 -13.56,-6.79 -14.25,14.82 -14.92,21.28 -0.79,7.57 -0.32,29.55 0.47,36.63 0.63,5.65 2.53,7 8.66,8.49 7.3,1.78 8.53,11.57 3.23,11.57 -2.45,0 -2.99,-0.45 -3.76,-1.73 -1.76,-2.92 -1.23,2.46 -5.18,2.18 -3.92,-0.27 -4.96,-4.39 -6.07,-2.76 -2.27,3.32 -11.89,0.37 -9.62,-10.77 0.75,-3.68 -1.86,-27.65 -5.01,-43.16z"/>
   <path class="fil2" d="M641.47 1102.07c0.91,1.82 0.02,4.03 -2.01,1.12 -0.91,-1.3 -1.55,-3.23 -0.77,-5.25 0.21,-0.53 1.03,-1.94 2.14,-2.89 3.02,-2.57 -2.14,1.41 0.64,7.02z"/>
   <path class="fil3 str0" d="M639.18 1124.43c-4.99,0 -11.3,5.84 -12.65,11.95"/>
   <path class="fil4" d="M638.86 1135.34c-2.3,1.43 -10.05,7.87 -11.15,11.7 -0.9,3.18 5.42,5.09 8.17,3.26 3.21,-2.15 5.02,-8.94 5.75,-11 1.78,-5.03 2.52,-7.24 -2.77,-3.96z"/>
   <path class="fil2" d="M650.21 1312.72c0.46,0.71 5.6,1.96 9.16,2.4 4.41,0.54 11.09,4.09 12.4,8.21 0.72,2.25 1.19,6.7 -3.91,6.83 -3.21,0.08 -3.47,-3.83 -4.43,-3.82 -0.72,0.02 -0.89,5.81 -5.79,4.67 -2.93,-0.68 -2.11,-7.17 -4.03,-4.36 -5.84,8.58 -10.5,-0.57 -12.15,-6.78 -0.31,-1.14 7.09,-7.09 8.75,-7.15z"/>
   <path class="fil4" d="M468.7 1125.21c5.09,2.53 16.32,-1.7 8.85,3.46 -1.14,0.79 -6.07,2.56 -5.38,4.57 4.88,1.11 2.46,1.03 1.24,5.52 -0.39,1.46 -2.79,5.44 0.4,5.55 1.14,0.04 2.48,1.12 2.59,2.57 0.39,4.86 -1.92,8.16 -1.22,11.64 0.38,1.86 6.29,-0.74 7.11,-1.3 0.15,-0.1 3.34,-1.64 3.43,-1.66 12.4,-10.8 26.29,-15.58 29.7,-17.42 2.1,-1.14 18.6,-8.04 19.79,-8.62 6.11,-3.02 -5.11,-9.38 -9.6,-10.53 -10.56,-2.71 -26.46,-4.16 -36.74,-2.89 -5.96,0.73 -22.6,7.9 -20.17,9.11z"/>
   <path class="fil4 str1" d="M589.34 1293.58c53.27,6.92 77.52,-45.94 77.68,-46.14 40.72,-51.01 15.61,-119.83 -21.11,-164.42 -1.31,-1.57 -8.98,-8.64 -9.08,-10.19 0.21,-1.23 6.56,-5.15 7.63,-4.75 3.82,1.41 11.13,13.63 15.95,19.65 1.6,1.99 4.56,0.44 5.5,-1.06 1.84,-2.93 8.04,-15.27 8.66,-15.95 1.32,-1.45 4.82,-0.88 6,0.29 4.87,4.79 1.76,19.88 2.33,27.23 0.27,3.68 4.95,8.9 6.32,10.48 24.24,27.87 26.41,51.84 31.23,83.4 2.48,16.18 -1.6,31.7 -1.6,47.8 0,11.39 6.17,30.13 -3.07,52.43 -0.73,-1.61 -1.84,-4.22 -2.53,-5.89 -4.15,-10.11 -7.87,-21.25 -12.48,-23.16 -16.69,-6.91 -14.89,22.71 -15.56,29.16 -0.24,2.27 -3.04,1.62 -12.79,-2.37 -2.42,7.17 -22.73,23.97 -35.41,29.17 -7.05,2.89 -30.55,5.53 -39.77,7.59 -1.16,0.25 -8,-32.62 -7.9,-33.27z"/>
   <path class="fil2 str2" d="M715.37 1292.22c0.82,-2.12 4.99,-41.09 5.86,-37.62 2.97,11.8 10.53,40.7 13.51,46.76 4.27,8.68 7.77,14.74 12.6,18.42 1.79,1.37 10.98,2.97 15.14,3.2 5.49,0.32 7.65,3.19 8.35,4.98 1.99,5.1 -1.32,7.81 -4.68,6.15 -2.91,-1.43 -3.54,-3.85 -3.46,-1.88 0.18,4.35 -6.31,3.12 -7.08,0.62 -1.3,-4.21 -3.12,-1.06 -3.69,0.03 -1.4,2.68 -8.59,0.97 -12.88,-2.11 -6.57,-4.72 -12.71,-15.07 -17.56,-24.57 -0.76,-1.5 -5.41,-12.54 -6.11,-13.98z"/>
   <path class="fil1" d="M583.86 1293.65c0.41,-0.26 12.03,33.63 12.42,33.36 15.65,-10.78 20.15,-33.36 -12.42,-33.36z"/>
   <path class="fil3 str3" d="M595.69 1327.22c16.6,-10.41 21.57,-33.57 -11.83,-33.57"/>
   <path class="fil3 str4" d="M666.54 1264.8c-0.23,4.69 -2.07,8.97 1.96,13.46 0.9,1.01 2.33,11.62 3.25,16.13"/>
   <path class="fil2" d="M643.87 1068.04c0.49,0.1 -1.59,3.36 -1.81,3.81 -0.47,0.99 -3.46,5.42 -4.32,5.42 -1.59,0 -2.01,-6.98 -2.01,-8.05 0,-2.9 6.01,-1.62 8.14,-1.18z"/>
   <path class="fil2 str5" d="M668.89 1286.31c3.01,12.05 5.14,46.87 6.12,49.28 0.49,1.19 0.6,3.62 2.91,4.09 3.65,0.75 4.17,-1.01 5.49,-0.56 0.2,0.95 2.95,2.62 4.42,2.62 4.8,0 3.76,-3.39 6.09,-2.23 0.16,0.08 0.95,1.51 1.93,1.72 4.82,1 8.03,-2.16 4.85,-5.92 -3.39,-4.02 -2.36,-2.44 -6.7,-4.74 -0.23,-0.13 -3.77,-1.21 -6.16,-2.6 -2.31,-0.8 -2.89,-31 -3.01,-34.9 -0.05,-1.31 -8.99,-7.53 -13.69,-10.68 -3.1,-2.09 -2.98,0.98 -2.25,3.92z"/>
   <path class="fil2 str6" d="M595.23 1327.35c6.52,-4.03 9.99,-11.8 10.43,-11.8 11.94,-0.09 25.9,3.61 28.9,10.7 0.87,2.06 1.47,6.87 -1.18,8.13 -1.83,0.87 -5.41,0.13 -6.24,-2.13 -1.01,-2.74 -1.48,-2.58 -1.85,-0.34 -0.57,3.43 -5.67,4.73 -7.52,-0.11 -0.41,-1.06 -0.68,-3.38 -1.44,-0.53 -0.73,2.75 -6.15,4.77 -8.98,1.32 -4.67,-5.7 -7.48,-4.67 -11.06,-4.41 -2.28,0.17 -2.51,0.07 -1.06,-0.83z"/>
  </g>
  <g id="_2824349745392">
   <path class="fil1" d="M838.22 244.47c-1.71,-9.98 -26.68,-7.37 -32.85,-5.07 -14.14,5.24 -21.89,12.09 -27.57,27.58 -9.99,27.28 -33.25,37.43 -53.5,54.65 -9.05,7.69 -19.12,16.14 -26.52,25.7 -8.66,11.18 0.08,10.06 17.02,7.95 99.12,-12.38 71.11,-65.96 108.4,-100.93 11.03,-10.34 13.91,-2.15 15.02,-9.88z"/>
   <path class="fil1" d="M849.05 294.23c-0.06,2.64 2.58,8.76 2.36,13.19 -0.06,1.24 0.17,4.36 0.13,6.16 -0.11,5.74 -5.14,28.46 -7.71,33.83 -9.39,19.57 23.82,-10.42 25.78,-12.24 1.88,-1.74 5.41,-7.83 6.2,-10.27 1.49,-4.65 4.76,-11 4.85,-15.91 0.04,-1.83 0.96,-5.53 1.01,-8.17 0.12,-5.91 -1,-4.2 -6.14,-7.86 -5.95,-4.24 -5.67,-4.75 -13.48,-5.74 -4.45,-0.57 -12.01,-1.26 -12.45,4.87 -0.03,0.46 -0.37,1.64 -0.55,2.14z"/>
   <path class="fil1 str7" d="M929.61 158.17c-2.87,-3.97 -16.5,-7.48 -21.9,-5.12 -2,0.88 -2.64,1.95 -5.12,2.12 -4.65,0.31 -3.66,-1.78 -8,-4.25 -3.14,-1.79 -7.11,-6.31 -10.12,-1.81 -5.64,8.44 -2.49,13.08 -1.32,20.94 0.86,5.74 3.72,1.94 -0.32,10.9 -0.68,1.49 -0.66,9.1 0.03,11.08 1.25,3.58 4.08,2.51 2.93,7.66 -1.63,7.27 -5.81,9.68 -6.46,19.86 -0.8,12.58 -18.05,6.67 -26.88,10.6 -1.05,0.46 -3.46,0.11 -6.94,2.06 -16.63,9.38 -33.11,41.53 -29.92,58.47 2.74,14.55 6.61,19.04 6.35,32.33 -0.29,14.5 0.42,26.2 -5.93,35.27 -2.98,4.27 -0.75,8.24 0.89,16.8 0.38,1.99 0.64,13.18 2.05,13.6 2.92,0.89 7.88,1.62 10.06,-0.46 4.76,-4.57 1.2,-12.75 1.57,-19.13 1.56,-26.72 25.62,-54.17 28.18,-73.28 0.27,-1.97 13.61,6.45 21.49,5.64 1.26,-0.13 1.33,12.67 1.74,20.54 0.78,15.05 8.62,25.18 9.42,21.45 1.81,-8.45 6.7,-24.93 7.05,-35.06 0,-0.05 4.67,-15.77 5.67,-10.67 0.79,4.03 1.89,9.87 1.77,16.19 -0.19,9.71 -0.6,17.51 -1.73,27.14 -0.42,3.55 -0.61,10.28 2.48,2.1 1.57,-4.16 5.04,-9.7 7.05,-15.16 1.13,-3.04 4.6,-12.07 7.37,-13.38 0.5,-0.23 5.47,-17.14 9.33,-21.21 2.56,-2.71 4.79,-15.43 5.22,-19.63 0.98,-9.79 -0.44,-15.65 4.73,-23.93 6.44,-10.31 0.2,-34.51 5.08,-45.34 2.11,-4.7 4.19,-16.09 3.48,-21.64 -1.5,-11.73 2.98,-15.71 4.41,-26.18 0.68,-5.02 0.51,-9.47 -4.19,-12.38 -1.1,-0.68 -21.19,11.57 -19.52,13.88z"/>
   <path class="fil4 str8" d="M903.17 143.87c-0.16,0.73 -3.61,4.12 -3.45,10.57 0.37,16.28 -16.41,15.71 -8.98,35.95 1.8,4.88 0.92,2.91 -2.63,6.33 -0.73,0.7 -5.63,8.59 -4.51,10.88 3.54,7.22 7.67,8.92 7.15,15.69 -0.52,6.64 1.09,15.16 0.38,22.9 -0.93,10.13 6.77,5.37 6.39,14.95 -0.16,4.2 -10.83,9 -4.67,18.64 10.39,16.24 9.06,15.8 11.66,15.96 5.53,0.36 14.24,-3.91 18.91,-17.16 4.78,-13.51 -0.07,-12.31 -0.08,-17.2 -0.02,-7.73 6.65,-8 8.13,-11.72 3.55,-8.89 6.11,-33.54 9.03,-37.08 1.8,-2.17 3.94,-6.87 5.87,-9.44 1.65,-2.18 -6.98,-5.73 -6.82,-8.13 0.72,-10.91 6.1,-18.9 -6.24,-26.33 -5.84,-3.52 -9.43,-11.04 -10.65,-17.69 -0.42,-2.25 -2.76,-7.23 -5.44,-8.64 -1.88,-5.19 -12.39,-6.38 -14.05,1.52z"/>
   <path class="fil2" d="M914.51 139.25c-0.43,-1.8 -2.78,-4.74 -4.44,-4.84 -2.61,-0.16 -5.11,4.56 -4.53,4.65 3.06,0.44 2.15,-0.69 3.79,3.6 0.35,0.93 0.28,0.92 0.75,-0.16 2.45,-5.59 0.43,-2.87 4.34,-2.8 0.26,0.01 0.15,-0.18 0.09,-0.45z"/>
   <path class="fil2" d="M907.5 143.73c-0.54,0.41 0.44,7.26 -1.32,8.38 -6.4,4.06 -7.88,27.77 -2,37.44 2.78,4.56 8.65,2.91 12.73,2.56 10.12,-0.86 8.51,-30.45 2.19,-36.82 -0.46,-0.47 -4.17,-2.79 -4.85,-5.43 -0.01,-0.04 -1.99,-6.04 -2.51,-6.34 -0.58,-0.33 -2.72,-0.95 -4.24,0.21z"/>
   <path class="fil4" d="M905.41 162.29c-0.57,0.6 -0.31,2.01 -0.85,3.25 -0.47,1.08 0.94,0.88 0.62,2.29 -0.19,0.85 1.07,0.71 1.04,-0.95 -0.01,-0.55 0.98,-1.55 0.4,-2.41 -0.55,-0.8 1.38,-1.58 0.44,-2.96 -0.3,-0.43 0.42,-3.35 0.4,-4.04 0.07,-3.23 -2.03,4.79 -2.05,4.82z"/>
   <path class="fil4" d="M918.78 161.05c0.66,0.5 0.64,1.94 1.37,3.07 0.64,0.99 -0.78,1.02 -0.23,2.36 0.32,0.81 -0.94,0.87 -1.18,-0.77 -0.08,-0.55 -1.23,-1.37 -0.79,-2.31 0.4,-0.88 -1.62,-1.33 -0.92,-2.85 0.22,-0.47 -0.96,-3.23 -1.07,-3.92 -0.59,-3.18 2.8,4.39 2.82,4.42z"/>
   <path class="fil4" d="M916.85 190.23c0.15,-0.29 -0.09,-3.68 0.78,-2.21 1.21,2.05 0.39,0.27 1.34,-0.81 0.28,-0.31 0.85,2 1.19,0.5 0.08,-0.37 0.4,-1.76 0.75,-1.71 0.7,0.1 0.25,-1.23 0.95,-1.56 0.19,-0.09 -0.3,-2.05 0.19,-2.71 0.14,-0.19 -0.33,-1.52 0.59,-1.5 -0.01,0.03 0.16,1.15 0.13,1.57 -0.04,0.82 0.02,0.72 -0.12,1.65 -0.27,1.9 -0.23,1.35 -0.93,3.07 -0.77,1.87 -0.28,0.82 -1.4,2.27 -0.78,1.01 -1.92,1.68 -3.19,1.49 -0.1,-0.02 -0.29,-0.03 -0.28,-0.05z"/>
   <path class="fil5" d="M918.26 185.35c-1.05,-0.04 -2.71,3.78 -3.29,4.56 -0.95,1.27 -3.88,0.79 -5.43,0.94 -0.57,0.06 -1.98,-0.09 -2.07,-0.76 -0.19,-1.33 -1.32,-2.29 -1.44,-4.42 -0.1,-1.69 -0.5,-4.18 -0.39,-5.94 0.06,-0.99 -0.59,-4.27 0.76,-4.52 2.07,-0.38 2.27,0.26 3.17,1.82 0.8,1.39 1.27,6.85 2.41,7.01 1.24,0.18 0.78,-0.81 1.63,-0.93 1.44,-0.22 3.19,0.46 4.47,0.93 0.3,0.11 0.31,0.18 0.66,0.31 0.11,0.33 0.87,1.5 0.14,1.91 -0.2,-0.09 -0.43,-0.9 -0.62,-0.91z"/>
   <path class="fil2" d="M916.25 369.73c0.25,3.45 2.15,9.25 3.91,11.38 0.75,0.91 2.62,1.89 3.9,2.19 3.49,0.81 5.32,6.35 3.74,8.12 -0.65,0.72 -1,0.4 -4.34,-0.69 -0.3,-0.1 -0.09,1.75 -2.38,1.89 -4.02,0.23 -2.92,-3.78 -4.07,-1.02 -2.06,4.91 -9.98,3.22 -10.81,-5.2 -0.18,-1.91 0.8,-5.86 0.57,-7.61 -1.16,-8.61 -4.29,-32.84 -2.18,-36.08 1.21,-1.85 4.36,-10.32 5.32,-12.75 1.72,-4.37 4.65,-8.76 7.08,-12.92 5.32,-9.12 5.68,-12.05 6.19,-10.05 1.51,5.86 -8.82,36.53 -6.93,62.74z"/>
   <path class="fil2" d="M891.15 330.92c0.55,14.35 -1.7,23.56 -3.05,37.51 -0.53,5.57 -1.27,9.29 -1.38,15.13 -0.16,7.77 0.48,7.1 3.27,13.52 1.07,2.47 2.28,4.71 0.44,7.52 -0.27,0.41 -4.92,1.23 -6.04,-0.13 -0.78,-0.94 -1.64,-0.23 -2.54,0.62 -2.33,2.2 -6.01,2.57 -6.7,-1.2 -0.11,-0.59 -2.13,1.83 -4.88,0.58 -6.18,-2.82 1.07,-8.37 1.37,-9.71 0.85,-0.07 3.68,-19.31 3.96,-20.7 1.75,-8.54 5.64,-40.15 6,-48.83 0.66,-15.68 1.27,-16.74 3.97,-11.09 1.78,3.72 5.36,10.95 5.58,16.78z"/>
   <path class="fil2" d="M831.42 381.18c0.11,1.75 2.57,10.24 4.44,10.13 2.68,-0.17 7.6,2.02 8.19,5.17 0.58,3.18 -2.12,4.42 -4.38,3.02 -0.01,-0.01 -0.35,1.94 -2.11,3.34 -1.91,1.53 -5.32,2.38 -7.41,-1.25 -0.17,-0.07 -1.17,2.35 -2.36,2.53 -6.48,1.02 -5.38,-2.78 -6.48,-8.72 -0.39,-2.13 -1.91,-4.94 -2.2,-7.75 -0.26,-2.5 -0.15,-2.87 0.19,-5.25 0.24,-1.68 1.21,-10.71 1.61,-11.3 -0.49,-1.08 2.56,-11.25 3.06,-12.92 0.74,-2.42 5.61,-14.71 6.94,-15.85 0.34,-0.29 2.96,-4.88 4.55,-6.15 0.25,-0.2 4.6,-6.77 4.64,-5.42 0.03,0.94 2.16,0.99 0.91,6.62 -0.05,0.24 -2.07,3.94 -3.11,6.1 -3.44,7.13 -7,29.14 -6.48,37.7z"/>
   <path class="fil4" d="M732.51 348.42c-7.64,3.3 -32.1,10.26 -31.24,4.56 1.76,-11.69 14.55,-21.69 22.54,-29.4 6.16,-5.95 8.07,-0.8 1.19,6.98 -1.25,1.41 9.58,-0.42 4.97,5.26 -2.68,3.31 2.34,-0.33 2.07,7.11 -0.05,1.14 6.29,2.97 0.47,5.49z"/>
   <path class="fil2" d="M842.45 348.88c-2.46,4.15 -4.17,6.58 -4.27,11.57 -0.07,3.67 6.28,13 11.34,21.28 0.69,1.14 2.12,7.41 4.63,10.02 1.96,2.02 5.72,4.86 8.75,4.57 3.03,-0.28 1.67,-3.25 2.54,-2.77 3.4,1.89 5.54,-0.02 4.26,-2.78 1.5,0.03 3.32,-0.29 3.22,-2.11 -0.22,-3.81 -1.17,-4.04 -3.69,-5.18 -4.28,-1.93 -9.5,-8.95 -10.99,-13 -3.3,-8.93 -4.64,-10.76 0.08,-17.03 5.92,-7.88 15.69,-22.12 16.52,-26.52 0.29,-1.51 -3.31,0.09 -5.62,1.84 -22.7,17.26 -24.62,16.48 -26.77,20.11z"/>
   <path class="fil4" d="M890.61 166.81c-1.59,1.34 -1.59,2.57 -2.49,0.19 -1.22,-3.22 -3.73,-11.05 -2.33,-11.65 1.92,-0.82 5.01,2.96 6.12,3.51 3.06,1.51 0.67,6.29 -1.3,7.95z"/>
   <path class="fil4" d="M947.53 157c-0.51,4.6 -0.16,12.48 -4.97,12.08 -2.58,-0.21 -7.36,-4.83 -6.13,-7.49 1.2,-2.59 4.86,-5.24 7.17,-6.6 2.05,-1.22 4.31,-1.47 3.93,2.01z"/>
  </g>
  <g id="_2824349752976">
   <path class="fil2" d="M1027.06 1231.77c-2.02,0.92 -23.76,14.57 -14.38,24.41 2.49,2.62 18.68,14.1 18.76,14.76 0.75,5.61 4.13,14.54 -4.61,15.11 -5.7,0.37 -35.67,-28.52 -35.95,-41.16 -0.23,-10.48 20.33,-16.52 15.89,-28.64 -0.32,-0.85 20.87,16.48 20.29,15.52z"/>
   <path class="fil4 str9" d="M983.81 1078.7c-0.05,-1.18 18.17,-33.49 27.62,-23.14 6.27,6.87 11.2,26.67 0.15,47.82 -8.3,15.88 -3.89,-18.89 -17.11,-20.84 -3.57,-0.52 -10.59,-0.85 -10.66,-3.84z"/>
   <path class="fil4 str10" d="M968.33 1080.09c0.05,-1.18 -18.17,-33.49 -27.62,-23.14 -6.26,6.86 -11.19,26.67 -0.14,47.82 8.29,15.88 3.88,-18.9 17.11,-20.84 3.57,-0.52 10.58,-0.85 10.65,-3.84z"/>
   <path class="fil4 str11" d="M949.42 1149.49c9.27,46.14 27.89,59.95 59.62,79.36 50.12,30.67 -5.89,-27.08 -6.49,-29.75 -2.24,-9.84 -5.34,-19.78 -3.39,-30.55 1.57,-8.77 3.53,-14.31 7.74,-21.8 0.95,-1.7 6.05,-14.71 6.47,-14.8 1.22,-6.69 6.31,-15.12 -8.38,-9.56 -7.23,2.75 -25.46,10.6 -32.53,8.35 -4.49,-1.43 -9.28,-1.08 -14.4,-4.27 -5.37,-3.33 -3.3,-5.25 -7.91,-2.39 -5.11,3.18 -1.8,20.09 -0.73,25.41z"/>
   <path class="fil1 str12" d="M1184.71 1169.46c119.05,74.52 104.32,71.01 168.8,90.06 35.23,10.41 56.78,36.08 56.71,37.08 -2.09,33.41 -130.23,9.88 -194.94,-75.58 -10.36,-13.67 -30.96,-45.61 -30.57,-51.56z"/>
   <path class="fil4" d="M1370.63 1269.55c11.02,5.44 42.24,26.34 35.01,30.82 -14.86,9.19 -38.34,4.35 -54.67,2.72 -12.58,-1.26 -8.6,-8.33 6.73,-8.01 2.78,0.05 -9.63,-10.39 1.17,-10.63 6.29,-0.14 -2.61,-2.33 6.03,-9.12 1.33,-1.05 -2.67,-9.93 5.73,-5.78z"/>
   <path class="fil1 str13" d="M1169.16 1241.94c-16.06,14.77 4.98,54.32 2.95,57.65 -7.26,11.95 -20.77,21.42 -22.69,35.25 -0.3,2.12 -3.98,5.34 -7.04,6.12 -3.47,0.88 -11.48,3.25 -10.71,-2.58 0.2,-1.53 1.14,-1.06 -3.85,0.51 -3.59,1.13 -5.82,-3.53 -3.77,-5.21 1.78,-1.46 -6.46,-4.54 5.7,-7.28 3.39,-0.77 18.28,-19.23 18.71,-22.89 2.28,-19.38 -5.44,-18.85 -11.41,-33.29 -3.68,-8.91 -6.25,-24.96 -12.01,-34.59 -3.01,-5.03 34.08,-2.22 44.12,6.31z"/>
   <path class="fil1 str13" d="M992.65 1211.65c-6.7,-12.82 -9.98,-26.61 -8.96,-39.9 0.77,-10.03 3.67,-20.41 11,-27.56 3.25,-3.17 13.01,-17.04 13.07,-21.33 0.01,-0.05 4.58,-7.85 7.26,-7.19 2.91,41.86 70.53,41.6 94.1,41.08 17.86,-0.4 43.05,-8.33 59.76,-2.63 50.56,17.25 35.25,33.63 53.45,59.4 5.56,7.87 12.54,34.85 15.47,45.13 4.83,16.93 1.72,11.87 13.19,22.9 13.96,13.42 12.66,11.85 17.13,25.78 0.66,2.08 1.03,30.32 -1.02,31.82 -2.25,1.65 -15.39,5.44 -15.69,1.79 -0.41,-5.11 -1.21,-0.42 -3.99,0.67 -3.29,1.29 -4.27,-0.66 -4.53,-2.21 -0.39,-2.3 0.88,-4.41 0.86,-4.58 -1.47,-0.08 -5.77,0.65 -4.78,-3.25 1.37,-5.39 7.74,3.12 9.67,-16.22 1.3,-12.94 -9.41,-26.82 -22.88,-30.58 -33.98,-9.48 -44.39,-42 -61.83,-40.42 -11.29,0.83 -104.52,-18.83 -110.96,-5.88 -6.82,13.71 -1.98,22.78 -15.02,42.09 -4.7,6.97 -6.63,24.83 -13.97,35.65 -0.73,1.07 -1.35,4.81 -4.29,6.73 -1.68,1.11 -5.69,6.39 -9.3,6.28 -2.78,-0.09 -2.1,-2.87 -3.47,-2.64 -2.25,0.38 -4.04,0.58 -5.08,-0.25 -2.61,-2.05 1.79,-4.41 -2.79,-3.42 -2.46,0.53 -3.61,-1.79 -3.48,-2.99 0.43,-3.93 9.18,-6.22 12.56,-7.15 3.25,-0.87 4.96,-1.65 6.45,-6.28 3.57,-11.12 5.61,-22.83 6.89,-34.71 6.01,-55.62 -12.55,-29 -28.82,-60.13z"/>
   <path class="fil1" d="M938.97 1116.23c0.9,10.5 5.63,13.59 13.96,15.53 8.16,1.9 11.34,-3.03 15.75,9.94 3.21,9.46 -0.03,12.09 10.69,11.85 5.13,-0.11 8.91,-0.89 10.05,-7.56 3.11,-18.18 10.96,-13.61 23.12,-21.46 8.36,-5.4 -0.39,-25.42 -5.28,-32.55 -14.73,-21.46 -19.63,-16.43 -38.73,-16.02 -19,0.41 -30.87,25.07 -29.56,40.27z"/>
   <path class="fil2" d="M967.12 1125.74c0.91,-2.55 1,-6.76 -1.13,-8.49 -2.12,-1.74 -7.84,-2.44 -10.84,-1.76 -1.26,0.28 -5.22,1.57 -1.63,2.22 3.58,0.65 12.59,9.1 13.6,8.03z"/>
   <path class="fil2" d="M987.2 1119.37c1.86,-5.61 12.29,-6.32 15.34,-4.25 0.69,0.47 4.08,0.34 1.61,1.62 -3.94,2.05 -12.73,3.78 -15.19,7.49 -4.49,6.76 -2.67,-2.09 -1.76,-4.86z"/>
   <path class="fil2" d="M972.52 1152.67c0.81,3.59 7,8.77 12.03,4.38 3.47,-3.02 5.5,-8.17 -0.88,-9.32 -3.87,-0.69 -12.34,-0.34 -11.15,4.94z"/>
   <path class="fil1" d="M961.09 1116.2c-1.62,0.39 -3.26,2.57 -1.67,4.7 1.59,2.14 5.79,2.15 6.6,-0.6 0.9,-3.1 -2.95,-4.57 -4.93,-4.1z"/>
   <path class="fil2" d="M962.11 1117.82c-0.86,0.23 -1.36,1.1 -0.71,1.83 0.52,0.59 1.65,0.72 2.05,-0.21 0.51,-1.18 -0.56,-1.83 -1.34,-1.62z"/>
   <ellipse class="fil4" transform="matrix(1.50394 -0.0910726 0.0919909 1.33886 960.458 1117.7)" rx="0.65" ry="0.74"/>
   <path class="fil1" d="M991.51 1115.3c-1.5,0.36 -3.02,2.39 -1.55,4.36 1.48,1.98 5.36,1.99 6.11,-0.56 0.84,-2.87 -2.72,-4.23 -4.56,-3.8z"/>
   <path class="fil2" d="M992.28 1117.11c-0.8,0.22 -1.26,1.02 -0.66,1.7 0.48,0.55 1.53,0.66 1.9,-0.2 0.47,-1.09 -0.52,-1.69 -1.24,-1.5z"/>
   <ellipse class="fil4" transform="matrix(1.39257 -0.0843283 0.0851786 1.23972 990.786 1117.38)" rx="0.65" ry="0.74"/>
   <path class="fil2 str14" d="M1165.87 1290.89c5.21,3 6.1,6.81 5.26,8.21 -7.2,11.98 -20.78,21.42 -22.7,35.25 -0.3,2.12 -3.98,5.34 -7.04,6.12 -3.46,0.88 -11.47,3.25 -10.71,-2.58 0.2,-1.53 1.14,-1.06 -3.85,0.51 -3.59,1.13 -5.82,-3.53 -3.76,-5.21 1.77,-1.46 -6.47,-4.54 5.69,-7.28 3.39,-0.77 19.76,-19.24 20.19,-22.89 1.15,-9.8 -7.35,-22.84 -10.96,-32.73 -2.09,-5.76 -3.19,-11.47 -2.46,-9.86 5.21,11.48 19.77,24.38 30.34,30.46z"/>
   <path class="fil2 str15" d="M1203.97 1272.63c-10.14,-5.97 -5.9,-5.97 3.18,-3.34 17.54,5.08 33.15,0.93 33.37,1.34 6.99,13.21 14.96,13.75 17.19,14.18 10.74,2.06 5.33,9.58 9.79,23.51 0.66,2.07 0.66,28.35 -1.39,29.84 -2.24,1.64 -13.42,6.92 -13.71,3.27 -0.41,-5.11 -1.21,-0.41 -4,0.67 -3.29,1.29 -4.26,-0.65 -4.52,-2.21 -0.39,-2.3 0.88,-4.41 0.86,-4.58 -1.48,-0.08 -5.77,0.65 -4.78,-3.24 1.37,-5.39 9.03,3.31 9.67,-16.11 0.78,-23.64 -22.2,-29.51 -45.66,-43.33z"/>
   <path class="fil2 str16" d="M1025.34 1252.94c1.43,12.49 10.9,27.83 10.52,28.67 -3.43,7.66 -9.21,35.13 -16.41,39.85 -1.69,1.11 -4.96,7.38 -8.57,7.27 -2.78,-0.09 -2.1,-2.87 -3.47,-2.65 -2.25,0.38 -4.04,0.59 -5.08,-0.24 -2.6,-2.06 1.79,-4.41 -2.79,-3.42 -2.46,0.53 -3.61,-1.79 -3.47,-2.99 0.43,-3.93 9.17,-6.23 12.56,-7.15 3.24,-0.88 4.64,-1.68 6.19,-6.29 3.75,-11.12 4.78,-25.4 8.7,-54.23 0.46,-3.43 1.3,-3.29 1.82,1.18z"/>
  </g>
  <g id="_2824349765024">
   <path class="fil1" d="M472.01 371.35c-10.47,2.25 -14.92,4.05 -25.82,10.13 -7.18,4 0.16,19.46 5.59,24.27 19.14,16.98 18.34,9.93 39.39,29.31 3.65,3.37 -12.83,6.07 -18.36,5.74 -11.49,-0.7 -32.79,-9.6 -44.77,-16.96 -21.05,-12.93 -41.66,-53.89 0.65,-67.43 5.84,-1.87 24.93,0.8 30.91,2.97 21.43,7.74 12.63,8.45 12.41,11.97z"/>
   <path class="fil4" d="M468.43 420.69c5.93,3.11 23.41,14.78 19.51,16.08 -8.02,2.67 -19.43,1.1 -30.64,-2.22 -6.65,-1.97 -6.09,-5.33 2.17,-4.01 1.5,0.24 -5.17,-5.06 0.66,-4.33 3.39,0.43 -1.41,-1.16 3.26,-3.32 0.72,-0.33 0.53,-4.56 5.04,-2.2z"/>
   <path class="fil2" d="M540.73 371.37c6.29,-0.49 5.55,2.69 7.94,6.05 1.26,1.77 -4.15,5.98 -7.86,4.7 -0.63,-2.97 -1.7,3.54 -5.62,0.2 -0.38,-0.33 -14.87,-0.5 -17.21,-0.94 -3.06,-0.57 -5.08,-0.13 -8.23,-1.76 -3.53,-1.82 -3.87,0.39 -2.52,-6.21 0.23,-1.11 5.97,-9.02 6.88,-8.67 2.11,0.83 5.01,3.01 6.59,4.73 6.17,6.76 11.16,2.59 20.03,1.9z"/>
   <path class="fil1 str17" d="M484.13 183.53c-5.36,4.63 -11.12,13.42 -7.19,22.97 3.66,8.91 -16.08,50.06 -14.86,70.72 1.3,22.05 -37.9,40.95 -23.05,76.92 3,7.27 11.44,18.8 12.46,24.85 0.27,1.58 4.77,4.08 9.5,4.95 25.31,4.66 21.22,-32.41 18.32,-46.37 -0.88,-4.21 -2.79,-10.29 -5.1,-18.19 -5.18,-17.72 3.86,9.19 4.62,12.36 1.98,8.26 3.59,17.14 4.77,27.82 1.32,11.9 14.27,7.79 8.9,-18.67 -0.47,-2.28 -0.05,-27.1 -0.05,-30.19 0,-8.55 18.38,3.24 18.47,3.96 0.58,4.74 3.67,21.38 3.45,26.54 -0.52,12.49 5.79,11.4 7.26,11.52 1.23,0.1 2.58,3.26 4.89,-2.21 0.03,-0.07 0.04,-11.82 0,-15.12 0,-0.11 -0.23,-25.19 0.57,-16.18 0.68,7.73 0.97,26.14 1.04,30.35 0.12,7.08 -1.4,28.74 9,20.01 21.31,-17.88 13.91,-40.97 2.05,-59.64 -5.75,-9.06 -0.04,-34.29 2.11,-44.81 1.34,-6.58 0.81,-29.32 -0.53,-35.88 -1.16,-5.7 -0.76,-9.03 0.31,-14.26 0.59,-2.9 3.09,-25.8 1.21,-27.4 -19.74,-16.81 -36.69,-22.59 -58.15,-4.05z"/>
   <path class="fil2" d="M464.92 388.97c-4.06,-7.42 2.69,-12.82 5.67,-9.6 0.36,0.39 1.04,1.41 1.61,1.62 0,0.03 -1.4,-5.46 2.29,-7.03 2.4,-1.03 2.49,2 5.25,0.53 3.19,-1.69 3.01,10.39 -3.5,12.62 -6.47,2.22 -9.11,5.91 -11.32,1.86z"/>
   <path class="fil4 str18" d="M480.77 196.01c-2.98,3.3 -6.09,11.12 1.22,17.72 18.24,16.49 2.2,12.66 -6.04,24.73 -1.59,2.33 -10.02,23.99 7.5,51.56 10.79,16.99 9.56,64.78 10.59,70 1.28,6.51 -0.94,13.59 -0.34,18.37 0.09,0.75 11.75,0.72 12.84,-1.41 3.93,-7.72 10.14,-7.98 10.14,-20.02 0,-10.98 -0.87,-25.86 -2.32,-36.25 -0.85,-6.13 -1.12,-16.75 4.83,-22.49 13.65,-13.17 31.21,-53 10.8,-66.46 -5.25,-3.46 10.53,-18.1 11.41,-23.93 0.98,-6.43 -2.15,-7.46 -4.73,-9.32 -7.46,-5.37 -28.84,-5.75 -37.78,-3.4 -2.05,0.54 -4.21,0.86 -5.81,2.13 -3.96,3.13 -5.85,-8.41 -12.31,-1.23z"/>
   <path class="fil3 str18" d="M490.01 206.8c-0.7,-0.18 -6.24,-3.38 -7.77,-5.59 -8.98,-12.99 14.59,-16.43 26.32,-16.21 14.4,0.28 31.36,3.23 28.13,13.63 -1,3.2 -3.34,8.34 -8.64,11.31 -4.7,2.62 -8.4,11.35 -9.55,11.42 -3.9,0.22 -12.54,-1.1 -18.32,-1.49 -3.33,-0.23 -5.59,-11.89 -10.17,-13.07z"/>
   <path class="fil3 str19" d="M519.12 222.28c-2.56,0.28 -15.36,-4.36 -16.21,-0.37 -0.5,2.37 2,5.81 7.04,6.37 6.53,0.71 9.34,-6.02 9.17,-6z"/>
   <path class="fil4 str20" d="M499.88 220.58c3.27,3.28 13.54,3.72 17.79,2.84 4.34,-0.89 5.48,-5.29 4.57,-9.04 -0.65,-2.7 -2.98,-7.31 -3.62,-7.74 -4.78,-3.17 -2.47,-3.69 -8.87,-3.69 -10.09,0 -14.77,12.72 -9.87,17.63z"/>
   <path class="fil1" d="M475.71 171.21c-1.58,-1.15 -6.02,-4.3 -6.79,-6.21 -1.65,-4.1 -3.99,-10.75 -5.15,-20.21 -0.25,-2 1.66,-7.13 3.82,-7.13 5.69,0 15.54,7.07 20.5,10.68 3.44,2.52 4.94,7.77 11.55,7.68 5.54,-0.08 25.31,3.11 28.72,-2.78 1.4,-2.44 21.24,-22.97 25.35,-16.93 2.77,4.06 3.54,8.45 1.59,13.17 -0.9,2.17 -2.56,7.18 -2.95,9.18 -0.09,3.2 -1.69,8.51 -3.78,9.54 -0.4,0.21 -4.92,5.1 -4.92,7.23 0,12.03 1.14,24.52 -14.07,26.56 -5.03,0.67 -5.92,0.71 -8.9,5.27 -3,4.56 -3.29,4.91 -7.04,7.59 -1.59,1.14 -5.6,0.84 -6.9,-0.39 -4.87,-4.66 -10.62,-13.28 -16.04,-13.28 -4.36,0 -8.44,-1.96 -11.39,-5.68 -4.4,-5.54 -4.19,-10.65 -4.19,-17.56 0,-1 0.6,-6.72 0.59,-6.73z"/>
   <path class="fil4" d="M480.62 151.9c-1.14,-1.29 -9.08,-13.88 -11.53,-10.16 -1.34,2.02 -0.76,4.53 0.61,9.71 0.58,2.17 4.54,7.97 4.95,10.26 0.5,2.73 1.48,5.23 4.26,3.78 6.71,-3.48 7.26,-7.27 1.71,-13.59z"/>
   <path class="fil4" d="M545.24 146.21c3.29,-3.02 8.68,-10.46 7.27,1.23 -0.35,2.95 -1.26,6.53 -3.62,8.54 -4.26,3.63 -0.32,7.48 -9.98,5.51 -3.92,-0.8 4.57,-13.66 6.33,-15.28z"/>
   <path class="fil2" d="M504.43 214.52c0.31,3.15 4.7,4.14 5.32,8.11 0.33,2.14 0.95,0.36 0.94,-0.34 -0.04,-1.25 1.64,-3.94 5.34,-5.17 1.38,-0.47 1.21,-2.28 0.82,-3.63 -1.39,-4.88 -13,-5.01 -12.42,1.03z"/>
   <path class="fil2" d="M491.56 188.8c2.9,0.06 6.21,0.16 8.31,-0.7 1.84,-0.75 2.24,5.51 1.88,5.74 -5.05,3.18 -8.71,0.03 -11.71,-3.89 -1.6,-2.1 -1.05,-1.2 1.52,-1.15z"/>
   <path class="fil2" d="M527.88 189.17c-2.9,0.05 -6.21,0.16 -8.31,-0.7 -1.84,-0.75 -2.24,5.5 -1.88,5.73 5.04,3.18 8.71,0.03 11.71,-3.89 1.6,-2.09 1.04,-1.19 -1.52,-1.14z"/>
   <g>
    <path class="fil1" d="M499.27 192.89c1.29,-0.81 1.31,-3.11 0.27,-3.54 -2.35,-0.97 -5.01,0.53 -5.25,1.88 -0.53,3.01 3.54,2.57 4.98,1.66z"/>
    <path class="fil2" d="M495.87 191.07c-0.28,0.76 0.32,1.39 1.05,1.43 0.69,0.04 1.59,-0.55 1.25,-1.35 -0.18,-0.44 -0.6,-0.67 -0.96,-0.73 -0.52,-0.09 -1.22,0.34 -1.34,0.65z"/>
    <path class="fil4" d="M496.51 189.66c-1.04,0.81 0.78,1.34 0.94,0.7 0.1,-0.37 -0.34,-1.17 -0.94,-0.7z"/>
   </g>
   <g>
    <path class="fil1" d="M523.4 193.22c1.29,-0.81 1.31,-3.11 0.27,-3.54 -2.35,-0.97 -5,0.53 -5.24,1.88 -0.54,3.01 3.53,2.57 4.97,1.66z"/>
    <path class="fil2" d="M520.01 191.4c-0.28,0.76 0.31,1.39 1.04,1.44 0.69,0.03 1.59,-0.56 1.25,-1.36 -0.18,-0.44 -0.6,-0.67 -0.96,-0.73 -0.52,-0.09 -1.21,0.34 -1.33,0.65z"/>
    <path class="fil4" d="M520.64 189.99c-1.04,0.81 0.78,1.34 0.94,0.7 0.1,-0.37 -0.33,-1.17 -0.94,-0.7z"/>
   </g>
   <path class="fil2" d="M480.71 340.49c0.99,-2.73 7.99,-4.72 10.37,-16.7 1.48,-7.49 3.13,21.37 3.44,23.9 0.81,6.64 1,22.71 0.91,29.78 -0.12,10.66 5.63,11.44 5.61,18.7 -0.02,4.42 -3.61,4.8 -6.06,3.27 -0.88,-0.55 -2.44,-2.45 -3.48,-0.35 -0.93,1.89 -2.42,1.84 -3.66,1.86 -2.84,0.02 -4.13,-5.35 -7.29,-1.36 -1.59,1.99 -10.08,-1.5 -5.63,-7.54 1.97,-2.67 5.23,-5.25 6.39,-8.57 3.02,-8.71 -0.76,-42.53 -0.6,-42.99z"/>
   <path class="fil2" d="M526.03 338.14c-1.3,-2.59 -6.78,-3.35 -10.54,-14.97 -2.35,-7.26 -0.83,21.61 -0.62,24.14 2.49,28.72 -0.91,46.61 -0.84,48.84 0.15,4.42 4.94,4.87 6.79,2.48 0.64,-0.82 1.71,-2.61 2.56,-0.43 0.75,1.92 2.58,3.41 4.73,3.72 2.67,0.38 5.16,-0.91 4.52,-2.83 -1.31,-3.94 1.03,-4.27 2.88,-2.15 1.67,1.92 5.95,-2.52 0.47,-8.48 -12.22,-13.28 -7.04,-44.48 -9.95,-50.32z"/>
  </g>
  <g id="_2824349710352">
   <path class="fil4 str21" d="M1174.19 692.63c-1.97,7.19 -13.68,20.69 -14.14,22.93 -1.33,6.56 3.2,4.37 2.56,9.6 0.22,2.54 -22.82,6.92 -29.53,-0.01 -4.42,-4.56 -25.21,-8.43 -24.65,-15.25 0.27,-3.3 -15.24,-22.02 -7.23,-28.85 12.99,-11.08 40.12,-3.86 42.22,-5.41 9.76,-7.18 39.25,-13.93 30.77,16.99z"/>
   <path class="fil1 str22" d="M1158.9 621.23c-15.04,-7.64 -24.5,-8.58 -41.27,-5.64 -40.11,7.02 -74.55,38.32 -88.47,75.88 -8.13,21.94 -4.46,68.64 16.77,82.87 8.95,6 51.58,14.45 61.77,9.81 22.5,-10.25 24.73,3.4 38.65,5.42 149.36,21.63 149.21,-15.82 210.74,-7.88 8.92,1.15 34.17,-5.04 29,-9.45 -26.3,-22.38 -48.84,-28.37 -85.52,-28.37 -22.49,0 -55.89,0.47 -77.15,-1.86 -16.02,-1.75 -31.17,-7.41 -48.48,-10.24 -13.56,-2.22 -25.79,3.17 -35.97,11.04 -7.7,5.95 -18.49,13.59 -18.41,11.84 0.04,-1.14 11.21,-7.54 17.68,-13.27 3.8,-3.37 15,-9.5 22.21,-10.76 0.05,-0.01 13.34,-0.92 10.92,-2.02 -4.09,-1.86 -11.64,-12.87 -33.78,-21.91 -16.18,-6.61 -24.96,-3.22 -30.45,-10.02 -8.9,-11.02 -3.27,-18.42 -3.76,-19.85 -3.04,-0.63 39.87,0.17 39.87,-4.31 0,-15.51 21.64,-43.72 15.65,-51.28z"/>
   <path class="fil4 str21" d="M1133.63 699.98c-1.17,-0.07 -5.73,-2.82 -11.28,-5.73 -4.84,-2.53 -14.49,-0.2 -19.65,-4.99 -1.82,-1.7 -4.72,-6.81 -4.03,-9.11 4.64,-15.4 28.18,0.45 43.09,-0.73 7.15,-0.56 36.09,-3.44 41.72,3.32 0.6,0.73 0.7,3.25 -1.18,3.25 -14.45,0 -17.17,1.87 -27.39,12 -3.72,3.68 -9.82,2.05 -13.63,1.61 -2.01,-0.24 -6.94,0.35 -7.65,0.38z"/>
   <path class="fil1 str23" d="M1097.06 680.84c1.56,2.36 5.08,4.98 9.68,0.88 4.95,-4.41 6.75,-5.69 14.78,-3.06 2.91,0.96 5.56,2.59 5.94,11.35 0.1,2.47 6.13,5.92 7.53,3.32 1.21,-2.26 7.4,-2.86 10.16,0.66 0.94,1.2 2.25,-4.79 6.46,-1.32 2.21,1.82 2.8,-2.58 4.2,-5.65 1.9,-4.16 3.16,-8.15 6.5,-8.36 4.88,-0.32 9.99,2.8 13.59,5.38 14.15,10.16 19.99,-20.85 8.54,-31.81 -3.81,-3.66 -5.17,-2.42 -1.39,-11.26 1.97,-4.6 0.77,-12.55 0.3,-17.43 -0.18,-1.84 -2.97,-13.71 -6.08,-15.51 -2.64,-1.53 -25.24,7.01 -28.15,24.3 -0.51,2.98 -9.89,-0.33 -14.68,1.64 -2.71,1.11 -1.85,-2.6 -2.96,-6.87 -1.73,-6.73 -27.57,-26.34 -29.87,-16.35 -1.73,7.52 -2.82,10.52 -1.83,17.64 1.26,9.1 -0.53,11.12 4.53,19.67 2.36,3.98 0.51,4.24 -2.15,6.3 -6.06,4.68 -11.11,17.42 -5.1,26.48z"/>
   <path class="fil4 str24" d="M1133.49 701.6c0.44,0.47 1.69,2.65 2.06,3.3 0.88,1.54 7.36,2.34 10.63,0.91 2.15,-0.94 3.85,-5.43 3.18,-5.43 -1.35,0 -4.1,-2.52 -4.05,-1.13 0.06,1.5 -1.84,-0.74 -3.01,-0.56 -1.02,0.16 -4.35,2.08 -4.93,0.95 -2.11,-4.11 -4.96,1.59 -3.88,1.96z"/>
   <path class="fil4 str21" d="M1128.62 695.39c0.91,5.58 4.67,7.23 8.92,7.23 2.63,0 1.86,-2.14 2.29,-1.96 0.14,0.06 0.49,1.33 1.18,1.6 2.92,1.16 8.28,-1.33 9.73,-2.59 5.71,-4.97 -0.58,-14.3 -10.94,-13.7 -6.55,0.38 -12.02,4.2 -11.18,9.42z"/>
   <path class="fil2" d="M1139.85 700.15c-0.85,0.05 -5.14,-3.11 -5.39,-3.32 -1.1,-0.93 -1.87,-1.69 -1.32,-3.16 1.71,-4.54 10.89,-4 13.15,-0.37 1.66,2.66 -6.44,6.85 -6.44,6.85z"/>
   <path class="fil2" d="M1132.85 674.05c-0.27,-0.94 -2.45,-1.6 -5.23,-2.05 -1.72,-0.28 -3.17,-1.05 -3.94,-1.86 -0.84,-0.9 -0.84,-2 -1.35,-2.77 -0.53,-0.82 -0.1,-0.66 0.82,-0.95 2.75,-0.89 6.74,-0.27 8.3,2.26 0.48,0.77 2.1,3.1 1.86,5.12 -0.07,0.57 -0.3,0.81 -0.46,0.25z"/>
   <path class="fil1" d="M1128.55 671.68c1.68,0 3.06,-2.15 2.34,-3.17 -1.64,-2.3 -5.02,-2.46 -6.05,-1.33 -2.28,2.52 1.81,4.5 3.71,4.5z"/>
   <path class="fil2" d="M1126.95 668.03c-0.53,0.72 -0.09,1.58 0.68,1.84 0.73,0.25 1.86,-0.11 1.75,-1.06 -0.07,-0.54 -0.45,-0.9 -0.81,-1.07 -0.53,-0.26 -1.4,-0.02 -1.62,0.29z"/>
   <path class="fil2" d="M1149.33 673.02c0.75,-0.5 1.99,-1.12 2.37,-1.21 1.47,-0.33 3.83,-0.34 5.13,-0.78 3.49,-1.16 3.9,-3.24 5.03,-4.83 0.17,-0.23 -3.3,-1.06 -3.84,-1.06 -4.12,0 -8.82,1.52 -9.29,7.78 -0.06,0.82 0.29,0.3 0.6,0.1z"/>
   <path class="fil1" d="M1154.62 670.85c2.72,0.42 5.72,-2.04 5.05,-3.74 -0.89,-2.26 -3.07,-1.86 -4.99,-1.49 -0.73,0.15 -0.9,0.27 -1.51,0.71 -1.86,1.35 -0.17,4.27 1.45,4.52z"/>
   <path class="fil2" d="M1154.06 667.64c0,1.69 2.18,1.73 2.72,0.72 0.13,-0.24 0.15,-0.47 0.12,-0.82 -0.13,-1.25 -2.84,-1.83 -2.84,0.1z"/>
   <path class="fil4" d="M1156.68 665.99c-0.39,0.05 -0.61,0.28 -0.86,0.52 -0.24,0.24 -0.16,0.69 0.18,0.89 0.26,0.16 0.99,0.45 1.27,0.24 0.27,-0.2 0.32,-0.22 0.36,-0.6 0.08,-0.63 -0.18,-0.85 -0.73,-1.04 -0.04,-0.02 -0.18,-0.02 -0.22,-0.01z"/>
   <path class="fil4" d="M1129.66 667.97c-1.36,0.55 0.43,1.66 0.79,1.03 0.22,-0.37 0,-1.36 -0.79,-1.03z"/>
   <path class="fil4" d="M1104.4 619.25c0.44,10.06 -1.43,27.09 9.07,26.92 5.62,-0.09 16.64,-9.44 14.35,-15.39 -2.23,-5.78 -9.8,-12.06 -14.61,-15.34 -4.29,-2.93 -9.13,-3.78 -8.81,3.81z"/>
   <path class="fil4" d="M1177.67 618.08c0.94,10.04 5.11,26.65 -5.31,27.91 -5.58,0.68 -17.77,-7.08 -16.31,-13.29 1.42,-6.03 8.06,-13.28 12.37,-17.18 3.85,-3.49 8.54,-5 9.25,2.56z"/>
   <path class="fil4" d="M1352.34 754.64c7.62,3.06 29.49,15.4 24.9,18.75 -9.43,6.88 -25.33,4.85 -36.29,4.59 -8.44,-0.19 -6.16,-5.1 4.08,-5.67 1.86,-0.11 -6.95,-6.44 0.24,-7.15 4.18,-0.41 -1.86,-1.42 3.55,-6.38 0.83,-0.76 -2.28,-6.48 3.52,-4.14z"/>
  </g>
  <g id="_2824349725952">
   <path class="fil4 str25" d="M201.69 724.96c-3.78,0.37 -17.34,1.15 -20.49,0.54 -3.57,-0.68 -10.38,-0.72 -13.69,-1.81 -1.67,-0.55 -8.61,-0.23 -11.43,-1.67 -6.38,-3.27 -0.87,-13.26 -0.17,-14.78 2.36,-5.14 3.35,-33.79 4.46,-39.33 0.58,-2.9 20.81,-9.57 8.44,32.29 -1.67,5.64 2.14,6.65 8.87,9.25 2.95,1.14 18.08,-1.92 22.02,-2 1.08,-0.02 2.23,3.31 2.91,3.78 1.58,1.1 -0.8,13.6 -0.92,13.73z"/>
   <path class="fil2" d="M301.61 708.73c2.27,1.22 12.29,8.41 21.88,6.85 6.99,-1.14 17.57,-3.4 20.24,5.53 0.33,1.1 1.2,5.46 1.25,6.62 0.1,2.26 -4.76,3.65 -6.19,2.3 -1.54,-1.46 -1.94,3.45 -5.53,1.15 -1.78,-1.14 -1.6,-2.29 -3.79,-0.2 -2.79,2.68 -9.23,1.01 -12.3,-0.11 -12.08,-4.42 -15.96,-5.56 -25.94,-6.08 -3.54,-0.19 -11.3,2.24 -9.16,-3.94 0.45,-1.32 9.41,-9.33 11.06,-10.02 2.68,-1.12 3.5,-3.74 8.48,-2.1z"/>
   <g>
    <path class="fil4" d="M340.23 649.98c0.82,0.29 -3.36,12.58 -3.54,14.3 -0.13,1.31 -0.02,8.39 -0.22,9.76 -0.66,4.57 -7.18,9.81 -12.41,9.25 -3.28,-0.35 -5.43,-1.79 -7.25,-1.21 -2.92,0.92 -5,4.9 -8.02,13.56 -2.9,8.34 -12.03,20.59 -18.89,25.59 -5,3.65 -5.73,3.22 -12.08,3.91 -5.21,0.58 -17.87,-1.81 -23.05,-2.95 -5.82,-1.28 -14.26,-0.36 -20.09,-1.81 -3.79,-0.94 -9.75,-0.21 -10.2,-4.89 -0.29,-3.01 3.07,-11.42 5.64,-11.67 5.01,-0.48 18.22,3.65 22.09,0.51 7.17,-5.82 0.69,-5.78 4.23,-13.19 2.85,-5.94 7.46,-12.75 9.66,-18.98 0.86,-2.46 13.59,-27.72 15.26,-27.53 16.01,1.88 17.7,11.68 20.55,11.6 2.84,-0.08 8.99,-4.08 12.16,-4.38 2.85,-0.28 10.68,-7.26 26.16,-1.87z"/>
    <path id="1" class="fil6" d="M337.29 664.34l-1.19 -0.12 0 0 0.03 -0.24 0.06 -0.27 0.07 -0.32 0.09 -0.36 0.11 -0.4 0.12 -0.44 0.13 -0.48 0.15 -0.52 0.16 -0.54 0.16 -0.56 0.17 -0.58 0.18 -0.6 0.18 -0.62 0.19 -0.62 0.18 -0.62 0.18 -0.62 0.18 -0.62 0.17 -0.61 0.17 -0.6 0.16 -0.58 0.15 -0.56 0.14 -0.53 0.12 -0.5 0.11 -0.47 0.1 -0.43 0.07 -0.38 0.06 -0.33 0.03 -0.27 0.01 -0.2 0 -0.1 0.03 0.07 0.27 0.23 0.4 -1.13 0.39 0.35 0.1 0.32 0.01 0.28 -0.01 0.3 -0.05 0.33 -0.06 0.37 -0.08 0.41 -0.1 0.45 -0.11 0.48 -0.13 0.52 -0.14 0.54 -0.15 0.57 -0.17 0.58 -0.16 0.6 -0.18 0.62 -0.18 0.62 -0.18 0.63 -0.18 0.62 -0.19 0.62 -0.18 0.62 -0.18 0.6 -0.17 0.58 -0.16 0.56 -0.16 0.54 -0.14 0.5 -0.14 0.48 -0.12 0.43 -0.1 0.39 -0.09 0.35 -0.06 0.29 -0.05 0.22 -0.02 0.15 0 0zm-0.22 9.78l-1.19 -0.17 0 0 0.01 -0.12 0.02 -0.16 0.01 -0.2 0.01 -0.22 0.01 -0.25 0.01 -0.28 0.01 -0.3 0.01 -0.32 0.01 -0.33 0 -0.35 0.01 -0.36 0 -0.37 0.01 -0.39 0 -0.38 0 -0.4 0.01 -0.39 0 -0.39 0 -0.4 0 -0.38 0.01 -0.38 0 -0.38 0 -0.36 0.01 -0.35 0 -0.34 0 -0.32 0.01 -0.3 0.01 -0.27 0 -0.26 0.01 -0.24 0.01 -0.2 0.01 -0.19 0.02 -0.15 1.19 0.12 -0.01 0.12 -0.01 0.16 -0.01 0.19 -0.01 0.23 -0.01 0.25 0 0.27 -0.01 0.29 0 0.32 -0.01 0.33 0 0.35 0 0.36 -0.01 0.37 0 0.38 0 0.39 0 0.39 -0.01 0.4 0 0.39 0 0.4 0 0.38 -0.01 0.39 0 0.37 -0.01 0.37 0 0.35 -0.01 0.34 -0.01 0.32 -0.01 0.31 -0.01 0.29 -0.01 0.26 -0.01 0.24 -0.02 0.22 -0.01 0.19 -0.02 0.16 0 0zm-13.07 9.77l0.13 -1.19 0 0 0.45 0.03 0.46 0 0.47 -0.03 0.47 -0.05 0.48 -0.08 0.48 -0.11 0.49 -0.14 0.48 -0.16 0.48 -0.18 0.48 -0.21 0.48 -0.23 0.47 -0.25 0.46 -0.27 0.46 -0.28 0.44 -0.31 0.43 -0.32 0.42 -0.33 0.41 -0.35 0.39 -0.36 0.37 -0.37 0.35 -0.38 0.34 -0.38 0.31 -0.39 0.3 -0.4 0.26 -0.4 0.25 -0.41 0.21 -0.4 0.19 -0.41 0.16 -0.4 0.14 -0.4 0.1 -0.39 0.07 -0.39 1.19 0.17 -0.09 0.48 -0.12 0.47 -0.16 0.47 -0.19 0.47 -0.22 0.46 -0.24 0.46 -0.27 0.46 -0.3 0.44 -0.32 0.44 -0.35 0.44 -0.36 0.42 -0.39 0.41 -0.4 0.4 -0.43 0.39 -0.44 0.37 -0.45 0.36 -0.47 0.35 -0.48 0.33 -0.49 0.31 -0.5 0.29 -0.51 0.27 -0.52 0.25 -0.53 0.23 -0.53 0.2 -0.53 0.18 -0.54 0.15 -0.54 0.12 -0.55 0.1 -0.54 0.06 -0.54 0.03 -0.54 0 -0.53 -0.04 0 0zm-7.01 -1.24l-0.36 -1.14 -0.01 0 0.21 -0.06 0.22 -0.05 0.21 -0.03 0.21 -0.02 0.21 -0.01 0.21 0 0.21 0.02 0.22 0.02 0.21 0.02 0.21 0.04 0.22 0.04 0.21 0.05 0.22 0.05 0.22 0.06 0.22 0.05 0.22 0.07 0.23 0.06 0.22 0.07 0.24 0.06 0.23 0.07 0.24 0.07 0.24 0.07 0.25 0.06 0.25 0.07 0.25 0.06 0.26 0.06 0.26 0.06 0.27 0.05 0.28 0.05 0.28 0.05 0.28 0.04 0.3 0.04 -0.13 1.19 -0.32 -0.04 -0.31 -0.04 -0.31 -0.05 -0.29 -0.06 -0.29 -0.06 -0.28 -0.06 -0.28 -0.06 -0.27 -0.07 -0.26 -0.07 -0.26 -0.07 -0.25 -0.07 -0.24 -0.07 -0.24 -0.06 -0.23 -0.07 -0.23 -0.07 -0.22 -0.06 -0.21 -0.06 -0.21 -0.06 -0.2 -0.05 -0.2 -0.04 -0.18 -0.04 -0.19 -0.04 -0.18 -0.03 -0.17 -0.02 -0.17 -0.02 -0.16 -0.01 -0.15 0 -0.15 0.01 -0.15 0.01 -0.14 0.02 -0.14 0.03 -0.13 0.04 0 0zm-7.63 13.19l-1.13 -0.39 0 0 0.28 -0.81 0.27 -0.77 0.27 -0.75 0.27 -0.72 0.26 -0.69 0.26 -0.68 0.26 -0.64 0.25 -0.62 0.25 -0.6 0.25 -0.57 0.25 -0.55 0.24 -0.52 0.25 -0.5 0.24 -0.48 0.24 -0.46 0.25 -0.43 0.24 -0.41 0.25 -0.39 0.24 -0.37 0.25 -0.35 0.25 -0.33 0.26 -0.31 0.26 -0.29 0.26 -0.27 0.27 -0.25 0.27 -0.23 0.28 -0.21 0.28 -0.19 0.29 -0.17 0.3 -0.15 0.3 -0.13 0.31 -0.1 0.36 1.14 -0.24 0.08 -0.23 0.1 -0.22 0.12 -0.23 0.13 -0.23 0.15 -0.22 0.17 -0.23 0.19 -0.22 0.21 -0.23 0.23 -0.22 0.25 -0.23 0.27 -0.22 0.3 -0.23 0.32 -0.23 0.34 -0.22 0.36 -0.23 0.39 -0.23 0.41 -0.24 0.43 -0.23 0.46 -0.24 0.49 -0.23 0.5 -0.24 0.54 -0.25 0.56 -0.24 0.58 -0.25 0.61 -0.25 0.63 -0.26 0.66 -0.26 0.69 -0.26 0.71 -0.27 0.75 -0.27 0.76 -0.28 0.8 0 0zm-19.1 25.88l-0.71 -0.97 0 0 0.64 -0.48 0.64 -0.52 0.66 -0.56 0.67 -0.6 0.68 -0.63 0.68 -0.66 0.69 -0.69 0.7 -0.73 0.69 -0.74 0.69 -0.78 0.69 -0.79 0.69 -0.82 0.68 -0.83 0.68 -0.85 0.67 -0.86 0.65 -0.88 0.65 -0.88 0.63 -0.9 0.62 -0.89 0.6 -0.9 0.58 -0.91 0.57 -0.9 0.54 -0.9 0.52 -0.89 0.5 -0.89 0.47 -0.88 0.44 -0.86 0.42 -0.86 0.38 -0.83 0.35 -0.82 0.32 -0.8 0.29 -0.77 1.13 0.39 -0.3 0.81 -0.33 0.83 -0.36 0.85 -0.4 0.86 -0.42 0.87 -0.46 0.89 -0.48 0.9 -0.51 0.9 -0.53 0.91 -0.55 0.92 -0.57 0.92 -0.6 0.91 -0.61 0.92 -0.63 0.91 -0.64 0.91 -0.65 0.89 -0.67 0.89 -0.68 0.88 -0.69 0.86 -0.69 0.85 -0.7 0.83 -0.7 0.81 -0.71 0.78 -0.7 0.77 -0.71 0.73 -0.7 0.71 -0.7 0.68 -0.7 0.65 -0.69 0.61 -0.68 0.58 -0.68 0.54 -0.66 0.51 0 0zm-12.37 4.02l-0.13 -1.19 0 0 0.58 -0.06 0.55 -0.06 0.52 -0.05 0.49 -0.05 0.47 -0.05 0.44 -0.04 0.41 -0.04 0.4 -0.04 0.37 -0.05 0.36 -0.04 0.34 -0.05 0.33 -0.05 0.31 -0.05 0.3 -0.06 0.29 -0.07 0.29 -0.07 0.28 -0.08 0.28 -0.09 0.28 -0.1 0.28 -0.11 0.28 -0.13 0.29 -0.13 0.3 -0.15 0.31 -0.17 0.32 -0.18 0.33 -0.2 0.35 -0.22 0.37 -0.24 0.39 -0.26 0.4 -0.28 0.43 -0.3 0.45 -0.33 0.71 0.97 -0.46 0.33 -0.44 0.31 -0.42 0.29 -0.4 0.27 -0.38 0.25 -0.37 0.23 -0.36 0.21 -0.34 0.2 -0.34 0.18 -0.32 0.17 -0.32 0.15 -0.32 0.13 -0.32 0.13 -0.31 0.11 -0.32 0.1 -0.32 0.1 -0.31 0.08 -0.33 0.07 -0.33 0.07 -0.34 0.06 -0.34 0.05 -0.36 0.05 -0.37 0.05 -0.39 0.04 -0.4 0.04 -0.43 0.04 -0.44 0.05 -0.46 0.04 -0.49 0.05 -0.52 0.05 -0.55 0.06 -0.57 0.06 0 0zm-23.25 -2.96l0.26 -1.18 0 0 0.5 0.11 0.55 0.12 0.58 0.12 0.62 0.13 0.65 0.13 0.69 0.14 0.71 0.13 0.73 0.14 0.76 0.14 0.78 0.15 0.79 0.14 0.81 0.14 0.81 0.13 0.83 0.14 0.83 0.13 0.83 0.13 0.84 0.12 0.83 0.11 0.82 0.11 0.82 0.11 0.8 0.09 0.79 0.09 0.77 0.07 0.76 0.07 0.73 0.05 0.7 0.04 0.68 0.03 0.65 0.02 0.61 0 0.57 -0.01 0.53 -0.03 0.49 -0.04 0.13 1.19 -0.54 0.05 -0.57 0.03 -0.6 0.01 -0.64 0 -0.67 -0.02 -0.7 -0.03 -0.72 -0.04 -0.75 -0.06 -0.77 -0.06 -0.78 -0.08 -0.8 -0.09 -0.82 -0.09 -0.82 -0.11 -0.84 -0.11 -0.83 -0.11 -0.84 -0.13 -0.84 -0.13 -0.84 -0.13 -0.83 -0.13 -0.83 -0.14 -0.81 -0.14 -0.79 -0.14 -0.79 -0.15 -0.76 -0.14 -0.74 -0.14 -0.71 -0.14 -0.69 -0.13 -0.66 -0.14 -0.62 -0.12 -0.59 -0.13 -0.55 -0.11 -0.51 -0.11 0 0zm-20.1 -1.82l0.29 -1.16 0 0 0.53 0.13 0.56 0.11 0.56 0.1 0.58 0.09 0.6 0.08 0.6 0.07 0.62 0.06 0.63 0.06 0.63 0.05 0.65 0.04 0.64 0.03 0.66 0.03 0.66 0.03 0.66 0.03 0.67 0.02 0.67 0.02 0.66 0.02 0.67 0.02 0.67 0.02 0.66 0.03 0.67 0.03 0.65 0.03 0.66 0.03 0.64 0.04 0.64 0.05 0.64 0.06 0.62 0.06 0.62 0.07 0.6 0.08 0.6 0.09 0.58 0.11 0.57 0.11 -0.26 1.18 -0.54 -0.11 -0.55 -0.1 -0.57 -0.09 -0.58 -0.08 -0.6 -0.07 -0.6 -0.06 -0.62 -0.06 -0.63 -0.04 -0.63 -0.04 -0.65 -0.04 -0.65 -0.03 -0.65 -0.02 -0.66 -0.03 -0.67 -0.02 -0.66 -0.02 -0.67 -0.02 -0.67 -0.02 -0.67 -0.03 -0.67 -0.02 -0.66 -0.03 -0.67 -0.03 -0.66 -0.04 -0.65 -0.04 -0.65 -0.05 -0.64 -0.05 -0.64 -0.07 -0.62 -0.07 -0.62 -0.08 -0.6 -0.1 -0.6 -0.1 -0.58 -0.12 -0.57 -0.14 0 0zm-10.66 -5.41l1.19 -0.11 0 0 0.06 0.37 0.07 0.34 0.1 0.31 0.13 0.28 0.14 0.26 0.17 0.23 0.18 0.22 0.21 0.2 0.22 0.18 0.25 0.17 0.27 0.16 0.29 0.14 0.3 0.13 0.32 0.12 0.34 0.11 0.36 0.1 0.36 0.09 0.38 0.08 0.38 0.07 0.4 0.06 0.4 0.06 0.41 0.06 0.4 0.05 0.42 0.05 0.41 0.06 0.41 0.05 0.41 0.05 0.4 0.06 0.4 0.06 0.4 0.07 0.39 0.08 0.38 0.09 -0.29 1.16 -0.35 -0.08 -0.36 -0.07 -0.37 -0.06 -0.38 -0.06 -0.39 -0.06 -0.4 -0.05 -0.4 -0.06 -0.41 -0.05 -0.42 -0.05 -0.41 -0.05 -0.42 -0.06 -0.42 -0.06 -0.41 -0.07 -0.41 -0.08 -0.41 -0.08 -0.4 -0.1 -0.4 -0.11 -0.38 -0.12 -0.38 -0.14 -0.37 -0.16 -0.35 -0.17 -0.34 -0.2 -0.32 -0.22 -0.31 -0.25 -0.28 -0.28 -0.26 -0.3 -0.23 -0.33 -0.21 -0.36 -0.17 -0.39 -0.13 -0.42 -0.1 -0.45 -0.07 -0.47 0 0zm6.18 -12.32l0.12 1.19 0 0 -0.14 0.03 -0.16 0.06 -0.18 0.1 -0.21 0.14 -0.21 0.18 -0.23 0.22 -0.23 0.26 -0.23 0.29 -0.24 0.31 -0.24 0.35 -0.23 0.37 -0.23 0.4 -0.23 0.41 -0.22 0.43 -0.22 0.44 -0.21 0.46 -0.2 0.46 -0.19 0.47 -0.19 0.47 -0.17 0.47 -0.16 0.47 -0.15 0.47 -0.13 0.45 -0.12 0.45 -0.11 0.44 -0.09 0.42 -0.08 0.4 -0.05 0.38 -0.04 0.35 -0.03 0.32 0 0.29 0.01 0.26 -1.19 0.11 -0.02 -0.34 0.01 -0.36 0.02 -0.39 0.05 -0.4 0.06 -0.42 0.08 -0.44 0.1 -0.45 0.11 -0.47 0.13 -0.47 0.15 -0.49 0.15 -0.48 0.17 -0.5 0.18 -0.49 0.19 -0.5 0.21 -0.49 0.21 -0.48 0.22 -0.48 0.23 -0.47 0.23 -0.45 0.25 -0.45 0.25 -0.42 0.25 -0.4 0.26 -0.39 0.27 -0.36 0.27 -0.33 0.28 -0.31 0.28 -0.28 0.29 -0.24 0.31 -0.21 0.31 -0.17 0.34 -0.13 0.34 -0.06 0 0zm21.77 0.63l0.76 0.93 0 0 -0.46 0.33 -0.5 0.26 -0.55 0.22 -0.58 0.17 -0.61 0.13 -0.65 0.1 -0.68 0.07 -0.71 0.04 -0.73 0.01 -0.76 -0.01 -0.77 -0.04 -0.8 -0.05 -0.8 -0.07 -0.82 -0.08 -0.83 -0.1 -0.83 -0.1 -0.83 -0.11 -0.83 -0.12 -0.83 -0.12 -0.82 -0.13 -0.81 -0.12 -0.79 -0.12 -0.78 -0.11 -0.76 -0.1 -0.73 -0.1 -0.71 -0.08 -0.67 -0.07 -0.64 -0.05 -0.6 -0.04 -0.56 -0.01 -0.51 0 -0.46 0.03 -0.12 -1.19 0.53 -0.04 0.57 0 0.6 0.01 0.63 0.04 0.67 0.05 0.69 0.08 0.73 0.08 0.74 0.1 0.77 0.1 0.78 0.12 0.8 0.12 0.81 0.12 0.82 0.12 0.82 0.12 0.83 0.12 0.82 0.11 0.82 0.1 0.81 0.1 0.8 0.08 0.79 0.07 0.76 0.05 0.75 0.03 0.72 0.01 0.69 -0.01 0.66 -0.04 0.62 -0.06 0.58 -0.08 0.54 -0.12 0.48 -0.15 0.44 -0.17 0.38 -0.2 0.32 -0.23 0 0zm4.07 -12.98l1.09 0.52 0 0 -0.3 0.65 -0.23 0.6 -0.19 0.56 -0.15 0.53 -0.1 0.49 -0.07 0.45 -0.04 0.43 -0.02 0.4 0.01 0.38 0.03 0.36 0.04 0.35 0.06 0.33 0.06 0.33 0.06 0.32 0.07 0.33 0.06 0.32 0.05 0.33 0.03 0.34 0.02 0.34 -0.02 0.36 -0.04 0.37 -0.09 0.37 -0.12 0.39 -0.18 0.39 -0.21 0.4 -0.27 0.41 -0.32 0.43 -0.38 0.44 -0.44 0.46 -0.5 0.48 -0.58 0.51 -0.64 0.54 -0.76 -0.93 0.62 -0.51 0.54 -0.49 0.47 -0.45 0.4 -0.42 0.33 -0.39 0.28 -0.36 0.22 -0.34 0.17 -0.31 0.13 -0.29 0.09 -0.28 0.05 -0.26 0.04 -0.26 0.01 -0.25 -0.01 -0.27 -0.03 -0.27 -0.04 -0.28 -0.06 -0.3 -0.06 -0.31 -0.07 -0.33 -0.06 -0.35 -0.06 -0.38 -0.05 -0.39 -0.03 -0.42 -0.01 -0.45 0.01 -0.47 0.05 -0.49 0.08 -0.53 0.12 -0.56 0.16 -0.59 0.21 -0.62 0.26 -0.66 0.31 -0.7 0 0zm9.63 -18.92l1.13 0.39 0 0 -0.21 0.6 -0.24 0.6 -0.24 0.6 -0.25 0.6 -0.27 0.61 -0.27 0.6 -0.29 0.61 -0.29 0.61 -0.3 0.61 -0.31 0.61 -0.31 0.61 -0.32 0.61 -0.33 0.6 -0.32 0.61 -0.34 0.61 -0.33 0.61 -0.34 0.6 -0.33 0.61 -0.34 0.6 -0.34 0.6 -0.33 0.6 -0.33 0.59 -0.33 0.59 -0.33 0.59 -0.32 0.59 -0.32 0.58 -0.31 0.58 -0.3 0.57 -0.3 0.57 -0.29 0.57 -0.28 0.56 -0.26 0.55 -1.09 -0.52 0.28 -0.56 0.28 -0.57 0.3 -0.58 0.3 -0.57 0.3 -0.59 0.32 -0.58 0.32 -0.59 0.32 -0.59 0.33 -0.59 0.33 -0.59 0.33 -0.6 0.34 -0.6 0.33 -0.6 0.34 -0.6 0.34 -0.6 0.33 -0.6 0.33 -0.61 0.33 -0.6 0.33 -0.6 0.32 -0.61 0.32 -0.6 0.31 -0.6 0.3 -0.6 0.29 -0.6 0.29 -0.59 0.28 -0.6 0.27 -0.59 0.26 -0.59 0.24 -0.59 0.24 -0.58 0.22 -0.58 0.21 -0.57 0 0zm15.9 -27.92l-0.14 1.19 0 0 0.18 -0.02 -0.13 0.11 -0.26 0.28 -0.34 0.42 -0.39 0.54 -0.44 0.66 -0.48 0.75 -0.52 0.85 -0.55 0.92 -0.58 0.99 -0.61 1.06 -0.62 1.11 -0.64 1.15 -0.64 1.19 -0.66 1.21 -0.65 1.23 -0.66 1.24 -0.64 1.23 -0.64 1.23 -0.62 1.21 -0.6 1.18 -0.58 1.14 -0.55 1.1 -0.52 1.05 -0.49 0.98 -0.44 0.91 -0.4 0.83 -0.35 0.73 -0.29 0.64 -0.24 0.53 -0.17 0.41 -0.11 0.26 -1.13 -0.39 0.13 -0.33 0.18 -0.43 0.25 -0.55 0.3 -0.65 0.35 -0.74 0.4 -0.84 0.45 -0.91 0.48 -0.99 0.53 -1.04 0.55 -1.11 0.58 -1.14 0.6 -1.19 0.63 -1.21 0.63 -1.23 0.65 -1.24 0.66 -1.24 0.66 -1.23 0.65 -1.22 0.65 -1.2 0.64 -1.15 0.63 -1.12 0.61 -1.06 0.58 -1.01 0.56 -0.94 0.53 -0.85 0.5 -0.78 0.46 -0.68 0.41 -0.58 0.39 -0.48 0.35 -0.37 0.36 -0.28 0.55 -0.13 0 0zm20.47 11.59l0.03 1.2 0 0 -0.39 -0.03 -0.37 -0.11 -0.34 -0.16 -0.32 -0.22 -0.31 -0.25 -0.3 -0.29 -0.3 -0.32 -0.3 -0.34 -0.32 -0.37 -0.33 -0.4 -0.35 -0.42 -0.37 -0.44 -0.4 -0.45 -0.43 -0.47 -0.45 -0.48 -0.49 -0.48 -0.53 -0.49 -0.56 -0.5 -0.61 -0.49 -0.66 -0.49 -0.7 -0.47 -0.76 -0.48 -0.8 -0.45 -0.87 -0.44 -0.93 -0.42 -0.99 -0.4 -1.06 -0.38 -1.13 -0.34 -1.2 -0.31 -1.27 -0.28 -1.36 -0.24 -1.44 -0.19 0.14 -1.19 1.49 0.2 1.4 0.25 1.32 0.28 1.25 0.33 1.18 0.35 1.1 0.39 1.04 0.42 0.98 0.45 0.91 0.46 0.86 0.48 0.79 0.5 0.75 0.51 0.69 0.51 0.64 0.52 0.6 0.52 0.56 0.52 0.51 0.51 0.48 0.5 0.44 0.49 0.41 0.47 0.38 0.45 0.36 0.42 0.33 0.39 0.3 0.36 0.29 0.33 0.27 0.28 0.24 0.24 0.23 0.18 0.2 0.14 0.18 0.09 0.15 0.04 0.14 0.01 0 0zm12.11 -4.38l0.11 1.19 0 0 -0.27 0.04 -0.29 0.05 -0.31 0.07 -0.33 0.09 -0.35 0.11 -0.36 0.12 -0.37 0.14 -0.39 0.15 -0.4 0.16 -0.4 0.16 -0.41 0.18 -0.42 0.19 -0.42 0.18 -0.43 0.2 -0.43 0.19 -0.43 0.2 -0.42 0.2 -0.43 0.19 -0.43 0.19 -0.42 0.19 -0.42 0.18 -0.41 0.17 -0.41 0.17 -0.39 0.16 -0.39 0.14 -0.39 0.13 -0.37 0.12 -0.36 0.1 -0.35 0.09 -0.34 0.06 -0.33 0.05 -0.32 0.02 -0.03 -1.2 0.23 -0.01 0.25 -0.04 0.28 -0.05 0.31 -0.08 0.32 -0.09 0.34 -0.1 0.35 -0.13 0.37 -0.13 0.38 -0.15 0.39 -0.16 0.4 -0.17 0.41 -0.18 0.41 -0.18 0.42 -0.19 0.43 -0.2 0.43 -0.19 0.42 -0.2 0.43 -0.19 0.44 -0.2 0.42 -0.19 0.43 -0.19 0.42 -0.18 0.42 -0.17 0.41 -0.17 0.41 -0.15 0.39 -0.15 0.39 -0.13 0.38 -0.12 0.38 -0.1 0.36 -0.08 0.35 -0.07 0.34 -0.04 0 0zm26.42 -1.83l-0.4 1.13 0 0 -1.41 -0.47 -1.36 -0.39 -1.32 -0.33 -1.28 -0.27 -1.23 -0.21 -1.19 -0.16 -1.14 -0.1 -1.11 -0.06 -1.06 -0.02 -1.03 0.03 -0.98 0.06 -0.95 0.1 -0.91 0.12 -0.86 0.15 -0.84 0.18 -0.8 0.19 -0.76 0.21 -0.72 0.22 -0.69 0.24 -0.66 0.23 -0.63 0.25 -0.59 0.24 -0.56 0.24 -0.53 0.23 -0.49 0.22 -0.47 0.21 -0.45 0.19 -0.41 0.17 -0.39 0.15 -0.38 0.13 -0.36 0.09 -0.35 0.05 -0.11 -1.19 0.22 -0.03 0.26 -0.07 0.31 -0.11 0.35 -0.13 0.4 -0.16 0.42 -0.19 0.47 -0.21 0.5 -0.22 0.54 -0.23 0.57 -0.25 0.61 -0.25 0.65 -0.25 0.68 -0.25 0.72 -0.24 0.76 -0.23 0.79 -0.22 0.84 -0.2 0.87 -0.19 0.91 -0.15 0.95 -0.13 0.99 -0.1 1.03 -0.07 1.07 -0.02 1.11 0.01 1.15 0.06 1.2 0.11 1.23 0.17 1.28 0.21 1.32 0.28 1.36 0.34 1.41 0.41 1.44 0.48 0.01 0z"/>
   </g>
   <path class="fil2" d="M140.47 714.24c-0.25,2.67 1.25,4.9 4.23,6.29 1.84,0.85 3.29,0.9 3.7,2.88 0.67,3.27 5.94,7.77 9.32,4.1 1.81,-1.96 2.26,4.67 7.58,0.88 0.25,-0.18 0.42,-2.53 1.66,-1.13 0.91,1.03 4.6,2.76 6.31,0.69 2.64,-3.19 -1.54,-10.01 -4.14,-12.01 -3.69,-2.84 -8.22,-5.51 -13.08,-5.27 -4.18,0.22 -3.46,-1.08 -7.5,1.3 -1.35,0.8 -7.49,0.74 -8.08,2.27z"/>
   <g id="_2824349738000">
    <path class="fil1" d="M149.07 704.86c-16.05,8.16 -31.42,6.86 -42.88,23.01 -7.56,10.64 8.36,22.23 19.42,25.42 39,11.25 33.04,1.7 76.42,15.08 7.53,2.32 -14.23,17.45 -22.37,20.75 -16.94,6.85 -53.51,8.64 -75.7,6.28 -38.98,-4.14 -96.45,-48.72 -45.11,-97.01 7.08,-6.65 23.18,-12.55 33.23,-13.54 35.97,-3.54 54.9,14.8 56.99,20.01z"/>
    <path class="fil4" d="M159.66 763.32c10.61,0.39 43.61,5.18 38.91,9.7 -9.66,9.31 -27.06,14.85 -45.39,17.75 -10.87,1.72 -12.36,-3.47 0.37,-7.24 2.31,-0.68 -10.85,-3.71 -2.02,-6.63 5.15,-1.71 -2.8,-0.72 2.41,-6.99 0.8,-0.96 -2.36,-6.9 5.72,-6.59z"/>
   </g>
   <path class="fil1 str26" d="M334.1 667.35c-0.3,-4.88 -2.08,-9.74 2.67,-11.78 5.62,-2.42 10.12,-11.26 10.01,-15.31 -0.15,-5.68 -3.66,-13.09 0,-15.63 6.65,-4.6 11.51,-31.81 8.48,-40.67 -1.84,-5.42 -1.86,-7.89 -10.06,-4.53 -16.03,6.57 -23.89,27.61 -27.58,28.87 -2.81,0.97 -15.98,2.65 -17.03,1.02 -4.12,-6.37 -44.14,-40.58 -41.02,-17.75 0.56,4.13 1.02,23.68 5.27,30.81 3.07,5.17 12.99,13.58 6.24,20.1 -5.46,5.27 -12.96,10.14 -22.78,9.74 -17.21,-0.69 -46.17,-31.64 -69.79,-21.16 -11.13,4.93 -13.7,4.12 -23.73,6.75 -38.96,10.23 -40.99,76.11 -15.18,77.34 6.25,0.3 13.53,-1.37 16.2,-5.56 7.64,-11.94 4.72,-12.73 6.45,-24.95 0.17,-1.24 2.71,-14.94 4.66,-15.81 2.75,-0.26 -9.91,23.35 -1.08,35.3 2.8,3.79 5.7,6.21 10.37,8.41 4.28,2.02 7.44,2.3 12.45,1.33 4.73,-0.92 6.52,-2.17 9.68,-3 2.37,-0.63 4.7,-1.36 3.76,2.43 -0.58,2.29 -6.45,14.56 -4.72,15.72 3.36,2.24 11.51,3.81 9.77,-3.52 -1.24,-5.2 8.81,-10.21 14.32,-10.74 2.13,-0.21 4.35,-0.18 5.45,-1.53 5.16,-6.31 26.52,-0.76 30.06,-9.55 1.45,-3.59 1.28,-7.82 3.8,-11.9 0.92,-1.48 6.87,-14.06 7.21,-15.32 0.92,-3.37 13.03,-25.14 15.95,-26.93 5.38,-3.26 5.85,5.8 11.59,7.47 10.18,2.97 8.74,-1.5 17.79,-0.53 8.08,0.87 8.76,11.49 10.3,11.36 3.87,-0.32 10.64,1.91 10.49,-0.48z"/>
   <path class="fil4" d="M287.5 604.84c-2.38,-2.16 -20.49,-17.87 -21.15,-12.52 -0.23,1.87 -0.68,1.84 -0.45,4.25 0.41,4.24 3.25,20.42 5,24.1 1.21,2.55 11.6,13.5 13,8.49 1.71,-6.13 8.86,-11.25 11.47,-12.56 6.84,-3.43 -7.43,-11.36 -7.87,-11.76z"/>
   <path class="fil4" d="M325.67 607.11c1.54,-2.5 3.94,-4.84 5.96,-8.15 3.03,-4.97 16,-15.83 18.39,-13.09 6.24,7.17 -2.64,29.01 -6.54,37.13 -1.47,3.06 -1.88,2.26 -4,-0.86 -2,-2.93 -6.99,-6.81 -12.3,-9.48 -3.08,-1.55 -3.67,-2.05 -1.51,-5.55z"/>
   <g id="_2824349729456">
    <path class="fil2" d="M302.04 642.15c1.27,-1.03 4.03,-2.69 5.02,-3 5.08,-1.55 8.96,6.27 8.96,6.27 -1.41,0.66 -5.75,2.53 -7.79,2.36 -3,-0.23 -4.88,-3.52 -6.6,-4.75 -0.67,-0.47 -0.08,-0.48 0.41,-0.88z"/>
    <path class="fil1" d="M306.81 639.8c-1.87,0.51 -3.7,3.12 -1.77,5.55 1.94,2.43 6.83,2.29 7.67,-0.96 0.94,-3.64 -3.6,-5.21 -5.9,-4.59z"/>
    <path class="fil2" d="M308.06 641.65c-1,0.3 -1.55,1.33 -0.76,2.17 0.63,0.66 1.95,0.76 2.38,-0.33 0.56,-1.39 -0.72,-2.12 -1.62,-1.84z"/>
    <ellipse class="fil4" transform="matrix(1.74976 -0.162652 0.157522 1.55729 306.13 641.579)" rx="0.65" ry="0.74"/>
   </g>
   <g id="_2824349730224">
    <path class="fil2" d="M342.26 642.14c-1.07,-0.87 -3.41,-2.28 -4.25,-2.53 -4.31,-1.32 -7.6,5.31 -7.6,5.31 1.2,0.56 4.87,2.14 6.61,2 2.54,-0.2 4.13,-2.98 5.59,-4.02 0.57,-0.41 0.07,-0.42 -0.35,-0.76z"/>
    <path class="fil1" d="M338.22 640.16c1.59,0.43 3.14,2.64 1.5,4.7 -1.65,2.06 -5.79,1.94 -6.5,-0.81 -0.8,-3.09 3.05,-4.42 5,-3.89z"/>
    <path class="fil2" d="M337.16 641.72c0.84,0.26 1.31,1.13 0.65,1.84 -0.54,0.56 -1.66,0.65 -2.03,-0.28 -0.46,-1.18 0.62,-1.79 1.38,-1.56z"/>
    <ellipse class="fil4" transform="matrix(-1.48349 -0.1379 -0.133551 1.32031 338.796 641.662)" rx="0.65" ry="0.74"/>
   </g>
   <path class="fil2" d="M225.15 713.68c5.45,0.09 11.73,3.9 17.1,5.05 9.92,2.12 36.3,4.66 37.03,4.56 5.57,-0.72 11.38,2.54 12.23,4.23 1.19,2.38 2.92,7.04 2.24,8.57 -1,2.26 -2.97,3.45 -5.54,1.84 -4.53,-2.85 -4.74,5.22 -10.06,0.86 -4.1,-3.36 -2.94,2.56 -8.93,0.59 -3.48,-1.14 -1.64,-5.53 -6.66,-5.74 -10.07,-0.41 -21.01,1.64 -30.96,0.43 -4.1,-0.51 -20.4,-3.45 -25.09,-3.59 -6.56,-0.2 2.59,-12.96 6.45,-14.41 2.74,-1.03 7.96,-1.98 12.19,-2.39z"/>
   <path class="fil2" d="M322.34 667.28c-0.17,1.65 0.43,5.11 2.99,5.78 0.11,0.03 2.02,1.01 2.15,1.48 0.59,2.15 -0.67,1.88 -0.18,2.64 0.25,0.38 2.48,-2.37 2.7,-2.41 1.12,-0.21 3.01,-0.65 3.78,-1.59 1.35,-1.67 1.82,-2.83 1.43,-5.03 -0.65,-3.69 -3.51,-4.38 -6.63,-4.09 -3.6,0.34 -5.95,0.38 -6.24,3.22z"/>
   <path class="fil2" d="M314.7 671.84c2.75,0.41 7.16,7.39 14.45,6.57 1.9,-0.22 2.62,-0.61 2.97,-0.42 0.46,0.26 -1.05,1.35 -4.16,2.22 -1.86,0.52 -4.56,0.58 -9,-3.44 -1.05,-0.96 -3.06,-4.08 -4.55,-4.29 -0.88,-0.13 -0.3,-0.73 0.29,-0.64z"/>
   <path class="fil3 str27" d="M313.56 665.44c-8.4,-0.68 -14.67,-7.85 -23.38,-8.12"/>
   <path class="fil3 str28" d="M335.86 665.13c3.94,-3.96 16.53,-4.19 20.3,-1.98"/>
   <path class="fil3 str29" d="M336.14 668.13c5.19,-1.52 7.58,-1.58 12.85,-0.15"/>
   <path class="fil3 str30" d="M335.96 671.88c3.04,-2.11 9.32,1.24 9.53,1.7"/>
   <path class="fil3 str31" d="M295.03 664.45c1.7,6.3 14.45,4.59 18.09,11.46 2.67,5.02 5.35,6.64 9,6.91"/>
   <path class="fil3 str32" d="M311.75 671.44c-3.07,-0.47 -16.85,-3.97 -24.22,0.54"/>
   <path class="fil3 str33" d="M313.33 668.56c-13.3,-1.78 -21.16,-8.55 -36.28,-3.25"/>
  </g>
  <g>
   <path class="fil7" d="M575.42 750.77c-4.23,-17 11.67,-15.69 -0.16,-19.84 -23.17,-8.13 -32.66,-29.01 -19.41,-50.21 4.35,-6.96 10.11,-9.57 17.62,-10.5 2.76,-0.34 -5.77,-7.39 -6.87,-9.47 -10.92,-20.67 21.11,-38.62 45.75,-34.72 8.99,1.43 0.51,-12.55 11.35,-21.48 27.15,-22.38 89.5,-11.6 107.32,26.41 2.42,5.17 72.94,-47.17 89.27,14.18 2.29,8.62 -4,21.22 8.22,25.79 10.75,4.03 27.38,8.38 25.75,24.6 -1.36,13.66 -10.69,15.02 -14.49,21.46 -1.33,2.27 12.16,1.55 12.16,15.97 0,29 -46.08,34.5 -71.3,35.25 -42.01,1.26 -91.34,-0.15 -135.5,2.05 -18.4,0.91 -63.41,5.83 -69.71,-19.49z"/>
   <path class="fil8" d="M618.72 786.82c53.85,12.36 77.68,4.41 81.04,-15.83 3.28,-19.66 -19.89,-51.11 -42,-38.42 -6.01,3.45 -5.28,-2.61 -8.24,-8.96 -16.82,-36.04 -43.44,-33.32 -65.3,-3.73 -1.57,2.13 -17.45,-11.24 -29.3,-9.45 -22.72,3.41 -39.41,23.43 -34.15,44.9 10.63,43.3 49.17,20.3 97.95,31.49z"/>
   <path class="fil8" d="M777.04 736.12c1.3,-3.88 3.94,-10.19 12.56,-11.5 21.11,-3.19 18.74,20.96 31.11,20.68 9.92,-0.23 29.54,0.92 32.24,11.61 1.67,6.64 3.58,19.37 -0.61,26.29 -5.79,9.56 -28.45,-1.16 -57.64,10.99 -17.59,7.32 -40.68,-5.75 -43.83,-8.58 -20.23,-18.15 -4.57,-57.8 20.85,-44.89 4.73,2.4 3.87,-0.29 5.32,-4.6z"/>
   <path class="fil9" d="M613.67 750.26c-0.71,-1.94 -4.36,-5.81 -7.87,-6.41 -4.82,-0.83 -8.62,3.07 -10.03,7.37 -0.8,2.46 1.13,1.09 2.34,0.47 3.06,-1.55 10.53,-3.76 15.14,-0.27 0.74,0.57 1.14,0.78 0.42,-1.16z"/>
   <path class="fil9" d="M622.91 725.9c-7.62,6.86 -7.83,14.2 -3.87,20.88 2.56,4.31 3.05,4.24 2.95,-0.71 -0.11,-5.37 -0.15,-13.98 5.18,-19.67 4.7,-5.02 -0.14,-4.2 -4.26,-0.5z"/>
   <path class="fil9" d="M791.5 653.88c-8.94,5.09 -11.48,14.06 -12.48,19.89 -0.77,4.52 -1.37,4.23 3.97,0.03 4.34,-3.41 9.25,-5.23 9.9,-11.58 0.35,-3.44 0.49,-6.61 0.57,-7.9 0.08,-1.27 -0.26,-1.4 -1.96,-0.44z"/>
   <path class="fil9" d="M587.25 601.92c1.51,7.29 4.54,9.07 7.8,10.52 4.14,1.85 6.59,2.21 11.26,6.72 2.6,2.51 3.2,1.55 1.2,-6.54 -2.85,-11.56 -5,-14.62 -15,-17.68 -9.41,-2.89 -7.21,-2.38 -5.26,6.98z"/>
   <path class="fil9" d="M653.55 642.06c3.65,3.78 10.12,6.58 10.12,5.7 0,-3.96 -3.09,-13.75 -9.36,-17.43 -12.04,-7.06 -8.76,3.44 -0.76,11.73z"/>
   <path class="fil9" d="M713.99 712.77c-2.29,3.43 -5.54,7.12 -2.02,15.9 6.64,16.55 4.8,7.43 8.87,-1.51 3.42,-7.51 1.07,-9.77 -3.23,-15.85 -2.12,-3.01 -2.59,-0.09 -3.62,1.46z"/>
   <path class="fil9" d="M831.96 760.35c1.43,2.13 3.44,4.42 1.26,9.85 -4.12,10.26 -2.98,4.61 -5.5,-0.93 -2.12,-4.65 -0.67,-6.05 2,-9.82 1.32,-1.87 1.61,-0.06 2.24,0.9z"/>
   <path class="fil9" d="M740.73 705.57c-2.35,-0.59 -9.24,7.95 -11.15,12.63 -1.46,3.57 -4.14,6.71 0.41,5.39 4.08,-1.17 10.47,-4.46 11.3,-8.51 0.6,-2.99 0.42,-9.26 -0.56,-9.51z"/>
   <path class="fil9" d="M815.39 755.89c1.46,-0.36 5.73,4.93 6.91,7.83 0.91,2.21 2.57,4.16 -0.25,3.34 -2.53,-0.73 -6.49,-2.77 -7,-5.28 -0.38,-1.85 -0.26,-5.73 0.34,-5.89z"/>
   <path class="fil9" d="M854.78 636.66c-8.94,5.09 -11.48,14.06 -12.48,19.89 -0.77,4.52 -1.37,4.23 3.98,0.03 4.33,-3.41 9.24,-5.24 9.89,-11.58 0.35,-3.44 0.49,-6.61 0.57,-7.91 0.08,-1.27 -0.26,-1.4 -1.96,-0.43z"/>
   <path class="fil9" d="M502.82 723.24c5.24,0.3 11.9,-2.03 11.31,-2.67 -2.69,-2.92 -11.6,-8.01 -18.7,-6.47 -13.64,2.96 -4.11,8.46 7.39,9.14z"/>
   <path class="fil9" d="M713.99 712.77c-2.29,3.43 -5.54,7.12 -2.02,15.9 6.64,16.55 4.8,7.43 8.87,-1.51 3.42,-7.51 1.07,-9.77 -3.23,-15.85 -2.12,-3.01 -2.59,-0.09 -3.62,1.46z"/>
   <path class="fil9" d="M831.96 760.35c1.43,2.13 3.44,4.42 1.26,9.85 -4.12,10.26 -2.98,4.61 -5.5,-0.93 -2.12,-4.65 -0.67,-6.05 2,-9.82 1.32,-1.87 1.61,-0.06 2.24,0.9z"/>
   <path class="fil9" d="M740.73 705.57c-2.35,-0.59 -9.24,7.95 -11.15,12.63 -1.46,3.57 -4.14,6.71 0.41,5.39 4.08,-1.17 10.47,-4.46 11.3,-8.51 0.6,-2.99 0.42,-9.26 -0.56,-9.51z"/>
   <path class="fil9" d="M789.56 709.46c1.45,-0.37 5.72,4.92 6.91,7.82 0.9,2.22 2.56,4.16 -0.26,3.35 -2.53,-0.73 -6.49,-2.77 -7,-5.28 -0.38,-1.85 -0.26,-5.74 0.35,-5.89z"/>
   <path class="fil9" d="M743.48 587.73c-7.62,6.86 -7.83,14.2 -3.86,20.88 2.56,4.31 3.04,4.24 2.94,-0.71 -0.1,-5.37 -0.14,-13.98 5.18,-19.67 4.7,-5.02 -0.14,-4.2 -4.26,-0.5z"/>
   <path class="fil9" d="M723.65 601.25c1.46,-0.37 5.73,4.92 6.91,7.82 0.91,2.21 2.57,4.16 -0.25,3.34 -2.53,-0.73 -6.49,-2.76 -7,-5.28 -0.38,-1.84 -0.26,-5.73 0.34,-5.88z"/>
  </g>
  <g>
   <path class="fil7" d="M86.33 989.18c-9.11,-2.41 -22,-6.72 -32.78,3.14 -3.7,3.39 -1.66,5.43 1.66,5.26 9.61,-0.49 23.42,-2.3 32,-5.29 4.78,-1.67 3.77,-1.88 -0.88,-3.11z"/>
   <path class="fil8" d="M73.56 1146.39c11.92,-0.47 2.92,6.14 0,15.51 -10.1,32.38 18.91,39.96 43.55,23.98 10.6,-6.88 10.5,-14.33 15.99,-0.55 14.82,37.22 47.89,7.74 61.42,-14.97 5.64,-9.46 5.6,-8.59 12.79,-2.53 15.38,12.97 43.49,18.67 56.36,-2.66 9.2,-15.24 -2.76,-33.91 0.18,-36.24 3.51,-2.78 18.5,3.93 25.02,-9.09 5.35,-10.7 -5.8,-20.86 -8.32,-30.49 -1.45,-5.51 6.22,-2.52 10.05,-2.76 17.13,-1.08 3.96,-17.23 -0.13,-21.7 -5.42,-5.94 14.32,-10.73 6.14,-22.42 -5.22,-7.45 -35.53,-3.89 -32.48,-9.09 20.41,-34.81 -60.54,-29.07 -124.68,0.31 -44.91,20.57 -156.37,116.25 -65.89,112.7z"/>
   <path class="fil8" d="M52.96 1160.78c-3.93,8.7 -13.28,28.18 -11.03,28.26 16.54,0.61 15.41,-19.85 14.93,-28.55 -0.34,-6.15 -1.68,-4.62 -3.9,0.29z"/>
   <path class="fil7" d="M141.59 1239.84c-4.06,5.65 -18.83,23.48 -6.76,16.79 7.15,-3.95 13.1,-14.18 10.87,-22.85 -1.16,-4.53 -2.31,3.56 -4.11,6.06z"/>
   <path class="fil8" d="M253.52 1265.77c4.06,5.64 18.83,23.47 6.76,16.79 -7.14,-3.96 -13.1,-14.19 -10.87,-22.86 1.16,-4.52 2.31,3.56 4.11,6.07z"/>
   <path class="fil10" d="M199.27 1336.86c16.62,3.39 8.61,2.26 25.42,5.68 4.83,0.98 2.27,-2.82 0.38,-6.71 -13.25,-27.15 -23.07,-65.91 -22.31,-91.39 1.64,-54.96 28.26,-87.14 43.46,-102.97 12.31,-12.82 26.68,-32.68 29.1,-67 0.56,-8.01 -2.63,-21.04 -3.87,-5.75 -1.52,18.77 -12.16,64.11 -34.2,65.08 -11.75,0.51 -17.7,-25.45 -15.42,-41.11 7.17,-49.29 -3.85,-6.48 -5.78,11.15 -2.31,20.95 15.22,36.91 10.87,49.14 -2.05,5.75 -15.24,31.45 -20.84,34.67 -13.31,7.65 -27.15,-8.54 -38.54,-16.97 -4.11,-3.04 -4.69,-11.37 -4.42,-19.58 0.41,-11.91 -1.62,-13.56 -3.58,-3.23 -1.13,5.98 -1.12,17.99 -4.54,16.4 -18.77,-8.73 -41.63,-8.1 -47.57,-20.64 -5.83,-12.3 -5.55,0.5 -2.89,4.23 2.08,2.93 -2.17,4.19 -4.15,4.87 -0.11,0.56 -21.58,5.11 -7.94,4.55 10.75,-0.44 13.98,0.47 20.72,0.93 25.8,1.75 79.09,26.83 79.09,55.9 0,9.9 -3.3,26.99 -2.7,36.13 1.76,26.37 9.85,54.56 2.2,77.54 -2.53,7.63 -5.47,13.94 -4.04,14.3 2.62,0.68 7.92,-5.22 11.55,-5.22z"/>
   <path class="fil7" d="M70.95 1129.35c7.27,4.3 25.5,-6.72 19.5,3.4 -1.58,2.66 -6.71,18.24 2.84,15.81 8.9,-2.28 17.81,-15.38 25.77,-16.59 6.09,-0.93 7.38,4.15 9.42,7.68 4.41,7.62 14.75,16.5 21.29,0.67 6.2,-15 7.8,-14.88 18.25,-7.76 6.02,4.1 20.82,12.89 28.75,9.63 12.84,-5.29 0.06,-32.18 6.83,-32.18 13.44,0 24.3,2.38 28.8,-3.02 11.99,-14.39 -21.07,-31.32 0.8,-26 29.53,7.18 45.24,-8.39 22.67,-22.4 -20.36,-12.65 -31.25,-16.4 -56.65,-16.73 -0.34,0 -0.66,-0.01 -0.98,-0.01 -29.52,0 -58.39,11.27 -82.76,27.77 -7.68,5.2 -63.83,48.29 -44.53,59.73z"/>
   <path class="fil8" d="M45.54 1097.05c12.95,-0.61 21.76,-5.34 28.44,-6.74 5.43,-1.13 4.55,0.67 3.75,5.82 -1.27,8.14 -10.28,43.47 15.1,23.11 13.79,-11.06 9.41,-25.8 20.55,-11.32 16.02,20.81 17.03,11.72 15.56,-9.14 -0.37,-5.34 1.84,-6.97 5.25,-5.5 5.98,2.6 20.02,15.03 27.5,10.67 5.31,-3.1 0.73,-22.08 10.1,-16.38 7.26,4.42 38.01,9.12 26.38,-17.49 -6.2,-14.18 3.96,-8.43 11.88,-6.05 16.67,5.01 -1.92,-10.57 5.68,-9.63 18.57,2.29 42.5,5.25 22.23,-20.28 -11.61,-14.63 -40.19,-26.51 -59.79,-27.36 -73.74,-3.16 -149.99,91.1 -132.63,90.29z"/>
   <path class="fil7" d="M105.18 1001.31c-28.36,5.85 -72.49,41.54 -46.71,42.63 8.72,0.37 17.92,-2.72 24.4,-7.45 9.33,-6.81 -4.81,23.38 -6.35,30.9 -2.98,14.67 18.15,0.53 29.89,-12.27 13.41,-14.61 8.1,-7.97 14.93,12.23 5.08,15.05 14.14,16.87 18.3,1.74 3.36,-12.27 5.19,-27.63 10.97,-21.49 4.98,5.29 15.79,19.51 25.34,21.31 8.7,1.64 6.15,-11.97 4.4,-16.74 -5.92,-16.17 -23.52,-18.13 12.45,-8.12 5.48,1.53 42.64,3.36 29.06,-9.06 -4.88,-4.47 -9.82,-6.5 -17.63,-11.12 -15.36,-9.11 52,-12.88 38.82,-28.37 -5.17,-6.08 -22.12,-10.93 -44.15,-2.26 -8.28,3.25 -7.38,-22.66 -14.81,-23.77 -11.65,-1.72 -21.79,23.15 -35.26,22.62 -3.96,-0.15 -18.78,-15.3 -33.91,-23.9 -6.63,-3.77 -24.88,-5.86 -22.86,0.28 7.35,22.28 32.15,28.92 13.12,32.84z"/>
   <path class="fil11" d="M174.48 1111.99c0.08,1.06 -4.48,-3.12 -5.37,0.89 -0.44,1.97 1.52,2.45 3.26,2.09 1.2,-0.25 1.72,0.47 0.48,1.22 -2.94,1.79 -1.58,3.1 -0.92,3.64 0.88,0.73 3.02,0.69 3.7,-1.99 0.25,-0.98 0.68,-1.61 0.97,-0.51 0.25,0.97 0.29,2.08 1.66,2.41 2.15,0.51 3.55,-1.85 2.4,-3.25 -0.55,-0.68 -3.22,-1.32 -0.18,-1.37 3.13,-0.06 1.57,-5.8 -1.85,-2.86 -1.58,1.37 -0.86,-0.94 -0.85,-0.95 0.65,-1.3 0.39,-2.99 -1.07,-3.59 -1.5,-0.61 -3.16,0.43 -2.65,2.99l0.42 1.28z"/>
   <path class="fil11" d="M107.37 1087.11c0.08,1.06 -4.48,-3.12 -5.38,0.89 -0.43,1.97 1.53,2.45 3.27,2.09 1.2,-0.25 1.71,0.47 0.48,1.22 -2.94,1.78 -1.58,3.1 -0.92,3.64 0.87,0.73 3.01,0.68 3.69,-1.99 0.25,-0.98 0.69,-1.61 0.97,-0.51 0.25,0.97 0.3,2.08 1.67,2.41 2.14,0.51 3.55,-1.85 2.39,-3.26 -0.55,-0.67 -3.21,-1.31 -0.17,-1.37 3.13,-0.05 1.57,-5.79 -1.85,-2.85 -1.59,1.36 -0.86,-0.95 -0.86,-0.95 0.65,-1.3 0.4,-2.99 -1.06,-3.59 -1.5,-0.61 -3.17,0.43 -2.65,2.99l0.42 1.28z"/>
   <path class="fil11" d="M183.68 1020.41c0.08,1.06 -4.48,-3.12 -5.37,0.89 -0.44,1.97 1.52,2.45 3.26,2.09 1.2,-0.24 1.72,0.47 0.48,1.22 -2.94,1.79 -1.58,3.1 -0.92,3.65 0.88,0.72 3.02,0.68 3.7,-2 0.25,-0.98 0.68,-1.6 0.97,-0.5 0.25,0.97 0.29,2.08 1.66,2.4 2.15,0.52 3.55,-1.84 2.4,-3.25 -0.56,-0.67 -3.22,-1.32 -0.18,-1.37 3.13,-0.05 1.57,-5.79 -1.85,-2.85 -1.58,1.36 -0.86,-0.95 -0.85,-0.96 0.65,-1.29 0.39,-2.99 -1.07,-3.58 -1.5,-0.62 -3.16,0.43 -2.65,2.98l0.42 1.28z"/>
   <path class="fil11" d="M246.61 1155.27c0.08,1.06 -4.48,-3.12 -5.37,0.89 -0.44,1.97 1.52,2.45 3.26,2.09 1.2,-0.25 1.72,0.47 0.48,1.22 -2.94,1.78 -1.58,3.09 -0.91,3.64 0.87,0.73 3.01,0.68 3.69,-1.99 0.25,-0.98 0.68,-1.61 0.97,-0.51 0.25,0.97 0.3,2.08 1.66,2.41 2.15,0.51 3.55,-1.85 2.4,-3.26 -0.55,-0.67 -3.22,-1.31 -0.18,-1.37 3.14,-0.05 1.57,-5.79 -1.84,-2.85 -1.59,1.36 -0.87,-0.95 -0.86,-0.95 0.65,-1.3 0.4,-2.99 -1.07,-3.59 -1.5,-0.61 -3.16,0.43 -2.64,2.99l0.41 1.28z"/>
   <path class="fil11" d="M147.09 1180.56c0.08,1.06 -4.48,-3.11 -5.37,0.9 -0.44,1.96 1.52,2.44 3.26,2.09 1.2,-0.25 1.72,0.46 0.48,1.22 -2.94,1.78 -1.58,3.09 -0.91,3.64 0.87,0.73 3.01,0.68 3.69,-1.99 0.25,-0.98 0.68,-1.61 0.97,-0.51 0.25,0.97 0.3,2.08 1.66,2.41 2.15,0.51 3.55,-1.85 2.4,-3.26 -0.55,-0.67 -3.22,-1.31 -0.18,-1.37 3.14,-0.05 1.58,-5.79 -1.84,-2.85 -1.59,1.36 -0.87,-0.95 -0.86,-0.95 0.65,-1.3 0.39,-3 -1.07,-3.59 -1.5,-0.61 -3.16,0.43 -2.64,2.98l0.41 1.28z"/>
   <path class="fil11" d="M241.6 1065.78c0.08,1.06 -4.49,-3.12 -5.38,0.89 -0.44,1.97 1.53,2.45 3.27,2.09 1.2,-0.24 1.71,0.47 0.47,1.22 -2.94,1.79 -1.57,3.1 -0.91,3.65 0.87,0.72 3.01,0.68 3.69,-2 0.25,-0.98 0.68,-1.6 0.97,-0.5 0.25,0.97 0.3,2.08 1.66,2.41 2.15,0.51 3.56,-1.85 2.4,-3.26 -0.55,-0.67 -3.22,-1.32 -0.18,-1.37 3.14,-0.05 1.58,-5.79 -1.84,-2.85 -1.59,1.36 -0.86,-0.95 -0.86,-0.96 0.65,-1.29 0.4,-2.99 -1.06,-3.58 -1.51,-0.62 -3.17,0.43 -2.65,2.98l0.42 1.28z"/>
   <path class="fil11" d="M150.86 1060.35c0.08,1.06 -4.49,-3.12 -5.38,0.89 -0.44,1.97 1.53,2.44 3.27,2.09 1.2,-0.25 1.71,0.46 0.48,1.22 -2.95,1.78 -1.58,3.09 -0.92,3.64 0.87,0.73 3.01,0.68 3.69,-1.99 0.25,-0.98 0.68,-1.61 0.97,-0.51 0.25,0.97 0.3,2.08 1.67,2.41 2.14,0.51 3.55,-1.85 2.39,-3.26 -0.55,-0.67 -3.22,-1.31 -0.18,-1.37 3.14,-0.05 1.58,-5.79 -1.84,-2.85 -1.59,1.36 -0.86,-0.95 -0.86,-0.95 0.65,-1.3 0.4,-2.99 -1.06,-3.59 -1.51,-0.61 -3.17,0.43 -2.65,2.99l0.42 1.28z"/>
   <path class="fil11" d="M90.64 1173.66c0.08,1.06 -4.48,-3.11 -5.37,0.9 -0.44,1.97 1.52,2.44 3.26,2.08 1.2,-0.24 1.72,0.47 0.48,1.22 -2.94,1.79 -1.58,3.1 -0.92,3.65 0.88,0.73 3.01,0.68 3.7,-1.99 0.25,-0.98 0.68,-1.61 0.97,-0.51 0.25,0.97 0.29,2.08 1.66,2.41 2.15,0.51 3.55,-1.85 2.4,-3.26 -0.56,-0.67 -3.22,-1.31 -0.18,-1.37 3.13,-0.05 1.57,-5.79 -1.85,-2.85 -1.58,1.36 -0.86,-0.95 -0.85,-0.95 0.65,-1.3 0.39,-2.99 -1.07,-3.59 -1.5,-0.61 -3.17,0.43 -2.65,2.98l0.42 1.28z"/>
   <path class="fil11" d="M247.24 1021.67c0.08,1.06 -4.48,-3.12 -5.37,0.89 -0.44,1.97 1.52,2.45 3.26,2.09 1.2,-0.25 1.72,0.47 0.48,1.22 -2.94,1.78 -1.58,3.09 -0.92,3.64 0.88,0.73 3.02,0.68 3.7,-1.99 0.25,-0.98 0.68,-1.61 0.97,-0.51 0.25,0.97 0.29,2.08 1.66,2.41 2.14,0.51 3.55,-1.85 2.4,-3.26 -0.56,-0.67 -3.22,-1.31 -0.18,-1.37 3.13,-0.05 1.57,-5.79 -1.85,-2.85 -1.58,1.36 -0.86,-0.94 -0.86,-0.95 0.66,-1.3 0.4,-2.99 -1.06,-3.59 -1.5,-0.61 -3.17,0.43 -2.65,2.99l0.42 1.28z"/>
   <path class="fil9" d="M258.8 1088.8c-9.98,5.68 -12.82,15.7 -13.93,22.21 -0.86,5.05 -1.53,4.72 4.43,0.04 4.85,-3.81 10.32,-5.85 11.05,-12.94 0.4,-3.84 0.55,-7.38 0.64,-8.83 0.09,-1.41 -0.29,-1.56 -2.19,-0.48z"/>
   <path class="fil9" d="M175.17 988.45c-9.98,5.68 -12.82,15.69 -13.93,22.21 -0.86,5.04 -1.53,4.72 4.43,0.03 4.85,-3.81 10.32,-5.85 11.05,-12.93 0.4,-3.84 0.55,-7.38 0.64,-8.83 0.09,-1.42 -0.3,-1.56 -2.19,-0.48z"/>
   <path class="fil9" d="M141.99 1012.55c2.86,0 6.24,-0.44 9.92,4.96 6.96,10.2 2.43,5.63 -4.28,4.52 -5.64,-0.92 -6.03,-3.14 -7.87,-7.96 -0.91,-2.38 0.95,-1.52 2.23,-1.52z"/>
   <path class="fil8" d="M164.26 965.22c0.91,1.41 -3.14,7.83 -5.78,10.13 -2.01,1.75 -3.47,4.2 -3.63,0.93 -0.13,-2.93 0.59,-7.86 3.06,-9.3 1.82,-1.06 5.97,-2.34 6.35,-1.76z"/>
   <path class="fil11" d="M100.89 1015.6c0.08,1.06 -4.48,-3.12 -5.38,0.9 -0.43,1.96 1.53,2.44 3.27,2.08 1.2,-0.24 1.71,0.47 0.48,1.22 -2.94,1.79 -1.58,3.1 -0.92,3.65 0.87,0.72 3.01,0.68 3.69,-2 0.25,-0.98 0.68,-1.6 0.97,-0.5 0.25,0.97 0.3,2.08 1.67,2.41 2.14,0.51 3.55,-1.85 2.39,-3.26 -0.55,-0.67 -3.22,-1.32 -0.18,-1.37 3.14,-0.05 1.58,-5.79 -1.84,-2.85 -1.59,1.36 -0.86,-0.95 -0.86,-0.96 0.65,-1.29 0.4,-2.99 -1.06,-3.58 -1.5,-0.62 -3.17,0.43 -2.65,2.98l0.42 1.28z"/>
   <path class="fil9" d="M228.69 954.16c-9.98,5.68 -12.81,15.69 -13.93,22.21 -0.86,5.04 -1.53,4.72 4.44,0.03 4.84,-3.81 10.32,-5.85 11.05,-12.93 0.39,-3.84 0.54,-7.38 0.63,-8.83 0.09,-1.42 -0.29,-1.56 -2.19,-0.48z"/>
  </g>
  <g>
   <path class="fil8" d="M112.43 252.69c-32.33,7.38 -50.94,-23.36 -48.61,-51.12 0.58,-7.01 2.8,-5.55 -2.94,-8.16 -47.25,-21.52 -0.55,-70.73 24.82,-53.56 5.59,3.79 3.86,-10.41 5.03,-13.96 17.69,-53.96 67.69,-41.24 81.91,0.05 4.59,13.33 13.22,-3.84 25.38,-6.31 17.27,-3.51 36.77,4.5 41.5,18.68 5.43,16.24 -12.73,21.16 13.85,31.26 36.6,13.92 38.22,46.72 14.8,52.3 -15.41,3.67 -16.49,3.96 -7.67,24.14 3.38,7.73 2.22,10.23 0.37,16.94 -0.24,0.89 -4.55,5.37 -7.24,5.81 -6.67,1.09 -9.85,3.42 -16.9,-1.18 -4.44,-2.9 -13.63,-3.21 -17.87,-10.39 -2.95,-4.99 -1.58,8.13 -9.08,10.94 -27.15,10.15 -35.85,-18.13 -35.85,-17.96 0,5.36 -14.36,26.42 -28,26.5 -19.42,0.12 -30.23,-14.67 -32.04,-21.7 -0.62,-2.42 0.55,-2.74 -1.46,-2.28z"/>
   <path class="fil9" d="M255.11 94.89c-10.97,6.24 -14.09,17.25 -15.31,24.41 -0.95,5.54 -1.69,5.19 4.87,0.03 5.33,-4.18 11.34,-6.42 12.15,-14.21 0.43,-4.22 0.59,-8.11 0.69,-9.7 0.1,-1.56 -0.32,-1.72 -2.4,-0.53z"/>
   <path class="fil9" d="M199.82 221.6c5.57,-7.08 4.41,-11.7 17.87,-18.89 9.1,-4.87 10.7,-16.47 10.26,-4.2 -0.31,8.94 -10.11,19.45 -18.35,22.7 -7.16,2.82 -12.09,3.32 -9.78,0.39z"/>
   <path class="fil9" d="M101.87 166.91c1.85,8.94 5.57,11.13 9.57,12.92 5.08,2.26 8.08,2.71 13.82,8.24 3.19,3.07 3.93,1.9 1.47,-8.03 -3.5,-14.18 -6.13,-17.94 -18.4,-21.7 -11.55,-3.54 -8.85,-2.91 -6.46,8.57z"/>
   <path class="fil10" d="M219.27 399.2c-12.77,-0.51 -21.83,-0.58 -35.44,-0.76 -15.07,-0.2 -0.73,-14.48 -0.16,-43.21 0.15,-7.21 0.73,-39.82 -7.44,-58.67 -0.97,-2.25 -8.76,-14.25 -21.37,-24.57 -14.1,-11.54 -51.97,-39.35 -30.01,-26.95 3.71,2.1 7.97,3.18 10.7,2.63 2.32,-0.47 6.06,-29.17 5.55,-2.52 -0.04,2.66 -0.49,7.97 2.02,10.13 4.85,4.17 33.34,27.47 32.07,21.22 -5.49,-26.89 -18.97,-124.09 -13.16,-97.93 1.02,4.58 7.54,33.15 9.16,31.7 2.4,-2.18 4.9,-5.68 6.82,-9.29 2.11,-3.98 5.46,-6.6 2.95,0.56 -1.86,5.29 -6.25,13.34 -6.25,24.09 0,8.9 16.32,100.99 26.32,76.04 8.3,-20.72 22.34,-43.9 34.69,-57.44 5.66,-6.22 3.3,0.91 0.71,4.35 -4.28,5.67 -5.69,11.15 -4.29,11.15 6.29,0 11.99,1.4 -2.81,4.76 -6.31,1.44 -36.33,51.4 -22.7,88.53 1.23,3.33 20.83,46.5 12.64,46.18z"/>
   <path class="fil9" d="M85.81 80.38c4.48,4.64 12.42,8.07 12.42,6.99 0,-4.86 -3.8,-16.87 -11.49,-21.39 -14.77,-8.66 -10.75,4.22 -0.93,14.4z"/>
   <path class="fil9" d="M189.96 147.89c-1.75,2.61 -4.22,5.42 -1.54,12.09 5.05,12.58 3.65,5.65 6.75,-1.15 2.6,-5.71 0.81,-7.43 -2.46,-12.05 -1.61,-2.29 -1.97,-0.07 -2.75,1.11z"/>
   <path class="fil9" d="M210.29 142.42c-1.79,-0.45 -7.03,6.04 -8.48,9.6 -1.11,2.71 -3.14,5.1 0.32,4.1 3.1,-0.89 7.96,-3.39 8.59,-6.48 0.46,-2.27 0.32,-7.04 -0.43,-7.22z"/>
   <path class="fil9" d="M255.11 94.89c-10.97,6.24 -14.09,17.25 -15.31,24.41 -0.95,5.54 -1.69,5.19 4.87,0.03 5.33,-4.18 11.34,-6.42 12.15,-14.21 0.43,-4.22 0.59,-8.11 0.69,-9.7 0.1,-1.56 -0.32,-1.72 -2.4,-0.53z"/>
   <path class="fil9" d="M85.81 80.38c4.48,4.64 12.42,8.07 12.42,6.99 0,-4.86 -3.8,-16.87 -11.49,-21.39 -14.77,-8.66 -10.75,4.22 -0.93,14.4z"/>
   <path class="fil9" d="M189.96 147.89c-1.75,2.61 -4.22,5.42 -1.54,12.09 5.05,12.58 3.65,5.65 6.75,-1.15 2.6,-5.71 0.81,-7.43 -2.46,-12.05 -1.61,-2.29 -1.97,-0.07 -2.75,1.11z"/>
   <path class="fil9" d="M210.29 142.42c-1.79,-0.45 -7.03,6.04 -8.48,9.6 -1.11,2.71 -3.14,5.1 0.32,4.1 3.1,-0.89 7.96,-3.39 8.59,-6.48 0.46,-2.27 0.32,-7.04 -0.43,-7.22z"/>
   <path class="fil7" d="M89.58 228.85c1.46,-0.37 5.73,4.92 6.91,7.82 0.91,2.22 2.56,4.16 -0.25,3.35 -2.53,-0.73 -6.49,-2.77 -7,-5.28 -0.38,-1.85 -0.26,-5.74 0.34,-5.89z"/>
   <path class="fil7" d="M147.1 126.11c-2.35,-0.6 -9.24,7.94 -11.15,12.62 -1.46,3.58 -4.14,6.71 0.41,5.4 4.08,-1.18 10.47,-4.47 11.3,-8.52 0.6,-2.98 0.42,-9.26 -0.56,-9.5z"/>
   <path class="fil7" d="M40.65 215.28c5.03,-1.5 10.49,-5.97 9.71,-6.37 -3.52,-1.82 -13.63,-3.56 -19.78,0.31 -11.8,7.45 -0.97,9.36 10.07,6.06z"/>
  </g>
  <g>
   <path class="fil8" d="M1124.51 300.9c-35.63,-81.61 -1.01,-165.61 103.15,-167 111.99,-1.5 164.89,74.16 124.94,168.94 -18.1,42.96 -37.94,84.01 -110.33,85.24 -46.77,0.8 -99.16,-44.58 -117.76,-87.18z"/>
   <path class="fil7" d="M1215.89 248.7c-5.57,-7.08 -4.41,-11.69 -17.88,-18.89 -9.09,-4.86 -10.7,-16.47 -10.26,-4.2 0.32,8.94 10.12,19.45 18.35,22.7 7.16,2.82 12.09,3.32 9.79,0.39z"/>
   <path class="fil10" d="M1242.28 351.38c-3.89,-38.36 -2.5,-33.49 -4.95,-34.94 -0.09,-0.05 -16.29,-5.55 -19.84,-6.92 -14.26,-5.51 -59.28,-31.25 -32.2,-19.4 5.54,2.43 53.08,27.31 53.08,17.52 0,-4.97 -0.97,-37.16 -5.06,-37.16 -0.39,-1.68 -24.62,-7.12 -41.37,-19.85 -21.84,-16.58 5.18,2.08 24.55,8.8 22.85,7.93 19.09,4.7 17.66,-18.54 -0.46,-7.59 3.66,-65.87 3.66,-26.49 0,5.24 1.09,40.42 3.83,47 3.57,8.57 48.71,-39.15 35.65,-23.44 -13.31,16.03 -22.13,22.03 -35.11,31.19 -1.15,0.82 -0.97,14.02 0.55,27.35 1.89,16.45 -2.07,14.41 17.26,9.45 11.28,-2.89 20.49,-6.89 35.6,-13.82 3.09,-1.41 -0.72,1.36 -7.22,5.23 -8.83,5.25 -21.72,10.14 -29.04,11.96 -11.07,2.76 -15.29,4.21 -15.23,7.09 0.02,0.91 -0.01,27.34 -0.51,33.19 -0.47,5.57 -0.72,7.5 -1.31,1.78z"/>
   <path class="fil7" d="M1085.25 373.99c-3.09,-26.83 39.9,-33.71 61.97,-18.61 6.89,4.72 -9.62,-25.58 26.09,-39.78 20.3,-8.07 45.56,3.1 52.14,25 4.53,15.06 -8.3,19.5 4.77,20.18 20.48,1.08 27.49,32.3 7.34,36.39 -9.08,1.85 -32.31,-15.46 -43.72,-8.18 -27.25,17.39 -105.41,12.68 -108.59,-15z"/>
   <path class="fil8" d="M1194.95 381.5c-0.87,-2.36 -5.31,-7.07 -9.58,-7.8 -5.87,-1 -10.49,3.74 -12.2,8.98 -0.98,2.99 1.37,1.31 2.84,0.57 3.73,-1.89 12.82,-4.58 18.42,-0.33 0.91,0.69 1.39,0.95 0.52,-1.42z"/>
   <path class="fil8" d="M1206.19 351.87c-9.28,8.34 -9.53,17.27 -4.71,25.4 3.12,5.24 3.7,5.16 3.59,-0.86 -0.13,-6.53 -0.18,-17.02 6.3,-23.93 5.72,-6.11 -0.17,-5.11 -5.18,-0.61z"/>
   <path class="fil9" d="M1362.03 314.9c-9.23,-4.53 -18.08,-1.58 -23.46,0.88 -4.16,1.91 -4.26,1.25 2.21,3.3 5.27,1.67 9.53,4.69 15.14,1.66 3.05,-1.64 5.74,-3.32 6.86,-3.98 1.09,-0.65 1.01,-1.01 -0.75,-1.86z"/>
   <path class="fil9" d="M1136.52 155.72c1.51,7.28 4.54,9.06 7.8,10.52 4.15,1.84 6.59,2.2 11.27,6.71 2.6,2.51 3.19,1.55 1.2,-6.54 -2.86,-11.56 -5.01,-14.62 -15,-17.68 -9.41,-2.89 -7.21,-2.38 -5.27,6.99z"/>
   <path class="fil7" d="M1141.98 207.72c4.82,2.08 11.87,2.18 11.53,1.37 -1.52,-3.66 -8.14,-11.5 -15.34,-12.49 -13.82,-1.9 -6.77,6.54 3.81,11.12z"/>
   <path class="fil9" d="M1216.02 283.79c0.24,4.12 -0.12,9.02 7.99,13.89 15.28,9.18 8.31,3.04 6.16,-6.56 -1.81,-8.05 -5.04,-8.43 -12.15,-10.69 -3.51,-1.11 -2.11,1.5 -2,3.36z"/>
   <path class="fil9" d="M1227.19 122.53c-5.64,8.6 -3.82,17.74 -2.05,23.39 1.37,4.37 0.71,4.39 3.55,-1.79 2.31,-5.01 5.85,-8.86 3.54,-14.81 -1.25,-3.22 -2.58,-6.11 -3.1,-7.3 -0.5,-1.17 -0.87,-1.12 -1.94,0.51z"/>
   <path class="fil9" d="M1096.66 241.46c5.24,0.3 11.89,-2.03 11.3,-2.67 -2.69,-2.92 -11.59,-8.01 -18.7,-6.47 -13.63,2.96 -4.11,8.46 7.4,9.14z"/>
   <path class="fil9" d="M1276.84 290.15c-1.79,3.17 -5.64,6.18 -5.79,5.59 -0.7,-2.65 -0.34,-9.76 3.22,-13.32 6.83,-6.85 6.48,0.76 2.57,7.73z"/>
   <path class="fil7" d="M1267.54 344.37c-2.36,-0.6 -9.25,7.94 -11.16,12.62 -1.46,3.57 -4.13,6.71 0.42,5.4 4.07,-1.18 10.47,-4.47 11.29,-8.52 0.61,-2.99 0.42,-9.26 -0.55,-9.5z"/>
   <path class="fil7" d="M1076.92 333.57c2.47,-0.63 9.73,8.36 11.74,13.29 1.54,3.77 4.36,7.07 -0.43,5.68 -4.29,-1.23 -11.03,-4.7 -11.9,-8.97 -0.64,-3.14 -0.44,-9.75 0.59,-10z"/>
   <path class="fil7" d="M1293.84 153.48c-13.06,0.09 -19.45,6.91 -21.32,16.62 -1.21,6.27 -0.69,6.61 3.4,1.82 4.44,-5.21 11.68,-13.45 21.55,-14.37 8.72,-0.81 3.42,-4.12 -3.63,-4.07z"/>
   <path class="fil7" d="M1198.45 165.54c2.95,0.09 8.16,12.38 8.83,18.5 0.52,4.67 2.6,9.23 -2.28,6.18 -4.38,-2.74 -10.77,-8.72 -10.38,-13.74 0.29,-3.7 2.6,-10.97 3.83,-10.94z"/>
   <path class="fil9" d="M1251.93 233.92c-1.49,0.15 -3.7,6.58 -3.83,9.71 -0.09,2.39 -0.99,4.78 1.38,3.05 2.13,-1.54 5.16,-4.81 4.78,-7.34 -0.27,-1.87 -1.7,-5.49 -2.33,-5.42z"/>
   <path class="fil7" d="M1135.57 293.89c7.74,-2.31 16.14,-9.19 14.94,-9.81 -5.42,-2.8 -20.98,-5.48 -30.44,0.49 -18.16,11.46 -1.49,14.41 15.5,9.32z"/>
   <path class="fil7" d="M1350.36 192.91c-4.54,2.64 -11.53,3.56 -11.29,2.71 1.08,-3.81 6.74,-12.37 13.78,-14.2 13.5,-3.5 7.48,5.71 -2.49,11.49z"/>
   <path class="fil9" d="M1113.77 357.92c2.41,-0.61 9.5,8.16 11.46,12.97 1.5,3.68 4.25,6.9 -0.42,5.55 -4.19,-1.21 -10.77,-4.59 -11.61,-8.75 -0.63,-3.07 -0.44,-9.52 0.57,-9.77z"/>
   <path class="fil7" d="M1350.87 255.74c-4.86,7.73 -9.11,8.48 -13.48,8.75 -5.56,0.34 -8.52,-0.29 -15.83,2.89 -4.07,1.77 -4.35,0.41 1.42,-8.04 8.24,-12.06 12.03,-14.66 24.84,-13.89 12.05,0.72 9.31,0.36 3.05,10.29z"/>
   <path class="fil7" d="M1308.21 197.7c0.84,2.33 -7.1,10.2 -11.65,12.62 -3.47,1.85 -6.38,4.88 -5.51,0.14 0.77,-4.26 3.44,-11.08 7.46,-12.34 2.97,-0.92 9.35,-1.38 9.7,-0.42z"/>
   <path class="fil7" d="M1275.06 110.11c-2.15,0.22 -5.33,9.46 -5.51,13.97 -0.13,3.43 -1.42,6.87 1.99,4.39 3.06,-2.22 7.42,-6.92 6.88,-10.57 -0.4,-2.68 -2.46,-7.88 -3.36,-7.79z"/>
  </g>
 </g>
</svg>
