<?xml version="1.0" encoding="UTF-8"?>
<!DOCTYPE svg PUBLIC "-//W3C//DTD SVG 1.1//EN" "http://www.w3.org/Graphics/SVG/1.1/DTD/svg11.dtd">
<!-- Creator: CorelDRAW 2020 (64-Bit) -->
<svg xmlns="http://www.w3.org/2000/svg" xml:space="preserve" width="682px" height="403px" version="1.1" style="shape-rendering:geometricPrecision; text-rendering:geometricPrecision; image-rendering:optimizeQuality; fill-rule:evenodd; clip-rule:evenodd"
viewBox="0 0 194.32 114.78"
 xmlns:xlink="http://www.w3.org/1999/xlink"
 xmlns:xodm="http://www.corel.com/coreldraw/odm/2003">
 <defs>
  <style type="text/css">
   <![CDATA[
    .str1 {stroke:black;stroke-width:0.29;stroke-miterlimit:22.9256}
    .str0 {stroke:#CC6633;stroke-width:0.29;stroke-miterlimit:22.9256}
    .str2 {stroke:white;stroke-width:0.29;stroke-miterlimit:22.9256}
    .str3 {stroke:#CC6633;stroke-width:0.48;stroke-miterlimit:22.9256}
    .fil7 {fill:none}
    .fil3 {fill:#F5B2B6}
    .fil5 {fill:black}
    .fil0 {fill:#006633}
    .fil1 {fill:#009933}
    .fil2 {fill:#99CC33}
    .fil4 {fill:#CC6633}
    .fil6 {fill:white}
   ]]>
  </style>
 </defs>
 <g id="Layer_x0020_1">
  <metadata id="CorelCorpID_0Corel-Layer"/>
  <g id="_2824360892704">
   <g>
    <path class="fil0" d="M34.75 93.22c-2.57,-9.2 6.12,-8.73 -0.4,-10.81 -12.75,-4.08 -18.25,-15.31 -11.35,-27.08 2.26,-3.86 5.36,-5.37 9.44,-6 1.5,-0.23 -3.26,-3.93 -3.89,-5.05 -6.27,-11.11 10.92,-21.39 24.41,-19.64 4.92,0.64 0.08,-6.85 5.86,-11.89 14.46,-12.62 48.62,-7.7 58.92,12.74 1.4,2.79 39.04,-26.84 48.89,6.36 1.38,4.66 -1.85,11.63 4.88,13.94 5.92,2.03 15.06,4.14 14.42,13.01 -0.53,7.47 -5.6,8.35 -7.57,11.93 -0.69,1.25 6.66,0.65 6.88,8.51 0.45,15.82 -24.59,19.52 -38.34,20.32 -22.88,1.34 -49.8,1.33 -73.84,3.21 -10.02,0.78 -34.48,4.16 -38.31,-9.55z"/>
    <path class="fil1" d="M156.66 38.57c-4.8,2.91 -6.04,7.84 -6.5,11.03 -0.35,2.48 -0.68,2.33 2.17,-0.04 2.31,-1.93 4.96,-3 5.22,-6.47 0.14,-1.88 0.16,-3.61 0.18,-4.32 0.03,-0.69 -0.16,-0.76 -1.07,-0.2z"/>
    <path class="fil2" d="M38.9 11.88c0.94,3.95 2.62,4.88 4.42,5.62 2.29,0.94 3.62,1.1 6.24,3.49 1.46,1.32 1.77,0.79 0.56,-3.59 -1.74,-6.25 -2.96,-7.89 -8.45,-9.41 -5.18,-1.42 -3.97,-1.18 -2.77,3.89z"/>
    <path class="fil1" d="M74.14 31.18c1.51,1.48 4.14,2.53 4.13,2.17 -0.05,-1.59 -1.4,-5.48 -3.96,-6.89 -4.92,-2.7 -3.48,1.48 -0.17,4.72z"/>
    <path class="fil2" d="M129.45 61.41c-1.29,-0.29 -4.91,4.47 -5.88,7.05 -0.74,1.97 -2.15,3.72 0.31,2.94 2.2,-0.71 5.64,-2.6 6.02,-4.82 0.29,-1.64 0.09,-5.06 -0.45,-5.17z"/>
    <path class="fil2" d="M185.31 26.69c-4.8,2.92 -6.05,7.84 -6.5,11.04 -0.35,2.47 -0.68,2.33 2.17,-0.05 2.31,-1.92 4.95,-2.99 5.21,-6.46 0.14,-1.88 0.17,-3.61 0.19,-4.32 0.02,-0.69 -0.16,-0.76 -1.07,-0.21z"/>
    <path class="fil2" d="M139.7 28.67c-0.63,1.01 -1.54,2.1 -0.45,4.6 2.05,4.71 1.44,2.1 2.54,-0.51 0.92,-2.19 0.23,-2.82 -1.06,-4.54 -0.64,-0.84 -0.75,0 -1.03,0.45z"/>
    <path class="fil2" d="M123.87 1.73c-4.05,3.86 -4.05,7.86 -1.79,11.45 1.46,2.31 1.73,2.26 1.6,-0.43 -0.14,-2.93 -0.3,-7.63 2.52,-10.81 2.48,-2.81 -0.14,-2.29 -2.33,-0.21z"/>
    <path class="fil2" d="M113.26 9.41c0.79,-0.22 3.2,2.59 3.89,4.16 0.53,1.19 1.46,2.22 -0.09,1.82 -1.38,-0.35 -3.58,-1.4 -3.89,-2.77 -0.24,-1 -0.23,-3.12 0.09,-3.21z"/>
   </g>
   <g>
    <path class="fil1" d="M151.33 81.69c0.65,-2.13 2,-5.61 6.68,-6.46 11.46,-2.07 10.54,11.14 17.28,10.79 5.4,-0.28 16.12,0.05 17.76,5.84 1.01,3.59 2.24,10.5 0.07,14.34 -3.01,5.3 -15.53,-0.2 -31.26,6.88 -9.48,4.27 -22.27,-2.51 -24.03,-4 -11.31,-9.58 -3.39,-31.45 10.67,-24.8 2.62,1.24 2.11,-0.22 2.83,-2.59z"/>
    <path class="fil2" d="M149.48 95.59c0.79,-0.23 3.2,2.59 3.89,4.15 0.53,1.2 1.46,2.23 -0.09,1.83 -1.39,-0.36 -3.58,-1.41 -3.89,-2.77 -0.24,-1 -0.24,-3.12 0.09,-3.21z"/>
    <path class="fil2" d="M158.59 97.76c0.8,1.14 1.94,2.35 0.83,5.35 -2.09,5.66 -1.55,2.56 -3.01,-0.42 -1.23,-2.51 -0.46,-3.29 0.94,-5.39 0.69,-1.04 0.87,-0.05 1.24,0.46z"/>
    <path class="fil2" d="M150.87 67.39c0.79,-0.22 3.2,2.6 3.89,4.16 0.52,1.2 1.46,2.23 -0.09,1.83 -1.39,-0.36 -3.58,-1.41 -3.9,-2.77 -0.23,-1 -0.23,-3.12 0.1,-3.22z"/>
    <path class="fil3" d="M179.99 92.02c0.04,0.5 -2.1,-1.46 -2.52,0.42 -0.2,0.92 0.72,1.14 1.53,0.98 0.56,-0.12 0.8,0.21 0.23,0.57 -1.38,0.83 -0.74,1.45 -0.43,1.7 0.4,0.34 1.41,0.32 1.73,-0.93 0.11,-0.46 0.31,-0.75 0.45,-0.24 0.12,0.46 0.14,0.98 0.78,1.13 1,0.24 1.66,-0.87 1.12,-1.52 -0.26,-0.32 -1.51,-0.62 -0.08,-0.65 1.47,-0.02 0.74,-2.71 -0.87,-1.33 -0.74,0.64 -0.4,-0.45 -0.4,-0.45 0.31,-0.61 0.19,-1.4 -0.5,-1.68 -0.7,-0.29 -1.48,0.2 -1.24,1.4l0.2 0.6z"/>
   </g>
   <path class="fil4" d="M72.75 84.62c-2.44,1.67 -7.23,-1.36 -9.8,-2.75 -11.32,-6.12 -14.36,-24.63 -5.14,-31.83 5.05,-3.94 12.19,-5.61 12.46,-6.6 1.72,-6.22 -42.36,-9.66 -34.36,28.82 3.16,15.22 21.07,25.35 37.76,19.22 0.15,-0.06 -0.96,-6.87 -0.92,-6.86z"/>
   <path class="fil4" d="M103.93 85.65c-0.77,2.98 -6.83,6.91 -10.3,8.11 -1.51,0.53 -8.08,2.66 -9.42,3.36 -3.66,2.33 -9.52,2.24 -12.55,-6.11 -5.23,-14.4 13.87,-20.15 18.96,-24.55 7.16,-6.19 10.53,-17.18 4.05,-15.89 -1.06,0.21 -4.92,0.6 -4.67,0.14 1.66,-3.02 2.82,-6.52 3.01,-7.06 0.73,-2.04 -0.42,-3.46 -0.02,-5.52 0.43,-2.15 1.73,-2.7 1.71,-4.86 -0.01,-1.36 0.24,-3.86 0.45,-5.17 0.05,-0.33 1.54,-1.01 1.83,-0.9 1.02,0.37 3.04,3.76 4.35,5.36 0.43,0.53 1.21,-0.11 1.46,-0.51 0.49,-0.79 2.02,-4.03 2.18,-4.21 0.36,-0.39 1.43,-0.24 1.75,0.07 1.31,1.28 0.5,5.4 0.75,7.36 0.08,0.65 1.15,2.13 1.58,2.57 6.85,7.14 7.42,14.2 8.88,22.6 0.75,4.32 -0.33,8.54 -0.29,12.85 0.04,4.8 3.54,18.23 7.56,21.24 0.48,0.36 2.94,0.77 4.06,0.82 1.47,0.08 2.05,0.84 2.24,1.32 0.54,1.36 -0.34,2.09 -1.24,1.66 -0.78,-0.38 -0.95,-1.03 -0.93,-0.5 0.06,1.16 -1.68,0.85 -1.89,0.18 -0.36,-1.13 -0.84,-0.28 -0.99,0.02 -0.37,0.72 -2.3,0.28 -3.45,-0.54 -5.59,-3.94 -8.28,-16.64 -10.49,-17.72 -3.65,-1.79 -3.79,3.99 -3.95,5.72 -0.2,2.03 -0.02,7.92 0.2,9.81 0.18,1.51 0.2,1.83 1.84,2.21 1.96,0.46 2.69,2.63 1.27,2.64 -0.66,0.01 -0.64,-0.17 -0.85,-0.51 -0.48,-0.78 -1.16,0.54 -2.22,0.48 -1.05,-0.07 -0.83,-1.22 -1.13,-0.78 -0.6,0.89 -2.39,0.34 -1.81,-2.65 0.2,-0.99 -1.05,-6.89 -1.93,-11.04z"/>
   <path class="fil5" d="M96.38 36.81c0.29,0.56 0.02,1.24 -0.62,0.35 -0.28,-0.4 -0.49,-1 -0.25,-1.63 0.06,-0.16 0.32,-0.6 0.66,-0.9 0.93,-0.8 -0.66,0.44 0.21,2.18z"/>
   <path class="fil6" d="M95.62 45.39c-0.61,0.38 -2.67,2.12 -2.96,3.15 -0.23,0.86 1.46,1.35 2.2,0.86 0.85,-0.58 1.32,-2.41 1.51,-2.96 0.47,-1.35 0.66,-1.94 -0.75,-1.05z"/>
   <path class="fil5" d="M99.04 92.85c0.12,0.19 1.28,0.45 2.24,0.4 1.31,-0.05 3.33,1.23 3.68,2.33 0.2,0.6 -0.42,1.85 -1.78,1.9 -0.86,0.03 -0.96,-1.17 -1.22,-1.16 -0.19,0 0.53,1.53 -0.78,1.24 -0.79,-0.18 -0.69,-1.74 -1.2,-0.99 -1.55,2.31 -2.81,-0.13 -3.27,-1.79 -0.08,-0.3 1.89,-1.91 2.33,-1.93z"/>
   <path class="fil6" d="M49.9 42.54c1.36,0.67 4.51,0.01 2.52,1.41 -0.3,0.21 -1.62,0.69 -1.43,1.23 1.31,0.29 0.66,0.27 0.35,1.48 -0.11,0.39 -0.74,1.46 0.11,1.48 0.31,0.01 0.67,0.3 0.7,0.68 0.12,1.3 -0.49,2.19 -0.3,3.12 0.11,0.5 0.87,0.86 2.49,-0.43 7.41,-5.91 7.9,-5.3 13.5,-7.52 1.69,-0.68 1.88,-1.88 -2.08,-2.93 -4.45,-1.18 -18.38,0.26 -15.86,1.48z"/>
   <path class="fil6 str0" d="M82.7 87.85c7.66,0.94 13.05,-2.72 16.4,-6.31 7.11,-7.63 11.17,-18.09 9.15,-28.49 -1.54,-7.94 -5.8,-15.65 -10.85,-21.68 -0.36,-0.42 -2.42,-2.3 -2.45,-2.71 0.05,-0.33 1.74,-1.4 2.03,-1.29 1.02,0.37 3.01,3.62 4.31,5.22 0.43,0.53 1.22,0.11 1.47,-0.29 0.48,-0.79 2.12,-4.11 2.28,-4.29 0.35,-0.39 1.29,-0.24 1.61,0.06 1.31,1.28 0.52,5.32 0.68,7.29 0.08,0.98 1.41,2.4 1.78,2.81 6.62,7.24 7.16,13.65 8.52,22.09 0.7,4.33 -0.33,8.64 -0.29,12.95 0.02,3.05 1.64,8.05 -0.79,14.04 -0.2,-0.42 -0.5,-1.12 -0.69,-1.57 -1.13,-2.7 -2.15,-5.67 -3.39,-6.17 -4.48,-1.82 -3.94,6.11 -4.1,7.84 -0.06,0.61 -0.81,-0.2 -3.43,-1.25 -0.64,1.92 -6.99,6.68 -10.37,8.1 -1.88,0.79 -7.21,1.97 -9.68,2.54 -0.31,0.07 -2.21,-8.71 -2.19,-8.89z"/>
   <path class="fil5 str1" d="M116.44 87.22c0.21,-0.57 1.25,-11.01 1.49,-10.08 0.82,3.15 3.02,10.77 3.83,12.39 1.17,2.31 2,4.03 3.3,5 0.48,0.36 2.94,0.77 4.06,0.83 1.47,0.07 2.05,0.83 2.24,1.31 0.55,1.36 -0.33,2.09 -1.24,1.66 -0.78,-0.38 -0.95,-1.03 -0.93,-0.5 0.06,1.16 -1.68,0.85 -1.89,0.18 -0.36,-1.12 -0.84,-0.28 -0.99,0.02 -0.37,0.72 -2.3,0.28 -3.45,-0.54 -1.77,-1.25 -3.44,-4.01 -4.75,-6.54 -0.21,-0.4 -1.48,-3.35 -1.67,-3.73z"/>
   <path class="fil4" d="M81.24 87.88c0.11,-0.07 3.29,8.98 3.39,8.91 4.17,-2.92 5.33,-8.98 -3.39,-8.91z"/>
   <path class="fil7 str2" d="M84.47 96.85c4.43,-2.83 5.71,-9.04 -3.23,-8.97"/>
   <path class="fil7 str3" d="M103.41 80c-0.05,1.25 -0.53,2.4 0.55,3.6 0.25,0.26 0.65,3.1 0.91,4.31"/>
   <path class="fil5" d="M96.9 27.16c0.13,0.02 -0.5,1.1 -0.56,1.22 -0.12,0.27 -0.91,1.46 -1.14,1.46 -0.43,0.01 -0.56,-1.86 -0.56,-2.15 0,-0.77 1.69,-0.64 2.26,-0.53z"/>
   <path class="fil5 str1" d="M104.24 85.67c0.38,3.18 1.22,12.6 1.49,13.25 0.13,0.31 0.17,0.97 0.79,1.09 0.97,0.19 1.11,-0.28 1.47,-0.16 0.05,0.25 0.79,0.69 1.18,0.69 1.29,-0.01 1,-0.92 1.63,-0.61 0.04,0.02 0.26,0.4 0.52,0.45 1.29,0.26 2.14,-0.59 1.29,-1.59 -0.92,-1.07 -0.64,-0.65 -1.81,-1.26 -0.06,-0.03 -1.01,-0.31 -1.65,-0.68 -0.62,-0.21 -0.74,-8.29 -0.78,-9.34 -0.01,-0.35 -2.19,-1.95 -3.46,-2.78 -0.83,-0.55 -0.76,0.14 -0.67,0.94z"/>
   <path class="fil5 str1" d="M84.35 96.88c1.74,-1.09 2.65,-3.18 2.77,-3.18 3.2,-0.05 6.94,0.91 7.76,2.8 0.24,0.55 0.41,1.84 -0.3,2.18 -0.49,0.24 -1.45,0.05 -1.67,-0.55 -0.28,-0.73 -0.41,-0.69 -0.5,-0.09 -0.15,0.92 -1.51,1.28 -2.01,-0.01 -0.11,-0.29 -0.19,-0.91 -0.39,-0.14 -0.19,0.73 -1.64,1.29 -2.4,0.37 -1.26,-1.52 -2.01,-1.24 -2.97,-1.16 -0.61,0.05 -0.67,0.03 -0.29,-0.22z"/>
   <path class="fil6" d="M95.64 42.24c-1.43,0.24 -2.89,2.07 -2.98,2.4 -0.02,0.08 -0.52,1.27 -0.37,1.06 0.69,-0.98 1.82,-2.54 3.24,-2.98 0.24,-0.07 0.17,-0.05 0.17,-0.29 0,-0.06 -0.06,-0.19 -0.06,-0.19z"/>
   <g>
    <path class="fil1" d="M58.92 112.21c29.54,5.91 42.42,1.21 43.94,-9.88 1.48,-10.77 -11.64,-27.56 -23.5,-20.3 -3.22,1.97 -2.92,-1.34 -4.63,-4.76 -9.72,-19.39 -24.2,-17.49 -35.66,-1.02 -0.82,1.18 -9.69,-5.86 -16.12,-4.71 -12.33,2.22 -21.13,13.39 -17.92,25.01 6.45,23.45 27.11,10.31 53.89,15.66z"/>
    <path class="fil2" d="M62.83 99.93c-0.42,-1.05 -2.47,-3.1 -4.39,-3.37 -2.64,-0.38 -4.65,1.8 -5.35,4.17 -0.4,1.36 0.63,0.58 1.28,0.22 1.65,-0.89 5.68,-2.21 8.25,-0.38 0.41,0.3 0.63,0.41 0.21,-0.64z"/>
    <path class="fil2" d="M67.49 86.51c-4.05,3.86 -4.05,7.86 -1.78,11.44 1.46,2.31 1.72,2.27 1.59,-0.43 -0.14,-2.93 -0.29,-7.62 2.52,-10.8 2.49,-2.82 -0.14,-2.29 -2.33,-0.21z"/>
    <path class="fil2" d="M7.1 69.38c2.79,0.65 6.58,0.01 6.32,-0.39 -1.17,-1.82 -5.49,-5.38 -9.46,-5.2 -7.6,0.34 -2.98,4.17 3.14,5.59z"/>
    <path class="fil0" d="M9.54 91.1c0.52,1.07 0.96,2.41 3.65,2.82 5.08,0.76 2.55,-0.11 0.92,-2.43 -1.37,-1.94 -2.27,-1.69 -4.41,-1.51 -1.06,0.09 -0.4,0.64 -0.16,1.12z"/>
    <path class="fil0" d="M25.77 88c-4.8,2.91 -6.04,7.84 -6.5,11.03 -0.35,2.48 -0.68,2.33 2.17,-0.04 2.31,-1.93 4.96,-3 5.21,-6.47 0.14,-1.88 0.17,-3.61 0.19,-4.32 0.03,-0.69 -0.16,-0.76 -1.07,-0.2z"/>
    <path class="fil3" d="M54.88 80.6c0.05,0.65 -2.75,-1.91 -3.29,0.55 -0.27,1.21 0.93,1.5 2,1.28 0.73,-0.15 1.05,0.29 0.29,0.75 -1.8,1.09 -0.97,1.89 -0.56,2.23 0.53,0.44 1.84,0.42 2.26,-1.22 0.15,-0.6 0.42,-0.99 0.59,-0.31 0.16,0.59 0.18,1.27 1.02,1.47 1.32,0.32 2.18,-1.13 1.47,-1.99 -0.34,-0.41 -1.97,-0.81 -0.11,-0.84 1.92,-0.03 0.97,-3.55 -1.13,-1.75 -0.97,0.84 -0.53,-0.58 -0.52,-0.58 0.39,-0.8 0.24,-1.83 -0.66,-2.2 -0.92,-0.38 -1.94,0.27 -1.62,1.83l0.26 0.78z"/>
    <path class="fil3" d="M82.42 99.28c0.03,0.46 -1.95,-1.36 -2.34,0.39 -0.19,0.85 0.66,1.06 1.42,0.91 0.52,-0.11 0.75,0.2 0.21,0.53 -1.28,0.77 -0.69,1.34 -0.4,1.58 0.38,0.32 1.31,0.3 1.61,-0.87 0.11,-0.42 0.3,-0.7 0.42,-0.22 0.11,0.43 0.13,0.91 0.72,1.05 0.94,0.22 1.55,-0.8 1.05,-1.41 -0.24,-0.3 -1.4,-0.58 -0.08,-0.6 1.36,-0.02 0.68,-2.52 -0.8,-1.24 -0.69,0.59 -0.38,-0.41 -0.38,-0.42 0.29,-0.56 0.18,-1.3 -0.46,-1.56 -0.65,-0.26 -1.38,0.19 -1.15,1.3l0.18 0.56z"/>
   </g>
  </g>
 </g>
</svg>
