<?xml version="1.0" encoding="UTF-8"?>
<!DOCTYPE svg PUBLIC "-//W3C//DTD SVG 1.1//EN" "http://www.w3.org/Graphics/SVG/1.1/DTD/svg11.dtd">
<!-- Creator: CorelDRAW 2020 (64-Bit) -->
<svg xmlns="http://www.w3.org/2000/svg" xml:space="preserve" width="160px" height="160px" version="1.1" style="shape-rendering:geometricPrecision; text-rendering:geometricPrecision; image-rendering:optimizeQuality; fill-rule:evenodd; clip-rule:evenodd"
viewBox="0 0 11.73 11.73"
 xmlns:xlink="http://www.w3.org/1999/xlink"
 xmlns:xodm="http://www.corel.com/coreldraw/odm/2003">
 <defs>
  <style type="text/css">
   <![CDATA[
    .fil0 {fill:none}
    .fil4 {fill:black}
    .fil2 {fill:black;fill-rule:nonzero}
    .fil1 {fill:#B3B3B3;fill-rule:nonzero}
    .fil3 {fill:#B3B3B3;fill-rule:nonzero}
   ]]>
  </style>
 </defs>
 <g id="Layer_x0020_1">
  <metadata id="CorelCorpID_0Corel-Layer"/>
  <g id="_1985161386576">
   <rect class="fil0" width="11.73" height="11.73"/>
   <g>
    <g>
     <path class="fil1" d="M5.23 4.37l-0.23 0.39 0 0 -0.2 -0.12 -0.2 -0.11 -0.19 -0.08 -0.19 -0.07 -0.18 -0.05 -0.19 -0.03 -0.18 -0.01 -0.18 0 -0.17 0.02 -0.17 0.03 -0.16 0.05 -0.17 0.06 -0.15 0.08 -0.16 0.09 -0.15 0.1 -0.14 0.12 -0.14 0.13 -0.13 0.14 -0.12 0.15 -0.12 0.16 -0.11 0.18 -0.1 0.18 -0.1 0.19 -0.08 0.21 -0.08 0.21 -0.07 0.22 -0.06 0.23 -0.04 0.23 -0.04 0.24 -0.02 0.25 -0.02 0.25 0 0.26 -0.43 0.01 0 -0.28 0.01 -0.28 0.03 -0.27 0.04 -0.27 0.05 -0.26 0.07 -0.25 0.07 -0.24 0.09 -0.24 0.09 -0.22 0.11 -0.22 0.11 -0.21 0.13 -0.2 0.13 -0.18 0.15 -0.18 0.15 -0.16 0.16 -0.15 0.17 -0.14 0.17 -0.12 0.18 -0.11 0.19 -0.09 0.2 -0.07 0.2 -0.06 0.2 -0.04 0.21 -0.02 0.22 0 0.21 0.01 0.22 0.04 0.22 0.06 0.22 0.07 0.23 0.1 0.22 0.12 0.22 0.15 0 0zm3.48 3.81l-0.07 0.47 0 0 -0.19 -0.05 -0.18 -0.05 -0.16 -0.07 -0.16 -0.07 -0.14 -0.09 -0.14 -0.1 -0.13 -0.1 -0.12 -0.11 -0.11 -0.12 -0.11 -0.13 -0.1 -0.13 -0.1 -0.13 -0.09 -0.14 -0.08 -0.14 -0.09 -0.14 -0.08 -0.15 -0.08 -0.14 -0.09 -0.15 -0.08 -0.15 -0.08 -0.14 -0.09 -0.15 -0.08 -0.14 -0.09 -0.15 -0.1 -0.14 -0.1 -0.14 -0.1 -0.13 -0.11 -0.14 -0.12 -0.12 -0.12 -0.13 -0.13 -0.12 -0.14 -0.11 -0.15 -0.12 0.23 -0.39 0.17 0.12 0.16 0.13 0.15 0.14 0.14 0.14 0.13 0.14 0.12 0.15 0.11 0.15 0.11 0.15 0.1 0.15 0.1 0.15 0.09 0.16 0.09 0.15 0.08 0.15 0.09 0.15 0.08 0.14 0.08 0.15 0.08 0.14 0.08 0.13 0.08 0.13 0.08 0.13 0.09 0.12 0.09 0.11 0.09 0.11 0.09 0.1 0.1 0.09 0.11 0.09 0.11 0.07 0.12 0.07 0.12 0.07 0.14 0.05 0.15 0.04 0.15 0.04 0 0zm2 -2.13l0.43 -0.07 0.02 0.15 0 0.14 0 0.14 -0.01 0.14 -0.02 0.13 -0.02 0.14 -0.03 0.13 -0.04 0.13 -0.05 0.13 -0.05 0.12 -0.06 0.12 -0.06 0.12 -0.07 0.11 -0.08 0.11 -0.08 0.1 -0.08 0.1 -0.09 0.09 -0.1 0.09 -0.1 0.08 -0.1 0.07 -0.11 0.07 -0.11 0.06 -0.11 0.06 -0.12 0.05 -0.12 0.04 -0.13 0.03 -0.12 0.03 -0.13 0.01 -0.13 0.01 -0.13 0 -0.14 -0.01 -0.13 -0.02 0.07 -0.47 0.11 0.02 0.11 0.01 0.1 0 0.1 -0.01 0.1 -0.01 0.1 -0.02 0.1 -0.03 0.1 -0.03 0.09 -0.04 0.09 -0.04 0.09 -0.05 0.09 -0.06 0.08 -0.06 0.08 -0.06 0.08 -0.07 0.07 -0.08 0.07 -0.08 0.06 -0.08 0.06 -0.09 0.06 -0.09 0.05 -0.09 0.05 -0.1 0.04 -0.1 0.04 -0.1 0.03 -0.1 0.02 -0.11 0.02 -0.1 0.02 -0.11 0.01 -0.11 0 -0.11 -0.01 -0.12 -0.01 -0.11z"/>
    </g>
    <g>
     <path class="fil2" d="M5.15 4.51l-0.07 0.11 0 0 -0.2 -0.14 -0.21 -0.11 -0.2 -0.1 -0.19 -0.07 -0.2 -0.06 -0.2 -0.04 -0.19 -0.01 -0.19 0 -0.18 0.02 -0.18 0.03 -0.18 0.05 -0.18 0.07 -0.16 0.08 -0.17 0.1 -0.16 0.11 -0.15 0.13 -0.15 0.13 -0.14 0.16 -0.13 0.16 -0.12 0.17 -0.12 0.19 -0.11 0.19 -0.1 0.21 -0.09 0.21 -0.08 0.22 -0.07 0.23 -0.06 0.24 -0.05 0.25 -0.04 0.25 -0.03 0.25 -0.01 0.27 0 0.26 -0.13 0 0 -0.27 0.02 -0.27 0.03 -0.26 0.03 -0.26 0.06 -0.25 0.06 -0.24 0.07 -0.24 0.08 -0.23 0.1 -0.22 0.1 -0.21 0.11 -0.21 0.12 -0.19 0.13 -0.18 0.14 -0.17 0.15 -0.15 0.15 -0.15 0.16 -0.13 0.17 -0.12 0.17 -0.1 0.18 -0.08 0.18 -0.08 0.19 -0.05 0.19 -0.04 0.2 -0.02 0.2 0 0.2 0.02 0.21 0.04 0.2 0.06 0.21 0.08 0.21 0.1 0.21 0.12 0.21 0.14 0 0zm3.54 3.84l-0.03 0.13 0 0 -0.16 -0.04 -0.16 -0.05 -0.15 -0.06 -0.14 -0.07 -0.13 -0.08 -0.12 -0.09 -0.12 -0.09 -0.11 -0.1 -0.11 -0.11 -0.1 -0.12 -0.1 -0.12 -0.09 -0.13 -0.09 -0.13 -0.09 -0.13 -0.08 -0.14 -0.09 -0.14 -0.08 -0.15 -0.09 -0.14 -0.08 -0.15 -0.09 -0.15 -0.09 -0.15 -0.09 -0.14 -0.1 -0.15 -0.1 -0.15 -0.1 -0.14 -0.11 -0.15 -0.12 -0.14 -0.12 -0.14 -0.13 -0.13 -0.14 -0.13 -0.15 -0.13 -0.15 -0.12 0.07 -0.11 0.16 0.13 0.15 0.13 0.14 0.13 0.14 0.14 0.12 0.14 0.12 0.14 0.11 0.15 0.11 0.15 0.1 0.15 0.1 0.15 0.09 0.15 0.1 0.15 0.08 0.15 0.09 0.15 0.08 0.14 0.09 0.14 0.08 0.14 0.09 0.14 0.08 0.13 0.09 0.13 0.09 0.12 0.09 0.12 0.1 0.11 0.1 0.11 0.11 0.09 0.11 0.09 0.11 0.09 0.13 0.07 0.13 0.07 0.14 0.05 0.15 0.05 0.16 0.04 0 0zm2.17 -2.32l0.13 -0.02 0.01 0.13 0.01 0.13 -0.01 0.13 0 0.13 -0.02 0.13 -0.02 0.12 -0.03 0.13 -0.04 0.12 -0.04 0.11 -0.05 0.12 -0.05 0.11 -0.06 0.11 -0.07 0.1 -0.07 0.1 -0.07 0.1 -0.08 0.09 -0.09 0.09 -0.08 0.08 -0.1 0.07 -0.09 0.07 -0.1 0.07 -0.11 0.06 -0.1 0.05 -0.11 0.04 -0.11 0.04 -0.12 0.03 -0.12 0.02 -0.11 0.02 -0.13 0 -0.12 0 -0.12 -0.01 -0.13 -0.02 0.03 -0.13 0.11 0.02 0.12 0.01 0.11 0 0.12 -0.01 0.11 -0.01 0.11 -0.02 0.1 -0.03 0.11 -0.04 0.1 -0.04 0.1 -0.05 0.1 -0.05 0.09 -0.06 0.09 -0.07 0.09 -0.07 0.08 -0.07 0.08 -0.09 0.07 -0.08 0.07 -0.09 0.07 -0.1 0.06 -0.09 0.06 -0.11 0.05 -0.1 0.04 -0.11 0.04 -0.11 0.04 -0.11 0.03 -0.12 0.02 -0.11 0.01 -0.12 0.01 -0.12 0 -0.13 0 -0.12 -0.02 -0.12z"/>
    </g>
    <g id="_1985161388160">
     <g>
      <path class="fil3" d="M3.67 2.62l0.86 0.24 -0.54 0.59 -0.32 -0.83zm0.71 0.56l-0.08 0.11 -0.09 -0.09 0.08 -0.1 0.09 0.08zm0.2 0.18l-0.08 0.1 -0.1 -0.09 0.08 -0.1 0.1 0.09zm0.19 0.17l-0.08 0.1 -0.1 -0.08 0.08 -0.11 0.1 0.09zm0.19 0.17l-0.08 0.11 -0.1 -0.09 0.08 -0.1 0.1 0.08zm0.19 0.18l-0.08 0.1 -0.1 -0.09 0.08 -0.1 0.1 0.09zm0.19 0.17l-0.08 0.1 -0.1 -0.08 0.08 -0.11 0.1 0.09zm0.19 0.17l-0.08 0.11 -0.1 -0.09 0.08 -0.1 0.1 0.08zm0.19 0.18l-0.08 0.1 -0.1 -0.09 0.08 -0.1 0.1 0.09z"/>
     </g>
     <g>
      <path class="fil3" d="M7.79 6.37l-0.86 -0.24 0.53 -0.59 0.33 0.83zm-0.72 -0.57l0.08 -0.1 0.09 0.09 -0.08 0.1 -0.09 -0.09zm-0.19 -0.17l0.08 -0.1 0.09 0.08 -0.08 0.11 -0.09 -0.09zm-0.19 -0.17l0.08 -0.11 0.09 0.09 -0.08 0.1 -0.09 -0.08zm-0.19 -0.18l0.08 -0.1 0.09 0.09 -0.08 0.1 -0.09 -0.09zm-0.19 -0.17l0.08 -0.1 0.09 0.08 -0.08 0.11 -0.09 -0.09zm-0.2 -0.17l0.08 -0.11 0.1 0.09 -0.08 0.1 -0.1 -0.08zm-0.19 -0.18l0.08 -0.1 0.1 0.09 -0.08 0.1 -0.1 -0.09zm-0.19 -0.17l0.08 -0.1 0.1 0.08 -0.08 0.11 -0.1 -0.09z"/>
     </g>
    </g>
    <g>
     <polygon class="fil4" points="5.13,4.49 5.75,4.49 5.75,5.15 5.13,5.15 "/>
     <path id="1" class="fil1" d="M5.75 4.56l-0.62 0 0 -0.13 0.62 0 0.06 0.06 -0.06 0.07zm0 -0.13l0.06 0 0 0.06 -0.06 -0.06zm-0.07 0.72l0 -0.66 0.13 0 0 0.66 -0.06 0.07 -0.07 -0.07zm0.13 0l0 0.07 -0.06 0 0.06 -0.07zm-0.68 -0.06l0.62 0 0 0.13 -0.62 0 -0.06 -0.07 0.06 -0.06zm0 0.13l-0.06 0 0 -0.07 0.06 0.07zm0.06 -0.73l0 0.66 -0.12 0 0 -0.66 0.06 -0.06 0.06 0.06zm-0.12 0l0 -0.06 0.06 0 -0.06 0.06z"/>
    </g>
    <g>
     <polygon class="fil4" points="0.46,7.87 1.08,7.87 1.08,8.53 0.46,8.53 "/>
     <path id="1" class="fil1" d="M1.08 7.94l-0.62 0 0 -0.14 0.62 0 0.06 0.07 -0.06 0.07zm0 -0.14l0.06 0 0 0.07 -0.06 -0.07zm-0.06 0.73l0 -0.66 0.12 0 0 0.66 -0.06 0.07 -0.06 -0.07zm0.12 0l0 0.07 -0.06 0 0.06 -0.07zm-0.68 -0.07l0.62 0 0 0.14 -0.62 0 -0.06 -0.07 0.06 -0.07zm0 0.14l-0.06 0 0 -0.07 0.06 0.07zm0.07 -0.73l0 0.66 -0.13 0 0 -0.66 0.06 -0.07 0.07 0.07zm-0.13 0l0 -0.07 0.06 0 -0.06 0.07z"/>
    </g>
    <g>
     <path class="fil3" d="M0.52 4.86l0.39 0.81 -0.8 -0.01 0.41 -0.8zm0.05 0.93l-0.13 0 0.01 -0.14 0.12 0 0 0.14zm0 0.27l-0.13 -0.01 0 -0.13 0.13 0 0 0.14zm-0.01 0.27l-0.12 -0.01 0 -0.13 0.12 0 0 0.14zm0 0.27l-0.12 -0.01 0 -0.13 0.12 0 0 0.14zm0 0.27l-0.13 -0.01 0 -0.13 0.13 0 0 0.14zm-0.01 0.27l-0.12 -0.01 0 -0.13 0.12 0 0 0.14zm0 0.27l-0.12 -0.01 0 -0.13 0.12 0 0 0.14zm0 0.27l-0.13 -0.01 0 -0.13 0.13 0 0 0.14z"/>
    </g>
    <g>
     <polygon class="fil4" points="10.65,5.44 11.26,5.44 11.26,6.1 10.65,6.1 "/>
     <path id="1" class="fil1" d="M11.26 5.51l-0.61 0 0 -0.13 0.61 0 0.06 0.06 -0.06 0.07zm0 -0.13l0.06 0 0 0.06 -0.06 -0.06zm-0.06 0.72l0 -0.66 0.12 0 0 0.66 -0.06 0.07 -0.06 -0.07zm0.12 0l0 0.07 -0.06 0 0.06 -0.07zm-0.67 -0.06l0.61 0 0 0.13 -0.61 0 -0.06 -0.07 0.06 -0.06zm0 0.13l-0.06 0 0 -0.07 0.06 0.07zm0.06 -0.73l0 0.66 -0.12 0 0 -0.66 0.06 -0.06 0.06 0.06zm-0.12 0l0 -0.06 0.06 0 -0.06 0.06z"/>
    </g>
    <g>
     <path class="fil3" d="M11.22 9.11l-0.39 -0.8 0.8 0 -0.41 0.8zm-0.05 -0.92l0.13 0 0 0.13 -0.13 0 0 -0.13zm0.01 -0.27l0.12 0 0 0.13 -0.13 0 0.01 -0.13zm0 -0.27l0.12 0 0 0.13 -0.12 0 0 -0.13zm0 -0.27l0.13 0 -0.01 0.13 -0.12 0 0 -0.13zm0 -0.27l0.13 0 0 0.13 -0.13 0 0 -0.13zm0.01 -0.27l0.12 0 0 0.13 -0.12 0 0 -0.13zm0 -0.27l0.13 0 -0.01 0.13 -0.12 0 0 -0.13zm0 -0.27l0.13 0 0 0.13 -0.13 0 0 -0.13z"/>
    </g>
    <g>
     <polygon class="fil4" points="8.58,8.07 9.19,8.07 9.19,8.73 8.58,8.73 "/>
     <path id="1" class="fil1" d="M9.19 8.14l-0.61 0 0 -0.14 0.61 0 0.06 0.07 -0.06 0.07zm0 -0.14l0.06 0 0 0.07 -0.06 -0.07zm-0.06 0.73l0 -0.66 0.12 0 0 0.66 -0.06 0.07 -0.06 -0.07zm0.12 0l0 0.07 -0.06 0 0.06 -0.07zm-0.67 -0.07l0.61 0 0 0.14 -0.61 0 -0.07 -0.07 0.07 -0.07zm0 0.14l-0.07 0 0 -0.07 0.07 0.07zm0.06 -0.73l0 0.66 -0.13 0 0 -0.66 0.07 -0.07 0.06 0.07zm-0.13 0l0 -0.07 0.07 0 -0.07 0.07z"/>
    </g>
    <g>
     <path class="fil3" d="M5.94 8.7l0.8 -0.39 -0.01 0.8 -0.79 -0.41zm0.91 -0.06l0 0.14 -0.13 0 0.01 -0.14 0.12 0zm0.25 0.01l0 0.13 -0.13 0 0 -0.13 0.13 0zm0.25 0l0 0.14 -0.13 -0.01 0 -0.13 0.13 0zm0.25 0.01l-0.01 0.13 -0.12 0 0 -0.14 0.13 0.01zm0.25 0l-0.01 0.13 -0.12 0 0 -0.13 0.13 0zm0.24 0l0 0.14 -0.12 0 0 -0.14 0.12 0zm0.25 0.01l0 0.13 -0.12 0 0 -0.14 0.12 0.01zm0.18 0.13l-0.05 0 0 -0.13 0.05 0 0 0.13z"/>
    </g>
   </g>
  </g>
 </g>
</svg>
