<?xml version="1.0" encoding="UTF-8"?>
<!DOCTYPE svg PUBLIC "-//W3C//DTD SVG 1.1//EN" "http://www.w3.org/Graphics/SVG/1.1/DTD/svg11.dtd">
<!-- Creator: CorelDRAW 2018 (64-Bit) -->
<svg xmlns="http://www.w3.org/2000/svg" xml:space="preserve" width="9.0464mm" height="9.0464mm" version="1.1" style="shape-rendering:geometricPrecision; text-rendering:geometricPrecision; image-rendering:optimizeQuality; fill-rule:evenodd; clip-rule:evenodd"
viewBox="0 0 267.77 267.77"
 xmlns:xlink="http://www.w3.org/1999/xlink">
 <defs>
  <style type="text/css">
   <![CDATA[
    .str0 {stroke:#9999FF;stroke-width:13.03;stroke-miterlimit:22.9256}
    .fil0 {fill:none}
    .fil1 {fill:#9999FF}
   ]]>
  </style>
 </defs>
 <g id="Layer_x0020_1">
  <metadata id="CorelCorpID_0Corel-Layer"/>
  <rect class="fil0 str0" x="6.51" y="6.51" width="254.75" height="254.75"/>
  <path class="fil1" d="M56.63 43.31l17.25 0 0 87.95c6.4,-0.12 12.64,-0.85 18.68,-2.15l0 -85.8 17.25 0 0 80.33c4.73,-2.01 9.26,-4.38 13.57,-7.08l-0.03 -0.08c4.66,-2.93 9.04,-6.25 13.12,-9.91l0.04 0.1c17.75,-15.89 29.6,-38.24 31.83,-63.36l17.32 0c-2.43,32.33 -18.36,60.9 -42.17,80.08l7.73 18.53c31.01,-22.76 52.18,-58.15 55.88,-98.6l17.33 0c-2.86,35.08 -17.37,66.85 -39.65,91.45l37.43 89.7 -17.25 0 -32.4 -77.62c-4.61,4.08 -9.46,7.89 -14.53,11.4l27.63 66.21 -17.25 0 -24.09 -57.72c-10.79,5.93 -22.35,10.6 -34.51,13.85l0 43.87 -17.25 0 0 -40.3c-6.12,0.91 -12.35,1.45 -18.68,1.62l0 38.68 -17.25 0 0 -39.16c-4.48,-0.37 -8.92,-0.94 -13.28,-1.68l0 -17.54c4.36,0.84 8.79,1.48 13.28,1.9l0 -20.48c-4.52,-0.61 -8.95,-1.49 -13.28,-2.62l0 -17.95c4.31,1.34 8.74,2.39 13.28,3.12l0 -86.74zm17.25 125.21c6.34,-0.19 12.58,-0.81 18.68,-1.83l0 -19.99c-6.07,1.1 -12.31,1.72 -18.68,1.82l0 20zm35.93 -5.87c9.78,-2.97 19.09,-6.99 27.81,-11.94l-7.53 -18.04c-6.39,3.79 -13.17,6.97 -20.29,9.47l0 20.51z"/>
 </g>
</svg>
