<?xml version="1.0" encoding="UTF-8"?>
<!DOCTYPE svg PUBLIC "-//W3C//DTD SVG 1.1//EN" "http://www.w3.org/Graphics/SVG/1.1/DTD/svg11.dtd">
<!-- Creator: CorelDRAW 2018 (64-Bit) -->
<svg xmlns="http://www.w3.org/2000/svg" xml:space="preserve" width="29.0292mm" height="9.0464mm" version="1.1" style="shape-rendering:geometricPrecision; text-rendering:geometricPrecision; image-rendering:optimizeQuality; fill-rule:evenodd; clip-rule:evenodd"
viewBox="0 0 2915.05 908.42"
 xmlns:xlink="http://www.w3.org/1999/xlink">
 <defs>
  <style type="text/css">
   <![CDATA[
    .str0 {stroke:#9999FF;stroke-width:44.19;stroke-miterlimit:22.9256}
    .str1 {stroke:#9999FF;stroke-width:10.04;stroke-miterlimit:22.9256}
    .fil0 {fill:none}
    .fil1 {fill:#9999FF}
    .fil2 {fill:#9999FF;fill-rule:nonzero}
   ]]>
  </style>
 </defs>
 <g id="Layer_x0020_1">
  <metadata id="CorelCorpID_0Corel-Layer"/>
  <rect class="fil0 str0" x="22.09" y="22.09" width="864.24" height="864.24"/>
  <path class="fil1 str1" d="M192.11 146.93l58.53 0 0 298.38c21.71,-0.39 42.9,-2.88 63.37,-7.3l0 -291.08 58.53 0 0 272.53c16.04,-6.81 31.41,-14.86 46.02,-24.03l-0.11 -0.26c15.8,-9.95 30.68,-21.2 44.51,-33.61l0.14 0.33c60.22,-53.9 100.41,-129.74 107.97,-214.96l58.74 0c-8.23,109.69 -62.28,206.59 -143.06,271.66l26.24 62.85c105.22,-77.2 177.01,-197.28 189.59,-334.51l58.78 0c-9.69,119 -58.92,226.79 -134.52,310.26l127 304.3 -58.53 0 -109.91 -263.33c-15.63,13.84 -32.08,26.76 -49.29,38.69l93.75 224.63 -58.53 0 -81.73 -195.81c-36.59,20.11 -75.84,35.97 -117.07,46.99l0 148.83 -58.53 0 0 -136.71c-20.76,3.07 -41.9,4.92 -63.37,5.49l0 131.22 -58.53 0 0 -132.85c-15.21,-1.27 -30.25,-3.18 -45.07,-5.71l0 -59.5c14.78,2.86 29.82,5.02 45.07,6.45l0 -69.49c-15.32,-2.08 -30.37,-5.06 -45.07,-8.89l0 -60.88c14.61,4.55 29.65,8.1 45.07,10.58l0 -294.26zm58.53 424.77c21.52,-0.65 42.68,-2.74 63.37,-6.21l0 -67.82c-20.61,3.75 -41.77,5.84 -63.37,6.18l0 67.85zm121.91 -19.91c33.17,-10.07 64.77,-23.73 94.36,-40.51l-25.54 -61.18c-21.67,12.85 -44.7,23.66 -68.83,32.12l0 69.57z"/>
  <path class="fil2" d="M1138.39 606.11c7.32,-7.91 14.89,-16.22 22.71,-24.79 7.82,-8.58 15.39,-17.14 22.62,-25.54 7.33,-8.5 14.23,-16.48 20.72,-24.05 6.5,-7.65 12.07,-14.23 16.72,-19.89l88.46 0c-17.64,20.22 -34.87,39.6 -51.68,58 -16.8,18.47 -35.2,37.44 -55.16,57.08 9.98,8.98 20.3,19.71 30.95,32.27 10.65,12.48 20.97,25.38 30.95,38.69 9.99,13.4 19.14,26.71 27.46,40.02 8.3,13.32 15.3,25.55 20.96,36.52l-85.53 0c-5.33,-8.65 -11.4,-18.3 -18.23,-28.78 -6.74,-10.49 -13.97,-20.97 -21.63,-31.54 -7.65,-10.48 -15.73,-20.55 -24.21,-30.28 -8.4,-9.65 -16.81,-17.8 -25.12,-24.46l0 115.06 -74.38 0 0 -375.4 74.38 -11.98 0 219.07zm433.81 159.33c-12.65,3.66 -28.96,7.07 -48.92,10.23 -19.96,3.16 -40.94,4.74 -62.9,4.74 -22.29,0 -40.85,-3 -55.66,-8.98 -14.8,-5.99 -26.54,-14.4 -35.19,-25.21 -8.66,-10.82 -14.82,-23.71 -18.48,-38.69 -3.66,-14.97 -5.49,-31.45 -5.49,-49.43l0 -146.27 74.38 0 0 137.29c0,23.96 3.17,41.26 9.49,51.92 6.33,10.64 18.14,15.98 35.45,15.98 5.32,0 10.98,-0.26 16.97,-0.75 5.98,-0.5 11.32,-1.08 15.98,-1.75l0 -202.68 74.38 0 0 253.61zm264.08 -159.33c7.32,-7.91 14.89,-16.22 22.71,-24.79 7.82,-8.58 15.39,-17.14 22.62,-25.54 7.33,-8.5 14.23,-16.48 20.72,-24.05 6.5,-7.65 12.07,-14.23 16.72,-19.89l88.46 0c-17.64,20.22 -34.87,39.6 -51.68,58 -16.8,18.47 -35.2,37.44 -55.16,57.08 9.98,8.98 20.3,19.71 30.95,32.27 10.65,12.48 20.97,25.38 30.95,38.69 9.99,13.4 19.14,26.71 27.46,40.02 8.3,13.32 15.3,25.55 20.96,36.52l-85.53 0c-5.33,-8.65 -11.4,-18.3 -18.23,-28.78 -6.74,-10.49 -13.97,-20.97 -21.63,-31.54 -7.65,-10.48 -15.73,-20.55 -24.21,-30.28 -8.4,-9.65 -16.81,-17.8 -25.12,-24.46l0 115.06 -74.38 0 0 -375.4 74.38 -11.98 0 219.07zm372.9 -28.37c-6.65,-1.67 -14.47,-3.41 -23.46,-5.24 -8.99,-1.84 -18.64,-2.75 -28.95,-2.75 -4.67,0 -10.23,0.42 -16.73,1.25 -6.49,0.83 -11.4,1.75 -14.72,2.74l0 200.69 -74.38 0 0 -248.59c13.31,-4.67 29.03,-9.08 47.17,-13.24 18.14,-4.16 38.36,-6.24 60.65,-6.24 4,0 8.83,0.25 14.48,0.74 5.65,0.5 11.32,1.16 16.97,2 5.66,0.83 11.32,1.83 16.97,3 5.66,1.16 10.49,2.57 14.48,4.24l-12.48 61.41zm147.76 144.77c7.31,0 14.31,-0.17 20.96,-0.51 6.66,-0.33 11.99,-0.82 15.99,-1.5l0 -56.4c-3,-0.67 -7.49,-1.33 -13.48,-2 -5.99,-0.66 -11.49,-0.99 -16.48,-0.99 -6.99,0 -13.57,0.41 -19.72,1.25 -6.16,0.83 -11.56,2.41 -16.23,4.75 -4.65,2.32 -8.31,5.48 -10.99,9.48 -2.66,4 -3.99,8.99 -3.99,14.98 0,11.64 3.92,19.71 11.73,24.2 7.82,4.5 18.56,6.75 32.2,6.75zm-5.99 -217.67c21.97,0 40.28,2.51 54.92,7.49 14.64,4.99 26.37,12.15 35.19,21.47 8.83,9.32 15.06,20.64 18.73,33.94 3.66,13.32 5.49,28.13 5.49,44.43l0 154.75c-10.65,2.32 -25.47,5.07 -44.43,8.23 -18.97,3.16 -41.92,4.74 -68.89,4.74 -16.98,0 -32.36,-1.5 -46.18,-4.49 -13.81,-2.99 -25.71,-7.9 -35.69,-14.73 -9.99,-6.82 -17.64,-15.73 -22.97,-26.71 -5.32,-10.98 -7.98,-24.46 -7.98,-40.43 0,-15.31 3.07,-28.29 9.23,-38.93 6.16,-10.65 14.39,-19.14 24.71,-25.47 10.31,-6.33 22.13,-10.91 35.45,-13.73 13.32,-2.83 27.12,-4.24 41.43,-4.24 9.65,0 18.22,0.41 25.7,1.24 7.5,0.84 13.58,1.93 18.24,3.25l0 -6.99c0,-12.65 -3.84,-22.79 -11.49,-30.46 -7.65,-7.65 -20.96,-11.48 -39.93,-11.48 -12.65,0 -25.13,0.92 -37.45,2.74 -12.32,1.84 -22.97,4.41 -31.95,7.74l-9.48 -59.91c4.33,-1.33 9.73,-2.74 16.22,-4.24 6.49,-1.5 13.57,-2.83 21.22,-4 7.65,-1.15 15.73,-2.17 24.21,-2.99 8.49,-0.83 17.06,-1.26 25.71,-1.26zm295.53 -117.81c13.98,0 26.79,1.43 38.44,4.25 11.65,2.83 20.64,5.57 26.96,8.23l-14.48 59.41c-6.65,-3 -13.9,-5.24 -21.72,-6.74 -7.81,-1.5 -15.05,-2.25 -21.71,-2.25 -8.99,0 -16.56,1.25 -22.71,3.75 -6.16,2.5 -10.99,5.91 -14.47,10.24 -3.5,4.32 -5.99,9.48 -7.49,15.46 -1.51,5.99 -2.25,12.48 -2.25,19.47l0 12.97 91.86 0 0 61.9 -91.86 0 0 200.69 -74.38 0 0 -276.56c0,-33.93 9.57,-60.9 28.7,-80.87 19.14,-19.96 47.51,-29.95 85.11,-29.95zm94.35 59.41l74.38 -11.98 0 77.37 89.36 0 0 61.9 -89.36 0 0 92.35c0,15.66 2.74,28.14 8.23,37.45 5.49,9.32 16.56,13.98 33.2,13.98 7.98,0 16.23,-0.75 24.71,-2.24 8.49,-1.5 16.23,-3.58 23.22,-6.25l10.48 57.91c-8.99,3.66 -18.98,6.82 -29.95,9.48 -10.99,2.66 -24.46,4 -40.44,4 -20.3,0 -37.11,-2.74 -50.42,-8.23 -13.32,-5.49 -23.96,-13.15 -31.94,-22.98 -7.99,-9.81 -13.57,-21.71 -16.72,-35.69 -3.17,-13.97 -4.75,-29.45 -4.75,-46.41l0 -220.66z"/>
  <path class="fil2" d="M1131.87 247.99c7.01,0 13.21,-0.16 18.64,-0.47 5.41,-0.32 9.93,-0.9 13.54,-1.76l0 -49.39c-2.12,-1.06 -5.57,-1.97 -10.35,-2.71 -4.78,-0.74 -10.56,-1.11 -17.36,-1.11 -4.46,0 -9.19,0.32 -14.18,0.95 -4.99,0.64 -9.56,1.97 -13.7,3.99 -4.15,2.02 -7.6,4.78 -10.36,8.28 -2.76,3.5 -4.14,8.12 -4.14,13.86 0,10.62 3.39,18 10.19,22.14 6.8,4.15 16.04,6.22 27.73,6.22zm-2.55 -148.48c11.89,0 21.93,1.55 30.11,4.63 8.18,3.07 14.76,7.43 19.75,13.05 4.99,5.63 8.56,12.32 10.67,20.07 2.13,7.75 3.19,16.31 3.19,25.66l0 103.54c-2.55,0.43 -6.12,1.01 -10.67,1.76 -4.57,0.74 -9.72,1.44 -15.45,2.07 -5.73,0.64 -11.95,1.23 -18.64,1.76 -6.7,0.53 -13.34,0.79 -19.91,0.79 -9.35,0 -17.95,-0.95 -25.81,-2.87 -7.86,-1.91 -14.66,-4.93 -20.39,-9.08 -5.73,-4.14 -10.19,-9.61 -13.39,-16.41 -3.18,-6.8 -4.78,-14.97 -4.78,-24.53 0,-9.14 1.86,-16.99 5.58,-23.58 3.72,-6.59 8.76,-11.89 15.13,-15.93 6.37,-4.04 13.81,-7.01 22.3,-8.93 8.5,-1.91 17.41,-2.86 26.76,-2.86 2.97,0 6.06,0.16 9.24,0.47 3.18,0.32 6.22,0.74 9.08,1.28 2.87,0.53 5.37,1.01 7.49,1.44 2.13,0.42 3.62,0.74 4.46,0.95l0 -8.28c0,-4.88 -0.53,-9.72 -1.59,-14.5 -1.06,-4.77 -2.98,-9.02 -5.74,-12.74 -2.75,-3.72 -6.53,-6.69 -11.31,-8.92 -4.78,-2.23 -11,-3.34 -18.64,-3.34 -9.77,0 -18.32,0.69 -25.65,2.07 -7.33,1.38 -12.8,2.81 -16.41,4.3l-3.5 -24.53c3.82,-1.7 10.19,-3.34 19.11,-4.94 8.93,-1.59 18.59,-2.39 29,-2.39z"/>
  <path id="1" class="fil2" d="M1269.83 103.66l62.76 0 0 24.85 -62.76 0 0 76.47c0,8.28 0.63,15.13 1.91,20.55 1.28,5.42 3.18,9.67 5.73,12.74 2.55,3.08 5.73,5.26 9.56,6.54 3.83,1.28 8.28,1.91 13.39,1.91 8.92,0 16.09,-1 21.5,-3.02 5.42,-2.02 9.19,-3.45 11.32,-4.31l5.73 24.54c-2.97,1.49 -8.17,3.34 -15.61,5.57 -7.43,2.23 -15.93,3.34 -25.49,3.34 -11.26,0 -20.56,-1.44 -27.88,-4.3 -7.33,-2.87 -13.23,-7.17 -17.68,-12.9 -4.47,-5.73 -7.6,-12.8 -9.4,-21.19 -1.81,-8.39 -2.71,-18.12 -2.71,-29.16l0 -147.84 29.63 -5.09 0 51.29z"/>
  <path id="2" class="fil2" d="M1357.77 186.82c0,-14.65 2.13,-27.45 6.38,-38.39 4.25,-10.95 9.87,-20.02 16.88,-27.24 7.01,-7.22 15.08,-12.64 24.22,-16.25 9.13,-3.62 18.48,-5.42 28.04,-5.42 22.3,0 39.4,6.96 51.29,20.88 11.9,13.91 17.84,35.1 17.84,63.56 0,1.28 0,2.91 0,4.93 0,2.02 -0.1,3.88 -0.32,5.58l-113.42 0c1.28,17.2 6.27,30.27 14.97,39.18 8.71,8.93 22.3,13.39 40.78,13.39 10.41,0 19.17,-0.9 26.29,-2.71 7.12,-1.81 12.48,-3.55 16.09,-5.25l4.15 24.85c-3.62,1.91 -9.93,3.93 -18.96,6.05 -9.03,2.13 -19.28,3.19 -30.75,3.19 -14.44,0 -26.92,-2.18 -37.44,-6.54 -10.51,-4.35 -19.17,-10.35 -25.97,-17.99 -6.8,-7.65 -11.84,-16.73 -15.13,-27.24 -3.29,-10.51 -4.94,-22.04 -4.94,-34.57zm113.74 -16.25c0.22,-13.39 -3.13,-24.37 -10.03,-32.98 -6.9,-8.61 -16.41,-12.9 -28.52,-12.9 -6.8,0 -12.79,1.33 -17.99,3.99 -5.21,2.65 -9.62,6.11 -13.23,10.35 -3.62,4.25 -6.43,9.13 -8.45,14.65 -2.02,5.52 -3.34,11.16 -3.99,16.89l82.2 0z"/>
  <path id="3" class="fil2" d="M1594.83 272.52c-18.27,-0.42 -31.22,-4.35 -38.87,-11.79 -7.64,-7.43 -11.47,-19.01 -11.47,-34.72l0 -198.82 29.63 -5.1 0 199.14c0,4.88 0.42,8.92 1.28,12.11 0.84,3.18 2.23,5.73 4.14,7.64 1.91,1.91 4.46,3.34 7.65,4.3 3.18,0.96 7.11,1.76 11.79,2.39l-4.15 24.85z"/>
  <path id="4" class="fil2" d="M1661.74 269.34l-29.63 0 0 -165.68 29.63 0 0 165.68zm-14.97 -195.63c-5.31,0 -9.82,-1.75 -13.55,-5.25 -3.72,-3.5 -5.57,-8.23 -5.57,-14.18 0,-5.94 1.86,-10.67 5.57,-14.18 3.73,-3.5 8.23,-5.26 13.55,-5.26 5.31,0 9.82,1.76 13.54,5.26 3.73,3.5 5.58,8.23 5.58,14.18 0,5.94 -1.86,10.67 -5.58,14.18 -3.72,3.5 -8.22,5.25 -13.54,5.25z"/>
  <path id="5" class="fil2" d="M1703.47 186.82c0,-14.65 2.13,-27.45 6.38,-38.39 4.25,-10.95 9.87,-20.02 16.88,-27.24 7.01,-7.22 15.08,-12.64 24.22,-16.25 9.13,-3.62 18.48,-5.42 28.04,-5.42 22.3,0 39.4,6.96 51.29,20.88 11.9,13.91 17.84,35.1 17.84,63.56 0,1.28 0,2.91 0,4.93 0,2.02 -0.1,3.88 -0.32,5.58l-113.42 0c1.28,17.2 6.27,30.27 14.97,39.18 8.71,8.93 22.3,13.39 40.78,13.39 10.41,0 19.17,-0.9 26.29,-2.71 7.12,-1.81 12.48,-3.55 16.09,-5.25l4.15 24.85c-3.62,1.91 -9.93,3.93 -18.96,6.05 -9.03,2.13 -19.28,3.19 -30.75,3.19 -14.44,0 -26.92,-2.18 -37.44,-6.54 -10.51,-4.35 -19.17,-10.35 -25.97,-17.99 -6.8,-7.65 -11.84,-16.73 -15.13,-27.24 -3.29,-10.51 -4.94,-22.04 -4.94,-34.57zm113.74 -16.25c0.22,-13.39 -3.13,-24.37 -10.03,-32.98 -6.9,-8.61 -16.41,-12.9 -28.52,-12.9 -6.8,0 -12.79,1.33 -17.99,3.99 -5.21,2.65 -9.62,6.11 -13.23,10.35 -3.62,4.25 -6.43,9.13 -8.45,14.65 -2.02,5.52 -3.34,11.16 -3.99,16.89l82.2 0z"/>
  <path id="6" class="fil2" d="M1951.99 100.16c2.55,0 5.47,0.16 8.77,0.47 3.29,0.32 6.53,0.75 9.72,1.28 3.18,0.53 6.11,1.06 8.76,1.6 2.66,0.53 4.62,1.01 5.89,1.44l-5.1 25.81c-2.33,-0.85 -6.21,-1.86 -11.63,-3.03 -5.41,-1.16 -12.37,-1.75 -20.87,-1.75 -5.52,0 -11,0.58 -16.41,1.75 -5.41,1.17 -8.98,1.97 -10.67,2.39l0 139.24 -29.63 0 0 -158.67c7.01,-2.55 15.73,-4.94 26.13,-7.17 10.41,-2.23 22.09,-3.34 35.05,-3.34z"/>
 </g>
</svg>
