<?xml version="1.0" encoding="UTF-8"?>
<!DOCTYPE svg PUBLIC "-//W3C//DTD SVG 1.1//EN" "http://www.w3.org/Graphics/SVG/1.1/DTD/svg11.dtd">
<!-- Creator: CorelDRAW 2018 (64-Bit) -->
<svg xmlns="http://www.w3.org/2000/svg" xml:space="preserve" width="30.0445mm" height="9.0464mm" version="1.1" style="shape-rendering:geometricPrecision; text-rendering:geometricPrecision; image-rendering:optimizeQuality; fill-rule:evenodd; clip-rule:evenodd"
viewBox="0 0 2953.52 889.3"
 xmlns:xlink="http://www.w3.org/1999/xlink">
 <defs>
  <style type="text/css">
   <![CDATA[
    .str0 {stroke:#9999FF;stroke-width:43.26;stroke-miterlimit:22.9256}
    .fil0 {fill:none}
    .fil1 {fill:#9999FF}
    .fil2 {fill:#9999FF;fill-rule:nonzero}
   ]]>
  </style>
 </defs>
 <g id="Layer_x0020_1">
  <metadata id="CorelCorpID_0Corel-Layer"/>
  <rect class="fil0 str0" x="21.62" y="21.62" width="846.05" height="846.05"/>
  <path class="fil1" d="M188.07 143.84l57.3 0 0 292.1c21.25,-0.38 42,-2.82 62.04,-7.15l0 -284.96 57.3 0 0 266.8c15.7,-6.67 30.75,-14.55 45.05,-23.52l-0.11 -0.26c15.46,-9.74 30.03,-20.75 43.57,-32.9l0.14 0.32c58.95,-52.77 98.29,-127.01 105.7,-210.44l57.51 0c-8.06,107.38 -60.97,202.24 -140.05,265.94l25.69 61.53c103,-75.58 173.28,-193.13 185.6,-327.47l57.55 0c-9.49,116.49 -57.68,222.02 -131.69,303.73l124.33 297.89 -57.3 0 -107.59 -257.78c-15.3,13.55 -31.41,26.2 -48.25,37.88l91.78 219.91 -57.3 0 -80.01 -191.69c-35.82,19.69 -74.24,35.21 -114.6,46l0 145.7 -57.3 0 0 -133.83c-20.32,3.01 -41.02,4.82 -62.04,5.38l0 128.45 -57.3 0 0 -130.06c-14.89,-1.24 -29.61,-3.12 -44.12,-5.59l0 -58.25c14.47,2.8 29.2,4.92 44.12,6.31l0 -68.03c-15,-2.03 -29.73,-4.95 -44.12,-8.7l0 -59.6c14.3,4.45 29.03,7.93 44.12,10.36l0 -288.07zm57.3 415.83c21.07,-0.64 41.78,-2.68 62.04,-6.08l0 -66.4c-20.17,3.67 -40.89,5.72 -62.04,6.05l0 66.42zm119.34 -19.49c32.47,-9.86 63.41,-23.23 92.38,-39.66l-25 -59.9c-21.21,12.58 -43.76,23.16 -67.38,31.45l0 68.11z"/>
  <path class="fil2" d="M1158.37 587.88c7.39,-7.99 15.04,-16.4 22.94,-25.05 7.91,-8.67 15.56,-17.33 22.87,-25.81 7.4,-8.58 14.38,-16.64 20.94,-24.29 6.56,-7.74 12.19,-14.38 16.89,-20.1l89.37 0c-17.82,20.43 -35.22,40.02 -52.2,58.6 -16.99,18.67 -35.57,37.83 -55.75,57.68 10.1,9.07 20.52,19.92 31.28,32.61 10.76,12.61 21.18,25.64 31.27,39.1 10.09,13.53 19.34,26.98 27.74,40.43 8.41,13.46 15.47,25.81 21.18,36.9l-86.41 0c-5.4,-8.74 -11.52,-18.49 -18.42,-29.09 -6.81,-10.59 -14.12,-21.17 -21.85,-31.86 -7.74,-10.6 -15.89,-20.76 -24.47,-30.59 -8.48,-9.75 -16.99,-17.99 -25.38,-24.71l0 116.26 -75.15 0 0 -379.31 75.15 -12.1 0 221.35zm438.32 160.98c-12.79,3.7 -29.27,7.15 -49.44,10.34 -20.17,3.19 -41.37,4.79 -63.55,4.79 -22.53,0 -41.28,-3.03 -56.24,-9.07 -14.96,-6.06 -26.82,-14.55 -35.56,-25.48 -8.75,-10.92 -14.97,-23.95 -18.67,-39.09 -3.7,-15.13 -5.54,-31.78 -5.54,-49.94l0 -147.79 75.15 0 0 138.72c0,24.21 3.2,41.69 9.58,52.46 6.39,10.75 18.32,16.14 35.81,16.14 5.39,0 11.09,-0.26 17.14,-0.76 6.06,-0.51 11.44,-1.1 16.14,-1.77l0 -204.79 75.16 0 0 256.24zm266.82 -160.98c7.39,-7.99 15.04,-16.4 22.95,-25.05 7.9,-8.67 15.55,-17.33 22.86,-25.81 7.4,-8.58 14.38,-16.64 20.94,-24.29 6.56,-7.74 12.19,-14.38 16.9,-20.1l89.37 0c-17.83,20.43 -35.23,40.02 -52.21,58.6 -16.98,18.67 -35.57,37.83 -55.74,57.68 10.09,9.07 20.52,19.92 31.27,32.61 10.76,12.61 21.19,25.64 31.27,39.1 10.1,13.53 19.34,26.98 27.75,40.43 8.4,13.46 15.46,25.81 21.17,36.9l-86.41 0c-5.39,-8.74 -11.52,-18.49 -18.42,-29.09 -6.81,-10.59 -14.12,-21.17 -21.85,-31.86 -7.74,-10.6 -15.89,-20.76 -24.47,-30.59 -8.48,-9.75 -16.98,-17.99 -25.38,-24.71l0 116.26 -75.15 0 0 -379.31 75.15 -12.1 0 221.35zm376.78 -28.68c-6.71,-1.68 -14.63,-3.45 -23.7,-5.29 -9.08,-1.86 -18.84,-2.77 -29.26,-2.77 -4.72,0 -10.34,0.41 -16.9,1.25 -6.56,0.85 -11.51,1.77 -14.87,2.77l0 202.77 -75.15 0 0 -251.18c13.44,-4.72 29.33,-9.17 47.66,-13.38 18.32,-4.2 38.75,-6.29 61.28,-6.29 4.04,0 8.92,0.25 14.64,0.75 5.7,0.5 11.42,1.18 17.13,2.02 5.72,0.85 11.43,1.85 17.15,3.03 5.72,1.18 10.6,2.61 14.63,4.29l-12.61 62.04zm149.31 146.29c7.39,0 14.46,-0.18 21.17,-0.52 6.73,-0.33 12.11,-0.84 16.14,-1.5l0 -57c-3.03,-0.68 -7.56,-1.34 -13.62,-2.02 -6.05,-0.68 -11.6,-1.01 -16.64,-1.01 -7.06,0 -13.7,0.42 -19.93,1.26 -6.21,0.85 -11.68,2.44 -16.4,4.8 -4.7,2.35 -8.4,5.54 -11.1,9.57 -2.68,4.04 -4.03,9.09 -4.03,15.14 0,11.77 3.96,19.92 11.86,24.46 7.9,4.54 18.75,6.82 32.54,6.82zm-6.06 -219.93c22.2,0 40.69,2.53 55.48,7.56 14.79,5.05 26.64,12.28 35.56,21.7 8.92,9.42 15.22,20.85 18.92,34.3 3.7,13.45 5.54,28.42 5.54,44.9l0 156.36c-10.76,2.35 -25.74,5.12 -44.9,8.33 -19.17,3.19 -42.36,4.79 -69.61,4.79 -17.15,0 -32.7,-1.51 -46.66,-4.54 -13.95,-3.03 -25.98,-7.98 -36.06,-14.88 -10.1,-6.89 -17.83,-15.89 -23.21,-26.98 -5.38,-11.09 -8.06,-24.71 -8.06,-40.86 0,-15.46 3.11,-28.58 9.33,-39.34 6.21,-10.76 14.54,-19.34 24.96,-25.73 10.43,-6.39 22.37,-11.02 35.81,-13.86 13.46,-2.86 27.41,-4.29 41.87,-4.29 9.75,0 18.41,0.41 25.97,1.25 7.58,0.85 13.71,1.94 18.41,3.28l0 -7.07c0,-12.78 -3.86,-23.03 -11.6,-30.77 -7.74,-7.73 -21.17,-11.6 -40.34,-11.6 -12.78,0 -25.39,0.93 -37.83,2.77 -12.46,1.86 -23.21,4.46 -32.29,7.83l-9.57 -60.53c4.37,-1.35 9.83,-2.78 16.39,-4.29 6.56,-1.51 13.7,-2.86 21.44,-4.04 7.74,-1.17 15.89,-2.19 24.46,-3.03 8.58,-0.85 17.24,-1.26 25.98,-1.26zm298.6 -119.04c14.12,0 27.07,1.44 38.84,4.29 11.77,2.86 20.84,5.63 27.24,8.33l-14.64 60.02c-6.71,-3.04 -14.03,-5.31 -21.94,-6.81 -7.89,-1.51 -15.21,-2.27 -21.94,-2.27 -9.07,0 -16.72,1.26 -22.94,3.77 -6.21,2.54 -11.1,5.99 -14.62,10.35 -3.54,4.37 -6.06,9.57 -7.57,15.63 -1.52,6.06 -2.27,12.61 -2.27,19.67l0 13.11 92.81 0 0 62.54 -92.81 0 0 202.77 -75.15 0 0 -279.43c0,-34.3 9.66,-61.54 29,-81.71 19.34,-20.17 48,-30.27 86,-30.27zm95.33 60.02l75.15 -12.1 0 78.17 90.29 0 0 62.54 -90.29 0 0 93.32c0,15.81 2.78,28.42 8.33,37.83 5.55,9.42 16.73,14.13 33.54,14.13 8.07,0 16.4,-0.76 24.98,-2.27 8.56,-1.5 16.39,-3.62 23.45,-6.31l10.6 58.52c-9.08,3.7 -19.18,6.89 -30.27,9.57 -11.1,2.69 -24.71,4.04 -40.86,4.04 -20.52,0 -37.5,-2.77 -50.94,-8.33 -13.46,-5.54 -24.21,-13.28 -32.28,-23.2 -8.08,-9.92 -13.7,-21.94 -16.9,-36.07 -3.19,-14.12 -4.8,-29.76 -4.8,-46.9l0 -222.95z"/>
 </g>
</svg>
