<?xml version="1.0" encoding="UTF-8"?>
<!DOCTYPE svg PUBLIC "-//W3C//DTD SVG 1.1//EN" "http://www.w3.org/Graphics/SVG/1.1/DTD/svg11.dtd">
<!-- Creator: CorelDRAW 2020 (64-Bit) -->
<svg xmlns="http://www.w3.org/2000/svg" xml:space="preserve" width="72.2484mm" height="47.5753mm" version="1.1" style="shape-rendering:geometricPrecision; text-rendering:geometricPrecision; image-rendering:optimizeQuality; fill-rule:evenodd; clip-rule:evenodd"
viewBox="0 0 82248.7 54160.46"
 xmlns:xlink="http://www.w3.org/1999/xlink"
 xmlns:xodm="http://www.corel.com/coreldraw/odm/2003">
 <defs>
  <style type="text/css">
   <![CDATA[
    .fil2 {fill:#FEFEFE}
    .fil1 {fill:#BD261E}
    .fil0 {fill:white}
    .fil3 {fill:#FEFEFE;fill-rule:nonzero}
    .fil4 {fill:white;fill-rule:nonzero}
   ]]>
  </style>
 </defs>
 <g id="Layer_x0020_1">
  <metadata id="CorelCorpID_0Corel-Layer"/>
  <path class="fil0" d="M69778.72 38600.48l12469.98 -5064.36 0 -4099.55 -3959.3 0c-239.29,1186.8 -1287.89,2080.45 -2545.27,2080.45 -1257.38,0 -2305.86,-893.66 -2545.16,-2080.45l-1139.9 0c-235.99,4036.48 -2667.99,7483.6 -6118.53,9163.9l3838.17 0z"/>
  <polygon class="fil0" points="13872.73,54160.46 16646.71,52558.94 16646.59,52558.94 18211.35,49849.28 15082.18,49849.51 16647.05,47139.74 13517.89,47139.96 15082.75,44430.31 6937.16,44437.59 "/>
  <polygon class="fil0" points="14618.62,0 18293.31,2121.55 16567.02,7657.67 14686.58,8368.61 11902.02,13191.73 7002.39,13191.73 11011.89,6246.94 10687.44,4263.14 "/>
  <path class="fil0" d="M59610.51 19142.34c544.62,-99.95 1110.75,-124.43 1748.38,-124.43l8387.28 0 12502.53 5004.93 0 4099.55 -4033.06 0c-336.74,-1043.59 -1315.89,-1798.58 -2471.5,-1798.58 -1155.61,0 -2134.76,755 -2471.39,1798.58l-2312.35 0c14.8,220.85 23.22,443.75 23.22,668.36 0,5416.92 -4392.8,9809.73 -9809.61,9809.73 -1390.57,0 -2713.3,-290.3 -3911.94,-812.26 -1419.26,-428.04 -2592.97,-259.22 -4831.66,222.9 379.55,-768.77 593.23,-1634.08 593.23,-2549.48 0,-1966.04 -984.16,-3702.13 -2486.53,-4742.87l172.93 -48.15c465.27,-129.67 665.97,-460.03 657.55,-921.78 -4.33,-235.88 -3.3,-548.03 -3.3,-958.09 0,-2723.2 1679.05,-8442.49 8246.23,-9648.41zm1563.39 5229.08c-2440.31,0 -4419.22,1979.02 -4419.22,4419.33 0,2440.31 1978.91,4419.33 4419.22,4419.33 2440.31,0 4419.33,-1979.02 4419.33,-4419.33 0,-2440.31 -1979.02,-4419.33 -4419.33,-4419.33z"/>
  <path class="fil1" d="M50245.79 18563.57c57.83,48.27 114.52,97.68 169.97,148.56l8.54 7.51 -0.11 0.34c926.44,854.15 1507.15,2077.72 1507.15,3436.88 0,2580.79 -2092.98,4673.76 -4673.88,4673.76l-47257.45 0 0 -9347.64 0 0c0,-1720.49 1395.24,-3115.84 3115.84,-3115.84l0 0 42329.7 0 4800.24 4196.43z"/>
  <path class="fil1" d="M50245.79 39054.94c57.83,-48.27 114.52,-97.79 169.97,-148.68l8.54 -7.51 -0.11 -0.34c926.44,-854.04 1507.15,-2077.72 1507.15,-3436.76 0,-2580.9 -2092.98,-4673.88 -4673.88,-4673.88l-47257.45 0 0 9347.64 0 0c0,1720.49 1395.24,3115.84 3115.84,3115.96l0 0 42329.7 0 4800.24 -4196.43z"/>
  <circle class="fil2" cx="47257.47" cy="22156.83" r="2336.91"/>
  <circle class="fil2" cx="47257.47" cy="35461.62" r="2336.91"/>
  <circle class="fil2" cx="3115.9" cy="23714.77" r="1557.94"/>
  <circle class="fil2" cx="3115.9" cy="33903.69" r="1557.94"/>
  <path class="fil3" d="M13678.97 35907.45c0,138.55 27.66,253.07 84.24,343.35 56.69,91.64 131.37,166.32 226.54,225.29 95.17,57.83 204.8,107.24 330.14,144.58 125.34,37.34 256.6,72.29 391.5,106.1 183.17,44.51 362.7,93.92 539.84,148.11 177.14,54.3 333.67,128.98 472.21,224.15 138.66,95.17 250.68,219.26 336.17,372.26 85.61,153 127.73,349.38 127.73,590.38 0,244.53 -45.76,455.48 -138.55,633.76 -92.78,177.14 -221.65,322.85 -385.58,437.38 -163.82,114.41 -356.55,198.77 -580.71,254.21 -224.04,55.44 -468.69,83.1 -733.71,83.1 -122.95,0 -248.17,-7.17 -375.9,-22.88 -128.98,-15.71 -250.57,-36.2 -367.48,-61.47 -116.92,-25.27 -221.65,-55.44 -315.68,-87.89 -93.92,-32.56 -168.71,-66.37 -222.9,-98.81l0 -524.13c84.36,42.12 179.53,79.46 285.51,114.41 106.1,34.95 215.73,65.12 329,89.25 113.27,24.02 226.43,43.37 342.09,57.83 115.66,13.21 224.15,20.38 325.36,20.38 163.82,0 321.72,-14.46 471.08,-42.12 149.36,-28.92 280.73,-75.93 392.75,-140.94 113.27,-66.26 202.41,-156.65 268.67,-269.92 66.26,-114.41 98.81,-256.6 98.81,-428.95 0,-140.94 -28.92,-257.74 -86.75,-349.38 -56.58,-91.53 -133.76,-167.46 -230.07,-227.68 -96.42,-60.22 -207.31,-108.38 -332.53,-146.97 -126.59,-37.34 -257.85,-72.29 -396.4,-104.85 -184.42,-43.37 -362.7,-90.39 -537.33,-143.33 -176,-53.05 -331.39,-126.59 -468.69,-220.51 -137.41,-94.03 -248.29,-215.62 -331.39,-363.84 -83.1,-148.22 -125.23,-338.56 -125.23,-568.75 0,-239.75 43.37,-446.94 131.26,-619.18 88,-173.49 207.19,-316.93 356.67,-430.21 150.61,-112.02 322.85,-196.38 518.09,-250.57 195.12,-54.19 403.57,-80.71 625.22,-80.71 251.82,0 485.53,24.13 703.65,72.29 218.12,48.15 416.89,112.02 598.81,189.2l0 533.69c-195.24,-81.97 -397.65,-149.36 -605.98,-201.16 -208.44,-51.91 -431.35,-78.32 -668.71,-80.83 -178.39,0 -333.78,19.35 -466.29,57.83 -131.37,38.59 -241,94.03 -327.75,166.32 -86.75,71.04 -151.75,157.78 -193.99,260.24 -42.12,102.46 -63.75,215.62 -63.75,340.96z"/>
  <polygon id="1" class="fil3" points="17828.95,38862.89 20250.59,38862.89 20250.59,39383.37 17250.64,39383.37 17250.64,34662.82 20119.22,34662.82 20119.22,35183.3 17828.95,35183.3 17828.95,36708.66 19866.26,36708.66 19866.26,37229.15 17828.95,37229.15 "/>
  <path id="2" class="fil3" d="M21859.74 37431.56l0 1951.81 -578.32 0 0 -4720.55 1225.28 0c207.19,0 383.08,7.29 527.66,23 144.58,15.6 277.09,39.73 396.4,72.29 330.14,89.14 581.96,242.14 755.45,457.76 174.75,214.48 261.49,484.4 261.49,806 0,191.6 -30.17,361.45 -91.64,512.06 -61.47,150.61 -146.97,281.99 -257.85,392.87 -110.77,110.77 -243.28,201.16 -397.53,271.06 -154.26,71.04 -325.36,122.84 -513.31,155.39l0 14.46 1397.63 2015.68 -578.32 0 -1452.96 -1951.81 -693.98 0zm0 -2248.26l0 1727.77 568.64 0c175.89,0 326.5,-6.03 451.84,-18.1 124.09,-10.81 236.11,-32.56 334.92,-62.61 200.02,-61.47 354.16,-159.04 462.65,-292.8 108.38,-133.76 162.68,-309.65 162.68,-525.26 -2.5,-202.41 -54.3,-365.09 -155.51,-489.18 -101.21,-122.95 -240.89,-212.09 -420.42,-266.28 -84.36,-25.27 -185.56,-44.63 -303.62,-55.44 -116.92,-12.07 -266.28,-18.1 -448.19,-18.1l-653 0z"/>
  <path id="3" class="fil3" d="M27200.05 38649.66c171.1,-515.7 354.16,-1034.93 550.54,-1559.06l904.93 -2427.78 578.32 0 -1791.64 4720.55 -501.24 0 -1791.52 -4720.55 578.32 0 904.81 2427.78c198.77,524.13 383.19,1043.36 554.18,1559.06l13.32 0z"/>
  <polygon id="4" class="fil3" points="30038.12,39383.37 30038.12,34662.82 30616.43,34662.82 30616.43,39383.37 "/>
  <path id="5" class="fil3" d="M32321.89 35907.45c0,138.55 27.66,253.07 84.24,343.35 56.69,91.64 131.37,166.32 226.54,225.29 95.17,57.83 204.8,107.24 330.14,144.58 125.34,37.34 256.6,72.29 391.5,106.1 183.17,44.51 362.7,93.92 539.84,148.11 177.14,54.3 333.67,128.98 472.21,224.15 138.66,95.17 250.68,219.26 336.17,372.26 85.61,153 127.73,349.38 127.73,590.38 0,244.53 -45.76,455.48 -138.55,633.76 -92.78,177.14 -221.65,322.85 -385.58,437.38 -163.82,114.41 -356.55,198.77 -580.71,254.21 -224.04,55.44 -468.69,83.1 -733.71,83.1 -122.95,0 -248.17,-7.17 -375.9,-22.88 -128.98,-15.71 -250.57,-36.2 -367.48,-61.47 -116.92,-25.27 -221.65,-55.44 -315.68,-87.89 -93.92,-32.56 -168.71,-66.37 -222.9,-98.81l0 -524.13c84.36,42.12 179.53,79.46 285.51,114.41 106.1,34.95 215.73,65.12 329,89.25 113.27,24.02 226.43,43.37 342.09,57.83 115.66,13.21 224.15,20.38 325.36,20.38 163.82,0 321.72,-14.46 471.08,-42.12 149.36,-28.92 280.73,-75.93 392.75,-140.94 113.27,-66.26 202.41,-156.65 268.67,-269.92 66.26,-114.41 98.81,-256.6 98.81,-428.95 0,-140.94 -28.92,-257.74 -86.75,-349.38 -56.58,-91.53 -133.76,-167.46 -230.07,-227.68 -96.42,-60.22 -207.31,-108.38 -332.53,-146.97 -126.59,-37.34 -257.85,-72.29 -396.4,-104.85 -184.42,-43.37 -362.7,-90.39 -537.33,-143.33 -176,-53.05 -331.39,-126.59 -468.69,-220.51 -137.41,-94.03 -248.29,-215.62 -331.39,-363.84 -83.1,-148.22 -125.23,-338.56 -125.23,-568.75 0,-239.75 43.37,-446.94 131.26,-619.18 88,-173.49 207.19,-316.93 356.67,-430.21 150.61,-112.02 322.85,-196.38 518.09,-250.57 195.12,-54.19 403.57,-80.71 625.22,-80.71 251.82,0 485.53,24.13 703.65,72.29 218.12,48.15 416.89,112.02 598.81,189.2l0 533.69c-195.24,-81.97 -397.65,-149.36 -605.98,-201.16 -208.44,-51.91 -431.35,-78.32 -668.71,-80.83 -178.39,0 -333.78,19.35 -466.29,57.83 -131.37,38.59 -241,94.03 -327.75,166.32 -86.75,71.04 -151.75,157.78 -193.99,260.24 -42.12,102.46 -63.75,215.62 -63.75,340.96z"/>
  <path id="6" class="fil3" d="M36356.21 35907.45c0,138.55 27.66,253.07 84.24,343.35 56.69,91.64 131.37,166.32 226.54,225.29 95.17,57.83 204.8,107.24 330.14,144.58 125.34,37.34 256.6,72.29 391.5,106.1 183.17,44.51 362.7,93.92 539.84,148.11 177.14,54.3 333.67,128.98 472.21,224.15 138.66,95.17 250.68,219.26 336.17,372.26 85.61,153 127.73,349.38 127.73,590.38 0,244.53 -45.76,455.48 -138.55,633.76 -92.78,177.14 -221.65,322.85 -385.58,437.38 -163.82,114.41 -356.55,198.77 -580.71,254.21 -224.04,55.44 -468.69,83.1 -733.71,83.1 -122.95,0 -248.17,-7.17 -375.9,-22.88 -128.98,-15.71 -250.57,-36.2 -367.48,-61.47 -116.92,-25.27 -221.65,-55.44 -315.68,-87.89 -93.92,-32.56 -168.71,-66.37 -222.9,-98.81l0 -524.13c84.36,42.12 179.53,79.46 285.51,114.41 106.1,34.95 215.73,65.12 329,89.25 113.27,24.02 226.43,43.37 342.09,57.83 115.66,13.21 224.15,20.38 325.36,20.38 163.82,0 321.72,-14.46 471.08,-42.12 149.36,-28.92 280.73,-75.93 392.75,-140.94 113.27,-66.26 202.41,-156.65 268.67,-269.92 66.26,-114.41 98.81,-256.6 98.81,-428.95 0,-140.94 -28.92,-257.74 -86.75,-349.38 -56.58,-91.53 -133.76,-167.46 -230.07,-227.68 -96.42,-60.22 -207.31,-108.38 -332.53,-146.97 -126.59,-37.34 -257.85,-72.29 -396.4,-104.85 -184.42,-43.37 -362.7,-90.39 -537.33,-143.33 -176,-53.05 -331.39,-126.59 -468.69,-220.51 -137.41,-94.03 -248.29,-215.62 -331.39,-363.84 -83.1,-148.22 -125.23,-338.56 -125.23,-568.75 0,-239.75 43.37,-446.94 131.26,-619.18 88,-173.49 207.19,-316.93 356.67,-430.21 150.61,-112.02 322.85,-196.38 518.09,-250.57 195.12,-54.19 403.57,-80.71 625.22,-80.71 251.82,0 485.53,24.13 703.65,72.29 218.12,48.15 416.89,112.02 598.81,189.2l0 533.69c-195.24,-81.97 -397.65,-149.36 -605.98,-201.16 -208.44,-51.91 -431.35,-78.32 -668.71,-80.83 -178.39,0 -333.78,19.35 -466.29,57.83 -131.37,38.59 -241,94.03 -327.75,166.32 -86.75,71.04 -151.75,157.78 -193.99,260.24 -42.12,102.46 -63.75,215.62 -63.75,340.96z"/>
  <path class="fil4" d="M24302.1 17106.63l0 6984.52 -2353.1 0 0 -6984.52 2353.1 0zm5680.35 0l0 2075.1 -1395.81 0 0 4909.42 -2351.06 0 0 -4909.42 -1391.94 0 0 -2075.1 5138.81 0z"/>
  <path class="fil0" d="M61173.89 25450.64c-1844.35,0 -3340.11,1495.76 -3340.11,3340.11 0,1844.35 1495.76,3340.11 3340.11,3340.11 1844.35,0 3340.11,-1495.76 3340.11,-3340.11 0,-1844.35 -1495.76,-3340.11 -3340.11,-3340.11z"/>
 </g>
</svg>
