<?xml version="1.0" encoding="UTF-8"?>
<!DOCTYPE svg PUBLIC "-//W3C//DTD SVG 1.1//EN" "http://www.w3.org/Graphics/SVG/1.1/DTD/svg11.dtd">
<!-- Creator: CorelDRAW 2020 (64-Bit) -->
<svg xmlns="http://www.w3.org/2000/svg" xml:space="preserve" width="85.4471mm" height="87.2053mm" version="1.1" style="shape-rendering:geometricPrecision; text-rendering:geometricPrecision; image-rendering:optimizeQuality; fill-rule:evenodd; clip-rule:evenodd"
viewBox="0 0 2121.6 2165.26"
 xmlns:xlink="http://www.w3.org/1999/xlink"
 xmlns:xodm="http://www.corel.com/coreldraw/odm/2003">
 <defs>
  <style type="text/css">
   <![CDATA[
    .str0 {stroke:#CC6F3C;stroke-width:6.21;stroke-miterlimit:22.9256}
    .str2 {stroke:#CC6F3C;stroke-width:8.27;stroke-miterlimit:22.9256}
    .str1 {stroke:#CC6F3C;stroke-width:8.27;stroke-miterlimit:22.9256}
    .str4 {stroke:#FEFEFE;stroke-width:4.13;stroke-miterlimit:22.9256}
    .str3 {stroke:#FEFEFE;stroke-width:4.13;stroke-miterlimit:22.9256}
    .str5 {stroke:#CC6F3C;stroke-width:8.14;stroke-miterlimit:22.9256}
    .fil0 {fill:none}
    .fil1 {fill:none;fill-rule:nonzero}
    .fil5 {fill:#A75F4A}
    .fil4 {fill:#CDACA2}
    .fil3 {fill:#A75F4A;fill-rule:nonzero}
    .fil2 {fill:#A75F4A;fill-rule:nonzero}
   ]]>
  </style>
 </defs>
 <g id="Layer_x0020_1">
  <metadata id="CorelCorpID_0Corel-Layer"/>
  <g>
   <path class="fil0 str0" d="M819.11 3.1c450.67,0 816,365.33 816,816 0,450.67 -365.33,816 -816,816 -450.67,0 -816,-365.33 -816,-816 0,-450.67 365.33,-816 816,-816z"/>
  </g>
  <g>
   <path class="fil1 str1" d="M155.58 2031.1l-6.99 -1.84 -1.47 -1.78 0 -22.25c21.33,-15.82 42.05,-23.72 62.15,-23.72 13.79,0 25.19,2.57 34.32,7.72 9.07,5.15 15.69,11.59 19.74,19.31 4.04,7.72 6.13,16.73 6.13,27.03l-0.92 36.1 0 53.51c0,7.29 0.49,11.71 1.53,13.3 0.98,1.53 2.15,2.57 3.49,3.13 1.29,0.55 3.74,0.98 7.36,1.35l10.23 0.86 1.41 1.66 0 7.17 -1.41 1.47c-8.76,-0.73 -16.86,-1.1 -24.39,-1.1 -7.23,0 -15.81,0.37 -25.87,1.1l-2.7 -2.57 0.68 -28.87 -39.11 30.53c-6.62,2.76 -13.79,4.11 -21.58,4.11 -9.56,0 -17.78,-1.72 -24.7,-5.21 -6.87,-3.43 -12.14,-8.28 -15.75,-14.53 -3.68,-6.25 -5.52,-13.79 -5.52,-22.62 0,-17.59 5.52,-31.32 16.55,-41.25 11.03,-9.87 41.07,-18.27 90.11,-25.19 0,-17.71 -3.92,-30.22 -11.83,-37.45 -7.91,-7.23 -18.51,-10.85 -31.75,-10.85 -6.99,0 -13.3,0.98 -19,3.07 -5.64,2.02 -8.95,3.68 -9.75,4.9 -0.86,1.29 -4.11,8.58 -9.68,22.01l-1.29 0.92zm83.3 28.38c-33.47,5.58 -54.37,11.65 -62.64,18.08 -8.28,6.5 -12.38,16.49 -12.38,30.03 0,18.63 9.26,28.01 27.83,28.01 15.94,0 31.69,-9.26 47.2,-27.65l0 -48.48z"/>
  </g>
  <g>
   <path id="1" class="fil1 str1" d="M545.33 2011.86l0 -4.66 1.22 -1.78c11.28,-4.23 20.35,-8.09 27.34,-11.71 0,-31.26 -0.37,-49.4 -1.1,-54.55 12.32,-4.35 22.44,-8.95 30.34,-13.85l4.29 3.62c-1.16,7.54 -2.57,29.42 -4.29,65.71 6.01,0.12 12.44,0.18 19.43,0.18 14.1,0 24.21,-0.37 30.34,-1.1l1.23 1.29 -3.43 15.08 -1.41 1.59c-6.13,-0.12 -12.87,-0.18 -20.29,-0.18 -6.68,0 -15.32,0.06 -25.87,0.18l-1.04 73.13c0,16.86 0.37,27.89 1.16,33.1 0.73,5.21 2.88,9.32 6.44,12.2 3.56,2.94 8.76,4.41 15.69,4.41 8.03,0 15.45,-2.09 22.31,-6.25l4.29 6.44c-2.88,2.02 -9.75,8.03 -20.66,17.96 -6.19,2.88 -12.57,4.29 -19,4.29 -26.97,0 -40.45,-13.06 -40.45,-39.11 0,-9.62 0.25,-17.72 0.73,-24.46 0.12,-2.02 0.18,-4.11 0.18,-6.25l0 -74.54 -7.35 0c-5.4,0 -11.59,0.25 -18.51,0.73l-1.59 -1.47z"/>
  </g>
  <g>
   <path id="2" class="fil1 str1" d="M380.98 1981.7l3.43 2.33c-0.73,8.03 -1.22,18.57 -1.47,31.63 9.56,-7.91 18.69,-15.94 27.28,-24.09 2.57,-2.27 4.9,-3.92 7.11,-5.03 2.21,-1.04 5.88,-2.21 11.03,-3.43 5.15,-1.16 10.42,-1.78 15.81,-1.78 9.13,0 17.96,1.84 26.48,5.58 8.58,3.74 15.02,8.09 19.43,13.18 4.35,5.09 7.36,11.09 9.07,18.08 1.65,6.93 2.51,15.51 2.51,25.68l0 31.57c0,2.02 0.31,16.98 0.86,44.75 0.24,11.34 1.53,18.14 3.8,20.29 2.27,2.15 9.69,3.25 22.25,3.25l1.47 1.41 0 7.72 -1.47 1.41c-15.2,-0.92 -25.5,-1.41 -30.9,-1.41 -3.06,0 -11.83,0.49 -26.17,1.41l-2.2 -1.96c1.59,-15.57 2.33,-35.86 2.33,-60.87l0 -23.54c0,-14.1 -0.31,-24.27 -0.98,-30.53 -0.61,-6.19 -2.64,-11.89 -6.01,-16.98 -3.31,-5.09 -7.85,-9.01 -13.48,-11.83 -5.58,-2.82 -12.32,-4.23 -20.1,-4.23 -6.19,0 -11.52,0.61 -15.94,1.9 -4.48,1.23 -9.44,3.8 -14.96,7.72 -5.46,3.86 -9.56,7.54 -12.2,10.97 -2.63,3.37 -4.23,6.56 -4.72,9.5 -0.55,2.94 -0.86,9.19 -0.86,18.76l0 31.26c0,2.63 0.25,11.09 0.73,25.38 0.49,14.34 0.98,22.68 1.53,25.07 0.55,2.39 1.35,4.11 2.45,5.21 1.04,1.1 2.39,1.78 3.92,2.09 1.53,0.31 8.03,0.79 19.37,1.53l1.65 1.41 0 7.54 -1.47 1.59c-14.96,-0.92 -29.36,-1.41 -43.28,-1.41 -13.73,0 -28.13,0.49 -43.09,1.41l-1.59 -1.59 0 -7.54 1.59 -1.41c11.65,-0.74 18.2,-1.29 19.68,-1.66 1.47,-0.37 2.82,-1.1 3.92,-2.21 1.16,-1.16 1.96,-2.88 2.39,-5.21 0.37,-2.33 0.86,-10.05 1.41,-23.17 0.55,-13.12 0.8,-23.05 0.8,-29.73l0 -35.37c0,-4.78 -0.25,-11.34 -0.73,-19.61 -0.43,-8.21 -0.86,-13.3 -1.16,-15.26 -0.25,-1.9 -1.23,-3.31 -2.76,-4.23 -1.53,-0.86 -4.66,-1.35 -9.32,-1.35l-15.08 -0.12 -1.66 -1.47 0 -7.72 1.47 -1.41c22.86,-2.76 42.11,-7.23 57.8,-13.48z"/>
  </g>
  <path id="3" class="fil2" d="M155.58 2031.1l-6.99 -1.84 -1.47 -1.78 0 -22.25c21.33,-15.82 42.05,-23.72 62.15,-23.72 13.79,0 25.19,2.57 34.32,7.72 9.07,5.15 15.69,11.59 19.74,19.31 4.04,7.72 6.13,16.73 6.13,27.03l-0.92 36.1 0 53.51c0,7.29 0.49,11.71 1.53,13.3 0.98,1.53 2.15,2.57 3.49,3.13 1.29,0.55 3.74,0.98 7.36,1.35l10.23 0.86 1.41 1.66 0 7.17 -1.41 1.47c-8.76,-0.73 -16.86,-1.1 -24.39,-1.1 -7.23,0 -15.81,0.37 -25.87,1.1l-2.7 -2.57 0.68 -28.87 -39.11 30.53c-6.62,2.76 -13.79,4.11 -21.58,4.11 -9.56,0 -17.78,-1.72 -24.7,-5.21 -6.87,-3.43 -12.14,-8.28 -15.75,-14.53 -3.68,-6.25 -5.52,-13.79 -5.52,-22.62 0,-17.59 5.52,-31.32 16.55,-41.25 11.03,-9.87 41.07,-18.27 90.11,-25.19 0,-17.71 -3.92,-30.22 -11.83,-37.45 -7.91,-7.23 -18.51,-10.85 -31.75,-10.85 -6.99,0 -13.3,0.98 -19,3.07 -5.64,2.02 -8.95,3.68 -9.75,4.9 -0.86,1.29 -4.11,8.58 -9.68,22.01l-1.29 0.92zm83.3 28.38c-33.47,5.58 -54.37,11.65 -62.64,18.08 -8.28,6.5 -12.38,16.49 -12.38,30.03 0,18.63 9.26,28.01 27.83,28.01 15.94,0 31.69,-9.26 47.2,-27.65l0 -48.48z"/>
  <path id="4" class="fil2" d="M545.33 2011.86l0 -4.66 1.22 -1.78c11.28,-4.23 20.35,-8.09 27.34,-11.71 0,-31.26 -0.37,-49.4 -1.1,-54.55 12.32,-4.35 22.44,-8.95 30.34,-13.85l4.29 3.62c-1.16,7.54 -2.57,29.42 -4.29,65.71 6.01,0.12 12.44,0.18 19.43,0.18 14.1,0 24.21,-0.37 30.34,-1.1l1.23 1.29 -3.43 15.08 -1.41 1.59c-6.13,-0.12 -12.87,-0.18 -20.29,-0.18 -6.68,0 -15.32,0.06 -25.87,0.18l-1.04 73.13c0,16.86 0.37,27.89 1.16,33.1 0.73,5.21 2.88,9.32 6.44,12.2 3.56,2.94 8.76,4.41 15.69,4.41 8.03,0 15.45,-2.09 22.31,-6.25l4.29 6.44c-2.88,2.02 -9.75,8.03 -20.66,17.96 -6.19,2.88 -12.57,4.29 -19,4.29 -26.97,0 -40.45,-13.06 -40.45,-39.11 0,-9.62 0.25,-17.72 0.73,-24.46 0.12,-2.02 0.18,-4.11 0.18,-6.25l0 -74.54 -7.35 0c-5.4,0 -11.59,0.25 -18.51,0.73l-1.59 -1.47z"/>
  <path id="5" class="fil2" d="M380.98 1981.7l3.43 2.33c-0.73,8.03 -1.22,18.57 -1.47,31.63 9.56,-7.91 18.69,-15.94 27.28,-24.09 2.57,-2.27 4.9,-3.92 7.11,-5.03 2.21,-1.04 5.88,-2.21 11.03,-3.43 5.15,-1.16 10.42,-1.78 15.81,-1.78 9.13,0 17.96,1.84 26.48,5.58 8.58,3.74 15.02,8.09 19.43,13.18 4.35,5.09 7.36,11.09 9.07,18.08 1.65,6.93 2.51,15.51 2.51,25.68l0 31.57c0,2.02 0.31,16.98 0.86,44.75 0.24,11.34 1.53,18.14 3.8,20.29 2.27,2.15 9.69,3.25 22.25,3.25l1.47 1.41 0 7.72 -1.47 1.41c-15.2,-0.92 -25.5,-1.41 -30.9,-1.41 -3.06,0 -11.83,0.49 -26.17,1.41l-2.2 -1.96c1.59,-15.57 2.33,-35.86 2.33,-60.87l0 -23.54c0,-14.1 -0.31,-24.27 -0.98,-30.53 -0.61,-6.19 -2.64,-11.89 -6.01,-16.98 -3.31,-5.09 -7.85,-9.01 -13.48,-11.83 -5.58,-2.82 -12.32,-4.23 -20.1,-4.23 -6.19,0 -11.52,0.61 -15.94,1.9 -4.48,1.23 -9.44,3.8 -14.96,7.72 -5.46,3.86 -9.56,7.54 -12.2,10.97 -2.63,3.37 -4.23,6.56 -4.72,9.5 -0.55,2.94 -0.86,9.19 -0.86,18.76l0 31.26c0,2.63 0.25,11.09 0.73,25.38 0.49,14.34 0.98,22.68 1.53,25.07 0.55,2.39 1.35,4.11 2.45,5.21 1.04,1.1 2.39,1.78 3.92,2.09 1.53,0.31 8.03,0.79 19.37,1.53l1.65 1.41 0 7.54 -1.47 1.59c-14.96,-0.92 -29.36,-1.41 -43.28,-1.41 -13.73,0 -28.13,0.49 -43.09,1.41l-1.59 -1.59 0 -7.54 1.59 -1.41c11.65,-0.74 18.2,-1.29 19.68,-1.66 1.47,-0.37 2.82,-1.1 3.92,-2.21 1.16,-1.16 1.96,-2.88 2.39,-5.21 0.37,-2.33 0.86,-10.05 1.41,-23.17 0.55,-13.12 0.8,-23.05 0.8,-29.73l0 -35.37c0,-4.78 -0.25,-11.34 -0.73,-19.61 -0.43,-8.21 -0.86,-13.3 -1.16,-15.26 -0.25,-1.9 -1.23,-3.31 -2.76,-4.23 -1.53,-0.86 -4.66,-1.35 -9.32,-1.35l-15.08 -0.12 -1.66 -1.47 0 -7.72 1.47 -1.41c22.86,-2.76 42.11,-7.23 57.8,-13.48z"/>
  <g>
   <path class="fil1 str2" d="M922.45 2146.52l1.43 1.3 0.34 7.29 -1.29 1.61c-3.62,0.17 -10.39,0.31 -20.38,0.3 -9.1,-0.05 -18.42,0.15 -28.03,0.6 -12.51,0.58 -26.43,1.71 -41.81,3.32l-1.44 -1.48 -0.34 -7.29 1.3 -1.43c11.18,-1.24 17.56,-2.07 19.02,-2.5 1.52,-0.43 2.74,-1.2 3.75,-2.31 0.96,-1.17 1.65,-2.87 1.9,-5.14 0.31,-2.27 0.43,-9.77 0.37,-22.49 -0.06,-12.72 -0.27,-22.34 -0.57,-28.8l-3.13 -67.08 -22.37 2.23 -1.61 -1.29 -0.2 -4.33 1.1 -1.83 22.24 -12.69 -0.49 -10.44c-0.54,-11.57 -0.42,-20.37 0.32,-26.35 0.79,-6.04 2.49,-11.65 5.04,-16.82 2.61,-5.18 7.3,-11.76 14,-19.8 6.7,-8.04 12.63,-14.62 17.68,-19.79 5.11,-5.17 9.58,-8.71 13.48,-10.55 3.83,-1.9 8.42,-2.95 13.76,-3.2 4.39,-0.21 9.24,0.46 14.36,1.94l1.21 28.54 -3.96 1.73c-6.74,-5.51 -14.41,-8.07 -23.01,-7.66 -5.99,0.28 -11.15,1.77 -15.43,4.46 -4.33,2.7 -7.11,6.93 -8.51,12.64 -1.34,5.65 -1.74,15 -1.13,27.99l1.68 35.95 18.62 -0.87c9.61,-0.45 18.67,-1.23 27.24,-2.28l1.63 1.82 -2.43 15.45 -1.46 1.8c-3.51,0.04 -5.76,0.09 -6.77,0.14l-22.61 0.88 -13.4 0.63 3.27 70.05c0.17,3.68 0.86,12.15 1.96,25.41 1.15,13.26 2.05,21.01 2.57,23.3 0.59,2.29 1.43,3.92 2.61,4.93 1.12,1.02 2.99,1.64 5.5,2 2.52,0.36 10.48,0.4 23.96,0.13zm96.94 -169.15l3.69 1.46c2.2,15.09 5.91,34.04 11.18,56.9l9.11 39.46c3.34,14.47 6.76,24.28 10.27,29.44 3.49,5.1 8.32,8.56 14.45,10.32 6.13,1.75 12.9,1.78 20.37,0.05 8.27,-1.91 15.36,-5.25 21.44,-10.07 6.02,-4.8 10.65,-10.62 13.86,-17.58 3.23,-6.9 4.96,-11.5 5.13,-13.68 0.23,-2.18 -0.63,-8.02 -2.56,-17.45l-3.86 -19.1 -4.22 -18.28c-1.04,-4.51 -2.7,-10.65 -4.97,-18.36 -2.25,-7.64 -3.71,-12.37 -4.42,-14.15 -0.7,-1.73 -1.88,-2.86 -3.58,-3.38 -1.63,-0.48 -4.69,-0.26 -9.09,0.76l-14.26 3.17 -1.82 -1.04 -1.68 -7.29 1.03 -1.64c20.98,-7.59 38.23,-16.01 51.62,-25.32l3.75 1.45c2.2,15.09 5.91,34.04 11.18,56.9l6.88 29.8c0.4,1.74 3.88,15.5 10.4,41.36 2.45,9.55 4.43,15.25 5.84,17.12 1.46,1.85 3.14,3.05 5.01,3.48 1.88,0.48 7,-0.28 15.4,-2.21l4.74 -1.09 1.83 1.04 1.56 6.77 -0.98 1.81c-16.17,2.82 -26.92,4.81 -32.36,6.07 -6.89,1.59 -14.78,3.84 -23.62,6.73l-1.82 -1.04c-2.02,-11.66 -3.76,-21.56 -5.26,-29.68 -5.84,7.2 -12.29,16.48 -19.29,27.85 -2.66,4.33 -7.02,8.38 -13.07,12.28 -5.99,3.88 -13.17,6.82 -21.5,8.74 -12.67,2.92 -23.03,3.18 -31.01,0.82 -7.98,-2.36 -14.24,-6.77 -18.82,-13.14 -4.58,-6.38 -8.84,-18.25 -12.83,-35.55l-2.91 -13.41 -7.63 -33.04c-1.04,-4.51 -2.7,-10.65 -4.97,-18.36 -2.25,-7.64 -3.71,-12.37 -4.43,-14.15 -0.7,-1.73 -1.88,-2.86 -3.52,-3.39 -1.69,-0.46 -4.69,-0.26 -9.15,0.77l-14.26 3.17 -1.82 -1.04 -1.68 -7.29 1.03 -1.64c20.98,-7.58 38.23,-16.01 51.68,-25.34zm226.53 -65.88l3.9 0.96c1.66,6.54 5.3,17.92 10.94,34.19l6.51 -20.07c2.11,-6.61 4.23,-11.83 6.32,-15.76 2.09,-3.94 4.9,-7.45 8.47,-10.48 3.57,-3.03 7.51,-5.37 11.85,-6.98 4.79,-1.77 9.67,-2.44 14.62,-2.06l2.02 1.85c3.63,15.12 7.32,28.19 11.16,39.24l-7.35 2.72c-8.03,-8.36 -16.9,-10.78 -26.59,-7.19 -6.74,2.49 -11.8,6.77 -15.21,12.97 -3.43,6.14 -4.79,12.73 -4.05,19.86 0.72,7.08 2.86,15.6 6.53,25.51l6.7 18.1c1.2,3.23 4.38,11.17 9.53,23.7 5.16,12.59 8.33,19.78 9.55,21.54 1.22,1.76 2.54,2.92 3.89,3.5 1.39,0.5 2.95,0.62 4.74,0.33 1.85,-0.3 9.8,-2.61 23.9,-6.94l1.92 0.74 2.54 6.85 -0.91 1.98c-14.79,4.52 -30.05,9.66 -45.86,15.51 -12.48,4.62 -25.4,9.9 -38.68,15.77l-1.98 -0.91 -2.54 -6.85 0.98 -1.82c10.33,-4.58 16.11,-7.29 17.32,-8.12 1.21,-0.83 2.19,-1.95 2.82,-3.32 0.67,-1.45 0.81,-3.27 0.42,-5.54 -0.45,-2.24 -2.6,-9.42 -6.51,-21.52 -3.91,-12.1 -7.02,-21.21 -9.27,-27.28l-11.89 -32.13c-1.61,-4.34 -4.03,-10.22 -7.26,-17.57 -3.15,-7.32 -5.25,-11.8 -6.19,-13.48 -0.86,-1.64 -2.22,-2.59 -3.93,-2.91 -1.68,-0.27 -4.69,0.34 -8.92,1.91l-13.74 4.96 -2 -0.78 -2.6 -7.01 0.86 -1.78c19.84,-10.19 35.83,-20.73 47.98,-31.68zm142.11 -63.76l4.01 0.23c3.39,7.04 8.23,16.04 14.53,27.01 4.01,-11.33 7.6,-22.56 10.67,-33.6 1.01,-3.17 2.12,-5.7 3.4,-7.72 1.31,-1.96 3.79,-4.76 7.46,-8.35 3.7,-3.53 7.77,-6.66 12.26,-9.35 7.59,-4.55 15.84,-7.42 24.78,-8.55 8.99,-1.17 16.51,-0.76 22.71,1.27 6.15,2.06 11.64,5.56 16.54,10.51 4.82,4.93 9.81,11.64 14.88,20.09l15.72 26.23c1.01,1.68 8.71,13.95 23,36.75 5.85,9.3 10.31,14.31 13.26,14.97 2.95,0.65 9.67,-2.12 20.11,-8.38l1.92 0.44 3.85 6.42 -0.52 1.9c-13.09,6.81 -21.89,11.53 -26.37,14.21 -2.55,1.53 -9.59,6.3 -21.05,14.2l-2.81 -0.53c-6.43,-13.73 -15.92,-30.96 -28.38,-51.74l-11.72 -19.56c-7.02,-11.71 -12.35,-20.01 -16.02,-24.87 -3.59,-4.84 -8.11,-8.57 -13.45,-11.12 -5.29,-2.58 -11.01,-3.58 -17.1,-3.12 -6.04,0.43 -12.34,2.62 -18.81,6.5 -5.14,3.08 -9.27,6.25 -12.3,9.52 -3.11,3.25 -5.95,7.86 -8.58,13.86 -2.61,5.93 -4.19,11.03 -4.67,15.19 -0.51,4.11 -0.25,7.56 0.81,10.25 1.01,2.72 3.86,8.07 8.63,16.01l15.57 25.97c1.31,2.19 5.73,9.1 13.25,20.72 7.55,11.68 12.11,18.36 13.76,20.07 1.65,1.71 3.17,2.74 4.63,3.11 1.41,0.4 2.87,0.29 4.3,-0.22 1.43,-0.51 7.07,-3.33 16.86,-8.37l2.08 0.35 3.75 6.26 -0.43 2.06c-12.89,6.68 -25.1,13.45 -36.66,20.38 -11.41,6.84 -23.13,14.42 -35.1,22.63l-2.12 -0.53 -3.75 -6.26 0.62 -1.97c9.31,-6.41 14.48,-10.14 15.52,-11.17 1.04,-1.04 1.79,-2.32 2.16,-3.79 0.39,-1.55 0.2,-3.37 -0.61,-5.52 -0.86,-2.12 -4.3,-8.78 -10.37,-19.96 -6.07,-11.17 -10.81,-19.55 -14.14,-25.1l-17.61 -29.39c-2.38,-3.97 -5.85,-9.3 -10.38,-15.93 -4.45,-6.61 -7.34,-10.62 -8.57,-12.1 -1.15,-1.46 -2.66,-2.14 -4.4,-2.14 -1.7,0.05 -4.54,1.2 -8.41,3.52l-12.59 7.41 -2.11 -0.4 -3.85 -6.42 0.52 -1.9c17.62,-13.68 31.39,-26.98 41.31,-39.99zm126.41 -181.05c4.1,-3.61 8.87,-5.19 14.24,-4.85 5.45,0.35 9.93,2.57 13.5,6.62 3.53,4.01 5.12,8.7 4.78,14.15 -0.34,5.36 -2.53,9.89 -6.63,13.5 -4.01,3.53 -8.74,5.16 -14.15,4.86 -5.42,-0.22 -9.9,-2.44 -13.51,-6.55 -3.57,-4.05 -5.2,-8.79 -4.81,-14.27 0.39,-5.4 2.57,-9.93 6.58,-13.46zm62.49 48.63l3.94 -0.46c9.11,12.24 21.37,27.16 36.86,44.76l25.97 29.51c1.69,1.92 7.28,7.91 16.77,17.99 9.54,10.12 15.23,15.87 17.16,17.25 1.93,1.39 3.61,2.12 5.07,2.26 1.51,0.09 2.88,-0.24 4.23,-1.04 1.31,-0.76 6.35,-4.56 15.07,-11.28l2.11 -0.03 4.82 5.48 -0.05 2.1c-11.47,8.9 -22.25,17.77 -32.38,26.67 -9.98,8.79 -20.15,18.36 -30.43,28.6l-2.18 -0.14 -4.82 -5.48 0.26 -2.04c7.96,-7.95 12.37,-12.55 13.25,-13.8 0.83,-1.21 1.34,-2.61 1.44,-4.11 0.1,-1.59 -0.42,-3.35 -1.64,-5.28 -1.18,-1.97 -5.77,-7.9 -13.76,-17.79 -8,-9.89 -14.17,-17.27 -18.45,-22.13l-22.64 -25.72c-3.06,-3.48 -7.43,-8.09 -13.09,-13.8 -5.61,-5.66 -9.13,-9.12 -10.61,-10.35 -1.44,-1.18 -3.01,-1.62 -4.71,-1.31 -1.71,0.39 -4.25,2 -7.68,5.02l-11.04 9.56 -2.1 -0.05 -4.94 -5.62 0.12 -1.93c14.91,-16.68 26.04,-32.25 33.45,-46.84zm82.71 -34.01l-3.24 -3.14 -0.41 -2.05c4.67,-10.69 8.11,-19.61 10.31,-26.9 -21.73,-21.09 -34.59,-33.08 -38.67,-36.04 5.29,-11.5 8.91,-21.63 10.84,-30.44l5.41 -0.54c4.45,5.9 18.72,21.64 42.79,47.31 4.14,-4.09 8.52,-8.53 13.24,-13.38 9.51,-9.8 16.08,-17.08 19.7,-21.84l1.72 0.02 8.17 12.56 0.16 2.06c-4.22,4.18 -8.81,8.82 -13.82,13.98 -4.51,4.65 -10.3,10.69 -17.32,18.11l50.13 50.06c11.72,11.37 19.64,18.56 23.8,21.52 4.12,3 8.42,4.28 12.82,3.75 4.44,-0.49 8.98,-3.12 13.65,-7.93 5.42,-5.58 8.97,-12.14 10.71,-19.73l7.37 1.36c-0.54,3.37 -0.99,12.19 -1.45,26.48 -2.18,6.25 -5.5,11.63 -9.84,16.1 -18.2,18.75 -36.37,19.31 -54.48,1.74 -6.69,-6.49 -12.15,-12.12 -16.51,-17.01 -1.32,-1.45 -2.73,-2.9 -4.22,-4.35l-51.82 -50.29 -4.96 5.11c-3.64,3.75 -7.65,8.22 -11.98,13.37l-2.1 0.11zm106.73 -168.98l3.74 -1.34c11.62,9.88 26.92,21.66 45.97,35.34l32.9 23.62c12.06,8.66 21.11,13.76 27.16,15.32 5.99,1.52 11.9,0.94 17.66,-1.8 5.76,-2.73 10.86,-7.19 15.33,-13.41 4.95,-6.9 8.07,-14.09 9.45,-21.72 1.35,-7.58 0.98,-15.01 -1.2,-22.35 -2.14,-7.31 -3.87,-11.92 -5.18,-13.66 -1.27,-1.79 -5.77,-5.6 -13.45,-11.4l-15.51 -11.79 -15.24 -10.94c-3.76,-2.7 -9.06,-6.21 -15.85,-10.5 -6.74,-4.25 -10.95,-6.84 -12.67,-7.71 -1.67,-0.83 -3.3,-0.9 -4.92,-0.17 -1.54,0.72 -3.69,2.91 -6.32,6.57l-8.62 11.8 -2.06 0.42 -6.08 -4.36 -0.31 -1.91c10.75,-19.55 18.13,-37.27 22.04,-53.11l3.77 -1.39c11.62,9.88 26.92,21.66 45.98,35.34l24.84 17.83c1.45,1.04 13.15,9.08 35.12,24.19 8.14,5.56 13.4,8.52 15.69,9 2.33,0.43 4.38,0.22 6.06,-0.7 1.73,-0.88 5.08,-4.83 10.1,-11.83l2.84 -3.96 2.06 -0.42 5.64 4.05 0.46 2.01c-10.28,12.79 -17.04,21.39 -20.29,25.93 -4.12,5.74 -8.56,12.64 -13.29,20.65l-2.06 0.42c-9.22,-7.42 -17.06,-13.71 -23.56,-18.81 0.37,9.26 1.66,20.49 3.91,33.66 0.87,5.01 0.27,10.93 -1.7,17.85 -1.94,6.87 -5.39,13.82 -10.38,20.77 -7.58,10.56 -15.19,17.6 -22.75,21.1 -7.55,3.5 -15.16,4.32 -22.81,2.56 -7.65,-1.77 -18.7,-7.87 -33.12,-18.22l-11.04 -8.14 -27.55 -19.77c-3.76,-2.7 -9.06,-6.21 -15.85,-10.5 -6.74,-4.25 -10.95,-6.84 -12.67,-7.7 -1.67,-0.83 -3.3,-0.91 -4.89,-0.22 -1.58,0.77 -3.69,2.91 -6.36,6.62l-8.62 11.8 -2.06 0.42 -6.08 -4.36 -0.31 -1.9c10.74,-19.55 18.13,-37.28 22.07,-53.16zm119.31 -202.31l3.4 -2.14c5.86,3.34 16.58,8.62 32.21,15.85l-9.94 -18.61c-3.29,-6.11 -5.58,-11.26 -6.96,-15.49 -1.39,-4.24 -1.96,-8.7 -1.67,-13.37 0.3,-4.67 1.34,-9.13 3.2,-13.38 2.05,-4.68 4.96,-8.66 8.67,-11.96l2.73 -0.17c13.4,7.88 25.38,14.29 36,19.2l-3.14 7.18c-11.59,-0.02 -19.49,4.69 -23.63,14.16 -2.88,6.58 -3.31,13.2 -1.22,19.95 2.04,6.73 5.84,12.28 11.49,16.7 5.6,4.4 13.21,8.76 22.9,13.01l17.68 7.74c3.16,1.38 11.08,4.59 23.68,9.59 12.65,5.02 20.02,7.73 22.14,8.07 2.12,0.34 3.86,0.2 5.22,-0.37 1.33,-0.65 2.5,-1.7 3.53,-3.19 1.07,-1.54 4.92,-8.87 11.59,-22.02l1.87 -0.86 6.69 2.93 0.79 2.03c-7.01,13.79 -13.9,28.34 -20.66,43.78 -5.34,12.18 -10.5,25.16 -15.49,38.79l-2.03 0.79 -6.69 -2.93 -0.63 -1.96c3.87,-10.62 5.93,-16.66 6.18,-18.11 0.24,-1.45 0.11,-2.93 -0.43,-4.34 -0.58,-1.48 -1.8,-2.86 -3.69,-4.14 -1.92,-1.23 -8.59,-4.67 -20.01,-10.25 -11.43,-5.59 -20.14,-9.66 -26.07,-12.26l-31.38 -13.74c-4.24,-1.86 -10.16,-4.19 -17.69,-6.97 -7.45,-2.81 -12.14,-4.4 -14,-4.9 -1.78,-0.52 -3.41,-0.2 -4.82,0.8 -1.36,1.03 -3.01,3.61 -4.82,7.74l-5.97 13.34 -1.95 0.89 -6.85 -3 -0.68 -1.85c6.44,-21.36 9.94,-40.18 10.49,-56.54zm216.18 -197.7l10.37 8.98c3.95,13.79 5.66,25.54 5.14,35.25 -0.54,9.77 -1.85,18.18 -4,25.28 -4.03,13.3 -10.47,25.12 -19.31,35.47 -8.84,10.35 -20.6,17.4 -35.32,21.12 -14.72,3.73 -30.8,2.95 -48.36,-2.37 -11.65,-3.53 -21.71,-8.2 -30.21,-13.94 -8.51,-5.68 -14.57,-10.87 -18.18,-15.37 -3.58,-4.56 -7.02,-11.44 -10.24,-20.66 -3.28,-9.25 -5.3,-18.55 -6.09,-28.03 -0.75,-9.41 0.3,-19.02 3.27,-28.79 4.05,-13.35 10.78,-24.1 20.11,-32.38 9.33,-8.27 19.5,-12.95 30.51,-14.08 11.03,-1.18 22.05,-0.08 33.02,3.25 3.47,1.05 6.71,2.22 9.84,3.55l1.27 2.37c-0.64,8.06 -2.59,18.57 -5.88,31.48 -3.31,12.96 -5.63,21.44 -6.89,25.58l-16.19 53.42c23.08,6.75 41.76,6.14 56.05,-1.93 14.28,-8.02 23.94,-20.23 28.92,-36.65 2.36,-7.78 3.31,-15.63 2.81,-23.6 -0.5,-7.97 -1.9,-16.65 -4.25,-26.11l3.59 -1.83zm-100.42 86.09c0.94,-1.89 3.67,-9.44 8.19,-22.71 4.45,-13.23 7.67,-23.05 9.63,-29.53 4.67,-15.4 7.23,-24.86 7.73,-28.37 -2.64,-0.92 -4.67,-1.6 -6.14,-2.05 -17.22,-5.22 -31.07,-5.57 -41.54,-1.11 -10.48,4.46 -17.57,12.73 -21.24,24.83 -4,13.18 -2.4,24.9 4.8,35.15 7.19,10.25 20.05,18.18 38.58,23.79z"/>
  </g>
  <path id="1" class="fil3" d="M922.45 2146.52l1.43 1.3 0.34 7.29 -1.29 1.61c-3.62,0.17 -10.39,0.31 -20.38,0.3 -9.1,-0.05 -18.42,0.15 -28.03,0.6 -12.51,0.58 -26.43,1.71 -41.81,3.32l-1.44 -1.48 -0.34 -7.29 1.3 -1.43c11.18,-1.24 17.56,-2.07 19.02,-2.5 1.52,-0.43 2.74,-1.2 3.75,-2.31 0.96,-1.17 1.65,-2.87 1.9,-5.14 0.31,-2.27 0.43,-9.77 0.37,-22.49 -0.06,-12.72 -0.27,-22.34 -0.57,-28.8l-3.13 -67.08 -22.37 2.23 -1.61 -1.29 -0.2 -4.33 1.1 -1.83 22.24 -12.69 -0.49 -10.44c-0.54,-11.57 -0.42,-20.37 0.32,-26.35 0.79,-6.04 2.49,-11.65 5.04,-16.82 2.61,-5.18 7.3,-11.76 14,-19.8 6.7,-8.04 12.63,-14.62 17.68,-19.79 5.11,-5.17 9.58,-8.71 13.48,-10.55 3.83,-1.9 8.42,-2.95 13.76,-3.2 4.39,-0.21 9.24,0.46 14.36,1.94l1.21 28.54 -3.96 1.73c-6.74,-5.51 -14.41,-8.07 -23.01,-7.66 -5.99,0.28 -11.15,1.77 -15.43,4.46 -4.33,2.7 -7.11,6.93 -8.51,12.64 -1.34,5.65 -1.74,15 -1.13,27.99l1.68 35.95 18.62 -0.87c9.61,-0.45 18.67,-1.23 27.24,-2.28l1.63 1.82 -2.43 15.45 -1.46 1.8c-3.51,0.04 -5.76,0.09 -6.77,0.14l-22.61 0.88 -13.4 0.63 3.27 70.05c0.17,3.68 0.86,12.15 1.96,25.41 1.15,13.26 2.05,21.01 2.57,23.3 0.59,2.29 1.43,3.92 2.61,4.93 1.12,1.02 2.99,1.64 5.5,2 2.52,0.36 10.48,0.4 23.96,0.13zm96.94 -169.15l3.69 1.46c2.2,15.09 5.91,34.04 11.18,56.9l9.11 39.46c3.34,14.47 6.76,24.28 10.27,29.44 3.49,5.1 8.32,8.56 14.45,10.32 6.13,1.75 12.9,1.78 20.37,0.05 8.27,-1.91 15.36,-5.25 21.44,-10.07 6.02,-4.8 10.65,-10.62 13.86,-17.58 3.23,-6.9 4.96,-11.5 5.13,-13.68 0.23,-2.18 -0.63,-8.02 -2.56,-17.45l-3.86 -19.1 -4.22 -18.28c-1.04,-4.51 -2.7,-10.65 -4.97,-18.36 -2.25,-7.64 -3.71,-12.37 -4.42,-14.15 -0.7,-1.73 -1.88,-2.86 -3.58,-3.38 -1.63,-0.48 -4.69,-0.26 -9.09,0.76l-14.26 3.17 -1.82 -1.04 -1.68 -7.29 1.03 -1.64c20.98,-7.59 38.23,-16.01 51.62,-25.32l3.75 1.45c2.2,15.09 5.91,34.04 11.18,56.9l6.88 29.8c0.4,1.74 3.88,15.5 10.4,41.36 2.45,9.55 4.43,15.25 5.84,17.12 1.46,1.85 3.14,3.05 5.01,3.48 1.88,0.48 7,-0.28 15.4,-2.21l4.74 -1.09 1.83 1.04 1.56 6.77 -0.98 1.81c-16.17,2.82 -26.92,4.81 -32.36,6.07 -6.89,1.59 -14.78,3.84 -23.62,6.73l-1.82 -1.04c-2.02,-11.66 -3.76,-21.56 -5.26,-29.68 -5.84,7.2 -12.29,16.48 -19.29,27.85 -2.66,4.33 -7.02,8.38 -13.07,12.28 -5.99,3.88 -13.17,6.82 -21.5,8.74 -12.67,2.92 -23.03,3.18 -31.01,0.82 -7.98,-2.36 -14.24,-6.77 -18.82,-13.14 -4.58,-6.38 -8.84,-18.25 -12.83,-35.55l-2.91 -13.41 -7.63 -33.04c-1.04,-4.51 -2.7,-10.65 -4.97,-18.36 -2.25,-7.64 -3.71,-12.37 -4.43,-14.15 -0.7,-1.73 -1.88,-2.86 -3.52,-3.39 -1.69,-0.46 -4.69,-0.26 -9.15,0.77l-14.26 3.17 -1.82 -1.04 -1.68 -7.29 1.03 -1.64c20.98,-7.58 38.23,-16.01 51.68,-25.34zm226.53 -65.88l3.9 0.96c1.66,6.54 5.3,17.92 10.94,34.19l6.51 -20.07c2.11,-6.61 4.23,-11.83 6.32,-15.76 2.09,-3.94 4.9,-7.45 8.47,-10.48 3.57,-3.03 7.51,-5.37 11.85,-6.98 4.79,-1.77 9.67,-2.44 14.62,-2.06l2.02 1.85c3.63,15.12 7.32,28.19 11.16,39.24l-7.35 2.72c-8.03,-8.36 -16.9,-10.78 -26.59,-7.19 -6.74,2.49 -11.8,6.77 -15.21,12.97 -3.43,6.14 -4.79,12.73 -4.05,19.86 0.72,7.08 2.86,15.6 6.53,25.51l6.7 18.1c1.2,3.23 4.38,11.17 9.53,23.7 5.16,12.59 8.33,19.78 9.55,21.54 1.22,1.76 2.54,2.92 3.89,3.5 1.39,0.5 2.95,0.62 4.74,0.33 1.85,-0.3 9.8,-2.61 23.9,-6.94l1.92 0.74 2.54 6.85 -0.91 1.98c-14.79,4.52 -30.05,9.66 -45.86,15.51 -12.48,4.62 -25.4,9.9 -38.68,15.77l-1.98 -0.91 -2.54 -6.85 0.98 -1.82c10.33,-4.58 16.11,-7.29 17.32,-8.12 1.21,-0.83 2.19,-1.95 2.82,-3.32 0.67,-1.45 0.81,-3.27 0.42,-5.54 -0.45,-2.24 -2.6,-9.42 -6.51,-21.52 -3.91,-12.1 -7.02,-21.21 -9.27,-27.28l-11.89 -32.13c-1.61,-4.34 -4.03,-10.22 -7.26,-17.57 -3.15,-7.32 -5.25,-11.8 -6.19,-13.48 -0.86,-1.64 -2.22,-2.59 -3.93,-2.91 -1.68,-0.27 -4.69,0.34 -8.92,1.91l-13.74 4.96 -2 -0.78 -2.6 -7.01 0.86 -1.78c19.84,-10.19 35.83,-20.73 47.98,-31.68zm142.11 -63.76l4.01 0.23c3.39,7.04 8.23,16.04 14.53,27.01 4.01,-11.33 7.6,-22.56 10.67,-33.6 1.01,-3.17 2.12,-5.7 3.4,-7.72 1.31,-1.96 3.79,-4.76 7.46,-8.35 3.7,-3.53 7.77,-6.66 12.26,-9.35 7.59,-4.55 15.84,-7.42 24.78,-8.55 8.99,-1.17 16.51,-0.76 22.71,1.27 6.15,2.06 11.64,5.56 16.54,10.51 4.82,4.93 9.81,11.64 14.88,20.09l15.72 26.23c1.01,1.68 8.71,13.95 23,36.75 5.85,9.3 10.31,14.31 13.26,14.97 2.95,0.65 9.67,-2.12 20.11,-8.38l1.92 0.44 3.85 6.42 -0.52 1.9c-13.09,6.81 -21.89,11.53 -26.37,14.21 -2.55,1.53 -9.59,6.3 -21.05,14.2l-2.81 -0.53c-6.43,-13.73 -15.92,-30.96 -28.38,-51.74l-11.72 -19.56c-7.02,-11.71 -12.35,-20.01 -16.02,-24.87 -3.59,-4.84 -8.11,-8.57 -13.45,-11.12 -5.29,-2.58 -11.01,-3.58 -17.1,-3.12 -6.04,0.43 -12.34,2.62 -18.81,6.5 -5.14,3.08 -9.27,6.25 -12.3,9.52 -3.11,3.25 -5.95,7.86 -8.58,13.86 -2.61,5.93 -4.19,11.03 -4.67,15.19 -0.51,4.11 -0.25,7.56 0.81,10.25 1.01,2.72 3.86,8.07 8.63,16.01l15.57 25.97c1.31,2.19 5.73,9.1 13.25,20.72 7.55,11.68 12.11,18.36 13.76,20.07 1.65,1.71 3.17,2.74 4.63,3.11 1.41,0.4 2.87,0.29 4.3,-0.22 1.43,-0.51 7.07,-3.33 16.86,-8.37l2.08 0.35 3.75 6.26 -0.43 2.06c-12.89,6.68 -25.1,13.45 -36.66,20.38 -11.41,6.84 -23.13,14.42 -35.1,22.63l-2.12 -0.53 -3.75 -6.26 0.62 -1.97c9.31,-6.41 14.48,-10.14 15.52,-11.17 1.04,-1.04 1.79,-2.32 2.16,-3.79 0.39,-1.55 0.2,-3.37 -0.61,-5.52 -0.86,-2.12 -4.3,-8.78 -10.37,-19.96 -6.07,-11.17 -10.81,-19.55 -14.14,-25.1l-17.61 -29.39c-2.38,-3.97 -5.85,-9.3 -10.38,-15.93 -4.45,-6.61 -7.34,-10.62 -8.57,-12.1 -1.15,-1.46 -2.66,-2.14 -4.4,-2.14 -1.7,0.05 -4.54,1.2 -8.41,3.52l-12.59 7.41 -2.11 -0.4 -3.85 -6.42 0.52 -1.9c17.62,-13.68 31.39,-26.98 41.31,-39.99zm126.41 -181.05c4.1,-3.61 8.87,-5.19 14.24,-4.85 5.45,0.35 9.93,2.57 13.5,6.62 3.53,4.01 5.12,8.7 4.78,14.15 -0.34,5.36 -2.53,9.89 -6.63,13.5 -4.01,3.53 -8.74,5.16 -14.15,4.86 -5.42,-0.22 -9.9,-2.44 -13.51,-6.55 -3.57,-4.05 -5.2,-8.79 -4.81,-14.27 0.39,-5.4 2.57,-9.93 6.58,-13.46zm62.49 48.63l3.94 -0.46c9.11,12.24 21.37,27.16 36.86,44.76l25.97 29.51c1.69,1.92 7.28,7.91 16.77,17.99 9.54,10.12 15.23,15.87 17.16,17.25 1.93,1.39 3.61,2.12 5.07,2.26 1.51,0.09 2.88,-0.24 4.23,-1.04 1.31,-0.76 6.35,-4.56 15.07,-11.28l2.11 -0.03 4.82 5.48 -0.05 2.1c-11.47,8.9 -22.25,17.77 -32.38,26.67 -9.98,8.79 -20.15,18.36 -30.43,28.6l-2.18 -0.14 -4.82 -5.48 0.26 -2.04c7.96,-7.95 12.37,-12.55 13.25,-13.8 0.83,-1.21 1.34,-2.61 1.44,-4.11 0.1,-1.59 -0.42,-3.35 -1.64,-5.28 -1.18,-1.97 -5.77,-7.9 -13.76,-17.79 -8,-9.89 -14.17,-17.27 -18.45,-22.13l-22.64 -25.72c-3.06,-3.48 -7.43,-8.09 -13.09,-13.8 -5.61,-5.66 -9.13,-9.12 -10.61,-10.35 -1.44,-1.18 -3.01,-1.62 -4.71,-1.31 -1.71,0.39 -4.25,2 -7.68,5.02l-11.04 9.56 -2.1 -0.05 -4.94 -5.62 0.12 -1.93c14.91,-16.68 26.04,-32.25 33.45,-46.84zm82.71 -34.01l-3.24 -3.14 -0.41 -2.05c4.67,-10.69 8.11,-19.61 10.31,-26.9 -21.73,-21.09 -34.59,-33.08 -38.67,-36.04 5.29,-11.5 8.91,-21.63 10.84,-30.44l5.41 -0.54c4.45,5.9 18.72,21.64 42.79,47.31 4.14,-4.09 8.52,-8.53 13.24,-13.38 9.51,-9.8 16.08,-17.08 19.7,-21.84l1.72 0.02 8.17 12.56 0.16 2.06c-4.22,4.18 -8.81,8.82 -13.82,13.98 -4.51,4.65 -10.3,10.69 -17.32,18.11l50.13 50.06c11.72,11.37 19.64,18.56 23.8,21.52 4.12,3 8.42,4.28 12.82,3.75 4.44,-0.49 8.98,-3.12 13.65,-7.93 5.42,-5.58 8.97,-12.14 10.71,-19.73l7.37 1.36c-0.54,3.37 -0.99,12.19 -1.45,26.48 -2.18,6.25 -5.5,11.63 -9.84,16.1 -18.2,18.75 -36.37,19.31 -54.48,1.74 -6.69,-6.49 -12.15,-12.12 -16.51,-17.01 -1.32,-1.45 -2.73,-2.9 -4.22,-4.35l-51.82 -50.29 -4.96 5.11c-3.64,3.75 -7.65,8.22 -11.98,13.37l-2.1 0.11zm106.73 -168.98l3.74 -1.34c11.62,9.88 26.92,21.66 45.97,35.34l32.9 23.62c12.06,8.66 21.11,13.76 27.16,15.32 5.99,1.52 11.9,0.94 17.66,-1.8 5.76,-2.73 10.86,-7.19 15.33,-13.41 4.95,-6.9 8.07,-14.09 9.45,-21.72 1.35,-7.58 0.98,-15.01 -1.2,-22.35 -2.14,-7.31 -3.87,-11.92 -5.18,-13.66 -1.27,-1.79 -5.77,-5.6 -13.45,-11.4l-15.51 -11.79 -15.24 -10.94c-3.76,-2.7 -9.06,-6.21 -15.85,-10.5 -6.74,-4.25 -10.95,-6.84 -12.67,-7.71 -1.67,-0.83 -3.3,-0.9 -4.92,-0.17 -1.54,0.72 -3.69,2.91 -6.32,6.57l-8.62 11.8 -2.06 0.42 -6.08 -4.36 -0.31 -1.91c10.75,-19.55 18.13,-37.27 22.04,-53.11l3.77 -1.39c11.62,9.88 26.92,21.66 45.98,35.34l24.84 17.83c1.45,1.04 13.15,9.08 35.12,24.19 8.14,5.56 13.4,8.52 15.69,9 2.33,0.43 4.38,0.22 6.06,-0.7 1.73,-0.88 5.08,-4.83 10.1,-11.83l2.84 -3.96 2.06 -0.42 5.64 4.05 0.46 2.01c-10.28,12.79 -17.04,21.39 -20.29,25.93 -4.12,5.74 -8.56,12.64 -13.29,20.65l-2.06 0.42c-9.22,-7.42 -17.06,-13.71 -23.56,-18.81 0.37,9.26 1.66,20.49 3.91,33.66 0.87,5.01 0.27,10.93 -1.7,17.85 -1.94,6.87 -5.39,13.82 -10.38,20.77 -7.58,10.56 -15.19,17.6 -22.75,21.1 -7.55,3.5 -15.16,4.32 -22.81,2.56 -7.65,-1.77 -18.7,-7.87 -33.12,-18.22l-11.04 -8.14 -27.55 -19.77c-3.76,-2.7 -9.06,-6.21 -15.85,-10.5 -6.74,-4.25 -10.95,-6.84 -12.67,-7.7 -1.67,-0.83 -3.3,-0.91 -4.89,-0.22 -1.58,0.77 -3.69,2.91 -6.36,6.62l-8.62 11.8 -2.06 0.42 -6.08 -4.36 -0.31 -1.9c10.74,-19.55 18.13,-37.28 22.07,-53.16zm119.31 -202.31l3.4 -2.14c5.86,3.34 16.58,8.62 32.21,15.85l-9.94 -18.61c-3.29,-6.11 -5.58,-11.26 -6.96,-15.49 -1.39,-4.24 -1.96,-8.7 -1.67,-13.37 0.3,-4.67 1.34,-9.13 3.2,-13.38 2.05,-4.68 4.96,-8.66 8.67,-11.96l2.73 -0.17c13.4,7.88 25.38,14.29 36,19.2l-3.14 7.18c-11.59,-0.02 -19.49,4.69 -23.63,14.16 -2.88,6.58 -3.31,13.2 -1.22,19.95 2.04,6.73 5.84,12.28 11.49,16.7 5.6,4.4 13.21,8.76 22.9,13.01l17.68 7.74c3.16,1.38 11.08,4.59 23.68,9.59 12.65,5.02 20.02,7.73 22.14,8.07 2.12,0.34 3.86,0.2 5.22,-0.37 1.33,-0.65 2.5,-1.7 3.53,-3.19 1.07,-1.54 4.92,-8.87 11.59,-22.02l1.87 -0.86 6.69 2.93 0.79 2.03c-7.01,13.79 -13.9,28.34 -20.66,43.78 -5.34,12.18 -10.5,25.16 -15.49,38.79l-2.03 0.79 -6.69 -2.93 -0.63 -1.96c3.87,-10.62 5.93,-16.66 6.18,-18.11 0.24,-1.45 0.11,-2.93 -0.43,-4.34 -0.58,-1.48 -1.8,-2.86 -3.69,-4.14 -1.92,-1.23 -8.59,-4.67 -20.01,-10.25 -11.43,-5.59 -20.14,-9.66 -26.07,-12.26l-31.38 -13.74c-4.24,-1.86 -10.16,-4.19 -17.69,-6.97 -7.45,-2.81 -12.14,-4.4 -14,-4.9 -1.78,-0.52 -3.41,-0.2 -4.82,0.8 -1.36,1.03 -3.01,3.61 -4.82,7.74l-5.97 13.34 -1.95 0.89 -6.85 -3 -0.68 -1.85c6.44,-21.36 9.94,-40.18 10.49,-56.54zm216.18 -197.7l10.37 8.98c3.95,13.79 5.66,25.54 5.14,35.25 -0.54,9.77 -1.85,18.18 -4,25.28 -4.03,13.3 -10.47,25.12 -19.31,35.47 -8.84,10.35 -20.6,17.4 -35.32,21.12 -14.72,3.73 -30.8,2.95 -48.36,-2.37 -11.65,-3.53 -21.71,-8.2 -30.21,-13.94 -8.51,-5.68 -14.57,-10.87 -18.18,-15.37 -3.58,-4.56 -7.02,-11.44 -10.24,-20.66 -3.28,-9.25 -5.3,-18.55 -6.09,-28.03 -0.75,-9.41 0.3,-19.02 3.27,-28.79 4.05,-13.35 10.78,-24.1 20.11,-32.38 9.33,-8.27 19.5,-12.95 30.51,-14.08 11.03,-1.18 22.05,-0.08 33.02,3.25 3.47,1.05 6.71,2.22 9.84,3.55l1.27 2.37c-0.64,8.06 -2.59,18.57 -5.88,31.48 -3.31,12.96 -5.63,21.44 -6.89,25.58l-16.19 53.42c23.08,6.75 41.76,6.14 56.05,-1.93 14.28,-8.02 23.94,-20.23 28.92,-36.65 2.36,-7.78 3.31,-15.63 2.81,-23.6 -0.5,-7.97 -1.9,-16.65 -4.25,-26.11l3.59 -1.83zm-100.42 86.09c0.94,-1.89 3.67,-9.44 8.19,-22.71 4.45,-13.23 7.67,-23.05 9.63,-29.53 4.67,-15.4 7.23,-24.86 7.73,-28.37 -2.64,-0.92 -4.67,-1.6 -6.14,-2.05 -17.22,-5.22 -31.07,-5.57 -41.54,-1.11 -10.48,4.46 -17.57,12.73 -21.24,24.83 -4,13.18 -2.4,24.9 4.8,35.15 7.19,10.25 20.05,18.18 38.58,23.79z"/>
  <g>
   <path class="fil1 str3" d="M155.58 2031.1l-6.99 -1.84 -1.47 -1.78 0 -22.25c21.33,-15.82 42.05,-23.72 62.15,-23.72 13.79,0 25.19,2.57 34.32,7.72 9.07,5.15 15.69,11.59 19.74,19.31 4.04,7.72 6.13,16.73 6.13,27.03l-0.92 36.1 0 53.51c0,7.29 0.49,11.71 1.53,13.3 0.98,1.53 2.15,2.57 3.49,3.13 1.29,0.55 3.74,0.98 7.36,1.35l10.23 0.86 1.41 1.66 0 7.17 -1.41 1.47c-8.76,-0.73 -16.86,-1.1 -24.39,-1.1 -7.23,0 -15.81,0.37 -25.87,1.1l-2.7 -2.57 0.68 -28.87 -39.11 30.53c-6.62,2.76 -13.79,4.11 -21.58,4.11 -9.56,0 -17.78,-1.72 -24.7,-5.21 -6.87,-3.43 -12.14,-8.28 -15.75,-14.53 -3.68,-6.25 -5.52,-13.79 -5.52,-22.62 0,-17.59 5.52,-31.32 16.55,-41.25 11.03,-9.87 41.07,-18.27 90.11,-25.19 0,-17.71 -3.92,-30.22 -11.83,-37.45 -7.91,-7.23 -18.51,-10.85 -31.75,-10.85 -6.99,0 -13.3,0.98 -19,3.07 -5.64,2.02 -8.95,3.68 -9.75,4.9 -0.86,1.29 -4.11,8.58 -9.68,22.01l-1.29 0.92zm83.3 28.38c-33.47,5.58 -54.37,11.65 -62.64,18.08 -8.28,6.5 -12.38,16.49 -12.38,30.03 0,18.63 9.26,28.01 27.83,28.01 15.94,0 31.69,-9.26 47.2,-27.65l0 -48.48z"/>
  </g>
  <g>
   <path id="1" class="fil1 str3" d="M545.33 2011.86l0 -4.66 1.22 -1.78c11.28,-4.23 20.35,-8.09 27.34,-11.71 0,-31.26 -0.37,-49.4 -1.1,-54.55 12.32,-4.35 22.44,-8.95 30.34,-13.85l4.29 3.62c-1.16,7.54 -2.57,29.42 -4.29,65.71 6.01,0.12 12.44,0.18 19.43,0.18 14.1,0 24.21,-0.37 30.34,-1.1l1.23 1.29 -3.43 15.08 -1.41 1.59c-6.13,-0.12 -12.87,-0.18 -20.29,-0.18 -6.68,0 -15.32,0.06 -25.87,0.18l-1.04 73.13c0,16.86 0.37,27.89 1.16,33.1 0.73,5.21 2.88,9.32 6.44,12.2 3.56,2.94 8.76,4.41 15.69,4.41 8.03,0 15.45,-2.09 22.31,-6.25l4.29 6.44c-2.88,2.02 -9.75,8.03 -20.66,17.96 -6.19,2.88 -12.57,4.29 -19,4.29 -26.97,0 -40.45,-13.06 -40.45,-39.11 0,-9.62 0.25,-17.72 0.73,-24.46 0.12,-2.02 0.18,-4.11 0.18,-6.25l0 -74.54 -7.35 0c-5.4,0 -11.59,0.25 -18.51,0.73l-1.59 -1.47z"/>
  </g>
  <g>
   <path id="2" class="fil1 str3" d="M380.98 1981.7l3.43 2.33c-0.73,8.03 -1.22,18.57 -1.47,31.63 9.56,-7.91 18.69,-15.94 27.28,-24.09 2.57,-2.27 4.9,-3.92 7.11,-5.03 2.21,-1.04 5.88,-2.21 11.03,-3.43 5.15,-1.16 10.42,-1.78 15.81,-1.78 9.13,0 17.96,1.84 26.48,5.58 8.58,3.74 15.02,8.09 19.43,13.18 4.35,5.09 7.36,11.09 9.07,18.08 1.65,6.93 2.51,15.51 2.51,25.68l0 31.57c0,2.02 0.31,16.98 0.86,44.75 0.24,11.34 1.53,18.14 3.8,20.29 2.27,2.15 9.69,3.25 22.25,3.25l1.47 1.41 0 7.72 -1.47 1.41c-15.2,-0.92 -25.5,-1.41 -30.9,-1.41 -3.06,0 -11.83,0.49 -26.17,1.41l-2.2 -1.96c1.59,-15.57 2.33,-35.86 2.33,-60.87l0 -23.54c0,-14.1 -0.31,-24.27 -0.98,-30.53 -0.61,-6.19 -2.64,-11.89 -6.01,-16.98 -3.31,-5.09 -7.85,-9.01 -13.48,-11.83 -5.58,-2.82 -12.32,-4.23 -20.1,-4.23 -6.19,0 -11.52,0.61 -15.94,1.9 -4.48,1.23 -9.44,3.8 -14.96,7.72 -5.46,3.86 -9.56,7.54 -12.2,10.97 -2.63,3.37 -4.23,6.56 -4.72,9.5 -0.55,2.94 -0.86,9.19 -0.86,18.76l0 31.26c0,2.63 0.25,11.09 0.73,25.38 0.49,14.34 0.98,22.68 1.53,25.07 0.55,2.39 1.35,4.11 2.45,5.21 1.04,1.1 2.39,1.78 3.92,2.09 1.53,0.31 8.03,0.79 19.37,1.53l1.65 1.41 0 7.54 -1.47 1.59c-14.96,-0.92 -29.36,-1.41 -43.28,-1.41 -13.73,0 -28.13,0.49 -43.09,1.41l-1.59 -1.59 0 -7.54 1.59 -1.41c11.65,-0.74 18.2,-1.29 19.68,-1.66 1.47,-0.37 2.82,-1.1 3.92,-2.21 1.16,-1.16 1.96,-2.88 2.39,-5.21 0.37,-2.33 0.86,-10.05 1.41,-23.17 0.55,-13.12 0.8,-23.05 0.8,-29.73l0 -35.37c0,-4.78 -0.25,-11.34 -0.73,-19.61 -0.43,-8.21 -0.86,-13.3 -1.16,-15.26 -0.25,-1.9 -1.23,-3.31 -2.76,-4.23 -1.53,-0.86 -4.66,-1.35 -9.32,-1.35l-15.08 -0.12 -1.66 -1.47 0 -7.72 1.47 -1.41c22.86,-2.76 42.11,-7.23 57.8,-13.48z"/>
  </g>
  <path id="3" class="fil2" d="M155.58 2031.1l-6.99 -1.84 -1.47 -1.78 0 -22.25c21.33,-15.82 42.05,-23.72 62.15,-23.72 13.79,0 25.19,2.57 34.32,7.72 9.07,5.15 15.69,11.59 19.74,19.31 4.04,7.72 6.13,16.73 6.13,27.03l-0.92 36.1 0 53.51c0,7.29 0.49,11.71 1.53,13.3 0.98,1.53 2.15,2.57 3.49,3.13 1.29,0.55 3.74,0.98 7.36,1.35l10.23 0.86 1.41 1.66 0 7.17 -1.41 1.47c-8.76,-0.73 -16.86,-1.1 -24.39,-1.1 -7.23,0 -15.81,0.37 -25.87,1.1l-2.7 -2.57 0.68 -28.87 -39.11 30.53c-6.62,2.76 -13.79,4.11 -21.58,4.11 -9.56,0 -17.78,-1.72 -24.7,-5.21 -6.87,-3.43 -12.14,-8.28 -15.75,-14.53 -3.68,-6.25 -5.52,-13.79 -5.52,-22.62 0,-17.59 5.52,-31.32 16.55,-41.25 11.03,-9.87 41.07,-18.27 90.11,-25.19 0,-17.71 -3.92,-30.22 -11.83,-37.45 -7.91,-7.23 -18.51,-10.85 -31.75,-10.85 -6.99,0 -13.3,0.98 -19,3.07 -5.64,2.02 -8.95,3.68 -9.75,4.9 -0.86,1.29 -4.11,8.58 -9.68,22.01l-1.29 0.92zm83.3 28.38c-33.47,5.58 -54.37,11.65 -62.64,18.08 -8.28,6.5 -12.38,16.49 -12.38,30.03 0,18.63 9.26,28.01 27.83,28.01 15.94,0 31.69,-9.26 47.2,-27.65l0 -48.48z"/>
  <path id="4" class="fil2" d="M545.33 2011.86l0 -4.66 1.22 -1.78c11.28,-4.23 20.35,-8.09 27.34,-11.71 0,-31.26 -0.37,-49.4 -1.1,-54.55 12.32,-4.35 22.44,-8.95 30.34,-13.85l4.29 3.62c-1.16,7.54 -2.57,29.42 -4.29,65.71 6.01,0.12 12.44,0.18 19.43,0.18 14.1,0 24.21,-0.37 30.34,-1.1l1.23 1.29 -3.43 15.08 -1.41 1.59c-6.13,-0.12 -12.87,-0.18 -20.29,-0.18 -6.68,0 -15.32,0.06 -25.87,0.18l-1.04 73.13c0,16.86 0.37,27.89 1.16,33.1 0.73,5.21 2.88,9.32 6.44,12.2 3.56,2.94 8.76,4.41 15.69,4.41 8.03,0 15.45,-2.09 22.31,-6.25l4.29 6.44c-2.88,2.02 -9.75,8.03 -20.66,17.96 -6.19,2.88 -12.57,4.29 -19,4.29 -26.97,0 -40.45,-13.06 -40.45,-39.11 0,-9.62 0.25,-17.72 0.73,-24.46 0.12,-2.02 0.18,-4.11 0.18,-6.25l0 -74.54 -7.35 0c-5.4,0 -11.59,0.25 -18.51,0.73l-1.59 -1.47z"/>
  <path id="5" class="fil2" d="M380.98 1981.7l3.43 2.33c-0.73,8.03 -1.22,18.57 -1.47,31.63 9.56,-7.91 18.69,-15.94 27.28,-24.09 2.57,-2.27 4.9,-3.92 7.11,-5.03 2.21,-1.04 5.88,-2.21 11.03,-3.43 5.15,-1.16 10.42,-1.78 15.81,-1.78 9.13,0 17.96,1.84 26.48,5.58 8.58,3.74 15.02,8.09 19.43,13.18 4.35,5.09 7.36,11.09 9.07,18.08 1.65,6.93 2.51,15.51 2.51,25.68l0 31.57c0,2.02 0.31,16.98 0.86,44.75 0.24,11.34 1.53,18.14 3.8,20.29 2.27,2.15 9.69,3.25 22.25,3.25l1.47 1.41 0 7.72 -1.47 1.41c-15.2,-0.92 -25.5,-1.41 -30.9,-1.41 -3.06,0 -11.83,0.49 -26.17,1.41l-2.2 -1.96c1.59,-15.57 2.33,-35.86 2.33,-60.87l0 -23.54c0,-14.1 -0.31,-24.27 -0.98,-30.53 -0.61,-6.19 -2.64,-11.89 -6.01,-16.98 -3.31,-5.09 -7.85,-9.01 -13.48,-11.83 -5.58,-2.82 -12.32,-4.23 -20.1,-4.23 -6.19,0 -11.52,0.61 -15.94,1.9 -4.48,1.23 -9.44,3.8 -14.96,7.72 -5.46,3.86 -9.56,7.54 -12.2,10.97 -2.63,3.37 -4.23,6.56 -4.72,9.5 -0.55,2.94 -0.86,9.19 -0.86,18.76l0 31.26c0,2.63 0.25,11.09 0.73,25.38 0.49,14.34 0.98,22.68 1.53,25.07 0.55,2.39 1.35,4.11 2.45,5.21 1.04,1.1 2.39,1.78 3.92,2.09 1.53,0.31 8.03,0.79 19.37,1.53l1.65 1.41 0 7.54 -1.47 1.59c-14.96,-0.92 -29.36,-1.41 -43.28,-1.41 -13.73,0 -28.13,0.49 -43.09,1.41l-1.59 -1.59 0 -7.54 1.59 -1.41c11.65,-0.74 18.2,-1.29 19.68,-1.66 1.47,-0.37 2.82,-1.1 3.92,-2.21 1.16,-1.16 1.96,-2.88 2.39,-5.21 0.37,-2.33 0.86,-10.05 1.41,-23.17 0.55,-13.12 0.8,-23.05 0.8,-29.73l0 -35.37c0,-4.78 -0.25,-11.34 -0.73,-19.61 -0.43,-8.21 -0.86,-13.3 -1.16,-15.26 -0.25,-1.9 -1.23,-3.31 -2.76,-4.23 -1.53,-0.86 -4.66,-1.35 -9.32,-1.35l-15.08 -0.12 -1.66 -1.47 0 -7.72 1.47 -1.41c22.86,-2.76 42.11,-7.23 57.8,-13.48z"/>
  <g>
   <path class="fil0 str0" d="M819.11 3.1c450.67,0 816,365.33 816,816 0,450.67 -365.33,816 -816,816 -450.67,0 -816,-365.33 -816,-816 0,-450.67 365.33,-816 816,-816z"/>
  </g>
  <g>
   <path class="fil1 str4" d="M922.45 2146.52l1.43 1.3 0.34 7.29 -1.29 1.61c-3.62,0.17 -10.39,0.31 -20.38,0.3 -9.1,-0.05 -18.42,0.15 -28.03,0.6 -12.51,0.58 -26.43,1.71 -41.81,3.32l-1.44 -1.48 -0.34 -7.29 1.3 -1.43c11.18,-1.24 17.56,-2.07 19.02,-2.5 1.52,-0.43 2.74,-1.2 3.75,-2.31 0.96,-1.17 1.65,-2.87 1.9,-5.14 0.31,-2.27 0.43,-9.77 0.37,-22.49 -0.06,-12.72 -0.27,-22.34 -0.57,-28.8l-3.13 -67.08 -22.37 2.23 -1.61 -1.29 -0.2 -4.33 1.1 -1.83 22.24 -12.69 -0.49 -10.44c-0.54,-11.57 -0.42,-20.37 0.32,-26.35 0.79,-6.04 2.49,-11.65 5.04,-16.82 2.61,-5.18 7.3,-11.76 14,-19.8 6.7,-8.04 12.63,-14.62 17.68,-19.79 5.11,-5.17 9.58,-8.71 13.48,-10.55 3.83,-1.9 8.42,-2.95 13.76,-3.2 4.39,-0.21 9.24,0.46 14.36,1.94l1.21 28.54 -3.96 1.73c-6.74,-5.51 -14.41,-8.07 -23.01,-7.66 -5.99,0.28 -11.15,1.77 -15.43,4.46 -4.33,2.7 -7.11,6.93 -8.51,12.64 -1.34,5.65 -1.74,15 -1.13,27.99l1.68 35.95 18.62 -0.87c9.61,-0.45 18.67,-1.23 27.24,-2.28l1.63 1.82 -2.43 15.45 -1.46 1.8c-3.51,0.04 -5.76,0.09 -6.77,0.14l-22.61 0.88 -13.4 0.63 3.27 70.05c0.17,3.68 0.86,12.15 1.96,25.41 1.15,13.26 2.05,21.01 2.57,23.3 0.59,2.29 1.43,3.92 2.61,4.93 1.12,1.02 2.99,1.64 5.5,2 2.52,0.36 10.48,0.4 23.96,0.13zm96.94 -169.15l3.69 1.46c2.2,15.09 5.91,34.04 11.18,56.9l9.11 39.46c3.34,14.47 6.76,24.28 10.27,29.44 3.49,5.1 8.32,8.56 14.45,10.32 6.13,1.75 12.9,1.78 20.37,0.05 8.27,-1.91 15.36,-5.25 21.44,-10.07 6.02,-4.8 10.65,-10.62 13.86,-17.58 3.23,-6.9 4.96,-11.5 5.13,-13.68 0.23,-2.18 -0.63,-8.02 -2.56,-17.45l-3.86 -19.1 -4.22 -18.28c-1.04,-4.51 -2.7,-10.65 -4.97,-18.36 -2.25,-7.64 -3.71,-12.37 -4.42,-14.15 -0.7,-1.73 -1.88,-2.86 -3.58,-3.38 -1.63,-0.48 -4.69,-0.26 -9.09,0.76l-14.26 3.17 -1.82 -1.04 -1.68 -7.29 1.03 -1.64c20.98,-7.59 38.23,-16.01 51.62,-25.32l3.75 1.45c2.2,15.09 5.91,34.04 11.18,56.9l6.88 29.8c0.4,1.74 3.88,15.5 10.4,41.36 2.45,9.55 4.43,15.25 5.84,17.12 1.46,1.85 3.14,3.05 5.01,3.48 1.88,0.48 7,-0.28 15.4,-2.21l4.74 -1.09 1.83 1.04 1.56 6.77 -0.98 1.81c-16.17,2.82 -26.92,4.81 -32.36,6.07 -6.89,1.59 -14.78,3.84 -23.62,6.73l-1.82 -1.04c-2.02,-11.66 -3.76,-21.56 -5.26,-29.68 -5.84,7.2 -12.29,16.48 -19.29,27.85 -2.66,4.33 -7.02,8.38 -13.07,12.28 -5.99,3.88 -13.17,6.82 -21.5,8.74 -12.67,2.92 -23.03,3.18 -31.01,0.82 -7.98,-2.36 -14.24,-6.77 -18.82,-13.14 -4.58,-6.38 -8.84,-18.25 -12.83,-35.55l-2.91 -13.41 -7.63 -33.04c-1.04,-4.51 -2.7,-10.65 -4.97,-18.36 -2.25,-7.64 -3.71,-12.37 -4.43,-14.15 -0.7,-1.73 -1.88,-2.86 -3.52,-3.39 -1.69,-0.46 -4.69,-0.26 -9.15,0.77l-14.26 3.17 -1.82 -1.04 -1.68 -7.29 1.03 -1.64c20.98,-7.58 38.23,-16.01 51.68,-25.34zm226.53 -65.88l3.9 0.96c1.66,6.54 5.3,17.92 10.94,34.19l6.51 -20.07c2.11,-6.61 4.23,-11.83 6.32,-15.76 2.09,-3.94 4.9,-7.45 8.47,-10.48 3.57,-3.03 7.51,-5.37 11.85,-6.98 4.79,-1.77 9.67,-2.44 14.62,-2.06l2.02 1.85c3.63,15.12 7.32,28.19 11.16,39.24l-7.35 2.72c-8.03,-8.36 -16.9,-10.78 -26.59,-7.19 -6.74,2.49 -11.8,6.77 -15.21,12.97 -3.43,6.14 -4.79,12.73 -4.05,19.86 0.72,7.08 2.86,15.6 6.53,25.51l6.7 18.1c1.2,3.23 4.38,11.17 9.53,23.7 5.16,12.59 8.33,19.78 9.55,21.54 1.22,1.76 2.54,2.92 3.89,3.5 1.39,0.5 2.95,0.62 4.74,0.33 1.85,-0.3 9.8,-2.61 23.9,-6.94l1.92 0.74 2.54 6.85 -0.91 1.98c-14.79,4.52 -30.05,9.66 -45.86,15.51 -12.48,4.62 -25.4,9.9 -38.68,15.77l-1.98 -0.91 -2.54 -6.85 0.98 -1.82c10.33,-4.58 16.11,-7.29 17.32,-8.12 1.21,-0.83 2.19,-1.95 2.82,-3.32 0.67,-1.45 0.81,-3.27 0.42,-5.54 -0.45,-2.24 -2.6,-9.42 -6.51,-21.52 -3.91,-12.1 -7.02,-21.21 -9.27,-27.28l-11.89 -32.13c-1.61,-4.34 -4.03,-10.22 -7.26,-17.57 -3.15,-7.32 -5.25,-11.8 -6.19,-13.48 -0.86,-1.64 -2.22,-2.59 -3.93,-2.91 -1.68,-0.27 -4.69,0.34 -8.92,1.91l-13.74 4.96 -2 -0.78 -2.6 -7.01 0.86 -1.78c19.84,-10.19 35.83,-20.73 47.98,-31.68zm142.11 -63.76l4.01 0.23c3.39,7.04 8.23,16.04 14.53,27.01 4.01,-11.33 7.6,-22.56 10.67,-33.6 1.01,-3.17 2.12,-5.7 3.4,-7.72 1.31,-1.96 3.79,-4.76 7.46,-8.35 3.7,-3.53 7.77,-6.66 12.26,-9.35 7.59,-4.55 15.84,-7.42 24.78,-8.55 8.99,-1.17 16.51,-0.76 22.71,1.27 6.15,2.06 11.64,5.56 16.54,10.51 4.82,4.93 9.81,11.64 14.88,20.09l15.72 26.23c1.01,1.68 8.71,13.95 23,36.75 5.85,9.3 10.31,14.31 13.26,14.97 2.95,0.65 9.67,-2.12 20.11,-8.38l1.92 0.44 3.85 6.42 -0.52 1.9c-13.09,6.81 -21.89,11.53 -26.37,14.21 -2.55,1.53 -9.59,6.3 -21.05,14.2l-2.81 -0.53c-6.43,-13.73 -15.92,-30.96 -28.38,-51.74l-11.72 -19.56c-7.02,-11.71 -12.35,-20.01 -16.02,-24.87 -3.59,-4.84 -8.11,-8.57 -13.45,-11.12 -5.29,-2.58 -11.01,-3.58 -17.1,-3.12 -6.04,0.43 -12.34,2.62 -18.81,6.5 -5.14,3.08 -9.27,6.25 -12.3,9.52 -3.11,3.25 -5.95,7.86 -8.58,13.86 -2.61,5.93 -4.19,11.03 -4.67,15.19 -0.51,4.11 -0.25,7.56 0.81,10.25 1.01,2.72 3.86,8.07 8.63,16.01l15.57 25.97c1.31,2.19 5.73,9.1 13.25,20.72 7.55,11.68 12.11,18.36 13.76,20.07 1.65,1.71 3.17,2.74 4.63,3.11 1.41,0.4 2.87,0.29 4.3,-0.22 1.43,-0.51 7.07,-3.33 16.86,-8.37l2.08 0.35 3.75 6.26 -0.43 2.06c-12.89,6.68 -25.1,13.45 -36.66,20.38 -11.41,6.84 -23.13,14.42 -35.1,22.63l-2.12 -0.53 -3.75 -6.26 0.62 -1.97c9.31,-6.41 14.48,-10.14 15.52,-11.17 1.04,-1.04 1.79,-2.32 2.16,-3.79 0.39,-1.55 0.2,-3.37 -0.61,-5.52 -0.86,-2.12 -4.3,-8.78 -10.37,-19.96 -6.07,-11.17 -10.81,-19.55 -14.14,-25.1l-17.61 -29.39c-2.38,-3.97 -5.85,-9.3 -10.38,-15.93 -4.45,-6.61 -7.34,-10.62 -8.57,-12.1 -1.15,-1.46 -2.66,-2.14 -4.4,-2.14 -1.7,0.05 -4.54,1.2 -8.41,3.52l-12.59 7.41 -2.11 -0.4 -3.85 -6.42 0.52 -1.9c17.62,-13.68 31.39,-26.98 41.31,-39.99zm126.41 -181.05c4.1,-3.61 8.87,-5.19 14.24,-4.85 5.45,0.35 9.93,2.57 13.5,6.62 3.53,4.01 5.12,8.7 4.78,14.15 -0.34,5.36 -2.53,9.89 -6.63,13.5 -4.01,3.53 -8.74,5.16 -14.15,4.86 -5.42,-0.22 -9.9,-2.44 -13.51,-6.55 -3.57,-4.05 -5.2,-8.79 -4.81,-14.27 0.39,-5.4 2.57,-9.93 6.58,-13.46zm62.49 48.63l3.94 -0.46c9.11,12.24 21.37,27.16 36.86,44.76l25.97 29.51c1.69,1.92 7.28,7.91 16.77,17.99 9.54,10.12 15.23,15.87 17.16,17.25 1.93,1.39 3.61,2.12 5.07,2.26 1.51,0.09 2.88,-0.24 4.23,-1.04 1.31,-0.76 6.35,-4.56 15.07,-11.28l2.11 -0.03 4.82 5.48 -0.05 2.1c-11.47,8.9 -22.25,17.77 -32.38,26.67 -9.98,8.79 -20.15,18.36 -30.43,28.6l-2.18 -0.14 -4.82 -5.48 0.26 -2.04c7.96,-7.95 12.37,-12.55 13.25,-13.8 0.83,-1.21 1.34,-2.61 1.44,-4.11 0.1,-1.59 -0.42,-3.35 -1.64,-5.28 -1.18,-1.97 -5.77,-7.9 -13.76,-17.79 -8,-9.89 -14.17,-17.27 -18.45,-22.13l-22.64 -25.72c-3.06,-3.48 -7.43,-8.09 -13.09,-13.8 -5.61,-5.66 -9.13,-9.12 -10.61,-10.35 -1.44,-1.18 -3.01,-1.62 -4.71,-1.31 -1.71,0.39 -4.25,2 -7.68,5.02l-11.04 9.56 -2.1 -0.05 -4.94 -5.62 0.12 -1.93c14.91,-16.68 26.04,-32.25 33.45,-46.84zm82.71 -34.01l-3.24 -3.14 -0.41 -2.05c4.67,-10.69 8.11,-19.61 10.31,-26.9 -21.73,-21.09 -34.59,-33.08 -38.67,-36.04 5.29,-11.5 8.91,-21.63 10.84,-30.44l5.41 -0.54c4.45,5.9 18.72,21.64 42.79,47.31 4.14,-4.09 8.52,-8.53 13.24,-13.38 9.51,-9.8 16.08,-17.08 19.7,-21.84l1.72 0.02 8.17 12.56 0.16 2.06c-4.22,4.18 -8.81,8.82 -13.82,13.98 -4.51,4.65 -10.3,10.69 -17.32,18.11l50.13 50.06c11.72,11.37 19.64,18.56 23.8,21.52 4.12,3 8.42,4.28 12.82,3.75 4.44,-0.49 8.98,-3.12 13.65,-7.93 5.42,-5.58 8.97,-12.14 10.71,-19.73l7.37 1.36c-0.54,3.37 -0.99,12.19 -1.45,26.48 -2.18,6.25 -5.5,11.63 -9.84,16.1 -18.2,18.75 -36.37,19.31 -54.48,1.74 -6.69,-6.49 -12.15,-12.12 -16.51,-17.01 -1.32,-1.45 -2.73,-2.9 -4.22,-4.35l-51.82 -50.29 -4.96 5.11c-3.64,3.75 -7.65,8.22 -11.98,13.37l-2.1 0.11zm106.73 -168.98l3.74 -1.34c11.62,9.88 26.92,21.66 45.97,35.34l32.9 23.62c12.06,8.66 21.11,13.76 27.16,15.32 5.99,1.52 11.9,0.94 17.66,-1.8 5.76,-2.73 10.86,-7.19 15.33,-13.41 4.95,-6.9 8.07,-14.09 9.45,-21.72 1.35,-7.58 0.98,-15.01 -1.2,-22.35 -2.14,-7.31 -3.87,-11.92 -5.18,-13.66 -1.27,-1.79 -5.77,-5.6 -13.45,-11.4l-15.51 -11.79 -15.24 -10.94c-3.76,-2.7 -9.06,-6.21 -15.85,-10.5 -6.74,-4.25 -10.95,-6.84 -12.67,-7.71 -1.67,-0.83 -3.3,-0.9 -4.92,-0.17 -1.54,0.72 -3.69,2.91 -6.32,6.57l-8.62 11.8 -2.06 0.42 -6.08 -4.36 -0.31 -1.91c10.75,-19.55 18.13,-37.27 22.04,-53.11l3.77 -1.39c11.62,9.88 26.92,21.66 45.98,35.34l24.84 17.83c1.45,1.04 13.15,9.08 35.12,24.19 8.14,5.56 13.4,8.52 15.69,9 2.33,0.43 4.38,0.22 6.06,-0.7 1.73,-0.88 5.08,-4.83 10.1,-11.83l2.84 -3.96 2.06 -0.42 5.64 4.05 0.46 2.01c-10.28,12.79 -17.04,21.39 -20.29,25.93 -4.12,5.74 -8.56,12.64 -13.29,20.65l-2.06 0.42c-9.22,-7.42 -17.06,-13.71 -23.56,-18.81 0.37,9.26 1.66,20.49 3.91,33.66 0.87,5.01 0.27,10.93 -1.7,17.85 -1.94,6.87 -5.39,13.82 -10.38,20.77 -7.58,10.56 -15.19,17.6 -22.75,21.1 -7.55,3.5 -15.16,4.32 -22.81,2.56 -7.65,-1.77 -18.7,-7.87 -33.12,-18.22l-11.04 -8.14 -27.55 -19.77c-3.76,-2.7 -9.06,-6.21 -15.85,-10.5 -6.74,-4.25 -10.95,-6.84 -12.67,-7.7 -1.67,-0.83 -3.3,-0.91 -4.89,-0.22 -1.58,0.77 -3.69,2.91 -6.36,6.62l-8.62 11.8 -2.06 0.42 -6.08 -4.36 -0.31 -1.9c10.74,-19.55 18.13,-37.28 22.07,-53.16zm119.31 -202.31l3.4 -2.14c5.86,3.34 16.58,8.62 32.21,15.85l-9.94 -18.61c-3.29,-6.11 -5.58,-11.26 -6.96,-15.49 -1.39,-4.24 -1.96,-8.7 -1.67,-13.37 0.3,-4.67 1.34,-9.13 3.2,-13.38 2.05,-4.68 4.96,-8.66 8.67,-11.96l2.73 -0.17c13.4,7.88 25.38,14.29 36,19.2l-3.14 7.18c-11.59,-0.02 -19.49,4.69 -23.63,14.16 -2.88,6.58 -3.31,13.2 -1.22,19.95 2.04,6.73 5.84,12.28 11.49,16.7 5.6,4.4 13.21,8.76 22.9,13.01l17.68 7.74c3.16,1.38 11.08,4.59 23.68,9.59 12.65,5.02 20.02,7.73 22.14,8.07 2.12,0.34 3.86,0.2 5.22,-0.37 1.33,-0.65 2.5,-1.7 3.53,-3.19 1.07,-1.54 4.92,-8.87 11.59,-22.02l1.87 -0.86 6.69 2.93 0.79 2.03c-7.01,13.79 -13.9,28.34 -20.66,43.78 -5.34,12.18 -10.5,25.16 -15.49,38.79l-2.03 0.79 -6.69 -2.93 -0.63 -1.96c3.87,-10.62 5.93,-16.66 6.18,-18.11 0.24,-1.45 0.11,-2.93 -0.43,-4.34 -0.58,-1.48 -1.8,-2.86 -3.69,-4.14 -1.92,-1.23 -8.59,-4.67 -20.01,-10.25 -11.43,-5.59 -20.14,-9.66 -26.07,-12.26l-31.38 -13.74c-4.24,-1.86 -10.16,-4.19 -17.69,-6.97 -7.45,-2.81 -12.14,-4.4 -14,-4.9 -1.78,-0.52 -3.41,-0.2 -4.82,0.8 -1.36,1.03 -3.01,3.61 -4.82,7.74l-5.97 13.34 -1.95 0.89 -6.85 -3 -0.68 -1.85c6.44,-21.36 9.94,-40.18 10.49,-56.54zm216.18 -197.7l10.37 8.98c3.95,13.79 5.66,25.54 5.14,35.25 -0.54,9.77 -1.85,18.18 -4,25.28 -4.03,13.3 -10.47,25.12 -19.31,35.47 -8.84,10.35 -20.6,17.4 -35.32,21.12 -14.72,3.73 -30.8,2.95 -48.36,-2.37 -11.65,-3.53 -21.71,-8.2 -30.21,-13.94 -8.51,-5.68 -14.57,-10.87 -18.18,-15.37 -3.58,-4.56 -7.02,-11.44 -10.24,-20.66 -3.28,-9.25 -5.3,-18.55 -6.09,-28.03 -0.75,-9.41 0.3,-19.02 3.27,-28.79 4.05,-13.35 10.78,-24.1 20.11,-32.38 9.33,-8.27 19.5,-12.95 30.51,-14.08 11.03,-1.18 22.05,-0.08 33.02,3.25 3.47,1.05 6.71,2.22 9.84,3.55l1.27 2.37c-0.64,8.06 -2.59,18.57 -5.88,31.48 -3.31,12.96 -5.63,21.44 -6.89,25.58l-16.19 53.42c23.08,6.75 41.76,6.14 56.05,-1.93 14.28,-8.02 23.94,-20.23 28.92,-36.65 2.36,-7.78 3.31,-15.63 2.81,-23.6 -0.5,-7.97 -1.9,-16.65 -4.25,-26.11l3.59 -1.83zm-100.42 86.09c0.94,-1.89 3.67,-9.44 8.19,-22.71 4.45,-13.23 7.67,-23.05 9.63,-29.53 4.67,-15.4 7.23,-24.86 7.73,-28.37 -2.64,-0.92 -4.67,-1.6 -6.14,-2.05 -17.22,-5.22 -31.07,-5.57 -41.54,-1.11 -10.48,4.46 -17.57,12.73 -21.24,24.83 -4,13.18 -2.4,24.9 4.8,35.15 7.19,10.25 20.05,18.18 38.58,23.79z"/>
  </g>
  <path id="1" class="fil3" d="M922.45 2146.52l1.43 1.3 0.34 7.29 -1.29 1.61c-3.62,0.17 -10.39,0.31 -20.38,0.3 -9.1,-0.05 -18.42,0.15 -28.03,0.6 -12.51,0.58 -26.43,1.71 -41.81,3.32l-1.44 -1.48 -0.34 -7.29 1.3 -1.43c11.18,-1.24 17.56,-2.07 19.02,-2.5 1.52,-0.43 2.74,-1.2 3.75,-2.31 0.96,-1.17 1.65,-2.87 1.9,-5.14 0.31,-2.27 0.43,-9.77 0.37,-22.49 -0.06,-12.72 -0.27,-22.34 -0.57,-28.8l-3.13 -67.08 -22.37 2.23 -1.61 -1.29 -0.2 -4.33 1.1 -1.83 22.24 -12.69 -0.49 -10.44c-0.54,-11.57 -0.42,-20.37 0.32,-26.35 0.79,-6.04 2.49,-11.65 5.04,-16.82 2.61,-5.18 7.3,-11.76 14,-19.8 6.7,-8.04 12.63,-14.62 17.68,-19.79 5.11,-5.17 9.58,-8.71 13.48,-10.55 3.83,-1.9 8.42,-2.95 13.76,-3.2 4.39,-0.21 9.24,0.46 14.36,1.94l1.21 28.54 -3.96 1.73c-6.74,-5.51 -14.41,-8.07 -23.01,-7.66 -5.99,0.28 -11.15,1.77 -15.43,4.46 -4.33,2.7 -7.11,6.93 -8.51,12.64 -1.34,5.65 -1.74,15 -1.13,27.99l1.68 35.95 18.62 -0.87c9.61,-0.45 18.67,-1.23 27.24,-2.28l1.63 1.82 -2.43 15.45 -1.46 1.8c-3.51,0.04 -5.76,0.09 -6.77,0.14l-22.61 0.88 -13.4 0.63 3.27 70.05c0.17,3.68 0.86,12.15 1.96,25.41 1.15,13.26 2.05,21.01 2.57,23.3 0.59,2.29 1.43,3.92 2.61,4.93 1.12,1.02 2.99,1.64 5.5,2 2.52,0.36 10.48,0.4 23.96,0.13zm96.94 -169.15l3.69 1.46c2.2,15.09 5.91,34.04 11.18,56.9l9.11 39.46c3.34,14.47 6.76,24.28 10.27,29.44 3.49,5.1 8.32,8.56 14.45,10.32 6.13,1.75 12.9,1.78 20.37,0.05 8.27,-1.91 15.36,-5.25 21.44,-10.07 6.02,-4.8 10.65,-10.62 13.86,-17.58 3.23,-6.9 4.96,-11.5 5.13,-13.68 0.23,-2.18 -0.63,-8.02 -2.56,-17.45l-3.86 -19.1 -4.22 -18.28c-1.04,-4.51 -2.7,-10.65 -4.97,-18.36 -2.25,-7.64 -3.71,-12.37 -4.42,-14.15 -0.7,-1.73 -1.88,-2.86 -3.58,-3.38 -1.63,-0.48 -4.69,-0.26 -9.09,0.76l-14.26 3.17 -1.82 -1.04 -1.68 -7.29 1.03 -1.64c20.98,-7.59 38.23,-16.01 51.62,-25.32l3.75 1.45c2.2,15.09 5.91,34.04 11.18,56.9l6.88 29.8c0.4,1.74 3.88,15.5 10.4,41.36 2.45,9.55 4.43,15.25 5.84,17.12 1.46,1.85 3.14,3.05 5.01,3.48 1.88,0.48 7,-0.28 15.4,-2.21l4.74 -1.09 1.83 1.04 1.56 6.77 -0.98 1.81c-16.17,2.82 -26.92,4.81 -32.36,6.07 -6.89,1.59 -14.78,3.84 -23.62,6.73l-1.82 -1.04c-2.02,-11.66 -3.76,-21.56 -5.26,-29.68 -5.84,7.2 -12.29,16.48 -19.29,27.85 -2.66,4.33 -7.02,8.38 -13.07,12.28 -5.99,3.88 -13.17,6.82 -21.5,8.74 -12.67,2.92 -23.03,3.18 -31.01,0.82 -7.98,-2.36 -14.24,-6.77 -18.82,-13.14 -4.58,-6.38 -8.84,-18.25 -12.83,-35.55l-2.91 -13.41 -7.63 -33.04c-1.04,-4.51 -2.7,-10.65 -4.97,-18.36 -2.25,-7.64 -3.71,-12.37 -4.43,-14.15 -0.7,-1.73 -1.88,-2.86 -3.52,-3.39 -1.69,-0.46 -4.69,-0.26 -9.15,0.77l-14.26 3.17 -1.82 -1.04 -1.68 -7.29 1.03 -1.64c20.98,-7.58 38.23,-16.01 51.68,-25.34zm226.53 -65.88l3.9 0.96c1.66,6.54 5.3,17.92 10.94,34.19l6.51 -20.07c2.11,-6.61 4.23,-11.83 6.32,-15.76 2.09,-3.94 4.9,-7.45 8.47,-10.48 3.57,-3.03 7.51,-5.37 11.85,-6.98 4.79,-1.77 9.67,-2.44 14.62,-2.06l2.02 1.85c3.63,15.12 7.32,28.19 11.16,39.24l-7.35 2.72c-8.03,-8.36 -16.9,-10.78 -26.59,-7.19 -6.74,2.49 -11.8,6.77 -15.21,12.97 -3.43,6.14 -4.79,12.73 -4.05,19.86 0.72,7.08 2.86,15.6 6.53,25.51l6.7 18.1c1.2,3.23 4.38,11.17 9.53,23.7 5.16,12.59 8.33,19.78 9.55,21.54 1.22,1.76 2.54,2.92 3.89,3.5 1.39,0.5 2.95,0.62 4.74,0.33 1.85,-0.3 9.8,-2.61 23.9,-6.94l1.92 0.74 2.54 6.85 -0.91 1.98c-14.79,4.52 -30.05,9.66 -45.86,15.51 -12.48,4.62 -25.4,9.9 -38.68,15.77l-1.98 -0.91 -2.54 -6.85 0.98 -1.82c10.33,-4.58 16.11,-7.29 17.32,-8.12 1.21,-0.83 2.19,-1.95 2.82,-3.32 0.67,-1.45 0.81,-3.27 0.42,-5.54 -0.45,-2.24 -2.6,-9.42 -6.51,-21.52 -3.91,-12.1 -7.02,-21.21 -9.27,-27.28l-11.89 -32.13c-1.61,-4.34 -4.03,-10.22 -7.26,-17.57 -3.15,-7.32 -5.25,-11.8 -6.19,-13.48 -0.86,-1.64 -2.22,-2.59 -3.93,-2.91 -1.68,-0.27 -4.69,0.34 -8.92,1.91l-13.74 4.96 -2 -0.78 -2.6 -7.01 0.86 -1.78c19.84,-10.19 35.83,-20.73 47.98,-31.68zm142.11 -63.76l4.01 0.23c3.39,7.04 8.23,16.04 14.53,27.01 4.01,-11.33 7.6,-22.56 10.67,-33.6 1.01,-3.17 2.12,-5.7 3.4,-7.72 1.31,-1.96 3.79,-4.76 7.46,-8.35 3.7,-3.53 7.77,-6.66 12.26,-9.35 7.59,-4.55 15.84,-7.42 24.78,-8.55 8.99,-1.17 16.51,-0.76 22.71,1.27 6.15,2.06 11.64,5.56 16.54,10.51 4.82,4.93 9.81,11.64 14.88,20.09l15.72 26.23c1.01,1.68 8.71,13.95 23,36.75 5.85,9.3 10.31,14.31 13.26,14.97 2.95,0.65 9.67,-2.12 20.11,-8.38l1.92 0.44 3.85 6.42 -0.52 1.9c-13.09,6.81 -21.89,11.53 -26.37,14.21 -2.55,1.53 -9.59,6.3 -21.05,14.2l-2.81 -0.53c-6.43,-13.73 -15.92,-30.96 -28.38,-51.74l-11.72 -19.56c-7.02,-11.71 -12.35,-20.01 -16.02,-24.87 -3.59,-4.84 -8.11,-8.57 -13.45,-11.12 -5.29,-2.58 -11.01,-3.58 -17.1,-3.12 -6.04,0.43 -12.34,2.62 -18.81,6.5 -5.14,3.08 -9.27,6.25 -12.3,9.52 -3.11,3.25 -5.95,7.86 -8.58,13.86 -2.61,5.93 -4.19,11.03 -4.67,15.19 -0.51,4.11 -0.25,7.56 0.81,10.25 1.01,2.72 3.86,8.07 8.63,16.01l15.57 25.97c1.31,2.19 5.73,9.1 13.25,20.72 7.55,11.68 12.11,18.36 13.76,20.07 1.65,1.71 3.17,2.74 4.63,3.11 1.41,0.4 2.87,0.29 4.3,-0.22 1.43,-0.51 7.07,-3.33 16.86,-8.37l2.08 0.35 3.75 6.26 -0.43 2.06c-12.89,6.68 -25.1,13.45 -36.66,20.38 -11.41,6.84 -23.13,14.42 -35.1,22.63l-2.12 -0.53 -3.75 -6.26 0.62 -1.97c9.31,-6.41 14.48,-10.14 15.52,-11.17 1.04,-1.04 1.79,-2.32 2.16,-3.79 0.39,-1.55 0.2,-3.37 -0.61,-5.52 -0.86,-2.12 -4.3,-8.78 -10.37,-19.96 -6.07,-11.17 -10.81,-19.55 -14.14,-25.1l-17.61 -29.39c-2.38,-3.97 -5.85,-9.3 -10.38,-15.93 -4.45,-6.61 -7.34,-10.62 -8.57,-12.1 -1.15,-1.46 -2.66,-2.14 -4.4,-2.14 -1.7,0.05 -4.54,1.2 -8.41,3.52l-12.59 7.41 -2.11 -0.4 -3.85 -6.42 0.52 -1.9c17.62,-13.68 31.39,-26.98 41.31,-39.99zm126.41 -181.05c4.1,-3.61 8.87,-5.19 14.24,-4.85 5.45,0.35 9.93,2.57 13.5,6.62 3.53,4.01 5.12,8.7 4.78,14.15 -0.34,5.36 -2.53,9.89 -6.63,13.5 -4.01,3.53 -8.74,5.16 -14.15,4.86 -5.42,-0.22 -9.9,-2.44 -13.51,-6.55 -3.57,-4.05 -5.2,-8.79 -4.81,-14.27 0.39,-5.4 2.57,-9.93 6.58,-13.46zm62.49 48.63l3.94 -0.46c9.11,12.24 21.37,27.16 36.86,44.76l25.97 29.51c1.69,1.92 7.28,7.91 16.77,17.99 9.54,10.12 15.23,15.87 17.16,17.25 1.93,1.39 3.61,2.12 5.07,2.26 1.51,0.09 2.88,-0.24 4.23,-1.04 1.31,-0.76 6.35,-4.56 15.07,-11.28l2.11 -0.03 4.82 5.48 -0.05 2.1c-11.47,8.9 -22.25,17.77 -32.38,26.67 -9.98,8.79 -20.15,18.36 -30.43,28.6l-2.18 -0.14 -4.82 -5.48 0.26 -2.04c7.96,-7.95 12.37,-12.55 13.25,-13.8 0.83,-1.21 1.34,-2.61 1.44,-4.11 0.1,-1.59 -0.42,-3.35 -1.64,-5.28 -1.18,-1.97 -5.77,-7.9 -13.76,-17.79 -8,-9.89 -14.17,-17.27 -18.45,-22.13l-22.64 -25.72c-3.06,-3.48 -7.43,-8.09 -13.09,-13.8 -5.61,-5.66 -9.13,-9.12 -10.61,-10.35 -1.44,-1.18 -3.01,-1.62 -4.71,-1.31 -1.71,0.39 -4.25,2 -7.68,5.02l-11.04 9.56 -2.1 -0.05 -4.94 -5.62 0.12 -1.93c14.91,-16.68 26.04,-32.25 33.45,-46.84zm82.71 -34.01l-3.24 -3.14 -0.41 -2.05c4.67,-10.69 8.11,-19.61 10.31,-26.9 -21.73,-21.09 -34.59,-33.08 -38.67,-36.04 5.29,-11.5 8.91,-21.63 10.84,-30.44l5.41 -0.54c4.45,5.9 18.72,21.64 42.79,47.31 4.14,-4.09 8.52,-8.53 13.24,-13.38 9.51,-9.8 16.08,-17.08 19.7,-21.84l1.72 0.02 8.17 12.56 0.16 2.06c-4.22,4.18 -8.81,8.82 -13.82,13.98 -4.51,4.65 -10.3,10.69 -17.32,18.11l50.13 50.06c11.72,11.37 19.64,18.56 23.8,21.52 4.12,3 8.42,4.28 12.82,3.75 4.44,-0.49 8.98,-3.12 13.65,-7.93 5.42,-5.58 8.97,-12.14 10.71,-19.73l7.37 1.36c-0.54,3.37 -0.99,12.19 -1.45,26.48 -2.18,6.25 -5.5,11.63 -9.84,16.1 -18.2,18.75 -36.37,19.31 -54.48,1.74 -6.69,-6.49 -12.15,-12.12 -16.51,-17.01 -1.32,-1.45 -2.73,-2.9 -4.22,-4.35l-51.82 -50.29 -4.96 5.11c-3.64,3.75 -7.65,8.22 -11.98,13.37l-2.1 0.11zm106.73 -168.98l3.74 -1.34c11.62,9.88 26.92,21.66 45.97,35.34l32.9 23.62c12.06,8.66 21.11,13.76 27.16,15.32 5.99,1.52 11.9,0.94 17.66,-1.8 5.76,-2.73 10.86,-7.19 15.33,-13.41 4.95,-6.9 8.07,-14.09 9.45,-21.72 1.35,-7.58 0.98,-15.01 -1.2,-22.35 -2.14,-7.31 -3.87,-11.92 -5.18,-13.66 -1.27,-1.79 -5.77,-5.6 -13.45,-11.4l-15.51 -11.79 -15.24 -10.94c-3.76,-2.7 -9.06,-6.21 -15.85,-10.5 -6.74,-4.25 -10.95,-6.84 -12.67,-7.71 -1.67,-0.83 -3.3,-0.9 -4.92,-0.17 -1.54,0.72 -3.69,2.91 -6.32,6.57l-8.62 11.8 -2.06 0.42 -6.08 -4.36 -0.31 -1.91c10.75,-19.55 18.13,-37.27 22.04,-53.11l3.77 -1.39c11.62,9.88 26.92,21.66 45.98,35.34l24.84 17.83c1.45,1.04 13.15,9.08 35.12,24.19 8.14,5.56 13.4,8.52 15.69,9 2.33,0.43 4.38,0.22 6.06,-0.7 1.73,-0.88 5.08,-4.83 10.1,-11.83l2.84 -3.96 2.06 -0.42 5.64 4.05 0.46 2.01c-10.28,12.79 -17.04,21.39 -20.29,25.93 -4.12,5.74 -8.56,12.64 -13.29,20.65l-2.06 0.42c-9.22,-7.42 -17.06,-13.71 -23.56,-18.81 0.37,9.26 1.66,20.49 3.91,33.66 0.87,5.01 0.27,10.93 -1.7,17.85 -1.94,6.87 -5.39,13.82 -10.38,20.77 -7.58,10.56 -15.19,17.6 -22.75,21.1 -7.55,3.5 -15.16,4.32 -22.81,2.56 -7.65,-1.77 -18.7,-7.87 -33.12,-18.22l-11.04 -8.14 -27.55 -19.77c-3.76,-2.7 -9.06,-6.21 -15.85,-10.5 -6.74,-4.25 -10.95,-6.84 -12.67,-7.7 -1.67,-0.83 -3.3,-0.91 -4.89,-0.22 -1.58,0.77 -3.69,2.91 -6.36,6.62l-8.62 11.8 -2.06 0.42 -6.08 -4.36 -0.31 -1.9c10.74,-19.55 18.13,-37.28 22.07,-53.16zm119.31 -202.31l3.4 -2.14c5.86,3.34 16.58,8.62 32.21,15.85l-9.94 -18.61c-3.29,-6.11 -5.58,-11.26 -6.96,-15.49 -1.39,-4.24 -1.96,-8.7 -1.67,-13.37 0.3,-4.67 1.34,-9.13 3.2,-13.38 2.05,-4.68 4.96,-8.66 8.67,-11.96l2.73 -0.17c13.4,7.88 25.38,14.29 36,19.2l-3.14 7.18c-11.59,-0.02 -19.49,4.69 -23.63,14.16 -2.88,6.58 -3.31,13.2 -1.22,19.95 2.04,6.73 5.84,12.28 11.49,16.7 5.6,4.4 13.21,8.76 22.9,13.01l17.68 7.74c3.16,1.38 11.08,4.59 23.68,9.59 12.65,5.02 20.02,7.73 22.14,8.07 2.12,0.34 3.86,0.2 5.22,-0.37 1.33,-0.65 2.5,-1.7 3.53,-3.19 1.07,-1.54 4.92,-8.87 11.59,-22.02l1.87 -0.86 6.69 2.93 0.79 2.03c-7.01,13.79 -13.9,28.34 -20.66,43.78 -5.34,12.18 -10.5,25.16 -15.49,38.79l-2.03 0.79 -6.69 -2.93 -0.63 -1.96c3.87,-10.62 5.93,-16.66 6.18,-18.11 0.24,-1.45 0.11,-2.93 -0.43,-4.34 -0.58,-1.48 -1.8,-2.86 -3.69,-4.14 -1.92,-1.23 -8.59,-4.67 -20.01,-10.25 -11.43,-5.59 -20.14,-9.66 -26.07,-12.26l-31.38 -13.74c-4.24,-1.86 -10.16,-4.19 -17.69,-6.97 -7.45,-2.81 -12.14,-4.4 -14,-4.9 -1.78,-0.52 -3.41,-0.2 -4.82,0.8 -1.36,1.03 -3.01,3.61 -4.82,7.74l-5.97 13.34 -1.95 0.89 -6.85 -3 -0.68 -1.85c6.44,-21.36 9.94,-40.18 10.49,-56.54zm216.18 -197.7l10.37 8.98c3.95,13.79 5.66,25.54 5.14,35.25 -0.54,9.77 -1.85,18.18 -4,25.28 -4.03,13.3 -10.47,25.12 -19.31,35.47 -8.84,10.35 -20.6,17.4 -35.32,21.12 -14.72,3.73 -30.8,2.95 -48.36,-2.37 -11.65,-3.53 -21.71,-8.2 -30.21,-13.94 -8.51,-5.68 -14.57,-10.87 -18.18,-15.37 -3.58,-4.56 -7.02,-11.44 -10.24,-20.66 -3.28,-9.25 -5.3,-18.55 -6.09,-28.03 -0.75,-9.41 0.3,-19.02 3.27,-28.79 4.05,-13.35 10.78,-24.1 20.11,-32.38 9.33,-8.27 19.5,-12.95 30.51,-14.08 11.03,-1.18 22.05,-0.08 33.02,3.25 3.47,1.05 6.71,2.22 9.84,3.55l1.27 2.37c-0.64,8.06 -2.59,18.57 -5.88,31.48 -3.31,12.96 -5.63,21.44 -6.89,25.58l-16.19 53.42c23.08,6.75 41.76,6.14 56.05,-1.93 14.28,-8.02 23.94,-20.23 28.92,-36.65 2.36,-7.78 3.31,-15.63 2.81,-23.6 -0.5,-7.97 -1.9,-16.65 -4.25,-26.11l3.59 -1.83zm-100.42 86.09c0.94,-1.89 3.67,-9.44 8.19,-22.71 4.45,-13.23 7.67,-23.05 9.63,-29.53 4.67,-15.4 7.23,-24.86 7.73,-28.37 -2.64,-0.92 -4.67,-1.6 -6.14,-2.05 -17.22,-5.22 -31.07,-5.57 -41.54,-1.11 -10.48,4.46 -17.57,12.73 -21.24,24.83 -4,13.18 -2.4,24.9 4.8,35.15 7.19,10.25 20.05,18.18 38.58,23.79z"/>
  <g>
   <g>
    <path class="fil0 str5" d="M1090.11 267.75l410.47 0 0 580.08m0 35.97l0 750.47 -1366.53 0 0 -421.34m0 -18.07l0 -927.12 413.65 0m30.38 0l465.87 0"/>
   </g>
   <path class="fil4" d="M112.93 1196.24c18.33,4.21 50.96,6.08 95.9,-4.2l-1.96 -6.24c43.09,-5.04 72.76,-12.43 122.98,-35.2 -1.5,-1.63 -3.12,-3.42 -5.09,-5.63 67.68,-35.6 108.01,-61.51 170.41,-106.93 -2.59,-5.85 -3.22,-8.85 -3.22,-10.96 90.27,-15.29 180.91,-33.24 267.92,-55.69 -0.73,-14.68 -1.52,-28.95 -2.33,-42.38 -67.84,-74.14 -147.8,-150.89 -222.53,-218.22 1.1,-1.85 3.2,-4.14 8.44,-7.87 2.86,-2.03 10.03,-6.22 13.85,-7.89 -0.61,-1.52 -9.57,-4.08 -17.3,-0.73 -29.3,-72.24 -77.17,-170.59 -114.15,-235.09 4.85,-1.51 10.38,-3.22 15.46,-4.64 -0.84,-1.26 -3.73,-5.15 -10.26,-5.59 -28.98,-43.11 -59.16,-76.74 -91.08,-102.63 0.95,-0.86 5.12,-4.92 8.93,-7.96 -0.73,-0.69 -5.36,-1.86 -8.37,-0.56 -34.03,-30.83 -89.6,-54.04 -106.44,-59.83 7.66,-1.88 16.78,0.56 21.86,2.5 15.1,5.78 63.31,26.88 96.19,55.38l6.63 -3.52c29,33.09 63.04,81.69 86.03,121.33l9.55 -3.34c27.43,72.21 73.8,172.05 109.52,239.56 6.38,-3.81 9.24,-4.63 16.53,-7.45 55.31,69.64 112.56,137.99 174.45,205.32 -0.46,-6.55 -0.91,-12.63 -1.33,-18.14 -16.16,-17.18 -28.08,-34.84 -36.4,-53.96 -46.35,-52.08 -80.36,-93.55 -128.76,-156.12 -2.38,0.74 -11.99,4.62 -14.51,5.55 -22.95,-40.17 -84.71,-161.51 -108.06,-238.02 -3.09,1.37 -12.44,3.53 -17,5.21 -25.14,-38.06 -57.77,-85.72 -85,-122.59l-12.3 10.5c-27.55,-24.42 -83.26,-51.32 -102.63,-54.87 -21.47,-3.94 -39.02,5.31 -45.44,13.53 20.61,10.82 92.7,39.29 121.18,64.64l-7.92 5.76c31.69,28.53 65.6,58.68 90.58,98.75 -4.08,1.51 -6.5,2 -9.89,3.41 39.77,75.21 94.57,166.99 121.43,243.14 -6.06,3.99 -12.37,12.48 -18.21,18.38 82.94,74.97 175.96,158.12 251.08,241.58 -93.67,23.23 -186.95,37.49 -286.86,54.67 2.01,8.07 5.13,17.5 8.31,24.08 -62.22,49.75 -101.32,66.79 -174.18,108.87 2.19,2.98 2.34,3.64 5.08,7.09 -42.08,20.41 -72.48,21.08 -114.43,28.21l2.19 5.68c-37.54,6.16 -83.29,1.97 -106.6,0.1 1.3,10.33 12.29,26.44 32.82,34.56 18.53,7.32 49.31,6.44 85.58,0.57l4.53 14.97c42.39,-16.53 82.21,-29.79 123.4,-48.41 3.08,3.85 10.55,12.83 12.5,15.63 59.39,-51.92 117.73,-88.49 158.12,-110.06 1.69,2.13 5.99,6.93 7.66,8.82 84.03,-20.44 158.06,-50.33 236.11,-77.08 -81.12,54.71 -164.56,114.15 -254.31,158.57 4.61,7.29 8.4,13.74 12.57,18.33 -41.65,66.19 -132.67,150.9 -184.09,219.63 3.26,1.85 7.37,4.57 11.33,6.64 -28.82,38.86 -88.81,91.14 -118.77,120.92 1.69,1.3 5.49,4.43 7.33,5.73 -27.09,22.09 -56.77,49.79 -81.79,60.49l0.01 17.99 44.86 0c1.27,0 2.22,-1.45 3.3,-2.11 33.78,-20.73 40.05,-32.12 67.19,-55.31 3.92,1.81 10.72,5.41 14.01,6.51 34.35,-38.44 78.16,-93.75 103.93,-133.82 4.44,2.31 14.37,6.72 17.33,8.48 38.44,-67.68 123.51,-165.62 165.22,-214.3 2.45,1.28 13.08,6.58 15.41,7.65 58.07,-53.67 123.65,-112.2 193.74,-164.85 -0.02,-6.76 -0.09,-13.66 -0.2,-20.68 -66.43,47.6 -131.4,100.79 -201.42,163 -7.47,-3.06 -9.94,-4.97 -15.83,-9.47 -2.91,-2.24 -11.26,-9.85 -11.67,-9.31 -0.36,0.47 -1.9,8.67 6.73,15.81 -49.36,62.9 -122.05,146.6 -163.63,206.26l-10.23 -4.96c-2.13,-1.03 -6.52,-3.5 -7.09,-2.67 -0.68,0.97 0.25,5.95 3.33,8.12 -2.1,3.02 -4.31,6.15 -6.59,9.36l0.61 0.3c-4.48,6.53 -9.97,13.56 -16.07,20.91 -24.37,32.76 -54.32,70.19 -80.95,99.85 -0.7,-0.15 -1.89,-0.56 -3.18,-1.06l-1.28 1.96 -1.47 -0.68 -1.91 2.59c-2.55,-1.26 -4.94,-2.51 -5.77,-3.17l-1.39 1.03c0.18,0.31 0.4,0.61 0.68,0.89 -11.72,9.45 -23.39,18.91 -33.87,27.26 -10.95,10.03 -21.97,19.82 -40.51,31.72 -7.13,4.57 -16.55,1.46 -22.87,-0.88 23.91,-8.19 53.42,-34.68 90.66,-65.5 -0.9,-0.72 -3.84,-3.18 -6.41,-5.29l6.29 -8.56 1.02 0.61c17.07,-21.01 58.65,-52.57 85.97,-84.04l3.16 -3.72c5.76,-6.92 10.75,-13.83 14.56,-20.59l1.64 0.82c3.89,-4.93 7.52,-9.67 10.8,-14.14 -2.08,-0.93 -4.35,-1.78 -7.11,-3.06 55.88,-63.6 142.9,-153.25 177.7,-214.81 -4.77,-4.19 -6.54,-6.54 -7.35,-8.33 82.09,-40.27 167.5,-102.27 242.9,-155.66 -0.33,-12.02 -0.75,-24.19 -1.24,-36.26 -81.41,25.07 -161.48,54.04 -244.71,73.98 -4.83,-6.16 -6.97,-8.29 -10.41,-14.85 -2.18,-4.17 -4.47,-8.58 -7.35,-13.38 -1.62,0.95 -7.97,9.76 -3.3,19.62 -57.68,34.01 -93.22,58.44 -150.67,101.47l-6.84 -7.99c-1.59,-1.86 -4.25,-4.43 -5.18,-6.09 -0.95,0.49 -3.03,5.92 -1.24,9.48 -38.24,19.23 -75.11,31.42 -115.62,44.6l-4.12 -7.93c-0.96,-1.84 -1.29,-3.52 -2.13,-5.41 -0.75,0.13 -2.99,2.29 -2.87,6.62 -34.54,5.96 -55.27,5.34 -70.43,3.58 -5.47,-0.63 -17.74,-2.33 -23.37,-7.9zm1383.66 434.3l0 -17.16c-23.39,-10.21 -51.14,-36.63 -76.47,-57.7 1.72,-1.25 5.26,-4.23 6.85,-5.47 -28.01,-28.41 -84.1,-78.28 -111.04,-115.35 3.7,-1.97 7.55,-4.56 10.59,-6.33 -48.08,-65.56 -133.18,-146.38 -172.12,-209.51 3.9,-4.37 7.45,-10.54 11.75,-17.48 -100.13,-50.57 -191.87,-121.54 -281.54,-180.89 95.58,-45.95 188.21,-74.95 283.51,-126.63 0.08,-2.55 0.32,-9.08 0.27,-11.83 63.88,5.04 136.01,17.99 212.17,25.93 -0.27,-3.44 0.27,-14.19 0.19,-19.17 48.06,0.92 99.05,4.46 146.65,5 0.51,-3.37 0.34,-11.04 0.48,-15.31 34.39,-10.94 58.27,-13.77 93.19,-32.22 19.13,-10.11 14.7,-49.2 9.35,-57.96 -16.06,16.97 -62.52,35.48 -106.51,50.62 -0.36,-2.25 -0.75,-4.44 -1.17,-6.56 -39.31,6.84 -92.93,13.99 -142.19,13.1 -0.07,-4.45 -0.2,-8.64 -0.4,-12.38 -79.92,-5.89 -147.41,-5.17 -225.25,-14.05 -1.67,-7.14 -5.12,-16.42 -8.56,-23.92 -89.98,57.13 -172.35,111.77 -262.26,158.55 75.83,-84.02 171.62,-167.96 256.72,-243.42 -5.81,-5.75 -12.08,-14.02 -18.09,-17.9 26.68,-74.19 81.11,-163.6 120.6,-236.86 -3.36,-1.37 -5.77,-1.85 -9.82,-3.33 24.8,-39.04 58.49,-68.4 89.96,-96.2l-7.86 -5.61c28.29,-24.69 103.11,-53.72 123.58,-64.26 -6.37,-8.01 -25.32,-18.09 -48.79,-13.83 -19.23,3.49 -74.13,31.6 -101.5,55.39l-12.21 -10.23c-27.05,35.92 -59.45,82.35 -84.42,119.43 -4.53,-1.64 -13.82,-3.74 -16.89,-5.08 -23.2,74.54 -84.53,192.74 -107.33,231.87 -2.5,-0.91 -12.05,-4.68 -14.41,-5.41 -48.59,61.6 -82.56,102.21 -129.36,153.71 -8.37,20.5 -20.75,39.3 -37.91,57.54 -0.41,5.38 -0.85,11.29 -1.3,17.64 62.7,-66.93 120.58,-134.87 176.47,-204.13 7.24,2.76 10.08,3.56 16.42,7.28 35.48,-66 81.53,-163.59 108.78,-234.18l9.48 3.27c22.83,-38.75 56.64,-86.26 85.44,-118.6 1.34,0.7 7.09,3.68 12.25,8.04 0.79,-0.65 1.77,-4.76 -1.46,-8.14 32.35,-25.79 77.08,-44.15 91.34,-49.51 5.04,-1.9 14.1,-5.36 21.71,-3.52 -17.53,5.93 -77.76,30.36 -110.04,62.5l4.88 4.31c-31.74,25.33 -61.74,58.24 -90.54,100.44 -4.46,-0.08 -8.17,2.76 -9.72,5.1 2.1,0.61 12.17,3.92 14.96,4.78 -36.82,63.23 -84.54,159.73 -113.62,230.41 -7.11,-4.47 -15.06,-3.58 -17.28,-1.34 8.1,4.51 21.38,15.03 22.48,16.84 -75.4,66.86 -156.14,143.21 -224.19,216.74 -0.88,14.51 -1.74,30.03 -2.52,46.01 86.18,-43.38 172.45,-94.45 256.38,-147.74 1.31,1.64 2.7,4.39 4.42,10.65 72.19,5.28 146.45,16.37 220.36,16.64 -0.08,3.02 -0.17,5.49 -0.27,7.75 6.46,0.02 13.11,-0.03 19.9,-0.15l-0 -2.55c46.37,1.69 87.93,-3.68 122.74,-8.12l-0.1 -1.19 10.95 -0.87c0.78,3.29 1.7,7.07 1.94,8.22 46.25,-15.55 84.84,-26.77 103.69,-42.81 -0.77,6.59 -2.28,16.23 -9.89,19.9 -21.93,10.56 -37.13,14.63 -53.31,19.15 -12.17,4.26 -25.24,8.75 -37.87,13.13 -0.06,-0.2 -0.13,-0.39 -0.21,-0.57l-0.7 0.28c0.23,1.05 0.27,3.74 0.26,6.57l-3.32 0.26 -0.06 1.61 -3.07 0.05c-0.14,1.37 -0.29,2.42 -0.43,2.94 -42.36,0.19 -86.9,-2.44 -129.66,-3.77l-0.97 0.04 0 -0.07c-3.77,-0.11 -7.53,-0.22 -11.27,-0.32 -2.96,-5.78 -6.13,-7.26 -9.17,-7.31l-0.11 18.43c-67.48,-3.02 -135.23,-16.94 -202.71,-22.45 -3.38,-11.93 -11.29,-18.04 -15.1,-18.29 4.23,16.88 4.93,27.9 5.19,35.89 -87.68,47.55 -179.98,82.25 -269,125.93 -0.37,9.5 -0.7,19.03 -0.97,28.5 78.4,55.87 172.59,130.01 262.5,175.42 -0.76,1.73 -2.42,4 -6.87,8.02 32.54,59.27 113.9,145.57 166.14,206.8 -2.57,1.24 -4.69,2.06 -6.64,2.95 3.32,4.68 7.03,9.65 11.03,14.83l0.59 -0.3c0.8,1.45 1.67,2.91 2.58,4.38 8.94,11.4 19.15,23.66 29.79,35.9 23.73,24.03 51.67,46.86 64.59,63.08l0.96 -0.58 5.88 8.17c-2.4,2.02 -5.15,4.37 -5.99,5.05 34.83,29.39 62.41,54.67 84.77,62.48 -5.91,2.23 -14.72,5.2 -21.39,0.83 -18.07,-11.83 -28.49,-21.47 -39.17,-31.47 -9.28,-7.58 -19.57,-16.12 -30.16,-24.9 0.22,-0.18 0.42,-0.38 0.6,-0.6l-1.48 -1.12c-0.77,0.63 -3.01,1.82 -5.4,3.03l-1.78 -2.47 -1.38 0.65c-0.51,-0.81 -1.04,-1.62 -1.58,-2.45 -1.22,0.53 -2.18,0.91 -2.58,1 -21.85,-25.07 -46.1,-55.89 -67.11,-84.39 -9.15,-10.74 -17.4,-21.01 -23.6,-30.23l1.41 -0.72c-2.06,-2.96 -4.04,-5.85 -5.95,-8.66 4.23,-4.16 3.67,-7.41 2.2,-9.62l-16.35 7.58c-37.82,-55.86 -105.41,-136.77 -151.54,-196.87 6.12,-6.14 8.18,-14.82 6.2,-17.43 -5.55,4.29 -20.09,15.65 -27.07,18.59 -77.85,-71.23 -149.03,-130.18 -223.78,-182.38 -0.14,8.09 -0.23,16.06 -0.26,23.82 78.93,56.44 152.68,123.23 216.68,183.58 2.18,-1.03 12.12,-6.08 14.41,-7.3 38.99,46.43 118.54,139.86 154.48,204.42 2.76,-1.69 12.05,-5.89 16.2,-8.09 24.09,38.22 65.06,90.98 97.17,127.65 3.08,-1.05 9.44,-4.48 13.1,-6.2 25.38,22.12 31.24,32.98 62.82,52.76 1.01,0.64 1.9,2.02 3.08,2.02l41.95 -0z"/>
   <path class="fil5" d="M134.97 1622.29c22.31,-8.19 60.04,-39.86 95.38,-69.39 -2.16,-1.52 -4.21,-3.08 -6.1,-4.64 29.83,-30.49 95.14,-84.91 118.14,-125.6 -2.81,-1.37 -5.52,-2.76 -8.04,-4.16 52.77,-65.29 137.09,-148.55 178.81,-215.68 -4.75,-5.38 -7.22,-8.73 -11.34,-15.18 97.34,-48.68 182.45,-108.63 268.48,-166.75l0.32 9.99c-77.38,54.64 -166.03,119.72 -251.1,161.46 0.81,1.8 2.58,4.15 7.35,8.33 -34.8,61.56 -121.82,151.21 -177.7,214.81 2.76,1.28 5.03,2.14 7.11,3.06 -28.73,39.23 -83.94,98.68 -118.07,129.73 1.52,0.94 3.44,2.13 4.79,2.94 -35.5,30.05 -66.53,59.49 -89.16,67.81 8.22,1.72 20.22,-3.17 24.82,-6 12.28,-7.57 39.57,-29.92 67.18,-52.16 -2.51,-2.55 -0.86,-6.84 0.18,-8.09 1.22,0.78 4.07,2.05 5.91,3.19 1.53,0.95 6.47,2.96 8.24,3.35 35.44,-39.48 76.78,-92.74 103,-130.42 -3.08,-2.18 -4.01,-7.15 -3.33,-8.12 0.57,-0.83 4.96,1.64 7.09,2.67l10.23 4.96c41.59,-59.65 114.28,-143.36 163.63,-206.26 -8.63,-7.14 -7.08,-15.34 -6.73,-15.81 0.41,-0.53 8.75,7.08 11.67,9.31 5.89,4.5 8.36,6.41 15.83,9.47 72.93,-64.81 140.39,-119.83 209.73,-168.92 0.08,3.6 0.15,7.17 0.21,10.7 -73.45,53.05 -132.86,109.56 -207.17,170.64 -5.48,-2.95 -11.7,-5.11 -15.14,-7 -38.89,50.36 -128.28,145.92 -166.78,211.16 -2.31,-1.36 -8.84,-4.59 -11.94,-6.08 -26.43,37.25 -67.69,91.08 -106.75,133.98 -2.2,-0.56 -8.4,-3.62 -10.8,-4.56 -30.96,24.28 -55.83,47.12 -71.31,55.16 -15.7,8.15 -40.21,5.77 -46.61,2.11zm1364.6 0.35c-20.86,-7.89 -56.14,-38.37 -89.18,-66.8 2.02,-1.46 3.94,-2.96 5.71,-4.46 -27.89,-29.36 -88.96,-81.74 -110.46,-120.92 2.63,-1.32 5.16,-2.66 7.52,-4.01 -49.34,-62.86 -128.17,-143.01 -167.18,-207.64 4.44,-5.17 6.75,-8.4 10.6,-14.61 -101.37,-52.2 -188.54,-117.85 -278.52,-179.54l-3.85 6.27c79.05,56.12 174.64,131.73 265.83,177.79 -0.76,1.73 -2.42,4 -6.87,8.02 32.54,59.27 113.9,145.57 166.14,206.8 -2.57,1.24 -4.69,2.06 -6.64,2.95 26.86,37.77 78.48,95 110.39,124.89 -1.43,0.91 -3.22,2.05 -4.48,2.83 33.2,28.93 62.2,57.27 83.37,65.28 -7.68,1.65 -18.91,-3.05 -23.21,-5.78 -11.71,-7.43 -36.22,-27.9 -62.6,-49.76 2.59,-2.09 1.73,-6.76 0.12,-8.09 -1.56,0.71 -12.07,5.75 -13.73,6.13 -32.66,-37.47 -70.69,-87.81 -95.24,-123.99 4.23,-4.16 3.67,-7.41 2.2,-9.62l-16.35 7.58c-37.82,-55.86 -105.41,-136.77 -151.54,-196.87 6.12,-6.14 8.18,-14.82 6.2,-17.43 -5.55,4.29 -20.09,15.65 -27.07,18.59 -80.72,-73.86 -154.27,-134.5 -232.06,-188.12 -0.08,3.44 -0.15,6.86 -0.22,10.24 86.33,58.4 148.49,121.11 229.69,189.83 5.12,-2.84 10.94,-4.92 14.16,-6.74 36.36,48.48 119.95,140.48 155.94,203.29 2.16,-1.31 8.27,-4.42 11.17,-5.85 24.71,35.86 63.29,87.68 99.81,128.99 2.06,-0.54 7.85,-3.49 10.1,-4.39 28.95,23.38 52.2,45.36 66.67,53.1 14.68,7.85 37.6,5.56 43.58,2.03zm126.1 -820.91c-18.18,14.64 -62.05,31.83 -106.47,46.28 -0.42,-2.64 -0.93,-5.21 -1.51,-7.64 -40.51,6.03 -97.54,12.7 -146.71,10.77 0.02,-3.11 -0.02,-6.15 -0.16,-9.03 -78.05,-3.8 -145.57,-4.73 -221.69,-16.15 -2.28,-7.9 -3.93,-12.01 -7.04,-18.79 -92.59,58.79 -177.01,113.65 -270.42,160.7l-0.45 10.03c89.06,-44.29 178.3,-97 265.05,-152.08 1.31,1.64 2.7,4.39 4.42,10.65 72.19,5.28 146.45,16.37 220.36,16.64 -0.08,3.02 -0.17,5.49 -0.27,7.75 49.01,0.16 109.46,-3.88 150.4,-8.63 0.18,1.8 0.39,4.05 0.53,5.63 44.98,-14.32 87.29,-25.15 105.73,-40.01 0.49,7.4 -7.14,13.56 -11.98,15.98 -13.11,6.55 -51.58,19.6 -86.64,31.75 -0.95,-3.19 -4.52,-4.44 -6.78,-3.65 0.3,5.79 -0.29,13.09 -0.75,14.8 -46.41,0.21 -95.46,-2.96 -141.9,-4.12 -2.96,-5.78 -6.13,-7.26 -9.17,-7.31l-0.11 18.43c-67.48,-3.02 -135.23,-16.94 -202.71,-22.45 -3.38,-11.93 -11.29,-18.04 -15.1,-18.29 4.23,16.88 4.93,27.9 5.19,35.89 -90.49,49.07 -185.89,84.46 -277.53,130.15l-0.38 10.97c98.09,-49.11 192.1,-81.71 289.64,-134.61 -0.22,-6.21 -0.67,-10.25 -0.84,-14.18 61.12,3.5 137.2,15.65 211.79,23.99 -0.21,-2.68 -0.19,-9.95 -0.15,-13.37 47.79,-0.87 99.99,3.96 149.29,3.33 0.51,-2.17 0.52,-9.05 0.76,-11.59 37.41,-13.5 80.72,-24.38 95.21,-33.88 11.23,-7.37 13.57,-31.51 10.38,-37.96zm-198.42 -517.25c-20.07,9.52 -89.59,35.82 -122.58,65.96l6.23 4.83c-31.17,26.7 -61.47,59.09 -91.03,101.32 2.86,0.96 5.62,1.95 8.21,2.99 -34.71,64.52 -95.51,176.12 -117.65,239.39 6.53,4.72 9.78,7.64 15.03,12.83 -89.03,78.93 -174.8,153.03 -251.71,238.97l-0.31 -13.44c69.85,-76.49 154.42,-156.67 233.15,-226.49 -1.1,-1.81 -14.38,-12.33 -22.48,-16.84 2.22,-2.24 10.17,-3.13 17.28,1.34 29.08,-70.68 76.79,-167.19 113.62,-230.41 -2.8,-0.86 -12.87,-4.17 -14.96,-4.78 1.55,-2.34 5.26,-5.19 9.72,-5.1 28.8,-42.2 58.8,-75.11 90.54,-100.44l-4.88 -4.31c32.29,-32.14 92.51,-56.57 110.04,-62.5 -7.61,-1.84 -16.67,1.62 -21.71,3.52 -14.26,5.36 -58.99,23.73 -91.34,49.51 3.23,3.38 2.25,7.49 1.46,8.14 -5.16,-4.36 -10.91,-7.34 -12.25,-8.04 -28.8,32.34 -62.61,79.86 -85.44,118.6l-9.48 -3.27c-27.25,70.59 -73.29,168.18 -108.78,234.18 -6.34,-3.72 -9.18,-4.52 -16.42,-7.28 -58.73,72.78 -119.66,144.11 -186.07,214.33 0.36,-5.66 0.71,-11.05 1.05,-16.12 77.81,-81 107.05,-124.89 180.34,-212.94 5.61,2.16 11.5,5.84 15.05,7.23 23.3,-40.02 81.56,-157.82 107.43,-232.08 2.4,1.05 9.73,4.26 12.87,5.29 21.84,-32.07 57.23,-84.03 86,-118.86l9.84 7.51c28.87,-25.4 79.33,-49.67 95.81,-54.45 13.03,-3.77 38.49,-3.77 43.41,1.41zm-1211.41 -8.01c20.21,9.77 86.52,34.09 119.74,65.01l-6.27 4.96c31.38,27.39 61.89,60.61 91.65,103.93 -2.88,0.98 -5.66,2 -8.26,3.07 34.95,66.19 96.16,180.66 118.45,245.56 -6.57,4.85 -9.85,7.83 -15.13,13.16 88.92,80.32 174.62,155.77 251.59,243.03 -0.26,-5.42 -0.53,-10.76 -0.81,-16 -69.75,-77.26 -153.62,-157.98 -231.78,-228.4 1.1,-1.85 3.2,-4.14 8.44,-7.87 2.86,-2.03 10.03,-6.22 13.85,-7.89 -0.61,-1.52 -9.57,-4.08 -17.3,-0.73 -29.3,-72.24 -77.17,-170.59 -114.15,-235.09 4.85,-1.51 10.38,-3.22 15.46,-4.64 -0.84,-1.26 -3.73,-5.15 -10.26,-5.59 -28.98,-43.11 -59.16,-76.74 -91.08,-102.63 0.95,-0.86 5.12,-4.92 8.93,-7.96 -0.73,-0.69 -5.36,-1.86 -8.37,-0.56 -34.03,-30.83 -89.6,-54.04 -106.44,-59.83 7.66,-1.88 16.78,0.56 21.86,2.5 15.1,5.78 63.31,26.88 96.19,55.38l6.63 -3.52c29,33.09 63.04,81.69 86.03,121.33l9.55 -3.34c27.43,72.21 73.8,172.05 109.52,239.56 6.38,-3.81 9.24,-4.63 16.53,-7.45 58.16,73.23 118.47,145.03 184.06,215.73 -0.34,-5.44 -0.68,-10.62 -1.01,-15.52 -75.95,-80.92 -105.57,-125.93 -178.34,-215 -5.65,2.22 -11.58,5.99 -15.15,7.42 -23.46,-41.05 -82.12,-161.89 -108.17,-238.06 -2.41,1.08 -9.8,4.37 -12.96,5.43 -21.99,-32.89 -57.62,-86.2 -86.59,-121.92l-9.91 7.7c-29.07,-26.05 -78.52,-46.1 -94.52,-52.76 -12.46,-5.19 -37.02,-4.3 -41.97,1zm-119.56 912.85c22.43,2.5 59.67,6.64 104.18,-1.58l-2.86 -7.39c40.74,-4.16 69.8,-9.17 118.11,-30.14 -1.98,-2.32 -3.85,-4.62 -5.55,-6.87 64.1,-36.53 119.23,-65.37 171.76,-107.46 -3.18,-7.46 -4.46,-11.65 -6.28,-18.84 102.13,-17.29 196.56,-32.35 292.2,-56.85l0.42 9.01c-89.56,23.48 -183.13,42.1 -276.31,57.88 -0,2.12 0.63,5.11 3.22,10.96 -62.4,45.41 -102.73,71.33 -170.41,106.93 1.97,2.2 3.59,4 5.09,5.63 -50.22,22.77 -79.88,30.15 -122.98,35.2l1.96 6.24c-44.94,10.28 -77.57,8.41 -95.9,4.2 5.63,5.57 17.9,7.27 23.37,7.9 15.16,1.76 35.9,2.38 70.43,-3.58 -0.12,-4.33 2.12,-6.49 2.87,-6.62 0.84,1.89 1.17,3.57 2.13,5.41l4.12 7.93c40.51,-13.18 77.38,-25.37 115.62,-44.6 -1.79,-3.56 0.28,-8.98 1.24,-9.48 0.93,1.65 3.58,4.22 5.18,6.09l6.84 7.99c57.45,-43.04 92.99,-67.46 150.67,-101.47 -4.67,-9.86 1.69,-18.67 3.3,-19.62 2.88,4.79 5.17,9.21 7.35,13.38 3.43,6.56 5.58,8.69 10.41,14.85 86.05,-20.62 168.74,-50.89 253,-76.52l0.38 10.02c-86.58,26.72 -167.19,57.43 -258.52,79.31 -3.73,-4.8 -5.92,-8.13 -8.26,-11.18 -41.29,21.72 -97.49,57.18 -159.05,106.64 -1.53,-2.15 -6.2,-8.75 -8.38,-11.29 -35.84,15.73 -82.05,31.84 -122.98,47.71l-4.58 -11.58c-38.42,6.36 -61.61,5.42 -78.83,2.56 -13.42,-2.23 -31.44,-13.75 -32.98,-20.75z"/>
   <path class="fil4" d="M877.14 1120.01c74.33,33.6 152.42,122.84 152.42,241.73 0,152.56 -132.42,276.23 -212.8,276.23 -80.39,0 -212.81,-123.68 -212.81,-276.23 0,-122.33 82.66,-213.26 158.85,-244.5 2.09,-76.42 -4.98,-191.21 -9.3,-247.61 -37.32,-39.66 -52.03,-81.94 -52.03,-138.66 0,-108.7 77.38,-115.03 118.46,-115.41 41.08,0.37 118.46,6.71 118.46,115.41 0,56.72 -14.71,99 -52.03,138.66 -4.37,57.08 -11.55,173.99 -9.21,250.37zm-233.23 148.85c28.8,-70.02 86.03,-118.98 137.16,-135.63 2.07,-93.25 -3.02,-175.67 -9.72,-265.86 3.07,-0.1 25.75,2.8 45.43,1.66 9,-0.52 17.81,-4.46 23.07,-6.64 -38.76,2.52 -65.67,-3.3 -68.63,-3.86 -35.13,-37.33 -52.01,-64.5 -52.01,-117.88 0,-97.28 62.06,-107.06 100.72,-107.42 38.66,0.35 100.72,10.14 100.72,107.42 0,53.38 -16.88,80.54 -52,117.88 -4.42,57.82 -11.38,193.24 -9.78,267.03 0.01,0.52 -57.51,7.28 -57.51,7.8 0,0.27 10.42,2.78 26.42,3.13 15.18,0.33 30.3,-1.4 31.05,-1.44 70.67,25.86 150.63,111.83 150.63,228.89 0,141.05 -119.56,255.39 -192.13,255.39 -32.18,0 -73.61,-22.48 -109.75,-59.81 11.55,3.84 63.38,14.75 108.29,13.27 20.37,-0.67 65.91,-11.26 75.61,-14.99 1.64,-0.63 -32.52,6.61 -76.16,7.39 -50.09,0.89 -108.79,-13.56 -120.93,-20.26 -27.41,-32.4 -49.52,-71.8 -60.82,-117.84 39.44,14.91 107.68,18.12 182.49,17.55 40.83,-0.31 92.67,-11.09 115.54,-18 -7.37,-0.67 -75.34,8.49 -115.98,8.44 -68.92,-0.1 -154.79,-6.3 -184.84,-18.18 -3.61,-17.08 -5.59,-34.8 -5.59,-52.96 0,-30.79 5.54,-58.58 14.98,-84.54 9.29,7.18 86.29,22.76 167.07,21.94 80.77,-0.82 95.88,-13.59 108.22,-18.07 -19.6,2.89 -33.08,6.63 -107,8.25 -32.5,0.71 -149.22,-5.06 -164.54,-22.65z"/>
   <path class="fil4" d="M875.81 281.91c-5.76,10.85 -10.46,20.45 -17.32,34.16 2.77,3.04 5.53,6.3 8.26,9.75 7.92,-15.31 12.64,-24.14 19.18,-35.94 3.6,-6.75 14.99,-4.18 9.43,6.14 -7.26,13.42 -13.88,24.47 -22.51,37.93 2.59,3.62 5.15,7.41 7.66,11.32 10.47,-16.27 19.32,-30.66 28.41,-44.29 17.08,-25.61 -19.19,-45.31 -33.12,-19.06z"/>
   <path class="fil4" d="M763.28 281.91c5.32,10.02 9.73,18.97 15.77,31.07 -2.83,2.93 -5.66,6.1 -8.45,9.48 -6.9,-13.3 -11.4,-21.67 -17.44,-32.58 -3.6,-6.75 -14.99,-4.18 -9.43,6.14 6.66,12.32 12.8,22.64 20.43,34.67 -2.64,3.55 -5.24,7.27 -7.8,11.13 -9.52,-14.87 -17.76,-28.19 -26.2,-40.85 -17.08,-25.61 19.19,-45.31 33.12,-19.06z"/>
   <path class="fil5" d="M881.19 286.43c-5.63,11.19 -10.9,20.69 -18.31,34.65 1.29,1.54 2.58,3.12 3.87,4.74 7.92,-15.31 12.64,-24.14 19.18,-35.94 3.6,-6.75 14.99,-4.18 9.43,6.14 -7.26,13.42 -13.88,24.47 -22.51,37.93 1.1,1.53 2.19,3.09 3.27,4.68 9.01,-14.22 16.31,-26.44 24.4,-39.16 11.92,-18.73 -10.99,-29.61 -19.34,-13.03z"/>
   <path class="fil5" d="M757.89 286.43c5.19,10.32 10.08,19.2 16.62,31.46 -1.31,1.48 -2.61,3 -3.91,4.57 -6.9,-13.3 -11.4,-21.67 -17.44,-32.58 -3.6,-6.75 -14.99,-4.18 -9.43,6.14 6.66,12.32 12.8,22.64 20.43,34.67 -1.11,1.5 -2.21,3.02 -3.31,4.57 -8.06,-12.82 -14.83,-24.09 -22.29,-35.8 -11.92,-18.73 10.99,-29.61 19.34,-13.03z"/>
   <path class="fil4" d="M817.32 622.81c67.95,0 124.13,-50.76 133.32,-116.71 -7.56,5.75 -16.76,9.46 -26.76,10.33 -13.92,48.37 -56.36,83.56 -106.55,83.56 -50.2,0 -92.63,-35.19 -106.56,-83.56 -10.01,-0.87 -19.2,-4.59 -26.76,-10.34 9.18,65.96 65.37,116.72 133.32,116.72zm119.8 -206.72c-6.46,-18.06 -14.7,-36.54 -24.09,-54.06l-17.84 8.65c7.15,13.74 13.53,28.22 18.77,42.54 1.76,-0.18 3.55,-0.27 5.35,-0.27 6.26,0 12.26,1.11 17.81,3.14zm-29.54 -63.87c-26.83,-46.82 -61.32,-84.46 -90.26,-84.46 -28.56,0 -62.52,36.64 -89.18,82.59 5.77,3.09 11.53,6.2 17.3,9.32 21.76,-38.35 48.93,-68.43 71.89,-68.43 23.33,0 51.02,31.08 72.96,70.34 5.76,-3.13 11.53,-6.25 17.3,-9.35zm-185.02 8.05c-9.79,18.04 -18.38,37.16 -25.05,55.82 5.56,-2.03 11.56,-3.14 17.82,-3.14 1.8,0 3.59,0.09 5.34,0.27 5.46,-14.94 12.18,-30.06 19.7,-44.31l-17.81 -8.64z"/>
   <path class="fil5" d="M868.38 1127.05c72.47,30.12 151.12,117.84 151.12,235.86 0,147.16 -125.94,266.46 -202.39,266.46 -76.46,0 -202.4,-119.3 -202.4,-266.46 0,-121.12 82.84,-210.33 156.82,-238.12 1.67,-72.33 -4.98,-202.62 -9.4,-260.43 -35.13,-37.33 -52.26,-71.05 -52.26,-124.43 0,-102.29 66.19,-116.54 110.05,-116.17l0.01 0c43.86,-0.37 110.05,13.88 110.05,116.17 0,53.38 -17.13,87.09 -52.25,124.43 -4.47,58.42 -11.21,190.84 -9.34,262.68zm-224.48 141.82c28.8,-70.02 86.03,-118.98 137.16,-135.63 2.07,-93.25 -3.02,-175.67 -9.72,-265.86 3.07,-0.1 25.75,2.8 45.43,1.66 9,-0.52 17.81,-4.46 23.07,-6.64 -38.76,2.52 -65.67,-3.3 -68.63,-3.86 -35.13,-37.33 -52.01,-64.5 -52.01,-117.88 0,-97.28 62.06,-107.06 100.72,-107.42 38.66,0.35 100.72,10.14 100.72,107.42 0,53.38 -16.88,80.54 -52,117.88 -4.42,57.82 -11.38,193.24 -9.78,267.03 0.01,0.52 -57.51,7.28 -57.51,7.8 0,0.27 10.42,2.78 26.42,3.13 15.18,0.33 30.3,-1.4 31.05,-1.44 70.67,25.86 150.63,111.83 150.63,228.89 0,141.05 -119.56,255.39 -192.13,255.39 -32.18,0 -73.61,-22.48 -109.75,-59.81 11.55,3.84 63.38,14.75 108.29,13.27 20.37,-0.67 65.91,-11.26 75.61,-14.99 1.64,-0.63 -32.52,6.61 -76.16,7.39 -50.09,0.89 -108.79,-13.56 -120.93,-20.26 -27.41,-32.4 -49.52,-71.8 -60.82,-117.84 39.44,14.91 107.68,18.12 182.49,17.55 40.83,-0.31 92.67,-11.09 115.54,-18 -7.37,-0.67 -75.34,8.49 -115.98,8.44 -68.92,-0.1 -154.79,-6.3 -184.84,-18.18 -3.61,-17.08 -5.59,-34.8 -5.59,-52.96 0,-30.79 5.54,-58.58 14.98,-84.54 9.29,7.18 86.29,22.76 167.07,21.94 80.77,-0.82 95.88,-13.59 108.22,-18.07 -19.6,2.89 -33.08,6.63 -107,8.25 -32.5,0.71 -149.22,-5.06 -164.54,-22.65z"/>
   <path class="fil5" d="M817.32 611.18c58.48,0 107.46,-41.77 120.21,-97.85 -4.31,1.62 -8.89,2.67 -13.66,3.09 -13.92,48.37 -56.36,83.56 -106.55,83.56 -50.2,0 -92.63,-35.19 -106.56,-83.56 -4.76,-0.42 -9.35,-1.48 -13.66,-3.1 12.74,56.08 61.73,97.85 120.21,97.85zm108.1 -197.88c-5.81,-15.8 -13,-31.83 -21.1,-47.06l-9.14 4.43c7.15,13.74 13.53,28.22 18.77,42.54 1.76,-0.18 3.55,-0.27 5.35,-0.27 2.07,0 4.11,0.12 6.11,0.36zm-26.31 -56.53c-24.46,-42.93 -55.6,-77.18 -81.8,-77.18 -25.81,0 -56.43,33.25 -80.72,75.29l8.83 4.77c21.76,-38.35 48.93,-68.43 71.89,-68.43 23.33,0 51.02,31.08 72.96,70.34l8.83 -4.79zm-167.86 7.71c-8.48,15.74 -16,32.41 -22.04,48.82 2.01,-0.24 4.05,-0.36 6.12,-0.36 1.8,0 3.59,0.09 5.34,0.27 5.46,-14.94 12.18,-30.06 19.7,-44.31l-9.12 -4.42z"/>
   <path class="fil4" d="M716.78 396.16c39.78,0 72.03,32.25 72.03,72.03 0,39.77 -32.25,72.02 -72.03,72.02 -39.77,0 -72.02,-32.25 -72.02,-72.02 0,-39.78 32.25,-72.03 72.02,-72.03zm-1.45 16.78c-28.63,0 -51.84,23.21 -51.84,51.84 0,28.63 23.21,51.84 51.84,51.84 28.63,0 51.84,-23.21 51.84,-51.84 0,-28.63 -23.21,-51.84 -51.84,-51.84z"/>
   <path class="fil4" d="M917.86 396.16c39.77,0 72.02,32.25 72.02,72.03 0,39.77 -32.25,72.02 -72.02,72.02 -39.78,0 -72.03,-32.25 -72.03,-72.02 0,-39.78 32.25,-72.03 72.03,-72.03zm1.45 16.78c28.63,0 51.84,23.21 51.84,51.84 0,28.63 -23.21,51.84 -51.84,51.84 -28.63,0 -51.84,-23.21 -51.84,-51.84 0,-28.63 23.21,-51.84 51.84,-51.84z"/>
   <path class="fil5" d="M919.07 404.45c34.26,0 62.04,27.78 62.04,62.04 0,34.26 -27.78,62.04 -62.04,62.04 -34.26,0 -62.04,-27.78 -62.04,-62.04 0,-34.26 27.78,-62.04 62.04,-62.04zm0.24 8.5c28.63,0 51.84,23.21 51.84,51.84 0,28.63 -23.21,51.84 -51.84,51.84 -28.63,0 -51.84,-23.21 -51.84,-51.84 0,-28.63 23.21,-51.84 51.84,-51.84z"/>
   <path class="fil5" d="M715.58 404.45c-34.26,0 -62.04,27.78 -62.04,62.04 0,34.26 27.78,62.04 62.04,62.04 34.26,0 62.04,-27.78 62.04,-62.04 0,-34.26 -27.78,-62.04 -62.04,-62.04zm-0.24 8.5c-28.63,0 -51.84,23.21 -51.84,51.84 0,28.63 23.21,51.84 51.84,51.84 28.63,0 51.84,-23.21 51.84,-51.84 0,-28.63 -23.21,-51.84 -51.84,-51.84z"/>
   <path class="fil4" d="M1196.66 99.97c-27.31,17.53 -42.07,31.35 -69.31,47.58 -2.08,-0.81 -9.06,0.38 -10.04,0.95 -17.36,36.14 -24.77,62.48 -42.7,97.28 -0.52,-0.29 -5.85,-0.29 -6.42,-0.52 -73.19,38.99 -136.77,78.63 -210.89,118.15 -27.95,14.91 -11.81,49.1 18.6,35.05 77.9,-35.98 146.64,-67.37 219.54,-103.17 2.11,-1.32 7.08,-14.01 4.18,-20.36 18.17,-34.88 34,-69.83 51.83,-104.94 0.51,-1.27 1.19,-3.62 0.94,-5.08 26.6,-15.92 48.31,-26.83 74.79,-43.02 7.49,-4.8 -16.32,-27.55 -30.52,-21.9zm9.58 9.8c-27.31,17.53 -45.34,30.92 -72.59,47.15 -0.9,-0.28 -1.65,-0.43 -2.62,-0.35 -16.76,34.89 -32.12,69.32 -49.31,102.97 -0.61,1.2 -1.09,3.27 0.5,5.22 -0.52,-0.29 -3.4,-2.16 -3.97,-2.4 -73.19,38.99 -144.77,74.99 -216.01,114.6 -5.37,2.99 0.61,9.31 3.96,7.7 73.43,-35.36 146.64,-71.27 219.32,-108.14 0.81,-1.53 1.27,-5.15 -0.34,-7.63 18.17,-34.88 35.51,-71.93 53.34,-107.05 -0.25,-1 -0.39,-2.48 -2.4,-3.46 1.3,0.51 3.13,0.63 5.25,-0.61 25.61,-14.98 46.14,-27.77 71.74,-43.43 4.97,-5.57 -3.03,-6.31 -6.88,-4.58zm-773.26 0c27.31,17.53 45.34,30.92 72.59,47.15 0.9,-0.28 1.65,-0.43 2.62,-0.35 16.76,34.89 32.12,69.32 49.3,102.97 0.61,1.2 1.09,3.27 -0.49,5.22 0.52,-0.29 3.4,-2.16 3.97,-2.4 73.19,38.99 144.77,74.99 216.01,114.6 5.37,2.99 -0.61,9.31 -3.96,7.7 -73.43,-35.36 -146.64,-71.27 -219.32,-108.14 -0.81,-1.53 -1.27,-5.15 0.34,-7.63 -18.17,-34.88 -35.51,-71.93 -53.34,-107.05 0.25,-1 0.39,-2.48 2.4,-3.46 -1.29,0.51 -3.12,0.63 -5.25,-0.61 -25.61,-14.98 -46.14,-27.77 -71.74,-43.43 -4.98,-5.57 3.03,-6.31 6.88,-4.58zm9.58 -9.8c27.31,17.53 42.07,31.35 69.31,47.58 2.08,-0.81 9.06,0.38 10.04,0.95 17.36,36.14 24.77,62.48 42.7,97.28 0.52,-0.29 5.85,-0.29 6.42,-0.52 73.2,38.99 136.77,78.63 210.9,118.15 27.95,14.91 11.81,49.1 -18.6,35.05 -77.91,-35.98 -146.64,-67.37 -219.54,-103.17 -2.11,-1.32 -7.08,-14.01 -4.18,-20.36 -18.17,-34.88 -34,-69.83 -51.83,-104.94 -0.5,-1.27 -1.19,-3.62 -0.93,-5.08 -26.6,-15.92 -48.31,-26.83 -74.79,-43.02 -7.49,-4.8 16.32,-27.55 30.51,-21.9z"/>
   <path class="fil5" d="M1206.24 109.77c-27.31,17.53 -45.34,30.92 -72.59,47.15 -0.9,-0.28 -1.65,-0.43 -2.62,-0.35 -16.76,34.89 -32.12,69.32 -49.31,102.97 -0.61,1.2 -1.09,3.27 0.5,5.22 -0.52,-0.29 -3.4,-2.16 -3.97,-2.4 -73.19,38.99 -144.77,74.99 -216.01,114.6 -5.37,2.99 0.61,9.31 3.96,7.7 73.43,-35.36 146.64,-71.27 219.32,-108.14 0.81,-1.53 1.27,-5.15 -0.34,-7.63 18.17,-34.88 35.51,-71.93 53.34,-107.05 -0.25,-1 -0.39,-2.48 -2.4,-3.46 1.3,0.51 3.13,0.63 5.25,-0.61 25.61,-14.98 46.14,-27.77 71.74,-43.43 4.97,-5.57 -3.03,-6.31 -6.88,-4.58zm-773.26 0c27.31,17.53 45.34,30.92 72.59,47.15 0.9,-0.28 1.65,-0.43 2.62,-0.35 16.76,34.89 32.12,69.32 49.3,102.97 0.61,1.2 1.09,3.27 -0.49,5.22 0.52,-0.29 3.4,-2.16 3.97,-2.4 73.19,38.99 144.77,74.99 216.01,114.6 5.37,2.99 -0.61,9.31 -3.96,7.7 -73.43,-35.36 -146.64,-71.27 -219.32,-108.14 -0.81,-1.53 -1.27,-5.15 0.34,-7.63 -18.17,-34.88 -35.51,-71.93 -53.34,-107.05 0.25,-1 0.39,-2.48 2.4,-3.46 -1.29,0.51 -3.12,0.63 -5.25,-0.61 -25.61,-14.98 -46.14,-27.77 -71.74,-43.43 -4.98,-5.57 3.03,-6.31 6.88,-4.58zm771.64 -6.46c-27.31,17.53 -47.12,32.27 -74.36,48.49 -2.08,-0.81 -6.05,-0.54 -7.03,0.03 -17.36,36.13 -26.92,67.16 -44.86,101.96 -0.52,-0.29 -3.54,-0.12 -4.1,-0.36 -73.2,38.99 -141.14,74.55 -213.96,116.44 -18.06,10.39 -5.8,28.64 10.63,20.62 77.12,-37.67 145.99,-68.8 218.89,-104.6 2.11,-1.31 4.71,-10.43 3.1,-12.91 18.17,-34.88 34.22,-71.23 52.05,-106.34 0.51,-1.27 1.14,-3.41 0.88,-4.87 26.6,-15.92 48.64,-27.79 75.12,-43.99 7.49,-4.8 -2.16,-20.13 -16.36,-14.48zm-770.03 0c27.31,17.53 47.12,32.27 74.36,48.49 2.08,-0.81 6.05,-0.54 7.03,0.03 17.36,36.13 26.92,67.16 44.86,101.96 0.52,-0.29 3.53,-0.12 4.1,-0.36 73.19,38.99 141.13,74.55 213.96,116.44 18.06,10.39 5.79,28.64 -10.63,20.62 -77.13,-37.67 -145.99,-68.8 -218.89,-104.6 -2.11,-1.31 -4.71,-10.43 -3.1,-12.91 -18.17,-34.88 -34.22,-71.23 -52.05,-106.34 -0.5,-1.27 -1.13,-3.41 -0.88,-4.87 -26.6,-15.92 -48.63,-27.79 -75.11,-43.99 -7.49,-4.8 2.16,-20.13 16.36,-14.48z"/>
  </g>
 </g>
</svg>
