<?xml version="1.0" encoding="UTF-8"?>
<!DOCTYPE svg PUBLIC "-//W3C//DTD SVG 1.1//EN" "http://www.w3.org/Graphics/SVG/1.1/DTD/svg11.dtd">
<!-- Creator: CorelDRAW 2020 (64-Bit) -->
<svg xmlns="http://www.w3.org/2000/svg" xml:space="preserve" width="40.3964mm" height="11.5189mm" version="1.1" style="shape-rendering:geometricPrecision; text-rendering:geometricPrecision; image-rendering:optimizeQuality; fill-rule:evenodd; clip-rule:evenodd"
viewBox="0 0 2677.92 763.6"
 xmlns:xlink="http://www.w3.org/1999/xlink"
 xmlns:xodm="http://www.corel.com/coreldraw/odm/2003">
 <defs>
  <style type="text/css">
   <![CDATA[
    .fil0 {fill:#E3ECF4}
   ]]>
  </style>
 </defs>
 <g id="Layer_x0020_1">
  <metadata id="CorelCorpID_0Corel-Layer"/>
  <path class="fil0" d="M2296.11 455.29c-40.58,0 -73.49,-32.9 -73.49,-73.49 0,-40.58 32.91,-73.48 73.49,-73.48 40.58,0 73.48,32.9 73.48,73.48 0,40.59 -32.89,73.49 -73.48,73.49zm-1914.31 0c40.58,0 73.48,-32.9 73.48,-73.49 0,-40.58 -32.9,-73.48 -73.48,-73.48 -40.58,0 -73.48,32.9 -73.48,73.48 0,40.59 32.9,73.49 73.48,73.49zm2036.51 -193.35l-38.52 37.93c-21.26,-21.7 -50.89,-35.18 -83.68,-35.18 -64.69,0 -117.12,52.44 -117.12,117.12 0,32.14 12.95,61.25 33.91,82.41l-170.57 167.99c-21.16,19.88 -42.23,40.03 -75.02,40.03l-71.36 0 -1113.99 0 -71.36 0c-23.23,0 -40.58,-10.12 -56.25,-23.08l-0.04 0.04 -0.54 -0.52c-6.23,-5.2 -12.21,-10.85 -18.2,-16.47l-170.57 -167.98c20.96,-21.17 33.91,-50.28 33.91,-82.42 0,-64.68 -52.44,-117.12 -117.12,-117.12 -32.79,0 -62.41,13.48 -83.68,35.19l-38.52 -37.93c-10.61,-10.95 -17.14,-25.87 -17.14,-42.31 0,-33.59 27.23,-60.82 60.82,-60.82 344.78,0 689.56,0.06 1034.34,0.12l2.67 0c344.79,-0.06 689.57,-0.12 1034.34,-0.12 33.58,0 60.82,27.23 60.82,60.82 0,16.45 -6.53,31.36 -17.14,42.31zm-1613.22 47.97l0 -31.18 0 -0.01 0.01 -0.26 0 -0.01 0.01 -0.27 0 -0.01 0.01 -0.26 0 -0.01 0.03 -0.25 0 -0.01 0.03 -0.27 0.03 -0.25 0 -0.01 0.05 -0.26 0.05 -0.26 0 0 0.05 -0.25 0 -0.01 0.07 -0.25 0.07 -0.25 0.07 -0.25 0 -0.01 0.08 -0.24 0 -0.01 0.09 -0.24 0.09 -0.24 0 -0.01 0.11 -0.23 0.1 -0.23 0.11 -0.23 0.11 -0.23 0.12 -0.22 0 -0.01 0.13 -0.21 0 -0.01 0.13 -0.21 0 -0.01 0.13 -0.21 0 -0.01 0.14 -0.2 0 -0.01 0.15 -0.2 0 -0.01 0.15 -0.2 0 -0.01 0.15 -0.19 0 -0.01 0.17 -0.19 0.16 -0.19 0 -0.01 0.17 -0.19 0.17 -0.18 0.17 -0.18 0.19 -0.17 0 -0.01 0.19 -0.17 0 -0.01 0.18 -0.16 0 -0.01 0.2 -0.17 0.19 -0.15 0 -0.01 0.2 -0.15 0 -0.01 0.21 -0.15 0 -0.01 0.21 -0.13 0 -0.01 0.21 -0.13 0 -0.01 0.21 -0.13 0 -0.01 0.22 -0.12 0 -0.01 0.22 -0.12 0 -0.01 0.23 -0.11 0 -0.01 0.23 -0.11 0 -0.01 0.23 -0.1 0 -0.01 0.23 -0.1 0 0 0.23 -0.1 0 -0.01 0.24 -0.08 0 -0.01 0.24 -0.08 0 -0.01 0.25 -0.07 0 -0.01 0.25 -0.07 0 -0.01 0.25 -0.06 0 -0.01 0.25 -0.06 0 -0.01 0.25 -0.05 0 -0.01 0.26 -0.04 0 -0.01 0.26 -0.04 0 -0.01 0.26 -0.03 0 -0.01 0.27 -0.02 0 -0.01 0.26 -0.02 0 -0.01 0.27 -0.01 0 -0.01 0.27 0 0 -0.01 0.27 0 0 -0.01 31.18 0 0.27 0.01 42.68 0c5.76,0 10.47,4.7 10.47,10.46l0 31.18c0,5.76 -4.71,10.47 -10.47,10.47l-32.49 0 0 48.23 11.19 0 31.03 0 0.15 0 0.13 0.01 0.13 0 0.13 0.01c5.44,0.21 9.84,4.61 10.05,10.06l0.01 0.13 0 0.14 0.01 0.13 0 0.14 0 31.62 0 120.01c0,5.75 -4.71,10.46 -10.46,10.46l-31.18 0c-5.76,0 -10.47,-4.71 -10.47,-10.46l0 -109.4 -113.93 0 0 109.4c0,5.75 -4.7,10.46 -10.46,10.46l-31.18 0c-5.76,0 -10.47,-4.71 -10.47,-10.46l0 -252.11c0,-5.75 4.71,-10.46 10.47,-10.46l31.18 0c5.76,0 10.46,4.71 10.46,10.46l0 89.88 61.1 0 0 -58.69zm274.4 -41.64l15.37 0 82.03 0 31.18 0c5.76,0 10.47,4.71 10.47,10.46l0 31.18 0 58.7 11.18 0 31.03 0 0.15 0 0.13 0.01 0.15 0 0.13 0.01c5.57,0.21 10.07,4.83 10.07,10.45l0 151.77c0,5.75 -4.71,10.46 -10.47,10.46l-20.51 0 -10.67 0 -134.86 0 -31.18 0c-5.76,0 -10.47,-4.71 -10.47,-10.46l0 -31.18 0 -220.93c0,-5.75 4.71,-10.46 10.47,-10.46l15.81 0zm25.83 220.93l113.93 0 0 -67.76 -113.93 0 0 67.76zm0 -120.59l61.11 0 0 -48.23 -61.11 0 0 48.23zm380.57 -100.34l81.49 0 0.27 -0.01 31.18 0 0.01 0.01 0.26 0 0.01 0.01 0.27 0 0.01 0.01 0.26 0.01 0.01 0.01 0.25 0.02 0.01 0.01 0.26 0.02 0.01 0.01 0.25 0.03 0.01 0.01 0.25 0.04 0.01 0.01 0.26 0.04 0 0.01 0.25 0.05 0.01 0.01 0.25 0.06 0.01 0.01 0.25 0.06 0 0.01 0.25 0.07 0.01 0.01 0.24 0.07 0.01 0.01 0.23 0.08 0.01 0.01 0.24 0.08 0.01 0.01 0.23 0.1 0.01 0 0.23 0.1 0.01 0.01 0.23 0.1 0.01 0.01 0.22 0.11 0.01 0.01 0.22 0.11 0.01 0.01 0.21 0.12 0.01 0.01 0.21 0.12 0.01 0.01 0.21 0.13 0.01 0.01 0.2 0.13 0.01 0.01 0.2 0.13 0.01 0.01 0.2 0.15 0.01 0.01 0.19 0.15 0.01 0.01 0.19 0.15 0.01 0 0.19 0.17 0.01 0.01 0.18 0.16 0.01 0.01 0.17 0.17 0.01 0.01 0.17 0.17 0.01 0 0.17 0.18 0.01 0 0.17 0.18 0.01 0 0.16 0.19 0.01 0.01 0.16 0.19 0.01 0 0.15 0.19 0.01 0.01 0.15 0.19 0.01 0.01 0.15 0.2 0.01 0.01 0.13 0.2 0.01 0.01 0.13 0.2 0.01 0.01 0.13 0.21 0.01 0.01 0.12 0.21 0.01 0.01 0.12 0.21 0.01 0.01 0.11 0.22 0.01 0 0.11 0.23 0.01 0 0.1 0.23 0.01 0 0.1 0.23 0 0 0.1 0.23 0.01 0.01 0.08 0.24 0.01 0 0.08 0.24 0.01 0.01 0.07 0.24 0.01 0.01 0.07 0.25 0.01 0 0.06 0.25 0.01 0 0.06 0.25 0.01 0.01 0.05 0.25 0.01 0 0.04 0.26 0.01 0 0.04 0.26 0.01 0.01 0.03 0.25 0.01 0 0.02 0.27 0.01 0.01 0.02 0.25 0.01 0.01 0.01 0.26 0 0.01 0 0.27 0.01 0.01 0 0.26 0.01 0.01 0 31.18 -0.01 0.27 0 60.31c0,1.54 -0.34,3.02 -0.95,4.34 0.61,1.34 0.95,2.82 0.95,4.38l0 31.62c0,5.83 -4.77,10.61 -10.61,10.61l-102.6 0 0 109.4c0,5.75 -4.71,10.46 -10.47,10.46l-31.18 0c-5.75,0 -10.46,-4.71 -10.46,-10.46l0 -109.4 -26.75 0c-5.84,0 -10.61,-4.77 -10.61,-10.61l0 -31.62c0,-5.83 4.77,-10.61 10.61,-10.61l26.75 0 0 -89.88c0,-5.75 4.71,-10.46 10.46,-10.46l31.18 0 0.27 0.01zm10.2 100.33l61.1 0 0 -48.23 -61.1 0 0 48.23zm259.11 -58.69l0 -31.18c0,-5.75 4.71,-10.46 10.47,-10.46l97.39 0 31.18 0c5.76,0 10.47,4.71 10.47,10.46l0 31.18 0 58.7 11.19 0 31.03 0 0.15 0 0.13 0.01 0.14 0 0.13 0.01c5.44,0.21 9.84,4.61 10.05,10.05l0.01 0.13 0 0.14 0.01 0.13 0 0.14 0 31.62 0 120.01c0,5.75 -4.71,10.46 -10.46,10.46l-20.52 0 -10.66 0 -166.04 0c-5.76,0 -10.47,-4.71 -10.47,-10.46l0 -31.18c0,-5.76 4.71,-10.47 10.47,-10.47l155.57 0 0 -67.76 -139.96 0c-5.83,0 -10.61,-4.77 -10.61,-10.61l0 -31.62c0,-5.83 4.77,-10.61 10.61,-10.61l87.13 0 0 -48.23 -86.93 0c-5.76,0 -10.47,-4.71 -10.47,-10.47zm540.91 453.7c210.86,0 381.8,-170.93 381.8,-381.8 0,-210.86 -170.94,-381.8 -381.8,-381.8 -105.08,0 -200.23,42.46 -269.26,111.15l133.97 0c40.71,-20.39 86.66,-31.87 135.29,-31.87 167.09,0 302.53,135.44 302.53,302.52 0,167.08 -135.44,302.53 -302.53,302.53 -67.03,0 -128.96,-21.81 -179.1,-58.71l-57.28 55.99c65.02,51.34 147.11,81.99 236.39,81.99zm-1914.31 0c88.66,0 170.26,-30.24 235.07,-80.95l-57.34 -56.03c-49.9,36.29 -111.32,57.71 -177.73,57.71 -167.09,0 -302.53,-135.45 -302.53,-302.53 0,-167.08 135.44,-302.52 302.53,-302.52 48.62,0 94.57,11.48 135.28,31.87l133.98 0c-69.04,-68.69 -164.19,-111.15 -269.26,-111.15 -210.86,0 -381.8,170.94 -381.8,381.8 0,210.87 170.94,381.8 381.8,381.8z"/>
 </g>
</svg>
