<?xml version="1.0" encoding="UTF-8"?>
<!DOCTYPE svg PUBLIC "-//W3C//DTD SVG 1.1//EN" "http://www.w3.org/Graphics/SVG/1.1/DTD/svg11.dtd">
<!-- Creator: CorelDRAW 2020 (64-Bit) -->
<svg xmlns="http://www.w3.org/2000/svg" xml:space="preserve" width="51.529mm" height="61.453mm" version="1.1" style="shape-rendering:geometricPrecision; text-rendering:geometricPrecision; image-rendering:optimizeQuality; fill-rule:evenodd; clip-rule:evenodd"
viewBox="0 0 1698.16 2025.21"
 xmlns:xlink="http://www.w3.org/1999/xlink"
 xmlns:xodm="http://www.corel.com/coreldraw/odm/2003">
 <defs>
  <style type="text/css">
   <![CDATA[
    .fil0 {fill:#CCCCCC}
    .fil3 {fill:red}
    .fil1 {fill:white}
    .fil2 {fill:#CCCCCC;fill-rule:nonzero}
   ]]>
  </style>
 </defs>
 <g id="Layer_x0020_1">
  <metadata id="CorelCorpID_0Corel-Layer"/>
  <path class="fil0" d="M9.18 1627.04l1629.14 0 0 398.17 -1629.14 0 0 -398.17zm51.02 44.01l1535.52 0 0 305.46 -1535.52 0 0 -305.46z"/>
  <polygon class="fil0" points="1267.26,879.53 1309.53,879.53 1309.53,1626.86 1599.3,1626.86 1599.3,768.11 1638.32,768.11 1638.32,1669.13 1267.26,1669.13 "/>
  <path class="fil0" d="M917.61 683.03c-374.82,126.22 -692.27,421.29 -836.49,828.54 -15.56,43.97 -28.73,88.2 -39.58,132.53l44.75 15.86c10.67,-44.37 23.71,-88.64 39.3,-132.64 137.18,-387.38 436.94,-669.52 792.01,-793.8l0 -50.48z"/>
  <path class="fil1" d="M1159.59 1014.51c65.63,45 105.13,126.67 103.18,259.86 -2.51,171.25 -165.96,356.3 -403.23,350.82 -247.61,-5.72 -403.58,-346.67 -742.9,1.63l-42.2 -9.37c91.61,-162.95 317.83,-331.9 545.68,-291.42 117.42,20.86 234.75,100.46 352.19,75.67 141.35,-29.84 246.06,-163.23 187.27,-387.2z"/>
  <path class="fil1" d="M246.87 374.13c-28.75,15.57 -52.1,36 -71.04,59.38 -155.54,192 -84.73,335.65 -6.78,476.38 92.34,166.69 193.24,331.44 17.89,558.58 -35.94,46.56 -81.78,97.15 -136.79,157.57l66.97 1.22c259.77,-253.95 388.6,-420.46 336.97,-600.69 -51.63,-180.23 -198.32,-265.06 -241.69,-356.07 -34.09,-71.52 -54.15,-192.5 34.46,-296.36z"/>
  <polygon class="fil0" points="1.22,337.77 1125.09,337.77 1090.51,383.2 48.58,383.2 48.58,2025.21 1.22,2025.21 "/>
  <path class="fil2" d="M260.93 1884.72l-32.15 0c0,-4.43 -3.05,-16.95 -9.16,-37.6l-46.42 0c-6.31,20.31 -9.47,32.83 -9.47,37.6l-30.26 0c0,-2.61 7.82,-24.05 23.47,-64.33 15.64,-40.28 23.47,-62.44 23.47,-66.56l38.01 0c0,3.84 7.07,25.7 21.24,65.6 14.2,39.9 21.27,61.65 21.27,65.29zm-46.42 -56.78c-11.46,-34.58 -17.19,-53.28 -17.19,-56.1l-1.61 0c0,2.61 -5.94,21.31 -17.81,56.1l36.61 0z"/>
  <path id="1" class="fil2" d="M453.24 1884.72l-29.23 0c0,-11.39 -0.72,-30.6 -2.13,-57.64 -1.41,-27.04 -2.13,-43.92 -2.2,-50.61l-1.51 0c-0.69,4.01 -2.47,11.46 -5.35,22.3 -2.85,10.88 -8.27,26.87 -16.23,48 -7.93,21.13 -11.91,33.79 -11.91,37.94l-22.2 0c0,-4.29 -3.81,-17.05 -11.43,-38.29 -7.62,-21.24 -12.59,-36.13 -14.93,-44.64 -2.33,-8.51 -4.22,-16.95 -5.63,-25.32l-1.51 0c-0.07,8.37 -0.89,26.31 -2.47,53.87 -1.58,27.55 -2.33,45.67 -2.33,54.38l-26.56 0c0,-2.02 2.44,-22.16 7.27,-60.42 4.87,-38.26 7.31,-61.76 7.31,-70.47l38.91 0c0,7.51 4.08,24.08 12.32,49.68 8.2,25.59 12.28,41.96 12.28,49.13l1.51 0c0,-7.24 4.7,-23.64 14.03,-49.24 9.37,-25.59 14.03,-42.13 14.03,-49.57l38.6 0c0,13.89 1.54,38.63 4.66,74.25 3.12,35.61 4.67,54.48 4.67,56.64z"/>
  <path id="2" class="fil2" d="M599.33 1860.91l-1.68 23.09c-9.54,2.3 -18.91,3.43 -28.17,3.43 -22.99,0 -40.49,-6.35 -52.53,-19.04 -12.01,-12.69 -18.01,-28.13 -18.01,-46.28 0,-18.83 6.38,-35.24 19.14,-49.16 12.76,-13.93 30.26,-20.9 52.53,-20.9 8.17,0 15.88,0.93 23.19,2.81l-3.5 23.23c-7.93,-2.57 -15.47,-3.84 -22.71,-3.84 -13.62,0 -23.74,4.32 -30.37,12.94 -6.65,8.61 -9.95,19.07 -9.95,31.39 0,12.59 3.94,23.54 11.8,32.76 7.89,9.26 18.9,13.9 33.11,13.9 8.34,0 17.36,-1.44 27.14,-4.32z"/>
  <path id="3" class="fil2" d="M734.37 1753.83l-0.72 21.61c-13.38,-0.99 -26.01,-1.51 -37.88,-1.51 -0.14,12.69 -0.21,26.8 -0.21,42.34 0,24.12 0.38,46.94 1.1,68.45l-28.13 0c0.86,-21.31 1.31,-44.12 1.31,-68.45 0,-15.26 -0.14,-29.4 -0.41,-42.34 -9.44,0 -22.4,0.55 -38.87,1.61l0.79 -21.72 103.03 0z"/>
  <path id="4" class="fil2" d="M863.07 1862.59l-0.82 22.13 -85.54 0c0.86,-20.24 1.31,-43.06 1.31,-68.45 0,-24.39 -0.44,-45.22 -1.31,-62.44l81.62 0 -1.1 22.02c-20.11,-1.06 -38.36,-1.61 -54.69,-1.61 0.65,9.33 1,20.31 1,32.97 14,0 28.99,-0.38 44.94,-1.1l0 21c-15.68,-0.65 -30.67,-1 -44.94,-1 0,13.59 0.27,26.35 0.82,38.19 18.35,0 37.91,-0.55 58.7,-1.72z"/>
  <path id="5" class="fil2" d="M1006.42 1788.14c0,15.99 -5.94,27.82 -17.84,35.47 -11.9,7.62 -26.49,11.46 -43.78,11.46 -3.16,0 -5.39,-0.07 -6.73,-0.21 0,12.59 0.38,29.2 1.1,49.85l-28.24 0c0.86,-19.35 1.31,-42.17 1.31,-68.45 0,-24.12 -0.44,-44.94 -1.31,-62.44l17.5 0c2.47,0 7.24,-0.07 14.27,-0.28 7.03,-0.2 13.11,-0.31 18.29,-0.31 12.73,0 23.47,2.88 32.25,8.64 8.78,5.76 13.18,14.51 13.18,26.25zm-25.94 5.52c0,-14.34 -9.5,-21.51 -28.55,-21.51 -4.73,0 -9.78,0.48 -15.06,1.51 0.72,12.66 1.1,27 1.1,43.02 1.68,0.11 3.6,0.17 5.83,0.17 24.46,0 36.68,-7.72 36.68,-23.19z"/>
  <path id="6" class="fil2" d="M1166.78 1864.2c0,3.36 -0.93,12.8 -2.81,28.34 -1.89,15.57 -2.81,26.86 -2.81,33.9l-20 0c0,-8.51 -0.1,-22.68 -0.31,-42.51 -11.05,-0.69 -25.29,-1.03 -42.72,-1.03 -14.68,0 -27.79,0.34 -39.39,1.03 -3.64,20.21 -5.46,34.38 -5.46,42.51l-19.18 0c0,-6.52 -0.14,-16.95 -0.35,-31.33 -0.24,-14.38 -0.38,-24.67 -0.38,-30.91l12.28 0c13,-37.64 27.93,-74.45 44.81,-110.37l57.19 0c-0.79,19.32 -1.2,39.14 -1.2,59.52 0,18.36 0.55,35.31 1.61,50.85l18.7 0zm-45.05 0c-0.72,-11.6 -1.1,-27.14 -1.1,-46.63 0,-17.7 -0.17,-32.29 -0.48,-43.81l-16.61 0c-16.13,36.99 -27.76,67.14 -34.86,90.44l53.04 0z"/>
  <path id="7" class="fil2" d="M1323.2 1884.72l-32.15 0c0,-4.43 -3.05,-16.95 -9.16,-37.6l-46.42 0c-6.31,20.31 -9.47,32.83 -9.47,37.6l-30.26 0c0,-2.61 7.82,-24.05 23.47,-64.33 15.64,-40.28 23.47,-62.44 23.47,-66.56l38.01 0c0,3.84 7.07,25.7 21.24,65.6 14.2,39.9 21.27,61.65 21.27,65.29zm-46.42 -56.78c-11.46,-34.58 -17.19,-53.28 -17.19,-56.1l-1.61 0c0,2.61 -5.94,21.31 -17.81,56.1l36.61 0z"/>
  <path id="8" class="fil2" d="M1515.51 1884.72l-29.23 0c0,-11.39 -0.72,-30.6 -2.13,-57.64 -1.41,-27.04 -2.13,-43.92 -2.2,-50.61l-1.51 0c-0.69,4.01 -2.47,11.46 -5.35,22.3 -2.85,10.88 -8.27,26.87 -16.23,48 -7.93,21.13 -11.91,33.79 -11.91,37.94l-22.2 0c0,-4.29 -3.81,-17.05 -11.43,-38.29 -7.62,-21.24 -12.59,-36.13 -14.93,-44.64 -2.33,-8.51 -4.22,-16.95 -5.63,-25.32l-1.51 0c-0.07,8.37 -0.89,26.31 -2.47,53.87 -1.58,27.55 -2.33,45.67 -2.33,54.38l-26.56 0c0,-2.02 2.44,-22.16 7.27,-60.42 4.87,-38.26 7.31,-61.76 7.31,-70.47l38.91 0c0,7.51 4.08,24.08 12.32,49.68 8.2,25.59 12.28,41.96 12.28,49.13l1.51 0c0,-7.24 4.7,-23.64 14.03,-49.24 9.37,-25.59 14.03,-42.13 14.03,-49.57l38.6 0c0,13.89 1.54,38.63 4.66,74.25 3.12,35.61 4.67,54.48 4.67,56.64z"/>
  <path class="fil2" d="M160.53 175.26l-30.16 0c0,-11.75 -0.74,-31.57 -2.19,-59.47 -1.45,-27.9 -2.19,-45.31 -2.26,-52.21l-1.56 0c-0.71,4.14 -2.55,11.82 -5.52,23.01 -2.94,11.22 -8.53,27.72 -16.74,49.52 -8.18,21.81 -12.28,34.87 -12.28,39.15l-22.9 0c0,-4.43 -3.93,-17.59 -11.79,-39.5 -7.86,-21.91 -12.99,-37.28 -15.4,-46.06 -2.41,-8.78 -4.35,-17.49 -5.81,-26.12l-1.56 0c-0.07,8.64 -0.92,27.15 -2.55,55.58 -1.63,28.42 -2.41,47.12 -2.41,56.11l-27.4 0c0,-2.09 2.51,-22.87 7.5,-62.34 5.03,-39.47 7.54,-63.72 7.54,-72.71l40.14 0c0,7.75 4.21,24.85 12.71,51.26 8.46,26.41 12.67,43.29 12.67,50.69l1.56 0c0,-7.47 4.85,-24.39 14.48,-50.8 9.66,-26.41 14.48,-43.47 14.48,-51.15l39.82 0c0,14.34 1.6,39.86 4.81,76.6 3.22,36.75 4.81,56.21 4.81,58.44z"/>
  <path id="1" class="fil2" d="M344.29 105.24c0,21.24 -6.48,38.83 -19.51,52.81 -12.99,13.95 -29.06,20.92 -48.21,20.92 -18.27,0 -33.52,-6.41 -45.84,-19.22 -12.32,-12.81 -18.44,-29.13 -18.44,-48.88 0,-21.24 6.48,-38.83 19.47,-52.82 13.03,-13.95 29.1,-20.92 48.25,-20.92 18.23,0 33.52,6.37 45.84,19.19 12.28,12.78 18.44,29.1 18.44,48.92zm-28.6 3.01c0,-14.44 -3.72,-26.16 -11.12,-35.15 -7.4,-8.99 -16.53,-13.49 -27.36,-13.49 -10.12,0 -18.69,4.53 -25.73,13.59 -7.04,9.06 -10.58,20.5 -10.58,34.34 0,14.37 3.71,26.09 11.15,35.11 7.43,8.99 16.53,13.52 27.33,13.52 10.09,0 18.66,-4.53 25.73,-13.63 7.05,-9.1 10.59,-20.53 10.59,-34.3z"/>
  <path id="2" class="fil2" d="M497.05 150.69l-1.74 23.82c-9.84,2.37 -19.5,3.54 -29.06,3.54 -23.72,0 -41.77,-6.55 -54.2,-19.65 -12.39,-13.1 -18.58,-29.03 -18.58,-47.75 0,-19.43 6.58,-36.35 19.75,-50.73 13.17,-14.37 31.22,-21.56 54.2,-21.56 8.43,0 16.39,0.96 23.93,2.9l-3.61 23.97c-8.18,-2.66 -15.97,-3.96 -23.43,-3.96 -14.05,0 -24.5,4.46 -31.33,13.34 -6.87,8.88 -10.27,19.68 -10.27,32.39 0,12.99 4.07,24.28 12.18,33.81 8.14,9.56 19.5,14.34 34.16,14.34 8.6,0 17.91,-1.49 28,-4.46z"/>
  <path id="3" class="fil2" d="M653.62 175.26l-32.57 0c-0.6,-1.02 -1.56,-3.4 -2.79,-7.05 -5.67,-21.84 -10.97,-35.93 -15.97,-42.23 -4.99,-6.26 -12.1,-9.42 -21.35,-9.42 -2.65,0 -4.74,0.14 -6.34,0.39 0,20 0.39,39.43 1.13,58.3l-29.24 0c0.88,-20.88 1.34,-44.42 1.34,-70.62 0,-25.17 -0.46,-46.66 -1.34,-64.42l29.24 0c-0.74,20.5 -1.13,39.11 -1.13,55.93 2.83,0.14 4.92,0.21 6.34,0.21 18.94,0 31.36,-16.57 37.31,-49.7 0.42,-2.41 1.24,-4.57 2.51,-6.44l28 0c-0.92,2.16 -2.3,5.95 -4.18,11.33 -4.57,16.18 -9.45,27.97 -14.66,35.36 -5.24,7.4 -12.25,12.95 -21.1,16.71l0 1.13c9.17,2.98 16.25,7.9 21.2,14.83 4.92,6.9 11.29,21.66 19.01,44.28 0.99,2.9 2.51,6.69 4.57,11.4z"/>
  <path id="4" class="fil2" d="M829.28 105.24c0,21.24 -6.48,38.83 -19.51,52.81 -12.99,13.95 -29.06,20.92 -48.21,20.92 -18.27,0 -33.52,-6.41 -45.84,-19.22 -12.32,-12.81 -18.44,-29.13 -18.44,-48.88 0,-21.24 6.48,-38.83 19.47,-52.82 13.03,-13.95 29.1,-20.92 48.25,-20.92 18.23,0 33.52,6.37 45.84,19.19 12.28,12.78 18.44,29.1 18.44,48.92zm-28.6 3.01c0,-14.44 -3.72,-26.16 -11.12,-35.15 -7.4,-8.99 -16.53,-13.49 -27.36,-13.49 -10.12,0 -18.69,4.53 -25.73,13.59 -7.04,9.06 -10.58,20.5 -10.58,34.34 0,14.37 3.71,26.09 11.15,35.11 7.43,8.99 16.53,13.52 27.33,13.52 10.09,0 18.66,-4.53 25.73,-13.63 7.05,-9.1 10.59,-20.53 10.59,-34.3z"/>
  <path id="5" class="fil2" d="M987.31 134.62c0,27.5 -22.48,41.27 -67.51,41.27 -7.82,0 -19.96,-0.21 -36.49,-0.64 0.88,-20.88 1.34,-44.42 1.34,-70.62 0,-25.17 -0.46,-46.66 -1.34,-64.42l16.81 0c3.15,0 8.5,-0.07 16,-0.28 7.5,-0.21 13.38,-0.32 17.59,-0.32 30.62,0 45.95,9.95 45.95,29.88 0,15.33 -7.86,25.49 -23.54,30.48l0 1.56c8.35,1.31 15.64,4.56 21.88,9.8 6.2,5.2 9.31,12.99 9.31,23.29zm-28 1.13c0,-13.77 -12.04,-20.64 -36.18,-20.64 -4.78,0 -8.88,0.18 -12.36,0.5 0,14.48 0.32,27.79 0.96,39.93 2.34,0.57 5.88,0.85 10.55,0.85 12.81,0 22.16,-1.56 28.11,-4.64 5.95,-3.08 8.92,-8.39 8.92,-16zm-7.57 -58.09c0,-12.36 -7.72,-18.55 -23.22,-18.55 -7.12,0 -13.45,0.49 -18.98,1.56 0.78,6.97 1.13,18.98 1.13,35.96 2.65,0.14 5.41,0.21 8.32,0.21 21.84,0 32.74,-6.41 32.74,-19.19z"/>
  <path id="6" class="fil2" d="M1137.97 150.69l-1.74 23.82c-9.84,2.37 -19.5,3.54 -29.06,3.54 -23.72,0 -41.77,-6.55 -54.2,-19.65 -12.39,-13.1 -18.58,-29.03 -18.58,-47.75 0,-19.43 6.58,-36.35 19.75,-50.73 13.17,-14.37 31.22,-21.56 54.2,-21.56 8.43,0 16.39,0.96 23.93,2.9l-3.61 23.97c-8.18,-2.66 -15.97,-3.96 -23.43,-3.96 -14.05,0 -24.5,4.46 -31.33,13.34 -6.87,8.88 -10.27,19.68 -10.27,32.39 0,12.99 4.07,24.28 12.18,33.81 8.14,9.56 19.5,14.34 34.16,14.34 8.6,0 17.91,-1.49 28,-4.46z"/>
  <path id="7" class="fil2" d="M1294.54 175.26l-32.57 0c-0.6,-1.02 -1.56,-3.4 -2.79,-7.05 -5.67,-21.84 -10.97,-35.93 -15.97,-42.23 -4.99,-6.26 -12.1,-9.42 -21.35,-9.42 -2.65,0 -4.74,0.14 -6.34,0.39 0,20 0.39,39.43 1.13,58.3l-29.24 0c0.88,-20.88 1.34,-44.42 1.34,-70.62 0,-25.17 -0.46,-46.66 -1.34,-64.42l29.24 0c-0.74,20.5 -1.13,39.11 -1.13,55.93 2.83,0.14 4.92,0.21 6.34,0.21 18.94,0 31.36,-16.57 37.31,-49.7 0.42,-2.41 1.24,-4.57 2.51,-6.44l28 0c-0.92,2.16 -2.3,5.95 -4.18,11.33 -4.57,16.18 -9.45,27.97 -14.66,35.36 -5.24,7.4 -12.25,12.95 -21.1,16.71l0 1.13c9.17,2.98 16.25,7.9 21.2,14.83 4.92,6.9 11.29,21.66 19.01,44.28 0.99,2.9 2.51,6.69 4.57,11.4z"/>
  <path id="8" class="fil2" d="M1459.3 175.26l-29.35 0c0.99,-11.4 1.45,-28.67 1.45,-51.75 0,-9.35 0.39,-22.51 1.17,-39.5l-1.56 0c-2.44,6.23 -14.12,21.7 -35.08,46.44 -18.94,22.55 -28.39,37.49 -28.39,44.82l-22.41 0c1.17,-18.34 1.77,-39.68 1.77,-64.11 0,-24.81 -0.6,-48.46 -1.77,-70.94l29.24 0c-0.96,17.59 -1.45,36.57 -1.45,56.96 0,9.13 -0.5,20.53 -1.45,34.23l1.56 0c2.9,-6.86 14.83,-22.51 35.79,-46.97 18.58,-21.81 27.89,-36.53 27.89,-44.21l22.58 0c-1.03,22.48 -1.52,46.12 -1.52,70.94 0,24.43 0.49,45.77 1.52,64.11z"/>
  <path id="9" class="fil2" d="M1634.42 175.26l-29.35 0c0.99,-11.4 1.45,-28.67 1.45,-51.75 0,-9.35 0.39,-22.51 1.17,-39.5l-1.56 0c-2.44,6.23 -14.12,21.7 -35.08,46.44 -18.94,22.55 -28.39,37.49 -28.39,44.82l-22.41 0c1.17,-18.34 1.77,-39.68 1.77,-64.11 0,-24.81 -0.6,-48.46 -1.77,-70.94l29.24 0c-0.96,17.59 -1.45,36.57 -1.45,56.96 0,9.13 -0.5,20.53 -1.45,34.23l1.56 0c2.9,-6.86 14.83,-22.51 35.79,-46.97 18.58,-21.81 27.89,-36.53 27.89,-44.21l22.58 0c-1.03,22.48 -1.52,46.12 -1.52,70.94 0,24.43 0.49,45.77 1.52,64.11zm-17.21 -172.57c0,21.35 -12.28,32.04 -36.81,32.04 -13.17,0 -22.9,-3.36 -29.27,-10.16 -5.24,-5.59 -7.86,-12.89 -7.86,-21.88l23.01 -2.69c0,13.2 4.74,19.79 14.23,19.79 6.26,0 10.3,-1.66 12.07,-5.06 1.77,-3.4 2.66,-8.32 2.66,-14.72l21.98 2.69z"/>
  <path class="fil3" d="M1184.56 815.37c227.88,0 423.25,-139.35 505.6,-337.45 -88.35,-61.18 -195.55,-97.05 -311.13,-97.05 -227.88,0 -423.25,139.36 -505.6,337.46 88.36,61.18 195.55,97.05 311.13,97.05zm0 -41.05c198.68,0 370.64,-114.52 453.53,-281.13 -75.8,-45.24 -164.39,-71.28 -259.06,-71.28 -198.68,0 -370.64,114.53 -453.53,281.14 75.8,45.24 164.39,71.27 259.06,71.27z"/>
  <path class="fil3" d="M912.03 719.68c-3.36,-0.86 -7.57,-17.19 -10.9,-18.13 34.45,-173.68 158.1,-322.68 340.5,-372.34 37.34,-10.17 74.86,-15.65 111.93,-16.79 49.2,-1.53 101.9,-1.02 148.47,-29.06 0.92,13.98 -2.53,36.98 -7.31,58.68 -5.42,24.6 -12.8,48.65 -21.98,71.93l38.07 8.02c13.91,-36.2 23.91,-74.04 29.62,-112.87 8.89,-60.51 8.27,-80.73 4.47,-107.28 -72.17,71.46 -131.65,68.8 -199.2,71.76 -37.9,1.66 -76.21,7.52 -114.33,17.9 -208,56.64 -349.04,238.59 -376.32,439.6l56.98 -11.44z"/>
  <path class="fil3" d="M1569.82 627.68c23.77,18.46 46.03,39.04 66.43,61.59 40.1,44.33 50.58,61.09 61.91,84.73 -97.46,-18.86 -144.34,15.62 -200.83,49.9 -31.69,19.23 -65.98,35.27 -102.6,47.55 -195.82,65.64 -406.53,5.87 -539.88,-140.47l46.57 -11.64 -1.81 2.1c122.33,122.39 307.8,172.55 482.97,113.82 35.87,-12.03 69.32,-27.96 100.06,-47.16 40.79,-25.48 83.34,-54.53 136.4,-57.05 -6.85,-11.85 -22.14,-28.67 -37.82,-43.71 -12.69,-12.18 -26.05,-23.58 -39.97,-34.17l28.56 -25.5z"/>
 </g>
</svg>
