<?xml version="1.0" encoding="UTF-8"?>
<!DOCTYPE svg PUBLIC "-//W3C//DTD SVG 1.1//EN" "http://www.w3.org/Graphics/SVG/1.1/DTD/svg11.dtd">
<!-- Creator: CorelDRAW 2020 (64-Bit) -->
<svg xmlns="http://www.w3.org/2000/svg" xml:space="preserve" width="90.464mm" height="26.1498mm" version="1.1" style="shape-rendering:geometricPrecision; text-rendering:geometricPrecision; image-rendering:optimizeQuality; fill-rule:evenodd; clip-rule:evenodd"
viewBox="0 0 7648.69 2210.95"
 xmlns:xlink="http://www.w3.org/1999/xlink"
 xmlns:xodm="http://www.corel.com/coreldraw/odm/2003">
 <defs>
  <style type="text/css">
   <![CDATA[
    .fil0 {fill:#FFED00}
    .fil3 {fill:#E31E24}
    .fil4 {fill:#00A0E3}
    .fil2 {fill:#009846}
    .fil1 {fill:#FEFEFE;fill-rule:nonzero}
   ]]>
  </style>
 </defs>
 <g id="Layer_x0020_1">
  <metadata id="CorelCorpID_0Corel-Layer"/>
  <path class="fil0" d="M717.07 0c396.02,0 717.07,321.04 717.07,717.07 0,396.02 -321.04,717.07 -717.07,717.07 -396.02,0 -717.07,-321.04 -717.07,-717.07 0,-396.02 321.04,-717.07 717.07,-717.07zm0 44.82c371.27,0 672.25,300.97 672.25,672.25 0,371.28 -300.98,672.25 -672.25,672.25 -371.27,0 -672.25,-300.96 -672.25,-672.25 0,-371.27 300.97,-672.25 672.25,-672.25z"/>
  <path class="fil1" d="M910.99 490.38l-87.96 77.54c-30.81,-42.82 -62.2,-64.23 -94.18,-64.23 -15.62,0 -28.35,4.19 -38.19,12.44 -9.98,8.4 -14.9,17.8 -14.9,28.21 0,10.42 3.47,20.39 10.56,29.65 9.69,12.45 38.77,39.06 87.23,80 45.28,37.9 72.77,61.77 82.46,71.61 24.01,24.31 41.08,47.46 51.21,69.58 9.99,22.28 15.05,46.44 15.05,72.63 0,51.21 -17.65,93.31 -53.1,126.72 -35.3,33.27 -81.45,49.91 -138.44,49.91 -44.41,0 -83.04,-10.85 -116.02,-32.55 -32.98,-21.84 -61.34,-55.98 -84.78,-102.57l99.96 -60.18c30.09,54.97 64.66,82.46 103.73,82.46 20.4,0 37.62,-5.93 51.5,-17.79 13.89,-11.86 20.83,-25.61 20.83,-41.09 0,-14.03 -5.21,-28.21 -15.77,-42.38 -10.42,-14.04 -33.56,-35.73 -69.3,-64.81 -67.99,-55.26 -111.83,-97.94 -131.64,-128.03 -19.82,-30.08 -29.8,-60.03 -29.8,-89.98 0,-43.26 16.49,-80.29 49.33,-111.1 32.98,-30.96 73.63,-46.44 121.95,-46.44 31.11,0 60.76,7.24 88.82,21.56 28.21,14.47 58.59,40.65 91.43,78.84z"/>
  <path class="fil1" d="M2120.39 405.6l126 0c68.14,0 117.18,6.22 147.27,18.8 30.09,12.59 53.96,32.98 71.32,61.05 17.37,28.06 26.04,61.77 26.04,101.12 0,43.54 -11.42,79.7 -34.28,108.49 -22.71,28.79 -53.67,48.9 -92.87,60.18 -23.01,6.51 -64.82,9.69 -125.43,9.69l0 263.87 -118.05 0 0 -623.22zm118.05 243.91l38.05 0c29.95,0 50.64,-2.17 62.36,-6.37 11.71,-4.35 20.82,-11.29 27.63,-21.12 6.65,-9.84 9.98,-21.7 9.98,-35.73 0,-24.16 -9.4,-41.81 -28.21,-52.81 -13.6,-8.24 -39.06,-12.44 -76.09,-12.44l-33.71 0 0 128.46z"/>
  <path class="fil1" d="M4622 1166.79c88.1,0 163.9,31.98 227.26,95.77 63.51,63.8 95.19,141.63 95.19,233.34 0,91 -31.25,167.96 -93.89,230.89 -62.49,62.93 -138.44,94.47 -227.7,94.47 -93.6,0 -171.28,-32.41 -233.05,-97.07 -61.92,-64.66 -92.88,-141.49 -92.88,-230.45 0,-59.46 14.47,-114.29 43.26,-164.34 28.79,-49.91 68.43,-89.55 118.78,-118.77 50.48,-29.23 104.88,-43.84 163.04,-43.84zm-1.74 116.31c-57.43,0 -105.75,20.11 -144.81,60.17 -39.21,40.08 -58.74,91 -58.74,152.92 0,68.86 24.6,123.4 73.93,163.47 38.33,31.39 82.17,47.02 131.79,47.02 55.98,0 103.73,-20.4 143.07,-61.05 39.49,-40.65 59.17,-90.7 59.17,-150.3 0,-59.31 -19.82,-109.51 -59.61,-150.59 -39.64,-41.09 -87.96,-61.63 -144.81,-61.63z"/>
  <path class="fil1" d="M5217.48 405.6l126 0c68.86,0 118.05,6.08 147.27,18.37 29.36,12.29 52.8,32.84 70.6,61.34 17.79,28.49 26.76,62.2 26.76,101.27 0,40.94 -9.84,75.22 -29.36,102.71 -19.67,27.63 -49.19,48.46 -88.68,62.49l147.12 277.04 -129.62 0 -140.03 -263.87 -12.01 0 0 263.87 -118.05 0 0 -623.22zm118.05 243.91l37.61 0c38.19,0 64.38,-4.92 78.84,-14.91 14.32,-9.98 21.56,-26.47 21.56,-49.61 0,-13.6 -3.62,-25.47 -10.7,-35.6 -7.09,-10.12 -16.64,-17.36 -28.65,-21.7 -11.86,-4.48 -33.85,-6.65 -65.82,-6.65l-32.84 0 0 128.46z"/>
  <polygon class="fil1" points="6764.91,405.6 7109.5,405.6 7109.5,522.78 6995.79,522.78 6995.79,1028.82 6875.14,1028.82 6875.14,522.78 6764.91,522.78 "/>
  <polygon class="fil1" points="1382.77,1182.42 1500.82,1182.42 1500.82,1692.79 1675.29,1692.79 1675.29,1805.63 1382.77,1805.63 "/>
  <path class="fil1" d="M3845.18 389.98c88.1,0 163.9,31.98 227.26,95.77 63.51,63.8 95.19,141.63 95.19,233.34 0,91 -31.25,167.96 -93.89,230.89 -62.49,62.93 -138.44,94.47 -227.7,94.47 -93.6,0 -171.28,-32.41 -233.05,-97.07 -61.92,-64.66 -92.88,-141.49 -92.88,-230.45 0,-59.46 14.47,-114.29 43.26,-164.34 28.79,-49.91 68.43,-89.55 118.78,-118.77 50.48,-29.23 104.88,-43.84 163.04,-43.84zm-1.74 116.31c-57.43,0 -105.75,20.11 -144.81,60.17 -39.21,40.08 -58.74,91 -58.74,152.92 0,68.86 24.6,123.4 73.93,163.47 38.33,31.39 82.17,47.02 131.79,47.02 55.98,0 103.73,-20.4 143.07,-61.05 39.49,-40.65 59.17,-90.7 59.17,-150.3 0,-59.31 -19.82,-109.51 -59.61,-150.59 -39.64,-41.09 -87.96,-61.63 -144.81,-61.63z"/>
  <path class="fil1" d="M3068.36 1166.79c88.1,0 163.9,31.98 227.26,95.77 63.51,63.8 95.19,141.63 95.19,233.34 0,91 -31.25,167.96 -93.89,230.89 -62.49,62.93 -138.44,94.47 -227.7,94.47 -93.6,0 -171.28,-32.41 -233.05,-97.07 -61.92,-64.66 -92.88,-141.49 -92.88,-230.45 0,-59.46 14.47,-114.29 43.26,-164.34 28.79,-49.91 68.43,-89.55 118.78,-118.77 50.48,-29.23 104.88,-43.84 163.04,-43.84zm-1.74 116.31c-57.43,0 -105.75,20.11 -144.81,60.17 -39.21,40.08 -58.74,91 -58.74,152.92 0,68.86 24.6,123.4 73.93,163.47 38.33,31.39 82.17,47.02 131.79,47.02 55.98,0 103.73,-20.4 143.07,-61.05 39.49,-40.65 59.17,-90.7 59.17,-150.3 0,-59.31 -19.82,-109.51 -59.61,-150.59 -39.64,-41.09 -87.96,-61.63 -144.81,-61.63z"/>
  <polygon class="fil1" points="5964.29,1182.42 6084.07,1182.42 6084.07,1397.97 6252.75,1182.42 6395.82,1182.42 6178.1,1460.61 6416.94,1805.63 6276.18,1805.63 6084.07,1528.02 6084.07,1805.63 5964.29,1805.63 "/>
  <path class="fil2" d="M1493.89 776.82c396.02,0 717.07,321.03 717.07,717.07 0,396.02 -321.04,717.07 -717.07,717.07 -396.02,0 -717.07,-321.04 -717.07,-717.07 0,-396.03 321.04,-717.07 717.07,-717.07zm0 44.81c371.27,0 672.25,300.97 672.25,672.25 0,371.27 -300.98,672.25 -672.25,672.25 -371.27,0 -672.25,-300.97 -672.25,-672.25 0,-371.28 300.98,-672.25 672.25,-672.25z"/>
  <path class="fil3" d="M2270.71 0c396.02,0 717.07,321.04 717.07,717.07 0,396.02 -321.04,717.07 -717.07,717.07 -396.02,0 -717.07,-321.04 -717.07,-717.07 0,-396.02 321.04,-717.07 717.07,-717.07zm0 44.82c371.27,0 672.25,300.97 672.25,672.25 0,371.28 -300.98,672.25 -672.25,672.25 -371.27,0 -672.25,-300.96 -672.25,-672.25 0,-371.27 300.97,-672.25 672.25,-672.25z"/>
  <path class="fil4" d="M3047.53 776.82c396.02,0 717.07,321.03 717.07,717.07 0,396.02 -321.04,717.07 -717.07,717.07 -396.03,0 -717.07,-321.04 -717.07,-717.07 0,-396.03 321.03,-717.07 717.07,-717.07zm0 44.81c371.27,0 672.25,300.97 672.25,672.25 0,371.27 -300.98,672.25 -672.25,672.25 -371.27,0 -672.25,-300.97 -672.25,-672.25 0,-371.28 300.98,-672.25 672.25,-672.25z"/>
  <path class="fil0" d="M3824.35 0c396.02,0 717.07,321.04 717.07,717.07 0,396.02 -321.04,717.07 -717.07,717.07 -396.02,0 -717.07,-321.04 -717.07,-717.07 0,-396.02 321.04,-717.07 717.07,-717.07zm0 44.82c371.27,0 672.25,300.97 672.25,672.25 0,371.28 -300.98,672.25 -672.25,672.25 -371.27,0 -672.25,-300.96 -672.25,-672.25 0,-371.27 300.97,-672.25 672.25,-672.25z"/>
  <path class="fil2" d="M4601.17 776.82c396.02,0 717.07,321.03 717.07,717.07 0,396.02 -321.04,717.07 -717.07,717.07 -396.03,0 -717.07,-321.04 -717.07,-717.07 0,-396.03 321.03,-717.07 717.07,-717.07zm0 44.81c371.27,0 672.25,300.97 672.25,672.25 0,371.27 -300.98,672.25 -672.25,672.25 -371.27,0 -672.25,-300.97 -672.25,-672.25 0,-371.28 300.98,-672.25 672.25,-672.25z"/>
  <path class="fil3" d="M5377.99 0c396.02,0 717.07,321.04 717.07,717.07 0,396.02 -321.04,717.07 -717.07,717.07 -396.02,0 -717.07,-321.04 -717.07,-717.07 0,-396.02 321.04,-717.07 717.07,-717.07zm0 44.82c371.27,0 672.25,300.97 672.25,672.25 0,371.28 -300.98,672.25 -672.25,672.25 -371.27,0 -672.25,-300.96 -672.25,-672.25 0,-371.27 300.97,-672.25 672.25,-672.25z"/>
  <path class="fil4" d="M6154.81 776.82c396.02,0 717.07,321.03 717.07,717.07 0,396.02 -321.04,717.07 -717.07,717.07 -396.03,0 -717.07,-321.04 -717.07,-717.07 0,-396.03 321.03,-717.07 717.07,-717.07zm0 44.81c371.27,0 672.25,300.97 672.25,672.25 0,371.27 -300.98,672.25 -672.25,672.25 -371.27,0 -672.25,-300.97 -672.25,-672.25 0,-371.28 300.98,-672.25 672.25,-672.25z"/>
  <path class="fil0" d="M6931.63 0c396.02,0 717.07,321.04 717.07,717.07 0,396.02 -321.04,717.07 -717.07,717.07 -396.02,0 -717.07,-321.04 -717.07,-717.07 0,-396.02 321.04,-717.07 717.07,-717.07zm0 44.82c371.27,0 672.25,300.97 672.25,672.25 0,371.28 -300.98,672.25 -672.25,672.25 -371.27,0 -672.25,-300.96 -672.25,-672.25 0,-371.27 300.97,-672.25 672.25,-672.25z"/>
 </g>
</svg>
