<?xml version="1.0" encoding="UTF-8"?>
<!DOCTYPE svg PUBLIC "-//W3C//DTD SVG 1.1//EN" "http://www.w3.org/Graphics/SVG/1.1/DTD/svg11.dtd">
<!-- Creator: CorelDRAW 2020 (64-Bit) -->
<svg xmlns="http://www.w3.org/2000/svg" xml:space="preserve" width="68.0309mm" height="22.0514mm" version="1.1" style="shape-rendering:geometricPrecision; text-rendering:geometricPrecision; image-rendering:optimizeQuality; fill-rule:evenodd; clip-rule:evenodd"
viewBox="0 0 6625.82 2147.68"
 xmlns:xlink="http://www.w3.org/1999/xlink"
 xmlns:xodm="http://www.corel.com/coreldraw/odm/2003">
 <defs>
  <style type="text/css">
   <![CDATA[
    .fil1 {fill:#7690C9}
    .fil0 {fill:white}
    .fil2 {fill:white;fill-rule:nonzero}
   ]]>
  </style>
 </defs>
 <g id="Layer_x0020_1">
  <metadata id="CorelCorpID_0Corel-Layer"/>
  <polygon class="fil0" points="300.86,288.29 300.86,2098.11 -0,2098.11 -0,0 "/>
  <polygon class="fil0" points="1888.75,49.57 2189.6,49.57 2189.6,2147.68 1888.75,1859.39 "/>
  <path class="fil1" d="M684.2 70.77l0 0c449.8,0 814.43,364.63 814.43,814.43 0,324.61 -189.92,604.82 -464.68,735.69l477.23 477.22 -432.69 0 -394.29 -394.29 0 -282.74 0 0c295.95,0 535.87,-239.92 535.87,-535.88 0,-295.95 -239.92,-535.87 -535.87,-535.87l0 0 0 -278.56z"/>
  <polygon class="fil2" points="2672.88,263.47 2742.49,263.47 2909.48,731.37 2896.45,742.26 2896.45,263.47 2972.5,263.47 2972.5,873.17 2902.04,873.17 2735.75,420.01 2748.79,409.12 2748.79,873.17 2672.88,873.17 "/>
  <path id="1" class="fil2" d="M3160.62 263.47l79.78 0 0 610.13 -79.78 0 0 -610.13zm41.53 534.65l220.28 0 0 75.48 -220.28 0 0 -75.48zm0 -265.24l199.37 0 0 75.47 -199.37 0 0 -75.47zm0 -269.4l220.28 0 0 75.62 -220.28 0 0 -75.62z"/>
  <polygon id="2" class="fil2" points="3760.79,263.47 3818.8,263.47 3895.14,734.67 3947.99,263.47 4027.76,263.47 3943.83,873.6 3856.89,873.6 3792.3,459.4 3722.69,873.6 3635.76,873.6 3551.82,263.47 3631.6,263.47 3684.46,734.67 "/>
  <path id="3" class="fil2" d="M2710.26 1571.38l112.43 0c14.18,0 26.49,-2.73 36.66,-8.03 10.31,-5.3 18.05,-13.03 23.35,-23.05 5.3,-10.03 7.88,-22.21 7.88,-36.52l0 -62.02c0,-15.17 -2.58,-28.07 -7.88,-38.81 -5.3,-10.88 -13.03,-19.05 -23.35,-24.63 -10.17,-5.59 -22.48,-8.31 -36.66,-8.31l-112.43 0 0 -75.63 105.26 0c32.52,0 60.3,5.44 83.51,16.19 23.2,10.74 40.95,26.64 53.13,47.41 12.17,20.91 18.19,45.82 18.19,74.91l0 71.32c0,29.93 -6.02,55.57 -18.19,77.06 -12.17,21.34 -29.93,37.66 -53.13,48.83 -23.21,11.17 -50.99,16.76 -83.51,16.76l-105.26 0 0 -75.48zm-37.38 -277l79.78 0 0 610.56 -79.78 0 0 -610.56zm142.22 333.58l75.2 -19.2 97.25 296.19 -87.23 0 -85.22 -276.99z"/>
  <path id="4" class="fil2" d="M3165.21 1294.82l79.78 0 0 610.13 -79.78 0 0 -610.13zm41.53 534.65l220.28 0 0 75.48 -220.28 0 0 -75.48zm0 -265.24l199.37 0 0 75.47 -199.37 0 0 -75.47zm0 -269.4l220.28 0 0 75.62 -220.28 0 0 -75.62z"/>
  <path id="5" class="fil2" d="M3738.6 1911.25c-31.94,0 -58.87,-5.58 -81.06,-16.62 -22.06,-11.03 -38.82,-27.21 -50.27,-48.7 -11.46,-21.34 -17.19,-47.4 -17.19,-78.2l0 -30.22 79.64 0 0 27.21c0,22.21 6.01,39.1 17.9,50.99 11.88,11.89 28.79,17.91 50.99,17.91 21.49,0 37.95,-5.87 49.41,-17.62 11.6,-11.75 17.34,-28.79 17.34,-51.28l0 -53.27c0,-14.76 -3.73,-27.36 -11.03,-37.67 -7.16,-10.45 -16.32,-18.9 -27.21,-25.49 -10.88,-6.45 -26.06,-14.18 -45.26,-22.77 -0.57,-0.29 -1.14,-0.57 -1.71,-0.72 -0.57,-0.15 -1.15,-0.28 -1.72,-0.57l-5.87 -2.57c-25.78,-11.75 -46.83,-23.21 -63.16,-34.38 -16.32,-11.17 -30.22,-26.64 -41.68,-46.54 -11.45,-19.91 -17.19,-44.98 -17.19,-75.48l0 -35.23c0,-30.22 5.59,-56 16.91,-77.06 11.31,-21.06 28.07,-37.1 50.13,-47.98 22.2,-11.03 48.98,-16.47 80.63,-16.47 30.79,0 56.86,5.58 78.2,16.61 21.49,11.03 37.66,27.21 48.7,48.7 11.03,21.34 16.62,47.27 16.62,77.77l0 31.95 -79.78 0 0 -28.51c0,-22.34 -5.44,-39.52 -16.33,-51.27 -10.88,-11.75 -26.78,-17.62 -47.4,-17.62 -22.06,0 -38.96,5.58 -50.56,16.75 -11.6,11.32 -17.47,27.21 -17.47,47.84l0 38.24c0,15.33 3.72,28.36 10.88,38.82 7.3,10.45 16.47,18.9 27.36,25.35 10.89,6.44 25.93,13.89 44.83,22.34 2.01,0.71 3.87,1.57 5.44,2.43 1.71,0.86 3.57,1.71 5.43,2.57 1.43,0.57 3.01,1.15 4.44,1.86 1.58,0.72 3.01,1.3 4.44,1.87 24.35,10.88 43.97,21.34 58.72,31.21 14.9,10.03 27.5,24.35 37.82,43.12 10.3,18.76 15.47,43.11 15.47,73.33l0 55.86c0,30.8 -5.59,56.86 -16.9,78.2 -11.46,21.49 -27.93,37.67 -49.85,48.7 -21.77,11.03 -48.27,16.62 -79.63,16.62z"/>
  <path id="6" class="fil2" d="M4203.71 1911.25c-31.94,0 -59.29,-6.02 -81.92,-18.05 -22.63,-12.03 -39.96,-29.5 -51.85,-52.42 -11.88,-22.92 -17.75,-50.56 -17.75,-82.64l0 -316.39c0,-32.51 5.87,-60.15 17.75,-83.07 11.89,-23.05 29.22,-40.39 51.85,-52.27 22.62,-11.89 49.98,-17.9 81.92,-17.9 31.8,0 59.16,6.01 81.78,17.9 22.62,11.88 39.96,29.22 51.84,52.27 11.89,22.92 17.76,50.56 17.76,83.07l0 316.39c0,32.08 -5.87,59.72 -17.76,82.64 -11.88,22.92 -29.22,40.39 -51.84,52.42 -22.62,12.03 -49.98,18.05 -81.78,18.05zm0 -77.62c15.04,0 27.93,-2.86 38.81,-8.6 10.74,-5.73 18.9,-14.03 24.49,-24.91 5.58,-11.03 8.45,-24.07 8.45,-39.53l0 -321.39c0,-15.33 -2.87,-28.51 -8.45,-39.39 -5.59,-11.03 -13.75,-19.34 -24.49,-25.07 -10.88,-5.73 -23.77,-8.59 -38.81,-8.59 -15.18,0 -28.07,2.86 -38.81,8.59 -10.89,5.73 -19.05,14.03 -24.63,25.07 -5.59,10.88 -8.31,24.06 -8.31,39.39l0 321.39c0,15.47 2.72,28.5 8.31,39.53 5.58,10.88 13.74,19.19 24.63,24.91 10.74,5.74 23.63,8.6 38.81,8.6z"/>
  <path id="7" class="fil2" d="M4660.67 1911.25c-29.65,0 -54.72,-5.58 -75.48,-16.62 -20.63,-11.03 -36.38,-27.21 -46.97,-48.7 -10.61,-21.34 -15.9,-47.4 -15.9,-78.2l0 -472.92 79.64 0 0 476.21c0,20.2 5.01,35.67 15.17,46.41 10.03,10.74 24.64,16.19 43.54,16.19 19.33,0 34.09,-5.44 44.39,-16.19 10.18,-10.74 15.18,-26.21 15.18,-46.41l0 -476.21 79.78 0 0 472.92c0,30.8 -5.3,56.86 -16.19,78.2 -10.73,21.49 -26.49,37.67 -47.12,48.7 -20.76,11.03 -46.12,16.62 -76.05,16.62z"/>
  <path id="8" class="fil2" d="M5012.92 1571.38l112.43 0c14.18,0 26.49,-2.73 36.66,-8.03 10.31,-5.3 18.05,-13.03 23.35,-23.05 5.3,-10.03 7.88,-22.21 7.88,-36.52l0 -62.02c0,-15.17 -2.58,-28.07 -7.88,-38.81 -5.3,-10.88 -13.03,-19.05 -23.35,-24.63 -10.17,-5.59 -22.48,-8.31 -36.66,-8.31l-112.43 0 0 -75.63 105.26 0c32.52,0 60.3,5.44 83.51,16.19 23.2,10.74 40.95,26.64 53.13,47.41 12.17,20.91 18.19,45.82 18.19,74.91l0 71.32c0,29.93 -6.02,55.57 -18.19,77.06 -12.17,21.34 -29.93,37.66 -53.13,48.83 -23.21,11.17 -50.99,16.76 -83.51,16.76l-105.26 0 0 -75.48zm-37.38 -277l79.78 0 0 610.56 -79.78 0 0 -610.56zm142.22 333.58l75.2 -19.2 97.25 296.19 -87.23 0 -85.22 -276.99z"/>
  <path id="9" class="fil2" d="M5592.9 1911.25c-29.65,0 -55.13,-6.16 -76.34,-18.48 -21.19,-12.32 -37.53,-30.08 -48.7,-53.42 -11.17,-23.49 -16.75,-51.41 -16.75,-84.22l0 -310.07c0,-32.95 5.58,-61.16 16.75,-84.51 11.17,-23.35 27.36,-41.25 48.55,-53.56 21.06,-12.32 46.55,-18.48 76.48,-18.48 29.94,0 55.57,6.16 76.77,18.48 21.34,12.31 37.53,30.21 48.55,53.56 11.03,23.35 16.48,51.42 16.48,84.08l0 26.06 -80.5 0 0 -26.06c0,-16.48 -2.43,-30.65 -7.16,-42.4 -4.72,-11.75 -11.75,-20.63 -20.91,-26.78 -9.31,-6.17 -20.34,-9.31 -33.23,-9.31 -12.89,0 -23.77,3.15 -32.94,9.31 -9.03,6.16 -16.04,15.04 -20.91,26.78 -4.87,11.75 -7.45,26.06 -7.45,42.82l0 310.07c0,16.47 2.58,30.65 7.45,42.4 4.87,11.75 11.88,20.76 20.91,26.78 9.16,6.16 20.05,9.31 32.94,9.31 12.9,0 23.92,-3.16 33.23,-9.31 9.16,-6.02 16.19,-15.04 20.91,-26.78 4.72,-11.75 7.16,-25.93 7.16,-42.4l0 -26.06 80.5 0 0 26.06c0,32.8 -5.44,60.73 -16.48,84.22 -11.03,23.35 -27.21,41.1 -48.55,53.42 -21.19,12.32 -46.83,18.48 -76.77,18.48z"/>
  <path id="10" class="fil2" d="M5906.06 1294.82l79.78 0 0 610.13 -79.78 0 0 -610.13zm41.53 534.65l220.28 0 0 75.48 -220.28 0 0 -75.48zm0 -265.24l199.37 0 0 75.47 -199.37 0 0 -75.47zm0 -269.4l220.28 0 0 75.62 -220.28 0 0 -75.62z"/>
  <path id="11" class="fil2" d="M6479.45 1911.25c-31.94,0 -58.87,-5.58 -81.06,-16.62 -22.06,-11.03 -38.82,-27.21 -50.27,-48.7 -11.46,-21.34 -17.19,-47.4 -17.19,-78.2l0 -30.22 79.64 0 0 27.21c0,22.21 6.01,39.1 17.9,50.99 11.88,11.89 28.79,17.91 50.99,17.91 21.49,0 37.95,-5.87 49.41,-17.62 11.6,-11.75 17.34,-28.79 17.34,-51.28l0 -53.27c0,-14.76 -3.73,-27.36 -11.03,-37.67 -7.16,-10.45 -16.32,-18.9 -27.21,-25.49 -10.88,-6.45 -26.06,-14.18 -45.26,-22.77 -0.57,-0.29 -1.14,-0.57 -1.71,-0.72 -0.57,-0.15 -1.15,-0.28 -1.72,-0.57l-5.87 -2.57c-25.78,-11.75 -46.83,-23.21 -63.16,-34.38 -16.32,-11.17 -30.22,-26.64 -41.68,-46.54 -11.45,-19.91 -17.19,-44.98 -17.19,-75.48l0 -35.23c0,-30.22 5.59,-56 16.91,-77.06 11.31,-21.06 28.07,-37.1 50.13,-47.98 22.2,-11.03 48.98,-16.47 80.63,-16.47 30.79,0 56.86,5.58 78.2,16.61 21.49,11.03 37.66,27.21 48.7,48.7 11.03,21.34 16.62,47.27 16.62,77.77l0 31.95 -79.78 0 0 -28.51c0,-22.34 -5.44,-39.52 -16.33,-51.27 -10.88,-11.75 -26.78,-17.62 -47.4,-17.62 -22.06,0 -38.96,5.58 -50.56,16.75 -11.6,11.32 -17.47,27.21 -17.47,47.84l0 38.24c0,15.33 3.72,28.36 10.88,38.82 7.3,10.45 16.47,18.9 27.36,25.35 10.89,6.44 25.93,13.89 44.83,22.34 2.01,0.71 3.87,1.57 5.44,2.43 1.71,0.86 3.57,1.71 5.43,2.57 1.43,0.57 3.01,1.15 4.44,1.86 1.58,0.72 3.01,1.3 4.44,1.87 24.35,10.88 43.97,21.34 58.72,31.21 14.9,10.03 27.5,24.35 37.82,43.12 10.3,18.76 15.47,43.11 15.47,73.33l0 55.86c0,30.8 -5.59,56.86 -16.9,78.2 -11.46,21.49 -27.93,37.67 -49.85,48.7 -21.77,11.03 -48.27,16.62 -79.63,16.62z"/>
 </g>
</svg>
