<?xml version="1.0" encoding="UTF-8"?>
<!DOCTYPE svg PUBLIC "-//W3C//DTD SVG 1.1//EN" "http://www.w3.org/Graphics/SVG/1.1/DTD/svg11.dtd">
<!-- Creator: CorelDRAW 2020 (64-Bit) -->
<svg xmlns="http://www.w3.org/2000/svg" xml:space="preserve" width="69.3577mm" height="18.3213mm" version="1.1" style="shape-rendering:geometricPrecision; text-rendering:geometricPrecision; image-rendering:optimizeQuality; fill-rule:evenodd; clip-rule:evenodd"
viewBox="0 0 5572.41 1471.99"
 xmlns:xlink="http://www.w3.org/1999/xlink"
 xmlns:xodm="http://www.corel.com/coreldraw/odm/2003">
 <defs>
  <style type="text/css">
   <![CDATA[
    .fil2 {fill:#00CCFF}
    .fil1 {fill:#6699FF}
    .fil0 {fill:white;fill-rule:nonzero}
   ]]>
  </style>
 </defs>
 <g id="Layer_x0020_1">
  <metadata id="CorelCorpID_0Corel-Layer"/>
  <path class="fil0" d="M635.49 7.79l90.03 0 277.88 753.51 -114.1 0 -208.89 -607.94 -208.72 607.94 -114.09 0 277.88 -753.51zm-149.82 487.66l396.4 0 0 100.47 -396.4 0 0 -100.47z"/>
  <path id="1" class="fil0" d="M1911.04 342.08l257.01 0c19.99,0 37.86,-4.77 53.42,-14.5 15.57,-9.73 27.6,-23.35 36.08,-41.22 8.32,-17.86 12.57,-38.2 12.57,-61.37l0 0c0,-23.17 -4.25,-43.69 -12.57,-61.38 -8.48,-17.86 -20.51,-31.66 -35.91,-41.21 -15.21,-9.73 -33.25,-14.5 -53.6,-14.5l-257.01 0 0 -100.65 252.94 0c43.51,0 81.72,9.02 114.79,27.07 32.9,17.87 58.55,43.34 76.59,76.41 18.22,32.9 27.24,71.1 27.24,114.26l0 0c0,43.16 -9.2,81.19 -27.42,114.26 -18.39,32.9 -44.04,58.37 -76.94,76.41 -33.08,17.87 -71.1,26.88 -114.26,26.88l-252.94 0 0 -100.47zm-46.17 -334.84l105.78 0 0 754.05 -105.78 0 0 -754.05zm251.35 411.96l105.24 -23.7 192.81 365.79 -125.42 0 -172.63 -342.09z"/>
  <path id="2" class="fil0" d="M3798.6 355.53l0 131.59c0,56.07 -10.79,105.25 -32.54,148.06 -21.76,42.63 -52.54,75.52 -92.51,98.88 -39.97,23.35 -86.14,35.02 -138.67,35.02 -53.24,0 -99.94,-10.97 -140.09,-32.9 -40.32,-21.93 -71.46,-52.89 -93.57,-93.05 -22.11,-40.15 -33.25,-86.49 -33.25,-139.38l0 -222.34c0,-55.89 10.97,-105.24 32.72,-147.69 21.76,-42.45 52.54,-75.35 92.51,-98.7 39.98,-23.35 86.14,-35.02 138.68,-35.02 43.15,0 82.95,9.38 119.39,27.77 36.44,18.58 66.86,44.57 91.45,78.54 24.59,33.78 41.04,73.06 49.71,117.63l0 0 -114.44 0 0 0c-6.19,-25.29 -16.81,-46.87 -31.66,-65.09 -14.86,-18.05 -32.19,-31.84 -52.36,-41.39 -19.99,-9.54 -40.69,-14.33 -62.08,-14.33 -31.13,0 -58.38,7.43 -81.9,22.29 -23.52,14.86 -41.74,35.73 -54.48,62.44 -12.73,26.88 -19.1,58.02 -19.1,93.57l0 222.34c0,32.55 6.54,60.84 19.63,85.26 13.1,24.41 31.66,43.33 55.72,56.78 24.06,13.44 51.83,20.16 83.14,20.16 31.13,0 58.37,-7.07 81.89,-21.04 23.52,-13.98 41.57,-34.31 54.48,-60.85 12.73,-26.53 19.11,-58.19 19.11,-94.8l0 -32.72 -152.83 0 0 -101 261.07 0z"/>
  <path id="3" class="fil0" d="M4945.92 769.08c-52.54,0 -98.88,-11.5 -139.03,-34.49 -39.97,-22.99 -70.93,-55.36 -93.04,-97.46 -21.93,-41.92 -32.9,-90.56 -32.9,-145.75l0 -213.5c0,-55.36 10.97,-104.01 32.9,-145.93 22.11,-41.92 53.07,-74.47 93.04,-97.46 40.16,-22.99 86.5,-34.49 139.03,-34.49 52.35,0 98.7,11.5 138.85,34.49 39.98,22.99 71.1,55.54 93.04,97.46 21.93,41.91 32.9,90.56 32.9,145.93l0 213.5c0,55.19 -10.97,103.83 -32.9,145.75 -21.93,42.1 -53.06,74.47 -93.04,97.46 -40.15,22.99 -86.5,34.49 -138.85,34.49zm0 -104.19c30.95,0 58.37,-6.89 82.07,-21.05 23.7,-13.97 41.92,-33.78 54.83,-59.43 13.09,-25.82 19.46,-55.54 19.46,-89.5l0 -220.75c0,-33.78 -6.37,-63.67 -19.46,-89.33 -12.91,-25.82 -31.13,-45.63 -54.83,-59.61 -23.7,-13.97 -51.12,-21.05 -82.07,-21.05 -31.13,0 -58.55,7.08 -82.26,21.05 -23.7,13.97 -41.91,33.78 -54.83,59.61 -13.09,25.65 -19.45,55.54 -19.45,89.33l0 220.75c0,33.96 6.36,63.68 19.45,89.5 12.92,25.65 31.13,45.46 54.83,59.43 23.7,14.16 51.12,21.05 82.26,21.05z"/>
  <rect class="fil1" x="-0" y="1155.43" width="646.53" height="219.56"/>
  <rect class="fil1" x="705.52" y="1155.43" width="646.53" height="219.56"/>
  <polygon class="fil2" points="4298.09,1145.29 5572.41,1145.29 5483.5,1471.99 4398.14,1471.99 "/>
  <rect class="fil1" x="-0" y="1426.91" width="3368.54" height="45.08"/>
 </g>
</svg>
