<?xml version="1.0" encoding="UTF-8"?>
<!DOCTYPE svg PUBLIC "-//W3C//DTD SVG 1.1//EN" "http://www.w3.org/Graphics/SVG/1.1/DTD/svg11.dtd">
<!-- Creator: CorelDRAW 2020 (64-Bit) -->
<svg xmlns="http://www.w3.org/2000/svg" xml:space="preserve" width="66.3945mm" height="28.4615mm" version="1.1" style="shape-rendering:geometricPrecision; text-rendering:geometricPrecision; image-rendering:optimizeQuality; fill-rule:evenodd; clip-rule:evenodd"
viewBox="0 0 4486.92 1923.42"
 xmlns:xlink="http://www.w3.org/1999/xlink"
 xmlns:xodm="http://www.corel.com/coreldraw/odm/2003">
 <defs>
  <style type="text/css">
   <![CDATA[
    .fil0 {fill:#00A0E3}
    .fil1 {fill:white;fill-rule:nonzero}
   ]]>
  </style>
 </defs>
 <g id="Layer_x0020_1">
  <metadata id="CorelCorpID_0Corel-Layer"/>
  <g id="_1808374645744">
   <path class="fil0" d="M3705.81 1923.42c446.01,-92.87 781.11,-488.14 781.11,-961.71 0,-473.56 -335.1,-868.83 -781.11,-961.71l0 77.62c403.8,91.55 705.28,452.6 705.28,884.1 0,431.5 -301.48,792.55 -705.28,884.09l0 77.62z"/>
   <path class="fil1" d="M409.27 546.57l384.05 823.12 -88.47 0 -128.58 -270.56 -356.73 0 -127.83 270.56 -91.71 0 388.64 -823.12 20.63 0zm-10.32 172.73l-141.58 299.59 282.59 0 -141.01 -299.59z"/>
   <path id="1" class="fil1" d="M1078.14 546.57l164.32 0c91.52,0 153.62,3.82 186.1,11.27 49.1,11.08 88.85,34.97 119.41,71.84 30.76,36.68 46.05,81.97 46.05,135.66 0,44.7 -10.51,84.07 -31.72,117.89 -21.02,34.01 -51.21,59.61 -90.57,77 -39.17,17.39 -93.43,26.17 -162.6,26.56l296.35 382.9 -101.08 0 -296.34 -382.9 -47.39 0 0 382.9 -82.54 0 0 -823.12zm82.54 80.25l0 279.72 142.15 1.15c55.22,0 95.92,-5.16 122.29,-15.67 26.37,-10.51 47,-27.13 61.9,-50.06 14.71,-22.93 22.17,-48.53 22.17,-77 0,-27.51 -7.45,-52.73 -22.54,-75.28 -14.91,-22.54 -34.59,-38.59 -59.04,-48.34 -24.26,-9.74 -64.77,-14.52 -121.33,-14.52l-145.59 0z"/>
   <path id="2" class="fil1" d="M2752.79 684.52l-63.82 60.38c-46.05,-45.09 -96.49,-79.29 -151.32,-102.6 -54.83,-23.32 -108.34,-34.97 -160.5,-34.97 -64.78,0 -126.49,15.85 -184.96,47.58 -58.66,31.72 -104.13,74.7 -136.23,129.16 -32.29,54.27 -48.34,111.59 -48.34,172.15 0,61.91 16.62,120.76 49.87,176.74 33.24,55.79 79.29,99.54 137.95,131.46 58.85,31.9 123.05,47.95 192.98,47.95 84.83,0 156.68,-23.88 215.33,-71.46 58.66,-47.58 93.44,-109.48 104.32,-185.34l-262.53 0 0 -80.24 355.39 0c-0.76,127.06 -38.59,228.13 -113.49,302.84 -75.09,74.71 -175.21,112.16 -300.93,112.16 -152.47,0 -273.22,-51.77 -362.27,-155.53 -68.4,-79.87 -102.6,-172.15 -102.6,-277.05 0,-77.76 19.68,-150.36 58.85,-217.63 39.36,-67.06 93.24,-119.6 161.64,-157.43 68.59,-37.84 145.97,-56.75 232.34,-56.75 69.93,0 135.85,12.61 197.56,37.64 61.71,25.22 122.09,65.35 180.75,120.95z"/>
   <path id="3" class="fil1" d="M3537.05 525.93c124.58,0 228.9,41.66 312.78,124.77 83.88,83.11 125.91,185.53 125.91,307.04 0,120.57 -41.85,222.79 -125.53,306.67 -83.88,83.87 -185.91,125.91 -306.47,125.91 -121.9,0 -224.89,-41.84 -308.76,-125.34 -83.88,-83.49 -125.91,-184.57 -125.91,-303.22 0,-79.1 19.1,-152.28 57.32,-219.92 38.21,-67.44 90.37,-120.37 156.48,-158.59 65.92,-38.21 137.38,-57.32 214.19,-57.32zm3.63 80.25c-60.75,0 -118.46,15.86 -173.11,47.58 -54.46,31.72 -97.06,74.32 -127.83,128.02 -30.57,53.88 -45.85,113.68 -45.85,179.8 0,97.63 33.82,180.17 101.65,247.43 67.83,67.45 149.61,101.08 245.14,101.08 64.01,0 123.05,-15.48 177.32,-46.43 54.46,-30.95 96.87,-73.36 127.25,-127.06 30.38,-53.69 45.66,-113.3 45.66,-179.03 0,-65.34 -15.29,-124.39 -45.66,-177.12 -30.38,-52.73 -73.37,-94.96 -128.59,-126.68 -55.22,-31.72 -113.88,-47.58 -175.98,-47.58z"/>
  </g>
 </g>
</svg>
