<?xml version="1.0" encoding="UTF-8"?>
<!DOCTYPE svg PUBLIC "-//W3C//DTD SVG 1.1//EN" "http://www.w3.org/Graphics/SVG/1.1/DTD/svg11.dtd">
<!-- Creator: CorelDRAW 2020 (64-Bit) -->
<svg xmlns="http://www.w3.org/2000/svg" xml:space="preserve" width="58.8556mm" height="58.8556mm" version="1.1" style="shape-rendering:geometricPrecision; text-rendering:geometricPrecision; image-rendering:optimizeQuality; fill-rule:evenodd; clip-rule:evenodd"
viewBox="0 0 1835.4 1835.4"
 xmlns:xlink="http://www.w3.org/1999/xlink"
 xmlns:xodm="http://www.corel.com/coreldraw/odm/2003">
 <defs>
  <style type="text/css">
   <![CDATA[
    .str0 {stroke:fuchsia;stroke-width:11;stroke-miterlimit:22.9256}
    .str1 {stroke:white;stroke-width:11;stroke-miterlimit:22.9256}
    .fil0 {fill:none}
    .fil3 {fill:#4D4D4D}
    .fil2 {fill:fuchsia}
    .fil1 {fill:white}
   ]]>
  </style>
 </defs>
 <g id="Layer_x0020_1">
  <metadata id="CorelCorpID_0Corel-Layer"/>
  <path class="fil0 str0" d="M81.52 81.52l1672.37 0 0 1360.52c0,171.52 -140.33,311.85 -311.85,311.85l-1360.52 0 0 -1672.37z"/>
  <rect class="fil1 str1" x="765.67" y="5.5" width="988.21" height="76.02"/>
  <rect class="fil0 str0" x="81.52" y="81.52" width="684.15" height="684.15"/>
  <rect class="fil2 str0" x="765.67" y="1069.73" width="684.15" height="76.02"/>
  <rect class="fil2 str0" x="81.52" y="1753.88" width="1368.29" height="76.02"/>
  <rect class="fil3 str0" x="81.52" y="765.66" width="684.15" height="684.15"/>
  <path class="fil0 str0" d="M1449.81 1449.81l304.07 0 0 0c0,167.24 -136.83,304.06 -304.06,304.06l-0 0 0 -304.07z"/>
  <path class="fil3 str0" d="M1449.81 1145.75l0 0c167.24,0 304.06,136.82 304.06,304.06l0 0 -304.07 0 0 -304.06z"/>
  <path class="fil2 str0" d="M1449.81 1069.73l0 76.02c167.9,0 304.07,136.16 304.07,304.06 0,167.9 -136.17,304.07 -304.07,304.07l0 76.02c209.88,0 380.08,-170.2 380.08,-380.08 0,-209.88 -170.2,-380.08 -380.08,-380.08z"/>
  <path class="fil2 str0" d="M765.67 385.58l0 76.02c-167.9,0 -304.07,136.17 -304.07,304.07 0,167.9 136.17,304.06 304.07,304.06l0 76.02c-209.88,0 -380.08,-170.21 -380.08,-380.08 0,-209.88 170.2,-380.08 380.08,-380.08z"/>
  <path class="fil1 str1" d="M765.67 5.5l0 76.02c-377.78,0 -684.15,306.37 -684.15,684.15 0,377.78 306.37,684.15 684.15,684.15l0 76.02c-419.76,0 -760.17,-340.41 -760.17,-760.16 0,-419.76 340.41,-760.17 760.17,-760.17z"/>
  <rect class="fil2 str0" x="765.67" y="385.58" width="988.21" height="76.02"/>
  <rect class="fil1 str1" x="765.67" y="1449.82" width="684.15" height="76.02"/>
 </g>
</svg>
