<?xml version="1.0" encoding="UTF-8"?>
<!DOCTYPE svg PUBLIC "-//W3C//DTD SVG 1.1//EN" "http://www.w3.org/Graphics/SVG/1.1/DTD/svg11.dtd">
<!-- Creator: CorelDRAW 2020 (64-Bit) -->
<svg xmlns="http://www.w3.org/2000/svg" xml:space="preserve" width="57.6508mm" height="65.0722mm" version="1.1" style="shape-rendering:geometricPrecision; text-rendering:geometricPrecision; image-rendering:optimizeQuality; fill-rule:evenodd; clip-rule:evenodd"
viewBox="0 0 1900.12 2144.73"
 xmlns:xlink="http://www.w3.org/1999/xlink"
 xmlns:xodm="http://www.corel.com/coreldraw/odm/2003">
 <defs>
  <style type="text/css">
   <![CDATA[
    .fil5 {fill:black}
    .fil1 {fill:blue}
    .fil2 {fill:lime}
    .fil0 {fill:red}
    .fil3 {fill:white}
    .fil4 {fill:#FEFEFE;fill-rule:nonzero}
   ]]>
  </style>
 </defs>
 <g id="Layer_x0020_1">
  <metadata id="CorelCorpID_0Corel-Layer"/>
  <circle class="fil0" cx="1758.03" cy="474.61" r="142.09"/>
  <circle class="fil1" cx="1514.29" cy="259.45" r="142.09"/>
  <circle class="fil2" cx="1180.27" cy="142.09" r="142.09"/>
  <circle class="fil0" cx="790.57" cy="163.16" r="142.09"/>
  <circle class="fil1" cx="446.02" cy="330.17" r="142.09"/>
  <circle class="fil2" cx="244.4" cy="634.1" r="142.09"/>
  <circle class="fil0" cx="142.09" cy="978.65" r="142.09"/>
  <circle class="fil3" cx="776.27" cy="2050" r="94.73"/>
  <circle class="fil3" cx="1013.09" cy="2050" r="94.73"/>
  <circle class="fil3" cx="1249.91" cy="2050" r="94.73"/>
  <polygon class="fil3" points="945.26,933.8 1486.73,933.8 1486.73,1881.08 539.45,1881.08 539.45,1274.31 "/>
  <path class="fil4" d="M182.94 970.49c-5.95,-0.19 -10.58,1.74 -13.91,5.84 -3.3,4.06 -6.9,11.52 -10.82,22.27 -3.88,10.79 -7.64,19.32 -11.31,25.56 -9.95,17.01 -22.87,25.22 -38.74,24.7 -8.24,-0.28 -15.53,-2.84 -21.83,-7.73 -6.3,-4.85 -11.12,-11.7 -14.46,-20.53 -3.33,-8.84 -4.83,-18.67 -4.46,-29.48 0.38,-10.89 2.67,-20.54 6.93,-28.93 4.22,-8.42 10.04,-14.82 17.38,-19.31 7.38,-4.46 15.64,-6.54 24.77,-6.22l-1.07 31.44c-6.95,-0.23 -12.45,1.77 -16.45,6.03 -4.01,4.27 -6.17,10.41 -6.45,18.36 -0.24,7.7 1.18,13.73 4.26,18.08 3.12,4.36 7.32,6.65 12.63,6.84 4.94,0.18 9.19,-2.19 12.7,-7.06 3.51,-4.88 6.9,-12.13 10.16,-21.74 6.02,-17.72 13.14,-30.53 21.37,-38.42 8.23,-7.92 18.32,-11.68 30.18,-11.26 13.22,0.46 23.42,5.81 30.58,16.03 7.19,10.27 10.49,23.84 9.89,40.74 -0.38,11.75 -2.9,22.37 -7.52,31.86 -4.62,9.49 -10.77,16.64 -18.44,21.46 -7.63,4.81 -16.39,7.07 -26.24,6.71l1.07 -31.56c16.8,0.6 25.54,-9.19 26.2,-29.31 0.28,-7.48 -1.04,-13.37 -3.94,-17.66 -2.91,-4.32 -7.08,-6.54 -12.48,-6.72z"/>
  <polygon id="1" class="fil4" points="254.72,599.27 229.44,654.16 266.74,671.31 296.41,606.93 319.35,617.48 276.51,710.46 137.81,646.58 180.54,553.82 203.69,564.49 174.13,628.69 207.15,643.89 232.43,589.01 "/>
  <path id="2" class="fil4" d="M460.61 350.97l-19.01 16.34 36.46 42.41 -23.86 20.52 -99.6 -115.81 43.05 -37c13.67,-11.8 26.87,-17.83 39.51,-18.09 12.68,-0.3 23.81,5.13 33.39,16.25 6.79,7.93 10.72,15.96 11.85,24.2 1.13,8.21 -0.46,16.87 -4.7,25.96l65.76 25.8 0.96 1.11 -25.61 22.02 -58.21 -23.71zm-35.67 -3.04l19.27 -16.56c5.99,-5.14 9.33,-10.66 9.99,-16.53 0.69,-5.88 -1.27,-11.47 -5.88,-16.81 -4.68,-5.45 -9.9,-8.4 -15.71,-8.84 -5.76,-0.47 -11.86,2.06 -18.28,7.6l-19.2 16.48 29.81 34.66z"/>
  <polygon id="3" class="fil4" points="789.35,186.02 791.66,66.01 825.43,56.57 815.42,218.04 783.8,226.91 691.54,94.06 725.2,84.65 "/>
  <polygon id="4" class="fil4" points="1190.33,200.41 1159.39,194.75 1186.77,44.35 1217.74,50.01 "/>
  <path id="5" class="fil4" d="M1568.66 310.66c-9.81,13.24 -21.87,20.95 -36.15,23.07 -14.32,2.09 -29.03,-1.62 -44.13,-11.2 -16.54,-10.51 -26.04,-24.31 -28.44,-41.42 -2.43,-17.14 2.47,-35.41 14.79,-54.86l5 -7.87c7.84,-12.41 16.96,-21.92 27.31,-28.61 10.35,-6.65 21.18,-9.94 32.5,-9.87 11.32,0.12 22.38,3.56 33.13,10.37 14.89,9.44 24.34,21.03 28.4,34.76 4.02,13.73 2.21,28.25 -5.51,43.56l-26.57 -16.82c4.6,-8.77 6.14,-16.27 4.52,-22.52 -1.61,-6.3 -6.52,-12 -14.65,-17.18 -8.88,-5.61 -17.52,-6.63 -25.92,-3.1 -8.44,3.56 -16.91,11.95 -25.46,25.23l-6.18 9.71c-8.8,13.92 -13.14,25.44 -13.01,34.54 0.16,9.1 4.79,16.52 13.89,22.31 8.2,5.18 15.52,7.22 21.92,6.03 6.4,-1.18 12.4,-5.48 17.94,-12.93l26.61 16.82z"/>
  <polygon id="6" class="fil4" points="1786.28,526.84 1750.92,477.81 1717.78,501.73 1759.29,559.25 1738.77,574.08 1678.83,491.02 1802.63,401.66 1862.42,484.55 1841.68,499.53 1800.31,442.16 1770.81,463.48 1806.16,512.47 "/>
  <path class="fil3" d="M668.49 431.42c200.35,-168.12 499.16,-141.98 667.28,58.38l-725.66 608.9c-168.12,-200.35 -141.97,-499.16 58.38,-667.28zm-55.85 609.87c-48.36,-70.37 -73.48,-150.95 -76.23,-231.8l527.34 -442.49c79.14,16.76 154.13,55.48 215.04,115.33l-666.15 558.96zm156.91 -370.41l140.22 -117.66 27.22 32.44 -140.22 117.66 -27.22 -32.44zm223.86 -187.84l88.84 -74.54 27.22 32.44 -88.84 74.54 -27.22 -32.44z"/>
  <path class="fil3" d="M1809.8 654.94c28.31,16.38 47.36,47 47.36,82.05 0,52.31 -42.42,94.73 -94.73,94.73 -52.31,0 -94.73,-42.42 -94.73,-94.73 0,-35.05 19.05,-65.67 47.37,-82.05l0 66.26c0,26.15 21.21,47.36 47.36,47.36 26.15,0 47.37,-21.21 47.37,-47.36l0 -66.26z"/>
  <path class="fil3" d="M218.7 1199.22c32.62,-2.37 65.59,12.23 85.3,41.22 29.41,43.26 18.18,102.19 -25.08,131.6 -43.26,29.41 -102.19,18.18 -131.6,-25.08 -19.71,-28.99 -21.17,-65.02 -6.97,-94.48l37.26 54.79c14.71,21.63 44.17,27.24 65.8,12.53 21.63,-14.7 27.24,-44.17 12.54,-65.8l-37.26 -54.79z"/>
  <polygon class="fil3" points="1482.92,933.8 1626.15,933.8 1716.64,800.91 1766.13,815.69 1654.94,993.77 1654.9,993.73 1654.9,993.85 1482.92,993.85 "/>
  <polygon class="fil3" points="563.19,1254.07 453.48,1346.13 298.73,1302.5 270.33,1345.63 469.97,1410.58 469.98,1410.52 470.05,1410.62 601.8,1300.07 "/>
  <rect class="fil5" x="702.57" y="1207.31" width="106.07" height="449.31"/>
  <rect class="fil5" x="980.26" y="1101.24" width="106.07" height="555.38"/>
  <rect class="fil5" transform="matrix(1.2682E-14 -0.593241 0.593241 1.94E-14 808.641 1207.31)" width="178.8" height="757.39"/>
  <path class="fil3" d="M670.4 1164.43l110.01 -92.32c35.29,10.65 61,43.41 61,82.16 0,47.38 -38.43,85.81 -85.81,85.81 -43.95,0 -80.18,-33.06 -85.21,-75.66z"/>
  <circle class="fil5" cx="755.61" cy="1154.28" r="53.03"/>
 </g>
</svg>
