<?xml version="1.0" encoding="UTF-8"?>
<!DOCTYPE svg PUBLIC "-//W3C//DTD SVG 1.1//EN" "http://www.w3.org/Graphics/SVG/1.1/DTD/svg11.dtd">
<!-- Creator: CorelDRAW 2020 (64-Bit) -->
<svg xmlns="http://www.w3.org/2000/svg" xml:space="preserve" width="60.7751mm" height="63.2158mm" version="1.1" style="shape-rendering:geometricPrecision; text-rendering:geometricPrecision; image-rendering:optimizeQuality; fill-rule:evenodd; clip-rule:evenodd"
viewBox="0 0 27784.48 28900.29"
 xmlns:xlink="http://www.w3.org/1999/xlink"
 xmlns:xodm="http://www.corel.com/coreldraw/odm/2003">
 <defs>
  <style type="text/css">
   <![CDATA[
    .str1 {stroke:white;stroke-width:77.4;stroke-miterlimit:22.9256}
    .str2 {stroke:white;stroke-width:645.11;stroke-linecap:round;stroke-linejoin:round;stroke-miterlimit:22.9256}
    .str0 {stroke:white;stroke-width:483.82;stroke-linecap:round;stroke-linejoin:round;stroke-miterlimit:22.9256}
    .str3 {stroke:white;stroke-width:322.58;stroke-linecap:round;stroke-linejoin:round;stroke-miterlimit:22.9256}
    .fil1 {fill:none}
    .fil4 {fill:none;fill-rule:nonzero}
    .fil0 {fill:#669999}
    .fil2 {fill:white}
    .fil5 {fill:#FEFEFE;fill-rule:nonzero}
    .fil3 {fill:white;fill-rule:nonzero}
   ]]>
  </style>
 </defs>
 <g id="Layer_x0020_1">
  <metadata id="CorelCorpID_0Corel-Layer"/>
  <g id="_1808323550128">
   <path class="fil0" d="M13334.33 0c7979.19,0 14450.14,6470.9 14450.14,14450.14 0,7979.24 -6470.95,14450.14 -14450.14,14450.14 -129.97,0 -259.35,-1.97 -388.5,-5.35l0 -5514.51c1063.92,-0.05 1926.65,-862.81 1926.65,-1926.69l0 -9633.41c0,-569.13 -246.78,-1080.43 -639.26,-1433.13 -429.14,-436.78 -1287.43,-1286.61 -1732.99,-1706.47 -841.78,-793.14 -2376.77,-2923.18 445.6,-3122.14 795.98,-56.09 1444.97,849.47 1444.97,1445.02 0,595.55 -157.27,749.62 -412.14,1010.16l337.48 343.47c343.88,-347.95 556.33,-825.97 556.33,-1353.63 0,-1063.88 -862.72,-1926.65 -1926.65,-1926.69l0 -5071.65c129.15,-3.38 258.53,-5.26 388.5,-5.26z"/>
   <g>
    <path class="fil1 str0" d="M14390.8 11820.33l0 9633.41c0,797.9 -647.08,1445.02 -1445.02,1445.02 -797.9,0 -1444.97,-647.12 -1444.97,-1445.02l-481.67 0c0,1063.88 862.77,1926.69 1926.65,1926.69 1063.92,0 1926.69,-862.81 1926.69,-1926.69l0 -9633.41c0,-569.13 -246.78,-1080.43 -639.26,-1433.13l-1437.16 -1462.8 5.17 0.46 -898.61 -921.7c-248.84,-259.58 -401.81,-611.69 -401.81,-999.55 0,-797.9 647.08,-1445.02 1444.97,-1445.02 797.94,0 1445.02,647.12 1445.02,1445.02 0,393.21 -157.27,749.62 -412.14,1010.16l337.48 343.47c343.88,-347.95 556.33,-825.97 556.33,-1353.63 0,-1063.88 -862.77,-1926.69 -1926.69,-1926.69 -1063.88,0 -1926.65,862.81 -1926.65,1926.69 0,519.94 206.23,991.83 541.15,1338.41l2371.47 2422.22c282.48,263.74 459.04,639.26 459.04,1056.11z"/>
    <path id="1" class="fil2" d="M14390.8 11820.33l0 9633.41c0,797.9 -647.08,1445.02 -1445.02,1445.02 -797.9,0 -1444.97,-647.12 -1444.97,-1445.02l-481.67 0c0,1063.88 862.77,1926.69 1926.65,1926.69 1063.92,0 1926.69,-862.81 1926.69,-1926.69l0 -9633.41c0,-569.13 -246.78,-1080.43 -639.26,-1433.13l-1437.16 -1462.8 5.17 0.46 -898.61 -921.7c-248.84,-259.58 -401.81,-611.69 -401.81,-999.55 0,-797.9 647.08,-1445.02 1444.97,-1445.02 797.94,0 1445.02,647.12 1445.02,1445.02 0,393.21 -157.27,749.62 -412.14,1010.16l337.48 343.47c343.88,-347.95 556.33,-825.97 556.33,-1353.63 0,-1063.88 -862.77,-1926.69 -1926.69,-1926.69 -1063.88,0 -1926.65,862.81 -1926.65,1926.69 0,519.94 206.23,991.83 541.15,1338.41l2371.47 2422.22c282.48,263.74 459.04,639.26 459.04,1056.11z"/>
   </g>
   <ellipse class="fil2 str1" cx="12928" cy="7014.55" rx="722.47" ry="722.46"/>
   <g>
    <path class="fil1 str2" d="M12919.5 1853.22c465.08,0 923.98,25.92 1376.03,75.07l0 599.71c-451.68,-51.57 -910.59,-78.95 -1376.03,-78.95 -6627.03,0 -12001.14,5374.06 -12001.14,12001.09 0,6627.03 5374.11,12001.09 12001.14,12001.09 465.44,0 924.35,-27.52 1376.03,-79.09l0 599.71c-452.05,49.15 -910.95,75.2 -1376.03,75.2 -6955.87,0 -12596.92,-5641.05 -12596.92,-12596.92 0,-6955.87 5641.05,-12596.92 12596.92,-12596.92z"/>
    <path id="1" class="fil2" d="M12919.5 1853.22c465.08,0 923.98,25.92 1376.03,75.07l0 599.71c-451.68,-51.57 -910.59,-78.95 -1376.03,-78.95 -6627.03,0 -12001.14,5374.06 -12001.14,12001.09 0,6627.03 5374.11,12001.09 12001.14,12001.09 465.44,0 924.35,-27.52 1376.03,-79.09l0 599.71c-452.05,49.15 -910.95,75.2 -1376.03,75.2 -6955.87,0 -12596.92,-5641.05 -12596.92,-12596.92 0,-6955.87 5641.05,-12596.92 12596.92,-12596.92z"/>
   </g>
   <path class="fil3" d="M6601.24 14534.13c-253.55,76.12 -472.39,114.16 -656.59,114.16 -292.27,0 -534.25,-108.03 -726.58,-323.49 -192.38,-216.15 -288.88,-488.71 -288.88,-817.01 0,-350.69 95.14,-624.63 285.46,-820.39 190.32,-196.4 456.07,-294.28 797.3,-294.28 167.87,0 356.82,23.09 564.79,69.31l0 330.35c-220.86,-65.28 -400.98,-97.88 -539.64,-97.88 -201.2,0 -362.31,75.43 -482.59,225.66 -120.33,150.18 -180.81,350.69 -180.81,600.81 0,242.67 62.54,438.42 186.94,588.65 124.35,149.49 286.83,224.29 488.67,224.29 178.75,0 362.31,-46.22 551.94,-138.66l0 338.49z"/>
   <path id="1" class="fil3" d="M8325.32 14648.28c-317.41,0 -568.9,-101.26 -753.78,-303.79 -185.56,-202.57 -278,-477.83 -278,-825.14 0,-346.67 92.44,-621.25 278,-823.13 184.88,-201.84 436.37,-303.1 753.78,-303.1 317.41,0 568.9,101.26 753.78,303.1 185.52,201.89 277.96,476.46 277.96,823.13 0,347.31 -92.44,622.57 -277.96,825.14 -184.88,202.53 -436.37,303.79 -753.78,303.79zm-0.69 -293.59c193.7,0 344.61,-72.74 452,-218.89 106.7,-145.43 160.37,-351.38 160.37,-616.45 0,-264.43 -53.67,-469.7 -160.37,-615.12 -107.39,-144.79 -258.3,-217.52 -452,-217.52 -194.39,0 -345.3,72.74 -451.32,217.52 -106.7,145.43 -159.73,350.69 -159.73,615.12 0,265.07 53.03,471.02 159.73,616.45 106.02,146.16 256.93,218.89 451.32,218.89z"/>
   <path id="2" class="fil3" d="M10245.84 14599.36l0 -2161.4 391.47 0 0 408.48c191.01,-302.46 435.68,-453.33 735.45,-453.33 288.84,0 485.28,150.87 589.93,453.33 185.56,-305.16 427.54,-457.44 724.57,-457.44 189.63,0 337.12,55.77 442.49,167.92 105.33,112.14 158.36,269.14 158.36,471.02l0 1571.43 -391.52 0 0 -1506.87c0,-246.05 -97.88,-369.07 -293.64,-369.07 -203.21,0 -416.62,143.41 -640.26,430.93l0 1445.02 -391.47 0 0 -1508.25c0,-248.06 -99.25,-371.77 -298.39,-371.77 -197.77,0 -409.85,144.1 -635.51,432.94l0 1447.08 -391.47 0z"/>
   <path id="3" class="fil4 str3" d="M6601.24 14534.13c-253.55,76.12 -472.39,114.16 -656.59,114.16 -292.27,0 -534.25,-108.03 -726.58,-323.49 -192.38,-216.15 -288.88,-488.71 -288.88,-817.01 0,-350.69 95.14,-624.63 285.46,-820.39 190.32,-196.4 456.07,-294.28 797.3,-294.28 167.87,0 356.82,23.09 564.79,69.31l0 330.35c-220.86,-65.28 -400.98,-97.88 -539.64,-97.88 -201.2,0 -362.31,75.43 -482.59,225.66 -120.33,150.18 -180.81,350.69 -180.81,600.81 0,242.67 62.54,438.42 186.94,588.65 124.35,149.49 286.83,224.29 488.67,224.29 178.75,0 362.31,-46.22 551.94,-138.66l0 338.49z"/>
   <path id="4" class="fil4 str3" d="M8325.32 14648.28c-317.41,0 -568.9,-101.26 -753.78,-303.79 -185.56,-202.57 -278,-477.83 -278,-825.14 0,-346.67 92.44,-621.25 278,-823.13 184.88,-201.84 436.37,-303.1 753.78,-303.1 317.41,0 568.9,101.26 753.78,303.1 185.52,201.89 277.96,476.46 277.96,823.13 0,347.31 -92.44,622.57 -277.96,825.14 -184.88,202.53 -436.37,303.79 -753.78,303.79zm-0.69 -293.59c193.7,0 344.61,-72.74 452,-218.89 106.7,-145.43 160.37,-351.38 160.37,-616.45 0,-264.43 -53.67,-469.7 -160.37,-615.12 -107.39,-144.79 -258.3,-217.52 -452,-217.52 -194.39,0 -345.3,72.74 -451.32,217.52 -106.7,145.43 -159.73,350.69 -159.73,615.12 0,265.07 53.03,471.02 159.73,616.45 106.02,146.16 256.93,218.89 451.32,218.89z"/>
   <path id="5" class="fil4 str3" d="M10245.84 14599.36l0 -2161.4 391.47 0 0 408.48c191.01,-302.46 435.68,-453.33 735.45,-453.33 288.84,0 485.28,150.87 589.93,453.33 185.56,-305.16 427.54,-457.44 724.57,-457.44 189.63,0 337.12,55.77 442.49,167.92 105.33,112.14 158.36,269.14 158.36,471.02l0 1571.43 -391.52 0 0 -1506.87c0,-246.05 -97.88,-369.07 -293.64,-369.07 -203.21,0 -416.62,143.41 -640.26,430.93l0 1445.02 -391.47 0 0 -1508.25c0,-248.06 -99.25,-371.77 -298.39,-371.77 -197.77,0 -409.85,144.1 -635.51,432.94l0 1447.08 -391.47 0z"/>
   <path class="fil3" d="M5559.4 18397.25l0 -358.88c256.24,127.78 478.47,191.69 668.11,191.69 112.83,0 206.64,-30.58 280.75,-91.75 74.06,-60.53 111.46,-136.65 111.46,-228.4 0,-133.9 -104.01,-244.68 -311.97,-332.36l-229.09 -97.19c-337.8,-140.03 -507.05,-342.56 -507.05,-605.61 0,-188.26 66.61,-336.43 199.83,-444.51 133.22,-108.07 316.09,-161.75 547.83,-161.75 120.33,0 269.87,16.28 447.25,49.6l81.56 15.64 0 326.24c-218.16,-65.24 -392.16,-97.88 -522,-97.88 -114.2,0 -204.58,25.14 -273.25,74.79 -67.94,49.6 -101.95,116.21 -101.95,199.83 0,117.58 95.18,217.48 286.14,298.35l188.31 79.55c213.41,89.7 364.32,184.88 452.64,284.77 89.06,99.94 133.22,224.97 133.22,374.51 0,189.63 -74.75,345.3 -224.97,466.95 -149.54,121.65 -341.19,182.82 -574.34,182.82 -179.44,0 -396.23,-42.11 -652.47,-126.41z"/>
   <path id="1" class="fil3" d="M9935.47 18405.43c-263.05,78.82 -488.03,118.22 -675.6,118.22 -320.16,0 -580.47,-106.02 -780.98,-317.41 -200.51,-211.35 -301.09,-485.28 -301.09,-822.4 0,-326.92 88.37,-595.42 265.75,-805.44 177.43,-209.34 404.41,-314.03 681.04,-314.03 261.68,0 464.25,93.13 606.98,279.38 142.73,186.25 214.09,449.95 214.09,791.82l-2.06 119.64 -1366.16 0c57.1,516.55 309.27,774.86 755.79,774.86 163.85,0 364.32,-46.22 602.23,-138.66l0 314.03zm-1337.63 -1243.86l954.29 0c0,-402.35 -150.23,-603.55 -449.95,-603.55 -301.82,0 -469.7,201.2 -504.35,603.55z"/>
   <path id="2" class="fil3" d="M12755.05 18409.5c-253.55,76.12 -472.39,114.16 -656.59,114.16 -292.27,0 -534.25,-108.03 -726.58,-323.49 -192.38,-216.15 -288.88,-488.71 -288.88,-817.01 0,-350.69 95.14,-624.63 285.46,-820.39 190.32,-196.4 456.07,-294.28 797.3,-294.28 167.87,0 356.82,23.09 564.79,69.31l0 330.35c-220.86,-65.28 -400.98,-97.88 -539.64,-97.88 -201.2,0 -362.31,75.43 -482.59,225.66 -120.33,150.18 -180.81,350.69 -180.81,600.81 0,242.67 62.54,438.42 186.94,588.65 124.35,149.49 286.83,224.29 488.67,224.29 178.75,0 362.31,-46.22 551.94,-138.66l0 338.49z"/>
   <path id="3" class="fil4 str3" d="M5559.4 18397.25l0 -358.88c256.24,127.78 478.47,191.69 668.11,191.69 112.83,0 206.64,-30.58 280.75,-91.75 74.06,-60.53 111.46,-136.65 111.46,-228.4 0,-133.9 -104.01,-244.68 -311.97,-332.36l-229.09 -97.19c-337.8,-140.03 -507.05,-342.56 -507.05,-605.61 0,-188.26 66.61,-336.43 199.83,-444.51 133.22,-108.07 316.09,-161.75 547.83,-161.75 120.33,0 269.87,16.28 447.25,49.6l81.56 15.64 0 326.24c-218.16,-65.24 -392.16,-97.88 -522,-97.88 -114.2,0 -204.58,25.14 -273.25,74.79 -67.94,49.6 -101.95,116.21 -101.95,199.83 0,117.58 95.18,217.48 286.14,298.35l188.31 79.55c213.41,89.7 364.32,184.88 452.64,284.77 89.06,99.94 133.22,224.97 133.22,374.51 0,189.63 -74.75,345.3 -224.97,466.95 -149.54,121.65 -341.19,182.82 -574.34,182.82 -179.44,0 -396.23,-42.11 -652.47,-126.41z"/>
   <path id="4" class="fil4 str3" d="M9935.47 18405.43c-263.05,78.82 -488.03,118.22 -675.6,118.22 -320.16,0 -580.47,-106.02 -780.98,-317.41 -200.51,-211.35 -301.09,-485.28 -301.09,-822.4 0,-326.92 88.37,-595.42 265.75,-805.44 177.43,-209.34 404.41,-314.03 681.04,-314.03 261.68,0 464.25,93.13 606.98,279.38 142.73,186.25 214.09,449.95 214.09,791.82l-2.06 119.64 -1366.16 0c57.1,516.55 309.27,774.86 755.79,774.86 163.85,0 364.32,-46.22 602.23,-138.66l0 314.03zm-1337.63 -1243.86l954.29 0c0,-402.35 -150.23,-603.55 -449.95,-603.55 -301.82,0 -469.7,201.2 -504.35,603.55z"/>
   <path id="5" class="fil4 str3" d="M12755.05 18409.5c-253.55,76.12 -472.39,114.16 -656.59,114.16 -292.27,0 -534.25,-108.03 -726.58,-323.49 -192.38,-216.15 -288.88,-488.71 -288.88,-817.01 0,-350.69 95.14,-624.63 285.46,-820.39 190.32,-196.4 456.07,-294.28 797.3,-294.28 167.87,0 356.82,23.09 564.79,69.31l0 330.35c-220.86,-65.28 -400.98,-97.88 -539.64,-97.88 -201.2,0 -362.31,75.43 -482.59,225.66 -120.33,150.18 -180.81,350.69 -180.81,600.81 0,242.67 62.54,438.42 186.94,588.65 124.35,149.49 286.83,224.29 488.67,224.29 178.75,0 362.31,-46.22 551.94,-138.66l0 338.49z"/>
   <path class="fil5" d="M17119.87 18473.69l0 -406.47c-208.65,303.83 -462.15,455.39 -759.86,455.39 -188.95,0 -339.17,-59.11 -450.63,-178.07 -112.19,-118.96 -167.92,-278.64 -167.92,-480.53l0 -1551.72 391.52 0 0 1423.94c0,162.43 23.77,277.32 70.68,345.3 47.59,68.62 126.41,102.63 237.22,102.63 239.24,0 466.27,-157.04 678.99,-471.71l0 -1400.17 391.52 0 0 2161.4 -391.52 0z"/>
   <path id="1" class="fil5" d="M18930.17 18473.69l0 -2161.4 391.47 0 0 408.48c155.67,-302.46 381.32,-453.33 677.66,-453.33 40.09,0 82.24,3.38 125.72,10.19l0 366.33c-67.94,-22.4 -127.78,-33.97 -179.44,-33.97 -248.75,0 -456.71,146.8 -623.94,441.12l0 1422.57 -391.47 0z"/>
   <path id="2" class="fil5" d="M21231.83 18473.69l0 -2161.4 391.47 0 0 2161.4 -391.47 0zm0 -2556.99l0 -391.47 391.47 0 0 391.47 -391.47 0z"/>
   <path id="3" class="fil5" d="M24009.95 18473c-120.97,33.33 -226.34,49.6 -315.4,49.6 -199.83,0 -355.45,-57.05 -466.91,-171.26 -112.14,-114.2 -167.92,-272.56 -167.92,-475.78l0 -1269.65 -270.51 0 0 -293.64 270.51 0 0 -390.83 391.52 -37.4 0 428.23 566.84 0 0 293.64 -566.84 0 0 1198.97c0,282.71 123.02,424.12 368.39,424.12 52.35,0 115.57,-8.87 190.32,-25.83l0 269.82z"/>
   <polygon id="4" class="fil5" points="25329.48,19260.75 25680.17,18476.38 24842.82,16312.28 25262.87,16312.28 25885.44,17948.95 26549.53,16312.28 26918.55,16312.28 25737.28,19260.75 "/>
   <path class="fil5" d="M15765.97 15208.31l0 -2948.46 391.47 0 0 408.48c160.42,-302.46 401.71,-453.33 723.2,-453.33 260.31,0 464.89,94.45 614.43,284.08 149.54,189.63 224.29,448.62 224.29,776.91 0,357.51 -84.94,646.35 -254.19,865.24 -169.24,219.53 -392.21,328.93 -668.15,328.93 -256.24,0 -469.65,-97.83 -639.58,-294.28l0 1032.42 -391.47 0zm391.47 -1302.25c201.89,180.08 394.22,270.51 577.08,270.51 180.08,0 319.42,-75.48 417.3,-225.66 98.57,-150.23 147.48,-361.62 147.48,-634.82 0,-505.72 -167.19,-758.53 -501.61,-758.53 -218.85,0 -432.25,118.27 -640.26,355.45l0 993.06z"/>
   <path id="1" class="fil5" d="M19962.05 14421.25l0 -406.47c-208.65,303.83 -462.15,455.39 -759.86,455.39 -188.95,0 -339.17,-59.11 -450.63,-178.07 -112.19,-118.96 -167.92,-278.64 -167.92,-480.53l0 -1551.72 391.52 0 0 1423.94c0,162.43 23.77,277.32 70.68,345.3 47.59,68.62 126.41,102.63 237.22,102.63 239.24,0 466.27,-157.04 678.99,-471.71l0 -1400.17 391.52 0 0 2161.4 -391.52 0z"/>
   <path id="2" class="fil5" d="M22381.47 14420.57c-120.97,33.33 -226.34,49.6 -315.4,49.6 -199.83,0 -355.45,-57.05 -466.91,-171.26 -112.14,-114.2 -167.92,-272.56 -167.92,-475.78l0 -1269.65 -270.51 0 0 -293.64 270.51 0 0 -390.83 391.52 -37.4 0 428.23 566.84 0 0 293.64 -566.84 0 0 1198.97c0,282.71 123.02,424.12 368.39,424.12 52.35,0 115.57,-8.87 190.32,-25.83l0 269.82z"/>
   <path id="3" class="fil5" d="M24802.23 14351.94c-263.05,78.82 -488.03,118.22 -675.6,118.22 -320.16,0 -580.47,-106.02 -780.98,-317.41 -200.51,-211.35 -301.09,-485.28 -301.09,-822.4 0,-326.92 88.37,-595.42 265.75,-805.44 177.43,-209.34 404.41,-314.03 681.04,-314.03 261.68,0 464.25,93.13 606.98,279.38 142.73,186.25 214.09,449.95 214.09,791.82l-2.06 119.64 -1366.16 0c57.1,516.55 309.27,774.86 755.79,774.86 163.85,0 364.32,-46.22 602.23,-138.66l0 314.03zm-1337.63 -1243.86l954.29 0c0,-402.35 -150.23,-603.55 -449.95,-603.55 -301.82,0 -469.7,201.2 -504.35,603.55z"/>
   <path id="4" class="fil5" d="M25763.7 14421.25l0 -2161.4 391.47 0 0 408.48c155.67,-302.46 381.32,-453.33 677.66,-453.33 40.09,0 82.24,3.38 125.72,10.19l0 366.33c-67.94,-22.4 -127.78,-33.97 -179.44,-33.97 -248.75,0 -456.71,146.8 -623.94,441.12l0 1422.57 -391.47 0z"/>
   <ellipse class="fil0" cx="4097.76" cy="15578.66" rx="722.47" ry="722.46"/>
   <ellipse class="fil2 str1" cx="12925.59" cy="21400.63" rx="722.47" ry="722.46"/>
  </g>
 </g>
</svg>
