<?xml version="1.0" encoding="UTF-8"?>
<!DOCTYPE svg PUBLIC "-//W3C//DTD SVG 1.1//EN" "http://www.w3.org/Graphics/SVG/1.1/DTD/svg11.dtd">
<!-- Creator: CorelDRAW 2020 (64-Bit) -->
<svg xmlns="http://www.w3.org/2000/svg" xml:space="preserve" width="80mm" height="80mm" version="1.1" style="shape-rendering:geometricPrecision; text-rendering:geometricPrecision; image-rendering:optimizeQuality; fill-rule:evenodd; clip-rule:evenodd"
viewBox="0 0 7720.68 7720.68"
 xmlns:xlink="http://www.w3.org/1999/xlink"
 xmlns:xodm="http://www.corel.com/coreldraw/odm/2003">
 <defs>
  <style type="text/css">
   <![CDATA[
    .fil0 {fill:black}
    .fil1 {fill:#6699FF}
   ]]>
  </style>
 </defs>
 <g id="Layer_x0020_1">
  <metadata id="CorelCorpID_0Corel-Layer"/>
  <rect class="fil0" x="0" y="0" width="7720.68" height="7720.68"/>
  <path class="fil1" d="M1052.73 2387.26l158.98 0c16.95,0 25.39,5.19 38.2,21.1l409.45 417.78c10.37,10.59 11.17,30.3 -0.57,41.78l-116.55 114.14 -0.26 -0.26 -117.5 119.67 -137.76 -134.88 111.19 -113.23c5.59,-5.7 4.8,-13.64 -0.77,-19.33l-155.96 -159.14c-5.91,-6.02 -13.46,-5.58 -13.46,6.63l0 275.74c0,15.94 9.98,31.53 21.14,42.93l466.35 476.29c10.22,10.43 10.09,33.38 -0.12,43.8l-470.72 480.74c-7.58,7.73 -18.56,13.83 -29.39,13.83l-140.22 0c-26.37,0 -39.85,-21.63 -39.85,-44.81l0 -1563.44c0.43,-12.26 4.32,-18.01 17.83,-19.32zm5479.15 2066.27l-1032.09 0 -73.75 73.75 144.33 144.35 -298.69 298.12 -366.08 -366.07 152.26 -152.22 -6.33 0 -253.87 0 -38.91 0 -75.84 75.82 144.36 144.35 -298.72 298.12 -366.05 -366.07 152.26 -152.22 -6.36 0 -253.84 0 -38.93 0 -75.84 75.82 144.37 144.35 -298.71 298.12 -366.05 -366.07 152.24 -152.22 -6.36 0 -253.87 0 -38.91 0 -75.81 75.82 144.37 144.35 -298.74 298.12 -366.05 -366.07 152.24 -152.22 -6.34 0 -253.86 0 -38.91 0 -75.84 75.82 144.35 144.35 -298.71 298.12 -366.05 -366.07 150.2 -150.16 -1076.17 0 0 -110.57 1187.42 0 0 0.14 152.11 0 -260.18 260.42 212.84 212.86 145.02 -145.04 -67.45 -67.45 -76.43 76.44 -76.63 -76.62 261.03 -260.61 83.39 0 253.86 0 267.67 0 -260.21 260.42 212.87 212.86 145.01 -145.04 -67.45 -67.45 -76.44 76.44 -76.6 -76.62 261 -260.61 83.39 0 253.87 0 267.66 0 -260.2 260.42 212.86 212.86 145.04 -145.04 -67.45 -67.45 -76.45 76.44 -76.6 -76.62 260.99 -260.61 83.43 0 253.84 0 267.66 0 -260.2 260.42 212.87 212.86 145.01 -145.04 -67.45 -67.45 -76.43 76.44 -76.63 -76.62 261.03 -260.61 83.39 0 253.87 0 267.64 0 -260.18 260.42 212.84 212.86 145.01 -145.04 -67.45 -67.45 -76.43 76.44 -76.62 -76.62 261.03 -260.61 36.25 0 0 -0.14 1038.26 0 0 110.57zm-264.3 312.89l-493.84 0 0 -110.56 493.84 0 0 110.56zm-341.54 299.87l-493.84 0 0 -110.57 493.84 0 0 110.57zm-4629.4 -299.87l493.84 0 0 -110.56 -493.84 0 0 110.56zm305.11 299.87l493.84 0 0 -110.57 -493.84 0 0 110.57zm715.15 -2066.04l0 1014.58 -220.93 0 0 -1016.05c0,-47.04 -13.82,-85.75 -45.76,-118.37l-350.79 -358.25 137.76 -134.9 343.96 351.28c12.97,13.23 36.32,14.58 51.18,-0.61l343.38 -350.67 137.76 134.9 -358.12 365.73c-31.35,32.02 -38.42,69.24 -38.42,112.36zm3995.76 497.06c8.58,8.77 8.28,28.08 -0.32,36.85l-225.96 230.14c-10.59,10.78 -34.58,15.31 -45.17,4.51l-295.25 -301.26 -137.76 134.88 403.28 411.5c34.7,35.39 75.27,25.53 106.17,-5.98l440.65 -449.43c25.68,-26.17 21.37,-64.08 -1.21,-87.13l-644.23 -658.05c-5.32,-5.43 -7.99,-17.27 -2.65,-22.67l138.48 -140.42c8.58,-8.7 27.97,-10.43 36.64,-1.8l100.58 99.74c6.99,6.93 7.08,22.76 0,29.61l-115.56 111.78 137.78 134.88 222.15 -222.55c26.18,-26.21 25.1,-54.67 -0.88,-80.93l-309.82 -313.04c-32.08,-32.42 -72.51,-31.59 -104.53,0.95l-312.38 317.53c-39.23,39.86 -49.01,97.84 -0.83,147.06l610.8 623.85zm-3321.41 -1110.05l158.98 0c16.94,0 25.38,5.19 38.2,21.1l409.45 417.78c10.37,10.59 11.16,30.3 -0.55,41.78l-116.57 114.14 -0.26 -0.26 -117.5 119.67 -137.76 -134.88 111.18 -113.23c5.6,-5.7 4.81,-13.64 -0.76,-19.33l-155.96 -159.14c-5.91,-6.02 -13.46,-5.58 -13.46,6.63l0 275.74c0,15.94 9.98,31.53 21.14,42.93l466.35 476.29c10.21,10.43 10.09,33.38 -0.12,43.8l-470.72 480.74c-7.58,7.73 -18.56,13.83 -29.39,13.83l-140.22 0c-26.38,0 -39.86,-21.63 -39.86,-44.81l0 -1563.44c0.43,-12.26 4.33,-18.01 17.83,-19.32zm1468.52 1430.69l0 192.8 -578.43 0c-20.92,0 -42.81,-25.02 -42.81,-45.94l0 -1581.64 192.8 0 0 1416.57c0,7.87 7.21,18.2 15.1,18.2l413.34 0zm1067.17 -574.56l-502.57 767.37c-27.35,41.77 -72.55,40.18 -98.84,0l-498.66 -761.4c-16.93,-25.84 -20.33,-73.72 -0.11,-104.61l498.77 -761.57c25.75,-39.32 73.11,-39.28 98.84,0l499.3 762.39c15.71,23.97 26.79,61.9 3.27,97.82zm89.71 2015.22l-469.45 0 -75.82 -75.84 144.36 -144.35 -298.72 -298.13 -366.05 366.08 152.26 152.24 -6.36 0 -253.84 0 -38.93 0 -75.82 -75.84 144.35 -144.35 -298.71 -298.13 -366.05 366.08 152.24 152.24 -6.36 0 -253.84 0 -38.93 0 -75.82 -75.84 144.37 -144.35 -298.71 -298.13 -366.08 366.08 152.24 152.24 -6.33 0 -253.87 0 -38.91 0 -75.84 -75.84 144.37 -144.35 -298.73 -298.13 -366.03 366.08 152.24 152.24 -575.72 0 0 108.35 837.02 0 -260.18 -260.4 212.84 -212.88 145.02 145.03 -67.45 67.45 -76.43 -76.44 -76.63 76.63 261.03 260.61 83.39 0 253.87 0 267.66 0 -260.2 -260.4 212.86 -212.88 144.99 145.03 -67.43 67.45 -76.44 -76.44 -76.6 76.63 261 260.61 83.42 0 253.84 0 267.68 0 -260.22 -260.4 212.86 -212.88 145.04 145.03 -67.45 67.45 -76.44 -76.44 -76.63 76.63 261.01 260.61 83.43 0 253.84 0 267.66 0 -260.2 -260.4 212.85 -212.88 145.03 145.03 -67.45 67.45 -76.43 -76.44 -76.63 76.63 261.03 260.61 513.91 0 0 -108.35zm-315.54 -2100.97l-310.55 -474.17c-8.67,-13.23 -23.78,-11.38 -32.01,1.2l-307.59 469.64c-14.89,22.77 -17.31,58.89 -2.39,81.66l307.25 469.13c8.68,13.25 29.68,13.13 38.02,0.36l309.88 -473.14c13.64,-20.85 11.02,-53.83 -2.62,-74.67zm-2134.89 109.05l0 458.89c0,8.78 6.61,10.09 13.85,2.69l213.63 -218.17c8.52,-8.71 5.59,-17.89 -3.24,-26.91l-215.37 -219.97c-3.96,-4.03 -8.87,-1.61 -8.87,3.46zm-1938.52 0l0 458.89c0,8.78 6.61,10.09 13.86,2.69l213.62 -218.17c8.53,-8.71 5.6,-17.89 -3.24,-26.91l-215.36 -219.97c-3.96,-4.03 -8.88,-1.61 -8.88,3.46z"/>
 </g>
</svg>
