<?xml version="1.0" encoding="UTF-8"?>
<!DOCTYPE svg PUBLIC "-//W3C//DTD SVG 1.1//EN" "http://www.w3.org/Graphics/SVG/1.1/DTD/svg11.dtd">
<!-- Creator: CorelDRAW 2020 (64-Bit) -->
<svg xmlns="http://www.w3.org/2000/svg" xml:space="preserve" width="95px" height="94px" version="1.1" style="shape-rendering:geometricPrecision; text-rendering:geometricPrecision; image-rendering:optimizeQuality; fill-rule:evenodd; clip-rule:evenodd"
viewBox="0 0 129.73 128.47"
 xmlns:xlink="http://www.w3.org/1999/xlink"
 xmlns:xodm="http://www.corel.com/coreldraw/odm/2003">
 <defs>
  <style type="text/css">
   <![CDATA[
    .str0 {stroke:#F0B87F;stroke-width:1.36;stroke-miterlimit:22.9256}
    .fil1 {fill:none}
    .fil0 {fill:#F0B87F;fill-rule:nonzero}
   ]]>
  </style>
 </defs>
 <g id="Layer_x0020_1">
  <metadata id="CorelCorpID_0Corel-Layer"/>
  <g id="_1985176840784">
   <path class="fil0 str0" d="M51.34 110.67c-6.46,-2.7 -12.1,-4.74 -16.93,-6.05 -5.13,-1.45 -9.38,-2.16 -12.79,-2.16 -4.8,0 -8.75,0.9 -11.92,2.7 -3.02,1.91 -4.55,4.28 -4.55,7.12 0,3.03 1.48,5.32 4.39,6.92 3.06,1.7 7.12,2.54 12.24,2.54 4.94,0 9.9,-0.95 14.86,-2.89 4.89,-1.8 9.79,-4.55 14.7,-8.23l0 0.05zm69.88 3.22l-3.81 8.59c-10.61,0.57 -20.67,0.16 -30.21,-1.23 -9.52,-1.42 -19.47,-4.25 -29.81,-8.51 -5.99,3.93 -11.83,6.85 -17.48,8.73 -5.91,1.93 -11.8,2.89 -17.66,2.89 -6.66,0 -11.92,-1.17 -15.82,-3.52 -3.81,-2.4 -5.75,-5.67 -5.75,-9.84 0,-4.42 2.32,-8.18 6.95,-11.29 4.69,-3.08 10.5,-4.63 17.43,-4.63 3.92,0 8.67,0.68 14.2,2.07 5.02,1.28 11.23,3.35 18.62,6.24 2.02,-3 3.9,-6.27 5.6,-9.84 1.33,-3.08 2.58,-6.68 3.76,-10.77l5.91 -21.73c4.99,-18.52 11.07,-32.67 18.19,-42.4 7.09,-9.68 14.97,-14.54 23.67,-14.54 4.36,0 7.82,1.61 10.38,4.8 2.43,3.19 3.66,7.72 3.66,13.58 0,2.97 -0.46,6.46 -1.42,10.47 -0.87,3.68 -2.4,8.35 -4.63,14.04l-10.64 1.78c3.03,-6.76 5.32,-12.84 6.87,-18.22 1.61,-5.32 2.4,-9.84 2.4,-13.49 0,-3.63 -0.57,-6.33 -1.69,-8.07 -1.12,-1.61 -3.02,-2.4 -5.75,-2.4 -4.09,0 -8.24,3.4 -12.46,10.22 -4.25,6.71 -8.4,16.5 -12.46,29.39l-5.51 17.35c-0.11,0.43 -0.38,1.36 -0.87,2.8 -4.8,15.44 -11.1,28.52 -18.93,39.21 9.47,4.07 18.98,6.46 28.53,7.2 9.51,0.74 19.11,1.12 28.73,1.12zm-73.02 -86.19c2.32,-3.81 5.8,-4.92 10.28,-3.1 2.13,0.85 3.72,2.41 4.86,4.36 1.13,1.92 1.34,3.93 0.68,5.94 -0.1,0.31 -0.41,1.03 -0.85,2.05 -0.44,1.03 -1.41,1.85 -2.83,2.42 -3.52,1.42 -7.27,2.64 -11.18,3.52 -3.94,0.89 -7.15,2.59 -9.6,5.05 0.27,-3.41 -0.62,-6.83 -2.64,-10.23 -2.02,-3.39 -3.62,-6.86 -4.86,-10.3 -0.51,-1.45 -0.63,-2.68 -0.35,-3.66 0.27,-0.96 0.47,-1.75 0.65,-2.18 0.86,-2.01 2.44,-3.25 4.56,-3.79 2.14,-0.55 4.33,-0.55 6.4,0.35 4.35,1.91 5.95,5.21 4.88,9.57zm-7.38 37.68c-1.67,-5.37 0.24,-9.47 5.75,-12.05 2.53,-1.18 5.2,-1.4 7.93,-0.84 2.75,0.56 4.76,2.03 6.06,4.36 0.17,0.31 0.61,1.12 1.2,2.43 0.58,1.3 0.55,2.87 -0.09,4.66 -1.59,4.45 -3.62,8.83 -6.08,13.22 -2.45,4.39 -3.57,8.76 -3.35,13.06 -2.92,-3.08 -6.82,-5.12 -11.67,-6.1 -4.85,-0.98 -9.34,-2.36 -13.5,-4.04 -1.78,-0.72 -3.04,-1.59 -3.71,-2.7 -0.66,-1.12 -1.22,-1.94 -1.47,-2.48 -1.11,-2.43 -0.98,-4.91 0.28,-7.36 1.25,-2.45 3.11,-4.43 5.69,-5.59 5.48,-2.46 9.88,-1.2 12.96,3.43z"/>
   <rect class="fil1" x="0.63" width="128.47" height="128.47"/>
  </g>
 </g>
</svg>
