<?xml version="1.0" encoding="UTF-8"?>
<!DOCTYPE svg PUBLIC "-//W3C//DTD SVG 1.1//EN" "http://www.w3.org/Graphics/SVG/1.1/DTD/svg11.dtd">
<!-- Creator: CorelDRAW 2020 (64-Bit) -->
<svg xmlns="http://www.w3.org/2000/svg" xml:space="preserve" width="110px" height="108px" version="1.1" style="shape-rendering:geometricPrecision; text-rendering:geometricPrecision; image-rendering:optimizeQuality; fill-rule:evenodd; clip-rule:evenodd"
viewBox="0 0 10.48 10.27"
 xmlns:xlink="http://www.w3.org/1999/xlink"
 xmlns:xodm="http://www.corel.com/coreldraw/odm/2003">
 <defs>
  <style type="text/css">
   <![CDATA[
    .str0 {stroke:#99CCCC;stroke-width:0.23;stroke-miterlimit:22.9256}
    .fil4 {fill:none}
    .fil1 {fill:black}
    .fil0 {fill:#99CCCC}
    .fil2 {fill:#99CCCC;fill-rule:nonzero}
    .fil3 {fill:#99CCCC;fill-rule:nonzero}
   ]]>
  </style>
 </defs>
 <g id="Layer_x0020_1">
  <metadata id="CorelCorpID_0Corel-Layer"/>
  <g id="_1985167633168">
   <g>
    <rect class="fil0 str0" x="0.12" y="7.43" width="10.25" height="1.15" rx="0.51" ry="0.87"/>
    <circle class="fil0 str0" cx="5.26" cy="8.4" r="0.44"/>
    <rect class="fil0 str0" x="0.11" y="2.06" width="9.39" height="6.19" rx="0.15" ry="0.18"/>
    <g>
     <path class="fil1" d="M1.01 2.18l8.99 0c0.16,0 0.28,0.13 0.28,0.29l0 5.33c0,0.16 -0.12,0.29 -0.28,0.29l-8.99 0c-0.15,0 -0.28,-0.13 -0.28,-0.29l0 -5.33c0,-0.16 0.13,-0.29 0.28,-0.29z"/>
     <path id="1" class="fil2" d="M10 2.36l-8.99 0 0 -0.35 8.99 0 0 0 0 0.35zm0.46 0.11l-0.35 0 0 0 0 -0.01 0 0 0 -0.01 0 0 -0.01 -0.01 0 -0.01 0 0 0 -0.01 0 0 -0.01 -0.01 0 0 0 0 0 -0.01 -0.01 0 0 -0.01 0 0 -0.01 0 0 -0.01 -0.01 0 0 0 -0.01 -0.01 0 0 0 0 -0.01 0 -0.01 -0.01 0 0 0 0 -0.01 0 -0.01 0 0 0 -0.01 0 0 0 0 -0.35 0.02 0 0.03 0 0.02 0 0.02 0 0.02 0.01 0.03 0.01 0.02 0 0.02 0.01 0.02 0.01 0.02 0.01 0.02 0.01 0.02 0.01 0.02 0.02 0.01 0.01 0.02 0.02 0.01 0.01 0.02 0.02 0.01 0.01 0.02 0.02 0.01 0.02 0.01 0.02 0.01 0.02 0.01 0.02 0.01 0.02 0.01 0.02 0.01 0.02 0.01 0.02 0 0.02 0 0.03 0.01 0.02 0 0.02 0 0.03 0 0zm-0.35 5.33l0 -5.33 0.35 0 0 5.33 0 0 -0.35 0zm-0.11 0.47l0 -0.36 0 0 0 0 0.01 0 0 0 0.01 0 0.01 0 0 0 0 0 0.01 0 0.01 -0.01 0 0 0 0 0.01 0 0 -0.01 0.01 0 0 0 0.01 -0.01 0 0 0 -0.01 0.01 0 0 0 0 -0.01 0 0 0.01 -0.01 0 0 0 -0.01 0 0 0 -0.01 0.01 0 0 -0.01 0 0 0 -0.01 0 -0.01 0.35 0 0 0.03 0 0.02 -0.01 0.03 0 0.02 0 0.02 -0.01 0.02 -0.01 0.02 -0.01 0.02 -0.01 0.02 -0.01 0.02 -0.01 0.02 -0.01 0.02 -0.01 0.02 -0.02 0.02 -0.01 0.01 -0.02 0.02 -0.01 0.02 -0.02 0.01 -0.02 0.01 -0.01 0.02 -0.02 0.01 -0.02 0.01 -0.02 0.01 -0.02 0.01 -0.02 0.01 -0.02 0.01 -0.03 0 -0.02 0.01 -0.02 0 -0.02 0 -0.03 0.01 -0.02 0 0 0zm-8.99 -0.36l8.99 0 0 0.36 -8.99 0 0 0 0 -0.36zm-0.46 -0.11l0.35 0 0 0 0 0.01 0 0.01 0.01 0 0 0.01 0 0 0 0.01 0 0 0 0.01 0.01 0 0 0.01 0 0 0 0.01 0.01 0 0 0 0 0.01 0.01 0 0 0.01 0 0 0.01 0 0 0.01 0.01 0 0 0 0.01 0 0 0.01 0.01 0 0 0 0.01 0 0 0 0.01 0 0 0 0.01 0 0 0 0 0.36 -0.02 0 -0.02 -0.01 -0.03 0 -0.02 0 -0.02 -0.01 -0.02 0 -0.03 -0.01 -0.02 -0.01 -0.02 -0.01 -0.02 -0.01 -0.02 -0.01 -0.01 -0.01 -0.02 -0.02 -0.02 -0.01 -0.02 -0.01 -0.01 -0.02 -0.02 -0.02 -0.01 -0.01 -0.02 -0.02 -0.01 -0.02 -0.01 -0.02 -0.01 -0.02 -0.01 -0.02 -0.01 -0.02 -0.01 -0.02 -0.01 -0.02 0 -0.02 -0.01 -0.02 0 -0.02 -0.01 -0.03 0 -0.02 0 -0.03 0 0zm0.35 -5.33l0 5.33 -0.35 0 0 -5.33 0 0 0.35 0zm0.11 -0.46l0 0.35 0 0 0 0 -0.01 0 0 0 -0.01 0 0 0 -0.01 0 0 0 -0.01 0.01 0 0 -0.01 0 0 0 -0.01 0.01 0 0 -0.01 0 0 0.01 0 0 -0.01 0 0 0.01 0 0 -0.01 0.01 0 0 0 0 0 0.01 -0.01 0 0 0.01 0 0 0 0.01 0 0.01 0 0 -0.01 0.01 0 0 0 0.01 -0.35 0 0 -0.03 0 -0.02 0.01 -0.02 0 -0.03 0.01 -0.02 0 -0.02 0.01 -0.02 0.01 -0.02 0.01 -0.02 0.01 -0.02 0.01 -0.02 0.01 -0.02 0.01 -0.02 0.02 -0.02 0.01 -0.01 0.02 -0.02 0.01 -0.01 0.02 -0.02 0.02 -0.01 0.02 -0.02 0.01 -0.01 0.02 -0.01 0.02 -0.01 0.02 -0.01 0.02 -0.01 0.03 0 0.02 -0.01 0.02 -0.01 0.02 0 0.03 0 0.02 0 0.02 0 0 0z"/>
    </g>
    <g>
     <path class="fil1" d="M5.28 2.21c1.42,-0.67 2.75,-0.97 4.03,-0.65 0.18,0.05 0.15,0.03 0.15,0.23l0 4.83c0,0.21 0.04,0.18 -0.14,0.16 -1.4,-0.16 -2.74,0.32 -4.04,1.12 0,-1.9 0,-3.8 0,-5.69z"/>
     <path id="1" class="fil3" d="M9.34 1.43l-0.07 0.26 0 0 -0.11 -0.03 -0.12 -0.02 -0.12 -0.02 -0.11 -0.02 -0.12 -0.01 -0.12 -0.01 -0.12 -0.01 -0.11 0 -0.12 -0.01 -0.12 0.01 -0.12 0 -0.12 0.01 -0.12 0.01 -0.13 0.02 -0.12 0.01 -0.12 0.02 -0.12 0.03 -0.13 0.02 -0.12 0.03 -0.13 0.03 -0.12 0.04 -0.13 0.03 -0.12 0.04 -0.13 0.04 -0.13 0.05 -0.12 0.05 -0.13 0.04 -0.13 0.06 -0.13 0.05 -0.13 0.06 -0.13 0.06 -0.13 0.06 -0.11 -0.24 0.13 -0.06 0.13 -0.06 0.14 -0.06 0.13 -0.06 0.13 -0.05 0.13 -0.05 0.14 -0.05 0.13 -0.05 0.13 -0.04 0.13 -0.04 0.13 -0.04 0.13 -0.03 0.13 -0.04 0.13 -0.03 0.13 -0.02 0.12 -0.03 0.13 -0.02 0.13 -0.02 0.13 -0.01 0.13 -0.01 0.12 -0.01 0.13 -0.01 0.13 0 0.12 0 0.13 0.01 0.12 0 0.13 0.01 0.12 0.02 0.13 0.02 0.12 0.02 0.13 0.02 0.12 0.03 0 0zm0.25 0.36l-0.26 0 0 0 0 -0.02 0 -0.02 0 -0.01 0 -0.02 0 -0.01 0 -0.01 0 -0.01 0 -0.01 0 -0.01 0 -0.01 0 0 0 0 0 0 0 0.01 0 0.01 0.01 0 0 0.01 0.01 0.01 0.01 0.01 0 0 0.01 0 0 0.01 0 0 -0.01 -0.01 0 0 -0.01 0 -0.01 0 -0.01 0 -0.01 -0.01 -0.01 0 -0.02 -0.01 -0.02 0 0.07 -0.26 0.01 0.01 0.02 0 0.01 0.01 0.02 0 0.01 0 0.01 0.01 0.02 0 0.01 0 0.01 0.01 0.02 0 0.01 0.01 0.02 0.01 0.01 0.01 0.02 0.02 0.01 0.01 0.02 0.02 0 0.02 0.01 0.02 0.01 0.02 0 0.01 0 0.02 0 0.01 0 0.01 0 0.02 0 0.01 0 0.01 0 0.02 0 0.01 0 0.01 0 0.02 0 0.01 0 0.02 0 0zm-0.26 4.83l0 -4.83 0.26 0 0 4.83 0 0 -0.26 0zm-0.03 0.29l0.03 -0.26 0 0 0.02 0 0.02 0.01 0.01 0 0.02 0 0.01 0 0.01 0 0 0 0.01 0 0 0.01 0 0 0 0 -0.01 0 -0.01 0 -0.02 0.01 -0.02 0.01 -0.02 0.02 -0.01 0.02 -0.01 0.01 0 0.01 0 0.01 0 0 0 0 0 -0.01 0 -0.01 0 -0.01 0 -0.01 0 -0.01 0 -0.01 0 -0.02 0 -0.02 0 -0.02 0 -0.02 0.26 0 0 0.02 0 0.02 0 0.01 0 0.02 0 0.01 0 0.01 0 0.01 0 0.02 0 0.01 0 0.01 0 0.01 0 0.02 0 0.01 -0.01 0.02 0 0.03 -0.02 0.02 -0.02 0.02 -0.03 0.02 -0.03 0.01 -0.02 0.01 -0.02 0 -0.01 0 -0.02 0 -0.01 0 -0.01 0 -0.01 -0.01 -0.01 0 -0.01 0 -0.02 0 -0.01 0 -0.01 0 -0.02 -0.01 0 0zm-4.15 0.99l0.27 0 -0.2 -0.11 0.12 -0.08 0.12 -0.07 0.13 -0.07 0.12 -0.07 0.12 -0.07 0.13 -0.06 0.12 -0.06 0.13 -0.06 0.12 -0.06 0.13 -0.06 0.13 -0.05 0.12 -0.05 0.13 -0.05 0.13 -0.04 0.13 -0.05 0.12 -0.04 0.13 -0.03 0.13 -0.04 0.13 -0.03 0.13 -0.02 0.13 -0.03 0.13 -0.02 0.13 -0.02 0.14 -0.01 0.13 -0.02 0.13 0 0.13 -0.01 0.14 0 0.13 0 0.13 0.01 0.14 0.01 0.13 0.01 -0.03 0.26 -0.12 -0.01 -0.13 -0.01 -0.13 0 -0.12 -0.01 -0.13 0.01 -0.13 0 -0.12 0.01 -0.13 0.01 -0.12 0.01 -0.13 0.02 -0.12 0.02 -0.13 0.02 -0.12 0.03 -0.12 0.03 -0.13 0.03 -0.12 0.04 -0.12 0.04 -0.13 0.04 -0.12 0.04 -0.12 0.05 -0.12 0.04 -0.13 0.06 -0.12 0.05 -0.12 0.05 -0.12 0.06 -0.12 0.06 -0.12 0.07 -0.12 0.06 -0.12 0.07 -0.13 0.07 -0.12 0.07 -0.12 0.07 -0.2 -0.11zm0.2 0.11l-0.2 0.13 0 -0.24 0.2 0.11zm-0.12 -5.92l0.11 0.24 0.08 -0.12 0 0.18 0 0.17 0 0.18 0 0.18 0 0.18 0 0.17 0 0.18 0 0.18 0 0.18 0 0.18 0 0.17 0 0.18 0 0.18 0 0.18 0 0.18 0 0.17 0 0.18 0 0.18 0 0.18 0 0.17 0 0.18 0 0.18 0 0.18 0 0.18 0 0.17 0 0.18 0 0.18 0 0.18 0 0.18 0 0.17 0 0.18 0 0.18 -0.27 0 0 -0.18 0 -0.18 0 -0.17 0 -0.18 0 -0.18 0 -0.18 0 -0.18 0 -0.17 0 -0.18 0 -0.18 0 -0.18 0 -0.18 0 -0.17 0 -0.18 0 -0.18 0 -0.18 0 -0.17 0 -0.18 0 -0.18 0 -0.18 0 -0.18 0 -0.17 0 -0.18 0 -0.18 0 -0.18 0 -0.18 0 -0.17 0 -0.18 0 -0.18 0 -0.18 0 -0.17 0 -0.18 0.08 -0.12zm-0.08 0.12l0 -0.09 0.08 -0.03 -0.08 0.12z"/>
    </g>
   </g>
   <rect class="fil4" x="0.11" width="10.27" height="10.27"/>
  </g>
 </g>
</svg>
