<?xml version="1.0" encoding="UTF-8"?>
<!DOCTYPE svg PUBLIC "-//W3C//DTD SVG 1.1//EN" "http://www.w3.org/Graphics/SVG/1.1/DTD/svg11.dtd">
<!-- Creator: CorelDRAW 2020 (64-Bit) -->
<svg xmlns="http://www.w3.org/2000/svg" xml:space="preserve" width="114px" height="113px" version="1.1" style="shape-rendering:geometricPrecision; text-rendering:geometricPrecision; image-rendering:optimizeQuality; fill-rule:evenodd; clip-rule:evenodd"
viewBox="0 0 7.61 7.51"
 xmlns:xlink="http://www.w3.org/1999/xlink"
 xmlns:xodm="http://www.corel.com/coreldraw/odm/2003">
 <defs>
  <style type="text/css">
   <![CDATA[
    .fil3 {fill:none}
    .fil0 {fill:black}
    .fil2 {fill:#C886E0}
    .fil1 {fill:#C886E0;fill-rule:nonzero}
   ]]>
  </style>
 </defs>
 <g id="Layer_x0020_1">
  <metadata id="CorelCorpID_0Corel-Layer"/>
  <g id="_1985276300320">
   <g>
    <g>
     <path class="fil0" d="M6.37 1.39c0.19,-0.28 -0.07,-0.84 -0.53,-0.53 -0.47,0.3 -0.16,0.71 0.19,0.79 0.12,0.02 -0.36,0.62 -0.4,0.68 -0.09,0.15 -0.41,0.49 -0.2,0.64 0.02,0.01 0.05,0.04 0.07,0.05 0.22,0.12 0.4,-0.3 0.51,-0.44 0.04,-0.06 0.41,-0.73 0.47,-0.63 0.21,0.29 0.71,0.42 0.81,-0.13 0.1,-0.55 -0.52,-0.58 -0.7,-0.28 -0.1,0.18 -0.33,0 -0.22,-0.15z"/>
     <path id="1" class="fil1" d="M5.87 0.91l-0.07 -0.11 0 0 0.05 -0.02 0.05 -0.03 0.04 -0.02 0.05 -0.01 0.04 -0.01 0.04 0 0.04 -0.01 0.04 0.01 0.04 0.01 0.04 0.01 0.03 0.01 0.04 0.02 0.03 0.03 0.02 0.02 0.03 0.03 0.02 0.02 0.02 0.04 0.02 0.03 0.01 0.03 0.02 0.03 0.01 0.04 0.01 0.04 0 0.03 0 0.04 0.01 0.04 -0.01 0.03 0 0.04 -0.01 0.04 -0.01 0.03 -0.01 0.04 -0.02 0.03 -0.02 0.03 -0.11 -0.07 0.02 -0.02 0.01 -0.03 0.01 -0.02 0.01 -0.03 0 -0.02 0.01 -0.03 0 -0.03 0 -0.02 0 -0.03 -0.01 -0.03 0 -0.03 -0.01 -0.02 -0.01 -0.03 -0.01 -0.03 -0.02 -0.02 -0.01 -0.02 -0.02 -0.02 -0.02 -0.02 -0.01 -0.02 -0.02 -0.01 -0.03 -0.01 -0.02 -0.01 -0.02 -0.01 -0.03 -0.01 -0.02 0 -0.03 0 -0.03 0 -0.03 0.01 -0.04 0.01 -0.03 0.02 -0.04 0.02 -0.04 0.02 0 0zm0.17 0.67l-0.03 0.13 0 0 -0.03 -0.01 -0.04 -0.01 -0.03 -0.01 -0.04 -0.02 -0.03 -0.02 -0.03 -0.01 -0.03 -0.02 -0.03 -0.02 -0.03 -0.03 -0.03 -0.02 -0.02 -0.03 -0.03 -0.03 -0.02 -0.02 -0.02 -0.03 -0.02 -0.04 -0.01 -0.03 -0.01 -0.03 -0.01 -0.04 -0.01 -0.03 0 -0.04 0 -0.03 0 -0.04 0.01 -0.04 0.01 -0.03 0.02 -0.04 0.02 -0.04 0.02 -0.03 0.03 -0.04 0.03 -0.03 0.04 -0.03 0.04 -0.04 0.04 -0.03 0.07 0.11 -0.04 0.03 -0.03 0.02 -0.03 0.03 -0.03 0.03 -0.02 0.02 -0.01 0.03 -0.02 0.02 -0.01 0.03 -0.01 0.03 0 0.02 -0.01 0.02 0 0.03 0.01 0.02 0 0.03 0.01 0.02 0.01 0.02 0.01 0.03 0.01 0.02 0.01 0.02 0.02 0.03 0.02 0.02 0.02 0.02 0.02 0.02 0.02 0.01 0.03 0.02 0.02 0.02 0.03 0.01 0.03 0.02 0.02 0.01 0.03 0.01 0.03 0.01 0.03 0 0 0zm-0.36 0.78l-0.1 -0.06 0 0 0 -0.01 0.01 -0.01 0.01 -0.02 0.01 -0.01 0.02 -0.02 0.01 -0.02 0.02 -0.02 0.02 -0.03 0.01 -0.02 0.02 -0.03 0.02 -0.03 0.02 -0.02 0.02 -0.03 0.03 -0.03 0.02 -0.03 0.02 -0.03 0.02 -0.03 0.02 -0.03 0.01 -0.03 0.02 -0.03 0.02 -0.02 0.01 -0.03 0.01 -0.02 0.01 -0.02 0.01 -0.02 0.01 -0.02 0 -0.01 0 0 0 0 0.01 0.01 0.01 0.01 0.01 0.01 0.03 -0.13 0.03 0.02 0.03 0.03 0.01 0.03 0 0.03 0 0.02 -0.01 0.02 -0.01 0.03 -0.01 0.02 -0.01 0.03 -0.02 0.02 -0.01 0.03 -0.02 0.03 -0.02 0.03 -0.02 0.03 -0.02 0.03 -0.02 0.03 -0.02 0.03 -0.02 0.03 -0.02 0.03 -0.02 0.03 -0.02 0.03 -0.02 0.03 -0.02 0.02 -0.02 0.03 -0.02 0.02 -0.02 0.02 -0.01 0.02 -0.02 0.02 -0.01 0.02 -0.01 0.01 0 0.01 -0.01 0 0 0zm-0.21 0.56l-0.08 0.1 0 0 -0.02 -0.02 -0.02 -0.02 -0.02 -0.02 -0.01 -0.03 -0.01 -0.02 -0.01 -0.03 0 -0.03 0 -0.02 0 -0.03 0 -0.03 0.01 -0.02 0.01 -0.03 0.01 -0.02 0.01 -0.03 0.01 -0.02 0.01 -0.03 0.01 -0.02 0.02 -0.03 0.01 -0.02 0.02 -0.02 0.01 -0.03 0.02 -0.02 0.01 -0.02 0.02 -0.02 0.01 -0.02 0.02 -0.02 0.01 -0.02 0.01 -0.02 0.02 -0.02 0.01 -0.01 0.01 -0.02 0.01 -0.01 0.1 0.06 -0.01 0.02 -0.01 0.02 -0.01 0.01 -0.01 0.02 -0.02 0.02 -0.01 0.02 -0.01 0.02 -0.02 0.02 -0.01 0.02 -0.02 0.02 -0.01 0.02 -0.02 0.02 -0.01 0.03 -0.01 0.02 -0.01 0.02 -0.02 0.02 -0.01 0.02 -0.01 0.02 -0.01 0.02 0 0.02 -0.01 0.02 0 0.02 0 0.02 -0.01 0.01 0 0.01 0.01 0.02 0 0.01 0 0.01 0.01 0.01 0.01 0.01 0.01 0.01 0.01 0.01 0 0zm0.06 0.04l-0.06 0.11 0 0 0 0 0 0 0 0 -0.01 0 0 0 0 0 0 -0.01 -0.01 0 0 0 0 0 0 0 -0.01 0 0 -0.01 0 0 -0.01 0 0 0 0 0 0 -0.01 -0.01 0 0 0 0 0 0 0 -0.01 0 0 -0.01 0 0 0 0 -0.01 0 0 0 0 0 0 -0.01 -0.01 0 0 0 0.08 -0.1 0 0 0 0 0 0 0 0 0.01 0.01 0 0 0 0 0 0 0 0 0.01 0 0 0 0 0.01 0 0 0.01 0 0 0 0 0 0 0 0.01 0.01 0 0 0 0 0 0 0.01 0 0 0 0 0.01 0 0 0 0 0.01 0 0 0 0 0 0 0 0 0 0 0 0 0zm-0.06 0.11l0 0 0 0 0 0zm0.48 -0.53l0.11 0.08 0 0 -0.01 0.01 -0.01 0.02 -0.01 0.01 -0.01 0.02 -0.01 0.02 -0.02 0.02 -0.01 0.02 -0.01 0.02 -0.02 0.02 -0.01 0.02 -0.01 0.03 -0.02 0.02 -0.01 0.02 -0.02 0.02 -0.02 0.03 -0.01 0.02 -0.02 0.02 -0.02 0.02 -0.02 0.02 -0.02 0.02 -0.02 0.01 -0.02 0.02 -0.02 0.01 -0.02 0.02 -0.03 0.01 -0.02 0.01 -0.03 0 -0.03 0 -0.02 0 -0.03 0 -0.03 -0.01 -0.03 -0.02 0.06 -0.11 0.02 0.01 0.01 0 0.01 0.01 0.01 0 0.01 0 0.01 -0.01 0.02 0 0.01 -0.01 0.01 0 0.02 -0.01 0.01 -0.01 0.02 -0.02 0.01 -0.01 0.02 -0.02 0.01 -0.01 0.02 -0.02 0.01 -0.02 0.02 -0.02 0.01 -0.02 0.02 -0.02 0.01 -0.02 0.01 -0.02 0.02 -0.03 0.01 -0.02 0.01 -0.02 0.02 -0.02 0.01 -0.02 0.01 -0.02 0.01 -0.02 0.01 -0.01 0.01 -0.02 0.01 -0.02 0 0zm0.59 -0.62l-0.11 0.07 0 0 0.01 0.01 0.02 0 0.01 0 0 0 0 0.01 -0.01 0 -0.01 0.02 -0.02 0.01 -0.01 0.02 -0.02 0.02 -0.02 0.02 -0.02 0.03 -0.01 0.02 -0.02 0.03 -0.02 0.03 -0.02 0.03 -0.02 0.03 -0.02 0.03 -0.02 0.03 -0.02 0.03 -0.02 0.03 -0.01 0.03 -0.02 0.03 -0.02 0.02 -0.01 0.03 -0.02 0.02 -0.01 0.03 -0.01 0.01 -0.01 0.02 -0.01 0.02 -0.01 0.01 0 0.01 -0.11 -0.08 0.01 0 0 -0.01 0.01 -0.01 0.01 -0.02 0.01 -0.02 0.02 -0.02 0.01 -0.02 0.01 -0.03 0.02 -0.03 0.02 -0.02 0.02 -0.03 0.01 -0.03 0.02 -0.04 0.02 -0.03 0.02 -0.03 0.02 -0.03 0.02 -0.03 0.02 -0.03 0.02 -0.03 0.02 -0.03 0.02 -0.02 0.02 -0.03 0.02 -0.02 0.02 -0.02 0.02 -0.02 0.02 -0.02 0.02 -0.02 0.02 -0.01 0.02 -0.01 0.03 0 0.04 0.01 0.03 0.03 0 0zm0.69 -0.11l0.12 0.02 0 0 -0.01 0.06 -0.02 0.05 -0.01 0.04 -0.02 0.05 -0.02 0.03 -0.03 0.04 -0.02 0.03 -0.03 0.03 -0.03 0.03 -0.03 0.02 -0.03 0.02 -0.04 0.01 -0.03 0.01 -0.04 0.01 -0.03 0 -0.04 0.01 -0.03 -0.01 -0.04 0 -0.03 -0.01 -0.04 -0.01 -0.03 -0.01 -0.04 -0.01 -0.03 -0.02 -0.03 -0.01 -0.03 -0.02 -0.03 -0.02 -0.03 -0.03 -0.03 -0.02 -0.03 -0.03 -0.02 -0.02 -0.03 -0.03 -0.02 -0.03 0.11 -0.07 0.01 0.02 0.02 0.02 0.02 0.02 0.03 0.03 0.02 0.02 0.02 0.01 0.03 0.02 0.02 0.02 0.03 0.01 0.02 0.01 0.03 0.01 0.03 0.01 0.02 0.01 0.03 0 0.03 0.01 0.02 0 0.03 0 0.02 -0.01 0.03 0 0.02 -0.01 0.02 -0.01 0.02 -0.01 0.02 -0.01 0.02 -0.02 0.02 -0.02 0.02 -0.02 0.02 -0.03 0.02 -0.03 0.01 -0.03 0.01 -0.04 0.02 -0.04 0.01 -0.05 0 0zm-0.58 -0.24l-0.11 -0.07 0 0 0.02 -0.03 0.02 -0.03 0.03 -0.03 0.03 -0.02 0.03 -0.02 0.03 -0.02 0.03 -0.02 0.04 -0.01 0.03 -0.01 0.04 -0.01 0.04 -0.01 0.03 0 0.04 0 0.04 0 0.03 0 0.04 0.01 0.03 0.01 0.04 0.01 0.03 0.02 0.03 0.02 0.03 0.02 0.03 0.03 0.03 0.03 0.02 0.03 0.02 0.04 0.02 0.03 0.01 0.05 0.01 0.04 0 0.05 0 0.05 0 0.05 -0.01 0.05 -0.12 -0.02 0 -0.04 0.01 -0.05 0 -0.04 -0.01 -0.03 0 -0.03 -0.01 -0.03 -0.01 -0.03 -0.02 -0.02 -0.01 -0.03 -0.02 -0.01 -0.02 -0.02 -0.02 -0.02 -0.02 -0.01 -0.02 -0.01 -0.03 -0.01 -0.02 -0.01 -0.03 0 -0.02 -0.01 -0.03 0 -0.03 0 -0.03 0.01 -0.02 0 -0.03 0.01 -0.03 0.01 -0.02 0.01 -0.03 0.01 -0.02 0.01 -0.02 0.02 -0.02 0.02 -0.02 0.02 -0.02 0.02 -0.01 0.02 0 0zm-0.34 -0.22l0.11 0.07 0 0 -0.01 0.01 0 0.01 -0.01 0.01 0 0.01 0 0 0 0.01 0 0.01 0 0.01 0 0 0.01 0.01 0 0.01 0 0 0.01 0.01 0 0.01 0.01 0 0.01 0.01 0 0 0.01 0 0.01 0.01 0 0 0.01 0 0 0 0.01 0 0.01 0 0 0 0.01 -0.01 0 0 0.01 0 0.01 -0.01 0 -0.01 0.01 0 0.01 -0.02 0.11 0.07 -0.02 0.02 -0.01 0.02 -0.02 0.01 -0.01 0.02 -0.02 0.01 -0.02 0.01 -0.02 0.01 -0.02 0 -0.02 0.01 -0.02 0 -0.02 -0.01 -0.02 0 -0.02 -0.01 -0.01 0 -0.02 -0.01 -0.02 -0.01 -0.01 -0.01 -0.02 -0.02 -0.01 -0.01 -0.01 -0.01 -0.01 -0.02 -0.01 -0.02 -0.01 -0.02 0 -0.02 0 -0.02 -0.01 -0.02 0.01 -0.02 0 -0.02 0 -0.02 0.01 -0.02 0.01 -0.02 0.01 -0.02 0 0z"/>
    </g>
    <g>
     <path class="fil0" d="M2.54 3.1c0.31,-0.79 -0.45,-1.2 -1.19,-0.82 -0.73,0.37 -0.68,1.31 0.35,1.26 0.19,-0.01 0.05,0.06 -0.15,0.17 -0.49,0.27 -1.68,1.38 -1.42,1.71 0.72,0.89 6.91,0.65 6.85,-0.98 -0.07,-1.88 -3.14,-2.45 -4.37,-1.26 -0.19,0.19 -0.12,0.05 -0.07,-0.08z"/>
     <path id="1" class="fil1" d="M1.39 2.36l-0.08 -0.17 0 0 0.07 -0.03 0.07 -0.03 0.08 -0.03 0.07 -0.02 0.07 -0.02 0.08 -0.01 0.07 -0.01 0.07 0 0.07 0 0.07 0.01 0.06 0.01 0.07 0.01 0.06 0.02 0.06 0.02 0.06 0.03 0.05 0.03 0.05 0.03 0.05 0.04 0.04 0.05 0.04 0.04 0.04 0.05 0.03 0.06 0.02 0.06 0.02 0.06 0.02 0.06 0.01 0.07 0 0.07 0 0.07 -0.01 0.07 -0.02 0.08 -0.02 0.07 -0.03 0.08 -0.18 -0.07 0.03 -0.07 0.02 -0.06 0.01 -0.06 0.01 -0.06 0 -0.05 0 -0.06 -0.01 -0.05 -0.01 -0.04 -0.01 -0.05 -0.02 -0.04 -0.02 -0.04 -0.03 -0.03 -0.03 -0.04 -0.03 -0.03 -0.03 -0.03 -0.04 -0.02 -0.04 -0.02 -0.05 -0.02 -0.04 -0.02 -0.05 -0.02 -0.05 -0.01 -0.06 -0.01 -0.05 0 -0.06 0 -0.06 0 -0.06 0.01 -0.06 0.01 -0.06 0.01 -0.06 0.02 -0.07 0.02 -0.06 0.03 -0.07 0.03 0 0zm0.3 1.09l0.01 0.19 0 0 -0.1 0 -0.09 -0.01 -0.09 -0.01 -0.08 -0.01 -0.08 -0.02 -0.07 -0.03 -0.07 -0.03 -0.06 -0.03 -0.06 -0.04 -0.05 -0.04 -0.05 -0.05 -0.04 -0.05 -0.03 -0.06 -0.02 -0.05 -0.03 -0.06 -0.01 -0.06 -0.01 -0.06 0 -0.07 0 -0.06 0.01 -0.06 0.02 -0.06 0.02 -0.07 0.03 -0.06 0.03 -0.06 0.04 -0.06 0.04 -0.05 0.05 -0.06 0.05 -0.05 0.06 -0.05 0.06 -0.04 0.06 -0.05 0.08 -0.04 0.08 0.17 -0.06 0.03 -0.05 0.04 -0.06 0.04 -0.04 0.04 -0.05 0.04 -0.03 0.05 -0.04 0.04 -0.03 0.05 -0.02 0.05 -0.02 0.04 -0.02 0.05 -0.01 0.04 -0.01 0.05 0 0.05 0 0.04 0.01 0.04 0.01 0.04 0.01 0.04 0.02 0.04 0.02 0.04 0.03 0.03 0.03 0.04 0.04 0.03 0.04 0.03 0.04 0.02 0.06 0.03 0.05 0.02 0.07 0.01 0.07 0.02 0.07 0 0.08 0.01 0.09 0 0 0zm-0.09 0.34l-0.09 -0.17 0 0 0.01 -0.01 0.02 -0.01 0.02 -0.01 0.02 0 0.01 -0.01 0.02 -0.01 0.01 -0.01 0.02 -0.01 0.01 -0.01 0.01 0 0.01 -0.01 0.01 -0.01 0.01 0 0.01 -0.01 0 0 0.01 0 0 0 0 0 0 0 -0.01 0.01 -0.01 0.03 0.01 0.03 0.01 0.03 0.02 0.02 0.01 0 0.01 0.01 0 0 0 -0.01 -0.01 0 -0.01 0 -0.01 0 -0.02 0.01 -0.01 -0.19 0.02 0 0.02 -0.01 0.02 0.01 0.01 0 0.02 0 0.01 0 0.02 0.01 0.02 0.01 0.03 0.02 0.02 0.04 0 0.04 -0.01 0.03 -0.01 0.02 -0.01 0.01 -0.01 0.01 -0.01 0.01 -0.01 0.01 -0.01 0.01 -0.01 0.01 -0.02 0.01 -0.01 0 -0.01 0.01 -0.02 0.01 -0.01 0.01 -0.02 0.01 -0.01 0 -0.02 0.01 -0.01 0.01 -0.02 0.01 -0.02 0.01 -0.02 0.01 -0.01 0.01 0 0zm-1.39 1.57l-0.15 0.12 0 0 -0.03 -0.05 -0.02 -0.06 -0.01 -0.06 0 -0.06 0.01 -0.06 0.02 -0.06 0.03 -0.06 0.03 -0.06 0.03 -0.07 0.04 -0.06 0.05 -0.07 0.05 -0.06 0.05 -0.07 0.06 -0.07 0.06 -0.07 0.06 -0.06 0.06 -0.07 0.07 -0.07 0.06 -0.06 0.07 -0.07 0.07 -0.06 0.07 -0.06 0.06 -0.06 0.07 -0.06 0.07 -0.06 0.07 -0.05 0.06 -0.05 0.06 -0.04 0.06 -0.05 0.06 -0.03 0.05 -0.04 0.06 -0.03 0.09 0.17 -0.05 0.03 -0.05 0.03 -0.05 0.03 -0.06 0.04 -0.06 0.04 -0.06 0.05 -0.06 0.05 -0.07 0.05 -0.06 0.06 -0.07 0.06 -0.06 0.06 -0.07 0.06 -0.07 0.06 -0.06 0.07 -0.06 0.06 -0.06 0.06 -0.06 0.07 -0.06 0.06 -0.05 0.07 -0.05 0.06 -0.05 0.06 -0.04 0.06 -0.03 0.06 -0.03 0.06 -0.03 0.05 -0.02 0.05 -0.01 0.04 -0.01 0.04 0 0.03 0 0.02 0.01 0.02 0.01 0.01 0 0zm6.67 -0.92l0.19 0 0 0 -0.01 0.17 -0.06 0.16 -0.09 0.15 -0.12 0.13 -0.14 0.13 -0.17 0.11 -0.2 0.11 -0.21 0.09 -0.23 0.09 -0.25 0.08 -0.27 0.07 -0.27 0.07 -0.29 0.05 -0.3 0.05 -0.3 0.04 -0.31 0.03 -0.3 0.03 -0.31 0.01 -0.31 0.02 -0.3 0 -0.3 -0.01 -0.29 -0.01 -0.27 -0.02 -0.27 -0.02 -0.25 -0.03 -0.23 -0.04 -0.22 -0.05 -0.19 -0.06 -0.18 -0.06 -0.15 -0.07 -0.12 -0.08 -0.1 -0.1 0.15 -0.12 0.06 0.07 0.1 0.06 0.14 0.07 0.15 0.05 0.19 0.05 0.2 0.05 0.23 0.04 0.24 0.03 0.26 0.03 0.27 0.01 0.29 0.01 0.29 0.01 0.3 0 0.3 -0.01 0.3 -0.02 0.31 -0.03 0.3 -0.03 0.3 -0.04 0.29 -0.05 0.28 -0.05 0.27 -0.06 0.25 -0.07 0.24 -0.08 0.23 -0.08 0.2 -0.09 0.18 -0.1 0.15 -0.1 0.13 -0.11 0.1 -0.11 0.07 -0.12 0.04 -0.12 0.01 -0.13 0 0zm-4.2 -1.19l-0.13 -0.14 0 0 0.12 -0.11 0.14 -0.1 0.14 -0.09 0.16 -0.08 0.16 -0.07 0.17 -0.06 0.17 -0.05 0.17 -0.03 0.18 -0.03 0.19 -0.02 0.18 -0.01 0.19 0 0.18 0.02 0.19 0.02 0.18 0.03 0.18 0.04 0.18 0.04 0.17 0.06 0.17 0.07 0.16 0.07 0.16 0.09 0.14 0.09 0.14 0.11 0.13 0.11 0.12 0.12 0.11 0.14 0.09 0.14 0.08 0.14 0.07 0.16 0.05 0.17 0.03 0.17 0.02 0.19 -0.19 0 -0.01 -0.16 -0.03 -0.16 -0.05 -0.14 -0.06 -0.14 -0.07 -0.14 -0.08 -0.12 -0.1 -0.12 -0.11 -0.11 -0.12 -0.1 -0.12 -0.1 -0.14 -0.09 -0.15 -0.08 -0.15 -0.07 -0.15 -0.06 -0.17 -0.05 -0.17 -0.05 -0.17 -0.04 -0.17 -0.03 -0.17 -0.02 -0.18 -0.01 -0.18 0 -0.17 0.01 -0.17 0.02 -0.17 0.02 -0.17 0.04 -0.16 0.04 -0.15 0.06 -0.15 0.06 -0.14 0.07 -0.14 0.09 -0.12 0.09 -0.11 0.1 0 0zm-0.23 -0.19l0.18 0.07 0 0 0 0.01 -0.01 0.02 0 0.01 -0.01 0.01 0 0.01 -0.01 0.02 0 0.01 -0.01 0.01 0 0.01 -0.01 0.01 0 0 0 0.01 0 0.01 0 0 0 0 0 -0.01 0 -0.01 -0.01 -0.02 -0.02 -0.03 -0.04 -0.02 -0.03 0 -0.01 0 -0.01 0 0 0 0.01 0 0 0 0.01 -0.01 0.01 -0.01 0.01 -0.01 0.01 -0.01 0.02 -0.01 0.02 -0.02 0.13 0.14 -0.02 0.02 -0.02 0.01 -0.01 0.02 -0.02 0.01 -0.01 0.01 -0.02 0.01 -0.01 0.01 -0.01 0.01 -0.02 0.01 -0.01 0 -0.03 0.01 -0.03 -0.01 -0.04 -0.02 -0.03 -0.03 -0.01 -0.03 0 -0.02 0 -0.02 0 -0.01 0.01 -0.01 0 -0.01 0 -0.02 0.01 -0.01 0 -0.01 0.01 -0.01 0 -0.01 0 -0.01 0.01 -0.02 0 -0.01 0.01 -0.01 0 -0.01 0.01 -0.02 0 -0.01 0 0z"/>
    </g>
    <g>
     <path class="fil2" d="M7.08 4.37c0.31,0.09 0.52,0.46 0.52,0.79 0,0.6 -0.93,1.06 -1.42,1.24 -0.49,0.18 -1.32,0.38 -1.33,0.34 -0.01,-0.03 0.27,-0.07 0.42,-0.11 0.34,-0.08 0.84,-0.24 1.28,-0.48 0.46,-0.25 0.81,-0.56 0.84,-0.93 0.04,-0.48 -0.31,-0.57 -0.38,-0.61 -0.04,-0.03 0.01,-0.26 0.07,-0.24z"/>
     <path id="1" class="fil1" d="M7.61 5.16l-0.03 0 0 0 0 -0.03 0 -0.03 0 -0.03 -0.01 -0.03 0 -0.03 -0.01 -0.03 -0.01 -0.03 0 -0.03 -0.01 -0.03 -0.01 -0.03 -0.02 -0.03 -0.01 -0.03 -0.01 -0.03 -0.02 -0.03 -0.01 -0.03 -0.02 -0.03 -0.01 -0.02 -0.02 -0.03 -0.02 -0.02 -0.02 -0.03 -0.02 -0.02 -0.02 -0.02 -0.02 -0.02 -0.03 -0.02 -0.02 -0.02 -0.02 -0.02 -0.03 -0.01 -0.02 -0.02 -0.03 -0.01 -0.03 -0.01 -0.02 -0.01 -0.03 -0.01 0.01 -0.03 0.03 0.01 0.02 0.01 0.03 0.01 0.03 0.01 0.03 0.02 0.02 0.02 0.03 0.01 0.02 0.02 0.03 0.03 0.02 0.02 0.02 0.02 0.02 0.02 0.02 0.03 0.02 0.02 0.02 0.03 0.02 0.03 0.02 0.03 0.01 0.02 0.02 0.03 0.01 0.03 0.01 0.03 0.02 0.03 0.01 0.04 0.01 0.03 0 0.03 0.01 0.03 0.01 0.03 0 0.03 0.01 0.04 0 0.03 0 0.03 0 0.03 0 0zm-1.42 1.26l-0.02 -0.03 0 0 0.05 -0.02 0.05 -0.02 0.05 -0.02 0.05 -0.02 0.06 -0.03 0.05 -0.02 0.06 -0.03 0.06 -0.03 0.06 -0.03 0.06 -0.03 0.06 -0.03 0.05 -0.04 0.06 -0.03 0.06 -0.04 0.06 -0.04 0.05 -0.04 0.06 -0.04 0.05 -0.04 0.05 -0.04 0.05 -0.04 0.04 -0.05 0.04 -0.04 0.04 -0.05 0.04 -0.05 0.03 -0.05 0.03 -0.05 0.03 -0.05 0.02 -0.05 0.02 -0.05 0.01 -0.05 0.01 -0.06 0 -0.05 0.03 0 0 0.06 -0.01 0.05 -0.01 0.06 -0.02 0.05 -0.02 0.06 -0.03 0.05 -0.03 0.05 -0.03 0.05 -0.04 0.05 -0.04 0.05 -0.05 0.04 -0.04 0.05 -0.05 0.04 -0.05 0.05 -0.06 0.04 -0.05 0.04 -0.06 0.04 -0.05 0.04 -0.06 0.03 -0.06 0.04 -0.06 0.03 -0.06 0.04 -0.06 0.03 -0.06 0.03 -0.05 0.03 -0.06 0.02 -0.06 0.03 -0.05 0.02 -0.06 0.03 -0.05 0.02 -0.05 0.02 -0.04 0.02 0 0zm-1.36 0.32l0.03 -0.01 0 0 0 0 0 0 0.01 0 0.02 0 0.02 0 0.02 -0.01 0.03 0 0.03 -0.01 0.03 0 0.04 -0.01 0.04 -0.01 0.04 -0.01 0.05 -0.01 0.04 -0.01 0.05 -0.01 0.05 -0.01 0.05 -0.01 0.06 -0.02 0.05 -0.01 0.05 -0.02 0.06 -0.01 0.05 -0.02 0.06 -0.01 0.05 -0.02 0.06 -0.01 0.05 -0.02 0.06 -0.02 0.05 -0.02 0.05 -0.01 0.05 -0.02 0.05 -0.02 0.04 -0.01 0.02 0.03 -0.05 0.01 -0.05 0.02 -0.05 0.02 -0.05 0.01 -0.05 0.02 -0.06 0.02 -0.05 0.02 -0.06 0.01 -0.05 0.02 -0.06 0.01 -0.05 0.02 -0.06 0.01 -0.05 0.02 -0.06 0.01 -0.05 0.02 -0.05 0.01 -0.05 0.01 -0.05 0.01 -0.05 0.01 -0.04 0.01 -0.04 0.01 -0.04 0.01 -0.04 0.01 -0.03 0 -0.04 0.01 -0.02 0 -0.03 0.01 -0.02 0 -0.02 0 -0.01 0 -0.01 -0.01 -0.02 -0.01 0 0zm0.44 -0.13l0 0.03 0 0 -0.01 0.01 -0.02 0 -0.01 0 -0.02 0.01 -0.02 0 -0.01 0.01 -0.02 0 -0.02 0 -0.02 0.01 -0.01 0 -0.02 0 -0.02 0.01 -0.02 0 -0.01 0 -0.02 0.01 -0.02 0 -0.01 0 -0.02 0.01 -0.01 0 -0.02 0 -0.01 0.01 -0.01 0 -0.01 0 -0.02 0.01 0 0 -0.01 0 -0.01 0.01 0 0 -0.01 0 0 0 0 0 0 -0.01 -0.03 0.01 0 -0.01 0.01 -0.01 0 0 0.01 -0.01 0.01 0 0.01 -0.01 0 0 0.01 0 0.02 -0.01 0.01 0 0.01 0 0.01 -0.01 0.02 0 0.01 0 0.02 -0.01 0.02 0 0.01 0 0.02 -0.01 0.02 0 0.01 0 0.02 -0.01 0.02 0 0.02 -0.01 0.01 0 0.02 0 0.02 -0.01 0.02 0 0.01 0 0.02 -0.01 0.02 0 0.01 0 0.02 -0.01 0 0zm1.27 -0.47l0.02 0.03 0 0 -0.05 0.02 -0.04 0.02 -0.04 0.02 -0.04 0.02 -0.04 0.02 -0.05 0.02 -0.04 0.02 -0.04 0.02 -0.05 0.02 -0.04 0.02 -0.04 0.02 -0.05 0.01 -0.04 0.02 -0.04 0.01 -0.04 0.02 -0.04 0.02 -0.05 0.01 -0.04 0.01 -0.04 0.02 -0.04 0.01 -0.04 0.01 -0.04 0.02 -0.04 0.01 -0.04 0.01 -0.03 0.01 -0.04 0.01 -0.04 0.01 -0.03 0.01 -0.04 0.01 -0.03 0.01 -0.04 0.01 -0.03 0 0 -0.03 0.03 0 0.03 -0.01 0.03 -0.01 0.04 -0.01 0.03 -0.01 0.04 -0.01 0.04 -0.01 0.03 -0.01 0.04 -0.01 0.04 -0.01 0.04 -0.02 0.04 -0.01 0.04 -0.01 0.04 -0.02 0.04 -0.01 0.04 -0.01 0.05 -0.02 0.04 -0.01 0.04 -0.02 0.04 -0.02 0.05 -0.01 0.04 -0.02 0.04 -0.02 0.04 -0.02 0.05 -0.02 0.04 -0.02 0.04 -0.02 0.04 -0.02 0.05 -0.02 0.04 -0.02 0.04 -0.02 0.04 -0.02 0 0zm0.83 -0.92l0.03 0 0 0 0 0.04 -0.01 0.03 0 0.04 -0.01 0.03 -0.01 0.04 -0.02 0.03 -0.01 0.03 -0.02 0.03 -0.02 0.04 -0.01 0.03 -0.03 0.03 -0.02 0.03 -0.02 0.03 -0.03 0.03 -0.02 0.03 -0.03 0.03 -0.03 0.03 -0.03 0.03 -0.03 0.03 -0.03 0.03 -0.04 0.03 -0.03 0.02 -0.04 0.03 -0.03 0.03 -0.04 0.02 -0.04 0.03 -0.04 0.02 -0.04 0.03 -0.04 0.02 -0.04 0.03 -0.04 0.02 -0.04 0.03 -0.02 -0.03 0.04 -0.02 0.05 -0.03 0.04 -0.02 0.04 -0.03 0.04 -0.02 0.04 -0.03 0.03 -0.02 0.04 -0.03 0.04 -0.02 0.03 -0.03 0.03 -0.03 0.04 -0.03 0.03 -0.02 0.03 -0.03 0.03 -0.03 0.03 -0.03 0.02 -0.03 0.03 -0.03 0.02 -0.03 0.03 -0.03 0.02 -0.03 0.02 -0.03 0.02 -0.03 0.01 -0.03 0.02 -0.03 0.01 -0.03 0.02 -0.04 0.01 -0.03 0.01 -0.03 0 -0.03 0.01 -0.04 0 -0.03 0 0zm-0.37 -0.6l0.02 -0.02 0 0 0 0 0.01 0 0.01 0.01 0.01 0 0.02 0.01 0.01 0 0.01 0.01 0.02 0.01 0.02 0.01 0.01 0.01 0.02 0.01 0.02 0.01 0.02 0.01 0.01 0.02 0.02 0.01 0.02 0.02 0.02 0.02 0.01 0.02 0.02 0.02 0.02 0.02 0.01 0.02 0.01 0.03 0.02 0.02 0.01 0.03 0.01 0.03 0.01 0.04 0 0.03 0.01 0.04 0 0.03 0.01 0.04 0 0.05 -0.01 0.04 -0.03 0 0 -0.04 0 -0.04 0 -0.04 0 -0.04 -0.01 -0.03 0 -0.04 -0.01 -0.03 -0.01 -0.03 -0.01 -0.02 -0.01 -0.03 -0.02 -0.02 -0.01 -0.02 -0.02 -0.03 -0.01 -0.01 -0.02 -0.02 -0.01 -0.02 -0.02 -0.01 -0.02 -0.02 -0.01 -0.01 -0.02 -0.01 -0.02 -0.01 -0.01 -0.01 -0.02 -0.01 -0.01 -0.01 -0.02 -0.01 -0.01 -0.01 -0.02 0 -0.01 -0.01 -0.01 0 -0.01 -0.01 -0.01 0 -0.01 -0.01 0 0zm0.09 -0.26l-0.01 0.03 0 0 -0.01 0 0 0 0 0 0 0 -0.01 0 0 0.01 -0.01 0 0 0.01 0 0 -0.01 0.01 0 0.01 -0.01 0.01 0 0.01 0 0.01 -0.01 0.01 0 0.01 0 0.01 0 0.01 -0.01 0.01 0 0.01 0 0.01 0 0.01 0 0.01 0 0.01 0 0.01 0 0 0 0.01 0 0.01 0 0 0.01 0 0 0 0 0.01 -0.02 0.02 -0.01 0 0 -0.01 0 -0.01 -0.01 -0.01 0 0 0 -0.01 0 -0.01 0 -0.01 0 -0.01 0 -0.01 0 -0.01 0 -0.01 0 -0.02 0.01 -0.01 0 -0.01 0 -0.01 0 -0.01 0.01 -0.01 0 -0.01 0 -0.01 0.01 -0.01 0 -0.01 0.01 -0.01 0 -0.01 0.01 -0.01 0.01 -0.01 0 0 0.01 -0.01 0.01 0 0.01 0 0.01 0 0.01 0 0 0z"/>
    </g>
    <g>
     <path class="fil2" d="M0.21 5.4c0.06,0.03 0.2,0.18 0.23,0.15 0.08,-0.07 -0.02,-0.51 -0.13,-0.53 -0.09,-0.02 -0.16,0.35 -0.1,0.38z"/>
     <path id="1" class="fil1" d="M0.42 5.53l0.04 0.04 0 0 -0.01 0.01 -0.01 0 -0.01 0 -0.01 0 -0.01 0 -0.01 0 -0.01 -0.01 0 0 -0.01 -0.01 -0.01 0 -0.01 -0.01 -0.01 0 -0.01 -0.01 0 -0.01 -0.01 0 -0.01 -0.01 -0.01 -0.01 -0.01 -0.01 -0.01 0 -0.01 -0.01 0 -0.01 -0.01 0 -0.01 -0.01 -0.01 -0.01 -0.01 0 0 -0.01 -0.01 -0.01 -0.01 0 0 -0.01 -0.01 0 -0.01 0 0 0 0.03 -0.06 0 0.01 0.01 0 0.01 0.01 0.01 0 0 0.01 0.01 0 0.01 0.01 0.01 0.01 0.01 0 0.01 0.01 0 0.01 0.01 0 0.01 0.01 0.01 0.01 0.01 0.01 0.01 0 0 0.01 0.01 0.01 0.01 0 0.01 0.01 0.01 0 0 0.01 0.01 0 0.01 0.01 0 0 0.01 0 0 0 0 0 0 0 0 0 0 0.01 -0.01 0 0 0zm-0.11 -0.49l0.01 -0.05 0 0 0.01 0 0.02 0.01 0.01 0.01 0.01 0.01 0.02 0.02 0.01 0.01 0.01 0.02 0.01 0.01 0.01 0.02 0 0.02 0.01 0.02 0.01 0.03 0.01 0.02 0 0.02 0.01 0.02 0.01 0.03 0 0.02 0.01 0.03 0 0.02 0 0.02 0.01 0.03 0 0.02 0 0.02 0 0.02 0 0.02 0 0.02 0 0.02 -0.01 0.01 0 0.02 -0.01 0.02 -0.01 0.01 -0.01 0.01 -0.04 -0.04 0.01 -0.01 0 0 0 -0.01 0 -0.01 0.01 -0.01 0 -0.02 0 -0.01 0 -0.02 0 -0.02 0 -0.02 0 -0.02 -0.01 -0.02 0 -0.02 0 -0.02 -0.01 -0.03 0 -0.02 -0.01 -0.02 0 -0.02 -0.01 -0.02 -0.01 -0.02 0 -0.02 -0.01 -0.02 -0.01 -0.02 -0.01 -0.02 0 -0.01 -0.01 -0.02 -0.01 -0.01 -0.01 -0.01 -0.01 -0.01 0 0 -0.01 0 0 -0.01 0 0zm-0.08 0.33l-0.03 0.06 0 0 -0.01 -0.01 -0.01 -0.01 -0.01 -0.02 0 -0.01 -0.01 -0.01 0 -0.02 0 -0.01 0 -0.02 0 -0.01 0 -0.02 0 -0.02 0 -0.01 0 -0.02 0.01 -0.02 0 -0.02 0.01 -0.02 0 -0.02 0 -0.01 0.01 -0.02 0.01 -0.02 0 -0.02 0.01 -0.01 0.01 -0.02 0 -0.01 0.01 -0.01 0.01 -0.02 0.01 -0.01 0.01 -0.01 0.01 0 0.02 -0.01 0.01 0 0.02 0 -0.01 0.05 0 0 0 0.01 -0.01 0 0 0 -0.01 0 0 0.01 -0.01 0.01 0 0.01 -0.01 0.01 -0.01 0.01 0 0.02 -0.01 0.01 0 0.02 -0.01 0.01 0 0.02 -0.01 0.02 0 0.01 0 0.02 -0.01 0.02 0 0.01 0 0.02 0 0.01 0 0.02 0 0.01 0 0.01 0 0.02 0 0.01 0 0 0.01 0.01 0 0 0 0 0 0 0 0z"/>
    </g>
    <g>
     <path class="fil2" d="M1.16 4.61c0.06,0.07 0.21,0.08 0.28,0.01 0.07,-0.06 -0.01,-0.26 -0.11,-0.27 -0.13,-0.01 -0.25,0.17 -0.17,0.26z"/>
     <path id="1" class="fil1" d="M1.42 4.6l0.04 0.05 0 0 -0.01 0 -0.01 0.01 -0.01 0.01 -0.01 0 -0.01 0.01 -0.01 0 -0.01 0 -0.01 0.01 -0.01 0 -0.01 0 -0.01 0 -0.01 0.01 -0.01 0 -0.01 0 -0.02 0 -0.01 0 -0.01 -0.01 -0.01 0 -0.01 0 -0.01 0 -0.01 0 -0.01 -0.01 -0.01 0 -0.01 0 -0.01 -0.01 -0.01 0 -0.01 -0.01 -0.01 -0.01 -0.01 0 -0.01 -0.01 -0.01 -0.01 -0.01 0 0.05 -0.04 0 0 0.01 0.01 0 0 0.01 0.01 0.01 0 0 0.01 0.01 0 0.01 0 0.01 0.01 0 0 0.01 0 0.01 0 0.01 0.01 0.01 0 0.01 0 0.01 0 0.01 0 0 0 0.01 0 0.01 0 0.01 0 0.01 0 0.01 -0.01 0.01 0 0 0 0.01 0 0.01 -0.01 0.01 0 0 0 0.01 -0.01 0 0 0.01 -0.01 0 0zm-0.1 -0.22l0.01 -0.06 0 0 0.01 0.01 0.01 0 0.02 0 0.01 0.01 0.01 0.01 0.01 0 0.01 0.01 0.01 0.01 0.01 0.01 0.01 0.01 0 0.01 0.01 0.01 0.01 0.01 0 0.01 0.01 0.01 0 0.02 0.01 0.01 0 0.01 0.01 0.01 0 0.02 0 0.01 0 0.01 0 0.02 0 0.01 0 0.01 0 0.01 0 0.01 -0.01 0.01 0 0.02 -0.01 0.01 0 0.01 -0.01 0.01 -0.04 -0.05 0 0 0.01 0 0 -0.01 0 0 0 -0.01 0.01 -0.01 0 -0.01 0 0 0 -0.01 0 -0.01 0 -0.01 -0.01 -0.01 0 -0.01 0 -0.01 0 -0.01 -0.01 -0.01 0 -0.01 -0.01 -0.01 0 -0.01 -0.01 -0.01 0 -0.01 -0.01 -0.01 -0.01 0 0 -0.01 -0.01 -0.01 0 0 -0.01 -0.01 -0.01 0 -0.01 0 0 -0.01 -0.01 0 -0.01 0 0 0zm-0.14 0.21l-0.05 0.04 0 0 0 -0.02 -0.01 -0.01 -0.01 -0.01 0 -0.01 -0.01 -0.02 0 -0.01 0 -0.01 0 -0.01 0 -0.02 0.01 -0.01 0 -0.01 0.01 -0.02 0 -0.01 0.01 -0.01 0 -0.01 0.01 -0.01 0.01 -0.01 0.01 -0.02 0.01 -0.01 0.01 0 0.01 -0.01 0.01 -0.01 0.01 -0.01 0.01 -0.01 0.01 0 0.02 -0.01 0.01 -0.01 0.01 0 0.02 0 0.01 0 0.01 -0.01 0.02 0 -0.01 0.06 -0.01 0 0 0 -0.01 0 -0.01 0.01 -0.01 0 -0.01 0 -0.01 0.01 -0.01 0 -0.01 0.01 -0.01 0 -0.01 0.01 0 0.01 -0.01 0 -0.01 0.01 -0.01 0.01 0 0.01 -0.01 0.01 0 0.01 -0.01 0.01 0 0 0 0.01 -0.01 0.01 0 0.01 0 0.01 0 0.01 0 0.01 0 0 0 0.01 0 0.01 0.01 0.01 0 0 0.01 0.01 0 0z"/>
    </g>
   </g>
   <g>
    <g>
     <path class="fil0" d="M6.37 1.39c0.19,-0.28 -0.07,-0.84 -0.53,-0.53 -0.47,0.3 -0.16,0.71 0.19,0.79 0.12,0.02 -0.36,0.62 -0.4,0.68 -0.09,0.15 -0.41,0.49 -0.2,0.64 0.02,0.01 0.05,0.04 0.07,0.05 0.22,0.12 0.4,-0.3 0.51,-0.44 0.04,-0.06 0.41,-0.73 0.47,-0.63 0.21,0.29 0.71,0.42 0.81,-0.13 0.1,-0.55 -0.52,-0.58 -0.7,-0.28 -0.1,0.18 -0.33,0 -0.22,-0.15z"/>
     <path id="1" class="fil1" d="M5.87 0.91l-0.07 -0.11 0 0 0.05 -0.02 0.05 -0.03 0.04 -0.02 0.05 -0.01 0.04 -0.01 0.04 0 0.04 -0.01 0.04 0.01 0.04 0.01 0.04 0.01 0.03 0.01 0.04 0.02 0.03 0.03 0.02 0.02 0.03 0.03 0.02 0.02 0.02 0.04 0.02 0.03 0.01 0.03 0.02 0.03 0.01 0.04 0.01 0.04 0 0.03 0 0.04 0.01 0.04 -0.01 0.03 0 0.04 -0.01 0.04 -0.01 0.03 -0.01 0.04 -0.02 0.03 -0.02 0.03 -0.11 -0.07 0.02 -0.02 0.01 -0.03 0.01 -0.02 0.01 -0.03 0 -0.02 0.01 -0.03 0 -0.03 0 -0.02 0 -0.03 -0.01 -0.03 0 -0.03 -0.01 -0.02 -0.01 -0.03 -0.01 -0.03 -0.02 -0.02 -0.01 -0.02 -0.02 -0.02 -0.02 -0.02 -0.01 -0.02 -0.02 -0.01 -0.03 -0.01 -0.02 -0.01 -0.02 -0.01 -0.03 -0.01 -0.02 0 -0.03 0 -0.03 0 -0.03 0.01 -0.04 0.01 -0.03 0.02 -0.04 0.02 -0.04 0.02 0 0zm0.17 0.67l-0.03 0.13 0 0 -0.03 -0.01 -0.04 -0.01 -0.03 -0.01 -0.04 -0.02 -0.03 -0.02 -0.03 -0.01 -0.03 -0.02 -0.03 -0.02 -0.03 -0.03 -0.03 -0.02 -0.02 -0.03 -0.03 -0.03 -0.02 -0.02 -0.02 -0.03 -0.02 -0.04 -0.01 -0.03 -0.01 -0.03 -0.01 -0.04 -0.01 -0.03 0 -0.04 0 -0.03 0 -0.04 0.01 -0.04 0.01 -0.03 0.02 -0.04 0.02 -0.04 0.02 -0.03 0.03 -0.04 0.03 -0.03 0.04 -0.03 0.04 -0.04 0.04 -0.03 0.07 0.11 -0.04 0.03 -0.03 0.02 -0.03 0.03 -0.03 0.03 -0.02 0.02 -0.01 0.03 -0.02 0.02 -0.01 0.03 -0.01 0.03 0 0.02 -0.01 0.02 0 0.03 0.01 0.02 0 0.03 0.01 0.02 0.01 0.02 0.01 0.03 0.01 0.02 0.01 0.02 0.02 0.03 0.02 0.02 0.02 0.02 0.02 0.02 0.02 0.01 0.03 0.02 0.02 0.02 0.03 0.01 0.03 0.02 0.02 0.01 0.03 0.01 0.03 0.01 0.03 0 0 0zm-0.36 0.78l-0.1 -0.06 0 0 0 -0.01 0.01 -0.01 0.01 -0.02 0.01 -0.01 0.02 -0.02 0.01 -0.02 0.02 -0.02 0.02 -0.03 0.01 -0.02 0.02 -0.03 0.02 -0.03 0.02 -0.02 0.02 -0.03 0.03 -0.03 0.02 -0.03 0.02 -0.03 0.02 -0.03 0.02 -0.03 0.01 -0.03 0.02 -0.03 0.02 -0.02 0.01 -0.03 0.01 -0.02 0.01 -0.02 0.01 -0.02 0.01 -0.02 0 -0.01 0 0 0 0 0.01 0.01 0.01 0.01 0.01 0.01 0.03 -0.13 0.03 0.02 0.03 0.03 0.01 0.03 0 0.03 0 0.02 -0.01 0.02 -0.01 0.03 -0.01 0.02 -0.01 0.03 -0.02 0.02 -0.01 0.03 -0.02 0.03 -0.02 0.03 -0.02 0.03 -0.02 0.03 -0.02 0.03 -0.02 0.03 -0.02 0.03 -0.02 0.03 -0.02 0.03 -0.02 0.03 -0.02 0.03 -0.02 0.02 -0.02 0.03 -0.02 0.02 -0.02 0.02 -0.01 0.02 -0.02 0.02 -0.01 0.02 -0.01 0.01 0 0.01 -0.01 0 0 0zm-0.21 0.56l-0.08 0.1 0 0 -0.02 -0.02 -0.02 -0.02 -0.02 -0.02 -0.01 -0.03 -0.01 -0.02 -0.01 -0.03 0 -0.03 0 -0.02 0 -0.03 0 -0.03 0.01 -0.02 0.01 -0.03 0.01 -0.02 0.01 -0.03 0.01 -0.02 0.01 -0.03 0.01 -0.02 0.02 -0.03 0.01 -0.02 0.02 -0.02 0.01 -0.03 0.02 -0.02 0.01 -0.02 0.02 -0.02 0.01 -0.02 0.02 -0.02 0.01 -0.02 0.01 -0.02 0.02 -0.02 0.01 -0.01 0.01 -0.02 0.01 -0.01 0.1 0.06 -0.01 0.02 -0.01 0.02 -0.01 0.01 -0.01 0.02 -0.02 0.02 -0.01 0.02 -0.01 0.02 -0.02 0.02 -0.01 0.02 -0.02 0.02 -0.01 0.02 -0.02 0.02 -0.01 0.03 -0.01 0.02 -0.01 0.02 -0.02 0.02 -0.01 0.02 -0.01 0.02 -0.01 0.02 0 0.02 -0.01 0.02 0 0.02 0 0.02 -0.01 0.01 0 0.01 0.01 0.02 0 0.01 0 0.01 0.01 0.01 0.01 0.01 0.01 0.01 0.01 0.01 0 0zm0.06 0.04l-0.06 0.11 0 0 0 0 0 0 0 0 -0.01 0 0 0 0 0 0 -0.01 -0.01 0 0 0 0 0 0 0 -0.01 0 0 -0.01 0 0 -0.01 0 0 0 0 0 0 -0.01 -0.01 0 0 0 0 0 0 0 -0.01 0 0 -0.01 0 0 0 0 -0.01 0 0 0 0 0 0 -0.01 -0.01 0 0 0 0.08 -0.1 0 0 0 0 0 0 0 0 0.01 0.01 0 0 0 0 0 0 0 0 0.01 0 0 0 0 0.01 0 0 0.01 0 0 0 0 0 0 0 0.01 0.01 0 0 0 0 0 0 0.01 0 0 0 0 0.01 0 0 0 0 0.01 0 0 0 0 0 0 0 0 0 0 0 0 0zm-0.06 0.11l0 0 0 0 0 0zm0.48 -0.53l0.11 0.08 0 0 -0.01 0.01 -0.01 0.02 -0.01 0.01 -0.01 0.02 -0.01 0.02 -0.02 0.02 -0.01 0.02 -0.01 0.02 -0.02 0.02 -0.01 0.02 -0.01 0.03 -0.02 0.02 -0.01 0.02 -0.02 0.02 -0.02 0.03 -0.01 0.02 -0.02 0.02 -0.02 0.02 -0.02 0.02 -0.02 0.02 -0.02 0.01 -0.02 0.02 -0.02 0.01 -0.02 0.02 -0.03 0.01 -0.02 0.01 -0.03 0 -0.03 0 -0.02 0 -0.03 0 -0.03 -0.01 -0.03 -0.02 0.06 -0.11 0.02 0.01 0.01 0 0.01 0.01 0.01 0 0.01 0 0.01 -0.01 0.02 0 0.01 -0.01 0.01 0 0.02 -0.01 0.01 -0.01 0.02 -0.02 0.01 -0.01 0.02 -0.02 0.01 -0.01 0.02 -0.02 0.01 -0.02 0.02 -0.02 0.01 -0.02 0.02 -0.02 0.01 -0.02 0.01 -0.02 0.02 -0.03 0.01 -0.02 0.01 -0.02 0.02 -0.02 0.01 -0.02 0.01 -0.02 0.01 -0.02 0.01 -0.01 0.01 -0.02 0.01 -0.02 0 0zm0.59 -0.62l-0.11 0.07 0 0 0.01 0.01 0.02 0 0.01 0 0 0 0 0.01 -0.01 0 -0.01 0.02 -0.02 0.01 -0.01 0.02 -0.02 0.02 -0.02 0.02 -0.02 0.03 -0.01 0.02 -0.02 0.03 -0.02 0.03 -0.02 0.03 -0.02 0.03 -0.02 0.03 -0.02 0.03 -0.02 0.03 -0.02 0.03 -0.01 0.03 -0.02 0.03 -0.02 0.02 -0.01 0.03 -0.02 0.02 -0.01 0.03 -0.01 0.01 -0.01 0.02 -0.01 0.02 -0.01 0.01 0 0.01 -0.11 -0.08 0.01 0 0 -0.01 0.01 -0.01 0.01 -0.02 0.01 -0.02 0.02 -0.02 0.01 -0.02 0.01 -0.03 0.02 -0.03 0.02 -0.02 0.02 -0.03 0.01 -0.03 0.02 -0.04 0.02 -0.03 0.02 -0.03 0.02 -0.03 0.02 -0.03 0.02 -0.03 0.02 -0.03 0.02 -0.03 0.02 -0.02 0.02 -0.03 0.02 -0.02 0.02 -0.02 0.02 -0.02 0.02 -0.02 0.02 -0.02 0.02 -0.01 0.02 -0.01 0.03 0 0.04 0.01 0.03 0.03 0 0zm0.69 -0.11l0.12 0.02 0 0 -0.01 0.06 -0.02 0.05 -0.01 0.04 -0.02 0.05 -0.02 0.03 -0.03 0.04 -0.02 0.03 -0.03 0.03 -0.03 0.03 -0.03 0.02 -0.03 0.02 -0.04 0.01 -0.03 0.01 -0.04 0.01 -0.03 0 -0.04 0.01 -0.03 -0.01 -0.04 0 -0.03 -0.01 -0.04 -0.01 -0.03 -0.01 -0.04 -0.01 -0.03 -0.02 -0.03 -0.01 -0.03 -0.02 -0.03 -0.02 -0.03 -0.03 -0.03 -0.02 -0.03 -0.03 -0.02 -0.02 -0.03 -0.03 -0.02 -0.03 0.11 -0.07 0.01 0.02 0.02 0.02 0.02 0.02 0.03 0.03 0.02 0.02 0.02 0.01 0.03 0.02 0.02 0.02 0.03 0.01 0.02 0.01 0.03 0.01 0.03 0.01 0.02 0.01 0.03 0 0.03 0.01 0.02 0 0.03 0 0.02 -0.01 0.03 0 0.02 -0.01 0.02 -0.01 0.02 -0.01 0.02 -0.01 0.02 -0.02 0.02 -0.02 0.02 -0.02 0.02 -0.03 0.02 -0.03 0.01 -0.03 0.01 -0.04 0.02 -0.04 0.01 -0.05 0 0zm-0.58 -0.24l-0.11 -0.07 0 0 0.02 -0.03 0.02 -0.03 0.03 -0.03 0.03 -0.02 0.03 -0.02 0.03 -0.02 0.03 -0.02 0.04 -0.01 0.03 -0.01 0.04 -0.01 0.04 -0.01 0.03 0 0.04 0 0.04 0 0.03 0 0.04 0.01 0.03 0.01 0.04 0.01 0.03 0.02 0.03 0.02 0.03 0.02 0.03 0.03 0.03 0.03 0.02 0.03 0.02 0.04 0.02 0.03 0.01 0.05 0.01 0.04 0 0.05 0 0.05 0 0.05 -0.01 0.05 -0.12 -0.02 0 -0.04 0.01 -0.05 0 -0.04 -0.01 -0.03 0 -0.03 -0.01 -0.03 -0.01 -0.03 -0.02 -0.02 -0.01 -0.03 -0.02 -0.01 -0.02 -0.02 -0.02 -0.02 -0.02 -0.01 -0.02 -0.01 -0.03 -0.01 -0.02 -0.01 -0.03 0 -0.02 -0.01 -0.03 0 -0.03 0 -0.03 0.01 -0.02 0 -0.03 0.01 -0.03 0.01 -0.02 0.01 -0.03 0.01 -0.02 0.01 -0.02 0.02 -0.02 0.02 -0.02 0.02 -0.02 0.02 -0.01 0.02 0 0zm-0.34 -0.22l0.11 0.07 0 0 -0.01 0.01 0 0.01 -0.01 0.01 0 0.01 0 0 0 0.01 0 0.01 0 0.01 0 0 0.01 0.01 0 0.01 0 0 0.01 0.01 0 0.01 0.01 0 0.01 0.01 0 0 0.01 0 0.01 0.01 0 0 0.01 0 0 0 0.01 0 0.01 0 0 0 0.01 -0.01 0 0 0.01 0 0.01 -0.01 0 -0.01 0.01 0 0.01 -0.02 0.11 0.07 -0.02 0.02 -0.01 0.02 -0.02 0.01 -0.01 0.02 -0.02 0.01 -0.02 0.01 -0.02 0.01 -0.02 0 -0.02 0.01 -0.02 0 -0.02 -0.01 -0.02 0 -0.02 -0.01 -0.01 0 -0.02 -0.01 -0.02 -0.01 -0.01 -0.01 -0.02 -0.02 -0.01 -0.01 -0.01 -0.01 -0.01 -0.02 -0.01 -0.02 -0.01 -0.02 0 -0.02 0 -0.02 -0.01 -0.02 0.01 -0.02 0 -0.02 0 -0.02 0.01 -0.02 0.01 -0.02 0.01 -0.02 0 0z"/>
    </g>
    <g>
     <path class="fil0" d="M2.54 3.1c0.31,-0.79 -0.45,-1.2 -1.19,-0.82 -0.73,0.37 -0.68,1.31 0.35,1.26 0.19,-0.01 0.05,0.06 -0.15,0.17 -0.49,0.27 -1.68,1.38 -1.42,1.71 0.72,0.89 6.91,0.65 6.85,-0.98 -0.07,-1.88 -3.14,-2.45 -4.37,-1.26 -0.19,0.19 -0.12,0.05 -0.07,-0.08z"/>
     <path id="1" class="fil1" d="M1.39 2.36l-0.08 -0.17 0 0 0.07 -0.03 0.07 -0.03 0.08 -0.03 0.07 -0.02 0.07 -0.02 0.08 -0.01 0.07 -0.01 0.07 0 0.07 0 0.07 0.01 0.06 0.01 0.07 0.01 0.06 0.02 0.06 0.02 0.06 0.03 0.05 0.03 0.05 0.03 0.05 0.04 0.04 0.05 0.04 0.04 0.04 0.05 0.03 0.06 0.02 0.06 0.02 0.06 0.02 0.06 0.01 0.07 0 0.07 0 0.07 -0.01 0.07 -0.02 0.08 -0.02 0.07 -0.03 0.08 -0.18 -0.07 0.03 -0.07 0.02 -0.06 0.01 -0.06 0.01 -0.06 0 -0.05 0 -0.06 -0.01 -0.05 -0.01 -0.04 -0.01 -0.05 -0.02 -0.04 -0.02 -0.04 -0.03 -0.03 -0.03 -0.04 -0.03 -0.03 -0.03 -0.03 -0.04 -0.02 -0.04 -0.02 -0.05 -0.02 -0.04 -0.02 -0.05 -0.02 -0.05 -0.01 -0.06 -0.01 -0.05 0 -0.06 0 -0.06 0 -0.06 0.01 -0.06 0.01 -0.06 0.01 -0.06 0.02 -0.07 0.02 -0.06 0.03 -0.07 0.03 0 0zm0.3 1.09l0.01 0.19 0 0 -0.1 0 -0.09 -0.01 -0.09 -0.01 -0.08 -0.01 -0.08 -0.02 -0.07 -0.03 -0.07 -0.03 -0.06 -0.03 -0.06 -0.04 -0.05 -0.04 -0.05 -0.05 -0.04 -0.05 -0.03 -0.06 -0.02 -0.05 -0.03 -0.06 -0.01 -0.06 -0.01 -0.06 0 -0.07 0 -0.06 0.01 -0.06 0.02 -0.06 0.02 -0.07 0.03 -0.06 0.03 -0.06 0.04 -0.06 0.04 -0.05 0.05 -0.06 0.05 -0.05 0.06 -0.05 0.06 -0.04 0.06 -0.05 0.08 -0.04 0.08 0.17 -0.06 0.03 -0.05 0.04 -0.06 0.04 -0.04 0.04 -0.05 0.04 -0.03 0.05 -0.04 0.04 -0.03 0.05 -0.02 0.05 -0.02 0.04 -0.02 0.05 -0.01 0.04 -0.01 0.05 0 0.05 0 0.04 0.01 0.04 0.01 0.04 0.01 0.04 0.02 0.04 0.02 0.04 0.03 0.03 0.03 0.04 0.04 0.03 0.04 0.03 0.04 0.02 0.06 0.03 0.05 0.02 0.07 0.01 0.07 0.02 0.07 0 0.08 0.01 0.09 0 0 0zm-0.09 0.34l-0.09 -0.17 0 0 0.01 -0.01 0.02 -0.01 0.02 -0.01 0.02 0 0.01 -0.01 0.02 -0.01 0.01 -0.01 0.02 -0.01 0.01 -0.01 0.01 0 0.01 -0.01 0.01 -0.01 0.01 0 0.01 -0.01 0 0 0.01 0 0 0 0 0 0 0 -0.01 0.01 -0.01 0.03 0.01 0.03 0.01 0.03 0.02 0.02 0.01 0 0.01 0.01 0 0 0 -0.01 -0.01 0 -0.01 0 -0.01 0 -0.02 0.01 -0.01 -0.19 0.02 0 0.02 -0.01 0.02 0.01 0.01 0 0.02 0 0.01 0 0.02 0.01 0.02 0.01 0.03 0.02 0.02 0.04 0 0.04 -0.01 0.03 -0.01 0.02 -0.01 0.01 -0.01 0.01 -0.01 0.01 -0.01 0.01 -0.01 0.01 -0.01 0.01 -0.02 0.01 -0.01 0 -0.01 0.01 -0.02 0.01 -0.01 0.01 -0.02 0.01 -0.01 0 -0.02 0.01 -0.01 0.01 -0.02 0.01 -0.02 0.01 -0.02 0.01 -0.01 0.01 0 0zm-1.39 1.57l-0.15 0.12 0 0 -0.03 -0.05 -0.02 -0.06 -0.01 -0.06 0 -0.06 0.01 -0.06 0.02 -0.06 0.03 -0.06 0.03 -0.06 0.03 -0.07 0.04 -0.06 0.05 -0.07 0.05 -0.06 0.05 -0.07 0.06 -0.07 0.06 -0.07 0.06 -0.06 0.06 -0.07 0.07 -0.07 0.06 -0.06 0.07 -0.07 0.07 -0.06 0.07 -0.06 0.06 -0.06 0.07 -0.06 0.07 -0.06 0.07 -0.05 0.06 -0.05 0.06 -0.04 0.06 -0.05 0.06 -0.03 0.05 -0.04 0.06 -0.03 0.09 0.17 -0.05 0.03 -0.05 0.03 -0.05 0.03 -0.06 0.04 -0.06 0.04 -0.06 0.05 -0.06 0.05 -0.07 0.05 -0.06 0.06 -0.07 0.06 -0.06 0.06 -0.07 0.06 -0.07 0.06 -0.06 0.07 -0.06 0.06 -0.06 0.06 -0.06 0.07 -0.06 0.06 -0.05 0.07 -0.05 0.06 -0.05 0.06 -0.04 0.06 -0.03 0.06 -0.03 0.06 -0.03 0.05 -0.02 0.05 -0.01 0.04 -0.01 0.04 0 0.03 0 0.02 0.01 0.02 0.01 0.01 0 0zm6.67 -0.92l0.19 0 0 0 -0.01 0.17 -0.06 0.16 -0.09 0.15 -0.12 0.13 -0.14 0.13 -0.17 0.11 -0.2 0.11 -0.21 0.09 -0.23 0.09 -0.25 0.08 -0.27 0.07 -0.27 0.07 -0.29 0.05 -0.3 0.05 -0.3 0.04 -0.31 0.03 -0.3 0.03 -0.31 0.01 -0.31 0.02 -0.3 0 -0.3 -0.01 -0.29 -0.01 -0.27 -0.02 -0.27 -0.02 -0.25 -0.03 -0.23 -0.04 -0.22 -0.05 -0.19 -0.06 -0.18 -0.06 -0.15 -0.07 -0.12 -0.08 -0.1 -0.1 0.15 -0.12 0.06 0.07 0.1 0.06 0.14 0.07 0.15 0.05 0.19 0.05 0.2 0.05 0.23 0.04 0.24 0.03 0.26 0.03 0.27 0.01 0.29 0.01 0.29 0.01 0.3 0 0.3 -0.01 0.3 -0.02 0.31 -0.03 0.3 -0.03 0.3 -0.04 0.29 -0.05 0.28 -0.05 0.27 -0.06 0.25 -0.07 0.24 -0.08 0.23 -0.08 0.2 -0.09 0.18 -0.1 0.15 -0.1 0.13 -0.11 0.1 -0.11 0.07 -0.12 0.04 -0.12 0.01 -0.13 0 0zm-4.2 -1.19l-0.13 -0.14 0 0 0.12 -0.11 0.14 -0.1 0.14 -0.09 0.16 -0.08 0.16 -0.07 0.17 -0.06 0.17 -0.05 0.17 -0.03 0.18 -0.03 0.19 -0.02 0.18 -0.01 0.19 0 0.18 0.02 0.19 0.02 0.18 0.03 0.18 0.04 0.18 0.04 0.17 0.06 0.17 0.07 0.16 0.07 0.16 0.09 0.14 0.09 0.14 0.11 0.13 0.11 0.12 0.12 0.11 0.14 0.09 0.14 0.08 0.14 0.07 0.16 0.05 0.17 0.03 0.17 0.02 0.19 -0.19 0 -0.01 -0.16 -0.03 -0.16 -0.05 -0.14 -0.06 -0.14 -0.07 -0.14 -0.08 -0.12 -0.1 -0.12 -0.11 -0.11 -0.12 -0.1 -0.12 -0.1 -0.14 -0.09 -0.15 -0.08 -0.15 -0.07 -0.15 -0.06 -0.17 -0.05 -0.17 -0.05 -0.17 -0.04 -0.17 -0.03 -0.17 -0.02 -0.18 -0.01 -0.18 0 -0.17 0.01 -0.17 0.02 -0.17 0.02 -0.17 0.04 -0.16 0.04 -0.15 0.06 -0.15 0.06 -0.14 0.07 -0.14 0.09 -0.12 0.09 -0.11 0.1 0 0zm-0.23 -0.19l0.18 0.07 0 0 0 0.01 -0.01 0.02 0 0.01 -0.01 0.01 0 0.01 -0.01 0.02 0 0.01 -0.01 0.01 0 0.01 -0.01 0.01 0 0 0 0.01 0 0.01 0 0 0 0 0 -0.01 0 -0.01 -0.01 -0.02 -0.02 -0.03 -0.04 -0.02 -0.03 0 -0.01 0 -0.01 0 0 0 0.01 0 0 0 0.01 -0.01 0.01 -0.01 0.01 -0.01 0.01 -0.01 0.02 -0.01 0.02 -0.02 0.13 0.14 -0.02 0.02 -0.02 0.01 -0.01 0.02 -0.02 0.01 -0.01 0.01 -0.02 0.01 -0.01 0.01 -0.01 0.01 -0.02 0.01 -0.01 0 -0.03 0.01 -0.03 -0.01 -0.04 -0.02 -0.03 -0.03 -0.01 -0.03 0 -0.02 0 -0.02 0 -0.01 0.01 -0.01 0 -0.01 0 -0.02 0.01 -0.01 0 -0.01 0.01 -0.01 0 -0.01 0 -0.01 0.01 -0.02 0 -0.01 0.01 -0.01 0 -0.01 0.01 -0.02 0 -0.01 0 0z"/>
    </g>
    <g>
     <path class="fil2" d="M7.08 4.37c0.31,0.09 0.52,0.46 0.52,0.79 0,0.6 -0.93,1.06 -1.42,1.24 -0.49,0.18 -1.32,0.38 -1.33,0.34 -0.01,-0.03 0.27,-0.07 0.42,-0.11 0.34,-0.08 0.84,-0.24 1.28,-0.48 0.46,-0.25 0.81,-0.56 0.84,-0.93 0.04,-0.48 -0.31,-0.57 -0.38,-0.61 -0.04,-0.03 0.01,-0.26 0.07,-0.24z"/>
     <path id="1" class="fil1" d="M7.61 5.16l-0.03 0 0 0 0 -0.03 0 -0.03 0 -0.03 -0.01 -0.03 0 -0.03 -0.01 -0.03 -0.01 -0.03 0 -0.03 -0.01 -0.03 -0.01 -0.03 -0.02 -0.03 -0.01 -0.03 -0.01 -0.03 -0.02 -0.03 -0.01 -0.03 -0.02 -0.03 -0.01 -0.02 -0.02 -0.03 -0.02 -0.02 -0.02 -0.03 -0.02 -0.02 -0.02 -0.02 -0.02 -0.02 -0.03 -0.02 -0.02 -0.02 -0.02 -0.02 -0.03 -0.01 -0.02 -0.02 -0.03 -0.01 -0.03 -0.01 -0.02 -0.01 -0.03 -0.01 0.01 -0.03 0.03 0.01 0.02 0.01 0.03 0.01 0.03 0.01 0.03 0.02 0.02 0.02 0.03 0.01 0.02 0.02 0.03 0.03 0.02 0.02 0.02 0.02 0.02 0.02 0.02 0.03 0.02 0.02 0.02 0.03 0.02 0.03 0.02 0.03 0.01 0.02 0.02 0.03 0.01 0.03 0.01 0.03 0.02 0.03 0.01 0.04 0.01 0.03 0 0.03 0.01 0.03 0.01 0.03 0 0.03 0.01 0.04 0 0.03 0 0.03 0 0.03 0 0zm-1.42 1.26l-0.02 -0.03 0 0 0.05 -0.02 0.05 -0.02 0.05 -0.02 0.05 -0.02 0.06 -0.03 0.05 -0.02 0.06 -0.03 0.06 -0.03 0.06 -0.03 0.06 -0.03 0.06 -0.03 0.05 -0.04 0.06 -0.03 0.06 -0.04 0.06 -0.04 0.05 -0.04 0.06 -0.04 0.05 -0.04 0.05 -0.04 0.05 -0.04 0.04 -0.05 0.04 -0.04 0.04 -0.05 0.04 -0.05 0.03 -0.05 0.03 -0.05 0.03 -0.05 0.02 -0.05 0.02 -0.05 0.01 -0.05 0.01 -0.06 0 -0.05 0.03 0 0 0.06 -0.01 0.05 -0.01 0.06 -0.02 0.05 -0.02 0.06 -0.03 0.05 -0.03 0.05 -0.03 0.05 -0.04 0.05 -0.04 0.05 -0.05 0.04 -0.04 0.05 -0.05 0.04 -0.05 0.05 -0.06 0.04 -0.05 0.04 -0.06 0.04 -0.05 0.04 -0.06 0.03 -0.06 0.04 -0.06 0.03 -0.06 0.04 -0.06 0.03 -0.06 0.03 -0.05 0.03 -0.06 0.02 -0.06 0.03 -0.05 0.02 -0.06 0.03 -0.05 0.02 -0.05 0.02 -0.04 0.02 0 0zm-1.36 0.32l0.03 -0.01 0 0 0 0 0 0 0.01 0 0.02 0 0.02 0 0.02 -0.01 0.03 0 0.03 -0.01 0.03 0 0.04 -0.01 0.04 -0.01 0.04 -0.01 0.05 -0.01 0.04 -0.01 0.05 -0.01 0.05 -0.01 0.05 -0.01 0.06 -0.02 0.05 -0.01 0.05 -0.02 0.06 -0.01 0.05 -0.02 0.06 -0.01 0.05 -0.02 0.06 -0.01 0.05 -0.02 0.06 -0.02 0.05 -0.02 0.05 -0.01 0.05 -0.02 0.05 -0.02 0.04 -0.01 0.02 0.03 -0.05 0.01 -0.05 0.02 -0.05 0.02 -0.05 0.01 -0.05 0.02 -0.06 0.02 -0.05 0.02 -0.06 0.01 -0.05 0.02 -0.06 0.01 -0.05 0.02 -0.06 0.01 -0.05 0.02 -0.06 0.01 -0.05 0.02 -0.05 0.01 -0.05 0.01 -0.05 0.01 -0.05 0.01 -0.04 0.01 -0.04 0.01 -0.04 0.01 -0.04 0.01 -0.03 0 -0.04 0.01 -0.02 0 -0.03 0.01 -0.02 0 -0.02 0 -0.01 0 -0.01 -0.01 -0.02 -0.01 0 0zm0.44 -0.13l0 0.03 0 0 -0.01 0.01 -0.02 0 -0.01 0 -0.02 0.01 -0.02 0 -0.01 0.01 -0.02 0 -0.02 0 -0.02 0.01 -0.01 0 -0.02 0 -0.02 0.01 -0.02 0 -0.01 0 -0.02 0.01 -0.02 0 -0.01 0 -0.02 0.01 -0.01 0 -0.02 0 -0.01 0.01 -0.01 0 -0.01 0 -0.02 0.01 0 0 -0.01 0 -0.01 0.01 0 0 -0.01 0 0 0 0 0 0 -0.01 -0.03 0.01 0 -0.01 0.01 -0.01 0 0 0.01 -0.01 0.01 0 0.01 -0.01 0 0 0.01 0 0.02 -0.01 0.01 0 0.01 0 0.01 -0.01 0.02 0 0.01 0 0.02 -0.01 0.02 0 0.01 0 0.02 -0.01 0.02 0 0.01 0 0.02 -0.01 0.02 0 0.02 -0.01 0.01 0 0.02 0 0.02 -0.01 0.02 0 0.01 0 0.02 -0.01 0.02 0 0.01 0 0.02 -0.01 0 0zm1.27 -0.47l0.02 0.03 0 0 -0.05 0.02 -0.04 0.02 -0.04 0.02 -0.04 0.02 -0.04 0.02 -0.05 0.02 -0.04 0.02 -0.04 0.02 -0.05 0.02 -0.04 0.02 -0.04 0.02 -0.05 0.01 -0.04 0.02 -0.04 0.01 -0.04 0.02 -0.04 0.02 -0.05 0.01 -0.04 0.01 -0.04 0.02 -0.04 0.01 -0.04 0.01 -0.04 0.02 -0.04 0.01 -0.04 0.01 -0.03 0.01 -0.04 0.01 -0.04 0.01 -0.03 0.01 -0.04 0.01 -0.03 0.01 -0.04 0.01 -0.03 0 0 -0.03 0.03 0 0.03 -0.01 0.03 -0.01 0.04 -0.01 0.03 -0.01 0.04 -0.01 0.04 -0.01 0.03 -0.01 0.04 -0.01 0.04 -0.01 0.04 -0.02 0.04 -0.01 0.04 -0.01 0.04 -0.02 0.04 -0.01 0.04 -0.01 0.05 -0.02 0.04 -0.01 0.04 -0.02 0.04 -0.02 0.05 -0.01 0.04 -0.02 0.04 -0.02 0.04 -0.02 0.05 -0.02 0.04 -0.02 0.04 -0.02 0.04 -0.02 0.05 -0.02 0.04 -0.02 0.04 -0.02 0.04 -0.02 0 0zm0.83 -0.92l0.03 0 0 0 0 0.04 -0.01 0.03 0 0.04 -0.01 0.03 -0.01 0.04 -0.02 0.03 -0.01 0.03 -0.02 0.03 -0.02 0.04 -0.01 0.03 -0.03 0.03 -0.02 0.03 -0.02 0.03 -0.03 0.03 -0.02 0.03 -0.03 0.03 -0.03 0.03 -0.03 0.03 -0.03 0.03 -0.03 0.03 -0.04 0.03 -0.03 0.02 -0.04 0.03 -0.03 0.03 -0.04 0.02 -0.04 0.03 -0.04 0.02 -0.04 0.03 -0.04 0.02 -0.04 0.03 -0.04 0.02 -0.04 0.03 -0.02 -0.03 0.04 -0.02 0.05 -0.03 0.04 -0.02 0.04 -0.03 0.04 -0.02 0.04 -0.03 0.03 -0.02 0.04 -0.03 0.04 -0.02 0.03 -0.03 0.03 -0.03 0.04 -0.03 0.03 -0.02 0.03 -0.03 0.03 -0.03 0.03 -0.03 0.02 -0.03 0.03 -0.03 0.02 -0.03 0.03 -0.03 0.02 -0.03 0.02 -0.03 0.02 -0.03 0.01 -0.03 0.02 -0.03 0.01 -0.03 0.02 -0.04 0.01 -0.03 0.01 -0.03 0 -0.03 0.01 -0.04 0 -0.03 0 0zm-0.37 -0.6l0.02 -0.02 0 0 0 0 0.01 0 0.01 0.01 0.01 0 0.02 0.01 0.01 0 0.01 0.01 0.02 0.01 0.02 0.01 0.01 0.01 0.02 0.01 0.02 0.01 0.02 0.01 0.01 0.02 0.02 0.01 0.02 0.02 0.02 0.02 0.01 0.02 0.02 0.02 0.02 0.02 0.01 0.02 0.01 0.03 0.02 0.02 0.01 0.03 0.01 0.03 0.01 0.04 0 0.03 0.01 0.04 0 0.03 0.01 0.04 0 0.05 -0.01 0.04 -0.03 0 0 -0.04 0 -0.04 0 -0.04 0 -0.04 -0.01 -0.03 0 -0.04 -0.01 -0.03 -0.01 -0.03 -0.01 -0.02 -0.01 -0.03 -0.02 -0.02 -0.01 -0.02 -0.02 -0.03 -0.01 -0.01 -0.02 -0.02 -0.01 -0.02 -0.02 -0.01 -0.02 -0.02 -0.01 -0.01 -0.02 -0.01 -0.02 -0.01 -0.01 -0.01 -0.02 -0.01 -0.01 -0.01 -0.02 -0.01 -0.01 -0.01 -0.02 0 -0.01 -0.01 -0.01 0 -0.01 -0.01 -0.01 0 -0.01 -0.01 0 0zm0.09 -0.26l-0.01 0.03 0 0 -0.01 0 0 0 0 0 0 0 -0.01 0 0 0.01 -0.01 0 0 0.01 0 0 -0.01 0.01 0 0.01 -0.01 0.01 0 0.01 0 0.01 -0.01 0.01 0 0.01 0 0.01 0 0.01 -0.01 0.01 0 0.01 0 0.01 0 0.01 0 0.01 0 0.01 0 0.01 0 0 0 0.01 0 0.01 0 0 0.01 0 0 0 0 0.01 -0.02 0.02 -0.01 0 0 -0.01 0 -0.01 -0.01 -0.01 0 0 0 -0.01 0 -0.01 0 -0.01 0 -0.01 0 -0.01 0 -0.01 0 -0.01 0 -0.02 0.01 -0.01 0 -0.01 0 -0.01 0 -0.01 0.01 -0.01 0 -0.01 0 -0.01 0.01 -0.01 0 -0.01 0.01 -0.01 0 -0.01 0.01 -0.01 0.01 -0.01 0 0 0.01 -0.01 0.01 0 0.01 0 0.01 0 0.01 0 0 0z"/>
    </g>
    <g>
     <path class="fil2" d="M0.21 5.4c0.06,0.03 0.2,0.18 0.23,0.15 0.08,-0.07 -0.02,-0.51 -0.13,-0.53 -0.09,-0.02 -0.16,0.35 -0.1,0.38z"/>
     <path id="1" class="fil1" d="M0.42 5.53l0.04 0.04 0 0 -0.01 0.01 -0.01 0 -0.01 0 -0.01 0 -0.01 0 -0.01 0 -0.01 -0.01 0 0 -0.01 -0.01 -0.01 0 -0.01 -0.01 -0.01 0 -0.01 -0.01 0 -0.01 -0.01 0 -0.01 -0.01 -0.01 -0.01 -0.01 -0.01 -0.01 0 -0.01 -0.01 0 -0.01 -0.01 0 -0.01 -0.01 -0.01 -0.01 -0.01 0 0 -0.01 -0.01 -0.01 -0.01 0 0 -0.01 -0.01 0 -0.01 0 0 0 0.03 -0.06 0 0.01 0.01 0 0.01 0.01 0.01 0 0 0.01 0.01 0 0.01 0.01 0.01 0.01 0.01 0 0.01 0.01 0 0.01 0.01 0 0.01 0.01 0.01 0.01 0.01 0.01 0.01 0 0 0.01 0.01 0.01 0.01 0 0.01 0.01 0.01 0 0 0.01 0.01 0 0.01 0.01 0 0 0.01 0 0 0 0 0 0 0 0 0 0 0.01 -0.01 0 0 0zm-0.11 -0.49l0.01 -0.05 0 0 0.01 0 0.02 0.01 0.01 0.01 0.01 0.01 0.02 0.02 0.01 0.01 0.01 0.02 0.01 0.01 0.01 0.02 0 0.02 0.01 0.02 0.01 0.03 0.01 0.02 0 0.02 0.01 0.02 0.01 0.03 0 0.02 0.01 0.03 0 0.02 0 0.02 0.01 0.03 0 0.02 0 0.02 0 0.02 0 0.02 0 0.02 0 0.02 -0.01 0.01 0 0.02 -0.01 0.02 -0.01 0.01 -0.01 0.01 -0.04 -0.04 0.01 -0.01 0 0 0 -0.01 0 -0.01 0.01 -0.01 0 -0.02 0 -0.01 0 -0.02 0 -0.02 0 -0.02 0 -0.02 -0.01 -0.02 0 -0.02 0 -0.02 -0.01 -0.03 0 -0.02 -0.01 -0.02 0 -0.02 -0.01 -0.02 -0.01 -0.02 0 -0.02 -0.01 -0.02 -0.01 -0.02 -0.01 -0.02 0 -0.01 -0.01 -0.02 -0.01 -0.01 -0.01 -0.01 -0.01 -0.01 0 0 -0.01 0 0 -0.01 0 0zm-0.08 0.33l-0.03 0.06 0 0 -0.01 -0.01 -0.01 -0.01 -0.01 -0.02 0 -0.01 -0.01 -0.01 0 -0.02 0 -0.01 0 -0.02 0 -0.01 0 -0.02 0 -0.02 0 -0.01 0 -0.02 0.01 -0.02 0 -0.02 0.01 -0.02 0 -0.02 0 -0.01 0.01 -0.02 0.01 -0.02 0 -0.02 0.01 -0.01 0.01 -0.02 0 -0.01 0.01 -0.01 0.01 -0.02 0.01 -0.01 0.01 -0.01 0.01 0 0.02 -0.01 0.01 0 0.02 0 -0.01 0.05 0 0 0 0.01 -0.01 0 0 0 -0.01 0 0 0.01 -0.01 0.01 0 0.01 -0.01 0.01 -0.01 0.01 0 0.02 -0.01 0.01 0 0.02 -0.01 0.01 0 0.02 -0.01 0.02 0 0.01 0 0.02 -0.01 0.02 0 0.01 0 0.02 0 0.01 0 0.02 0 0.01 0 0.01 0 0.02 0 0.01 0 0 0.01 0.01 0 0 0 0 0 0 0 0z"/>
    </g>
    <g>
     <path class="fil2" d="M1.16 4.61c0.06,0.07 0.21,0.08 0.28,0.01 0.07,-0.06 -0.01,-0.26 -0.11,-0.27 -0.13,-0.01 -0.25,0.17 -0.17,0.26z"/>
     <path id="1" class="fil1" d="M1.42 4.6l0.04 0.05 0 0 -0.01 0 -0.01 0.01 -0.01 0.01 -0.01 0 -0.01 0.01 -0.01 0 -0.01 0 -0.01 0.01 -0.01 0 -0.01 0 -0.01 0 -0.01 0.01 -0.01 0 -0.01 0 -0.02 0 -0.01 0 -0.01 -0.01 -0.01 0 -0.01 0 -0.01 0 -0.01 0 -0.01 -0.01 -0.01 0 -0.01 0 -0.01 -0.01 -0.01 0 -0.01 -0.01 -0.01 -0.01 -0.01 0 -0.01 -0.01 -0.01 -0.01 -0.01 0 0.05 -0.04 0 0 0.01 0.01 0 0 0.01 0.01 0.01 0 0 0.01 0.01 0 0.01 0 0.01 0.01 0 0 0.01 0 0.01 0 0.01 0.01 0.01 0 0.01 0 0.01 0 0.01 0 0 0 0.01 0 0.01 0 0.01 0 0.01 0 0.01 -0.01 0.01 0 0 0 0.01 0 0.01 -0.01 0.01 0 0 0 0.01 -0.01 0 0 0.01 -0.01 0 0zm-0.1 -0.22l0.01 -0.06 0 0 0.01 0.01 0.01 0 0.02 0 0.01 0.01 0.01 0.01 0.01 0 0.01 0.01 0.01 0.01 0.01 0.01 0.01 0.01 0 0.01 0.01 0.01 0.01 0.01 0 0.01 0.01 0.01 0 0.02 0.01 0.01 0 0.01 0.01 0.01 0 0.02 0 0.01 0 0.01 0 0.02 0 0.01 0 0.01 0 0.01 0 0.01 -0.01 0.01 0 0.02 -0.01 0.01 0 0.01 -0.01 0.01 -0.04 -0.05 0 0 0.01 0 0 -0.01 0 0 0 -0.01 0.01 -0.01 0 -0.01 0 0 0 -0.01 0 -0.01 0 -0.01 -0.01 -0.01 0 -0.01 0 -0.01 0 -0.01 -0.01 -0.01 0 -0.01 -0.01 -0.01 0 -0.01 -0.01 -0.01 0 -0.01 -0.01 -0.01 -0.01 0 0 -0.01 -0.01 -0.01 0 0 -0.01 -0.01 -0.01 0 -0.01 0 0 -0.01 -0.01 0 -0.01 0 0 0zm-0.14 0.21l-0.05 0.04 0 0 0 -0.02 -0.01 -0.01 -0.01 -0.01 0 -0.01 -0.01 -0.02 0 -0.01 0 -0.01 0 -0.01 0 -0.02 0.01 -0.01 0 -0.01 0.01 -0.02 0 -0.01 0.01 -0.01 0 -0.01 0.01 -0.01 0.01 -0.01 0.01 -0.02 0.01 -0.01 0.01 0 0.01 -0.01 0.01 -0.01 0.01 -0.01 0.01 -0.01 0.01 0 0.02 -0.01 0.01 -0.01 0.01 0 0.02 0 0.01 0 0.01 -0.01 0.02 0 -0.01 0.06 -0.01 0 0 0 -0.01 0 -0.01 0.01 -0.01 0 -0.01 0 -0.01 0.01 -0.01 0 -0.01 0.01 -0.01 0 -0.01 0.01 0 0.01 -0.01 0 -0.01 0.01 -0.01 0.01 0 0.01 -0.01 0.01 0 0.01 -0.01 0.01 0 0 0 0.01 -0.01 0.01 0 0.01 0 0.01 0 0.01 0 0.01 0 0 0 0.01 0 0.01 0.01 0.01 0 0 0.01 0.01 0 0z"/>
    </g>
   </g>
   <rect class="fil3" x="0.09" width="7.51" height="7.51"/>
  </g>
 </g>
</svg>
